G75*
%MOIN*%
%OFA0B0*%
%FSLAX24Y24*%
%IPPOS*%
%LPD*%
%AMOC8*
5,1,8,0,0,1.08239X$1,22.5*
%
%ADD10R,0.0512X0.0355*%
%ADD11C,0.0780*%
%ADD12R,0.0355X0.0512*%
%ADD13R,0.0434X0.0237*%
%ADD14R,0.0260X0.0820*%
%ADD15R,0.0670X0.0500*%
%ADD16R,0.0720X0.0060*%
%ADD17C,0.1240*%
%ADD18C,0.0690*%
%ADD19R,0.0690X0.0690*%
%ADD20R,0.0700X0.0180*%
%ADD21C,0.0276*%
%ADD22R,0.0591X0.0158*%
%ADD23R,0.1410X0.1780*%
%ADD24C,0.0555*%
%ADD25R,0.0555X0.0555*%
%ADD26C,0.0552*%
%ADD27R,0.0867X0.0867*%
%ADD28C,0.0867*%
%ADD29R,0.0150X0.0620*%
%ADD30R,0.0620X0.0150*%
%ADD31OC8,0.0780*%
%ADD32R,0.0594X0.0594*%
%ADD33C,0.0594*%
%ADD34R,0.0670X0.0710*%
%ADD35R,0.0410X0.0280*%
%ADD36R,0.0280X0.0410*%
%ADD37R,0.0473X0.0926*%
%ADD38R,0.0843X0.1241*%
%ADD39R,0.1260X0.0906*%
%ADD40R,0.0591X0.0528*%
%ADD41R,0.0512X0.0827*%
%ADD42R,0.0827X0.0512*%
%ADD43R,0.0276X0.0690*%
%ADD44R,0.1812X0.1851*%
%ADD45R,0.0437X0.0437*%
%ADD46R,0.2040X0.1420*%
%ADD47R,0.1040X0.1091*%
%ADD48R,0.0540X0.0340*%
%ADD49R,0.0580X0.0220*%
%ADD50OC8,0.0317*%
%ADD51R,0.0317X0.0317*%
D10*
X003320Y005609D03*
X003320Y006317D03*
X003243Y009093D03*
X002550Y009093D03*
X001883Y009093D03*
X001224Y009093D03*
X000592Y009093D03*
X000592Y009802D03*
X001224Y009802D03*
X001883Y009802D03*
X002550Y009802D03*
X003243Y009802D03*
X004599Y011750D03*
X005229Y011750D03*
X005859Y011750D03*
X006489Y011750D03*
X006489Y012459D03*
X005859Y012459D03*
X005229Y012459D03*
X004599Y012459D03*
X008724Y015623D03*
X008724Y016331D03*
X011218Y013731D03*
X011218Y013022D03*
X017277Y013089D03*
X017277Y012380D03*
X017218Y014900D03*
X017218Y015609D03*
X017751Y016061D03*
X018342Y016061D03*
X018342Y016770D03*
X017751Y016770D03*
X017798Y021534D03*
X017798Y022243D03*
X004353Y018384D03*
X004353Y017676D03*
X003684Y019998D03*
X003684Y020707D03*
X003920Y021495D03*
X003349Y021495D03*
X003349Y022203D03*
X003920Y022203D03*
X020269Y008306D03*
X020269Y007597D03*
X023773Y006160D03*
X023773Y005451D03*
X024285Y007223D03*
X024285Y007932D03*
X027119Y006199D03*
X027119Y005491D03*
X027592Y007223D03*
X027592Y007932D03*
X031292Y008089D03*
X031292Y007380D03*
X031096Y015333D03*
X031096Y016042D03*
X017828Y004743D03*
X017277Y004743D03*
X017277Y004034D03*
X017828Y004034D03*
D11*
X005824Y010608D03*
X004824Y010708D03*
X003824Y010608D03*
X002824Y010708D03*
X001824Y010608D03*
X000824Y010708D03*
X018389Y019480D03*
X018389Y020620D03*
D12*
X018389Y021613D03*
X018389Y022164D03*
X019098Y022164D03*
X019098Y021613D03*
X016735Y022026D03*
X016027Y022026D03*
X014117Y022046D03*
X013409Y022046D03*
X014875Y016180D03*
X015584Y016180D03*
X015584Y014290D03*
X014875Y014290D03*
X014875Y013719D03*
X015584Y013719D03*
X013186Y011182D03*
X012477Y011182D03*
X011519Y011731D03*
X010810Y011731D03*
X010377Y011731D03*
X009668Y011731D03*
X009668Y012439D03*
X010377Y012439D03*
X010810Y012439D03*
X011519Y012439D03*
X010111Y010845D03*
X010623Y010451D03*
X010111Y010058D03*
X009403Y010058D03*
X009403Y010845D03*
X011332Y010451D03*
X011218Y008813D03*
X011229Y008176D03*
X011938Y008176D03*
X011926Y008813D03*
X011989Y005991D03*
X012698Y005991D03*
X010954Y005983D03*
X010245Y005983D03*
X009849Y005977D03*
X009141Y005977D03*
X006255Y009552D03*
X005546Y009552D03*
X003725Y008502D03*
X003017Y008502D03*
X001194Y008542D03*
X000485Y008542D03*
X000485Y007951D03*
X000485Y007361D03*
X001194Y007361D03*
X001194Y007951D03*
X001194Y006770D03*
X000485Y006770D03*
X003548Y004237D03*
X004257Y004237D03*
X014072Y004605D03*
X014781Y004605D03*
X020198Y006396D03*
X020907Y006396D03*
X019029Y009191D03*
X018320Y009191D03*
X023930Y015432D03*
X024639Y015432D03*
X027474Y015432D03*
X028182Y015432D03*
X006458Y014306D03*
X005749Y014306D03*
D13*
X002198Y008138D03*
X002198Y007823D03*
X002198Y007508D03*
X002198Y007193D03*
X001647Y007193D03*
X001647Y007508D03*
X001647Y007823D03*
X001647Y008138D03*
D14*
X010216Y014475D03*
X010716Y014475D03*
X011216Y014475D03*
X011716Y014475D03*
X011716Y016415D03*
X011216Y016415D03*
X010716Y016415D03*
X010216Y016415D03*
D15*
X009436Y016249D03*
X009436Y015649D03*
D16*
X009436Y015949D03*
D17*
X001765Y020924D03*
X001765Y005176D03*
X030899Y005176D03*
X030899Y020924D03*
D18*
X023223Y021320D03*
X019993Y017497D03*
X031292Y011408D03*
X028576Y005203D03*
D19*
X028576Y004203D03*
X031292Y012408D03*
X023223Y019320D03*
X019993Y016497D03*
D20*
X007204Y016548D03*
X007204Y016288D03*
X007204Y016028D03*
X007204Y015778D03*
X007204Y015518D03*
X007204Y015268D03*
X007204Y015008D03*
X007204Y014748D03*
X004984Y014748D03*
X004984Y015008D03*
X004984Y015268D03*
X004984Y015518D03*
X004984Y015778D03*
X004984Y016028D03*
X004984Y016288D03*
X004984Y016548D03*
D21*
X011816Y011266D03*
X011812Y010833D03*
X011812Y010451D03*
X011804Y010077D03*
D22*
X014462Y009723D03*
X014462Y009526D03*
X014462Y009329D03*
X014462Y009132D03*
X014462Y008936D03*
X014462Y008739D03*
X014462Y008542D03*
X014462Y008345D03*
X014462Y008148D03*
X014462Y007951D03*
X014462Y007754D03*
X014462Y007558D03*
X014462Y007361D03*
X014462Y007164D03*
X014462Y006967D03*
X014462Y006770D03*
X014462Y006573D03*
X014462Y006376D03*
X014462Y006180D03*
X014462Y005983D03*
X014462Y005786D03*
X014462Y005589D03*
X014462Y005392D03*
X014462Y005195D03*
X017257Y005195D03*
X017257Y005392D03*
X017257Y005589D03*
X017257Y005786D03*
X017257Y005983D03*
X017257Y006180D03*
X017257Y006376D03*
X017257Y006573D03*
X017257Y006770D03*
X017257Y006967D03*
X017257Y007164D03*
X017257Y007361D03*
X017257Y007558D03*
X017257Y007754D03*
X017257Y007951D03*
X017257Y008148D03*
X017257Y008345D03*
X017257Y008542D03*
X017257Y008739D03*
X017257Y008936D03*
X017257Y009132D03*
X017257Y009329D03*
X017257Y009526D03*
X017257Y009723D03*
D23*
X015859Y007459D03*
D24*
X011804Y018109D03*
X011017Y018109D03*
X007572Y018089D03*
X006785Y018089D03*
X011174Y021219D03*
X007838Y021317D03*
X007050Y021317D03*
X006263Y021317D03*
X005475Y021317D03*
D25*
X008625Y021317D03*
X011962Y021219D03*
X010229Y018109D03*
X005997Y018089D03*
D26*
X008359Y018837D03*
X010387Y020471D03*
X012592Y018857D03*
X004688Y020569D03*
D27*
X024462Y013621D03*
X026676Y021632D03*
D28*
X028330Y021632D03*
X028330Y019467D03*
X026676Y019467D03*
X026115Y013621D03*
X027769Y013621D03*
X027769Y011849D03*
X026115Y011849D03*
X024462Y011849D03*
D29*
X007772Y008724D03*
X007572Y008724D03*
X007372Y008724D03*
X007182Y008724D03*
X006982Y008724D03*
X006782Y008724D03*
X006592Y008724D03*
X006392Y008724D03*
X006192Y008724D03*
X005992Y008724D03*
X005802Y008724D03*
X005602Y008724D03*
X005402Y008724D03*
X005212Y008724D03*
X005012Y008724D03*
X004812Y008724D03*
X004812Y004304D03*
X005012Y004304D03*
X005212Y004304D03*
X005402Y004304D03*
X005602Y004304D03*
X005802Y004304D03*
X005992Y004304D03*
X006192Y004304D03*
X006392Y004304D03*
X006592Y004304D03*
X006782Y004304D03*
X006982Y004304D03*
X007182Y004304D03*
X007372Y004304D03*
X007572Y004304D03*
X007772Y004304D03*
D30*
X008502Y005034D03*
X008502Y005234D03*
X008502Y005434D03*
X008502Y005624D03*
X008502Y005824D03*
X008502Y006024D03*
X008502Y006214D03*
X008502Y006414D03*
X008502Y006614D03*
X008502Y006814D03*
X008502Y007004D03*
X008502Y007204D03*
X008502Y007404D03*
X008502Y007594D03*
X008502Y007794D03*
X008502Y007994D03*
X004082Y007994D03*
X004082Y007794D03*
X004082Y007594D03*
X004082Y007404D03*
X004082Y007204D03*
X004082Y007004D03*
X004082Y006814D03*
X004082Y006614D03*
X004082Y006414D03*
X004082Y006214D03*
X004082Y006024D03*
X004082Y005824D03*
X004082Y005624D03*
X004082Y005434D03*
X004082Y005234D03*
X004082Y005034D03*
D31*
X010755Y005124D03*
X011755Y005124D03*
X012755Y005124D03*
X012755Y004124D03*
X011755Y004124D03*
X010755Y004124D03*
D32*
X001678Y013304D03*
D33*
X002678Y013304D03*
X002678Y014304D03*
X001678Y014304D03*
X001678Y015304D03*
X002678Y015304D03*
X002678Y016304D03*
X001678Y016304D03*
X001678Y017304D03*
X002678Y017304D03*
D34*
X013704Y017081D03*
X016924Y017081D03*
X016924Y021061D03*
X013704Y021061D03*
D35*
X013574Y020491D03*
X013574Y020131D03*
X013574Y019781D03*
X013574Y019421D03*
X013574Y019071D03*
X013574Y018721D03*
X013574Y018361D03*
X013574Y018011D03*
X013574Y017651D03*
X017054Y017651D03*
X017054Y018011D03*
X017054Y018361D03*
X017054Y018721D03*
X017054Y019071D03*
X017054Y019421D03*
X017054Y019781D03*
X017054Y020131D03*
X017054Y020491D03*
D36*
X016374Y021211D03*
X016024Y021211D03*
X015664Y021211D03*
X015314Y021211D03*
X014964Y021211D03*
X014604Y021211D03*
X014254Y021211D03*
X014254Y016931D03*
X014604Y016931D03*
X014964Y016931D03*
X015314Y016931D03*
X015664Y016931D03*
X016024Y016931D03*
X016374Y016931D03*
D37*
X015231Y020373D03*
D38*
X016361Y018554D03*
D39*
X014806Y019030D03*
X014806Y017660D03*
D40*
X016235Y017475D03*
D41*
X013842Y016101D03*
X012582Y016101D03*
X012582Y014920D03*
X013842Y014920D03*
X013842Y013739D03*
X012582Y013739D03*
D42*
X017936Y017380D03*
X017936Y018640D03*
X020161Y018621D03*
X020161Y019880D03*
X020161Y020510D03*
X020161Y021770D03*
D43*
X021842Y015313D03*
X022342Y015313D03*
X022842Y015313D03*
X023342Y015313D03*
X025267Y015313D03*
X025767Y015313D03*
X026267Y015313D03*
X026767Y015313D03*
X028889Y015313D03*
X029389Y015313D03*
X029889Y015313D03*
X030389Y015313D03*
X030389Y007951D03*
X029889Y007951D03*
X029389Y007951D03*
X028889Y007951D03*
X026767Y007951D03*
X026267Y007951D03*
X025767Y007951D03*
X025267Y007951D03*
X023342Y007951D03*
X022842Y007951D03*
X022342Y007951D03*
X021842Y007951D03*
D44*
X022592Y009447D03*
X026017Y009447D03*
X029639Y009447D03*
X029639Y016810D03*
X026017Y016810D03*
X022592Y016810D03*
D45*
X022592Y016857D03*
X023092Y016857D03*
X023092Y017357D03*
X022592Y017357D03*
X022092Y017357D03*
X022092Y016857D03*
X022092Y016357D03*
X022592Y016357D03*
X023092Y016357D03*
X025517Y016357D03*
X026017Y016357D03*
X026017Y016857D03*
X025517Y016857D03*
X025517Y017357D03*
X026017Y017357D03*
X026517Y017357D03*
X026517Y016857D03*
X026517Y016357D03*
X029139Y016357D03*
X029639Y016357D03*
X029639Y016857D03*
X029139Y016857D03*
X029139Y017357D03*
X029639Y017357D03*
X030139Y017357D03*
X030139Y016857D03*
X030139Y016357D03*
X030139Y009995D03*
X029639Y009995D03*
X029139Y009995D03*
X029139Y009495D03*
X029639Y009495D03*
X030139Y009495D03*
X030139Y008995D03*
X029639Y008995D03*
X029139Y008995D03*
X026517Y008995D03*
X026517Y009495D03*
X026517Y009995D03*
X026017Y009995D03*
X025517Y009995D03*
X025517Y009495D03*
X026017Y009495D03*
X026017Y008995D03*
X025517Y008995D03*
X023092Y008995D03*
X022592Y008995D03*
X022592Y009495D03*
X023092Y009495D03*
X023092Y009995D03*
X022592Y009995D03*
X022092Y009995D03*
X022092Y009495D03*
X022092Y008995D03*
D46*
X022316Y006674D03*
X022316Y005044D03*
X025781Y005044D03*
X025781Y006674D03*
D47*
X024304Y009664D03*
X027808Y009664D03*
X031479Y009664D03*
X031617Y013768D03*
X027828Y016869D03*
X024304Y016869D03*
D48*
X024304Y015943D03*
X027828Y015943D03*
X031617Y014694D03*
X031479Y008738D03*
X027808Y008738D03*
X024304Y008738D03*
D49*
X016601Y012374D03*
X016601Y012624D03*
X016601Y012884D03*
X016601Y013134D03*
X014881Y013134D03*
X014881Y012884D03*
X014881Y012624D03*
X014881Y012374D03*
X014881Y014874D03*
X014881Y015124D03*
X014881Y015384D03*
X014881Y015634D03*
X016601Y015634D03*
X016601Y015384D03*
X016601Y015124D03*
X016601Y014874D03*
D50*
X020170Y009487D03*
X020731Y009497D03*
X019521Y009349D03*
X019718Y006908D03*
X020190Y006908D03*
X020781Y005491D03*
X020781Y005097D03*
X020781Y004723D03*
X020781Y004329D03*
X024363Y006042D03*
X024363Y006790D03*
X027340Y004947D03*
X027907Y006199D03*
X028143Y006672D03*
X028143Y007223D03*
X010544Y008207D03*
X010377Y008670D03*
X010082Y008670D03*
X010082Y008975D03*
X010377Y008975D03*
X008635Y010018D03*
X006981Y007567D03*
X006588Y007567D03*
D51*
X003536Y004231D03*
X004257Y004223D03*
X004733Y004920D03*
X004733Y005345D03*
X004875Y005845D03*
X004777Y006278D03*
X005694Y005617D03*
X006076Y005861D03*
X006450Y006081D03*
X006804Y006239D03*
X007277Y006042D03*
X005300Y005329D03*
X003312Y005601D03*
X003320Y006317D03*
X004725Y007743D03*
X004729Y008124D03*
X003399Y008030D03*
X004245Y009723D03*
X005328Y011278D03*
X006529Y011278D03*
X006509Y012459D03*
X005544Y012459D03*
X004599Y012459D03*
X006458Y014306D03*
X008143Y014349D03*
X008615Y014349D03*
X009048Y014349D03*
X010214Y013593D03*
X011210Y013735D03*
X011954Y013542D03*
X011509Y012439D03*
X011509Y011731D03*
X013202Y011160D03*
X013517Y011160D03*
X013812Y010254D03*
X014403Y010195D03*
X015387Y009664D03*
X016174Y009664D03*
X016174Y008876D03*
X015387Y008876D03*
X015544Y008089D03*
X015859Y008089D03*
X016174Y008089D03*
X016174Y007774D03*
X015859Y007774D03*
X015544Y007774D03*
X015544Y007459D03*
X015544Y007144D03*
X015859Y007144D03*
X015859Y007459D03*
X016174Y007459D03*
X016174Y007144D03*
X016174Y006829D03*
X015859Y006829D03*
X015544Y006829D03*
X015387Y006121D03*
X016174Y006121D03*
X016174Y005333D03*
X015387Y005333D03*
X015190Y003916D03*
X014718Y003916D03*
X014245Y003916D03*
X013536Y004644D03*
X013418Y005707D03*
X011617Y006032D03*
X011302Y006032D03*
X010249Y005983D03*
X009846Y005983D03*
X009757Y005215D03*
X008773Y004565D03*
X008182Y003995D03*
X006922Y009369D03*
X009029Y011613D03*
X009029Y012065D03*
X009666Y011735D03*
X009670Y012447D03*
X014871Y016176D03*
X014767Y017439D03*
X015161Y017439D03*
X015161Y017833D03*
X014767Y017833D03*
X014373Y017833D03*
X014373Y017439D03*
X016224Y017479D03*
X018340Y016770D03*
X021804Y014703D03*
X021804Y014428D03*
X022080Y014428D03*
X022080Y014703D03*
X022355Y014703D03*
X022355Y014428D03*
X022631Y014428D03*
X022631Y014703D03*
X022907Y014703D03*
X022907Y014428D03*
X022848Y015510D03*
X024639Y015510D03*
X025131Y014743D03*
X025407Y014743D03*
X025682Y014743D03*
X025958Y014743D03*
X026233Y014743D03*
X026233Y014467D03*
X025958Y014467D03*
X025682Y014467D03*
X025407Y014467D03*
X025131Y014467D03*
X026273Y015530D03*
X028162Y015530D03*
X028753Y014841D03*
X028753Y014565D03*
X029029Y014565D03*
X029304Y014565D03*
X029580Y014565D03*
X029855Y014565D03*
X029855Y014841D03*
X029580Y014841D03*
X029304Y014841D03*
X029029Y014841D03*
X027828Y016869D03*
X027828Y017735D03*
X024324Y017715D03*
X024304Y016869D03*
X019117Y020412D03*
X019117Y020707D03*
X019107Y021613D03*
X020151Y021770D03*
X015239Y020353D03*
X003930Y022223D03*
X003340Y022223D03*
X003694Y019979D03*
X000584Y009821D03*
X000505Y006317D03*
X015662Y003916D03*
X016135Y003916D03*
X016607Y003916D03*
X017277Y004743D03*
X017749Y004743D03*
X017277Y005058D03*
X018379Y004310D03*
X018379Y003916D03*
X021765Y004664D03*
X022040Y004664D03*
X022040Y004939D03*
X021765Y004939D03*
X021765Y005215D03*
X022040Y005215D03*
X022040Y005491D03*
X021765Y005491D03*
X022316Y005491D03*
X022592Y005491D03*
X022867Y005491D03*
X022867Y005215D03*
X022592Y005215D03*
X022592Y004939D03*
X022592Y004664D03*
X022867Y004664D03*
X022867Y004939D03*
X022316Y004939D03*
X022316Y004664D03*
X022316Y005215D03*
X025190Y005254D03*
X025190Y004979D03*
X025466Y004979D03*
X025741Y004979D03*
X025741Y005254D03*
X025466Y005254D03*
X026017Y005254D03*
X026017Y004979D03*
X026292Y004979D03*
X026292Y005254D03*
X026292Y005530D03*
X026017Y005530D03*
X025741Y005530D03*
X025466Y005530D03*
X025190Y005530D03*
X025190Y004703D03*
X025466Y004703D03*
X025741Y004703D03*
X026017Y004703D03*
X026292Y004703D03*
X026273Y008168D03*
X027808Y009664D03*
X024304Y009664D03*
X022848Y008128D03*
X020269Y007577D03*
X018320Y009841D03*
X031804Y007617D03*
X031814Y007036D03*
M02*
