G75*
%MOIN*%
%OFA0B0*%
%FSLAX24Y24*%
%IPPOS*%
%LPD*%
%AMOC8*
5,1,8,0,0,1.08239X$1,22.5*
%
%ADD10C,0.0030*%
%ADD11C,0.0100*%
%ADD12C,0.0110*%
%ADD13C,0.0070*%
%ADD14C,0.0060*%
%ADD15C,0.0050*%
%ADD16C,0.0080*%
%ADD17C,0.0000*%
%ADD18C,0.0120*%
%ADD19C,0.0080*%
%ADD20C,0.0040*%
%ADD21C,0.0197*%
%ADD22C,0.0020*%
D10*
X009144Y006341D02*
X009192Y006292D01*
X009289Y006292D01*
X009338Y006341D01*
X009439Y006292D02*
X009632Y006486D01*
X009632Y006534D01*
X009584Y006582D01*
X009487Y006582D01*
X009439Y006534D01*
X009338Y006534D02*
X009289Y006582D01*
X009192Y006582D01*
X009144Y006534D01*
X009144Y006341D01*
X009439Y006292D02*
X009632Y006292D01*
X009733Y006341D02*
X009927Y006534D01*
X009927Y006341D01*
X009878Y006292D01*
X009782Y006292D01*
X009733Y006341D01*
X009733Y006534D01*
X009782Y006582D01*
X009878Y006582D01*
X009927Y006534D01*
X009914Y008593D02*
X009720Y008593D01*
X009817Y008593D02*
X009817Y008884D01*
X009720Y008787D01*
X009619Y008835D02*
X009571Y008884D01*
X009474Y008884D01*
X009426Y008835D01*
X009426Y008642D01*
X009474Y008593D01*
X009571Y008593D01*
X009619Y008642D01*
X010015Y008642D02*
X010015Y008739D01*
X010160Y008739D01*
X010208Y008690D01*
X010208Y008642D01*
X010160Y008593D01*
X010063Y008593D01*
X010015Y008642D01*
X010015Y008739D02*
X010112Y008835D01*
X010208Y008884D01*
X008940Y009502D02*
X008795Y009647D01*
X008746Y009598D02*
X008940Y009792D01*
X008746Y009792D02*
X008746Y009502D01*
X008645Y009502D02*
X008452Y009502D01*
X008452Y009792D01*
X008351Y009744D02*
X008302Y009792D01*
X008206Y009792D01*
X008157Y009744D01*
X008157Y009550D01*
X008206Y009502D01*
X008302Y009502D01*
X008351Y009550D01*
X008169Y009479D02*
X007856Y009166D01*
X007856Y009322D02*
X008169Y009322D01*
X008169Y009166D02*
X007856Y009479D01*
X007911Y009502D02*
X007863Y009550D01*
X007911Y009502D02*
X008008Y009502D01*
X008056Y009550D01*
X008056Y009598D01*
X008008Y009647D01*
X007911Y009647D01*
X007863Y009695D01*
X007863Y009744D01*
X007911Y009792D01*
X008008Y009792D01*
X008056Y009744D01*
X008013Y009479D02*
X008013Y009166D01*
X008056Y010210D02*
X008056Y010501D01*
X007959Y010404D01*
X007863Y010501D01*
X007863Y010210D01*
X008157Y010210D02*
X008254Y010210D01*
X008206Y010210D02*
X008206Y010501D01*
X008254Y010501D02*
X008157Y010501D01*
X008206Y010683D02*
X008302Y010683D01*
X008351Y010731D01*
X008351Y010925D01*
X008302Y010973D01*
X008206Y010973D01*
X008157Y010925D01*
X008157Y010731D01*
X008206Y010683D01*
X008056Y010683D02*
X008056Y010973D01*
X007959Y010876D01*
X007863Y010973D01*
X007863Y010683D01*
X007364Y010646D02*
X007315Y010597D01*
X007170Y010597D01*
X007170Y010501D02*
X007170Y010791D01*
X007315Y010791D01*
X007364Y010742D01*
X007364Y010646D01*
X007069Y010597D02*
X007069Y010549D01*
X007021Y010501D01*
X006924Y010501D01*
X006876Y010549D01*
X006774Y010549D02*
X006726Y010501D01*
X006629Y010501D01*
X006581Y010549D01*
X006581Y010742D01*
X006629Y010791D01*
X006726Y010791D01*
X006774Y010742D01*
X006876Y010742D02*
X006876Y010694D01*
X006924Y010646D01*
X007021Y010646D01*
X007069Y010597D01*
X007069Y010742D02*
X007021Y010791D01*
X006924Y010791D01*
X006876Y010742D01*
X006481Y010791D02*
X006384Y010791D01*
X006433Y010791D02*
X006433Y010501D01*
X006481Y010501D02*
X006384Y010501D01*
X007863Y011204D02*
X007863Y011397D01*
X007911Y011445D01*
X008008Y011445D01*
X008056Y011397D01*
X008157Y011397D02*
X008157Y011349D01*
X008206Y011300D01*
X008302Y011300D01*
X008351Y011252D01*
X008351Y011204D01*
X008302Y011155D01*
X008206Y011155D01*
X008157Y011204D01*
X008056Y011204D02*
X008008Y011155D01*
X007911Y011155D01*
X007863Y011204D01*
X008157Y011397D02*
X008206Y011445D01*
X008302Y011445D01*
X008351Y011397D01*
X008500Y010973D02*
X008452Y010925D01*
X008452Y010876D01*
X008500Y010828D01*
X008597Y010828D01*
X008645Y010780D01*
X008645Y010731D01*
X008597Y010683D01*
X008500Y010683D01*
X008452Y010731D01*
X008499Y010501D02*
X008402Y010501D01*
X008354Y010452D01*
X008354Y010404D01*
X008402Y010355D01*
X008499Y010355D01*
X008547Y010307D01*
X008547Y010259D01*
X008499Y010210D01*
X008402Y010210D01*
X008354Y010259D01*
X008547Y010452D02*
X008499Y010501D01*
X008648Y010452D02*
X008648Y010259D01*
X008697Y010210D01*
X008793Y010210D01*
X008842Y010259D01*
X008842Y010452D01*
X008793Y010501D01*
X008697Y010501D01*
X008648Y010452D01*
X008746Y010683D02*
X008843Y010683D01*
X008795Y010683D02*
X008795Y010973D01*
X008843Y010973D02*
X008746Y010973D01*
X008645Y010925D02*
X008597Y010973D01*
X008500Y010973D01*
X011724Y011603D02*
X011724Y011893D01*
X011917Y011893D01*
X012019Y011796D02*
X012115Y011893D01*
X012212Y011796D01*
X012212Y011603D01*
X012313Y011651D02*
X012313Y011893D01*
X012212Y011748D02*
X012019Y011748D01*
X012019Y011796D02*
X012019Y011603D01*
X011821Y011748D02*
X011724Y011748D01*
X012313Y011651D02*
X012362Y011603D01*
X012458Y011603D01*
X012507Y011651D01*
X012507Y011893D01*
X012608Y011893D02*
X012608Y011603D01*
X012801Y011603D01*
X012999Y011603D02*
X012999Y011893D01*
X012903Y011893D02*
X013096Y011893D01*
X013135Y012292D02*
X013135Y012582D01*
X012942Y012582D02*
X012942Y012292D01*
X013039Y012389D01*
X013135Y012292D01*
X012744Y012292D02*
X012744Y012582D01*
X012647Y012582D02*
X012841Y012582D01*
X012546Y012534D02*
X012498Y012582D01*
X012401Y012582D01*
X012353Y012534D01*
X012353Y012340D01*
X012401Y012292D01*
X012498Y012292D01*
X012546Y012340D01*
X012251Y012340D02*
X012251Y012534D01*
X012203Y012582D01*
X012106Y012582D01*
X012058Y012534D01*
X012058Y012340D01*
X012106Y012292D01*
X012203Y012292D01*
X012251Y012340D01*
X013181Y013350D02*
X013375Y013350D01*
X013423Y013398D01*
X013423Y013495D01*
X013375Y013544D01*
X013278Y013645D02*
X013278Y013838D01*
X013375Y013939D02*
X013181Y014133D01*
X013375Y014133D01*
X013423Y014085D01*
X013423Y013988D01*
X013375Y013939D01*
X013181Y013939D01*
X013133Y013988D01*
X013133Y014085D01*
X013181Y014133D01*
X013133Y013790D02*
X013278Y013645D01*
X013181Y013544D02*
X013133Y013495D01*
X013133Y013398D01*
X013181Y013350D01*
X013133Y013790D02*
X013423Y013790D01*
X013370Y014582D02*
X013176Y014582D01*
X013128Y014630D01*
X013128Y014727D01*
X013176Y014775D01*
X013273Y014876D02*
X013176Y014973D01*
X013128Y015070D01*
X013273Y015021D02*
X013273Y014876D01*
X013370Y014876D01*
X013418Y014925D01*
X013418Y015021D01*
X013370Y015070D01*
X013322Y015070D01*
X013273Y015021D01*
X013370Y014775D02*
X013418Y014727D01*
X013418Y014630D01*
X013370Y014582D01*
X013385Y015722D02*
X013191Y015722D01*
X013143Y015771D01*
X013143Y015867D01*
X013191Y015916D01*
X013288Y016017D02*
X013143Y016162D01*
X013433Y016162D01*
X013288Y016210D02*
X013288Y016017D01*
X013385Y015916D02*
X013433Y015867D01*
X013433Y015771D01*
X013385Y015722D01*
X013385Y016311D02*
X013433Y016360D01*
X013433Y016457D01*
X013385Y016505D01*
X013288Y016505D01*
X013239Y016457D01*
X013239Y016408D01*
X013288Y016311D01*
X013143Y016311D01*
X013143Y016505D01*
X011124Y018540D02*
X011172Y018589D01*
X011172Y018685D01*
X011124Y018734D01*
X011172Y018835D02*
X010979Y018835D01*
X010882Y018932D01*
X010979Y019028D01*
X011172Y019028D01*
X011172Y019130D02*
X010882Y019130D01*
X011172Y019323D01*
X010882Y019323D01*
X011027Y019028D02*
X011027Y018835D01*
X010930Y018734D02*
X010882Y018685D01*
X010882Y018589D01*
X010930Y018540D01*
X011124Y018540D01*
X011661Y018644D02*
X011710Y018595D01*
X011903Y018595D01*
X011952Y018644D01*
X011952Y018740D01*
X011903Y018789D01*
X011952Y018890D02*
X011758Y018890D01*
X011661Y018987D01*
X011758Y019084D01*
X011952Y019084D01*
X011952Y019185D02*
X011661Y019185D01*
X011952Y019378D01*
X011661Y019378D01*
X011807Y019084D02*
X011807Y018890D01*
X011710Y018789D02*
X011661Y018740D01*
X011661Y018644D01*
X011221Y019424D02*
X011221Y019618D01*
X011172Y019719D02*
X010882Y019719D01*
X011172Y019719D02*
X011172Y019912D01*
X011661Y019967D02*
X011952Y019967D01*
X011807Y019967D02*
X011807Y019774D01*
X011952Y019774D02*
X011661Y019774D01*
X012000Y019673D02*
X012000Y019479D01*
X012929Y020655D02*
X013242Y020968D01*
X013242Y020812D02*
X012929Y020812D01*
X012929Y020968D02*
X013242Y020655D01*
X013086Y020655D02*
X013086Y020968D01*
X018561Y018250D02*
X018609Y018298D01*
X018658Y018298D01*
X018706Y018250D01*
X018755Y018298D01*
X018803Y018298D01*
X018851Y018250D01*
X018851Y018153D01*
X018803Y018105D01*
X018706Y018201D02*
X018706Y018250D01*
X018561Y018250D02*
X018561Y018153D01*
X018609Y018105D01*
X018706Y018004D02*
X018706Y017810D01*
X018561Y017955D01*
X018851Y017955D01*
X018803Y017709D02*
X018851Y017660D01*
X018851Y017564D01*
X018803Y017515D01*
X018609Y017515D01*
X018561Y017564D01*
X018561Y017660D01*
X018609Y017709D01*
X019284Y019177D02*
X019477Y019177D01*
X019525Y019225D01*
X019525Y019322D01*
X019477Y019370D01*
X019380Y019472D02*
X019380Y019665D01*
X019332Y019766D02*
X019235Y019863D01*
X019525Y019863D01*
X019525Y019766D02*
X019525Y019960D01*
X019525Y019617D02*
X019235Y019617D01*
X019380Y019472D01*
X019284Y019370D02*
X019235Y019322D01*
X019235Y019225D01*
X019284Y019177D01*
X020765Y021796D02*
X020958Y021796D01*
X021007Y021845D01*
X021007Y021941D01*
X020958Y021990D01*
X020958Y022091D02*
X021007Y022139D01*
X021007Y022236D01*
X020958Y022284D01*
X020862Y022284D01*
X020813Y022236D01*
X020813Y022188D01*
X020862Y022091D01*
X020717Y022091D01*
X020717Y022284D01*
X020765Y021990D02*
X020717Y021941D01*
X020717Y021845D01*
X020765Y021796D01*
X024566Y022144D02*
X024614Y022096D01*
X024711Y022096D01*
X024759Y022144D01*
X024860Y022096D02*
X025054Y022289D01*
X025054Y022338D01*
X025006Y022386D01*
X024909Y022386D01*
X024860Y022338D01*
X024759Y022338D02*
X024711Y022386D01*
X024614Y022386D01*
X024566Y022338D01*
X024566Y022144D01*
X024860Y022096D02*
X025054Y022096D01*
X025155Y022096D02*
X025155Y022144D01*
X025349Y022338D01*
X025349Y022386D01*
X025155Y022386D01*
X025977Y018560D02*
X025977Y018366D01*
X026073Y018269D01*
X026170Y018366D01*
X026170Y018560D01*
X026566Y018560D02*
X026663Y018560D01*
X026614Y018560D02*
X026614Y018269D01*
X026566Y018269D02*
X026663Y018269D01*
X026762Y018269D02*
X026762Y018560D01*
X026956Y018269D01*
X026956Y018560D01*
X026465Y018221D02*
X026271Y018221D01*
X027733Y018330D02*
X027781Y018281D01*
X027878Y018281D01*
X027926Y018330D01*
X027926Y018426D01*
X027829Y018426D01*
X027733Y018330D02*
X027733Y018523D01*
X027781Y018571D01*
X027878Y018571D01*
X027926Y018523D01*
X028027Y018571D02*
X028027Y018281D01*
X028221Y018281D02*
X028221Y018571D01*
X028322Y018571D02*
X028467Y018571D01*
X028515Y018523D01*
X028515Y018330D01*
X028467Y018281D01*
X028322Y018281D01*
X028322Y018571D01*
X028027Y018571D02*
X028221Y018281D01*
X032307Y018317D02*
X032307Y018220D01*
X032356Y018171D01*
X032404Y018171D01*
X032452Y018220D01*
X032452Y018317D01*
X032501Y018365D01*
X032549Y018365D01*
X032597Y018317D01*
X032597Y018220D01*
X032549Y018171D01*
X032597Y017974D02*
X032307Y017974D01*
X032307Y018070D02*
X032307Y017877D01*
X032307Y017776D02*
X032597Y017776D01*
X032307Y017582D01*
X032597Y017582D01*
X032597Y017481D02*
X032597Y017287D01*
X032307Y017287D01*
X032307Y017481D01*
X032452Y017384D02*
X032452Y017287D01*
X032597Y017186D02*
X032307Y017186D01*
X032307Y016993D02*
X032597Y017186D01*
X032597Y016993D02*
X032307Y016993D01*
X032356Y016892D02*
X032307Y016843D01*
X032307Y016747D01*
X032356Y016698D01*
X032549Y016698D01*
X032597Y016747D01*
X032597Y016843D01*
X032549Y016892D01*
X032356Y016892D01*
X032356Y016597D02*
X032452Y016597D01*
X032501Y016549D01*
X032501Y016403D01*
X032597Y016403D02*
X032307Y016403D01*
X032307Y016549D01*
X032356Y016597D01*
X032307Y016302D02*
X032597Y016302D01*
X032597Y016109D02*
X032307Y016109D01*
X032404Y016206D01*
X032307Y016302D01*
X032356Y016008D02*
X032307Y015959D01*
X032307Y015863D01*
X032356Y015814D01*
X032549Y015814D01*
X032597Y015863D01*
X032597Y015959D01*
X032549Y016008D01*
X032356Y016008D01*
X032356Y015713D02*
X032307Y015665D01*
X032307Y015568D01*
X032356Y015520D01*
X032549Y015520D01*
X032597Y015568D01*
X032597Y015665D01*
X032549Y015713D01*
X032597Y015124D02*
X032597Y014930D01*
X032307Y014930D01*
X032307Y015124D01*
X032452Y015027D02*
X032452Y014930D01*
X032501Y014829D02*
X032307Y014829D01*
X032307Y014636D02*
X032501Y014636D01*
X032597Y014732D01*
X032501Y014829D01*
X032597Y014536D02*
X032597Y014439D01*
X032597Y014488D02*
X032307Y014488D01*
X032307Y014536D02*
X032307Y014439D01*
X032307Y014338D02*
X032307Y014145D01*
X032307Y014241D02*
X032597Y014241D01*
X032597Y014045D02*
X032597Y013948D01*
X032597Y013996D02*
X032307Y013996D01*
X032307Y013948D02*
X032307Y014045D01*
X032356Y013847D02*
X032307Y013799D01*
X032307Y013702D01*
X032356Y013653D01*
X032404Y013653D01*
X032452Y013702D01*
X032452Y013799D01*
X032501Y013847D01*
X032549Y013847D01*
X032597Y013799D01*
X032597Y013702D01*
X032549Y013653D01*
X032597Y013552D02*
X032307Y013552D01*
X032307Y013359D02*
X032597Y013552D01*
X032597Y013359D02*
X032307Y013359D01*
X032307Y013258D02*
X032307Y013064D01*
X032597Y013064D01*
X032597Y013258D01*
X032452Y013161D02*
X032452Y013064D01*
X032501Y012963D02*
X032549Y012963D01*
X032597Y012915D01*
X032597Y012818D01*
X032549Y012769D01*
X032452Y012818D02*
X032452Y012915D01*
X032501Y012963D01*
X032356Y012963D02*
X032307Y012915D01*
X032307Y012818D01*
X032356Y012769D01*
X032404Y012769D01*
X032452Y012818D01*
X032356Y012374D02*
X032307Y012325D01*
X032307Y012229D01*
X032356Y012180D01*
X032549Y012180D01*
X032597Y012229D01*
X032597Y012325D01*
X032549Y012374D01*
X032356Y012374D01*
X032307Y012079D02*
X032597Y012079D01*
X032307Y011886D01*
X032597Y011886D01*
X032307Y018317D02*
X032356Y018365D01*
X032404Y018761D02*
X032307Y018857D01*
X032404Y018954D01*
X032597Y018954D01*
X032597Y019055D02*
X032307Y019055D01*
X032307Y019200D01*
X032356Y019249D01*
X032404Y019249D01*
X032452Y019200D01*
X032452Y019055D01*
X032452Y018954D02*
X032452Y018761D01*
X032404Y018761D02*
X032597Y018761D01*
X032597Y019055D02*
X032597Y019200D01*
X032549Y019249D01*
X032501Y019249D01*
X032452Y019200D01*
X032356Y019350D02*
X032549Y019350D01*
X032597Y019398D01*
X032597Y019495D01*
X032549Y019544D01*
X032356Y019544D01*
X032307Y019495D01*
X032307Y019398D01*
X032356Y019350D01*
X032307Y019645D02*
X032501Y019645D01*
X032597Y019741D01*
X032501Y019838D01*
X032307Y019838D01*
X032307Y019939D02*
X032597Y019939D01*
X032597Y020133D01*
X032452Y020036D02*
X032452Y019939D01*
X032307Y019939D02*
X032307Y020133D01*
X016916Y014841D02*
X016603Y014527D01*
X016916Y014841D01*
X016759Y014841D02*
X016759Y014527D01*
X016759Y014841D01*
X016603Y014841D02*
X016916Y014527D01*
X016603Y014841D01*
X016603Y014684D02*
X016916Y014684D01*
X016603Y014684D01*
X016603Y012341D02*
X016916Y012027D01*
X016603Y012341D01*
X016759Y012341D02*
X016759Y012027D01*
X016759Y012341D01*
X016916Y012341D02*
X016603Y012027D01*
X016916Y012341D01*
X016916Y012184D02*
X016603Y012184D01*
X016916Y012184D01*
X014868Y009609D02*
X014868Y009319D01*
X014964Y009319D02*
X014771Y009319D01*
X014670Y009367D02*
X014621Y009319D01*
X014525Y009319D01*
X014476Y009367D01*
X014476Y009560D01*
X014525Y009609D01*
X014621Y009609D01*
X014670Y009560D01*
X014771Y009512D02*
X014868Y009609D01*
X014377Y009609D02*
X014280Y009609D01*
X014328Y009609D02*
X014328Y009319D01*
X014280Y009319D02*
X014377Y009319D01*
X009952Y014160D02*
X009639Y014474D01*
X009795Y014474D02*
X009795Y014160D01*
X009639Y014160D02*
X009952Y014474D01*
X009952Y014317D02*
X009639Y014317D01*
X004982Y016732D02*
X004669Y017045D01*
X004825Y017045D02*
X004825Y016732D01*
X004669Y016732D02*
X004982Y017045D01*
X004982Y016888D02*
X004669Y016888D01*
X001566Y014510D02*
X001518Y014558D01*
X001324Y014558D01*
X001276Y014510D01*
X001276Y014365D01*
X001566Y014365D01*
X001566Y014510D01*
X001566Y014263D02*
X001276Y014263D01*
X001276Y014070D02*
X001566Y014263D01*
X001566Y014070D02*
X001276Y014070D01*
X001324Y013969D02*
X001276Y013920D01*
X001276Y013824D01*
X001324Y013775D01*
X001518Y013775D01*
X001566Y013824D01*
X001566Y013920D01*
X001518Y013969D01*
X001421Y013969D01*
X001421Y013872D01*
X021871Y004282D02*
X021871Y003992D01*
X021871Y004089D02*
X022016Y004089D01*
X022065Y004137D01*
X022065Y004234D01*
X022016Y004282D01*
X021871Y004282D01*
X021968Y004089D02*
X022065Y003992D01*
X022166Y003992D02*
X022359Y004185D01*
X022359Y004234D01*
X022311Y004282D01*
X022214Y004282D01*
X022166Y004234D01*
X022166Y003992D02*
X022359Y003992D01*
X022461Y003992D02*
X022654Y004185D01*
X022654Y004234D01*
X022606Y004282D01*
X022509Y004282D01*
X022461Y004234D01*
X022461Y003992D02*
X022654Y003992D01*
X025552Y003952D02*
X025552Y004243D01*
X025697Y004243D01*
X025746Y004194D01*
X025746Y004098D01*
X025697Y004049D01*
X025552Y004049D01*
X025649Y004049D02*
X025746Y003952D01*
X025847Y004098D02*
X025992Y004243D01*
X025992Y003952D01*
X026041Y004098D02*
X025847Y004098D01*
D11*
X025918Y019979D02*
X025918Y020766D01*
D12*
X019428Y012059D02*
X019250Y011571D01*
X019032Y011470D02*
X018800Y011969D01*
X018711Y011725D01*
X018467Y011813D01*
X018700Y011315D01*
X018443Y011296D02*
X018398Y011174D01*
X018232Y011096D01*
X018110Y011141D01*
X018116Y011346D02*
X018282Y011423D01*
X018404Y011379D01*
X018443Y011296D01*
X018116Y011346D02*
X017994Y011390D01*
X017955Y011473D01*
X017999Y011595D01*
X018166Y011673D01*
X018288Y011629D01*
X017698Y011455D02*
X017609Y011211D01*
X017365Y011300D01*
X017598Y010801D01*
X017264Y010949D02*
X017186Y011115D01*
X017064Y011159D01*
X016815Y011043D01*
X017047Y010544D01*
X016970Y010710D02*
X017219Y010827D01*
X017264Y010949D01*
X017698Y011455D02*
X017931Y010956D01*
X019095Y011904D02*
X019583Y011726D01*
D13*
X019565Y010856D02*
X019565Y010526D01*
X019730Y010526D01*
X019786Y010581D01*
X019786Y010691D01*
X019730Y010746D01*
X019565Y010746D01*
X019417Y010801D02*
X019362Y010856D01*
X019252Y010856D01*
X019197Y010801D01*
X019197Y010746D01*
X019252Y010691D01*
X019417Y010691D01*
X019417Y010581D02*
X019417Y010801D01*
X019417Y010581D02*
X019362Y010526D01*
X019252Y010526D01*
X019197Y010581D01*
X019068Y010581D02*
X019068Y010526D01*
X019013Y010526D01*
X019013Y010581D01*
X019068Y010581D01*
X018865Y010526D02*
X018645Y010526D01*
X018755Y010526D02*
X018755Y010856D01*
X018645Y010746D01*
X018496Y010746D02*
X018386Y010526D01*
X018276Y010746D01*
D14*
X018556Y009428D02*
X018792Y009428D01*
X018792Y008955D02*
X018556Y008955D01*
X020033Y008069D02*
X020033Y007833D01*
X020505Y007833D02*
X020505Y008069D01*
X020434Y006632D02*
X020670Y006632D01*
X020670Y006160D02*
X020434Y006160D01*
X018064Y004506D02*
X018064Y004270D01*
X017592Y004270D02*
X017592Y004506D01*
X017513Y004506D02*
X017513Y004270D01*
X017040Y004270D02*
X017040Y004506D01*
X014544Y004369D02*
X014308Y004369D01*
X014308Y004841D02*
X014544Y004841D01*
X013255Y005374D02*
X013255Y003874D01*
X013005Y003624D01*
X012505Y003624D01*
X012255Y003874D01*
X012255Y005374D01*
X012505Y005624D01*
X013005Y005624D01*
X013255Y005374D01*
X012462Y005754D02*
X012225Y005754D01*
X012005Y005624D02*
X012255Y005374D01*
X012005Y005624D02*
X011505Y005624D01*
X011255Y005374D01*
X011255Y003874D01*
X011505Y003624D01*
X012005Y003624D01*
X012255Y003874D01*
X011255Y003874D02*
X011005Y003624D01*
X010505Y003624D01*
X010255Y003874D01*
X010255Y005374D01*
X010505Y005624D01*
X011005Y005624D01*
X011255Y005374D01*
X010718Y005747D02*
X010481Y005747D01*
X010481Y006219D02*
X010718Y006219D01*
X009613Y006213D02*
X009377Y006213D01*
X009377Y005741D02*
X009613Y005741D01*
X012225Y006227D02*
X012462Y006227D01*
X011702Y007939D02*
X011466Y007939D01*
X011466Y008412D02*
X011702Y008412D01*
X011690Y008577D02*
X011454Y008577D01*
X011454Y009050D02*
X011690Y009050D01*
X011096Y010215D02*
X010859Y010215D01*
X010859Y010687D02*
X011096Y010687D01*
X011046Y011495D02*
X011283Y011495D01*
X011283Y011967D02*
X011046Y011967D01*
X011046Y012203D02*
X011283Y012203D01*
X011283Y012676D02*
X011046Y012676D01*
X010981Y013258D02*
X010981Y013495D01*
X011454Y013495D02*
X011454Y013258D01*
X012714Y011418D02*
X012950Y011418D01*
X012950Y010945D02*
X012714Y010945D01*
X014741Y012294D02*
X015131Y012294D01*
X015131Y012454D01*
X014741Y012454D01*
X014741Y012294D01*
X014741Y012544D02*
X015131Y012544D01*
X015131Y012704D01*
X015131Y012804D01*
X014741Y012804D01*
X014741Y012964D01*
X015131Y012964D01*
X015131Y012804D01*
X015131Y012704D02*
X014741Y012704D01*
X014741Y012544D01*
X015131Y012544D02*
X015131Y012454D01*
X015131Y012294D02*
X015131Y012144D01*
X015621Y012144D01*
X015861Y012144D01*
X016351Y012144D01*
X016351Y012294D01*
X016741Y012294D01*
X016741Y012454D01*
X016351Y012454D01*
X016351Y012294D01*
X016351Y012454D02*
X016351Y012544D01*
X016741Y012544D01*
X016741Y012704D01*
X016351Y012704D01*
X016351Y012804D01*
X016741Y012804D01*
X016741Y012964D01*
X016351Y012964D01*
X016351Y012804D01*
X016351Y012704D02*
X016351Y012544D01*
X016351Y012964D02*
X016351Y013054D01*
X016741Y013054D01*
X016731Y013214D01*
X016351Y013214D01*
X016351Y013054D01*
X016351Y013214D02*
X016351Y013364D01*
X015131Y013364D01*
X015131Y013214D01*
X014741Y013214D01*
X014741Y013054D01*
X015131Y013054D01*
X015131Y013214D01*
X015131Y013054D02*
X015131Y012964D01*
X015111Y013483D02*
X015348Y013483D01*
X015348Y013955D02*
X015111Y013955D01*
X015111Y014054D02*
X015348Y014054D01*
X015348Y014526D02*
X015111Y014526D01*
X015131Y014644D02*
X015621Y014644D01*
X015861Y014644D01*
X016351Y014644D01*
X016351Y014794D01*
X016741Y014794D01*
X016741Y014954D01*
X016351Y014954D01*
X016351Y014794D01*
X016351Y014954D02*
X016351Y015044D01*
X016741Y015044D01*
X016741Y015204D01*
X016351Y015204D01*
X016351Y015304D01*
X016741Y015304D01*
X016741Y015464D01*
X016351Y015464D01*
X016351Y015304D01*
X016351Y015204D02*
X016351Y015044D01*
X016351Y015464D02*
X016351Y015554D01*
X016741Y015554D01*
X016731Y015714D01*
X016351Y015714D01*
X016351Y015554D01*
X016351Y015714D02*
X016351Y015864D01*
X015131Y015864D01*
X015131Y015714D01*
X014741Y015714D01*
X014741Y015554D01*
X015131Y015554D01*
X015131Y015714D01*
X015131Y015554D02*
X015131Y015464D01*
X014741Y015464D01*
X014741Y015304D01*
X015131Y015304D01*
X015131Y015204D01*
X014741Y015204D01*
X014741Y015044D01*
X015131Y015044D01*
X015131Y015204D01*
X015131Y015304D02*
X015131Y015464D01*
X015131Y015044D02*
X015131Y014954D01*
X014741Y014954D01*
X014741Y014794D01*
X015131Y014794D01*
X015131Y014954D01*
X015131Y014794D02*
X015131Y014644D01*
X015111Y015943D02*
X015348Y015943D01*
X015348Y016416D02*
X015111Y016416D01*
X016981Y015373D02*
X016981Y015136D01*
X017454Y015136D02*
X017454Y015373D01*
X017515Y016298D02*
X017515Y016534D01*
X017987Y016534D02*
X017987Y016298D01*
X018105Y016298D02*
X018105Y016534D01*
X018578Y016534D02*
X018578Y016298D01*
X017513Y012853D02*
X017513Y012617D01*
X017040Y012617D02*
X017040Y012853D01*
X009875Y011081D02*
X009639Y011081D01*
X009639Y010609D02*
X009875Y010609D01*
X009875Y010294D02*
X009639Y010294D01*
X009639Y009821D02*
X009875Y009821D01*
X006725Y011987D02*
X006725Y012223D01*
X006253Y012223D02*
X006253Y011987D01*
X006096Y011987D02*
X006096Y012223D01*
X005623Y012223D02*
X005623Y011987D01*
X005466Y011987D02*
X005466Y012223D01*
X004993Y012223D02*
X004993Y011987D01*
X004836Y011987D02*
X004836Y012223D01*
X004363Y012223D02*
X004363Y011987D01*
X005985Y014069D02*
X006222Y014069D01*
X006222Y014542D02*
X005985Y014542D01*
X008487Y015859D02*
X008487Y016095D01*
X008960Y016095D02*
X008960Y015859D01*
X009036Y015399D02*
X009036Y016499D01*
X009038Y016516D01*
X009042Y016533D01*
X009049Y016549D01*
X009059Y016563D01*
X009072Y016576D01*
X009086Y016586D01*
X009102Y016593D01*
X009119Y016597D01*
X009136Y016599D01*
X009736Y016599D01*
X009753Y016597D01*
X009770Y016593D01*
X009786Y016586D01*
X009800Y016576D01*
X009813Y016563D01*
X009823Y016549D01*
X009830Y016533D01*
X009834Y016516D01*
X009836Y016499D01*
X009836Y015399D01*
X009834Y015382D01*
X009830Y015365D01*
X009823Y015349D01*
X009813Y015335D01*
X009800Y015322D01*
X009786Y015312D01*
X009770Y015305D01*
X009753Y015301D01*
X009736Y015299D01*
X009136Y015299D01*
X009119Y015301D01*
X009102Y015305D01*
X009086Y015312D01*
X009072Y015322D01*
X009059Y015335D01*
X009049Y015349D01*
X009042Y015365D01*
X009038Y015382D01*
X009036Y015399D01*
X004590Y017912D02*
X004590Y018148D01*
X004117Y018148D02*
X004117Y017912D01*
X003920Y020235D02*
X003920Y020471D01*
X003448Y020471D02*
X003448Y020235D01*
X003586Y021731D02*
X003586Y021967D01*
X003684Y021967D02*
X003684Y021731D01*
X004157Y021731D02*
X004157Y021967D01*
X003113Y021967D02*
X003113Y021731D01*
X013645Y021810D02*
X013881Y021810D01*
X013881Y022282D02*
X013645Y022282D01*
X016263Y022262D02*
X016499Y022262D01*
X016499Y021790D02*
X016263Y021790D01*
X017562Y021770D02*
X017562Y022006D01*
X018035Y022006D02*
X018035Y021770D01*
X018625Y021849D02*
X018861Y021849D01*
X018861Y021928D02*
X018625Y021928D01*
X018625Y022400D02*
X018861Y022400D01*
X018861Y021376D02*
X018625Y021376D01*
X024166Y015668D02*
X024403Y015668D01*
X024403Y015195D02*
X024166Y015195D01*
X027710Y015195D02*
X027946Y015195D01*
X027946Y015668D02*
X027710Y015668D01*
X030859Y015569D02*
X030859Y015806D01*
X031332Y015806D02*
X031332Y015569D01*
X031529Y007853D02*
X031529Y007617D01*
X031056Y007617D02*
X031056Y007853D01*
X027828Y007695D02*
X027828Y007459D01*
X027355Y007459D02*
X027355Y007695D01*
X027355Y005963D02*
X027355Y005727D01*
X026883Y005727D02*
X026883Y005963D01*
X024521Y007459D02*
X024521Y007695D01*
X024048Y007695D02*
X024048Y007459D01*
X024009Y005924D02*
X024009Y005687D01*
X023536Y005687D02*
X023536Y005924D01*
X006019Y009315D02*
X005783Y009315D01*
X005783Y009788D02*
X006019Y009788D01*
X003479Y009565D02*
X003479Y009329D01*
X003007Y009329D02*
X003007Y009565D01*
X002786Y009565D02*
X002786Y009329D01*
X002314Y009329D02*
X002314Y009565D01*
X002119Y009565D02*
X002119Y009329D01*
X001647Y009329D02*
X001647Y009565D01*
X001460Y009565D02*
X001460Y009329D01*
X000987Y009329D02*
X000987Y009565D01*
X000828Y009565D02*
X000828Y009329D01*
X000355Y009329D02*
X000355Y009565D01*
X003253Y008739D02*
X003489Y008739D01*
X003489Y008266D02*
X003253Y008266D01*
X003084Y006081D02*
X003084Y005845D01*
X003556Y005845D02*
X003556Y006081D01*
X003785Y004473D02*
X004021Y004473D01*
X004021Y004000D02*
X003785Y004000D01*
D15*
X003232Y003699D02*
X003051Y003699D01*
X003006Y003744D01*
X003006Y003835D01*
X003051Y003880D01*
X003051Y003994D02*
X003006Y004039D01*
X003006Y004129D01*
X003051Y004174D01*
X003096Y004174D01*
X003277Y003994D01*
X003277Y004174D01*
X003277Y004289D02*
X003277Y004469D01*
X003277Y004379D02*
X003006Y004379D01*
X003096Y004289D01*
X003237Y004605D02*
X003417Y004605D01*
X003462Y004650D01*
X003462Y004741D01*
X003417Y004786D01*
X003417Y004900D02*
X003462Y004945D01*
X003462Y005035D01*
X003417Y005080D01*
X003372Y005080D01*
X003327Y005035D01*
X003327Y004990D01*
X003327Y005035D02*
X003282Y005080D01*
X003237Y005080D01*
X003192Y005035D01*
X003192Y004945D01*
X003237Y004900D01*
X003237Y004786D02*
X003192Y004741D01*
X003192Y004650D01*
X003237Y004605D01*
X003237Y005195D02*
X003192Y005240D01*
X003192Y005330D01*
X003237Y005375D01*
X003417Y005195D01*
X003462Y005240D01*
X003462Y005330D01*
X003417Y005375D01*
X003237Y005375D01*
X003237Y005195D02*
X003417Y005195D01*
X003232Y003880D02*
X003277Y003835D01*
X003277Y003744D01*
X003232Y003699D01*
X002572Y006625D02*
X002392Y006625D01*
X002482Y006625D02*
X002482Y006896D01*
X002392Y006806D01*
X002277Y006896D02*
X002277Y006625D01*
X002097Y006896D01*
X002097Y006625D01*
X001983Y006625D02*
X001893Y006716D01*
X001938Y006716D02*
X001802Y006716D01*
X001802Y006625D02*
X001802Y006896D01*
X001938Y006896D01*
X001983Y006851D01*
X001983Y006761D01*
X001938Y006716D01*
X002434Y006997D02*
X001371Y006997D01*
X000918Y006878D02*
X000760Y006770D01*
X000760Y006948D01*
X000918Y006878D02*
X000918Y006652D01*
X000760Y006770D01*
X000760Y006603D01*
X000760Y007193D02*
X000760Y007361D01*
X000760Y007538D01*
X000918Y007469D02*
X000760Y007361D01*
X000918Y007243D01*
X000918Y007469D01*
X000760Y007784D02*
X000760Y007951D01*
X000760Y008129D01*
X000918Y008059D02*
X000760Y007951D01*
X000918Y007833D01*
X000918Y008059D01*
X000760Y008374D02*
X000760Y008542D01*
X000760Y008719D01*
X000918Y008650D02*
X000760Y008542D01*
X000918Y008424D01*
X000918Y008650D01*
X001371Y008351D02*
X002434Y008351D01*
X002499Y008338D02*
X002499Y008473D01*
X002544Y008518D01*
X002634Y008518D01*
X002679Y008473D01*
X002679Y008338D01*
X002679Y008428D02*
X002769Y008518D01*
X002724Y008632D02*
X002769Y008677D01*
X002769Y008767D01*
X002724Y008812D01*
X002679Y008812D01*
X002634Y008767D01*
X002634Y008632D01*
X002724Y008632D01*
X002634Y008632D02*
X002544Y008722D01*
X002499Y008812D01*
X002146Y008798D02*
X001966Y008798D01*
X001966Y008663D01*
X002056Y008708D01*
X002101Y008708D01*
X002146Y008663D01*
X002146Y008573D01*
X002101Y008528D01*
X002011Y008528D01*
X001966Y008573D01*
X001851Y008528D02*
X001761Y008618D01*
X001806Y008618D02*
X001671Y008618D01*
X001671Y008528D02*
X001671Y008798D01*
X001806Y008798D01*
X001851Y008753D01*
X001851Y008663D01*
X001806Y008618D01*
X002499Y008338D02*
X002769Y008338D01*
X003615Y009082D02*
X003615Y009217D01*
X003660Y009262D01*
X003750Y009262D01*
X003795Y009217D01*
X003795Y009082D01*
X003795Y009172D02*
X003885Y009262D01*
X003885Y009376D02*
X003885Y009557D01*
X003885Y009466D02*
X003615Y009466D01*
X003705Y009376D01*
X003615Y009082D02*
X003885Y009082D01*
X003977Y008839D02*
X004022Y008749D01*
X004112Y008659D01*
X004112Y008794D01*
X004157Y008839D01*
X004202Y008839D01*
X004247Y008794D01*
X004247Y008704D01*
X004202Y008659D01*
X004112Y008659D01*
X004067Y008544D02*
X004022Y008544D01*
X003977Y008499D01*
X003977Y008409D01*
X004022Y008364D01*
X004022Y008250D02*
X003977Y008205D01*
X003977Y008115D01*
X004022Y008069D01*
X004202Y008069D01*
X004247Y008115D01*
X004247Y008205D01*
X004202Y008250D01*
X004247Y008364D02*
X004067Y008544D01*
X004247Y008544D02*
X004247Y008364D01*
X005054Y009210D02*
X005234Y009210D01*
X005279Y009255D01*
X005279Y009345D01*
X005234Y009390D01*
X005279Y009504D02*
X005099Y009685D01*
X005054Y009685D01*
X005009Y009639D01*
X005009Y009549D01*
X005054Y009504D01*
X005054Y009390D02*
X005009Y009345D01*
X005009Y009255D01*
X005054Y009210D01*
X005279Y009504D02*
X005279Y009685D01*
X005234Y009799D02*
X005279Y009844D01*
X005279Y009934D01*
X005234Y009979D01*
X005144Y009979D01*
X005099Y009934D01*
X005099Y009889D01*
X005144Y009799D01*
X005009Y009799D01*
X005009Y009979D01*
X003885Y009806D02*
X003885Y009716D01*
X003840Y009671D01*
X003795Y009671D01*
X003750Y009716D01*
X003750Y009806D01*
X003795Y009851D01*
X003840Y009851D01*
X003885Y009806D01*
X003750Y009806D02*
X003705Y009851D01*
X003660Y009851D01*
X003615Y009806D01*
X003615Y009716D01*
X003660Y009671D01*
X003705Y009671D01*
X003750Y009716D01*
X004477Y012648D02*
X004477Y012783D01*
X004522Y012828D01*
X004612Y012828D01*
X004657Y012783D01*
X004657Y012648D01*
X004747Y012648D02*
X004477Y012648D01*
X004657Y012738D02*
X004747Y012828D01*
X004702Y012943D02*
X004747Y012988D01*
X004747Y013078D01*
X004702Y013123D01*
X004657Y013123D01*
X004612Y013078D01*
X004612Y013033D01*
X004612Y013078D02*
X004567Y013123D01*
X004522Y013123D01*
X004477Y013078D01*
X004477Y012988D01*
X004522Y012943D01*
X004522Y013238D02*
X004477Y013283D01*
X004477Y013373D01*
X004522Y013418D01*
X004702Y013238D01*
X004747Y013283D01*
X004747Y013373D01*
X004702Y013418D01*
X004522Y013418D01*
X004522Y013238D02*
X004702Y013238D01*
X005082Y013285D02*
X005217Y013285D01*
X005172Y013375D01*
X005172Y013420D01*
X005217Y013465D01*
X005307Y013465D01*
X005352Y013420D01*
X005352Y013330D01*
X005307Y013285D01*
X005352Y013171D02*
X005352Y012991D01*
X005352Y013081D02*
X005082Y013081D01*
X005172Y012991D01*
X005127Y012876D02*
X005082Y012831D01*
X005082Y012741D01*
X005127Y012696D01*
X005307Y012696D01*
X005352Y012741D01*
X005352Y012831D01*
X005307Y012876D01*
X005731Y012831D02*
X005731Y012741D01*
X005776Y012696D01*
X005956Y012696D01*
X006001Y012741D01*
X006001Y012831D01*
X005956Y012876D01*
X006001Y012991D02*
X005821Y013171D01*
X005776Y013171D01*
X005731Y013126D01*
X005731Y013036D01*
X005776Y012991D01*
X005776Y012876D02*
X005731Y012831D01*
X006001Y012991D02*
X006001Y013171D01*
X005956Y013285D02*
X006001Y013330D01*
X006001Y013420D01*
X005956Y013465D01*
X005776Y013465D01*
X005731Y013420D01*
X005731Y013330D01*
X005776Y013285D01*
X005821Y013285D01*
X005866Y013330D01*
X005866Y013465D01*
X006367Y013328D02*
X006457Y013238D01*
X006457Y013123D02*
X006502Y013078D01*
X006547Y013123D01*
X006592Y013123D01*
X006637Y013078D01*
X006637Y012988D01*
X006592Y012943D01*
X006637Y012828D02*
X006547Y012738D01*
X006547Y012783D02*
X006547Y012648D01*
X006637Y012648D02*
X006367Y012648D01*
X006367Y012783D01*
X006412Y012828D01*
X006502Y012828D01*
X006547Y012783D01*
X006412Y012943D02*
X006367Y012988D01*
X006367Y013078D01*
X006412Y013123D01*
X006457Y013123D01*
X006502Y013078D02*
X006502Y013033D01*
X006637Y013238D02*
X006637Y013418D01*
X006637Y013328D02*
X006367Y013328D01*
X006892Y013999D02*
X007072Y013999D01*
X007117Y014044D01*
X007117Y014134D01*
X007072Y014179D01*
X007117Y014293D02*
X006937Y014473D01*
X006892Y014473D01*
X006847Y014428D01*
X006847Y014338D01*
X006892Y014293D01*
X006892Y014179D02*
X006847Y014134D01*
X006847Y014044D01*
X006892Y013999D01*
X007117Y014293D02*
X007117Y014473D01*
X007117Y014588D02*
X006937Y014768D01*
X006892Y014768D01*
X006847Y014723D01*
X006847Y014633D01*
X006892Y014588D01*
X007117Y014588D02*
X007117Y014768D01*
X007975Y015642D02*
X007975Y015777D01*
X008020Y015822D01*
X008110Y015822D01*
X008155Y015777D01*
X008155Y015642D01*
X008245Y015642D02*
X007975Y015642D01*
X008155Y015732D02*
X008245Y015822D01*
X008245Y015937D02*
X008245Y016117D01*
X008245Y016027D02*
X007975Y016027D01*
X008065Y015937D01*
X007975Y016232D02*
X007975Y016412D01*
X008020Y016412D01*
X008200Y016232D01*
X008245Y016232D01*
X011152Y014798D02*
X011198Y014843D01*
X011243Y014843D01*
X011288Y014798D01*
X011333Y014843D01*
X011378Y014843D01*
X011423Y014798D01*
X011423Y014708D01*
X011378Y014663D01*
X011423Y014549D02*
X011423Y014369D01*
X011243Y014549D01*
X011198Y014549D01*
X011152Y014504D01*
X011152Y014414D01*
X011198Y014369D01*
X011198Y014254D02*
X011152Y014209D01*
X011152Y014119D01*
X011198Y014074D01*
X011378Y014074D01*
X011423Y014119D01*
X011423Y014209D01*
X011378Y014254D01*
X011198Y014663D02*
X011152Y014708D01*
X011152Y014798D01*
X011288Y014798D02*
X011288Y014753D01*
X010935Y013089D02*
X010800Y012954D01*
X010980Y012954D01*
X010935Y012819D02*
X010935Y013089D01*
X010595Y013089D02*
X010595Y012819D01*
X010505Y012819D02*
X010685Y012819D01*
X010505Y012999D02*
X010595Y013089D01*
X010390Y013044D02*
X010390Y012954D01*
X010345Y012909D01*
X010210Y012909D01*
X010210Y012819D02*
X010210Y013089D01*
X010345Y013089D01*
X010390Y013044D01*
X010300Y012909D02*
X010390Y012819D01*
X010103Y012607D02*
X010103Y012439D01*
X010103Y012262D01*
X009945Y012331D02*
X010103Y012439D01*
X009945Y012558D01*
X009945Y012331D01*
X010103Y011898D02*
X010103Y011731D01*
X010103Y011553D01*
X009945Y011623D02*
X010103Y011731D01*
X009945Y011849D01*
X009945Y011623D01*
X009956Y011420D02*
X009866Y011330D01*
X009956Y011420D02*
X009956Y011150D01*
X009866Y011150D02*
X010046Y011150D01*
X009752Y011150D02*
X009571Y011150D01*
X009661Y011150D02*
X009661Y011420D01*
X009571Y011330D01*
X009457Y011285D02*
X009412Y011240D01*
X009277Y011240D01*
X009367Y011240D02*
X009457Y011150D01*
X009457Y011285D02*
X009457Y011375D01*
X009412Y011420D01*
X009277Y011420D01*
X009277Y011150D01*
X010771Y011116D02*
X010771Y011386D01*
X010906Y011386D01*
X010951Y011341D01*
X010951Y011251D01*
X010906Y011206D01*
X010771Y011206D01*
X010861Y011206D02*
X010951Y011116D01*
X011066Y011116D02*
X011246Y011116D01*
X011156Y011116D02*
X011156Y011386D01*
X011066Y011296D01*
X011361Y011251D02*
X011451Y011296D01*
X011496Y011296D01*
X011541Y011251D01*
X011541Y011161D01*
X011496Y011116D01*
X011406Y011116D01*
X011361Y011161D01*
X011361Y011251D02*
X011361Y011386D01*
X011541Y011386D01*
X012616Y010798D02*
X012616Y010528D01*
X012616Y010618D02*
X012751Y010618D01*
X012796Y010663D01*
X012796Y010753D01*
X012751Y010798D01*
X012616Y010798D01*
X012706Y010618D02*
X012796Y010528D01*
X012910Y010528D02*
X013091Y010528D01*
X013001Y010528D02*
X013001Y010798D01*
X012910Y010708D01*
X011188Y010056D02*
X011188Y010011D01*
X011143Y009966D01*
X011053Y009966D01*
X011008Y010011D01*
X011008Y010056D01*
X011053Y010101D01*
X011143Y010101D01*
X011188Y010056D01*
X011143Y009966D02*
X011188Y009921D01*
X011188Y009876D01*
X011143Y009831D01*
X011053Y009831D01*
X011008Y009876D01*
X011008Y009921D01*
X011053Y009966D01*
X010893Y009966D02*
X010848Y009921D01*
X010713Y009921D01*
X010713Y009831D02*
X010713Y010101D01*
X010848Y010101D01*
X010893Y010056D01*
X010893Y009966D01*
X010803Y009921D02*
X010893Y009831D01*
X009967Y009663D02*
X009967Y009618D01*
X009922Y009573D01*
X009967Y009528D01*
X009967Y009483D01*
X009922Y009438D01*
X009832Y009438D01*
X009787Y009483D01*
X009673Y009438D02*
X009493Y009438D01*
X009673Y009618D01*
X009673Y009663D01*
X009628Y009708D01*
X009538Y009708D01*
X009493Y009663D01*
X009378Y009663D02*
X009378Y009573D01*
X009333Y009528D01*
X009198Y009528D01*
X009288Y009528D02*
X009378Y009438D01*
X009198Y009438D02*
X009198Y009708D01*
X009333Y009708D01*
X009378Y009663D01*
X009787Y009663D02*
X009832Y009708D01*
X009922Y009708D01*
X009967Y009663D01*
X009922Y009573D02*
X009877Y009573D01*
X011160Y007798D02*
X011115Y007753D01*
X011115Y007573D01*
X011160Y007528D01*
X011250Y007528D01*
X011295Y007573D01*
X011410Y007528D02*
X011590Y007528D01*
X011500Y007528D02*
X011500Y007798D01*
X011410Y007708D01*
X011295Y007753D02*
X011250Y007798D01*
X011160Y007798D01*
X011705Y007798D02*
X011885Y007798D01*
X011885Y007753D01*
X011705Y007573D01*
X011705Y007528D01*
X012074Y006611D02*
X012029Y006566D01*
X012029Y006386D01*
X012074Y006341D01*
X012164Y006341D01*
X012209Y006386D01*
X012324Y006341D02*
X012504Y006341D01*
X012414Y006341D02*
X012414Y006611D01*
X012324Y006521D01*
X012209Y006566D02*
X012164Y006611D01*
X012074Y006611D01*
X012619Y006566D02*
X012619Y006521D01*
X012664Y006476D01*
X012754Y006476D01*
X012799Y006431D01*
X012799Y006386D01*
X012754Y006341D01*
X012664Y006341D01*
X012619Y006386D01*
X012619Y006431D01*
X012664Y006476D01*
X012754Y006476D02*
X012799Y006521D01*
X012799Y006566D01*
X012754Y006611D01*
X012664Y006611D01*
X012619Y006566D01*
X010893Y006415D02*
X010713Y006415D01*
X010848Y006550D01*
X010848Y006280D01*
X010598Y006280D02*
X010418Y006280D01*
X010598Y006460D01*
X010598Y006505D01*
X010553Y006550D01*
X010463Y006550D01*
X010418Y006505D01*
X010303Y006505D02*
X010258Y006550D01*
X010168Y006550D01*
X010123Y006505D01*
X010123Y006325D01*
X010168Y006280D01*
X010258Y006280D01*
X010303Y006325D01*
X010172Y004772D02*
X010172Y004502D01*
X010082Y004502D02*
X010262Y004502D01*
X010082Y004682D02*
X010172Y004772D01*
X009967Y004727D02*
X009967Y004637D01*
X009922Y004592D01*
X009787Y004592D01*
X009787Y004502D02*
X009787Y004772D01*
X009922Y004772D01*
X009967Y004727D01*
X009673Y004772D02*
X009583Y004772D01*
X009628Y004772D02*
X009628Y004547D01*
X009583Y004502D01*
X009538Y004502D01*
X009493Y004547D01*
X014950Y004463D02*
X014995Y004418D01*
X015085Y004418D01*
X015130Y004463D01*
X015245Y004418D02*
X015425Y004418D01*
X015335Y004418D02*
X015335Y004688D01*
X015245Y004598D01*
X015130Y004643D02*
X015085Y004688D01*
X014995Y004688D01*
X014950Y004643D01*
X014950Y004463D01*
X015539Y004463D02*
X015584Y004418D01*
X015674Y004418D01*
X015719Y004463D01*
X015719Y004643D01*
X015674Y004688D01*
X015584Y004688D01*
X015539Y004643D01*
X015539Y004598D01*
X015584Y004553D01*
X015719Y004553D01*
X016450Y004657D02*
X016450Y004837D01*
X016496Y004883D01*
X016586Y004883D01*
X016631Y004837D01*
X016745Y004837D02*
X016790Y004883D01*
X016880Y004883D01*
X016925Y004837D01*
X016925Y004792D01*
X016880Y004747D01*
X016925Y004702D01*
X016925Y004657D01*
X016880Y004612D01*
X016790Y004612D01*
X016745Y004657D01*
X016631Y004657D02*
X016586Y004612D01*
X016496Y004612D01*
X016450Y004657D01*
X016835Y004747D02*
X016880Y004747D01*
X018142Y004828D02*
X018142Y004648D01*
X018187Y004603D01*
X018277Y004603D01*
X018322Y004648D01*
X018437Y004738D02*
X018617Y004738D01*
X018572Y004603D02*
X018572Y004873D01*
X018437Y004738D01*
X018322Y004828D02*
X018277Y004873D01*
X018187Y004873D01*
X018142Y004828D01*
X020056Y005851D02*
X020101Y005806D01*
X020191Y005806D01*
X020236Y005851D01*
X020351Y005806D02*
X020531Y005806D01*
X020441Y005806D02*
X020441Y006076D01*
X020351Y005986D01*
X020236Y006031D02*
X020191Y006076D01*
X020101Y006076D01*
X020056Y006031D01*
X020056Y005851D01*
X020646Y005806D02*
X020826Y005806D01*
X020736Y005806D02*
X020736Y006076D01*
X020646Y005986D01*
X019825Y007479D02*
X019870Y007524D01*
X019870Y007615D01*
X019825Y007660D01*
X019870Y007774D02*
X019870Y007954D01*
X019870Y007864D02*
X019600Y007864D01*
X019690Y007774D01*
X019645Y007660D02*
X019600Y007615D01*
X019600Y007524D01*
X019645Y007479D01*
X019825Y007479D01*
X019825Y008069D02*
X019645Y008249D01*
X019825Y008249D01*
X019870Y008204D01*
X019870Y008114D01*
X019825Y008069D01*
X019645Y008069D01*
X019600Y008114D01*
X019600Y008204D01*
X019645Y008249D01*
X018944Y008575D02*
X018944Y008755D01*
X018899Y008801D01*
X018809Y008801D01*
X018764Y008755D01*
X018764Y008710D01*
X018809Y008665D01*
X018944Y008665D01*
X018944Y008575D02*
X018899Y008530D01*
X018809Y008530D01*
X018764Y008575D01*
X018649Y008575D02*
X018604Y008530D01*
X018514Y008530D01*
X018469Y008575D01*
X018469Y008755D01*
X018514Y008801D01*
X018604Y008801D01*
X018649Y008755D01*
X017852Y012176D02*
X017671Y012176D01*
X017626Y012221D01*
X017626Y012311D01*
X017671Y012356D01*
X017671Y012470D02*
X017626Y012515D01*
X017626Y012606D01*
X017671Y012651D01*
X017716Y012651D01*
X017762Y012606D01*
X017807Y012651D01*
X017852Y012651D01*
X017897Y012606D01*
X017897Y012515D01*
X017852Y012470D01*
X017852Y012356D02*
X017897Y012311D01*
X017897Y012221D01*
X017852Y012176D01*
X017762Y012560D02*
X017762Y012606D01*
X017671Y012765D02*
X017626Y012810D01*
X017626Y012900D01*
X017671Y012945D01*
X017716Y012945D01*
X017897Y012765D01*
X017897Y012945D01*
X017846Y014763D02*
X017666Y014763D01*
X017621Y014808D01*
X017621Y014898D01*
X017666Y014943D01*
X017666Y015058D02*
X017621Y015103D01*
X017621Y015193D01*
X017666Y015238D01*
X017711Y015238D01*
X017756Y015193D01*
X017801Y015238D01*
X017846Y015238D01*
X017891Y015193D01*
X017891Y015103D01*
X017846Y015058D01*
X017846Y014943D02*
X017891Y014898D01*
X017891Y014808D01*
X017846Y014763D01*
X017756Y015148D02*
X017756Y015193D01*
X017756Y015352D02*
X017711Y015442D01*
X017711Y015487D01*
X017756Y015532D01*
X017846Y015532D01*
X017891Y015487D01*
X017891Y015397D01*
X017846Y015352D01*
X017756Y015352D02*
X017621Y015352D01*
X017621Y015532D01*
X018132Y015539D02*
X018132Y015810D01*
X018267Y015810D01*
X018312Y015765D01*
X018312Y015675D01*
X018267Y015630D01*
X018132Y015630D01*
X018222Y015630D02*
X018312Y015539D01*
X018426Y015539D02*
X018606Y015720D01*
X018606Y015765D01*
X018561Y015810D01*
X018471Y015810D01*
X018426Y015765D01*
X018426Y015539D02*
X018606Y015539D01*
X018721Y015584D02*
X018766Y015539D01*
X018856Y015539D01*
X018901Y015584D01*
X018901Y015765D01*
X018721Y015584D01*
X018721Y015765D01*
X018766Y015810D01*
X018856Y015810D01*
X018901Y015765D01*
X019113Y016576D02*
X019293Y016576D01*
X019338Y016621D01*
X019338Y016711D01*
X019293Y016756D01*
X019203Y016871D02*
X019203Y017051D01*
X019338Y017006D02*
X019068Y017006D01*
X019203Y016871D01*
X019113Y016756D02*
X019068Y016711D01*
X019068Y016621D01*
X019113Y016576D01*
X019113Y017165D02*
X019068Y017210D01*
X019068Y017300D01*
X019113Y017345D01*
X019158Y017345D01*
X019338Y017165D01*
X019338Y017345D01*
X017413Y016676D02*
X017413Y016586D01*
X017368Y016541D01*
X017323Y016541D01*
X017278Y016586D01*
X017278Y016676D01*
X017323Y016721D01*
X017368Y016721D01*
X017413Y016676D01*
X017278Y016676D02*
X017233Y016721D01*
X017188Y016721D01*
X017143Y016676D01*
X017143Y016586D01*
X017188Y016541D01*
X017233Y016541D01*
X017278Y016586D01*
X017233Y016427D02*
X017188Y016427D01*
X017143Y016382D01*
X017143Y016292D01*
X017188Y016246D01*
X017188Y016132D02*
X017143Y016087D01*
X017143Y015997D01*
X017188Y015952D01*
X017368Y015952D01*
X017413Y015997D01*
X017413Y016087D01*
X017368Y016132D01*
X017413Y016246D02*
X017233Y016427D01*
X017413Y016427D02*
X017413Y016246D01*
X014564Y016236D02*
X014564Y016146D01*
X014519Y016101D01*
X014519Y015986D02*
X014564Y015941D01*
X014564Y015851D01*
X014519Y015806D01*
X014339Y015806D01*
X014294Y015851D01*
X014294Y015941D01*
X014339Y015986D01*
X014339Y016101D02*
X014294Y016146D01*
X014294Y016236D01*
X014339Y016281D01*
X014384Y016281D01*
X014429Y016236D01*
X014474Y016281D01*
X014519Y016281D01*
X014564Y016236D01*
X014429Y016236D02*
X014429Y016191D01*
X014429Y016395D02*
X014429Y016531D01*
X014474Y016576D01*
X014519Y016576D01*
X014564Y016531D01*
X014564Y016441D01*
X014519Y016395D01*
X014429Y016395D01*
X014339Y016486D01*
X014294Y016576D01*
X014390Y014843D02*
X014390Y014663D01*
X014255Y014798D01*
X014525Y014798D01*
X014480Y014549D02*
X014525Y014504D01*
X014525Y014414D01*
X014480Y014369D01*
X014480Y014254D02*
X014525Y014209D01*
X014525Y014119D01*
X014480Y014074D01*
X014300Y014074D01*
X014255Y014119D01*
X014255Y014209D01*
X014300Y014254D01*
X014300Y014369D02*
X014255Y014414D01*
X014255Y014504D01*
X014300Y014549D01*
X014345Y014549D01*
X014390Y014504D01*
X014435Y014549D01*
X014480Y014549D01*
X014390Y014504D02*
X014390Y014459D01*
X014365Y013977D02*
X014410Y013932D01*
X014455Y013977D01*
X014500Y013977D01*
X014545Y013932D01*
X014545Y013842D01*
X014500Y013797D01*
X014500Y013683D02*
X014545Y013638D01*
X014545Y013547D01*
X014500Y013502D01*
X014500Y013388D02*
X014545Y013343D01*
X014545Y013253D01*
X014500Y013208D01*
X014320Y013208D01*
X014275Y013253D01*
X014275Y013343D01*
X014320Y013388D01*
X014320Y013502D02*
X014275Y013547D01*
X014275Y013638D01*
X014320Y013683D01*
X014365Y013683D01*
X014410Y013638D01*
X014455Y013683D01*
X014500Y013683D01*
X014410Y013638D02*
X014410Y013592D01*
X014320Y013797D02*
X014275Y013842D01*
X014275Y013932D01*
X014320Y013977D01*
X014365Y013977D01*
X014410Y013932D02*
X014410Y013887D01*
X012552Y019900D02*
X010584Y019900D01*
X014477Y021497D02*
X014477Y021632D01*
X014522Y021677D01*
X014612Y021677D01*
X014657Y021632D01*
X014657Y021497D01*
X014657Y021587D02*
X014747Y021677D01*
X014747Y021791D02*
X014567Y021971D01*
X014522Y021971D01*
X014477Y021926D01*
X014477Y021836D01*
X014522Y021791D01*
X014747Y021791D02*
X014747Y021971D01*
X014612Y022086D02*
X014612Y022266D01*
X014747Y022221D02*
X014477Y022221D01*
X014612Y022086D01*
X015500Y022086D02*
X015636Y022086D01*
X015591Y022176D01*
X015591Y022221D01*
X015636Y022266D01*
X015726Y022266D01*
X015771Y022221D01*
X015771Y022131D01*
X015726Y022086D01*
X015771Y021971D02*
X015771Y021791D01*
X015591Y021971D01*
X015545Y021971D01*
X015500Y021926D01*
X015500Y021836D01*
X015545Y021791D01*
X015545Y021677D02*
X015500Y021632D01*
X015500Y021497D01*
X015771Y021497D01*
X015681Y021497D02*
X015681Y021632D01*
X015636Y021677D01*
X015545Y021677D01*
X015681Y021587D02*
X015771Y021677D01*
X015500Y022086D02*
X015500Y022266D01*
X014747Y021497D02*
X014477Y021497D01*
X017178Y021501D02*
X017223Y021456D01*
X017403Y021456D01*
X017448Y021501D01*
X017448Y021591D01*
X017403Y021636D01*
X017313Y021750D02*
X017313Y021931D01*
X017448Y021886D02*
X017178Y021886D01*
X017313Y021750D01*
X017223Y021636D02*
X017178Y021591D01*
X017178Y021501D01*
X017178Y022045D02*
X017178Y022225D01*
X017223Y022225D01*
X017403Y022045D01*
X017448Y022045D01*
X018460Y021263D02*
X018595Y021263D01*
X018640Y021218D01*
X018640Y021128D01*
X018595Y021083D01*
X018460Y021083D01*
X018550Y021083D02*
X018640Y020993D01*
X018754Y020993D02*
X018935Y021173D01*
X018935Y021218D01*
X018890Y021263D01*
X018800Y021263D01*
X018754Y021218D01*
X018754Y020993D02*
X018935Y020993D01*
X019049Y020993D02*
X019049Y021038D01*
X019229Y021218D01*
X019229Y021263D01*
X019049Y021263D01*
X019133Y020794D02*
X019584Y020794D01*
X019584Y020644D02*
X019584Y020945D01*
X019284Y020644D02*
X019133Y020794D01*
X019133Y020484D02*
X019133Y020334D01*
X019133Y020409D02*
X019509Y020409D01*
X019584Y020334D01*
X019584Y020259D01*
X019509Y020184D01*
X018460Y020993D02*
X018460Y021263D01*
X019306Y022115D02*
X019306Y022385D01*
X019441Y022385D01*
X019486Y022340D01*
X019486Y022250D01*
X019441Y022205D01*
X019306Y022205D01*
X019396Y022205D02*
X019486Y022115D01*
X019601Y022115D02*
X019781Y022295D01*
X019781Y022340D01*
X019736Y022385D01*
X019646Y022385D01*
X019601Y022340D01*
X019601Y022115D02*
X019781Y022115D01*
X019896Y022160D02*
X019896Y022250D01*
X020031Y022250D01*
X020076Y022205D01*
X020076Y022160D01*
X020031Y022115D01*
X019941Y022115D01*
X019896Y022160D01*
X019896Y022250D02*
X019986Y022340D01*
X020076Y022385D01*
X023714Y017262D02*
X024895Y017262D01*
X024895Y015963D01*
X023714Y015963D01*
X023714Y016160D01*
X024855Y016160D01*
X024855Y016199D01*
X023714Y016199D01*
X023714Y016160D01*
X023714Y016199D02*
X023714Y016239D01*
X024855Y016239D01*
X023714Y016239D02*
X023714Y017262D01*
X023726Y015082D02*
X023861Y015082D01*
X023906Y015037D01*
X023906Y014947D01*
X023861Y014902D01*
X023726Y014902D01*
X023816Y014902D02*
X023906Y014812D01*
X024020Y014812D02*
X024200Y014992D01*
X024200Y015037D01*
X024155Y015082D01*
X024065Y015082D01*
X024020Y015037D01*
X024020Y014812D02*
X024200Y014812D01*
X024315Y014857D02*
X024315Y014902D01*
X024360Y014947D01*
X024450Y014947D01*
X024495Y014902D01*
X024495Y014857D01*
X024450Y014812D01*
X024360Y014812D01*
X024315Y014857D01*
X024360Y014947D02*
X024315Y014992D01*
X024315Y015037D01*
X024360Y015082D01*
X024450Y015082D01*
X024495Y015037D01*
X024495Y014992D01*
X024450Y014947D01*
X023726Y014812D02*
X023726Y015082D01*
X023359Y013916D02*
X023332Y013914D01*
X023306Y013909D01*
X023281Y013900D01*
X023257Y013887D01*
X023235Y013872D01*
X023215Y013853D01*
X023198Y013833D01*
X023184Y013810D01*
X023173Y013785D01*
X023166Y013759D01*
X023162Y013732D01*
X023162Y013706D01*
X023166Y013679D01*
X023173Y013653D01*
X023184Y013628D01*
X023198Y013605D01*
X023215Y013585D01*
X023235Y013566D01*
X023257Y013551D01*
X023281Y013538D01*
X023306Y013529D01*
X023332Y013524D01*
X023359Y013522D01*
X027269Y014812D02*
X027269Y015082D01*
X027404Y015082D01*
X027449Y015037D01*
X027449Y014947D01*
X027404Y014902D01*
X027269Y014902D01*
X027359Y014902D02*
X027449Y014812D01*
X027564Y014812D02*
X027744Y014812D01*
X027654Y014812D02*
X027654Y015082D01*
X027564Y014992D01*
X027858Y014947D02*
X027858Y014857D01*
X027903Y014812D01*
X027993Y014812D01*
X028038Y014857D01*
X028038Y014902D01*
X027993Y014947D01*
X027858Y014947D01*
X027948Y015037D01*
X028038Y015082D01*
X028418Y015963D02*
X027237Y015963D01*
X027237Y016160D01*
X028379Y016160D01*
X028379Y016199D01*
X027237Y016199D01*
X027237Y016160D01*
X027237Y016199D02*
X027237Y016239D01*
X028379Y016239D01*
X028418Y015963D02*
X028418Y017262D01*
X027237Y017262D01*
X027237Y016239D01*
X031027Y014674D02*
X031027Y013374D01*
X032208Y013374D01*
X032208Y014398D01*
X032208Y014437D01*
X031066Y014437D01*
X031066Y014477D01*
X032208Y014477D01*
X032208Y014437D01*
X032208Y014398D02*
X031066Y014398D01*
X031027Y014674D02*
X032208Y014674D01*
X032208Y014477D01*
X031716Y015364D02*
X031445Y015364D01*
X031445Y015499D01*
X031490Y015544D01*
X031580Y015544D01*
X031625Y015499D01*
X031625Y015364D01*
X031625Y015454D02*
X031716Y015544D01*
X031671Y015659D02*
X031716Y015704D01*
X031716Y015794D01*
X031671Y015839D01*
X031490Y015839D01*
X031445Y015794D01*
X031445Y015704D01*
X031490Y015659D01*
X031535Y015659D01*
X031580Y015704D01*
X031580Y015839D01*
X030167Y012307D02*
X029897Y012307D01*
X030032Y012172D01*
X030032Y012352D01*
X030167Y012058D02*
X030167Y011878D01*
X030167Y011968D02*
X029897Y011968D01*
X029987Y011878D01*
X029942Y011763D02*
X029897Y011718D01*
X029897Y011628D01*
X029942Y011583D01*
X030122Y011583D01*
X030167Y011628D01*
X030167Y011718D01*
X030122Y011763D01*
X030889Y010058D02*
X032070Y010058D01*
X032070Y008758D01*
X030889Y008758D01*
X030889Y008955D01*
X032031Y008955D01*
X032031Y008995D01*
X030889Y008995D01*
X030889Y008955D01*
X030889Y008995D02*
X030889Y009034D01*
X032031Y009034D01*
X030889Y009034D02*
X030889Y010058D01*
X030897Y008229D02*
X030717Y008229D01*
X030897Y008049D01*
X030942Y008094D01*
X030942Y008184D01*
X030897Y008229D01*
X030717Y008229D02*
X030672Y008184D01*
X030672Y008094D01*
X030717Y008049D01*
X030897Y008049D01*
X030942Y007935D02*
X030942Y007754D01*
X030942Y007844D02*
X030672Y007844D01*
X030762Y007754D01*
X030717Y007640D02*
X030807Y007640D01*
X030852Y007595D01*
X030852Y007460D01*
X030852Y007550D02*
X030942Y007640D01*
X030942Y007460D02*
X030672Y007460D01*
X030672Y007595D01*
X030717Y007640D01*
X028246Y007617D02*
X027975Y007617D01*
X027975Y007752D01*
X028020Y007797D01*
X028110Y007797D01*
X028155Y007752D01*
X028155Y007617D01*
X028155Y007707D02*
X028246Y007797D01*
X028246Y007912D02*
X028065Y008092D01*
X028020Y008092D01*
X027975Y008047D01*
X027975Y007957D01*
X028020Y007912D01*
X028246Y007912D02*
X028246Y008092D01*
X028246Y008207D02*
X028246Y008387D01*
X028246Y008297D02*
X027975Y008297D01*
X028065Y008207D01*
X028399Y008758D02*
X027218Y008758D01*
X027218Y008955D01*
X028359Y008955D01*
X028359Y008995D01*
X027218Y008995D01*
X027218Y008955D01*
X027218Y008995D02*
X027218Y009034D01*
X028359Y009034D01*
X028399Y008758D02*
X028399Y010058D01*
X027218Y010058D01*
X027218Y009034D01*
X024895Y008758D02*
X024895Y010058D01*
X023714Y010058D01*
X023714Y009034D01*
X023714Y008995D01*
X024855Y008995D01*
X024855Y008955D01*
X023714Y008955D01*
X023714Y008995D01*
X023714Y009034D02*
X024855Y009034D01*
X024895Y008758D02*
X023714Y008758D01*
X023714Y008955D01*
X023709Y008072D02*
X023664Y008027D01*
X023664Y007937D01*
X023709Y007892D01*
X023754Y007892D01*
X023799Y007937D01*
X023799Y008072D01*
X023889Y008072D02*
X023709Y008072D01*
X023889Y008072D02*
X023935Y008027D01*
X023935Y007937D01*
X023889Y007892D01*
X023935Y007777D02*
X023935Y007597D01*
X023754Y007777D01*
X023709Y007777D01*
X023664Y007732D01*
X023664Y007642D01*
X023709Y007597D01*
X023709Y007482D02*
X023799Y007482D01*
X023844Y007437D01*
X023844Y007302D01*
X023844Y007392D02*
X023935Y007482D01*
X023935Y007302D02*
X023664Y007302D01*
X023664Y007437D01*
X023709Y007482D01*
X023754Y005071D02*
X023799Y005071D01*
X023844Y005026D01*
X023889Y005071D01*
X023934Y005071D01*
X023979Y005026D01*
X023979Y004936D01*
X023934Y004891D01*
X023979Y004777D02*
X023979Y004596D01*
X023979Y004686D02*
X023709Y004686D01*
X023799Y004596D01*
X023754Y004482D02*
X023709Y004437D01*
X023709Y004347D01*
X023754Y004302D01*
X023934Y004302D01*
X023979Y004347D01*
X023979Y004437D01*
X023934Y004482D01*
X023754Y004891D02*
X023709Y004936D01*
X023709Y005026D01*
X023754Y005071D01*
X023844Y005026D02*
X023844Y004981D01*
X027469Y005626D02*
X027514Y005581D01*
X027694Y005581D01*
X027739Y005626D01*
X027739Y005716D01*
X027694Y005761D01*
X027694Y005875D02*
X027649Y005875D01*
X027604Y005920D01*
X027604Y006010D01*
X027649Y006055D01*
X027694Y006055D01*
X027739Y006010D01*
X027739Y005920D01*
X027694Y005875D01*
X027604Y005920D02*
X027559Y005875D01*
X027514Y005875D01*
X027469Y005920D01*
X027469Y006010D01*
X027514Y006055D01*
X027559Y006055D01*
X027604Y006010D01*
X027514Y005761D02*
X027469Y005716D01*
X027469Y005626D01*
X029701Y004919D02*
X029701Y004829D01*
X029746Y004784D01*
X029701Y004919D02*
X029746Y004964D01*
X029791Y004964D01*
X029971Y004784D01*
X029971Y004964D01*
X029971Y004669D02*
X029971Y004489D01*
X029971Y004579D02*
X029701Y004579D01*
X029791Y004489D01*
X029746Y004374D02*
X029701Y004329D01*
X029701Y004239D01*
X029746Y004194D01*
X029926Y004194D01*
X029971Y004239D01*
X029971Y004329D01*
X029926Y004374D01*
X005082Y013285D02*
X005082Y013465D01*
X004466Y018670D02*
X004196Y018670D01*
X004196Y018805D01*
X004241Y018851D01*
X004331Y018851D01*
X004376Y018805D01*
X004376Y018670D01*
X004376Y018760D02*
X004466Y018851D01*
X004466Y018965D02*
X004466Y019145D01*
X004466Y019055D02*
X004196Y019055D01*
X004286Y018965D01*
X004241Y019260D02*
X004196Y019305D01*
X004196Y019395D01*
X004241Y019440D01*
X004286Y019440D01*
X004466Y019260D01*
X004466Y019440D01*
X003933Y019658D02*
X003933Y019703D01*
X003753Y019703D01*
X003639Y019658D02*
X003639Y019568D01*
X003593Y019523D01*
X003458Y019523D01*
X003458Y019433D02*
X003458Y019703D01*
X003593Y019703D01*
X003639Y019658D01*
X003548Y019523D02*
X003639Y019433D01*
X003753Y019433D02*
X003753Y019478D01*
X003933Y019658D01*
X004355Y022085D02*
X004355Y022355D01*
X004490Y022355D01*
X004535Y022310D01*
X004535Y022220D01*
X004490Y022175D01*
X004355Y022175D01*
X004445Y022175D02*
X004535Y022085D01*
X004650Y022130D02*
X004695Y022085D01*
X004785Y022085D01*
X004830Y022130D01*
X004830Y022175D01*
X004785Y022220D01*
X004740Y022220D01*
X004785Y022220D02*
X004830Y022265D01*
X004830Y022310D01*
X004785Y022355D01*
X004695Y022355D01*
X004650Y022310D01*
X002881Y022310D02*
X002836Y022355D01*
X002746Y022355D01*
X002701Y022310D01*
X002586Y022310D02*
X002586Y022220D01*
X002541Y022175D01*
X002406Y022175D01*
X002406Y022085D02*
X002406Y022355D01*
X002541Y022355D01*
X002586Y022310D01*
X002496Y022175D02*
X002586Y022085D01*
X002701Y022085D02*
X002881Y022265D01*
X002881Y022310D01*
X002881Y022085D02*
X002701Y022085D01*
D16*
X012582Y016613D02*
X013842Y016613D01*
X013842Y015589D02*
X012582Y015589D01*
X012582Y015432D02*
X013842Y015432D01*
X013842Y014408D02*
X012582Y014408D01*
X012582Y014250D02*
X013842Y014250D01*
X013842Y013227D02*
X012582Y013227D01*
X014699Y009880D02*
X014699Y005038D01*
X017020Y005038D01*
X017020Y009880D01*
X014699Y009880D01*
X015741Y009880D02*
X015743Y009860D01*
X015748Y009840D01*
X015757Y009821D01*
X015769Y009804D01*
X015783Y009790D01*
X015800Y009778D01*
X015819Y009769D01*
X015839Y009764D01*
X015859Y009762D01*
X015879Y009764D01*
X015899Y009769D01*
X015918Y009778D01*
X015935Y009790D01*
X015949Y009804D01*
X015961Y009821D01*
X015970Y009840D01*
X015975Y009860D01*
X015977Y009880D01*
X009935Y004335D02*
X009795Y004195D01*
X009935Y004335D02*
X009935Y003914D01*
X009795Y003914D02*
X010075Y003914D01*
X006074Y010158D02*
X005574Y010158D01*
X005324Y010408D01*
X005324Y010908D01*
X005574Y011158D01*
X006074Y011158D01*
X006324Y010908D01*
X006324Y010408D01*
X006074Y010158D01*
X005324Y010408D02*
X005074Y010158D01*
X004574Y010158D01*
X004324Y010408D01*
X004324Y010908D01*
X004574Y011158D01*
X005074Y011158D01*
X005324Y010908D01*
X004324Y010908D02*
X004074Y011158D01*
X003574Y011158D01*
X003324Y010908D01*
X003324Y010408D01*
X003074Y010158D01*
X002574Y010158D01*
X002324Y010408D01*
X002324Y010908D01*
X002574Y011158D01*
X003074Y011158D01*
X003324Y010908D01*
X003324Y010408D02*
X003574Y010158D01*
X004074Y010158D01*
X004324Y010408D01*
X002324Y010408D02*
X002074Y010158D01*
X001574Y010158D01*
X001324Y010408D01*
X001324Y010158D01*
X000324Y010158D01*
X000324Y011158D01*
X001324Y011158D01*
X001324Y010908D01*
X001324Y010408D01*
X001324Y010908D02*
X001574Y011158D01*
X002074Y011158D01*
X002324Y010908D01*
X017424Y017380D02*
X017424Y018640D01*
X017889Y019300D02*
X018139Y019050D01*
X018639Y019050D01*
X018889Y019300D01*
X018889Y019800D01*
X018639Y020050D01*
X018889Y020300D01*
X018889Y020800D01*
X018639Y021050D01*
X018139Y021050D01*
X017889Y020800D01*
X017889Y020300D01*
X018139Y020050D01*
X017889Y019800D01*
X017889Y019300D01*
X018448Y018640D02*
X018448Y017380D01*
X018713Y016997D02*
X018715Y017068D01*
X018721Y017139D01*
X018731Y017210D01*
X018745Y017279D01*
X018762Y017348D01*
X018784Y017416D01*
X018809Y017483D01*
X018838Y017548D01*
X018870Y017611D01*
X018906Y017673D01*
X018945Y017732D01*
X018988Y017789D01*
X019033Y017844D01*
X019082Y017896D01*
X019133Y017945D01*
X019187Y017991D01*
X019244Y018035D01*
X019302Y018075D01*
X019363Y018111D01*
X019426Y018145D01*
X019491Y018174D01*
X019557Y018200D01*
X019625Y018223D01*
X019693Y018241D01*
X019763Y018256D01*
X019833Y018267D01*
X019904Y018274D01*
X019975Y018277D01*
X020046Y018276D01*
X020117Y018271D01*
X020188Y018262D01*
X020258Y018249D01*
X020327Y018233D01*
X020395Y018212D01*
X020462Y018188D01*
X020528Y018160D01*
X020591Y018128D01*
X020653Y018093D01*
X020713Y018055D01*
X020771Y018013D01*
X020826Y017969D01*
X020879Y017921D01*
X020929Y017870D01*
X020976Y017817D01*
X021020Y017761D01*
X021061Y017703D01*
X021099Y017642D01*
X021133Y017580D01*
X021163Y017515D01*
X021190Y017450D01*
X021214Y017382D01*
X021233Y017314D01*
X021249Y017245D01*
X021261Y017174D01*
X021269Y017104D01*
X021273Y017033D01*
X021273Y016961D01*
X021269Y016890D01*
X021261Y016820D01*
X021249Y016749D01*
X021233Y016680D01*
X021214Y016612D01*
X021190Y016544D01*
X021163Y016479D01*
X021133Y016414D01*
X021099Y016352D01*
X021061Y016291D01*
X021020Y016233D01*
X020976Y016177D01*
X020929Y016124D01*
X020879Y016073D01*
X020826Y016025D01*
X020771Y015981D01*
X020713Y015939D01*
X020653Y015901D01*
X020591Y015866D01*
X020528Y015834D01*
X020462Y015806D01*
X020395Y015782D01*
X020327Y015761D01*
X020258Y015745D01*
X020188Y015732D01*
X020117Y015723D01*
X020046Y015718D01*
X019975Y015717D01*
X019904Y015720D01*
X019833Y015727D01*
X019763Y015738D01*
X019693Y015753D01*
X019625Y015771D01*
X019557Y015794D01*
X019491Y015820D01*
X019426Y015849D01*
X019363Y015883D01*
X019302Y015919D01*
X019244Y015959D01*
X019187Y016003D01*
X019133Y016049D01*
X019082Y016098D01*
X019033Y016150D01*
X018988Y016205D01*
X018945Y016262D01*
X018906Y016321D01*
X018870Y016383D01*
X018838Y016446D01*
X018809Y016511D01*
X018784Y016578D01*
X018762Y016646D01*
X018745Y016715D01*
X018731Y016784D01*
X018721Y016855D01*
X018715Y016926D01*
X018713Y016997D01*
X020493Y017247D02*
X020493Y017747D01*
X020672Y018621D02*
X020672Y019880D01*
X020672Y020510D02*
X020672Y021770D01*
X019649Y021770D02*
X019649Y020510D01*
X019649Y019880D02*
X019649Y018621D01*
X021073Y020320D02*
X021075Y020412D01*
X021081Y020505D01*
X021091Y020597D01*
X021105Y020688D01*
X021123Y020779D01*
X021144Y020869D01*
X021170Y020958D01*
X021199Y021046D01*
X021232Y021132D01*
X021269Y021217D01*
X021309Y021300D01*
X021353Y021382D01*
X021401Y021461D01*
X021452Y021538D01*
X021506Y021613D01*
X021563Y021686D01*
X021623Y021756D01*
X021686Y021824D01*
X021753Y021889D01*
X021821Y021950D01*
X021893Y022009D01*
X021967Y022065D01*
X022043Y022117D01*
X022121Y022166D01*
X022202Y022212D01*
X022284Y022254D01*
X022368Y022293D01*
X022454Y022328D01*
X022541Y022359D01*
X022629Y022386D01*
X022719Y022410D01*
X022809Y022430D01*
X022900Y022446D01*
X022992Y022458D01*
X023084Y022466D01*
X023177Y022470D01*
X023269Y022470D01*
X023362Y022466D01*
X023454Y022458D01*
X023546Y022446D01*
X023637Y022430D01*
X023727Y022410D01*
X023817Y022386D01*
X023905Y022359D01*
X023992Y022328D01*
X024078Y022293D01*
X024162Y022254D01*
X024244Y022212D01*
X024325Y022166D01*
X024403Y022117D01*
X024479Y022065D01*
X024553Y022009D01*
X024625Y021950D01*
X024693Y021889D01*
X024760Y021824D01*
X024823Y021756D01*
X024883Y021686D01*
X024940Y021613D01*
X024994Y021538D01*
X025045Y021461D01*
X025093Y021382D01*
X025137Y021300D01*
X025177Y021217D01*
X025214Y021132D01*
X025247Y021046D01*
X025276Y020958D01*
X025302Y020869D01*
X025323Y020779D01*
X025341Y020688D01*
X025355Y020597D01*
X025365Y020505D01*
X025371Y020412D01*
X025373Y020320D01*
X025371Y020228D01*
X025365Y020135D01*
X025355Y020043D01*
X025341Y019952D01*
X025323Y019861D01*
X025302Y019771D01*
X025276Y019682D01*
X025247Y019594D01*
X025214Y019508D01*
X025177Y019423D01*
X025137Y019340D01*
X025093Y019258D01*
X025045Y019179D01*
X024994Y019102D01*
X024940Y019027D01*
X024883Y018954D01*
X024823Y018884D01*
X024760Y018816D01*
X024693Y018751D01*
X024625Y018690D01*
X024553Y018631D01*
X024479Y018575D01*
X024403Y018523D01*
X024325Y018474D01*
X024244Y018428D01*
X024162Y018386D01*
X024078Y018347D01*
X023992Y018312D01*
X023905Y018281D01*
X023817Y018254D01*
X023727Y018230D01*
X023637Y018210D01*
X023546Y018194D01*
X023454Y018182D01*
X023362Y018174D01*
X023269Y018170D01*
X023177Y018170D01*
X023084Y018174D01*
X022992Y018182D01*
X022900Y018194D01*
X022809Y018210D01*
X022719Y018230D01*
X022629Y018254D01*
X022541Y018281D01*
X022454Y018312D01*
X022368Y018347D01*
X022284Y018386D01*
X022202Y018428D01*
X022121Y018474D01*
X022043Y018523D01*
X021967Y018575D01*
X021893Y018631D01*
X021821Y018690D01*
X021753Y018751D01*
X021686Y018816D01*
X021623Y018884D01*
X021563Y018954D01*
X021506Y019027D01*
X021452Y019102D01*
X021401Y019179D01*
X021353Y019258D01*
X021309Y019340D01*
X021269Y019423D01*
X021232Y019508D01*
X021199Y019594D01*
X021170Y019682D01*
X021144Y019771D01*
X021123Y019861D01*
X021105Y019952D01*
X021091Y020043D01*
X021081Y020135D01*
X021075Y020228D01*
X021073Y020320D01*
X023723Y021070D02*
X023723Y021570D01*
X030308Y011908D02*
X030310Y011970D01*
X030316Y012033D01*
X030326Y012094D01*
X030340Y012155D01*
X030357Y012215D01*
X030378Y012274D01*
X030404Y012331D01*
X030432Y012386D01*
X030464Y012440D01*
X030500Y012491D01*
X030538Y012541D01*
X030580Y012587D01*
X030624Y012631D01*
X030672Y012672D01*
X030721Y012710D01*
X030773Y012744D01*
X030827Y012775D01*
X030883Y012803D01*
X030941Y012827D01*
X031000Y012848D01*
X031060Y012864D01*
X031121Y012877D01*
X031183Y012886D01*
X031245Y012891D01*
X031308Y012892D01*
X031370Y012889D01*
X031432Y012882D01*
X031494Y012871D01*
X031554Y012856D01*
X031614Y012838D01*
X031672Y012816D01*
X031729Y012790D01*
X031784Y012760D01*
X031837Y012727D01*
X031888Y012691D01*
X031936Y012652D01*
X031982Y012609D01*
X032025Y012564D01*
X032065Y012516D01*
X032102Y012466D01*
X032136Y012413D01*
X032167Y012359D01*
X032193Y012303D01*
X032217Y012245D01*
X032236Y012185D01*
X032252Y012125D01*
X032264Y012063D01*
X032272Y012002D01*
X032276Y011939D01*
X032276Y011877D01*
X032272Y011814D01*
X032264Y011753D01*
X032252Y011691D01*
X032236Y011631D01*
X032217Y011571D01*
X032193Y011513D01*
X032167Y011457D01*
X032136Y011403D01*
X032102Y011350D01*
X032065Y011300D01*
X032025Y011252D01*
X031982Y011207D01*
X031936Y011164D01*
X031888Y011125D01*
X031837Y011089D01*
X031784Y011056D01*
X031729Y011026D01*
X031672Y011000D01*
X031614Y010978D01*
X031554Y010960D01*
X031494Y010945D01*
X031432Y010934D01*
X031370Y010927D01*
X031308Y010924D01*
X031245Y010925D01*
X031183Y010930D01*
X031121Y010939D01*
X031060Y010952D01*
X031000Y010968D01*
X030941Y010989D01*
X030883Y011013D01*
X030827Y011041D01*
X030773Y011072D01*
X030721Y011106D01*
X030672Y011144D01*
X030624Y011185D01*
X030580Y011229D01*
X030538Y011275D01*
X030500Y011325D01*
X030464Y011376D01*
X030432Y011430D01*
X030404Y011485D01*
X030378Y011542D01*
X030357Y011601D01*
X030340Y011661D01*
X030326Y011722D01*
X030316Y011783D01*
X030310Y011846D01*
X030308Y011908D01*
X030742Y011608D02*
X030742Y011208D01*
X029126Y005403D02*
X029126Y005003D01*
X027592Y004703D02*
X027594Y004765D01*
X027600Y004828D01*
X027610Y004889D01*
X027624Y004950D01*
X027641Y005010D01*
X027662Y005069D01*
X027688Y005126D01*
X027716Y005181D01*
X027748Y005235D01*
X027784Y005286D01*
X027822Y005336D01*
X027864Y005382D01*
X027908Y005426D01*
X027956Y005467D01*
X028005Y005505D01*
X028057Y005539D01*
X028111Y005570D01*
X028167Y005598D01*
X028225Y005622D01*
X028284Y005643D01*
X028344Y005659D01*
X028405Y005672D01*
X028467Y005681D01*
X028529Y005686D01*
X028592Y005687D01*
X028654Y005684D01*
X028716Y005677D01*
X028778Y005666D01*
X028838Y005651D01*
X028898Y005633D01*
X028956Y005611D01*
X029013Y005585D01*
X029068Y005555D01*
X029121Y005522D01*
X029172Y005486D01*
X029220Y005447D01*
X029266Y005404D01*
X029309Y005359D01*
X029349Y005311D01*
X029386Y005261D01*
X029420Y005208D01*
X029451Y005154D01*
X029477Y005098D01*
X029501Y005040D01*
X029520Y004980D01*
X029536Y004920D01*
X029548Y004858D01*
X029556Y004797D01*
X029560Y004734D01*
X029560Y004672D01*
X029556Y004609D01*
X029548Y004548D01*
X029536Y004486D01*
X029520Y004426D01*
X029501Y004366D01*
X029477Y004308D01*
X029451Y004252D01*
X029420Y004198D01*
X029386Y004145D01*
X029349Y004095D01*
X029309Y004047D01*
X029266Y004002D01*
X029220Y003959D01*
X029172Y003920D01*
X029121Y003884D01*
X029068Y003851D01*
X029013Y003821D01*
X028956Y003795D01*
X028898Y003773D01*
X028838Y003755D01*
X028778Y003740D01*
X028716Y003729D01*
X028654Y003722D01*
X028592Y003719D01*
X028529Y003720D01*
X028467Y003725D01*
X028405Y003734D01*
X028344Y003747D01*
X028284Y003763D01*
X028225Y003784D01*
X028167Y003808D01*
X028111Y003836D01*
X028057Y003867D01*
X028005Y003901D01*
X027956Y003939D01*
X027908Y003980D01*
X027864Y004024D01*
X027822Y004070D01*
X027784Y004120D01*
X027748Y004171D01*
X027716Y004225D01*
X027688Y004280D01*
X027662Y004337D01*
X027641Y004396D01*
X027624Y004456D01*
X027610Y004517D01*
X027600Y004578D01*
X027594Y004641D01*
X027592Y004703D01*
D17*
X015861Y012144D02*
X015859Y012165D01*
X015854Y012185D01*
X015845Y012204D01*
X015833Y012221D01*
X015818Y012236D01*
X015801Y012248D01*
X015782Y012257D01*
X015762Y012262D01*
X015741Y012264D01*
X015720Y012262D01*
X015700Y012257D01*
X015681Y012248D01*
X015664Y012236D01*
X015649Y012221D01*
X015637Y012204D01*
X015628Y012185D01*
X015623Y012165D01*
X015621Y012144D01*
X015623Y012165D01*
X015628Y012185D01*
X015637Y012204D01*
X015649Y012221D01*
X015664Y012236D01*
X015681Y012248D01*
X015700Y012257D01*
X015720Y012262D01*
X015741Y012264D01*
X015762Y012262D01*
X015782Y012257D01*
X015801Y012248D01*
X015818Y012236D01*
X015833Y012221D01*
X015845Y012204D01*
X015854Y012185D01*
X015859Y012165D01*
X015861Y012144D01*
X015861Y014644D02*
X015859Y014665D01*
X015854Y014685D01*
X015845Y014704D01*
X015833Y014721D01*
X015818Y014736D01*
X015801Y014748D01*
X015782Y014757D01*
X015762Y014762D01*
X015741Y014764D01*
X015720Y014762D01*
X015700Y014757D01*
X015681Y014748D01*
X015664Y014736D01*
X015649Y014721D01*
X015637Y014704D01*
X015628Y014685D01*
X015623Y014665D01*
X015621Y014644D01*
X015623Y014665D01*
X015628Y014685D01*
X015637Y014704D01*
X015649Y014721D01*
X015664Y014736D01*
X015681Y014748D01*
X015700Y014757D01*
X015720Y014762D01*
X015741Y014764D01*
X015762Y014762D01*
X015782Y014757D01*
X015801Y014748D01*
X015818Y014736D01*
X015833Y014721D01*
X015845Y014704D01*
X015854Y014685D01*
X015859Y014665D01*
X015861Y014644D01*
X015914Y016881D02*
X016134Y016881D01*
X016264Y016881D02*
X016484Y016881D01*
X017114Y016881D02*
X017114Y021261D01*
X013514Y021261D01*
X013514Y016881D01*
X017114Y016881D01*
X017114Y017541D02*
X017114Y017761D01*
X017114Y017901D02*
X017114Y018121D01*
X017114Y018251D02*
X017114Y018471D01*
X017114Y018611D02*
X017114Y018831D01*
X017114Y018961D02*
X017114Y019181D01*
X017114Y019311D02*
X017114Y019531D01*
X017114Y019671D02*
X017114Y019891D01*
X017114Y020021D02*
X017114Y020241D01*
X017114Y020381D02*
X017114Y020601D01*
X016484Y021261D02*
X016264Y021261D01*
X016134Y021261D02*
X015914Y021261D01*
X015774Y021261D02*
X015554Y021261D01*
X015424Y021261D02*
X015204Y021261D01*
X015074Y021261D02*
X014854Y021261D01*
X014714Y021261D02*
X014494Y021261D01*
X014364Y021261D02*
X014144Y021261D01*
X014014Y021261D02*
X013514Y020761D01*
X013514Y020601D02*
X013514Y020381D01*
X013514Y020241D02*
X013514Y020021D01*
X013514Y019891D02*
X013514Y019671D01*
X013514Y019531D02*
X013514Y019311D01*
X013514Y019181D02*
X013514Y018961D01*
X013514Y018831D02*
X013514Y018611D01*
X013514Y018471D02*
X013514Y018251D01*
X013514Y018121D02*
X013514Y017901D01*
X013514Y017761D02*
X013514Y017541D01*
X014144Y016881D02*
X014364Y016881D01*
X014494Y016881D02*
X014714Y016881D01*
X014854Y016881D02*
X015074Y016881D01*
X015204Y016881D02*
X015424Y016881D01*
X015554Y016881D02*
X015774Y016881D01*
X011946Y016225D02*
X011946Y014665D01*
X009986Y014665D01*
X009986Y015325D01*
X009986Y016225D01*
X011946Y016225D01*
X011816Y016225D02*
X011816Y016665D01*
X011616Y016665D01*
X011616Y016225D01*
X011816Y016225D01*
X011316Y016225D02*
X011316Y016665D01*
X011116Y016665D01*
X011116Y016225D01*
X011316Y016225D01*
X010816Y016225D02*
X010816Y016665D01*
X010616Y016665D01*
X010616Y016225D01*
X010816Y016225D01*
X010316Y016225D02*
X010316Y016665D01*
X010116Y016665D01*
X010116Y016225D01*
X010316Y016225D01*
X009976Y015565D02*
X009997Y015564D01*
X010017Y015559D01*
X010037Y015551D01*
X010054Y015540D01*
X010070Y015526D01*
X010082Y015509D01*
X010092Y015491D01*
X010098Y015471D01*
X010101Y015450D01*
X010100Y015429D01*
X010095Y015409D01*
X010087Y015389D01*
X010076Y015372D01*
X010062Y015356D01*
X010045Y015344D01*
X010027Y015334D01*
X010007Y015328D01*
X009986Y015325D01*
X010116Y014665D02*
X010116Y014225D01*
X010316Y014225D01*
X010316Y014665D01*
X010116Y014665D01*
X010616Y014665D02*
X010616Y014225D01*
X010816Y014225D01*
X010816Y014665D01*
X010616Y014665D01*
X011116Y014665D02*
X011116Y014225D01*
X011316Y014225D01*
X011316Y014665D01*
X011116Y014665D01*
X011616Y014665D02*
X011616Y014225D01*
X011816Y014225D01*
X011816Y014665D01*
X011616Y014665D01*
X007394Y014688D02*
X007394Y014808D01*
X006974Y014808D01*
X006974Y014688D01*
X007394Y014688D01*
X007394Y014948D02*
X006974Y014948D01*
X006974Y015068D01*
X007394Y015068D01*
X007394Y014948D01*
X007394Y015208D02*
X006974Y015208D01*
X006974Y015328D01*
X007394Y015328D01*
X007394Y015208D01*
X007394Y015458D02*
X006974Y015458D01*
X006974Y015578D01*
X007394Y015578D01*
X007394Y015458D01*
X007394Y015718D02*
X006974Y015718D01*
X006974Y015838D01*
X007394Y015838D01*
X007394Y015718D01*
X007394Y015968D02*
X006974Y015968D01*
X006974Y016088D01*
X007394Y016088D01*
X007394Y015968D01*
X007394Y016228D02*
X006974Y016228D01*
X006974Y016348D01*
X007394Y016348D01*
X007394Y016228D01*
X007394Y016488D02*
X006974Y016488D01*
X006974Y016608D01*
X007394Y016608D01*
X007394Y016488D01*
X006974Y016648D02*
X005974Y016648D01*
X005214Y016648D01*
X005214Y014648D01*
X006974Y014648D01*
X006974Y016648D01*
X006214Y016658D02*
X006213Y016637D01*
X006208Y016617D01*
X006200Y016597D01*
X006189Y016580D01*
X006175Y016564D01*
X006158Y016552D01*
X006140Y016542D01*
X006120Y016536D01*
X006099Y016533D01*
X006078Y016534D01*
X006058Y016539D01*
X006038Y016547D01*
X006021Y016558D01*
X006005Y016572D01*
X005993Y016589D01*
X005983Y016607D01*
X005977Y016627D01*
X005974Y016648D01*
X005214Y016608D02*
X004794Y016608D01*
X004794Y016488D01*
X005214Y016488D01*
X005214Y016608D01*
X005214Y016348D02*
X004794Y016348D01*
X004794Y016228D01*
X005214Y016228D01*
X005214Y016348D01*
X005214Y016088D02*
X004794Y016088D01*
X004794Y015968D01*
X005214Y015968D01*
X005214Y016088D01*
X005214Y015838D02*
X004794Y015838D01*
X004794Y015718D01*
X005214Y015718D01*
X005214Y015838D01*
X005214Y015578D02*
X004794Y015578D01*
X004794Y015458D01*
X005214Y015458D01*
X005214Y015578D01*
X005214Y015328D02*
X004794Y015328D01*
X004794Y015208D01*
X005214Y015208D01*
X005214Y015328D01*
X005214Y015068D02*
X004794Y015068D01*
X004794Y014948D01*
X005214Y014948D01*
X005214Y015068D01*
X005214Y014808D02*
X004794Y014808D01*
X004794Y014688D01*
X005214Y014688D01*
X005214Y014808D01*
X005262Y008874D02*
X005152Y008874D01*
X005152Y008484D01*
X005262Y008484D01*
X005262Y008874D01*
X005352Y008874D02*
X005352Y008484D01*
X005462Y008484D01*
X005462Y008874D01*
X005352Y008874D01*
X005552Y008874D02*
X005552Y008484D01*
X005652Y008484D01*
X005652Y008874D01*
X005552Y008874D01*
X005742Y008874D02*
X005742Y008484D01*
X005852Y008484D01*
X005852Y008874D01*
X005742Y008874D01*
X005942Y008874D02*
X005942Y008484D01*
X006052Y008484D01*
X006052Y008874D01*
X005942Y008874D01*
X006142Y008874D02*
X006142Y008484D01*
X006242Y008484D01*
X006242Y008874D01*
X006142Y008874D01*
X006342Y008874D02*
X006342Y008484D01*
X006442Y008484D01*
X006442Y008874D01*
X006342Y008874D01*
X006532Y008874D02*
X006532Y008484D01*
X006642Y008484D01*
X006642Y008874D01*
X006532Y008874D01*
X006732Y008874D02*
X006732Y008484D01*
X006842Y008484D01*
X006842Y008874D01*
X006732Y008874D01*
X006932Y008874D02*
X006932Y008484D01*
X007032Y008484D01*
X007032Y008874D01*
X006932Y008874D01*
X007122Y008874D02*
X007122Y008484D01*
X007232Y008484D01*
X007232Y008874D01*
X007122Y008874D01*
X007322Y008874D02*
X007322Y008484D01*
X007432Y008484D01*
X007432Y008874D01*
X007322Y008874D01*
X007522Y008874D02*
X007522Y008484D01*
X007622Y008484D01*
X007622Y008874D01*
X007522Y008874D01*
X007712Y008874D02*
X007712Y008484D01*
X007762Y008484D01*
X008262Y007984D01*
X008262Y007934D01*
X008652Y007934D01*
X008652Y008044D01*
X008262Y008044D01*
X008262Y007984D01*
X008262Y007844D02*
X008652Y007844D01*
X008652Y007744D01*
X008262Y007744D01*
X008262Y007844D01*
X008262Y007654D02*
X008652Y007654D01*
X008652Y007544D01*
X008262Y007544D01*
X008262Y007654D01*
X008262Y007454D02*
X008652Y007454D01*
X008652Y007344D01*
X008262Y007344D01*
X008262Y007454D01*
X008262Y007254D02*
X008652Y007254D01*
X008652Y007154D01*
X008262Y007154D01*
X008262Y007254D01*
X008262Y007064D02*
X008652Y007064D01*
X008652Y006954D01*
X008262Y006954D01*
X008262Y007064D01*
X008262Y006864D02*
X008652Y006864D01*
X008652Y006754D01*
X008262Y006754D01*
X008262Y006864D01*
X008262Y006664D02*
X008652Y006664D01*
X008652Y006564D01*
X008262Y006564D01*
X008262Y006664D01*
X008262Y006464D02*
X008652Y006464D01*
X008652Y006364D01*
X008262Y006364D01*
X008262Y006464D01*
X008262Y006274D02*
X008652Y006274D01*
X008652Y006164D01*
X008262Y006164D01*
X008262Y006274D01*
X008262Y006074D02*
X008652Y006074D01*
X008652Y005964D01*
X008262Y005964D01*
X008262Y006074D01*
X008262Y005874D02*
X008652Y005874D01*
X008652Y005774D01*
X008262Y005774D01*
X008262Y005874D01*
X008262Y005684D02*
X008652Y005684D01*
X008652Y005574D01*
X008262Y005574D01*
X008262Y005684D01*
X008262Y005484D02*
X008652Y005484D01*
X008652Y005374D01*
X008262Y005374D01*
X008262Y005484D01*
X008262Y005284D02*
X008652Y005284D01*
X008652Y005184D01*
X008262Y005184D01*
X008262Y005284D01*
X008262Y005094D02*
X008652Y005094D01*
X008652Y004984D01*
X008262Y004984D01*
X008262Y005094D01*
X008262Y004544D02*
X008262Y008484D01*
X004322Y008484D01*
X004322Y004544D01*
X008262Y004544D01*
X007822Y004544D02*
X007822Y004154D01*
X007712Y004154D01*
X007712Y004544D01*
X007822Y004544D01*
X007622Y004544D02*
X007622Y004154D01*
X007522Y004154D01*
X007522Y004544D01*
X007622Y004544D01*
X007432Y004544D02*
X007432Y004154D01*
X007322Y004154D01*
X007322Y004544D01*
X007432Y004544D01*
X007232Y004544D02*
X007232Y004154D01*
X007122Y004154D01*
X007122Y004544D01*
X007232Y004544D01*
X007032Y004544D02*
X007032Y004154D01*
X006932Y004154D01*
X006932Y004544D01*
X007032Y004544D01*
X006842Y004544D02*
X006842Y004154D01*
X006732Y004154D01*
X006732Y004544D01*
X006842Y004544D01*
X006642Y004544D02*
X006642Y004154D01*
X006532Y004154D01*
X006532Y004544D01*
X006642Y004544D01*
X006442Y004544D02*
X006442Y004154D01*
X006342Y004154D01*
X006342Y004544D01*
X006442Y004544D01*
X006242Y004544D02*
X006242Y004154D01*
X006142Y004154D01*
X006142Y004544D01*
X006242Y004544D01*
X006052Y004544D02*
X006052Y004154D01*
X005942Y004154D01*
X005942Y004544D01*
X006052Y004544D01*
X005852Y004544D02*
X005852Y004154D01*
X005742Y004154D01*
X005742Y004544D01*
X005852Y004544D01*
X005652Y004544D02*
X005652Y004154D01*
X005552Y004154D01*
X005552Y004544D01*
X005652Y004544D01*
X005462Y004544D02*
X005462Y004154D01*
X005352Y004154D01*
X005352Y004544D01*
X005462Y004544D01*
X005262Y004544D02*
X005262Y004154D01*
X005152Y004154D01*
X005152Y004544D01*
X005262Y004544D01*
X005062Y004544D02*
X005062Y004154D01*
X004962Y004154D01*
X004962Y004544D01*
X005062Y004544D01*
X004872Y004544D02*
X004872Y004154D01*
X004762Y004154D01*
X004762Y004544D01*
X004872Y004544D01*
X004322Y004984D02*
X003932Y004984D01*
X003932Y005094D01*
X004322Y005094D01*
X004322Y004984D01*
X004322Y005184D02*
X003932Y005184D01*
X003932Y005284D01*
X004322Y005284D01*
X004322Y005184D01*
X004322Y005374D02*
X003932Y005374D01*
X003932Y005484D01*
X004322Y005484D01*
X004322Y005374D01*
X004322Y005574D02*
X003932Y005574D01*
X003932Y005684D01*
X004322Y005684D01*
X004322Y005574D01*
X004322Y005774D02*
X003932Y005774D01*
X003932Y005874D01*
X004322Y005874D01*
X004322Y005774D01*
X004322Y005964D02*
X003932Y005964D01*
X003932Y006074D01*
X004322Y006074D01*
X004322Y005964D01*
X004322Y006164D02*
X003932Y006164D01*
X003932Y006274D01*
X004322Y006274D01*
X004322Y006164D01*
X004322Y006364D02*
X003932Y006364D01*
X003932Y006464D01*
X004322Y006464D01*
X004322Y006364D01*
X004322Y006564D02*
X003932Y006564D01*
X003932Y006664D01*
X004322Y006664D01*
X004322Y006564D01*
X004322Y006754D02*
X003932Y006754D01*
X003932Y006864D01*
X004322Y006864D01*
X004322Y006754D01*
X004322Y006954D02*
X003932Y006954D01*
X003932Y007064D01*
X004322Y007064D01*
X004322Y006954D01*
X004322Y007154D02*
X003932Y007154D01*
X003932Y007254D01*
X004322Y007254D01*
X004322Y007154D01*
X004322Y007344D02*
X003932Y007344D01*
X003932Y007454D01*
X004322Y007454D01*
X004322Y007344D01*
X004322Y007544D02*
X003932Y007544D01*
X003932Y007654D01*
X004322Y007654D01*
X004322Y007544D01*
X004322Y007744D02*
X003932Y007744D01*
X003932Y007844D01*
X004322Y007844D01*
X004322Y007744D01*
X004322Y007934D02*
X003932Y007934D01*
X003932Y008044D01*
X004322Y008044D01*
X004322Y007934D01*
X004762Y008484D02*
X004762Y008874D01*
X004872Y008874D01*
X004872Y008484D01*
X004762Y008484D01*
X004962Y008484D02*
X004962Y008874D01*
X005062Y008874D01*
X005062Y008484D01*
X004962Y008484D01*
X007712Y008874D02*
X007822Y008874D01*
X007822Y008484D01*
X007762Y008484D01*
D18*
X003851Y011363D02*
X000505Y011363D01*
X000505Y011760D01*
X000505Y012154D01*
X000505Y018453D01*
X000505Y018847D01*
X000505Y019245D01*
X003851Y019245D01*
X003851Y011363D01*
X000505Y011760D02*
X000478Y011762D01*
X000452Y011767D01*
X000427Y011776D01*
X000403Y011789D01*
X000381Y011804D01*
X000361Y011823D01*
X000344Y011843D01*
X000330Y011866D01*
X000319Y011891D01*
X000312Y011917D01*
X000308Y011944D01*
X000308Y011970D01*
X000312Y011997D01*
X000319Y012023D01*
X000330Y012048D01*
X000344Y012071D01*
X000361Y012091D01*
X000381Y012110D01*
X000403Y012125D01*
X000427Y012138D01*
X000452Y012147D01*
X000478Y012152D01*
X000505Y012154D01*
X004816Y016947D02*
X008753Y016947D01*
X008753Y019231D01*
X004816Y019231D01*
X004816Y016947D01*
X009048Y016967D02*
X012985Y016967D01*
X012985Y019250D01*
X009048Y019250D01*
X009048Y016967D01*
X009993Y019979D02*
X013143Y019979D01*
X013143Y022459D01*
X009993Y022459D01*
X009993Y019979D01*
X009806Y020176D02*
X004294Y020176D01*
X004294Y022459D01*
X009806Y022459D01*
X009806Y020176D01*
X000505Y018847D02*
X000478Y018845D01*
X000452Y018840D01*
X000427Y018831D01*
X000403Y018818D01*
X000381Y018803D01*
X000361Y018784D01*
X000344Y018764D01*
X000330Y018741D01*
X000319Y018716D01*
X000312Y018690D01*
X000308Y018663D01*
X000308Y018637D01*
X000312Y018610D01*
X000319Y018584D01*
X000330Y018559D01*
X000344Y018536D01*
X000361Y018516D01*
X000381Y018497D01*
X000403Y018482D01*
X000427Y018469D01*
X000452Y018460D01*
X000478Y018455D01*
X000505Y018453D01*
X023399Y014624D02*
X023399Y010845D01*
X023399Y010766D02*
X028832Y010766D01*
X028832Y010845D02*
X028832Y014624D01*
X023399Y014624D01*
X025613Y018660D02*
X025613Y022439D01*
X029393Y022439D01*
X029393Y018660D01*
X025613Y018660D01*
D19*
X025535Y021337D02*
X025508Y021339D01*
X025482Y021344D01*
X025457Y021353D01*
X025433Y021366D01*
X025411Y021381D01*
X025391Y021400D01*
X025374Y021420D01*
X025360Y021443D01*
X025349Y021468D01*
X025342Y021494D01*
X025338Y021521D01*
X025338Y021547D01*
X025342Y021574D01*
X025349Y021600D01*
X025360Y021625D01*
X025374Y021648D01*
X025391Y021668D01*
X025411Y021687D01*
X025433Y021702D01*
X025457Y021715D01*
X025482Y021724D01*
X025508Y021729D01*
X025535Y021731D01*
X012337Y019447D02*
X009696Y019447D01*
X008371Y019979D02*
X005730Y019979D01*
X005464Y019428D02*
X008105Y019428D01*
D20*
X003158Y012631D02*
X003158Y012324D01*
X003158Y012477D02*
X002698Y012477D01*
X002851Y012324D01*
X001658Y012324D02*
X001351Y012631D01*
X001275Y012631D01*
X001198Y012554D01*
X001198Y012400D01*
X001275Y012324D01*
X001658Y012324D02*
X001658Y012631D01*
D21*
X021509Y015097D03*
X024934Y015097D03*
X028556Y015097D03*
X028556Y007735D03*
X024934Y007735D03*
X021509Y007735D03*
D22*
X016158Y013472D02*
X016158Y013873D01*
X016108Y013823D02*
X016208Y013823D01*
X016258Y013772D01*
X016352Y013722D02*
X016452Y013823D01*
X016452Y013522D01*
X016352Y013522D02*
X016552Y013522D01*
X016258Y013572D02*
X016258Y013622D01*
X016208Y013672D01*
X016108Y013672D01*
X016058Y013722D01*
X016058Y013772D01*
X016108Y013823D01*
X015963Y013823D02*
X015963Y013572D01*
X015913Y013522D01*
X015813Y013522D01*
X015763Y013572D01*
X015763Y013823D01*
X015813Y014113D02*
X015913Y014113D01*
X015963Y014163D01*
X015963Y014413D01*
X016058Y014363D02*
X016108Y014413D01*
X016208Y014413D01*
X016258Y014363D01*
X016352Y014363D02*
X016402Y014413D01*
X016502Y014413D01*
X016552Y014363D01*
X016552Y014313D01*
X016352Y014113D01*
X016552Y014113D01*
X016647Y014113D02*
X016847Y014313D01*
X016847Y014363D01*
X016797Y014413D01*
X016697Y014413D01*
X016647Y014363D01*
X016647Y014113D02*
X016847Y014113D01*
X016258Y014163D02*
X016258Y014213D01*
X016208Y014263D01*
X016108Y014263D01*
X016058Y014313D01*
X016058Y014363D01*
X016158Y014463D02*
X016158Y014063D01*
X016108Y014113D02*
X016208Y014113D01*
X016258Y014163D01*
X016108Y014113D02*
X016058Y014163D01*
X015813Y014113D02*
X015763Y014163D01*
X015763Y014413D01*
X016058Y013572D02*
X016108Y013522D01*
X016208Y013522D01*
X016258Y013572D01*
M02*
