G75*
%MOIN*%
%OFA0B0*%
%FSLAX24Y24*%
%IPPOS*%
%LPD*%
%AMOC8*
5,1,8,0,0,1.08239X$1,22.5*
%
%ADD10C,0.0780*%
%ADD11C,0.1240*%
%ADD12C,0.0690*%
%ADD13R,0.0690X0.0690*%
%ADD14C,0.0555*%
%ADD15R,0.0555X0.0555*%
%ADD16C,0.0552*%
%ADD17R,0.0867X0.0867*%
%ADD18C,0.0867*%
%ADD19OC8,0.0780*%
%ADD20R,0.0594X0.0594*%
%ADD21C,0.0594*%
%ADD22R,0.0437X0.0437*%
%ADD23OC8,0.0317*%
%ADD24R,0.0317X0.0317*%
D10*
X000824Y010708D03*
X001824Y010608D03*
X002824Y010708D03*
X003824Y010608D03*
X004824Y010708D03*
X005824Y010608D03*
X018389Y019480D03*
X018389Y020620D03*
D11*
X030899Y020924D03*
X030899Y005176D03*
X001765Y005176D03*
X001765Y020924D03*
D12*
X019993Y017497D03*
X023223Y021320D03*
X031292Y011408D03*
X028576Y005203D03*
D13*
X028576Y004203D03*
X031292Y012408D03*
X023223Y019320D03*
X019993Y016497D03*
D14*
X011804Y018109D03*
X011017Y018109D03*
X007572Y018089D03*
X006785Y018089D03*
X011174Y021219D03*
X007838Y021317D03*
X007050Y021317D03*
X006263Y021317D03*
X005475Y021317D03*
D15*
X008625Y021317D03*
X011962Y021219D03*
X010229Y018109D03*
X005997Y018089D03*
D16*
X008359Y018837D03*
X010387Y020471D03*
X012592Y018857D03*
X004688Y020569D03*
D17*
X024462Y013621D03*
X026676Y021632D03*
D18*
X028330Y021632D03*
X028330Y019467D03*
X026676Y019467D03*
X026115Y013621D03*
X027769Y013621D03*
X027769Y011849D03*
X026115Y011849D03*
X024462Y011849D03*
D19*
X012755Y005124D03*
X011755Y005124D03*
X010755Y005124D03*
X010755Y004124D03*
X011755Y004124D03*
X012755Y004124D03*
D20*
X001678Y013304D03*
D21*
X002678Y013304D03*
X002678Y014304D03*
X001678Y014304D03*
X001678Y015304D03*
X002678Y015304D03*
X002678Y016304D03*
X001678Y016304D03*
X001678Y017304D03*
X002678Y017304D03*
D22*
X022092Y017357D03*
X022592Y017357D03*
X023092Y017357D03*
X023092Y016857D03*
X022592Y016857D03*
X022592Y016357D03*
X023092Y016357D03*
X022092Y016357D03*
X022092Y016857D03*
X025517Y016857D03*
X026017Y016857D03*
X026017Y017357D03*
X025517Y017357D03*
X026517Y017357D03*
X026517Y016857D03*
X026517Y016357D03*
X026017Y016357D03*
X025517Y016357D03*
X029139Y016357D03*
X029639Y016357D03*
X029639Y016857D03*
X029139Y016857D03*
X029139Y017357D03*
X029639Y017357D03*
X030139Y017357D03*
X030139Y016857D03*
X030139Y016357D03*
X030139Y009995D03*
X029639Y009995D03*
X029139Y009995D03*
X029139Y009495D03*
X029639Y009495D03*
X030139Y009495D03*
X030139Y008995D03*
X029639Y008995D03*
X029139Y008995D03*
X026517Y008995D03*
X026517Y009495D03*
X026517Y009995D03*
X026017Y009995D03*
X025517Y009995D03*
X025517Y009495D03*
X026017Y009495D03*
X026017Y008995D03*
X025517Y008995D03*
X023092Y008995D03*
X022592Y008995D03*
X022592Y009495D03*
X023092Y009495D03*
X023092Y009995D03*
X022592Y009995D03*
X022092Y009995D03*
X022092Y009495D03*
X022092Y008995D03*
D23*
X020731Y009497D03*
X020170Y009487D03*
X019521Y009349D03*
X019718Y006908D03*
X020190Y006908D03*
X020781Y005491D03*
X020781Y005097D03*
X020781Y004723D03*
X020781Y004329D03*
X024363Y006042D03*
X024363Y006790D03*
X027340Y004947D03*
X027907Y006199D03*
X028143Y006672D03*
X028143Y007223D03*
X010544Y008207D03*
X010377Y008670D03*
X010082Y008670D03*
X010082Y008975D03*
X010377Y008975D03*
X008635Y010018D03*
X006981Y007567D03*
X006588Y007567D03*
D24*
X003536Y004231D03*
X004257Y004223D03*
X004733Y004920D03*
X004733Y005345D03*
X004875Y005845D03*
X004777Y006278D03*
X005694Y005617D03*
X006076Y005861D03*
X006450Y006081D03*
X006804Y006239D03*
X007277Y006042D03*
X005300Y005329D03*
X003312Y005601D03*
X003320Y006317D03*
X004725Y007743D03*
X004729Y008124D03*
X003399Y008030D03*
X004245Y009723D03*
X005328Y011278D03*
X006529Y011278D03*
X006509Y012459D03*
X005544Y012459D03*
X004599Y012459D03*
X006458Y014306D03*
X008143Y014349D03*
X008615Y014349D03*
X009048Y014349D03*
X010214Y013593D03*
X011210Y013735D03*
X011954Y013542D03*
X011509Y012439D03*
X011509Y011731D03*
X013202Y011160D03*
X013517Y011160D03*
X013812Y010254D03*
X014403Y010195D03*
X015387Y009664D03*
X016174Y009664D03*
X016174Y008876D03*
X015387Y008876D03*
X015544Y008089D03*
X015859Y008089D03*
X016174Y008089D03*
X016174Y007774D03*
X015859Y007774D03*
X015544Y007774D03*
X015544Y007459D03*
X015544Y007144D03*
X015859Y007144D03*
X015859Y007459D03*
X016174Y007459D03*
X016174Y007144D03*
X016174Y006829D03*
X015859Y006829D03*
X015544Y006829D03*
X015387Y006121D03*
X016174Y006121D03*
X016174Y005333D03*
X015387Y005333D03*
X015190Y003916D03*
X014718Y003916D03*
X014245Y003916D03*
X013536Y004644D03*
X013418Y005707D03*
X011617Y006032D03*
X011302Y006032D03*
X010249Y005983D03*
X009846Y005983D03*
X009757Y005215D03*
X008773Y004565D03*
X008182Y003995D03*
X006922Y009369D03*
X009029Y011613D03*
X009029Y012065D03*
X009666Y011735D03*
X009670Y012447D03*
X014871Y016176D03*
X014767Y017439D03*
X015161Y017439D03*
X015161Y017833D03*
X014767Y017833D03*
X014373Y017833D03*
X014373Y017439D03*
X016224Y017479D03*
X018340Y016770D03*
X021804Y014703D03*
X021804Y014428D03*
X022080Y014428D03*
X022080Y014703D03*
X022355Y014703D03*
X022355Y014428D03*
X022631Y014428D03*
X022631Y014703D03*
X022907Y014703D03*
X022907Y014428D03*
X022848Y015510D03*
X024639Y015510D03*
X025131Y014743D03*
X025407Y014743D03*
X025682Y014743D03*
X025958Y014743D03*
X026233Y014743D03*
X026233Y014467D03*
X025958Y014467D03*
X025682Y014467D03*
X025407Y014467D03*
X025131Y014467D03*
X026273Y015530D03*
X028162Y015530D03*
X028753Y014841D03*
X028753Y014565D03*
X029029Y014565D03*
X029304Y014565D03*
X029580Y014565D03*
X029855Y014565D03*
X029855Y014841D03*
X029580Y014841D03*
X029304Y014841D03*
X029029Y014841D03*
X027828Y016869D03*
X027828Y017735D03*
X024324Y017715D03*
X024304Y016869D03*
X019117Y020412D03*
X019117Y020707D03*
X019107Y021613D03*
X020151Y021770D03*
X015239Y020353D03*
X003930Y022223D03*
X003340Y022223D03*
X003694Y019979D03*
X000584Y009821D03*
X000505Y006317D03*
X015662Y003916D03*
X016135Y003916D03*
X016607Y003916D03*
X017277Y004743D03*
X017749Y004743D03*
X017277Y005058D03*
X018379Y004310D03*
X018379Y003916D03*
X021765Y004664D03*
X022040Y004664D03*
X022040Y004939D03*
X021765Y004939D03*
X021765Y005215D03*
X022040Y005215D03*
X022040Y005491D03*
X021765Y005491D03*
X022316Y005491D03*
X022592Y005491D03*
X022867Y005491D03*
X022867Y005215D03*
X022592Y005215D03*
X022592Y004939D03*
X022592Y004664D03*
X022867Y004664D03*
X022867Y004939D03*
X022316Y004939D03*
X022316Y004664D03*
X022316Y005215D03*
X025190Y005254D03*
X025190Y004979D03*
X025466Y004979D03*
X025741Y004979D03*
X025741Y005254D03*
X025466Y005254D03*
X026017Y005254D03*
X026017Y004979D03*
X026292Y004979D03*
X026292Y005254D03*
X026292Y005530D03*
X026017Y005530D03*
X025741Y005530D03*
X025466Y005530D03*
X025190Y005530D03*
X025190Y004703D03*
X025466Y004703D03*
X025741Y004703D03*
X026017Y004703D03*
X026292Y004703D03*
X026273Y008168D03*
X027808Y009664D03*
X024304Y009664D03*
X022848Y008128D03*
X020269Y007577D03*
X018320Y009841D03*
X031804Y007617D03*
X031814Y007036D03*
M02*
