%
M48
M72
T01C0.0197
T02C0.0236
T03C0.0276
T04C0.0400
T05C0.0512
T06C0.0810
T07C0.1200
%
T01
X17487Y6806
X17987Y6806
X18487Y6806
X18987Y6806
X19487Y6806
X19487Y7306
X18987Y7306
X18487Y7306
X17987Y7306
X17487Y7306
X17487Y7806
X17987Y7806
X18487Y7806
X18987Y7806
X19487Y7806
X26562Y8495
X27062Y8495
X27562Y8495
X27562Y8995
X27062Y8995
X26562Y8995
X26562Y9495
X27062Y9495
X27562Y9495
X28708Y10074
X29208Y10074
X29708Y10074
X29708Y10574
X29208Y10574
X28708Y10574
X28708Y11074
X29208Y11074
X29708Y11074
X32708Y12279
X33208Y12279
X33708Y12279
X33708Y12779
X33208Y12779
X32708Y12779
X32708Y13279
X33208Y13279
X33708Y13279
X29708Y6586
X29208Y6586
X28708Y6586
X28708Y6086
X29208Y6086
X29708Y6086
X29708Y5586
X29208Y5586
X28708Y5586
X27562Y5479
X27062Y5479
X26562Y5479
X26562Y5979
X27062Y5979
X27562Y5979
X27562Y6479
X27062Y6479
X26562Y6479
X31042Y4381
X31542Y4381
X32042Y4381
X32042Y3881
X31542Y3881
X31042Y3881
X31042Y3381
X31542Y3381
X32042Y3381
T02
X31503Y2511
X31676Y1361
X31282Y1361
X30889Y1361
X30495Y1361
X30101Y1361
X29708Y1361
X29314Y1361
X29314Y968
X29708Y968
X30101Y968
X30495Y968
X30889Y968
X31282Y968
X31676Y968
X29160Y2345
X27432Y1735
X26963Y1735
X26479Y1991
X25302Y1991
X22058Y1700
X22109Y968
X20074Y1727
X19298Y1239
X18487Y1204
X17180Y1684
X16456Y1357
X17097Y2554
X19727Y2471
X20684Y3637
X20456Y4353
X22621Y4511
X23589Y3983
X24196Y4377
X26141Y4290
X26141Y3897
X26141Y3503
X22015Y5865
X23408Y6479
X23015Y6873
X22999Y7523
X21554Y7015
X20554Y6924
X20208Y6515
X20649Y7873
X22239Y8519
X22219Y9097
X22030Y9865
X21637Y10259
X20412Y11282
X21704Y12019
X21046Y12779
X22227Y12838
X23015Y14353
X18231Y14731
X17786Y14944
X17326Y14731
X16046Y14842
X16046Y15436
X14558Y14901
X13582Y14058
X12038Y13216
X11337Y13302
X11400Y12227
X9861Y11483
X10219Y11046
X10822Y11105
X9389Y10479
X7794Y10948
X6231Y11160
X5767Y10779
X4897Y11491
X3172Y11873
X2385Y11873
X3822Y12660
X6373Y9928
X5802Y9822
X5337Y9605
X5397Y7842
X4286Y7377
X4778Y7070
X5810Y7034
X6924Y7605
X7070Y7109
X7070Y6322
X6881Y5656
X6822Y5027
X7641Y5046
X8160Y5054
X9936Y5117
X11204Y4905
X12058Y5538
X11503Y6523
X12188Y8290
X13432Y8645
X10562Y8822
X9826Y8684
X9814Y9259
X16117Y9861
X18011Y10755
X18507Y11212
X18771Y10176
X19176Y9444
X16519Y7999
X16519Y7109
X16889Y6688
X16361Y6412
X15054Y6180
X17463Y5184
X16149Y4586
X11991Y3723
X11999Y3145
X11956Y2420
X5432Y3247
X3330Y2523
X2149Y3330
X5692Y5298
X1960Y6865
X3471Y7038
X14550Y12621
X14944Y13070
X15928Y13960
X23802Y10416
X25696Y9771
X28479Y8952
X28873Y8952
X29267Y8952
X29660Y8952
X29660Y8558
X29267Y8558
X29267Y8164
X29660Y8164
X29660Y7771
X29267Y7771
X28873Y7771
X28479Y7771
X28479Y8164
X28873Y8164
X28873Y8558
X28479Y8558
X25771Y7660
X31589Y6834
X31637Y6208
X32030Y6208
X32424Y6208
X32818Y6208
X32818Y5814
X32424Y5814
X32030Y5814
X31637Y5814
X31637Y5420
X32030Y5420
X32424Y5420
X32818Y5420
X32818Y9948
X32424Y9948
X32030Y9948
X31637Y9948
X31637Y10342
X32030Y10342
X32424Y10342
X32818Y10342
X32818Y10735
X32424Y10735
X32030Y10735
X31637Y10735
X31471Y11393
X31956Y11393
X27739Y12385
X27739Y12779
X27739Y13172
X30570Y14153
T03
X24017Y14372
X24017Y12372
T04
X15078Y15574
X14078Y15574
X13078Y15574
X12078Y15574
X11078Y15574
X10078Y15574
X8782Y15574
X7782Y15574
X6782Y15574
X5782Y15574
X4782Y15574
X3782Y15574
X1214Y12735
X1114Y11735
X1214Y10735
X1114Y9735
X1214Y8735
X1114Y7735
X1114Y5960
X1214Y4960
X1114Y3960
X3841Y1107
X4841Y1007
X5841Y1107
X6841Y1007
X7841Y1107
X8841Y1007
X10337Y1057
X11337Y957
X12337Y1057
X13337Y957
X14337Y1057
X15337Y957
T05
X34302Y6401
X34302Y8369
X34302Y10338
T06
X30904Y15456
X28904Y15456
X25786Y1125
X23786Y1125
T07
X1755Y1755
X1637Y15023
X33841Y1755
X33960Y15023
M30
