G75*
G70*
%OFA0B0*%
%FSLAX24Y24*%
%IPPOS*%
%LPD*%
%AMOC8*
5,1,8,0,0,1.08239X$1,22.5*
%
%ADD10C,0.0020*%
%ADD11C,0.0100*%
%ADD12C,0.0060*%
%ADD13C,0.0040*%
%ADD14C,0.0080*%
%ADD15C,0.0000*%
%ADD16C,0.0030*%
%ADD17C,0.0050*%
%ADD18C,0.0197*%
%ADD19C,0.0010*%
D10*
X003721Y001723D02*
X003758Y001686D01*
X003832Y001686D01*
X003868Y001723D01*
X003942Y001796D02*
X004089Y001796D01*
X004016Y001870D02*
X004016Y001723D01*
X003868Y001870D02*
X003832Y001906D01*
X003758Y001906D01*
X003721Y001870D01*
X003721Y001723D01*
X004753Y001723D02*
X004790Y001686D01*
X004863Y001686D01*
X004900Y001723D01*
X004974Y001796D02*
X005121Y001796D01*
X004900Y001870D02*
X004863Y001906D01*
X004790Y001906D01*
X004753Y001870D01*
X004753Y001723D01*
X005741Y001686D02*
X005851Y001686D01*
X005888Y001723D01*
X005888Y001760D01*
X005851Y001796D01*
X005741Y001796D01*
X005741Y001686D02*
X005741Y001906D01*
X005851Y001906D01*
X005888Y001870D01*
X005888Y001833D01*
X005851Y001796D01*
X005962Y001796D02*
X006109Y001796D01*
X006702Y001796D02*
X006812Y001796D01*
X006849Y001760D01*
X006849Y001723D01*
X006812Y001686D01*
X006702Y001686D01*
X006702Y001906D01*
X006812Y001906D01*
X006849Y001870D01*
X006849Y001833D01*
X006812Y001796D01*
X006923Y001796D02*
X007070Y001796D01*
X006996Y001723D02*
X006996Y001870D01*
X007749Y001833D02*
X007749Y001686D01*
X007749Y001796D02*
X007896Y001796D01*
X007896Y001833D02*
X007896Y001686D01*
X007970Y001796D02*
X008117Y001796D01*
X008043Y001723D02*
X008043Y001870D01*
X007896Y001833D02*
X007822Y001906D01*
X007749Y001833D01*
X008737Y001833D02*
X008737Y001686D01*
X008737Y001796D02*
X008884Y001796D01*
X008884Y001833D02*
X008884Y001686D01*
X008958Y001796D02*
X009105Y001796D01*
X008884Y001833D02*
X008811Y001906D01*
X008737Y001833D01*
X010194Y001796D02*
X010267Y001833D01*
X010304Y001833D01*
X010341Y001796D01*
X010341Y001723D01*
X010304Y001686D01*
X010231Y001686D01*
X010194Y001723D01*
X010194Y001796D02*
X010194Y001906D01*
X010341Y001906D01*
X010415Y001833D02*
X010488Y001686D01*
X010562Y001833D01*
X015151Y001802D02*
X015187Y001765D01*
X015261Y001765D01*
X015297Y001802D01*
X015297Y001838D01*
X015261Y001875D01*
X015224Y001875D01*
X015261Y001875D02*
X015297Y001912D01*
X015297Y001948D01*
X015261Y001985D01*
X015187Y001985D01*
X015151Y001948D01*
X015372Y001802D02*
X015408Y001802D01*
X015408Y001765D01*
X015372Y001765D01*
X015372Y001802D01*
X015482Y001802D02*
X015519Y001765D01*
X015592Y001765D01*
X015629Y001802D01*
X015629Y001838D01*
X015592Y001875D01*
X015556Y001875D01*
X015592Y001875D02*
X015629Y001912D01*
X015629Y001948D01*
X015592Y001985D01*
X015519Y001985D01*
X015482Y001948D01*
X015703Y001912D02*
X015776Y001765D01*
X015850Y001912D01*
X019612Y002891D02*
X019649Y002854D01*
X019796Y002854D01*
X019832Y002891D01*
X019832Y002964D01*
X019796Y003001D01*
X019832Y003075D02*
X019832Y003222D01*
X019832Y003148D02*
X019612Y003148D01*
X019686Y003075D01*
X019649Y003001D02*
X019612Y002964D01*
X019612Y002891D01*
X019722Y003296D02*
X019722Y003406D01*
X019759Y003443D01*
X019796Y003443D01*
X019832Y003406D01*
X019832Y003333D01*
X019796Y003296D01*
X019722Y003296D01*
X019649Y003369D01*
X019612Y003443D01*
X022421Y001937D02*
X022421Y001790D01*
X022457Y001753D01*
X022531Y001753D01*
X022568Y001790D01*
X022568Y001863D01*
X022494Y001863D01*
X022421Y001937D02*
X022457Y001973D01*
X022531Y001973D01*
X022568Y001937D01*
X022642Y001973D02*
X022789Y001753D01*
X022789Y001973D01*
X022863Y001973D02*
X022973Y001973D01*
X023010Y001937D01*
X023010Y001790D01*
X022973Y001753D01*
X022863Y001753D01*
X022863Y001973D01*
X022642Y001973D02*
X022642Y001753D01*
X024836Y003021D02*
X025056Y003168D01*
X024836Y003168D01*
X024872Y003242D02*
X025019Y003242D01*
X025056Y003279D01*
X025056Y003352D01*
X025019Y003389D01*
X024872Y003389D01*
X024836Y003352D01*
X024836Y003279D01*
X024872Y003242D01*
X024836Y003021D02*
X025056Y003021D01*
X025019Y003684D02*
X025056Y003720D01*
X025056Y003794D01*
X025019Y003831D01*
X024982Y003831D01*
X024946Y003794D01*
X024946Y003720D01*
X024909Y003684D01*
X024872Y003684D01*
X024836Y003720D01*
X024836Y003794D01*
X024872Y003831D01*
X024836Y003905D02*
X025056Y003905D01*
X025056Y004052D01*
X025056Y004126D02*
X024836Y004126D01*
X025056Y004273D01*
X024836Y004273D01*
X024872Y004347D02*
X024909Y004347D01*
X024946Y004383D01*
X024946Y004457D01*
X024982Y004494D01*
X025019Y004494D01*
X025056Y004457D01*
X025056Y004383D01*
X025019Y004347D01*
X024872Y004347D02*
X024836Y004383D01*
X024836Y004457D01*
X024872Y004494D01*
X024836Y004568D02*
X024836Y004641D01*
X024836Y004604D02*
X025056Y004604D01*
X025056Y004568D02*
X025056Y004641D01*
X025056Y004788D02*
X024836Y004788D01*
X024836Y004715D02*
X024836Y004862D01*
X024836Y004936D02*
X024836Y005009D01*
X024836Y004973D02*
X025056Y004973D01*
X025056Y005009D02*
X025056Y004936D01*
X024982Y005083D02*
X024836Y005083D01*
X024982Y005083D02*
X025056Y005157D01*
X024982Y005230D01*
X024836Y005230D01*
X024836Y005304D02*
X025056Y005304D01*
X025056Y005451D01*
X024946Y005378D02*
X024946Y005304D01*
X024836Y005304D02*
X024836Y005451D01*
X024872Y005746D02*
X025019Y005746D01*
X025056Y005783D01*
X025056Y005856D01*
X025019Y005893D01*
X025019Y005967D02*
X025056Y006004D01*
X025056Y006077D01*
X025019Y006114D01*
X024872Y006114D01*
X024836Y006077D01*
X024836Y006004D01*
X024872Y005967D01*
X025019Y005967D01*
X024872Y005893D02*
X024836Y005856D01*
X024836Y005783D01*
X024872Y005746D01*
X024836Y006188D02*
X024909Y006262D01*
X024836Y006335D01*
X025056Y006335D01*
X025056Y006409D02*
X024836Y006409D01*
X024836Y006519D01*
X024872Y006556D01*
X024946Y006556D01*
X024982Y006519D01*
X024982Y006409D01*
X025019Y006630D02*
X024872Y006630D01*
X024836Y006667D01*
X024836Y006740D01*
X024872Y006777D01*
X025019Y006777D01*
X025056Y006740D01*
X025056Y006667D01*
X025019Y006630D01*
X025056Y006851D02*
X024836Y006851D01*
X025056Y006998D01*
X024836Y006998D01*
X024836Y007072D02*
X025056Y007072D01*
X025056Y007219D01*
X025056Y007293D02*
X024836Y007293D01*
X025056Y007440D01*
X024836Y007440D01*
X024836Y007514D02*
X024836Y007661D01*
X024836Y007588D02*
X025056Y007588D01*
X025019Y007735D02*
X025056Y007772D01*
X025056Y007845D01*
X025019Y007882D01*
X024982Y007882D01*
X024946Y007845D01*
X024946Y007772D01*
X024909Y007735D01*
X024872Y007735D01*
X024836Y007772D01*
X024836Y007845D01*
X024872Y007882D01*
X024909Y008177D02*
X024836Y008251D01*
X024909Y008324D01*
X025056Y008324D01*
X025056Y008398D02*
X024836Y008398D01*
X024836Y008508D01*
X024872Y008545D01*
X024909Y008545D01*
X024946Y008508D01*
X024946Y008398D01*
X024946Y008324D02*
X024946Y008177D01*
X024909Y008177D02*
X025056Y008177D01*
X025056Y008398D02*
X025056Y008508D01*
X025019Y008545D01*
X024982Y008545D01*
X024946Y008508D01*
X025019Y008619D02*
X025056Y008656D01*
X025056Y008729D01*
X025019Y008766D01*
X024872Y008766D01*
X024836Y008729D01*
X024836Y008656D01*
X024872Y008619D01*
X025019Y008619D01*
X024982Y008840D02*
X024836Y008840D01*
X024982Y008840D02*
X025056Y008914D01*
X024982Y008987D01*
X024836Y008987D01*
X024836Y009061D02*
X025056Y009061D01*
X025056Y009208D01*
X024946Y009135D02*
X024946Y009061D01*
X024836Y009061D02*
X024836Y009208D01*
X024836Y007219D02*
X024836Y007072D01*
X024946Y007072D02*
X024946Y007146D01*
X025056Y006188D02*
X024836Y006188D01*
X025963Y004861D02*
X026073Y004861D01*
X026109Y004824D01*
X026109Y004751D01*
X026073Y004714D01*
X025963Y004714D01*
X026036Y004714D02*
X026109Y004641D01*
X026184Y004641D02*
X026184Y004678D01*
X026330Y004824D01*
X026330Y004861D01*
X026184Y004861D01*
X025963Y004861D02*
X025963Y004641D01*
X024836Y004052D02*
X024836Y003905D01*
X024946Y003905D02*
X024946Y003978D01*
X027533Y002407D02*
X027533Y002260D01*
X027607Y002186D01*
X027680Y002260D01*
X027680Y002407D01*
X027975Y002407D02*
X028049Y002407D01*
X028012Y002407D02*
X028012Y002186D01*
X027975Y002186D02*
X028049Y002186D01*
X028123Y002186D02*
X028123Y002407D01*
X028269Y002186D01*
X028269Y002407D01*
X028870Y002216D02*
X028870Y002069D01*
X028943Y002143D02*
X028796Y002143D01*
X027901Y002150D02*
X027754Y002150D01*
X032670Y004757D02*
X032670Y004977D01*
X032744Y004904D01*
X032817Y004977D01*
X032817Y004757D01*
X032891Y004794D02*
X032891Y004867D01*
X032928Y004904D01*
X033001Y004904D01*
X033038Y004867D01*
X033038Y004794D01*
X033001Y004757D01*
X032928Y004757D01*
X032891Y004794D01*
X033112Y004904D02*
X033186Y004904D01*
X033149Y004941D02*
X033149Y004794D01*
X033186Y004757D01*
X033260Y004794D02*
X033260Y004867D01*
X033296Y004904D01*
X033370Y004904D01*
X033406Y004867D01*
X033406Y004794D01*
X033370Y004757D01*
X033296Y004757D01*
X033260Y004794D01*
X033481Y004830D02*
X033554Y004904D01*
X033591Y004904D01*
X033665Y004904D02*
X033665Y004867D01*
X033701Y004867D01*
X033701Y004904D01*
X033665Y004904D01*
X033665Y004794D02*
X033665Y004757D01*
X033701Y004757D01*
X033701Y004794D01*
X033665Y004794D01*
X033481Y004757D02*
X033481Y004904D01*
X034217Y004977D02*
X034217Y004757D01*
X034291Y004830D01*
X034364Y004757D01*
X034364Y004977D01*
X034880Y004977D02*
X034880Y004830D01*
X034954Y004757D01*
X035027Y004830D01*
X035027Y004977D01*
X035543Y004977D02*
X035543Y004794D01*
X035580Y004757D01*
X035653Y004757D01*
X035690Y004794D01*
X035690Y004977D01*
X023412Y013170D02*
X023376Y013134D01*
X023229Y013134D01*
X023192Y013170D01*
X023192Y013244D01*
X023229Y013280D01*
X023229Y013355D02*
X023192Y013391D01*
X023192Y013465D01*
X023229Y013501D01*
X023266Y013501D01*
X023412Y013355D01*
X023412Y013501D01*
X023412Y013576D02*
X023376Y013576D01*
X023229Y013722D01*
X023192Y013722D01*
X023192Y013576D01*
X023376Y013280D02*
X023412Y013244D01*
X023412Y013170D01*
X027608Y013558D02*
X027608Y013778D01*
X027718Y013778D01*
X027755Y013742D01*
X027755Y013668D01*
X027718Y013632D01*
X027608Y013632D01*
X027682Y013632D02*
X027755Y013558D01*
X027829Y013668D02*
X027976Y013668D01*
X027939Y013558D02*
X027939Y013778D01*
X027829Y013668D01*
X029002Y014189D02*
X029076Y014115D01*
X029149Y014189D01*
X029149Y014336D01*
X029002Y014336D02*
X029002Y014189D01*
X029223Y014079D02*
X029370Y014079D01*
X029444Y014152D02*
X029481Y014115D01*
X029554Y014115D01*
X029591Y014152D01*
X029591Y014299D01*
X029554Y014336D01*
X029481Y014336D01*
X029444Y014299D01*
X029444Y014152D01*
X029665Y014152D02*
X029702Y014115D01*
X029775Y014115D01*
X029812Y014152D01*
X029812Y014336D01*
X029886Y014336D02*
X030033Y014336D01*
X029960Y014336D02*
X029960Y014115D01*
X029665Y014152D02*
X029665Y014336D01*
X031288Y015442D02*
X031435Y015442D01*
X031362Y015515D02*
X031362Y015369D01*
X027729Y015384D02*
X027729Y015494D01*
X027692Y015531D01*
X027546Y015531D01*
X027509Y015494D01*
X027509Y015384D01*
X027729Y015384D01*
X027729Y015310D02*
X027509Y015310D01*
X027509Y015163D02*
X027729Y015310D01*
X027729Y015163D02*
X027509Y015163D01*
X027546Y015089D02*
X027509Y015052D01*
X027509Y014979D01*
X027546Y014942D01*
X027692Y014942D01*
X027729Y014979D01*
X027729Y015052D01*
X027692Y015089D01*
X027619Y015089D01*
X027619Y015015D01*
X020672Y015893D02*
X020635Y015857D01*
X020562Y015857D01*
X020525Y015893D01*
X020525Y015930D01*
X020562Y015967D01*
X020635Y015967D01*
X020672Y015930D01*
X020672Y015893D01*
X020635Y015967D02*
X020672Y016003D01*
X020672Y016040D01*
X020635Y016077D01*
X020562Y016077D01*
X020525Y016040D01*
X020525Y016003D01*
X020562Y015967D01*
X020451Y016040D02*
X020414Y016077D01*
X020341Y016077D01*
X020304Y016040D01*
X020304Y015893D01*
X020341Y015857D01*
X020414Y015857D01*
X020451Y015893D01*
X016333Y015627D02*
X016187Y015627D01*
X016260Y015627D02*
X016260Y015847D01*
X016187Y015774D01*
X016112Y015627D02*
X015966Y015627D01*
X015966Y015847D01*
X015224Y014835D02*
X015077Y014835D01*
X015040Y014798D01*
X015040Y014688D01*
X015261Y014688D01*
X015261Y014798D01*
X015224Y014835D01*
X015224Y014614D02*
X015077Y014614D01*
X015040Y014577D01*
X015040Y014467D01*
X015261Y014467D01*
X015261Y014577D01*
X015224Y014614D01*
X015187Y014393D02*
X015040Y014393D01*
X015187Y014393D02*
X015261Y014319D01*
X015187Y014246D01*
X015040Y014246D01*
X015077Y014172D02*
X015150Y014172D01*
X015187Y014135D01*
X015187Y014025D01*
X015261Y014025D02*
X015040Y014025D01*
X015040Y014135D01*
X015077Y014172D01*
X011080Y013224D02*
X011080Y013188D01*
X011080Y013114D02*
X011080Y012967D01*
X011043Y012967D02*
X011117Y012967D01*
X011080Y013114D02*
X011043Y013114D01*
X010969Y013114D02*
X010896Y012967D01*
X010822Y013114D01*
X010748Y013078D02*
X010711Y013114D01*
X010638Y013114D01*
X010601Y013078D01*
X010601Y013004D01*
X010638Y012967D01*
X010711Y012967D01*
X010748Y013004D01*
X010748Y013078D01*
X010527Y013078D02*
X010527Y012967D01*
X010527Y013078D02*
X010490Y013114D01*
X010380Y013114D01*
X010380Y012967D01*
X010306Y012967D02*
X010196Y012967D01*
X010159Y013004D01*
X010196Y013041D01*
X010306Y013041D01*
X010306Y013078D02*
X010306Y012967D01*
X010306Y013078D02*
X010269Y013114D01*
X010196Y013114D01*
X010085Y013188D02*
X010085Y012967D01*
X009938Y012967D02*
X009938Y013188D01*
X010012Y013114D01*
X010085Y013188D01*
X009643Y013078D02*
X009607Y013114D01*
X009533Y013114D01*
X009496Y013078D01*
X009496Y013004D01*
X009533Y012967D01*
X009607Y012967D01*
X009643Y013004D01*
X009643Y013078D01*
X009423Y012967D02*
X009349Y012967D01*
X009386Y012967D02*
X009386Y013188D01*
X009349Y013188D01*
X009275Y013254D02*
X009275Y013474D01*
X009386Y013474D01*
X009422Y013438D01*
X009422Y013364D01*
X009386Y013327D01*
X009275Y013327D01*
X009201Y013327D02*
X009201Y013438D01*
X009165Y013474D01*
X009128Y013438D01*
X009128Y013327D01*
X009054Y013327D02*
X009054Y013474D01*
X009091Y013474D01*
X009128Y013438D01*
X008980Y013438D02*
X008833Y013438D01*
X008833Y013474D02*
X008907Y013548D01*
X008980Y013474D01*
X008980Y013327D01*
X008833Y013327D02*
X008833Y013474D01*
X008796Y013188D02*
X008833Y013151D01*
X008833Y013078D01*
X008796Y013041D01*
X008686Y013041D01*
X008686Y012967D02*
X008686Y013188D01*
X008796Y013188D01*
X008944Y013114D02*
X009017Y013114D01*
X009054Y013078D01*
X009054Y012967D01*
X008944Y012967D01*
X008907Y013004D01*
X008944Y013041D01*
X009054Y013041D01*
X009128Y013114D02*
X009202Y012967D01*
X009275Y013114D01*
X009496Y013327D02*
X009607Y013327D01*
X009643Y013364D01*
X009607Y013401D01*
X009533Y013401D01*
X009496Y013438D01*
X009533Y013474D01*
X009643Y013474D01*
X009570Y013687D02*
X009570Y013834D01*
X009570Y013761D02*
X009643Y013834D01*
X009680Y013834D01*
X009754Y013798D02*
X009791Y013834D01*
X009901Y013834D01*
X009901Y013908D02*
X009901Y013687D01*
X009791Y013687D01*
X009754Y013724D01*
X009754Y013798D01*
X009496Y013798D02*
X009459Y013834D01*
X009386Y013834D01*
X009386Y013761D02*
X009349Y013724D01*
X009386Y013687D01*
X009496Y013687D01*
X009496Y013798D01*
X009496Y013761D02*
X009386Y013761D01*
X009275Y013798D02*
X009238Y013834D01*
X009165Y013834D01*
X009128Y013798D01*
X009128Y013724D01*
X009165Y013687D01*
X009238Y013687D01*
X009275Y013724D01*
X009275Y013798D01*
X009054Y013834D02*
X009017Y013798D01*
X008907Y013798D01*
X008907Y013908D02*
X008907Y013687D01*
X009017Y013687D01*
X009054Y013724D01*
X009054Y013761D01*
X009017Y013798D01*
X009054Y013834D02*
X009054Y013871D01*
X009017Y013908D01*
X008907Y013908D01*
X008612Y013834D02*
X008575Y013834D01*
X008502Y013761D01*
X008502Y013834D02*
X008502Y013687D01*
X008428Y013761D02*
X008281Y013761D01*
X008281Y013798D02*
X008318Y013834D01*
X008391Y013834D01*
X008428Y013798D01*
X008428Y013761D01*
X008391Y013687D02*
X008318Y013687D01*
X008281Y013724D01*
X008281Y013798D01*
X008207Y013834D02*
X008133Y013687D01*
X008060Y013834D01*
X007949Y013834D02*
X007949Y013687D01*
X007913Y013687D02*
X007986Y013687D01*
X007949Y013834D02*
X007913Y013834D01*
X007839Y013834D02*
X007802Y013834D01*
X007729Y013761D01*
X007729Y013834D02*
X007729Y013687D01*
X007654Y013724D02*
X007654Y013871D01*
X007618Y013908D01*
X007508Y013908D01*
X007508Y013687D01*
X007618Y013687D01*
X007654Y013724D01*
X007654Y013548D02*
X007654Y013401D01*
X007581Y013327D01*
X007508Y013401D01*
X007508Y013548D01*
X007212Y013511D02*
X007066Y013364D01*
X007102Y013327D01*
X007176Y013327D01*
X007212Y013364D01*
X007212Y013511D01*
X007176Y013548D01*
X007102Y013548D01*
X007066Y013511D01*
X007066Y013364D01*
X006991Y013364D02*
X006955Y013327D01*
X006881Y013327D01*
X006845Y013364D01*
X006918Y013438D02*
X006955Y013438D01*
X006991Y013401D01*
X006991Y013364D01*
X006955Y013438D02*
X006991Y013474D01*
X006991Y013511D01*
X006955Y013548D01*
X006881Y013548D01*
X006845Y013511D01*
X006770Y013438D02*
X006624Y013438D01*
X006549Y013401D02*
X006513Y013438D01*
X006403Y013438D01*
X006403Y013364D01*
X006439Y013327D01*
X006513Y013327D01*
X006549Y013364D01*
X006549Y013401D01*
X006476Y013511D02*
X006403Y013438D01*
X006476Y013511D02*
X006549Y013548D01*
X006624Y013687D02*
X006624Y013908D01*
X006697Y013834D01*
X006770Y013908D01*
X006770Y013687D01*
X006845Y013724D02*
X006881Y013687D01*
X006955Y013687D01*
X006991Y013724D01*
X006991Y013761D01*
X006955Y013798D01*
X006881Y013798D01*
X006845Y013834D01*
X006845Y013871D01*
X006881Y013908D01*
X006955Y013908D01*
X006991Y013871D01*
X007066Y013908D02*
X007139Y013834D01*
X007212Y013908D01*
X007212Y013687D01*
X007066Y013687D02*
X007066Y013908D01*
X006549Y013871D02*
X006549Y013798D01*
X006513Y013761D01*
X006403Y013761D01*
X006403Y013687D02*
X006403Y013908D01*
X006513Y013908D01*
X006549Y013871D01*
X006587Y013188D02*
X006550Y013151D01*
X006550Y013004D01*
X006587Y012967D01*
X006660Y012967D01*
X006697Y013004D01*
X006771Y012967D02*
X006844Y013041D01*
X006844Y013114D01*
X006771Y013188D01*
X006697Y013151D02*
X006660Y013188D01*
X006587Y013188D01*
X006476Y013188D02*
X006403Y013114D01*
X006403Y013041D01*
X006476Y012967D01*
X006403Y012828D02*
X006403Y012607D01*
X006403Y012718D02*
X006439Y012754D01*
X006513Y012754D01*
X006549Y012718D01*
X006549Y012607D01*
X006660Y012644D02*
X006697Y012607D01*
X006660Y012644D02*
X006660Y012791D01*
X006624Y012754D02*
X006697Y012754D01*
X006771Y012754D02*
X006844Y012754D01*
X006808Y012791D02*
X006808Y012644D01*
X006844Y012607D01*
X006918Y012607D02*
X007028Y012607D01*
X007065Y012644D01*
X007065Y012718D01*
X007028Y012754D01*
X006918Y012754D01*
X006918Y012534D01*
X007139Y012607D02*
X007139Y012644D01*
X007176Y012644D01*
X007176Y012607D01*
X007139Y012607D01*
X007139Y012718D02*
X007139Y012754D01*
X007176Y012754D01*
X007176Y012718D01*
X007139Y012718D01*
X007250Y012607D02*
X007397Y012828D01*
X007617Y012828D02*
X007471Y012607D01*
X007692Y012607D02*
X007802Y012607D01*
X007838Y012644D01*
X007838Y012718D01*
X007802Y012754D01*
X007692Y012754D01*
X007692Y012534D01*
X007913Y012644D02*
X007949Y012681D01*
X008059Y012681D01*
X008059Y012718D02*
X008059Y012607D01*
X007949Y012607D01*
X007913Y012644D01*
X007949Y012754D02*
X008023Y012754D01*
X008059Y012718D01*
X008134Y012754D02*
X008207Y012607D01*
X008280Y012754D01*
X008355Y012828D02*
X008391Y012828D01*
X008391Y012607D01*
X008355Y012607D02*
X008428Y012607D01*
X008502Y012644D02*
X008539Y012607D01*
X008612Y012607D01*
X008649Y012644D01*
X008649Y012718D01*
X008612Y012754D01*
X008539Y012754D01*
X008502Y012718D01*
X008502Y012644D01*
X008723Y012644D02*
X008760Y012644D01*
X008760Y012607D01*
X008723Y012607D01*
X008723Y012644D01*
X008833Y012607D02*
X008833Y012754D01*
X008870Y012754D01*
X008907Y012718D01*
X008944Y012754D01*
X008980Y012718D01*
X008980Y012607D01*
X008907Y012607D02*
X008907Y012718D01*
X009054Y012718D02*
X009054Y012644D01*
X009091Y012607D01*
X009165Y012607D01*
X009201Y012681D02*
X009054Y012681D01*
X009054Y012718D02*
X009091Y012754D01*
X009165Y012754D01*
X009201Y012718D01*
X009201Y012681D01*
X008391Y013004D02*
X008354Y012967D01*
X008281Y012967D01*
X008244Y013004D01*
X008170Y012967D02*
X008023Y012967D01*
X008097Y012967D02*
X008097Y013188D01*
X008023Y013114D01*
X007949Y013151D02*
X007802Y013004D01*
X007839Y012967D01*
X007912Y012967D01*
X007949Y013004D01*
X007949Y013151D01*
X007912Y013188D01*
X007839Y013188D01*
X007802Y013151D01*
X007802Y013004D01*
X007728Y012967D02*
X007581Y012967D01*
X007728Y013114D01*
X007728Y013151D01*
X007691Y013188D01*
X007618Y013188D01*
X007581Y013151D01*
X007286Y013078D02*
X007139Y013078D01*
X008171Y013438D02*
X008281Y013548D01*
X008281Y013327D01*
X008317Y013438D02*
X008171Y013438D01*
X008391Y013511D02*
X008428Y013548D01*
X008502Y013548D01*
X008538Y013511D01*
X008391Y013364D01*
X008428Y013327D01*
X008502Y013327D01*
X008538Y013364D01*
X008538Y013511D01*
X008391Y013511D02*
X008391Y013364D01*
X008354Y013188D02*
X008281Y013188D01*
X008244Y013151D01*
X008318Y013078D02*
X008354Y013078D01*
X008391Y013041D01*
X008391Y013004D01*
X008354Y013078D02*
X008391Y013114D01*
X008391Y013151D01*
X008354Y013188D01*
X007949Y013908D02*
X007949Y013944D01*
X010196Y013834D02*
X010270Y013687D01*
X010343Y013834D01*
X010417Y013834D02*
X010491Y013908D01*
X010491Y013687D01*
X010564Y013687D02*
X010417Y013687D01*
X010638Y013687D02*
X010675Y013687D01*
X010675Y013724D01*
X010638Y013724D01*
X010638Y013687D01*
X010749Y013798D02*
X010895Y013798D01*
X010859Y013908D02*
X010859Y013687D01*
X010749Y013798D02*
X010859Y013908D01*
X015317Y011900D02*
X015354Y011900D01*
X015500Y011753D01*
X015537Y011753D01*
X015500Y011642D02*
X015317Y011642D01*
X015317Y011605D02*
X015317Y011679D01*
X015317Y011753D02*
X015317Y011900D01*
X015500Y011642D02*
X015537Y011605D01*
X015537Y011569D01*
X015500Y011532D01*
X015500Y011458D02*
X015537Y011421D01*
X015537Y011348D01*
X015500Y011311D01*
X015427Y011348D02*
X015390Y011311D01*
X015354Y011311D01*
X015317Y011348D01*
X015317Y011421D01*
X015354Y011458D01*
X015427Y011421D02*
X015464Y011458D01*
X015500Y011458D01*
X015427Y011421D02*
X015427Y011348D01*
X015468Y010971D02*
X015431Y010934D01*
X015431Y010824D01*
X015504Y010824D01*
X015541Y010861D01*
X015541Y010934D01*
X015504Y010971D01*
X015468Y010971D01*
X015358Y010897D02*
X015431Y010824D01*
X015358Y010897D02*
X015321Y010971D01*
X015321Y010750D02*
X015321Y010676D01*
X015321Y010713D02*
X015504Y010713D01*
X015541Y010676D01*
X015541Y010640D01*
X015504Y010603D01*
X015504Y010529D02*
X015541Y010492D01*
X015541Y010419D01*
X015504Y010382D01*
X015431Y010419D02*
X015431Y010492D01*
X015468Y010529D01*
X015504Y010529D01*
X015431Y010419D02*
X015394Y010382D01*
X015358Y010382D01*
X015321Y010419D01*
X015321Y010492D01*
X015358Y010529D01*
X015341Y010057D02*
X015341Y009910D01*
X015451Y009910D01*
X015414Y009984D01*
X015414Y010021D01*
X015451Y010057D01*
X015524Y010057D01*
X015561Y010021D01*
X015561Y009947D01*
X015524Y009910D01*
X015524Y009800D02*
X015341Y009800D01*
X015341Y009836D02*
X015341Y009763D01*
X015377Y009615D02*
X015341Y009579D01*
X015341Y009505D01*
X015377Y009468D01*
X015414Y009468D01*
X015451Y009505D01*
X015451Y009579D01*
X015487Y009615D01*
X015524Y009615D01*
X015561Y009579D01*
X015561Y009505D01*
X015524Y009468D01*
X015474Y009179D02*
X015474Y009033D01*
X015364Y009143D01*
X015584Y009143D01*
X015548Y008922D02*
X015364Y008922D01*
X015364Y008958D02*
X015364Y008885D01*
X015401Y008737D02*
X015364Y008701D01*
X015364Y008627D01*
X015401Y008591D01*
X015438Y008591D01*
X015474Y008627D01*
X015474Y008701D01*
X015511Y008737D01*
X015548Y008737D01*
X015584Y008701D01*
X015584Y008627D01*
X015548Y008591D01*
X015548Y008812D02*
X015584Y008848D01*
X015584Y008885D01*
X015548Y008922D01*
X015524Y009689D02*
X015561Y009726D01*
X015561Y009763D01*
X015524Y009800D01*
X013768Y005557D02*
X013621Y005557D01*
X013768Y005410D01*
X013805Y005447D01*
X013805Y005520D01*
X013768Y005557D01*
X013621Y005557D02*
X013585Y005520D01*
X013585Y005447D01*
X013621Y005410D01*
X013768Y005410D01*
X013805Y005336D02*
X013805Y005189D01*
X013658Y005336D01*
X013621Y005336D01*
X013585Y005299D01*
X013585Y005226D01*
X013621Y005189D01*
X013621Y005115D02*
X013585Y005078D01*
X013585Y005005D01*
X013621Y004968D01*
X013768Y004968D01*
X013805Y005005D01*
X013805Y005078D01*
X013768Y005115D01*
X003522Y004180D02*
X003522Y004143D01*
X003485Y004106D01*
X003412Y004106D01*
X003375Y004143D01*
X003375Y004180D01*
X003412Y004216D01*
X003485Y004216D01*
X003522Y004180D01*
X003485Y004106D02*
X003522Y004070D01*
X003522Y004033D01*
X003485Y003996D01*
X003412Y003996D01*
X003375Y004033D01*
X003375Y004070D01*
X003412Y004106D01*
X003301Y004216D02*
X003227Y004216D01*
X003264Y004216D02*
X003264Y004033D01*
X003227Y003996D01*
X003191Y003996D01*
X003154Y004033D01*
X003080Y004033D02*
X003043Y003996D01*
X002970Y003996D01*
X002933Y004033D01*
X002970Y004106D02*
X003043Y004106D01*
X003080Y004070D01*
X003080Y004033D01*
X002970Y004106D02*
X002933Y004143D01*
X002933Y004180D01*
X002970Y004216D01*
X003043Y004216D01*
X003080Y004180D01*
X002617Y004107D02*
X002617Y003887D01*
X002764Y003887D01*
X002543Y003850D02*
X002396Y003850D01*
X002322Y003887D02*
X002322Y004107D01*
X002175Y004107D02*
X002322Y003887D01*
X002175Y003887D02*
X002175Y004107D01*
X002101Y004034D02*
X002101Y003887D01*
X002101Y003997D02*
X001954Y003997D01*
X001954Y004034D02*
X001954Y003887D01*
X001880Y003924D02*
X001843Y003887D01*
X001770Y003887D01*
X001733Y003924D01*
X001733Y004070D01*
X001770Y004107D01*
X001843Y004107D01*
X001880Y004070D01*
X001954Y004034D02*
X002028Y004107D01*
X002101Y004034D01*
X001905Y004466D02*
X001758Y004466D01*
X001721Y004502D01*
X001721Y004576D01*
X001758Y004613D01*
X001795Y004687D02*
X001721Y004760D01*
X001795Y004833D01*
X001942Y004833D01*
X001942Y004908D02*
X001721Y004908D01*
X001942Y005054D01*
X001721Y005054D01*
X001832Y004833D02*
X001832Y004687D01*
X001795Y004687D02*
X001942Y004687D01*
X001905Y004613D02*
X001942Y004576D01*
X001942Y004502D01*
X001905Y004466D01*
X001978Y005129D02*
X001978Y005275D01*
X001942Y005350D02*
X001721Y005350D01*
X001832Y005350D02*
X001832Y005496D01*
X001942Y005496D02*
X001721Y005496D01*
X001215Y006643D02*
X001251Y006680D01*
X001251Y006826D01*
X001215Y006863D01*
X001104Y006863D01*
X001104Y006643D01*
X001215Y006643D01*
X001030Y006643D02*
X001030Y006863D01*
X000883Y006863D02*
X001030Y006643D01*
X000883Y006643D02*
X000883Y006863D01*
X000809Y006826D02*
X000773Y006863D01*
X000699Y006863D01*
X000662Y006826D01*
X000662Y006680D01*
X000699Y006643D01*
X000773Y006643D01*
X000809Y006680D01*
X000809Y006753D01*
X000736Y006753D01*
X002264Y007109D02*
X002410Y007109D01*
X002485Y007109D02*
X002631Y007109D01*
X002706Y007109D02*
X002816Y007109D01*
X002852Y007146D01*
X002852Y007293D01*
X002816Y007330D01*
X002706Y007330D01*
X002706Y007109D01*
X002558Y007219D02*
X002485Y007219D01*
X002485Y007109D02*
X002485Y007330D01*
X002631Y007330D01*
X002926Y007219D02*
X003073Y007219D01*
X003037Y007109D02*
X003037Y007330D01*
X002926Y007219D01*
X002264Y007330D02*
X002264Y007109D01*
X002221Y007646D02*
X002001Y007646D01*
X002221Y007646D02*
X002221Y007792D01*
X002221Y007867D02*
X002001Y007867D01*
X002001Y008013D01*
X002001Y008088D02*
X002001Y008198D01*
X002038Y008234D01*
X002184Y008234D01*
X002221Y008198D01*
X002221Y008088D01*
X002001Y008088D01*
X002111Y007940D02*
X002111Y007867D01*
X002221Y007867D02*
X002221Y008013D01*
X002184Y008308D02*
X002221Y008345D01*
X002221Y008419D01*
X002184Y008455D01*
X002148Y008455D01*
X002111Y008419D01*
X002111Y008382D01*
X002111Y008419D02*
X002074Y008455D01*
X002038Y008455D01*
X002001Y008419D01*
X002001Y008345D01*
X002038Y008308D01*
X002001Y008661D02*
X002221Y008661D01*
X002221Y008808D01*
X002221Y008882D02*
X002001Y008882D01*
X002001Y009029D01*
X002001Y009103D02*
X002001Y009213D01*
X002038Y009250D01*
X002184Y009250D01*
X002221Y009213D01*
X002221Y009103D01*
X002001Y009103D01*
X002111Y008956D02*
X002111Y008882D01*
X002221Y008882D02*
X002221Y009029D01*
X002221Y009324D02*
X002074Y009471D01*
X002038Y009471D01*
X002001Y009434D01*
X002001Y009361D01*
X002038Y009324D01*
X002221Y009324D02*
X002221Y009471D01*
X002532Y009964D02*
X002679Y009964D01*
X002753Y009964D02*
X002900Y009964D01*
X002974Y009964D02*
X003084Y009964D01*
X003120Y010001D01*
X003120Y010147D01*
X003084Y010184D01*
X002974Y010184D01*
X002974Y009964D01*
X002826Y010074D02*
X002753Y010074D01*
X002753Y010184D02*
X002753Y009964D01*
X002532Y009964D02*
X002532Y010184D01*
X002753Y010184D02*
X002900Y010184D01*
X003195Y010111D02*
X003268Y010184D01*
X003268Y009964D01*
X003195Y009964D02*
X003341Y009964D01*
X002198Y012261D02*
X002198Y012334D01*
X002198Y012298D02*
X001977Y012298D01*
X001977Y012334D02*
X001977Y012261D01*
X002014Y012408D02*
X002161Y012408D01*
X002198Y012445D01*
X002198Y012518D01*
X002161Y012555D01*
X002161Y012629D02*
X002198Y012666D01*
X002198Y012739D01*
X002161Y012776D01*
X002124Y012776D01*
X002087Y012739D01*
X002087Y012666D01*
X002051Y012629D01*
X002014Y012629D01*
X001977Y012666D01*
X001977Y012739D01*
X002014Y012776D01*
X001977Y012850D02*
X001977Y012960D01*
X002014Y012997D01*
X002087Y012997D01*
X002124Y012960D01*
X002124Y012850D01*
X002198Y012850D02*
X001977Y012850D01*
X002014Y012555D02*
X001977Y012518D01*
X001977Y012445D01*
X002014Y012408D01*
D11*
X024589Y012779D02*
X024589Y011991D01*
X025377Y012385D02*
X025771Y012385D01*
X025771Y012389D01*
X025633Y012527D01*
X025633Y012243D01*
X025771Y012381D01*
X024589Y011204D02*
X024589Y010416D01*
X025377Y010416D02*
X025771Y010416D01*
X025771Y010420D01*
X025633Y010558D01*
X025633Y010275D01*
X025771Y010412D01*
X024589Y009629D02*
X024589Y008842D01*
X025377Y008448D02*
X025771Y008448D01*
X025771Y008452D01*
X025633Y008590D01*
X025633Y008306D01*
X025771Y008444D01*
X024589Y008054D02*
X024589Y007267D01*
X025633Y006621D02*
X025633Y006338D01*
X025771Y006475D01*
X025771Y006479D02*
X025771Y006483D01*
X025633Y006621D01*
X025771Y006479D02*
X025377Y006479D01*
X024589Y006479D02*
X024589Y005692D01*
X025633Y005046D02*
X025633Y004763D01*
X025771Y004901D01*
X025771Y004905D02*
X025771Y004908D01*
X025633Y005046D01*
X025771Y004905D02*
X025377Y004905D01*
X024589Y004905D02*
X024589Y004117D01*
X024589Y003330D02*
X024589Y002542D01*
X025377Y002542D02*
X025771Y002542D01*
X025771Y002546D01*
X025633Y002684D01*
X025633Y002401D01*
X025771Y002538D01*
X024589Y013566D02*
X024589Y014353D01*
X025377Y013960D02*
X025771Y013960D01*
X025771Y013964D01*
X025633Y014101D01*
X025633Y013818D01*
X025771Y013956D01*
X024589Y015141D02*
X024589Y015928D01*
X025377Y015534D02*
X025771Y015534D01*
X025771Y015538D01*
X025633Y015676D01*
X025633Y015393D01*
X025771Y015531D01*
D12*
X025408Y015515D02*
X025172Y015515D01*
X025172Y015987D02*
X025408Y015987D01*
X022975Y016078D02*
X022739Y016078D01*
X022739Y015605D02*
X022975Y015605D01*
X022117Y015440D02*
X022117Y015204D01*
X021645Y015204D02*
X021645Y015440D01*
X016660Y013172D02*
X016424Y013172D01*
X016424Y012700D02*
X016660Y012700D01*
X017286Y012542D02*
X017286Y012306D01*
X017759Y012306D02*
X017759Y012542D01*
X018062Y012542D02*
X018062Y012306D01*
X018534Y012306D02*
X018534Y012542D01*
X018940Y012542D02*
X018940Y012306D01*
X019412Y012306D02*
X019412Y012542D01*
X019826Y012542D02*
X019826Y012306D01*
X020298Y012306D02*
X020298Y012542D01*
X016330Y011015D02*
X016330Y010779D01*
X015857Y010779D02*
X015857Y011015D01*
X015200Y011063D02*
X015200Y010463D01*
X015198Y010446D01*
X015194Y010429D01*
X015187Y010413D01*
X015177Y010399D01*
X015164Y010386D01*
X015150Y010376D01*
X015134Y010369D01*
X015117Y010365D01*
X015100Y010363D01*
X014000Y010363D01*
X013983Y010365D01*
X013966Y010369D01*
X013950Y010376D01*
X013936Y010386D01*
X013923Y010399D01*
X013913Y010413D01*
X013906Y010429D01*
X013902Y010446D01*
X013900Y010463D01*
X013900Y011063D01*
X013902Y011080D01*
X013906Y011097D01*
X013913Y011113D01*
X013923Y011127D01*
X013936Y011140D01*
X013950Y011150D01*
X013966Y011157D01*
X013983Y011161D01*
X014000Y011163D01*
X015100Y011163D01*
X015117Y011161D01*
X015134Y011157D01*
X015150Y011150D01*
X015164Y011140D01*
X015177Y011127D01*
X015187Y011113D01*
X015194Y011097D01*
X015198Y011080D01*
X015200Y011063D01*
X015100Y011276D02*
X014000Y011276D01*
X013983Y011278D01*
X013966Y011282D01*
X013950Y011289D01*
X013936Y011299D01*
X013923Y011312D01*
X013913Y011326D01*
X013906Y011342D01*
X013902Y011359D01*
X013900Y011376D01*
X013900Y011976D01*
X013902Y011993D01*
X013906Y012010D01*
X013913Y012026D01*
X013923Y012040D01*
X013936Y012053D01*
X013950Y012063D01*
X013966Y012070D01*
X013983Y012074D01*
X014000Y012076D01*
X015100Y012076D01*
X015117Y012074D01*
X015134Y012070D01*
X015150Y012063D01*
X015164Y012053D01*
X015177Y012040D01*
X015187Y012026D01*
X015194Y012010D01*
X015198Y011993D01*
X015200Y011976D01*
X015200Y011376D01*
X015198Y011359D01*
X015194Y011342D01*
X015187Y011326D01*
X015177Y011312D01*
X015164Y011299D01*
X015150Y011289D01*
X015134Y011282D01*
X015117Y011278D01*
X015100Y011276D01*
X013306Y010838D02*
X013306Y010601D01*
X012834Y010601D02*
X012834Y010838D01*
X014000Y010257D02*
X015100Y010257D01*
X015117Y010255D01*
X015134Y010251D01*
X015150Y010244D01*
X015164Y010234D01*
X015177Y010221D01*
X015187Y010207D01*
X015194Y010191D01*
X015198Y010174D01*
X015200Y010157D01*
X015200Y009557D01*
X015198Y009540D01*
X015194Y009523D01*
X015187Y009507D01*
X015177Y009493D01*
X015164Y009480D01*
X015150Y009470D01*
X015134Y009463D01*
X015117Y009459D01*
X015100Y009457D01*
X014000Y009457D01*
X013983Y009459D01*
X013966Y009463D01*
X013950Y009470D01*
X013936Y009480D01*
X013923Y009493D01*
X013913Y009507D01*
X013906Y009523D01*
X013902Y009540D01*
X013900Y009557D01*
X013900Y010157D01*
X013902Y010174D01*
X013906Y010191D01*
X013913Y010207D01*
X013923Y010221D01*
X013936Y010234D01*
X013950Y010244D01*
X013966Y010251D01*
X013983Y010255D01*
X014000Y010257D01*
X014000Y009352D02*
X015100Y009352D01*
X015117Y009350D01*
X015134Y009346D01*
X015150Y009339D01*
X015164Y009329D01*
X015177Y009316D01*
X015187Y009302D01*
X015194Y009286D01*
X015198Y009269D01*
X015200Y009252D01*
X015200Y008652D01*
X015198Y008635D01*
X015194Y008618D01*
X015187Y008602D01*
X015177Y008588D01*
X015164Y008575D01*
X015150Y008565D01*
X015134Y008558D01*
X015117Y008554D01*
X015100Y008552D01*
X014000Y008552D01*
X014000Y008462D02*
X015100Y008462D01*
X015117Y008460D01*
X015134Y008456D01*
X015150Y008449D01*
X015164Y008439D01*
X015177Y008426D01*
X015187Y008412D01*
X015194Y008396D01*
X015198Y008379D01*
X015200Y008362D01*
X015200Y007762D01*
X015198Y007745D01*
X015194Y007728D01*
X015187Y007712D01*
X015177Y007698D01*
X015164Y007685D01*
X015150Y007675D01*
X015134Y007668D01*
X015117Y007664D01*
X015100Y007662D01*
X014000Y007662D01*
X013983Y007664D01*
X013966Y007668D01*
X013950Y007675D01*
X013936Y007685D01*
X013923Y007698D01*
X013913Y007712D01*
X013906Y007728D01*
X013902Y007745D01*
X013900Y007762D01*
X013900Y008362D01*
X013902Y008379D01*
X013906Y008396D01*
X013913Y008412D01*
X013923Y008426D01*
X013936Y008439D01*
X013950Y008449D01*
X013966Y008456D01*
X013983Y008460D01*
X014000Y008462D01*
X014000Y008552D02*
X013983Y008554D01*
X013966Y008558D01*
X013950Y008565D01*
X013936Y008575D01*
X013923Y008588D01*
X013913Y008602D01*
X013906Y008618D01*
X013902Y008635D01*
X013900Y008652D01*
X013900Y009252D01*
X013902Y009269D01*
X013906Y009286D01*
X013913Y009302D01*
X013923Y009316D01*
X013936Y009329D01*
X013950Y009339D01*
X013966Y009346D01*
X013983Y009350D01*
X014000Y009352D01*
X013345Y007582D02*
X013345Y007345D01*
X012873Y007345D02*
X012873Y007582D01*
X013893Y007082D02*
X013893Y006845D01*
X014365Y006845D02*
X014365Y007082D01*
X011046Y006113D02*
X011046Y005877D01*
X010574Y005877D02*
X010574Y006113D01*
X009215Y006117D02*
X009215Y005881D01*
X008743Y005881D02*
X008743Y006117D01*
X008314Y006109D02*
X008314Y005873D01*
X007841Y005873D02*
X007841Y006109D01*
X006786Y004227D02*
X006550Y004227D01*
X006550Y003755D02*
X006786Y003755D01*
X006637Y003054D02*
X006637Y002818D01*
X007109Y002818D02*
X007109Y003054D01*
X003708Y004376D02*
X003708Y004976D01*
X003706Y004993D01*
X003702Y005010D01*
X003695Y005026D01*
X003685Y005040D01*
X003672Y005053D01*
X003658Y005063D01*
X003642Y005070D01*
X003625Y005074D01*
X003608Y005076D01*
X002508Y005076D01*
X002491Y005074D01*
X002474Y005070D01*
X002458Y005063D01*
X002444Y005053D01*
X002431Y005040D01*
X002421Y005026D01*
X002414Y005010D01*
X002410Y004993D01*
X002408Y004976D01*
X002408Y004376D01*
X002410Y004359D01*
X002414Y004342D01*
X002421Y004326D01*
X002431Y004312D01*
X002444Y004299D01*
X002458Y004289D01*
X002474Y004282D01*
X002491Y004278D01*
X002508Y004276D01*
X003608Y004276D01*
X003625Y004278D01*
X003642Y004282D01*
X003658Y004289D01*
X003672Y004299D01*
X003685Y004312D01*
X003695Y004326D01*
X003702Y004342D01*
X003706Y004359D01*
X003708Y004376D01*
X003231Y005310D02*
X002995Y005310D01*
X002995Y005782D02*
X003231Y005782D01*
X003267Y006259D02*
X003030Y006259D01*
X003030Y006731D02*
X003267Y006731D01*
X003093Y003448D02*
X003093Y003212D01*
X003566Y003212D02*
X003566Y003448D01*
X013920Y003570D02*
X013920Y003806D01*
X014393Y003806D02*
X014393Y003570D01*
X014708Y003566D02*
X014708Y003802D01*
X015180Y003802D02*
X015180Y003566D01*
X015475Y003574D02*
X015475Y003810D01*
X015948Y003810D02*
X015948Y003574D01*
X016385Y003574D02*
X016385Y003810D01*
X016857Y003810D02*
X016857Y003574D01*
X018853Y003826D02*
X019089Y003826D01*
X019089Y004298D02*
X018853Y004298D01*
X020857Y003263D02*
X021093Y003263D01*
X021093Y002790D02*
X020857Y002790D01*
X020865Y002625D02*
X021101Y002625D01*
X021101Y002153D02*
X020865Y002153D01*
X020865Y001975D02*
X021101Y001975D01*
X021101Y001503D02*
X020865Y001503D01*
X023003Y002235D02*
X023239Y002235D01*
X023239Y002708D02*
X023003Y002708D01*
X022904Y003700D02*
X022668Y003700D01*
X022668Y004172D02*
X022904Y004172D01*
X022511Y007208D02*
X022511Y007444D01*
X022038Y007444D02*
X022038Y007208D01*
X014562Y002782D02*
X014326Y002782D01*
X014326Y002310D02*
X014562Y002310D01*
X003042Y010511D02*
X002806Y010511D01*
X002806Y010983D02*
X003042Y010983D01*
X002897Y012897D02*
X002897Y013133D01*
X003369Y013133D02*
X003369Y012897D01*
X004621Y012897D02*
X004621Y013133D01*
X005093Y013133D02*
X005093Y012897D01*
X005495Y012897D02*
X005495Y013133D01*
X005967Y013133D02*
X005967Y012897D01*
X009015Y014511D02*
X009251Y014511D01*
X009251Y014983D02*
X009015Y014983D01*
X012235Y014609D02*
X012471Y014609D01*
X012471Y014137D02*
X012235Y014137D01*
X013641Y013342D02*
X013877Y013342D01*
X013877Y012869D02*
X013641Y012869D01*
X013971Y013968D02*
X013971Y014204D01*
X014444Y014204D02*
X014444Y013968D01*
X031747Y013916D02*
X031983Y013916D01*
X031983Y014389D02*
X031747Y014389D01*
D13*
X032038Y015443D02*
X032172Y015443D01*
X032205Y015477D01*
X032205Y015544D01*
X032172Y015577D01*
X032205Y015664D02*
X032205Y015798D01*
X032205Y015731D02*
X032005Y015731D01*
X032072Y015664D01*
X032038Y015577D02*
X032005Y015544D01*
X032005Y015477D01*
X032038Y015443D01*
X032038Y015885D02*
X032005Y015919D01*
X032005Y015985D01*
X032038Y016019D01*
X032072Y016019D01*
X032105Y015985D01*
X032138Y016019D01*
X032172Y016019D01*
X032205Y015985D01*
X032205Y015919D01*
X032172Y015885D01*
X032105Y015952D02*
X032105Y015985D01*
X027125Y015239D02*
X027091Y015273D01*
X027024Y015273D01*
X026991Y015239D01*
X026904Y015239D02*
X026870Y015273D01*
X026803Y015273D01*
X026770Y015239D01*
X026770Y015106D01*
X026803Y015072D01*
X026870Y015072D01*
X026904Y015106D01*
X026991Y015072D02*
X027125Y015206D01*
X027125Y015239D01*
X027125Y015072D02*
X026991Y015072D01*
X025463Y015187D02*
X025330Y015187D01*
X025396Y015187D02*
X025396Y015387D01*
X025330Y015320D01*
X025242Y015353D02*
X025209Y015387D01*
X025142Y015387D01*
X025109Y015353D01*
X025109Y015220D01*
X025142Y015187D01*
X025209Y015187D01*
X025242Y015220D01*
X024180Y015814D02*
X024147Y015781D01*
X024080Y015781D01*
X024047Y015814D01*
X024047Y015848D01*
X024080Y015881D01*
X024147Y015881D01*
X024180Y015848D01*
X024180Y015814D01*
X024147Y015881D02*
X024180Y015914D01*
X024180Y015948D01*
X024147Y015981D01*
X024080Y015981D01*
X024047Y015948D01*
X024047Y015914D01*
X024080Y015881D01*
X023959Y015914D02*
X023959Y015948D01*
X023926Y015981D01*
X023859Y015981D01*
X023826Y015948D01*
X023738Y015948D02*
X023705Y015981D01*
X023638Y015981D01*
X023605Y015948D01*
X023605Y015814D01*
X023638Y015781D01*
X023705Y015781D01*
X023738Y015814D01*
X023826Y015781D02*
X023959Y015914D01*
X023959Y015781D02*
X023826Y015781D01*
X022121Y016074D02*
X022088Y016041D01*
X022021Y016041D01*
X021988Y016074D01*
X022121Y016208D01*
X022121Y016074D01*
X021988Y016074D02*
X021988Y016208D01*
X022021Y016241D01*
X022088Y016241D01*
X022121Y016208D01*
X021900Y016208D02*
X021867Y016241D01*
X021800Y016241D01*
X021767Y016208D01*
X021679Y016208D02*
X021679Y016141D01*
X021646Y016108D01*
X021546Y016108D01*
X021612Y016108D02*
X021679Y016041D01*
X021767Y016041D02*
X021900Y016174D01*
X021900Y016208D01*
X021900Y016041D02*
X021767Y016041D01*
X021679Y016208D02*
X021646Y016241D01*
X021546Y016241D01*
X021546Y016041D01*
X020725Y013207D02*
X020725Y013007D01*
X020659Y013007D02*
X020792Y013007D01*
X020659Y013140D02*
X020725Y013207D01*
X020571Y013174D02*
X020571Y013040D01*
X020538Y013007D01*
X020438Y013007D01*
X020438Y013207D01*
X020538Y013207D01*
X020571Y013174D01*
X020220Y011727D02*
X020220Y011527D01*
X020286Y011527D02*
X020153Y011527D01*
X020065Y011527D02*
X019932Y011527D01*
X019999Y011527D02*
X019999Y011727D01*
X019932Y011660D01*
X019844Y011694D02*
X019811Y011727D01*
X019744Y011727D01*
X019711Y011694D01*
X019711Y011560D01*
X019744Y011527D01*
X019811Y011527D01*
X019844Y011560D01*
X020153Y011660D02*
X020220Y011727D01*
X019349Y011702D02*
X019216Y011568D01*
X019249Y011535D01*
X019316Y011535D01*
X019349Y011568D01*
X019349Y011702D01*
X019316Y011735D01*
X019249Y011735D01*
X019216Y011702D01*
X019216Y011568D01*
X019128Y011535D02*
X018995Y011535D01*
X019062Y011535D02*
X019062Y011735D01*
X018995Y011668D01*
X018907Y011702D02*
X018874Y011735D01*
X018807Y011735D01*
X018774Y011702D01*
X018774Y011568D01*
X018807Y011535D01*
X018874Y011535D01*
X018907Y011568D01*
X018334Y011576D02*
X018334Y011710D01*
X018300Y011743D01*
X018234Y011743D01*
X018200Y011710D01*
X018200Y011676D01*
X018234Y011643D01*
X018334Y011643D01*
X018334Y011576D02*
X018300Y011543D01*
X018234Y011543D01*
X018200Y011576D01*
X018113Y011576D02*
X018079Y011543D01*
X018013Y011543D01*
X017979Y011576D01*
X017979Y011710D01*
X018013Y011743D01*
X018079Y011743D01*
X018113Y011710D01*
X017535Y011706D02*
X017535Y011672D01*
X017501Y011639D01*
X017535Y011606D01*
X017535Y011572D01*
X017501Y011539D01*
X017434Y011539D01*
X017401Y011572D01*
X017314Y011539D02*
X017247Y011606D01*
X017280Y011606D02*
X017180Y011606D01*
X017180Y011539D02*
X017180Y011739D01*
X017280Y011739D01*
X017314Y011706D01*
X017314Y011639D01*
X017280Y011606D01*
X017401Y011706D02*
X017434Y011739D01*
X017501Y011739D01*
X017535Y011706D01*
X017501Y011639D02*
X017468Y011639D01*
X016216Y011633D02*
X016216Y011566D01*
X016182Y011533D01*
X016116Y011533D01*
X016082Y011566D01*
X016082Y011633D02*
X016149Y011666D01*
X016182Y011666D01*
X016216Y011633D01*
X016216Y011733D02*
X016082Y011733D01*
X016082Y011633D01*
X015995Y011700D02*
X015961Y011733D01*
X015895Y011733D01*
X015861Y011700D01*
X015861Y011566D01*
X015895Y011533D01*
X015961Y011533D01*
X015995Y011566D01*
X016382Y012352D02*
X016449Y012352D01*
X016482Y012385D01*
X016570Y012385D02*
X016603Y012352D01*
X016670Y012352D01*
X016703Y012385D01*
X016703Y012419D01*
X016670Y012452D01*
X016570Y012452D01*
X016570Y012385D01*
X016570Y012452D02*
X016637Y012519D01*
X016703Y012552D01*
X016482Y012519D02*
X016449Y012552D01*
X016382Y012552D01*
X016349Y012519D01*
X016349Y012385D01*
X016382Y012352D01*
X013944Y012523D02*
X013911Y012489D01*
X013844Y012489D01*
X013811Y012523D01*
X013811Y012556D01*
X013844Y012590D01*
X013911Y012590D01*
X013944Y012556D01*
X013944Y012523D01*
X013911Y012590D02*
X013944Y012623D01*
X013944Y012656D01*
X013911Y012690D01*
X013844Y012690D01*
X013811Y012656D01*
X013811Y012623D01*
X013844Y012590D01*
X013723Y012489D02*
X013590Y012489D01*
X013656Y012489D02*
X013656Y012690D01*
X013590Y012623D01*
X013502Y012656D02*
X013502Y012590D01*
X013469Y012556D01*
X013369Y012556D01*
X013435Y012556D02*
X013502Y012489D01*
X013369Y012489D02*
X013369Y012690D01*
X013469Y012690D01*
X013502Y012656D01*
X012470Y013761D02*
X012470Y013961D01*
X012370Y013861D01*
X012503Y013861D01*
X012282Y013895D02*
X012282Y013928D01*
X012249Y013961D01*
X012182Y013961D01*
X012149Y013928D01*
X012061Y013928D02*
X012028Y013961D01*
X011961Y013961D01*
X011928Y013928D01*
X011928Y013794D01*
X011961Y013761D01*
X012028Y013761D01*
X012061Y013794D01*
X012149Y013761D02*
X012282Y013895D01*
X012282Y013761D02*
X012149Y013761D01*
X010424Y014720D02*
X010391Y014687D01*
X010324Y014687D01*
X010291Y014720D01*
X010203Y014687D02*
X010070Y014687D01*
X010203Y014820D01*
X010203Y014853D01*
X010170Y014887D01*
X010103Y014887D01*
X010070Y014853D01*
X009982Y014853D02*
X009949Y014887D01*
X009882Y014887D01*
X009849Y014853D01*
X009849Y014720D01*
X009882Y014687D01*
X009949Y014687D01*
X009982Y014720D01*
X010291Y014853D02*
X010324Y014887D01*
X010391Y014887D01*
X010424Y014853D01*
X010424Y014820D01*
X010391Y014787D01*
X010424Y014753D01*
X010424Y014720D01*
X010391Y014787D02*
X010358Y014787D01*
X014576Y014360D02*
X014576Y014293D01*
X014609Y014259D01*
X014642Y014259D01*
X014676Y014293D01*
X014676Y014393D01*
X014743Y014393D02*
X014609Y014393D01*
X014576Y014360D01*
X014743Y014393D02*
X014776Y014360D01*
X014776Y014293D01*
X014743Y014259D01*
X014776Y014172D02*
X014776Y014038D01*
X014776Y014105D02*
X014576Y014105D01*
X014642Y014038D01*
X014609Y013951D02*
X014676Y013951D01*
X014709Y013918D01*
X014709Y013817D01*
X014776Y013817D02*
X014576Y013817D01*
X014576Y013918D01*
X014609Y013951D01*
X014709Y013884D02*
X014776Y013951D01*
X013688Y010936D02*
X013721Y010903D01*
X013721Y010836D01*
X013688Y010803D01*
X013621Y010803D02*
X013588Y010869D01*
X013588Y010903D01*
X013621Y010936D01*
X013688Y010936D01*
X013621Y010803D02*
X013521Y010803D01*
X013521Y010936D01*
X013554Y010715D02*
X013521Y010682D01*
X013521Y010615D01*
X013554Y010582D01*
X013554Y010494D02*
X013521Y010461D01*
X013521Y010394D01*
X013554Y010361D01*
X013688Y010361D01*
X013721Y010394D01*
X013721Y010461D01*
X013688Y010494D01*
X013721Y010582D02*
X013588Y010715D01*
X013554Y010715D01*
X013721Y010715D02*
X013721Y010582D01*
X012713Y007783D02*
X012713Y007649D01*
X012713Y007716D02*
X012513Y007716D01*
X012580Y007649D01*
X012580Y007562D02*
X012546Y007562D01*
X012513Y007528D01*
X012513Y007462D01*
X012546Y007428D01*
X012546Y007341D02*
X012513Y007307D01*
X012513Y007241D01*
X012546Y007207D01*
X012680Y007207D01*
X012713Y007241D01*
X012713Y007307D01*
X012680Y007341D01*
X012713Y007428D02*
X012580Y007562D01*
X012713Y007562D02*
X012713Y007428D01*
X013572Y007083D02*
X013605Y007117D01*
X013639Y007117D01*
X013672Y007083D01*
X013672Y007017D01*
X013639Y006983D01*
X013605Y006983D01*
X013572Y007017D01*
X013572Y007083D01*
X013672Y007083D02*
X013705Y007117D01*
X013739Y007117D01*
X013772Y007083D01*
X013772Y007017D01*
X013739Y006983D01*
X013705Y006983D01*
X013672Y007017D01*
X013672Y006896D02*
X013705Y006862D01*
X013705Y006762D01*
X013772Y006762D02*
X013572Y006762D01*
X013572Y006862D01*
X013605Y006896D01*
X013672Y006896D01*
X013705Y006829D02*
X013772Y006896D01*
X011457Y006216D02*
X011457Y006082D01*
X011324Y006216D01*
X011290Y006216D01*
X011257Y006182D01*
X011257Y006116D01*
X011290Y006082D01*
X011257Y005928D02*
X011457Y005928D01*
X011457Y005861D02*
X011457Y005995D01*
X011324Y005861D02*
X011257Y005928D01*
X011290Y005774D02*
X011357Y005774D01*
X011391Y005740D01*
X011391Y005640D01*
X011457Y005640D02*
X011257Y005640D01*
X011257Y005740D01*
X011290Y005774D01*
X011391Y005707D02*
X011457Y005774D01*
X009536Y005778D02*
X009469Y005711D01*
X009469Y005744D02*
X009469Y005644D01*
X009536Y005644D02*
X009336Y005644D01*
X009336Y005744D01*
X009369Y005778D01*
X009436Y005778D01*
X009469Y005744D01*
X009403Y005865D02*
X009336Y005932D01*
X009536Y005932D01*
X009536Y005865D02*
X009536Y005999D01*
X009503Y006086D02*
X009536Y006120D01*
X009536Y006186D01*
X009503Y006220D01*
X009469Y006220D01*
X009436Y006186D01*
X009436Y006153D01*
X009436Y006186D02*
X009403Y006220D01*
X009369Y006220D01*
X009336Y006186D01*
X009336Y006120D01*
X009369Y006086D01*
X007678Y006026D02*
X007678Y005893D01*
X007678Y005960D02*
X007478Y005960D01*
X007544Y005893D01*
X007511Y005805D02*
X007578Y005805D01*
X007611Y005772D01*
X007611Y005672D01*
X007611Y005739D02*
X007678Y005805D01*
X007678Y005672D02*
X007478Y005672D01*
X007478Y005772D01*
X007511Y005805D01*
X007578Y006114D02*
X007578Y006247D01*
X007678Y006214D02*
X007478Y006214D01*
X007578Y006114D01*
X006891Y004575D02*
X006824Y004575D01*
X006791Y004542D01*
X006791Y004409D01*
X006924Y004542D01*
X006924Y004409D01*
X006891Y004375D01*
X006824Y004375D01*
X006791Y004409D01*
X006703Y004409D02*
X006670Y004375D01*
X006603Y004375D01*
X006570Y004409D01*
X006482Y004409D02*
X006449Y004375D01*
X006382Y004375D01*
X006349Y004409D01*
X006349Y004542D01*
X006382Y004575D01*
X006449Y004575D01*
X006482Y004542D01*
X006570Y004542D02*
X006603Y004575D01*
X006670Y004575D01*
X006703Y004542D01*
X006703Y004509D01*
X006670Y004475D01*
X006703Y004442D01*
X006703Y004409D01*
X006670Y004475D02*
X006637Y004475D01*
X006891Y004575D02*
X006924Y004542D01*
X007409Y003133D02*
X007375Y003100D01*
X007375Y003033D01*
X007409Y003000D01*
X007442Y003000D01*
X007475Y003033D01*
X007475Y003133D01*
X007409Y003133D02*
X007542Y003133D01*
X007575Y003100D01*
X007575Y003033D01*
X007542Y003000D01*
X007575Y002912D02*
X007575Y002779D01*
X007442Y002912D01*
X007409Y002912D01*
X007375Y002879D01*
X007375Y002812D01*
X007409Y002779D01*
X007409Y002691D02*
X007375Y002658D01*
X007375Y002591D01*
X007409Y002558D01*
X007542Y002558D01*
X007575Y002591D01*
X007575Y002658D01*
X007542Y002691D01*
X002981Y003103D02*
X002981Y003169D01*
X002947Y003203D01*
X002947Y003290D02*
X002981Y003324D01*
X002981Y003390D01*
X002947Y003424D01*
X002914Y003424D01*
X002881Y003390D01*
X002881Y003357D01*
X002881Y003390D02*
X002847Y003424D01*
X002814Y003424D01*
X002780Y003390D01*
X002780Y003324D01*
X002814Y003290D01*
X002814Y003203D02*
X002780Y003169D01*
X002780Y003103D01*
X002814Y003069D01*
X002947Y003069D01*
X002981Y003103D01*
X002981Y003511D02*
X002981Y003645D01*
X002981Y003578D02*
X002780Y003578D01*
X002847Y003511D01*
X002892Y005863D02*
X002825Y005930D01*
X002858Y005930D02*
X002758Y005930D01*
X002758Y005863D02*
X002758Y006064D01*
X002858Y006064D01*
X002892Y006030D01*
X002892Y005964D01*
X002858Y005930D01*
X002979Y005863D02*
X003113Y005863D01*
X003046Y005863D02*
X003046Y006064D01*
X002979Y005997D01*
X003200Y006064D02*
X003334Y006064D01*
X003334Y006030D01*
X003200Y005897D01*
X003200Y005863D01*
X002279Y006334D02*
X002245Y006300D01*
X002179Y006300D01*
X002145Y006334D01*
X002145Y006401D01*
X002245Y006401D01*
X002279Y006367D01*
X002279Y006334D01*
X002212Y006467D02*
X002145Y006401D01*
X002058Y006434D02*
X002058Y006467D01*
X002024Y006501D01*
X001958Y006501D01*
X001924Y006467D01*
X001837Y006467D02*
X001803Y006501D01*
X001737Y006501D01*
X001703Y006467D01*
X001703Y006334D01*
X001737Y006300D01*
X001803Y006300D01*
X001837Y006334D01*
X001924Y006300D02*
X002058Y006434D01*
X002058Y006300D02*
X001924Y006300D01*
X002212Y006467D02*
X002279Y006501D01*
X003883Y007655D02*
X003883Y007856D01*
X003983Y007856D01*
X004016Y007822D01*
X004016Y007755D01*
X003983Y007722D01*
X003883Y007722D01*
X003949Y007722D02*
X004016Y007655D01*
X004104Y007655D02*
X004104Y007856D01*
X004237Y007655D01*
X004237Y007856D01*
X004325Y007789D02*
X004391Y007856D01*
X004391Y007655D01*
X004325Y007655D02*
X004458Y007655D01*
X003220Y011092D02*
X003086Y011092D01*
X003220Y011225D01*
X003220Y011259D01*
X003186Y011292D01*
X003119Y011292D01*
X003086Y011259D01*
X002999Y011259D02*
X002965Y011292D01*
X002898Y011292D01*
X002865Y011259D01*
X002778Y011259D02*
X002744Y011292D01*
X002677Y011292D01*
X002644Y011259D01*
X002644Y011125D01*
X002677Y011092D01*
X002744Y011092D01*
X002778Y011125D01*
X002865Y011092D02*
X002999Y011225D01*
X002999Y011259D01*
X002999Y011092D02*
X002865Y011092D01*
X002908Y013730D02*
X002908Y013930D01*
X003009Y013930D01*
X003042Y013896D01*
X003042Y013830D01*
X003009Y013796D01*
X002908Y013796D01*
X002975Y013796D02*
X003042Y013730D01*
X003129Y013763D02*
X003163Y013730D01*
X003229Y013730D01*
X003263Y013763D01*
X003263Y013830D01*
X003229Y013863D01*
X003196Y013863D01*
X003129Y013830D01*
X003129Y013930D01*
X003263Y013930D01*
X004691Y013873D02*
X004691Y013740D01*
X004725Y013706D01*
X004791Y013706D01*
X004825Y013740D01*
X004912Y013740D02*
X004912Y013706D01*
X004912Y013740D02*
X005046Y013873D01*
X005046Y013906D01*
X004912Y013906D01*
X004825Y013873D02*
X004791Y013906D01*
X004725Y013906D01*
X004691Y013873D01*
X005530Y013922D02*
X005530Y013722D01*
X005530Y013788D02*
X005631Y013788D01*
X005664Y013822D01*
X005664Y013889D01*
X005631Y013922D01*
X005530Y013922D01*
X005597Y013788D02*
X005664Y013722D01*
X005751Y013755D02*
X005785Y013722D01*
X005852Y013722D01*
X005885Y013755D01*
X005885Y013788D01*
X005852Y013822D01*
X005751Y013822D01*
X005751Y013755D01*
X005751Y013822D02*
X005818Y013889D01*
X005885Y013922D01*
X022619Y007525D02*
X022619Y007458D01*
X022653Y007425D01*
X022686Y007425D01*
X022719Y007458D01*
X022719Y007558D01*
X022653Y007558D02*
X022619Y007525D01*
X022653Y007558D02*
X022786Y007558D01*
X022819Y007525D01*
X022819Y007458D01*
X022786Y007425D01*
X022819Y007337D02*
X022819Y007204D01*
X022819Y007271D02*
X022619Y007271D01*
X022686Y007204D01*
X022653Y007116D02*
X022619Y007083D01*
X022619Y007016D01*
X022653Y006983D01*
X022786Y006983D01*
X022819Y007016D01*
X022819Y007083D01*
X022786Y007116D01*
X019255Y004713D02*
X019122Y004713D01*
X019255Y004713D02*
X019255Y004680D01*
X019122Y004547D01*
X019122Y004513D01*
X019034Y004513D02*
X018901Y004513D01*
X018967Y004513D02*
X018967Y004713D01*
X018901Y004647D01*
X018813Y004680D02*
X018780Y004713D01*
X018713Y004713D01*
X018680Y004680D01*
X018680Y004547D01*
X018713Y004513D01*
X018780Y004513D01*
X018813Y004547D01*
X020695Y003538D02*
X020695Y003405D01*
X020729Y003372D01*
X020795Y003372D01*
X020829Y003405D01*
X020916Y003372D02*
X021050Y003372D01*
X020983Y003372D02*
X020983Y003572D01*
X020916Y003505D01*
X020829Y003538D02*
X020795Y003572D01*
X020729Y003572D01*
X020695Y003538D01*
X021137Y003538D02*
X021137Y003505D01*
X021171Y003472D01*
X021237Y003472D01*
X021271Y003438D01*
X021271Y003405D01*
X021237Y003372D01*
X021171Y003372D01*
X021137Y003405D01*
X021137Y003438D01*
X021171Y003472D01*
X021237Y003472D02*
X021271Y003505D01*
X021271Y003538D01*
X021237Y003572D01*
X021171Y003572D01*
X021137Y003538D01*
X022353Y003546D02*
X022353Y003413D01*
X022386Y003379D01*
X022453Y003379D01*
X022486Y003413D01*
X022574Y003379D02*
X022707Y003379D01*
X022640Y003379D02*
X022640Y003579D01*
X022574Y003513D01*
X022486Y003546D02*
X022453Y003579D01*
X022386Y003579D01*
X022353Y003546D01*
X022795Y003546D02*
X022828Y003579D01*
X022895Y003579D01*
X022928Y003546D01*
X022928Y003513D01*
X022795Y003379D01*
X022928Y003379D01*
X022954Y003525D02*
X023020Y003525D01*
X023054Y003558D01*
X022954Y003525D02*
X022920Y003558D01*
X022920Y003692D01*
X022954Y003725D01*
X023020Y003725D01*
X023054Y003692D01*
X023141Y003625D02*
X023275Y003625D01*
X023241Y003725D02*
X023141Y003625D01*
X023241Y003525D02*
X023241Y003725D01*
X022223Y002481D02*
X022090Y002481D01*
X022090Y002381D01*
X022157Y002414D01*
X022190Y002414D01*
X022223Y002381D01*
X022223Y002314D01*
X022190Y002281D01*
X022123Y002281D01*
X022090Y002314D01*
X022002Y002281D02*
X021869Y002281D01*
X021936Y002281D02*
X021936Y002481D01*
X021869Y002414D01*
X021782Y002381D02*
X021748Y002348D01*
X021648Y002348D01*
X021715Y002348D02*
X021782Y002281D01*
X021782Y002381D02*
X021782Y002448D01*
X021748Y002481D01*
X021648Y002481D01*
X021648Y002281D01*
X022881Y002101D02*
X022881Y001968D01*
X022914Y001934D01*
X022981Y001934D01*
X023014Y001968D01*
X023102Y001968D02*
X023135Y001934D01*
X023202Y001934D01*
X023235Y001968D01*
X023235Y002001D01*
X023202Y002034D01*
X023169Y002034D01*
X023202Y002034D02*
X023235Y002068D01*
X023235Y002101D01*
X023202Y002135D01*
X023135Y002135D01*
X023102Y002101D01*
X023014Y002101D02*
X022981Y002135D01*
X022914Y002135D01*
X022881Y002101D01*
X021322Y001292D02*
X021255Y001259D01*
X021188Y001192D01*
X021289Y001192D01*
X021322Y001159D01*
X021322Y001125D01*
X021289Y001092D01*
X021222Y001092D01*
X021188Y001125D01*
X021188Y001192D01*
X021101Y001092D02*
X020967Y001092D01*
X021034Y001092D02*
X021034Y001292D01*
X020967Y001225D01*
X020880Y001192D02*
X020847Y001159D01*
X020746Y001159D01*
X020746Y001092D02*
X020746Y001292D01*
X020847Y001292D01*
X020880Y001259D01*
X020880Y001192D01*
X020813Y001159D02*
X020880Y001092D01*
X016971Y002897D02*
X016938Y002864D01*
X016871Y002864D01*
X016838Y002897D01*
X016971Y003031D01*
X016971Y002897D01*
X016838Y002897D02*
X016838Y003031D01*
X016871Y003064D01*
X016938Y003064D01*
X016971Y003031D01*
X016750Y002864D02*
X016617Y002864D01*
X016684Y002864D02*
X016684Y003064D01*
X016617Y002997D01*
X016530Y003031D02*
X016530Y002964D01*
X016496Y002930D01*
X016396Y002930D01*
X016396Y002864D02*
X016396Y003064D01*
X016496Y003064D01*
X016530Y003031D01*
X016463Y002930D02*
X016530Y002864D01*
X015956Y002860D02*
X015822Y002860D01*
X015889Y002860D02*
X015889Y003060D01*
X015822Y002993D01*
X015735Y002860D02*
X015601Y002860D01*
X015668Y002860D02*
X015668Y003060D01*
X015601Y002993D01*
X015514Y003026D02*
X015514Y002960D01*
X015480Y002926D01*
X015380Y002926D01*
X015380Y002860D02*
X015380Y003060D01*
X015480Y003060D01*
X015514Y003026D01*
X015447Y002926D02*
X015514Y002860D01*
X013743Y003263D02*
X013743Y003397D01*
X013709Y003430D01*
X013643Y003430D01*
X013609Y003397D01*
X013609Y003363D01*
X013643Y003330D01*
X013743Y003330D01*
X013743Y003263D02*
X013709Y003230D01*
X013643Y003230D01*
X013609Y003263D01*
X013522Y003230D02*
X013455Y003297D01*
X013488Y003297D02*
X013388Y003297D01*
X013388Y003230D02*
X013388Y003430D01*
X013488Y003430D01*
X013522Y003397D01*
X013522Y003330D01*
X013488Y003297D01*
X014118Y002119D02*
X014085Y002085D01*
X014085Y001952D01*
X014118Y001919D01*
X014185Y001919D01*
X014219Y001952D01*
X014306Y001919D02*
X014440Y001919D01*
X014373Y001919D02*
X014373Y002119D01*
X014306Y002052D01*
X014219Y002085D02*
X014185Y002119D01*
X014118Y002119D01*
X014527Y002119D02*
X014527Y002019D01*
X014594Y002052D01*
X014627Y002052D01*
X014660Y002019D01*
X014660Y001952D01*
X014627Y001919D01*
X014560Y001919D01*
X014527Y001952D01*
X014527Y002119D02*
X014660Y002119D01*
X014874Y004415D02*
X014941Y004415D01*
X014974Y004448D01*
X015062Y004415D02*
X015195Y004415D01*
X015129Y004415D02*
X015129Y004615D01*
X015062Y004548D01*
X014974Y004581D02*
X014941Y004615D01*
X014874Y004615D01*
X014841Y004581D01*
X014841Y004448D01*
X014874Y004415D01*
X015283Y004515D02*
X015416Y004515D01*
X015383Y004615D02*
X015283Y004515D01*
X015383Y004415D02*
X015383Y004615D01*
X027854Y001651D02*
X027854Y001451D01*
X027854Y001551D02*
X027921Y001551D01*
X027987Y001651D02*
X027854Y001651D01*
X028075Y001584D02*
X028142Y001651D01*
X028142Y001451D01*
X028208Y001451D02*
X028075Y001451D01*
D14*
X003591Y000507D02*
X003341Y000757D01*
X003341Y001257D01*
X003591Y001507D01*
X004091Y001507D01*
X004341Y001257D01*
X004591Y001507D01*
X005091Y001507D01*
X005341Y001257D01*
X005591Y001507D01*
X006091Y001507D01*
X006341Y001257D01*
X006591Y001507D01*
X007091Y001507D01*
X007341Y001257D01*
X007591Y001507D01*
X008091Y001507D01*
X008341Y001257D01*
X008591Y001507D01*
X009091Y001507D01*
X009341Y001257D01*
X009341Y000757D01*
X009091Y000507D01*
X008591Y000507D01*
X008341Y000757D01*
X008091Y000507D01*
X007591Y000507D01*
X007341Y000757D01*
X007091Y000507D01*
X006591Y000507D01*
X006341Y000757D01*
X006091Y000507D01*
X005591Y000507D01*
X005341Y000757D01*
X005091Y000507D01*
X004591Y000507D01*
X004341Y000757D01*
X004091Y000507D01*
X003591Y000507D01*
X001664Y003460D02*
X000664Y003460D01*
X000664Y004460D01*
X001664Y004460D01*
X001664Y003460D01*
X001414Y004460D02*
X001664Y004710D01*
X001664Y005210D01*
X001414Y005460D01*
X001664Y005710D01*
X001664Y006210D01*
X001414Y006460D01*
X000914Y006460D01*
X000664Y006210D01*
X000664Y005710D01*
X000914Y005460D01*
X000664Y005210D01*
X000664Y004710D01*
X000914Y004460D01*
X000914Y007235D02*
X000664Y007485D01*
X000664Y007985D01*
X000914Y008235D01*
X001414Y008235D01*
X001664Y007985D01*
X001664Y007485D01*
X001414Y007235D01*
X000914Y007235D01*
X000914Y008235D02*
X000664Y008485D01*
X000664Y008985D01*
X000914Y009235D01*
X001414Y009235D01*
X001664Y008985D01*
X001664Y008485D01*
X001414Y008235D01*
X001414Y009235D02*
X001664Y009485D01*
X001664Y009985D01*
X001414Y010235D01*
X000914Y010235D01*
X000664Y010485D01*
X000664Y010985D01*
X000914Y011235D01*
X001414Y011235D01*
X001664Y010985D01*
X001664Y010485D01*
X001414Y010235D01*
X000914Y010235D02*
X000664Y009985D01*
X000664Y009485D01*
X000914Y009235D01*
X000914Y011235D02*
X000664Y011485D01*
X000664Y011985D01*
X000914Y012235D01*
X000664Y012235D01*
X000664Y013235D01*
X001664Y013235D01*
X001664Y012235D01*
X001414Y012235D01*
X000914Y012235D01*
X001414Y012235D02*
X001664Y011985D01*
X001664Y011485D01*
X001414Y011235D01*
X003532Y015074D02*
X003282Y015324D01*
X003282Y015824D01*
X003532Y016074D01*
X004032Y016074D01*
X004282Y015824D01*
X004532Y016074D01*
X005032Y016074D01*
X005282Y015824D01*
X005532Y016074D01*
X006032Y016074D01*
X006282Y015824D01*
X006532Y016074D01*
X007032Y016074D01*
X007282Y015824D01*
X007532Y016074D01*
X008032Y016074D01*
X008282Y015824D01*
X008532Y016074D01*
X009032Y016074D01*
X009282Y015824D01*
X009282Y015324D01*
X009032Y015074D01*
X008532Y015074D01*
X008282Y015324D01*
X008032Y015074D01*
X007532Y015074D01*
X007282Y015324D01*
X007032Y015074D01*
X006532Y015074D01*
X006282Y015324D01*
X006032Y015074D01*
X005532Y015074D01*
X005282Y015324D01*
X005032Y015074D01*
X004532Y015074D01*
X004282Y015324D01*
X004032Y015074D01*
X003532Y015074D01*
X009578Y015324D02*
X009578Y015824D01*
X009828Y016074D01*
X010328Y016074D01*
X010578Y015824D01*
X010828Y016074D01*
X011328Y016074D01*
X011578Y015824D01*
X011828Y016074D01*
X012328Y016074D01*
X012578Y015824D01*
X012828Y016074D01*
X013328Y016074D01*
X013578Y015824D01*
X013828Y016074D01*
X014328Y016074D01*
X014578Y015824D01*
X014828Y016074D01*
X015328Y016074D01*
X015578Y015824D01*
X015578Y015324D01*
X015328Y015074D01*
X014828Y015074D01*
X014578Y015324D01*
X014328Y015074D01*
X013828Y015074D01*
X013578Y015324D01*
X013328Y015074D01*
X012828Y015074D01*
X012578Y015324D01*
X012328Y015074D01*
X011828Y015074D01*
X011578Y015324D01*
X011328Y015074D01*
X010828Y015074D01*
X010578Y015324D01*
X010328Y015074D01*
X009828Y015074D01*
X009578Y015324D01*
X019735Y014471D02*
X019735Y014294D01*
X019735Y014471D02*
X021546Y014471D01*
X021546Y014294D01*
X020247Y014294D02*
X020247Y013507D01*
X019735Y013507D02*
X019735Y013330D01*
X021546Y013330D01*
X021546Y013507D01*
X023517Y012622D02*
X023517Y012122D01*
X021867Y013372D02*
X021870Y013477D01*
X021877Y013583D01*
X021890Y013687D01*
X021908Y013791D01*
X021931Y013894D01*
X021960Y013996D01*
X021993Y014096D01*
X022031Y014195D01*
X022073Y014291D01*
X022121Y014386D01*
X022173Y014477D01*
X022229Y014566D01*
X022290Y014653D01*
X022355Y014736D01*
X022424Y014816D01*
X022497Y014892D01*
X022573Y014965D01*
X022653Y015034D01*
X022736Y015099D01*
X022823Y015160D01*
X022912Y015216D01*
X023003Y015268D01*
X023098Y015316D01*
X023194Y015358D01*
X023293Y015396D01*
X023393Y015429D01*
X023495Y015458D01*
X023598Y015481D01*
X023702Y015499D01*
X023806Y015512D01*
X023912Y015519D01*
X024017Y015522D01*
X024122Y015519D01*
X024228Y015512D01*
X024332Y015499D01*
X024436Y015481D01*
X024539Y015458D01*
X024641Y015429D01*
X024741Y015396D01*
X024840Y015358D01*
X024936Y015316D01*
X025031Y015268D01*
X025122Y015216D01*
X025211Y015160D01*
X025298Y015099D01*
X025381Y015034D01*
X025461Y014965D01*
X025537Y014892D01*
X025610Y014816D01*
X025679Y014736D01*
X025744Y014653D01*
X025805Y014566D01*
X025861Y014477D01*
X025913Y014386D01*
X025961Y014291D01*
X026003Y014195D01*
X026041Y014096D01*
X026074Y013996D01*
X026103Y013894D01*
X026126Y013791D01*
X026144Y013687D01*
X026157Y013583D01*
X026164Y013477D01*
X026167Y013372D01*
X026164Y013267D01*
X026157Y013161D01*
X026144Y013057D01*
X026126Y012953D01*
X026103Y012850D01*
X026074Y012748D01*
X026041Y012648D01*
X026003Y012549D01*
X025961Y012453D01*
X025913Y012358D01*
X025861Y012267D01*
X025805Y012178D01*
X025744Y012091D01*
X025679Y012008D01*
X025610Y011928D01*
X025537Y011852D01*
X025461Y011779D01*
X025381Y011710D01*
X025298Y011645D01*
X025211Y011584D01*
X025122Y011528D01*
X025031Y011476D01*
X024936Y011428D01*
X024840Y011386D01*
X024741Y011348D01*
X024641Y011315D01*
X024539Y011286D01*
X024436Y011263D01*
X024332Y011245D01*
X024228Y011232D01*
X024122Y011225D01*
X024017Y011222D01*
X023912Y011225D01*
X023806Y011232D01*
X023702Y011245D01*
X023598Y011263D01*
X023495Y011286D01*
X023393Y011315D01*
X023293Y011348D01*
X023194Y011386D01*
X023098Y011428D01*
X023003Y011476D01*
X022912Y011528D01*
X022823Y011584D01*
X022736Y011645D01*
X022653Y011710D01*
X022573Y011779D01*
X022497Y011852D01*
X022424Y011928D01*
X022355Y012008D01*
X022290Y012091D01*
X022229Y012178D01*
X022173Y012267D01*
X022121Y012358D01*
X022073Y012453D01*
X022031Y012549D01*
X021993Y012648D01*
X021960Y012748D01*
X021931Y012850D01*
X021908Y012953D01*
X021890Y013057D01*
X021877Y013161D01*
X021870Y013267D01*
X021867Y013372D01*
X033003Y011558D02*
X033397Y011558D01*
X033397Y005180D01*
X033003Y005180D01*
X033003Y011558D01*
X033397Y011558D02*
X035956Y011558D01*
X035956Y005180D01*
X033397Y005180D01*
X028778Y001385D02*
X028227Y001385D01*
X028778Y001385D02*
X028778Y000597D01*
X028227Y000597D01*
X027440Y000597D02*
X026889Y000597D01*
X026889Y001385D01*
X027440Y001385D01*
X015837Y001507D02*
X015837Y000507D01*
X014837Y000507D01*
X014837Y000757D01*
X014837Y001257D01*
X014837Y001507D01*
X015837Y001507D01*
X014837Y001257D02*
X014587Y001507D01*
X014087Y001507D01*
X013837Y001257D01*
X013837Y000757D01*
X013587Y000507D01*
X013087Y000507D01*
X012837Y000757D01*
X012837Y001257D01*
X013087Y001507D01*
X013587Y001507D01*
X013837Y001257D01*
X013837Y000757D02*
X014087Y000507D01*
X014587Y000507D01*
X014837Y000757D01*
X012837Y000757D02*
X012587Y000507D01*
X012087Y000507D01*
X011837Y000757D01*
X011837Y001257D01*
X012087Y001507D01*
X012587Y001507D01*
X012837Y001257D01*
X011837Y001257D02*
X011587Y001507D01*
X011087Y001507D01*
X010837Y001257D01*
X010837Y000757D01*
X010587Y000507D01*
X010087Y000507D01*
X009837Y000757D01*
X009837Y001257D01*
X010087Y001507D01*
X010587Y001507D01*
X010837Y001257D01*
X010837Y000757D02*
X011087Y000507D01*
X011587Y000507D01*
X011837Y000757D01*
D15*
X011059Y002626D02*
X010639Y002626D01*
X010639Y002746D01*
X011059Y002746D01*
X011059Y002626D01*
X010639Y002586D02*
X010639Y004586D01*
X008879Y004586D01*
X008879Y002586D01*
X009879Y002586D01*
X010639Y002586D01*
X010639Y002886D02*
X011059Y002886D01*
X011059Y003006D01*
X010639Y003006D01*
X010639Y002886D01*
X010639Y003146D02*
X011059Y003146D01*
X011059Y003266D01*
X010639Y003266D01*
X010639Y003146D01*
X010639Y003396D02*
X011059Y003396D01*
X011059Y003516D01*
X010639Y003516D01*
X010639Y003396D01*
X010639Y003656D02*
X011059Y003656D01*
X011059Y003776D01*
X010639Y003776D01*
X010639Y003656D01*
X010639Y003906D02*
X011059Y003906D01*
X011059Y004026D01*
X010639Y004026D01*
X010639Y003906D01*
X010639Y004166D02*
X011059Y004166D01*
X011059Y004286D01*
X010639Y004286D01*
X010639Y004166D01*
X010639Y004426D02*
X011059Y004426D01*
X011059Y004546D01*
X010639Y004546D01*
X010639Y004426D01*
X008879Y004426D02*
X008459Y004426D01*
X008459Y004546D01*
X008879Y004546D01*
X008879Y004426D01*
X008879Y004286D02*
X008459Y004286D01*
X008459Y004166D01*
X008879Y004166D01*
X008879Y004286D01*
X008879Y004026D02*
X008459Y004026D01*
X008459Y003906D01*
X008879Y003906D01*
X008879Y004026D01*
X008879Y003776D02*
X008459Y003776D01*
X008459Y003656D01*
X008879Y003656D01*
X008879Y003776D01*
X008879Y003516D02*
X008459Y003516D01*
X008459Y003396D01*
X008879Y003396D01*
X008879Y003516D01*
X008879Y003266D02*
X008459Y003266D01*
X008459Y003146D01*
X008879Y003146D01*
X008879Y003266D01*
X008879Y003006D02*
X008459Y003006D01*
X008459Y002886D01*
X008879Y002886D01*
X008879Y003006D01*
X008879Y002746D02*
X008459Y002746D01*
X008459Y002626D01*
X008879Y002626D01*
X008879Y002746D01*
X009639Y002576D02*
X009640Y002597D01*
X009645Y002617D01*
X009653Y002637D01*
X009664Y002654D01*
X009678Y002670D01*
X009695Y002682D01*
X009713Y002692D01*
X009733Y002698D01*
X009754Y002701D01*
X009775Y002700D01*
X009795Y002695D01*
X009815Y002687D01*
X009832Y002676D01*
X009848Y002662D01*
X009860Y002645D01*
X009870Y002627D01*
X009876Y002607D01*
X009879Y002586D01*
X006298Y002626D02*
X006298Y002476D01*
X005908Y002476D01*
X005908Y002626D01*
X006298Y002626D01*
X006298Y002736D02*
X005908Y002736D01*
X005908Y002886D01*
X006298Y002886D01*
X006298Y002736D01*
X006298Y002986D02*
X005908Y002986D01*
X005908Y003136D01*
X006298Y003136D01*
X006298Y002986D01*
X006298Y003246D02*
X005908Y003246D01*
X005908Y003396D01*
X006288Y003396D01*
X006298Y003246D01*
X005908Y003546D02*
X005418Y003546D01*
X005178Y003546D01*
X004688Y003546D01*
X004688Y002326D01*
X005908Y002326D01*
X005908Y003546D01*
X005418Y003546D02*
X005416Y003525D01*
X005411Y003505D01*
X005402Y003486D01*
X005390Y003469D01*
X005375Y003454D01*
X005358Y003442D01*
X005339Y003433D01*
X005319Y003428D01*
X005298Y003426D01*
X005277Y003428D01*
X005257Y003433D01*
X005238Y003442D01*
X005221Y003454D01*
X005206Y003469D01*
X005194Y003486D01*
X005185Y003505D01*
X005180Y003525D01*
X005178Y003546D01*
X004688Y003396D02*
X004688Y003246D01*
X004298Y003246D01*
X004298Y003396D01*
X004688Y003396D01*
X004688Y003136D02*
X004298Y003136D01*
X004298Y002986D01*
X004688Y002986D01*
X004688Y002886D02*
X004298Y002886D01*
X004308Y002736D01*
X004688Y002736D01*
X004688Y002886D01*
X004688Y002626D02*
X004298Y002626D01*
X004308Y002476D01*
X004688Y002476D01*
X004688Y002626D01*
X004684Y004055D02*
X004884Y004055D01*
X004884Y004495D01*
X004684Y004495D01*
X004684Y004055D01*
X004384Y004055D02*
X004384Y004495D01*
X004184Y004495D01*
X004184Y004055D01*
X004384Y004055D01*
X004054Y004495D02*
X006014Y004495D01*
X006014Y005395D01*
X006014Y006055D01*
X004054Y006055D01*
X004054Y004495D01*
X005184Y004495D02*
X005184Y004055D01*
X005384Y004055D01*
X005384Y004495D01*
X005184Y004495D01*
X005684Y004495D02*
X005684Y004055D01*
X005884Y004055D01*
X005884Y004495D01*
X005684Y004495D01*
X006024Y005155D02*
X006003Y005156D01*
X005983Y005161D01*
X005963Y005169D01*
X005946Y005180D01*
X005930Y005194D01*
X005918Y005211D01*
X005908Y005229D01*
X005902Y005249D01*
X005899Y005270D01*
X005900Y005291D01*
X005905Y005311D01*
X005913Y005331D01*
X005924Y005348D01*
X005938Y005364D01*
X005955Y005376D01*
X005973Y005386D01*
X005993Y005392D01*
X006014Y005395D01*
X005884Y006055D02*
X005684Y006055D01*
X005684Y006495D01*
X005884Y006495D01*
X005884Y006055D01*
X005384Y006055D02*
X005384Y006495D01*
X005184Y006495D01*
X005184Y006055D01*
X005384Y006055D01*
X004884Y006055D02*
X004884Y006495D01*
X004684Y006495D01*
X004684Y006055D01*
X004884Y006055D01*
X004384Y006055D02*
X004384Y006495D01*
X004184Y006495D01*
X004184Y006055D01*
X004384Y006055D01*
X007697Y007505D02*
X007807Y007505D01*
X007807Y007895D01*
X007697Y007895D01*
X007697Y007505D01*
X007897Y007505D02*
X007997Y007505D01*
X007997Y007895D01*
X007897Y007895D01*
X007897Y007505D01*
X008087Y007505D02*
X008197Y007505D01*
X008197Y007895D01*
X008087Y007895D01*
X008087Y007505D01*
X008287Y007505D02*
X008397Y007505D01*
X008397Y007895D01*
X008287Y007895D01*
X008287Y007505D01*
X008487Y007505D02*
X008587Y007505D01*
X008587Y007895D01*
X008487Y007895D01*
X008487Y007505D01*
X008677Y007505D02*
X008787Y007505D01*
X008787Y007895D01*
X008677Y007895D01*
X008677Y007505D01*
X008877Y007505D02*
X008987Y007505D01*
X008987Y007895D01*
X008877Y007895D01*
X008877Y007505D01*
X009077Y007505D02*
X009177Y007505D01*
X009177Y007895D01*
X009077Y007895D01*
X009077Y007505D01*
X009277Y007505D02*
X009377Y007505D01*
X009377Y007895D01*
X009277Y007895D01*
X009277Y007505D01*
X009467Y007505D02*
X009577Y007505D01*
X009577Y007895D01*
X009467Y007895D01*
X009467Y007505D01*
X009667Y007505D02*
X009777Y007505D01*
X009777Y007895D01*
X009667Y007895D01*
X009667Y007505D01*
X009867Y007505D02*
X009967Y007505D01*
X009967Y007895D01*
X009867Y007895D01*
X009867Y007505D01*
X010057Y007505D02*
X010167Y007505D01*
X010167Y007895D01*
X010057Y007895D01*
X010057Y007505D01*
X010257Y007505D02*
X010367Y007505D01*
X010367Y007895D01*
X010257Y007895D01*
X010257Y007505D01*
X010457Y007505D02*
X010557Y007505D01*
X010557Y007895D01*
X010457Y007895D01*
X010457Y007505D01*
X010647Y007505D02*
X010757Y007505D01*
X010757Y007895D01*
X010697Y007895D01*
X011197Y008395D01*
X011197Y008335D01*
X011587Y008335D01*
X011587Y008445D01*
X011197Y008445D01*
X011197Y008395D01*
X011197Y008535D02*
X011587Y008535D01*
X011587Y008635D01*
X011197Y008635D01*
X011197Y008535D01*
X011197Y008725D02*
X011587Y008725D01*
X011587Y008835D01*
X011197Y008835D01*
X011197Y008725D01*
X011197Y008925D02*
X011587Y008925D01*
X011587Y009035D01*
X011197Y009035D01*
X011197Y008925D01*
X011197Y009125D02*
X011587Y009125D01*
X011587Y009225D01*
X011197Y009225D01*
X011197Y009125D01*
X011197Y009315D02*
X011587Y009315D01*
X011587Y009425D01*
X011197Y009425D01*
X011197Y009315D01*
X011197Y009515D02*
X011587Y009515D01*
X011587Y009625D01*
X011197Y009625D01*
X011197Y009515D01*
X011197Y009715D02*
X011587Y009715D01*
X011587Y009815D01*
X011197Y009815D01*
X011197Y009715D01*
X011197Y009915D02*
X011587Y009915D01*
X011587Y010015D01*
X011197Y010015D01*
X011197Y009915D01*
X011197Y010105D02*
X011587Y010105D01*
X011587Y010215D01*
X011197Y010215D01*
X011197Y010105D01*
X011197Y010305D02*
X011587Y010305D01*
X011587Y010415D01*
X011197Y010415D01*
X011197Y010305D01*
X011197Y010505D02*
X011587Y010505D01*
X011587Y010605D01*
X011197Y010605D01*
X011197Y010505D01*
X011197Y010695D02*
X011587Y010695D01*
X011587Y010805D01*
X011197Y010805D01*
X011197Y010695D01*
X011197Y010895D02*
X011587Y010895D01*
X011587Y011005D01*
X011197Y011005D01*
X011197Y010895D01*
X011197Y011095D02*
X011587Y011095D01*
X011587Y011195D01*
X011197Y011195D01*
X011197Y011095D01*
X011197Y011285D02*
X011587Y011285D01*
X011587Y011395D01*
X011197Y011395D01*
X011197Y011285D01*
X011197Y011835D02*
X011197Y007895D01*
X007257Y007895D01*
X007257Y011835D01*
X011197Y011835D01*
X010757Y011835D02*
X010757Y012225D01*
X010647Y012225D01*
X010647Y011835D01*
X010757Y011835D01*
X010557Y011835D02*
X010557Y012225D01*
X010457Y012225D01*
X010457Y011835D01*
X010557Y011835D01*
X010367Y011835D02*
X010367Y012225D01*
X010257Y012225D01*
X010257Y011835D01*
X010367Y011835D01*
X010167Y011835D02*
X010167Y012225D01*
X010057Y012225D01*
X010057Y011835D01*
X010167Y011835D01*
X009967Y011835D02*
X009967Y012225D01*
X009867Y012225D01*
X009867Y011835D01*
X009967Y011835D01*
X009777Y011835D02*
X009777Y012225D01*
X009667Y012225D01*
X009667Y011835D01*
X009777Y011835D01*
X009577Y011835D02*
X009577Y012225D01*
X009467Y012225D01*
X009467Y011835D01*
X009577Y011835D01*
X009377Y011835D02*
X009377Y012225D01*
X009277Y012225D01*
X009277Y011835D01*
X009377Y011835D01*
X009177Y011835D02*
X009177Y012225D01*
X009077Y012225D01*
X009077Y011835D01*
X009177Y011835D01*
X008987Y011835D02*
X008987Y012225D01*
X008877Y012225D01*
X008877Y011835D01*
X008987Y011835D01*
X008787Y011835D02*
X008787Y012225D01*
X008677Y012225D01*
X008677Y011835D01*
X008787Y011835D01*
X008587Y011835D02*
X008587Y012225D01*
X008487Y012225D01*
X008487Y011835D01*
X008587Y011835D01*
X008397Y011835D02*
X008397Y012225D01*
X008287Y012225D01*
X008287Y011835D01*
X008397Y011835D01*
X008197Y011835D02*
X008197Y012225D01*
X008087Y012225D01*
X008087Y011835D01*
X008197Y011835D01*
X007997Y011835D02*
X007997Y012225D01*
X007897Y012225D01*
X007897Y011835D01*
X007997Y011835D01*
X007807Y011835D02*
X007807Y012225D01*
X007697Y012225D01*
X007697Y011835D01*
X007807Y011835D01*
X007257Y011395D02*
X006867Y011395D01*
X006867Y011285D01*
X007257Y011285D01*
X007257Y011395D01*
X007257Y011195D02*
X006867Y011195D01*
X006867Y011095D01*
X007257Y011095D01*
X007257Y011195D01*
X007257Y011005D02*
X006867Y011005D01*
X006867Y010895D01*
X007257Y010895D01*
X007257Y011005D01*
X007257Y010805D02*
X006867Y010805D01*
X006867Y010695D01*
X007257Y010695D01*
X007257Y010805D01*
X007257Y010605D02*
X006867Y010605D01*
X006867Y010505D01*
X007257Y010505D01*
X007257Y010605D01*
X007257Y010415D02*
X006867Y010415D01*
X006867Y010305D01*
X007257Y010305D01*
X007257Y010415D01*
X007257Y010215D02*
X006867Y010215D01*
X006867Y010105D01*
X007257Y010105D01*
X007257Y010215D01*
X007257Y010015D02*
X006867Y010015D01*
X006867Y009915D01*
X007257Y009915D01*
X007257Y010015D01*
X007257Y009815D02*
X006867Y009815D01*
X006867Y009715D01*
X007257Y009715D01*
X007257Y009815D01*
X007257Y009625D02*
X006867Y009625D01*
X006867Y009515D01*
X007257Y009515D01*
X007257Y009625D01*
X007257Y009425D02*
X006867Y009425D01*
X006867Y009315D01*
X007257Y009315D01*
X007257Y009425D01*
X007257Y009225D02*
X006867Y009225D01*
X006867Y009125D01*
X007257Y009125D01*
X007257Y009225D01*
X007257Y009035D02*
X006867Y009035D01*
X006867Y008925D01*
X007257Y008925D01*
X007257Y009035D01*
X007257Y008835D02*
X006867Y008835D01*
X006867Y008725D01*
X007257Y008725D01*
X007257Y008835D01*
X007257Y008635D02*
X006867Y008635D01*
X006867Y008535D01*
X007257Y008535D01*
X007257Y008635D01*
X007257Y008445D02*
X006867Y008445D01*
X006867Y008335D01*
X007257Y008335D01*
X007257Y008445D01*
X010647Y007895D02*
X010647Y007505D01*
X010647Y007895D02*
X010697Y007895D01*
X015707Y007426D02*
X015707Y007186D01*
X015707Y006086D01*
X015767Y006086D01*
X015767Y005666D01*
X015887Y005666D01*
X015887Y006086D01*
X015767Y006086D01*
X015887Y006086D02*
X015967Y006086D01*
X015967Y005666D01*
X016087Y005666D01*
X016087Y006086D01*
X015967Y006086D01*
X016087Y006086D02*
X016167Y006086D01*
X016167Y005666D01*
X016287Y005666D01*
X016287Y006086D01*
X016167Y006086D01*
X016287Y006086D02*
X016357Y006086D01*
X016357Y005666D01*
X016477Y005666D01*
X016477Y006086D01*
X016357Y006086D01*
X016477Y006086D02*
X016557Y006086D01*
X016557Y005666D01*
X016677Y005666D01*
X016677Y006086D01*
X020297Y006086D01*
X020297Y005666D01*
X020417Y005666D01*
X020417Y006086D01*
X020297Y006086D01*
X020217Y006086D01*
X020217Y005666D01*
X020097Y005666D01*
X020097Y006086D01*
X020217Y006086D01*
X020097Y006086D02*
X020027Y006086D01*
X020027Y005666D01*
X019907Y005666D01*
X019907Y006086D01*
X020027Y006086D01*
X019907Y006086D02*
X019827Y006086D01*
X019827Y005666D01*
X019707Y005666D01*
X019707Y006086D01*
X019827Y006086D01*
X019707Y006086D02*
X019627Y006086D01*
X019627Y005666D01*
X019507Y005666D01*
X019507Y006086D01*
X019627Y006086D01*
X019507Y006086D02*
X019437Y006086D01*
X019437Y005666D01*
X019317Y005666D01*
X019317Y006086D01*
X019437Y006086D01*
X019317Y006086D02*
X019237Y006086D01*
X019237Y005666D01*
X019117Y005666D01*
X019117Y006086D01*
X019237Y006086D01*
X019117Y006086D02*
X019037Y006086D01*
X019037Y005666D01*
X018917Y005666D01*
X018917Y006086D01*
X019037Y006086D01*
X018917Y006086D02*
X018847Y006086D01*
X018847Y005666D01*
X018727Y005666D01*
X018727Y006086D01*
X018847Y006086D01*
X018727Y006086D02*
X018647Y006086D01*
X018647Y005666D01*
X018527Y005666D01*
X018527Y006086D01*
X018647Y006086D01*
X018527Y006086D02*
X018447Y006086D01*
X018447Y005666D01*
X018327Y005666D01*
X018327Y006086D01*
X018447Y006086D01*
X018327Y006086D02*
X018247Y006086D01*
X018247Y005666D01*
X018127Y005666D01*
X018127Y006086D01*
X018247Y006086D01*
X018127Y006086D02*
X018057Y006086D01*
X018057Y005666D01*
X017937Y005666D01*
X017937Y006086D01*
X018057Y006086D01*
X017937Y006086D02*
X017857Y006086D01*
X017857Y005666D01*
X017737Y005666D01*
X017737Y006086D01*
X017857Y006086D01*
X017737Y006086D02*
X017657Y006086D01*
X017657Y005666D01*
X017537Y005666D01*
X017537Y006086D01*
X017657Y006086D01*
X017537Y006086D02*
X017467Y006086D01*
X017467Y005666D01*
X017347Y005666D01*
X017347Y006086D01*
X017467Y006086D01*
X017347Y006086D02*
X017267Y006086D01*
X017267Y005666D01*
X017147Y005666D01*
X017147Y006086D01*
X017267Y006086D01*
X017147Y006086D02*
X017067Y006086D01*
X017067Y005666D01*
X016947Y005666D01*
X016947Y006086D01*
X017067Y006086D01*
X016947Y006086D02*
X016877Y006086D01*
X016877Y005666D01*
X016757Y005666D01*
X016757Y006086D01*
X016877Y006086D01*
X016757Y006086D02*
X016677Y006086D01*
X016557Y006086D01*
X015707Y007186D02*
X015728Y007188D01*
X015748Y007193D01*
X015767Y007202D01*
X015784Y007214D01*
X015799Y007229D01*
X015811Y007246D01*
X015820Y007265D01*
X015825Y007285D01*
X015827Y007306D01*
X015825Y007327D01*
X015820Y007347D01*
X015811Y007366D01*
X015799Y007383D01*
X015784Y007398D01*
X015767Y007410D01*
X015748Y007419D01*
X015728Y007424D01*
X015707Y007426D01*
X015707Y008526D01*
X015767Y008526D01*
X015767Y008946D01*
X015887Y008946D01*
X015887Y008526D01*
X015767Y008526D01*
X015887Y008526D02*
X015967Y008526D01*
X015967Y008946D01*
X016087Y008946D01*
X016087Y008526D01*
X015967Y008526D01*
X016087Y008526D02*
X016167Y008526D01*
X016167Y008946D01*
X016287Y008946D01*
X016287Y008526D01*
X016167Y008526D01*
X016287Y008526D02*
X016357Y008526D01*
X016357Y008946D01*
X016477Y008946D01*
X016477Y008526D01*
X016357Y008526D01*
X016477Y008526D02*
X016557Y008526D01*
X016557Y008946D01*
X016677Y008946D01*
X016677Y008526D01*
X016557Y008526D01*
X016677Y008526D02*
X016757Y008526D01*
X016757Y008946D01*
X016877Y008946D01*
X016877Y008526D01*
X020097Y008526D01*
X020097Y008946D01*
X020217Y008946D01*
X020217Y008526D01*
X020097Y008526D01*
X020027Y008526D01*
X020027Y008946D01*
X019907Y008946D01*
X019907Y008526D01*
X020027Y008526D01*
X019907Y008526D02*
X019827Y008526D01*
X019827Y008946D01*
X019707Y008946D01*
X019707Y008526D01*
X019827Y008526D01*
X019707Y008526D02*
X019627Y008526D01*
X019627Y008946D01*
X019507Y008946D01*
X019507Y008526D01*
X019627Y008526D01*
X019507Y008526D02*
X019437Y008526D01*
X019437Y008946D01*
X019317Y008946D01*
X019317Y008526D01*
X019437Y008526D01*
X019317Y008526D02*
X019237Y008526D01*
X019237Y008946D01*
X019117Y008946D01*
X019117Y008526D01*
X019237Y008526D01*
X019117Y008526D02*
X019037Y008526D01*
X019037Y008946D01*
X018917Y008946D01*
X018917Y008526D01*
X019037Y008526D01*
X018917Y008526D02*
X018847Y008526D01*
X018847Y008946D01*
X018727Y008946D01*
X018727Y008526D01*
X018847Y008526D01*
X018727Y008526D02*
X018647Y008526D01*
X018647Y008946D01*
X018527Y008946D01*
X018527Y008526D01*
X018647Y008526D01*
X018527Y008526D02*
X018447Y008526D01*
X018447Y008946D01*
X018327Y008946D01*
X018327Y008526D01*
X018447Y008526D01*
X018327Y008526D02*
X018247Y008526D01*
X018247Y008946D01*
X018127Y008946D01*
X018127Y008526D01*
X018247Y008526D01*
X018127Y008526D02*
X018057Y008526D01*
X018057Y008946D01*
X017937Y008946D01*
X017937Y008526D01*
X018057Y008526D01*
X017937Y008526D02*
X017857Y008526D01*
X017857Y008946D01*
X017737Y008946D01*
X017737Y008526D01*
X017857Y008526D01*
X017737Y008526D02*
X017657Y008526D01*
X017657Y008946D01*
X017537Y008946D01*
X017537Y008526D01*
X017657Y008526D01*
X017537Y008526D02*
X017467Y008526D01*
X017467Y008946D01*
X017347Y008946D01*
X017347Y008526D01*
X017467Y008526D01*
X017347Y008526D02*
X017267Y008526D01*
X017267Y008946D01*
X017147Y008946D01*
X017147Y008526D01*
X017267Y008526D01*
X017147Y008526D02*
X017067Y008526D01*
X017067Y008946D01*
X016947Y008946D01*
X016947Y008526D01*
X017067Y008526D01*
X016947Y008526D02*
X016877Y008526D01*
X016757Y008526D01*
X015707Y007426D02*
X015728Y007424D01*
X015748Y007419D01*
X015767Y007410D01*
X015784Y007398D01*
X015799Y007383D01*
X015811Y007366D01*
X015820Y007347D01*
X015825Y007327D01*
X015827Y007306D01*
X015825Y007285D01*
X015820Y007265D01*
X015811Y007246D01*
X015799Y007229D01*
X015784Y007214D01*
X015767Y007202D01*
X015748Y007193D01*
X015728Y007188D01*
X015707Y007186D01*
X020217Y008526D02*
X020297Y008526D01*
X020297Y008946D01*
X020417Y008946D01*
X020417Y008526D01*
X020297Y008526D01*
X020417Y008526D02*
X020497Y008526D01*
X020497Y008946D01*
X020617Y008946D01*
X020617Y008526D01*
X020497Y008526D01*
X020617Y008526D02*
X020687Y008526D01*
X020687Y008946D01*
X020807Y008946D01*
X020807Y008526D01*
X020687Y008526D01*
X020807Y008526D02*
X020887Y008526D01*
X020887Y008946D01*
X021007Y008946D01*
X021007Y008526D01*
X020887Y008526D01*
X021007Y008526D02*
X021087Y008526D01*
X021087Y008946D01*
X021207Y008946D01*
X021207Y008526D01*
X021087Y008526D01*
X021207Y008526D02*
X021267Y008526D01*
X021267Y006086D01*
X021207Y006086D01*
X021207Y005666D01*
X021087Y005666D01*
X021087Y006086D01*
X021207Y006086D01*
X021087Y006086D02*
X021007Y006086D01*
X021007Y005666D01*
X020887Y005666D01*
X020887Y006086D01*
X021007Y006086D01*
X020887Y006086D02*
X020807Y006086D01*
X020807Y005666D01*
X020687Y005666D01*
X020687Y006086D01*
X020807Y006086D01*
X020687Y006086D02*
X020617Y006086D01*
X020617Y005666D01*
X020497Y005666D01*
X020497Y006086D01*
X020617Y006086D01*
X020497Y006086D02*
X020417Y006086D01*
D16*
X015664Y005825D02*
X015350Y005511D01*
X015664Y005825D01*
X015664Y005668D02*
X015350Y005668D01*
X015664Y005668D01*
X015664Y005511D02*
X015350Y005825D01*
X015664Y005511D01*
X015507Y005511D02*
X015507Y005825D01*
X015507Y005511D01*
X012192Y007988D02*
X011879Y008302D01*
X012035Y008302D02*
X012035Y007988D01*
X011879Y007988D02*
X012192Y008302D01*
X012192Y008145D02*
X011879Y008145D01*
X006361Y006560D02*
X006048Y006246D01*
X006205Y006246D02*
X006205Y006560D01*
X006048Y006560D02*
X006361Y006246D01*
X006361Y006403D02*
X006048Y006403D01*
X004447Y003843D02*
X004133Y003529D01*
X004290Y003529D02*
X004290Y003843D01*
X004133Y003843D02*
X004447Y003529D01*
X004447Y003686D02*
X004133Y003686D01*
X010870Y002502D02*
X011184Y002189D01*
X011184Y002345D02*
X010870Y002345D01*
X010870Y002189D02*
X011184Y002502D01*
X011027Y002502D02*
X011027Y002189D01*
D17*
X013919Y007137D02*
X013844Y007212D01*
X013919Y007137D02*
X014069Y007137D01*
X014144Y007212D01*
X014144Y007287D01*
X014069Y007362D01*
X013919Y007362D01*
X013844Y007437D01*
X013844Y007512D01*
X013919Y007587D01*
X014069Y007587D01*
X014144Y007512D01*
X014454Y007587D02*
X014605Y007587D01*
X014529Y007587D02*
X014529Y007212D01*
X014454Y007137D01*
X014379Y007137D01*
X014304Y007212D01*
X014765Y007137D02*
X015065Y007137D01*
X014915Y007137D02*
X014915Y007587D01*
X014765Y007437D01*
X004727Y007936D02*
X003664Y007936D01*
X002994Y007835D02*
X002994Y007609D01*
X002836Y007727D01*
X002836Y007905D01*
X002994Y007835D02*
X002836Y007727D01*
X002836Y007560D01*
X002836Y008150D02*
X002836Y008318D01*
X002836Y008495D01*
X002994Y008426D02*
X002836Y008318D01*
X002994Y008200D01*
X002994Y008426D01*
X002836Y008741D02*
X002836Y008908D01*
X002836Y009086D01*
X002994Y009017D02*
X002836Y008908D01*
X002994Y008790D01*
X002994Y009017D01*
X002836Y009383D02*
X002836Y009550D01*
X002836Y009728D01*
X002994Y009658D02*
X002836Y009550D01*
X002994Y009432D01*
X002994Y009658D01*
X003664Y009290D02*
X004727Y009290D01*
X016483Y013322D02*
X016483Y014227D01*
X016982Y014621D02*
X016984Y014677D01*
X016990Y014734D01*
X017000Y014789D01*
X017014Y014844D01*
X017031Y014898D01*
X017053Y014950D01*
X017078Y015000D01*
X017106Y015049D01*
X017138Y015096D01*
X017173Y015140D01*
X017211Y015182D01*
X017252Y015221D01*
X017296Y015256D01*
X017342Y015289D01*
X017390Y015318D01*
X017440Y015344D01*
X017492Y015367D01*
X017546Y015385D01*
X017600Y015400D01*
X017655Y015411D01*
X017711Y015418D01*
X017768Y015421D01*
X017824Y015420D01*
X017881Y015415D01*
X017936Y015406D01*
X017991Y015393D01*
X018045Y015376D01*
X018098Y015356D01*
X018149Y015332D01*
X018198Y015304D01*
X018245Y015273D01*
X018290Y015239D01*
X018333Y015201D01*
X018372Y015161D01*
X018409Y015118D01*
X018442Y015073D01*
X018472Y015025D01*
X018499Y014975D01*
X018522Y014924D01*
X018542Y014871D01*
X018558Y014817D01*
X018570Y014761D01*
X018578Y014706D01*
X018582Y014649D01*
X018582Y014593D01*
X018578Y014536D01*
X018570Y014481D01*
X018558Y014425D01*
X018542Y014371D01*
X018522Y014318D01*
X018499Y014267D01*
X018472Y014217D01*
X018442Y014169D01*
X018409Y014124D01*
X018372Y014081D01*
X018333Y014041D01*
X018290Y014003D01*
X018245Y013969D01*
X018198Y013938D01*
X018149Y013910D01*
X018098Y013886D01*
X018045Y013866D01*
X017991Y013849D01*
X017936Y013836D01*
X017881Y013827D01*
X017824Y013822D01*
X017768Y013821D01*
X017711Y013824D01*
X017655Y013831D01*
X017600Y013842D01*
X017546Y013857D01*
X017492Y013875D01*
X017440Y013898D01*
X017390Y013924D01*
X017342Y013953D01*
X017296Y013986D01*
X017252Y014021D01*
X017211Y014060D01*
X017173Y014102D01*
X017138Y014146D01*
X017106Y014193D01*
X017078Y014242D01*
X017053Y014292D01*
X017031Y014344D01*
X017014Y014398D01*
X017000Y014453D01*
X016990Y014508D01*
X016984Y014565D01*
X016982Y014621D01*
X016483Y015015D02*
X016483Y015920D01*
X019082Y015920D01*
X019082Y015015D01*
X019082Y014227D02*
X019082Y013322D01*
X016483Y013322D01*
X027904Y014456D02*
X031904Y014456D01*
X031904Y016456D01*
X027904Y016456D01*
X027904Y014456D01*
X026786Y002125D02*
X022786Y002125D01*
X022786Y000125D01*
X026786Y000125D01*
X026786Y002125D01*
D18*
X029782Y004964D03*
X030967Y005003D03*
X028145Y007739D03*
X030967Y009491D03*
X028145Y010755D03*
X031448Y013861D03*
D19*
X035307Y010795D02*
X035332Y010795D01*
X035432Y010695D01*
X035457Y010695D01*
X035407Y010623D02*
X035407Y010548D01*
X035457Y010548D02*
X035307Y010548D01*
X035307Y010623D01*
X035332Y010648D01*
X035382Y010648D01*
X035407Y010623D01*
X035307Y010695D02*
X035307Y010795D01*
X035307Y010501D02*
X035307Y010451D01*
X035307Y010476D02*
X035432Y010476D01*
X035457Y010451D01*
X035457Y010426D01*
X035432Y010401D01*
M02*
