G75*
G70*
%OFA0B0*%
%FSLAX24Y24*%
%IPPOS*%
%LPD*%
%AMOC8*
5,1,8,0,0,1.08239X$1,22.5*
%
%ADD10C,0.0740*%
%ADD11R,0.0397X0.0397*%
%ADD12C,0.1400*%
%ADD13C,0.0650*%
%ADD14R,0.0650X0.0650*%
%ADD15R,0.0800X0.0800*%
%ADD16C,0.0800*%
%ADD17C,0.0356*%
%ADD18R,0.0356X0.0356*%
%ADD19C,0.0100*%
%ADD20C,0.0120*%
%ADD21C,0.0240*%
%ADD22C,0.0079*%
D10*
X003841Y001107D03*
X004841Y001007D03*
X005841Y001107D03*
X006841Y001007D03*
X007841Y001107D03*
X008841Y001007D03*
X010337Y001057D03*
X011337Y000957D03*
X012337Y001057D03*
X013337Y000957D03*
X014337Y001057D03*
X015337Y000957D03*
X001114Y003960D03*
X001214Y004960D03*
X001114Y005960D03*
X001114Y007735D03*
X001214Y008735D03*
X001114Y009735D03*
X001214Y010735D03*
X001114Y011735D03*
X001214Y012735D03*
X003782Y015574D03*
X004782Y015574D03*
X005782Y015574D03*
X006782Y015574D03*
X007782Y015574D03*
X008782Y015574D03*
X010078Y015574D03*
X011078Y015574D03*
X012078Y015574D03*
X013078Y015574D03*
X014078Y015574D03*
X015078Y015574D03*
D11*
X026562Y009495D03*
X027062Y009495D03*
X027562Y009495D03*
X027562Y008995D03*
X027062Y008995D03*
X026562Y008995D03*
X026562Y008495D03*
X027062Y008495D03*
X027562Y008495D03*
X028708Y010074D03*
X029208Y010074D03*
X029708Y010074D03*
X029708Y010574D03*
X029208Y010574D03*
X028708Y010574D03*
X028708Y011074D03*
X029208Y011074D03*
X029708Y011074D03*
X032708Y012279D03*
X033208Y012279D03*
X033708Y012279D03*
X033708Y012779D03*
X033208Y012779D03*
X032708Y012779D03*
X032708Y013279D03*
X033208Y013279D03*
X033708Y013279D03*
X029708Y006586D03*
X029208Y006586D03*
X028708Y006586D03*
X028708Y006086D03*
X029208Y006086D03*
X029708Y006086D03*
X029708Y005586D03*
X029208Y005586D03*
X028708Y005586D03*
X027562Y005479D03*
X027062Y005479D03*
X026562Y005479D03*
X026562Y005979D03*
X027062Y005979D03*
X027562Y005979D03*
X027562Y006479D03*
X027062Y006479D03*
X026562Y006479D03*
X031042Y004381D03*
X031542Y004381D03*
X032042Y004381D03*
X032042Y003881D03*
X031542Y003881D03*
X031042Y003881D03*
X031042Y003381D03*
X031542Y003381D03*
X032042Y003381D03*
X019487Y006806D03*
X018987Y006806D03*
X018487Y006806D03*
X017987Y006806D03*
X017487Y006806D03*
X017487Y007306D03*
X017987Y007306D03*
X018487Y007306D03*
X018987Y007306D03*
X019487Y007306D03*
X019487Y007806D03*
X018987Y007806D03*
X018487Y007806D03*
X017987Y007806D03*
X017487Y007806D03*
D12*
X023786Y001125D03*
X025786Y001125D03*
X028904Y015456D03*
X030904Y015456D03*
D13*
X024017Y012372D03*
D14*
X024017Y014372D03*
D15*
X034302Y010338D03*
D16*
X034302Y008369D03*
X034302Y006401D03*
D17*
X026479Y001991D03*
X026963Y001735D03*
X027432Y001735D03*
X025302Y001991D03*
X022058Y001700D03*
X020074Y001727D03*
X019298Y001239D03*
X018487Y001204D03*
X017180Y001684D03*
X016456Y001357D03*
X017097Y002554D03*
X019727Y002471D03*
X020684Y003637D03*
X020456Y004353D03*
X022621Y004511D03*
X022015Y005865D03*
X023408Y006479D03*
X023015Y006873D03*
X022999Y007523D03*
X021554Y007015D03*
X020554Y006924D03*
X020208Y006515D03*
X020649Y007873D03*
X022239Y008519D03*
X022219Y009097D03*
X022030Y009865D03*
X021637Y010259D03*
X020412Y011282D03*
X021704Y012019D03*
X021046Y012779D03*
X018507Y011212D03*
X018011Y010755D03*
X018771Y010176D03*
X019176Y009444D03*
X016519Y007999D03*
X016519Y007109D03*
X016889Y006688D03*
X016361Y006412D03*
X015054Y006180D03*
X017463Y005184D03*
X016149Y004586D03*
X012058Y005538D03*
X011204Y004905D03*
X009936Y005117D03*
X008160Y005054D03*
X007641Y005046D03*
X006822Y005027D03*
X006881Y005656D03*
X007070Y006322D03*
X007070Y007109D03*
X006924Y007605D03*
X005810Y007034D03*
X004778Y007070D03*
X004286Y007377D03*
X003471Y007038D03*
X001960Y006865D03*
X005397Y007842D03*
X005337Y009605D03*
X005802Y009822D03*
X006373Y009928D03*
X005767Y010779D03*
X006231Y011160D03*
X004897Y011491D03*
X003172Y011873D03*
X002385Y011873D03*
X003822Y012660D03*
X007794Y010948D03*
X009389Y010479D03*
X010219Y011046D03*
X010822Y011105D03*
X009861Y011483D03*
X011400Y012227D03*
X011337Y013302D03*
X012038Y013216D03*
X013582Y014058D03*
X014558Y014901D03*
X016046Y014842D03*
X016046Y015436D03*
X017326Y014731D03*
X017786Y014944D03*
X018231Y014731D03*
X015928Y013960D03*
X014944Y013070D03*
X014550Y012621D03*
X016117Y009861D03*
X013432Y008645D03*
X012188Y008290D03*
X010562Y008822D03*
X009826Y008684D03*
X009814Y009259D03*
X011503Y006523D03*
X005692Y005298D03*
X005432Y003247D03*
X003330Y002523D03*
X002149Y003330D03*
X011956Y002420D03*
X011999Y003145D03*
X011991Y003723D03*
X023802Y010416D03*
D18*
X025696Y009771D03*
X028479Y008952D03*
X028873Y008952D03*
X029267Y008952D03*
X029660Y008952D03*
X029660Y008558D03*
X029267Y008558D03*
X029267Y008164D03*
X029660Y008164D03*
X029660Y007771D03*
X029267Y007771D03*
X028873Y007771D03*
X028479Y007771D03*
X028479Y008164D03*
X028873Y008164D03*
X028873Y008558D03*
X028479Y008558D03*
X025771Y007660D03*
X031589Y006834D03*
X031637Y006208D03*
X032030Y006208D03*
X032424Y006208D03*
X032818Y006208D03*
X032818Y005814D03*
X032424Y005814D03*
X032030Y005814D03*
X031637Y005814D03*
X031637Y005420D03*
X032030Y005420D03*
X032424Y005420D03*
X032818Y005420D03*
X031503Y002511D03*
X031676Y001361D03*
X031282Y001361D03*
X030889Y001361D03*
X030495Y001361D03*
X030101Y001361D03*
X029708Y001361D03*
X029314Y001361D03*
X029314Y000968D03*
X029708Y000968D03*
X030101Y000968D03*
X030495Y000968D03*
X030889Y000968D03*
X031282Y000968D03*
X031676Y000968D03*
X029160Y002345D03*
X026141Y003503D03*
X026141Y003897D03*
X026141Y004290D03*
X024196Y004377D03*
X023589Y003983D03*
X022109Y000968D03*
X031637Y009948D03*
X032030Y009948D03*
X032424Y009948D03*
X032818Y009948D03*
X032818Y010342D03*
X032424Y010342D03*
X032030Y010342D03*
X031637Y010342D03*
X031637Y010735D03*
X032030Y010735D03*
X032424Y010735D03*
X032818Y010735D03*
X031956Y011393D03*
X031471Y011393D03*
X027739Y012385D03*
X027739Y012779D03*
X027739Y013172D03*
X030570Y014153D03*
X023015Y014353D03*
X022227Y012838D03*
D19*
X000925Y000644D02*
X000644Y000925D01*
X000446Y001269D01*
X000343Y001652D01*
X000330Y001850D01*
X000330Y015249D01*
X000343Y015418D01*
X000343Y015418D01*
X000448Y015740D01*
X000646Y016013D01*
X000920Y016212D01*
X001241Y016316D01*
X001410Y016329D01*
X034052Y016329D01*
X034210Y016319D01*
X034517Y016237D01*
X034791Y016078D01*
X035015Y015854D01*
X035174Y015580D01*
X035256Y015273D01*
X035266Y015115D01*
X035266Y009690D01*
X035257Y009694D01*
X035257Y009694D01*
X035256Y009694D01*
X035241Y009694D01*
X035253Y013520D01*
X035253Y013521D01*
X035253Y013570D01*
X035253Y013619D01*
X035253Y013620D01*
X035234Y013665D01*
X035215Y013711D01*
X035215Y013711D01*
X035214Y013712D01*
X035180Y013747D01*
X035145Y013781D01*
X035144Y013782D01*
X035099Y013801D01*
X035053Y013820D01*
X035053Y013820D01*
X035052Y013820D01*
X035003Y013820D01*
X034954Y013820D01*
X034953Y013820D01*
X034418Y013818D01*
X034673Y013930D01*
X034673Y013930D01*
X034989Y014221D01*
X035194Y014599D01*
X035265Y015023D01*
X035194Y015446D01*
X035194Y015446D01*
X034989Y015824D01*
X034673Y016115D01*
X034280Y016288D01*
X033852Y016323D01*
X033852Y016323D01*
X033435Y016218D01*
X033076Y015983D01*
X033076Y015983D01*
X032812Y015644D01*
X032812Y015644D01*
X032672Y015237D01*
X032672Y014808D01*
X032812Y014402D01*
X032812Y014402D01*
X033076Y014063D01*
X033435Y013828D01*
X033435Y013828D01*
X033483Y013815D01*
X032954Y013814D01*
X032954Y013923D01*
X032954Y013972D01*
X032954Y014021D01*
X032953Y014022D01*
X032953Y014023D01*
X032934Y014068D01*
X032916Y014113D01*
X032915Y014114D01*
X032915Y014114D01*
X032880Y014149D01*
X032845Y014183D01*
X032844Y014184D01*
X032293Y014728D01*
X032259Y014762D01*
X032258Y014762D01*
X032257Y014763D01*
X032212Y014781D01*
X032167Y014800D01*
X032166Y014800D01*
X032165Y014801D01*
X032116Y014800D01*
X031394Y014800D01*
X031591Y014997D01*
X031714Y015295D01*
X031714Y015617D01*
X031591Y015915D01*
X031363Y016142D01*
X031066Y016266D01*
X030743Y016266D01*
X030446Y016142D01*
X030218Y015915D01*
X030094Y015617D01*
X030094Y015295D01*
X030218Y014997D01*
X030414Y014800D01*
X030260Y014800D01*
X030212Y014801D01*
X030211Y014800D01*
X030209Y014800D01*
X030164Y014782D01*
X030120Y014764D01*
X030119Y014763D01*
X030117Y014762D01*
X030083Y014728D01*
X029822Y014473D01*
X026772Y014473D01*
X026680Y014435D01*
X026061Y013816D01*
X021784Y013816D01*
X021692Y013778D01*
X021071Y013157D01*
X020971Y013157D01*
X020832Y013099D01*
X020726Y012993D01*
X020668Y012854D01*
X020668Y012703D01*
X020726Y012564D01*
X020832Y012458D01*
X020971Y012400D01*
X021121Y012400D01*
X021260Y012458D01*
X021367Y012564D01*
X021424Y012703D01*
X021424Y012803D01*
X021937Y013316D01*
X026214Y013316D01*
X026306Y013354D01*
X026376Y013424D01*
X026925Y013973D01*
X027006Y013973D01*
X026346Y013314D01*
X026308Y013222D01*
X026308Y012488D01*
X024180Y010361D01*
X024180Y010492D01*
X024123Y010631D01*
X024016Y010737D01*
X023877Y010794D01*
X023777Y010794D01*
X022477Y012095D01*
X022477Y012459D01*
X022488Y012459D01*
X022605Y012577D01*
X022605Y013099D01*
X022488Y013216D01*
X021966Y013216D01*
X021849Y013099D01*
X021849Y012577D01*
X021966Y012459D01*
X021977Y012459D01*
X021977Y012280D01*
X021918Y012339D01*
X021779Y012397D01*
X021628Y012397D01*
X021489Y012339D01*
X021383Y012233D01*
X021326Y012094D01*
X021326Y011943D01*
X021383Y011805D01*
X021454Y011734D01*
X021454Y010922D01*
X021492Y010830D01*
X021685Y010637D01*
X021561Y010637D01*
X021434Y010584D01*
X021434Y011549D01*
X021396Y011641D01*
X020668Y012369D01*
X020597Y012439D01*
X020505Y012477D01*
X014900Y012477D01*
X014928Y012546D01*
X014928Y012696D01*
X014871Y012835D01*
X014764Y012942D01*
X014625Y012999D01*
X014475Y012999D01*
X014336Y012942D01*
X014230Y012835D01*
X014172Y012696D01*
X014172Y012546D01*
X014200Y012477D01*
X012926Y012477D01*
X012834Y012439D01*
X012084Y011690D01*
X010449Y011690D01*
X010357Y011652D01*
X010239Y011534D01*
X010239Y011558D01*
X010182Y011697D01*
X010075Y011804D01*
X009936Y011861D01*
X009786Y011861D01*
X009647Y011804D01*
X009541Y011697D01*
X009483Y011558D01*
X009483Y011408D01*
X009541Y011269D01*
X009647Y011163D01*
X009786Y011105D01*
X009841Y011105D01*
X009841Y010971D01*
X009899Y010832D01*
X010005Y010726D01*
X010144Y010668D01*
X010295Y010668D01*
X010434Y010726D01*
X010540Y010832D01*
X010546Y010846D01*
X010608Y010785D01*
X010747Y010727D01*
X010897Y010727D01*
X011036Y010785D01*
X011142Y010891D01*
X011200Y011030D01*
X011200Y011181D01*
X011196Y011190D01*
X012238Y011190D01*
X012329Y011228D01*
X012400Y011298D01*
X013079Y011977D01*
X020352Y011977D01*
X020934Y011395D01*
X020934Y008122D01*
X020863Y008194D01*
X020724Y008251D01*
X020573Y008251D01*
X020434Y008194D01*
X020328Y008087D01*
X020270Y007948D01*
X020270Y007798D01*
X020328Y007659D01*
X020434Y007552D01*
X020573Y007495D01*
X020622Y007495D01*
X020394Y007267D01*
X020340Y007245D01*
X020233Y007138D01*
X020176Y006999D01*
X020176Y006893D01*
X020132Y006893D01*
X019993Y006835D01*
X019887Y006729D01*
X019829Y006590D01*
X019829Y006440D01*
X019887Y006301D01*
X019993Y006194D01*
X020132Y006137D01*
X020283Y006137D01*
X020422Y006194D01*
X020528Y006301D01*
X020586Y006440D01*
X020586Y006546D01*
X020629Y006546D01*
X020768Y006604D01*
X020875Y006710D01*
X020932Y006849D01*
X020932Y006999D01*
X020903Y007069D01*
X021326Y007492D01*
X021396Y007562D01*
X021434Y007654D01*
X021434Y009399D01*
X021499Y009334D01*
X021542Y009291D01*
X021634Y009253D01*
X021972Y009253D01*
X021931Y009155D01*
X021931Y009040D01*
X021975Y008934D01*
X022056Y008853D01*
X022057Y008853D01*
X022025Y008839D01*
X021919Y008733D01*
X021861Y008594D01*
X021861Y008443D01*
X021919Y008305D01*
X022025Y008198D01*
X022164Y008141D01*
X022314Y008141D01*
X022453Y008198D01*
X022560Y008305D01*
X022599Y008399D01*
X023793Y008399D01*
X023698Y008304D01*
X022965Y008304D01*
X022873Y008266D01*
X022479Y007872D01*
X022409Y007802D01*
X022371Y007710D01*
X022371Y006189D01*
X022298Y006116D01*
X022229Y006186D01*
X022090Y006243D01*
X021939Y006243D01*
X021800Y006186D01*
X021694Y006079D01*
X021637Y005940D01*
X021637Y005790D01*
X021694Y005651D01*
X021800Y005545D01*
X021939Y005487D01*
X022090Y005487D01*
X022229Y005545D01*
X022299Y005615D01*
X022450Y005615D01*
X022542Y005653D01*
X022763Y005874D01*
X022833Y005944D01*
X022871Y006036D01*
X022871Y006523D01*
X022939Y006495D01*
X023030Y006495D01*
X023030Y006404D01*
X023088Y006265D01*
X023194Y006159D01*
X023333Y006101D01*
X023484Y006101D01*
X023623Y006159D01*
X023693Y006229D01*
X024245Y006229D01*
X024337Y006267D01*
X024408Y006338D01*
X024866Y006796D01*
X028399Y006796D01*
X028399Y006342D01*
X028405Y006336D01*
X028399Y006330D01*
X028399Y005842D01*
X028405Y005836D01*
X028399Y005830D01*
X028399Y005342D01*
X028429Y005312D01*
X027870Y005312D01*
X027870Y005723D01*
X027864Y005729D01*
X027870Y005735D01*
X027870Y006223D01*
X027864Y006229D01*
X027870Y006235D01*
X027870Y006723D01*
X027806Y006788D01*
X027318Y006788D01*
X027312Y006782D01*
X027306Y006788D01*
X026818Y006788D01*
X026812Y006782D01*
X026806Y006788D01*
X026318Y006788D01*
X026253Y006723D01*
X026253Y006235D01*
X026259Y006229D01*
X026253Y006223D01*
X026253Y005735D01*
X026259Y005729D01*
X026253Y005723D01*
X026253Y005312D01*
X019024Y005312D01*
X018108Y006227D01*
X018038Y006298D01*
X017946Y006336D01*
X017197Y006336D01*
X017139Y006394D01*
X017139Y006403D01*
X017209Y006474D01*
X017226Y006515D01*
X017243Y006498D01*
X017731Y006498D01*
X017737Y006504D01*
X017743Y006498D01*
X018231Y006498D01*
X018237Y006504D01*
X018243Y006498D01*
X018731Y006498D01*
X018737Y006504D01*
X018743Y006498D01*
X019231Y006498D01*
X019237Y006504D01*
X019243Y006498D01*
X019731Y006498D01*
X019796Y006562D01*
X019796Y007050D01*
X019789Y007056D01*
X019796Y007062D01*
X019796Y007550D01*
X019789Y007556D01*
X019796Y007562D01*
X019796Y008050D01*
X019731Y008115D01*
X019243Y008115D01*
X019237Y008109D01*
X019231Y008115D01*
X018743Y008115D01*
X018737Y008109D01*
X018731Y008115D01*
X018243Y008115D01*
X018237Y008109D01*
X018231Y008115D01*
X017743Y008115D01*
X017737Y008109D01*
X017731Y008115D01*
X017243Y008115D01*
X017179Y008050D01*
X017179Y007562D01*
X017185Y007556D01*
X017179Y007550D01*
X017179Y007062D01*
X017185Y007056D01*
X017179Y007050D01*
X017179Y006933D01*
X017103Y007009D01*
X016964Y007066D01*
X016813Y007066D01*
X016807Y007063D01*
X016807Y007167D01*
X016763Y007272D01*
X017179Y007272D01*
X017179Y007174D02*
X016804Y007174D01*
X016807Y007075D02*
X017179Y007075D01*
X017179Y006977D02*
X017135Y006977D01*
X016889Y006688D02*
X016889Y006290D01*
X017093Y006086D01*
X017897Y006086D01*
X018920Y005062D01*
X030432Y005062D01*
X030790Y005420D01*
X031637Y005420D01*
X030513Y005401D02*
X034979Y005401D01*
X034979Y005499D02*
X030513Y005499D01*
X030513Y005598D02*
X034979Y005598D01*
X034979Y005696D02*
X030512Y005696D01*
X030512Y005795D02*
X034979Y005795D01*
X034979Y005893D02*
X030512Y005893D01*
X030512Y005992D02*
X034979Y005992D01*
X034979Y006090D02*
X030512Y006090D01*
X030511Y006189D02*
X034979Y006189D01*
X034979Y006287D02*
X030511Y006287D01*
X030511Y006386D02*
X034979Y006386D01*
X034979Y006484D02*
X031999Y006484D01*
X031999Y006479D02*
X030511Y006475D01*
X030519Y002956D01*
X033149Y002958D01*
X033277Y003042D01*
X033277Y003042D01*
X033725Y003155D01*
X033725Y003155D01*
X034186Y003117D01*
X034186Y003117D01*
X034546Y002959D01*
X034979Y002960D01*
X034979Y007007D01*
X032007Y007007D01*
X031999Y006479D01*
X032000Y006583D02*
X034979Y006583D01*
X034979Y006681D02*
X032002Y006681D01*
X032003Y006780D02*
X034979Y006780D01*
X034979Y006878D02*
X032005Y006878D01*
X032006Y006977D02*
X034979Y006977D01*
X035219Y007267D02*
X026558Y007267D01*
X026546Y009444D01*
X035208Y009444D01*
X035219Y007267D01*
X035219Y007272D02*
X026558Y007272D01*
X026557Y007371D02*
X035219Y007371D01*
X035218Y007469D02*
X026557Y007469D01*
X026556Y007568D02*
X035218Y007568D01*
X035217Y007666D02*
X026556Y007666D01*
X026555Y007765D02*
X035217Y007765D01*
X035216Y007863D02*
X026555Y007863D01*
X026554Y007962D02*
X035216Y007962D01*
X035215Y008060D02*
X026554Y008060D01*
X026553Y008159D02*
X035215Y008159D01*
X035214Y008257D02*
X026553Y008257D01*
X026552Y008356D02*
X035213Y008356D01*
X035213Y008454D02*
X026552Y008454D01*
X026551Y008553D02*
X035212Y008553D01*
X035212Y008651D02*
X026550Y008651D01*
X026550Y008750D02*
X035211Y008750D01*
X035211Y008848D02*
X026549Y008848D01*
X026549Y008947D02*
X035210Y008947D01*
X035210Y009045D02*
X026548Y009045D01*
X026548Y009144D02*
X035209Y009144D01*
X035209Y009242D02*
X026547Y009242D01*
X026547Y009341D02*
X035208Y009341D01*
X035208Y009439D02*
X026546Y009439D01*
X027345Y009235D02*
X027345Y009212D01*
X027562Y008995D01*
X027345Y009235D02*
X025499Y009235D01*
X023786Y007523D01*
X022999Y007523D01*
X022621Y007660D02*
X022621Y006086D01*
X022400Y005865D01*
X022015Y005865D01*
X021658Y005992D02*
X018344Y005992D01*
X018246Y006090D02*
X021705Y006090D01*
X021808Y006189D02*
X020408Y006189D01*
X020515Y006287D02*
X022371Y006287D01*
X022370Y006189D02*
X022222Y006189D01*
X022371Y006386D02*
X020563Y006386D01*
X020586Y006484D02*
X022371Y006484D01*
X022371Y006583D02*
X020717Y006583D01*
X020846Y006681D02*
X021371Y006681D01*
X021340Y006694D02*
X021479Y006637D01*
X021629Y006637D01*
X021768Y006694D01*
X021875Y006801D01*
X021932Y006940D01*
X021932Y007090D01*
X021875Y007229D01*
X021768Y007335D01*
X021629Y007393D01*
X021479Y007393D01*
X021340Y007335D01*
X021233Y007229D01*
X021176Y007090D01*
X021176Y006940D01*
X021233Y006801D01*
X021340Y006694D01*
X021254Y006780D02*
X020903Y006780D01*
X020932Y006878D02*
X021201Y006878D01*
X021176Y006977D02*
X020932Y006977D01*
X020909Y007075D02*
X021176Y007075D01*
X021211Y007174D02*
X021007Y007174D01*
X021106Y007272D02*
X021277Y007272D01*
X021204Y007371D02*
X021425Y007371D01*
X021303Y007469D02*
X022371Y007469D01*
X022371Y007371D02*
X021683Y007371D01*
X021831Y007272D02*
X022371Y007272D01*
X022371Y007174D02*
X021897Y007174D01*
X021932Y007075D02*
X022371Y007075D01*
X022371Y006977D02*
X021932Y006977D01*
X021907Y006878D02*
X022371Y006878D01*
X022371Y006780D02*
X021854Y006780D01*
X021737Y006681D02*
X022371Y006681D01*
X022871Y006484D02*
X023030Y006484D01*
X023038Y006386D02*
X022871Y006386D01*
X022871Y006287D02*
X023079Y006287D01*
X023164Y006189D02*
X022871Y006189D01*
X022871Y006090D02*
X026253Y006090D01*
X026253Y005992D02*
X022853Y005992D01*
X022782Y005893D02*
X026253Y005893D01*
X026253Y005795D02*
X022683Y005795D01*
X022763Y005874D02*
X022763Y005874D01*
X022585Y005696D02*
X026253Y005696D01*
X026253Y005598D02*
X022282Y005598D01*
X022119Y005499D02*
X026253Y005499D01*
X026253Y005401D02*
X018935Y005401D01*
X018837Y005499D02*
X021910Y005499D01*
X021747Y005598D02*
X018738Y005598D01*
X018640Y005696D02*
X021675Y005696D01*
X021637Y005795D02*
X018541Y005795D01*
X018443Y005893D02*
X021637Y005893D01*
X020007Y006189D02*
X018147Y006189D01*
X018049Y006287D02*
X019900Y006287D01*
X019852Y006386D02*
X017147Y006386D01*
X017213Y006484D02*
X019829Y006484D01*
X019829Y006583D02*
X019796Y006583D01*
X019796Y006681D02*
X019867Y006681D01*
X019796Y006780D02*
X019938Y006780D01*
X019796Y006878D02*
X020097Y006878D01*
X020176Y006977D02*
X019796Y006977D01*
X019796Y007075D02*
X020207Y007075D01*
X020269Y007174D02*
X019796Y007174D01*
X019796Y007272D02*
X020399Y007272D01*
X020497Y007371D02*
X019796Y007371D01*
X019796Y007469D02*
X020596Y007469D01*
X020419Y007568D02*
X019796Y007568D01*
X019796Y007666D02*
X020325Y007666D01*
X020284Y007765D02*
X019796Y007765D01*
X019796Y007863D02*
X020270Y007863D01*
X020276Y007962D02*
X019796Y007962D01*
X019785Y008060D02*
X020317Y008060D01*
X020399Y008159D02*
X016862Y008159D01*
X016839Y008213D02*
X016897Y008074D01*
X016897Y007924D01*
X016839Y007785D01*
X016733Y007678D01*
X016594Y007621D01*
X016443Y007621D01*
X016304Y007678D01*
X016198Y007785D01*
X016140Y007924D01*
X016140Y008074D01*
X016198Y008213D01*
X016304Y008320D01*
X016443Y008377D01*
X016594Y008377D01*
X016733Y008320D01*
X016839Y008213D01*
X016795Y008257D02*
X020934Y008257D01*
X020934Y008159D02*
X020898Y008159D01*
X020934Y008356D02*
X016646Y008356D01*
X016391Y008356D02*
X013678Y008356D01*
X013646Y008324D02*
X013753Y008431D01*
X013810Y008569D01*
X013810Y008720D01*
X013753Y008859D01*
X013646Y008965D01*
X013507Y009023D01*
X013357Y009023D01*
X013218Y008965D01*
X013111Y008859D01*
X013054Y008720D01*
X013054Y008569D01*
X013111Y008431D01*
X013218Y008324D01*
X013357Y008267D01*
X013507Y008267D01*
X013646Y008324D01*
X013762Y008454D02*
X020934Y008454D01*
X020934Y008553D02*
X013803Y008553D01*
X013810Y008651D02*
X020934Y008651D01*
X020934Y008750D02*
X013798Y008750D01*
X013757Y008848D02*
X020934Y008848D01*
X020934Y008947D02*
X013665Y008947D01*
X013199Y008947D02*
X011170Y008947D01*
X011170Y009045D02*
X020934Y009045D01*
X020934Y009144D02*
X011170Y009144D01*
X011170Y009198D02*
X011132Y009290D01*
X010581Y009841D01*
X010490Y009879D01*
X009579Y009879D01*
X009487Y009841D01*
X009417Y009771D01*
X009391Y009745D01*
X007000Y009745D01*
X006908Y009707D01*
X005421Y008220D01*
X005321Y008220D01*
X005182Y008162D01*
X005076Y008056D01*
X005018Y007917D01*
X005018Y007766D01*
X005040Y007714D01*
X004462Y007714D01*
X004362Y007755D01*
X004211Y007755D01*
X004072Y007698D01*
X003966Y007591D01*
X003908Y007452D01*
X003908Y007302D01*
X003966Y007163D01*
X004072Y007056D01*
X004211Y006999D01*
X004362Y006999D01*
X004500Y007056D01*
X004607Y007163D01*
X004628Y007214D01*
X005475Y007214D01*
X005432Y007110D01*
X005432Y006959D01*
X005489Y006820D01*
X005596Y006714D01*
X005735Y006656D01*
X005885Y006656D01*
X006024Y006714D01*
X006130Y006820D01*
X006188Y006959D01*
X006188Y007059D01*
X006579Y007450D01*
X006604Y007391D01*
X006710Y007285D01*
X006730Y007277D01*
X006692Y007184D01*
X006692Y007085D01*
X006141Y006534D01*
X006070Y006463D01*
X006032Y006372D01*
X006032Y002520D01*
X006070Y002428D01*
X006141Y002358D01*
X006720Y001779D01*
X006720Y001779D01*
X006790Y001708D01*
X006882Y001670D01*
X007712Y001670D01*
X007519Y001590D01*
X007358Y001430D01*
X007319Y001335D01*
X007164Y001490D01*
X006955Y001577D01*
X006728Y001577D01*
X006519Y001490D01*
X006364Y001335D01*
X006325Y001430D01*
X006164Y001590D01*
X005955Y001677D01*
X005728Y001677D01*
X005519Y001590D01*
X005358Y001430D01*
X005319Y001335D01*
X005164Y001490D01*
X004955Y001577D01*
X004728Y001577D01*
X004519Y001490D01*
X004364Y001335D01*
X004325Y001430D01*
X004164Y001590D01*
X003955Y001677D01*
X003728Y001677D01*
X003519Y001590D01*
X003358Y001430D01*
X003271Y001220D01*
X003271Y000994D01*
X003358Y000784D01*
X003519Y000624D01*
X003728Y000537D01*
X003955Y000537D01*
X004164Y000624D01*
X004319Y000778D01*
X004358Y000684D01*
X004519Y000524D01*
X004728Y000437D01*
X004955Y000437D01*
X005164Y000524D01*
X005325Y000684D01*
X005364Y000778D01*
X005519Y000624D01*
X005728Y000537D01*
X005955Y000537D01*
X006164Y000624D01*
X006319Y000778D01*
X006358Y000684D01*
X006519Y000524D01*
X006728Y000437D01*
X006955Y000437D01*
X007164Y000524D01*
X007325Y000684D01*
X007364Y000778D01*
X007519Y000624D01*
X007728Y000537D01*
X007955Y000537D01*
X008164Y000624D01*
X008319Y000778D01*
X008358Y000684D01*
X008519Y000524D01*
X008728Y000437D01*
X008955Y000437D01*
X009164Y000524D01*
X009325Y000684D01*
X009411Y000894D01*
X009411Y001120D01*
X009325Y001330D01*
X009164Y001490D01*
X008955Y001577D01*
X008728Y001577D01*
X008519Y001490D01*
X008364Y001335D01*
X008325Y001430D01*
X008164Y001590D01*
X007971Y001670D01*
X016802Y001670D01*
X016802Y001609D01*
X016859Y001470D01*
X016966Y001364D01*
X017105Y001306D01*
X017255Y001306D01*
X017394Y001364D01*
X017501Y001470D01*
X017558Y001609D01*
X017558Y001759D01*
X017501Y001898D01*
X017394Y002005D01*
X017260Y002060D01*
X017188Y002132D01*
X017096Y002170D01*
X017061Y002170D01*
X017063Y002171D01*
X017064Y002172D01*
X017066Y002173D01*
X017069Y002176D01*
X017173Y002176D01*
X017312Y002234D01*
X017418Y002340D01*
X017475Y002479D01*
X017475Y002629D01*
X017418Y002768D01*
X017312Y002875D01*
X017173Y002932D01*
X017022Y002932D01*
X016883Y002875D01*
X016777Y002768D01*
X016721Y002635D01*
X012276Y002635D01*
X012170Y002741D01*
X012091Y002774D01*
X012213Y002824D01*
X012319Y002931D01*
X012377Y003069D01*
X012377Y003220D01*
X012319Y003359D01*
X012240Y003438D01*
X012312Y003509D01*
X012369Y003648D01*
X012369Y003799D01*
X012312Y003938D01*
X012205Y004044D01*
X012066Y004102D01*
X011916Y004102D01*
X011777Y004044D01*
X011670Y003938D01*
X011613Y003799D01*
X011613Y003648D01*
X011670Y003509D01*
X011750Y003430D01*
X011678Y003359D01*
X011621Y003220D01*
X011621Y003069D01*
X011678Y002931D01*
X011785Y002824D01*
X011864Y002791D01*
X011741Y002741D01*
X011635Y002634D01*
X011577Y002495D01*
X011577Y002345D01*
X011635Y002206D01*
X011671Y002170D01*
X007036Y002170D01*
X006532Y002673D01*
X006532Y004781D01*
X006608Y004706D01*
X006747Y004648D01*
X006897Y004648D01*
X007036Y004706D01*
X007142Y004812D01*
X007200Y004951D01*
X007200Y005102D01*
X007142Y005241D01*
X007036Y005347D01*
X006897Y005405D01*
X006747Y005405D01*
X006608Y005347D01*
X006532Y005272D01*
X006532Y006218D01*
X006692Y006378D01*
X006692Y006247D01*
X006749Y006108D01*
X006856Y006001D01*
X006995Y005944D01*
X007145Y005944D01*
X007284Y006001D01*
X007390Y006108D01*
X007448Y006247D01*
X007448Y006397D01*
X007390Y006536D01*
X007284Y006642D01*
X007145Y006700D01*
X007014Y006700D01*
X007045Y006731D01*
X007145Y006731D01*
X007284Y006789D01*
X007390Y006895D01*
X007448Y007034D01*
X007448Y007184D01*
X007390Y007323D01*
X007284Y007430D01*
X007264Y007438D01*
X007302Y007530D01*
X007302Y007634D01*
X008114Y008446D01*
X009061Y008446D01*
X009064Y008443D01*
X009064Y007300D01*
X009102Y007208D01*
X009172Y007137D01*
X009408Y006901D01*
X009500Y006863D01*
X011337Y006863D01*
X011289Y006843D01*
X011182Y006737D01*
X011125Y006598D01*
X011125Y006447D01*
X011182Y006308D01*
X011253Y006238D01*
X011253Y005382D01*
X011291Y005290D01*
X011361Y005220D01*
X012208Y004374D01*
X012300Y004336D01*
X015864Y004336D01*
X015934Y004265D01*
X016073Y004208D01*
X016224Y004208D01*
X016363Y004265D01*
X016469Y004371D01*
X016527Y004510D01*
X016527Y004567D01*
X018237Y002856D01*
X018237Y001488D01*
X018167Y001418D01*
X018109Y001279D01*
X018109Y001129D01*
X018167Y000990D01*
X018273Y000883D01*
X018412Y000826D01*
X018562Y000826D01*
X018701Y000883D01*
X018808Y000990D01*
X018865Y001129D01*
X018865Y001279D01*
X018808Y001418D01*
X018737Y001488D01*
X018737Y002175D01*
X019326Y001586D01*
X019397Y001515D01*
X019489Y001477D01*
X019789Y001477D01*
X019860Y001407D01*
X019998Y001349D01*
X020149Y001349D01*
X020288Y001407D01*
X020394Y001513D01*
X020452Y001652D01*
X020452Y001803D01*
X020394Y001942D01*
X020288Y002048D01*
X020149Y002105D01*
X019998Y002105D01*
X019860Y002048D01*
X019789Y001977D01*
X019642Y001977D01*
X019131Y002488D01*
X019131Y004324D01*
X019093Y004416D01*
X019022Y004487D01*
X017673Y005836D01*
X017793Y005836D01*
X018779Y004850D01*
X018870Y004812D01*
X022387Y004812D01*
X022300Y004725D01*
X022243Y004586D01*
X022243Y004436D01*
X022300Y004297D01*
X022407Y004190D01*
X022546Y004133D01*
X022696Y004133D01*
X022835Y004190D01*
X022941Y004297D01*
X022955Y004330D01*
X023165Y004540D01*
X023908Y004540D01*
X023908Y004304D01*
X023850Y004361D01*
X023328Y004361D01*
X023211Y004244D01*
X023211Y003722D01*
X023328Y003605D01*
X023339Y003605D01*
X023339Y002886D01*
X023378Y002794D01*
X023842Y002330D01*
X023933Y002292D01*
X024783Y002292D01*
X024783Y002262D01*
X024787Y000389D01*
X024787Y000330D01*
X023984Y000330D01*
X024245Y000438D01*
X024473Y000666D01*
X024596Y000964D01*
X024596Y001286D01*
X024473Y001584D01*
X024245Y001812D01*
X023947Y001935D01*
X023625Y001935D01*
X023327Y001812D01*
X023100Y001584D01*
X022976Y001286D01*
X022976Y000964D01*
X023100Y000666D01*
X023327Y000438D01*
X023589Y000330D01*
X001850Y000330D01*
X001652Y000343D01*
X001269Y000446D01*
X000925Y000644D01*
X000896Y000673D02*
X001058Y000673D01*
X001046Y000574D02*
X001209Y000574D01*
X001231Y000560D02*
X001647Y000454D01*
X002075Y000490D01*
X002469Y000662D01*
X002785Y000953D01*
X002989Y001331D01*
X002989Y001331D01*
X003060Y001755D01*
X002989Y002179D01*
X002785Y002556D01*
X002785Y002556D01*
X002469Y002847D01*
X002469Y002847D01*
X002075Y003020D01*
X001647Y003055D01*
X001231Y002950D01*
X001231Y002950D01*
X000871Y002715D01*
X000871Y002715D01*
X000607Y002376D01*
X000468Y001970D01*
X000468Y001540D01*
X000607Y001134D01*
X000607Y001134D01*
X000871Y000795D01*
X001231Y000560D01*
X001217Y000476D02*
X001563Y000476D01*
X001525Y000377D02*
X023475Y000377D01*
X023290Y000476D02*
X015538Y000476D01*
X015537Y000475D02*
X015610Y000512D01*
X015676Y000560D01*
X015734Y000618D01*
X015782Y000684D01*
X015819Y000757D01*
X015845Y000835D01*
X015856Y000907D01*
X015387Y000907D01*
X015387Y000438D01*
X015459Y000450D01*
X015537Y000475D01*
X015387Y000476D02*
X015287Y000476D01*
X015287Y000438D02*
X015287Y000907D01*
X015387Y000907D01*
X015387Y001007D01*
X015287Y001007D01*
X015287Y001475D01*
X015216Y001464D01*
X015138Y001439D01*
X015065Y001402D01*
X014999Y001354D01*
X014941Y001296D01*
X014893Y001229D01*
X014887Y001219D01*
X014821Y001380D01*
X014660Y001540D01*
X014451Y001627D01*
X014224Y001627D01*
X014015Y001540D01*
X013854Y001380D01*
X013815Y001285D01*
X013660Y001440D01*
X013451Y001527D01*
X013224Y001527D01*
X013015Y001440D01*
X012860Y001285D01*
X012821Y001380D01*
X012660Y001540D01*
X012451Y001627D01*
X012224Y001627D01*
X012015Y001540D01*
X011854Y001380D01*
X011815Y001285D01*
X011660Y001440D01*
X011451Y001527D01*
X011224Y001527D01*
X011015Y001440D01*
X010860Y001285D01*
X010821Y001380D01*
X010660Y001540D01*
X010451Y001627D01*
X010224Y001627D01*
X010015Y001540D01*
X009854Y001380D01*
X009767Y001170D01*
X009767Y000944D01*
X009854Y000734D01*
X010015Y000574D01*
X010224Y000487D01*
X010451Y000487D01*
X010660Y000574D01*
X010815Y000728D01*
X010854Y000634D01*
X011015Y000474D01*
X011224Y000387D01*
X011451Y000387D01*
X011660Y000474D01*
X011821Y000634D01*
X011860Y000728D01*
X012015Y000574D01*
X012224Y000487D01*
X012451Y000487D01*
X012660Y000574D01*
X012815Y000728D01*
X012854Y000634D01*
X013015Y000474D01*
X013224Y000387D01*
X013451Y000387D01*
X013660Y000474D01*
X013821Y000634D01*
X013860Y000728D01*
X014015Y000574D01*
X014224Y000487D01*
X014451Y000487D01*
X014660Y000574D01*
X014821Y000734D01*
X014844Y000791D01*
X014856Y000757D01*
X014893Y000684D01*
X014941Y000618D01*
X014999Y000560D01*
X015065Y000512D01*
X015138Y000475D01*
X015216Y000450D01*
X015287Y000438D01*
X015287Y000574D02*
X015387Y000574D01*
X015387Y000673D02*
X015287Y000673D01*
X015287Y000771D02*
X015387Y000771D01*
X015387Y000870D02*
X015287Y000870D01*
X015387Y000968D02*
X018188Y000968D01*
X018135Y001067D02*
X015847Y001067D01*
X015845Y001079D02*
X015819Y001156D01*
X015782Y001229D01*
X015734Y001296D01*
X015676Y001354D01*
X015610Y001402D01*
X015537Y001439D01*
X015459Y001464D01*
X015387Y001475D01*
X015387Y001007D01*
X015856Y001007D01*
X015845Y001079D01*
X015815Y001165D02*
X016240Y001165D01*
X016211Y001194D02*
X016292Y001113D01*
X016398Y001069D01*
X016513Y001069D01*
X016619Y001113D01*
X016700Y001194D01*
X016744Y001300D01*
X016744Y001415D01*
X016700Y001520D01*
X016619Y001602D01*
X016513Y001645D01*
X016398Y001645D01*
X016292Y001602D01*
X016211Y001520D01*
X016167Y001415D01*
X016167Y001300D01*
X016211Y001194D01*
X016183Y001264D02*
X015757Y001264D01*
X015664Y001362D02*
X016167Y001362D01*
X016187Y001461D02*
X015470Y001461D01*
X015387Y001461D02*
X015287Y001461D01*
X015205Y001461D02*
X014740Y001461D01*
X014828Y001362D02*
X015011Y001362D01*
X014918Y001264D02*
X014869Y001264D01*
X015287Y001264D02*
X015387Y001264D01*
X015387Y001362D02*
X015287Y001362D01*
X015287Y001165D02*
X015387Y001165D01*
X015387Y001067D02*
X015287Y001067D01*
X015850Y000870D02*
X018306Y000870D01*
X018109Y001165D02*
X016671Y001165D01*
X016729Y001264D02*
X018109Y001264D01*
X018143Y001362D02*
X017391Y001362D01*
X017491Y001461D02*
X018209Y001461D01*
X018237Y001559D02*
X017538Y001559D01*
X017558Y001658D02*
X018237Y001658D01*
X018237Y001756D02*
X017558Y001756D01*
X017519Y001855D02*
X018237Y001855D01*
X018237Y001953D02*
X017446Y001953D01*
X017281Y002052D02*
X018237Y002052D01*
X018237Y002150D02*
X017145Y002150D01*
X017327Y002249D02*
X018237Y002249D01*
X018237Y002347D02*
X017421Y002347D01*
X017462Y002446D02*
X018237Y002446D01*
X018237Y002544D02*
X017475Y002544D01*
X017470Y002643D02*
X018237Y002643D01*
X018237Y002741D02*
X017429Y002741D01*
X017347Y002840D02*
X018237Y002840D01*
X018155Y002938D02*
X012323Y002938D01*
X012363Y003037D02*
X018057Y003037D01*
X017958Y003135D02*
X012377Y003135D01*
X012371Y003234D02*
X017860Y003234D01*
X017761Y003332D02*
X012331Y003332D01*
X012248Y003431D02*
X017663Y003431D01*
X017564Y003529D02*
X012320Y003529D01*
X012361Y003628D02*
X017466Y003628D01*
X017367Y003726D02*
X012369Y003726D01*
X012358Y003825D02*
X017269Y003825D01*
X017170Y003923D02*
X012318Y003923D01*
X012228Y004022D02*
X017072Y004022D01*
X016973Y004120D02*
X006532Y004120D01*
X006532Y004022D02*
X011754Y004022D01*
X011664Y003923D02*
X006532Y003923D01*
X006532Y003825D02*
X011624Y003825D01*
X011613Y003726D02*
X006532Y003726D01*
X006532Y003628D02*
X011621Y003628D01*
X011662Y003529D02*
X006532Y003529D01*
X006532Y003431D02*
X011749Y003431D01*
X011667Y003332D02*
X006532Y003332D01*
X006532Y003234D02*
X011626Y003234D01*
X011621Y003135D02*
X006532Y003135D01*
X006532Y003037D02*
X011634Y003037D01*
X011675Y002938D02*
X006532Y002938D01*
X006532Y002840D02*
X011769Y002840D01*
X011742Y002741D02*
X006532Y002741D01*
X006563Y002643D02*
X011643Y002643D01*
X011598Y002544D02*
X006662Y002544D01*
X006760Y002446D02*
X011577Y002446D01*
X011577Y002347D02*
X006859Y002347D01*
X006957Y002249D02*
X011617Y002249D01*
X011956Y002420D02*
X011991Y002385D01*
X016924Y002385D01*
X017097Y002554D01*
X016766Y002741D02*
X012169Y002741D01*
X012229Y002840D02*
X016848Y002840D01*
X016725Y002643D02*
X012268Y002643D01*
X012060Y001559D02*
X010614Y001559D01*
X010740Y001461D02*
X011064Y001461D01*
X010937Y001362D02*
X010828Y001362D01*
X010060Y001559D02*
X008998Y001559D01*
X009194Y001461D02*
X009935Y001461D01*
X009847Y001362D02*
X009292Y001362D01*
X009352Y001264D02*
X009806Y001264D01*
X009767Y001165D02*
X009393Y001165D01*
X009411Y001067D02*
X009767Y001067D01*
X009767Y000968D02*
X009411Y000968D01*
X009402Y000870D02*
X009798Y000870D01*
X009839Y000771D02*
X009361Y000771D01*
X009313Y000673D02*
X009916Y000673D01*
X010014Y000574D02*
X009215Y000574D01*
X009048Y000476D02*
X011013Y000476D01*
X010914Y000574D02*
X010661Y000574D01*
X010759Y000673D02*
X010838Y000673D01*
X011662Y000476D02*
X013013Y000476D01*
X012914Y000574D02*
X012661Y000574D01*
X012759Y000673D02*
X012838Y000673D01*
X012014Y000574D02*
X011761Y000574D01*
X011837Y000673D02*
X011916Y000673D01*
X011847Y001362D02*
X011738Y001362D01*
X011611Y001461D02*
X011935Y001461D01*
X012614Y001559D02*
X014060Y001559D01*
X013935Y001461D02*
X013611Y001461D01*
X013738Y001362D02*
X013847Y001362D01*
X013064Y001461D02*
X012740Y001461D01*
X012828Y001362D02*
X012937Y001362D01*
X013837Y000673D02*
X013916Y000673D01*
X014014Y000574D02*
X013761Y000574D01*
X013662Y000476D02*
X015137Y000476D01*
X014985Y000574D02*
X014661Y000574D01*
X014759Y000673D02*
X014901Y000673D01*
X014851Y000771D02*
X014836Y000771D01*
X015690Y000574D02*
X023192Y000574D01*
X023097Y000673D02*
X015774Y000673D01*
X015824Y000771D02*
X021821Y000771D01*
X021821Y000744D02*
X021885Y000679D01*
X022333Y000679D01*
X022397Y000744D01*
X022397Y001191D01*
X022333Y001256D01*
X021885Y001256D01*
X021821Y001191D01*
X021821Y000744D01*
X021821Y000870D02*
X018668Y000870D01*
X018786Y000968D02*
X019200Y000968D01*
X019241Y000951D02*
X019355Y000951D01*
X019461Y000995D01*
X019542Y001076D01*
X019586Y001182D01*
X019586Y001296D01*
X019542Y001402D01*
X019461Y001483D01*
X019355Y001527D01*
X019241Y001527D01*
X019135Y001483D01*
X019054Y001402D01*
X019010Y001296D01*
X019010Y001182D01*
X019054Y001076D01*
X019135Y000995D01*
X019241Y000951D01*
X019397Y000968D02*
X021821Y000968D01*
X021821Y001067D02*
X019533Y001067D01*
X019579Y001165D02*
X021821Y001165D01*
X022397Y001165D02*
X022976Y001165D01*
X022976Y001067D02*
X022397Y001067D01*
X022397Y000968D02*
X022976Y000968D01*
X023015Y000870D02*
X022397Y000870D01*
X022397Y000771D02*
X023056Y000771D01*
X022976Y001264D02*
X019586Y001264D01*
X019559Y001362D02*
X019967Y001362D01*
X019806Y001461D02*
X019484Y001461D01*
X019353Y001559D02*
X018737Y001559D01*
X018737Y001658D02*
X019254Y001658D01*
X019326Y001586D02*
X019326Y001586D01*
X019156Y001756D02*
X018737Y001756D01*
X018737Y001855D02*
X019057Y001855D01*
X018959Y001953D02*
X018737Y001953D01*
X018737Y002052D02*
X018860Y002052D01*
X018762Y002150D02*
X018737Y002150D01*
X018881Y002385D02*
X019538Y001727D01*
X020074Y001727D01*
X020430Y001855D02*
X023431Y001855D01*
X023272Y001756D02*
X020452Y001756D01*
X020452Y001658D02*
X023173Y001658D01*
X023089Y001559D02*
X020413Y001559D01*
X020342Y001461D02*
X023049Y001461D01*
X023008Y001362D02*
X020180Y001362D01*
X020383Y001953D02*
X024784Y001953D01*
X024784Y001855D02*
X024141Y001855D01*
X024301Y001756D02*
X024784Y001756D01*
X024785Y001658D02*
X024399Y001658D01*
X024483Y001559D02*
X024785Y001559D01*
X024785Y001461D02*
X024524Y001461D01*
X024565Y001362D02*
X024785Y001362D01*
X024785Y001264D02*
X024596Y001264D01*
X024596Y001165D02*
X024786Y001165D01*
X024786Y001067D02*
X024596Y001067D01*
X024596Y000968D02*
X024786Y000968D01*
X024786Y000870D02*
X024557Y000870D01*
X024516Y000771D02*
X024786Y000771D01*
X024787Y000673D02*
X024476Y000673D01*
X024381Y000574D02*
X024787Y000574D01*
X024787Y000476D02*
X024282Y000476D01*
X024097Y000377D02*
X024787Y000377D01*
X024987Y000389D02*
X024983Y002292D01*
X027758Y002292D01*
X027743Y000389D01*
X024987Y000389D01*
X024987Y000476D02*
X027744Y000476D01*
X027744Y000574D02*
X024987Y000574D01*
X024987Y000673D02*
X027745Y000673D01*
X027746Y000771D02*
X024986Y000771D01*
X024986Y000870D02*
X027747Y000870D01*
X027748Y000968D02*
X024986Y000968D01*
X024986Y001067D02*
X027748Y001067D01*
X027749Y001165D02*
X024986Y001165D01*
X024985Y001264D02*
X027750Y001264D01*
X027751Y001362D02*
X024985Y001362D01*
X024985Y001461D02*
X027752Y001461D01*
X027752Y001559D02*
X024985Y001559D01*
X024985Y001658D02*
X027753Y001658D01*
X027754Y001756D02*
X024984Y001756D01*
X024984Y001855D02*
X027755Y001855D01*
X027756Y001953D02*
X024984Y001953D01*
X024984Y002052D02*
X027756Y002052D01*
X027757Y002150D02*
X024984Y002150D01*
X024983Y002249D02*
X027758Y002249D01*
X028023Y001755D02*
X032070Y001755D01*
X032070Y000574D01*
X028023Y000574D01*
X028023Y001755D01*
X028023Y001658D02*
X032070Y001658D01*
X032070Y001559D02*
X028023Y001559D01*
X028023Y001461D02*
X032070Y001461D01*
X032070Y001362D02*
X028023Y001362D01*
X028023Y001264D02*
X032070Y001264D01*
X032070Y001165D02*
X028023Y001165D01*
X028023Y001067D02*
X032070Y001067D01*
X032070Y000968D02*
X028023Y000968D01*
X028023Y000870D02*
X032070Y000870D01*
X032070Y000771D02*
X028023Y000771D01*
X028023Y000673D02*
X032070Y000673D01*
X032070Y000574D02*
X028023Y000574D01*
X024784Y002052D02*
X020279Y002052D01*
X020048Y002257D02*
X020105Y002396D01*
X020105Y002547D01*
X020048Y002686D01*
X019941Y002792D01*
X019802Y002850D01*
X019652Y002850D01*
X019513Y002792D01*
X019407Y002686D01*
X019349Y002547D01*
X019349Y002396D01*
X019407Y002257D01*
X019513Y002151D01*
X019652Y002093D01*
X019802Y002093D01*
X019941Y002151D01*
X020048Y002257D01*
X020039Y002249D02*
X024783Y002249D01*
X024783Y002262D02*
X024783Y002262D01*
X024784Y002150D02*
X019940Y002150D01*
X019868Y002052D02*
X019568Y002052D01*
X019515Y002150D02*
X019469Y002150D01*
X019415Y002249D02*
X019371Y002249D01*
X019369Y002347D02*
X019272Y002347D01*
X019349Y002446D02*
X019174Y002446D01*
X019131Y002544D02*
X019349Y002544D01*
X019389Y002643D02*
X019131Y002643D01*
X019131Y002741D02*
X019462Y002741D01*
X019628Y002840D02*
X019131Y002840D01*
X019131Y002938D02*
X023339Y002938D01*
X023339Y003037D02*
X019131Y003037D01*
X019131Y003135D02*
X023339Y003135D01*
X023339Y003234D02*
X019131Y003234D01*
X019131Y003332D02*
X023339Y003332D01*
X023339Y003431D02*
X020885Y003431D01*
X020847Y003393D02*
X020928Y003474D01*
X020972Y003580D01*
X020972Y003694D01*
X020928Y003800D01*
X020847Y003881D01*
X020741Y003925D01*
X020627Y003925D01*
X020521Y003881D01*
X020440Y003800D01*
X020396Y003694D01*
X020396Y003580D01*
X020440Y003474D01*
X020521Y003393D01*
X020627Y003349D01*
X020741Y003349D01*
X020847Y003393D01*
X020951Y003529D02*
X023339Y003529D01*
X023306Y003628D02*
X020972Y003628D01*
X020959Y003726D02*
X023211Y003726D01*
X023211Y003825D02*
X020904Y003825D01*
X020746Y003923D02*
X023211Y003923D01*
X023211Y004022D02*
X020643Y004022D01*
X020670Y004033D02*
X020776Y004139D01*
X020834Y004278D01*
X020834Y004429D01*
X020776Y004568D01*
X020670Y004674D01*
X020531Y004731D01*
X020380Y004731D01*
X020241Y004674D01*
X020135Y004568D01*
X020077Y004429D01*
X020077Y004278D01*
X020135Y004139D01*
X020241Y004033D01*
X020380Y003975D01*
X020531Y003975D01*
X020670Y004033D01*
X020622Y003923D02*
X019131Y003923D01*
X019131Y003825D02*
X020464Y003825D01*
X020409Y003726D02*
X019131Y003726D01*
X019131Y003628D02*
X020396Y003628D01*
X020417Y003529D02*
X019131Y003529D01*
X019131Y003431D02*
X020483Y003431D01*
X019826Y002840D02*
X023359Y002840D01*
X023431Y002741D02*
X019992Y002741D01*
X020066Y002643D02*
X023529Y002643D01*
X023628Y002544D02*
X020105Y002544D01*
X020105Y002446D02*
X023726Y002446D01*
X023825Y002347D02*
X020085Y002347D01*
X018881Y002385D02*
X018881Y004275D01*
X017397Y005759D01*
X014326Y005759D01*
X012188Y007897D01*
X012188Y008290D01*
X011838Y008147D02*
X011319Y008147D01*
X011170Y008295D01*
X011170Y009198D01*
X011152Y009242D02*
X018970Y009242D01*
X018932Y009281D02*
X019013Y009200D01*
X019119Y009156D01*
X019233Y009156D01*
X019339Y009200D01*
X019420Y009281D01*
X019464Y009387D01*
X019464Y009501D01*
X019420Y009607D01*
X019339Y009688D01*
X019233Y009732D01*
X019119Y009732D01*
X019013Y009688D01*
X018932Y009607D01*
X018888Y009501D01*
X018888Y009387D01*
X018932Y009281D01*
X018907Y009341D02*
X011082Y009341D01*
X010983Y009439D02*
X018888Y009439D01*
X018903Y009538D02*
X010885Y009538D01*
X010786Y009636D02*
X015935Y009636D01*
X015954Y009617D02*
X016060Y009573D01*
X016174Y009573D01*
X016280Y009617D01*
X016361Y009698D01*
X016405Y009804D01*
X016405Y009919D01*
X016361Y010024D01*
X016280Y010105D01*
X016174Y010149D01*
X016060Y010149D01*
X015954Y010105D01*
X015873Y010024D01*
X015829Y009919D01*
X015829Y009804D01*
X015873Y009698D01*
X015954Y009617D01*
X015858Y009735D02*
X010688Y009735D01*
X010589Y009833D02*
X015829Y009833D01*
X015834Y009932D02*
X006661Y009932D01*
X006661Y009985D02*
X006617Y010091D01*
X006536Y010172D01*
X006430Y010216D01*
X006316Y010216D01*
X006210Y010172D01*
X006129Y010091D01*
X006085Y009985D01*
X006085Y009892D01*
X006046Y009985D01*
X005965Y010066D01*
X005859Y010110D01*
X005745Y010110D01*
X005742Y010109D01*
X005431Y010419D01*
X002409Y010419D01*
X002315Y010325D01*
X001885Y009895D01*
X001568Y009895D01*
X001521Y010007D01*
X001386Y010142D01*
X001210Y010215D01*
X001019Y010215D01*
X000842Y010142D01*
X000707Y010007D01*
X000634Y009831D01*
X000634Y009640D01*
X000707Y009463D01*
X000842Y009328D01*
X000999Y009263D01*
X000891Y009218D01*
X000731Y009058D01*
X000644Y008849D01*
X000644Y008622D01*
X000731Y008412D01*
X000886Y008258D01*
X000791Y008218D01*
X000631Y008058D01*
X000544Y007849D01*
X000544Y007622D01*
X000631Y007412D01*
X000791Y007252D01*
X001001Y007165D01*
X001228Y007165D01*
X001437Y007252D01*
X001597Y007412D01*
X001684Y007622D01*
X001684Y007849D01*
X001597Y008058D01*
X001443Y008213D01*
X001537Y008252D01*
X001697Y008412D01*
X001728Y008485D01*
X001871Y008485D01*
X001963Y008523D01*
X002870Y009430D01*
X005001Y009430D01*
X005017Y009391D01*
X005123Y009285D01*
X005262Y009227D01*
X005413Y009227D01*
X005552Y009285D01*
X005658Y009391D01*
X005716Y009530D01*
X005716Y009546D01*
X005745Y009534D01*
X005859Y009534D01*
X005965Y009578D01*
X006046Y009659D01*
X006090Y009765D01*
X006090Y009858D01*
X006129Y009765D01*
X006210Y009684D01*
X006316Y009640D01*
X006430Y009640D01*
X006536Y009684D01*
X006617Y009765D01*
X006661Y009871D01*
X006661Y009985D01*
X006643Y010030D02*
X015878Y010030D01*
X016010Y010129D02*
X009530Y010129D01*
X009464Y010101D02*
X009603Y010159D01*
X009709Y010265D01*
X009767Y010404D01*
X009767Y010555D01*
X009709Y010694D01*
X009639Y010764D01*
X009639Y011100D01*
X009601Y011192D01*
X009530Y011262D01*
X008589Y012203D01*
X008497Y012241D01*
X004595Y012241D01*
X004200Y012636D01*
X004200Y012736D01*
X004142Y012875D01*
X004036Y012981D01*
X003897Y013039D01*
X003747Y013039D01*
X003608Y012981D01*
X003501Y012875D01*
X003444Y012736D01*
X003444Y012585D01*
X003501Y012446D01*
X003608Y012340D01*
X003747Y012282D01*
X003846Y012282D01*
X004279Y011850D01*
X004349Y011779D01*
X004441Y011741D01*
X008344Y011741D01*
X009139Y010947D01*
X009139Y010764D01*
X009068Y010694D01*
X009011Y010555D01*
X009011Y010404D01*
X009068Y010265D01*
X009174Y010159D01*
X009313Y010101D01*
X009464Y010101D01*
X009247Y010129D02*
X006580Y010129D01*
X006645Y009833D02*
X009479Y009833D01*
X009629Y009629D02*
X010440Y009629D01*
X010920Y009149D01*
X010920Y008192D01*
X011215Y007897D01*
X011794Y007897D01*
X014156Y005534D01*
X017007Y005534D01*
X017357Y005184D01*
X017463Y005184D01*
X017911Y005598D02*
X018031Y005598D01*
X018010Y005499D02*
X018129Y005499D01*
X018108Y005401D02*
X018228Y005401D01*
X018207Y005302D02*
X018326Y005302D01*
X018305Y005204D02*
X018425Y005204D01*
X018404Y005105D02*
X018523Y005105D01*
X018502Y005007D02*
X018622Y005007D01*
X018601Y004908D02*
X018720Y004908D01*
X018699Y004810D02*
X022385Y004810D01*
X022295Y004711D02*
X020580Y004711D01*
X020731Y004613D02*
X022254Y004613D01*
X022243Y004514D02*
X020798Y004514D01*
X020834Y004416D02*
X022251Y004416D01*
X022292Y004317D02*
X020834Y004317D01*
X020809Y004219D02*
X022378Y004219D01*
X022621Y004511D02*
X022782Y004511D01*
X023062Y004790D01*
X029696Y004790D01*
X029999Y004487D01*
X029999Y003131D01*
X030541Y002589D01*
X031425Y002589D01*
X031503Y002511D01*
X030518Y003037D02*
X033269Y003037D01*
X033646Y003135D02*
X030518Y003135D01*
X030518Y003234D02*
X034979Y003234D01*
X034979Y003332D02*
X030518Y003332D01*
X030518Y003431D02*
X034979Y003431D01*
X034979Y003529D02*
X030517Y003529D01*
X030517Y003628D02*
X034979Y003628D01*
X034979Y003726D02*
X030517Y003726D01*
X030517Y003825D02*
X034979Y003825D01*
X034979Y003923D02*
X030516Y003923D01*
X030516Y004022D02*
X034979Y004022D01*
X034979Y004120D02*
X030516Y004120D01*
X030516Y004219D02*
X034979Y004219D01*
X034979Y004317D02*
X030516Y004317D01*
X030515Y004416D02*
X034979Y004416D01*
X034979Y004514D02*
X030515Y004514D01*
X030515Y004613D02*
X034979Y004613D01*
X034979Y004711D02*
X030515Y004711D01*
X030514Y004810D02*
X034979Y004810D01*
X034979Y004908D02*
X030514Y004908D01*
X030514Y005007D02*
X034979Y005007D01*
X034979Y005105D02*
X030514Y005105D01*
X030514Y005204D02*
X034979Y005204D01*
X034979Y005302D02*
X030513Y005302D01*
X028399Y005401D02*
X027870Y005401D01*
X027870Y005499D02*
X028399Y005499D01*
X028399Y005598D02*
X027870Y005598D01*
X027870Y005696D02*
X028399Y005696D01*
X028399Y005795D02*
X027870Y005795D01*
X027870Y005893D02*
X028399Y005893D01*
X028399Y005992D02*
X027870Y005992D01*
X027870Y006090D02*
X028399Y006090D01*
X028399Y006189D02*
X027870Y006189D01*
X027870Y006287D02*
X028399Y006287D01*
X028399Y006386D02*
X027870Y006386D01*
X027870Y006484D02*
X028399Y006484D01*
X028399Y006583D02*
X027870Y006583D01*
X027870Y006681D02*
X028399Y006681D01*
X028399Y006780D02*
X027814Y006780D01*
X026310Y006780D02*
X024850Y006780D01*
X024751Y006681D02*
X026253Y006681D01*
X026253Y006583D02*
X024653Y006583D01*
X024554Y006484D02*
X026253Y006484D01*
X026253Y006386D02*
X024456Y006386D01*
X024357Y006287D02*
X026253Y006287D01*
X026253Y006189D02*
X023652Y006189D01*
X023408Y006479D02*
X024196Y006479D01*
X024763Y007046D01*
X031377Y007046D01*
X031589Y006834D01*
X025771Y007660D02*
X024589Y007660D01*
X023802Y006873D01*
X023015Y006873D01*
X022621Y007660D02*
X023015Y008054D01*
X023802Y008054D01*
X025519Y009771D01*
X025696Y009771D01*
X024243Y009503D02*
X026530Y011790D01*
X031735Y011790D01*
X031956Y011570D01*
X031956Y011393D01*
X032290Y011409D02*
X034996Y011409D01*
X034996Y011311D02*
X032290Y011311D01*
X032290Y011212D02*
X034996Y011212D01*
X034995Y011114D02*
X032290Y011114D01*
X032290Y011015D02*
X034995Y011015D01*
X034995Y010917D02*
X030412Y010917D01*
X030412Y011011D02*
X032290Y011011D01*
X032286Y013562D01*
X035003Y013570D01*
X034991Y009672D01*
X030412Y009676D01*
X030412Y011011D01*
X030412Y010818D02*
X034994Y010818D01*
X034994Y010720D02*
X030412Y010720D01*
X030412Y010621D02*
X034994Y010621D01*
X034994Y010523D02*
X030412Y010523D01*
X030412Y010424D02*
X034993Y010424D01*
X034993Y010326D02*
X030412Y010326D01*
X030412Y010227D02*
X034993Y010227D01*
X034992Y010129D02*
X030412Y010129D01*
X030412Y010030D02*
X034992Y010030D01*
X034992Y009932D02*
X030412Y009932D01*
X030412Y009833D02*
X034992Y009833D01*
X034991Y009735D02*
X030412Y009735D01*
X031471Y011393D02*
X031365Y011499D01*
X026668Y011499D01*
X023818Y008649D01*
X022369Y008649D01*
X022239Y008519D01*
X021885Y008651D02*
X021434Y008651D01*
X021434Y008553D02*
X021861Y008553D01*
X021861Y008454D02*
X021434Y008454D01*
X021434Y008356D02*
X021897Y008356D01*
X021966Y008257D02*
X021434Y008257D01*
X021434Y008159D02*
X022120Y008159D01*
X022358Y008159D02*
X022766Y008159D01*
X022864Y008257D02*
X022512Y008257D01*
X022581Y008356D02*
X023750Y008356D01*
X022667Y008060D02*
X021434Y008060D01*
X021434Y007962D02*
X022569Y007962D01*
X022470Y007863D02*
X021434Y007863D01*
X021434Y007765D02*
X022394Y007765D01*
X022371Y007666D02*
X021434Y007666D01*
X021398Y007568D02*
X022371Y007568D01*
X021184Y007704D02*
X021184Y011499D01*
X020456Y012227D01*
X012975Y012227D01*
X012188Y011440D01*
X010499Y011440D01*
X010219Y011160D01*
X010219Y011046D01*
X010219Y011164D01*
X009841Y011015D02*
X009639Y011015D01*
X009639Y010917D02*
X009864Y010917D01*
X009913Y010818D02*
X009639Y010818D01*
X009683Y010720D02*
X010020Y010720D01*
X009739Y010621D02*
X017657Y010621D01*
X017633Y010680D02*
X017690Y010541D01*
X017797Y010434D01*
X017935Y010377D01*
X018086Y010377D01*
X018225Y010434D01*
X018331Y010541D01*
X018389Y010680D01*
X018389Y010830D01*
X018378Y010856D01*
X018432Y010834D01*
X018582Y010834D01*
X018721Y010891D01*
X018827Y010997D01*
X018885Y011136D01*
X018885Y011287D01*
X018827Y011426D01*
X018721Y011532D01*
X018582Y011590D01*
X018432Y011590D01*
X018293Y011532D01*
X018186Y011426D01*
X018129Y011287D01*
X018129Y011136D01*
X018139Y011111D01*
X018086Y011133D01*
X017935Y011133D01*
X017797Y011075D01*
X017690Y010969D01*
X017633Y010830D01*
X017633Y010680D01*
X017633Y010720D02*
X010419Y010720D01*
X010526Y010818D02*
X010574Y010818D01*
X011069Y010818D02*
X017633Y010818D01*
X017668Y010917D02*
X011153Y010917D01*
X011194Y011015D02*
X017736Y011015D01*
X017889Y011114D02*
X011200Y011114D01*
X010312Y011606D02*
X010219Y011606D01*
X010174Y011705D02*
X012099Y011705D01*
X012198Y011803D02*
X010076Y011803D01*
X009646Y011803D02*
X008989Y011803D01*
X008891Y011902D02*
X011199Y011902D01*
X011186Y011907D02*
X011325Y011849D01*
X011476Y011849D01*
X011615Y011907D01*
X011721Y012013D01*
X011779Y012152D01*
X011779Y012303D01*
X011721Y012442D01*
X011615Y012548D01*
X011476Y012605D01*
X011325Y012605D01*
X011186Y012548D01*
X011080Y012442D01*
X011022Y012303D01*
X011022Y012152D01*
X011080Y012013D01*
X011186Y011907D01*
X011093Y012000D02*
X008792Y012000D01*
X008694Y012099D02*
X011045Y012099D01*
X011022Y012197D02*
X008595Y012197D01*
X008318Y012493D02*
X009365Y012493D01*
X009408Y012457D02*
X009241Y012593D01*
X009224Y012586D01*
X009200Y012576D01*
X009105Y012576D01*
X009053Y012598D01*
X009017Y012613D01*
X009017Y012613D01*
X008949Y012680D01*
X008929Y012730D01*
X008841Y012940D01*
X008754Y012729D01*
X008734Y012680D01*
X008734Y012680D01*
X008666Y012613D01*
X008629Y012597D01*
X008578Y012576D01*
X008483Y012576D01*
X008457Y012587D01*
X008442Y012593D01*
X008275Y012457D01*
X008250Y012432D01*
X008238Y012428D01*
X008229Y012420D01*
X008195Y012409D01*
X008162Y012396D01*
X008149Y012396D01*
X008137Y012392D01*
X008102Y012396D01*
X008067Y012396D01*
X008055Y012401D01*
X008043Y012402D01*
X008011Y012419D01*
X007979Y012432D01*
X007970Y012441D01*
X007959Y012447D01*
X007936Y012475D01*
X007750Y012661D01*
X007723Y012683D01*
X007717Y012694D01*
X007708Y012703D01*
X007694Y012736D01*
X007677Y012767D01*
X007676Y012780D01*
X007671Y012791D01*
X007671Y012827D01*
X007668Y012862D01*
X007671Y012874D01*
X007671Y012886D01*
X007685Y012919D01*
X007695Y012953D01*
X007703Y012963D01*
X007708Y012974D01*
X007733Y012999D01*
X007859Y013154D01*
X007857Y013158D01*
X007857Y013158D01*
X007856Y013162D01*
X007657Y013183D01*
X007622Y013183D01*
X007610Y013187D01*
X007598Y013189D01*
X007566Y013205D01*
X007534Y013219D01*
X007525Y013228D01*
X007514Y013234D01*
X007491Y013261D01*
X007466Y013286D01*
X007461Y013298D01*
X007454Y013308D01*
X007443Y013342D01*
X007430Y013374D01*
X007430Y013387D01*
X007426Y013399D01*
X007430Y013434D01*
X007430Y013698D01*
X007426Y013733D01*
X007430Y013745D01*
X007430Y013757D01*
X007443Y013790D01*
X007454Y013824D01*
X007461Y013834D01*
X007466Y013845D01*
X007491Y013871D01*
X007514Y013898D01*
X007525Y013904D01*
X007534Y013913D01*
X007566Y013926D01*
X007598Y013943D01*
X007610Y013944D01*
X007622Y013949D01*
X007657Y013949D01*
X007856Y013969D01*
X007857Y013974D01*
X007857Y013974D01*
X007859Y013978D01*
X007733Y014132D01*
X007708Y014158D01*
X007703Y014169D01*
X007695Y014179D01*
X007685Y014213D01*
X007671Y014245D01*
X007671Y014258D01*
X007668Y014270D01*
X007671Y014305D01*
X007671Y014341D01*
X007676Y014352D01*
X007677Y014365D01*
X007694Y014396D01*
X007708Y014429D01*
X007717Y014438D01*
X007723Y014449D01*
X007750Y014471D01*
X007936Y014657D01*
X007959Y014685D01*
X007970Y014691D01*
X007979Y014700D01*
X008011Y014713D01*
X008043Y014730D01*
X008055Y014731D01*
X008067Y014736D01*
X008102Y014736D01*
X008137Y014740D01*
X008149Y014736D01*
X008162Y014736D01*
X008195Y014722D01*
X008229Y014712D01*
X008238Y014704D01*
X008250Y014700D01*
X008275Y014675D01*
X008430Y014548D01*
X008433Y014551D01*
X008433Y014551D01*
X008438Y014552D01*
X008458Y014750D01*
X008458Y014786D01*
X008463Y014797D01*
X008464Y014810D01*
X008481Y014841D01*
X008495Y014874D01*
X008503Y014883D01*
X008509Y014894D01*
X008537Y014916D01*
X008562Y014941D01*
X008573Y014946D01*
X008583Y014954D01*
X008617Y014964D01*
X008650Y014978D01*
X008662Y014978D01*
X008674Y014981D01*
X008710Y014978D01*
X008973Y014978D01*
X009009Y014981D01*
X009020Y014978D01*
X009033Y014978D01*
X009066Y014964D01*
X009100Y014954D01*
X009109Y014946D01*
X009121Y014941D01*
X009146Y014916D01*
X009174Y014894D01*
X009179Y014883D01*
X009188Y014874D01*
X009202Y014841D01*
X009219Y014810D01*
X009220Y014797D01*
X009225Y014786D01*
X009225Y014750D01*
X009245Y014552D01*
X009249Y014551D01*
X009249Y014551D01*
X009253Y014548D01*
X009408Y014675D01*
X009433Y014700D01*
X009445Y014704D01*
X009454Y014712D01*
X009488Y014722D01*
X009521Y014736D01*
X009533Y014736D01*
X009545Y014740D01*
X009581Y014736D01*
X009616Y014736D01*
X009628Y014731D01*
X009640Y014730D01*
X009671Y014713D01*
X009704Y014700D01*
X009713Y014691D01*
X009724Y014685D01*
X009746Y014657D01*
X009933Y014471D01*
X009960Y014449D01*
X009966Y014438D01*
X009975Y014429D01*
X009989Y014396D01*
X010005Y014365D01*
X010007Y014352D01*
X010012Y014341D01*
X010012Y014305D01*
X010015Y014270D01*
X010012Y014258D01*
X010012Y014245D01*
X009998Y014213D01*
X009988Y014179D01*
X009980Y014169D01*
X009975Y014158D01*
X009950Y014132D01*
X009824Y013978D01*
X009826Y013974D01*
X009826Y013974D01*
X009827Y013969D01*
X010026Y013949D01*
X010061Y013949D01*
X010073Y013944D01*
X010085Y013943D01*
X010117Y013926D01*
X010149Y013913D01*
X010158Y013904D01*
X010169Y013898D01*
X010192Y013871D01*
X010217Y013845D01*
X010221Y013834D01*
X010229Y013824D01*
X010240Y013790D01*
X010253Y013757D01*
X010253Y013745D01*
X010257Y013733D01*
X010253Y013698D01*
X010253Y013434D01*
X010257Y013399D01*
X010253Y013387D01*
X010253Y013374D01*
X010240Y013342D01*
X010229Y013308D01*
X010221Y013298D01*
X010217Y013286D01*
X010192Y013261D01*
X010169Y013234D01*
X010158Y013228D01*
X010149Y013219D01*
X010117Y013205D01*
X010085Y013189D01*
X010073Y013187D01*
X010061Y013183D01*
X010026Y013183D01*
X009827Y013162D01*
X009826Y013158D01*
X009826Y013158D01*
X009824Y013154D01*
X009950Y012999D01*
X009975Y012974D01*
X009980Y012963D01*
X009988Y012953D01*
X009998Y012919D01*
X010012Y012886D01*
X010012Y012874D01*
X010015Y012862D01*
X010012Y012827D01*
X010012Y012791D01*
X010007Y012780D01*
X010005Y012767D01*
X009989Y012736D01*
X009975Y012703D01*
X009966Y012694D01*
X009960Y012683D01*
X009933Y012661D01*
X009746Y012475D01*
X009724Y012447D01*
X009713Y012441D01*
X009704Y012432D01*
X009671Y012419D01*
X009640Y012402D01*
X009628Y012401D01*
X009616Y012396D01*
X009581Y012396D01*
X009545Y012392D01*
X009533Y012396D01*
X009521Y012396D01*
X009488Y012409D01*
X009454Y012420D01*
X009445Y012428D01*
X009433Y012432D01*
X009408Y012457D01*
X009539Y012394D02*
X008144Y012394D01*
X008119Y012394D02*
X004442Y012394D01*
X004540Y012296D02*
X011022Y012296D01*
X011060Y012394D02*
X009564Y012394D01*
X009765Y012493D02*
X011131Y012493D01*
X011291Y012591D02*
X009863Y012591D01*
X009964Y012690D02*
X014172Y012690D01*
X014172Y012591D02*
X011510Y012591D01*
X011670Y012493D02*
X014194Y012493D01*
X014210Y012788D02*
X010010Y012788D01*
X010011Y012887D02*
X011844Y012887D01*
X011824Y012895D02*
X011963Y012837D01*
X012113Y012837D01*
X012252Y012895D01*
X012359Y013001D01*
X012416Y013140D01*
X012416Y013291D01*
X012359Y013430D01*
X012252Y013536D01*
X012113Y013594D01*
X011963Y013594D01*
X011824Y013536D01*
X011718Y013430D01*
X011706Y013401D01*
X011658Y013516D01*
X011552Y013623D01*
X011413Y013680D01*
X011262Y013680D01*
X011123Y013623D01*
X011017Y013516D01*
X010959Y013377D01*
X010959Y013227D01*
X011017Y013088D01*
X011123Y012982D01*
X011262Y012924D01*
X011413Y012924D01*
X011552Y012982D01*
X011658Y013088D01*
X011670Y013117D01*
X011718Y013001D01*
X011824Y012895D01*
X011734Y012985D02*
X011555Y012985D01*
X011654Y013084D02*
X011684Y013084D01*
X012232Y012887D02*
X014281Y012887D01*
X014441Y012985D02*
X012343Y012985D01*
X012393Y013084D02*
X020817Y013084D01*
X020722Y012985D02*
X014659Y012985D01*
X014819Y012887D02*
X020682Y012887D01*
X020668Y012788D02*
X014890Y012788D01*
X014928Y012690D02*
X020674Y012690D01*
X020714Y012591D02*
X014928Y012591D01*
X014906Y012493D02*
X020797Y012493D01*
X020642Y012394D02*
X021622Y012394D01*
X021785Y012394D02*
X021977Y012394D01*
X021977Y012296D02*
X021961Y012296D01*
X021933Y012493D02*
X021295Y012493D01*
X021378Y012591D02*
X021849Y012591D01*
X021849Y012690D02*
X021419Y012690D01*
X021424Y012788D02*
X021849Y012788D01*
X021849Y012887D02*
X021508Y012887D01*
X021606Y012985D02*
X021849Y012985D01*
X021849Y013084D02*
X021705Y013084D01*
X021803Y013182D02*
X021933Y013182D01*
X021902Y013281D02*
X026332Y013281D01*
X026331Y013379D02*
X026411Y013379D01*
X026430Y013478D02*
X026510Y013478D01*
X026528Y013576D02*
X026608Y013576D01*
X026627Y013675D02*
X026707Y013675D01*
X026725Y013773D02*
X026805Y013773D01*
X026824Y013872D02*
X026904Y013872D01*
X026922Y013970D02*
X027002Y013970D01*
X027345Y013960D02*
X030377Y013960D01*
X030570Y014153D01*
X030259Y014550D02*
X029924Y014223D01*
X026822Y014223D01*
X026164Y013566D01*
X021834Y013566D01*
X021046Y012779D01*
X021096Y013182D02*
X012416Y013182D01*
X012416Y013281D02*
X021195Y013281D01*
X021293Y013379D02*
X012380Y013379D01*
X012311Y013478D02*
X021392Y013478D01*
X021490Y013576D02*
X012156Y013576D01*
X011921Y013576D02*
X011598Y013576D01*
X011674Y013478D02*
X011766Y013478D01*
X011426Y013675D02*
X015863Y013675D01*
X015871Y013672D02*
X015985Y013672D01*
X016091Y013715D01*
X016172Y013796D01*
X016216Y013902D01*
X016216Y014017D01*
X016172Y014123D01*
X016091Y014204D01*
X015985Y014248D01*
X015871Y014248D01*
X015765Y014204D01*
X015684Y014123D01*
X015640Y014017D01*
X015640Y013902D01*
X015684Y013796D01*
X015765Y013715D01*
X015871Y013672D01*
X015993Y013675D02*
X021589Y013675D01*
X021687Y013773D02*
X016149Y013773D01*
X016203Y013872D02*
X026116Y013872D01*
X026215Y013970D02*
X024421Y013970D01*
X024452Y014002D02*
X024388Y013937D01*
X023647Y013937D01*
X023582Y014002D01*
X023582Y014743D01*
X023647Y014807D01*
X024388Y014807D01*
X024452Y014743D01*
X024452Y014002D01*
X024452Y014069D02*
X026313Y014069D01*
X026412Y014167D02*
X024452Y014167D01*
X024452Y014266D02*
X026510Y014266D01*
X026609Y014364D02*
X024452Y014364D01*
X024452Y014463D02*
X026746Y014463D01*
X027345Y013960D02*
X026558Y013172D01*
X026558Y012385D01*
X024038Y009865D01*
X022030Y009865D01*
X022030Y010645D01*
X021704Y010971D01*
X021704Y012019D01*
X021446Y012296D02*
X020741Y012296D01*
X020839Y012197D02*
X021368Y012197D01*
X021327Y012099D02*
X020938Y012099D01*
X021036Y012000D02*
X021326Y012000D01*
X021343Y011902D02*
X021135Y011902D01*
X021233Y011803D02*
X021384Y011803D01*
X021332Y011705D02*
X021454Y011705D01*
X021454Y011606D02*
X021410Y011606D01*
X021434Y011508D02*
X021454Y011508D01*
X021454Y011409D02*
X021434Y011409D01*
X021434Y011311D02*
X021454Y011311D01*
X021454Y011212D02*
X021434Y011212D01*
X021434Y011114D02*
X021454Y011114D01*
X021454Y011015D02*
X021434Y011015D01*
X021434Y010917D02*
X021456Y010917D01*
X021434Y010818D02*
X021503Y010818D01*
X021434Y010720D02*
X021602Y010720D01*
X021523Y010621D02*
X021434Y010621D01*
X021637Y010259D02*
X021641Y010255D01*
X021641Y009546D01*
X021684Y009503D01*
X024243Y009503D01*
X024244Y010424D02*
X024180Y010424D01*
X024167Y010523D02*
X024342Y010523D01*
X024441Y010621D02*
X024126Y010621D01*
X024033Y010720D02*
X024539Y010720D01*
X024638Y010818D02*
X023754Y010818D01*
X023655Y010917D02*
X024736Y010917D01*
X024835Y011015D02*
X023557Y011015D01*
X023458Y011114D02*
X024933Y011114D01*
X025032Y011212D02*
X023360Y011212D01*
X023261Y011311D02*
X025130Y011311D01*
X025229Y011409D02*
X023163Y011409D01*
X023064Y011508D02*
X025327Y011508D01*
X025426Y011606D02*
X022966Y011606D01*
X022867Y011705D02*
X025524Y011705D01*
X025623Y011803D02*
X022769Y011803D01*
X022670Y011902D02*
X025721Y011902D01*
X025820Y012000D02*
X024255Y012000D01*
X024264Y012004D02*
X024386Y012126D01*
X024452Y012286D01*
X024452Y012459D01*
X024386Y012619D01*
X024264Y012741D01*
X024104Y012807D01*
X023931Y012807D01*
X023771Y012741D01*
X023648Y012619D01*
X023582Y012459D01*
X023582Y012286D01*
X023648Y012126D01*
X023771Y012004D01*
X023931Y011937D01*
X024104Y011937D01*
X024264Y012004D01*
X024359Y012099D02*
X025918Y012099D01*
X026017Y012197D02*
X024416Y012197D01*
X024452Y012296D02*
X026115Y012296D01*
X026214Y012394D02*
X024452Y012394D01*
X024438Y012493D02*
X026308Y012493D01*
X026308Y012591D02*
X024397Y012591D01*
X024315Y012690D02*
X026308Y012690D01*
X026308Y012788D02*
X024150Y012788D01*
X023884Y012788D02*
X022605Y012788D01*
X022605Y012690D02*
X023719Y012690D01*
X023637Y012591D02*
X022605Y012591D01*
X022521Y012493D02*
X023596Y012493D01*
X023582Y012394D02*
X022477Y012394D01*
X022477Y012296D02*
X023582Y012296D01*
X023619Y012197D02*
X022477Y012197D01*
X022477Y012099D02*
X023676Y012099D01*
X023779Y012000D02*
X022572Y012000D01*
X022227Y011991D02*
X023802Y010416D01*
X021493Y009341D02*
X021434Y009341D01*
X021434Y009242D02*
X021967Y009242D01*
X021931Y009144D02*
X021434Y009144D01*
X021434Y009045D02*
X021931Y009045D01*
X021970Y008947D02*
X021434Y008947D01*
X021434Y008848D02*
X022046Y008848D01*
X021935Y008750D02*
X021434Y008750D01*
X020934Y009242D02*
X019382Y009242D01*
X019445Y009341D02*
X020934Y009341D01*
X020934Y009439D02*
X019464Y009439D01*
X019449Y009538D02*
X020934Y009538D01*
X020934Y009636D02*
X019391Y009636D01*
X018961Y009636D02*
X016299Y009636D01*
X016376Y009735D02*
X020934Y009735D01*
X020934Y009833D02*
X018930Y009833D01*
X018985Y009856D02*
X019091Y009962D01*
X019149Y010101D01*
X019149Y010251D01*
X019091Y010390D01*
X018985Y010497D01*
X018846Y010554D01*
X018695Y010554D01*
X018556Y010497D01*
X018450Y010390D01*
X018392Y010251D01*
X018392Y010101D01*
X018450Y009962D01*
X018556Y009856D01*
X018695Y009798D01*
X018846Y009798D01*
X018985Y009856D01*
X019061Y009932D02*
X020934Y009932D01*
X020934Y010030D02*
X019119Y010030D01*
X019149Y010129D02*
X020934Y010129D01*
X020934Y010227D02*
X019149Y010227D01*
X019118Y010326D02*
X020934Y010326D01*
X020934Y010424D02*
X019057Y010424D01*
X018922Y010523D02*
X020934Y010523D01*
X020934Y010621D02*
X018365Y010621D01*
X018389Y010720D02*
X020934Y010720D01*
X020934Y010818D02*
X018389Y010818D01*
X018313Y010523D02*
X018619Y010523D01*
X018484Y010424D02*
X018200Y010424D01*
X018423Y010326D02*
X009734Y010326D01*
X009767Y010424D02*
X017821Y010424D01*
X017708Y010523D02*
X009767Y010523D01*
X009389Y010479D02*
X009389Y011050D01*
X008448Y011991D01*
X004491Y011991D01*
X003822Y012660D01*
X003553Y012394D02*
X001679Y012394D01*
X001697Y012412D02*
X001784Y012622D01*
X001784Y012849D01*
X001697Y013058D01*
X001537Y013218D01*
X001328Y013305D01*
X001101Y013305D01*
X000891Y013218D01*
X000731Y013058D01*
X000644Y012849D01*
X000644Y012622D01*
X000731Y012412D01*
X000891Y012252D01*
X000949Y012228D01*
X000915Y012217D01*
X000842Y012180D01*
X000775Y012132D01*
X000718Y012074D01*
X000670Y012008D01*
X000632Y011935D01*
X000607Y011857D01*
X000596Y011785D01*
X001064Y011785D01*
X001064Y011685D01*
X000596Y011685D01*
X000607Y011613D01*
X000632Y011536D01*
X000670Y011463D01*
X000718Y011396D01*
X000775Y011339D01*
X000842Y011290D01*
X000915Y011253D01*
X000992Y011228D01*
X001064Y011217D01*
X001064Y011685D01*
X001164Y011685D01*
X001164Y011217D01*
X001236Y011228D01*
X001314Y011253D01*
X001387Y011290D01*
X001453Y011339D01*
X001511Y011396D01*
X001559Y011463D01*
X001596Y011536D01*
X001621Y011613D01*
X001633Y011685D01*
X001164Y011685D01*
X001164Y011785D01*
X001633Y011785D01*
X001621Y011857D01*
X001596Y011935D01*
X001559Y012008D01*
X001511Y012074D01*
X001453Y012132D01*
X001387Y012180D01*
X001376Y012185D01*
X001537Y012252D01*
X001697Y012412D01*
X001731Y012493D02*
X003482Y012493D01*
X003444Y012591D02*
X001772Y012591D01*
X001784Y012690D02*
X003444Y012690D01*
X003465Y012788D02*
X001784Y012788D01*
X001768Y012887D02*
X003513Y012887D01*
X003618Y012985D02*
X001728Y012985D01*
X001672Y013084D02*
X007802Y013084D01*
X007719Y012985D02*
X004026Y012985D01*
X004130Y012887D02*
X007671Y012887D01*
X007673Y012788D02*
X004178Y012788D01*
X004200Y012690D02*
X007719Y012690D01*
X007820Y012591D02*
X004245Y012591D01*
X004343Y012493D02*
X007918Y012493D01*
X008439Y012591D02*
X008447Y012591D01*
X008614Y012591D02*
X009069Y012591D01*
X009200Y012576D02*
X009200Y012576D01*
X009235Y012591D02*
X009244Y012591D01*
X008945Y012690D02*
X008738Y012690D01*
X008778Y012788D02*
X008904Y012788D01*
X008864Y012887D02*
X008819Y012887D01*
X009881Y013084D02*
X011021Y013084D01*
X010978Y013182D02*
X010021Y013182D01*
X010211Y013281D02*
X010959Y013281D01*
X010960Y013379D02*
X010253Y013379D01*
X010253Y013478D02*
X011001Y013478D01*
X011077Y013576D02*
X010253Y013576D01*
X010253Y013675D02*
X011249Y013675D01*
X010247Y013773D02*
X013332Y013773D01*
X013367Y013738D02*
X013261Y013844D01*
X013203Y013983D01*
X013203Y014133D01*
X013261Y014272D01*
X013367Y014379D01*
X013506Y014436D01*
X013657Y014436D01*
X013796Y014379D01*
X013902Y014272D01*
X013960Y014133D01*
X013960Y013983D01*
X013902Y013844D01*
X013796Y013738D01*
X013657Y013680D01*
X013506Y013680D01*
X013367Y013738D01*
X013250Y013872D02*
X010191Y013872D01*
X009898Y014069D02*
X013203Y014069D01*
X013209Y013970D02*
X009827Y013970D01*
X009979Y014167D02*
X013217Y014167D01*
X013258Y014266D02*
X010014Y014266D01*
X010006Y014364D02*
X013353Y014364D01*
X013810Y014364D02*
X022727Y014364D01*
X022727Y014266D02*
X013905Y014266D01*
X013946Y014167D02*
X015728Y014167D01*
X015661Y014069D02*
X013960Y014069D01*
X013954Y013970D02*
X015640Y013970D01*
X015653Y013872D02*
X013914Y013872D01*
X013831Y013773D02*
X015707Y013773D01*
X016216Y013970D02*
X023614Y013970D01*
X023582Y014069D02*
X023242Y014069D01*
X023238Y014065D02*
X023303Y014130D01*
X023303Y014577D01*
X023238Y014641D01*
X022791Y014641D01*
X022727Y014577D01*
X022727Y014130D01*
X022791Y014065D01*
X023238Y014065D01*
X023303Y014167D02*
X023582Y014167D01*
X023582Y014266D02*
X023303Y014266D01*
X023303Y014364D02*
X023582Y014364D01*
X023582Y014463D02*
X023303Y014463D01*
X023303Y014561D02*
X023582Y014561D01*
X023582Y014660D02*
X014724Y014660D01*
X014721Y014656D02*
X014802Y014737D01*
X014846Y014843D01*
X014846Y014958D01*
X014802Y015064D01*
X014721Y015145D01*
X014615Y015189D01*
X014501Y015189D01*
X014497Y015187D01*
X014561Y015251D01*
X014626Y015409D01*
X014671Y015302D01*
X014806Y015167D01*
X014982Y015094D01*
X015173Y015094D01*
X015350Y015167D01*
X015485Y015302D01*
X015558Y015478D01*
X015558Y015669D01*
X015485Y015846D01*
X015350Y015981D01*
X015173Y016054D01*
X014982Y016054D01*
X014806Y015981D01*
X014671Y015846D01*
X014626Y015739D01*
X014561Y015897D01*
X014401Y016057D01*
X014191Y016144D01*
X013964Y016144D01*
X013755Y016057D01*
X013594Y015897D01*
X013578Y015856D01*
X013561Y015897D01*
X013401Y016057D01*
X013191Y016144D01*
X012964Y016144D01*
X012755Y016057D01*
X012594Y015897D01*
X012578Y015856D01*
X012561Y015897D01*
X012401Y016057D01*
X012191Y016144D01*
X011964Y016144D01*
X011755Y016057D01*
X011594Y015897D01*
X011578Y015856D01*
X011561Y015897D01*
X011401Y016057D01*
X011191Y016144D01*
X010964Y016144D01*
X010755Y016057D01*
X010594Y015897D01*
X010529Y015739D01*
X010485Y015846D01*
X010350Y015981D01*
X010173Y016054D01*
X009982Y016054D01*
X009806Y015981D01*
X009671Y015846D01*
X009598Y015669D01*
X009598Y015478D01*
X009671Y015302D01*
X009806Y015167D01*
X009982Y015094D01*
X010173Y015094D01*
X010350Y015167D01*
X010485Y015302D01*
X010529Y015409D01*
X010594Y015251D01*
X010755Y015091D01*
X010964Y015004D01*
X011191Y015004D01*
X011401Y015091D01*
X011561Y015251D01*
X011578Y015291D01*
X011594Y015251D01*
X011755Y015091D01*
X011964Y015004D01*
X012191Y015004D01*
X012401Y015091D01*
X012561Y015251D01*
X012578Y015291D01*
X012594Y015251D01*
X012755Y015091D01*
X012964Y015004D01*
X013191Y015004D01*
X013401Y015091D01*
X013561Y015251D01*
X013578Y015291D01*
X013594Y015251D01*
X013755Y015091D01*
X013964Y015004D01*
X014191Y015004D01*
X014309Y015053D01*
X014270Y014958D01*
X014270Y014843D01*
X014314Y014737D01*
X014395Y014656D01*
X014501Y014612D01*
X014615Y014612D01*
X014721Y014656D01*
X014811Y014758D02*
X023597Y014758D01*
X024437Y014758D02*
X028472Y014758D01*
X028446Y014769D02*
X028743Y014646D01*
X029066Y014646D01*
X029363Y014769D01*
X029591Y014997D01*
X029714Y015295D01*
X029714Y015617D01*
X029591Y015915D01*
X029363Y016142D01*
X029066Y016266D01*
X028743Y016266D01*
X028446Y016142D01*
X028218Y015915D01*
X028094Y015617D01*
X028094Y015295D01*
X028218Y014997D01*
X028446Y014769D01*
X028358Y014857D02*
X014846Y014857D01*
X014846Y014955D02*
X028259Y014955D01*
X028194Y015054D02*
X014806Y015054D01*
X014841Y015152D02*
X014703Y015152D01*
X014722Y015251D02*
X014561Y015251D01*
X014602Y015349D02*
X014651Y015349D01*
X014624Y015743D02*
X014628Y015743D01*
X014669Y015842D02*
X014584Y015842D01*
X014517Y015940D02*
X014765Y015940D01*
X014946Y016039D02*
X014419Y016039D01*
X014207Y016137D02*
X028440Y016137D01*
X028342Y016039D02*
X015210Y016039D01*
X015390Y015940D02*
X028243Y015940D01*
X028188Y015842D02*
X015486Y015842D01*
X015527Y015743D02*
X028147Y015743D01*
X028106Y015645D02*
X015558Y015645D01*
X015558Y015546D02*
X028094Y015546D01*
X028094Y015448D02*
X015545Y015448D01*
X015504Y015349D02*
X028094Y015349D01*
X028113Y015251D02*
X015433Y015251D01*
X015314Y015152D02*
X028153Y015152D01*
X028710Y014660D02*
X024452Y014660D01*
X024452Y014561D02*
X029912Y014561D01*
X030013Y014660D02*
X029099Y014660D01*
X029337Y014758D02*
X030113Y014758D01*
X030259Y014955D02*
X029549Y014955D01*
X029615Y015054D02*
X030194Y015054D01*
X030153Y015152D02*
X029655Y015152D01*
X029696Y015251D02*
X030113Y015251D01*
X030094Y015349D02*
X029714Y015349D01*
X029714Y015448D02*
X030094Y015448D01*
X030094Y015546D02*
X029714Y015546D01*
X029703Y015645D02*
X030106Y015645D01*
X030147Y015743D02*
X029662Y015743D01*
X029621Y015842D02*
X030188Y015842D01*
X030243Y015940D02*
X029565Y015940D01*
X029467Y016039D02*
X030342Y016039D01*
X030440Y016137D02*
X029368Y016137D01*
X029138Y016236D02*
X030671Y016236D01*
X031138Y016236D02*
X033506Y016236D01*
X033435Y016218D02*
X033435Y016218D01*
X033312Y016137D02*
X031368Y016137D01*
X031467Y016039D02*
X033161Y016039D01*
X033076Y015983D02*
X033076Y015983D01*
X033043Y015940D02*
X031565Y015940D01*
X031621Y015842D02*
X032966Y015842D01*
X032889Y015743D02*
X031662Y015743D01*
X031703Y015645D02*
X032813Y015645D01*
X032778Y015546D02*
X031714Y015546D01*
X031714Y015448D02*
X032744Y015448D01*
X032711Y015349D02*
X031714Y015349D01*
X031696Y015251D02*
X032677Y015251D01*
X032672Y015152D02*
X031655Y015152D01*
X031615Y015054D02*
X032672Y015054D01*
X032672Y014955D02*
X031549Y014955D01*
X031451Y014857D02*
X032672Y014857D01*
X032689Y014758D02*
X032263Y014758D01*
X032362Y014660D02*
X032723Y014660D01*
X032757Y014561D02*
X032462Y014561D01*
X032562Y014463D02*
X032791Y014463D01*
X032841Y014364D02*
X032662Y014364D01*
X032761Y014266D02*
X032918Y014266D01*
X032861Y014167D02*
X032994Y014167D01*
X032934Y014069D02*
X033071Y014069D01*
X033076Y014063D02*
X033076Y014063D01*
X032954Y013970D02*
X033217Y013970D01*
X033368Y013872D02*
X032954Y013872D01*
X032954Y013923D02*
X032954Y013923D01*
X032704Y013971D02*
X032704Y013282D01*
X032708Y013279D01*
X032287Y013281D02*
X035002Y013281D01*
X035002Y013379D02*
X032287Y013379D01*
X032286Y013478D02*
X035003Y013478D01*
X035253Y013478D02*
X035266Y013478D01*
X035253Y013576D02*
X035266Y013576D01*
X035253Y013620D02*
X035253Y013620D01*
X035266Y013675D02*
X035230Y013675D01*
X035266Y013773D02*
X035153Y013773D01*
X035144Y013782D02*
X035144Y013782D01*
X035266Y013872D02*
X034540Y013872D01*
X034673Y013930D02*
X034673Y013930D01*
X034717Y013970D02*
X035266Y013970D01*
X035266Y014069D02*
X034824Y014069D01*
X034931Y014167D02*
X035266Y014167D01*
X035266Y014266D02*
X035013Y014266D01*
X035067Y014364D02*
X035266Y014364D01*
X035266Y014463D02*
X035120Y014463D01*
X035173Y014561D02*
X035266Y014561D01*
X035266Y014660D02*
X035204Y014660D01*
X035220Y014758D02*
X035266Y014758D01*
X035266Y014857D02*
X035237Y014857D01*
X035253Y014955D02*
X035266Y014955D01*
X035265Y015023D02*
X035265Y015023D01*
X035259Y015054D02*
X035266Y015054D01*
X035264Y015152D02*
X035243Y015152D01*
X035257Y015251D02*
X035226Y015251D01*
X035236Y015349D02*
X035210Y015349D01*
X035209Y015448D02*
X035193Y015448D01*
X035183Y015546D02*
X035140Y015546D01*
X035136Y015645D02*
X035087Y015645D01*
X035079Y015743D02*
X035033Y015743D01*
X034989Y015824D02*
X034989Y015824D01*
X034970Y015842D02*
X035023Y015842D01*
X034929Y015940D02*
X034863Y015940D01*
X034831Y016039D02*
X034756Y016039D01*
X034673Y016115D02*
X034673Y016115D01*
X034689Y016137D02*
X034623Y016137D01*
X034519Y016236D02*
X034399Y016236D01*
X034280Y016288D02*
X034280Y016288D01*
X032117Y014550D02*
X032704Y013971D01*
X032117Y014550D02*
X030259Y014550D01*
X030358Y014857D02*
X029451Y014857D01*
X028671Y016236D02*
X002076Y016236D01*
X001957Y016288D02*
X001957Y016288D01*
X001529Y016323D01*
X001112Y016218D01*
X000753Y015983D01*
X000753Y015983D01*
X000489Y015644D01*
X000489Y015644D01*
X000349Y015237D01*
X000349Y014808D01*
X000489Y014402D01*
X000489Y014402D01*
X000753Y014063D01*
X001112Y013828D01*
X001529Y013722D01*
X001957Y013758D01*
X002350Y013930D01*
X002350Y013930D01*
X002667Y014221D01*
X002871Y014599D01*
X002942Y015023D01*
X002871Y015446D01*
X002871Y015446D01*
X002667Y015824D01*
X002350Y016115D01*
X001957Y016288D01*
X002300Y016137D02*
X003653Y016137D01*
X003669Y016144D02*
X003459Y016057D01*
X003299Y015897D01*
X003212Y015687D01*
X003212Y015460D01*
X003299Y015251D01*
X003459Y015091D01*
X003669Y015004D01*
X003896Y015004D01*
X004105Y015091D01*
X004266Y015251D01*
X004282Y015291D01*
X004299Y015251D01*
X004459Y015091D01*
X004669Y015004D01*
X004896Y015004D01*
X005105Y015091D01*
X005266Y015251D01*
X005282Y015291D01*
X005299Y015251D01*
X005459Y015091D01*
X005669Y015004D01*
X005896Y015004D01*
X006105Y015091D01*
X006266Y015251D01*
X006282Y015291D01*
X006299Y015251D01*
X006459Y015091D01*
X006669Y015004D01*
X006896Y015004D01*
X007105Y015091D01*
X007266Y015251D01*
X007282Y015291D01*
X007299Y015251D01*
X007459Y015091D01*
X007669Y015004D01*
X007896Y015004D01*
X008105Y015091D01*
X008266Y015251D01*
X008282Y015291D01*
X008299Y015251D01*
X008459Y015091D01*
X008669Y015004D01*
X008896Y015004D01*
X009105Y015091D01*
X009266Y015251D01*
X009352Y015460D01*
X009352Y015687D01*
X009266Y015897D01*
X009105Y016057D01*
X008896Y016144D01*
X008669Y016144D01*
X008459Y016057D01*
X008299Y015897D01*
X008282Y015856D01*
X008266Y015897D01*
X008105Y016057D01*
X007896Y016144D01*
X007669Y016144D01*
X007459Y016057D01*
X007299Y015897D01*
X007282Y015856D01*
X007266Y015897D01*
X007105Y016057D01*
X006896Y016144D01*
X006669Y016144D01*
X006459Y016057D01*
X006299Y015897D01*
X006282Y015856D01*
X006266Y015897D01*
X006105Y016057D01*
X005896Y016144D01*
X005669Y016144D01*
X005459Y016057D01*
X005299Y015897D01*
X005282Y015856D01*
X005266Y015897D01*
X005105Y016057D01*
X004896Y016144D01*
X004669Y016144D01*
X004459Y016057D01*
X004299Y015897D01*
X004282Y015856D01*
X004266Y015897D01*
X004105Y016057D01*
X003896Y016144D01*
X003669Y016144D01*
X003912Y016137D02*
X004653Y016137D01*
X004441Y016039D02*
X004124Y016039D01*
X004222Y015940D02*
X004343Y015940D01*
X004912Y016137D02*
X005653Y016137D01*
X005441Y016039D02*
X005124Y016039D01*
X005222Y015940D02*
X005343Y015940D01*
X005912Y016137D02*
X006653Y016137D01*
X006441Y016039D02*
X006124Y016039D01*
X006222Y015940D02*
X006343Y015940D01*
X006912Y016137D02*
X007653Y016137D01*
X007441Y016039D02*
X007124Y016039D01*
X007222Y015940D02*
X007343Y015940D01*
X007912Y016137D02*
X008653Y016137D01*
X008441Y016039D02*
X008124Y016039D01*
X008222Y015940D02*
X008343Y015940D01*
X008912Y016137D02*
X010948Y016137D01*
X010736Y016039D02*
X010210Y016039D01*
X010390Y015940D02*
X010638Y015940D01*
X010572Y015842D02*
X010486Y015842D01*
X010527Y015743D02*
X010531Y015743D01*
X010504Y015349D02*
X010554Y015349D01*
X010595Y015251D02*
X010433Y015251D01*
X010314Y015152D02*
X010693Y015152D01*
X010844Y015054D02*
X009016Y015054D01*
X009095Y014955D02*
X014270Y014955D01*
X014270Y014857D02*
X009195Y014857D01*
X009225Y014758D02*
X014305Y014758D01*
X014391Y014660D02*
X009745Y014660D01*
X009843Y014561D02*
X022727Y014561D01*
X022727Y014463D02*
X009943Y014463D01*
X009390Y014660D02*
X009234Y014660D01*
X009244Y014561D02*
X009269Y014561D01*
X008587Y014955D02*
X002930Y014955D01*
X002937Y015054D02*
X003549Y015054D01*
X003398Y015152D02*
X002920Y015152D01*
X002904Y015251D02*
X003299Y015251D01*
X003258Y015349D02*
X002887Y015349D01*
X002870Y015448D02*
X003218Y015448D01*
X003212Y015546D02*
X002817Y015546D01*
X002764Y015645D02*
X003212Y015645D01*
X003236Y015743D02*
X002710Y015743D01*
X002667Y015824D02*
X002667Y015824D01*
X002648Y015842D02*
X003276Y015842D01*
X003343Y015940D02*
X002541Y015940D01*
X002434Y016039D02*
X003441Y016039D01*
X002350Y016115D02*
X002350Y016115D01*
X001529Y016323D02*
X001529Y016323D01*
X001183Y016236D02*
X000994Y016236D01*
X000989Y016137D02*
X000817Y016137D01*
X000838Y016039D02*
X000682Y016039D01*
X000753Y015983D02*
X000753Y015983D01*
X000720Y015940D02*
X000593Y015940D01*
X000643Y015842D02*
X000522Y015842D01*
X000566Y015743D02*
X000450Y015743D01*
X000417Y015645D02*
X000490Y015645D01*
X000455Y015546D02*
X000385Y015546D01*
X000353Y015448D02*
X000422Y015448D01*
X000388Y015349D02*
X000338Y015349D01*
X000330Y015251D02*
X000354Y015251D01*
X000349Y015152D02*
X000330Y015152D01*
X000330Y015054D02*
X000349Y015054D01*
X000349Y014955D02*
X000330Y014955D01*
X000330Y014857D02*
X000349Y014857D01*
X000330Y014758D02*
X000367Y014758D01*
X000400Y014660D02*
X000330Y014660D01*
X000330Y014561D02*
X000434Y014561D01*
X000468Y014463D02*
X000330Y014463D01*
X000330Y014364D02*
X000518Y014364D01*
X000595Y014266D02*
X000330Y014266D01*
X000330Y014167D02*
X000671Y014167D01*
X000748Y014069D02*
X000330Y014069D01*
X000330Y013970D02*
X000894Y013970D01*
X000753Y014063D02*
X000753Y014063D01*
X000753Y014063D01*
X001045Y013872D02*
X000330Y013872D01*
X000330Y013773D02*
X001327Y013773D01*
X001529Y013722D02*
X001529Y013722D01*
X001957Y013758D02*
X001957Y013758D01*
X001993Y013773D02*
X007436Y013773D01*
X007430Y013675D02*
X000330Y013675D01*
X000330Y013576D02*
X007430Y013576D01*
X007430Y013478D02*
X000330Y013478D01*
X000330Y013379D02*
X007430Y013379D01*
X007472Y013281D02*
X001387Y013281D01*
X001573Y013182D02*
X007662Y013182D01*
X007492Y013872D02*
X002217Y013872D01*
X002394Y013970D02*
X007856Y013970D01*
X007785Y014069D02*
X002501Y014069D01*
X002608Y014167D02*
X007704Y014167D01*
X007669Y014266D02*
X002691Y014266D01*
X002667Y014221D02*
X002667Y014221D01*
X002744Y014364D02*
X007677Y014364D01*
X007740Y014463D02*
X002797Y014463D01*
X002851Y014561D02*
X007840Y014561D01*
X007938Y014660D02*
X002881Y014660D01*
X002871Y014599D02*
X002871Y014599D01*
X002898Y014758D02*
X008458Y014758D01*
X008449Y014660D02*
X008293Y014660D01*
X008414Y014561D02*
X008439Y014561D01*
X008487Y014857D02*
X002914Y014857D01*
X004016Y015054D02*
X004549Y015054D01*
X004398Y015152D02*
X004167Y015152D01*
X004265Y015251D02*
X004299Y015251D01*
X005016Y015054D02*
X005549Y015054D01*
X005398Y015152D02*
X005167Y015152D01*
X005265Y015251D02*
X005299Y015251D01*
X006016Y015054D02*
X006549Y015054D01*
X006398Y015152D02*
X006167Y015152D01*
X006265Y015251D02*
X006299Y015251D01*
X007016Y015054D02*
X007549Y015054D01*
X007398Y015152D02*
X007167Y015152D01*
X007265Y015251D02*
X007299Y015251D01*
X008016Y015054D02*
X008549Y015054D01*
X008398Y015152D02*
X008167Y015152D01*
X008265Y015251D02*
X008299Y015251D01*
X009167Y015152D02*
X009841Y015152D01*
X009722Y015251D02*
X009265Y015251D01*
X009306Y015349D02*
X009651Y015349D01*
X009610Y015448D02*
X009347Y015448D01*
X009352Y015546D02*
X009598Y015546D01*
X009598Y015645D02*
X009352Y015645D01*
X009329Y015743D02*
X009628Y015743D01*
X009669Y015842D02*
X009288Y015842D01*
X009222Y015940D02*
X009765Y015940D01*
X009946Y016039D02*
X009124Y016039D01*
X011207Y016137D02*
X011948Y016137D01*
X011736Y016039D02*
X011419Y016039D01*
X011517Y015940D02*
X011638Y015940D01*
X012207Y016137D02*
X012948Y016137D01*
X012736Y016039D02*
X012419Y016039D01*
X012517Y015940D02*
X012638Y015940D01*
X013207Y016137D02*
X013948Y016137D01*
X013736Y016039D02*
X013419Y016039D01*
X013517Y015940D02*
X013638Y015940D01*
X013595Y015251D02*
X013561Y015251D01*
X013462Y015152D02*
X013693Y015152D01*
X013844Y015054D02*
X013311Y015054D01*
X012844Y015054D02*
X012311Y015054D01*
X012462Y015152D02*
X012693Y015152D01*
X012595Y015251D02*
X012561Y015251D01*
X011844Y015054D02*
X011311Y015054D01*
X011462Y015152D02*
X011693Y015152D01*
X011595Y015251D02*
X011561Y015251D01*
X016128Y014167D02*
X022727Y014167D01*
X022788Y014069D02*
X016195Y014069D01*
X012789Y012394D02*
X011741Y012394D01*
X011779Y012296D02*
X012690Y012296D01*
X012592Y012197D02*
X011779Y012197D01*
X011756Y012099D02*
X012493Y012099D01*
X012395Y012000D02*
X011708Y012000D01*
X011602Y011902D02*
X012296Y011902D01*
X012806Y011705D02*
X020625Y011705D01*
X020619Y011606D02*
X020723Y011606D01*
X020626Y011603D02*
X020487Y011661D01*
X020337Y011661D01*
X020198Y011603D01*
X020092Y011497D01*
X020034Y011358D01*
X020034Y011207D01*
X020092Y011068D01*
X020198Y010962D01*
X020337Y010904D01*
X020487Y010904D01*
X020626Y010962D01*
X020733Y011068D01*
X020790Y011207D01*
X020790Y011358D01*
X020733Y011497D01*
X020626Y011603D01*
X020722Y011508D02*
X020822Y011508D01*
X020769Y011409D02*
X020920Y011409D01*
X020934Y011311D02*
X020790Y011311D01*
X020790Y011212D02*
X020934Y011212D01*
X020934Y011114D02*
X020752Y011114D01*
X020680Y011015D02*
X020934Y011015D01*
X020934Y010917D02*
X020517Y010917D01*
X020307Y010917D02*
X018747Y010917D01*
X018835Y011015D02*
X020145Y011015D01*
X020073Y011114D02*
X018875Y011114D01*
X018885Y011212D02*
X020034Y011212D01*
X020034Y011311D02*
X018875Y011311D01*
X018834Y011409D02*
X020055Y011409D01*
X020103Y011508D02*
X018745Y011508D01*
X018268Y011508D02*
X012609Y011508D01*
X012708Y011606D02*
X020206Y011606D01*
X020526Y011803D02*
X012905Y011803D01*
X013003Y011902D02*
X020428Y011902D01*
X022227Y011991D02*
X022227Y012838D01*
X022605Y012887D02*
X026308Y012887D01*
X026308Y012985D02*
X022605Y012985D01*
X022605Y013084D02*
X026308Y013084D01*
X026308Y013182D02*
X022522Y013182D01*
X018179Y011409D02*
X012511Y011409D01*
X012412Y011311D02*
X018139Y011311D01*
X018129Y011212D02*
X012291Y011212D01*
X009765Y011114D02*
X009633Y011114D01*
X009597Y011212D02*
X009580Y011212D01*
X009523Y011311D02*
X009482Y011311D01*
X009483Y011409D02*
X009383Y011409D01*
X009285Y011508D02*
X009483Y011508D01*
X009503Y011606D02*
X009186Y011606D01*
X009088Y011705D02*
X009548Y011705D01*
X008676Y011409D02*
X006517Y011409D01*
X006552Y011375D02*
X006445Y011481D01*
X006306Y011539D01*
X006156Y011539D01*
X006017Y011481D01*
X005911Y011375D01*
X005853Y011236D01*
X005853Y011152D01*
X005842Y011157D01*
X005691Y011157D01*
X005552Y011099D01*
X005446Y010993D01*
X005389Y010854D01*
X005389Y010703D01*
X005446Y010564D01*
X005552Y010458D01*
X005691Y010400D01*
X005842Y010400D01*
X005981Y010458D01*
X006087Y010564D01*
X006145Y010703D01*
X006145Y010787D01*
X006156Y010782D01*
X006306Y010782D01*
X006445Y010840D01*
X006552Y010946D01*
X006609Y011085D01*
X006609Y011236D01*
X006552Y011375D01*
X006578Y011311D02*
X007682Y011311D01*
X007719Y011326D02*
X007580Y011268D01*
X007474Y011162D01*
X007416Y011023D01*
X007416Y010873D01*
X007474Y010734D01*
X007580Y010627D01*
X007719Y010570D01*
X007869Y010570D01*
X008008Y010627D01*
X008115Y010734D01*
X008172Y010873D01*
X008172Y011023D01*
X008115Y011162D01*
X008008Y011268D01*
X007869Y011326D01*
X007719Y011326D01*
X007906Y011311D02*
X008775Y011311D01*
X008873Y011212D02*
X008065Y011212D01*
X008135Y011114D02*
X008972Y011114D01*
X009070Y011015D02*
X008172Y011015D01*
X008172Y010917D02*
X009139Y010917D01*
X009139Y010818D02*
X008150Y010818D01*
X008101Y010720D02*
X009094Y010720D01*
X009038Y010621D02*
X007994Y010621D01*
X007595Y010621D02*
X006111Y010621D01*
X006145Y010720D02*
X007488Y010720D01*
X007439Y010818D02*
X006393Y010818D01*
X006522Y010917D02*
X007416Y010917D01*
X007416Y011015D02*
X006580Y011015D01*
X006609Y011114D02*
X007454Y011114D01*
X007524Y011212D02*
X006609Y011212D01*
X006381Y011508D02*
X008578Y011508D01*
X008479Y011606D02*
X003281Y011606D01*
X003229Y011585D02*
X003335Y011629D01*
X003416Y011710D01*
X003460Y011816D01*
X003460Y011930D01*
X003416Y012036D01*
X003335Y012117D01*
X003229Y012161D01*
X003115Y012161D01*
X003009Y012117D01*
X002928Y012036D01*
X002884Y011930D01*
X002884Y011816D01*
X002928Y011710D01*
X003009Y011629D01*
X003115Y011585D01*
X003229Y011585D01*
X003064Y011606D02*
X002493Y011606D01*
X002442Y011585D02*
X002548Y011629D01*
X002629Y011710D01*
X002673Y011816D01*
X002673Y011930D01*
X002629Y012036D01*
X002548Y012117D01*
X002442Y012161D01*
X002327Y012161D01*
X002222Y012117D01*
X002140Y012036D01*
X002097Y011930D01*
X002097Y011816D01*
X002140Y011710D01*
X002222Y011629D01*
X002327Y011585D01*
X002442Y011585D01*
X002276Y011606D02*
X001619Y011606D01*
X001582Y011508D02*
X006081Y011508D01*
X005945Y011409D02*
X001520Y011409D01*
X001415Y011311D02*
X005884Y011311D01*
X005853Y011212D02*
X001317Y011212D01*
X001310Y011215D02*
X001119Y011215D01*
X000942Y011142D01*
X000807Y011007D01*
X000734Y010831D01*
X000734Y010640D01*
X000807Y010463D01*
X000942Y010328D01*
X001119Y010255D01*
X001310Y010255D01*
X001486Y010328D01*
X001621Y010463D01*
X001694Y010640D01*
X001694Y010831D01*
X001621Y011007D01*
X001486Y011142D01*
X001310Y011215D01*
X001164Y011311D02*
X001064Y011311D01*
X001064Y011409D02*
X001164Y011409D01*
X001164Y011508D02*
X001064Y011508D01*
X001064Y011606D02*
X001164Y011606D01*
X001164Y011705D02*
X002146Y011705D01*
X002102Y011803D02*
X001630Y011803D01*
X001607Y011902D02*
X002097Y011902D01*
X002126Y012000D02*
X001563Y012000D01*
X001486Y012099D02*
X002203Y012099D01*
X002567Y012099D02*
X002990Y012099D01*
X002913Y012000D02*
X002644Y012000D01*
X002673Y011902D02*
X002884Y011902D01*
X002889Y011803D02*
X002668Y011803D01*
X002624Y011705D02*
X002933Y011705D01*
X003411Y011705D02*
X008381Y011705D01*
X009011Y010523D02*
X006045Y010523D01*
X005899Y010424D02*
X009011Y010424D01*
X009043Y010326D02*
X005525Y010326D01*
X005623Y010227D02*
X009106Y010227D01*
X009671Y010227D02*
X018392Y010227D01*
X018392Y010129D02*
X016224Y010129D01*
X016356Y010030D02*
X018422Y010030D01*
X018480Y009932D02*
X016400Y009932D01*
X016405Y009833D02*
X018611Y009833D01*
X018138Y011114D02*
X018133Y011114D01*
X013107Y008848D02*
X011170Y008848D01*
X011170Y008750D02*
X013066Y008750D01*
X013054Y008651D02*
X012305Y008651D01*
X012263Y008668D02*
X012402Y008611D01*
X012508Y008505D01*
X012566Y008366D01*
X012566Y008215D01*
X012508Y008076D01*
X012438Y008006D01*
X012438Y008000D01*
X014429Y006009D01*
X014818Y006009D01*
X014810Y006017D01*
X014766Y006123D01*
X014766Y006237D01*
X014810Y006343D01*
X014891Y006424D01*
X014997Y006468D01*
X015111Y006468D01*
X015217Y006424D01*
X015298Y006343D01*
X015342Y006237D01*
X015342Y006123D01*
X015298Y006017D01*
X015290Y006009D01*
X016817Y006009D01*
X016677Y006149D01*
X016664Y006180D01*
X016575Y006092D01*
X016436Y006034D01*
X016286Y006034D01*
X016147Y006092D01*
X016041Y006198D01*
X015983Y006337D01*
X015983Y006488D01*
X016041Y006627D01*
X016147Y006733D01*
X016286Y006791D01*
X016436Y006791D01*
X016511Y006760D01*
X016511Y006763D01*
X016535Y006821D01*
X016461Y006821D01*
X016355Y006865D01*
X016274Y006946D01*
X016230Y007052D01*
X016230Y007167D01*
X016274Y007272D01*
X013166Y007272D01*
X013264Y007174D02*
X016233Y007174D01*
X016230Y007075D02*
X013363Y007075D01*
X013461Y006977D02*
X016262Y006977D01*
X016342Y006878D02*
X013560Y006878D01*
X013658Y006780D02*
X016260Y006780D01*
X016095Y006681D02*
X013757Y006681D01*
X013855Y006583D02*
X016022Y006583D01*
X015983Y006484D02*
X013954Y006484D01*
X014052Y006386D02*
X014852Y006386D01*
X014786Y006287D02*
X014151Y006287D01*
X014249Y006189D02*
X014766Y006189D01*
X014779Y006090D02*
X014348Y006090D01*
X015256Y006386D02*
X015983Y006386D01*
X016004Y006287D02*
X015322Y006287D01*
X015342Y006189D02*
X016050Y006189D01*
X016151Y006090D02*
X015329Y006090D01*
X016571Y006090D02*
X016735Y006090D01*
X017714Y005795D02*
X017834Y005795D01*
X017813Y005696D02*
X017932Y005696D01*
X016306Y005141D02*
X018487Y002960D01*
X018487Y001204D01*
X018765Y001461D02*
X019112Y001461D01*
X019037Y001362D02*
X018831Y001362D01*
X018865Y001264D02*
X019010Y001264D01*
X019017Y001165D02*
X018865Y001165D01*
X018840Y001067D02*
X019063Y001067D01*
X017180Y001684D02*
X017180Y001786D01*
X017046Y001920D01*
X006932Y001920D01*
X006282Y002570D01*
X006282Y006322D01*
X007070Y007109D01*
X007424Y006977D02*
X009333Y006977D01*
X009235Y007075D02*
X007448Y007075D01*
X007448Y007174D02*
X009136Y007174D01*
X009075Y007272D02*
X007412Y007272D01*
X007343Y007371D02*
X009064Y007371D01*
X009064Y007469D02*
X007277Y007469D01*
X007302Y007568D02*
X009064Y007568D01*
X009064Y007666D02*
X007335Y007666D01*
X007433Y007765D02*
X009064Y007765D01*
X009064Y007863D02*
X007532Y007863D01*
X007630Y007962D02*
X009064Y007962D01*
X009064Y008060D02*
X007729Y008060D01*
X007827Y008159D02*
X009064Y008159D01*
X009064Y008257D02*
X007926Y008257D01*
X008024Y008356D02*
X009064Y008356D01*
X009314Y008546D02*
X009164Y008696D01*
X008011Y008696D01*
X006916Y007601D01*
X006920Y007601D01*
X006924Y007605D01*
X006624Y007371D02*
X006500Y007371D01*
X006401Y007272D02*
X006728Y007272D01*
X006692Y007174D02*
X006303Y007174D01*
X006204Y007075D02*
X006682Y007075D01*
X006584Y006977D02*
X006188Y006977D01*
X006154Y006878D02*
X006485Y006878D01*
X006387Y006780D02*
X006090Y006780D01*
X005945Y006681D02*
X006288Y006681D01*
X006190Y006583D02*
X002030Y006583D01*
X002017Y006577D02*
X002123Y006621D01*
X002204Y006702D01*
X002248Y006808D01*
X002248Y006922D01*
X002204Y007028D01*
X002123Y007109D01*
X002017Y007153D01*
X001902Y007153D01*
X001796Y007109D01*
X001715Y007028D01*
X001671Y006922D01*
X001671Y006808D01*
X001715Y006702D01*
X001796Y006621D01*
X001902Y006577D01*
X002017Y006577D01*
X001889Y006583D02*
X000330Y006583D01*
X000330Y006681D02*
X001736Y006681D01*
X001683Y006780D02*
X000330Y006780D01*
X000330Y006878D02*
X001671Y006878D01*
X001694Y006977D02*
X000330Y006977D01*
X000330Y007075D02*
X001762Y007075D01*
X001457Y007272D02*
X003920Y007272D01*
X003908Y007371D02*
X001556Y007371D01*
X001621Y007469D02*
X003915Y007469D01*
X003956Y007568D02*
X001662Y007568D01*
X001684Y007666D02*
X004041Y007666D01*
X004286Y007377D02*
X004373Y007464D01*
X005554Y007464D01*
X007349Y009259D01*
X009814Y009259D01*
X009495Y009495D02*
X009629Y009629D01*
X009495Y009495D02*
X007050Y009495D01*
X005397Y007842D01*
X005018Y007863D02*
X001678Y007863D01*
X001684Y007765D02*
X005019Y007765D01*
X005037Y007962D02*
X001637Y007962D01*
X001595Y008060D02*
X005080Y008060D01*
X005179Y008159D02*
X001497Y008159D01*
X001542Y008257D02*
X005459Y008257D01*
X005557Y008356D02*
X001641Y008356D01*
X001715Y008454D02*
X005656Y008454D01*
X005754Y008553D02*
X001993Y008553D01*
X002091Y008651D02*
X005853Y008651D01*
X005951Y008750D02*
X002190Y008750D01*
X002288Y008848D02*
X006050Y008848D01*
X006148Y008947D02*
X002387Y008947D01*
X002485Y009045D02*
X006247Y009045D01*
X006345Y009144D02*
X002584Y009144D01*
X002682Y009242D02*
X005226Y009242D01*
X005067Y009341D02*
X002781Y009341D01*
X002767Y009680D02*
X005263Y009680D01*
X005337Y009605D01*
X005608Y009341D02*
X006542Y009341D01*
X006641Y009439D02*
X005678Y009439D01*
X005716Y009538D02*
X005735Y009538D01*
X005869Y009538D02*
X006739Y009538D01*
X006838Y009636D02*
X006024Y009636D01*
X006078Y009735D02*
X006159Y009735D01*
X006100Y009833D02*
X006090Y009833D01*
X006085Y009932D02*
X006068Y009932D01*
X006103Y010030D02*
X006001Y010030D01*
X006166Y010129D02*
X005722Y010129D01*
X005802Y009822D02*
X005365Y010259D01*
X002475Y010259D01*
X001952Y009735D01*
X001114Y009735D01*
X001552Y009932D02*
X001922Y009932D01*
X002020Y010030D02*
X001498Y010030D01*
X001400Y010129D02*
X002119Y010129D01*
X002217Y010227D02*
X000330Y010227D01*
X000330Y010129D02*
X000829Y010129D01*
X000730Y010030D02*
X000330Y010030D01*
X000330Y009932D02*
X000676Y009932D01*
X000635Y009833D02*
X000330Y009833D01*
X000330Y009735D02*
X000634Y009735D01*
X000636Y009636D02*
X000330Y009636D01*
X000330Y009538D02*
X000677Y009538D01*
X000732Y009439D02*
X000330Y009439D01*
X000330Y009341D02*
X000830Y009341D01*
X000949Y009242D02*
X000330Y009242D01*
X000330Y009144D02*
X000817Y009144D01*
X000726Y009045D02*
X000330Y009045D01*
X000330Y008947D02*
X000685Y008947D01*
X000644Y008848D02*
X000330Y008848D01*
X000330Y008750D02*
X000644Y008750D01*
X000644Y008651D02*
X000330Y008651D01*
X000330Y008553D02*
X000673Y008553D01*
X000714Y008454D02*
X000330Y008454D01*
X000330Y008356D02*
X000788Y008356D01*
X000885Y008257D02*
X000330Y008257D01*
X000330Y008159D02*
X000732Y008159D01*
X000633Y008060D02*
X000330Y008060D01*
X000330Y007962D02*
X000591Y007962D01*
X000550Y007863D02*
X000330Y007863D01*
X000330Y007765D02*
X000544Y007765D01*
X000544Y007666D02*
X000330Y007666D01*
X000330Y007568D02*
X000567Y007568D01*
X000608Y007469D02*
X000330Y007469D01*
X000330Y007371D02*
X000673Y007371D01*
X000771Y007272D02*
X000330Y007272D01*
X000330Y007174D02*
X000981Y007174D01*
X001248Y007174D02*
X003961Y007174D01*
X004053Y007075D02*
X002157Y007075D01*
X002225Y006977D02*
X005432Y006977D01*
X005432Y007075D02*
X004519Y007075D01*
X004611Y007174D02*
X005458Y007174D01*
X005810Y007034D02*
X007460Y008684D01*
X007463Y008684D01*
X007463Y008688D01*
X007763Y008987D01*
X009523Y008987D01*
X009826Y008684D01*
X009314Y008546D02*
X009314Y007349D01*
X009550Y007113D01*
X011936Y007113D01*
X013908Y005141D01*
X016306Y005141D01*
X016149Y004586D02*
X012349Y004586D01*
X011503Y005432D01*
X011503Y006523D01*
X011225Y006780D02*
X007262Y006780D01*
X007190Y006681D02*
X011159Y006681D01*
X011125Y006583D02*
X007344Y006583D01*
X007412Y006484D02*
X011125Y006484D01*
X011150Y006386D02*
X007448Y006386D01*
X007448Y006287D02*
X011204Y006287D01*
X011253Y006189D02*
X007424Y006189D01*
X007373Y006090D02*
X011253Y006090D01*
X011253Y005992D02*
X007261Y005992D01*
X006879Y005992D02*
X006532Y005992D01*
X006532Y006090D02*
X006767Y006090D01*
X006716Y006189D02*
X006532Y006189D01*
X006601Y006287D02*
X006692Y006287D01*
X006532Y005893D02*
X011253Y005893D01*
X011253Y005795D02*
X006532Y005795D01*
X006532Y005696D02*
X011253Y005696D01*
X011253Y005598D02*
X006532Y005598D01*
X006532Y005499D02*
X011253Y005499D01*
X011253Y005401D02*
X010004Y005401D01*
X009993Y005405D02*
X009879Y005405D01*
X009773Y005361D01*
X009692Y005280D01*
X009648Y005174D01*
X009648Y005060D01*
X009692Y004954D01*
X009773Y004873D01*
X009879Y004829D01*
X009993Y004829D01*
X010099Y004873D01*
X010180Y004954D01*
X010224Y005060D01*
X010224Y005174D01*
X010180Y005280D01*
X010099Y005361D01*
X009993Y005405D01*
X009867Y005401D02*
X008312Y005401D01*
X008374Y005375D02*
X008236Y005432D01*
X008085Y005432D01*
X007946Y005375D01*
X007897Y005325D01*
X007855Y005367D01*
X007716Y005424D01*
X007565Y005424D01*
X007426Y005367D01*
X007320Y005260D01*
X007263Y005121D01*
X007263Y004971D01*
X007320Y004832D01*
X007426Y004726D01*
X007565Y004668D01*
X007716Y004668D01*
X007855Y004726D01*
X007904Y004775D01*
X007946Y004734D01*
X008085Y004676D01*
X008236Y004676D01*
X008374Y004734D01*
X008481Y004840D01*
X008538Y004979D01*
X008538Y005129D01*
X008481Y005268D01*
X008374Y005375D01*
X008447Y005302D02*
X009713Y005302D01*
X009660Y005204D02*
X008508Y005204D01*
X008538Y005105D02*
X009648Y005105D01*
X009670Y005007D02*
X008538Y005007D01*
X008509Y004908D02*
X009737Y004908D01*
X010134Y004908D02*
X011673Y004908D01*
X011575Y005007D02*
X010202Y005007D01*
X010224Y005105D02*
X011476Y005105D01*
X011378Y005204D02*
X010212Y005204D01*
X010158Y005302D02*
X011286Y005302D01*
X011772Y004810D02*
X008451Y004810D01*
X008320Y004711D02*
X011870Y004711D01*
X011969Y004613D02*
X006532Y004613D01*
X006532Y004711D02*
X006602Y004711D01*
X006532Y004514D02*
X012067Y004514D01*
X012166Y004416D02*
X006532Y004416D01*
X006532Y004317D02*
X015882Y004317D01*
X016046Y004219D02*
X006532Y004219D01*
X006032Y004219D02*
X001624Y004219D01*
X001597Y004283D02*
X001443Y004437D01*
X001537Y004476D01*
X001697Y004637D01*
X001784Y004846D01*
X001784Y005073D01*
X001697Y005283D01*
X001537Y005443D01*
X001329Y005529D01*
X001386Y005553D01*
X001521Y005688D01*
X001594Y005864D01*
X001594Y006055D01*
X001521Y006232D01*
X001386Y006367D01*
X001210Y006440D01*
X001019Y006440D01*
X000842Y006367D01*
X000707Y006232D01*
X000634Y006055D01*
X000634Y005864D01*
X000707Y005688D01*
X000842Y005553D01*
X000999Y005488D01*
X000891Y005443D01*
X000731Y005283D01*
X000644Y005073D01*
X000644Y004846D01*
X000731Y004637D01*
X000886Y004482D01*
X000791Y004443D01*
X000631Y004283D01*
X000544Y004073D01*
X000544Y003846D01*
X000631Y003637D01*
X000791Y003476D01*
X001001Y003390D01*
X001228Y003390D01*
X001437Y003476D01*
X001597Y003637D01*
X001684Y003846D01*
X001684Y004073D01*
X001597Y004283D01*
X001563Y004317D02*
X006032Y004317D01*
X006032Y004416D02*
X001464Y004416D01*
X001575Y004514D02*
X006032Y004514D01*
X006032Y004613D02*
X001673Y004613D01*
X001728Y004711D02*
X006032Y004711D01*
X006032Y004810D02*
X001769Y004810D01*
X001784Y004908D02*
X006032Y004908D01*
X006032Y005007D02*
X001784Y005007D01*
X001771Y005105D02*
X005477Y005105D01*
X005448Y005135D02*
X005529Y005054D01*
X005635Y005010D01*
X005749Y005010D01*
X005855Y005054D01*
X005936Y005135D01*
X005980Y005241D01*
X005980Y005356D01*
X005936Y005461D01*
X005855Y005542D01*
X005749Y005586D01*
X005635Y005586D01*
X005529Y005542D01*
X005448Y005461D01*
X005404Y005356D01*
X005404Y005241D01*
X005448Y005135D01*
X005419Y005204D02*
X001730Y005204D01*
X001678Y005302D02*
X005404Y005302D01*
X005422Y005401D02*
X001579Y005401D01*
X001401Y005499D02*
X005485Y005499D01*
X005898Y005499D02*
X006032Y005499D01*
X006032Y005401D02*
X005961Y005401D01*
X005980Y005302D02*
X006032Y005302D01*
X006032Y005204D02*
X005964Y005204D01*
X005906Y005105D02*
X006032Y005105D01*
X006532Y005302D02*
X006563Y005302D01*
X006532Y005401D02*
X006737Y005401D01*
X006907Y005401D02*
X007508Y005401D01*
X007362Y005302D02*
X007081Y005302D01*
X007158Y005204D02*
X007297Y005204D01*
X007263Y005105D02*
X007198Y005105D01*
X007200Y005007D02*
X007263Y005007D01*
X007289Y004908D02*
X007182Y004908D01*
X007140Y004810D02*
X007343Y004810D01*
X007462Y004711D02*
X007041Y004711D01*
X007820Y004711D02*
X008000Y004711D01*
X008009Y005401D02*
X007773Y005401D01*
X006032Y005598D02*
X001431Y005598D01*
X001525Y005696D02*
X006032Y005696D01*
X006032Y005795D02*
X001565Y005795D01*
X001594Y005893D02*
X006032Y005893D01*
X006032Y005992D02*
X001594Y005992D01*
X001580Y006090D02*
X006032Y006090D01*
X006032Y006189D02*
X001539Y006189D01*
X001466Y006287D02*
X006032Y006287D01*
X006038Y006386D02*
X001340Y006386D01*
X000888Y006386D02*
X000330Y006386D01*
X000330Y006484D02*
X006091Y006484D01*
X005675Y006681D02*
X002183Y006681D01*
X002236Y006780D02*
X005530Y006780D01*
X005465Y006878D02*
X002248Y006878D01*
X003416Y007074D02*
X003452Y007038D01*
X003471Y007038D01*
X000763Y006287D02*
X000330Y006287D01*
X000330Y006189D02*
X000690Y006189D01*
X000649Y006090D02*
X000330Y006090D01*
X000330Y005992D02*
X000634Y005992D01*
X000634Y005893D02*
X000330Y005893D01*
X000330Y005795D02*
X000663Y005795D01*
X000704Y005696D02*
X000330Y005696D01*
X000330Y005598D02*
X000797Y005598D01*
X000972Y005499D02*
X000330Y005499D01*
X000330Y005401D02*
X000849Y005401D01*
X000751Y005302D02*
X000330Y005302D01*
X000330Y005204D02*
X000698Y005204D01*
X000658Y005105D02*
X000330Y005105D01*
X000330Y005007D02*
X000644Y005007D01*
X000644Y004908D02*
X000330Y004908D01*
X000330Y004810D02*
X000659Y004810D01*
X000700Y004711D02*
X000330Y004711D01*
X000330Y004613D02*
X000755Y004613D01*
X000854Y004514D02*
X000330Y004514D01*
X000330Y004416D02*
X000764Y004416D01*
X000666Y004317D02*
X000330Y004317D01*
X000330Y004219D02*
X000605Y004219D01*
X000564Y004120D02*
X000330Y004120D01*
X000330Y004022D02*
X000544Y004022D01*
X000544Y003923D02*
X000330Y003923D01*
X000330Y003825D02*
X000553Y003825D01*
X000594Y003726D02*
X000330Y003726D01*
X000330Y003628D02*
X000640Y003628D01*
X000739Y003529D02*
X000330Y003529D01*
X000330Y003431D02*
X000902Y003431D01*
X001327Y003431D02*
X001878Y003431D01*
X001860Y003387D02*
X001860Y003272D01*
X001904Y003167D01*
X001985Y003085D01*
X002091Y003042D01*
X002206Y003042D01*
X002312Y003085D01*
X002393Y003167D01*
X002437Y003272D01*
X002437Y003387D01*
X002393Y003493D01*
X002312Y003574D01*
X002206Y003618D01*
X002091Y003618D01*
X001985Y003574D01*
X001904Y003493D01*
X001860Y003387D01*
X001860Y003332D02*
X000330Y003332D01*
X000330Y003234D02*
X001876Y003234D01*
X001936Y003135D02*
X000330Y003135D01*
X000330Y003037D02*
X001573Y003037D01*
X001647Y003055D02*
X001647Y003055D01*
X001874Y003037D02*
X005110Y003037D01*
X005111Y003033D02*
X005218Y002927D01*
X005357Y002869D01*
X005507Y002869D01*
X005646Y002927D01*
X005753Y003033D01*
X005810Y003172D01*
X005810Y003322D01*
X005753Y003461D01*
X005646Y003568D01*
X005507Y003625D01*
X005357Y003625D01*
X005218Y003568D01*
X005111Y003461D01*
X005054Y003322D01*
X005054Y003172D01*
X005111Y003033D01*
X005069Y003135D02*
X002361Y003135D01*
X002421Y003234D02*
X005054Y003234D01*
X005058Y003332D02*
X002437Y003332D01*
X002419Y003431D02*
X005099Y003431D01*
X005179Y003529D02*
X002357Y003529D01*
X001940Y003529D02*
X001490Y003529D01*
X001588Y003628D02*
X006032Y003628D01*
X006032Y003726D02*
X001634Y003726D01*
X001675Y003825D02*
X006032Y003825D01*
X006032Y003923D02*
X001684Y003923D01*
X001684Y004022D02*
X006032Y004022D01*
X006032Y004120D02*
X001665Y004120D01*
X002075Y003020D02*
X002075Y003020D01*
X002262Y002938D02*
X005206Y002938D01*
X005658Y002938D02*
X006032Y002938D01*
X006032Y002840D02*
X002477Y002840D01*
X002584Y002741D02*
X006032Y002741D01*
X006032Y002643D02*
X002691Y002643D01*
X002791Y002544D02*
X006032Y002544D01*
X006063Y002446D02*
X002845Y002446D01*
X002898Y002347D02*
X006152Y002347D01*
X006141Y002358D02*
X006141Y002358D01*
X006250Y002249D02*
X002951Y002249D01*
X002989Y002179D02*
X002989Y002179D01*
X002994Y002150D02*
X006349Y002150D01*
X006447Y002052D02*
X003010Y002052D01*
X003027Y001953D02*
X006546Y001953D01*
X006644Y001855D02*
X003043Y001855D01*
X003060Y001756D02*
X006743Y001756D01*
X006685Y001559D02*
X006195Y001559D01*
X006294Y001461D02*
X006489Y001461D01*
X006391Y001362D02*
X006353Y001362D01*
X006001Y001658D02*
X007682Y001658D01*
X007488Y001559D02*
X006998Y001559D01*
X007194Y001461D02*
X007389Y001461D01*
X007330Y001362D02*
X007292Y001362D01*
X008001Y001658D02*
X016802Y001658D01*
X016822Y001559D02*
X016661Y001559D01*
X016725Y001461D02*
X016869Y001461D01*
X016969Y001362D02*
X016744Y001362D01*
X016250Y001559D02*
X014614Y001559D01*
X019131Y004022D02*
X020268Y004022D01*
X020154Y004120D02*
X019131Y004120D01*
X019131Y004219D02*
X020102Y004219D01*
X020077Y004317D02*
X019131Y004317D01*
X019093Y004416D02*
X020077Y004416D01*
X020113Y004514D02*
X018995Y004514D01*
X019022Y004487D02*
X019022Y004487D01*
X018896Y004613D02*
X020180Y004613D01*
X020331Y004711D02*
X018798Y004711D01*
X020757Y004120D02*
X023211Y004120D01*
X023211Y004219D02*
X022863Y004219D01*
X022950Y004317D02*
X023284Y004317D01*
X023041Y004416D02*
X023908Y004416D01*
X023908Y004514D02*
X023139Y004514D01*
X023895Y004317D02*
X023908Y004317D01*
X023589Y003983D02*
X023589Y002936D01*
X023983Y002542D01*
X028920Y002542D01*
X029117Y002345D01*
X029160Y002345D01*
X033967Y003135D02*
X034979Y003135D01*
X034979Y003037D02*
X034369Y003037D01*
X021184Y007704D02*
X020554Y007074D01*
X020554Y006924D01*
X017179Y007371D02*
X016640Y007371D01*
X016682Y007353D02*
X016576Y007397D01*
X016461Y007397D01*
X016355Y007353D01*
X016274Y007272D01*
X016397Y007371D02*
X013067Y007371D01*
X012969Y007469D02*
X017179Y007469D01*
X017179Y007568D02*
X012870Y007568D01*
X012772Y007666D02*
X016334Y007666D01*
X016218Y007765D02*
X012673Y007765D01*
X012575Y007863D02*
X016166Y007863D01*
X016140Y007962D02*
X012476Y007962D01*
X012492Y008060D02*
X016140Y008060D01*
X016175Y008159D02*
X012543Y008159D01*
X012566Y008257D02*
X016242Y008257D01*
X016897Y008060D02*
X017189Y008060D01*
X017179Y007962D02*
X016897Y007962D01*
X016872Y007863D02*
X017179Y007863D01*
X017179Y007765D02*
X016819Y007765D01*
X016703Y007666D02*
X017179Y007666D01*
X016763Y007272D02*
X016682Y007353D01*
X016517Y006780D02*
X016463Y006780D01*
X013186Y008356D02*
X012566Y008356D01*
X012529Y008454D02*
X013102Y008454D01*
X013061Y008553D02*
X012460Y008553D01*
X012263Y008668D02*
X012113Y008668D01*
X011974Y008611D01*
X011867Y008505D01*
X011810Y008366D01*
X011810Y008215D01*
X011838Y008147D01*
X011833Y008159D02*
X011307Y008159D01*
X011209Y008257D02*
X011810Y008257D01*
X011810Y008356D02*
X011170Y008356D01*
X011170Y008454D02*
X011846Y008454D01*
X011915Y008553D02*
X011170Y008553D01*
X011170Y008651D02*
X012071Y008651D01*
X009464Y006878D02*
X007373Y006878D01*
X006444Y009242D02*
X005449Y009242D01*
X006587Y009735D02*
X006975Y009735D01*
X005634Y010424D02*
X001582Y010424D01*
X001646Y010523D02*
X005488Y010523D01*
X005423Y010621D02*
X001687Y010621D01*
X001694Y010720D02*
X005389Y010720D01*
X005389Y010818D02*
X001694Y010818D01*
X001659Y010917D02*
X005415Y010917D01*
X005468Y011015D02*
X001613Y011015D01*
X001515Y011114D02*
X005588Y011114D01*
X004325Y011803D02*
X003455Y011803D01*
X003460Y011902D02*
X004227Y011902D01*
X004128Y012000D02*
X003431Y012000D01*
X003354Y012099D02*
X004030Y012099D01*
X003931Y012197D02*
X001405Y012197D01*
X001581Y012296D02*
X003714Y012296D01*
X001111Y011212D02*
X000330Y011212D01*
X000330Y011114D02*
X000914Y011114D01*
X000815Y011015D02*
X000330Y011015D01*
X000330Y010917D02*
X000770Y010917D01*
X000734Y010818D02*
X000330Y010818D01*
X000330Y010720D02*
X000734Y010720D01*
X000742Y010621D02*
X000330Y010621D01*
X000330Y010523D02*
X000783Y010523D01*
X000847Y010424D02*
X000330Y010424D01*
X000330Y010326D02*
X000949Y010326D01*
X001480Y010326D02*
X002316Y010326D01*
X002767Y009680D02*
X001822Y008735D01*
X001214Y008735D01*
X000814Y011311D02*
X000330Y011311D01*
X000330Y011409D02*
X000708Y011409D01*
X000647Y011508D02*
X000330Y011508D01*
X000330Y011606D02*
X000609Y011606D01*
X000599Y011803D02*
X000330Y011803D01*
X000330Y011705D02*
X001064Y011705D01*
X000622Y011902D02*
X000330Y011902D01*
X000330Y012000D02*
X000666Y012000D01*
X000742Y012099D02*
X000330Y012099D01*
X000330Y012197D02*
X000875Y012197D01*
X000848Y012296D02*
X000330Y012296D01*
X000330Y012394D02*
X000749Y012394D01*
X000698Y012493D02*
X000330Y012493D01*
X000330Y012591D02*
X000657Y012591D01*
X000644Y012690D02*
X000330Y012690D01*
X000330Y012788D02*
X000644Y012788D01*
X000660Y012887D02*
X000330Y012887D01*
X000330Y012985D02*
X000701Y012985D01*
X000757Y013084D02*
X000330Y013084D01*
X000330Y013182D02*
X000855Y013182D01*
X001042Y013281D02*
X000330Y013281D01*
X001112Y013828D02*
X001112Y013828D01*
X001112Y016218D02*
X001112Y016218D01*
X009964Y012985D02*
X011120Y012985D01*
X016527Y004514D02*
X016579Y004514D01*
X016487Y004416D02*
X016678Y004416D01*
X016776Y004317D02*
X016415Y004317D01*
X016251Y004219D02*
X016875Y004219D01*
X008685Y001559D02*
X008195Y001559D01*
X008294Y001461D02*
X008489Y001461D01*
X008391Y001362D02*
X008353Y001362D01*
X008322Y000771D02*
X008312Y000771D01*
X008370Y000673D02*
X008213Y000673D01*
X008045Y000574D02*
X008468Y000574D01*
X008635Y000476D02*
X007048Y000476D01*
X007215Y000574D02*
X007638Y000574D01*
X007470Y000673D02*
X007313Y000673D01*
X007361Y000771D02*
X007371Y000771D01*
X006635Y000476D02*
X005048Y000476D01*
X005215Y000574D02*
X005638Y000574D01*
X005470Y000673D02*
X005313Y000673D01*
X005361Y000771D02*
X005371Y000771D01*
X006045Y000574D02*
X006468Y000574D01*
X006370Y000673D02*
X006213Y000673D01*
X006312Y000771D02*
X006322Y000771D01*
X005330Y001362D02*
X005292Y001362D01*
X005389Y001461D02*
X005194Y001461D01*
X004998Y001559D02*
X005488Y001559D01*
X005682Y001658D02*
X004001Y001658D01*
X004195Y001559D02*
X004685Y001559D01*
X004489Y001461D02*
X004294Y001461D01*
X004353Y001362D02*
X004391Y001362D01*
X003682Y001658D02*
X003044Y001658D01*
X003027Y001559D02*
X003488Y001559D01*
X003389Y001461D02*
X003011Y001461D01*
X002994Y001362D02*
X003330Y001362D01*
X003289Y001264D02*
X002953Y001264D01*
X002899Y001165D02*
X003271Y001165D01*
X003271Y001067D02*
X002846Y001067D01*
X002793Y000968D02*
X003282Y000968D01*
X003323Y000870D02*
X002694Y000870D01*
X002785Y000953D02*
X002785Y000953D01*
X002587Y000771D02*
X003371Y000771D01*
X003470Y000673D02*
X002480Y000673D01*
X002267Y000574D02*
X003638Y000574D01*
X004045Y000574D02*
X004468Y000574D01*
X004370Y000673D02*
X004213Y000673D01*
X004312Y000771D02*
X004322Y000771D01*
X004635Y000476D02*
X001903Y000476D01*
X000907Y000771D02*
X000798Y000771D01*
X000871Y000795D02*
X000871Y000795D01*
X000813Y000870D02*
X000699Y000870D01*
X000736Y000968D02*
X000619Y000968D01*
X000659Y001067D02*
X000562Y001067D01*
X000596Y001165D02*
X000505Y001165D01*
X000449Y001264D02*
X000563Y001264D01*
X000529Y001362D02*
X000421Y001362D01*
X000394Y001461D02*
X000495Y001461D01*
X000468Y001559D02*
X000368Y001559D01*
X000343Y001658D02*
X000468Y001658D01*
X000468Y001756D02*
X000336Y001756D01*
X000330Y001855D02*
X000468Y001855D01*
X000468Y001953D02*
X000330Y001953D01*
X000330Y002052D02*
X000496Y002052D01*
X000530Y002150D02*
X000330Y002150D01*
X000330Y002249D02*
X000563Y002249D01*
X000597Y002347D02*
X000330Y002347D01*
X000330Y002446D02*
X000661Y002446D01*
X000607Y002376D02*
X000607Y002376D01*
X000738Y002544D02*
X000330Y002544D01*
X000330Y002643D02*
X000815Y002643D01*
X000871Y002715D02*
X000871Y002715D01*
X000911Y002741D02*
X000330Y002741D01*
X000330Y002840D02*
X001062Y002840D01*
X001212Y002938D02*
X000330Y002938D01*
X003330Y002523D02*
X003404Y002523D01*
X005754Y003037D02*
X006032Y003037D01*
X006032Y003135D02*
X005795Y003135D01*
X005810Y003234D02*
X006032Y003234D01*
X006032Y003332D02*
X005806Y003332D01*
X005765Y003431D02*
X006032Y003431D01*
X006032Y003529D02*
X005685Y003529D01*
X032289Y011508D02*
X034997Y011508D01*
X034997Y011606D02*
X032289Y011606D01*
X032289Y011705D02*
X034997Y011705D01*
X034997Y011803D02*
X032289Y011803D01*
X032289Y011902D02*
X034998Y011902D01*
X034998Y012000D02*
X032289Y012000D01*
X032289Y012099D02*
X034998Y012099D01*
X034999Y012197D02*
X032288Y012197D01*
X032288Y012296D02*
X034999Y012296D01*
X034999Y012394D02*
X032288Y012394D01*
X032288Y012493D02*
X035000Y012493D01*
X035000Y012591D02*
X032288Y012591D01*
X032288Y012690D02*
X035000Y012690D01*
X035000Y012788D02*
X032287Y012788D01*
X032287Y012887D02*
X035001Y012887D01*
X035001Y012985D02*
X032287Y012985D01*
X032287Y013084D02*
X035001Y013084D01*
X035002Y013182D02*
X032287Y013182D01*
X035252Y013182D02*
X035266Y013182D01*
X035266Y013084D02*
X035251Y013084D01*
X035251Y012985D02*
X035266Y012985D01*
X035266Y012887D02*
X035251Y012887D01*
X035250Y012788D02*
X035266Y012788D01*
X035266Y012690D02*
X035250Y012690D01*
X035250Y012591D02*
X035266Y012591D01*
X035266Y012493D02*
X035250Y012493D01*
X035249Y012394D02*
X035266Y012394D01*
X035266Y012296D02*
X035249Y012296D01*
X035249Y012197D02*
X035266Y012197D01*
X035266Y012099D02*
X035248Y012099D01*
X035248Y012000D02*
X035266Y012000D01*
X035266Y011902D02*
X035248Y011902D01*
X035247Y011803D02*
X035266Y011803D01*
X035266Y011705D02*
X035247Y011705D01*
X035247Y011606D02*
X035266Y011606D01*
X035266Y011508D02*
X035247Y011508D01*
X035246Y011409D02*
X035266Y011409D01*
X035266Y011311D02*
X035246Y011311D01*
X035246Y011212D02*
X035266Y011212D01*
X035266Y011114D02*
X035245Y011114D01*
X035245Y011015D02*
X035266Y011015D01*
X035266Y010917D02*
X035245Y010917D01*
X035244Y010818D02*
X035266Y010818D01*
X035266Y010720D02*
X035244Y010720D01*
X035244Y010621D02*
X035266Y010621D01*
X035266Y010523D02*
X035244Y010523D01*
X035243Y010424D02*
X035266Y010424D01*
X035266Y010326D02*
X035243Y010326D01*
X035243Y010227D02*
X035266Y010227D01*
X035266Y010129D02*
X035242Y010129D01*
X035242Y010030D02*
X035266Y010030D01*
X035266Y009932D02*
X035242Y009932D01*
X035242Y009833D02*
X035266Y009833D01*
X035266Y009735D02*
X035241Y009735D01*
X035252Y013281D02*
X035266Y013281D01*
X035252Y013379D02*
X035266Y013379D01*
D20*
X004778Y007141D02*
X004778Y007070D01*
D21*
X011204Y004905D02*
X011208Y004916D01*
D22*
X009569Y012635D02*
X009772Y012839D01*
X009530Y013136D01*
X009272Y012877D02*
X009569Y012635D01*
X009152Y012816D02*
X008983Y013225D01*
X008700Y013225D02*
X008531Y012816D01*
X008411Y012877D02*
X008114Y012635D01*
X007911Y012839D01*
X008153Y013136D01*
X008050Y013383D02*
X007669Y013422D01*
X007669Y013710D01*
X008050Y013749D01*
X008153Y013996D02*
X007911Y014293D01*
X008114Y014497D01*
X008411Y014255D01*
X008659Y014357D02*
X008697Y014738D01*
X008985Y014738D01*
X009024Y014357D01*
X009272Y014255D02*
X009569Y014497D01*
X009772Y014293D01*
X009530Y013996D01*
X009633Y013749D02*
X010014Y013710D01*
X010014Y013422D01*
X009633Y013383D01*
X009271Y012877D02*
X009233Y012855D01*
X009193Y012834D01*
X009152Y012816D01*
X008152Y013136D02*
X008125Y013182D01*
X008102Y013231D01*
X008081Y013280D01*
X008064Y013331D01*
X008050Y013383D01*
X008411Y012877D02*
X008449Y012855D01*
X008489Y012834D01*
X008530Y012816D01*
X008411Y014255D02*
X008457Y014282D01*
X008506Y014305D01*
X008555Y014326D01*
X008606Y014343D01*
X008658Y014357D01*
X009530Y013996D02*
X009557Y013950D01*
X009580Y013901D01*
X009601Y013852D01*
X009618Y013801D01*
X009632Y013749D01*
X009271Y014255D02*
X009225Y014282D01*
X009176Y014305D01*
X009127Y014326D01*
X009076Y014343D01*
X009024Y014357D01*
X008152Y013996D02*
X008125Y013950D01*
X008102Y013901D01*
X008081Y013852D01*
X008064Y013801D01*
X008050Y013749D01*
X008472Y013566D02*
X008474Y013530D01*
X008479Y013494D01*
X008488Y013459D01*
X008500Y013425D01*
X008516Y013392D01*
X008534Y013361D01*
X008556Y013332D01*
X008580Y013305D01*
X008607Y013281D01*
X008636Y013259D01*
X008667Y013241D01*
X008700Y013225D01*
X009530Y013136D02*
X009557Y013182D01*
X009580Y013231D01*
X009601Y013280D01*
X009618Y013331D01*
X009632Y013383D01*
X008982Y013225D02*
X009016Y013241D01*
X009049Y013261D01*
X009079Y013284D01*
X009107Y013310D01*
X009132Y013339D01*
X009153Y013370D01*
X009172Y013403D01*
X009187Y013438D01*
X009198Y013474D01*
X009206Y013511D01*
X009210Y013549D01*
X009209Y013587D01*
X009205Y013624D01*
X009197Y013662D01*
X009186Y013698D01*
X009170Y013732D01*
X009152Y013765D01*
X009129Y013796D01*
X009104Y013824D01*
X009076Y013850D01*
X009046Y013873D01*
X009013Y013892D01*
X008979Y013908D01*
X008943Y013921D01*
X008906Y013929D01*
X008869Y013934D01*
X008831Y013935D01*
X008793Y013932D01*
X008756Y013925D01*
X008719Y013914D01*
X008684Y013900D01*
X008651Y013882D01*
X008619Y013861D01*
X008590Y013836D01*
X008564Y013809D01*
X008540Y013780D01*
X008520Y013748D01*
X008503Y013714D01*
X008489Y013678D01*
X008480Y013641D01*
X008474Y013604D01*
X008472Y013566D01*
M02*
