G75*
G70*
%OFA0B0*%
%FSLAX24Y24*%
%IPPOS*%
%LPD*%
%AMOC8*
5,1,8,0,0,1.08239X$1,22.5*
%
%ADD10C,0.0079*%
%ADD11C,0.0020*%
D10*
X008114Y012635D02*
X008411Y012877D01*
X008470Y012844D01*
X008531Y012816D01*
X008700Y013225D01*
X008636Y013259D01*
X008580Y013305D01*
X008535Y013361D01*
X008500Y013425D01*
X008479Y013494D01*
X008472Y013566D01*
X008479Y013638D01*
X008500Y013707D01*
X008535Y013771D01*
X008580Y013827D01*
X008636Y013873D01*
X008700Y013907D01*
X008769Y013928D01*
X008841Y013935D01*
X008913Y013928D01*
X008983Y013907D01*
X009046Y013873D01*
X009102Y013827D01*
X009148Y013771D01*
X009182Y013707D01*
X009203Y013638D01*
X009211Y013566D01*
X009203Y013494D01*
X009182Y013425D01*
X009148Y013361D01*
X009102Y013305D01*
X009046Y013259D01*
X008983Y013225D01*
X009152Y012816D01*
X009213Y012844D01*
X009272Y012877D01*
X009569Y012635D01*
X009772Y012839D01*
X009530Y013136D01*
X009573Y013214D01*
X009608Y013297D01*
X009633Y013383D01*
X010014Y013422D01*
X010014Y013710D01*
X009633Y013749D01*
X009608Y013835D01*
X009573Y013918D01*
X009530Y013996D01*
X009772Y014293D01*
X009569Y014497D01*
X009272Y014255D01*
X009193Y014298D01*
X009110Y014332D01*
X009024Y014357D01*
X008985Y014738D01*
X008697Y014738D01*
X008659Y014357D01*
X008573Y014332D01*
X008490Y014298D01*
X008411Y014255D01*
X008114Y014497D01*
X007911Y014293D01*
X008153Y013996D01*
X008110Y013918D01*
X008075Y013835D01*
X008050Y013749D01*
X007669Y013710D01*
X007669Y013422D01*
X008050Y013383D01*
X008075Y013297D01*
X008110Y013214D01*
X008153Y013136D01*
X007911Y012839D01*
X008114Y012635D01*
X008056Y012693D02*
X008185Y012693D01*
X008280Y012770D02*
X007979Y012770D01*
X007918Y012848D02*
X008375Y012848D01*
X008463Y012848D02*
X008544Y012848D01*
X008576Y012925D02*
X007981Y012925D01*
X008044Y013002D02*
X008608Y013002D01*
X008640Y013079D02*
X008107Y013079D01*
X008141Y013157D02*
X008672Y013157D01*
X008684Y013234D02*
X008101Y013234D01*
X008071Y013311D02*
X008575Y013311D01*
X008520Y013388D02*
X008002Y013388D01*
X007669Y013465D02*
X008488Y013465D01*
X008475Y013543D02*
X007669Y013543D01*
X007669Y013620D02*
X008478Y013620D01*
X008497Y013697D02*
X007669Y013697D01*
X008058Y013774D02*
X008537Y013774D01*
X008611Y013852D02*
X008082Y013852D01*
X008116Y013929D02*
X008779Y013929D01*
X008904Y013929D02*
X009567Y013929D01*
X009538Y014006D02*
X008145Y014006D01*
X008082Y014083D02*
X009601Y014083D01*
X009664Y014161D02*
X008019Y014161D01*
X007956Y014238D02*
X009727Y014238D01*
X009750Y014315D02*
X009346Y014315D01*
X009441Y014392D02*
X009673Y014392D01*
X009596Y014470D02*
X009535Y014470D01*
X009151Y014315D02*
X008531Y014315D01*
X008662Y014392D02*
X009021Y014392D01*
X009013Y014470D02*
X008670Y014470D01*
X008678Y014547D02*
X009005Y014547D01*
X008997Y014624D02*
X008686Y014624D01*
X008694Y014701D02*
X008989Y014701D01*
X008242Y014392D02*
X008010Y014392D01*
X007933Y014315D02*
X008337Y014315D01*
X008147Y014470D02*
X008087Y014470D01*
X009072Y013852D02*
X009601Y013852D01*
X009625Y013774D02*
X009145Y013774D01*
X009185Y013697D02*
X010014Y013697D01*
X010014Y013620D02*
X009205Y013620D01*
X009208Y013543D02*
X010014Y013543D01*
X010014Y013465D02*
X009195Y013465D01*
X009163Y013388D02*
X009681Y013388D01*
X009612Y013311D02*
X009107Y013311D01*
X008999Y013234D02*
X009581Y013234D01*
X009542Y013157D02*
X009011Y013157D01*
X009043Y013079D02*
X009576Y013079D01*
X009639Y013002D02*
X009075Y013002D01*
X009107Y012925D02*
X009702Y012925D01*
X009765Y012848D02*
X009308Y012848D01*
X009219Y012848D02*
X009139Y012848D01*
X009403Y012770D02*
X009704Y012770D01*
X009626Y012693D02*
X009498Y012693D01*
D11*
X006049Y003104D02*
X005975Y003104D01*
X006012Y003104D02*
X006012Y003324D01*
X006049Y003324D01*
X006123Y003214D02*
X006123Y003104D01*
X006123Y003214D02*
X006159Y003250D01*
X006233Y003250D01*
X006270Y003214D01*
X006344Y003214D02*
X006380Y003250D01*
X006454Y003250D01*
X006491Y003214D01*
X006491Y003140D01*
X006454Y003104D01*
X006380Y003104D01*
X006344Y003140D01*
X006344Y003214D01*
X006270Y003324D02*
X006270Y003104D01*
X006565Y003324D02*
X006712Y003104D01*
X006786Y003104D02*
X006896Y003104D01*
X006933Y003140D01*
X006933Y003214D01*
X006896Y003250D01*
X006786Y003250D01*
X006786Y003067D01*
X006822Y003030D01*
X006859Y003030D01*
X007007Y003250D02*
X007043Y003250D01*
X007117Y003177D01*
X007117Y003104D02*
X007117Y003250D01*
X007191Y003214D02*
X007228Y003250D01*
X007301Y003250D01*
X007338Y003214D01*
X007338Y003140D01*
X007301Y003104D01*
X007228Y003104D01*
X007191Y003140D01*
X007191Y003214D01*
X007411Y003140D02*
X007411Y003104D01*
X007448Y003104D01*
X007448Y003140D01*
X007411Y003140D01*
X007522Y003250D02*
X007559Y003250D01*
X007632Y003177D01*
X007632Y003104D02*
X007632Y003250D01*
X007707Y003214D02*
X007707Y003140D01*
X007743Y003104D01*
X007853Y003104D01*
X007853Y003030D02*
X007853Y003250D01*
X007743Y003250D01*
X007707Y003214D01*
X007928Y003214D02*
X007928Y003104D01*
X008038Y003104D01*
X008074Y003140D01*
X008038Y003177D01*
X007928Y003177D01*
X007928Y003214D02*
X007964Y003250D01*
X008038Y003250D01*
X008148Y003250D02*
X008222Y003250D01*
X008185Y003287D02*
X008185Y003140D01*
X008148Y003104D01*
X008295Y003104D02*
X008332Y003104D01*
X008332Y003140D01*
X008295Y003140D01*
X008295Y003104D01*
X008406Y003140D02*
X008406Y003250D01*
X008406Y003140D02*
X008443Y003104D01*
X008480Y003140D01*
X008516Y003104D01*
X008553Y003140D01*
X008553Y003250D01*
X008627Y003250D02*
X008627Y003140D01*
X008664Y003104D01*
X008701Y003140D01*
X008737Y003104D01*
X008774Y003140D01*
X008774Y003250D01*
X008848Y003250D02*
X008848Y003140D01*
X008885Y003104D01*
X008922Y003140D01*
X008958Y003104D01*
X008995Y003140D01*
X008995Y003250D01*
X009069Y003324D02*
X009216Y003104D01*
X009437Y003104D02*
X009290Y003324D01*
X009511Y003250D02*
X009511Y003214D01*
X009548Y003214D01*
X009548Y003250D01*
X009511Y003250D01*
X009511Y003140D02*
X009511Y003104D01*
X009548Y003104D01*
X009548Y003140D01*
X009511Y003140D01*
X009622Y003140D02*
X009658Y003104D01*
X009769Y003104D01*
X009842Y003104D02*
X009879Y003140D01*
X009879Y003287D01*
X009916Y003250D02*
X009842Y003250D01*
X009769Y003250D02*
X009658Y003250D01*
X009622Y003214D01*
X009622Y003140D01*
X009769Y003030D02*
X009769Y003250D01*
X009990Y003250D02*
X010063Y003250D01*
X010026Y003287D02*
X010026Y003140D01*
X009990Y003104D01*
X010137Y003104D02*
X010137Y003214D01*
X010174Y003250D01*
X010247Y003250D01*
X010284Y003214D01*
X010284Y003324D02*
X010284Y003104D01*
X010291Y003702D02*
X010181Y003702D01*
X010145Y003739D01*
X010181Y003775D01*
X010255Y003775D01*
X010291Y003812D01*
X010255Y003849D01*
X010145Y003849D01*
X010070Y003812D02*
X010034Y003849D01*
X009960Y003849D01*
X009924Y003812D01*
X009924Y003775D01*
X010070Y003775D01*
X010070Y003739D02*
X010070Y003812D01*
X010070Y003739D02*
X010034Y003702D01*
X009960Y003702D01*
X009849Y003739D02*
X009849Y003812D01*
X009813Y003849D01*
X009703Y003849D01*
X009703Y003922D02*
X009703Y003702D01*
X009813Y003702D01*
X009849Y003739D01*
X009407Y003739D02*
X009407Y003849D01*
X009407Y003739D02*
X009371Y003702D01*
X009261Y003702D01*
X009261Y003849D01*
X009186Y003849D02*
X009076Y003849D01*
X009040Y003812D01*
X009040Y003702D01*
X008965Y003739D02*
X008965Y003812D01*
X008929Y003849D01*
X008819Y003849D01*
X008819Y003922D02*
X008819Y003702D01*
X008929Y003702D01*
X008965Y003739D01*
X008744Y003739D02*
X008744Y003812D01*
X008708Y003849D01*
X008634Y003849D01*
X008598Y003812D01*
X008598Y003775D01*
X008744Y003775D01*
X008744Y003739D02*
X008708Y003702D01*
X008634Y003702D01*
X008523Y003702D02*
X008523Y003849D01*
X008450Y003849D02*
X008413Y003849D01*
X008450Y003849D02*
X008523Y003775D01*
X008118Y003849D02*
X008045Y003849D01*
X008082Y003886D02*
X008082Y003739D01*
X008045Y003702D01*
X007971Y003702D02*
X007971Y003922D01*
X007934Y003849D02*
X007971Y003812D01*
X007934Y003849D02*
X007861Y003849D01*
X007824Y003812D01*
X007824Y003702D01*
X007750Y003739D02*
X007750Y003812D01*
X007713Y003849D01*
X007640Y003849D01*
X007603Y003812D01*
X007603Y003775D01*
X007750Y003775D01*
X007750Y003739D02*
X007713Y003702D01*
X007640Y003702D01*
X007308Y003922D02*
X007161Y003922D01*
X007235Y003922D02*
X007235Y003702D01*
X007087Y003702D02*
X007087Y003849D01*
X007014Y003922D01*
X006940Y003849D01*
X006940Y003702D01*
X006866Y003702D02*
X006866Y003922D01*
X006756Y003922D01*
X006719Y003886D01*
X006719Y003812D01*
X006756Y003775D01*
X006866Y003775D01*
X006940Y003812D02*
X007087Y003812D01*
X006645Y003775D02*
X006535Y003775D01*
X006498Y003812D01*
X006498Y003886D01*
X006535Y003922D01*
X006645Y003922D01*
X006645Y003702D01*
X006572Y003775D02*
X006498Y003702D01*
X006203Y003739D02*
X006203Y003886D01*
X006166Y003922D01*
X006093Y003922D01*
X006056Y003886D01*
X006056Y003739D01*
X006093Y003702D01*
X006166Y003702D01*
X006203Y003739D01*
X005982Y003702D02*
X005982Y003922D01*
X005982Y003812D02*
X005835Y003812D01*
X005835Y003922D02*
X005835Y003702D01*
X005761Y003702D02*
X005761Y003922D01*
X005761Y003702D02*
X005614Y003702D01*
X009186Y003702D02*
X009186Y003849D01*
X010366Y003812D02*
X010366Y003702D01*
X010366Y003812D02*
X010402Y003849D01*
X010512Y003849D01*
X010512Y003702D01*
X010587Y003775D02*
X010733Y003775D01*
X010733Y003739D02*
X010733Y003812D01*
X010697Y003849D01*
X010623Y003849D01*
X010587Y003812D01*
X010587Y003775D01*
X010623Y003702D02*
X010697Y003702D01*
X010733Y003739D01*
X010808Y003702D02*
X010918Y003702D01*
X010954Y003739D01*
X010954Y003812D01*
X010918Y003849D01*
X010808Y003849D01*
X011065Y003849D02*
X011065Y003702D01*
X011102Y003702D02*
X011028Y003702D01*
X011176Y003702D02*
X011323Y003702D01*
X011323Y003922D01*
X011102Y003849D02*
X011065Y003849D01*
X011065Y003922D02*
X011065Y003959D01*
M02*
