#define down_width 9
#define down_height 7
static unsigned char down_bits[] = {
  0x00, 0x00, 0xfe, 0x00, 0xfe, 0x00, 0x7c, 0x00, 0x38, 0x00, 0x10, 0x00,
  0x00, 0x00, };
