/* XPM */
static char * icon_xpm[] = {
"16 16 4 1",
" 	c None",
".	c #9E7982075965",
"X	c #000000000000",
"o	c #FFFFD34C69A6",
"                ",
"  .       ..... ",
" .  ..  ....... ",
"   .    ....XXo ",
"  .  .o...XX.oo ",
"    ..o.XX....  ",
"   ...XX......  ",
"   ..XXo....    ",
"  o.XX.ooo      ",
"  oXX...        ",
" .XX...    ..   ",
" .Xo      ..    ",
" XX.     .  .   ",
" X.        .    ",
" X              ",
"                "};
