G75*
%MOIN*%
%OFA0B0*%
%FSLAX24Y24*%
%IPPOS*%
%LPD*%
%AMOC8*
5,1,8,0,0,1.08239X$1,22.5*
%
%ADD10C,0.0780*%
%ADD11C,0.1240*%
%ADD12C,0.1440*%
%ADD13C,0.0690*%
%ADD14R,0.0690X0.0690*%
%ADD15R,0.0437X0.0437*%
%ADD16R,0.0840X0.0840*%
%ADD17C,0.0840*%
%ADD18R,0.0317X0.0317*%
%ADD19C,0.0317*%
D10*
X003811Y001077D03*
X004811Y000977D03*
X005811Y001077D03*
X006811Y000977D03*
X007811Y001077D03*
X008811Y000977D03*
X010307Y001027D03*
X011307Y000927D03*
X012307Y001027D03*
X013307Y000927D03*
X014307Y001027D03*
X015307Y000927D03*
X001084Y003930D03*
X001184Y004930D03*
X001084Y005930D03*
X001084Y007705D03*
X001184Y008705D03*
X001084Y009705D03*
X001184Y010705D03*
X001084Y011705D03*
X001184Y012705D03*
X003752Y018142D03*
X004752Y018142D03*
X005752Y018142D03*
X006752Y018142D03*
X007752Y018142D03*
X008752Y018142D03*
X010048Y018142D03*
X011048Y018142D03*
X012048Y018142D03*
X013048Y018142D03*
X014048Y018142D03*
X015048Y018142D03*
D11*
X001725Y001725D03*
X001607Y017591D03*
X038260Y017591D03*
X038142Y001725D03*
D12*
X035205Y018024D03*
X033205Y018024D03*
D13*
X029580Y018037D03*
D14*
X029580Y016037D03*
D15*
X037126Y014233D03*
X037626Y014233D03*
X037626Y013733D03*
X037126Y013733D03*
X037126Y013233D03*
X037626Y013233D03*
X038126Y013233D03*
X038126Y013733D03*
X038126Y014233D03*
X034126Y012028D03*
X033626Y012028D03*
X033126Y012028D03*
X033126Y011528D03*
X033626Y011528D03*
X033626Y011028D03*
X033126Y011028D03*
X034126Y011028D03*
X034126Y011528D03*
X031981Y010449D03*
X031481Y010449D03*
X030981Y010449D03*
X030981Y009949D03*
X031481Y009949D03*
X031981Y009949D03*
X031981Y009449D03*
X031481Y009449D03*
X030981Y009449D03*
X033126Y007540D03*
X033626Y007540D03*
X034126Y007540D03*
X034126Y007040D03*
X033626Y007040D03*
X033126Y007040D03*
X033126Y006540D03*
X033626Y006540D03*
X034126Y006540D03*
X035461Y005335D03*
X035961Y005335D03*
X036461Y005335D03*
X036461Y004835D03*
X035961Y004835D03*
X035461Y004835D03*
X035461Y004335D03*
X035961Y004335D03*
X036461Y004335D03*
X031981Y006433D03*
X031481Y006433D03*
X030981Y006433D03*
X030981Y006933D03*
X031481Y006933D03*
X031981Y006933D03*
X031981Y007433D03*
X031481Y007433D03*
X030981Y007433D03*
D16*
X038721Y011292D03*
D17*
X038721Y009323D03*
X038721Y007355D03*
D18*
X022374Y007847D03*
X022079Y007847D03*
X021784Y007847D03*
X021489Y007847D03*
X021193Y007847D03*
X020898Y007847D03*
X020603Y007847D03*
X020603Y008142D03*
X020898Y008142D03*
X021193Y008142D03*
X021193Y008437D03*
X020898Y008437D03*
X020603Y008437D03*
X020603Y008733D03*
X020898Y008733D03*
X021193Y008733D03*
X021489Y008733D03*
X021784Y008733D03*
X022079Y008733D03*
X022374Y008733D03*
X022374Y008437D03*
X022079Y008437D03*
X022079Y008142D03*
X021784Y008142D03*
X021784Y008437D03*
X021489Y008437D03*
X021489Y008142D03*
X022374Y008142D03*
X013402Y008615D03*
X012158Y008260D03*
X010493Y010063D03*
X009359Y010449D03*
X008595Y010957D03*
X007764Y010918D03*
X006201Y011130D03*
X005737Y010748D03*
X006343Y009898D03*
X005772Y009792D03*
X005307Y009575D03*
X004343Y010882D03*
X004867Y011461D03*
X003142Y011843D03*
X002355Y011843D03*
X003792Y012630D03*
X009028Y015996D03*
X011851Y014319D03*
X011752Y013717D03*
X012008Y013185D03*
X011307Y013272D03*
X014528Y014870D03*
X014914Y013040D03*
X004256Y007347D03*
X004748Y007040D03*
X005780Y007004D03*
X003441Y007008D03*
X001930Y006835D03*
X005662Y005268D03*
X006792Y004996D03*
X007611Y005016D03*
X008130Y005024D03*
X005402Y003217D03*
X003300Y002493D03*
X002119Y003300D03*
X011961Y003693D03*
X011969Y003115D03*
D19*
X013461Y011752D03*
M02*
