G75*
%MOIN*%
%OFA0B0*%
%FSLAX24Y24*%
%IPPOS*%
%LPD*%
%AMOC8*
5,1,8,0,0,1.08239X$1,22.5*
%
%ADD10C,0.0000*%
%ADD11R,0.0472X0.0315*%
%ADD12C,0.0740*%
%ADD13R,0.0580X0.0110*%
%ADD14R,0.0110X0.0580*%
%ADD15R,0.0315X0.0472*%
%ADD16R,0.0500X0.0579*%
%ADD17R,0.0630X0.0709*%
%ADD18R,0.0709X0.0630*%
%ADD19R,0.0460X0.0630*%
%ADD20R,0.0394X0.0197*%
%ADD21R,0.0220X0.0780*%
%ADD22R,0.0098X0.0098*%
%ADD23C,0.0050*%
%ADD24C,0.1400*%
%ADD25C,0.0650*%
%ADD26R,0.0650X0.0650*%
%ADD27R,0.1380X0.2000*%
%ADD28R,0.0650X0.0236*%
%ADD29R,0.1811X0.1772*%
%ADD30R,0.0397X0.0397*%
%ADD31R,0.0236X0.0650*%
%ADD32R,0.1772X0.1811*%
%ADD33R,0.0800X0.0800*%
%ADD34C,0.0800*%
%ADD35R,0.0560X0.0170*%
%ADD36R,0.0660X0.0140*%
%ADD37R,0.0630X0.0460*%
%ADD38R,0.0433X0.0394*%
%ADD39C,0.0236*%
%ADD40R,0.0120X0.0500*%
%ADD41R,0.2500X0.1420*%
%ADD42C,0.0100*%
%ADD43R,0.0277X0.0277*%
%ADD44R,0.0320X0.0320*%
%ADD45C,0.0120*%
%ADD46C,0.0277*%
%ADD47C,0.0320*%
%ADD48C,0.0160*%
D10*
X001820Y000150D02*
X038130Y000150D01*
X037542Y001725D02*
X037544Y001774D01*
X037550Y001822D01*
X037560Y001870D01*
X037574Y001917D01*
X037591Y001963D01*
X037612Y002007D01*
X037637Y002049D01*
X037665Y002089D01*
X037697Y002127D01*
X037731Y002162D01*
X037768Y002194D01*
X037807Y002223D01*
X037849Y002249D01*
X037893Y002271D01*
X037938Y002289D01*
X037985Y002304D01*
X038032Y002315D01*
X038081Y002322D01*
X038130Y002325D01*
X038179Y002324D01*
X038227Y002319D01*
X038276Y002310D01*
X038323Y002297D01*
X038369Y002280D01*
X038413Y002260D01*
X038456Y002236D01*
X038497Y002209D01*
X038535Y002178D01*
X038571Y002145D01*
X038603Y002109D01*
X038633Y002070D01*
X038660Y002029D01*
X038683Y001985D01*
X038702Y001940D01*
X038718Y001894D01*
X038730Y001847D01*
X038738Y001798D01*
X038742Y001749D01*
X038742Y001701D01*
X038738Y001652D01*
X038730Y001603D01*
X038718Y001556D01*
X038702Y001510D01*
X038683Y001465D01*
X038660Y001421D01*
X038633Y001380D01*
X038603Y001341D01*
X038571Y001305D01*
X038535Y001272D01*
X038497Y001241D01*
X038456Y001214D01*
X038413Y001190D01*
X038369Y001170D01*
X038323Y001153D01*
X038276Y001140D01*
X038227Y001131D01*
X038179Y001126D01*
X038130Y001125D01*
X038081Y001128D01*
X038032Y001135D01*
X037985Y001146D01*
X037938Y001161D01*
X037893Y001179D01*
X037849Y001201D01*
X037807Y001227D01*
X037768Y001256D01*
X037731Y001288D01*
X037697Y001323D01*
X037665Y001361D01*
X037637Y001401D01*
X037612Y001443D01*
X037591Y001487D01*
X037574Y001533D01*
X037560Y001580D01*
X037550Y001628D01*
X037544Y001676D01*
X037542Y001725D01*
X038130Y000150D02*
X038208Y000152D01*
X038286Y000158D01*
X038363Y000167D01*
X038440Y000180D01*
X038516Y000198D01*
X038591Y000218D01*
X038665Y000243D01*
X038737Y000271D01*
X038809Y000302D01*
X038878Y000337D01*
X038946Y000376D01*
X039012Y000417D01*
X039075Y000462D01*
X039137Y000510D01*
X039196Y000561D01*
X039252Y000615D01*
X039306Y000671D01*
X039357Y000730D01*
X039405Y000792D01*
X039450Y000855D01*
X039491Y000921D01*
X039530Y000989D01*
X039565Y001058D01*
X039596Y001130D01*
X039624Y001202D01*
X039649Y001276D01*
X039669Y001351D01*
X039687Y001427D01*
X039700Y001504D01*
X039709Y001581D01*
X039715Y001659D01*
X039717Y001737D01*
X039717Y017683D01*
X039715Y017754D01*
X039710Y017826D01*
X039700Y017896D01*
X039687Y017967D01*
X039671Y018036D01*
X039650Y018104D01*
X039626Y018172D01*
X039599Y018238D01*
X039568Y018302D01*
X039534Y018365D01*
X039497Y018426D01*
X039456Y018485D01*
X039413Y018541D01*
X039367Y018596D01*
X039317Y018647D01*
X039266Y018697D01*
X039211Y018743D01*
X039155Y018786D01*
X039096Y018827D01*
X039035Y018864D01*
X038972Y018898D01*
X038908Y018929D01*
X038842Y018956D01*
X038774Y018980D01*
X038706Y019001D01*
X038637Y019017D01*
X038566Y019030D01*
X038496Y019040D01*
X038424Y019045D01*
X038353Y019047D01*
X038353Y019048D02*
X001380Y019048D01*
X001311Y019046D01*
X001242Y019040D01*
X001174Y019031D01*
X001106Y019017D01*
X001039Y019000D01*
X000974Y018979D01*
X000909Y018954D01*
X000846Y018926D01*
X000785Y018895D01*
X000726Y018859D01*
X000668Y018821D01*
X000613Y018780D01*
X000560Y018735D01*
X000510Y018688D01*
X000463Y018638D01*
X000418Y018585D01*
X000377Y018530D01*
X000339Y018472D01*
X000303Y018413D01*
X000272Y018352D01*
X000244Y018289D01*
X000219Y018224D01*
X000198Y018159D01*
X000181Y018092D01*
X000167Y018024D01*
X000158Y017956D01*
X000152Y017887D01*
X000150Y017818D01*
X000150Y001820D01*
X001125Y001725D02*
X001127Y001774D01*
X001133Y001822D01*
X001143Y001870D01*
X001157Y001917D01*
X001174Y001963D01*
X001195Y002007D01*
X001220Y002049D01*
X001248Y002089D01*
X001280Y002127D01*
X001314Y002162D01*
X001351Y002194D01*
X001390Y002223D01*
X001432Y002249D01*
X001476Y002271D01*
X001521Y002289D01*
X001568Y002304D01*
X001615Y002315D01*
X001664Y002322D01*
X001713Y002325D01*
X001762Y002324D01*
X001810Y002319D01*
X001859Y002310D01*
X001906Y002297D01*
X001952Y002280D01*
X001996Y002260D01*
X002039Y002236D01*
X002080Y002209D01*
X002118Y002178D01*
X002154Y002145D01*
X002186Y002109D01*
X002216Y002070D01*
X002243Y002029D01*
X002266Y001985D01*
X002285Y001940D01*
X002301Y001894D01*
X002313Y001847D01*
X002321Y001798D01*
X002325Y001749D01*
X002325Y001701D01*
X002321Y001652D01*
X002313Y001603D01*
X002301Y001556D01*
X002285Y001510D01*
X002266Y001465D01*
X002243Y001421D01*
X002216Y001380D01*
X002186Y001341D01*
X002154Y001305D01*
X002118Y001272D01*
X002080Y001241D01*
X002039Y001214D01*
X001996Y001190D01*
X001952Y001170D01*
X001906Y001153D01*
X001859Y001140D01*
X001810Y001131D01*
X001762Y001126D01*
X001713Y001125D01*
X001664Y001128D01*
X001615Y001135D01*
X001568Y001146D01*
X001521Y001161D01*
X001476Y001179D01*
X001432Y001201D01*
X001390Y001227D01*
X001351Y001256D01*
X001314Y001288D01*
X001280Y001323D01*
X001248Y001361D01*
X001220Y001401D01*
X001195Y001443D01*
X001174Y001487D01*
X001157Y001533D01*
X001143Y001580D01*
X001133Y001628D01*
X001127Y001676D01*
X001125Y001725D01*
X000150Y001820D02*
X000152Y001741D01*
X000158Y001661D01*
X000167Y001582D01*
X000180Y001504D01*
X000197Y001426D01*
X000218Y001350D01*
X000242Y001274D01*
X000270Y001199D01*
X000301Y001126D01*
X000336Y001055D01*
X000374Y000985D01*
X000415Y000917D01*
X000460Y000851D01*
X000507Y000788D01*
X000558Y000726D01*
X000611Y000668D01*
X000668Y000611D01*
X000726Y000558D01*
X000788Y000507D01*
X000851Y000460D01*
X000917Y000415D01*
X000985Y000374D01*
X001055Y000336D01*
X001126Y000301D01*
X001199Y000270D01*
X001274Y000242D01*
X001350Y000218D01*
X001426Y000197D01*
X001504Y000180D01*
X001582Y000167D01*
X001661Y000158D01*
X001741Y000152D01*
X001820Y000150D01*
X001007Y017591D02*
X001009Y017640D01*
X001015Y017688D01*
X001025Y017736D01*
X001039Y017783D01*
X001056Y017829D01*
X001077Y017873D01*
X001102Y017915D01*
X001130Y017955D01*
X001162Y017993D01*
X001196Y018028D01*
X001233Y018060D01*
X001272Y018089D01*
X001314Y018115D01*
X001358Y018137D01*
X001403Y018155D01*
X001450Y018170D01*
X001497Y018181D01*
X001546Y018188D01*
X001595Y018191D01*
X001644Y018190D01*
X001692Y018185D01*
X001741Y018176D01*
X001788Y018163D01*
X001834Y018146D01*
X001878Y018126D01*
X001921Y018102D01*
X001962Y018075D01*
X002000Y018044D01*
X002036Y018011D01*
X002068Y017975D01*
X002098Y017936D01*
X002125Y017895D01*
X002148Y017851D01*
X002167Y017806D01*
X002183Y017760D01*
X002195Y017713D01*
X002203Y017664D01*
X002207Y017615D01*
X002207Y017567D01*
X002203Y017518D01*
X002195Y017469D01*
X002183Y017422D01*
X002167Y017376D01*
X002148Y017331D01*
X002125Y017287D01*
X002098Y017246D01*
X002068Y017207D01*
X002036Y017171D01*
X002000Y017138D01*
X001962Y017107D01*
X001921Y017080D01*
X001878Y017056D01*
X001834Y017036D01*
X001788Y017019D01*
X001741Y017006D01*
X001692Y016997D01*
X001644Y016992D01*
X001595Y016991D01*
X001546Y016994D01*
X001497Y017001D01*
X001450Y017012D01*
X001403Y017027D01*
X001358Y017045D01*
X001314Y017067D01*
X001272Y017093D01*
X001233Y017122D01*
X001196Y017154D01*
X001162Y017189D01*
X001130Y017227D01*
X001102Y017267D01*
X001077Y017309D01*
X001056Y017353D01*
X001039Y017399D01*
X001025Y017446D01*
X001015Y017494D01*
X001009Y017542D01*
X001007Y017591D01*
X037660Y017591D02*
X037662Y017640D01*
X037668Y017688D01*
X037678Y017736D01*
X037692Y017783D01*
X037709Y017829D01*
X037730Y017873D01*
X037755Y017915D01*
X037783Y017955D01*
X037815Y017993D01*
X037849Y018028D01*
X037886Y018060D01*
X037925Y018089D01*
X037967Y018115D01*
X038011Y018137D01*
X038056Y018155D01*
X038103Y018170D01*
X038150Y018181D01*
X038199Y018188D01*
X038248Y018191D01*
X038297Y018190D01*
X038345Y018185D01*
X038394Y018176D01*
X038441Y018163D01*
X038487Y018146D01*
X038531Y018126D01*
X038574Y018102D01*
X038615Y018075D01*
X038653Y018044D01*
X038689Y018011D01*
X038721Y017975D01*
X038751Y017936D01*
X038778Y017895D01*
X038801Y017851D01*
X038820Y017806D01*
X038836Y017760D01*
X038848Y017713D01*
X038856Y017664D01*
X038860Y017615D01*
X038860Y017567D01*
X038856Y017518D01*
X038848Y017469D01*
X038836Y017422D01*
X038820Y017376D01*
X038801Y017331D01*
X038778Y017287D01*
X038751Y017246D01*
X038721Y017207D01*
X038689Y017171D01*
X038653Y017138D01*
X038615Y017107D01*
X038574Y017080D01*
X038531Y017056D01*
X038487Y017036D01*
X038441Y017019D01*
X038394Y017006D01*
X038345Y016997D01*
X038297Y016992D01*
X038248Y016991D01*
X038199Y016994D01*
X038150Y017001D01*
X038103Y017012D01*
X038056Y017027D01*
X038011Y017045D01*
X037967Y017067D01*
X037925Y017093D01*
X037886Y017122D01*
X037849Y017154D01*
X037815Y017189D01*
X037783Y017227D01*
X037755Y017267D01*
X037730Y017309D01*
X037709Y017353D01*
X037692Y017399D01*
X037678Y017446D01*
X037668Y017494D01*
X037662Y017542D01*
X037660Y017591D01*
D11*
X017701Y007587D03*
X016870Y007587D03*
X016870Y006878D03*
X016874Y006390D03*
X017701Y006390D03*
X017701Y006878D03*
X017701Y005681D03*
X016874Y005681D03*
X016874Y005205D03*
X017697Y005205D03*
X017697Y004496D03*
X016874Y004496D03*
X021638Y004693D03*
X021638Y003985D03*
X023823Y004036D03*
X023823Y004744D03*
X013040Y010335D03*
X013040Y011044D03*
X012532Y013689D03*
X012532Y014398D03*
X014178Y014410D03*
X014178Y013701D03*
X005701Y013339D03*
X004827Y013339D03*
X004827Y012630D03*
X005701Y012630D03*
X003103Y012630D03*
X003103Y013339D03*
X003300Y003654D03*
X003300Y002945D03*
X006843Y003260D03*
X006843Y002552D03*
D12*
X006811Y000977D03*
X005811Y001077D03*
X004811Y000977D03*
X003811Y001077D03*
X007811Y001077D03*
X008811Y000977D03*
X010307Y001027D03*
X011307Y000927D03*
X012307Y001027D03*
X013307Y000927D03*
X014307Y001027D03*
X015307Y000927D03*
X001084Y003930D03*
X001184Y004930D03*
X001084Y005930D03*
X001084Y007705D03*
X001184Y008705D03*
X001084Y009705D03*
X001184Y010705D03*
X001084Y011705D03*
X001184Y012705D03*
X003752Y018142D03*
X004752Y018142D03*
X005752Y018142D03*
X006752Y018142D03*
X007752Y018142D03*
X008752Y018142D03*
X010048Y018142D03*
X011048Y018142D03*
X012048Y018142D03*
X013048Y018142D03*
X014048Y018142D03*
X015048Y018142D03*
D13*
X011407Y011315D03*
X011407Y011115D03*
X011407Y010915D03*
X011407Y010725D03*
X011407Y010525D03*
X011407Y010325D03*
X011407Y010135D03*
X011407Y009935D03*
X011407Y009735D03*
X011407Y009535D03*
X011407Y009345D03*
X011407Y009145D03*
X011407Y008945D03*
X011407Y008755D03*
X011407Y008555D03*
X011407Y008355D03*
X006987Y008355D03*
X006987Y008555D03*
X006987Y008755D03*
X006987Y008945D03*
X006987Y009145D03*
X006987Y009345D03*
X006987Y009535D03*
X006987Y009735D03*
X006987Y009935D03*
X006987Y010135D03*
X006987Y010325D03*
X006987Y010525D03*
X006987Y010725D03*
X006987Y010915D03*
X006987Y011115D03*
X006987Y011315D03*
D14*
X007717Y012045D03*
X007917Y012045D03*
X008117Y012045D03*
X008307Y012045D03*
X008507Y012045D03*
X008707Y012045D03*
X008897Y012045D03*
X009097Y012045D03*
X009297Y012045D03*
X009497Y012045D03*
X009687Y012045D03*
X009887Y012045D03*
X010087Y012045D03*
X010277Y012045D03*
X010477Y012045D03*
X010677Y012045D03*
X010677Y007625D03*
X010477Y007625D03*
X010277Y007625D03*
X010087Y007625D03*
X009887Y007625D03*
X009687Y007625D03*
X009497Y007625D03*
X009297Y007625D03*
X009097Y007625D03*
X008897Y007625D03*
X008707Y007625D03*
X008507Y007625D03*
X008307Y007625D03*
X008117Y007625D03*
X007917Y007625D03*
X007717Y007625D03*
D15*
X003473Y006465D03*
X002764Y006465D03*
X002729Y005516D03*
X003437Y005516D03*
X006284Y003961D03*
X006993Y003961D03*
X013260Y007134D03*
X013969Y007134D03*
X017540Y009835D03*
X018248Y009835D03*
X018520Y010733D03*
X019229Y010733D03*
X014083Y013075D03*
X013374Y013075D03*
X009457Y014717D03*
X008748Y014717D03*
X003248Y010717D03*
X002540Y010717D03*
X002532Y009520D03*
X003241Y009520D03*
X003241Y008878D03*
X002532Y008878D03*
X002532Y008288D03*
X003241Y008288D03*
X003241Y007697D03*
X002532Y007697D03*
X017851Y014985D03*
X018559Y014985D03*
X020052Y013457D03*
X020760Y013457D03*
X021788Y013457D03*
X022496Y013457D03*
X023504Y013469D03*
X024213Y013469D03*
X029390Y013567D03*
X030099Y013567D03*
X030095Y014276D03*
X029386Y014276D03*
X033583Y015111D03*
X034292Y015111D03*
X025559Y009843D03*
X024851Y009843D03*
X024583Y006430D03*
X025292Y006430D03*
X032004Y003496D03*
X032713Y003496D03*
D16*
X021260Y015878D03*
X019567Y015878D03*
D17*
X019926Y017855D03*
X021028Y017855D03*
X019083Y011520D03*
X017981Y011520D03*
X025008Y010615D03*
X026111Y010615D03*
X026930Y009508D03*
X028032Y009508D03*
X016540Y002091D03*
X015437Y002091D03*
X011276Y006453D03*
X010174Y006453D03*
D18*
X020918Y004544D03*
X020918Y003441D03*
D19*
X014820Y008032D03*
X014220Y008032D03*
X014220Y008922D03*
X014820Y008922D03*
X014820Y009827D03*
X014220Y009827D03*
X014220Y010733D03*
X014820Y010733D03*
X014820Y011646D03*
X014220Y011646D03*
X003328Y004646D03*
X002728Y004646D03*
D20*
X003910Y008103D03*
X003910Y008418D03*
X003910Y008733D03*
X003910Y009048D03*
X004461Y009048D03*
X004461Y008733D03*
X004461Y008418D03*
X004461Y008103D03*
D21*
X004254Y006214D03*
X004754Y006214D03*
X005254Y006214D03*
X005754Y006214D03*
X005754Y004274D03*
X005254Y004274D03*
X004754Y004274D03*
X004254Y004274D03*
D22*
X017524Y015658D03*
X017508Y017792D03*
D23*
X017449Y017670D02*
X017288Y017646D01*
X017122Y017587D01*
X016961Y017496D01*
X016863Y017410D01*
X016788Y017331D01*
X016689Y017201D01*
X016646Y017111D01*
X016335Y017111D01*
X016335Y017898D01*
X018697Y017898D01*
X018697Y017111D01*
X018382Y017111D01*
X018315Y017241D01*
X018166Y017418D01*
X018016Y017532D01*
X017831Y017619D01*
X017642Y017666D01*
X017449Y017670D01*
X017373Y017659D02*
X016335Y017659D01*
X016335Y017707D02*
X018697Y017707D01*
X018697Y017659D02*
X017671Y017659D01*
X017849Y017610D02*
X018697Y017610D01*
X018697Y017562D02*
X017953Y017562D01*
X018041Y017513D02*
X018697Y017513D01*
X018697Y017465D02*
X018104Y017465D01*
X018167Y017416D02*
X018697Y017416D01*
X018697Y017368D02*
X018208Y017368D01*
X018249Y017319D02*
X018697Y017319D01*
X018697Y017271D02*
X018290Y017271D01*
X018325Y017222D02*
X018697Y017222D01*
X018697Y017174D02*
X018350Y017174D01*
X018375Y017125D02*
X018697Y017125D01*
X018697Y017756D02*
X016335Y017756D01*
X016335Y017804D02*
X018697Y017804D01*
X018697Y017853D02*
X016335Y017853D01*
X016335Y017610D02*
X017187Y017610D01*
X017077Y017562D02*
X016335Y017562D01*
X016335Y017513D02*
X016991Y017513D01*
X016925Y017465D02*
X016335Y017465D01*
X016335Y017416D02*
X016870Y017416D01*
X016822Y017368D02*
X016335Y017368D01*
X016335Y017319D02*
X016779Y017319D01*
X016742Y017271D02*
X016335Y017271D01*
X016335Y017222D02*
X016705Y017222D01*
X016676Y017174D02*
X016335Y017174D01*
X016335Y017125D02*
X016653Y017125D01*
X016646Y016323D02*
X016335Y016323D01*
X016335Y015536D01*
X018697Y015536D01*
X018697Y016323D01*
X018382Y016323D01*
X018315Y016193D01*
X018166Y016016D01*
X018016Y015902D01*
X017831Y015815D01*
X017642Y015768D01*
X017449Y015764D01*
X017288Y015788D01*
X017122Y015847D01*
X016961Y015937D01*
X016863Y016024D01*
X016788Y016103D01*
X016689Y016233D01*
X016646Y016323D01*
X016657Y016301D02*
X016335Y016301D01*
X016335Y016252D02*
X016680Y016252D01*
X016711Y016204D02*
X016335Y016204D01*
X016335Y016155D02*
X016748Y016155D01*
X016785Y016107D02*
X016335Y016107D01*
X016335Y016058D02*
X016830Y016058D01*
X016879Y016010D02*
X016335Y016010D01*
X016335Y015961D02*
X016934Y015961D01*
X017005Y015913D02*
X016335Y015913D01*
X016335Y015864D02*
X017092Y015864D01*
X017210Y015816D02*
X016335Y015816D01*
X016335Y015767D02*
X017429Y015767D01*
X017592Y015767D02*
X018697Y015767D01*
X018697Y015719D02*
X016335Y015719D01*
X016335Y015670D02*
X018697Y015670D01*
X018697Y015622D02*
X016335Y015622D01*
X016335Y015573D02*
X018697Y015573D01*
X018697Y015816D02*
X017832Y015816D01*
X017935Y015864D02*
X018697Y015864D01*
X018697Y015913D02*
X018030Y015913D01*
X018094Y015961D02*
X018697Y015961D01*
X018697Y016010D02*
X018157Y016010D01*
X018201Y016058D02*
X018697Y016058D01*
X018697Y016107D02*
X018242Y016107D01*
X018283Y016155D02*
X018697Y016155D01*
X018697Y016204D02*
X018321Y016204D01*
X018346Y016252D02*
X018697Y016252D01*
X018697Y016301D02*
X018371Y016301D01*
D24*
X033205Y018024D03*
X035205Y018024D03*
D25*
X029580Y018037D03*
D26*
X029580Y016037D03*
D27*
X033231Y013721D03*
X034861Y013721D03*
X033208Y004902D03*
X031578Y004902D03*
D28*
X034418Y005085D03*
X034418Y005585D03*
X035170Y006290D03*
X035170Y006790D03*
X035170Y007290D03*
X035170Y007790D03*
X035170Y010778D03*
X035170Y011278D03*
X035170Y011778D03*
X035170Y012278D03*
X036083Y012983D03*
X036083Y013483D03*
X036083Y013983D03*
X036083Y014483D03*
X034418Y004585D03*
X034418Y004085D03*
D29*
X035914Y004835D03*
X033674Y007040D03*
X033674Y011528D03*
X037579Y013733D03*
D30*
X037626Y013733D03*
X037126Y013733D03*
X037126Y014233D03*
X037626Y014233D03*
X038126Y014233D03*
X038126Y013733D03*
X038126Y013233D03*
X037626Y013233D03*
X037126Y013233D03*
X034126Y012028D03*
X033626Y012028D03*
X033126Y012028D03*
X033126Y011528D03*
X033626Y011528D03*
X033626Y011028D03*
X033126Y011028D03*
X034126Y011028D03*
X034126Y011528D03*
X031981Y010449D03*
X031481Y010449D03*
X030981Y010449D03*
X030981Y009949D03*
X031481Y009949D03*
X031981Y009949D03*
X031981Y009449D03*
X031481Y009449D03*
X030981Y009449D03*
X033126Y007540D03*
X033626Y007540D03*
X034126Y007540D03*
X034126Y007040D03*
X033626Y007040D03*
X033126Y007040D03*
X033126Y006540D03*
X033626Y006540D03*
X034126Y006540D03*
X035461Y005335D03*
X035961Y005335D03*
X036461Y005335D03*
X036461Y004835D03*
X035961Y004835D03*
X035461Y004835D03*
X035461Y004335D03*
X035961Y004335D03*
X036461Y004335D03*
X031981Y006433D03*
X031481Y006433D03*
X030981Y006433D03*
X030981Y006933D03*
X031481Y006933D03*
X031981Y006933D03*
X031981Y007433D03*
X031481Y007433D03*
X030981Y007433D03*
D31*
X031231Y008477D03*
X031731Y008477D03*
X032231Y008477D03*
X030731Y008477D03*
X030731Y011493D03*
X031231Y011493D03*
X031731Y011493D03*
X032231Y011493D03*
D32*
X031481Y009996D03*
X031481Y006981D03*
D33*
X038721Y011292D03*
D34*
X038721Y009323D03*
X038721Y007355D03*
D35*
X006128Y003286D03*
X006128Y003036D03*
X006128Y002776D03*
X006128Y002526D03*
X004408Y002526D03*
X004408Y002776D03*
X004408Y003036D03*
X004408Y003286D03*
D36*
X008619Y003176D03*
X008619Y003426D03*
X008619Y003686D03*
X008619Y003936D03*
X008619Y004196D03*
X008619Y004456D03*
X010839Y004456D03*
X010839Y004196D03*
X010839Y003936D03*
X010839Y003686D03*
X010839Y003426D03*
X010839Y003176D03*
X010839Y002916D03*
X010839Y002656D03*
X008619Y002656D03*
X008619Y002916D03*
D37*
X016780Y009228D03*
X016780Y009828D03*
D38*
X031075Y012394D03*
X031744Y012394D03*
X032374Y015111D03*
X033044Y015111D03*
X034815Y015111D03*
X035485Y015111D03*
X033989Y003496D03*
X033319Y003496D03*
X031469Y003496D03*
X030800Y003496D03*
D39*
X019902Y006363D03*
X019658Y006107D03*
X019079Y005650D03*
X014685Y003339D03*
X014292Y003681D03*
X013863Y004036D03*
X015111Y003004D03*
D40*
X018829Y006839D03*
X019029Y006839D03*
X019229Y006839D03*
X019419Y006839D03*
X019619Y006839D03*
X019819Y006839D03*
X020009Y006839D03*
X020209Y006839D03*
X020409Y006839D03*
X020599Y006839D03*
X020799Y006839D03*
X020999Y006839D03*
X021189Y006839D03*
X021389Y006839D03*
X021589Y006839D03*
X021789Y006839D03*
X021979Y006839D03*
X022179Y006839D03*
X022379Y006839D03*
X022569Y006839D03*
X022769Y006839D03*
X022969Y006839D03*
X023159Y006839D03*
X023359Y006839D03*
X023559Y006839D03*
X023749Y006839D03*
X023949Y006839D03*
X024149Y006839D03*
X024149Y009839D03*
X023949Y009839D03*
X023749Y009839D03*
X023559Y009839D03*
X023359Y009839D03*
X023159Y009839D03*
X022969Y009839D03*
X022769Y009839D03*
X022569Y009839D03*
X022379Y009839D03*
X022179Y009839D03*
X021979Y009839D03*
X021789Y009839D03*
X021589Y009839D03*
X021389Y009839D03*
X021189Y009839D03*
X020999Y009839D03*
X020799Y009839D03*
X020599Y009839D03*
X020409Y009839D03*
X020209Y009839D03*
X020009Y009839D03*
X019819Y009839D03*
X019619Y009839D03*
X019419Y009839D03*
X019229Y009839D03*
X019029Y009839D03*
X018829Y009839D03*
D41*
X021489Y008339D03*
D42*
X020032Y007879D02*
X020032Y007473D01*
X020009Y007473D01*
X020009Y006839D01*
X019819Y006839D02*
X019819Y006466D01*
X019926Y006359D01*
X019933Y006351D01*
X019910Y006351D01*
X019902Y006359D01*
X019906Y006359D01*
X019926Y006359D01*
X019910Y006363D02*
X019906Y006359D01*
X019902Y006355D01*
X019902Y006359D01*
X019902Y006355D02*
X019894Y006363D01*
X019906Y006363D01*
X019910Y006367D01*
X019910Y006363D01*
X019902Y006355D02*
X019906Y006351D01*
X019910Y006351D01*
X020197Y006464D02*
X020197Y006464D01*
X020197Y006233D01*
X017886Y004040D01*
X013867Y004040D01*
X013865Y004039D01*
X013864Y004038D01*
X013863Y004036D01*
X013532Y004036D01*
X011985Y005583D01*
X009520Y005583D01*
X008307Y006796D01*
X008307Y007625D01*
X008117Y007625D02*
X008117Y006632D01*
X009402Y005347D01*
X011705Y005347D01*
X013378Y003674D01*
X014382Y003674D01*
X014292Y003681D01*
X014382Y003674D02*
X017941Y003674D01*
X020410Y006142D01*
X020410Y006355D01*
X020413Y006357D01*
X020409Y006839D01*
X020599Y006839D02*
X020599Y006264D01*
X020599Y006264D01*
X020599Y005981D01*
X017957Y003339D01*
X014685Y003339D01*
X013260Y003339D01*
X011489Y005111D01*
X009323Y005111D01*
X007917Y006517D01*
X007917Y007625D01*
X007717Y007625D02*
X007717Y006362D01*
X009205Y004874D01*
X011311Y004874D01*
X013181Y003004D01*
X015111Y003004D01*
X018056Y003004D01*
X020800Y005847D01*
X020800Y006140D01*
X020799Y006141D01*
X020799Y006839D01*
X020999Y006839D02*
X020999Y005684D01*
X019402Y004087D01*
X019402Y003575D01*
X019751Y003598D02*
X021957Y003598D01*
X021957Y003617D02*
X021957Y003549D01*
X020944Y002536D01*
X018575Y002536D01*
X018486Y002625D01*
X018035Y002625D01*
X017911Y002502D01*
X017911Y002050D01*
X018035Y001927D01*
X018486Y001927D01*
X018575Y002016D01*
X021103Y002016D01*
X021199Y002056D01*
X021219Y002075D01*
X021219Y002050D01*
X021342Y001927D01*
X021793Y001927D01*
X021916Y002050D01*
X021916Y002257D01*
X021967Y002308D01*
X021967Y002050D01*
X022016Y002000D01*
X021967Y001951D01*
X021967Y001499D01*
X022090Y001376D01*
X022541Y001376D01*
X022630Y001465D01*
X022643Y001465D01*
X022738Y001504D01*
X022811Y001578D01*
X022847Y001613D01*
X022882Y001578D01*
X022951Y001509D01*
X022951Y001499D01*
X023074Y001376D01*
X023525Y001376D01*
X023595Y001446D01*
X023664Y001376D01*
X024116Y001376D01*
X024166Y001426D01*
X024216Y001376D01*
X024667Y001376D01*
X024790Y001499D01*
X024790Y001951D01*
X024667Y002074D01*
X024460Y002074D01*
X023642Y002892D01*
X023642Y004377D01*
X024146Y004377D01*
X024269Y004500D01*
X024269Y004876D01*
X024651Y004876D01*
X024655Y004880D01*
X025080Y004880D01*
X025203Y005003D01*
X025203Y005454D01*
X025107Y005551D01*
X025075Y005628D01*
X025002Y005701D01*
X024811Y005892D01*
X024738Y005965D01*
X024694Y005983D01*
X024828Y005983D01*
X024951Y006106D01*
X024951Y006753D01*
X024828Y006876D01*
X024339Y006876D01*
X024219Y006756D01*
X024219Y007176D01*
X024096Y007299D01*
X020062Y007299D01*
X020014Y007251D01*
X019966Y007299D01*
X018682Y007299D01*
X018559Y007176D01*
X018559Y007099D01*
X018147Y007099D01*
X018147Y007123D01*
X018024Y007246D01*
X017378Y007246D01*
X017286Y007154D01*
X017194Y007246D01*
X016547Y007246D01*
X016424Y007123D01*
X016424Y006634D01*
X016428Y006630D01*
X016428Y006146D01*
X016538Y006036D01*
X016428Y005926D01*
X016428Y005437D01*
X016551Y005314D01*
X017198Y005314D01*
X017251Y005367D01*
X017251Y005141D01*
X016957Y004864D01*
X016551Y004864D01*
X016428Y004741D01*
X016428Y004300D01*
X016158Y004300D01*
X016158Y013551D01*
X016174Y013551D01*
X016263Y013463D01*
X016714Y013463D01*
X016837Y013586D01*
X016837Y014037D01*
X016714Y014160D01*
X016263Y014160D01*
X016174Y014071D01*
X016158Y014071D01*
X016158Y015380D01*
X016238Y015301D01*
X017483Y015301D01*
X017483Y014661D01*
X017606Y014538D01*
X017607Y014538D01*
X017607Y013799D01*
X017646Y013704D01*
X017719Y013630D01*
X018607Y012743D01*
X018507Y012743D01*
X018384Y012620D01*
X018384Y012519D01*
X018363Y012468D01*
X018363Y012320D01*
X018384Y012269D01*
X018384Y012168D01*
X018507Y012045D01*
X018558Y012045D01*
X018600Y012003D01*
X018558Y011961D01*
X018558Y011079D01*
X018681Y010956D01*
X018859Y010956D01*
X018859Y010659D01*
X018861Y010653D01*
X018861Y010564D01*
X017204Y010564D01*
X017108Y010524D01*
X016852Y010268D01*
X016378Y010268D01*
X016255Y010145D01*
X016255Y009511D01*
X016378Y009388D01*
X017182Y009388D01*
X017305Y009511D01*
X017305Y009985D01*
X017363Y010044D01*
X017881Y010044D01*
X017881Y009512D01*
X018004Y009389D01*
X018493Y009389D01*
X018582Y009478D01*
X018682Y009379D01*
X024021Y009379D01*
X024071Y009359D01*
X025068Y009359D01*
X025163Y009398D01*
X025239Y009474D01*
X025275Y009510D01*
X025276Y009510D01*
X025276Y009511D01*
X025296Y009558D01*
X025315Y009605D01*
X025315Y009606D01*
X025316Y009606D01*
X025316Y009657D01*
X025317Y010050D01*
X025410Y010050D01*
X025533Y010173D01*
X025533Y011056D01*
X025410Y011179D01*
X024885Y011179D01*
X025636Y011929D01*
X026430Y011929D01*
X026511Y011849D01*
X026962Y011849D01*
X027085Y011972D01*
X027085Y012423D01*
X027065Y012443D01*
X027085Y012464D01*
X027085Y012915D01*
X027075Y012926D01*
X027085Y012936D01*
X027085Y013797D01*
X027065Y013817D01*
X027085Y013838D01*
X027085Y014289D01*
X027061Y014313D01*
X027085Y014338D01*
X027085Y014789D01*
X026962Y014912D01*
X026511Y014912D01*
X026422Y014823D01*
X026153Y014823D01*
X026058Y014784D01*
X026050Y014776D01*
X026050Y014789D01*
X026002Y014837D01*
X026050Y014885D01*
X026050Y015336D01*
X025980Y015406D01*
X026050Y015475D01*
X026050Y015927D01*
X025980Y015996D01*
X026050Y016066D01*
X026050Y016517D01*
X025927Y016640D01*
X025475Y016640D01*
X025387Y016552D01*
X023927Y016552D01*
X024263Y016888D01*
X024470Y016888D01*
X024593Y017011D01*
X024593Y017462D01*
X024470Y017585D01*
X024019Y017585D01*
X023896Y017462D01*
X023896Y017256D01*
X021918Y015278D01*
X021878Y015182D01*
X021878Y014941D01*
X021872Y014948D01*
X021420Y014948D01*
X021331Y014858D01*
X021242Y014948D01*
X020790Y014948D01*
X020741Y014898D01*
X020691Y014948D01*
X020239Y014948D01*
X020150Y014858D01*
X020061Y014948D01*
X019609Y014948D01*
X019554Y014892D01*
X019554Y015100D01*
X019431Y015223D01*
X018979Y015223D01*
X018929Y015173D01*
X018929Y015436D01*
X018932Y015438D01*
X018932Y015448D01*
X018992Y015508D01*
X019107Y015508D01*
X019107Y015502D01*
X019230Y015379D01*
X019904Y015379D01*
X020027Y015502D01*
X020027Y016255D01*
X019904Y016378D01*
X019230Y016378D01*
X019107Y016255D01*
X019107Y016248D01*
X018932Y016248D01*
X018932Y016421D01*
X018927Y016425D01*
X020477Y016425D01*
X020573Y016465D01*
X020646Y016538D01*
X020686Y016634D01*
X020686Y018838D01*
X027315Y018838D01*
X027315Y004278D01*
X027090Y004278D01*
X026967Y004155D01*
X026967Y003704D01*
X027090Y003581D01*
X027315Y003581D01*
X027315Y002890D01*
X027226Y002979D01*
X026775Y002979D01*
X026652Y002856D01*
X026652Y002405D01*
X026775Y002282D01*
X027226Y002282D01*
X027315Y002371D01*
X027315Y000360D01*
X016158Y000360D01*
X016158Y002744D01*
X018006Y002744D01*
X018008Y002743D01*
X018058Y002744D01*
X018107Y002744D01*
X018109Y002745D01*
X018112Y002745D01*
X018157Y002765D01*
X018203Y002784D01*
X018204Y002786D01*
X018207Y002787D01*
X018241Y002822D01*
X018276Y002857D01*
X018277Y002859D01*
X019053Y003663D01*
X019053Y003349D01*
X019176Y003226D01*
X019628Y003226D01*
X019751Y003349D01*
X019751Y003801D01*
X019662Y003890D01*
X019662Y003979D01*
X020353Y004671D01*
X020353Y004142D01*
X020476Y004019D01*
X021192Y004019D01*
X021192Y003740D01*
X021315Y003617D01*
X021957Y003617D01*
X021907Y003499D02*
X019751Y003499D01*
X019751Y003401D02*
X021808Y003401D01*
X021710Y003302D02*
X019703Y003302D01*
X019101Y003302D02*
X018704Y003302D01*
X018609Y003204D02*
X021611Y003204D01*
X021513Y003105D02*
X018514Y003105D01*
X018419Y003007D02*
X021414Y003007D01*
X021316Y002908D02*
X018324Y002908D01*
X018229Y002810D02*
X021217Y002810D01*
X021119Y002711D02*
X016158Y002711D01*
X016158Y002613D02*
X018022Y002613D01*
X017924Y002514D02*
X016158Y002514D01*
X016158Y002416D02*
X017911Y002416D01*
X017911Y002317D02*
X016158Y002317D01*
X016158Y002219D02*
X017911Y002219D01*
X017911Y002120D02*
X016158Y002120D01*
X016158Y002022D02*
X017940Y002022D01*
X018260Y002276D02*
X021052Y002276D01*
X022217Y003441D01*
X022217Y003823D01*
X022221Y003827D01*
X022221Y004996D01*
X021789Y005429D01*
X021789Y006839D01*
X021979Y006839D02*
X021979Y005479D01*
X022410Y005048D01*
X022410Y003119D01*
X021567Y002276D01*
X021916Y002219D02*
X021967Y002219D01*
X021967Y002120D02*
X021916Y002120D01*
X021887Y002022D02*
X021995Y002022D01*
X021967Y001923D02*
X016158Y001923D01*
X016158Y001825D02*
X021967Y001825D01*
X021967Y001726D02*
X016158Y001726D01*
X016158Y001628D02*
X021967Y001628D01*
X021967Y001529D02*
X016158Y001529D01*
X016158Y001431D02*
X022035Y001431D01*
X022315Y001725D02*
X022591Y001725D01*
X022788Y001922D01*
X022788Y005193D01*
X022792Y005197D01*
X022379Y005610D01*
X022379Y006839D01*
X022569Y006839D02*
X022569Y005680D01*
X022985Y005264D01*
X022985Y001843D01*
X023103Y001725D01*
X023300Y001725D01*
X023580Y001431D02*
X023610Y001431D01*
X023890Y001725D02*
X023166Y002449D01*
X023166Y005331D01*
X022769Y005728D01*
X022769Y006839D01*
X022969Y006839D02*
X022969Y005796D01*
X023382Y005382D01*
X023382Y002784D01*
X024441Y001725D01*
X024790Y001726D02*
X027315Y001726D01*
X027315Y001628D02*
X024790Y001628D01*
X024790Y001529D02*
X027315Y001529D01*
X027315Y001431D02*
X024722Y001431D01*
X024790Y001825D02*
X027315Y001825D01*
X027315Y001923D02*
X024790Y001923D01*
X024719Y002022D02*
X027315Y002022D01*
X027315Y002120D02*
X024414Y002120D01*
X024315Y002219D02*
X027315Y002219D01*
X027315Y002317D02*
X027262Y002317D01*
X027591Y002317D02*
X036984Y002317D01*
X036994Y002346D02*
X036855Y001940D01*
X036855Y001510D01*
X036994Y001104D01*
X036994Y001104D01*
X037258Y000765D01*
X037258Y000765D01*
X037258Y000765D01*
X037618Y000530D01*
X038034Y000424D01*
X038034Y000424D01*
X038462Y000460D01*
X038856Y000632D01*
X039172Y000923D01*
X039172Y000923D01*
X039376Y001301D01*
X039447Y001725D01*
X039376Y002149D01*
X039172Y002526D01*
X039172Y002526D01*
X038856Y002817D01*
X038856Y002817D01*
X038462Y002990D01*
X038034Y003025D01*
X037618Y002920D01*
X037618Y002920D01*
X037258Y002685D01*
X037258Y002685D01*
X037258Y002685D01*
X036994Y002346D01*
X036994Y002346D01*
X037049Y002416D02*
X027591Y002416D01*
X027591Y002514D02*
X037125Y002514D01*
X037202Y002613D02*
X034275Y002613D01*
X034230Y002567D02*
X034347Y002684D01*
X034347Y003127D01*
X034331Y003143D01*
X034381Y003193D01*
X034495Y003079D01*
X034939Y003079D01*
X035056Y003196D01*
X035056Y003639D01*
X035035Y003660D01*
X039353Y003664D01*
X039403Y003664D01*
X039452Y003664D01*
X039452Y003664D01*
X039452Y003664D01*
X039498Y003683D01*
X039544Y003702D01*
X039567Y003725D01*
X039567Y001737D01*
X039555Y001549D01*
X039458Y001187D01*
X039270Y000862D01*
X039005Y000597D01*
X038680Y000409D01*
X038317Y000312D01*
X038130Y000300D01*
X027591Y000300D01*
X027591Y003645D01*
X027654Y003708D01*
X027654Y004151D01*
X027591Y004214D01*
X027591Y018851D01*
X037992Y018851D01*
X037736Y018786D01*
X037376Y018551D01*
X037113Y018212D01*
X036973Y017806D01*
X036973Y017376D01*
X037113Y016970D01*
X037376Y016631D01*
X037376Y016631D01*
X037376Y016631D01*
X037736Y016396D01*
X038152Y016290D01*
X038581Y016326D01*
X038974Y016498D01*
X039290Y016789D01*
X039290Y016789D01*
X039495Y017167D01*
X039565Y017591D01*
X039495Y018015D01*
X039290Y018392D01*
X039290Y018392D01*
X038974Y018683D01*
X038593Y018851D01*
X038647Y018851D01*
X038817Y018805D01*
X039092Y018647D01*
X039316Y018423D01*
X039474Y018148D01*
X039557Y017842D01*
X039567Y017683D01*
X039550Y017683D01*
X039567Y017683D02*
X039567Y014732D01*
X039564Y014736D01*
X039563Y014736D01*
X039563Y014736D01*
X039517Y014755D01*
X039472Y014774D01*
X039471Y014774D01*
X039422Y014774D01*
X039373Y014774D01*
X039372Y014774D01*
X038614Y014772D01*
X038567Y014819D01*
X036673Y014819D01*
X036661Y014847D01*
X036661Y014847D01*
X036661Y014847D01*
X036626Y014882D01*
X036591Y014917D01*
X036591Y014917D01*
X036590Y014917D01*
X036545Y014936D01*
X036499Y014955D01*
X036499Y014955D01*
X036498Y014955D01*
X036449Y014955D01*
X036399Y014955D01*
X035901Y014954D01*
X035901Y015390D01*
X035784Y015507D01*
X035715Y015507D01*
X035715Y015509D01*
X035804Y015598D01*
X035804Y016041D01*
X035687Y016158D01*
X035243Y016158D01*
X035170Y016084D01*
X035096Y016158D01*
X034653Y016158D01*
X034579Y016084D01*
X034505Y016158D01*
X034062Y016158D01*
X033945Y016041D01*
X033945Y015598D01*
X034024Y015519D01*
X033934Y015430D01*
X033934Y014792D01*
X033971Y014755D01*
X033971Y012638D01*
X034086Y012524D01*
X032723Y012524D01*
X032658Y012459D01*
X032658Y010648D01*
X032567Y010648D01*
X032567Y010985D01*
X032449Y011102D01*
X031049Y011102D01*
X031049Y011900D01*
X030932Y012017D01*
X030530Y012017D01*
X030413Y011900D01*
X030413Y011739D01*
X030297Y011739D01*
X030205Y011701D01*
X030135Y011630D01*
X029919Y011414D01*
X029879Y011454D01*
X029887Y011462D01*
X029887Y011787D01*
X030334Y012234D01*
X030749Y012234D01*
X030749Y012152D01*
X030813Y012087D01*
X031337Y012087D01*
X031402Y012152D01*
X031402Y012637D01*
X031337Y012701D01*
X030813Y012701D01*
X030749Y012637D01*
X030749Y012554D01*
X030202Y012554D01*
X030108Y012460D01*
X029543Y011895D01*
X029454Y011895D01*
X029389Y011830D01*
X029389Y011462D01*
X029397Y011454D01*
X029299Y011356D01*
X029299Y010913D01*
X029417Y010796D01*
X029860Y010796D01*
X029949Y010884D01*
X030042Y010884D01*
X030134Y010922D01*
X030413Y011201D01*
X030413Y011085D01*
X030454Y011044D01*
X030395Y010985D01*
X030197Y010985D01*
X030295Y011084D02*
X030414Y011084D01*
X030413Y011182D02*
X030394Y011182D01*
X030395Y010985D02*
X030395Y009008D01*
X030466Y008937D01*
X030413Y008884D01*
X030413Y008794D01*
X030411Y008796D01*
X029968Y008796D01*
X029851Y008679D01*
X029851Y008236D01*
X029968Y008118D01*
X030411Y008118D01*
X030413Y008120D01*
X030413Y008069D01*
X030517Y007964D01*
X030485Y007932D01*
X030485Y006030D01*
X030549Y005965D01*
X032318Y005965D01*
X032318Y004640D01*
X032317Y004554D01*
X032317Y004553D01*
X032317Y004504D01*
X032317Y004455D01*
X032318Y004454D01*
X032318Y004453D01*
X032318Y003819D01*
X032356Y003781D01*
X032356Y003177D01*
X032370Y003163D01*
X032370Y002724D01*
X032487Y002607D01*
X032931Y002607D01*
X033048Y002724D01*
X033048Y003100D01*
X033619Y003100D01*
X033654Y003135D01*
X033670Y003119D01*
X033670Y002684D01*
X033787Y002567D01*
X034230Y002567D01*
X034347Y002711D02*
X037298Y002711D01*
X037449Y002810D02*
X034347Y002810D01*
X034347Y002908D02*
X037600Y002908D01*
X037960Y003007D02*
X034347Y003007D01*
X034347Y003105D02*
X034469Y003105D01*
X034717Y003418D02*
X034418Y003717D01*
X034418Y004085D01*
X034666Y004516D02*
X032567Y004504D01*
X032571Y005859D01*
X034674Y005863D01*
X034666Y004516D01*
X034666Y004583D02*
X032568Y004583D01*
X032568Y004681D02*
X034667Y004681D01*
X034667Y004780D02*
X032568Y004780D01*
X032568Y004878D02*
X034668Y004878D01*
X034668Y004977D02*
X032569Y004977D01*
X032569Y005075D02*
X034669Y005075D01*
X034670Y005174D02*
X032569Y005174D01*
X032570Y005272D02*
X034670Y005272D01*
X034671Y005371D02*
X032570Y005371D01*
X032570Y005469D02*
X034671Y005469D01*
X034672Y005568D02*
X032570Y005568D01*
X032571Y005666D02*
X034672Y005666D01*
X034673Y005765D02*
X032571Y005765D01*
X032318Y005765D02*
X027591Y005765D01*
X027591Y005863D02*
X032318Y005863D01*
X032318Y005962D02*
X027591Y005962D01*
X027591Y006060D02*
X030485Y006060D01*
X030485Y006159D02*
X027591Y006159D01*
X027591Y006257D02*
X030485Y006257D01*
X030485Y006356D02*
X027591Y006356D01*
X027591Y006454D02*
X030485Y006454D01*
X030485Y006553D02*
X027591Y006553D01*
X027591Y006651D02*
X030485Y006651D01*
X030485Y006750D02*
X027591Y006750D01*
X027591Y006848D02*
X030485Y006848D01*
X030485Y006947D02*
X027591Y006947D01*
X027591Y007045D02*
X030485Y007045D01*
X030485Y007144D02*
X027591Y007144D01*
X027591Y007242D02*
X030485Y007242D01*
X030485Y007341D02*
X027591Y007341D01*
X027591Y007439D02*
X030485Y007439D01*
X030485Y007538D02*
X027591Y007538D01*
X027591Y007636D02*
X030485Y007636D01*
X030485Y007735D02*
X027591Y007735D01*
X027591Y007833D02*
X030485Y007833D01*
X030485Y007932D02*
X027591Y007932D01*
X027591Y008030D02*
X030452Y008030D01*
X030999Y008221D02*
X030999Y008864D01*
X030973Y008889D01*
X030965Y010398D01*
X039430Y010398D01*
X039441Y008221D01*
X030999Y008221D01*
X030999Y008227D02*
X039441Y008227D01*
X039441Y008326D02*
X030999Y008326D01*
X030999Y008424D02*
X039440Y008424D01*
X039440Y008523D02*
X030999Y008523D01*
X030999Y008621D02*
X039439Y008621D01*
X039439Y008720D02*
X030999Y008720D01*
X030999Y008818D02*
X039438Y008818D01*
X039438Y008917D02*
X030973Y008917D01*
X030972Y009015D02*
X039437Y009015D01*
X039436Y009114D02*
X030972Y009114D01*
X030971Y009212D02*
X039436Y009212D01*
X039435Y009311D02*
X030971Y009311D01*
X030970Y009409D02*
X039435Y009409D01*
X039434Y009508D02*
X030970Y009508D01*
X030969Y009606D02*
X039434Y009606D01*
X039433Y009705D02*
X030969Y009705D01*
X030968Y009803D02*
X039433Y009803D01*
X039432Y009902D02*
X030968Y009902D01*
X030967Y010000D02*
X039432Y010000D01*
X039431Y010099D02*
X030967Y010099D01*
X030966Y010197D02*
X039431Y010197D01*
X039430Y010296D02*
X030966Y010296D01*
X030965Y010394D02*
X039430Y010394D01*
X039410Y010622D02*
X034831Y010626D01*
X034831Y011965D01*
X036709Y011965D01*
X036705Y014516D01*
X039422Y014524D01*
X039410Y010622D01*
X039410Y010690D02*
X034831Y010690D01*
X034831Y010788D02*
X039410Y010788D01*
X039411Y010887D02*
X034831Y010887D01*
X034831Y010985D02*
X039411Y010985D01*
X039411Y011084D02*
X034831Y011084D01*
X034831Y011182D02*
X039412Y011182D01*
X039412Y011281D02*
X034831Y011281D01*
X034831Y011379D02*
X039412Y011379D01*
X039412Y011478D02*
X034831Y011478D01*
X034831Y011576D02*
X039413Y011576D01*
X039413Y011675D02*
X034831Y011675D01*
X034831Y011773D02*
X039413Y011773D01*
X039414Y011872D02*
X034831Y011872D01*
X035170Y012278D02*
X035821Y012278D01*
X035859Y012315D01*
X036331Y012315D02*
X036331Y012735D01*
X036083Y012983D01*
X036449Y013335D02*
X034225Y013339D01*
X034225Y014701D01*
X036449Y014705D01*
X036449Y013335D01*
X036449Y013349D02*
X034225Y013349D01*
X034225Y013448D02*
X036449Y013448D01*
X036449Y013546D02*
X034225Y013546D01*
X034225Y013645D02*
X036449Y013645D01*
X036449Y013743D02*
X034225Y013743D01*
X034225Y013842D02*
X036449Y013842D01*
X036449Y013940D02*
X034225Y013940D01*
X034225Y014039D02*
X036449Y014039D01*
X036449Y014137D02*
X034225Y014137D01*
X034225Y014236D02*
X036449Y014236D01*
X036449Y014334D02*
X034225Y014334D01*
X034225Y014433D02*
X036449Y014433D01*
X036449Y014531D02*
X034225Y014531D01*
X034225Y014630D02*
X036449Y014630D01*
X036670Y014827D02*
X039567Y014827D01*
X039567Y014925D02*
X036572Y014925D01*
X036399Y014955D02*
X036399Y014955D01*
X035901Y015024D02*
X039567Y015024D01*
X039567Y015122D02*
X035901Y015122D01*
X035901Y015221D02*
X039567Y015221D01*
X039567Y015319D02*
X035901Y015319D01*
X035874Y015418D02*
X039567Y015418D01*
X039567Y015516D02*
X036706Y015516D01*
X036671Y015481D02*
X036788Y015598D01*
X036788Y016041D01*
X036671Y016158D01*
X036228Y016158D01*
X036110Y016041D01*
X036110Y015598D01*
X036228Y015481D01*
X036671Y015481D01*
X036788Y015615D02*
X039567Y015615D01*
X039567Y015713D02*
X036788Y015713D01*
X036788Y015812D02*
X039567Y015812D01*
X039567Y015910D02*
X036788Y015910D01*
X036788Y016009D02*
X039567Y016009D01*
X039567Y016107D02*
X036722Y016107D01*
X036177Y016107D02*
X035738Y016107D01*
X035804Y016009D02*
X036110Y016009D01*
X036110Y015910D02*
X035804Y015910D01*
X035804Y015812D02*
X036110Y015812D01*
X036110Y015713D02*
X035804Y015713D01*
X035804Y015615D02*
X036110Y015615D01*
X036192Y015516D02*
X035722Y015516D01*
X035465Y015819D02*
X035465Y015130D01*
X035485Y015111D01*
X034815Y015111D02*
X034815Y013767D01*
X034861Y013721D01*
X033971Y013743D02*
X030456Y013743D01*
X030456Y013645D02*
X033971Y013645D01*
X033971Y013546D02*
X030456Y013546D01*
X030456Y013448D02*
X033971Y013448D01*
X033971Y013349D02*
X030456Y013349D01*
X030456Y013251D02*
X033971Y013251D01*
X033971Y013152D02*
X030360Y013152D01*
X030339Y013131D02*
X029858Y013131D01*
X029741Y013248D01*
X029741Y013886D01*
X029775Y013920D01*
X029737Y013957D01*
X029737Y014401D01*
X029654Y014317D01*
X029654Y013994D01*
X029589Y013930D01*
X029183Y013930D01*
X029119Y013994D01*
X029119Y014558D01*
X029183Y014622D01*
X029420Y014622D01*
X029420Y015602D01*
X029210Y015602D01*
X029145Y015666D01*
X029145Y016407D01*
X029210Y016472D01*
X029951Y016472D01*
X030015Y016407D01*
X030015Y015666D01*
X029951Y015602D01*
X029740Y015602D01*
X029740Y014598D01*
X029855Y014712D01*
X030335Y014712D01*
X030452Y014595D01*
X030452Y013957D01*
X030419Y013924D01*
X030456Y013886D01*
X030456Y013248D01*
X030339Y013131D01*
X029838Y013152D02*
X027591Y013152D01*
X027591Y013054D02*
X033971Y013054D01*
X033971Y012955D02*
X027591Y012955D01*
X027591Y012857D02*
X033971Y012857D01*
X033971Y012758D02*
X027591Y012758D01*
X027591Y012660D02*
X030772Y012660D01*
X030749Y012561D02*
X027591Y012561D01*
X027591Y012463D02*
X030110Y012463D01*
X030012Y012364D02*
X027591Y012364D01*
X027591Y012266D02*
X029913Y012266D01*
X029815Y012167D02*
X027591Y012167D01*
X027591Y012069D02*
X029716Y012069D01*
X029618Y011970D02*
X027591Y011970D01*
X027591Y011872D02*
X029431Y011872D01*
X029389Y011773D02*
X027591Y011773D01*
X027591Y011675D02*
X029389Y011675D01*
X029389Y011576D02*
X027591Y011576D01*
X027591Y011478D02*
X029389Y011478D01*
X029323Y011379D02*
X027591Y011379D01*
X027591Y011281D02*
X029299Y011281D01*
X029299Y011182D02*
X027591Y011182D01*
X027591Y011084D02*
X029299Y011084D01*
X029299Y010985D02*
X027591Y010985D01*
X027591Y010887D02*
X029326Y010887D01*
X029638Y011134D02*
X029993Y011134D01*
X030347Y011489D01*
X030727Y011489D01*
X030731Y011493D01*
X031049Y011478D02*
X032658Y011478D01*
X032658Y011576D02*
X031049Y011576D01*
X031049Y011675D02*
X032658Y011675D01*
X032658Y011773D02*
X031049Y011773D01*
X031049Y011872D02*
X032658Y011872D01*
X032658Y011970D02*
X030979Y011970D01*
X030749Y012167D02*
X030267Y012167D01*
X030169Y012069D02*
X032658Y012069D01*
X032658Y012167D02*
X031402Y012167D01*
X031402Y012266D02*
X032658Y012266D01*
X032658Y012364D02*
X031402Y012364D01*
X031402Y012463D02*
X032661Y012463D01*
X031402Y012561D02*
X034048Y012561D01*
X033971Y012660D02*
X031379Y012660D01*
X031075Y012394D02*
X030268Y012394D01*
X029638Y011764D01*
X029638Y011646D01*
X029887Y011675D02*
X030179Y011675D01*
X030081Y011576D02*
X029887Y011576D01*
X029887Y011478D02*
X029982Y011478D01*
X029887Y011773D02*
X030413Y011773D01*
X030413Y011872D02*
X029972Y011872D01*
X030070Y011970D02*
X030482Y011970D01*
X031049Y011379D02*
X032658Y011379D01*
X032658Y011281D02*
X031049Y011281D01*
X031049Y011182D02*
X032658Y011182D01*
X032658Y011084D02*
X032468Y011084D01*
X032566Y010985D02*
X032658Y010985D01*
X032658Y010887D02*
X032567Y010887D01*
X032567Y010788D02*
X032658Y010788D01*
X032658Y010690D02*
X032567Y010690D01*
X033626Y011528D02*
X033674Y011528D01*
X036709Y011970D02*
X039414Y011970D01*
X039414Y012069D02*
X036709Y012069D01*
X036709Y012167D02*
X039415Y012167D01*
X039415Y012266D02*
X036709Y012266D01*
X036708Y012364D02*
X039415Y012364D01*
X039415Y012463D02*
X036708Y012463D01*
X036708Y012561D02*
X039416Y012561D01*
X039416Y012660D02*
X036708Y012660D01*
X036708Y012758D02*
X039416Y012758D01*
X039417Y012857D02*
X036708Y012857D01*
X036708Y012955D02*
X039417Y012955D01*
X039417Y013054D02*
X036707Y013054D01*
X036707Y013152D02*
X039418Y013152D01*
X039418Y013251D02*
X036707Y013251D01*
X036707Y013349D02*
X039418Y013349D01*
X039418Y013448D02*
X036707Y013448D01*
X036707Y013546D02*
X039419Y013546D01*
X039419Y013645D02*
X036706Y013645D01*
X036706Y013743D02*
X039419Y013743D01*
X039420Y013842D02*
X036706Y013842D01*
X036706Y013940D02*
X039420Y013940D01*
X039420Y014039D02*
X036706Y014039D01*
X036706Y014137D02*
X039420Y014137D01*
X039421Y014236D02*
X036706Y014236D01*
X036705Y014334D02*
X039421Y014334D01*
X039421Y014433D02*
X036705Y014433D01*
X034815Y015111D02*
X034292Y015111D01*
X034284Y015119D01*
X034284Y015819D01*
X033945Y015812D02*
X030015Y015812D01*
X030015Y015910D02*
X033945Y015910D01*
X033945Y016009D02*
X030015Y016009D01*
X030015Y016107D02*
X034011Y016107D01*
X033945Y015713D02*
X030015Y015713D01*
X029964Y015615D02*
X033945Y015615D01*
X034021Y015516D02*
X029740Y015516D01*
X029740Y015418D02*
X033934Y015418D01*
X033934Y015319D02*
X032701Y015319D01*
X032701Y015353D02*
X032637Y015417D01*
X032112Y015417D01*
X032048Y015353D01*
X032048Y015271D01*
X031974Y015271D01*
X031974Y015295D01*
X031909Y015359D01*
X031540Y015359D01*
X031476Y015295D01*
X031476Y014926D01*
X031540Y014862D01*
X031909Y014862D01*
X031974Y014926D01*
X031974Y014951D01*
X032048Y014951D01*
X032048Y014868D01*
X032112Y014804D01*
X032637Y014804D01*
X032701Y014868D01*
X032701Y015353D01*
X032701Y015221D02*
X033934Y015221D01*
X033934Y015122D02*
X032701Y015122D01*
X032701Y015024D02*
X033934Y015024D01*
X033934Y014925D02*
X032701Y014925D01*
X032659Y014827D02*
X033934Y014827D01*
X033971Y014728D02*
X029740Y014728D01*
X029740Y014630D02*
X029772Y014630D01*
X029740Y014827D02*
X032090Y014827D01*
X032048Y014925D02*
X031972Y014925D01*
X031725Y015111D02*
X032374Y015111D01*
X032048Y015319D02*
X031949Y015319D01*
X031500Y015319D02*
X029740Y015319D01*
X029740Y015221D02*
X031476Y015221D01*
X031476Y015122D02*
X029740Y015122D01*
X029740Y015024D02*
X031476Y015024D01*
X031477Y014925D02*
X029740Y014925D01*
X029420Y014925D02*
X027591Y014925D01*
X027591Y014827D02*
X029420Y014827D01*
X029420Y014728D02*
X027591Y014728D01*
X027591Y014630D02*
X029420Y014630D01*
X029580Y014470D02*
X029580Y016037D01*
X030015Y016206D02*
X039567Y016206D01*
X039567Y016304D02*
X038317Y016304D01*
X038152Y016290D02*
X038152Y016290D01*
X038099Y016304D02*
X030015Y016304D01*
X030015Y016403D02*
X037726Y016403D01*
X037736Y016396D02*
X037736Y016396D01*
X037575Y016501D02*
X027591Y016501D01*
X027591Y016403D02*
X029145Y016403D01*
X029145Y016304D02*
X027591Y016304D01*
X027591Y016206D02*
X029145Y016206D01*
X029145Y016107D02*
X027591Y016107D01*
X027591Y016009D02*
X029145Y016009D01*
X029145Y015910D02*
X027591Y015910D01*
X027591Y015812D02*
X029145Y015812D01*
X029145Y015713D02*
X027591Y015713D01*
X027591Y015615D02*
X029197Y015615D01*
X029420Y015516D02*
X027591Y015516D01*
X027591Y015418D02*
X029420Y015418D01*
X029420Y015319D02*
X027591Y015319D01*
X027591Y015221D02*
X029420Y015221D01*
X029420Y015122D02*
X027591Y015122D01*
X027591Y015024D02*
X029420Y015024D01*
X029119Y014531D02*
X027591Y014531D01*
X027591Y014433D02*
X029119Y014433D01*
X029119Y014334D02*
X027591Y014334D01*
X027591Y014236D02*
X029119Y014236D01*
X029119Y014137D02*
X027591Y014137D01*
X027591Y014039D02*
X029119Y014039D01*
X029173Y013940D02*
X027591Y013940D01*
X027591Y013842D02*
X029741Y013842D01*
X029754Y013940D02*
X029600Y013940D01*
X029654Y014039D02*
X029737Y014039D01*
X029737Y014137D02*
X029654Y014137D01*
X029654Y014236D02*
X029737Y014236D01*
X029737Y014334D02*
X029671Y014334D01*
X029580Y014470D02*
X029386Y014276D01*
X029741Y013743D02*
X027591Y013743D01*
X027591Y013645D02*
X029741Y013645D01*
X029741Y013546D02*
X027591Y013546D01*
X027591Y013448D02*
X029741Y013448D01*
X029741Y013349D02*
X027591Y013349D01*
X027591Y013251D02*
X029741Y013251D01*
X030095Y013571D02*
X030099Y013567D01*
X030095Y013571D02*
X030095Y014276D01*
X030452Y014236D02*
X033971Y014236D01*
X033971Y014334D02*
X030452Y014334D01*
X030452Y014433D02*
X033971Y014433D01*
X033971Y014531D02*
X030452Y014531D01*
X030418Y014630D02*
X033971Y014630D01*
X033971Y014137D02*
X030452Y014137D01*
X030452Y014039D02*
X033971Y014039D01*
X033971Y013940D02*
X030435Y013940D01*
X030456Y013842D02*
X033971Y013842D01*
X034556Y016107D02*
X034602Y016107D01*
X035147Y016107D02*
X035192Y016107D01*
X037104Y016994D02*
X027591Y016994D01*
X027591Y017092D02*
X037071Y017092D01*
X037037Y017191D02*
X027591Y017191D01*
X027591Y017289D02*
X034863Y017289D01*
X034746Y017337D02*
X035044Y017214D01*
X035366Y017214D01*
X035664Y017337D01*
X035892Y017565D01*
X036015Y017863D01*
X036015Y018185D01*
X035892Y018483D01*
X035664Y018711D01*
X035366Y018834D01*
X035044Y018834D01*
X034746Y018711D01*
X034518Y018483D01*
X034395Y018185D01*
X034395Y017863D01*
X034518Y017565D01*
X034746Y017337D01*
X034696Y017388D02*
X027591Y017388D01*
X027591Y017486D02*
X034598Y017486D01*
X034510Y017585D02*
X027591Y017585D01*
X027591Y017683D02*
X034470Y017683D01*
X034429Y017782D02*
X027591Y017782D01*
X027591Y017880D02*
X034395Y017880D01*
X034395Y017979D02*
X027591Y017979D01*
X027591Y018077D02*
X034395Y018077D01*
X034395Y018176D02*
X027591Y018176D01*
X027591Y018274D02*
X034432Y018274D01*
X034473Y018373D02*
X027591Y018373D01*
X027591Y018471D02*
X034514Y018471D01*
X034605Y018570D02*
X027591Y018570D01*
X027591Y018668D02*
X034704Y018668D01*
X034881Y018767D02*
X027591Y018767D01*
X027315Y018767D02*
X020686Y018767D01*
X020686Y018668D02*
X027315Y018668D01*
X027315Y018570D02*
X020686Y018570D01*
X020686Y018471D02*
X027315Y018471D01*
X027315Y018373D02*
X020686Y018373D01*
X020686Y018274D02*
X027315Y018274D01*
X027315Y018176D02*
X020686Y018176D01*
X020686Y018077D02*
X027315Y018077D01*
X027315Y017979D02*
X020686Y017979D01*
X020686Y017880D02*
X027315Y017880D01*
X027315Y017782D02*
X020686Y017782D01*
X020686Y017683D02*
X027315Y017683D01*
X027315Y017585D02*
X024471Y017585D01*
X024570Y017486D02*
X027315Y017486D01*
X027315Y017388D02*
X024593Y017388D01*
X024593Y017289D02*
X027315Y017289D01*
X027315Y017191D02*
X024593Y017191D01*
X024593Y017092D02*
X027315Y017092D01*
X027315Y016994D02*
X024576Y016994D01*
X024477Y016895D02*
X027315Y016895D01*
X027315Y016797D02*
X024172Y016797D01*
X024074Y016698D02*
X027315Y016698D01*
X027315Y016600D02*
X025968Y016600D01*
X026050Y016501D02*
X027315Y016501D01*
X027315Y016403D02*
X026050Y016403D01*
X026050Y016304D02*
X027315Y016304D01*
X027315Y016206D02*
X026050Y016206D01*
X026050Y016107D02*
X027315Y016107D01*
X027315Y016009D02*
X025992Y016009D01*
X026050Y015910D02*
X027315Y015910D01*
X027315Y015812D02*
X026050Y015812D01*
X026050Y015713D02*
X027315Y015713D01*
X027315Y015615D02*
X026050Y015615D01*
X026050Y015516D02*
X027315Y015516D01*
X027315Y015418D02*
X025992Y015418D01*
X026050Y015319D02*
X027315Y015319D01*
X027315Y015221D02*
X026050Y015221D01*
X026050Y015122D02*
X027315Y015122D01*
X027315Y015024D02*
X026050Y015024D01*
X026050Y014925D02*
X027315Y014925D01*
X027315Y014827D02*
X027048Y014827D01*
X027085Y014728D02*
X027315Y014728D01*
X027315Y014630D02*
X027085Y014630D01*
X027085Y014531D02*
X027315Y014531D01*
X027315Y014433D02*
X027085Y014433D01*
X027082Y014334D02*
X027315Y014334D01*
X027315Y014236D02*
X027085Y014236D01*
X027085Y014137D02*
X027315Y014137D01*
X027315Y014039D02*
X027085Y014039D01*
X027085Y013940D02*
X027315Y013940D01*
X027315Y013842D02*
X027085Y013842D01*
X027085Y013743D02*
X027315Y013743D01*
X027315Y013645D02*
X027085Y013645D01*
X027085Y013546D02*
X027315Y013546D01*
X027315Y013448D02*
X027085Y013448D01*
X027085Y013349D02*
X027315Y013349D01*
X027315Y013251D02*
X027085Y013251D01*
X027085Y013152D02*
X027315Y013152D01*
X027315Y013054D02*
X027085Y013054D01*
X027085Y012955D02*
X027315Y012955D01*
X027315Y012857D02*
X027085Y012857D01*
X027085Y012758D02*
X027315Y012758D01*
X027315Y012660D02*
X027085Y012660D01*
X027085Y012561D02*
X027315Y012561D01*
X027315Y012463D02*
X027084Y012463D01*
X027085Y012364D02*
X027315Y012364D01*
X027315Y012266D02*
X027085Y012266D01*
X027085Y012167D02*
X027315Y012167D01*
X027315Y012069D02*
X027085Y012069D01*
X027084Y011970D02*
X027315Y011970D01*
X027315Y011872D02*
X026985Y011872D01*
X027315Y011773D02*
X025479Y011773D01*
X025381Y011675D02*
X027315Y011675D01*
X027315Y011576D02*
X025282Y011576D01*
X025184Y011478D02*
X027315Y011478D01*
X027315Y011379D02*
X025085Y011379D01*
X024987Y011281D02*
X027315Y011281D01*
X027315Y011182D02*
X024888Y011182D01*
X025032Y010823D02*
X024638Y010823D01*
X024209Y010496D01*
X024130Y010398D01*
X024126Y009622D01*
X024122Y009619D01*
X025016Y009619D01*
X025056Y009658D01*
X025059Y010764D01*
X025032Y010823D01*
X025048Y010788D02*
X024592Y010788D01*
X024463Y010690D02*
X025059Y010690D01*
X025059Y010591D02*
X024333Y010591D01*
X024206Y010493D02*
X025058Y010493D01*
X025058Y010394D02*
X024130Y010394D01*
X024130Y010296D02*
X025058Y010296D01*
X025057Y010197D02*
X024129Y010197D01*
X024129Y010099D02*
X025057Y010099D01*
X025057Y010000D02*
X024128Y010000D01*
X024128Y009902D02*
X025056Y009902D01*
X025056Y009803D02*
X024127Y009803D01*
X024127Y009705D02*
X025056Y009705D01*
X025316Y009705D02*
X027315Y009705D01*
X027315Y009803D02*
X025316Y009803D01*
X025316Y009902D02*
X027315Y009902D01*
X027315Y010000D02*
X025317Y010000D01*
X025459Y010099D02*
X027315Y010099D01*
X027315Y010197D02*
X025533Y010197D01*
X025533Y010296D02*
X027315Y010296D01*
X027315Y010394D02*
X025533Y010394D01*
X025533Y010493D02*
X027315Y010493D01*
X027315Y010591D02*
X025533Y010591D01*
X025533Y010690D02*
X027315Y010690D01*
X027315Y010788D02*
X025533Y010788D01*
X025533Y010887D02*
X027315Y010887D01*
X027315Y010985D02*
X025533Y010985D01*
X025506Y011084D02*
X027315Y011084D01*
X027591Y010788D02*
X030395Y010788D01*
X030395Y010690D02*
X027591Y010690D01*
X027591Y010591D02*
X030395Y010591D01*
X030395Y010493D02*
X027591Y010493D01*
X027591Y010394D02*
X030395Y010394D01*
X030395Y010296D02*
X027591Y010296D01*
X027591Y010197D02*
X030395Y010197D01*
X030395Y010099D02*
X027591Y010099D01*
X027591Y010000D02*
X030395Y010000D01*
X030395Y009902D02*
X027591Y009902D01*
X027591Y009803D02*
X030395Y009803D01*
X030395Y009705D02*
X027591Y009705D01*
X027591Y009606D02*
X030395Y009606D01*
X030395Y009508D02*
X027591Y009508D01*
X027591Y009409D02*
X030395Y009409D01*
X030395Y009311D02*
X027591Y009311D01*
X027591Y009212D02*
X030395Y009212D01*
X030395Y009114D02*
X027591Y009114D01*
X027591Y009015D02*
X030395Y009015D01*
X030445Y008917D02*
X027591Y008917D01*
X027591Y008818D02*
X030413Y008818D01*
X030189Y008457D02*
X030711Y008457D01*
X030731Y008477D01*
X030731Y008467D01*
X030741Y008457D01*
X029958Y008129D02*
X027591Y008129D01*
X027591Y008227D02*
X029859Y008227D01*
X029851Y008326D02*
X027591Y008326D01*
X027591Y008424D02*
X029851Y008424D01*
X029851Y008523D02*
X027591Y008523D01*
X027591Y008621D02*
X029851Y008621D01*
X029891Y008720D02*
X027591Y008720D01*
X027315Y008720D02*
X027113Y008720D01*
X027113Y008801D02*
X026990Y008924D01*
X026538Y008924D01*
X026415Y008801D01*
X026415Y008349D01*
X026538Y008226D01*
X026990Y008226D01*
X027113Y008349D01*
X027113Y008801D01*
X027096Y008818D02*
X027315Y008818D01*
X027315Y008917D02*
X026997Y008917D01*
X027315Y009015D02*
X016158Y009015D01*
X016158Y008917D02*
X026531Y008917D01*
X026433Y008818D02*
X016158Y008818D01*
X016158Y008720D02*
X026415Y008720D01*
X026415Y008621D02*
X016158Y008621D01*
X016158Y008523D02*
X026415Y008523D01*
X026415Y008424D02*
X016158Y008424D01*
X016158Y008326D02*
X026439Y008326D01*
X026538Y008227D02*
X016158Y008227D01*
X016158Y008129D02*
X026491Y008129D01*
X026538Y008176D02*
X026415Y008053D01*
X026415Y007601D01*
X026538Y007478D01*
X026990Y007478D01*
X027113Y007601D01*
X027113Y008053D01*
X026990Y008176D01*
X026538Y008176D01*
X026415Y008030D02*
X016158Y008030D01*
X016158Y007932D02*
X026415Y007932D01*
X026415Y007833D02*
X016158Y007833D01*
X016158Y007735D02*
X026415Y007735D01*
X026415Y007636D02*
X016158Y007636D01*
X016158Y007538D02*
X026479Y007538D01*
X027049Y007538D02*
X027315Y007538D01*
X027315Y007636D02*
X027113Y007636D01*
X027113Y007735D02*
X027315Y007735D01*
X027315Y007833D02*
X027113Y007833D01*
X027113Y007932D02*
X027315Y007932D01*
X027315Y008030D02*
X027113Y008030D01*
X027037Y008129D02*
X027315Y008129D01*
X027315Y008227D02*
X026990Y008227D01*
X027089Y008326D02*
X027315Y008326D01*
X027315Y008424D02*
X027113Y008424D01*
X027113Y008523D02*
X027315Y008523D01*
X027315Y008621D02*
X027113Y008621D01*
X027315Y009114D02*
X016158Y009114D01*
X016158Y009212D02*
X027315Y009212D01*
X027315Y009311D02*
X016158Y009311D01*
X016158Y009409D02*
X016357Y009409D01*
X016258Y009508D02*
X016158Y009508D01*
X016158Y009606D02*
X016255Y009606D01*
X016255Y009705D02*
X016158Y009705D01*
X016158Y009803D02*
X016255Y009803D01*
X016255Y009902D02*
X016158Y009902D01*
X016158Y010000D02*
X016255Y010000D01*
X016255Y010099D02*
X016158Y010099D01*
X016158Y010197D02*
X016307Y010197D01*
X016158Y010296D02*
X016880Y010296D01*
X016978Y010394D02*
X016158Y010394D01*
X016158Y010493D02*
X017077Y010493D01*
X017256Y010304D02*
X016780Y009828D01*
X017305Y009803D02*
X017881Y009803D01*
X017881Y009705D02*
X017305Y009705D01*
X017305Y009606D02*
X017881Y009606D01*
X017885Y009508D02*
X017301Y009508D01*
X017203Y009409D02*
X017984Y009409D01*
X018513Y009409D02*
X018652Y009409D01*
X018829Y009839D02*
X018248Y009839D01*
X018248Y009835D01*
X017881Y009902D02*
X017305Y009902D01*
X017320Y010000D02*
X017881Y010000D01*
X017256Y010304D02*
X018937Y010304D01*
X019029Y010212D01*
X019029Y009839D01*
X019229Y009839D02*
X019323Y009934D01*
X019323Y010091D01*
X019229Y009839D02*
X019419Y009839D01*
X019619Y009839D02*
X019619Y012099D01*
X017867Y013851D01*
X017867Y014969D01*
X017851Y014985D01*
X017483Y015024D02*
X016158Y015024D01*
X016158Y015122D02*
X017483Y015122D01*
X017483Y015221D02*
X016158Y015221D01*
X016158Y015319D02*
X016219Y015319D01*
X015898Y015319D02*
X015298Y015319D01*
X015298Y015221D02*
X015898Y015221D01*
X015898Y015122D02*
X015298Y015122D01*
X015298Y015024D02*
X015898Y015024D01*
X015898Y014925D02*
X015298Y014925D01*
X015298Y014827D02*
X015898Y014827D01*
X015898Y014728D02*
X015298Y014728D01*
X015298Y014630D02*
X015898Y014630D01*
X015898Y014531D02*
X015298Y014531D01*
X015298Y014433D02*
X015898Y014433D01*
X015898Y014334D02*
X015298Y014334D01*
X015298Y014236D02*
X015898Y014236D01*
X015898Y014137D02*
X015304Y014137D01*
X015298Y014143D02*
X015298Y017629D01*
X015371Y017659D01*
X015451Y017740D01*
X015451Y016636D01*
X015489Y016544D01*
X015560Y016473D01*
X015651Y016435D01*
X015898Y016435D01*
X015898Y014061D01*
X015380Y014061D01*
X015346Y014095D01*
X015298Y014143D01*
X015346Y014095D02*
X015346Y014095D01*
X015134Y013953D02*
X014256Y013075D01*
X014083Y013075D01*
X013374Y013075D02*
X013319Y013020D01*
X013319Y012615D01*
X012063Y011359D01*
X012063Y011355D01*
X011824Y011115D01*
X011407Y011115D01*
X011407Y010915D02*
X011039Y010915D01*
X010662Y011292D01*
X009756Y011292D01*
X009448Y011281D02*
X008832Y011281D01*
X008816Y011296D02*
X008373Y011296D01*
X008256Y011179D01*
X008256Y010736D01*
X008345Y010647D01*
X008345Y009136D01*
X008383Y009044D01*
X008453Y008973D01*
X008779Y008648D01*
X008524Y008648D01*
X008424Y008548D01*
X008424Y008130D01*
X008439Y008115D01*
X008169Y008115D01*
X008139Y008085D01*
X007592Y008085D01*
X007492Y007985D01*
X007492Y007538D01*
X007406Y007624D01*
X006988Y007624D01*
X006889Y007525D01*
X006889Y007106D01*
X006988Y007007D01*
X007406Y007007D01*
X007497Y007097D01*
X007497Y006271D01*
X008985Y004783D01*
X009114Y004654D01*
X010397Y004654D01*
X010339Y004596D01*
X010339Y004157D01*
X010071Y004157D01*
X010070Y004158D01*
X009980Y004157D01*
X009890Y004157D01*
X009889Y004156D01*
X009887Y004156D01*
X009824Y004092D01*
X009761Y004029D01*
X009761Y004027D01*
X009443Y003702D01*
X009379Y003639D01*
X009379Y003637D01*
X009378Y003637D01*
X009379Y003547D01*
X009379Y003456D01*
X009264Y003571D01*
X009193Y003641D01*
X009101Y003680D01*
X009048Y003680D01*
X009032Y003696D01*
X008206Y003696D01*
X008089Y003578D01*
X008089Y003428D01*
X007984Y003532D01*
X007984Y003867D01*
X008047Y003804D01*
X008136Y003716D01*
X008198Y003716D01*
X008218Y003696D01*
X007984Y003696D01*
X007984Y003598D02*
X008108Y003598D01*
X008089Y003499D02*
X008018Y003499D01*
X007764Y003441D02*
X008030Y003176D01*
X008619Y003176D01*
X008619Y003426D02*
X008623Y003430D01*
X009052Y003430D01*
X009205Y003276D01*
X009205Y002906D01*
X008955Y002656D01*
X008619Y002656D01*
X007519Y002656D01*
X007496Y002678D01*
X007916Y002916D02*
X007457Y003374D01*
X007457Y004331D01*
X006792Y004996D01*
X006789Y004688D02*
X007237Y004240D01*
X007237Y003500D01*
X007150Y003588D01*
X006545Y003588D01*
X006611Y003654D01*
X006611Y004268D01*
X006512Y004367D01*
X006056Y004367D01*
X006034Y004346D01*
X006034Y004735D01*
X005935Y004834D01*
X005574Y004834D01*
X005504Y004765D01*
X005472Y004797D01*
X005472Y005340D01*
X005343Y005468D01*
X005135Y005677D01*
X005000Y005677D01*
X005064Y005742D01*
X005064Y006687D01*
X005014Y006737D01*
X005014Y006745D01*
X005087Y006818D01*
X005087Y007261D01*
X004970Y007379D01*
X004565Y007379D01*
X004565Y007556D01*
X004465Y007656D01*
X004047Y007656D01*
X003948Y007556D01*
X003948Y007138D01*
X004036Y007049D01*
X004036Y006737D01*
X003974Y006675D01*
X003974Y005754D01*
X004051Y005677D01*
X003765Y005677D01*
X003765Y005823D01*
X003665Y005922D01*
X003657Y005922D01*
X003657Y005981D01*
X003610Y006029D01*
X003713Y006029D01*
X003830Y006146D01*
X003830Y006784D01*
X003780Y006834D01*
X003780Y007230D01*
X003663Y007347D01*
X003524Y007347D01*
X003568Y007391D01*
X003568Y007477D01*
X003595Y007477D01*
X003953Y007834D01*
X004177Y007834D01*
X004185Y007843D01*
X004194Y007834D01*
X004728Y007834D01*
X004777Y007883D01*
X005198Y007883D01*
X005327Y008012D01*
X005450Y008135D01*
X006622Y008135D01*
X006627Y008130D01*
X007348Y008130D01*
X007447Y008230D01*
X007447Y009660D01*
X007373Y009735D01*
X007447Y009810D01*
X007447Y010157D01*
X007477Y010187D01*
X007477Y010463D01*
X007447Y010493D01*
X007447Y010698D01*
X007466Y010698D01*
X007555Y010609D01*
X007973Y010609D01*
X008073Y010709D01*
X008073Y011127D01*
X007973Y011226D01*
X007555Y011226D01*
X007466Y011138D01*
X007447Y011138D01*
X007447Y011440D01*
X007348Y011540D01*
X006627Y011540D01*
X006527Y011440D01*
X006527Y011335D01*
X006510Y011335D01*
X006510Y011339D01*
X006410Y011439D01*
X005992Y011439D01*
X005892Y011339D01*
X005892Y011057D01*
X005527Y011057D01*
X005428Y010958D01*
X005428Y010575D01*
X003744Y010575D01*
X003606Y010713D01*
X003606Y011036D01*
X003561Y011081D01*
X003691Y011211D01*
X004556Y011211D01*
X004645Y011122D01*
X005088Y011122D01*
X005205Y011239D01*
X005205Y011545D01*
X005803Y012143D01*
X005874Y012213D01*
X005898Y012273D01*
X006020Y012273D01*
X006137Y012390D01*
X006137Y012871D01*
X006020Y012988D01*
X005382Y012988D01*
X005265Y012871D01*
X005265Y012390D01*
X005304Y012351D01*
X004753Y011800D01*
X004645Y011800D01*
X004556Y011711D01*
X003537Y011711D01*
X003445Y011673D01*
X003158Y011386D01*
X003088Y011315D01*
X003050Y011223D01*
X003050Y011153D01*
X003008Y011153D01*
X002891Y011036D01*
X002891Y010398D01*
X003008Y010281D01*
X003331Y010281D01*
X003499Y010113D01*
X003591Y010075D01*
X005537Y010075D01*
X005463Y010001D01*
X005463Y009884D01*
X005098Y009884D01*
X004999Y009784D01*
X004999Y009366D01*
X005097Y009268D01*
X004777Y009268D01*
X004728Y009316D01*
X004194Y009316D01*
X004185Y009308D01*
X004177Y009316D01*
X003953Y009316D01*
X003568Y009701D01*
X003568Y009827D01*
X003468Y009926D01*
X003013Y009926D01*
X002913Y009827D01*
X002913Y009213D01*
X002927Y009199D01*
X002913Y009185D01*
X002913Y007391D01*
X003013Y007291D01*
X003164Y007291D01*
X003103Y007230D01*
X003103Y006787D01*
X003115Y006774D01*
X003115Y006181D01*
X002252Y006181D01*
X002123Y006052D01*
X002027Y005957D01*
X001899Y005828D01*
X001899Y005359D01*
X001689Y005150D01*
X001678Y005150D01*
X001642Y005235D01*
X001490Y005387D01*
X001292Y005470D01*
X001077Y005470D01*
X000878Y005387D01*
X000726Y005235D01*
X000644Y005037D01*
X000644Y004822D01*
X000726Y004624D01*
X000878Y004472D01*
X000930Y004450D01*
X000778Y004387D01*
X000626Y004235D01*
X000544Y004037D01*
X000544Y003822D01*
X000626Y003624D01*
X000778Y003472D01*
X000977Y003390D01*
X001192Y003390D01*
X001390Y003472D01*
X001542Y003624D01*
X001578Y003710D01*
X002446Y003710D01*
X002603Y003867D01*
X003265Y003867D01*
X003422Y004024D01*
X003551Y004153D01*
X003551Y004161D01*
X003628Y004161D01*
X003728Y004261D01*
X003728Y004729D01*
X003974Y004729D01*
X003974Y003814D01*
X004074Y003714D01*
X004435Y003714D01*
X004504Y003784D01*
X004574Y003714D01*
X004935Y003714D01*
X005004Y003784D01*
X005074Y003714D01*
X005435Y003714D01*
X005504Y003784D01*
X005574Y003714D01*
X005908Y003714D01*
X005908Y003541D01*
X005778Y003541D01*
X005756Y003520D01*
X005617Y003520D01*
X005611Y003526D01*
X005193Y003526D01*
X005093Y003426D01*
X005093Y003008D01*
X005193Y002908D01*
X005611Y002908D01*
X005678Y002975D01*
X005678Y002620D01*
X005778Y002521D01*
X006437Y002521D01*
X006437Y002339D01*
X004390Y002339D01*
X004261Y002210D01*
X004261Y002210D01*
X003642Y001591D01*
X003506Y001535D01*
X003354Y001383D01*
X003271Y001184D01*
X003271Y000969D01*
X003354Y000771D01*
X003506Y000619D01*
X003704Y000537D01*
X003919Y000537D01*
X004117Y000619D01*
X004269Y000771D01*
X004291Y000823D01*
X004354Y000671D01*
X004506Y000519D01*
X004704Y000437D01*
X004919Y000437D01*
X005117Y000519D01*
X005269Y000671D01*
X005332Y000823D01*
X005354Y000771D01*
X005506Y000619D01*
X005704Y000537D01*
X005919Y000537D01*
X006117Y000619D01*
X006269Y000771D01*
X006291Y000823D01*
X006354Y000671D01*
X006506Y000519D01*
X006704Y000437D01*
X006919Y000437D01*
X007117Y000519D01*
X007269Y000671D01*
X007332Y000823D01*
X007354Y000771D01*
X007506Y000619D01*
X007704Y000537D01*
X007919Y000537D01*
X008117Y000619D01*
X008269Y000771D01*
X008291Y000823D01*
X008354Y000671D01*
X008506Y000519D01*
X008704Y000437D01*
X008919Y000437D01*
X009117Y000519D01*
X009269Y000671D01*
X009343Y000848D01*
X010910Y002416D01*
X011239Y002416D01*
X011339Y002515D01*
X011339Y002690D01*
X011855Y002690D01*
X011971Y002806D01*
X012178Y002806D01*
X012278Y002905D01*
X012278Y003324D01*
X012193Y003408D01*
X012270Y003484D01*
X012270Y003605D01*
X012961Y002913D01*
X013090Y002784D01*
X014923Y002784D01*
X014947Y002760D01*
X015053Y002716D01*
X015168Y002716D01*
X015274Y002760D01*
X015298Y002784D01*
X015898Y002784D01*
X015898Y000320D01*
X001852Y000320D01*
X002165Y000370D01*
X002562Y000572D01*
X002562Y000572D01*
X002878Y000887D01*
X002878Y000887D01*
X003080Y001284D01*
X003080Y001284D01*
X003150Y001725D01*
X003082Y002154D01*
X003521Y002154D01*
X003638Y002271D01*
X003638Y002607D01*
X003726Y002695D01*
X003928Y002695D01*
X003928Y002608D01*
X004045Y002491D01*
X004771Y002491D01*
X004888Y002608D01*
X004888Y003204D01*
X004858Y003234D01*
X004858Y003441D01*
X004759Y003541D01*
X004058Y003541D01*
X003958Y003441D01*
X003958Y003234D01*
X003928Y003204D01*
X003928Y003195D01*
X003726Y003195D01*
X003619Y003303D01*
X002981Y003303D01*
X002863Y003186D01*
X002863Y002705D01*
X002961Y002607D01*
X002961Y002399D01*
X002878Y002562D01*
X002878Y002562D01*
X002562Y002878D01*
X002165Y003080D01*
X001725Y003150D01*
X001725Y003150D01*
X001284Y003080D01*
X000887Y002878D01*
X000572Y002562D01*
X000370Y002165D01*
X000320Y001852D01*
X000320Y017016D01*
X000454Y016753D01*
X000769Y016438D01*
X000769Y016438D01*
X001166Y016236D01*
X001166Y016236D01*
X001607Y016166D01*
X002047Y016236D01*
X002444Y016438D01*
X002444Y016438D01*
X002760Y016753D01*
X002760Y016753D01*
X002962Y017151D01*
X003032Y017591D01*
X002962Y018031D01*
X002962Y018031D01*
X002760Y018429D01*
X002760Y018429D01*
X002760Y018429D01*
X002444Y018744D01*
X002182Y018878D01*
X015451Y018878D01*
X015451Y018545D01*
X015371Y018625D01*
X015161Y018712D01*
X014934Y018712D01*
X014725Y018625D01*
X014564Y018465D01*
X014531Y018385D01*
X014505Y018448D01*
X014354Y018600D01*
X014155Y018682D01*
X013940Y018682D01*
X013742Y018600D01*
X013590Y018448D01*
X013548Y018346D01*
X013505Y018448D01*
X013354Y018600D01*
X013155Y018682D01*
X012940Y018682D01*
X012742Y018600D01*
X012590Y018448D01*
X012548Y018346D01*
X012505Y018448D01*
X012354Y018600D01*
X012155Y018682D01*
X011940Y018682D01*
X011742Y018600D01*
X011590Y018448D01*
X011548Y018346D01*
X011505Y018448D01*
X011354Y018600D01*
X011155Y018682D01*
X010940Y018682D01*
X010742Y018600D01*
X010590Y018448D01*
X010508Y018250D01*
X010508Y018035D01*
X010590Y017836D01*
X010742Y017684D01*
X010796Y017662D01*
X010796Y015556D01*
X009277Y014037D01*
X009277Y012505D01*
X009172Y012505D01*
X009147Y012480D01*
X009147Y014618D01*
X009109Y014710D01*
X009106Y014713D01*
X009106Y015036D01*
X008998Y015143D01*
X008998Y015613D01*
X009043Y015658D01*
X009250Y015658D01*
X009367Y015775D01*
X009367Y016218D01*
X009250Y016335D01*
X008806Y016335D01*
X008689Y016218D01*
X008689Y016011D01*
X008536Y015859D01*
X008498Y015767D01*
X008498Y015143D01*
X008391Y015036D01*
X008391Y014622D01*
X008165Y014847D01*
X008165Y016397D01*
X008863Y017095D01*
X008992Y017224D01*
X008992Y017657D01*
X009058Y017684D01*
X009210Y017836D01*
X009292Y018035D01*
X009292Y018250D01*
X009210Y018448D01*
X009058Y018600D01*
X008860Y018682D01*
X008645Y018682D01*
X008446Y018600D01*
X008295Y018448D01*
X008252Y018346D01*
X008210Y018448D01*
X008058Y018600D01*
X007860Y018682D01*
X007645Y018682D01*
X007446Y018600D01*
X007295Y018448D01*
X007252Y018346D01*
X007210Y018448D01*
X007058Y018600D01*
X006860Y018682D01*
X006645Y018682D01*
X006446Y018600D01*
X006295Y018448D01*
X006252Y018346D01*
X006210Y018448D01*
X006058Y018600D01*
X005860Y018682D01*
X005645Y018682D01*
X005446Y018600D01*
X005295Y018448D01*
X005252Y018346D01*
X005210Y018448D01*
X005058Y018600D01*
X004860Y018682D01*
X004645Y018682D01*
X004446Y018600D01*
X004295Y018448D01*
X004252Y018346D01*
X004210Y018448D01*
X004058Y018600D01*
X003860Y018682D01*
X003645Y018682D01*
X003446Y018600D01*
X003295Y018448D01*
X003212Y018250D01*
X003212Y018035D01*
X003295Y017836D01*
X003446Y017684D01*
X003513Y017657D01*
X003513Y016358D01*
X003642Y016229D01*
X007492Y012379D01*
X007492Y011685D01*
X007592Y011585D01*
X008729Y011585D01*
X008759Y011555D01*
X009035Y011555D01*
X009118Y011638D01*
X009172Y011585D01*
X009532Y011585D01*
X009448Y011501D01*
X009448Y011083D01*
X009547Y010983D01*
X009965Y010983D01*
X010054Y011072D01*
X010571Y011072D01*
X010632Y011010D01*
X010374Y011010D01*
X010274Y010910D01*
X010274Y010492D01*
X010374Y010392D01*
X010792Y010392D01*
X010892Y010492D01*
X010892Y010505D01*
X010947Y010505D01*
X010947Y010303D01*
X010917Y010273D01*
X010917Y009997D01*
X011001Y009914D01*
X010947Y009860D01*
X010947Y009755D01*
X010364Y009755D01*
X009667Y010452D01*
X009667Y010658D01*
X009568Y010758D01*
X009150Y010758D01*
X009050Y010658D01*
X009050Y010240D01*
X009107Y010183D01*
X009075Y010183D01*
X008975Y010084D01*
X008975Y009665D01*
X009075Y009566D01*
X009276Y009566D01*
X009276Y008857D01*
X008845Y009289D01*
X008845Y010647D01*
X008934Y010736D01*
X008934Y011179D01*
X008816Y011296D01*
X008930Y011182D02*
X009448Y011182D01*
X009448Y011084D02*
X008934Y011084D01*
X008934Y010985D02*
X009545Y010985D01*
X009636Y010690D02*
X010274Y010690D01*
X010274Y010788D02*
X008934Y010788D01*
X008934Y010887D02*
X010274Y010887D01*
X010349Y010985D02*
X009967Y010985D01*
X009667Y010591D02*
X010274Y010591D01*
X010274Y010493D02*
X009667Y010493D01*
X009725Y010394D02*
X010372Y010394D01*
X010794Y010394D02*
X010947Y010394D01*
X010947Y010493D02*
X010892Y010493D01*
X010940Y010296D02*
X009823Y010296D01*
X009922Y010197D02*
X010917Y010197D01*
X010917Y010099D02*
X010020Y010099D01*
X010119Y010000D02*
X010917Y010000D01*
X010988Y009902D02*
X010217Y009902D01*
X010316Y009803D02*
X010947Y009803D01*
X010605Y009935D02*
X010493Y010048D01*
X010605Y009935D02*
X011407Y009935D01*
X012640Y009935D01*
X013040Y010335D01*
X013261Y010296D02*
X012661Y010296D01*
X012759Y010394D02*
X013261Y010394D01*
X013261Y010493D02*
X012858Y010493D01*
X012835Y010470D02*
X012320Y009955D01*
X013038Y009955D01*
X013261Y010178D01*
X013261Y010686D01*
X013036Y010686D01*
X012916Y010567D01*
X012905Y010540D01*
X012835Y010470D01*
X012941Y010591D02*
X013261Y010591D01*
X013737Y010528D02*
X013941Y010733D01*
X014220Y010733D01*
X014820Y010733D02*
X014820Y009827D01*
X014820Y008922D01*
X014820Y008032D01*
X014835Y008017D01*
X014835Y007512D01*
X014457Y007134D01*
X013969Y007134D01*
X013611Y007144D02*
X012483Y007144D01*
X012385Y007242D02*
X013611Y007242D01*
X013611Y007341D02*
X010902Y007341D01*
X010902Y007265D02*
X010902Y007985D01*
X010820Y008068D01*
X010822Y008070D01*
X011028Y008070D01*
X011089Y008130D01*
X011347Y008130D01*
X011662Y007815D01*
X011791Y007686D01*
X013820Y007686D01*
X013820Y007646D01*
X013896Y007570D01*
X013729Y007570D01*
X013611Y007453D01*
X013611Y006815D01*
X013729Y006698D01*
X014209Y006698D01*
X014326Y006815D01*
X014326Y006884D01*
X014507Y006884D01*
X014599Y006922D01*
X014977Y007300D01*
X015047Y007371D01*
X015085Y007462D01*
X015085Y007517D01*
X015133Y007517D01*
X015250Y007634D01*
X015250Y008430D01*
X015203Y008477D01*
X015250Y008524D01*
X015250Y009319D01*
X015195Y009374D01*
X015250Y009429D01*
X015250Y010225D01*
X015195Y010280D01*
X015250Y010335D01*
X015250Y011131D01*
X015191Y011189D01*
X015250Y011248D01*
X015250Y011723D01*
X015346Y011819D01*
X015384Y011911D01*
X015384Y012641D01*
X015346Y012733D01*
X015276Y012803D01*
X015276Y012803D01*
X015253Y012826D01*
X015253Y013261D01*
X015135Y013379D01*
X014913Y013379D01*
X015134Y013600D01*
X015134Y013599D01*
X015226Y013561D01*
X015898Y013561D01*
X015898Y004290D01*
X015813Y004290D01*
X015813Y004611D01*
X015713Y004711D01*
X015295Y004711D01*
X015285Y004701D01*
X013627Y004701D01*
X012249Y006079D01*
X010659Y006079D01*
X010659Y006820D01*
X012185Y006820D01*
X012686Y006319D01*
X012815Y006190D01*
X015399Y006190D01*
X015428Y006219D01*
X015635Y006219D01*
X015734Y006319D01*
X015734Y006737D01*
X015635Y006837D01*
X015216Y006837D01*
X015117Y006737D01*
X015117Y006630D01*
X012997Y006630D01*
X012367Y007260D01*
X010897Y007260D01*
X010902Y007265D01*
X010902Y007439D02*
X013611Y007439D01*
X013696Y007538D02*
X010902Y007538D01*
X010902Y007636D02*
X013831Y007636D01*
X014094Y007906D02*
X014220Y008032D01*
X014094Y007906D02*
X011882Y007906D01*
X011433Y008355D01*
X011407Y008355D01*
X011407Y008555D02*
X011863Y008555D01*
X012158Y008260D01*
X011662Y007815D02*
X011662Y007815D01*
X011644Y007833D02*
X010902Y007833D01*
X010902Y007735D02*
X011743Y007735D01*
X011546Y007932D02*
X010902Y007932D01*
X010858Y008030D02*
X011447Y008030D01*
X011349Y008129D02*
X011087Y008129D01*
X010819Y008378D02*
X010477Y008036D01*
X010477Y007625D01*
X010277Y007625D02*
X010268Y007634D01*
X010268Y008300D01*
X009887Y008667D02*
X010111Y008890D01*
X009887Y008667D02*
X009887Y007625D01*
X009687Y007625D02*
X009687Y009175D01*
X009874Y009363D01*
X010273Y009535D02*
X009359Y010449D01*
X009050Y010493D02*
X008845Y010493D01*
X008845Y010591D02*
X009050Y010591D01*
X009081Y010690D02*
X008888Y010690D01*
X008595Y010957D02*
X008595Y009185D01*
X009297Y008483D01*
X009297Y007625D01*
X009097Y007625D02*
X009097Y007108D01*
X009717Y006489D01*
X010138Y006489D01*
X010174Y006453D01*
X010659Y006454D02*
X012551Y006454D01*
X012649Y006356D02*
X010659Y006356D01*
X010659Y006257D02*
X012748Y006257D01*
X012906Y006410D02*
X015307Y006410D01*
X015426Y006528D01*
X015734Y006553D02*
X015898Y006553D01*
X015898Y006651D02*
X015734Y006651D01*
X015722Y006750D02*
X015898Y006750D01*
X015898Y006848D02*
X014326Y006848D01*
X014261Y006750D02*
X015129Y006750D01*
X015117Y006651D02*
X012976Y006651D01*
X012877Y006750D02*
X013677Y006750D01*
X013611Y006848D02*
X012779Y006848D01*
X012680Y006947D02*
X013611Y006947D01*
X013611Y007045D02*
X012582Y007045D01*
X012276Y007040D02*
X012906Y006410D01*
X012452Y006553D02*
X010659Y006553D01*
X010659Y006651D02*
X012354Y006651D01*
X012255Y006750D02*
X010659Y006750D01*
X010189Y007040D02*
X010087Y007142D01*
X010087Y007625D01*
X009497Y007625D02*
X009497Y008409D01*
X009496Y008410D01*
X009496Y009662D01*
X009284Y009874D01*
X008975Y009902D02*
X008845Y009902D01*
X008845Y010000D02*
X008975Y010000D01*
X008990Y010099D02*
X008845Y010099D01*
X008845Y010197D02*
X009093Y010197D01*
X009050Y010296D02*
X008845Y010296D01*
X008845Y010394D02*
X009050Y010394D01*
X008345Y010394D02*
X007477Y010394D01*
X007477Y010296D02*
X008345Y010296D01*
X008345Y010197D02*
X007477Y010197D01*
X007447Y010099D02*
X008345Y010099D01*
X008345Y010000D02*
X007447Y010000D01*
X007447Y009902D02*
X008345Y009902D01*
X008345Y009803D02*
X007441Y009803D01*
X007403Y009705D02*
X008345Y009705D01*
X008345Y009606D02*
X007447Y009606D01*
X007447Y009508D02*
X008345Y009508D01*
X008345Y009409D02*
X007447Y009409D01*
X007447Y009311D02*
X008345Y009311D01*
X008345Y009212D02*
X007447Y009212D01*
X007447Y009114D02*
X008354Y009114D01*
X008412Y009015D02*
X007447Y009015D01*
X007447Y008917D02*
X008510Y008917D01*
X008453Y008973D02*
X008453Y008973D01*
X008609Y008818D02*
X007447Y008818D01*
X007447Y008720D02*
X008707Y008720D01*
X008497Y008621D02*
X007447Y008621D01*
X007447Y008523D02*
X008424Y008523D01*
X008424Y008424D02*
X007447Y008424D01*
X007447Y008326D02*
X008424Y008326D01*
X008424Y008227D02*
X007445Y008227D01*
X007537Y008030D02*
X005345Y008030D01*
X005247Y007932D02*
X007492Y007932D01*
X007492Y007833D02*
X003951Y007833D01*
X003853Y007735D02*
X007492Y007735D01*
X007492Y007636D02*
X004485Y007636D01*
X004565Y007538D02*
X006902Y007538D01*
X006889Y007439D02*
X004565Y007439D01*
X004256Y007347D02*
X004256Y006216D01*
X004254Y006214D01*
X003974Y006257D02*
X003830Y006257D01*
X003830Y006159D02*
X003974Y006159D01*
X003974Y006060D02*
X003744Y006060D01*
X003657Y005962D02*
X003974Y005962D01*
X003974Y005863D02*
X003725Y005863D01*
X003765Y005765D02*
X003974Y005765D01*
X003437Y005890D02*
X003437Y005516D01*
X003496Y005457D01*
X005044Y005457D01*
X005252Y005248D01*
X005252Y004276D01*
X005254Y004274D01*
X004754Y004274D02*
X004754Y004774D01*
X004579Y004949D01*
X003631Y004949D01*
X003328Y004646D01*
X003331Y004643D01*
X003331Y004244D01*
X003174Y004087D01*
X002512Y004087D01*
X002355Y003930D01*
X001084Y003930D01*
X000596Y003696D02*
X000320Y003696D01*
X000320Y003598D02*
X000653Y003598D01*
X000751Y003499D02*
X000320Y003499D01*
X000320Y003401D02*
X000950Y003401D01*
X001218Y003401D02*
X003958Y003401D01*
X003958Y003302D02*
X003619Y003302D01*
X003718Y003204D02*
X003928Y003204D01*
X004317Y002945D02*
X003300Y002945D01*
X003300Y002493D01*
X003638Y002514D02*
X004022Y002514D01*
X003928Y002613D02*
X003643Y002613D01*
X003638Y002416D02*
X006437Y002416D01*
X006437Y002514D02*
X004794Y002514D01*
X004888Y002613D02*
X005686Y002613D01*
X005678Y002711D02*
X004888Y002711D01*
X004888Y002810D02*
X005678Y002810D01*
X005678Y002908D02*
X004888Y002908D01*
X004888Y003007D02*
X005094Y003007D01*
X005093Y003105D02*
X004888Y003105D01*
X004888Y003204D02*
X005093Y003204D01*
X005093Y003302D02*
X004858Y003302D01*
X004858Y003401D02*
X005093Y003401D01*
X005166Y003499D02*
X004800Y003499D01*
X005402Y003217D02*
X005579Y003217D01*
X005662Y003300D01*
X006114Y003300D01*
X006128Y003286D01*
X006128Y003805D01*
X006284Y003961D01*
X006611Y003992D02*
X007237Y003992D01*
X007237Y004090D02*
X006611Y004090D01*
X006611Y004189D02*
X007237Y004189D01*
X007190Y004287D02*
X006592Y004287D01*
X006895Y004583D02*
X006034Y004583D01*
X006034Y004681D02*
X006796Y004681D01*
X006789Y004688D02*
X006583Y004688D01*
X006483Y004787D01*
X006483Y005206D01*
X006583Y005305D01*
X007001Y005305D01*
X007100Y005206D01*
X007100Y004999D01*
X007544Y004555D01*
X007544Y004559D01*
X007391Y004712D01*
X007391Y004718D01*
X007302Y004807D01*
X007302Y005225D01*
X007401Y005325D01*
X007820Y005325D01*
X007867Y005278D01*
X007921Y005333D01*
X008339Y005333D01*
X008439Y005233D01*
X008439Y004815D01*
X008358Y004734D01*
X008358Y004436D01*
X009019Y004436D01*
X009119Y004336D01*
X009119Y003795D01*
X009019Y003696D01*
X008218Y003696D01*
X008057Y003795D02*
X007984Y003795D01*
X008138Y004024D02*
X008138Y005024D01*
X008130Y005024D01*
X008439Y004977D02*
X008792Y004977D01*
X008693Y005075D02*
X008439Y005075D01*
X008439Y005174D02*
X008595Y005174D01*
X008496Y005272D02*
X008400Y005272D01*
X008398Y005371D02*
X005441Y005371D01*
X005472Y005272D02*
X006549Y005272D01*
X006483Y005174D02*
X005472Y005174D01*
X005472Y005075D02*
X006483Y005075D01*
X006483Y004977D02*
X005472Y004977D01*
X005472Y004878D02*
X006483Y004878D01*
X006491Y004780D02*
X005990Y004780D01*
X006034Y004484D02*
X006993Y004484D01*
X007092Y004386D02*
X006034Y004386D01*
X005519Y004780D02*
X005490Y004780D01*
X005343Y005469D02*
X008299Y005469D01*
X008201Y005568D02*
X005244Y005568D01*
X005146Y005666D02*
X005562Y005666D01*
X005574Y005654D02*
X005474Y005754D01*
X005474Y006675D01*
X005533Y006733D01*
X005471Y006795D01*
X005471Y007213D01*
X005571Y007313D01*
X005989Y007313D01*
X006089Y007213D01*
X006089Y006795D01*
X006001Y006708D01*
X006034Y006675D01*
X006034Y005754D01*
X005935Y005654D01*
X005574Y005654D01*
X005474Y005765D02*
X005064Y005765D01*
X005064Y005863D02*
X005474Y005863D01*
X005474Y005962D02*
X005064Y005962D01*
X005064Y006060D02*
X005474Y006060D01*
X005474Y006159D02*
X005064Y006159D01*
X005064Y006257D02*
X005474Y006257D01*
X005474Y006356D02*
X005064Y006356D01*
X005064Y006454D02*
X005474Y006454D01*
X005474Y006553D02*
X005064Y006553D01*
X005064Y006651D02*
X005474Y006651D01*
X005517Y006750D02*
X005019Y006750D01*
X005087Y006848D02*
X005471Y006848D01*
X005471Y006947D02*
X005087Y006947D01*
X005087Y007045D02*
X005471Y007045D01*
X005471Y007144D02*
X005087Y007144D01*
X005087Y007242D02*
X005500Y007242D01*
X005780Y007004D02*
X005780Y006240D01*
X005754Y006214D01*
X005752Y006216D01*
X006034Y006257D02*
X007511Y006257D01*
X007497Y006356D02*
X006034Y006356D01*
X006034Y006454D02*
X007497Y006454D01*
X007497Y006553D02*
X006034Y006553D01*
X006034Y006651D02*
X007497Y006651D01*
X007497Y006750D02*
X006043Y006750D01*
X006089Y006848D02*
X007497Y006848D01*
X007497Y006947D02*
X006089Y006947D01*
X006089Y007045D02*
X006950Y007045D01*
X006889Y007144D02*
X006089Y007144D01*
X006060Y007242D02*
X006889Y007242D01*
X006889Y007341D02*
X005008Y007341D01*
X004036Y007045D02*
X003780Y007045D01*
X003780Y006947D02*
X004036Y006947D01*
X004036Y006848D02*
X003780Y006848D01*
X003830Y006750D02*
X004036Y006750D01*
X003974Y006651D02*
X003830Y006651D01*
X003830Y006553D02*
X003974Y006553D01*
X003974Y006454D02*
X003830Y006454D01*
X003830Y006356D02*
X003974Y006356D01*
X003473Y006465D02*
X003473Y006977D01*
X003441Y007008D01*
X003103Y007045D02*
X000320Y007045D01*
X000320Y006947D02*
X003103Y006947D01*
X003103Y006848D02*
X000320Y006848D01*
X000320Y006750D02*
X003115Y006750D01*
X003115Y006651D02*
X000320Y006651D01*
X000320Y006553D02*
X003115Y006553D01*
X003115Y006454D02*
X000320Y006454D01*
X000320Y006356D02*
X003115Y006356D01*
X003115Y006257D02*
X000320Y006257D01*
X000320Y006159D02*
X002229Y006159D01*
X002131Y006060D02*
X000320Y006060D01*
X000320Y005962D02*
X002032Y005962D01*
X002027Y005957D02*
X002027Y005957D01*
X001934Y005863D02*
X000320Y005863D01*
X000320Y005765D02*
X001899Y005765D01*
X001899Y005666D02*
X000320Y005666D01*
X000320Y005568D02*
X001899Y005568D01*
X001899Y005469D02*
X001293Y005469D01*
X001076Y005469D02*
X000320Y005469D01*
X000320Y005371D02*
X000862Y005371D01*
X000763Y005272D02*
X000320Y005272D01*
X000320Y005174D02*
X000701Y005174D01*
X000660Y005075D02*
X000320Y005075D01*
X000320Y004977D02*
X000644Y004977D01*
X000644Y004878D02*
X000320Y004878D01*
X000320Y004780D02*
X000662Y004780D01*
X000703Y004681D02*
X000320Y004681D01*
X000320Y004583D02*
X000768Y004583D01*
X000866Y004484D02*
X000320Y004484D01*
X000320Y004386D02*
X000777Y004386D01*
X000678Y004287D02*
X000320Y004287D01*
X000320Y004189D02*
X000607Y004189D01*
X000566Y004090D02*
X000320Y004090D01*
X000320Y003992D02*
X000544Y003992D01*
X000544Y003893D02*
X000320Y003893D01*
X000320Y003795D02*
X000556Y003795D01*
X000320Y003302D02*
X002980Y003302D01*
X002881Y003204D02*
X000320Y003204D01*
X000320Y003105D02*
X001442Y003105D01*
X001284Y003080D02*
X001284Y003080D01*
X001140Y003007D02*
X000320Y003007D01*
X000320Y002908D02*
X000947Y002908D01*
X000887Y002878D02*
X000887Y002878D01*
X000819Y002810D02*
X000320Y002810D01*
X000320Y002711D02*
X000721Y002711D01*
X000622Y002613D02*
X000320Y002613D01*
X000320Y002514D02*
X000547Y002514D01*
X000572Y002562D02*
X000572Y002562D01*
X000497Y002416D02*
X000320Y002416D01*
X000320Y002317D02*
X000447Y002317D01*
X000397Y002219D02*
X000320Y002219D01*
X000370Y002165D02*
X000370Y002165D01*
X000362Y002120D02*
X000320Y002120D01*
X000320Y002022D02*
X000347Y002022D01*
X000331Y001923D02*
X000320Y001923D01*
X002165Y003080D02*
X002165Y003080D01*
X002008Y003105D02*
X002863Y003105D01*
X002863Y003007D02*
X002310Y003007D01*
X002503Y002908D02*
X002863Y002908D01*
X002863Y002810D02*
X002631Y002810D01*
X002562Y002878D02*
X002562Y002878D01*
X002729Y002711D02*
X002863Y002711D01*
X002828Y002613D02*
X002956Y002613D01*
X002961Y002514D02*
X002902Y002514D01*
X002952Y002416D02*
X002961Y002416D01*
X003586Y002219D02*
X004270Y002219D01*
X004225Y002343D02*
X003910Y002343D01*
X003638Y002317D02*
X004368Y002317D01*
X004225Y002343D02*
X004408Y002526D01*
X004408Y002776D02*
X004408Y003036D01*
X004317Y002945D01*
X004016Y003499D02*
X001417Y003499D01*
X001516Y003598D02*
X005908Y003598D01*
X005908Y003696D02*
X001572Y003696D01*
X002531Y003795D02*
X003994Y003795D01*
X003974Y003893D02*
X003291Y003893D01*
X003389Y003992D02*
X003974Y003992D01*
X003974Y004090D02*
X003488Y004090D01*
X003656Y004189D02*
X003974Y004189D01*
X003974Y004287D02*
X003728Y004287D01*
X003728Y004386D02*
X003974Y004386D01*
X003974Y004484D02*
X003728Y004484D01*
X003728Y004583D02*
X003974Y004583D01*
X003974Y004681D02*
X003728Y004681D01*
X003328Y004646D02*
X003300Y004618D01*
X002729Y004647D02*
X002728Y004646D01*
X002729Y004647D02*
X002729Y005516D01*
X002343Y005961D02*
X002119Y005737D01*
X002119Y005268D01*
X001780Y004930D01*
X001184Y004930D01*
X001668Y005174D02*
X001713Y005174D01*
X001811Y005272D02*
X001605Y005272D01*
X001507Y005371D02*
X001899Y005371D01*
X002343Y005961D02*
X003367Y005961D01*
X003437Y005890D01*
X002123Y006052D02*
X002123Y006052D01*
X003103Y007144D02*
X000320Y007144D01*
X000320Y007242D02*
X000791Y007242D01*
X000778Y007247D02*
X000977Y007165D01*
X001192Y007165D01*
X001390Y007247D01*
X001542Y007399D01*
X001624Y007598D01*
X001624Y007813D01*
X001542Y008011D01*
X001390Y008163D01*
X001338Y008184D01*
X001490Y008247D01*
X001642Y008399D01*
X001724Y008598D01*
X001724Y008813D01*
X001642Y009011D01*
X001490Y009163D01*
X001338Y009226D01*
X001390Y009247D01*
X001542Y009399D01*
X001624Y009598D01*
X001624Y009813D01*
X001542Y010011D01*
X001390Y010163D01*
X001192Y010245D01*
X000977Y010245D01*
X000778Y010163D01*
X000626Y010011D01*
X000544Y009813D01*
X000544Y009598D01*
X000626Y009399D01*
X000778Y009247D01*
X000930Y009184D01*
X000878Y009163D01*
X000726Y009011D01*
X000644Y008813D01*
X000644Y008598D01*
X000726Y008399D01*
X000878Y008247D01*
X000930Y008226D01*
X000778Y008163D01*
X000626Y008011D01*
X000544Y007813D01*
X000544Y007598D01*
X000626Y007399D01*
X000778Y007247D01*
X000685Y007341D02*
X000320Y007341D01*
X000320Y007439D02*
X000610Y007439D01*
X000569Y007538D02*
X000320Y007538D01*
X000320Y007636D02*
X000544Y007636D01*
X000544Y007735D02*
X000320Y007735D01*
X000320Y007833D02*
X000553Y007833D01*
X000594Y007932D02*
X000320Y007932D01*
X000320Y008030D02*
X000645Y008030D01*
X000744Y008129D02*
X000320Y008129D01*
X000320Y008227D02*
X000927Y008227D01*
X000800Y008326D02*
X000320Y008326D01*
X000320Y008424D02*
X000716Y008424D01*
X000675Y008523D02*
X000320Y008523D01*
X000320Y008621D02*
X000644Y008621D01*
X000644Y008720D02*
X000320Y008720D01*
X000320Y008818D02*
X000647Y008818D01*
X000687Y008917D02*
X000320Y008917D01*
X000320Y009015D02*
X000730Y009015D01*
X000829Y009114D02*
X000320Y009114D01*
X000320Y009212D02*
X000864Y009212D01*
X000715Y009311D02*
X000320Y009311D01*
X000320Y009409D02*
X000622Y009409D01*
X000582Y009508D02*
X000320Y009508D01*
X000320Y009606D02*
X000544Y009606D01*
X000544Y009705D02*
X000320Y009705D01*
X000320Y009803D02*
X000544Y009803D01*
X000581Y009902D02*
X000320Y009902D01*
X000320Y010000D02*
X000622Y010000D01*
X000714Y010099D02*
X000320Y010099D01*
X000320Y010197D02*
X000861Y010197D01*
X001308Y010197D02*
X003415Y010197D01*
X003534Y010099D02*
X001455Y010099D01*
X001547Y010000D02*
X005463Y010000D01*
X005463Y009902D02*
X003493Y009902D01*
X003568Y009803D02*
X005017Y009803D01*
X004999Y009705D02*
X003568Y009705D01*
X003663Y009606D02*
X004999Y009606D01*
X004999Y009508D02*
X003761Y009508D01*
X003860Y009409D02*
X004999Y009409D01*
X005054Y009311D02*
X004734Y009311D01*
X004188Y009311D02*
X004183Y009311D01*
X003910Y009048D02*
X003437Y009520D01*
X003241Y009520D01*
X002913Y009508D02*
X001587Y009508D01*
X001624Y009606D02*
X002913Y009606D01*
X002913Y009705D02*
X001624Y009705D01*
X001624Y009803D02*
X002913Y009803D01*
X002988Y009902D02*
X001587Y009902D01*
X001546Y009409D02*
X002913Y009409D01*
X002913Y009311D02*
X001453Y009311D01*
X001372Y009212D02*
X002914Y009212D01*
X002913Y009114D02*
X001540Y009114D01*
X001638Y009015D02*
X002913Y009015D01*
X002913Y008917D02*
X001681Y008917D01*
X001722Y008818D02*
X002913Y008818D01*
X002913Y008720D02*
X001724Y008720D01*
X001724Y008621D02*
X002913Y008621D01*
X002913Y008523D02*
X001693Y008523D01*
X001652Y008424D02*
X002913Y008424D01*
X002913Y008326D02*
X001568Y008326D01*
X001441Y008227D02*
X002913Y008227D01*
X002913Y008129D02*
X001425Y008129D01*
X001523Y008030D02*
X002913Y008030D01*
X002913Y007932D02*
X001575Y007932D01*
X001616Y007833D02*
X002913Y007833D01*
X002913Y007735D02*
X001624Y007735D01*
X001624Y007636D02*
X002913Y007636D01*
X002913Y007538D02*
X001599Y007538D01*
X001559Y007439D02*
X002913Y007439D01*
X002963Y007341D02*
X001483Y007341D01*
X001377Y007242D02*
X003115Y007242D01*
X003568Y007439D02*
X003948Y007439D01*
X003948Y007341D02*
X003669Y007341D01*
X003768Y007242D02*
X003948Y007242D01*
X003948Y007144D02*
X003780Y007144D01*
X003656Y007538D02*
X003948Y007538D01*
X004028Y007636D02*
X003754Y007636D01*
X003504Y007697D02*
X003910Y008103D01*
X003910Y008418D02*
X003370Y008418D01*
X003241Y008288D01*
X003386Y008733D02*
X003241Y008878D01*
X003386Y008733D02*
X003910Y008733D01*
X004461Y008733D02*
X004483Y008755D01*
X006987Y008755D01*
X006987Y008945D02*
X005174Y008945D01*
X005071Y009048D01*
X004461Y009048D01*
X005067Y008418D02*
X005205Y008555D01*
X006987Y008555D01*
X006987Y008355D02*
X005359Y008355D01*
X005107Y008103D01*
X004461Y008103D01*
X004461Y008418D02*
X005067Y008418D01*
X005444Y008129D02*
X008425Y008129D01*
X008707Y008314D02*
X008733Y008339D01*
X008707Y008314D02*
X008707Y007625D01*
X008507Y007625D02*
X008507Y006990D01*
X009638Y005859D01*
X012158Y005859D01*
X013536Y004481D01*
X015406Y004481D01*
X015504Y004382D01*
X015504Y004402D01*
X015813Y004386D02*
X015898Y004386D01*
X015898Y004484D02*
X015813Y004484D01*
X015813Y004583D02*
X015898Y004583D01*
X015898Y004681D02*
X015743Y004681D01*
X015898Y004780D02*
X013548Y004780D01*
X013644Y004878D02*
X013450Y004878D01*
X013351Y004977D02*
X013581Y004977D01*
X013581Y004941D02*
X013681Y004841D01*
X014099Y004841D01*
X014199Y004941D01*
X014199Y005038D01*
X014532Y005038D01*
X014632Y005138D01*
X014632Y005556D01*
X014532Y005656D01*
X014114Y005656D01*
X014014Y005556D01*
X014014Y005459D01*
X013681Y005459D01*
X013581Y005359D01*
X013581Y004941D01*
X013581Y005075D02*
X013253Y005075D01*
X013154Y005174D02*
X013581Y005174D01*
X013581Y005272D02*
X013056Y005272D01*
X012957Y005371D02*
X013593Y005371D01*
X014014Y005469D02*
X012859Y005469D01*
X012760Y005568D02*
X014026Y005568D01*
X014620Y005568D02*
X015898Y005568D01*
X015898Y005666D02*
X012662Y005666D01*
X012563Y005765D02*
X015898Y005765D01*
X015898Y005863D02*
X012465Y005863D01*
X012366Y005962D02*
X015898Y005962D01*
X015898Y006060D02*
X012268Y006060D01*
X010659Y006159D02*
X015898Y006159D01*
X015898Y006257D02*
X015673Y006257D01*
X015734Y006356D02*
X015898Y006356D01*
X015898Y006454D02*
X015734Y006454D01*
X016158Y006454D02*
X016428Y006454D01*
X016428Y006356D02*
X016158Y006356D01*
X016158Y006257D02*
X016428Y006257D01*
X016428Y006159D02*
X016158Y006159D01*
X016158Y006060D02*
X016514Y006060D01*
X016464Y005962D02*
X016158Y005962D01*
X016158Y005863D02*
X016428Y005863D01*
X016428Y005765D02*
X016158Y005765D01*
X016158Y005666D02*
X016428Y005666D01*
X016428Y005568D02*
X016158Y005568D01*
X016158Y005469D02*
X016428Y005469D01*
X016495Y005371D02*
X016158Y005371D01*
X016158Y005272D02*
X017251Y005272D01*
X017251Y005174D02*
X016158Y005174D01*
X016158Y005075D02*
X017181Y005075D01*
X017077Y004977D02*
X016158Y004977D01*
X016158Y004878D02*
X016972Y004878D01*
X016467Y004780D02*
X016158Y004780D01*
X016158Y004681D02*
X016428Y004681D01*
X016428Y004583D02*
X016158Y004583D01*
X016158Y004484D02*
X016428Y004484D01*
X016428Y004386D02*
X016158Y004386D01*
X016874Y004496D02*
X016989Y004536D01*
X017697Y005205D01*
X017752Y005189D01*
X017985Y005189D01*
X018378Y005583D01*
X018536Y005583D01*
X019229Y006276D01*
X019229Y006839D01*
X019419Y006839D02*
X019419Y006155D01*
X019079Y005815D01*
X019079Y005650D01*
X018697Y006032D02*
X019029Y006363D01*
X019029Y006839D01*
X018829Y006839D02*
X017741Y006839D01*
X017701Y006878D01*
X018024Y006511D02*
X018092Y006579D01*
X018559Y006579D01*
X018559Y006502D01*
X018679Y006381D01*
X018590Y006292D01*
X017321Y006292D01*
X017321Y006568D01*
X017378Y006511D01*
X018024Y006511D01*
X018066Y006553D02*
X018559Y006553D01*
X018607Y006454D02*
X017321Y006454D01*
X017321Y006356D02*
X018653Y006356D01*
X018697Y006032D02*
X016993Y006032D01*
X016878Y006138D01*
X016878Y006386D01*
X016874Y006390D01*
X016764Y006500D01*
X016764Y006764D01*
X016839Y006839D01*
X016870Y006878D01*
X016424Y006848D02*
X016158Y006848D01*
X016158Y006750D02*
X016424Y006750D01*
X016424Y006651D02*
X016158Y006651D01*
X016158Y006553D02*
X016428Y006553D01*
X016424Y006947D02*
X016158Y006947D01*
X016158Y007045D02*
X016424Y007045D01*
X016445Y007144D02*
X016158Y007144D01*
X016158Y007242D02*
X016543Y007242D01*
X016158Y007341D02*
X027315Y007341D01*
X027315Y007439D02*
X016158Y007439D01*
X015898Y007439D02*
X015075Y007439D01*
X015017Y007341D02*
X015898Y007341D01*
X015898Y007242D02*
X014918Y007242D01*
X014820Y007144D02*
X015898Y007144D01*
X015898Y007045D02*
X014721Y007045D01*
X014623Y006947D02*
X015898Y006947D01*
X017197Y007242D02*
X017374Y007242D01*
X017701Y007587D02*
X016870Y007587D01*
X015898Y007636D02*
X015250Y007636D01*
X015250Y007735D02*
X015898Y007735D01*
X015898Y007833D02*
X015250Y007833D01*
X015250Y007932D02*
X015898Y007932D01*
X015898Y008030D02*
X015250Y008030D01*
X015250Y008129D02*
X015898Y008129D01*
X015898Y008227D02*
X015250Y008227D01*
X015250Y008326D02*
X015898Y008326D01*
X015898Y008424D02*
X015250Y008424D01*
X015249Y008523D02*
X015898Y008523D01*
X015898Y008621D02*
X015250Y008621D01*
X015250Y008720D02*
X015898Y008720D01*
X015898Y008818D02*
X015250Y008818D01*
X015250Y008917D02*
X015898Y008917D01*
X015898Y009015D02*
X015250Y009015D01*
X015250Y009114D02*
X015898Y009114D01*
X015898Y009212D02*
X015250Y009212D01*
X015250Y009311D02*
X015898Y009311D01*
X015898Y009409D02*
X015230Y009409D01*
X015250Y009508D02*
X015898Y009508D01*
X015898Y009606D02*
X015250Y009606D01*
X015250Y009705D02*
X015898Y009705D01*
X015898Y009803D02*
X015250Y009803D01*
X015250Y009902D02*
X015898Y009902D01*
X015898Y010000D02*
X015250Y010000D01*
X015250Y010099D02*
X015898Y010099D01*
X015898Y010197D02*
X015250Y010197D01*
X015211Y010296D02*
X015898Y010296D01*
X015898Y010394D02*
X015250Y010394D01*
X015250Y010493D02*
X015898Y010493D01*
X015898Y010591D02*
X015250Y010591D01*
X015250Y010690D02*
X015898Y010690D01*
X015898Y010788D02*
X015250Y010788D01*
X015250Y010887D02*
X015898Y010887D01*
X015898Y010985D02*
X015250Y010985D01*
X015250Y011084D02*
X015898Y011084D01*
X015898Y011182D02*
X015199Y011182D01*
X015250Y011281D02*
X015898Y011281D01*
X015898Y011379D02*
X015250Y011379D01*
X015250Y011478D02*
X015898Y011478D01*
X015898Y011576D02*
X015250Y011576D01*
X015250Y011675D02*
X015898Y011675D01*
X015898Y011773D02*
X015301Y011773D01*
X015368Y011872D02*
X015898Y011872D01*
X015898Y011970D02*
X015384Y011970D01*
X015384Y012069D02*
X015898Y012069D01*
X015898Y012167D02*
X015384Y012167D01*
X015384Y012266D02*
X015898Y012266D01*
X015898Y012364D02*
X015384Y012364D01*
X015384Y012463D02*
X015898Y012463D01*
X015898Y012561D02*
X015384Y012561D01*
X015376Y012660D02*
X015898Y012660D01*
X015898Y012758D02*
X015321Y012758D01*
X015253Y012857D02*
X015898Y012857D01*
X015898Y012955D02*
X015253Y012955D01*
X015253Y013054D02*
X015898Y013054D01*
X015898Y013152D02*
X015253Y013152D01*
X015253Y013251D02*
X015898Y013251D01*
X015898Y013349D02*
X015165Y013349D01*
X014982Y013448D02*
X015898Y013448D01*
X015898Y013546D02*
X015081Y013546D01*
X015276Y013811D02*
X016489Y013811D01*
X016837Y013842D02*
X017607Y013842D01*
X017607Y013940D02*
X016837Y013940D01*
X016836Y014039D02*
X017607Y014039D01*
X017607Y014137D02*
X016737Y014137D01*
X016240Y014137D02*
X016158Y014137D01*
X016158Y014236D02*
X017607Y014236D01*
X017607Y014334D02*
X016158Y014334D01*
X016158Y014433D02*
X017607Y014433D01*
X017607Y014531D02*
X016158Y014531D01*
X016158Y014630D02*
X017515Y014630D01*
X017483Y014728D02*
X016158Y014728D01*
X016158Y014827D02*
X017483Y014827D01*
X017483Y014925D02*
X016158Y014925D01*
X015898Y015418D02*
X015298Y015418D01*
X015298Y015516D02*
X015898Y015516D01*
X015898Y015615D02*
X015298Y015615D01*
X015298Y015713D02*
X015898Y015713D01*
X015898Y015812D02*
X015298Y015812D01*
X015298Y015910D02*
X015898Y015910D01*
X015898Y016009D02*
X015298Y016009D01*
X015298Y016107D02*
X015898Y016107D01*
X015898Y016206D02*
X015298Y016206D01*
X015298Y016304D02*
X015898Y016304D01*
X015898Y016403D02*
X015298Y016403D01*
X015298Y016501D02*
X015532Y016501D01*
X015466Y016600D02*
X015298Y016600D01*
X015298Y016698D02*
X015451Y016698D01*
X015451Y016797D02*
X015298Y016797D01*
X015298Y016895D02*
X015451Y016895D01*
X015451Y016994D02*
X015298Y016994D01*
X015298Y017092D02*
X015451Y017092D01*
X015451Y017191D02*
X015298Y017191D01*
X015298Y017289D02*
X015451Y017289D01*
X015451Y017388D02*
X015298Y017388D01*
X015298Y017486D02*
X015451Y017486D01*
X015451Y017585D02*
X015298Y017585D01*
X015395Y017683D02*
X015451Y017683D01*
X015701Y017683D02*
X020426Y017683D01*
X020426Y017585D02*
X015701Y017585D01*
X015701Y017486D02*
X020426Y017486D01*
X020426Y017388D02*
X015701Y017388D01*
X015701Y017289D02*
X020426Y017289D01*
X020426Y017191D02*
X015701Y017191D01*
X015701Y017092D02*
X020426Y017092D01*
X020426Y016994D02*
X015701Y016994D01*
X015701Y016895D02*
X020426Y016895D01*
X020426Y016797D02*
X015701Y016797D01*
X015701Y016698D02*
X020426Y016698D01*
X020426Y016685D02*
X015701Y016685D01*
X015701Y018894D01*
X020426Y018894D01*
X020426Y016685D01*
X020609Y016501D02*
X023141Y016501D01*
X023043Y016403D02*
X018932Y016403D01*
X018932Y016304D02*
X019157Y016304D01*
X019978Y016304D02*
X022944Y016304D01*
X022846Y016206D02*
X020027Y016206D01*
X020027Y016107D02*
X022747Y016107D01*
X022649Y016009D02*
X020027Y016009D01*
X020027Y015910D02*
X022550Y015910D01*
X022452Y015812D02*
X020027Y015812D01*
X020027Y015713D02*
X022353Y015713D01*
X022255Y015615D02*
X020027Y015615D01*
X020027Y015516D02*
X022156Y015516D01*
X022058Y015418D02*
X019943Y015418D01*
X019532Y015122D02*
X021878Y015122D01*
X021878Y015024D02*
X019554Y015024D01*
X019554Y014925D02*
X019587Y014925D01*
X019433Y015221D02*
X021894Y015221D01*
X021959Y015319D02*
X018929Y015319D01*
X018929Y015221D02*
X018977Y015221D01*
X018929Y015418D02*
X019192Y015418D01*
X018418Y015741D02*
X017607Y015741D01*
X017524Y015658D01*
X019205Y014874D02*
X019205Y013512D01*
X019520Y013197D01*
X020209Y012497D01*
X020209Y009839D01*
X020409Y009839D02*
X020409Y012659D01*
X020052Y013016D01*
X020052Y013457D01*
X020052Y013319D01*
X020398Y013103D02*
X020398Y013989D01*
X019835Y014599D01*
X020083Y014925D02*
X020217Y014925D01*
X020465Y014599D02*
X020760Y014304D01*
X020760Y013457D01*
X020799Y013457D01*
X020799Y009839D01*
X020999Y009839D02*
X020999Y012955D01*
X021150Y013107D01*
X021150Y013863D01*
X021016Y013996D01*
X021016Y014599D01*
X021390Y014343D02*
X021646Y014599D01*
X021390Y014343D02*
X021390Y013036D01*
X021189Y012834D01*
X021189Y009839D01*
X021389Y009839D02*
X021389Y012648D01*
X021792Y013052D01*
X021792Y013453D01*
X021788Y013457D01*
X022138Y013036D02*
X022138Y015130D01*
X024244Y017237D01*
X023896Y017289D02*
X020686Y017289D01*
X020686Y017191D02*
X023831Y017191D01*
X023732Y017092D02*
X020686Y017092D01*
X020686Y016994D02*
X023634Y016994D01*
X023535Y016895D02*
X020686Y016895D01*
X020686Y016797D02*
X023437Y016797D01*
X023338Y016698D02*
X020686Y016698D01*
X020671Y016600D02*
X023240Y016600D01*
X023975Y016600D02*
X025435Y016600D01*
X025701Y016292D02*
X023969Y016292D01*
X022496Y014819D01*
X022496Y013457D01*
X022496Y012996D01*
X021789Y012289D01*
X021789Y009839D01*
X021979Y009839D02*
X021979Y012124D01*
X022859Y013012D01*
X022859Y014552D01*
X024008Y015701D01*
X025701Y015701D01*
X025701Y015111D02*
X024178Y015111D01*
X023119Y014052D01*
X023119Y012878D01*
X022179Y011938D01*
X022179Y009839D01*
X022379Y009839D02*
X022379Y011772D01*
X023437Y012843D01*
X023437Y013461D01*
X023504Y013469D01*
X024213Y013465D02*
X024213Y013469D01*
X024213Y013465D02*
X024717Y013969D01*
X024835Y013969D01*
X025839Y013571D02*
X026737Y013571D01*
X026737Y013162D02*
X025792Y013162D01*
X025146Y012516D01*
X025142Y012516D01*
X023559Y010937D01*
X023559Y009839D01*
X023749Y009839D02*
X023749Y010764D01*
X025674Y012689D01*
X026737Y012689D01*
X026737Y012197D02*
X026717Y012189D01*
X025528Y012189D01*
X023949Y010610D01*
X023949Y009839D01*
X023359Y009839D02*
X023359Y011091D01*
X025839Y013571D01*
X026016Y014063D02*
X026737Y014063D01*
X026016Y014063D02*
X024847Y012894D01*
X024843Y012894D01*
X023159Y011210D01*
X023159Y009839D01*
X022969Y009839D02*
X022969Y011327D01*
X026205Y014563D01*
X026737Y014563D01*
X026425Y014827D02*
X026012Y014827D01*
X025701Y014563D02*
X024433Y014563D01*
X023859Y013989D01*
X023859Y012945D01*
X022569Y011655D01*
X022569Y009839D01*
X022769Y009839D02*
X022769Y011501D01*
X024150Y012863D01*
X024142Y012859D01*
X024213Y012930D01*
X024213Y013465D01*
X022138Y013036D02*
X021589Y012486D01*
X021589Y009839D01*
X020599Y009839D02*
X020599Y012902D01*
X020398Y013103D01*
X018592Y012758D02*
X016158Y012758D01*
X016158Y012660D02*
X018424Y012660D01*
X018384Y012561D02*
X016158Y012561D01*
X016158Y012463D02*
X018363Y012463D01*
X018363Y012364D02*
X016158Y012364D01*
X016158Y012266D02*
X018384Y012266D01*
X018385Y012167D02*
X016158Y012167D01*
X016158Y012069D02*
X018484Y012069D01*
X018567Y011970D02*
X016158Y011970D01*
X016158Y011872D02*
X018558Y011872D01*
X018558Y011773D02*
X016158Y011773D01*
X016158Y011675D02*
X018558Y011675D01*
X018558Y011576D02*
X016158Y011576D01*
X016158Y011478D02*
X018558Y011478D01*
X018558Y011379D02*
X016158Y011379D01*
X016158Y011281D02*
X018558Y011281D01*
X018558Y011182D02*
X016158Y011182D01*
X016158Y011084D02*
X018558Y011084D01*
X018652Y010985D02*
X016158Y010985D01*
X016158Y010887D02*
X018859Y010887D01*
X018859Y010788D02*
X016158Y010788D01*
X016158Y010690D02*
X018859Y010690D01*
X018861Y010591D02*
X016158Y010591D01*
X014820Y010733D02*
X014820Y011646D01*
X014820Y012133D01*
X014741Y012213D01*
X013922Y012213D01*
X013461Y011752D01*
X013040Y011331D01*
X013040Y011044D01*
X012693Y010697D01*
X012693Y010681D01*
X012147Y010135D01*
X011407Y010135D01*
X011407Y010525D02*
X011407Y010528D01*
X011827Y010528D01*
X012040Y010741D01*
X011407Y010725D02*
X010607Y010725D01*
X010583Y010701D01*
X011407Y011315D02*
X011407Y011565D01*
X012945Y013103D01*
X012945Y013378D01*
X013496Y013930D01*
X013496Y015544D01*
X014087Y016134D01*
X014087Y018103D01*
X014048Y018142D01*
X013548Y017938D02*
X013590Y017836D01*
X013742Y017684D01*
X013867Y017632D01*
X013867Y016225D01*
X013276Y015635D01*
X013276Y014021D01*
X012968Y013712D01*
X012968Y013930D01*
X012851Y014047D01*
X012213Y014047D01*
X012105Y013939D01*
X012090Y013939D01*
X011974Y014056D01*
X011531Y014056D01*
X011414Y013939D01*
X011136Y013939D01*
X011044Y013901D01*
X010107Y012965D01*
X010107Y013064D01*
X013115Y016072D01*
X013244Y016201D01*
X013244Y017639D01*
X013354Y017684D01*
X013505Y017836D01*
X013548Y017938D01*
X013524Y017880D02*
X013572Y017880D01*
X013645Y017782D02*
X013451Y017782D01*
X013350Y017683D02*
X013745Y017683D01*
X013867Y017585D02*
X013244Y017585D01*
X013244Y017486D02*
X013867Y017486D01*
X013867Y017388D02*
X013244Y017388D01*
X013244Y017289D02*
X013867Y017289D01*
X013867Y017191D02*
X013244Y017191D01*
X013244Y017092D02*
X013867Y017092D01*
X013867Y016994D02*
X013244Y016994D01*
X013244Y016895D02*
X013867Y016895D01*
X013867Y016797D02*
X013244Y016797D01*
X013244Y016698D02*
X013867Y016698D01*
X013867Y016600D02*
X013244Y016600D01*
X013244Y016501D02*
X013867Y016501D01*
X013867Y016403D02*
X013244Y016403D01*
X013244Y016304D02*
X013867Y016304D01*
X013847Y016206D02*
X013244Y016206D01*
X013150Y016107D02*
X013749Y016107D01*
X013650Y016009D02*
X013052Y016009D01*
X012953Y015910D02*
X013552Y015910D01*
X013453Y015812D02*
X012855Y015812D01*
X012756Y015713D02*
X013355Y015713D01*
X013276Y015615D02*
X012658Y015615D01*
X012559Y015516D02*
X013276Y015516D01*
X013276Y015418D02*
X012461Y015418D01*
X012362Y015319D02*
X013276Y015319D01*
X013276Y015221D02*
X012264Y015221D01*
X012165Y015122D02*
X013276Y015122D01*
X013276Y015024D02*
X012067Y015024D01*
X011968Y014925D02*
X013276Y014925D01*
X013276Y014827D02*
X011870Y014827D01*
X011771Y014728D02*
X013276Y014728D01*
X013276Y014630D02*
X011673Y014630D01*
X011574Y014531D02*
X013276Y014531D01*
X013276Y014433D02*
X011476Y014433D01*
X011377Y014334D02*
X013276Y014334D01*
X013276Y014236D02*
X011279Y014236D01*
X011180Y014137D02*
X013276Y014137D01*
X013276Y014039D02*
X012859Y014039D01*
X012958Y013940D02*
X013196Y013940D01*
X013097Y013842D02*
X012968Y013842D01*
X012968Y013743D02*
X012999Y013743D01*
X013374Y013367D02*
X013662Y013654D01*
X014130Y013654D01*
X014178Y013701D01*
X014584Y013756D02*
X014584Y013929D01*
X014484Y014029D01*
X013871Y014029D01*
X013771Y013929D01*
X013771Y013874D01*
X013716Y013874D01*
X013716Y015453D01*
X014178Y015914D01*
X014307Y016043D01*
X014307Y017665D01*
X014354Y017684D01*
X014505Y017836D01*
X014531Y017899D01*
X014564Y017819D01*
X014725Y017659D01*
X014798Y017629D01*
X014798Y013990D01*
X014803Y013976D01*
X014584Y013756D01*
X014584Y013842D02*
X014669Y013842D01*
X014573Y013940D02*
X014768Y013940D01*
X014798Y014039D02*
X013716Y014039D01*
X013716Y014137D02*
X014798Y014137D01*
X014798Y014236D02*
X013716Y014236D01*
X013716Y014334D02*
X014798Y014334D01*
X014798Y014433D02*
X013716Y014433D01*
X013716Y014531D02*
X014798Y014531D01*
X014798Y014630D02*
X013716Y014630D01*
X013716Y014728D02*
X014798Y014728D01*
X014798Y014827D02*
X013716Y014827D01*
X013716Y014925D02*
X014798Y014925D01*
X014798Y015024D02*
X013716Y015024D01*
X013716Y015122D02*
X014798Y015122D01*
X014798Y015221D02*
X013716Y015221D01*
X013716Y015319D02*
X014798Y015319D01*
X014798Y015418D02*
X013716Y015418D01*
X013780Y015516D02*
X014798Y015516D01*
X014798Y015615D02*
X013878Y015615D01*
X013977Y015713D02*
X014798Y015713D01*
X014798Y015812D02*
X014075Y015812D01*
X014174Y015910D02*
X014798Y015910D01*
X014798Y016009D02*
X014272Y016009D01*
X014307Y016107D02*
X014798Y016107D01*
X014798Y016206D02*
X014307Y016206D01*
X014307Y016304D02*
X014798Y016304D01*
X014798Y016403D02*
X014307Y016403D01*
X014307Y016501D02*
X014798Y016501D01*
X014798Y016600D02*
X014307Y016600D01*
X014307Y016698D02*
X014798Y016698D01*
X014798Y016797D02*
X014307Y016797D01*
X014307Y016895D02*
X014798Y016895D01*
X014798Y016994D02*
X014307Y016994D01*
X014307Y017092D02*
X014798Y017092D01*
X014798Y017191D02*
X014307Y017191D01*
X014307Y017289D02*
X014798Y017289D01*
X014798Y017388D02*
X014307Y017388D01*
X014307Y017486D02*
X014798Y017486D01*
X014798Y017585D02*
X014307Y017585D01*
X014350Y017683D02*
X014701Y017683D01*
X014602Y017782D02*
X014451Y017782D01*
X014524Y017880D02*
X014539Y017880D01*
X015048Y018142D02*
X015048Y014040D01*
X015134Y013953D01*
X015276Y013811D01*
X016158Y013546D02*
X016180Y013546D01*
X016158Y013448D02*
X017902Y013448D01*
X017804Y013546D02*
X016798Y013546D01*
X016837Y013645D02*
X017705Y013645D01*
X017630Y013743D02*
X016837Y013743D01*
X016158Y013349D02*
X018001Y013349D01*
X018099Y013251D02*
X016158Y013251D01*
X016158Y013152D02*
X018198Y013152D01*
X018296Y013054D02*
X016158Y013054D01*
X016158Y012955D02*
X018395Y012955D01*
X018493Y012857D02*
X016158Y012857D01*
X015134Y012591D02*
X014914Y012811D01*
X014914Y013040D01*
X015134Y012591D02*
X015134Y011960D01*
X014820Y011646D01*
X014220Y011646D02*
X013890Y011646D01*
X013481Y011237D01*
X013481Y010087D01*
X013129Y009735D01*
X011407Y009735D01*
X011407Y009535D02*
X010273Y009535D01*
X010662Y009244D02*
X010819Y009087D01*
X010819Y008890D01*
X010961Y008748D01*
X011401Y008748D01*
X011407Y008755D01*
X011407Y008945D02*
X014197Y008945D01*
X014220Y008922D01*
X013922Y009819D02*
X013247Y009145D01*
X011407Y009145D01*
X011407Y009345D02*
X013113Y009345D01*
X013737Y009969D01*
X013737Y010528D01*
X013261Y010197D02*
X012562Y010197D01*
X012464Y010099D02*
X013181Y010099D01*
X013083Y010000D02*
X012365Y010000D01*
X013922Y009819D02*
X014212Y009819D01*
X014220Y009827D01*
X015154Y007538D02*
X015898Y007538D01*
X018028Y007242D02*
X018625Y007242D01*
X018559Y007144D02*
X018127Y007144D01*
X017336Y006553D02*
X017321Y006553D01*
X017701Y005681D02*
X016874Y005681D01*
X015898Y005469D02*
X014632Y005469D01*
X014632Y005371D02*
X015898Y005371D01*
X015898Y005272D02*
X014632Y005272D01*
X014632Y005174D02*
X015898Y005174D01*
X015898Y005075D02*
X014569Y005075D01*
X014199Y004977D02*
X015898Y004977D01*
X015898Y004878D02*
X014136Y004878D01*
X013859Y004040D02*
X013863Y004036D01*
X012573Y003302D02*
X012278Y003302D01*
X012278Y003204D02*
X012671Y003204D01*
X012770Y003105D02*
X012278Y003105D01*
X012278Y003007D02*
X012868Y003007D01*
X012961Y002913D02*
X012961Y002913D01*
X012967Y002908D02*
X012278Y002908D01*
X012182Y002810D02*
X013065Y002810D01*
X012474Y003401D02*
X012201Y003401D01*
X012270Y003499D02*
X012376Y003499D01*
X012277Y003598D02*
X012270Y003598D01*
X011961Y003693D02*
X011445Y003178D01*
X010841Y003178D01*
X010839Y003176D01*
X010839Y003426D02*
X010134Y003426D01*
X010052Y003343D01*
X010052Y002689D01*
X009063Y001701D01*
X006475Y001701D01*
X005811Y001077D01*
X005384Y000741D02*
X005298Y000741D01*
X005241Y000643D02*
X005482Y000643D01*
X005687Y000544D02*
X005142Y000544D01*
X004940Y000446D02*
X006683Y000446D01*
X006481Y000544D02*
X005936Y000544D01*
X006141Y000643D02*
X006382Y000643D01*
X006325Y000741D02*
X006239Y000741D01*
X006940Y000446D02*
X008683Y000446D01*
X008481Y000544D02*
X007936Y000544D01*
X008141Y000643D02*
X008382Y000643D01*
X008325Y000741D02*
X008239Y000741D01*
X008811Y000937D02*
X008811Y000977D01*
X008811Y000937D02*
X009121Y000937D01*
X010839Y002656D01*
X010910Y002416D02*
X015898Y002416D01*
X015898Y002514D02*
X011338Y002514D01*
X011339Y002613D02*
X015898Y002613D01*
X015898Y002711D02*
X011876Y002711D01*
X011764Y002910D02*
X010844Y002910D01*
X010839Y002916D01*
X009851Y002792D02*
X009851Y003445D01*
X010091Y003686D01*
X010839Y003686D01*
X010839Y003936D02*
X010837Y003937D01*
X009981Y003937D01*
X009599Y003548D01*
X009599Y002859D01*
X008859Y002119D01*
X004481Y002119D01*
X003811Y001449D01*
X003811Y001077D01*
X003325Y000840D02*
X002830Y000840D01*
X002904Y000938D02*
X003284Y000938D01*
X003271Y001037D02*
X002954Y001037D01*
X003004Y001135D02*
X003271Y001135D01*
X003292Y001234D02*
X003054Y001234D01*
X003088Y001332D02*
X003333Y001332D01*
X003401Y001431D02*
X003103Y001431D01*
X003119Y001529D02*
X003500Y001529D01*
X003679Y001628D02*
X003134Y001628D01*
X003150Y001726D02*
X003777Y001726D01*
X003876Y001825D02*
X003134Y001825D01*
X003118Y001923D02*
X003974Y001923D01*
X004073Y002022D02*
X003103Y002022D01*
X003087Y002120D02*
X004171Y002120D01*
X004811Y001693D02*
X005032Y001914D01*
X008973Y001914D01*
X009851Y002792D01*
X010713Y002219D02*
X015898Y002219D01*
X015898Y002317D02*
X010811Y002317D01*
X010614Y002120D02*
X015898Y002120D01*
X015898Y002022D02*
X010516Y002022D01*
X010417Y001923D02*
X015898Y001923D01*
X015898Y001825D02*
X010319Y001825D01*
X010220Y001726D02*
X015898Y001726D01*
X015898Y001628D02*
X010122Y001628D01*
X010200Y001567D02*
X010002Y001485D01*
X009850Y001333D01*
X009767Y001134D01*
X009767Y000919D01*
X009850Y000721D01*
X010002Y000569D01*
X010200Y000487D01*
X010415Y000487D01*
X010613Y000569D01*
X010765Y000721D01*
X010787Y000773D01*
X010850Y000621D01*
X011002Y000469D01*
X011200Y000387D01*
X011415Y000387D01*
X011613Y000469D01*
X011765Y000621D01*
X011828Y000773D01*
X011850Y000721D01*
X012002Y000569D01*
X012200Y000487D01*
X012415Y000487D01*
X012613Y000569D01*
X012765Y000721D01*
X012787Y000773D01*
X012850Y000621D01*
X013002Y000469D01*
X013200Y000387D01*
X013415Y000387D01*
X013613Y000469D01*
X013765Y000621D01*
X013847Y000819D01*
X013847Y001034D01*
X013765Y001233D01*
X013613Y001385D01*
X013415Y001467D01*
X013200Y001467D01*
X013002Y001385D01*
X012850Y001233D01*
X012828Y001181D01*
X012765Y001333D01*
X012613Y001485D01*
X012415Y001567D01*
X012200Y001567D01*
X012002Y001485D01*
X011850Y001333D01*
X011787Y001181D01*
X011765Y001233D01*
X011613Y001385D01*
X011415Y001467D01*
X011200Y001467D01*
X011002Y001385D01*
X010850Y001233D01*
X010828Y001181D01*
X010765Y001333D01*
X010613Y001485D01*
X010415Y001567D01*
X010200Y001567D01*
X010109Y001529D02*
X010023Y001529D01*
X009948Y001431D02*
X009925Y001431D01*
X009849Y001332D02*
X009826Y001332D01*
X009809Y001234D02*
X009728Y001234D01*
X009768Y001135D02*
X009629Y001135D01*
X009531Y001037D02*
X009767Y001037D01*
X009767Y000938D02*
X009432Y000938D01*
X009339Y000840D02*
X009801Y000840D01*
X009841Y000741D02*
X009298Y000741D01*
X009241Y000643D02*
X009928Y000643D01*
X010062Y000544D02*
X009142Y000544D01*
X008940Y000446D02*
X011058Y000446D01*
X010927Y000544D02*
X010553Y000544D01*
X010687Y000643D02*
X010841Y000643D01*
X010800Y000741D02*
X010774Y000741D01*
X011557Y000446D02*
X013058Y000446D01*
X012927Y000544D02*
X012553Y000544D01*
X012687Y000643D02*
X012841Y000643D01*
X012800Y000741D02*
X012774Y000741D01*
X012062Y000544D02*
X011688Y000544D01*
X011774Y000643D02*
X011928Y000643D01*
X011841Y000741D02*
X011815Y000741D01*
X011809Y001234D02*
X011764Y001234D01*
X011849Y001332D02*
X011666Y001332D01*
X011502Y001431D02*
X011948Y001431D01*
X012109Y001529D02*
X010506Y001529D01*
X010667Y001431D02*
X011113Y001431D01*
X010949Y001332D02*
X010766Y001332D01*
X010806Y001234D02*
X010851Y001234D01*
X012506Y001529D02*
X015898Y001529D01*
X015898Y001431D02*
X015581Y001431D01*
X015630Y001410D02*
X015421Y001497D01*
X015194Y001497D01*
X014985Y001410D01*
X014824Y001250D01*
X014737Y001040D01*
X014737Y000813D01*
X014824Y000604D01*
X014985Y000444D01*
X015194Y000357D01*
X015421Y000357D01*
X015630Y000444D01*
X015791Y000604D01*
X015877Y000813D01*
X015877Y001040D01*
X015791Y001250D01*
X015630Y001410D01*
X015708Y001332D02*
X015898Y001332D01*
X015898Y001234D02*
X015797Y001234D01*
X015838Y001135D02*
X015898Y001135D01*
X015898Y001037D02*
X015877Y001037D01*
X015877Y000938D02*
X015898Y000938D01*
X015898Y000840D02*
X015877Y000840D01*
X015898Y000741D02*
X015847Y000741D01*
X015807Y000643D02*
X015898Y000643D01*
X015898Y000544D02*
X015731Y000544D01*
X015632Y000446D02*
X015898Y000446D01*
X015898Y000347D02*
X002023Y000347D01*
X002165Y000370D02*
X002165Y000370D01*
X002314Y000446D02*
X004683Y000446D01*
X004481Y000544D02*
X003936Y000544D01*
X004141Y000643D02*
X004382Y000643D01*
X004325Y000741D02*
X004239Y000741D01*
X003687Y000544D02*
X002508Y000544D01*
X002633Y000643D02*
X003482Y000643D01*
X003384Y000741D02*
X002731Y000741D01*
X004811Y000977D02*
X004811Y001693D01*
X005662Y002512D02*
X006114Y002512D01*
X006128Y002526D01*
X006128Y002776D02*
X006619Y002776D01*
X006843Y002552D01*
X006619Y003036D02*
X006128Y003036D01*
X006619Y003036D02*
X006843Y003260D01*
X006554Y003598D02*
X007237Y003598D01*
X007237Y003696D02*
X006611Y003696D01*
X006611Y003795D02*
X007237Y003795D01*
X007237Y003893D02*
X006611Y003893D01*
X007517Y004583D02*
X007521Y004583D01*
X007422Y004681D02*
X007418Y004681D01*
X007329Y004780D02*
X007320Y004780D01*
X007302Y004878D02*
X007221Y004878D01*
X007302Y004977D02*
X007123Y004977D01*
X007100Y005075D02*
X007302Y005075D01*
X007302Y005174D02*
X007100Y005174D01*
X007034Y005272D02*
X007349Y005272D01*
X007611Y005016D02*
X007611Y004804D01*
X007764Y004650D01*
X007764Y003441D01*
X007916Y002916D02*
X008619Y002916D01*
X009237Y003598D02*
X009378Y003598D01*
X009379Y003499D02*
X009336Y003499D01*
X009436Y003696D02*
X009020Y003696D01*
X009008Y003693D02*
X009205Y003693D01*
X009118Y003795D02*
X009533Y003795D01*
X009629Y003893D02*
X009119Y003893D01*
X009119Y003992D02*
X009726Y003992D01*
X009822Y004090D02*
X009119Y004090D01*
X009119Y004189D02*
X010339Y004189D01*
X010339Y004287D02*
X009119Y004287D01*
X009069Y004386D02*
X010339Y004386D01*
X010339Y004484D02*
X008358Y004484D01*
X008358Y004583D02*
X010339Y004583D01*
X009087Y004681D02*
X008358Y004681D01*
X008404Y004780D02*
X008989Y004780D01*
X008890Y004878D02*
X008439Y004878D01*
X008102Y005666D02*
X005946Y005666D01*
X006034Y005765D02*
X008004Y005765D01*
X007905Y005863D02*
X006034Y005863D01*
X006034Y005962D02*
X007807Y005962D01*
X007708Y006060D02*
X006034Y006060D01*
X006034Y006159D02*
X007610Y006159D01*
X007497Y007045D02*
X007445Y007045D01*
X010189Y007040D02*
X012276Y007040D01*
X009276Y008917D02*
X009217Y008917D01*
X009276Y009015D02*
X009119Y009015D01*
X009020Y009114D02*
X009276Y009114D01*
X009276Y009212D02*
X008922Y009212D01*
X008845Y009311D02*
X009276Y009311D01*
X009276Y009409D02*
X008845Y009409D01*
X008845Y009508D02*
X009276Y009508D01*
X009034Y009606D02*
X008845Y009606D01*
X008845Y009705D02*
X008975Y009705D01*
X008975Y009803D02*
X008845Y009803D01*
X008345Y010493D02*
X007448Y010493D01*
X007447Y010591D02*
X008345Y010591D01*
X008302Y010690D02*
X008054Y010690D01*
X008073Y010788D02*
X008256Y010788D01*
X008256Y010887D02*
X008073Y010887D01*
X008073Y010985D02*
X008256Y010985D01*
X008256Y011084D02*
X008073Y011084D01*
X008018Y011182D02*
X008260Y011182D01*
X008358Y011281D02*
X007447Y011281D01*
X007447Y011379D02*
X009448Y011379D01*
X009448Y011478D02*
X007410Y011478D01*
X007502Y011675D02*
X005335Y011675D01*
X005434Y011773D02*
X007492Y011773D01*
X007492Y011872D02*
X005532Y011872D01*
X005631Y011970D02*
X007492Y011970D01*
X007492Y012069D02*
X005729Y012069D01*
X005828Y012167D02*
X007492Y012167D01*
X007492Y012266D02*
X005895Y012266D01*
X006111Y012364D02*
X007492Y012364D01*
X007408Y012463D02*
X006137Y012463D01*
X006137Y012561D02*
X007310Y012561D01*
X007211Y012660D02*
X006137Y012660D01*
X006137Y012758D02*
X007113Y012758D01*
X007014Y012857D02*
X006137Y012857D01*
X006053Y012955D02*
X006916Y012955D01*
X006817Y013054D02*
X006050Y013054D01*
X006008Y013011D02*
X006107Y013111D01*
X006107Y013567D01*
X006008Y013666D01*
X005395Y013666D01*
X005295Y013567D01*
X005295Y013559D01*
X005233Y013559D01*
X005233Y013567D01*
X005134Y013666D01*
X004521Y013666D01*
X004421Y013567D01*
X004421Y013559D01*
X003509Y013559D01*
X003509Y013567D01*
X003409Y013666D01*
X002796Y013666D01*
X002697Y013567D01*
X002697Y013111D01*
X002796Y013011D01*
X003409Y013011D01*
X003509Y013111D01*
X003509Y013119D01*
X004421Y013119D01*
X004421Y013111D01*
X004521Y013011D01*
X005134Y013011D01*
X005233Y013111D01*
X005233Y013119D01*
X005295Y013119D01*
X005295Y013111D01*
X005395Y013011D01*
X006008Y013011D01*
X006107Y013152D02*
X006719Y013152D01*
X006620Y013251D02*
X006107Y013251D01*
X006107Y013349D02*
X006522Y013349D01*
X006423Y013448D02*
X006107Y013448D01*
X006107Y013546D02*
X006325Y013546D01*
X006226Y013645D02*
X006030Y013645D01*
X006128Y013743D02*
X000320Y013743D01*
X000320Y013645D02*
X002774Y013645D01*
X002697Y013546D02*
X000320Y013546D01*
X000320Y013448D02*
X002697Y013448D01*
X002697Y013349D02*
X000320Y013349D01*
X000320Y013251D02*
X002697Y013251D01*
X002697Y013152D02*
X001501Y013152D01*
X001490Y013163D02*
X001292Y013245D01*
X001077Y013245D01*
X000878Y013163D01*
X000726Y013011D01*
X000644Y012813D01*
X000644Y012598D01*
X000726Y012399D01*
X000878Y012247D01*
X000891Y012242D01*
X000761Y012188D01*
X000601Y012028D01*
X000514Y011818D01*
X000514Y011592D01*
X000601Y011382D01*
X000761Y011222D01*
X000971Y011135D01*
X001198Y011135D01*
X001407Y011222D01*
X001567Y011382D01*
X001654Y011592D01*
X001654Y011818D01*
X001567Y012028D01*
X001407Y012188D01*
X001377Y012201D01*
X001490Y012247D01*
X001642Y012399D01*
X001678Y012485D01*
X002697Y012485D01*
X002697Y012402D01*
X002796Y012303D01*
X003409Y012303D01*
X003505Y012399D01*
X003583Y012322D01*
X004001Y012322D01*
X004100Y012421D01*
X004100Y012839D01*
X004001Y012939D01*
X003583Y012939D01*
X003505Y012862D01*
X003409Y012958D01*
X002796Y012958D01*
X002763Y012925D01*
X001678Y012925D01*
X001642Y013011D01*
X001490Y013163D01*
X001600Y013054D02*
X002754Y013054D01*
X002793Y012955D02*
X001665Y012955D01*
X001184Y012705D02*
X003028Y012705D01*
X003103Y012630D01*
X003792Y012630D01*
X004100Y012660D02*
X005265Y012660D01*
X005265Y012758D02*
X004100Y012758D01*
X004083Y012857D02*
X005265Y012857D01*
X005349Y012955D02*
X003412Y012955D01*
X003451Y013054D02*
X004478Y013054D01*
X005176Y013054D02*
X005353Y013054D01*
X005701Y013339D02*
X004827Y013339D01*
X003103Y013339D01*
X003431Y013645D02*
X004499Y013645D01*
X005156Y013645D02*
X005373Y013645D01*
X006029Y013842D02*
X000320Y013842D01*
X000320Y013940D02*
X005931Y013940D01*
X005832Y014039D02*
X000320Y014039D01*
X000320Y014137D02*
X005734Y014137D01*
X005635Y014236D02*
X000320Y014236D01*
X000320Y014334D02*
X005537Y014334D01*
X005438Y014433D02*
X000320Y014433D01*
X000320Y014531D02*
X005340Y014531D01*
X005241Y014630D02*
X000320Y014630D01*
X000320Y014728D02*
X005143Y014728D01*
X005044Y014827D02*
X000320Y014827D01*
X000320Y014925D02*
X004946Y014925D01*
X004847Y015024D02*
X000320Y015024D01*
X000320Y015122D02*
X004749Y015122D01*
X004650Y015221D02*
X000320Y015221D01*
X000320Y015319D02*
X004552Y015319D01*
X004453Y015418D02*
X000320Y015418D01*
X000320Y015516D02*
X004355Y015516D01*
X004256Y015615D02*
X000320Y015615D01*
X000320Y015713D02*
X004158Y015713D01*
X004059Y015812D02*
X000320Y015812D01*
X000320Y015910D02*
X003961Y015910D01*
X003862Y016009D02*
X000320Y016009D01*
X000320Y016107D02*
X003764Y016107D01*
X003665Y016206D02*
X001857Y016206D01*
X002047Y016236D02*
X002047Y016236D01*
X002181Y016304D02*
X003567Y016304D01*
X003513Y016403D02*
X002375Y016403D01*
X002507Y016501D02*
X003513Y016501D01*
X003513Y016600D02*
X002606Y016600D01*
X002704Y016698D02*
X003513Y016698D01*
X003513Y016797D02*
X002782Y016797D01*
X002832Y016895D02*
X003513Y016895D01*
X003513Y016994D02*
X002882Y016994D01*
X002932Y017092D02*
X003513Y017092D01*
X003513Y017191D02*
X002968Y017191D01*
X002962Y017151D02*
X002962Y017151D01*
X002984Y017289D02*
X003513Y017289D01*
X003513Y017388D02*
X002999Y017388D01*
X003015Y017486D02*
X003513Y017486D01*
X003513Y017585D02*
X003031Y017585D01*
X003017Y017683D02*
X003450Y017683D01*
X003349Y017782D02*
X003002Y017782D01*
X002986Y017880D02*
X003276Y017880D01*
X003236Y017979D02*
X002970Y017979D01*
X002939Y018077D02*
X003212Y018077D01*
X003212Y018176D02*
X002888Y018176D01*
X002838Y018274D02*
X003223Y018274D01*
X003263Y018373D02*
X002788Y018373D01*
X002717Y018471D02*
X003318Y018471D01*
X003416Y018570D02*
X002619Y018570D01*
X002520Y018668D02*
X003611Y018668D01*
X003894Y018668D02*
X004611Y018668D01*
X004416Y018570D02*
X004089Y018570D01*
X004187Y018471D02*
X004318Y018471D01*
X004263Y018373D02*
X004241Y018373D01*
X003752Y018142D02*
X003733Y018122D01*
X003733Y016449D01*
X007717Y012465D01*
X007717Y012045D01*
X007917Y012045D02*
X007917Y012737D01*
X004756Y015898D01*
X004756Y018138D01*
X004752Y018142D01*
X005241Y018373D02*
X005263Y018373D01*
X005318Y018471D02*
X005187Y018471D01*
X005089Y018570D02*
X005416Y018570D01*
X005611Y018668D02*
X004894Y018668D01*
X005894Y018668D02*
X006611Y018668D01*
X006416Y018570D02*
X006089Y018570D01*
X006187Y018471D02*
X006318Y018471D01*
X006263Y018373D02*
X006241Y018373D01*
X005780Y018115D02*
X005752Y018142D01*
X005748Y018138D01*
X005780Y018115D02*
X005780Y015426D01*
X008117Y013088D01*
X008117Y012045D01*
X008307Y012045D02*
X008307Y013528D01*
X006725Y015111D01*
X006725Y018115D01*
X006752Y018142D01*
X007241Y018373D02*
X007263Y018373D01*
X007318Y018471D02*
X007187Y018471D01*
X007089Y018570D02*
X007416Y018570D01*
X007611Y018668D02*
X006894Y018668D01*
X007894Y018668D02*
X008611Y018668D01*
X008416Y018570D02*
X008089Y018570D01*
X008187Y018471D02*
X008318Y018471D01*
X008263Y018373D02*
X008241Y018373D01*
X008894Y018668D02*
X010906Y018668D01*
X010711Y018570D02*
X009089Y018570D01*
X009187Y018471D02*
X010613Y018471D01*
X010559Y018373D02*
X009241Y018373D01*
X009282Y018274D02*
X010518Y018274D01*
X010508Y018176D02*
X009292Y018176D01*
X009292Y018077D02*
X010508Y018077D01*
X010531Y017979D02*
X009269Y017979D01*
X009228Y017880D02*
X010572Y017880D01*
X010645Y017782D02*
X009155Y017782D01*
X009055Y017683D02*
X010745Y017683D01*
X010796Y017585D02*
X008992Y017585D01*
X008992Y017486D02*
X010796Y017486D01*
X010796Y017388D02*
X008992Y017388D01*
X008992Y017289D02*
X010796Y017289D01*
X010796Y017191D02*
X008958Y017191D01*
X008860Y017092D02*
X010796Y017092D01*
X010796Y016994D02*
X008761Y016994D01*
X008663Y016895D02*
X010796Y016895D01*
X010796Y016797D02*
X008564Y016797D01*
X008466Y016698D02*
X010796Y016698D01*
X010796Y016600D02*
X008367Y016600D01*
X008269Y016501D02*
X010796Y016501D01*
X010796Y016403D02*
X008170Y016403D01*
X008165Y016304D02*
X008775Y016304D01*
X008689Y016206D02*
X008165Y016206D01*
X008165Y016107D02*
X008689Y016107D01*
X008686Y016009D02*
X008165Y016009D01*
X008165Y015910D02*
X008588Y015910D01*
X008517Y015812D02*
X008165Y015812D01*
X008165Y015713D02*
X008498Y015713D01*
X008498Y015615D02*
X008165Y015615D01*
X008165Y015516D02*
X008498Y015516D01*
X008498Y015418D02*
X008165Y015418D01*
X008165Y015319D02*
X008498Y015319D01*
X008498Y015221D02*
X008165Y015221D01*
X008165Y015122D02*
X008477Y015122D01*
X008391Y015024D02*
X008165Y015024D01*
X008165Y014925D02*
X008391Y014925D01*
X008391Y014827D02*
X008186Y014827D01*
X008285Y014728D02*
X008391Y014728D01*
X008383Y014630D02*
X008391Y014630D01*
X008748Y014717D02*
X008748Y015717D01*
X009028Y015996D01*
X009367Y016009D02*
X010796Y016009D01*
X010796Y016107D02*
X009367Y016107D01*
X009367Y016206D02*
X010796Y016206D01*
X010796Y016304D02*
X009281Y016304D01*
X009367Y015910D02*
X010796Y015910D01*
X010796Y015812D02*
X009367Y015812D01*
X009305Y015713D02*
X010796Y015713D01*
X010796Y015615D02*
X009000Y015615D01*
X008998Y015516D02*
X010756Y015516D01*
X010658Y015418D02*
X008998Y015418D01*
X008998Y015319D02*
X010559Y015319D01*
X010461Y015221D02*
X008998Y015221D01*
X009020Y015122D02*
X010362Y015122D01*
X010264Y015024D02*
X009106Y015024D01*
X009106Y014925D02*
X010165Y014925D01*
X010067Y014827D02*
X009106Y014827D01*
X009106Y014728D02*
X009968Y014728D01*
X009870Y014630D02*
X009142Y014630D01*
X009147Y014531D02*
X009771Y014531D01*
X009673Y014433D02*
X009147Y014433D01*
X009097Y014357D02*
X009457Y014717D01*
X009574Y014334D02*
X009147Y014334D01*
X009097Y014357D02*
X009097Y012045D01*
X008897Y012045D02*
X008894Y012045D01*
X008897Y012045D02*
X008897Y014568D01*
X008748Y014717D01*
X008707Y013994D02*
X007945Y014756D01*
X007945Y016489D01*
X008772Y017315D01*
X008772Y018122D01*
X008752Y018142D01*
X007752Y018142D02*
X007433Y017823D01*
X007433Y014835D01*
X008507Y013761D01*
X008507Y012045D01*
X008707Y012045D02*
X008707Y013994D01*
X009147Y014039D02*
X009279Y014039D01*
X009277Y013940D02*
X009147Y013940D01*
X009147Y013842D02*
X009277Y013842D01*
X009277Y013743D02*
X009147Y013743D01*
X009147Y013645D02*
X009277Y013645D01*
X009277Y013546D02*
X009147Y013546D01*
X009147Y013448D02*
X009277Y013448D01*
X009277Y013349D02*
X009147Y013349D01*
X009147Y013251D02*
X009277Y013251D01*
X009277Y013152D02*
X009147Y013152D01*
X009147Y013054D02*
X009277Y013054D01*
X009277Y012955D02*
X009147Y012955D01*
X009147Y012857D02*
X009277Y012857D01*
X009277Y012758D02*
X009147Y012758D01*
X009147Y012660D02*
X009277Y012660D01*
X009277Y012561D02*
X009147Y012561D01*
X009497Y012045D02*
X009497Y013946D01*
X011016Y015465D01*
X011016Y018111D01*
X011048Y018142D01*
X011537Y018373D02*
X011559Y018373D01*
X011613Y018471D02*
X011482Y018471D01*
X011384Y018570D02*
X011711Y018570D01*
X011906Y018668D02*
X011189Y018668D01*
X012189Y018668D02*
X012906Y018668D01*
X012711Y018570D02*
X012384Y018570D01*
X012482Y018471D02*
X012613Y018471D01*
X012559Y018373D02*
X012537Y018373D01*
X012048Y018142D02*
X012040Y018134D01*
X012040Y016056D01*
X009687Y013703D01*
X009687Y012045D01*
X009887Y012045D02*
X009887Y013155D01*
X013024Y016292D01*
X013024Y018119D01*
X013048Y018142D01*
X013537Y018373D02*
X013559Y018373D01*
X013613Y018471D02*
X013482Y018471D01*
X013384Y018570D02*
X013711Y018570D01*
X013906Y018668D02*
X013189Y018668D01*
X014189Y018668D02*
X014828Y018668D01*
X014669Y018570D02*
X014384Y018570D01*
X014482Y018471D02*
X014570Y018471D01*
X015267Y018668D02*
X015451Y018668D01*
X015451Y018570D02*
X015426Y018570D01*
X015451Y018767D02*
X002400Y018767D01*
X002206Y018865D02*
X015451Y018865D01*
X015701Y018865D02*
X020426Y018865D01*
X020426Y018767D02*
X015701Y018767D01*
X015701Y018668D02*
X020426Y018668D01*
X020426Y018570D02*
X015701Y018570D01*
X015701Y018471D02*
X020426Y018471D01*
X020426Y018373D02*
X015701Y018373D01*
X015701Y018274D02*
X020426Y018274D01*
X020426Y018176D02*
X015701Y018176D01*
X015701Y018077D02*
X020426Y018077D01*
X020426Y017979D02*
X015701Y017979D01*
X015701Y017880D02*
X020426Y017880D01*
X020426Y017782D02*
X015701Y017782D01*
X020686Y017585D02*
X024018Y017585D01*
X023919Y017486D02*
X020686Y017486D01*
X020686Y017388D02*
X023896Y017388D01*
X027591Y016895D02*
X037171Y016895D01*
X037247Y016797D02*
X027591Y016797D01*
X027591Y016698D02*
X037324Y016698D01*
X037424Y016600D02*
X027591Y016600D01*
X021398Y014925D02*
X021264Y014925D01*
X020768Y014925D02*
X020713Y014925D01*
X025578Y011872D02*
X026488Y011872D01*
X030048Y010887D02*
X030395Y010887D01*
X027315Y009606D02*
X025315Y009606D01*
X025273Y009508D02*
X027315Y009508D01*
X027315Y009409D02*
X025174Y009409D01*
X024153Y007242D02*
X027315Y007242D01*
X027315Y007144D02*
X024219Y007144D01*
X024219Y007045D02*
X027315Y007045D01*
X027315Y006947D02*
X024219Y006947D01*
X024219Y006848D02*
X024311Y006848D01*
X023949Y006839D02*
X023949Y006489D01*
X024008Y006430D01*
X024583Y006430D01*
X024951Y006454D02*
X025982Y006454D01*
X025982Y006517D02*
X025982Y006066D01*
X026105Y005943D01*
X026557Y005943D01*
X026680Y006066D01*
X026680Y006517D01*
X026557Y006640D01*
X026105Y006640D01*
X025982Y006517D01*
X026017Y006553D02*
X024951Y006553D01*
X024951Y006651D02*
X027315Y006651D01*
X027315Y006553D02*
X026645Y006553D01*
X026680Y006454D02*
X027315Y006454D01*
X027315Y006356D02*
X026680Y006356D01*
X026680Y006257D02*
X027315Y006257D01*
X027315Y006159D02*
X026680Y006159D01*
X026674Y006060D02*
X027315Y006060D01*
X027315Y005962D02*
X026575Y005962D01*
X026087Y005962D02*
X024742Y005962D01*
X024811Y005892D02*
X024811Y005892D01*
X024840Y005863D02*
X027315Y005863D01*
X027315Y005765D02*
X024939Y005765D01*
X025002Y005701D02*
X025002Y005701D01*
X025037Y005666D02*
X027315Y005666D01*
X027315Y005568D02*
X025100Y005568D01*
X025189Y005469D02*
X027315Y005469D01*
X027315Y005371D02*
X025203Y005371D01*
X025203Y005272D02*
X027315Y005272D01*
X027315Y005174D02*
X025203Y005174D01*
X025203Y005075D02*
X027315Y005075D01*
X027315Y004977D02*
X025177Y004977D01*
X024855Y005229D02*
X024855Y005481D01*
X024591Y005744D01*
X024185Y005744D01*
X023749Y006181D01*
X023749Y006839D01*
X023559Y006839D02*
X023559Y006092D01*
X024091Y005559D01*
X024319Y005559D01*
X024418Y005461D01*
X024418Y005252D01*
X024426Y005225D01*
X023996Y005221D02*
X023996Y005370D01*
X023359Y006008D01*
X023359Y006839D01*
X023159Y006839D02*
X023159Y005917D01*
X023619Y005457D01*
X023619Y004949D01*
X023823Y004744D01*
X024269Y004780D02*
X027315Y004780D01*
X027315Y004878D02*
X024653Y004878D01*
X024269Y004681D02*
X027315Y004681D01*
X027315Y004583D02*
X024269Y004583D01*
X024253Y004484D02*
X027315Y004484D01*
X027315Y004386D02*
X024155Y004386D01*
X023642Y004287D02*
X027315Y004287D01*
X027591Y004287D02*
X029418Y004287D01*
X029418Y004189D02*
X027617Y004189D01*
X027654Y004090D02*
X029418Y004090D01*
X029418Y003992D02*
X027654Y003992D01*
X027654Y003893D02*
X029508Y003893D01*
X029535Y003866D02*
X029978Y003866D01*
X030095Y003984D01*
X030095Y004427D01*
X029978Y004544D01*
X029535Y004544D01*
X029418Y004427D01*
X029418Y003984D01*
X029535Y003866D01*
X029941Y003681D02*
X029941Y003312D01*
X030005Y003248D01*
X030374Y003248D01*
X030438Y003312D01*
X030438Y003336D01*
X030473Y003336D01*
X030473Y003254D01*
X030538Y003190D01*
X031062Y003190D01*
X031126Y003254D01*
X031126Y003739D01*
X031062Y003803D01*
X030538Y003803D01*
X030473Y003739D01*
X030473Y003656D01*
X030438Y003656D01*
X030438Y003681D01*
X030374Y003745D01*
X030005Y003745D01*
X029941Y003681D01*
X029956Y003696D02*
X027642Y003696D01*
X027654Y003795D02*
X030529Y003795D01*
X030473Y003696D02*
X030423Y003696D01*
X030189Y003496D02*
X030800Y003496D01*
X031126Y003499D02*
X032356Y003499D01*
X032356Y003401D02*
X031126Y003401D01*
X031126Y003302D02*
X032356Y003302D01*
X032356Y003204D02*
X031076Y003204D01*
X030524Y003204D02*
X027591Y003204D01*
X027591Y003302D02*
X029951Y003302D01*
X029941Y003401D02*
X027591Y003401D01*
X027591Y003499D02*
X029941Y003499D01*
X029941Y003598D02*
X027591Y003598D01*
X027315Y003499D02*
X023642Y003499D01*
X023642Y003401D02*
X027315Y003401D01*
X027315Y003302D02*
X023642Y003302D01*
X023642Y003204D02*
X027315Y003204D01*
X027315Y003105D02*
X023642Y003105D01*
X023642Y003007D02*
X027315Y003007D01*
X027315Y002908D02*
X027297Y002908D01*
X027591Y002908D02*
X032370Y002908D01*
X032370Y002810D02*
X027591Y002810D01*
X027591Y002711D02*
X032383Y002711D01*
X032482Y002613D02*
X027591Y002613D01*
X027591Y003007D02*
X032370Y003007D01*
X032370Y003105D02*
X027591Y003105D01*
X027073Y003598D02*
X023642Y003598D01*
X023642Y003696D02*
X026974Y003696D01*
X026967Y003795D02*
X023642Y003795D01*
X023642Y003893D02*
X026967Y003893D01*
X026967Y003992D02*
X023642Y003992D01*
X023642Y004090D02*
X026967Y004090D01*
X027000Y004189D02*
X023642Y004189D01*
X022020Y004367D02*
X022020Y004906D01*
X021589Y005337D01*
X021589Y006839D01*
X021389Y006839D02*
X021389Y004943D01*
X021638Y004693D01*
X021189Y004618D02*
X020918Y004544D01*
X021189Y004618D02*
X021189Y006839D01*
X022179Y006839D02*
X022179Y005535D01*
X022603Y005111D01*
X022603Y002563D01*
X022315Y002276D01*
X021247Y002022D02*
X021117Y002022D01*
X021020Y002613D02*
X018498Y002613D01*
X018799Y003401D02*
X019053Y003401D01*
X019053Y003499D02*
X018894Y003499D01*
X018990Y003598D02*
X019053Y003598D01*
X019751Y003696D02*
X021236Y003696D01*
X021192Y003795D02*
X019751Y003795D01*
X019662Y003893D02*
X021192Y003893D01*
X021192Y003992D02*
X019674Y003992D01*
X019773Y004090D02*
X020405Y004090D01*
X020353Y004189D02*
X019871Y004189D01*
X019970Y004287D02*
X020353Y004287D01*
X020353Y004386D02*
X020068Y004386D01*
X020167Y004484D02*
X020353Y004484D01*
X020353Y004583D02*
X020265Y004583D01*
X021638Y003985D02*
X022020Y004367D01*
X023642Y002908D02*
X026704Y002908D01*
X026652Y002810D02*
X023724Y002810D01*
X023823Y002711D02*
X026652Y002711D01*
X026652Y002613D02*
X023921Y002613D01*
X024020Y002514D02*
X026652Y002514D01*
X026652Y002416D02*
X024118Y002416D01*
X024217Y002317D02*
X026739Y002317D01*
X027591Y002219D02*
X036951Y002219D01*
X036917Y002120D02*
X027591Y002120D01*
X027591Y002022D02*
X036883Y002022D01*
X036855Y001923D02*
X027591Y001923D01*
X027591Y001825D02*
X036855Y001825D01*
X036855Y001726D02*
X027591Y001726D01*
X027591Y001628D02*
X036855Y001628D01*
X036855Y001529D02*
X027591Y001529D01*
X027591Y001431D02*
X036882Y001431D01*
X036916Y001332D02*
X027591Y001332D01*
X027591Y001234D02*
X036950Y001234D01*
X036984Y001135D02*
X027591Y001135D01*
X027591Y001037D02*
X037047Y001037D01*
X037123Y000938D02*
X027591Y000938D01*
X027591Y000840D02*
X037200Y000840D01*
X037295Y000741D02*
X027591Y000741D01*
X027591Y000643D02*
X037445Y000643D01*
X037596Y000544D02*
X027591Y000544D01*
X027591Y000446D02*
X037950Y000446D01*
X038291Y000446D02*
X038742Y000446D01*
X038655Y000544D02*
X038913Y000544D01*
X038856Y000632D02*
X038856Y000632D01*
X038867Y000643D02*
X039050Y000643D01*
X038974Y000741D02*
X039149Y000741D01*
X039081Y000840D02*
X039247Y000840D01*
X039180Y000938D02*
X039314Y000938D01*
X039371Y001037D02*
X039233Y001037D01*
X039287Y001135D02*
X039427Y001135D01*
X039470Y001234D02*
X039340Y001234D01*
X039376Y001301D02*
X039376Y001301D01*
X039382Y001332D02*
X039496Y001332D01*
X039523Y001431D02*
X039398Y001431D01*
X039414Y001529D02*
X039549Y001529D01*
X039560Y001628D02*
X039431Y001628D01*
X039447Y001726D02*
X039566Y001726D01*
X039567Y001825D02*
X039430Y001825D01*
X039414Y001923D02*
X039567Y001923D01*
X039567Y002022D02*
X039398Y002022D01*
X039381Y002120D02*
X039567Y002120D01*
X039567Y002219D02*
X039339Y002219D01*
X039376Y002149D02*
X039376Y002149D01*
X039285Y002317D02*
X039567Y002317D01*
X039567Y002416D02*
X039232Y002416D01*
X039179Y002514D02*
X039567Y002514D01*
X039567Y002613D02*
X039078Y002613D01*
X038971Y002711D02*
X039567Y002711D01*
X039567Y002810D02*
X038864Y002810D01*
X038649Y002908D02*
X039567Y002908D01*
X039567Y003007D02*
X038262Y003007D01*
X038462Y002990D02*
X038462Y002990D01*
X038034Y003025D02*
X038034Y003025D01*
X039353Y003664D02*
X039353Y003664D01*
X039529Y003696D02*
X039567Y003696D01*
X039544Y003702D02*
X039544Y003702D01*
X039544Y003702D01*
X039567Y003598D02*
X035056Y003598D01*
X035056Y003499D02*
X039567Y003499D01*
X039567Y003401D02*
X035056Y003401D01*
X035056Y003302D02*
X039567Y003302D01*
X039567Y003204D02*
X035056Y003204D01*
X034965Y003105D02*
X039567Y003105D01*
X039402Y003914D02*
X034933Y003910D01*
X034922Y007430D01*
X036418Y007433D01*
X036422Y007961D01*
X039394Y007961D01*
X039402Y003914D01*
X039402Y003992D02*
X034933Y003992D01*
X034933Y004090D02*
X039402Y004090D01*
X039401Y004189D02*
X034933Y004189D01*
X034932Y004287D02*
X039401Y004287D01*
X039401Y004386D02*
X034932Y004386D01*
X034932Y004484D02*
X039401Y004484D01*
X039401Y004583D02*
X034931Y004583D01*
X034931Y004681D02*
X039400Y004681D01*
X039400Y004780D02*
X034931Y004780D01*
X034930Y004878D02*
X039400Y004878D01*
X039400Y004977D02*
X034930Y004977D01*
X034930Y005075D02*
X039400Y005075D01*
X039400Y005174D02*
X034929Y005174D01*
X034929Y005272D02*
X039399Y005272D01*
X039399Y005371D02*
X034929Y005371D01*
X034928Y005469D02*
X039399Y005469D01*
X039399Y005568D02*
X034928Y005568D01*
X034928Y005666D02*
X039399Y005666D01*
X039398Y005765D02*
X034927Y005765D01*
X034927Y005863D02*
X039398Y005863D01*
X039398Y005962D02*
X034927Y005962D01*
X034926Y006060D02*
X039398Y006060D01*
X039398Y006159D02*
X034926Y006159D01*
X034926Y006257D02*
X039397Y006257D01*
X039397Y006356D02*
X034925Y006356D01*
X034925Y006454D02*
X039397Y006454D01*
X039397Y006553D02*
X034925Y006553D01*
X034924Y006651D02*
X039397Y006651D01*
X039396Y006750D02*
X034924Y006750D01*
X034924Y006848D02*
X039396Y006848D01*
X039396Y006947D02*
X034923Y006947D01*
X034923Y007045D02*
X039396Y007045D01*
X039396Y007144D02*
X034923Y007144D01*
X034922Y007242D02*
X039395Y007242D01*
X039395Y007341D02*
X034922Y007341D01*
X035170Y007790D02*
X035935Y007790D01*
X035937Y007788D01*
X036421Y007833D02*
X039394Y007833D01*
X039395Y007735D02*
X036420Y007735D01*
X036419Y007636D02*
X039395Y007636D01*
X039395Y007538D02*
X036418Y007538D01*
X036418Y007439D02*
X039395Y007439D01*
X039394Y007932D02*
X036421Y007932D01*
X033733Y006981D02*
X033674Y007040D01*
X033626Y007040D02*
X033339Y007040D01*
X033733Y006646D01*
X033733Y006981D01*
X031481Y006981D02*
X031481Y006933D01*
X030981Y006433D01*
X032318Y005666D02*
X027591Y005666D01*
X027591Y005568D02*
X032318Y005568D01*
X032318Y005469D02*
X027591Y005469D01*
X027591Y005371D02*
X032318Y005371D01*
X032318Y005272D02*
X027591Y005272D01*
X027591Y005174D02*
X032318Y005174D01*
X032318Y005075D02*
X027591Y005075D01*
X027591Y004977D02*
X032318Y004977D01*
X032318Y004878D02*
X027591Y004878D01*
X027591Y004780D02*
X032318Y004780D01*
X032318Y004681D02*
X027591Y004681D01*
X027591Y004583D02*
X032318Y004583D01*
X032317Y004484D02*
X030038Y004484D01*
X030095Y004386D02*
X032318Y004386D01*
X032318Y004453D02*
X032318Y004453D01*
X032318Y004287D02*
X030095Y004287D01*
X030095Y004189D02*
X032318Y004189D01*
X032318Y004090D02*
X030095Y004090D01*
X030095Y003992D02*
X032318Y003992D01*
X032318Y003893D02*
X030005Y003893D01*
X029418Y004386D02*
X027591Y004386D01*
X027591Y004484D02*
X029475Y004484D01*
X031071Y003795D02*
X032342Y003795D01*
X032356Y003696D02*
X031126Y003696D01*
X031126Y003598D02*
X032356Y003598D01*
X032709Y003493D02*
X032713Y003496D01*
X033319Y003496D01*
X033319Y004619D01*
X033300Y004638D01*
X033300Y004810D01*
X033208Y004902D01*
X032709Y003493D02*
X032709Y002945D01*
X033048Y002908D02*
X033670Y002908D01*
X033670Y002810D02*
X033048Y002810D01*
X033035Y002711D02*
X033670Y002711D01*
X033741Y002613D02*
X032937Y002613D01*
X033048Y003007D02*
X033670Y003007D01*
X033670Y003105D02*
X033624Y003105D01*
X034008Y002906D02*
X034008Y003477D01*
X033989Y003496D01*
X030473Y003302D02*
X030428Y003302D01*
X027315Y001332D02*
X016158Y001332D01*
X016158Y001234D02*
X027315Y001234D01*
X027315Y001135D02*
X016158Y001135D01*
X016158Y001037D02*
X027315Y001037D01*
X027315Y000938D02*
X016158Y000938D01*
X016158Y000840D02*
X027315Y000840D01*
X027315Y000741D02*
X016158Y000741D01*
X016158Y000643D02*
X027315Y000643D01*
X027315Y000544D02*
X016158Y000544D01*
X016158Y000446D02*
X027315Y000446D01*
X027591Y000347D02*
X038447Y000347D01*
X038462Y000460D02*
X038462Y000460D01*
X037618Y000530D02*
X037618Y000530D01*
X025988Y006060D02*
X024904Y006060D01*
X024951Y006159D02*
X025982Y006159D01*
X025982Y006257D02*
X024951Y006257D01*
X024951Y006356D02*
X025982Y006356D01*
X024951Y006750D02*
X027315Y006750D01*
X027315Y006848D02*
X024855Y006848D01*
X020209Y006839D02*
X020197Y006464D01*
X019638Y006154D02*
X019638Y006119D01*
X019654Y006103D01*
X019658Y006103D01*
X019662Y006107D01*
X019638Y006154D02*
X019619Y006174D01*
X019619Y006839D01*
X018496Y005111D02*
X017882Y004496D01*
X017697Y004496D01*
X017685Y004536D01*
X017552Y004402D01*
X011969Y003115D02*
X011764Y002910D01*
X009008Y003693D02*
X009000Y003686D01*
X008619Y003686D01*
X008619Y003936D02*
X008227Y003936D01*
X008138Y004024D01*
X012667Y001431D02*
X013113Y001431D01*
X012949Y001332D02*
X012766Y001332D01*
X012806Y001234D02*
X012851Y001234D01*
X013502Y001431D02*
X015034Y001431D01*
X014907Y001332D02*
X013666Y001332D01*
X013764Y001234D02*
X014818Y001234D01*
X014777Y001135D02*
X013806Y001135D01*
X013847Y001037D02*
X014737Y001037D01*
X014737Y000938D02*
X013847Y000938D01*
X013847Y000840D02*
X014737Y000840D01*
X014767Y000741D02*
X013815Y000741D01*
X013774Y000643D02*
X014808Y000643D01*
X014884Y000544D02*
X013688Y000544D01*
X013557Y000446D02*
X014983Y000446D01*
X007687Y000544D02*
X007142Y000544D01*
X007241Y000643D02*
X007482Y000643D01*
X007384Y000741D02*
X007298Y000741D01*
X003504Y007697D02*
X003241Y007697D01*
X005307Y009575D02*
X005738Y009145D01*
X006987Y009145D01*
X006987Y009345D02*
X006219Y009345D01*
X005772Y009792D01*
X006081Y009794D02*
X006310Y009565D01*
X006527Y009565D01*
X006527Y009660D01*
X006602Y009735D01*
X006527Y009810D01*
X006527Y010060D01*
X006527Y010075D01*
X006007Y010075D01*
X006081Y010001D01*
X006081Y009794D01*
X006081Y009803D02*
X006534Y009803D01*
X006545Y009735D02*
X006343Y009898D01*
X006527Y009902D02*
X006081Y009902D01*
X006081Y010000D02*
X006527Y010000D01*
X006545Y009735D02*
X006617Y009735D01*
X006615Y009733D01*
X006617Y009735D02*
X006987Y009735D01*
X006571Y009705D02*
X006170Y009705D01*
X006269Y009606D02*
X006527Y009606D01*
X006987Y010325D02*
X003640Y010325D01*
X003248Y010717D01*
X003300Y010768D01*
X003300Y011174D01*
X003587Y011461D01*
X004867Y011461D01*
X004867Y011559D01*
X005662Y012355D01*
X005662Y012591D01*
X005701Y012630D01*
X005713Y012642D01*
X005265Y012561D02*
X004100Y012561D01*
X004100Y012463D02*
X005265Y012463D01*
X005291Y012364D02*
X004043Y012364D01*
X003540Y012364D02*
X003471Y012364D01*
X002735Y012364D02*
X001607Y012364D01*
X001668Y012463D02*
X002697Y012463D01*
X001508Y012266D02*
X005219Y012266D01*
X005121Y012167D02*
X001428Y012167D01*
X001527Y012069D02*
X005022Y012069D01*
X004924Y011970D02*
X001591Y011970D01*
X001632Y011872D02*
X004825Y011872D01*
X004618Y011773D02*
X001654Y011773D01*
X001654Y011675D02*
X003449Y011675D01*
X003348Y011576D02*
X001648Y011576D01*
X001607Y011478D02*
X003250Y011478D01*
X003151Y011379D02*
X001564Y011379D01*
X001466Y011281D02*
X003073Y011281D01*
X003050Y011182D02*
X001311Y011182D01*
X000858Y011182D02*
X000320Y011182D01*
X000320Y011084D02*
X002938Y011084D01*
X002891Y010985D02*
X000320Y010985D01*
X000320Y010887D02*
X002891Y010887D01*
X002891Y010788D02*
X000320Y010788D01*
X000320Y010690D02*
X002891Y010690D01*
X002891Y010591D02*
X000320Y010591D01*
X000320Y010493D02*
X002891Y010493D01*
X002895Y010394D02*
X000320Y010394D01*
X000320Y010296D02*
X002993Y010296D01*
X003629Y010690D02*
X005428Y010690D01*
X005428Y010788D02*
X003606Y010788D01*
X003606Y010887D02*
X005428Y010887D01*
X005455Y010985D02*
X003606Y010985D01*
X003563Y011084D02*
X005892Y011084D01*
X005892Y011182D02*
X005148Y011182D01*
X005205Y011281D02*
X005892Y011281D01*
X005932Y011379D02*
X005205Y011379D01*
X005205Y011478D02*
X006564Y011478D01*
X006527Y011379D02*
X006470Y011379D01*
X006216Y011115D02*
X006201Y011130D01*
X006216Y011115D02*
X006987Y011115D01*
X006990Y010918D02*
X006987Y010915D01*
X006990Y010918D02*
X007764Y010918D01*
X007511Y011182D02*
X007447Y011182D01*
X007447Y010690D02*
X007474Y010690D01*
X006987Y010725D02*
X006987Y010725D01*
X005752Y010725D01*
X005737Y010741D01*
X005737Y010748D01*
X005428Y010591D02*
X003728Y010591D01*
X003662Y011182D02*
X004585Y011182D01*
X005237Y011576D02*
X008738Y011576D01*
X009056Y011576D02*
X009523Y011576D01*
X010087Y012045D02*
X010087Y012883D01*
X011670Y014465D01*
X012465Y014465D01*
X012532Y014398D01*
X011922Y014398D01*
X011867Y014343D01*
X011991Y014039D02*
X012205Y014039D01*
X012106Y013940D02*
X012090Y013940D01*
X011514Y014039D02*
X011082Y014039D01*
X010983Y013940D02*
X011415Y013940D01*
X010984Y013842D02*
X010885Y013842D01*
X010886Y013743D02*
X010786Y013743D01*
X010787Y013645D02*
X010688Y013645D01*
X010689Y013546D02*
X010589Y013546D01*
X010590Y013448D02*
X010491Y013448D01*
X010492Y013349D02*
X010392Y013349D01*
X010393Y013251D02*
X010294Y013251D01*
X010295Y013152D02*
X010195Y013152D01*
X010196Y013054D02*
X010107Y013054D01*
X010277Y012781D02*
X011185Y013689D01*
X011725Y013689D01*
X011752Y013717D01*
X011725Y013689D02*
X012532Y013689D01*
X012008Y013185D02*
X011638Y012815D01*
X010953Y012815D01*
X010677Y012539D01*
X010677Y012045D01*
X010481Y012049D02*
X010477Y012045D01*
X010481Y012049D02*
X010481Y012678D01*
X011075Y013272D01*
X011307Y013272D01*
X010277Y012781D02*
X010277Y012045D01*
X013284Y012985D02*
X013374Y013075D01*
X013374Y013367D01*
X013716Y013940D02*
X013782Y013940D01*
X009476Y014236D02*
X009147Y014236D01*
X009147Y014137D02*
X009377Y014137D01*
X007748Y018138D02*
X007752Y018142D01*
X001607Y016166D02*
X001607Y016166D01*
X001357Y016206D02*
X000320Y016206D01*
X000320Y016304D02*
X001032Y016304D01*
X000839Y016403D02*
X000320Y016403D01*
X000320Y016501D02*
X000706Y016501D01*
X000608Y016600D02*
X000320Y016600D01*
X000320Y016698D02*
X000509Y016698D01*
X000454Y016753D02*
X000454Y016753D01*
X000432Y016797D02*
X000320Y016797D01*
X000320Y016895D02*
X000382Y016895D01*
X000331Y016994D02*
X000320Y016994D01*
X000320Y013152D02*
X000867Y013152D01*
X000769Y013054D02*
X000320Y013054D01*
X000320Y012955D02*
X000703Y012955D01*
X000662Y012857D02*
X000320Y012857D01*
X000320Y012758D02*
X000644Y012758D01*
X000644Y012660D02*
X000320Y012660D01*
X000320Y012561D02*
X000659Y012561D01*
X000700Y012463D02*
X000320Y012463D01*
X000320Y012364D02*
X000762Y012364D01*
X000860Y012266D02*
X000320Y012266D01*
X000320Y012167D02*
X000740Y012167D01*
X000642Y012069D02*
X000320Y012069D01*
X000320Y011970D02*
X000577Y011970D01*
X000536Y011872D02*
X000320Y011872D01*
X000320Y011773D02*
X000514Y011773D01*
X000514Y011675D02*
X000320Y011675D01*
X000320Y011576D02*
X000521Y011576D01*
X000562Y011478D02*
X000320Y011478D01*
X000320Y011379D02*
X000604Y011379D01*
X000703Y011281D02*
X000320Y011281D01*
X019819Y009839D02*
X019893Y009914D01*
X019914Y009914D01*
X020009Y009839D02*
X019819Y009839D01*
X035547Y017289D02*
X037003Y017289D01*
X036973Y017388D02*
X035714Y017388D01*
X035813Y017486D02*
X036973Y017486D01*
X036973Y017585D02*
X035900Y017585D01*
X035941Y017683D02*
X036973Y017683D01*
X036973Y017782D02*
X035981Y017782D01*
X036015Y017880D02*
X036999Y017880D01*
X037032Y017979D02*
X036015Y017979D01*
X036015Y018077D02*
X037066Y018077D01*
X037100Y018176D02*
X036015Y018176D01*
X035978Y018274D02*
X037161Y018274D01*
X037237Y018373D02*
X035937Y018373D01*
X035897Y018471D02*
X037314Y018471D01*
X037376Y018551D02*
X037376Y018551D01*
X037405Y018570D02*
X035805Y018570D01*
X035707Y018668D02*
X037555Y018668D01*
X037706Y018767D02*
X035529Y018767D01*
X037736Y018786D02*
X037736Y018786D01*
X038785Y018767D02*
X038884Y018767D01*
X038974Y018683D02*
X038974Y018683D01*
X038991Y018668D02*
X039055Y018668D01*
X039098Y018570D02*
X039169Y018570D01*
X039205Y018471D02*
X039267Y018471D01*
X039290Y018392D02*
X039290Y018392D01*
X039301Y018373D02*
X039345Y018373D01*
X039354Y018274D02*
X039402Y018274D01*
X039407Y018176D02*
X039459Y018176D01*
X039461Y018077D02*
X039493Y018077D01*
X039495Y018015D02*
X039495Y018015D01*
X039501Y017979D02*
X039520Y017979D01*
X039517Y017880D02*
X039546Y017880D01*
X039533Y017782D02*
X039560Y017782D01*
X039564Y017585D02*
X039567Y017585D01*
X039567Y017486D02*
X039548Y017486D01*
X039531Y017388D02*
X039567Y017388D01*
X039567Y017289D02*
X039515Y017289D01*
X039498Y017191D02*
X039567Y017191D01*
X039495Y017167D02*
X039495Y017167D01*
X039454Y017092D02*
X039567Y017092D01*
X039567Y016994D02*
X039401Y016994D01*
X039347Y016895D02*
X039567Y016895D01*
X039567Y016797D02*
X039294Y016797D01*
X039191Y016698D02*
X039567Y016698D01*
X039567Y016600D02*
X039084Y016600D01*
X038977Y016501D02*
X039567Y016501D01*
X039567Y016403D02*
X038755Y016403D01*
X038581Y016326D02*
X038581Y016326D01*
X038974Y016498D02*
X038974Y016498D01*
X039471Y014774D02*
X039471Y014774D01*
X023019Y001431D02*
X022596Y001431D01*
X022763Y001529D02*
X022931Y001529D01*
D43*
X023300Y001725D03*
X023890Y001725D03*
X024441Y001725D03*
X025741Y001725D03*
X026528Y001725D03*
X026528Y002512D03*
X027000Y002630D03*
X025741Y002512D03*
X024953Y002512D03*
X024953Y003300D03*
X024166Y003300D03*
X024953Y004087D03*
X025741Y004087D03*
X026528Y004087D03*
X027315Y003930D03*
X026528Y003300D03*
X025741Y003300D03*
X025741Y004874D03*
X026528Y004874D03*
X026528Y005662D03*
X026331Y006292D03*
X026331Y007040D03*
X025032Y007552D03*
X024244Y007552D03*
X023457Y007552D03*
X022374Y007847D03*
X022079Y007847D03*
X021784Y007847D03*
X021489Y007847D03*
X021193Y007847D03*
X020898Y007847D03*
X020603Y007847D03*
X020603Y008142D03*
X020898Y008142D03*
X021193Y008142D03*
X021193Y008437D03*
X020898Y008437D03*
X020603Y008437D03*
X020603Y008733D03*
X020898Y008733D03*
X021193Y008733D03*
X021489Y008733D03*
X021784Y008733D03*
X022079Y008733D03*
X022374Y008733D03*
X022374Y008437D03*
X022079Y008437D03*
X022079Y008142D03*
X021784Y008142D03*
X021784Y008437D03*
X021489Y008437D03*
X021489Y008142D03*
X022374Y008142D03*
X023457Y008339D03*
X024244Y008339D03*
X025032Y008339D03*
X025032Y009126D03*
X024244Y009126D03*
X023457Y009126D03*
X024520Y010662D03*
X026737Y012197D03*
X026737Y012689D03*
X026737Y013162D03*
X026737Y013571D03*
X026737Y014063D03*
X026737Y014563D03*
X025701Y014563D03*
X025701Y015111D03*
X025701Y015701D03*
X026528Y015741D03*
X025701Y016292D03*
X026528Y016528D03*
X028300Y016489D03*
X028300Y015701D03*
X031725Y015111D03*
X034284Y015819D03*
X034874Y015819D03*
X035465Y015819D03*
X036449Y015819D03*
X037945Y015898D03*
X038536Y015898D03*
X039126Y015898D03*
X039126Y015307D03*
X038536Y015307D03*
X037945Y015307D03*
X038851Y014323D03*
X039126Y014323D03*
X039126Y014048D03*
X038851Y014048D03*
X038851Y013772D03*
X039126Y013772D03*
X039126Y013496D03*
X039126Y013221D03*
X038851Y013221D03*
X038851Y013496D03*
X038851Y012945D03*
X038851Y012670D03*
X039126Y012670D03*
X039126Y012945D03*
X039126Y012394D03*
X038851Y012394D03*
X038575Y012394D03*
X038300Y012394D03*
X038024Y012394D03*
X037748Y012394D03*
X037473Y012394D03*
X037197Y012394D03*
X036922Y012394D03*
X036922Y012119D03*
X037197Y012119D03*
X037473Y012119D03*
X037748Y012119D03*
X038024Y012119D03*
X038300Y012119D03*
X038575Y012119D03*
X038851Y012119D03*
X039126Y012119D03*
X038024Y011843D03*
X037748Y011843D03*
X037473Y011843D03*
X037197Y011843D03*
X036922Y011843D03*
X036646Y011843D03*
X036370Y011843D03*
X036095Y011843D03*
X035819Y011843D03*
X035819Y011567D03*
X035819Y011292D03*
X035819Y011016D03*
X035819Y010741D03*
X036095Y010741D03*
X036370Y010741D03*
X036646Y010741D03*
X036922Y010741D03*
X037197Y010741D03*
X037473Y010741D03*
X037748Y010741D03*
X038024Y010741D03*
X038024Y011016D03*
X037748Y011016D03*
X037473Y011016D03*
X037197Y011016D03*
X036922Y011016D03*
X036646Y011016D03*
X036370Y011016D03*
X036095Y011016D03*
X036095Y011292D03*
X036095Y011567D03*
X036370Y011567D03*
X036370Y011292D03*
X036646Y011292D03*
X036646Y011567D03*
X036922Y011567D03*
X037197Y011567D03*
X037197Y011292D03*
X036922Y011292D03*
X037473Y011292D03*
X037473Y011567D03*
X037748Y011567D03*
X037748Y011292D03*
X038024Y011292D03*
X038024Y011567D03*
X036331Y012315D03*
X035859Y012315D03*
X035969Y010142D03*
X035969Y009867D03*
X036244Y009867D03*
X036244Y010142D03*
X036520Y010142D03*
X036520Y009867D03*
X036796Y009867D03*
X036796Y010142D03*
X037071Y010142D03*
X037071Y009867D03*
X037347Y009867D03*
X037347Y010142D03*
X037622Y010142D03*
X037622Y009867D03*
X037898Y009867D03*
X037898Y010142D03*
X037898Y009591D03*
X037622Y009591D03*
X037347Y009591D03*
X037347Y009315D03*
X037622Y009315D03*
X037898Y009315D03*
X037898Y009040D03*
X037622Y009040D03*
X037347Y009040D03*
X037071Y009040D03*
X036796Y009040D03*
X036796Y008764D03*
X037071Y008764D03*
X037347Y008764D03*
X037622Y008764D03*
X037898Y008764D03*
X037898Y008489D03*
X037622Y008489D03*
X037347Y008489D03*
X037071Y008489D03*
X036796Y008489D03*
X036520Y008489D03*
X036244Y008489D03*
X035969Y008489D03*
X035693Y008489D03*
X035418Y008489D03*
X035142Y008489D03*
X034867Y008489D03*
X034591Y008489D03*
X034315Y008489D03*
X034040Y008489D03*
X033764Y008489D03*
X033489Y008489D03*
X033213Y008489D03*
X032937Y008489D03*
X032937Y008764D03*
X032937Y009040D03*
X033213Y009040D03*
X033489Y009040D03*
X033764Y009040D03*
X034040Y009040D03*
X034315Y009040D03*
X034315Y008764D03*
X034040Y008764D03*
X033764Y008764D03*
X033489Y008764D03*
X033213Y008764D03*
X033213Y009315D03*
X033489Y009315D03*
X033764Y009315D03*
X034040Y009315D03*
X034315Y009315D03*
X034315Y009591D03*
X034040Y009591D03*
X033764Y009591D03*
X033489Y009591D03*
X033213Y009591D03*
X032937Y009591D03*
X032937Y009315D03*
X032937Y009867D03*
X032937Y010142D03*
X033213Y010142D03*
X033213Y009867D03*
X033489Y009867D03*
X033489Y010142D03*
X033764Y010142D03*
X033764Y009867D03*
X034040Y009867D03*
X034040Y010142D03*
X034315Y010142D03*
X034315Y009867D03*
X034591Y009867D03*
X034591Y010142D03*
X034867Y010142D03*
X035142Y010142D03*
X035142Y009867D03*
X034867Y009867D03*
X035418Y009867D03*
X035418Y010142D03*
X035693Y010142D03*
X035693Y009867D03*
X035693Y009591D03*
X035418Y009591D03*
X035418Y009315D03*
X035693Y009315D03*
X035969Y009315D03*
X036244Y009315D03*
X036244Y009591D03*
X035969Y009591D03*
X036520Y009591D03*
X036520Y009315D03*
X036796Y009315D03*
X037071Y009315D03*
X037071Y009591D03*
X036796Y009591D03*
X036520Y009040D03*
X036244Y009040D03*
X035969Y009040D03*
X035693Y009040D03*
X035418Y009040D03*
X035418Y008764D03*
X035693Y008764D03*
X035969Y008764D03*
X036244Y008764D03*
X036520Y008764D03*
X035142Y008764D03*
X034867Y008764D03*
X034867Y009040D03*
X035142Y009040D03*
X034591Y009040D03*
X034591Y008764D03*
X034591Y009315D03*
X034867Y009315D03*
X035142Y009315D03*
X035142Y009591D03*
X034867Y009591D03*
X034591Y009591D03*
X035937Y007788D03*
X036685Y007713D03*
X036685Y007437D03*
X036685Y007162D03*
X036410Y007162D03*
X036134Y007162D03*
X035859Y007162D03*
X035859Y006886D03*
X036134Y006886D03*
X036134Y006611D03*
X035859Y006611D03*
X036410Y006611D03*
X036410Y006886D03*
X036685Y006886D03*
X036685Y006611D03*
X036961Y006611D03*
X036961Y006886D03*
X037237Y006886D03*
X037512Y006886D03*
X037512Y006611D03*
X037237Y006611D03*
X037237Y006335D03*
X037512Y006335D03*
X037512Y006059D03*
X037237Y006059D03*
X036961Y006059D03*
X036685Y006059D03*
X036410Y006059D03*
X036134Y006059D03*
X035859Y006059D03*
X035859Y006335D03*
X036134Y006335D03*
X036410Y006335D03*
X036685Y006335D03*
X036961Y006335D03*
X037788Y006335D03*
X038063Y006335D03*
X038063Y006059D03*
X037788Y006059D03*
X038339Y006059D03*
X038615Y006059D03*
X038890Y006059D03*
X039166Y006059D03*
X039166Y006335D03*
X038890Y006335D03*
X038615Y006335D03*
X038339Y006335D03*
X038339Y006611D03*
X038615Y006611D03*
X038890Y006611D03*
X039166Y006611D03*
X038063Y006611D03*
X037788Y006611D03*
X037788Y006886D03*
X038063Y006886D03*
X038063Y007162D03*
X037788Y007162D03*
X037788Y007437D03*
X038063Y007437D03*
X038063Y007713D03*
X037788Y007713D03*
X037512Y007713D03*
X037237Y007713D03*
X037237Y007437D03*
X037237Y007162D03*
X037512Y007162D03*
X037512Y007437D03*
X036961Y007437D03*
X036961Y007162D03*
X036961Y007713D03*
X037237Y005784D03*
X037512Y005784D03*
X037512Y005508D03*
X037512Y005233D03*
X037237Y005233D03*
X037237Y005508D03*
X037788Y005508D03*
X037788Y005233D03*
X038063Y005233D03*
X038063Y005508D03*
X038063Y005784D03*
X037788Y005784D03*
X038339Y005784D03*
X038615Y005784D03*
X038890Y005784D03*
X038890Y005508D03*
X038890Y005233D03*
X038615Y005233D03*
X038615Y005508D03*
X038339Y005508D03*
X038339Y005233D03*
X038339Y004957D03*
X038339Y004681D03*
X038615Y004681D03*
X038890Y004681D03*
X039166Y004681D03*
X039166Y004957D03*
X038890Y004957D03*
X038615Y004957D03*
X038063Y004957D03*
X037788Y004957D03*
X037788Y004681D03*
X038063Y004681D03*
X037512Y004681D03*
X037237Y004681D03*
X037237Y004957D03*
X037512Y004957D03*
X037512Y004406D03*
X037237Y004406D03*
X037788Y004406D03*
X038063Y004406D03*
X038339Y004406D03*
X038615Y004406D03*
X038890Y004406D03*
X039166Y004406D03*
X039166Y005233D03*
X039166Y005508D03*
X039166Y005784D03*
X034717Y003418D03*
X034008Y002906D03*
X032709Y002945D03*
X030189Y003496D03*
X029756Y004205D03*
X024855Y005229D03*
X024426Y005225D03*
X023996Y005221D03*
X020032Y003575D03*
X019402Y003575D03*
X019402Y002945D03*
X020032Y002945D03*
X021567Y002276D03*
X022315Y002276D03*
X022315Y001725D03*
X022591Y000937D03*
X023378Y000937D03*
X024166Y000937D03*
X024953Y000937D03*
X025741Y000937D03*
X026528Y000937D03*
X028300Y001134D03*
X028300Y001725D03*
X029284Y001725D03*
X030268Y001725D03*
X030268Y001134D03*
X029284Y001134D03*
X031252Y001134D03*
X032237Y001134D03*
X033221Y001134D03*
X033221Y001725D03*
X032237Y001725D03*
X031252Y001725D03*
X034205Y001725D03*
X035189Y001725D03*
X035189Y001134D03*
X034205Y001134D03*
X021804Y000937D03*
X021016Y000937D03*
X020229Y000937D03*
X019441Y000937D03*
X018654Y000937D03*
X017827Y000937D03*
X017079Y000937D03*
X017827Y001725D03*
X018654Y001725D03*
X019441Y001725D03*
X020229Y001725D03*
X018260Y002276D03*
X015504Y004402D03*
X013890Y005150D03*
X014323Y005347D03*
X015111Y005347D03*
X015426Y006528D03*
X018339Y006449D03*
X018733Y007552D03*
X019520Y007552D03*
X019520Y008339D03*
X018733Y008339D03*
X017945Y008339D03*
X017158Y008339D03*
X017945Y009126D03*
X018733Y009126D03*
X019520Y009126D03*
X017079Y011174D03*
X016489Y011174D03*
X016489Y011961D03*
X017079Y011961D03*
X017079Y012748D03*
X016489Y012748D03*
X017867Y012748D03*
X018733Y012394D03*
X016489Y013811D03*
X016489Y014520D03*
X017079Y014520D03*
X015465Y015622D03*
X014528Y014870D03*
X011851Y014319D03*
X011752Y013717D03*
X012008Y013185D03*
X011307Y013272D03*
X014914Y013040D03*
X019205Y014874D03*
X019835Y014599D03*
X020465Y014599D03*
X021016Y014599D03*
X021646Y014599D03*
X024835Y013969D03*
X029638Y011646D03*
X029638Y011134D03*
X026764Y008575D03*
X026764Y007827D03*
X030189Y008457D03*
X018496Y005111D03*
X013800Y002150D03*
X012040Y002355D03*
X011969Y003115D03*
X011961Y003693D03*
X008130Y005024D03*
X007611Y005016D03*
X006792Y004996D03*
X005662Y005268D03*
X005780Y007004D03*
X004748Y007040D03*
X004256Y007347D03*
X003441Y007008D03*
X001930Y006835D03*
X007197Y007315D03*
X008733Y008339D03*
X010111Y008890D03*
X010662Y009244D03*
X009874Y009363D03*
X009284Y009874D03*
X009359Y010449D03*
X008595Y010957D03*
X007764Y010918D03*
X006201Y011130D03*
X005737Y010748D03*
X006343Y009898D03*
X005772Y009792D03*
X005307Y009575D03*
X004343Y010882D03*
X004867Y011461D03*
X003142Y011843D03*
X002355Y011843D03*
X003792Y012630D03*
X002552Y014205D03*
X002552Y014638D03*
X002552Y015071D03*
X002000Y015071D03*
X001449Y015071D03*
X000898Y015071D03*
X000898Y014638D03*
X001449Y014638D03*
X002000Y014638D03*
X002000Y014205D03*
X001449Y014205D03*
X000898Y014205D03*
X009028Y015996D03*
X016331Y018496D03*
X016607Y018496D03*
X016882Y018496D03*
X017158Y018496D03*
X017433Y018496D03*
X017709Y018496D03*
X017985Y018496D03*
X018260Y018496D03*
X018536Y018496D03*
X018811Y018496D03*
X021804Y016922D03*
X022591Y016922D03*
X022591Y017709D03*
X023378Y017709D03*
X024166Y017709D03*
X024244Y017237D03*
X024953Y017709D03*
X025741Y017709D03*
X026528Y017709D03*
X026528Y018496D03*
X025741Y018496D03*
X024953Y018496D03*
X024166Y018496D03*
X023378Y018496D03*
X022591Y018496D03*
X028300Y018260D03*
X028890Y018260D03*
X028890Y017670D03*
X028300Y017670D03*
X030662Y017670D03*
X031252Y017670D03*
X031252Y018260D03*
X030662Y018260D03*
X012040Y010741D03*
X010583Y010701D03*
X010493Y010063D03*
X009756Y011292D03*
X013402Y008615D03*
X012158Y008260D03*
X011843Y007355D03*
X010268Y008300D03*
X010819Y008378D03*
X002119Y003300D03*
X003300Y002493D03*
X005402Y003217D03*
D44*
X007496Y002678D03*
X014772Y002563D03*
D45*
X004754Y006214D02*
X004754Y007034D01*
X004748Y007040D01*
D46*
X013461Y011752D03*
D47*
X018559Y013630D02*
X018559Y014985D01*
X018559Y015599D01*
X018839Y015878D01*
X019567Y015878D01*
X018559Y015599D02*
X018418Y015741D01*
X018559Y013630D02*
X019914Y012276D01*
X019914Y009914D01*
X019323Y010091D02*
X019323Y010638D01*
X019229Y010733D01*
X019229Y011374D01*
X019083Y011520D01*
X019083Y012044D01*
X018733Y012394D01*
D48*
X024149Y007552D02*
X024244Y007552D01*
X024149Y007552D02*
X024149Y006839D01*
M02*
