G75*
%MOIN*%
%OFA0B0*%
%FSLAX24Y24*%
%IPPOS*%
%LPD*%
%AMOC8*
5,1,8,0,0,1.08239X$1,22.5*
%
%ADD10C,0.0079*%
%ADD11C,0.0020*%
%ADD12C,0.0030*%
D10*
X008084Y012605D02*
X008381Y012847D01*
X008440Y012814D01*
X008501Y012786D01*
X008670Y013195D01*
X008606Y013229D01*
X008550Y013275D01*
X008505Y013331D01*
X008470Y013395D01*
X008449Y013464D01*
X008442Y013536D01*
X008449Y013608D01*
X008470Y013677D01*
X008505Y013741D01*
X008550Y013797D01*
X008606Y013843D01*
X008670Y013877D01*
X008739Y013898D01*
X008811Y013905D01*
X008883Y013898D01*
X008953Y013877D01*
X009016Y013843D01*
X009072Y013797D01*
X009118Y013741D01*
X009152Y013677D01*
X009173Y013608D01*
X009181Y013536D01*
X009173Y013464D01*
X009152Y013395D01*
X009118Y013331D01*
X009072Y013275D01*
X009016Y013229D01*
X008953Y013195D01*
X009122Y012786D01*
X009183Y012814D01*
X009242Y012847D01*
X009539Y012605D01*
X009742Y012809D01*
X009500Y013106D01*
X009543Y013184D01*
X009578Y013267D01*
X009603Y013353D01*
X009984Y013392D01*
X009984Y013680D01*
X009603Y013718D01*
X009578Y013805D01*
X009543Y013888D01*
X009500Y013966D01*
X009742Y014263D01*
X009539Y014467D01*
X009242Y014224D01*
X009163Y014268D01*
X009080Y014302D01*
X008994Y014327D01*
X008955Y014708D01*
X008667Y014708D01*
X008629Y014327D01*
X008543Y014302D01*
X008460Y014268D01*
X008381Y014224D01*
X008084Y014467D01*
X007881Y014263D01*
X008123Y013966D01*
X008080Y013888D01*
X008045Y013805D01*
X008020Y013718D01*
X007639Y013680D01*
X007639Y013392D01*
X008020Y013353D01*
X008045Y013267D01*
X008080Y013184D01*
X008123Y013106D01*
X007881Y012809D01*
X008084Y012605D01*
X008026Y012663D02*
X008155Y012663D01*
X008250Y012740D02*
X007949Y012740D01*
X007888Y012817D02*
X008345Y012817D01*
X008433Y012817D02*
X008514Y012817D01*
X008546Y012895D02*
X007951Y012895D01*
X008014Y012972D02*
X008578Y012972D01*
X008610Y013049D02*
X008077Y013049D01*
X008111Y013126D02*
X008642Y013126D01*
X008654Y013204D02*
X008071Y013204D01*
X008041Y013281D02*
X008545Y013281D01*
X008490Y013358D02*
X007972Y013358D01*
X007639Y013435D02*
X008458Y013435D01*
X008445Y013513D02*
X007639Y013513D01*
X007639Y013590D02*
X008448Y013590D01*
X008467Y013667D02*
X007639Y013667D01*
X008028Y013744D02*
X008507Y013744D01*
X008581Y013822D02*
X008052Y013822D01*
X008086Y013899D02*
X008749Y013899D01*
X008874Y013899D02*
X009537Y013899D01*
X009508Y013976D02*
X008115Y013976D01*
X008052Y014053D02*
X009571Y014053D01*
X009634Y014131D02*
X007989Y014131D01*
X007926Y014208D02*
X009697Y014208D01*
X009720Y014285D02*
X009316Y014285D01*
X009411Y014362D02*
X009643Y014362D01*
X009566Y014439D02*
X009505Y014439D01*
X009121Y014285D02*
X008501Y014285D01*
X008632Y014362D02*
X008991Y014362D01*
X008983Y014439D02*
X008640Y014439D01*
X008648Y014517D02*
X008975Y014517D01*
X008967Y014594D02*
X008656Y014594D01*
X008664Y014671D02*
X008959Y014671D01*
X008307Y014285D02*
X007903Y014285D01*
X007980Y014362D02*
X008212Y014362D01*
X008117Y014439D02*
X008057Y014439D01*
X009042Y013822D02*
X009571Y013822D01*
X009595Y013744D02*
X009115Y013744D01*
X009155Y013667D02*
X009984Y013667D01*
X009984Y013590D02*
X009175Y013590D01*
X009178Y013513D02*
X009984Y013513D01*
X009984Y013435D02*
X009165Y013435D01*
X009133Y013358D02*
X009651Y013358D01*
X009582Y013281D02*
X009077Y013281D01*
X008969Y013204D02*
X009551Y013204D01*
X009512Y013126D02*
X008981Y013126D01*
X009013Y013049D02*
X009546Y013049D01*
X009609Y012972D02*
X009045Y012972D01*
X009077Y012895D02*
X009672Y012895D01*
X009735Y012817D02*
X009278Y012817D01*
X009189Y012817D02*
X009109Y012817D01*
X009373Y012740D02*
X009674Y012740D01*
X009596Y012663D02*
X009468Y012663D01*
D11*
X006019Y003073D02*
X005945Y003073D01*
X005982Y003073D02*
X005982Y003294D01*
X006019Y003294D01*
X006129Y003220D02*
X006093Y003183D01*
X006093Y003073D01*
X006240Y003073D02*
X006240Y003294D01*
X006203Y003220D02*
X006129Y003220D01*
X006203Y003220D02*
X006240Y003183D01*
X006314Y003183D02*
X006350Y003220D01*
X006424Y003220D01*
X006461Y003183D01*
X006461Y003110D01*
X006424Y003073D01*
X006350Y003073D01*
X006314Y003110D01*
X006314Y003183D01*
X006535Y003294D02*
X006682Y003073D01*
X006756Y003073D02*
X006866Y003073D01*
X006903Y003110D01*
X006903Y003183D01*
X006866Y003220D01*
X006756Y003220D01*
X006756Y003037D01*
X006792Y003000D01*
X006829Y003000D01*
X006977Y003220D02*
X007013Y003220D01*
X007087Y003147D01*
X007087Y003220D02*
X007087Y003073D01*
X007161Y003110D02*
X007198Y003073D01*
X007271Y003073D01*
X007308Y003110D01*
X007308Y003183D01*
X007271Y003220D01*
X007198Y003220D01*
X007161Y003183D01*
X007161Y003110D01*
X007381Y003110D02*
X007381Y003073D01*
X007418Y003073D01*
X007418Y003110D01*
X007381Y003110D01*
X007492Y003220D02*
X007529Y003220D01*
X007602Y003147D01*
X007602Y003220D02*
X007602Y003073D01*
X007677Y003110D02*
X007713Y003073D01*
X007823Y003073D01*
X007823Y003000D02*
X007823Y003220D01*
X007713Y003220D01*
X007677Y003183D01*
X007677Y003110D01*
X007898Y003073D02*
X008008Y003073D01*
X008044Y003110D01*
X008008Y003147D01*
X007898Y003147D01*
X007898Y003183D02*
X007898Y003073D01*
X007898Y003183D02*
X007934Y003220D01*
X008008Y003220D01*
X008118Y003220D02*
X008192Y003220D01*
X008155Y003257D02*
X008155Y003110D01*
X008118Y003073D01*
X008265Y003073D02*
X008302Y003073D01*
X008302Y003110D01*
X008265Y003110D01*
X008265Y003073D01*
X008376Y003110D02*
X008413Y003073D01*
X008450Y003110D01*
X008486Y003073D01*
X008523Y003110D01*
X008523Y003220D01*
X008597Y003220D02*
X008597Y003110D01*
X008634Y003073D01*
X008671Y003110D01*
X008707Y003073D01*
X008744Y003110D01*
X008744Y003220D01*
X008818Y003220D02*
X008818Y003110D01*
X008855Y003073D01*
X008892Y003110D01*
X008928Y003073D01*
X008965Y003110D01*
X008965Y003220D01*
X009039Y003294D02*
X009186Y003073D01*
X009407Y003073D02*
X009260Y003294D01*
X009481Y003220D02*
X009481Y003183D01*
X009518Y003183D01*
X009518Y003220D01*
X009481Y003220D01*
X009481Y003110D02*
X009481Y003073D01*
X009518Y003073D01*
X009518Y003110D01*
X009481Y003110D01*
X009592Y003110D02*
X009628Y003073D01*
X009739Y003073D01*
X009739Y003000D02*
X009739Y003220D01*
X009628Y003220D01*
X009592Y003183D01*
X009592Y003110D01*
X009812Y003073D02*
X009849Y003110D01*
X009849Y003257D01*
X009886Y003220D02*
X009812Y003220D01*
X009960Y003220D02*
X010033Y003220D01*
X009996Y003257D02*
X009996Y003110D01*
X009960Y003073D01*
X010107Y003073D02*
X010107Y003183D01*
X010144Y003220D01*
X010217Y003220D01*
X010254Y003183D01*
X010254Y003073D02*
X010254Y003294D01*
X010261Y003672D02*
X010151Y003672D01*
X010115Y003709D01*
X010151Y003745D01*
X010225Y003745D01*
X010261Y003782D01*
X010225Y003819D01*
X010115Y003819D01*
X010040Y003782D02*
X010004Y003819D01*
X009930Y003819D01*
X009894Y003782D01*
X009894Y003745D01*
X010040Y003745D01*
X010040Y003709D02*
X010040Y003782D01*
X010040Y003709D02*
X010004Y003672D01*
X009930Y003672D01*
X009819Y003709D02*
X009783Y003672D01*
X009673Y003672D01*
X009673Y003892D01*
X009673Y003819D02*
X009783Y003819D01*
X009819Y003782D01*
X009819Y003709D01*
X009377Y003709D02*
X009341Y003672D01*
X009231Y003672D01*
X009231Y003819D01*
X009156Y003819D02*
X009046Y003819D01*
X009010Y003782D01*
X009010Y003672D01*
X008935Y003709D02*
X008935Y003782D01*
X008899Y003819D01*
X008789Y003819D01*
X008789Y003892D02*
X008789Y003672D01*
X008899Y003672D01*
X008935Y003709D01*
X008714Y003709D02*
X008678Y003672D01*
X008604Y003672D01*
X008568Y003745D02*
X008714Y003745D01*
X008714Y003709D02*
X008714Y003782D01*
X008678Y003819D01*
X008604Y003819D01*
X008568Y003782D01*
X008568Y003745D01*
X008493Y003745D02*
X008420Y003819D01*
X008383Y003819D01*
X008493Y003819D02*
X008493Y003672D01*
X008088Y003819D02*
X008015Y003819D01*
X008052Y003855D02*
X008052Y003709D01*
X008015Y003672D01*
X007941Y003672D02*
X007941Y003892D01*
X007904Y003819D02*
X007831Y003819D01*
X007794Y003782D01*
X007794Y003672D01*
X007720Y003709D02*
X007720Y003782D01*
X007683Y003819D01*
X007610Y003819D01*
X007573Y003782D01*
X007573Y003745D01*
X007720Y003745D01*
X007720Y003709D02*
X007683Y003672D01*
X007610Y003672D01*
X007904Y003819D02*
X007941Y003782D01*
X007278Y003892D02*
X007131Y003892D01*
X007205Y003892D02*
X007205Y003672D01*
X007057Y003672D02*
X007057Y003819D01*
X006984Y003892D01*
X006910Y003819D01*
X006910Y003672D01*
X006836Y003672D02*
X006836Y003892D01*
X006726Y003892D01*
X006689Y003855D01*
X006689Y003782D01*
X006726Y003745D01*
X006836Y003745D01*
X006910Y003782D02*
X007057Y003782D01*
X006615Y003745D02*
X006505Y003745D01*
X006468Y003782D01*
X006468Y003855D01*
X006505Y003892D01*
X006615Y003892D01*
X006615Y003672D01*
X006542Y003745D02*
X006468Y003672D01*
X006173Y003709D02*
X006136Y003672D01*
X006063Y003672D01*
X006026Y003709D01*
X006026Y003855D01*
X006063Y003892D01*
X006136Y003892D01*
X006173Y003855D01*
X006173Y003709D01*
X005952Y003672D02*
X005952Y003892D01*
X005952Y003782D02*
X005805Y003782D01*
X005805Y003892D02*
X005805Y003672D01*
X005731Y003672D02*
X005584Y003672D01*
X005731Y003672D02*
X005731Y003892D01*
X008376Y003220D02*
X008376Y003110D01*
X009156Y003672D02*
X009156Y003819D01*
X009377Y003819D02*
X009377Y003709D01*
X010336Y003672D02*
X010336Y003782D01*
X010372Y003819D01*
X010482Y003819D01*
X010482Y003672D01*
X010557Y003745D02*
X010703Y003745D01*
X010703Y003709D02*
X010703Y003782D01*
X010667Y003819D01*
X010593Y003819D01*
X010557Y003782D01*
X010557Y003745D01*
X010593Y003672D02*
X010667Y003672D01*
X010703Y003709D01*
X010778Y003672D02*
X010888Y003672D01*
X010924Y003709D01*
X010924Y003782D01*
X010888Y003819D01*
X010778Y003819D01*
X011035Y003819D02*
X011035Y003672D01*
X011072Y003672D02*
X010998Y003672D01*
X011146Y003672D02*
X011293Y003672D01*
X011293Y003892D01*
X011072Y003819D02*
X011035Y003819D01*
X011035Y003892D02*
X011035Y003929D01*
D12*
X011801Y015093D02*
X011801Y015463D01*
X011616Y015463D01*
X011554Y015401D01*
X011554Y015278D01*
X011616Y015216D01*
X011801Y015216D01*
X011922Y015216D02*
X012107Y015216D01*
X012169Y015278D01*
X012107Y015340D01*
X011922Y015340D01*
X011922Y015401D02*
X011922Y015216D01*
X011922Y015401D02*
X011984Y015463D01*
X012107Y015463D01*
X012291Y015463D02*
X012415Y015463D01*
X012353Y015525D02*
X012353Y015278D01*
X012291Y015216D01*
X011432Y015216D02*
X011432Y015463D01*
X011432Y015340D02*
X011309Y015463D01*
X011247Y015463D01*
X011125Y015278D02*
X011064Y015278D01*
X011064Y015216D01*
X011125Y015216D01*
X011125Y015278D01*
X010941Y015278D02*
X010880Y015216D01*
X010756Y015216D01*
X010694Y015278D01*
X010694Y015401D01*
X010756Y015463D01*
X010880Y015463D01*
X010941Y015401D01*
X010941Y015278D01*
X010573Y015340D02*
X010450Y015463D01*
X010388Y015463D01*
X010266Y015401D02*
X010204Y015463D01*
X010019Y015463D01*
X010019Y015154D01*
X010081Y015093D01*
X010143Y015093D01*
X010204Y015216D02*
X010019Y015216D01*
X009898Y015216D02*
X009651Y015586D01*
X009468Y015463D02*
X009529Y015401D01*
X009529Y015278D01*
X009468Y015216D01*
X009344Y015216D01*
X009283Y015278D01*
X009283Y015401D01*
X009344Y015463D01*
X009468Y015463D01*
X009161Y015401D02*
X009099Y015463D01*
X008976Y015463D01*
X008914Y015401D01*
X008914Y015216D01*
X008793Y015216D02*
X008669Y015216D01*
X008731Y015216D02*
X008731Y015586D01*
X008793Y015586D01*
X009161Y015586D02*
X009161Y015216D01*
X008547Y015216D02*
X008547Y015278D01*
X008486Y015278D01*
X008486Y015216D01*
X008547Y015216D01*
X008363Y015216D02*
X008363Y015586D01*
X008301Y015463D02*
X008178Y015463D01*
X008116Y015401D01*
X008116Y015216D01*
X007933Y015278D02*
X007871Y015216D01*
X007933Y015278D02*
X007933Y015525D01*
X007995Y015463D02*
X007871Y015463D01*
X007749Y015463D02*
X007687Y015463D01*
X007626Y015401D01*
X007564Y015463D01*
X007502Y015401D01*
X007502Y015216D01*
X007381Y015216D02*
X007257Y015216D01*
X007319Y015216D02*
X007319Y015586D01*
X007381Y015586D01*
X007626Y015401D02*
X007626Y015216D01*
X007749Y015216D02*
X007749Y015463D01*
X008301Y015463D02*
X008363Y015401D01*
X009589Y015816D02*
X009836Y015816D01*
X009836Y016186D01*
X009958Y016186D02*
X009958Y015816D01*
X009958Y016001D02*
X010205Y016001D01*
X010326Y015878D02*
X010326Y016125D01*
X010388Y016186D01*
X010511Y016186D01*
X010573Y016125D01*
X010573Y015878D01*
X010511Y015816D01*
X010388Y015816D01*
X010326Y015878D01*
X010205Y015816D02*
X010205Y016186D01*
X010266Y016416D02*
X010327Y016478D01*
X010327Y016601D01*
X010266Y016663D01*
X010142Y016663D01*
X010081Y016601D01*
X010081Y016540D01*
X010327Y016540D01*
X010449Y016478D02*
X010511Y016540D01*
X010634Y016540D01*
X010696Y016601D01*
X010634Y016663D01*
X010449Y016663D01*
X010449Y016478D02*
X010511Y016416D01*
X010696Y016416D01*
X010817Y016416D02*
X011002Y016416D01*
X011064Y016478D01*
X011002Y016540D01*
X010817Y016540D01*
X010817Y016601D02*
X010817Y016416D01*
X010817Y016601D02*
X010879Y016663D01*
X011002Y016663D01*
X011185Y016601D02*
X011247Y016663D01*
X011371Y016663D01*
X011432Y016601D01*
X011432Y016478D01*
X011371Y016416D01*
X011247Y016416D01*
X011185Y016540D02*
X011432Y016540D01*
X011554Y016416D02*
X011678Y016416D01*
X011616Y016416D02*
X011616Y016786D01*
X011678Y016786D01*
X011861Y016663D02*
X011799Y016601D01*
X011799Y016540D01*
X012046Y016540D01*
X012046Y016601D02*
X011984Y016663D01*
X011861Y016663D01*
X012046Y016601D02*
X012046Y016478D01*
X011984Y016416D01*
X011861Y016416D01*
X011923Y016186D02*
X011799Y016063D01*
X011799Y015816D01*
X011678Y015816D02*
X011678Y016186D01*
X011493Y016186D01*
X011431Y016125D01*
X011431Y016001D01*
X011493Y015940D01*
X011678Y015940D01*
X011799Y016001D02*
X012046Y016001D01*
X012046Y016063D02*
X012046Y015816D01*
X012291Y015816D02*
X012291Y016186D01*
X012168Y016186D02*
X012415Y016186D01*
X012415Y016416D02*
X012415Y016786D01*
X012229Y016786D01*
X012168Y016725D01*
X012168Y016601D01*
X012229Y016540D01*
X012415Y016540D01*
X012291Y016540D02*
X012168Y016416D01*
X011923Y016186D02*
X012046Y016063D01*
X011310Y015940D02*
X011124Y015940D01*
X011063Y016001D01*
X011063Y016125D01*
X011124Y016186D01*
X011310Y016186D01*
X011310Y015816D01*
X011186Y015940D02*
X011063Y015816D01*
X010573Y015463D02*
X010573Y015216D01*
X010266Y015278D02*
X010204Y015216D01*
X010266Y015278D02*
X010266Y015401D01*
X010266Y016416D02*
X010142Y016416D01*
X009959Y016478D02*
X009959Y016601D01*
X009897Y016663D01*
X009712Y016663D01*
X009712Y016786D02*
X009712Y016416D01*
X009897Y016416D01*
X009959Y016478D01*
X009222Y016478D02*
X009161Y016416D01*
X009037Y016416D01*
X008976Y016478D01*
X008976Y016786D01*
X008854Y016663D02*
X008669Y016663D01*
X008607Y016601D01*
X008607Y016416D01*
X008486Y016478D02*
X008486Y016601D01*
X008424Y016663D01*
X008239Y016663D01*
X008239Y016786D02*
X008239Y016416D01*
X008424Y016416D01*
X008486Y016478D01*
X008118Y016478D02*
X008118Y016601D01*
X008056Y016663D01*
X007932Y016663D01*
X007871Y016601D01*
X007871Y016540D01*
X008118Y016540D01*
X008118Y016478D02*
X008056Y016416D01*
X007932Y016416D01*
X007749Y016416D02*
X007749Y016663D01*
X007749Y016540D02*
X007626Y016663D01*
X007564Y016663D01*
X007074Y016786D02*
X006827Y016786D01*
X006706Y016786D02*
X006706Y016416D01*
X006706Y016601D02*
X006644Y016663D01*
X006520Y016663D01*
X006459Y016601D01*
X006459Y016416D01*
X006337Y016478D02*
X006276Y016416D01*
X006152Y016416D01*
X006090Y016540D02*
X006337Y016540D01*
X006337Y016601D02*
X006276Y016663D01*
X006152Y016663D01*
X006090Y016601D01*
X006090Y016540D01*
X006337Y016478D02*
X006337Y016601D01*
X006951Y016416D02*
X006951Y016786D01*
X008854Y016663D02*
X008854Y016416D01*
X009222Y016478D02*
X009222Y016786D01*
X011185Y016601D02*
X011185Y016540D01*
M02*
