G75*
%MOIN*%
%OFA0B0*%
%FSLAX24Y24*%
%IPPOS*%
%LPD*%
%AMOC8*
5,1,8,0,0,1.08239X$1,22.5*
%
%ADD10C,0.0600*%
%ADD11C,0.1210*%
%ADD12C,0.0476*%
%ADD13C,0.0397*%
%ADD14C,0.0768*%
%ADD15C,0.0277*%
%ADD16C,0.0100*%
D10*
X003811Y001077D03*
X004811Y000977D03*
X005811Y001077D03*
X006811Y000977D03*
X007811Y001077D03*
X008811Y000977D03*
X010307Y001027D03*
X011307Y000927D03*
X012307Y001027D03*
X013307Y000927D03*
X014307Y001027D03*
X015307Y000927D03*
X001084Y003930D03*
X001184Y004930D03*
X001084Y005930D03*
X001084Y007705D03*
X001184Y008705D03*
X001084Y009705D03*
X001184Y010705D03*
X001084Y011705D03*
X001184Y012705D03*
X003752Y018142D03*
X004752Y018142D03*
X005752Y018142D03*
X006752Y018142D03*
X007752Y018142D03*
X008752Y018142D03*
X010048Y018142D03*
X011048Y018142D03*
X012048Y018142D03*
X013048Y018142D03*
X014048Y018142D03*
X015048Y018142D03*
D11*
X033205Y018024D03*
X035205Y018024D03*
D12*
X029580Y018037D03*
X029580Y016037D03*
D13*
X037126Y014233D03*
X037626Y014233D03*
X037626Y013733D03*
X037126Y013733D03*
X037126Y013233D03*
X037626Y013233D03*
X038126Y013233D03*
X038126Y013733D03*
X038126Y014233D03*
X034126Y012028D03*
X033626Y012028D03*
X033126Y012028D03*
X033126Y011528D03*
X033626Y011528D03*
X033626Y011028D03*
X033126Y011028D03*
X034126Y011028D03*
X034126Y011528D03*
X031981Y010449D03*
X031481Y010449D03*
X030981Y010449D03*
X030981Y009949D03*
X031481Y009949D03*
X031981Y009949D03*
X031981Y009449D03*
X031481Y009449D03*
X030981Y009449D03*
X033126Y007540D03*
X033626Y007540D03*
X034126Y007540D03*
X034126Y007040D03*
X033626Y007040D03*
X033126Y007040D03*
X033126Y006540D03*
X033626Y006540D03*
X034126Y006540D03*
X035461Y005335D03*
X035961Y005335D03*
X036461Y005335D03*
X036461Y004835D03*
X035961Y004835D03*
X035461Y004835D03*
X035461Y004335D03*
X035961Y004335D03*
X036461Y004335D03*
X031981Y006433D03*
X031481Y006433D03*
X030981Y006433D03*
X030981Y006933D03*
X031481Y006933D03*
X031981Y006933D03*
X031981Y007433D03*
X031481Y007433D03*
X030981Y007433D03*
D14*
X038721Y007355D03*
X038721Y009323D03*
X038721Y011292D03*
D15*
X038024Y011292D03*
X038024Y011567D03*
X037748Y011567D03*
X037473Y011567D03*
X037473Y011292D03*
X037748Y011292D03*
X037748Y011016D03*
X037473Y011016D03*
X037473Y010741D03*
X037748Y010741D03*
X038024Y010741D03*
X038024Y011016D03*
X037197Y011016D03*
X036922Y011016D03*
X036922Y010741D03*
X037197Y010741D03*
X036646Y010741D03*
X036370Y010741D03*
X036095Y010741D03*
X035819Y010741D03*
X035819Y011016D03*
X036095Y011016D03*
X036370Y011016D03*
X036646Y011016D03*
X036646Y011292D03*
X036646Y011567D03*
X036370Y011567D03*
X036095Y011567D03*
X036095Y011292D03*
X036370Y011292D03*
X035819Y011292D03*
X035819Y011567D03*
X035819Y011843D03*
X036095Y011843D03*
X036370Y011843D03*
X036646Y011843D03*
X036922Y011843D03*
X037197Y011843D03*
X037197Y012119D03*
X036922Y012119D03*
X037473Y012119D03*
X037748Y012119D03*
X038024Y012119D03*
X038300Y012119D03*
X038575Y012119D03*
X038851Y012119D03*
X039126Y012119D03*
X039126Y012394D03*
X038851Y012394D03*
X038851Y012670D03*
X038851Y012945D03*
X039126Y012945D03*
X039126Y012670D03*
X038575Y012394D03*
X038300Y012394D03*
X038024Y012394D03*
X037748Y012394D03*
X037473Y012394D03*
X037197Y012394D03*
X036922Y012394D03*
X036331Y012315D03*
X035859Y012315D03*
X036922Y011567D03*
X037197Y011567D03*
X037197Y011292D03*
X036922Y011292D03*
X037473Y011843D03*
X037748Y011843D03*
X038024Y011843D03*
X038851Y013221D03*
X039126Y013221D03*
X039126Y013496D03*
X038851Y013496D03*
X038851Y013772D03*
X039126Y013772D03*
X039126Y014048D03*
X038851Y014048D03*
X038851Y014323D03*
X039126Y014323D03*
X039126Y015307D03*
X038536Y015307D03*
X037945Y015307D03*
X037945Y015898D03*
X038536Y015898D03*
X039126Y015898D03*
X036449Y015819D03*
X035465Y015819D03*
X034874Y015819D03*
X034284Y015819D03*
X031725Y015111D03*
X028300Y015701D03*
X028300Y016489D03*
X026528Y016528D03*
X025701Y016292D03*
X025701Y015701D03*
X026528Y015741D03*
X025701Y015111D03*
X025701Y014563D03*
X026737Y014563D03*
X026737Y014063D03*
X026737Y013571D03*
X026737Y013162D03*
X026737Y012689D03*
X026737Y012197D03*
X024520Y010662D03*
X024244Y009126D03*
X023457Y009126D03*
X022374Y008733D03*
X022079Y008733D03*
X021784Y008733D03*
X021489Y008733D03*
X021193Y008733D03*
X020898Y008733D03*
X020603Y008733D03*
X020603Y008437D03*
X020603Y008142D03*
X020898Y008142D03*
X021193Y008142D03*
X021193Y008437D03*
X020898Y008437D03*
X021489Y008437D03*
X021784Y008437D03*
X021784Y008142D03*
X022079Y008142D03*
X022079Y008437D03*
X022374Y008437D03*
X022374Y008142D03*
X022374Y007847D03*
X022079Y007847D03*
X021784Y007847D03*
X021489Y007847D03*
X021193Y007847D03*
X020898Y007847D03*
X020603Y007847D03*
X019520Y007552D03*
X018733Y007552D03*
X018733Y008339D03*
X019520Y008339D03*
X019520Y009126D03*
X018733Y009126D03*
X017945Y009126D03*
X017945Y008339D03*
X017158Y008339D03*
X013402Y008615D03*
X012158Y008260D03*
X011843Y007355D03*
X010268Y008300D03*
X010819Y008378D03*
X010111Y008890D03*
X010662Y009244D03*
X009874Y009363D03*
X009284Y009874D03*
X009359Y010449D03*
X008595Y010957D03*
X007764Y010918D03*
X006201Y011130D03*
X005737Y010748D03*
X006343Y009898D03*
X005772Y009792D03*
X005307Y009575D03*
X004343Y010882D03*
X004867Y011461D03*
X003142Y011843D03*
X002355Y011843D03*
X003792Y012630D03*
X002552Y014205D03*
X002552Y014638D03*
X002552Y015071D03*
X002000Y015071D03*
X001449Y015071D03*
X000898Y015071D03*
X000898Y014638D03*
X001449Y014638D03*
X002000Y014638D03*
X002000Y014205D03*
X001449Y014205D03*
X000898Y014205D03*
X009028Y015996D03*
X011851Y014319D03*
X011752Y013717D03*
X012008Y013185D03*
X011307Y013272D03*
X013461Y011752D03*
X012040Y010741D03*
X010583Y010701D03*
X010493Y010063D03*
X009756Y011292D03*
X014914Y013040D03*
X016489Y012748D03*
X017079Y012748D03*
X017867Y012748D03*
X018733Y012394D03*
X017079Y011961D03*
X016489Y011961D03*
X016489Y011174D03*
X017079Y011174D03*
X016489Y013811D03*
X016489Y014520D03*
X017079Y014520D03*
X015465Y015622D03*
X014528Y014870D03*
X019205Y014874D03*
X019835Y014599D03*
X020465Y014599D03*
X021016Y014599D03*
X021646Y014599D03*
X024835Y013969D03*
X029638Y011646D03*
X029638Y011134D03*
X032937Y010142D03*
X032937Y009867D03*
X033213Y009867D03*
X033213Y010142D03*
X033489Y010142D03*
X033764Y010142D03*
X033764Y009867D03*
X033489Y009867D03*
X033489Y009591D03*
X033764Y009591D03*
X033764Y009315D03*
X033489Y009315D03*
X033213Y009315D03*
X032937Y009315D03*
X032937Y009591D03*
X033213Y009591D03*
X033213Y009040D03*
X033489Y009040D03*
X033764Y009040D03*
X034040Y009040D03*
X034315Y009040D03*
X034315Y008764D03*
X034040Y008764D03*
X033764Y008764D03*
X033489Y008764D03*
X033213Y008764D03*
X032937Y008764D03*
X032937Y009040D03*
X032937Y008489D03*
X033213Y008489D03*
X033489Y008489D03*
X033764Y008489D03*
X034040Y008489D03*
X034315Y008489D03*
X034591Y008489D03*
X034867Y008489D03*
X035142Y008489D03*
X035418Y008489D03*
X035693Y008489D03*
X035969Y008489D03*
X036244Y008489D03*
X036520Y008489D03*
X036796Y008489D03*
X037071Y008489D03*
X037347Y008489D03*
X037622Y008489D03*
X037898Y008489D03*
X037898Y008764D03*
X037622Y008764D03*
X037347Y008764D03*
X037071Y008764D03*
X036796Y008764D03*
X036796Y009040D03*
X037071Y009040D03*
X037347Y009040D03*
X037622Y009040D03*
X037898Y009040D03*
X037898Y009315D03*
X037622Y009315D03*
X037347Y009315D03*
X037071Y009315D03*
X036796Y009315D03*
X036520Y009315D03*
X036244Y009315D03*
X035969Y009315D03*
X035693Y009315D03*
X035418Y009315D03*
X035142Y009315D03*
X034867Y009315D03*
X034867Y009591D03*
X035142Y009591D03*
X035418Y009591D03*
X035693Y009591D03*
X035969Y009591D03*
X036244Y009591D03*
X036520Y009591D03*
X036796Y009591D03*
X037071Y009591D03*
X037347Y009591D03*
X037622Y009591D03*
X037898Y009591D03*
X037898Y009867D03*
X037898Y010142D03*
X037622Y010142D03*
X037347Y010142D03*
X037347Y009867D03*
X037622Y009867D03*
X037071Y009867D03*
X037071Y010142D03*
X036796Y010142D03*
X036796Y009867D03*
X036520Y009867D03*
X036520Y010142D03*
X036244Y010142D03*
X035969Y010142D03*
X035969Y009867D03*
X036244Y009867D03*
X035693Y009867D03*
X035693Y010142D03*
X035418Y010142D03*
X035418Y009867D03*
X035142Y009867D03*
X035142Y010142D03*
X034867Y010142D03*
X034867Y009867D03*
X034591Y009867D03*
X034591Y010142D03*
X034315Y010142D03*
X034040Y010142D03*
X034040Y009867D03*
X034315Y009867D03*
X034315Y009591D03*
X034040Y009591D03*
X034040Y009315D03*
X034315Y009315D03*
X034591Y009315D03*
X034591Y009591D03*
X034591Y009040D03*
X034867Y009040D03*
X035142Y009040D03*
X035418Y009040D03*
X035693Y009040D03*
X035693Y008764D03*
X035418Y008764D03*
X035142Y008764D03*
X034867Y008764D03*
X034591Y008764D03*
X035969Y008764D03*
X036244Y008764D03*
X036244Y009040D03*
X035969Y009040D03*
X036520Y009040D03*
X036520Y008764D03*
X035937Y007788D03*
X036685Y007713D03*
X036685Y007437D03*
X036685Y007162D03*
X036410Y007162D03*
X036134Y007162D03*
X035859Y007162D03*
X035859Y006886D03*
X036134Y006886D03*
X036134Y006611D03*
X035859Y006611D03*
X036410Y006611D03*
X036410Y006886D03*
X036685Y006886D03*
X036685Y006611D03*
X036961Y006611D03*
X036961Y006886D03*
X037237Y006886D03*
X037512Y006886D03*
X037512Y006611D03*
X037237Y006611D03*
X037237Y006335D03*
X037512Y006335D03*
X037512Y006059D03*
X037237Y006059D03*
X036961Y006059D03*
X036685Y006059D03*
X036410Y006059D03*
X036134Y006059D03*
X035859Y006059D03*
X035859Y006335D03*
X036134Y006335D03*
X036410Y006335D03*
X036685Y006335D03*
X036961Y006335D03*
X037788Y006335D03*
X038063Y006335D03*
X038063Y006059D03*
X037788Y006059D03*
X038339Y006059D03*
X038615Y006059D03*
X038890Y006059D03*
X039166Y006059D03*
X039166Y006335D03*
X038890Y006335D03*
X038615Y006335D03*
X038339Y006335D03*
X038339Y006611D03*
X038615Y006611D03*
X038890Y006611D03*
X039166Y006611D03*
X038063Y006611D03*
X037788Y006611D03*
X037788Y006886D03*
X038063Y006886D03*
X038063Y007162D03*
X037788Y007162D03*
X037788Y007437D03*
X038063Y007437D03*
X038063Y007713D03*
X037788Y007713D03*
X037512Y007713D03*
X037237Y007713D03*
X037237Y007437D03*
X037237Y007162D03*
X037512Y007162D03*
X037512Y007437D03*
X036961Y007437D03*
X036961Y007162D03*
X036961Y007713D03*
X037237Y005784D03*
X037512Y005784D03*
X037512Y005508D03*
X037512Y005233D03*
X037237Y005233D03*
X037237Y005508D03*
X037788Y005508D03*
X037788Y005233D03*
X038063Y005233D03*
X038063Y005508D03*
X038063Y005784D03*
X037788Y005784D03*
X038339Y005784D03*
X038615Y005784D03*
X038890Y005784D03*
X038890Y005508D03*
X038890Y005233D03*
X038615Y005233D03*
X038615Y005508D03*
X038339Y005508D03*
X038339Y005233D03*
X038339Y004957D03*
X038339Y004681D03*
X038615Y004681D03*
X038890Y004681D03*
X039166Y004681D03*
X039166Y004957D03*
X038890Y004957D03*
X038615Y004957D03*
X038063Y004957D03*
X037788Y004957D03*
X037788Y004681D03*
X038063Y004681D03*
X037512Y004681D03*
X037237Y004681D03*
X037237Y004957D03*
X037512Y004957D03*
X037512Y004406D03*
X037237Y004406D03*
X037788Y004406D03*
X038063Y004406D03*
X038339Y004406D03*
X038615Y004406D03*
X038890Y004406D03*
X039166Y004406D03*
X039166Y005233D03*
X039166Y005508D03*
X039166Y005784D03*
X034717Y003418D03*
X034008Y002906D03*
X032709Y002945D03*
X030189Y003496D03*
X029756Y004205D03*
X027315Y003930D03*
X026528Y004087D03*
X025741Y004087D03*
X024953Y004087D03*
X024953Y003300D03*
X024166Y003300D03*
X025741Y003300D03*
X026528Y003300D03*
X027000Y002630D03*
X026528Y002512D03*
X025741Y002512D03*
X024953Y002512D03*
X024441Y001725D03*
X023890Y001725D03*
X023300Y001725D03*
X022315Y001725D03*
X022315Y002276D03*
X021567Y002276D03*
X020229Y001725D03*
X019441Y001725D03*
X018654Y001725D03*
X017827Y001725D03*
X018260Y002276D03*
X019402Y002945D03*
X020032Y002945D03*
X020032Y003575D03*
X019402Y003575D03*
X018496Y005111D03*
X018339Y006449D03*
X015426Y006528D03*
X015111Y005347D03*
X014323Y005347D03*
X013890Y005150D03*
X015504Y004402D03*
X014772Y002563D03*
X013800Y002150D03*
X012040Y002355D03*
X011969Y003115D03*
X011961Y003693D03*
X008130Y005024D03*
X007611Y005016D03*
X006792Y004996D03*
X005662Y005268D03*
X005780Y007004D03*
X004748Y007040D03*
X004256Y007347D03*
X003441Y007008D03*
X001930Y006835D03*
X007197Y007315D03*
X008733Y008339D03*
X002119Y003300D03*
X003300Y002493D03*
X005402Y003217D03*
X007496Y002678D03*
X017079Y000937D03*
X017827Y000937D03*
X018654Y000937D03*
X019441Y000937D03*
X020229Y000937D03*
X021016Y000937D03*
X021804Y000937D03*
X022591Y000937D03*
X023378Y000937D03*
X024166Y000937D03*
X024953Y000937D03*
X025741Y000937D03*
X026528Y000937D03*
X026528Y001725D03*
X025741Y001725D03*
X028300Y001725D03*
X028300Y001134D03*
X029284Y001134D03*
X030268Y001134D03*
X030268Y001725D03*
X029284Y001725D03*
X031252Y001725D03*
X032237Y001725D03*
X033221Y001725D03*
X033221Y001134D03*
X032237Y001134D03*
X031252Y001134D03*
X034205Y001134D03*
X035189Y001134D03*
X035189Y001725D03*
X034205Y001725D03*
X026528Y004874D03*
X025741Y004874D03*
X024855Y005229D03*
X024426Y005225D03*
X023996Y005221D03*
X026331Y006292D03*
X026528Y005662D03*
X026331Y007040D03*
X025032Y007552D03*
X024244Y007552D03*
X023457Y007552D03*
X023457Y008339D03*
X024244Y008339D03*
X025032Y008339D03*
X025032Y009126D03*
X026764Y008575D03*
X026764Y007827D03*
X030189Y008457D03*
X021489Y008142D03*
X021804Y016922D03*
X022591Y016922D03*
X022591Y017709D03*
X023378Y017709D03*
X024166Y017709D03*
X024244Y017237D03*
X024953Y017709D03*
X025741Y017709D03*
X026528Y017709D03*
X026528Y018496D03*
X025741Y018496D03*
X024953Y018496D03*
X024166Y018496D03*
X023378Y018496D03*
X022591Y018496D03*
X018811Y018496D03*
X018536Y018496D03*
X018260Y018496D03*
X017985Y018496D03*
X017709Y018496D03*
X017433Y018496D03*
X017158Y018496D03*
X016882Y018496D03*
X016607Y018496D03*
X016331Y018496D03*
X028300Y018260D03*
X028890Y018260D03*
X028890Y017670D03*
X028300Y017670D03*
X030662Y017670D03*
X031252Y017670D03*
X031252Y018260D03*
X030662Y018260D03*
D16*
X004550Y000544D02*
X001056Y000544D01*
X000907Y000630D02*
X000630Y000907D01*
X000434Y001246D01*
X000333Y001624D01*
X000320Y001820D01*
X000320Y017818D01*
X000333Y017983D01*
X000436Y018299D01*
X000630Y018567D01*
X000899Y018762D01*
X001214Y018865D01*
X001380Y018878D01*
X015898Y018878D01*
X015898Y008968D01*
X014691Y010175D01*
X014691Y012168D01*
X014653Y012260D01*
X014583Y012330D01*
X013235Y013679D01*
X013235Y014727D01*
X013197Y014819D01*
X013126Y014889D01*
X012693Y015323D01*
X012601Y015361D01*
X010770Y015361D01*
X010678Y015323D01*
X010607Y015252D01*
X009544Y014189D01*
X009506Y014097D01*
X009506Y011521D01*
X009469Y011484D01*
X009418Y011359D01*
X009418Y011224D01*
X009469Y011100D01*
X009564Y011005D01*
X009689Y010953D01*
X009824Y010953D01*
X009948Y011005D01*
X010043Y011100D01*
X010095Y011224D01*
X010095Y011359D01*
X010043Y011484D01*
X010006Y011521D01*
X010006Y013944D01*
X010333Y014271D01*
X010333Y010930D01*
X010296Y010893D01*
X010244Y010769D01*
X010244Y010634D01*
X010296Y010509D01*
X010391Y010414D01*
X010423Y010401D01*
X010301Y010351D01*
X010205Y010255D01*
X010154Y010131D01*
X010154Y009996D01*
X010205Y009872D01*
X010301Y009776D01*
X010425Y009725D01*
X010560Y009725D01*
X010684Y009776D01*
X010780Y009872D01*
X010831Y009996D01*
X010831Y010131D01*
X010780Y010255D01*
X010684Y010351D01*
X010653Y010364D01*
X010775Y010414D01*
X010870Y010509D01*
X010922Y010634D01*
X010922Y010769D01*
X010870Y010893D01*
X010833Y010930D01*
X010833Y014259D01*
X011120Y014546D01*
X011598Y014546D01*
X011564Y014511D01*
X011512Y014387D01*
X011512Y014252D01*
X011564Y014127D01*
X011659Y014032D01*
X011783Y013981D01*
X011918Y013981D01*
X012043Y014032D01*
X012138Y014127D01*
X012183Y014237D01*
X012183Y013486D01*
X012187Y013478D01*
X012076Y013524D01*
X011941Y013524D01*
X011816Y013473D01*
X011721Y013377D01*
X011673Y013260D01*
X011646Y013287D01*
X011646Y013339D01*
X011595Y013464D01*
X011499Y013559D01*
X011375Y013611D01*
X011240Y013611D01*
X011116Y013559D01*
X011020Y013464D01*
X010969Y013339D01*
X010969Y013205D01*
X011020Y013080D01*
X011116Y012985D01*
X011240Y012933D01*
X011293Y012933D01*
X012302Y011924D01*
X012302Y010958D01*
X012232Y011028D01*
X012107Y011079D01*
X011972Y011079D01*
X011848Y011028D01*
X011753Y010932D01*
X011701Y010808D01*
X011701Y010673D01*
X011753Y010549D01*
X011848Y010453D01*
X011972Y010402D01*
X012107Y010402D01*
X012232Y010453D01*
X012302Y010523D01*
X012302Y008567D01*
X012225Y008599D01*
X012090Y008599D01*
X011966Y008547D01*
X011871Y008452D01*
X011819Y008328D01*
X011819Y008193D01*
X011871Y008068D01*
X011966Y007973D01*
X012090Y007921D01*
X012225Y007921D01*
X012302Y007953D01*
X012302Y003197D01*
X012256Y003306D01*
X012161Y003402D01*
X012152Y003406D01*
X012153Y003406D01*
X012248Y003501D01*
X012300Y003626D01*
X012300Y003761D01*
X012248Y003885D01*
X012153Y003980D01*
X012028Y004032D01*
X011894Y004032D01*
X011769Y003980D01*
X011674Y003885D01*
X011622Y003761D01*
X011622Y003626D01*
X011674Y003501D01*
X011769Y003406D01*
X011778Y003402D01*
X011777Y003402D01*
X011682Y003306D01*
X011630Y003182D01*
X011630Y003047D01*
X011682Y002923D01*
X011777Y002827D01*
X011902Y002776D01*
X012036Y002776D01*
X012161Y002827D01*
X012256Y002923D01*
X012302Y003033D01*
X012302Y002572D01*
X012232Y002642D01*
X012107Y002693D01*
X011972Y002693D01*
X011848Y002642D01*
X011753Y002547D01*
X011701Y002422D01*
X011701Y002287D01*
X011753Y002163D01*
X011848Y002068D01*
X011972Y002016D01*
X012043Y002016D01*
X011440Y001413D01*
X011407Y001427D01*
X011208Y001427D01*
X011024Y001351D01*
X010884Y001210D01*
X010807Y001026D01*
X010807Y000827D01*
X010884Y000644D01*
X011024Y000503D01*
X011208Y000427D01*
X011407Y000427D01*
X011591Y000503D01*
X011731Y000644D01*
X011807Y000827D01*
X011807Y001026D01*
X011794Y001059D01*
X011807Y001073D01*
X011807Y000927D01*
X011884Y000744D01*
X012024Y000603D01*
X012208Y000527D01*
X012407Y000527D01*
X012591Y000603D01*
X012731Y000744D01*
X012807Y000927D01*
X012807Y001126D01*
X012794Y001159D01*
X013087Y001453D01*
X013152Y001518D01*
X013152Y001404D01*
X013024Y001351D01*
X012884Y001210D01*
X012807Y001026D01*
X012807Y000827D01*
X012884Y000644D01*
X013024Y000503D01*
X013208Y000427D01*
X013407Y000427D01*
X013591Y000503D01*
X013731Y000644D01*
X013807Y000827D01*
X013807Y001026D01*
X013731Y001210D01*
X013652Y001289D01*
X013652Y001845D01*
X013732Y001811D01*
X013867Y001811D01*
X013991Y001863D01*
X014087Y001958D01*
X014138Y002083D01*
X014138Y002217D01*
X014087Y002342D01*
X013991Y002437D01*
X013867Y002489D01*
X013732Y002489D01*
X013652Y002455D01*
X013652Y004909D01*
X013698Y004863D01*
X013823Y004811D01*
X013875Y004811D01*
X014073Y004613D01*
X014073Y003644D01*
X014111Y003552D01*
X014761Y002902D01*
X014705Y002902D01*
X014580Y002851D01*
X014485Y002755D01*
X014433Y002631D01*
X014433Y002496D01*
X014485Y002372D01*
X014580Y002276D01*
X014705Y002225D01*
X014839Y002225D01*
X014964Y002276D01*
X015059Y002372D01*
X015111Y002496D01*
X015111Y002552D01*
X015166Y002497D01*
X015258Y002459D01*
X015898Y002459D01*
X015898Y000320D01*
X001820Y000320D01*
X001624Y000333D01*
X001246Y000434D01*
X000907Y000630D01*
X000895Y000643D02*
X003553Y000643D01*
X003528Y000653D02*
X003712Y000577D01*
X003911Y000577D01*
X004095Y000653D01*
X004235Y000794D01*
X004311Y000977D01*
X004311Y001176D01*
X004235Y001360D01*
X004095Y001501D01*
X003911Y001577D01*
X003712Y001577D01*
X003528Y001501D01*
X003388Y001360D01*
X003311Y001176D01*
X003311Y000977D01*
X003388Y000794D01*
X003528Y000653D01*
X003440Y000741D02*
X000796Y000741D01*
X000698Y000840D02*
X003369Y000840D01*
X003328Y000938D02*
X000612Y000938D01*
X000555Y001037D02*
X001374Y001037D01*
X001289Y001072D02*
X001572Y000955D01*
X001878Y000955D01*
X002161Y001072D01*
X002378Y001289D01*
X002495Y001572D01*
X002495Y001878D01*
X002378Y002161D01*
X002161Y002378D01*
X001878Y002495D01*
X001572Y002495D01*
X001289Y002378D01*
X001072Y002161D01*
X000955Y001878D01*
X000955Y001572D01*
X001072Y001289D01*
X001289Y001072D01*
X001226Y001135D02*
X000498Y001135D01*
X000442Y001234D02*
X001127Y001234D01*
X001054Y001332D02*
X000411Y001332D01*
X000385Y001431D02*
X001013Y001431D01*
X000972Y001529D02*
X000358Y001529D01*
X000333Y001628D02*
X000955Y001628D01*
X000955Y001726D02*
X000326Y001726D01*
X000320Y001825D02*
X000955Y001825D01*
X000973Y001923D02*
X000320Y001923D01*
X000320Y002022D02*
X001014Y002022D01*
X001055Y002120D02*
X000320Y002120D01*
X000320Y002219D02*
X001130Y002219D01*
X001228Y002317D02*
X000320Y002317D01*
X000320Y002416D02*
X001380Y002416D01*
X002069Y002416D02*
X005160Y002416D01*
X005160Y002514D02*
X000320Y002514D01*
X000320Y002613D02*
X005160Y002613D01*
X005160Y002711D02*
X000320Y002711D01*
X000320Y002810D02*
X005160Y002810D01*
X005160Y002908D02*
X000320Y002908D01*
X000320Y003007D02*
X001941Y003007D01*
X001927Y003012D02*
X002051Y002961D01*
X002186Y002961D01*
X002310Y003012D01*
X002406Y003108D01*
X002457Y003232D01*
X002457Y003367D01*
X002406Y003491D01*
X002310Y003587D01*
X002186Y003638D01*
X002051Y003638D01*
X001927Y003587D01*
X001831Y003491D01*
X001780Y003367D01*
X001780Y003232D01*
X001831Y003108D01*
X001927Y003012D01*
X001834Y003105D02*
X000320Y003105D01*
X000320Y003204D02*
X001792Y003204D01*
X001780Y003302D02*
X000320Y003302D01*
X000320Y003401D02*
X001794Y003401D01*
X001839Y003499D02*
X001351Y003499D01*
X001367Y003506D02*
X001508Y003646D01*
X001584Y003830D01*
X001584Y004029D01*
X001508Y004213D01*
X001367Y004353D01*
X001184Y004430D01*
X000985Y004430D01*
X000801Y004353D01*
X000660Y004213D01*
X000584Y004029D01*
X000584Y003830D01*
X000660Y003646D01*
X000801Y003506D01*
X000985Y003430D01*
X001184Y003430D01*
X001367Y003506D01*
X001459Y003598D02*
X001953Y003598D01*
X002284Y003598D02*
X011634Y003598D01*
X011622Y003696D02*
X001529Y003696D01*
X001570Y003795D02*
X011636Y003795D01*
X011682Y003893D02*
X001584Y003893D01*
X001584Y003992D02*
X011796Y003992D01*
X012126Y003992D02*
X012302Y003992D01*
X012302Y004090D02*
X001559Y004090D01*
X001518Y004189D02*
X012302Y004189D01*
X012302Y004287D02*
X001434Y004287D01*
X001290Y004386D02*
X012302Y004386D01*
X012302Y004484D02*
X001415Y004484D01*
X001467Y004506D02*
X001608Y004646D01*
X001684Y004830D01*
X001684Y005029D01*
X001608Y005213D01*
X001467Y005353D01*
X001284Y005430D01*
X001085Y005430D01*
X000901Y005353D01*
X000760Y005213D01*
X000684Y005029D01*
X000684Y004830D01*
X000760Y004646D01*
X000901Y004506D01*
X001085Y004430D01*
X001284Y004430D01*
X001467Y004506D01*
X001544Y004583D02*
X012302Y004583D01*
X012302Y004681D02*
X007687Y004681D01*
X007678Y004677D02*
X007803Y004729D01*
X007874Y004801D01*
X007938Y004737D01*
X008063Y004685D01*
X008198Y004685D01*
X008322Y004737D01*
X008417Y004832D01*
X008469Y004957D01*
X008469Y005091D01*
X008417Y005216D01*
X008322Y005311D01*
X008198Y005363D01*
X008063Y005363D01*
X007938Y005311D01*
X007867Y005239D01*
X007803Y005303D01*
X007678Y005355D01*
X007543Y005355D01*
X007419Y005303D01*
X007323Y005208D01*
X007272Y005084D01*
X007272Y004949D01*
X007323Y004824D01*
X007419Y004729D01*
X007543Y004677D01*
X007678Y004677D01*
X007535Y004681D02*
X006915Y004681D01*
X006859Y004658D02*
X006984Y004709D01*
X007079Y004805D01*
X007130Y004929D01*
X007130Y005064D01*
X007079Y005188D01*
X006984Y005284D01*
X006859Y005335D01*
X006724Y005335D01*
X006600Y005284D01*
X006505Y005188D01*
X006453Y005064D01*
X006453Y004929D01*
X006505Y004805D01*
X006600Y004709D01*
X006724Y004658D01*
X006859Y004658D01*
X006668Y004681D02*
X001623Y004681D01*
X001663Y004780D02*
X006530Y004780D01*
X006474Y004878D02*
X001684Y004878D01*
X001684Y004977D02*
X005481Y004977D01*
X005470Y004981D02*
X005594Y004929D01*
X005729Y004929D01*
X005854Y004981D01*
X005949Y005076D01*
X006001Y005201D01*
X006001Y005335D01*
X005949Y005460D01*
X005854Y005555D01*
X005729Y005607D01*
X005594Y005607D01*
X005470Y005555D01*
X005375Y005460D01*
X005323Y005335D01*
X005323Y005201D01*
X005375Y005076D01*
X005470Y004981D01*
X005376Y005075D02*
X001665Y005075D01*
X001624Y005174D02*
X005334Y005174D01*
X005323Y005272D02*
X001549Y005272D01*
X001426Y005371D02*
X005338Y005371D01*
X005384Y005469D02*
X001279Y005469D01*
X001367Y005506D02*
X001508Y005646D01*
X001584Y005830D01*
X001584Y006029D01*
X001508Y006213D01*
X001367Y006353D01*
X001184Y006430D01*
X000985Y006430D01*
X000801Y006353D01*
X000660Y006213D01*
X000584Y006029D01*
X000584Y005830D01*
X000660Y005646D01*
X000801Y005506D01*
X000985Y005430D01*
X001184Y005430D01*
X001367Y005506D01*
X001429Y005568D02*
X005499Y005568D01*
X005824Y005568D02*
X012302Y005568D01*
X012302Y005666D02*
X001516Y005666D01*
X001557Y005765D02*
X012302Y005765D01*
X012302Y005863D02*
X001584Y005863D01*
X001584Y005962D02*
X012302Y005962D01*
X012302Y006060D02*
X001571Y006060D01*
X001531Y006159D02*
X012302Y006159D01*
X012302Y006257D02*
X001464Y006257D01*
X001362Y006356D02*
X012302Y006356D01*
X012302Y006454D02*
X000320Y006454D01*
X000320Y006356D02*
X000806Y006356D01*
X000705Y006257D02*
X000320Y006257D01*
X000320Y006159D02*
X000638Y006159D01*
X000597Y006060D02*
X000320Y006060D01*
X000320Y005962D02*
X000584Y005962D01*
X000584Y005863D02*
X000320Y005863D01*
X000320Y005765D02*
X000611Y005765D01*
X000652Y005666D02*
X000320Y005666D01*
X000320Y005568D02*
X000739Y005568D01*
X000889Y005469D02*
X000320Y005469D01*
X000320Y005371D02*
X000942Y005371D01*
X000820Y005272D02*
X000320Y005272D01*
X000320Y005174D02*
X000744Y005174D01*
X000703Y005075D02*
X000320Y005075D01*
X000320Y004977D02*
X000684Y004977D01*
X000684Y004878D02*
X000320Y004878D01*
X000320Y004780D02*
X000705Y004780D01*
X000746Y004681D02*
X000320Y004681D01*
X000320Y004583D02*
X000824Y004583D01*
X000953Y004484D02*
X000320Y004484D01*
X000320Y004386D02*
X000879Y004386D01*
X000735Y004287D02*
X000320Y004287D01*
X000320Y004189D02*
X000650Y004189D01*
X000610Y004090D02*
X000320Y004090D01*
X000320Y003992D02*
X000584Y003992D01*
X000584Y003893D02*
X000320Y003893D01*
X000320Y003795D02*
X000599Y003795D01*
X000640Y003696D02*
X000320Y003696D01*
X000320Y003598D02*
X000709Y003598D01*
X000817Y003499D02*
X000320Y003499D01*
X002296Y003007D02*
X005133Y003007D01*
X005115Y003025D02*
X005160Y002980D01*
X005160Y002175D01*
X005198Y002083D01*
X005268Y002013D01*
X005599Y001682D01*
X005691Y001644D01*
X009046Y001644D01*
X009839Y000852D01*
X009884Y000744D01*
X010024Y000603D01*
X010208Y000527D01*
X010407Y000527D01*
X010591Y000603D01*
X010731Y000744D01*
X010807Y000927D01*
X010807Y001126D01*
X010731Y001310D01*
X010591Y001451D01*
X010407Y001527D01*
X010208Y001527D01*
X010024Y001451D01*
X009986Y001412D01*
X009362Y002036D01*
X009292Y002106D01*
X009200Y002144D01*
X005844Y002144D01*
X005660Y002328D01*
X005660Y002996D01*
X005689Y003025D01*
X005741Y003150D01*
X005741Y003284D01*
X005689Y003409D01*
X005594Y003504D01*
X005469Y003556D01*
X005335Y003556D01*
X005210Y003504D01*
X005115Y003409D01*
X005063Y003284D01*
X005063Y003150D01*
X005115Y003025D01*
X005082Y003105D02*
X002403Y003105D01*
X002445Y003204D02*
X005063Y003204D01*
X005071Y003302D02*
X002457Y003302D01*
X002443Y003401D02*
X005111Y003401D01*
X005205Y003499D02*
X002398Y003499D01*
X002222Y002317D02*
X005160Y002317D01*
X005160Y002219D02*
X002320Y002219D01*
X002395Y002120D02*
X005183Y002120D01*
X005260Y002022D02*
X002435Y002022D01*
X002476Y001923D02*
X005358Y001923D01*
X005457Y001825D02*
X002495Y001825D01*
X002495Y001726D02*
X005555Y001726D01*
X005597Y001529D02*
X004026Y001529D01*
X004165Y001431D02*
X004600Y001431D01*
X004528Y001401D02*
X004388Y001260D01*
X004311Y001076D01*
X004311Y000877D01*
X004388Y000694D01*
X004528Y000553D01*
X004712Y000477D01*
X004911Y000477D01*
X005095Y000553D01*
X005235Y000694D01*
X005311Y000877D01*
X005311Y001076D01*
X005235Y001260D01*
X005095Y001401D01*
X004911Y001477D01*
X004712Y001477D01*
X004528Y001401D01*
X004460Y001332D02*
X004247Y001332D01*
X004288Y001234D02*
X004377Y001234D01*
X004336Y001135D02*
X004311Y001135D01*
X004311Y001037D02*
X004311Y001037D01*
X004311Y000938D02*
X004295Y000938D01*
X004327Y000840D02*
X004254Y000840D01*
X004183Y000741D02*
X004368Y000741D01*
X004439Y000643D02*
X004070Y000643D01*
X003311Y001037D02*
X002075Y001037D01*
X002224Y001135D02*
X003311Y001135D01*
X003335Y001234D02*
X002322Y001234D01*
X002396Y001332D02*
X003376Y001332D01*
X003458Y001431D02*
X002436Y001431D01*
X002477Y001529D02*
X003597Y001529D01*
X002495Y001628D02*
X009063Y001628D01*
X009162Y001529D02*
X008026Y001529D01*
X008095Y001501D02*
X007911Y001577D01*
X007712Y001577D01*
X007528Y001501D01*
X007388Y001360D01*
X007311Y001176D01*
X007311Y000977D01*
X007388Y000794D01*
X007528Y000653D01*
X007712Y000577D01*
X007911Y000577D01*
X008095Y000653D01*
X008235Y000794D01*
X008311Y000977D01*
X008311Y001176D01*
X008235Y001360D01*
X008095Y001501D01*
X008165Y001431D02*
X008600Y001431D01*
X008528Y001401D02*
X008388Y001260D01*
X008311Y001076D01*
X008311Y000877D01*
X008388Y000694D01*
X008528Y000553D01*
X008712Y000477D01*
X008911Y000477D01*
X009095Y000553D01*
X009235Y000694D01*
X009311Y000877D01*
X009311Y001076D01*
X009235Y001260D01*
X009095Y001401D01*
X008911Y001477D01*
X008712Y001477D01*
X008528Y001401D01*
X008460Y001332D02*
X008247Y001332D01*
X008288Y001234D02*
X008377Y001234D01*
X008336Y001135D02*
X008311Y001135D01*
X008311Y001037D02*
X008311Y001037D01*
X008311Y000938D02*
X008295Y000938D01*
X008327Y000840D02*
X008254Y000840D01*
X008183Y000741D02*
X008368Y000741D01*
X008439Y000643D02*
X008070Y000643D01*
X007553Y000643D02*
X007184Y000643D01*
X007235Y000694D02*
X007311Y000877D01*
X007311Y001076D01*
X007235Y001260D01*
X007095Y001401D01*
X006911Y001477D01*
X006712Y001477D01*
X006528Y001401D01*
X006388Y001260D01*
X006311Y001076D01*
X006311Y000877D01*
X006388Y000694D01*
X006528Y000553D01*
X006712Y000477D01*
X006911Y000477D01*
X007095Y000553D01*
X007235Y000694D01*
X007255Y000741D02*
X007440Y000741D01*
X007369Y000840D02*
X007296Y000840D01*
X007311Y000938D02*
X007328Y000938D01*
X007311Y001037D02*
X007311Y001037D01*
X007311Y001135D02*
X007287Y001135D01*
X007246Y001234D02*
X007335Y001234D01*
X007376Y001332D02*
X007163Y001332D01*
X007023Y001431D02*
X007458Y001431D01*
X007597Y001529D02*
X006026Y001529D01*
X006095Y001501D02*
X005911Y001577D01*
X005712Y001577D01*
X005528Y001501D01*
X005388Y001360D01*
X005311Y001176D01*
X005311Y000977D01*
X005388Y000794D01*
X005528Y000653D01*
X005712Y000577D01*
X005911Y000577D01*
X006095Y000653D01*
X006235Y000794D01*
X006311Y000977D01*
X006311Y001176D01*
X006235Y001360D01*
X006095Y001501D01*
X006165Y001431D02*
X006600Y001431D01*
X006460Y001332D02*
X006247Y001332D01*
X006288Y001234D02*
X006377Y001234D01*
X006336Y001135D02*
X006311Y001135D01*
X006311Y001037D02*
X006311Y001037D01*
X006311Y000938D02*
X006295Y000938D01*
X006327Y000840D02*
X006254Y000840D01*
X006183Y000741D02*
X006368Y000741D01*
X006439Y000643D02*
X006070Y000643D01*
X005553Y000643D02*
X005184Y000643D01*
X005255Y000741D02*
X005440Y000741D01*
X005369Y000840D02*
X005296Y000840D01*
X005311Y000938D02*
X005328Y000938D01*
X005311Y001037D02*
X005311Y001037D01*
X005311Y001135D02*
X005287Y001135D01*
X005246Y001234D02*
X005335Y001234D01*
X005376Y001332D02*
X005163Y001332D01*
X005023Y001431D02*
X005458Y001431D01*
X005741Y001894D02*
X005410Y002225D01*
X005410Y003209D01*
X005402Y003217D01*
X005741Y003204D02*
X011639Y003204D01*
X011630Y003105D02*
X005722Y003105D01*
X005671Y003007D02*
X011647Y003007D01*
X011696Y002908D02*
X005660Y002908D01*
X005660Y002810D02*
X011820Y002810D01*
X011818Y002613D02*
X005660Y002613D01*
X005660Y002711D02*
X012302Y002711D01*
X012302Y002613D02*
X012261Y002613D01*
X012302Y002810D02*
X012118Y002810D01*
X012241Y002908D02*
X012302Y002908D01*
X012291Y003007D02*
X012302Y003007D01*
X012299Y003204D02*
X012302Y003204D01*
X012302Y003302D02*
X012258Y003302D01*
X012302Y003401D02*
X012162Y003401D01*
X012246Y003499D02*
X012302Y003499D01*
X012288Y003598D02*
X012302Y003598D01*
X012300Y003696D02*
X012302Y003696D01*
X012302Y003795D02*
X012286Y003795D01*
X012302Y003893D02*
X012240Y003893D01*
X011676Y003499D02*
X005599Y003499D01*
X005693Y003401D02*
X011776Y003401D01*
X011680Y003302D02*
X005733Y003302D01*
X005660Y002514D02*
X011739Y002514D01*
X011701Y002416D02*
X005660Y002416D01*
X005671Y002317D02*
X011701Y002317D01*
X011730Y002219D02*
X005770Y002219D01*
X005741Y001894D02*
X009150Y001894D01*
X010017Y001027D01*
X010307Y001027D01*
X009844Y000840D02*
X009296Y000840D01*
X009311Y000938D02*
X009753Y000938D01*
X009654Y001037D02*
X009311Y001037D01*
X009287Y001135D02*
X009556Y001135D01*
X009457Y001234D02*
X009246Y001234D01*
X009163Y001332D02*
X009359Y001332D01*
X009260Y001431D02*
X009023Y001431D01*
X009672Y001726D02*
X011753Y001726D01*
X011655Y001628D02*
X009770Y001628D01*
X009869Y001529D02*
X011556Y001529D01*
X011458Y001431D02*
X010611Y001431D01*
X010709Y001332D02*
X011006Y001332D01*
X010907Y001234D02*
X010763Y001234D01*
X010804Y001135D02*
X010853Y001135D01*
X010812Y001037D02*
X010807Y001037D01*
X010807Y000938D02*
X010807Y000938D01*
X010807Y000840D02*
X010771Y000840D01*
X010729Y000741D02*
X010843Y000741D01*
X010885Y000643D02*
X010630Y000643D01*
X010449Y000544D02*
X010983Y000544D01*
X011163Y000446D02*
X001227Y000446D01*
X001572Y000347D02*
X015898Y000347D01*
X015898Y000446D02*
X013452Y000446D01*
X013632Y000544D02*
X014166Y000544D01*
X014208Y000527D02*
X014024Y000603D01*
X013884Y000744D01*
X013807Y000927D01*
X013807Y001126D01*
X013884Y001310D01*
X014024Y001451D01*
X014208Y001527D01*
X014407Y001527D01*
X014591Y001451D01*
X014731Y001310D01*
X014807Y001126D01*
X014807Y000927D01*
X014731Y000744D01*
X014591Y000603D01*
X014407Y000527D01*
X014208Y000527D01*
X014449Y000544D02*
X015069Y000544D01*
X015072Y000542D02*
X015135Y000510D01*
X015202Y000488D01*
X015257Y000479D01*
X015257Y000877D01*
X014860Y000877D01*
X014869Y000821D01*
X014890Y000754D01*
X014923Y000691D01*
X014964Y000634D01*
X015014Y000584D01*
X015072Y000542D01*
X014958Y000643D02*
X014630Y000643D01*
X014729Y000741D02*
X014897Y000741D01*
X014866Y000840D02*
X014771Y000840D01*
X014807Y000938D02*
X015257Y000938D01*
X015257Y000977D02*
X015257Y000877D01*
X015357Y000877D01*
X015357Y000479D01*
X015413Y000488D01*
X015480Y000510D01*
X015543Y000542D01*
X015601Y000584D01*
X015651Y000634D01*
X015692Y000691D01*
X015725Y000754D01*
X015746Y000821D01*
X015755Y000877D01*
X015357Y000877D01*
X015357Y000977D01*
X015257Y000977D01*
X014860Y000977D01*
X014869Y001032D01*
X014890Y001100D01*
X014923Y001163D01*
X014964Y001220D01*
X015014Y001270D01*
X015072Y001312D01*
X015135Y001344D01*
X015202Y001366D01*
X015257Y001374D01*
X015257Y000977D01*
X015257Y001037D02*
X015357Y001037D01*
X015357Y000977D02*
X015357Y001374D01*
X015413Y001366D01*
X015480Y001344D01*
X015543Y001312D01*
X015601Y001270D01*
X015651Y001220D01*
X015692Y001163D01*
X015725Y001100D01*
X015746Y001032D01*
X015755Y000977D01*
X015357Y000977D01*
X015357Y000938D02*
X015898Y000938D01*
X015898Y000840D02*
X015749Y000840D01*
X015718Y000741D02*
X015898Y000741D01*
X015898Y000643D02*
X015657Y000643D01*
X015546Y000544D02*
X015898Y000544D01*
X016158Y000544D02*
X027315Y000544D01*
X027315Y000446D02*
X016158Y000446D01*
X016158Y000360D02*
X016158Y002449D01*
X017954Y002449D01*
X017911Y002345D01*
X017911Y002207D01*
X017965Y002078D01*
X018063Y001980D01*
X018191Y001927D01*
X018330Y001927D01*
X018458Y001980D01*
X018556Y002078D01*
X018609Y002207D01*
X018609Y002331D01*
X021219Y002331D01*
X021219Y002207D01*
X021272Y002078D01*
X021370Y001980D01*
X021498Y001927D01*
X021637Y001927D01*
X021765Y001980D01*
X021863Y002078D01*
X021916Y002207D01*
X021916Y002331D01*
X021932Y002331D01*
X021967Y002296D01*
X021967Y002207D01*
X022020Y002078D01*
X022098Y002000D01*
X022020Y001922D01*
X021967Y001794D01*
X021967Y001655D01*
X022020Y001527D01*
X022118Y001429D01*
X022246Y001376D01*
X022385Y001376D01*
X022513Y001429D01*
X022611Y001527D01*
X022664Y001655D01*
X022664Y001794D01*
X022611Y001922D01*
X022533Y002000D01*
X022611Y002078D01*
X022664Y002207D01*
X022664Y002345D01*
X022611Y002474D01*
X022513Y002572D01*
X022385Y002625D01*
X022374Y002625D01*
X022260Y002738D01*
X022187Y002811D01*
X022091Y002851D01*
X018683Y002851D01*
X018678Y002856D01*
X018604Y002929D01*
X018509Y002969D01*
X016158Y002969D01*
X016158Y005546D01*
X017955Y003748D01*
X018051Y003709D01*
X019080Y003709D01*
X019053Y003645D01*
X019053Y003506D01*
X019106Y003378D01*
X019204Y003280D01*
X019333Y003226D01*
X019471Y003226D01*
X019600Y003280D01*
X019698Y003378D01*
X019751Y003506D01*
X019751Y003645D01*
X019724Y003709D01*
X021538Y003709D01*
X021937Y003310D01*
X022011Y003237D01*
X022106Y003197D01*
X022601Y003197D01*
X023753Y002045D01*
X023693Y002020D01*
X023595Y001923D01*
X023595Y001923D01*
X023497Y002020D01*
X023369Y002074D01*
X023230Y002074D01*
X023102Y002020D01*
X023004Y001922D01*
X022951Y001794D01*
X022951Y001655D01*
X023004Y001527D01*
X023102Y001429D01*
X023230Y001376D01*
X023369Y001376D01*
X023497Y001429D01*
X023595Y001527D01*
X023693Y001429D01*
X023821Y001376D01*
X023960Y001376D01*
X024088Y001429D01*
X024166Y001507D01*
X024244Y001429D01*
X024372Y001376D01*
X024511Y001376D01*
X024639Y001429D01*
X024737Y001527D01*
X024790Y001655D01*
X024790Y001794D01*
X024737Y001922D01*
X024639Y002020D01*
X024511Y002074D01*
X024460Y002074D01*
X022929Y003604D01*
X022856Y003678D01*
X022761Y003717D01*
X022266Y003717D01*
X021998Y003984D01*
X022978Y003984D01*
X023027Y003984D01*
X023030Y003984D01*
X023032Y003984D01*
X023078Y004003D01*
X023124Y004021D01*
X023126Y004023D01*
X023128Y004024D01*
X023163Y004059D01*
X024009Y004872D01*
X024066Y004872D01*
X024194Y004925D01*
X024213Y004944D01*
X024228Y004929D01*
X024356Y004876D01*
X024495Y004876D01*
X024623Y004929D01*
X024642Y004948D01*
X024657Y004933D01*
X024785Y004880D01*
X024924Y004880D01*
X025052Y004933D01*
X025150Y005031D01*
X025203Y005159D01*
X025203Y005298D01*
X025150Y005426D01*
X025115Y005462D01*
X025115Y006009D01*
X025075Y006104D01*
X025002Y006178D01*
X024116Y007063D01*
X024021Y007103D01*
X017777Y007103D01*
X016158Y008722D01*
X016158Y013698D01*
X016193Y013614D01*
X016291Y013516D01*
X016419Y013463D01*
X016558Y013463D01*
X016686Y013516D01*
X016784Y013614D01*
X016837Y013742D01*
X016837Y013881D01*
X016784Y014009D01*
X016686Y014107D01*
X016558Y014160D01*
X016419Y014160D01*
X016291Y014107D01*
X016193Y014009D01*
X016158Y013925D01*
X016158Y016425D01*
X018945Y016425D01*
X018945Y015108D01*
X018909Y015072D01*
X018856Y014944D01*
X018856Y014805D01*
X018909Y014677D01*
X019008Y014579D01*
X019136Y014526D01*
X019274Y014526D01*
X019403Y014579D01*
X019486Y014662D01*
X019486Y014529D01*
X019539Y014401D01*
X019637Y014303D01*
X019766Y014250D01*
X019904Y014250D01*
X020033Y014303D01*
X020131Y014401D01*
X020150Y014448D01*
X020169Y014401D01*
X020267Y014303D01*
X020396Y014250D01*
X020534Y014250D01*
X020663Y014303D01*
X020741Y014381D01*
X020819Y014303D01*
X020947Y014250D01*
X021086Y014250D01*
X021214Y014303D01*
X021312Y014401D01*
X021331Y014448D01*
X021350Y014401D01*
X021449Y014303D01*
X021577Y014250D01*
X021715Y014250D01*
X021844Y014303D01*
X021879Y014339D01*
X023271Y014339D01*
X023355Y014255D01*
X023355Y012382D01*
X023394Y012286D01*
X025362Y010318D01*
X025362Y008209D01*
X025402Y008113D01*
X026780Y006735D01*
X026780Y002903D01*
X026705Y002828D01*
X026652Y002700D01*
X026652Y002561D01*
X026705Y002433D01*
X026803Y002335D01*
X026931Y002282D01*
X027070Y002282D01*
X027198Y002335D01*
X027296Y002433D01*
X027315Y002479D01*
X027315Y000360D01*
X016158Y000360D01*
X016158Y000643D02*
X027315Y000643D01*
X027315Y000741D02*
X016158Y000741D01*
X016158Y000840D02*
X027315Y000840D01*
X027315Y000938D02*
X016158Y000938D01*
X016158Y001037D02*
X027315Y001037D01*
X027315Y001135D02*
X016158Y001135D01*
X016158Y001234D02*
X027315Y001234D01*
X027315Y001332D02*
X016158Y001332D01*
X016158Y001431D02*
X022116Y001431D01*
X022019Y001529D02*
X016158Y001529D01*
X016158Y001628D02*
X021978Y001628D01*
X021967Y001726D02*
X016158Y001726D01*
X016158Y001825D02*
X021979Y001825D01*
X022020Y001923D02*
X016158Y001923D01*
X016158Y002022D02*
X018022Y002022D01*
X017947Y002120D02*
X016158Y002120D01*
X016158Y002219D02*
X017911Y002219D01*
X017911Y002317D02*
X016158Y002317D01*
X016158Y002416D02*
X017941Y002416D01*
X018457Y002709D02*
X018575Y002591D01*
X022040Y002591D01*
X022315Y002315D01*
X022315Y002276D01*
X022077Y002022D02*
X021806Y002022D01*
X021880Y002120D02*
X022002Y002120D01*
X021967Y002219D02*
X021916Y002219D01*
X021916Y002317D02*
X021946Y002317D01*
X022554Y002022D02*
X023105Y002022D01*
X023005Y001923D02*
X022610Y001923D01*
X022652Y001825D02*
X022963Y001825D01*
X022951Y001726D02*
X022664Y001726D01*
X022653Y001628D02*
X022962Y001628D01*
X023003Y001529D02*
X022612Y001529D01*
X022514Y001431D02*
X023101Y001431D01*
X023498Y001431D02*
X023691Y001431D01*
X024089Y001431D02*
X024242Y001431D01*
X024441Y001725D02*
X022709Y003457D01*
X022158Y003457D01*
X021646Y003969D01*
X018103Y003969D01*
X015544Y006528D01*
X015426Y006528D01*
X015110Y006651D02*
X013652Y006651D01*
X013652Y006553D02*
X015087Y006553D01*
X015087Y006595D02*
X015087Y006461D01*
X015138Y006336D01*
X015234Y006241D01*
X015358Y006189D01*
X015493Y006189D01*
X015518Y006200D01*
X015898Y005820D01*
X015898Y002959D01*
X015411Y002959D01*
X014573Y003797D01*
X014573Y004767D01*
X014535Y004859D01*
X014465Y004929D01*
X014386Y005008D01*
X014391Y005008D01*
X014515Y005060D01*
X014610Y005155D01*
X014662Y005279D01*
X014662Y005414D01*
X014610Y005539D01*
X014515Y005634D01*
X014391Y005686D01*
X014256Y005686D01*
X014131Y005634D01*
X014036Y005539D01*
X014007Y005468D01*
X013958Y005489D01*
X013823Y005489D01*
X013698Y005437D01*
X013652Y005391D01*
X013652Y008386D01*
X013689Y008423D01*
X013741Y008547D01*
X013741Y008682D01*
X013689Y008806D01*
X013594Y008902D01*
X013469Y008953D01*
X013335Y008953D01*
X013210Y008902D01*
X013195Y008887D01*
X013195Y012298D01*
X013157Y012390D01*
X012347Y013200D01*
X012347Y013253D01*
X012336Y013280D01*
X013719Y011897D01*
X013719Y011592D01*
X013521Y011394D01*
X013483Y011302D01*
X013483Y009943D01*
X013521Y009851D01*
X013591Y009781D01*
X015898Y007474D01*
X015898Y006527D01*
X015718Y006707D01*
X015713Y006720D01*
X015617Y006815D01*
X015493Y006867D01*
X015358Y006867D01*
X015234Y006815D01*
X015138Y006720D01*
X015087Y006595D01*
X015090Y006454D02*
X013652Y006454D01*
X013652Y006356D02*
X015130Y006356D01*
X015217Y006257D02*
X013652Y006257D01*
X013652Y006159D02*
X015560Y006159D01*
X015658Y006060D02*
X013652Y006060D01*
X013652Y005962D02*
X015757Y005962D01*
X015855Y005863D02*
X013652Y005863D01*
X013652Y005765D02*
X015898Y005765D01*
X015898Y005666D02*
X015225Y005666D01*
X015178Y005686D02*
X015043Y005686D01*
X014919Y005634D01*
X014823Y005539D01*
X014772Y005414D01*
X014772Y005279D01*
X014823Y005155D01*
X014919Y005060D01*
X015043Y005008D01*
X015178Y005008D01*
X015303Y005060D01*
X015398Y005155D01*
X015449Y005279D01*
X015449Y005414D01*
X015398Y005539D01*
X015303Y005634D01*
X015178Y005686D01*
X014996Y005666D02*
X014438Y005666D01*
X014582Y005568D02*
X014852Y005568D01*
X014795Y005469D02*
X014639Y005469D01*
X014662Y005371D02*
X014772Y005371D01*
X014775Y005272D02*
X014659Y005272D01*
X014618Y005174D02*
X014816Y005174D01*
X014903Y005075D02*
X014530Y005075D01*
X014417Y004977D02*
X015898Y004977D01*
X015898Y005075D02*
X015318Y005075D01*
X015405Y005174D02*
X015898Y005174D01*
X015898Y005272D02*
X015446Y005272D01*
X015449Y005371D02*
X015898Y005371D01*
X015898Y005469D02*
X015427Y005469D01*
X015369Y005568D02*
X015898Y005568D01*
X016158Y005469D02*
X016235Y005469D01*
X016158Y005371D02*
X016333Y005371D01*
X016432Y005272D02*
X016158Y005272D01*
X016158Y005174D02*
X016530Y005174D01*
X016629Y005075D02*
X016158Y005075D01*
X016158Y004977D02*
X016727Y004977D01*
X016826Y004878D02*
X016158Y004878D01*
X016158Y004780D02*
X016924Y004780D01*
X017023Y004681D02*
X016158Y004681D01*
X016158Y004583D02*
X017121Y004583D01*
X017220Y004484D02*
X016158Y004484D01*
X016158Y004386D02*
X017318Y004386D01*
X017417Y004287D02*
X016158Y004287D01*
X016158Y004189D02*
X017515Y004189D01*
X017614Y004090D02*
X016158Y004090D01*
X016158Y003992D02*
X017712Y003992D01*
X017811Y003893D02*
X016158Y003893D01*
X016158Y003795D02*
X017909Y003795D01*
X018378Y004244D02*
X018044Y004579D01*
X018496Y005032D01*
X018496Y005111D01*
X018181Y005544D02*
X013733Y009993D01*
X013733Y011252D01*
X013969Y011489D01*
X013969Y012000D01*
X012433Y013536D01*
X012433Y014559D01*
X012197Y014796D01*
X011016Y014796D01*
X010583Y014363D01*
X010583Y010701D01*
X010244Y010690D02*
X009597Y010690D01*
X009551Y010736D02*
X009426Y010788D01*
X009291Y010788D01*
X009167Y010736D01*
X009071Y010641D01*
X009020Y010517D01*
X009020Y010382D01*
X009071Y010257D01*
X009145Y010184D01*
X009092Y010162D01*
X008997Y010066D01*
X008945Y009942D01*
X008945Y009807D01*
X008997Y009683D01*
X009092Y009587D01*
X009216Y009536D01*
X009351Y009536D01*
X009476Y009587D01*
X009571Y009683D01*
X009623Y009807D01*
X009623Y009942D01*
X009571Y010066D01*
X009497Y010140D01*
X009551Y010162D01*
X009646Y010257D01*
X009697Y010382D01*
X009697Y010517D01*
X009646Y010641D01*
X009551Y010736D01*
X009667Y010591D02*
X010262Y010591D01*
X010313Y010493D02*
X009697Y010493D01*
X009697Y010394D02*
X010406Y010394D01*
X010246Y010296D02*
X009662Y010296D01*
X009586Y010197D02*
X010181Y010197D01*
X010154Y010099D02*
X009539Y010099D01*
X009598Y010000D02*
X010154Y010000D01*
X010193Y009902D02*
X009623Y009902D01*
X009621Y009803D02*
X010274Y009803D01*
X010110Y009606D02*
X012302Y009606D01*
X012302Y009508D02*
X010878Y009508D01*
X010854Y009532D02*
X010729Y009583D01*
X010594Y009583D01*
X010470Y009532D01*
X010375Y009436D01*
X010323Y009312D01*
X010323Y009177D01*
X010337Y009142D01*
X010303Y009177D01*
X010185Y009226D01*
X010213Y009295D01*
X010213Y009430D01*
X010162Y009554D01*
X010066Y009650D01*
X009942Y009701D01*
X009807Y009701D01*
X009683Y009650D01*
X009587Y009554D01*
X009536Y009430D01*
X009536Y009295D01*
X009587Y009171D01*
X009683Y009075D01*
X009800Y009027D01*
X009772Y008958D01*
X009772Y008823D01*
X009823Y008698D01*
X009919Y008603D01*
X010042Y008552D01*
X009981Y008491D01*
X009929Y008367D01*
X009929Y008232D01*
X009981Y008108D01*
X010076Y008012D01*
X010201Y007961D01*
X010215Y007961D01*
X010215Y007841D01*
X007423Y007841D01*
X007331Y007803D01*
X007182Y007654D01*
X007130Y007654D01*
X007005Y007603D01*
X006910Y007507D01*
X006859Y007383D01*
X006859Y007248D01*
X006910Y007123D01*
X007005Y007028D01*
X007130Y006977D01*
X007265Y006977D01*
X007389Y007028D01*
X007484Y007123D01*
X007536Y007248D01*
X007536Y007301D01*
X007576Y007341D01*
X010436Y007341D01*
X010528Y007379D01*
X010598Y007449D01*
X010677Y007528D01*
X010715Y007620D01*
X010715Y007920D01*
X010834Y008040D01*
X010887Y008040D01*
X011011Y008091D01*
X011106Y008186D01*
X011158Y008311D01*
X011158Y008446D01*
X011106Y008570D01*
X011011Y008666D01*
X010887Y008717D01*
X010752Y008717D01*
X010627Y008666D01*
X010532Y008570D01*
X010516Y008531D01*
X010460Y008587D01*
X010337Y008638D01*
X010398Y008698D01*
X010449Y008823D01*
X010449Y008958D01*
X010435Y008992D01*
X010470Y008957D01*
X010594Y008906D01*
X010729Y008906D01*
X010854Y008957D01*
X010949Y009053D01*
X011001Y009177D01*
X011001Y009312D01*
X010949Y009436D01*
X010854Y009532D01*
X010960Y009409D02*
X012302Y009409D01*
X012302Y009311D02*
X011001Y009311D01*
X011001Y009212D02*
X012302Y009212D01*
X012302Y009114D02*
X010974Y009114D01*
X010911Y009015D02*
X012302Y009015D01*
X012302Y008917D02*
X010755Y008917D01*
X010568Y008917D02*
X010449Y008917D01*
X010447Y008818D02*
X012302Y008818D01*
X012302Y008720D02*
X010407Y008720D01*
X010377Y008621D02*
X010583Y008621D01*
X010819Y008378D02*
X010465Y008024D01*
X010465Y007670D01*
X010386Y007591D01*
X007473Y007591D01*
X007197Y007315D01*
X006882Y007439D02*
X004585Y007439D01*
X004595Y007414D02*
X004543Y007539D01*
X004448Y007634D01*
X004324Y007686D01*
X004189Y007686D01*
X004064Y007634D01*
X003969Y007539D01*
X003918Y007414D01*
X003918Y007279D01*
X003969Y007155D01*
X004064Y007060D01*
X004189Y007008D01*
X004324Y007008D01*
X004448Y007060D01*
X004543Y007155D01*
X004595Y007279D01*
X004595Y007414D01*
X004595Y007341D02*
X005706Y007341D01*
X005713Y007343D02*
X005588Y007291D01*
X005493Y007196D01*
X005441Y007072D01*
X005441Y006937D01*
X005493Y006812D01*
X005588Y006717D01*
X005713Y006666D01*
X005847Y006666D01*
X005972Y006717D01*
X006067Y006812D01*
X006119Y006937D01*
X006119Y007072D01*
X006067Y007196D01*
X005972Y007291D01*
X005847Y007343D01*
X005713Y007343D01*
X005853Y007341D02*
X006859Y007341D01*
X006861Y007242D02*
X006021Y007242D01*
X006089Y007144D02*
X006902Y007144D01*
X006989Y007045D02*
X006119Y007045D01*
X006119Y006947D02*
X012302Y006947D01*
X012302Y007045D02*
X011980Y007045D01*
X012035Y007068D02*
X012130Y007163D01*
X012182Y007287D01*
X012182Y007422D01*
X012130Y007547D01*
X012035Y007642D01*
X011910Y007693D01*
X011776Y007693D01*
X011651Y007642D01*
X011556Y007547D01*
X011504Y007422D01*
X011504Y007287D01*
X011556Y007163D01*
X011651Y007068D01*
X011776Y007016D01*
X011910Y007016D01*
X012035Y007068D01*
X012111Y007144D02*
X012302Y007144D01*
X012302Y007242D02*
X012163Y007242D01*
X012182Y007341D02*
X012302Y007341D01*
X012302Y007439D02*
X012175Y007439D01*
X012134Y007538D02*
X012302Y007538D01*
X012302Y007636D02*
X012041Y007636D01*
X012302Y007735D02*
X010715Y007735D01*
X010715Y007833D02*
X012302Y007833D01*
X012302Y007932D02*
X012249Y007932D01*
X012066Y007932D02*
X010726Y007932D01*
X010825Y008030D02*
X011909Y008030D01*
X011846Y008129D02*
X011049Y008129D01*
X011123Y008227D02*
X011819Y008227D01*
X011819Y008326D02*
X011158Y008326D01*
X011158Y008424D02*
X011859Y008424D01*
X011941Y008523D02*
X011126Y008523D01*
X011056Y008621D02*
X012302Y008621D01*
X013195Y008917D02*
X013246Y008917D01*
X013195Y009015D02*
X014357Y009015D01*
X014455Y008917D02*
X013558Y008917D01*
X013678Y008818D02*
X014554Y008818D01*
X014652Y008720D02*
X013725Y008720D01*
X013741Y008621D02*
X014751Y008621D01*
X014849Y008523D02*
X013730Y008523D01*
X013690Y008424D02*
X014948Y008424D01*
X015046Y008326D02*
X013652Y008326D01*
X013652Y008227D02*
X015145Y008227D01*
X015243Y008129D02*
X013652Y008129D01*
X013652Y008030D02*
X015342Y008030D01*
X015440Y007932D02*
X013652Y007932D01*
X013652Y007833D02*
X015539Y007833D01*
X015637Y007735D02*
X013652Y007735D01*
X013652Y007636D02*
X015736Y007636D01*
X015834Y007538D02*
X013652Y007538D01*
X013652Y007439D02*
X015898Y007439D01*
X015898Y007341D02*
X013652Y007341D01*
X013652Y007242D02*
X015898Y007242D01*
X015898Y007144D02*
X013652Y007144D01*
X013652Y007045D02*
X015898Y007045D01*
X015898Y006947D02*
X013652Y006947D01*
X013652Y006848D02*
X015313Y006848D01*
X015168Y006750D02*
X013652Y006750D01*
X012302Y006750D02*
X006004Y006750D01*
X006082Y006848D02*
X012302Y006848D01*
X012302Y006651D02*
X002220Y006651D01*
X002217Y006643D02*
X002268Y006768D01*
X002268Y006902D01*
X002217Y007027D01*
X002121Y007122D01*
X001997Y007174D01*
X001862Y007174D01*
X001738Y007122D01*
X001642Y007027D01*
X001591Y006902D01*
X001591Y006768D01*
X001642Y006643D01*
X001738Y006548D01*
X001862Y006496D01*
X001997Y006496D01*
X002121Y006548D01*
X002217Y006643D01*
X002261Y006750D02*
X005556Y006750D01*
X005478Y006848D02*
X002268Y006848D01*
X002250Y006947D02*
X005441Y006947D01*
X005441Y007045D02*
X004413Y007045D01*
X004532Y007144D02*
X005471Y007144D01*
X005539Y007242D02*
X004580Y007242D01*
X004100Y007045D02*
X002199Y007045D01*
X002070Y007144D02*
X003981Y007144D01*
X003933Y007242D02*
X001273Y007242D01*
X001184Y007205D02*
X001367Y007281D01*
X001508Y007422D01*
X001584Y007606D01*
X001584Y007805D01*
X001508Y007988D01*
X001367Y008129D01*
X001184Y008205D01*
X000985Y008205D01*
X000801Y008129D01*
X000660Y007988D01*
X000584Y007805D01*
X000584Y007606D01*
X000660Y007422D01*
X000801Y007281D01*
X000985Y007205D01*
X001184Y007205D01*
X001427Y007341D02*
X003918Y007341D01*
X003928Y007439D02*
X001515Y007439D01*
X001556Y007538D02*
X003969Y007538D01*
X004069Y007636D02*
X001584Y007636D01*
X001584Y007735D02*
X007263Y007735D01*
X007404Y007833D02*
X001572Y007833D01*
X001532Y007932D02*
X010215Y007932D01*
X010059Y008030D02*
X008872Y008030D01*
X008925Y008052D02*
X008800Y008000D01*
X008665Y008000D01*
X008541Y008052D01*
X008446Y008147D01*
X008394Y008272D01*
X008394Y008406D01*
X008446Y008531D01*
X008541Y008626D01*
X008665Y008678D01*
X008800Y008678D01*
X008925Y008626D01*
X009020Y008531D01*
X009071Y008406D01*
X009071Y008272D01*
X009020Y008147D01*
X008925Y008052D01*
X009001Y008129D02*
X009972Y008129D01*
X009932Y008227D02*
X009053Y008227D01*
X009071Y008326D02*
X009929Y008326D01*
X009953Y008424D02*
X009064Y008424D01*
X009023Y008523D02*
X010012Y008523D01*
X009901Y008621D02*
X008930Y008621D01*
X008536Y008621D02*
X001684Y008621D01*
X001684Y008606D02*
X001608Y008422D01*
X001467Y008281D01*
X001284Y008205D01*
X001085Y008205D01*
X000901Y008281D01*
X000760Y008422D01*
X000684Y008606D01*
X000684Y008805D01*
X000760Y008988D01*
X000901Y009129D01*
X001085Y009205D01*
X001284Y009205D01*
X001467Y009129D01*
X001608Y008988D01*
X001684Y008805D01*
X001684Y008606D01*
X001650Y008523D02*
X008442Y008523D01*
X008401Y008424D02*
X001609Y008424D01*
X001512Y008326D02*
X008394Y008326D01*
X008412Y008227D02*
X001337Y008227D01*
X001368Y008129D02*
X008464Y008129D01*
X008593Y008030D02*
X001466Y008030D01*
X001032Y008227D02*
X000320Y008227D01*
X000320Y008129D02*
X000801Y008129D01*
X000702Y008030D02*
X000320Y008030D01*
X000320Y007932D02*
X000637Y007932D01*
X000596Y007833D02*
X000320Y007833D01*
X000320Y007735D02*
X000584Y007735D01*
X000584Y007636D02*
X000320Y007636D01*
X000320Y007538D02*
X000612Y007538D01*
X000653Y007439D02*
X000320Y007439D01*
X000320Y007341D02*
X000742Y007341D01*
X000896Y007242D02*
X000320Y007242D01*
X000320Y007144D02*
X001789Y007144D01*
X001660Y007045D02*
X000320Y007045D01*
X000320Y006947D02*
X001609Y006947D01*
X001591Y006848D02*
X000320Y006848D01*
X000320Y006750D02*
X001598Y006750D01*
X001639Y006651D02*
X000320Y006651D01*
X000320Y006553D02*
X001733Y006553D01*
X002126Y006553D02*
X012302Y006553D01*
X011705Y007045D02*
X007406Y007045D01*
X007493Y007144D02*
X011575Y007144D01*
X011523Y007242D02*
X007534Y007242D01*
X007576Y007341D02*
X011504Y007341D01*
X011511Y007439D02*
X010588Y007439D01*
X010681Y007538D02*
X011552Y007538D01*
X011645Y007636D02*
X010715Y007636D01*
X009815Y008720D02*
X001684Y008720D01*
X001679Y008818D02*
X009774Y008818D01*
X009772Y008917D02*
X001638Y008917D01*
X001581Y009015D02*
X009796Y009015D01*
X009644Y009114D02*
X001483Y009114D01*
X001350Y009307D02*
X001483Y009439D01*
X001554Y009612D01*
X001554Y009799D01*
X001483Y009971D01*
X001350Y010104D01*
X001178Y010175D01*
X000991Y010175D01*
X000818Y010104D01*
X000686Y009971D01*
X000614Y009799D01*
X000614Y009612D01*
X000686Y009439D01*
X000818Y009307D01*
X000991Y009235D01*
X001178Y009235D01*
X001350Y009307D01*
X001354Y009311D02*
X005093Y009311D01*
X005116Y009288D02*
X005240Y009236D01*
X005375Y009236D01*
X005499Y009288D01*
X005595Y009383D01*
X005646Y009508D01*
X005646Y009510D01*
X005711Y009483D01*
X005833Y009483D01*
X005947Y009530D01*
X006034Y009617D01*
X006066Y009696D01*
X006151Y009611D01*
X006276Y009559D01*
X006410Y009559D01*
X006535Y009611D01*
X006630Y009706D01*
X006682Y009831D01*
X006682Y009965D01*
X006630Y010090D01*
X006535Y010185D01*
X006410Y010237D01*
X006276Y010237D01*
X006151Y010185D01*
X006056Y010090D01*
X006013Y009987D01*
X005947Y010053D01*
X005833Y010100D01*
X005711Y010100D01*
X005597Y010053D01*
X005510Y009967D01*
X005472Y009874D01*
X005375Y009914D01*
X005240Y009914D01*
X005116Y009862D01*
X005020Y009767D01*
X004969Y009643D01*
X004969Y009508D01*
X005020Y009383D01*
X005116Y009288D01*
X005010Y009409D02*
X001453Y009409D01*
X001511Y009508D02*
X004969Y009508D01*
X004969Y009606D02*
X001552Y009606D01*
X001554Y009705D02*
X004994Y009705D01*
X005056Y009803D02*
X001552Y009803D01*
X001512Y009902D02*
X005210Y009902D01*
X005405Y009902D02*
X005483Y009902D01*
X005544Y010000D02*
X001454Y010000D01*
X001356Y010099D02*
X005706Y010099D01*
X005838Y010099D02*
X006064Y010099D01*
X006019Y010000D02*
X006000Y010000D01*
X006180Y010197D02*
X000320Y010197D01*
X000320Y010099D02*
X000813Y010099D01*
X000714Y010000D02*
X000320Y010000D01*
X000320Y009902D02*
X000657Y009902D01*
X000616Y009803D02*
X000320Y009803D01*
X000320Y009705D02*
X000614Y009705D01*
X000617Y009606D02*
X000320Y009606D01*
X000320Y009508D02*
X000657Y009508D01*
X000716Y009409D02*
X000320Y009409D01*
X000320Y009311D02*
X000814Y009311D01*
X000886Y009114D02*
X000320Y009114D01*
X000320Y009212D02*
X009570Y009212D01*
X009536Y009311D02*
X005522Y009311D01*
X005605Y009409D02*
X009536Y009409D01*
X009568Y009508D02*
X005893Y009508D01*
X006023Y009606D02*
X006163Y009606D01*
X006523Y009606D02*
X009073Y009606D01*
X008988Y009705D02*
X006628Y009705D01*
X006670Y009803D02*
X008947Y009803D01*
X008945Y009902D02*
X006682Y009902D01*
X006667Y010000D02*
X008969Y010000D01*
X009029Y010099D02*
X006621Y010099D01*
X006506Y010197D02*
X009132Y010197D01*
X009056Y010296D02*
X001482Y010296D01*
X001467Y010281D02*
X001608Y010422D01*
X001684Y010606D01*
X001684Y010805D01*
X001608Y010988D01*
X001467Y011129D01*
X001284Y011205D01*
X001085Y011205D01*
X000901Y011129D01*
X000760Y010988D01*
X000684Y010805D01*
X000684Y010606D01*
X000760Y010422D01*
X000901Y010281D01*
X001085Y010205D01*
X001284Y010205D01*
X001467Y010281D01*
X001580Y010394D02*
X009020Y010394D01*
X009020Y010493D02*
X005960Y010493D01*
X005928Y010461D02*
X006024Y010557D01*
X006075Y010681D01*
X006075Y010816D01*
X006134Y010792D01*
X006269Y010792D01*
X006393Y010843D01*
X006488Y010938D01*
X006540Y011063D01*
X006540Y011198D01*
X006488Y011322D01*
X006393Y011417D01*
X006269Y011469D01*
X006134Y011469D01*
X006009Y011417D01*
X005914Y011322D01*
X005862Y011198D01*
X005862Y011063D01*
X005804Y011087D01*
X005669Y011087D01*
X005545Y011036D01*
X005449Y010940D01*
X005398Y010816D01*
X005398Y010681D01*
X005449Y010557D01*
X005545Y010461D01*
X005669Y010410D01*
X005804Y010410D01*
X005928Y010461D01*
X006038Y010591D02*
X007668Y010591D01*
X007697Y010579D02*
X007832Y010579D01*
X007956Y010631D01*
X008051Y010726D01*
X008103Y010850D01*
X008103Y010985D01*
X009612Y010985D01*
X009485Y011084D02*
X008062Y011084D01*
X008051Y011110D02*
X007956Y011205D01*
X007832Y011256D01*
X007697Y011256D01*
X007572Y011205D01*
X007477Y011110D01*
X007425Y010985D01*
X006508Y010985D01*
X006540Y011084D02*
X007466Y011084D01*
X007425Y010985D02*
X007425Y010850D01*
X007477Y010726D01*
X007572Y010631D01*
X007697Y010579D01*
X007861Y010591D02*
X009051Y010591D01*
X009120Y010690D02*
X008015Y010690D01*
X008077Y010788D02*
X010252Y010788D01*
X010293Y010887D02*
X008103Y010887D01*
X008103Y010985D02*
X008051Y011110D01*
X007979Y011182D02*
X009435Y011182D01*
X009418Y011281D02*
X006506Y011281D01*
X006540Y011182D02*
X007549Y011182D01*
X007425Y010887D02*
X006436Y010887D01*
X006075Y010788D02*
X007451Y010788D01*
X007513Y010690D02*
X006075Y010690D01*
X005513Y010493D02*
X001637Y010493D01*
X001678Y010591D02*
X004161Y010591D01*
X004151Y010595D02*
X004276Y010544D01*
X004410Y010544D01*
X004535Y010595D01*
X004630Y010690D01*
X004682Y010815D01*
X004682Y010950D01*
X004630Y011074D01*
X004535Y011169D01*
X004410Y011221D01*
X004276Y011221D01*
X004151Y011169D01*
X004056Y011074D01*
X004004Y010950D01*
X004004Y010815D01*
X004056Y010690D01*
X004151Y010595D01*
X004057Y010690D02*
X001684Y010690D01*
X001684Y010788D02*
X004015Y010788D01*
X004004Y010887D02*
X001650Y010887D01*
X001610Y010985D02*
X004019Y010985D01*
X004065Y011084D02*
X001513Y011084D01*
X001339Y011182D02*
X004181Y011182D01*
X004504Y011182D02*
X005862Y011182D01*
X005862Y011084D02*
X005813Y011084D01*
X005660Y011084D02*
X004621Y011084D01*
X004667Y010985D02*
X005494Y010985D01*
X005427Y010887D02*
X004682Y010887D01*
X004671Y010788D02*
X005398Y010788D01*
X005398Y010690D02*
X004629Y010690D01*
X004525Y010591D02*
X005435Y010591D01*
X005897Y011281D02*
X001234Y011281D01*
X001257Y011288D02*
X001320Y011320D01*
X001377Y011362D01*
X001427Y011412D01*
X001469Y011469D01*
X001501Y011532D01*
X001523Y011600D01*
X001532Y011655D01*
X001134Y011655D01*
X001134Y011257D01*
X001190Y011266D01*
X001257Y011288D01*
X001134Y011281D02*
X001034Y011281D01*
X001034Y011257D02*
X001034Y011655D01*
X000637Y011655D01*
X000645Y011600D01*
X000667Y011532D01*
X000699Y011469D01*
X000741Y011412D01*
X000791Y011362D01*
X000848Y011320D01*
X000912Y011288D01*
X000979Y011266D01*
X001034Y011257D01*
X001029Y011182D02*
X000320Y011182D01*
X000320Y011084D02*
X000856Y011084D01*
X000759Y010985D02*
X000320Y010985D01*
X000320Y010887D02*
X000718Y010887D01*
X000684Y010788D02*
X000320Y010788D01*
X000320Y010690D02*
X000684Y010690D01*
X000690Y010591D02*
X000320Y010591D01*
X000320Y010493D02*
X000731Y010493D01*
X000788Y010394D02*
X000320Y010394D01*
X000320Y010296D02*
X000887Y010296D01*
X000935Y011281D02*
X000320Y011281D01*
X000320Y011379D02*
X000774Y011379D01*
X000695Y011478D02*
X000320Y011478D01*
X000320Y011576D02*
X000653Y011576D01*
X000637Y011755D02*
X001034Y011755D01*
X001034Y011655D01*
X001134Y011655D01*
X001134Y011755D01*
X001034Y011755D01*
X001034Y012153D01*
X000979Y012144D01*
X000912Y012122D01*
X000848Y012090D01*
X000791Y012048D01*
X000741Y011998D01*
X000699Y011941D01*
X000667Y011878D01*
X000645Y011810D01*
X000637Y011755D01*
X000639Y011773D02*
X000320Y011773D01*
X000320Y011675D02*
X001034Y011675D01*
X001034Y011773D02*
X001134Y011773D01*
X001134Y011755D02*
X001134Y012153D01*
X001190Y012144D01*
X001257Y012122D01*
X001320Y012090D01*
X001377Y012048D01*
X001427Y011998D01*
X001469Y011941D01*
X001501Y011878D01*
X001523Y011810D01*
X001532Y011755D01*
X001134Y011755D01*
X001134Y011675D02*
X002058Y011675D01*
X002068Y011651D02*
X002163Y011556D01*
X002287Y011504D01*
X002422Y011504D01*
X002547Y011556D01*
X002642Y011651D01*
X002693Y011776D01*
X002693Y011910D01*
X002642Y012035D01*
X002547Y012130D01*
X002422Y012182D01*
X002287Y012182D01*
X002163Y012130D01*
X002068Y012035D01*
X002016Y011910D01*
X002016Y011776D01*
X002068Y011651D01*
X002143Y011576D02*
X001515Y011576D01*
X001473Y011478D02*
X009467Y011478D01*
X009506Y011576D02*
X003354Y011576D01*
X003334Y011556D02*
X003429Y011651D01*
X003481Y011776D01*
X003481Y011910D01*
X003429Y012035D01*
X003334Y012130D01*
X003210Y012182D01*
X003075Y012182D01*
X002950Y012130D01*
X002855Y012035D01*
X002803Y011910D01*
X002803Y011776D01*
X002855Y011651D01*
X002950Y011556D01*
X003075Y011504D01*
X003210Y011504D01*
X003334Y011556D01*
X003439Y011675D02*
X009506Y011675D01*
X009506Y011773D02*
X003480Y011773D01*
X003481Y011872D02*
X009506Y011872D01*
X009506Y011970D02*
X003456Y011970D01*
X003396Y012069D02*
X009506Y012069D01*
X009506Y012167D02*
X003245Y012167D01*
X003039Y012167D02*
X002457Y012167D01*
X002608Y012069D02*
X002889Y012069D01*
X002828Y011970D02*
X002669Y011970D01*
X002693Y011872D02*
X002803Y011872D01*
X002804Y011773D02*
X002692Y011773D01*
X002652Y011675D02*
X002845Y011675D01*
X002930Y011576D02*
X002567Y011576D01*
X002017Y011773D02*
X001529Y011773D01*
X001503Y011872D02*
X002016Y011872D01*
X002041Y011970D02*
X001448Y011970D01*
X001350Y012069D02*
X002101Y012069D01*
X002252Y012167D02*
X000320Y012167D01*
X000320Y012069D02*
X000819Y012069D01*
X000720Y011970D02*
X000320Y011970D01*
X000320Y011872D02*
X000665Y011872D01*
X001034Y011872D02*
X001134Y011872D01*
X001134Y011970D02*
X001034Y011970D01*
X001034Y012069D02*
X001134Y012069D01*
X001085Y012205D02*
X001284Y012205D01*
X001467Y012281D01*
X001608Y012422D01*
X001684Y012606D01*
X001684Y012805D01*
X001608Y012988D01*
X001467Y013129D01*
X001284Y013205D01*
X001085Y013205D01*
X000901Y013129D01*
X000760Y012988D01*
X000684Y012805D01*
X000684Y012606D01*
X000760Y012422D01*
X000901Y012281D01*
X001085Y012205D01*
X000939Y012266D02*
X000320Y012266D01*
X000320Y012364D02*
X000818Y012364D01*
X000744Y012463D02*
X000320Y012463D01*
X000320Y012561D02*
X000703Y012561D01*
X000684Y012660D02*
X000320Y012660D01*
X000320Y012758D02*
X000684Y012758D01*
X000706Y012857D02*
X000320Y012857D01*
X000320Y012955D02*
X000747Y012955D01*
X000826Y013054D02*
X000320Y013054D01*
X000320Y013152D02*
X000957Y013152D01*
X001412Y013152D02*
X009506Y013152D01*
X009506Y013054D02*
X001543Y013054D01*
X001622Y012955D02*
X003691Y012955D01*
X003724Y012969D02*
X003600Y012917D01*
X003505Y012822D01*
X003453Y012698D01*
X003453Y012563D01*
X003505Y012438D01*
X003600Y012343D01*
X003724Y012292D01*
X003859Y012292D01*
X003984Y012343D01*
X004079Y012438D01*
X004130Y012563D01*
X004130Y012698D01*
X004079Y012822D01*
X003984Y012917D01*
X003859Y012969D01*
X003724Y012969D01*
X003893Y012955D02*
X009506Y012955D01*
X009506Y012857D02*
X004045Y012857D01*
X004105Y012758D02*
X009506Y012758D01*
X009506Y012660D02*
X004130Y012660D01*
X004130Y012561D02*
X009506Y012561D01*
X009506Y012463D02*
X004089Y012463D01*
X004004Y012364D02*
X009506Y012364D01*
X009506Y012266D02*
X001430Y012266D01*
X001550Y012364D02*
X003579Y012364D01*
X003495Y012463D02*
X001625Y012463D01*
X001666Y012561D02*
X003454Y012561D01*
X003453Y012660D02*
X001684Y012660D01*
X001684Y012758D02*
X003478Y012758D01*
X003539Y012857D02*
X001663Y012857D01*
X000320Y013251D02*
X009506Y013251D01*
X009506Y013349D02*
X000320Y013349D01*
X000320Y013448D02*
X009506Y013448D01*
X009506Y013546D02*
X000320Y013546D01*
X000320Y013645D02*
X009506Y013645D01*
X009506Y013743D02*
X000320Y013743D01*
X000320Y013842D02*
X009506Y013842D01*
X009506Y013940D02*
X002766Y013940D01*
X002743Y013918D02*
X002839Y014013D01*
X002890Y014138D01*
X002890Y014272D01*
X002839Y014397D01*
X002814Y014422D01*
X002839Y014446D01*
X002890Y014571D01*
X002890Y014706D01*
X002839Y014830D01*
X002814Y014855D01*
X002839Y014879D01*
X002890Y015004D01*
X002890Y015139D01*
X002839Y015263D01*
X002743Y015358D01*
X002619Y015410D01*
X002484Y015410D01*
X002360Y015358D01*
X002276Y015275D01*
X002192Y015358D01*
X002068Y015410D01*
X001933Y015410D01*
X001809Y015358D01*
X001725Y015275D01*
X001641Y015358D01*
X001517Y015410D01*
X001382Y015410D01*
X001257Y015358D01*
X001174Y015275D01*
X001090Y015358D01*
X000965Y015410D01*
X000831Y015410D01*
X000706Y015358D01*
X000611Y015263D01*
X000559Y015139D01*
X000559Y015004D01*
X000611Y014879D01*
X000636Y014855D01*
X000611Y014830D01*
X000559Y014706D01*
X000559Y014571D01*
X000611Y014446D01*
X000636Y014422D01*
X000611Y014397D01*
X000559Y014272D01*
X000559Y014138D01*
X000611Y014013D01*
X000706Y013918D01*
X000831Y013866D01*
X000965Y013866D01*
X001090Y013918D01*
X001174Y014002D01*
X001257Y013918D01*
X001382Y013866D01*
X001517Y013866D01*
X001641Y013918D01*
X001725Y014002D01*
X001809Y013918D01*
X001933Y013866D01*
X002068Y013866D01*
X002192Y013918D01*
X002276Y014002D01*
X002360Y013918D01*
X002484Y013866D01*
X002619Y013866D01*
X002743Y013918D01*
X002849Y014039D02*
X009506Y014039D01*
X009523Y014137D02*
X002890Y014137D01*
X002890Y014236D02*
X009591Y014236D01*
X009689Y014334D02*
X002865Y014334D01*
X002825Y014433D02*
X009788Y014433D01*
X009886Y014531D02*
X002874Y014531D01*
X002890Y014630D02*
X009985Y014630D01*
X010083Y014728D02*
X002881Y014728D01*
X002840Y014827D02*
X010182Y014827D01*
X010280Y014925D02*
X002858Y014925D01*
X002890Y015024D02*
X010379Y015024D01*
X010477Y015122D02*
X002890Y015122D01*
X002856Y015221D02*
X010576Y015221D01*
X010674Y015319D02*
X002783Y015319D01*
X002320Y015319D02*
X002232Y015319D01*
X001769Y015319D02*
X001680Y015319D01*
X001218Y015319D02*
X001129Y015319D01*
X000667Y015319D02*
X000320Y015319D01*
X000320Y015221D02*
X000593Y015221D01*
X000559Y015122D02*
X000320Y015122D01*
X000320Y015024D02*
X000559Y015024D01*
X000592Y014925D02*
X000320Y014925D01*
X000320Y014827D02*
X000609Y014827D01*
X000569Y014728D02*
X000320Y014728D01*
X000320Y014630D02*
X000559Y014630D01*
X000576Y014531D02*
X000320Y014531D01*
X000320Y014433D02*
X000625Y014433D01*
X000585Y014334D02*
X000320Y014334D01*
X000320Y014236D02*
X000559Y014236D01*
X000560Y014137D02*
X000320Y014137D01*
X000320Y014039D02*
X000600Y014039D01*
X000684Y013940D02*
X000320Y013940D01*
X001112Y013940D02*
X001235Y013940D01*
X001663Y013940D02*
X001786Y013940D01*
X002214Y013940D02*
X002338Y013940D01*
X000320Y015418D02*
X015191Y015418D01*
X015178Y015431D02*
X015273Y015335D01*
X015398Y015284D01*
X015532Y015284D01*
X015657Y015335D01*
X015752Y015431D01*
X015804Y015555D01*
X015804Y015690D01*
X015752Y015814D01*
X015657Y015910D01*
X015532Y015961D01*
X015398Y015961D01*
X015273Y015910D01*
X015178Y015814D01*
X015126Y015690D01*
X015126Y015555D01*
X015178Y015431D01*
X015142Y015516D02*
X000320Y015516D01*
X000320Y015615D02*
X015126Y015615D01*
X015136Y015713D02*
X000320Y015713D01*
X000320Y015812D02*
X015177Y015812D01*
X015274Y015910D02*
X000320Y015910D01*
X000320Y016009D02*
X015898Y016009D01*
X015898Y016107D02*
X000320Y016107D01*
X000320Y016206D02*
X015898Y016206D01*
X015898Y016304D02*
X000320Y016304D01*
X000320Y016403D02*
X015898Y016403D01*
X015898Y016501D02*
X000320Y016501D01*
X000320Y016600D02*
X015898Y016600D01*
X015898Y016698D02*
X000320Y016698D01*
X000320Y016797D02*
X015898Y016797D01*
X015898Y016895D02*
X001939Y016895D01*
X002043Y016938D02*
X001760Y016821D01*
X001454Y016821D01*
X001171Y016938D01*
X000954Y017155D01*
X000837Y017438D01*
X000837Y017744D01*
X000954Y018027D01*
X001171Y018244D01*
X001454Y018361D01*
X001760Y018361D01*
X002043Y018244D01*
X002259Y018027D01*
X002377Y017744D01*
X002377Y017438D01*
X002259Y017155D01*
X002043Y016938D01*
X002098Y016994D02*
X015898Y016994D01*
X015898Y017092D02*
X002197Y017092D01*
X002274Y017191D02*
X015898Y017191D01*
X015898Y017289D02*
X002315Y017289D01*
X002356Y017388D02*
X015898Y017388D01*
X015898Y017486D02*
X002377Y017486D01*
X002377Y017585D02*
X015898Y017585D01*
X015898Y017683D02*
X015167Y017683D01*
X015141Y017672D02*
X015314Y017744D01*
X015446Y017876D01*
X015518Y018049D01*
X015518Y018236D01*
X015446Y018408D01*
X015314Y018541D01*
X015141Y018612D01*
X014954Y018612D01*
X014781Y018541D01*
X014649Y018408D01*
X014578Y018236D01*
X014578Y018049D01*
X014649Y017876D01*
X014781Y017744D01*
X014954Y017672D01*
X015141Y017672D01*
X014928Y017683D02*
X014246Y017683D01*
X014331Y017718D02*
X014472Y017859D01*
X014548Y018043D01*
X014548Y018242D01*
X014472Y018425D01*
X014331Y018566D01*
X014147Y018642D01*
X013948Y018642D01*
X013764Y018566D01*
X013624Y018425D01*
X013548Y018242D01*
X013548Y018043D01*
X013624Y017859D01*
X013764Y017718D01*
X013948Y017642D01*
X014147Y017642D01*
X014331Y017718D01*
X014394Y017782D02*
X014744Y017782D01*
X014647Y017880D02*
X014480Y017880D01*
X014521Y017979D02*
X014607Y017979D01*
X014578Y018077D02*
X014548Y018077D01*
X014548Y018176D02*
X014578Y018176D01*
X014594Y018274D02*
X014534Y018274D01*
X014493Y018373D02*
X014634Y018373D01*
X014712Y018471D02*
X014426Y018471D01*
X014322Y018570D02*
X014851Y018570D01*
X015244Y018570D02*
X015898Y018570D01*
X015898Y018668D02*
X000769Y018668D01*
X000634Y018570D02*
X003478Y018570D01*
X003469Y018566D02*
X003328Y018425D01*
X003252Y018242D01*
X003252Y018043D01*
X003328Y017859D01*
X003469Y017718D01*
X003653Y017642D01*
X003852Y017642D01*
X004036Y017718D01*
X004176Y017859D01*
X004252Y018043D01*
X004252Y018242D01*
X004176Y018425D01*
X004036Y018566D01*
X003852Y018642D01*
X003653Y018642D01*
X003469Y018566D01*
X003374Y018471D02*
X000561Y018471D01*
X000489Y018373D02*
X003307Y018373D01*
X003266Y018274D02*
X001970Y018274D01*
X002111Y018176D02*
X003252Y018176D01*
X003252Y018077D02*
X002210Y018077D01*
X002280Y017979D02*
X003279Y017979D01*
X003320Y017880D02*
X002320Y017880D01*
X002361Y017782D02*
X003406Y017782D01*
X003554Y017683D02*
X002377Y017683D01*
X001244Y018274D02*
X000427Y018274D01*
X000395Y018176D02*
X001102Y018176D01*
X001004Y018077D02*
X000363Y018077D01*
X000333Y017983D02*
X000333Y017983D01*
X000333Y017979D02*
X000934Y017979D01*
X000893Y017880D02*
X000325Y017880D01*
X000320Y017782D02*
X000852Y017782D01*
X000837Y017683D02*
X000320Y017683D01*
X000320Y017585D02*
X000837Y017585D01*
X000837Y017486D02*
X000320Y017486D01*
X000320Y017388D02*
X000858Y017388D01*
X000898Y017289D02*
X000320Y017289D01*
X000320Y017191D02*
X000939Y017191D01*
X001017Y017092D02*
X000320Y017092D01*
X000320Y016994D02*
X001115Y016994D01*
X001275Y016895D02*
X000320Y016895D01*
X003951Y017683D02*
X004554Y017683D01*
X004469Y017718D02*
X004653Y017642D01*
X004852Y017642D01*
X005036Y017718D01*
X005176Y017859D01*
X005252Y018043D01*
X005252Y018242D01*
X005176Y018425D01*
X005036Y018566D01*
X004852Y018642D01*
X004653Y018642D01*
X004469Y018566D01*
X004328Y018425D01*
X004252Y018242D01*
X004252Y018043D01*
X004328Y017859D01*
X004469Y017718D01*
X004406Y017782D02*
X004099Y017782D01*
X004185Y017880D02*
X004320Y017880D01*
X004279Y017979D02*
X004226Y017979D01*
X004252Y018077D02*
X004252Y018077D01*
X004252Y018176D02*
X004252Y018176D01*
X004239Y018274D02*
X004266Y018274D01*
X004307Y018373D02*
X004198Y018373D01*
X004131Y018471D02*
X004374Y018471D01*
X004478Y018570D02*
X004027Y018570D01*
X005027Y018570D02*
X005478Y018570D01*
X005469Y018566D02*
X005328Y018425D01*
X005252Y018242D01*
X005252Y018043D01*
X005328Y017859D01*
X005469Y017718D01*
X005653Y017642D01*
X005852Y017642D01*
X006036Y017718D01*
X006176Y017859D01*
X006252Y018043D01*
X006252Y018242D01*
X006176Y018425D01*
X006036Y018566D01*
X005852Y018642D01*
X005653Y018642D01*
X005469Y018566D01*
X005374Y018471D02*
X005131Y018471D01*
X005198Y018373D02*
X005307Y018373D01*
X005266Y018274D02*
X005239Y018274D01*
X005252Y018176D02*
X005252Y018176D01*
X005252Y018077D02*
X005252Y018077D01*
X005226Y017979D02*
X005279Y017979D01*
X005320Y017880D02*
X005185Y017880D01*
X005099Y017782D02*
X005406Y017782D01*
X005554Y017683D02*
X004951Y017683D01*
X005951Y017683D02*
X006554Y017683D01*
X006469Y017718D02*
X006653Y017642D01*
X006852Y017642D01*
X007036Y017718D01*
X007176Y017859D01*
X007252Y018043D01*
X007252Y018242D01*
X007176Y018425D01*
X007036Y018566D01*
X006852Y018642D01*
X006653Y018642D01*
X006469Y018566D01*
X006328Y018425D01*
X006252Y018242D01*
X006252Y018043D01*
X006328Y017859D01*
X006469Y017718D01*
X006406Y017782D02*
X006099Y017782D01*
X006185Y017880D02*
X006320Y017880D01*
X006279Y017979D02*
X006226Y017979D01*
X006252Y018077D02*
X006252Y018077D01*
X006252Y018176D02*
X006252Y018176D01*
X006239Y018274D02*
X006266Y018274D01*
X006307Y018373D02*
X006198Y018373D01*
X006131Y018471D02*
X006374Y018471D01*
X006478Y018570D02*
X006027Y018570D01*
X007027Y018570D02*
X007478Y018570D01*
X007469Y018566D02*
X007328Y018425D01*
X007252Y018242D01*
X007252Y018043D01*
X007328Y017859D01*
X007469Y017718D01*
X007653Y017642D01*
X007852Y017642D01*
X008036Y017718D01*
X008176Y017859D01*
X008252Y018043D01*
X008252Y018242D01*
X008176Y018425D01*
X008036Y018566D01*
X007852Y018642D01*
X007653Y018642D01*
X007469Y018566D01*
X007374Y018471D02*
X007131Y018471D01*
X007198Y018373D02*
X007307Y018373D01*
X007266Y018274D02*
X007239Y018274D01*
X007252Y018176D02*
X007252Y018176D01*
X007252Y018077D02*
X007252Y018077D01*
X007226Y017979D02*
X007279Y017979D01*
X007320Y017880D02*
X007185Y017880D01*
X007099Y017782D02*
X007406Y017782D01*
X007554Y017683D02*
X006951Y017683D01*
X007951Y017683D02*
X008554Y017683D01*
X008469Y017718D02*
X008653Y017642D01*
X008852Y017642D01*
X009036Y017718D01*
X009176Y017859D01*
X009252Y018043D01*
X009252Y018242D01*
X009176Y018425D01*
X009036Y018566D01*
X008852Y018642D01*
X008653Y018642D01*
X008469Y018566D01*
X008328Y018425D01*
X008252Y018242D01*
X008252Y018043D01*
X008328Y017859D01*
X008469Y017718D01*
X008406Y017782D02*
X008099Y017782D01*
X008185Y017880D02*
X008320Y017880D01*
X008279Y017979D02*
X008226Y017979D01*
X008252Y018077D02*
X008252Y018077D01*
X008252Y018176D02*
X008252Y018176D01*
X008239Y018274D02*
X008266Y018274D01*
X008307Y018373D02*
X008198Y018373D01*
X008131Y018471D02*
X008374Y018471D01*
X008478Y018570D02*
X008027Y018570D01*
X009027Y018570D02*
X009773Y018570D01*
X009764Y018566D02*
X009624Y018425D01*
X009548Y018242D01*
X009548Y018043D01*
X009624Y017859D01*
X009764Y017718D01*
X009948Y017642D01*
X010147Y017642D01*
X010331Y017718D01*
X010472Y017859D01*
X010548Y018043D01*
X010624Y017859D01*
X010764Y017718D01*
X010948Y017642D01*
X011147Y017642D01*
X011331Y017718D01*
X011472Y017859D01*
X011548Y018043D01*
X011624Y017859D01*
X011764Y017718D01*
X011948Y017642D01*
X012147Y017642D01*
X012331Y017718D01*
X012472Y017859D01*
X012548Y018043D01*
X012624Y017859D01*
X012764Y017718D01*
X012948Y017642D01*
X013147Y017642D01*
X013331Y017718D01*
X013472Y017859D01*
X013548Y018043D01*
X013548Y018242D01*
X013472Y018425D01*
X013331Y018566D01*
X013147Y018642D01*
X012948Y018642D01*
X012764Y018566D01*
X012624Y018425D01*
X012548Y018242D01*
X012548Y018043D01*
X012548Y018242D01*
X012472Y018425D01*
X012331Y018566D01*
X012147Y018642D01*
X011948Y018642D01*
X011764Y018566D01*
X011624Y018425D01*
X011548Y018242D01*
X011548Y018043D01*
X011548Y018242D01*
X011472Y018425D01*
X011331Y018566D01*
X011147Y018642D01*
X010948Y018642D01*
X010764Y018566D01*
X010624Y018425D01*
X010548Y018242D01*
X010548Y018043D01*
X010548Y018242D01*
X010472Y018425D01*
X010331Y018566D01*
X010147Y018642D01*
X009948Y018642D01*
X009764Y018566D01*
X009669Y018471D02*
X009131Y018471D01*
X009198Y018373D02*
X009602Y018373D01*
X009561Y018274D02*
X009239Y018274D01*
X009252Y018176D02*
X009548Y018176D01*
X009548Y018077D02*
X009252Y018077D01*
X009226Y017979D02*
X009574Y017979D01*
X009615Y017880D02*
X009185Y017880D01*
X009099Y017782D02*
X009701Y017782D01*
X009849Y017683D02*
X008951Y017683D01*
X010246Y017683D02*
X010849Y017683D01*
X010701Y017782D02*
X010394Y017782D01*
X010480Y017880D02*
X010615Y017880D01*
X010574Y017979D02*
X010521Y017979D01*
X010548Y018077D02*
X010548Y018077D01*
X010548Y018176D02*
X010548Y018176D01*
X010534Y018274D02*
X010561Y018274D01*
X010602Y018373D02*
X010493Y018373D01*
X010426Y018471D02*
X010669Y018471D01*
X010773Y018570D02*
X010322Y018570D01*
X011322Y018570D02*
X011773Y018570D01*
X011669Y018471D02*
X011426Y018471D01*
X011493Y018373D02*
X011602Y018373D01*
X011561Y018274D02*
X011534Y018274D01*
X011548Y018176D02*
X011548Y018176D01*
X011548Y018077D02*
X011548Y018077D01*
X011521Y017979D02*
X011574Y017979D01*
X011615Y017880D02*
X011480Y017880D01*
X011394Y017782D02*
X011701Y017782D01*
X011849Y017683D02*
X011246Y017683D01*
X012246Y017683D02*
X012849Y017683D01*
X012701Y017782D02*
X012394Y017782D01*
X012480Y017880D02*
X012615Y017880D01*
X012574Y017979D02*
X012521Y017979D01*
X012548Y018077D02*
X012548Y018077D01*
X012548Y018176D02*
X012548Y018176D01*
X012534Y018274D02*
X012561Y018274D01*
X012602Y018373D02*
X012493Y018373D01*
X012426Y018471D02*
X012669Y018471D01*
X012773Y018570D02*
X012322Y018570D01*
X013322Y018570D02*
X013773Y018570D01*
X013669Y018471D02*
X013426Y018471D01*
X013493Y018373D02*
X013602Y018373D01*
X013561Y018274D02*
X013534Y018274D01*
X013548Y018176D02*
X013548Y018176D01*
X013548Y018077D02*
X013548Y018077D01*
X013521Y017979D02*
X013574Y017979D01*
X013615Y017880D02*
X013480Y017880D01*
X013394Y017782D02*
X013701Y017782D01*
X013849Y017683D02*
X013246Y017683D01*
X015352Y017782D02*
X015898Y017782D01*
X015898Y017880D02*
X015448Y017880D01*
X015489Y017979D02*
X015898Y017979D01*
X015898Y018077D02*
X015518Y018077D01*
X015518Y018176D02*
X015898Y018176D01*
X015898Y018274D02*
X015502Y018274D01*
X015461Y018373D02*
X015898Y018373D01*
X015898Y018471D02*
X015383Y018471D01*
X015701Y018471D02*
X020426Y018471D01*
X020426Y018373D02*
X015701Y018373D01*
X015701Y018274D02*
X020426Y018274D01*
X020426Y018176D02*
X015701Y018176D01*
X015701Y018077D02*
X020426Y018077D01*
X020426Y017979D02*
X015701Y017979D01*
X015701Y017880D02*
X020426Y017880D01*
X020426Y017782D02*
X015701Y017782D01*
X015701Y017683D02*
X020426Y017683D01*
X020426Y017585D02*
X015701Y017585D01*
X015701Y017486D02*
X020426Y017486D01*
X020426Y017388D02*
X015701Y017388D01*
X015701Y017289D02*
X020426Y017289D01*
X020426Y017191D02*
X015701Y017191D01*
X015701Y017092D02*
X020426Y017092D01*
X020426Y016994D02*
X015701Y016994D01*
X015701Y016895D02*
X020426Y016895D01*
X020426Y016797D02*
X015701Y016797D01*
X015701Y016698D02*
X020426Y016698D01*
X020426Y016685D02*
X015701Y016685D01*
X015701Y018894D01*
X020426Y018894D01*
X020426Y016685D01*
X020609Y016501D02*
X023984Y016501D01*
X023984Y016403D02*
X019465Y016403D01*
X019465Y016425D02*
X020477Y016425D01*
X020573Y016465D01*
X020646Y016538D01*
X020686Y016634D01*
X020686Y018838D01*
X027315Y018838D01*
X027315Y015371D01*
X025934Y015371D01*
X025899Y015406D01*
X025997Y015504D01*
X026050Y015632D01*
X026050Y015771D01*
X025997Y015899D01*
X025899Y015996D01*
X025997Y016094D01*
X026050Y016222D01*
X026050Y016361D01*
X025997Y016489D01*
X025899Y016587D01*
X025771Y016640D01*
X025632Y016640D01*
X025504Y016587D01*
X025468Y016552D01*
X025453Y016552D01*
X025357Y016512D01*
X025121Y016276D01*
X025048Y016203D01*
X025008Y016107D01*
X024504Y016107D01*
X024504Y016009D02*
X025008Y016009D01*
X025008Y016107D02*
X025008Y014311D01*
X025026Y014267D01*
X024904Y014318D01*
X024766Y014318D01*
X024637Y014265D01*
X024539Y014166D01*
X024504Y014082D01*
X024504Y017003D01*
X024540Y017039D01*
X024593Y017167D01*
X024593Y017306D01*
X024540Y017434D01*
X024442Y017532D01*
X024314Y017585D01*
X024175Y017585D01*
X024047Y017532D01*
X023949Y017434D01*
X023896Y017306D01*
X023896Y017167D01*
X023949Y017039D01*
X023984Y017003D01*
X023984Y012539D01*
X024024Y012444D01*
X025914Y010554D01*
X025914Y008366D01*
X025934Y008316D01*
X025882Y008368D01*
X025882Y010477D01*
X025843Y010573D01*
X025770Y010646D01*
X023875Y012541D01*
X023875Y014414D01*
X023835Y014510D01*
X023762Y014583D01*
X023526Y014819D01*
X023430Y014859D01*
X021879Y014859D01*
X021844Y014894D01*
X021715Y014948D01*
X021577Y014948D01*
X021449Y014894D01*
X021350Y014796D01*
X021331Y014750D01*
X021312Y014796D01*
X021214Y014894D01*
X021086Y014948D01*
X020947Y014948D01*
X020819Y014894D01*
X020741Y014816D01*
X020663Y014894D01*
X020534Y014948D01*
X020396Y014948D01*
X020267Y014894D01*
X020169Y014796D01*
X020150Y014750D01*
X020131Y014796D01*
X020033Y014894D01*
X019904Y014948D01*
X019766Y014948D01*
X019637Y014894D01*
X019554Y014811D01*
X019554Y014944D01*
X019501Y015072D01*
X019465Y015108D01*
X019465Y016425D01*
X019465Y016304D02*
X023984Y016304D01*
X023984Y016206D02*
X019465Y016206D01*
X019465Y016107D02*
X023984Y016107D01*
X023984Y016009D02*
X019465Y016009D01*
X019465Y015910D02*
X023984Y015910D01*
X023984Y015812D02*
X019465Y015812D01*
X019465Y015713D02*
X023984Y015713D01*
X023984Y015615D02*
X019465Y015615D01*
X019465Y015516D02*
X023984Y015516D01*
X023984Y015418D02*
X019465Y015418D01*
X019465Y015319D02*
X023984Y015319D01*
X023984Y015221D02*
X019465Y015221D01*
X019465Y015122D02*
X023984Y015122D01*
X023984Y015024D02*
X019521Y015024D01*
X019554Y014925D02*
X019711Y014925D01*
X019570Y014827D02*
X019554Y014827D01*
X019486Y014630D02*
X019453Y014630D01*
X019486Y014531D02*
X019287Y014531D01*
X019123Y014531D02*
X016158Y014531D01*
X016158Y014433D02*
X019526Y014433D01*
X019607Y014334D02*
X016158Y014334D01*
X016158Y014236D02*
X023355Y014236D01*
X023355Y014137D02*
X016614Y014137D01*
X016755Y014039D02*
X023355Y014039D01*
X023355Y013940D02*
X016813Y013940D01*
X016837Y013842D02*
X023355Y013842D01*
X023355Y013743D02*
X016837Y013743D01*
X016797Y013645D02*
X023355Y013645D01*
X023355Y013546D02*
X016716Y013546D01*
X016261Y013546D02*
X016158Y013546D01*
X016158Y013448D02*
X023355Y013448D01*
X023355Y013349D02*
X016158Y013349D01*
X016158Y013251D02*
X023355Y013251D01*
X023355Y013152D02*
X016158Y013152D01*
X016158Y013054D02*
X023355Y013054D01*
X023355Y012955D02*
X016158Y012955D01*
X016158Y012857D02*
X023355Y012857D01*
X023355Y012758D02*
X016158Y012758D01*
X016158Y012660D02*
X018505Y012660D01*
X018535Y012690D02*
X018437Y012592D01*
X018384Y012463D01*
X018384Y012325D01*
X018437Y012197D01*
X018535Y012098D01*
X018663Y012045D01*
X018802Y012045D01*
X018930Y012098D01*
X019028Y012197D01*
X019081Y012325D01*
X019081Y012463D01*
X019028Y012592D01*
X018930Y012690D01*
X018802Y012743D01*
X018663Y012743D01*
X018535Y012690D01*
X018424Y012561D02*
X016158Y012561D01*
X016158Y012463D02*
X018384Y012463D01*
X018384Y012364D02*
X016158Y012364D01*
X016158Y012266D02*
X018408Y012266D01*
X018467Y012167D02*
X016158Y012167D01*
X016158Y012069D02*
X018607Y012069D01*
X018858Y012069D02*
X023612Y012069D01*
X023513Y012167D02*
X018999Y012167D01*
X019057Y012266D02*
X023415Y012266D01*
X023362Y012364D02*
X019081Y012364D01*
X019081Y012463D02*
X023355Y012463D01*
X023355Y012561D02*
X019041Y012561D01*
X018960Y012660D02*
X023355Y012660D01*
X023615Y012433D02*
X025622Y010426D01*
X025622Y008260D01*
X027040Y006843D01*
X027040Y002670D01*
X027000Y002630D01*
X026671Y002514D02*
X024020Y002514D01*
X024118Y002416D02*
X026722Y002416D01*
X026845Y002317D02*
X024217Y002317D01*
X024315Y002219D02*
X027315Y002219D01*
X027315Y002317D02*
X027155Y002317D01*
X027279Y002416D02*
X027315Y002416D01*
X027591Y002416D02*
X037850Y002416D01*
X037717Y002361D02*
X037506Y002150D01*
X037392Y001874D01*
X037392Y001576D01*
X037506Y001300D01*
X037717Y001089D01*
X037993Y000975D01*
X038291Y000975D01*
X038567Y001089D01*
X038778Y001300D01*
X038892Y001576D01*
X038892Y001874D01*
X038778Y002150D01*
X038567Y002361D01*
X038291Y002475D01*
X037993Y002475D01*
X037717Y002361D01*
X037674Y002317D02*
X027591Y002317D01*
X027591Y002219D02*
X037575Y002219D01*
X037494Y002120D02*
X027591Y002120D01*
X027591Y002022D02*
X037453Y002022D01*
X037412Y001923D02*
X027591Y001923D01*
X027591Y001825D02*
X037392Y001825D01*
X037392Y001726D02*
X027591Y001726D01*
X027591Y001628D02*
X037392Y001628D01*
X037411Y001529D02*
X027591Y001529D01*
X027591Y001431D02*
X037452Y001431D01*
X037493Y001332D02*
X027591Y001332D01*
X027591Y001234D02*
X037573Y001234D01*
X037671Y001135D02*
X027591Y001135D01*
X027591Y001037D02*
X037844Y001037D01*
X038440Y001037D02*
X039371Y001037D01*
X039427Y001135D02*
X038613Y001135D01*
X038711Y001234D02*
X039470Y001234D01*
X039458Y001187D02*
X039270Y000862D01*
X039005Y000597D01*
X038680Y000409D01*
X038317Y000312D01*
X038130Y000300D01*
X027591Y000300D01*
X027591Y003585D01*
X027840Y003336D01*
X029998Y003336D01*
X030048Y003286D01*
X030140Y003248D01*
X030239Y003248D01*
X030330Y003286D01*
X030400Y003356D01*
X030438Y003447D01*
X030438Y003546D01*
X030400Y003637D01*
X030330Y003707D01*
X030239Y003745D01*
X030140Y003745D01*
X030048Y003707D01*
X029998Y003656D01*
X027972Y003656D01*
X027751Y003878D01*
X027751Y011712D01*
X027657Y011806D01*
X027591Y011872D01*
X027591Y014951D01*
X029296Y014951D01*
X029478Y014769D01*
X029478Y011838D01*
X029427Y011787D01*
X029389Y011696D01*
X029389Y011597D01*
X029427Y011505D01*
X029492Y011440D01*
X029446Y011421D01*
X029351Y011326D01*
X029299Y011202D01*
X029299Y011067D01*
X029351Y010942D01*
X029446Y010847D01*
X029571Y010796D01*
X029706Y010796D01*
X029830Y010847D01*
X029925Y010942D01*
X029977Y011067D01*
X029977Y011202D01*
X029925Y011326D01*
X029830Y011421D01*
X029784Y011440D01*
X029849Y011505D01*
X029887Y011597D01*
X029887Y011696D01*
X029849Y011787D01*
X029798Y011838D01*
X029798Y014901D01*
X029429Y015271D01*
X027591Y015271D01*
X027591Y018851D01*
X038647Y018851D01*
X038817Y018805D01*
X039092Y018647D01*
X039316Y018423D01*
X039474Y018148D01*
X039557Y017842D01*
X039567Y017683D01*
X039010Y017683D01*
X039010Y017740D02*
X038896Y018016D01*
X038685Y018227D01*
X038409Y018341D01*
X038111Y018341D01*
X037835Y018227D01*
X037624Y018016D01*
X037510Y017740D01*
X037510Y017442D01*
X037624Y017166D01*
X037835Y016955D01*
X038111Y016841D01*
X038409Y016841D01*
X038685Y016955D01*
X038896Y017166D01*
X039010Y017442D01*
X039010Y017740D01*
X038993Y017782D02*
X039560Y017782D01*
X039567Y017683D02*
X039567Y014732D01*
X039564Y014736D01*
X039563Y014736D01*
X039563Y014736D01*
X039517Y014755D01*
X039472Y014774D01*
X039471Y014774D01*
X039422Y014774D01*
X039373Y014774D01*
X039372Y014774D01*
X036704Y014766D01*
X036655Y014766D01*
X036655Y014766D01*
X036655Y014766D01*
X036609Y014747D01*
X036563Y014728D01*
X036563Y014728D01*
X036563Y014728D01*
X036528Y014693D01*
X036493Y014657D01*
X036474Y014611D01*
X036455Y014565D01*
X036455Y014516D01*
X036458Y012629D01*
X036398Y012654D01*
X036264Y012654D01*
X036139Y012603D01*
X036095Y012558D01*
X036051Y012603D01*
X035926Y012654D01*
X035791Y012654D01*
X035667Y012603D01*
X035571Y012507D01*
X035520Y012383D01*
X035520Y012248D01*
X035534Y012215D01*
X034781Y012215D01*
X034689Y012177D01*
X034619Y012107D01*
X034581Y012015D01*
X034581Y010648D01*
X032330Y010648D01*
X032318Y010675D01*
X032206Y010787D01*
X032060Y010848D01*
X031901Y010848D01*
X031755Y010787D01*
X031731Y010763D01*
X031706Y010787D01*
X031560Y010848D01*
X031401Y010848D01*
X031255Y010787D01*
X031231Y010763D01*
X031206Y010787D01*
X031060Y010848D01*
X030901Y010848D01*
X030755Y010787D01*
X030643Y010675D01*
X030582Y010528D01*
X030582Y010370D01*
X030643Y010224D01*
X030667Y010199D01*
X030643Y010175D01*
X030582Y010028D01*
X030582Y009870D01*
X030643Y009724D01*
X030667Y009699D01*
X030643Y009675D01*
X030582Y009528D01*
X030582Y009370D01*
X030643Y009224D01*
X030722Y009145D01*
X030727Y008220D01*
X030727Y008171D01*
X030727Y008170D01*
X030746Y008125D01*
X030765Y008079D01*
X030765Y008079D01*
X030766Y008078D01*
X030801Y008044D01*
X030835Y008009D01*
X030836Y008009D01*
X030836Y008008D01*
X030882Y007990D01*
X030927Y007971D01*
X030928Y007971D01*
X030928Y007971D01*
X030977Y007971D01*
X035647Y007971D01*
X035599Y007855D01*
X035599Y007720D01*
X035615Y007681D01*
X034924Y007680D01*
X034875Y007679D01*
X034830Y007660D01*
X034784Y007641D01*
X034783Y007641D01*
X034749Y007606D01*
X034713Y007571D01*
X034713Y007571D01*
X034713Y007571D01*
X034694Y007524D01*
X034675Y007479D01*
X034675Y007479D01*
X034675Y007479D01*
X034676Y007429D01*
X034683Y003910D01*
X034684Y003860D01*
X034684Y003860D01*
X034684Y003860D01*
X034703Y003814D01*
X034722Y003768D01*
X034722Y003768D01*
X034722Y003768D01*
X034733Y003756D01*
X034650Y003756D01*
X034525Y003705D01*
X034430Y003610D01*
X034378Y003485D01*
X034378Y003350D01*
X034430Y003226D01*
X034525Y003131D01*
X034650Y003079D01*
X034784Y003079D01*
X034909Y003131D01*
X035004Y003226D01*
X035056Y003350D01*
X035056Y003485D01*
X035004Y003610D01*
X034954Y003660D01*
X039349Y003664D01*
X039399Y003664D01*
X039448Y003664D01*
X039448Y003664D01*
X039448Y003664D01*
X039494Y003683D01*
X039540Y003702D01*
X039540Y003702D01*
X039540Y003702D01*
X039567Y003729D01*
X039567Y001737D01*
X039555Y001549D01*
X039458Y001187D01*
X039496Y001332D02*
X038791Y001332D01*
X038832Y001431D02*
X039523Y001431D01*
X039549Y001529D02*
X038873Y001529D01*
X038892Y001628D02*
X039560Y001628D01*
X039566Y001726D02*
X038892Y001726D01*
X038892Y001825D02*
X039567Y001825D01*
X039567Y001923D02*
X038872Y001923D01*
X038831Y002022D02*
X039567Y002022D01*
X039567Y002120D02*
X038790Y002120D01*
X038709Y002219D02*
X039567Y002219D01*
X039567Y002317D02*
X038611Y002317D01*
X038434Y002416D02*
X039567Y002416D01*
X039567Y002514D02*
X027591Y002514D01*
X027591Y002613D02*
X032627Y002613D01*
X032642Y002607D02*
X032776Y002607D01*
X032901Y002658D01*
X032996Y002753D01*
X033048Y002878D01*
X033048Y003013D01*
X032996Y003137D01*
X032901Y003232D01*
X032776Y003284D01*
X032642Y003284D01*
X032517Y003232D01*
X032422Y003137D01*
X032370Y003013D01*
X032370Y002878D01*
X032422Y002753D01*
X032517Y002658D01*
X032642Y002607D01*
X032791Y002613D02*
X033831Y002613D01*
X033816Y002619D02*
X033941Y002567D01*
X034076Y002567D01*
X034200Y002619D01*
X034295Y002714D01*
X034347Y002839D01*
X034347Y002973D01*
X034295Y003098D01*
X034200Y003193D01*
X034076Y003245D01*
X033941Y003245D01*
X033816Y003193D01*
X033721Y003098D01*
X033670Y002973D01*
X033670Y002839D01*
X033721Y002714D01*
X033816Y002619D01*
X033724Y002711D02*
X032954Y002711D01*
X033019Y002810D02*
X033682Y002810D01*
X033670Y002908D02*
X033048Y002908D01*
X033048Y003007D02*
X033683Y003007D01*
X033728Y003105D02*
X033010Y003105D01*
X032930Y003204D02*
X033842Y003204D01*
X034175Y003204D02*
X034452Y003204D01*
X034398Y003302D02*
X030347Y003302D01*
X030419Y003401D02*
X034378Y003401D01*
X034384Y003499D02*
X030438Y003499D01*
X030417Y003598D02*
X034425Y003598D01*
X034516Y003696D02*
X030342Y003696D01*
X030189Y003496D02*
X027906Y003496D01*
X027591Y003811D01*
X027591Y011646D01*
X027512Y011725D01*
X026489Y011725D01*
X026292Y011922D01*
X026292Y012985D01*
X026469Y013162D01*
X026737Y013162D01*
X026485Y013571D02*
X026016Y013103D01*
X026016Y011764D01*
X026370Y011410D01*
X027233Y011410D01*
X027315Y011327D01*
X027315Y003930D01*
X027751Y003893D02*
X029625Y003893D01*
X029564Y003918D02*
X029689Y003866D01*
X029824Y003866D01*
X029948Y003918D01*
X030043Y004013D01*
X030095Y004138D01*
X030095Y004272D01*
X030043Y004397D01*
X029948Y004492D01*
X029824Y004544D01*
X029689Y004544D01*
X029564Y004492D01*
X029469Y004397D01*
X029418Y004272D01*
X029418Y004138D01*
X029469Y004013D01*
X029564Y003918D01*
X029491Y003992D02*
X027751Y003992D01*
X027751Y004090D02*
X029437Y004090D01*
X029418Y004189D02*
X027751Y004189D01*
X027751Y004287D02*
X029424Y004287D01*
X029464Y004386D02*
X027751Y004386D01*
X027751Y004484D02*
X029556Y004484D01*
X029956Y004484D02*
X034682Y004484D01*
X034682Y004386D02*
X030048Y004386D01*
X030089Y004287D02*
X034683Y004287D01*
X034683Y004189D02*
X030095Y004189D01*
X030075Y004090D02*
X034683Y004090D01*
X034683Y003992D02*
X030022Y003992D01*
X029888Y003893D02*
X034683Y003893D01*
X034711Y003795D02*
X027834Y003795D01*
X027933Y003696D02*
X030037Y003696D01*
X030032Y003302D02*
X027591Y003302D01*
X027591Y003204D02*
X032488Y003204D01*
X032409Y003105D02*
X027591Y003105D01*
X027591Y003007D02*
X032370Y003007D01*
X032370Y002908D02*
X027591Y002908D01*
X027591Y002810D02*
X032399Y002810D01*
X032464Y002711D02*
X027591Y002711D01*
X026780Y002908D02*
X023626Y002908D01*
X023724Y002810D02*
X026697Y002810D01*
X026656Y002711D02*
X023823Y002711D01*
X023921Y002613D02*
X026652Y002613D01*
X026780Y003007D02*
X023527Y003007D01*
X023429Y003105D02*
X026780Y003105D01*
X026780Y003204D02*
X023330Y003204D01*
X023232Y003302D02*
X026780Y003302D01*
X026780Y003401D02*
X023133Y003401D01*
X023035Y003499D02*
X026780Y003499D01*
X026780Y003598D02*
X022936Y003598D01*
X022812Y003696D02*
X026780Y003696D01*
X026780Y003795D02*
X022188Y003795D01*
X022090Y003893D02*
X026780Y003893D01*
X026780Y003992D02*
X023049Y003992D01*
X023195Y004090D02*
X026780Y004090D01*
X026780Y004189D02*
X023298Y004189D01*
X023400Y004287D02*
X026780Y004287D01*
X026780Y004386D02*
X023503Y004386D01*
X023605Y004484D02*
X026780Y004484D01*
X026780Y004583D02*
X023708Y004583D01*
X023810Y004681D02*
X026780Y004681D01*
X026780Y004780D02*
X023912Y004780D01*
X024080Y004878D02*
X024352Y004878D01*
X024500Y004878D02*
X026780Y004878D01*
X026780Y004977D02*
X025096Y004977D01*
X025169Y005075D02*
X026780Y005075D01*
X026780Y005174D02*
X025203Y005174D01*
X025203Y005272D02*
X026780Y005272D01*
X026780Y005371D02*
X025173Y005371D01*
X025115Y005469D02*
X026780Y005469D01*
X026780Y005568D02*
X025115Y005568D01*
X025115Y005666D02*
X026780Y005666D01*
X026780Y005765D02*
X025115Y005765D01*
X025115Y005863D02*
X026780Y005863D01*
X026780Y005962D02*
X026445Y005962D01*
X026400Y005943D02*
X026529Y005996D01*
X026627Y006094D01*
X026680Y006222D01*
X026680Y006361D01*
X026627Y006489D01*
X026529Y006587D01*
X026400Y006640D01*
X026262Y006640D01*
X026134Y006587D01*
X026035Y006489D01*
X025982Y006361D01*
X025982Y006222D01*
X026035Y006094D01*
X026134Y005996D01*
X026262Y005943D01*
X026400Y005943D01*
X026217Y005962D02*
X025115Y005962D01*
X025094Y006060D02*
X026070Y006060D01*
X026009Y006159D02*
X025021Y006159D01*
X024922Y006257D02*
X025982Y006257D01*
X025982Y006356D02*
X024824Y006356D01*
X024725Y006454D02*
X026021Y006454D01*
X026099Y006553D02*
X024627Y006553D01*
X024528Y006651D02*
X026780Y006651D01*
X026780Y006553D02*
X026564Y006553D01*
X026641Y006454D02*
X026780Y006454D01*
X026780Y006356D02*
X026680Y006356D01*
X026680Y006257D02*
X026780Y006257D01*
X026780Y006159D02*
X026653Y006159D01*
X026593Y006060D02*
X026780Y006060D01*
X027751Y006060D02*
X034679Y006060D01*
X034679Y005962D02*
X027751Y005962D01*
X027751Y005863D02*
X034679Y005863D01*
X034679Y005765D02*
X027751Y005765D01*
X027751Y005666D02*
X034680Y005666D01*
X034680Y005568D02*
X027751Y005568D01*
X027751Y005469D02*
X034680Y005469D01*
X034680Y005371D02*
X027751Y005371D01*
X027751Y005272D02*
X034680Y005272D01*
X034681Y005174D02*
X027751Y005174D01*
X027751Y005075D02*
X034681Y005075D01*
X034681Y004977D02*
X027751Y004977D01*
X027751Y004878D02*
X034681Y004878D01*
X034682Y004780D02*
X027751Y004780D01*
X027751Y004681D02*
X034682Y004681D01*
X034682Y004583D02*
X027751Y004583D01*
X027677Y003499D02*
X027591Y003499D01*
X027591Y003401D02*
X027776Y003401D01*
X027315Y002120D02*
X024414Y002120D01*
X024636Y002022D02*
X027315Y002022D01*
X027315Y001923D02*
X024736Y001923D01*
X024778Y001825D02*
X027315Y001825D01*
X027315Y001726D02*
X024790Y001726D01*
X024779Y001628D02*
X027315Y001628D01*
X027315Y001529D02*
X024738Y001529D01*
X024640Y001431D02*
X027315Y001431D01*
X027591Y000938D02*
X039314Y000938D01*
X039247Y000840D02*
X027591Y000840D01*
X027591Y000741D02*
X039149Y000741D01*
X039050Y000643D02*
X027591Y000643D01*
X027591Y000544D02*
X038913Y000544D01*
X038742Y000446D02*
X027591Y000446D01*
X027591Y000347D02*
X038447Y000347D01*
X039567Y002613D02*
X034185Y002613D01*
X034292Y002711D02*
X039567Y002711D01*
X039567Y002810D02*
X034335Y002810D01*
X034347Y002908D02*
X039567Y002908D01*
X039567Y003007D02*
X034333Y003007D01*
X034288Y003105D02*
X034587Y003105D01*
X034847Y003105D02*
X039567Y003105D01*
X039567Y003204D02*
X034982Y003204D01*
X035036Y003302D02*
X039567Y003302D01*
X039567Y003401D02*
X035056Y003401D01*
X035050Y003499D02*
X039567Y003499D01*
X039567Y003598D02*
X035009Y003598D01*
X034933Y003910D02*
X034926Y007430D01*
X036418Y007433D01*
X036418Y007961D01*
X039390Y007961D01*
X039398Y003914D01*
X034933Y003910D01*
X034933Y003992D02*
X039398Y003992D01*
X039398Y004090D02*
X034933Y004090D01*
X034933Y004189D02*
X039397Y004189D01*
X039397Y004287D02*
X034933Y004287D01*
X034932Y004386D02*
X039397Y004386D01*
X039397Y004484D02*
X034932Y004484D01*
X034932Y004583D02*
X039397Y004583D01*
X039397Y004681D02*
X034932Y004681D01*
X034932Y004780D02*
X039396Y004780D01*
X039396Y004878D02*
X034931Y004878D01*
X034931Y004977D02*
X039396Y004977D01*
X039396Y005075D02*
X034931Y005075D01*
X034931Y005174D02*
X039396Y005174D01*
X039395Y005272D02*
X034930Y005272D01*
X034930Y005371D02*
X039395Y005371D01*
X039395Y005469D02*
X034930Y005469D01*
X034930Y005568D02*
X039395Y005568D01*
X039395Y005666D02*
X034930Y005666D01*
X034929Y005765D02*
X039394Y005765D01*
X039394Y005863D02*
X034929Y005863D01*
X034929Y005962D02*
X039394Y005962D01*
X039394Y006060D02*
X034929Y006060D01*
X034928Y006159D02*
X039394Y006159D01*
X039393Y006257D02*
X034928Y006257D01*
X034928Y006356D02*
X039393Y006356D01*
X039393Y006454D02*
X034928Y006454D01*
X034928Y006553D02*
X039393Y006553D01*
X039393Y006651D02*
X034927Y006651D01*
X034927Y006750D02*
X039393Y006750D01*
X039392Y006848D02*
X034927Y006848D01*
X034927Y006947D02*
X039392Y006947D01*
X039392Y007045D02*
X034926Y007045D01*
X034926Y007144D02*
X039392Y007144D01*
X039392Y007242D02*
X034926Y007242D01*
X034926Y007341D02*
X039391Y007341D01*
X039391Y007439D02*
X036418Y007439D01*
X036418Y007538D02*
X039391Y007538D01*
X039391Y007636D02*
X036418Y007636D01*
X036418Y007735D02*
X039391Y007735D01*
X039390Y007833D02*
X036418Y007833D01*
X036418Y007932D02*
X039390Y007932D01*
X039441Y008221D02*
X030977Y008221D01*
X030965Y010398D01*
X039430Y010398D01*
X039441Y008221D01*
X039441Y008227D02*
X030977Y008227D01*
X030976Y008326D02*
X039441Y008326D01*
X039440Y008424D02*
X030976Y008424D01*
X030975Y008523D02*
X039440Y008523D01*
X039439Y008621D02*
X030975Y008621D01*
X030974Y008720D02*
X039439Y008720D01*
X039438Y008818D02*
X030974Y008818D01*
X030973Y008917D02*
X039438Y008917D01*
X039437Y009015D02*
X030972Y009015D01*
X030972Y009114D02*
X039436Y009114D01*
X039436Y009212D02*
X030971Y009212D01*
X030971Y009311D02*
X039435Y009311D01*
X039435Y009409D02*
X030970Y009409D01*
X030970Y009508D02*
X039434Y009508D01*
X039434Y009606D02*
X030969Y009606D01*
X030969Y009705D02*
X039433Y009705D01*
X039433Y009803D02*
X030968Y009803D01*
X030968Y009902D02*
X039432Y009902D01*
X039432Y010000D02*
X030967Y010000D01*
X030967Y010099D02*
X039431Y010099D01*
X039431Y010197D02*
X030966Y010197D01*
X030966Y010296D02*
X039430Y010296D01*
X039430Y010394D02*
X030965Y010394D01*
X030665Y010197D02*
X027751Y010197D01*
X027751Y010099D02*
X030611Y010099D01*
X030582Y010000D02*
X027751Y010000D01*
X027751Y009902D02*
X030582Y009902D01*
X030610Y009803D02*
X027751Y009803D01*
X027751Y009705D02*
X030662Y009705D01*
X030614Y009606D02*
X027751Y009606D01*
X027751Y009508D02*
X030582Y009508D01*
X030582Y009409D02*
X027751Y009409D01*
X027751Y009311D02*
X030607Y009311D01*
X030654Y009212D02*
X027751Y009212D01*
X027751Y009114D02*
X030722Y009114D01*
X030722Y009015D02*
X027751Y009015D01*
X027751Y008917D02*
X030723Y008917D01*
X030724Y008818D02*
X027751Y008818D01*
X027751Y008720D02*
X029973Y008720D01*
X029997Y008744D02*
X029902Y008649D01*
X029851Y008524D01*
X029851Y008390D01*
X029902Y008265D01*
X029997Y008170D01*
X030122Y008118D01*
X030257Y008118D01*
X030381Y008170D01*
X030477Y008265D01*
X030528Y008390D01*
X030528Y008524D01*
X030477Y008649D01*
X030381Y008744D01*
X030257Y008796D01*
X030122Y008796D01*
X029997Y008744D01*
X029891Y008621D02*
X027751Y008621D01*
X027751Y008523D02*
X029851Y008523D01*
X029851Y008424D02*
X027751Y008424D01*
X027751Y008326D02*
X029877Y008326D01*
X029940Y008227D02*
X027751Y008227D01*
X027751Y008129D02*
X030097Y008129D01*
X030281Y008129D02*
X030744Y008129D01*
X030727Y008170D02*
X030727Y008170D01*
X030727Y008227D02*
X030438Y008227D01*
X030502Y008326D02*
X030726Y008326D01*
X030726Y008424D02*
X030528Y008424D01*
X030528Y008523D02*
X030725Y008523D01*
X030725Y008621D02*
X030488Y008621D01*
X030406Y008720D02*
X030724Y008720D01*
X030814Y008030D02*
X027751Y008030D01*
X027751Y007932D02*
X035630Y007932D01*
X035599Y007833D02*
X034224Y007833D01*
X034188Y007848D02*
X034065Y007848D01*
X033952Y007801D01*
X033876Y007726D01*
X033801Y007801D01*
X033688Y007848D01*
X033565Y007848D01*
X033452Y007801D01*
X033376Y007726D01*
X033301Y007801D01*
X033188Y007848D01*
X033065Y007848D01*
X032952Y007801D01*
X032865Y007714D01*
X032818Y007601D01*
X032818Y007478D01*
X032865Y007365D01*
X032940Y007290D01*
X032865Y007214D01*
X032818Y007101D01*
X032818Y006978D01*
X032865Y006865D01*
X032940Y006790D01*
X032865Y006714D01*
X032818Y006601D01*
X032818Y006478D01*
X032865Y006365D01*
X032952Y006278D01*
X033065Y006231D01*
X033188Y006231D01*
X033301Y006278D01*
X033376Y006354D01*
X033452Y006278D01*
X033565Y006231D01*
X033688Y006231D01*
X033801Y006278D01*
X033876Y006354D01*
X033952Y006278D01*
X034065Y006231D01*
X034188Y006231D01*
X034301Y006278D01*
X034388Y006365D01*
X034435Y006478D01*
X034435Y006601D01*
X034388Y006714D01*
X034313Y006790D01*
X034388Y006865D01*
X034435Y006978D01*
X034435Y007101D01*
X034388Y007214D01*
X034313Y007290D01*
X034388Y007365D01*
X034435Y007478D01*
X034435Y007601D01*
X034388Y007714D01*
X034301Y007801D01*
X034188Y007848D01*
X034028Y007833D02*
X033724Y007833D01*
X033868Y007735D02*
X033885Y007735D01*
X033528Y007833D02*
X033224Y007833D01*
X033368Y007735D02*
X033385Y007735D01*
X033028Y007833D02*
X027751Y007833D01*
X027751Y007735D02*
X030902Y007735D01*
X030919Y007742D02*
X030806Y007695D01*
X030719Y007608D01*
X030672Y007495D01*
X030672Y007372D01*
X030719Y007259D01*
X030795Y007183D01*
X030719Y007108D01*
X030672Y006995D01*
X030672Y006872D01*
X030719Y006759D01*
X030795Y006683D01*
X030719Y006608D01*
X030672Y006495D01*
X030672Y006372D01*
X030719Y006259D01*
X030806Y006172D01*
X030919Y006125D01*
X031042Y006125D01*
X031155Y006172D01*
X031231Y006247D01*
X031306Y006172D01*
X031419Y006125D01*
X031542Y006125D01*
X031655Y006172D01*
X031731Y006247D01*
X031806Y006172D01*
X031919Y006125D01*
X032042Y006125D01*
X032155Y006172D01*
X032242Y006259D01*
X032289Y006372D01*
X032289Y006495D01*
X032242Y006608D01*
X032167Y006683D01*
X032242Y006759D01*
X032289Y006872D01*
X032289Y006995D01*
X032242Y007108D01*
X032167Y007183D01*
X032242Y007259D01*
X032289Y007372D01*
X032289Y007495D01*
X032242Y007608D01*
X032155Y007695D01*
X032042Y007742D01*
X031919Y007742D01*
X031806Y007695D01*
X031731Y007620D01*
X031655Y007695D01*
X031542Y007742D01*
X031419Y007742D01*
X031306Y007695D01*
X031231Y007620D01*
X031155Y007695D01*
X031042Y007742D01*
X030919Y007742D01*
X031060Y007735D02*
X031402Y007735D01*
X031560Y007735D02*
X031902Y007735D01*
X032060Y007735D02*
X032885Y007735D01*
X032832Y007636D02*
X032214Y007636D01*
X032271Y007538D02*
X032818Y007538D01*
X032834Y007439D02*
X032289Y007439D01*
X032276Y007341D02*
X032889Y007341D01*
X032892Y007242D02*
X032225Y007242D01*
X032207Y007144D02*
X032836Y007144D01*
X032818Y007045D02*
X032268Y007045D01*
X032289Y006947D02*
X032831Y006947D01*
X032882Y006848D02*
X032279Y006848D01*
X032233Y006750D02*
X032900Y006750D01*
X032839Y006651D02*
X032199Y006651D01*
X032265Y006553D02*
X032818Y006553D01*
X032828Y006454D02*
X032289Y006454D01*
X032282Y006356D02*
X032874Y006356D01*
X033003Y006257D02*
X032240Y006257D01*
X032123Y006159D02*
X034678Y006159D01*
X034678Y006257D02*
X034250Y006257D01*
X034378Y006356D02*
X034678Y006356D01*
X034678Y006454D02*
X034425Y006454D01*
X034435Y006553D02*
X034678Y006553D01*
X034677Y006651D02*
X034414Y006651D01*
X034353Y006750D02*
X034677Y006750D01*
X034677Y006848D02*
X034371Y006848D01*
X034422Y006947D02*
X034677Y006947D01*
X034676Y007045D02*
X034435Y007045D01*
X034417Y007144D02*
X034676Y007144D01*
X034676Y007242D02*
X034360Y007242D01*
X034363Y007341D02*
X034676Y007341D01*
X034676Y007439D02*
X034418Y007439D01*
X034435Y007538D02*
X034700Y007538D01*
X034778Y007636D02*
X034420Y007636D01*
X034368Y007735D02*
X035599Y007735D01*
X034875Y007679D02*
X034875Y007679D01*
X034875Y007679D01*
X034783Y007641D02*
X034783Y007641D01*
X034003Y006257D02*
X033750Y006257D01*
X033503Y006257D02*
X033250Y006257D01*
X031839Y006159D02*
X031623Y006159D01*
X031339Y006159D02*
X031123Y006159D01*
X030839Y006159D02*
X027751Y006159D01*
X027751Y006257D02*
X030721Y006257D01*
X030679Y006356D02*
X027751Y006356D01*
X027751Y006454D02*
X030672Y006454D01*
X030696Y006553D02*
X027751Y006553D01*
X027751Y006651D02*
X030762Y006651D01*
X030728Y006750D02*
X027751Y006750D01*
X027751Y006848D02*
X030682Y006848D01*
X030672Y006947D02*
X027751Y006947D01*
X027751Y007045D02*
X030693Y007045D01*
X030755Y007144D02*
X027751Y007144D01*
X027751Y007242D02*
X030736Y007242D01*
X030685Y007341D02*
X027751Y007341D01*
X027751Y007439D02*
X030672Y007439D01*
X030690Y007538D02*
X027751Y007538D01*
X027751Y007636D02*
X030747Y007636D01*
X031214Y007636D02*
X031247Y007636D01*
X031714Y007636D02*
X031747Y007636D01*
X027000Y008811D02*
X026764Y008575D01*
X027000Y008811D02*
X027000Y011056D01*
X026922Y011134D01*
X026134Y011134D01*
X025504Y011764D01*
X025504Y014126D01*
X025268Y014363D01*
X025268Y016056D01*
X025504Y016292D01*
X025701Y016292D01*
X026050Y016304D02*
X027315Y016304D01*
X027315Y016206D02*
X026043Y016206D01*
X026002Y016107D02*
X027315Y016107D01*
X027315Y016009D02*
X025911Y016009D01*
X025986Y015910D02*
X027315Y015910D01*
X027315Y015812D02*
X026033Y015812D01*
X026050Y015713D02*
X027315Y015713D01*
X027315Y015615D02*
X026043Y015615D01*
X026002Y015516D02*
X027315Y015516D01*
X027315Y015418D02*
X025911Y015418D01*
X025701Y015111D02*
X029363Y015111D01*
X029638Y014835D01*
X029638Y011646D01*
X029455Y011478D02*
X027751Y011478D01*
X027751Y011576D02*
X029398Y011576D01*
X029389Y011675D02*
X027751Y011675D01*
X027690Y011773D02*
X029422Y011773D01*
X029478Y011872D02*
X027592Y011872D01*
X027591Y011970D02*
X029478Y011970D01*
X029478Y012069D02*
X027591Y012069D01*
X027591Y012167D02*
X029478Y012167D01*
X029478Y012266D02*
X027591Y012266D01*
X027591Y012364D02*
X029478Y012364D01*
X029478Y012463D02*
X027591Y012463D01*
X027591Y012561D02*
X029478Y012561D01*
X029478Y012660D02*
X027591Y012660D01*
X027591Y012758D02*
X029478Y012758D01*
X029478Y012857D02*
X027591Y012857D01*
X027591Y012955D02*
X029478Y012955D01*
X029478Y013054D02*
X027591Y013054D01*
X027591Y013152D02*
X029478Y013152D01*
X029478Y013251D02*
X027591Y013251D01*
X027591Y013349D02*
X029478Y013349D01*
X029478Y013448D02*
X027591Y013448D01*
X027591Y013546D02*
X029478Y013546D01*
X029478Y013645D02*
X027591Y013645D01*
X027591Y013743D02*
X029478Y013743D01*
X029478Y013842D02*
X027591Y013842D01*
X027591Y013940D02*
X029478Y013940D01*
X029478Y014039D02*
X027591Y014039D01*
X027591Y014137D02*
X029478Y014137D01*
X029478Y014236D02*
X027591Y014236D01*
X027591Y014334D02*
X029478Y014334D01*
X029478Y014433D02*
X027591Y014433D01*
X027591Y014531D02*
X029478Y014531D01*
X029478Y014630D02*
X027591Y014630D01*
X027591Y014728D02*
X029478Y014728D01*
X029420Y014827D02*
X027591Y014827D01*
X027591Y014925D02*
X029322Y014925D01*
X029577Y015122D02*
X031476Y015122D01*
X031476Y015160D02*
X031476Y015061D01*
X031514Y014970D01*
X031584Y014900D01*
X031675Y014862D01*
X031774Y014862D01*
X031866Y014900D01*
X031936Y014970D01*
X031974Y015061D01*
X031974Y015160D01*
X031936Y015252D01*
X031866Y015322D01*
X031774Y015359D01*
X031675Y015359D01*
X031584Y015322D01*
X031514Y015252D01*
X031476Y015160D01*
X031501Y015221D02*
X029479Y015221D01*
X029676Y015024D02*
X031492Y015024D01*
X031559Y014925D02*
X029774Y014925D01*
X029798Y014827D02*
X039567Y014827D01*
X039567Y014925D02*
X031891Y014925D01*
X031958Y015024D02*
X039567Y015024D01*
X039567Y015122D02*
X031974Y015122D01*
X031949Y015221D02*
X039567Y015221D01*
X039567Y015319D02*
X031868Y015319D01*
X031581Y015319D02*
X027591Y015319D01*
X027591Y015418D02*
X039567Y015418D01*
X039567Y015516D02*
X036602Y015516D01*
X036641Y015532D02*
X036736Y015627D01*
X036788Y015752D01*
X036788Y015887D01*
X036736Y016011D01*
X036641Y016106D01*
X036517Y016158D01*
X036382Y016158D01*
X036257Y016106D01*
X036162Y016011D01*
X036110Y015887D01*
X036110Y015752D01*
X036162Y015627D01*
X036257Y015532D01*
X036382Y015481D01*
X036517Y015481D01*
X036641Y015532D01*
X036724Y015615D02*
X039567Y015615D01*
X039567Y015713D02*
X036772Y015713D01*
X036788Y015812D02*
X039567Y015812D01*
X039567Y015910D02*
X036778Y015910D01*
X036737Y016009D02*
X039567Y016009D01*
X039567Y016107D02*
X036640Y016107D01*
X036259Y016107D02*
X035655Y016107D01*
X035657Y016106D02*
X035532Y016158D01*
X035398Y016158D01*
X035273Y016106D01*
X035178Y016011D01*
X035170Y015992D01*
X035162Y016011D01*
X035066Y016106D01*
X034942Y016158D01*
X034807Y016158D01*
X034683Y016106D01*
X034587Y016011D01*
X034579Y015992D01*
X034571Y016011D01*
X034476Y016106D01*
X034351Y016158D01*
X034216Y016158D01*
X034092Y016106D01*
X033997Y016011D01*
X033945Y015887D01*
X033945Y015752D01*
X033997Y015627D01*
X034092Y015532D01*
X034216Y015481D01*
X034351Y015481D01*
X034476Y015532D01*
X034571Y015627D01*
X034579Y015647D01*
X034587Y015627D01*
X034683Y015532D01*
X034807Y015481D01*
X034942Y015481D01*
X035066Y015532D01*
X035162Y015627D01*
X035170Y015647D01*
X035178Y015627D01*
X035273Y015532D01*
X035398Y015481D01*
X035532Y015481D01*
X035657Y015532D01*
X035752Y015627D01*
X035804Y015752D01*
X035804Y015887D01*
X035752Y016011D01*
X035657Y016106D01*
X035753Y016009D02*
X036161Y016009D01*
X036120Y015910D02*
X035794Y015910D01*
X035804Y015812D02*
X036110Y015812D01*
X036127Y015713D02*
X035788Y015713D01*
X035739Y015615D02*
X036175Y015615D01*
X036296Y015516D02*
X035618Y015516D01*
X035312Y015516D02*
X035027Y015516D01*
X035149Y015615D02*
X035191Y015615D01*
X034721Y015516D02*
X034437Y015516D01*
X034558Y015615D02*
X034600Y015615D01*
X034131Y015516D02*
X027591Y015516D01*
X027591Y015615D02*
X034010Y015615D01*
X033961Y015713D02*
X029708Y015713D01*
X029650Y015689D02*
X029777Y015742D01*
X029875Y015840D01*
X029928Y015967D01*
X029928Y016106D01*
X029875Y016234D01*
X029777Y016331D01*
X029650Y016384D01*
X029511Y016384D01*
X029383Y016331D01*
X029286Y016234D01*
X029233Y016106D01*
X029233Y015967D01*
X029286Y015840D01*
X029383Y015742D01*
X029511Y015689D01*
X029650Y015689D01*
X029453Y015713D02*
X027591Y015713D01*
X027591Y015812D02*
X029314Y015812D01*
X029256Y015910D02*
X027591Y015910D01*
X027591Y016009D02*
X029233Y016009D01*
X029233Y016107D02*
X027591Y016107D01*
X027591Y016206D02*
X029274Y016206D01*
X029356Y016304D02*
X027591Y016304D01*
X027591Y016403D02*
X039567Y016403D01*
X039567Y016501D02*
X027591Y016501D01*
X027591Y016600D02*
X039567Y016600D01*
X039567Y016698D02*
X027591Y016698D01*
X027591Y016797D02*
X039567Y016797D01*
X039567Y016895D02*
X038540Y016895D01*
X038723Y016994D02*
X039567Y016994D01*
X039567Y017092D02*
X038822Y017092D01*
X038906Y017191D02*
X039567Y017191D01*
X039567Y017289D02*
X038947Y017289D01*
X038988Y017388D02*
X039567Y017388D01*
X039567Y017486D02*
X039010Y017486D01*
X039010Y017585D02*
X039567Y017585D01*
X039546Y017880D02*
X038952Y017880D01*
X038911Y017979D02*
X039520Y017979D01*
X039493Y018077D02*
X038835Y018077D01*
X038736Y018176D02*
X039459Y018176D01*
X039402Y018274D02*
X038571Y018274D01*
X039267Y018471D02*
X035769Y018471D01*
X035811Y018429D02*
X035610Y018630D01*
X035347Y018739D01*
X035063Y018739D01*
X034800Y018630D01*
X034599Y018429D01*
X034490Y018166D01*
X034490Y017882D01*
X034599Y017619D01*
X034800Y017418D01*
X035063Y017309D01*
X035347Y017309D01*
X035610Y017418D01*
X035811Y017619D01*
X035920Y017882D01*
X035920Y018166D01*
X035811Y018429D01*
X035835Y018373D02*
X039345Y018373D01*
X039169Y018570D02*
X035671Y018570D01*
X035519Y018668D02*
X039055Y018668D01*
X038884Y018767D02*
X027591Y018767D01*
X027591Y018668D02*
X034892Y018668D01*
X034739Y018570D02*
X027591Y018570D01*
X027591Y018471D02*
X034641Y018471D01*
X034576Y018373D02*
X029776Y018373D01*
X029764Y018380D02*
X029694Y018409D01*
X029619Y018424D01*
X029599Y018424D01*
X029599Y018055D01*
X029562Y018055D01*
X029562Y018018D01*
X029193Y018018D01*
X029193Y017998D01*
X029208Y017923D01*
X029237Y017853D01*
X029279Y017789D01*
X029333Y017735D01*
X029397Y017693D01*
X029467Y017664D01*
X029542Y017649D01*
X029562Y017649D01*
X029562Y018018D01*
X029599Y018018D01*
X029599Y018055D01*
X029968Y018055D01*
X029968Y018075D01*
X029953Y018150D01*
X029924Y018220D01*
X029882Y018284D01*
X029828Y018338D01*
X029764Y018380D01*
X029888Y018274D02*
X034535Y018274D01*
X034494Y018176D02*
X029943Y018176D01*
X029968Y018077D02*
X034490Y018077D01*
X034490Y017979D02*
X029964Y017979D01*
X029968Y017998D02*
X029968Y018018D01*
X029599Y018018D01*
X029599Y017649D01*
X029619Y017649D01*
X029694Y017664D01*
X029764Y017693D01*
X029828Y017735D01*
X029882Y017789D01*
X029924Y017853D01*
X029953Y017923D01*
X029968Y017998D01*
X029935Y017880D02*
X034491Y017880D01*
X034532Y017782D02*
X029874Y017782D01*
X029740Y017683D02*
X034572Y017683D01*
X034633Y017585D02*
X027591Y017585D01*
X027591Y017683D02*
X029420Y017683D01*
X029562Y017683D02*
X029599Y017683D01*
X029599Y017782D02*
X029562Y017782D01*
X029562Y017880D02*
X029599Y017880D01*
X029599Y017979D02*
X029562Y017979D01*
X029562Y018055D02*
X029193Y018055D01*
X029193Y018075D01*
X029208Y018150D01*
X029237Y018220D01*
X029279Y018284D01*
X029333Y018338D01*
X029397Y018380D01*
X029467Y018409D01*
X029542Y018424D01*
X029562Y018424D01*
X029562Y018055D01*
X029562Y018077D02*
X029599Y018077D01*
X029599Y018176D02*
X029562Y018176D01*
X029562Y018274D02*
X029599Y018274D01*
X029599Y018373D02*
X029562Y018373D01*
X029385Y018373D02*
X027591Y018373D01*
X027591Y018274D02*
X029273Y018274D01*
X029218Y018176D02*
X027591Y018176D01*
X027591Y018077D02*
X029193Y018077D01*
X029197Y017979D02*
X027591Y017979D01*
X027591Y017880D02*
X029226Y017880D01*
X029287Y017782D02*
X027591Y017782D01*
X027315Y017782D02*
X020686Y017782D01*
X020686Y017880D02*
X027315Y017880D01*
X027315Y017979D02*
X020686Y017979D01*
X020686Y018077D02*
X027315Y018077D01*
X027315Y018176D02*
X020686Y018176D01*
X020686Y018274D02*
X027315Y018274D01*
X027315Y018373D02*
X020686Y018373D01*
X020686Y018471D02*
X027315Y018471D01*
X027315Y018570D02*
X020686Y018570D01*
X020686Y018668D02*
X027315Y018668D01*
X027315Y018767D02*
X020686Y018767D01*
X020426Y018767D02*
X015701Y018767D01*
X015701Y018865D02*
X020426Y018865D01*
X020426Y018668D02*
X015701Y018668D01*
X015701Y018570D02*
X020426Y018570D01*
X020686Y017683D02*
X027315Y017683D01*
X027315Y017585D02*
X024316Y017585D01*
X024173Y017585D02*
X020686Y017585D01*
X020686Y017486D02*
X024001Y017486D01*
X023930Y017388D02*
X020686Y017388D01*
X020686Y017289D02*
X023896Y017289D01*
X023896Y017191D02*
X020686Y017191D01*
X020686Y017092D02*
X023927Y017092D01*
X023984Y016994D02*
X020686Y016994D01*
X020686Y016895D02*
X023984Y016895D01*
X023984Y016797D02*
X020686Y016797D01*
X020686Y016698D02*
X023984Y016698D01*
X023984Y016600D02*
X020671Y016600D01*
X019205Y017000D02*
X019205Y014874D01*
X018957Y014630D02*
X016158Y014630D01*
X016158Y014728D02*
X018888Y014728D01*
X018856Y014827D02*
X016158Y014827D01*
X016158Y014925D02*
X018856Y014925D01*
X018889Y015024D02*
X016158Y015024D01*
X016158Y015122D02*
X018945Y015122D01*
X018945Y015221D02*
X016158Y015221D01*
X016158Y015319D02*
X018945Y015319D01*
X018945Y015418D02*
X016158Y015418D01*
X016158Y015516D02*
X018945Y015516D01*
X018945Y015615D02*
X016158Y015615D01*
X016158Y015713D02*
X018945Y015713D01*
X018945Y015812D02*
X016158Y015812D01*
X016158Y015910D02*
X018945Y015910D01*
X018945Y016009D02*
X016158Y016009D01*
X016158Y016107D02*
X018945Y016107D01*
X018945Y016206D02*
X016158Y016206D01*
X016158Y016304D02*
X018945Y016304D01*
X018945Y016403D02*
X016158Y016403D01*
X015898Y015910D02*
X015656Y015910D01*
X015753Y015812D02*
X015898Y015812D01*
X015898Y015713D02*
X015794Y015713D01*
X015804Y015615D02*
X015898Y015615D01*
X015898Y015516D02*
X015788Y015516D01*
X015739Y015418D02*
X015898Y015418D01*
X015898Y015319D02*
X015618Y015319D01*
X015898Y015221D02*
X012795Y015221D01*
X012697Y015319D02*
X015312Y015319D01*
X014815Y015062D02*
X014720Y015158D01*
X014595Y015209D01*
X014461Y015209D01*
X014336Y015158D01*
X014241Y015062D01*
X014189Y014938D01*
X014189Y014803D01*
X014241Y014679D01*
X014336Y014583D01*
X014461Y014532D01*
X014595Y014532D01*
X014720Y014583D01*
X014815Y014679D01*
X014867Y014803D01*
X014867Y014938D01*
X014815Y015062D01*
X014831Y015024D02*
X015898Y015024D01*
X015898Y015122D02*
X014755Y015122D01*
X014867Y014925D02*
X015898Y014925D01*
X015898Y014827D02*
X014867Y014827D01*
X014836Y014728D02*
X015898Y014728D01*
X015898Y014630D02*
X014766Y014630D01*
X014290Y014630D02*
X013235Y014630D01*
X013234Y014728D02*
X014220Y014728D01*
X014189Y014827D02*
X013189Y014827D01*
X013091Y014925D02*
X014189Y014925D01*
X014225Y015024D02*
X012992Y015024D01*
X012894Y015122D02*
X014300Y015122D01*
X013235Y014531D02*
X015898Y014531D01*
X015898Y014433D02*
X013235Y014433D01*
X013235Y014334D02*
X015898Y014334D01*
X015898Y014236D02*
X013235Y014236D01*
X013235Y014137D02*
X015898Y014137D01*
X015898Y014039D02*
X013235Y014039D01*
X013235Y013940D02*
X015898Y013940D01*
X015898Y013842D02*
X013235Y013842D01*
X013235Y013743D02*
X015898Y013743D01*
X015898Y013645D02*
X013269Y013645D01*
X013367Y013546D02*
X015898Y013546D01*
X015898Y013448D02*
X013466Y013448D01*
X013564Y013349D02*
X015898Y013349D01*
X015898Y013251D02*
X013663Y013251D01*
X013761Y013152D02*
X015898Y013152D01*
X015898Y013054D02*
X013860Y013054D01*
X013958Y012955D02*
X015898Y012955D01*
X015898Y012857D02*
X014057Y012857D01*
X014155Y012758D02*
X015898Y012758D01*
X015898Y012660D02*
X014254Y012660D01*
X014352Y012561D02*
X015898Y012561D01*
X015898Y012463D02*
X014451Y012463D01*
X014549Y012364D02*
X015898Y012364D01*
X015898Y012266D02*
X014648Y012266D01*
X014691Y012167D02*
X015898Y012167D01*
X015898Y012069D02*
X014691Y012069D01*
X014691Y011970D02*
X015898Y011970D01*
X015898Y011872D02*
X014691Y011872D01*
X014691Y011773D02*
X015898Y011773D01*
X015898Y011675D02*
X014691Y011675D01*
X014691Y011576D02*
X015898Y011576D01*
X015898Y011478D02*
X014691Y011478D01*
X014691Y011379D02*
X015898Y011379D01*
X015898Y011281D02*
X014691Y011281D01*
X014691Y011182D02*
X015898Y011182D01*
X015898Y011084D02*
X014691Y011084D01*
X014691Y010985D02*
X015898Y010985D01*
X015898Y010887D02*
X014691Y010887D01*
X014691Y010788D02*
X015898Y010788D01*
X015898Y010690D02*
X014691Y010690D01*
X014691Y010591D02*
X015898Y010591D01*
X015898Y010493D02*
X014691Y010493D01*
X014691Y010394D02*
X015898Y010394D01*
X015898Y010296D02*
X014691Y010296D01*
X014691Y010197D02*
X015898Y010197D01*
X015898Y010099D02*
X014768Y010099D01*
X014866Y010000D02*
X015898Y010000D01*
X015898Y009902D02*
X014965Y009902D01*
X015063Y009803D02*
X015898Y009803D01*
X015898Y009705D02*
X015162Y009705D01*
X015260Y009606D02*
X015898Y009606D01*
X015898Y009508D02*
X015359Y009508D01*
X015457Y009409D02*
X015898Y009409D01*
X015898Y009311D02*
X015556Y009311D01*
X015654Y009212D02*
X015898Y009212D01*
X015898Y009114D02*
X015753Y009114D01*
X015851Y009015D02*
X015898Y009015D01*
X016158Y009015D02*
X025362Y009015D01*
X025362Y008917D02*
X016158Y008917D01*
X016158Y008818D02*
X025362Y008818D01*
X025362Y008720D02*
X016161Y008720D01*
X016259Y008621D02*
X025362Y008621D01*
X025362Y008523D02*
X016358Y008523D01*
X016456Y008424D02*
X025362Y008424D01*
X025362Y008326D02*
X016555Y008326D01*
X016653Y008227D02*
X025362Y008227D01*
X025396Y008129D02*
X016752Y008129D01*
X016850Y008030D02*
X025485Y008030D01*
X025583Y007932D02*
X016949Y007932D01*
X017047Y007833D02*
X025682Y007833D01*
X025780Y007735D02*
X017146Y007735D01*
X017244Y007636D02*
X025879Y007636D01*
X025977Y007538D02*
X017343Y007538D01*
X017441Y007439D02*
X026076Y007439D01*
X026174Y007341D02*
X017540Y007341D01*
X017638Y007242D02*
X026273Y007242D01*
X026371Y007144D02*
X017737Y007144D01*
X017670Y006843D02*
X023969Y006843D01*
X024855Y005957D01*
X024855Y005229D01*
X024426Y005225D02*
X024426Y005441D01*
X024323Y005544D01*
X018181Y005544D01*
X018289Y005804D02*
X016158Y007935D01*
X016158Y007987D01*
X017449Y006696D01*
X017522Y006622D01*
X017618Y006583D01*
X023861Y006583D01*
X024595Y005849D01*
X024595Y005640D01*
X024544Y005691D01*
X024471Y005764D01*
X024375Y005804D01*
X018289Y005804D01*
X018230Y005863D02*
X024581Y005863D01*
X024595Y005765D02*
X024470Y005765D01*
X024569Y005666D02*
X024595Y005666D01*
X024483Y005962D02*
X018131Y005962D01*
X018033Y006060D02*
X024384Y006060D01*
X024286Y006159D02*
X017934Y006159D01*
X017836Y006257D02*
X024187Y006257D01*
X024089Y006356D02*
X017737Y006356D01*
X017639Y006454D02*
X023990Y006454D01*
X023892Y006553D02*
X017540Y006553D01*
X017494Y006651D02*
X017442Y006651D01*
X017395Y006750D02*
X017343Y006750D01*
X017297Y006848D02*
X017245Y006848D01*
X017198Y006947D02*
X017146Y006947D01*
X017100Y007045D02*
X017048Y007045D01*
X017001Y007144D02*
X016949Y007144D01*
X016903Y007242D02*
X016851Y007242D01*
X016804Y007341D02*
X016752Y007341D01*
X016706Y007439D02*
X016654Y007439D01*
X016607Y007538D02*
X016555Y007538D01*
X016509Y007636D02*
X016457Y007636D01*
X016410Y007735D02*
X016358Y007735D01*
X016312Y007833D02*
X016260Y007833D01*
X016213Y007932D02*
X016161Y007932D01*
X015701Y007315D02*
X015701Y006922D01*
X018044Y004579D01*
X018378Y004244D02*
X022981Y004244D01*
X023996Y005221D01*
X024430Y006750D02*
X026765Y006750D01*
X026667Y006848D02*
X024331Y006848D01*
X024233Y006947D02*
X026568Y006947D01*
X026470Y007045D02*
X024134Y007045D01*
X025925Y008326D02*
X025930Y008326D01*
X025914Y008424D02*
X025882Y008424D01*
X025882Y008523D02*
X025914Y008523D01*
X025914Y008621D02*
X025882Y008621D01*
X025882Y008720D02*
X025914Y008720D01*
X025914Y008818D02*
X025882Y008818D01*
X025882Y008917D02*
X025914Y008917D01*
X025914Y009015D02*
X025882Y009015D01*
X025882Y009114D02*
X025914Y009114D01*
X025914Y009212D02*
X025882Y009212D01*
X025882Y009311D02*
X025914Y009311D01*
X025914Y009409D02*
X025882Y009409D01*
X025882Y009508D02*
X025914Y009508D01*
X025914Y009606D02*
X025882Y009606D01*
X025882Y009705D02*
X025914Y009705D01*
X025914Y009803D02*
X025882Y009803D01*
X025882Y009902D02*
X025914Y009902D01*
X025914Y010000D02*
X025882Y010000D01*
X025882Y010099D02*
X025914Y010099D01*
X025914Y010197D02*
X025882Y010197D01*
X025882Y010296D02*
X025914Y010296D01*
X025914Y010394D02*
X025882Y010394D01*
X025876Y010493D02*
X025914Y010493D01*
X025877Y010591D02*
X025825Y010591D01*
X025778Y010690D02*
X025726Y010690D01*
X025680Y010788D02*
X025628Y010788D01*
X025581Y010887D02*
X025529Y010887D01*
X025483Y010985D02*
X025431Y010985D01*
X025384Y011084D02*
X025332Y011084D01*
X025286Y011182D02*
X025234Y011182D01*
X025187Y011281D02*
X025135Y011281D01*
X025089Y011379D02*
X025037Y011379D01*
X024990Y011478D02*
X024938Y011478D01*
X024892Y011576D02*
X024840Y011576D01*
X024793Y011675D02*
X024741Y011675D01*
X024695Y011773D02*
X024643Y011773D01*
X024596Y011872D02*
X024544Y011872D01*
X024498Y011970D02*
X024446Y011970D01*
X024399Y012069D02*
X024347Y012069D01*
X024301Y012167D02*
X024249Y012167D01*
X024202Y012266D02*
X024150Y012266D01*
X024104Y012364D02*
X024052Y012364D01*
X024016Y012463D02*
X023953Y012463D01*
X023984Y012561D02*
X023875Y012561D01*
X023875Y012660D02*
X023984Y012660D01*
X023984Y012758D02*
X023875Y012758D01*
X023875Y012857D02*
X023984Y012857D01*
X023984Y012955D02*
X023875Y012955D01*
X023875Y013054D02*
X023984Y013054D01*
X023984Y013152D02*
X023875Y013152D01*
X023875Y013251D02*
X023984Y013251D01*
X023984Y013349D02*
X023875Y013349D01*
X023875Y013448D02*
X023984Y013448D01*
X023984Y013546D02*
X023875Y013546D01*
X023875Y013645D02*
X023984Y013645D01*
X023984Y013743D02*
X023875Y013743D01*
X023875Y013842D02*
X023984Y013842D01*
X023984Y013940D02*
X023875Y013940D01*
X023875Y014039D02*
X023984Y014039D01*
X023984Y014137D02*
X023875Y014137D01*
X023875Y014236D02*
X023984Y014236D01*
X023984Y014334D02*
X023875Y014334D01*
X023867Y014433D02*
X023984Y014433D01*
X023984Y014531D02*
X023814Y014531D01*
X023715Y014630D02*
X023984Y014630D01*
X023984Y014728D02*
X023617Y014728D01*
X023508Y014827D02*
X023984Y014827D01*
X023984Y014925D02*
X021770Y014925D01*
X021522Y014925D02*
X021140Y014925D01*
X021282Y014827D02*
X021381Y014827D01*
X021646Y014599D02*
X023378Y014599D01*
X023615Y014363D01*
X023615Y012433D01*
X024244Y012591D02*
X026174Y010662D01*
X026174Y008418D01*
X026764Y007827D01*
X025362Y009114D02*
X016158Y009114D01*
X016158Y009212D02*
X025362Y009212D01*
X025362Y009311D02*
X016158Y009311D01*
X016158Y009409D02*
X025362Y009409D01*
X025362Y009508D02*
X016158Y009508D01*
X016158Y009606D02*
X025362Y009606D01*
X025362Y009705D02*
X016158Y009705D01*
X016158Y009803D02*
X025362Y009803D01*
X025362Y009902D02*
X016158Y009902D01*
X016158Y010000D02*
X025362Y010000D01*
X025362Y010099D02*
X016158Y010099D01*
X016158Y010197D02*
X025362Y010197D01*
X025362Y010296D02*
X016158Y010296D01*
X016158Y010394D02*
X024295Y010394D01*
X024323Y010366D02*
X024224Y010464D01*
X024171Y010592D01*
X024171Y010731D01*
X024224Y010859D01*
X024323Y010957D01*
X024451Y011011D01*
X024589Y011011D01*
X024718Y010957D01*
X024816Y010859D01*
X024869Y010731D01*
X024869Y010592D01*
X024816Y010464D01*
X024718Y010366D01*
X024589Y010313D01*
X024451Y010313D01*
X024323Y010366D01*
X024213Y010493D02*
X016158Y010493D01*
X016158Y010591D02*
X024172Y010591D01*
X024171Y010690D02*
X016158Y010690D01*
X016158Y010788D02*
X024195Y010788D01*
X024252Y010887D02*
X016158Y010887D01*
X016158Y010985D02*
X024389Y010985D01*
X024498Y011182D02*
X016158Y011182D01*
X016158Y011084D02*
X024597Y011084D01*
X024651Y010985D02*
X024695Y010985D01*
X024789Y010887D02*
X024794Y010887D01*
X024845Y010788D02*
X024892Y010788D01*
X024869Y010690D02*
X024991Y010690D01*
X025089Y010591D02*
X024868Y010591D01*
X024827Y010493D02*
X025188Y010493D01*
X025286Y010394D02*
X024745Y010394D01*
X024400Y011281D02*
X016158Y011281D01*
X016158Y011379D02*
X024301Y011379D01*
X024203Y011478D02*
X016158Y011478D01*
X016158Y011576D02*
X024104Y011576D01*
X024006Y011675D02*
X016158Y011675D01*
X016158Y011773D02*
X023907Y011773D01*
X023809Y011872D02*
X016158Y011872D01*
X016158Y011970D02*
X023710Y011970D01*
X024244Y012591D02*
X024244Y017237D01*
X024488Y017486D02*
X027315Y017486D01*
X027315Y017388D02*
X024559Y017388D01*
X024593Y017289D02*
X027315Y017289D01*
X027315Y017191D02*
X024593Y017191D01*
X024562Y017092D02*
X027315Y017092D01*
X027315Y016994D02*
X024504Y016994D01*
X024504Y016895D02*
X027315Y016895D01*
X027315Y016797D02*
X024504Y016797D01*
X024504Y016698D02*
X027315Y016698D01*
X027315Y016600D02*
X025869Y016600D01*
X025985Y016501D02*
X027315Y016501D01*
X027315Y016403D02*
X026033Y016403D01*
X025533Y016600D02*
X024504Y016600D01*
X024504Y016501D02*
X025346Y016501D01*
X025247Y016403D02*
X024504Y016403D01*
X024504Y016304D02*
X025149Y016304D01*
X025050Y016206D02*
X024504Y016206D01*
X024504Y015910D02*
X025008Y015910D01*
X025008Y015812D02*
X024504Y015812D01*
X024504Y015713D02*
X025008Y015713D01*
X025008Y015615D02*
X024504Y015615D01*
X024504Y015516D02*
X025008Y015516D01*
X025008Y015418D02*
X024504Y015418D01*
X024504Y015319D02*
X025008Y015319D01*
X025008Y015221D02*
X024504Y015221D01*
X024504Y015122D02*
X025008Y015122D01*
X025008Y015024D02*
X024504Y015024D01*
X024504Y014925D02*
X025008Y014925D01*
X025008Y014827D02*
X024504Y014827D01*
X024504Y014728D02*
X025008Y014728D01*
X025008Y014630D02*
X024504Y014630D01*
X024504Y014531D02*
X025008Y014531D01*
X025008Y014433D02*
X024504Y014433D01*
X024504Y014334D02*
X025008Y014334D01*
X024608Y014236D02*
X024504Y014236D01*
X024504Y014137D02*
X024527Y014137D01*
X023275Y014334D02*
X021874Y014334D01*
X021418Y014334D02*
X021245Y014334D01*
X021325Y014433D02*
X021337Y014433D01*
X020788Y014334D02*
X020693Y014334D01*
X020237Y014334D02*
X020063Y014334D01*
X020144Y014433D02*
X020156Y014433D01*
X020199Y014827D02*
X020101Y014827D01*
X019959Y014925D02*
X020341Y014925D01*
X020589Y014925D02*
X020892Y014925D01*
X020751Y014827D02*
X020730Y014827D01*
X016363Y014137D02*
X016158Y014137D01*
X016158Y014039D02*
X016223Y014039D01*
X016164Y013940D02*
X016158Y013940D01*
X016158Y013645D02*
X016180Y013645D01*
X014441Y012119D02*
X012985Y013575D01*
X012985Y014678D01*
X012552Y015111D01*
X010819Y015111D01*
X009756Y014048D01*
X009756Y011292D01*
X010095Y011281D02*
X010333Y011281D01*
X010333Y011379D02*
X010087Y011379D01*
X010046Y011478D02*
X010333Y011478D01*
X010333Y011576D02*
X010006Y011576D01*
X010006Y011675D02*
X010333Y011675D01*
X010333Y011773D02*
X010006Y011773D01*
X010006Y011872D02*
X010333Y011872D01*
X010333Y011970D02*
X010006Y011970D01*
X010006Y012069D02*
X010333Y012069D01*
X010333Y012167D02*
X010006Y012167D01*
X010006Y012266D02*
X010333Y012266D01*
X010333Y012364D02*
X010006Y012364D01*
X010006Y012463D02*
X010333Y012463D01*
X010333Y012561D02*
X010006Y012561D01*
X010006Y012660D02*
X010333Y012660D01*
X010333Y012758D02*
X010006Y012758D01*
X010006Y012857D02*
X010333Y012857D01*
X010333Y012955D02*
X010006Y012955D01*
X010006Y013054D02*
X010333Y013054D01*
X010333Y013152D02*
X010006Y013152D01*
X010006Y013251D02*
X010333Y013251D01*
X010333Y013349D02*
X010006Y013349D01*
X010006Y013448D02*
X010333Y013448D01*
X010333Y013546D02*
X010006Y013546D01*
X010006Y013645D02*
X010333Y013645D01*
X010333Y013743D02*
X010006Y013743D01*
X010006Y013842D02*
X010333Y013842D01*
X010333Y013940D02*
X010006Y013940D01*
X010101Y014039D02*
X010333Y014039D01*
X010333Y014137D02*
X010199Y014137D01*
X010298Y014236D02*
X010333Y014236D01*
X010833Y014236D02*
X011519Y014236D01*
X011512Y014334D02*
X010908Y014334D01*
X011007Y014433D02*
X011531Y014433D01*
X011583Y014531D02*
X011105Y014531D01*
X010833Y014137D02*
X011560Y014137D01*
X011652Y014039D02*
X010833Y014039D01*
X010833Y013940D02*
X012183Y013940D01*
X012183Y013842D02*
X010833Y013842D01*
X010833Y013743D02*
X012183Y013743D01*
X012183Y013645D02*
X010833Y013645D01*
X010833Y013546D02*
X011102Y013546D01*
X011014Y013448D02*
X010833Y013448D01*
X010833Y013349D02*
X010973Y013349D01*
X010969Y013251D02*
X010833Y013251D01*
X010833Y013152D02*
X010991Y013152D01*
X011047Y013054D02*
X010833Y013054D01*
X010833Y012955D02*
X011188Y012955D01*
X011369Y012857D02*
X010833Y012857D01*
X010833Y012758D02*
X011468Y012758D01*
X011566Y012660D02*
X010833Y012660D01*
X010833Y012561D02*
X011665Y012561D01*
X011763Y012463D02*
X010833Y012463D01*
X010833Y012364D02*
X011862Y012364D01*
X011960Y012266D02*
X010833Y012266D01*
X010833Y012167D02*
X012059Y012167D01*
X012157Y012069D02*
X010833Y012069D01*
X010833Y011970D02*
X012256Y011970D01*
X012302Y011872D02*
X010833Y011872D01*
X010833Y011773D02*
X012302Y011773D01*
X012302Y011675D02*
X010833Y011675D01*
X010833Y011576D02*
X012302Y011576D01*
X012302Y011478D02*
X010833Y011478D01*
X010833Y011379D02*
X012302Y011379D01*
X012302Y011281D02*
X010833Y011281D01*
X010833Y011182D02*
X012302Y011182D01*
X012302Y011084D02*
X010833Y011084D01*
X010833Y010985D02*
X011805Y010985D01*
X011734Y010887D02*
X010873Y010887D01*
X010914Y010788D02*
X011701Y010788D01*
X011701Y010690D02*
X010922Y010690D01*
X010904Y010591D02*
X011735Y010591D01*
X011809Y010493D02*
X010853Y010493D01*
X010727Y010394D02*
X012302Y010394D01*
X012302Y010296D02*
X010739Y010296D01*
X010804Y010197D02*
X012302Y010197D01*
X012302Y010099D02*
X010831Y010099D01*
X010831Y010000D02*
X012302Y010000D01*
X012302Y009902D02*
X010792Y009902D01*
X010711Y009803D02*
X012302Y009803D01*
X012302Y009705D02*
X009580Y009705D01*
X009639Y009606D02*
X009495Y009606D01*
X010181Y009508D02*
X010446Y009508D01*
X010363Y009409D02*
X010213Y009409D01*
X010213Y009311D02*
X010323Y009311D01*
X010323Y009212D02*
X010219Y009212D01*
X012271Y010493D02*
X012302Y010493D01*
X012274Y010985D02*
X012302Y010985D01*
X013195Y010985D02*
X013483Y010985D01*
X013483Y010887D02*
X013195Y010887D01*
X013195Y010788D02*
X013483Y010788D01*
X013483Y010690D02*
X013195Y010690D01*
X013195Y010591D02*
X013483Y010591D01*
X013483Y010493D02*
X013195Y010493D01*
X013195Y010394D02*
X013483Y010394D01*
X013483Y010296D02*
X013195Y010296D01*
X013195Y010197D02*
X013483Y010197D01*
X013483Y010099D02*
X013195Y010099D01*
X013195Y010000D02*
X013483Y010000D01*
X013500Y009902D02*
X013195Y009902D01*
X013195Y009803D02*
X013569Y009803D01*
X013667Y009705D02*
X013195Y009705D01*
X013195Y009606D02*
X013766Y009606D01*
X013864Y009508D02*
X013195Y009508D01*
X013195Y009409D02*
X013963Y009409D01*
X014061Y009311D02*
X013195Y009311D01*
X013195Y009212D02*
X014160Y009212D01*
X014258Y009114D02*
X013195Y009114D01*
X013402Y008615D02*
X013402Y001021D01*
X013307Y000927D01*
X012807Y000938D02*
X012807Y000938D01*
X012807Y000840D02*
X012771Y000840D01*
X012729Y000741D02*
X012843Y000741D01*
X012885Y000643D02*
X012630Y000643D01*
X012449Y000544D02*
X012983Y000544D01*
X013163Y000446D02*
X011452Y000446D01*
X011632Y000544D02*
X012166Y000544D01*
X011985Y000643D02*
X011730Y000643D01*
X011772Y000741D02*
X011886Y000741D01*
X011844Y000840D02*
X011807Y000840D01*
X011807Y000938D02*
X011807Y000938D01*
X011803Y001037D02*
X011807Y001037D01*
X012307Y001027D02*
X012945Y001665D01*
X012945Y012248D01*
X012008Y013185D01*
X011791Y013448D02*
X011601Y013448D01*
X011642Y013349D02*
X011709Y013349D01*
X011513Y013546D02*
X012183Y013546D01*
X012347Y013251D02*
X012365Y013251D01*
X012395Y013152D02*
X012464Y013152D01*
X012494Y013054D02*
X012562Y013054D01*
X012592Y012955D02*
X012661Y012955D01*
X012691Y012857D02*
X012759Y012857D01*
X012789Y012758D02*
X012858Y012758D01*
X012888Y012660D02*
X012956Y012660D01*
X012986Y012561D02*
X013055Y012561D01*
X013085Y012463D02*
X013153Y012463D01*
X013168Y012364D02*
X013252Y012364D01*
X013195Y012266D02*
X013350Y012266D01*
X013449Y012167D02*
X013195Y012167D01*
X013195Y012069D02*
X013547Y012069D01*
X013646Y011970D02*
X013195Y011970D01*
X013195Y011872D02*
X013719Y011872D01*
X013719Y011773D02*
X013195Y011773D01*
X013195Y011675D02*
X013719Y011675D01*
X013703Y011576D02*
X013195Y011576D01*
X013195Y011478D02*
X013604Y011478D01*
X013515Y011379D02*
X013195Y011379D01*
X013195Y011281D02*
X013483Y011281D01*
X013483Y011182D02*
X013195Y011182D01*
X013195Y011084D02*
X013483Y011084D01*
X012552Y012028D02*
X011307Y013272D01*
X012049Y014039D02*
X012183Y014039D01*
X012183Y014137D02*
X012142Y014137D01*
X012183Y014236D02*
X012183Y014236D01*
X012552Y012028D02*
X012552Y002171D01*
X011307Y000927D01*
X010166Y000544D02*
X009073Y000544D01*
X009184Y000643D02*
X009985Y000643D01*
X009886Y000741D02*
X009255Y000741D01*
X008550Y000544D02*
X007073Y000544D01*
X006550Y000544D02*
X005073Y000544D01*
X009258Y002120D02*
X011795Y002120D01*
X011959Y002022D02*
X009376Y002022D01*
X009475Y001923D02*
X011950Y001923D01*
X011852Y001825D02*
X009573Y001825D01*
X009967Y001431D02*
X010004Y001431D01*
X007496Y002678D02*
X007465Y002678D01*
X007433Y002709D01*
X007368Y004780D02*
X007054Y004780D01*
X007109Y004878D02*
X007301Y004878D01*
X007272Y004977D02*
X007130Y004977D01*
X007126Y005075D02*
X007272Y005075D01*
X007309Y005174D02*
X007085Y005174D01*
X006995Y005272D02*
X007387Y005272D01*
X007834Y005272D02*
X007899Y005272D01*
X008361Y005272D02*
X012302Y005272D01*
X012302Y005174D02*
X008435Y005174D01*
X008469Y005075D02*
X012302Y005075D01*
X012302Y004977D02*
X008469Y004977D01*
X008436Y004878D02*
X012302Y004878D01*
X012302Y004780D02*
X008365Y004780D01*
X007896Y004780D02*
X007853Y004780D01*
X006588Y005272D02*
X006001Y005272D01*
X005989Y005174D02*
X006498Y005174D01*
X006458Y005075D02*
X005948Y005075D01*
X005843Y004977D02*
X006453Y004977D01*
X005986Y005371D02*
X012302Y005371D01*
X012302Y005469D02*
X005940Y005469D01*
X006940Y007538D02*
X004544Y007538D01*
X004443Y007636D02*
X007086Y007636D01*
X005651Y009508D02*
X005646Y009508D01*
X005971Y011379D02*
X001395Y011379D01*
X001134Y011379D02*
X001034Y011379D01*
X001034Y011478D02*
X001134Y011478D01*
X001134Y011576D02*
X001034Y011576D01*
X000787Y009015D02*
X000320Y009015D01*
X000320Y008917D02*
X000731Y008917D01*
X000690Y008818D02*
X000320Y008818D01*
X000320Y008720D02*
X000684Y008720D01*
X000684Y008621D02*
X000320Y008621D01*
X000320Y008523D02*
X000719Y008523D01*
X000759Y008424D02*
X000320Y008424D01*
X000320Y008326D02*
X000857Y008326D01*
X006432Y011379D02*
X009426Y011379D01*
X010027Y011084D02*
X010333Y011084D01*
X010333Y011182D02*
X010078Y011182D01*
X009901Y010985D02*
X010333Y010985D01*
X014441Y010071D02*
X017670Y006843D01*
X015898Y006848D02*
X015538Y006848D01*
X015683Y006750D02*
X015898Y006750D01*
X015898Y006651D02*
X015774Y006651D01*
X015873Y006553D02*
X015898Y006553D01*
X014209Y005666D02*
X013652Y005666D01*
X013652Y005568D02*
X014065Y005568D01*
X014007Y005469D02*
X014005Y005469D01*
X013775Y005469D02*
X013652Y005469D01*
X013890Y005150D02*
X014323Y004717D01*
X014323Y003693D01*
X015307Y002709D01*
X018457Y002709D01*
X018626Y002908D02*
X022890Y002908D01*
X022792Y003007D02*
X016158Y003007D01*
X016158Y003105D02*
X022693Y003105D01*
X022989Y002810D02*
X022189Y002810D01*
X022287Y002711D02*
X023087Y002711D01*
X023186Y002613D02*
X022414Y002613D01*
X022571Y002514D02*
X023284Y002514D01*
X023383Y002416D02*
X022635Y002416D01*
X022664Y002317D02*
X023481Y002317D01*
X023580Y002219D02*
X022664Y002219D01*
X022628Y002120D02*
X023678Y002120D01*
X023695Y002022D02*
X023495Y002022D01*
X021329Y002022D02*
X018499Y002022D01*
X018573Y002120D02*
X021254Y002120D01*
X021219Y002219D02*
X018609Y002219D01*
X018609Y002317D02*
X021219Y002317D01*
X022091Y003204D02*
X016158Y003204D01*
X016158Y003302D02*
X019182Y003302D01*
X019097Y003401D02*
X016158Y003401D01*
X016158Y003499D02*
X019056Y003499D01*
X019053Y003598D02*
X016158Y003598D01*
X016158Y003696D02*
X019075Y003696D01*
X019729Y003696D02*
X021551Y003696D01*
X021650Y003598D02*
X019751Y003598D01*
X019748Y003499D02*
X021748Y003499D01*
X021847Y003401D02*
X019707Y003401D01*
X019622Y003302D02*
X021945Y003302D01*
X021937Y003310D02*
X021937Y003310D01*
X018678Y002856D02*
X018678Y002856D01*
X015898Y003007D02*
X015364Y003007D01*
X015265Y003105D02*
X015898Y003105D01*
X015898Y003204D02*
X015167Y003204D01*
X015068Y003302D02*
X015898Y003302D01*
X015898Y003401D02*
X014970Y003401D01*
X014871Y003499D02*
X015898Y003499D01*
X015898Y003598D02*
X014773Y003598D01*
X014674Y003696D02*
X015898Y003696D01*
X015898Y003795D02*
X014576Y003795D01*
X014573Y003893D02*
X015898Y003893D01*
X015898Y003992D02*
X014573Y003992D01*
X014573Y004090D02*
X015372Y004090D01*
X015312Y004115D02*
X015437Y004063D01*
X015572Y004063D01*
X015696Y004115D01*
X015791Y004210D01*
X015843Y004335D01*
X015843Y004469D01*
X015791Y004594D01*
X015696Y004689D01*
X015572Y004741D01*
X015437Y004741D01*
X015312Y004689D01*
X015217Y004594D01*
X015166Y004469D01*
X015166Y004335D01*
X015217Y004210D01*
X015312Y004115D01*
X015239Y004189D02*
X014573Y004189D01*
X014573Y004287D02*
X015185Y004287D01*
X015166Y004386D02*
X014573Y004386D01*
X014573Y004484D02*
X015172Y004484D01*
X015212Y004583D02*
X014573Y004583D01*
X014573Y004681D02*
X015304Y004681D01*
X015704Y004681D02*
X015898Y004681D01*
X015898Y004583D02*
X015796Y004583D01*
X015837Y004484D02*
X015898Y004484D01*
X015898Y004386D02*
X015843Y004386D01*
X015823Y004287D02*
X015898Y004287D01*
X015898Y004189D02*
X015770Y004189D01*
X015898Y004090D02*
X015636Y004090D01*
X015898Y004780D02*
X014568Y004780D01*
X014516Y004878D02*
X015898Y004878D01*
X014073Y004583D02*
X013652Y004583D01*
X013652Y004681D02*
X014006Y004681D01*
X013907Y004780D02*
X013652Y004780D01*
X013652Y004878D02*
X013683Y004878D01*
X013652Y004484D02*
X014073Y004484D01*
X014073Y004386D02*
X013652Y004386D01*
X013652Y004287D02*
X014073Y004287D01*
X014073Y004189D02*
X013652Y004189D01*
X013652Y004090D02*
X014073Y004090D01*
X014073Y003992D02*
X013652Y003992D01*
X013652Y003893D02*
X014073Y003893D01*
X014073Y003795D02*
X013652Y003795D01*
X013652Y003696D02*
X014073Y003696D01*
X014092Y003598D02*
X013652Y003598D01*
X013652Y003499D02*
X014164Y003499D01*
X014262Y003401D02*
X013652Y003401D01*
X013652Y003302D02*
X014361Y003302D01*
X014459Y003204D02*
X013652Y003204D01*
X013652Y003105D02*
X014558Y003105D01*
X014656Y003007D02*
X013652Y003007D01*
X013652Y002908D02*
X014755Y002908D01*
X014539Y002810D02*
X013652Y002810D01*
X013652Y002711D02*
X014467Y002711D01*
X014433Y002613D02*
X013652Y002613D01*
X013652Y002514D02*
X014433Y002514D01*
X014467Y002416D02*
X014013Y002416D01*
X014097Y002317D02*
X014539Y002317D01*
X014138Y002219D02*
X015898Y002219D01*
X015898Y002317D02*
X015005Y002317D01*
X015077Y002416D02*
X015898Y002416D01*
X015898Y002120D02*
X014138Y002120D01*
X014113Y002022D02*
X015898Y002022D01*
X015898Y001923D02*
X014052Y001923D01*
X013899Y001825D02*
X015898Y001825D01*
X015898Y001726D02*
X013652Y001726D01*
X013652Y001628D02*
X015898Y001628D01*
X015898Y001529D02*
X013652Y001529D01*
X013652Y001431D02*
X014004Y001431D01*
X013906Y001332D02*
X013652Y001332D01*
X013708Y001234D02*
X013852Y001234D01*
X013811Y001135D02*
X013762Y001135D01*
X013803Y001037D02*
X013807Y001037D01*
X013807Y000938D02*
X013807Y000938D01*
X013807Y000840D02*
X013844Y000840D01*
X013886Y000741D02*
X013772Y000741D01*
X013730Y000643D02*
X013985Y000643D01*
X014807Y001037D02*
X014870Y001037D01*
X014909Y001135D02*
X014804Y001135D01*
X014763Y001234D02*
X014978Y001234D01*
X015112Y001332D02*
X014709Y001332D01*
X014611Y001431D02*
X015898Y001431D01*
X015898Y001332D02*
X015503Y001332D01*
X015357Y001332D02*
X015257Y001332D01*
X015257Y001234D02*
X015357Y001234D01*
X015357Y001135D02*
X015257Y001135D01*
X015257Y000840D02*
X015357Y000840D01*
X015357Y000741D02*
X015257Y000741D01*
X015257Y000643D02*
X015357Y000643D01*
X015357Y000544D02*
X015257Y000544D01*
X015745Y001037D02*
X015898Y001037D01*
X015898Y001135D02*
X015706Y001135D01*
X015637Y001234D02*
X015898Y001234D01*
X013700Y001825D02*
X013652Y001825D01*
X013152Y001431D02*
X013065Y001431D01*
X013006Y001332D02*
X012966Y001332D01*
X012907Y001234D02*
X012868Y001234D01*
X012853Y001135D02*
X012804Y001135D01*
X012807Y001037D02*
X012812Y001037D01*
X015111Y002514D02*
X015149Y002514D01*
X014441Y010071D02*
X014441Y012119D01*
X026485Y013571D02*
X026737Y013571D01*
X029798Y013546D02*
X036457Y013546D01*
X036457Y013448D02*
X029798Y013448D01*
X029798Y013349D02*
X036457Y013349D01*
X036457Y013251D02*
X029798Y013251D01*
X029798Y013152D02*
X036457Y013152D01*
X036457Y013054D02*
X029798Y013054D01*
X029798Y012955D02*
X036458Y012955D01*
X036458Y012857D02*
X029798Y012857D01*
X029798Y012758D02*
X036458Y012758D01*
X036458Y012660D02*
X029798Y012660D01*
X029798Y012561D02*
X035625Y012561D01*
X035553Y012463D02*
X029798Y012463D01*
X029798Y012364D02*
X035520Y012364D01*
X035520Y012266D02*
X034325Y012266D01*
X034301Y012289D02*
X034188Y012336D01*
X034065Y012336D01*
X033952Y012289D01*
X033876Y012214D01*
X033801Y012289D01*
X033688Y012336D01*
X033565Y012336D01*
X033452Y012289D01*
X033376Y012214D01*
X033301Y012289D01*
X033188Y012336D01*
X033065Y012336D01*
X032952Y012289D01*
X032865Y012203D01*
X032818Y012089D01*
X032818Y011967D01*
X032865Y011853D01*
X032940Y011778D01*
X032865Y011703D01*
X032818Y011589D01*
X032818Y011467D01*
X032865Y011353D01*
X032940Y011278D01*
X032865Y011203D01*
X032818Y011089D01*
X032818Y010967D01*
X032865Y010853D01*
X032952Y010766D01*
X033065Y010720D01*
X033188Y010720D01*
X033301Y010766D01*
X033376Y010842D01*
X033452Y010766D01*
X033565Y010720D01*
X033688Y010720D01*
X033801Y010766D01*
X033876Y010842D01*
X033952Y010766D01*
X034065Y010720D01*
X034188Y010720D01*
X034301Y010766D01*
X034388Y010853D01*
X034435Y010967D01*
X034435Y011089D01*
X034388Y011203D01*
X034313Y011278D01*
X034388Y011353D01*
X034435Y011467D01*
X034435Y011589D01*
X034388Y011703D01*
X034313Y011778D01*
X034388Y011853D01*
X034435Y011967D01*
X034435Y012089D01*
X034388Y012203D01*
X034301Y012289D01*
X034403Y012167D02*
X034680Y012167D01*
X034603Y012069D02*
X034435Y012069D01*
X034435Y011970D02*
X034581Y011970D01*
X034581Y011872D02*
X034395Y011872D01*
X034317Y011773D02*
X034581Y011773D01*
X034581Y011675D02*
X034400Y011675D01*
X034435Y011576D02*
X034581Y011576D01*
X034581Y011478D02*
X034435Y011478D01*
X034399Y011379D02*
X034581Y011379D01*
X034581Y011281D02*
X034315Y011281D01*
X034396Y011182D02*
X034581Y011182D01*
X034581Y011084D02*
X034435Y011084D01*
X034435Y010985D02*
X034581Y010985D01*
X034581Y010887D02*
X034402Y010887D01*
X034323Y010788D02*
X034581Y010788D01*
X034581Y010690D02*
X032304Y010690D01*
X032204Y010788D02*
X032930Y010788D01*
X032851Y010887D02*
X029870Y010887D01*
X029943Y010985D02*
X032818Y010985D01*
X032818Y011084D02*
X029977Y011084D01*
X029977Y011182D02*
X032856Y011182D01*
X032938Y011281D02*
X029944Y011281D01*
X029872Y011379D02*
X032854Y011379D01*
X032818Y011478D02*
X029821Y011478D01*
X029878Y011576D02*
X032818Y011576D01*
X032853Y011675D02*
X029887Y011675D01*
X029855Y011773D02*
X032935Y011773D01*
X032857Y011872D02*
X029798Y011872D01*
X029798Y011970D02*
X032818Y011970D01*
X032818Y012069D02*
X029798Y012069D01*
X029798Y012167D02*
X032850Y012167D01*
X032928Y012266D02*
X029798Y012266D01*
X029404Y011379D02*
X027751Y011379D01*
X027751Y011281D02*
X029332Y011281D01*
X029299Y011182D02*
X027751Y011182D01*
X027751Y011084D02*
X029299Y011084D01*
X029333Y010985D02*
X027751Y010985D01*
X027751Y010887D02*
X029407Y010887D01*
X030608Y010591D02*
X027751Y010591D01*
X027751Y010493D02*
X030582Y010493D01*
X030582Y010394D02*
X027751Y010394D01*
X027751Y010296D02*
X030613Y010296D01*
X030658Y010690D02*
X027751Y010690D01*
X027751Y010788D02*
X030758Y010788D01*
X031204Y010788D02*
X031258Y010788D01*
X031704Y010788D02*
X031758Y010788D01*
X033323Y010788D02*
X033430Y010788D01*
X033823Y010788D02*
X033930Y010788D01*
X034831Y010788D02*
X039410Y010788D01*
X039410Y010690D02*
X034831Y010690D01*
X034831Y010630D02*
X034831Y011965D01*
X036709Y011965D01*
X036705Y014516D01*
X039422Y014524D01*
X039410Y010626D01*
X034831Y010630D01*
X034831Y010887D02*
X039411Y010887D01*
X039411Y010985D02*
X034831Y010985D01*
X034831Y011084D02*
X039411Y011084D01*
X039412Y011182D02*
X034831Y011182D01*
X034831Y011281D02*
X039412Y011281D01*
X039412Y011379D02*
X034831Y011379D01*
X034831Y011478D02*
X039412Y011478D01*
X039413Y011576D02*
X034831Y011576D01*
X034831Y011675D02*
X039413Y011675D01*
X039413Y011773D02*
X034831Y011773D01*
X034831Y011872D02*
X039414Y011872D01*
X039414Y011970D02*
X036709Y011970D01*
X036709Y012069D02*
X039414Y012069D01*
X039415Y012167D02*
X036709Y012167D01*
X036709Y012266D02*
X039415Y012266D01*
X039415Y012364D02*
X036708Y012364D01*
X036708Y012463D02*
X039415Y012463D01*
X039416Y012561D02*
X036708Y012561D01*
X036708Y012660D02*
X039416Y012660D01*
X039416Y012758D02*
X036708Y012758D01*
X036708Y012857D02*
X039417Y012857D01*
X039417Y012955D02*
X036708Y012955D01*
X036707Y013054D02*
X039417Y013054D01*
X039417Y013152D02*
X036707Y013152D01*
X036707Y013251D02*
X039418Y013251D01*
X039418Y013349D02*
X036707Y013349D01*
X036707Y013448D02*
X039418Y013448D01*
X039419Y013546D02*
X036707Y013546D01*
X036706Y013645D02*
X039419Y013645D01*
X039419Y013743D02*
X036706Y013743D01*
X036706Y013842D02*
X039420Y013842D01*
X039420Y013940D02*
X036706Y013940D01*
X036706Y014039D02*
X039420Y014039D01*
X039420Y014137D02*
X036706Y014137D01*
X036706Y014236D02*
X039421Y014236D01*
X039421Y014334D02*
X036705Y014334D01*
X036705Y014433D02*
X039421Y014433D01*
X039471Y014774D02*
X039471Y014774D01*
X039567Y016206D02*
X029887Y016206D01*
X029928Y016107D02*
X034093Y016107D01*
X033996Y016009D02*
X029928Y016009D01*
X029905Y015910D02*
X033955Y015910D01*
X033945Y015812D02*
X029847Y015812D01*
X029805Y016304D02*
X039567Y016304D01*
X037980Y016895D02*
X027591Y016895D01*
X027591Y016994D02*
X037797Y016994D01*
X037698Y017092D02*
X027591Y017092D01*
X027591Y017191D02*
X037614Y017191D01*
X037573Y017289D02*
X027591Y017289D01*
X027591Y017388D02*
X034873Y017388D01*
X034732Y017486D02*
X027591Y017486D01*
X029798Y014728D02*
X036564Y014728D01*
X036493Y014657D02*
X036493Y014657D01*
X036493Y014657D01*
X036481Y014630D02*
X029798Y014630D01*
X029798Y014531D02*
X036455Y014531D01*
X036455Y014565D02*
X036455Y014565D01*
X036455Y014565D01*
X036455Y014433D02*
X029798Y014433D01*
X029798Y014334D02*
X036455Y014334D01*
X036456Y014236D02*
X029798Y014236D01*
X029798Y014137D02*
X036456Y014137D01*
X036456Y014039D02*
X029798Y014039D01*
X029798Y013940D02*
X036456Y013940D01*
X036456Y013842D02*
X029798Y013842D01*
X029798Y013743D02*
X036456Y013743D01*
X036456Y013645D02*
X029798Y013645D01*
X033325Y012266D02*
X033428Y012266D01*
X033825Y012266D02*
X033928Y012266D01*
X036092Y012561D02*
X036098Y012561D01*
X035177Y016009D02*
X035163Y016009D01*
X035065Y016107D02*
X035274Y016107D01*
X034684Y016107D02*
X034474Y016107D01*
X034572Y016009D02*
X034586Y016009D01*
X035537Y017388D02*
X037533Y017388D01*
X037510Y017486D02*
X035678Y017486D01*
X035777Y017585D02*
X037510Y017585D01*
X037510Y017683D02*
X035838Y017683D01*
X035879Y017782D02*
X037527Y017782D01*
X037568Y017880D02*
X035919Y017880D01*
X035920Y017979D02*
X037609Y017979D01*
X037686Y018077D02*
X035920Y018077D01*
X035916Y018176D02*
X037784Y018176D01*
X037950Y018274D02*
X035875Y018274D01*
X015898Y018767D02*
X000912Y018767D01*
X001220Y018865D02*
X015898Y018865D01*
X039525Y003696D02*
X039567Y003696D01*
X039349Y003664D02*
X039349Y003664D01*
M02*
