G75*
%MOIN*%
%OFA0B0*%
%FSLAX24Y24*%
%IPPOS*%
%LPD*%
%AMOC8*
5,1,8,0,0,1.08239X$1,22.5*
%
%ADD10C,0.0600*%
%ADD11C,0.0476*%
%ADD12C,0.0515*%
%ADD13C,0.0827*%
%ADD14C,0.0554*%
%ADD15C,0.0397*%
%ADD16C,0.0277*%
%ADD17C,0.0100*%
%ADD18C,0.0080*%
D10*
X010755Y004124D03*
X011755Y004124D03*
X012755Y004124D03*
X012755Y005124D03*
X011755Y005124D03*
X010755Y005124D03*
X005824Y010608D03*
X004824Y010708D03*
X003824Y010608D03*
X002824Y010708D03*
X001824Y010608D03*
X000824Y010708D03*
X018389Y019480D03*
X018389Y020620D03*
D11*
X023026Y021300D03*
X023026Y019300D03*
X020092Y017221D03*
X020092Y016221D03*
X031292Y012408D03*
X031292Y011408D03*
X028576Y005203D03*
X028576Y004203D03*
D12*
X011804Y018109D03*
X011017Y018109D03*
X010229Y018109D03*
X007572Y018089D03*
X006785Y018089D03*
X005997Y018089D03*
X006263Y021317D03*
X005475Y021317D03*
X007050Y021317D03*
X007838Y021317D03*
X008625Y021317D03*
X011174Y021219D03*
X011962Y021219D03*
D13*
X024462Y013621D03*
X026115Y013621D03*
X027769Y013621D03*
X027769Y011849D03*
X026115Y011849D03*
X024462Y011849D03*
X026460Y019467D03*
X028113Y019467D03*
X028113Y021632D03*
X026460Y021632D03*
D14*
X002678Y017304D03*
X001678Y017304D03*
X001678Y016304D03*
X002678Y016304D03*
X002678Y015304D03*
X001678Y015304D03*
X001678Y014304D03*
X002678Y014304D03*
X002678Y013304D03*
X001678Y013304D03*
D15*
X022092Y016357D03*
X022592Y016357D03*
X023092Y016357D03*
X023092Y016857D03*
X022592Y016857D03*
X022592Y017357D03*
X023092Y017357D03*
X022092Y017357D03*
X022092Y016857D03*
X025517Y016857D03*
X026017Y016857D03*
X026017Y017357D03*
X025517Y017357D03*
X026517Y017357D03*
X026517Y016857D03*
X026517Y016357D03*
X026017Y016357D03*
X025517Y016357D03*
X029139Y016357D03*
X029639Y016357D03*
X029639Y016857D03*
X029139Y016857D03*
X029139Y017357D03*
X029639Y017357D03*
X030139Y017357D03*
X030139Y016857D03*
X030139Y016357D03*
X030139Y009995D03*
X029639Y009995D03*
X029139Y009995D03*
X029139Y009495D03*
X029639Y009495D03*
X030139Y009495D03*
X030139Y008995D03*
X029639Y008995D03*
X029139Y008995D03*
X026517Y008995D03*
X026517Y009495D03*
X026517Y009995D03*
X026017Y009995D03*
X025517Y009995D03*
X025517Y009495D03*
X026017Y009495D03*
X026017Y008995D03*
X025517Y008995D03*
X023092Y008995D03*
X022592Y008995D03*
X022592Y009495D03*
X023092Y009495D03*
X023092Y009995D03*
X022592Y009995D03*
X022092Y009995D03*
X022092Y009495D03*
X022092Y008995D03*
D16*
X022848Y008128D03*
X024363Y006790D03*
X024363Y006042D03*
X025190Y005530D03*
X025466Y005530D03*
X025741Y005530D03*
X026017Y005530D03*
X026292Y005530D03*
X026292Y005254D03*
X026292Y004979D03*
X026017Y004979D03*
X026017Y005254D03*
X025741Y005254D03*
X025741Y004979D03*
X025466Y004979D03*
X025466Y005254D03*
X025190Y005254D03*
X025190Y004979D03*
X025190Y004703D03*
X025466Y004703D03*
X025741Y004703D03*
X026017Y004703D03*
X026292Y004703D03*
X027340Y004947D03*
X027907Y006199D03*
X028143Y006672D03*
X028143Y007223D03*
X026273Y008168D03*
X027808Y009664D03*
X024304Y009664D03*
X020731Y009497D03*
X020170Y009487D03*
X019521Y009349D03*
X018320Y009841D03*
X016174Y009664D03*
X015387Y009664D03*
X014403Y010195D03*
X013812Y010254D03*
X014235Y010849D03*
X013517Y011160D03*
X013202Y011160D03*
X013603Y012014D03*
X012749Y012518D03*
X011509Y012439D03*
X011509Y011731D03*
X009666Y011735D03*
X009029Y011613D03*
X009029Y012065D03*
X009670Y012447D03*
X010214Y013593D03*
X011210Y013735D03*
X011954Y013542D03*
X013468Y013581D03*
X013468Y013936D03*
X015397Y014565D03*
X015397Y014900D03*
X015790Y013581D03*
X016145Y013581D03*
X015239Y011849D03*
X019058Y013936D03*
X021804Y014428D03*
X021804Y014703D03*
X022080Y014703D03*
X022080Y014428D03*
X022355Y014428D03*
X022355Y014703D03*
X022631Y014703D03*
X022631Y014428D03*
X022907Y014428D03*
X022907Y014703D03*
X022848Y015510D03*
X024639Y015510D03*
X025131Y014743D03*
X025407Y014743D03*
X025682Y014743D03*
X025958Y014743D03*
X026233Y014743D03*
X026233Y014467D03*
X025958Y014467D03*
X025682Y014467D03*
X025407Y014467D03*
X025131Y014467D03*
X026273Y015530D03*
X028162Y015530D03*
X028753Y014841D03*
X028753Y014565D03*
X029029Y014565D03*
X029304Y014565D03*
X029580Y014565D03*
X029855Y014565D03*
X029855Y014841D03*
X029580Y014841D03*
X029304Y014841D03*
X029029Y014841D03*
X027828Y016869D03*
X027828Y017735D03*
X024324Y017715D03*
X024304Y016869D03*
X019117Y020412D03*
X019117Y020707D03*
X019107Y021613D03*
X020151Y021770D03*
X015239Y020353D03*
X015161Y017833D03*
X015161Y017439D03*
X014767Y017439D03*
X014373Y017439D03*
X014373Y017833D03*
X014767Y017833D03*
X016224Y017479D03*
X017867Y016750D03*
X012198Y017400D03*
X009048Y014349D03*
X008615Y014349D03*
X008143Y014349D03*
X006458Y014306D03*
X006509Y012459D03*
X005544Y012459D03*
X004599Y012459D03*
X005328Y011278D03*
X006529Y011278D03*
X008635Y010018D03*
X010082Y008975D03*
X010377Y008975D03*
X010377Y008670D03*
X010082Y008670D03*
X010544Y008207D03*
X010249Y005983D03*
X009846Y005983D03*
X009757Y005215D03*
X008773Y004565D03*
X008182Y003995D03*
X009540Y003857D03*
X011302Y006032D03*
X011617Y006032D03*
X013418Y005707D03*
X013536Y004644D03*
X013615Y004073D03*
X014245Y003916D03*
X014718Y003916D03*
X015190Y003916D03*
X015662Y003916D03*
X016135Y003916D03*
X016607Y003916D03*
X017277Y004743D03*
X017749Y004743D03*
X017277Y005058D03*
X016174Y005333D03*
X015387Y005333D03*
X015387Y006121D03*
X016174Y006121D03*
X016174Y006829D03*
X015859Y006829D03*
X015544Y006829D03*
X015544Y007144D03*
X015544Y007459D03*
X015544Y007774D03*
X015859Y007774D03*
X015859Y007459D03*
X015859Y007144D03*
X016174Y007144D03*
X016174Y007459D03*
X016174Y007774D03*
X016174Y008089D03*
X015859Y008089D03*
X015544Y008089D03*
X015387Y008876D03*
X016174Y008876D03*
X019718Y006908D03*
X020190Y006908D03*
X020269Y007577D03*
X020781Y005491D03*
X020781Y005097D03*
X020781Y004723D03*
X020781Y004329D03*
X021765Y004664D03*
X022040Y004664D03*
X022040Y004939D03*
X021765Y004939D03*
X021765Y005215D03*
X022040Y005215D03*
X022040Y005491D03*
X021765Y005491D03*
X022316Y005491D03*
X022592Y005491D03*
X022867Y005491D03*
X022867Y005215D03*
X022592Y005215D03*
X022592Y004939D03*
X022592Y004664D03*
X022867Y004664D03*
X022867Y004939D03*
X022316Y004939D03*
X022316Y004664D03*
X022316Y005215D03*
X018379Y004310D03*
X018379Y003916D03*
X007277Y006042D03*
X006804Y006239D03*
X006450Y006081D03*
X006076Y005861D03*
X005694Y005617D03*
X005300Y005329D03*
X004733Y005345D03*
X004733Y004920D03*
X004257Y004223D03*
X003536Y004231D03*
X003312Y005601D03*
X003320Y006317D03*
X004777Y006278D03*
X004875Y005845D03*
X004725Y007743D03*
X004729Y008124D03*
X003399Y008030D03*
X003241Y009093D03*
X004245Y009723D03*
X006922Y009369D03*
X006981Y007567D03*
X006588Y007567D03*
X000505Y006317D03*
X000584Y009821D03*
X003694Y019979D03*
X003930Y022223D03*
X003340Y022223D03*
X031804Y007617D03*
X031814Y007036D03*
D17*
X001279Y003867D02*
X000935Y004065D01*
X000654Y004346D01*
X000456Y004689D01*
X000353Y005073D01*
X000340Y005271D01*
X000340Y006074D01*
X000341Y006073D01*
X000448Y006029D01*
X000562Y006029D01*
X000669Y006073D01*
X000750Y006154D01*
X000794Y006260D01*
X000794Y006375D01*
X000750Y006481D01*
X000669Y006562D01*
X000562Y006606D01*
X000448Y006606D01*
X000341Y006562D01*
X000340Y006561D01*
X000340Y009657D01*
X000420Y009577D01*
X000526Y009533D01*
X000641Y009533D01*
X000747Y009577D01*
X000829Y009658D01*
X000872Y009764D01*
X000872Y009879D01*
X000829Y009985D01*
X000747Y010066D01*
X000641Y010110D01*
X000526Y010110D01*
X000420Y010066D01*
X000340Y009986D01*
X000340Y010570D01*
X000400Y010425D01*
X000541Y010284D01*
X000724Y010208D01*
X000923Y010208D01*
X001107Y010284D01*
X001248Y010425D01*
X001324Y010608D01*
X001324Y010807D01*
X001248Y010991D01*
X001107Y011132D01*
X000923Y011208D01*
X000724Y011208D01*
X000541Y011132D01*
X000400Y010991D01*
X000340Y010846D01*
X000340Y021269D01*
X000353Y021437D01*
X000353Y021437D01*
X000458Y021759D01*
X000656Y022032D01*
X000930Y022231D01*
X001251Y022335D01*
X001420Y022348D01*
X016725Y022348D01*
X016725Y010687D01*
X014535Y010687D01*
X014574Y010782D01*
X014574Y010916D01*
X014522Y011041D01*
X014427Y011136D01*
X014303Y011188D01*
X014168Y011188D01*
X014043Y011136D01*
X013948Y011041D01*
X013897Y010916D01*
X013897Y010782D01*
X013936Y010687D01*
X013576Y010687D01*
X013576Y010497D01*
X013525Y010446D01*
X013473Y010322D01*
X013473Y010187D01*
X013525Y010063D01*
X013576Y010012D01*
X013576Y006009D01*
X013486Y006046D01*
X013351Y006046D01*
X013227Y005994D01*
X013131Y005899D01*
X013080Y005775D01*
X013080Y005640D01*
X013131Y005515D01*
X013227Y005420D01*
X013351Y005368D01*
X013486Y005368D01*
X013576Y005406D01*
X013576Y004983D01*
X013469Y004983D01*
X013345Y004931D01*
X013278Y004864D01*
X012131Y004864D01*
X012136Y004870D01*
X012205Y005035D01*
X012205Y005214D01*
X012136Y005379D01*
X012010Y005506D01*
X011845Y005574D01*
X011665Y005574D01*
X011500Y005506D01*
X011374Y005379D01*
X011305Y005214D01*
X011305Y005035D01*
X011374Y004870D01*
X011379Y004864D01*
X011188Y004864D01*
X011255Y005025D01*
X011255Y005224D01*
X011179Y005408D01*
X011038Y005548D01*
X010854Y005624D01*
X010656Y005624D01*
X010472Y005548D01*
X010331Y005408D01*
X010255Y005224D01*
X010255Y005025D01*
X010322Y004864D01*
X009522Y004864D01*
X009229Y005157D01*
X009229Y009053D01*
X009480Y009303D01*
X009547Y009370D01*
X009584Y009459D01*
X009584Y011857D01*
X009547Y011945D01*
X009367Y012125D01*
X009367Y012133D01*
X009316Y012257D01*
X009221Y012353D01*
X009096Y012404D01*
X008961Y012404D01*
X008934Y012393D01*
X008934Y013777D01*
X009203Y014046D01*
X009240Y014062D01*
X009335Y014157D01*
X009387Y014282D01*
X009387Y014416D01*
X009335Y014541D01*
X009240Y014636D01*
X009116Y014688D01*
X008981Y014688D01*
X008856Y014636D01*
X008832Y014611D01*
X008807Y014636D01*
X008683Y014688D01*
X008548Y014688D01*
X008423Y014636D01*
X008379Y014592D01*
X008335Y014636D01*
X008210Y014688D01*
X008075Y014688D01*
X007989Y014652D01*
X007989Y015247D01*
X007953Y015335D01*
X005749Y017539D01*
X005749Y017697D01*
X005906Y017632D01*
X006088Y017632D01*
X006256Y017701D01*
X006385Y017830D01*
X006391Y017844D01*
X006391Y017844D01*
X006397Y017830D01*
X006525Y017701D01*
X006694Y017632D01*
X006876Y017632D01*
X007044Y017701D01*
X007172Y017830D01*
X007178Y017844D01*
X007178Y017844D01*
X007184Y017830D01*
X007313Y017701D01*
X007481Y017632D01*
X007663Y017632D01*
X007831Y017701D01*
X007960Y017830D01*
X008029Y017998D01*
X008029Y018180D01*
X007960Y018348D01*
X007831Y018477D01*
X007663Y018547D01*
X007481Y018547D01*
X007313Y018477D01*
X007184Y018348D01*
X007178Y018334D01*
X007172Y018348D01*
X007044Y018477D01*
X006876Y018547D01*
X006694Y018547D01*
X006525Y018477D01*
X006397Y018348D01*
X006391Y018334D01*
X006385Y018348D01*
X006256Y018477D01*
X006088Y018547D01*
X005906Y018547D01*
X005749Y018481D01*
X005749Y019084D01*
X007102Y020437D01*
X007169Y020504D01*
X007206Y020592D01*
X007206Y020887D01*
X007309Y020930D01*
X007438Y021058D01*
X007471Y021138D01*
X007492Y021087D01*
X007607Y020972D01*
X007757Y020910D01*
X007919Y020910D01*
X008068Y020972D01*
X008183Y021087D01*
X008245Y021236D01*
X008245Y021398D01*
X008183Y021548D01*
X008068Y021663D01*
X007919Y021725D01*
X007757Y021725D01*
X007607Y021663D01*
X007492Y021548D01*
X007471Y021497D01*
X007438Y021577D01*
X007309Y021705D01*
X007141Y021775D01*
X006959Y021775D01*
X006791Y021705D01*
X006662Y021577D01*
X006657Y021562D01*
X006651Y021577D01*
X006522Y021705D01*
X006354Y021775D01*
X006172Y021775D01*
X006004Y021705D01*
X005875Y021577D01*
X005869Y021562D01*
X005863Y021577D01*
X005735Y021705D01*
X005566Y021775D01*
X005384Y021775D01*
X005216Y021705D01*
X005088Y021577D01*
X005018Y021408D01*
X005018Y021226D01*
X005088Y021058D01*
X005216Y020930D01*
X005237Y020921D01*
X005237Y020531D01*
X004876Y020170D01*
X004840Y020082D01*
X004840Y017215D01*
X004876Y017126D01*
X004944Y017059D01*
X007029Y014974D01*
X007029Y009691D01*
X006990Y009707D01*
X006855Y009707D01*
X006788Y009680D01*
X006788Y011059D01*
X006816Y011086D01*
X006867Y011211D01*
X006867Y011345D01*
X006816Y011470D01*
X006721Y011565D01*
X006596Y011617D01*
X006461Y011617D01*
X006337Y011565D01*
X006241Y011470D01*
X006190Y011345D01*
X006190Y011211D01*
X006241Y011086D01*
X006308Y011019D01*
X006308Y010745D01*
X006248Y010891D01*
X006107Y011032D01*
X005923Y011108D01*
X005724Y011108D01*
X005575Y011046D01*
X005615Y011086D01*
X005667Y011211D01*
X005667Y011345D01*
X005615Y011470D01*
X005520Y011565D01*
X005395Y011617D01*
X005260Y011617D01*
X005136Y011565D01*
X005041Y011470D01*
X004989Y011345D01*
X004989Y011211D01*
X005004Y011175D01*
X004923Y011208D01*
X004724Y011208D01*
X004541Y011132D01*
X004400Y010991D01*
X004324Y010807D01*
X004324Y010608D01*
X004400Y010425D01*
X004541Y010284D01*
X004724Y010208D01*
X004923Y010208D01*
X005088Y010276D01*
X005088Y007263D01*
X004573Y006749D01*
X004537Y006660D01*
X004537Y006517D01*
X004489Y006470D01*
X004438Y006345D01*
X004438Y006211D01*
X004489Y006086D01*
X004574Y006002D01*
X004536Y005912D01*
X004536Y005778D01*
X004588Y005653D01*
X004589Y005652D01*
X004541Y005632D01*
X004446Y005537D01*
X004395Y005412D01*
X004395Y005278D01*
X004446Y005153D01*
X004467Y005132D01*
X004446Y005112D01*
X004395Y004987D01*
X004395Y004852D01*
X004446Y004728D01*
X004541Y004633D01*
X004666Y004581D01*
X004801Y004581D01*
X004925Y004633D01*
X005021Y004728D01*
X005072Y004852D01*
X005072Y004987D01*
X005021Y005112D01*
X005000Y005132D01*
X005011Y005143D01*
X005013Y005137D01*
X005108Y005042D01*
X005233Y004990D01*
X005368Y004990D01*
X005492Y005042D01*
X005587Y005137D01*
X005639Y005262D01*
X005639Y005278D01*
X005761Y005278D01*
X005886Y005329D01*
X005981Y005425D01*
X006021Y005522D01*
X006143Y005522D01*
X006268Y005574D01*
X006363Y005669D01*
X006394Y005742D01*
X006517Y005742D01*
X006642Y005794D01*
X006737Y005889D01*
X006741Y005900D01*
X006872Y005900D01*
X006955Y005934D01*
X006989Y005850D01*
X007085Y005755D01*
X007209Y005703D01*
X007344Y005703D01*
X007469Y005755D01*
X007564Y005850D01*
X007593Y005920D01*
X008112Y005920D01*
X008200Y005956D01*
X008268Y006024D01*
X008749Y006024D01*
X008749Y006122D02*
X008366Y006122D01*
X008268Y006024D02*
X008749Y006506D01*
X008749Y005010D01*
X008786Y004922D01*
X008853Y004854D01*
X009286Y004421D01*
X009375Y004384D01*
X010322Y004384D01*
X010255Y004224D01*
X010255Y004025D01*
X010331Y003841D01*
X010422Y003751D01*
X009809Y003751D01*
X009829Y003799D01*
X009829Y003914D01*
X009785Y004020D01*
X009704Y004102D01*
X009598Y004146D01*
X009483Y004146D01*
X009377Y004102D01*
X009296Y004020D01*
X009258Y003929D01*
X008467Y003929D01*
X008471Y003937D01*
X008471Y004052D01*
X008427Y004158D01*
X008346Y004239D01*
X008240Y004283D01*
X008125Y004283D01*
X008019Y004239D01*
X007937Y004158D01*
X007893Y004052D01*
X007893Y003937D01*
X007897Y003929D01*
X003123Y003929D01*
X002919Y004132D01*
X002919Y008562D01*
X003168Y008811D01*
X003184Y008804D01*
X003299Y008804D01*
X003405Y008848D01*
X003486Y008929D01*
X003530Y009036D01*
X003530Y009150D01*
X003486Y009257D01*
X003405Y009338D01*
X003299Y009382D01*
X003184Y009382D01*
X003078Y009338D01*
X002996Y009257D01*
X002952Y009150D01*
X002952Y009132D01*
X002651Y008830D01*
X002539Y008719D01*
X002539Y003975D01*
X002651Y003864D01*
X002763Y003751D01*
X001860Y003751D01*
X001662Y003764D01*
X001279Y003867D01*
X001314Y003857D02*
X002657Y003857D01*
X002559Y003955D02*
X001125Y003955D01*
X000954Y004054D02*
X002539Y004054D01*
X002539Y004152D02*
X000847Y004152D01*
X000749Y004251D02*
X002539Y004251D01*
X002539Y004349D02*
X000652Y004349D01*
X000595Y004448D02*
X001562Y004448D01*
X001616Y004426D02*
X001914Y004426D01*
X002190Y004540D01*
X002401Y004751D01*
X002515Y005026D01*
X002515Y005325D01*
X002401Y005601D01*
X002190Y005811D01*
X001914Y005926D01*
X001616Y005926D01*
X001340Y005811D01*
X001129Y005601D01*
X001015Y005325D01*
X001015Y005026D01*
X001129Y004751D01*
X001340Y004540D01*
X001616Y004426D01*
X001333Y004546D02*
X000538Y004546D01*
X000481Y004645D02*
X001235Y004645D01*
X001136Y004743D02*
X000441Y004743D01*
X000415Y004842D02*
X001091Y004842D01*
X001050Y004940D02*
X000388Y004940D01*
X000362Y005039D02*
X001015Y005039D01*
X001015Y005137D02*
X000349Y005137D01*
X000342Y005236D02*
X001015Y005236D01*
X001019Y005334D02*
X000340Y005334D01*
X000340Y005433D02*
X001060Y005433D01*
X001100Y005531D02*
X000340Y005531D01*
X000340Y005630D02*
X001159Y005630D01*
X001257Y005728D02*
X000340Y005728D01*
X000340Y005827D02*
X001377Y005827D01*
X001615Y005925D02*
X000340Y005925D01*
X000340Y006024D02*
X002539Y006024D01*
X002539Y006122D02*
X000718Y006122D01*
X000778Y006221D02*
X002539Y006221D01*
X002539Y006319D02*
X000794Y006319D01*
X000776Y006418D02*
X002539Y006418D01*
X002539Y006516D02*
X000714Y006516D01*
X000340Y006615D02*
X002539Y006615D01*
X002539Y006713D02*
X000340Y006713D01*
X000340Y006812D02*
X002539Y006812D01*
X002539Y006910D02*
X000340Y006910D01*
X000340Y007009D02*
X002539Y007009D01*
X002539Y007108D02*
X000340Y007108D01*
X000340Y007206D02*
X002539Y007206D01*
X002539Y007305D02*
X000340Y007305D01*
X000340Y007403D02*
X002539Y007403D01*
X002539Y007502D02*
X000340Y007502D01*
X000340Y007600D02*
X002539Y007600D01*
X002539Y007699D02*
X000340Y007699D01*
X000340Y007797D02*
X002539Y007797D01*
X002539Y007896D02*
X000340Y007896D01*
X000340Y007994D02*
X002539Y007994D01*
X002539Y008093D02*
X000340Y008093D01*
X000340Y008191D02*
X002539Y008191D01*
X002539Y008290D02*
X000340Y008290D01*
X000340Y008388D02*
X002539Y008388D01*
X002539Y008487D02*
X000340Y008487D01*
X000340Y008585D02*
X002539Y008585D01*
X002539Y008684D02*
X000340Y008684D01*
X000340Y008782D02*
X002602Y008782D01*
X002651Y008830D02*
X002651Y008830D01*
X002701Y008881D02*
X000340Y008881D01*
X000340Y008979D02*
X002799Y008979D01*
X002898Y009078D02*
X000340Y009078D01*
X000340Y009176D02*
X002963Y009176D01*
X003014Y009275D02*
X000340Y009275D01*
X000340Y009373D02*
X003163Y009373D01*
X003320Y009373D02*
X005088Y009373D01*
X005088Y009275D02*
X003468Y009275D01*
X003519Y009176D02*
X005088Y009176D01*
X005088Y009078D02*
X003530Y009078D01*
X003507Y008979D02*
X005088Y008979D01*
X005088Y008881D02*
X003437Y008881D01*
X003140Y008782D02*
X005088Y008782D01*
X005088Y008684D02*
X003041Y008684D01*
X002943Y008585D02*
X005088Y008585D01*
X005088Y008487D02*
X002919Y008487D01*
X002919Y008388D02*
X004514Y008388D01*
X004538Y008412D02*
X004442Y008316D01*
X004391Y008192D01*
X004391Y008057D01*
X004442Y007933D01*
X004477Y007898D01*
X004437Y007800D01*
X004437Y007685D01*
X004481Y007579D01*
X004562Y007498D01*
X004668Y007454D01*
X004783Y007454D01*
X004889Y007498D01*
X004970Y007579D01*
X005014Y007685D01*
X005014Y007800D01*
X004976Y007892D01*
X005017Y007933D01*
X005068Y008057D01*
X005068Y008192D01*
X005017Y008316D01*
X004921Y008412D01*
X004797Y008463D01*
X004662Y008463D01*
X004538Y008412D01*
X004431Y008290D02*
X002919Y008290D01*
X002919Y008191D02*
X004391Y008191D01*
X004391Y008093D02*
X002919Y008093D01*
X002919Y007994D02*
X004417Y007994D01*
X004476Y007896D02*
X002919Y007896D01*
X002919Y007797D02*
X004437Y007797D01*
X004437Y007699D02*
X002919Y007699D01*
X002919Y007600D02*
X004472Y007600D01*
X004558Y007502D02*
X002919Y007502D01*
X002919Y007403D02*
X005088Y007403D01*
X005088Y007305D02*
X002919Y007305D01*
X002919Y007206D02*
X005031Y007206D01*
X004932Y007108D02*
X002919Y007108D01*
X002919Y007009D02*
X004834Y007009D01*
X004735Y006910D02*
X002919Y006910D01*
X002919Y006812D02*
X004637Y006812D01*
X004559Y006713D02*
X002919Y006713D01*
X002919Y006615D02*
X004537Y006615D01*
X004536Y006516D02*
X003529Y006516D01*
X003565Y006481D02*
X003484Y006562D01*
X003377Y006606D01*
X003263Y006606D01*
X003156Y006562D01*
X003075Y006481D01*
X003031Y006375D01*
X003031Y006260D01*
X003075Y006154D01*
X003156Y006073D01*
X003263Y006029D01*
X003377Y006029D01*
X003484Y006073D01*
X003565Y006154D01*
X003609Y006260D01*
X003609Y006375D01*
X003565Y006481D01*
X003591Y006418D02*
X004468Y006418D01*
X004438Y006319D02*
X003609Y006319D01*
X003593Y006221D02*
X004438Y006221D01*
X004474Y006122D02*
X003533Y006122D01*
X003107Y006122D02*
X002919Y006122D01*
X002919Y006024D02*
X004552Y006024D01*
X004542Y005925D02*
X002919Y005925D01*
X002919Y005827D02*
X004536Y005827D01*
X004557Y005728D02*
X002919Y005728D01*
X002919Y005630D02*
X004539Y005630D01*
X004444Y005531D02*
X002919Y005531D01*
X002919Y005433D02*
X004403Y005433D01*
X004395Y005334D02*
X002919Y005334D01*
X002919Y005236D02*
X004412Y005236D01*
X004462Y005137D02*
X002919Y005137D01*
X002919Y005039D02*
X004416Y005039D01*
X004395Y004940D02*
X002919Y004940D01*
X002919Y004842D02*
X004399Y004842D01*
X004440Y004743D02*
X002919Y004743D01*
X002919Y004645D02*
X004529Y004645D01*
X004938Y004645D02*
X009062Y004645D01*
X008964Y004743D02*
X005027Y004743D01*
X005068Y004842D02*
X008865Y004842D01*
X008778Y004940D02*
X005072Y004940D01*
X005051Y005039D02*
X005116Y005039D01*
X005013Y005137D02*
X005005Y005137D01*
X005485Y005039D02*
X008749Y005039D01*
X008749Y005137D02*
X005588Y005137D01*
X005628Y005236D02*
X008749Y005236D01*
X008749Y005334D02*
X005891Y005334D01*
X005985Y005433D02*
X008749Y005433D01*
X008749Y005531D02*
X006166Y005531D01*
X006324Y005630D02*
X008749Y005630D01*
X008749Y005728D02*
X007405Y005728D01*
X007541Y005827D02*
X008749Y005827D01*
X008749Y005925D02*
X008125Y005925D01*
X008465Y006221D02*
X008749Y006221D01*
X008749Y006319D02*
X008563Y006319D01*
X008662Y006418D02*
X008749Y006418D01*
X009229Y006418D02*
X013576Y006418D01*
X013576Y006516D02*
X009229Y006516D01*
X009229Y006615D02*
X013576Y006615D01*
X013576Y006713D02*
X009229Y006713D01*
X009229Y006812D02*
X013576Y006812D01*
X013576Y006910D02*
X009229Y006910D01*
X009229Y007009D02*
X013576Y007009D01*
X013576Y007108D02*
X009229Y007108D01*
X009229Y007206D02*
X013576Y007206D01*
X013576Y007305D02*
X009229Y007305D01*
X009229Y007403D02*
X013576Y007403D01*
X013576Y007502D02*
X009229Y007502D01*
X009229Y007600D02*
X013576Y007600D01*
X013576Y007699D02*
X009229Y007699D01*
X009229Y007797D02*
X013576Y007797D01*
X013576Y007896D02*
X010677Y007896D01*
X010736Y007920D02*
X010832Y008015D01*
X010883Y008140D01*
X010883Y008275D01*
X010832Y008399D01*
X010736Y008494D01*
X010634Y008537D01*
X010666Y008612D01*
X010666Y008727D01*
X010626Y008822D01*
X010666Y008917D01*
X010666Y009032D01*
X010622Y009138D01*
X010541Y009220D01*
X010434Y009264D01*
X010320Y009264D01*
X010229Y009226D01*
X010139Y009264D01*
X010024Y009264D01*
X009918Y009220D01*
X009837Y009138D01*
X009793Y009032D01*
X009793Y008917D01*
X009832Y008822D01*
X009793Y008727D01*
X009793Y008612D01*
X009837Y008506D01*
X009918Y008425D01*
X010024Y008381D01*
X010139Y008381D01*
X010229Y008418D01*
X010263Y008405D01*
X010257Y008399D01*
X010206Y008275D01*
X010206Y008140D01*
X010257Y008015D01*
X010352Y007920D01*
X010477Y007868D01*
X010612Y007868D01*
X010736Y007920D01*
X010810Y007994D02*
X013576Y007994D01*
X013576Y008093D02*
X010864Y008093D01*
X010883Y008191D02*
X013576Y008191D01*
X013576Y008290D02*
X010877Y008290D01*
X010836Y008388D02*
X013576Y008388D01*
X013576Y008487D02*
X010744Y008487D01*
X010654Y008585D02*
X013576Y008585D01*
X013576Y008684D02*
X010666Y008684D01*
X010643Y008782D02*
X013576Y008782D01*
X013576Y008881D02*
X010650Y008881D01*
X010666Y008979D02*
X013576Y008979D01*
X013576Y009078D02*
X010647Y009078D01*
X010584Y009176D02*
X013576Y009176D01*
X013576Y009275D02*
X009451Y009275D01*
X009548Y009373D02*
X013576Y009373D01*
X013576Y009472D02*
X009584Y009472D01*
X009584Y009570D02*
X013576Y009570D01*
X013576Y009669D02*
X009584Y009669D01*
X009584Y009767D02*
X013576Y009767D01*
X013576Y009866D02*
X009584Y009866D01*
X009584Y009964D02*
X013576Y009964D01*
X013525Y010063D02*
X009584Y010063D01*
X009584Y010161D02*
X013484Y010161D01*
X013473Y010260D02*
X009584Y010260D01*
X009584Y010358D02*
X013488Y010358D01*
X013535Y010457D02*
X009584Y010457D01*
X009584Y010555D02*
X013576Y010555D01*
X013576Y010654D02*
X009584Y010654D01*
X009584Y010752D02*
X013909Y010752D01*
X013897Y010851D02*
X009584Y010851D01*
X009584Y010949D02*
X013004Y010949D01*
X013038Y010915D02*
X013144Y010871D01*
X013259Y010871D01*
X013359Y010913D01*
X013459Y010871D01*
X013574Y010871D01*
X013680Y010915D01*
X013762Y010996D01*
X013806Y011102D01*
X013806Y011217D01*
X013762Y011323D01*
X013680Y011405D01*
X013574Y011449D01*
X013459Y011449D01*
X013359Y011407D01*
X013259Y011449D01*
X013144Y011449D01*
X013038Y011405D01*
X012957Y011323D01*
X012913Y011217D01*
X012913Y011102D01*
X012957Y010996D01*
X013038Y010915D01*
X012936Y011048D02*
X009584Y011048D01*
X009584Y011146D02*
X012913Y011146D01*
X012924Y011245D02*
X009584Y011245D01*
X009584Y011343D02*
X012977Y011343D01*
X013127Y011442D02*
X011696Y011442D01*
X011701Y011444D02*
X011796Y011539D01*
X011848Y011663D01*
X011848Y011798D01*
X011796Y011923D01*
X011701Y012018D01*
X011576Y012070D01*
X011442Y012070D01*
X011317Y012018D01*
X011222Y011923D01*
X011170Y011798D01*
X011170Y011663D01*
X011222Y011539D01*
X011317Y011444D01*
X011442Y011392D01*
X011576Y011392D01*
X011701Y011444D01*
X011797Y011540D02*
X016725Y011540D01*
X016725Y011442D02*
X013591Y011442D01*
X013442Y011442D02*
X013277Y011442D01*
X013412Y011727D02*
X013536Y011676D01*
X013671Y011676D01*
X013795Y011727D01*
X013891Y011822D01*
X013942Y011947D01*
X013942Y012082D01*
X013891Y012206D01*
X013795Y012301D01*
X013671Y012353D01*
X013536Y012353D01*
X013412Y012301D01*
X013316Y012206D01*
X013265Y012082D01*
X013265Y011947D01*
X013316Y011822D01*
X013412Y011727D01*
X013402Y011737D02*
X011848Y011737D01*
X011837Y011639D02*
X015041Y011639D01*
X015076Y011604D02*
X015182Y011560D01*
X015297Y011560D01*
X015403Y011604D01*
X015484Y011685D01*
X015528Y011791D01*
X015528Y011906D01*
X015484Y012012D01*
X015403Y012094D01*
X015297Y012138D01*
X015182Y012138D01*
X015076Y012094D01*
X014994Y012012D01*
X014951Y011906D01*
X014951Y011791D01*
X014994Y011685D01*
X015076Y011604D01*
X014973Y011737D02*
X013805Y011737D01*
X013896Y011836D02*
X014951Y011836D01*
X014962Y011934D02*
X013937Y011934D01*
X013942Y012033D02*
X015015Y012033D01*
X015166Y012131D02*
X013922Y012131D01*
X013867Y012230D02*
X016725Y012230D01*
X016725Y012328D02*
X013731Y012328D01*
X013476Y012328D02*
X012967Y012328D01*
X012994Y012355D02*
X013038Y012461D01*
X013038Y012576D01*
X012994Y012682D01*
X012913Y012763D01*
X012807Y012807D01*
X012692Y012807D01*
X012586Y012763D01*
X012504Y012682D01*
X012460Y012576D01*
X012460Y012461D01*
X012504Y012355D01*
X012586Y012273D01*
X012692Y012229D01*
X012807Y012229D01*
X012807Y012230D02*
X013340Y012230D01*
X013285Y012131D02*
X011649Y012131D01*
X011701Y012152D02*
X011576Y012101D01*
X011442Y012101D01*
X011317Y012152D01*
X011222Y012248D01*
X011170Y012372D01*
X011170Y012507D01*
X011222Y012631D01*
X011317Y012727D01*
X011442Y012778D01*
X011576Y012778D01*
X011701Y012727D01*
X011796Y012631D01*
X011848Y012507D01*
X011848Y012372D01*
X011796Y012248D01*
X011701Y012152D01*
X011778Y012230D02*
X012691Y012230D01*
X012807Y012229D02*
X012913Y012273D01*
X012994Y012355D01*
X013024Y012427D02*
X016725Y012427D01*
X016725Y012525D02*
X013038Y012525D01*
X013018Y012624D02*
X016725Y012624D01*
X016725Y012722D02*
X012954Y012722D01*
X012545Y012722D02*
X011705Y012722D01*
X011799Y012624D02*
X012480Y012624D01*
X012460Y012525D02*
X011840Y012525D01*
X011848Y012427D02*
X012475Y012427D01*
X012531Y012328D02*
X011829Y012328D01*
X011666Y012033D02*
X013265Y012033D01*
X013270Y011934D02*
X011785Y011934D01*
X011832Y011836D02*
X013311Y011836D01*
X013742Y011343D02*
X016725Y011343D01*
X016725Y011245D02*
X013794Y011245D01*
X013806Y011146D02*
X014067Y011146D01*
X013955Y011048D02*
X013783Y011048D01*
X013714Y010949D02*
X013910Y010949D01*
X014403Y011146D02*
X016725Y011146D01*
X016725Y011048D02*
X014516Y011048D01*
X014560Y010949D02*
X016725Y010949D01*
X016725Y010851D02*
X014574Y010851D01*
X014562Y010752D02*
X016725Y010752D01*
X016647Y010766D02*
X017572Y009841D01*
X018320Y009841D01*
X016725Y011639D02*
X015437Y011639D01*
X015505Y011737D02*
X016725Y011737D01*
X016725Y011836D02*
X015528Y011836D01*
X015517Y011934D02*
X016725Y011934D01*
X016725Y012033D02*
X015464Y012033D01*
X015313Y012131D02*
X016725Y012131D01*
X016725Y012821D02*
X008934Y012821D01*
X008934Y012919D02*
X016725Y012919D01*
X016725Y013018D02*
X008934Y013018D01*
X008934Y013116D02*
X016725Y013116D01*
X016725Y013215D02*
X012049Y013215D01*
X012021Y013203D02*
X012146Y013255D01*
X012241Y013350D01*
X012293Y013474D01*
X012293Y013609D01*
X012241Y013734D01*
X012146Y013829D01*
X012021Y013881D01*
X011886Y013881D01*
X011762Y013829D01*
X011667Y013734D01*
X011615Y013609D01*
X011615Y013474D01*
X011667Y013350D01*
X011762Y013255D01*
X011886Y013203D01*
X012021Y013203D01*
X011859Y013215D02*
X008934Y013215D01*
X008934Y013313D02*
X010015Y013313D01*
X010022Y013306D02*
X010146Y013254D01*
X010281Y013254D01*
X010406Y013306D01*
X010501Y013401D01*
X010552Y013526D01*
X010552Y013660D01*
X010501Y013785D01*
X010406Y013880D01*
X010281Y013932D01*
X010146Y013932D01*
X010022Y013880D01*
X009926Y013785D01*
X009875Y013660D01*
X009875Y013526D01*
X009926Y013401D01*
X010022Y013306D01*
X009922Y013412D02*
X008934Y013412D01*
X008934Y013510D02*
X009881Y013510D01*
X009875Y013609D02*
X008934Y013609D01*
X008934Y013707D02*
X009894Y013707D01*
X009947Y013806D02*
X008962Y013806D01*
X009061Y013904D02*
X010079Y013904D01*
X010348Y013904D02*
X013129Y013904D01*
X013129Y013868D02*
X013174Y013758D01*
X013129Y013649D01*
X013129Y013514D01*
X013180Y013389D01*
X013276Y013294D01*
X013400Y013242D01*
X013535Y013242D01*
X013659Y013294D01*
X013755Y013389D01*
X013806Y013514D01*
X013806Y013649D01*
X013761Y013758D01*
X013806Y013868D01*
X013806Y014003D01*
X013755Y014127D01*
X013659Y014223D01*
X013535Y014274D01*
X013400Y014274D01*
X013276Y014223D01*
X013180Y014127D01*
X013129Y014003D01*
X013129Y013868D01*
X013155Y013806D02*
X012169Y013806D01*
X012252Y013707D02*
X013153Y013707D01*
X013129Y013609D02*
X012293Y013609D01*
X012293Y013510D02*
X013130Y013510D01*
X013171Y013412D02*
X012266Y013412D01*
X012204Y013313D02*
X013257Y013313D01*
X013678Y013313D02*
X015580Y013313D01*
X015599Y013294D02*
X015723Y013242D01*
X015858Y013242D01*
X015968Y013288D01*
X016077Y013242D01*
X016212Y013242D01*
X016337Y013294D01*
X016432Y013389D01*
X016484Y013514D01*
X016484Y013649D01*
X016432Y013773D01*
X016337Y013868D01*
X016212Y013920D01*
X016077Y013920D01*
X015968Y013874D01*
X015858Y013920D01*
X015723Y013920D01*
X015599Y013868D01*
X015503Y013773D01*
X015452Y013649D01*
X015452Y013514D01*
X015503Y013389D01*
X015599Y013294D01*
X015494Y013412D02*
X013764Y013412D01*
X013805Y013510D02*
X015453Y013510D01*
X015452Y013609D02*
X013806Y013609D01*
X013782Y013707D02*
X015476Y013707D01*
X015536Y013806D02*
X013780Y013806D01*
X013806Y013904D02*
X015685Y013904D01*
X015896Y013904D02*
X016039Y013904D01*
X016251Y013904D02*
X016725Y013904D01*
X016725Y013806D02*
X016399Y013806D01*
X016459Y013707D02*
X016725Y013707D01*
X016725Y013609D02*
X016484Y013609D01*
X016482Y013510D02*
X016725Y013510D01*
X016725Y013412D02*
X016441Y013412D01*
X016356Y013313D02*
X016725Y013313D01*
X016725Y014003D02*
X013806Y014003D01*
X013766Y014101D02*
X016725Y014101D01*
X016725Y014200D02*
X013683Y014200D01*
X013253Y014200D02*
X009353Y014200D01*
X009387Y014298D02*
X016725Y014298D01*
X016725Y014397D02*
X009387Y014397D01*
X009354Y014495D02*
X016725Y014495D01*
X016725Y014594D02*
X009283Y014594D01*
X009279Y014101D02*
X013170Y014101D01*
X013129Y014003D02*
X009159Y014003D01*
X008381Y014594D02*
X008377Y014594D01*
X007989Y014692D02*
X016725Y014692D01*
X016725Y014791D02*
X007989Y014791D01*
X007989Y014889D02*
X016725Y014889D01*
X016725Y014988D02*
X007989Y014988D01*
X007989Y015086D02*
X016725Y015086D01*
X016725Y015185D02*
X007989Y015185D01*
X007974Y015283D02*
X016725Y015283D01*
X016725Y015382D02*
X007906Y015382D01*
X007808Y015480D02*
X016725Y015480D01*
X016725Y015579D02*
X007709Y015579D01*
X007611Y015677D02*
X016725Y015677D01*
X016725Y015776D02*
X007512Y015776D01*
X007414Y015874D02*
X016725Y015874D01*
X016725Y015973D02*
X007315Y015973D01*
X007217Y016071D02*
X016725Y016071D01*
X016725Y016170D02*
X007118Y016170D01*
X007020Y016268D02*
X016725Y016268D01*
X016725Y016367D02*
X006921Y016367D01*
X006823Y016465D02*
X016725Y016465D01*
X016725Y016564D02*
X006724Y016564D01*
X006626Y016662D02*
X016725Y016662D01*
X016725Y016761D02*
X006527Y016761D01*
X006429Y016859D02*
X016725Y016859D01*
X016725Y016958D02*
X006330Y016958D01*
X006232Y017056D02*
X016725Y017056D01*
X016725Y017155D02*
X015355Y017155D01*
X015352Y017152D02*
X015448Y017248D01*
X015499Y017372D01*
X015499Y017507D01*
X015448Y017631D01*
X015443Y017636D01*
X015448Y017641D01*
X015499Y017766D01*
X015499Y017901D01*
X015448Y018025D01*
X015352Y018120D01*
X015228Y018172D01*
X015093Y018172D01*
X014969Y018120D01*
X014964Y018115D01*
X014959Y018120D01*
X014834Y018172D01*
X014699Y018172D01*
X014575Y018120D01*
X014570Y018115D01*
X014565Y018120D01*
X014440Y018172D01*
X014306Y018172D01*
X014181Y018120D01*
X014086Y018025D01*
X014034Y017901D01*
X014034Y017766D01*
X014086Y017641D01*
X014091Y017636D01*
X014086Y017631D01*
X014034Y017507D01*
X014034Y017372D01*
X014086Y017248D01*
X014181Y017152D01*
X014306Y017101D01*
X014440Y017101D01*
X014565Y017152D01*
X014570Y017157D01*
X014575Y017152D01*
X014699Y017101D01*
X014834Y017101D01*
X014959Y017152D01*
X014964Y017157D01*
X014969Y017152D01*
X015093Y017101D01*
X015228Y017101D01*
X015352Y017152D01*
X015450Y017253D02*
X016041Y017253D01*
X016060Y017234D02*
X016166Y017190D01*
X016281Y017190D01*
X016387Y017234D01*
X016468Y017315D01*
X016512Y017421D01*
X016512Y017536D01*
X016468Y017642D01*
X016387Y017724D01*
X016281Y017768D01*
X016166Y017768D01*
X016060Y017724D01*
X015979Y017642D01*
X015935Y017536D01*
X015935Y017421D01*
X015979Y017315D01*
X016060Y017234D01*
X015964Y017352D02*
X015491Y017352D01*
X015499Y017450D02*
X015935Y017450D01*
X015940Y017549D02*
X015482Y017549D01*
X015450Y017647D02*
X015983Y017647D01*
X016113Y017746D02*
X015491Y017746D01*
X015499Y017844D02*
X016725Y017844D01*
X016725Y017746D02*
X016334Y017746D01*
X016464Y017647D02*
X016725Y017647D01*
X016725Y017549D02*
X016507Y017549D01*
X016512Y017450D02*
X016725Y017450D01*
X016725Y017352D02*
X016483Y017352D01*
X016406Y017253D02*
X016725Y017253D01*
X016725Y017943D02*
X015482Y017943D01*
X015432Y018041D02*
X016725Y018041D01*
X016725Y018140D02*
X015306Y018140D01*
X015015Y018140D02*
X014912Y018140D01*
X014621Y018140D02*
X014519Y018140D01*
X014228Y018140D02*
X012262Y018140D01*
X012262Y018200D02*
X012192Y018368D01*
X012063Y018497D01*
X011895Y018566D01*
X011713Y018566D01*
X011545Y018497D01*
X011416Y018368D01*
X011411Y018354D01*
X011405Y018368D01*
X011276Y018497D01*
X011108Y018566D01*
X010926Y018566D01*
X010758Y018497D01*
X010629Y018368D01*
X010623Y018354D01*
X010617Y018368D01*
X010489Y018497D01*
X010320Y018566D01*
X010138Y018566D01*
X009970Y018497D01*
X009842Y018368D01*
X009772Y018200D01*
X009772Y018018D01*
X009842Y017850D01*
X009970Y017721D01*
X010138Y017651D01*
X010320Y017651D01*
X010489Y017721D01*
X010617Y017850D01*
X010623Y017864D01*
X010629Y017850D01*
X010758Y017721D01*
X010926Y017651D01*
X011108Y017651D01*
X011276Y017721D01*
X011405Y017850D01*
X011411Y017864D01*
X011416Y017850D01*
X011545Y017721D01*
X011713Y017651D01*
X011895Y017651D01*
X012063Y017721D01*
X012192Y017850D01*
X012262Y018018D01*
X012262Y018200D01*
X012246Y018238D02*
X016725Y018238D01*
X016725Y018337D02*
X012205Y018337D01*
X012125Y018435D02*
X016725Y018435D01*
X016725Y018534D02*
X012842Y018534D01*
X012822Y018513D02*
X012936Y018627D01*
X012998Y018776D01*
X012998Y018938D01*
X012936Y019087D01*
X012822Y019201D01*
X012672Y019263D01*
X012511Y019263D01*
X012362Y019201D01*
X012248Y019087D01*
X012186Y018938D01*
X012186Y018776D01*
X012248Y018627D01*
X012362Y018513D01*
X012511Y018451D01*
X012672Y018451D01*
X012822Y018513D01*
X012938Y018632D02*
X016725Y018632D01*
X016725Y018731D02*
X012979Y018731D01*
X012998Y018829D02*
X016725Y018829D01*
X016725Y018928D02*
X012998Y018928D01*
X012961Y019026D02*
X016725Y019026D01*
X016725Y019125D02*
X012898Y019125D01*
X012768Y019223D02*
X016725Y019223D01*
X016725Y019322D02*
X005986Y019322D01*
X006085Y019420D02*
X016725Y019420D01*
X016725Y019519D02*
X006183Y019519D01*
X006282Y019617D02*
X016725Y019617D01*
X016725Y019716D02*
X006380Y019716D01*
X006479Y019814D02*
X016725Y019814D01*
X016725Y019913D02*
X006577Y019913D01*
X006676Y020011D02*
X016725Y020011D01*
X016725Y020110D02*
X015404Y020110D01*
X015403Y020108D02*
X015484Y020189D01*
X015528Y020295D01*
X015528Y020410D01*
X015484Y020516D01*
X015403Y020598D01*
X015297Y020642D01*
X015182Y020642D01*
X015076Y020598D01*
X014994Y020516D01*
X014951Y020410D01*
X014951Y020295D01*
X014994Y020189D01*
X015076Y020108D01*
X015182Y020064D01*
X015297Y020064D01*
X015403Y020108D01*
X015492Y020208D02*
X016725Y020208D01*
X016725Y020307D02*
X015528Y020307D01*
X015528Y020405D02*
X016725Y020405D01*
X016725Y020504D02*
X015489Y020504D01*
X015392Y020602D02*
X016725Y020602D01*
X016725Y020701D02*
X010731Y020701D01*
X010617Y020815D01*
X010468Y020877D01*
X010306Y020877D01*
X010157Y020815D01*
X010043Y020701D01*
X009981Y020552D01*
X009981Y020390D01*
X010043Y020241D01*
X010157Y020127D01*
X010306Y020065D01*
X010468Y020065D01*
X010617Y020127D01*
X010731Y020241D01*
X010793Y020390D01*
X010793Y020552D01*
X010731Y020701D01*
X010772Y020602D02*
X015086Y020602D01*
X014989Y020504D02*
X010793Y020504D01*
X010793Y020405D02*
X014951Y020405D01*
X014951Y020307D02*
X010758Y020307D01*
X010698Y020208D02*
X014987Y020208D01*
X015074Y020110D02*
X010575Y020110D01*
X010199Y020110D02*
X006774Y020110D01*
X006873Y020208D02*
X010076Y020208D01*
X010016Y020307D02*
X006971Y020307D01*
X007070Y020405D02*
X009981Y020405D01*
X009981Y020504D02*
X007168Y020504D01*
X007206Y020602D02*
X010002Y020602D01*
X010043Y020701D02*
X007206Y020701D01*
X007206Y020799D02*
X010141Y020799D01*
X010633Y020799D02*
X010993Y020799D01*
X010915Y020831D02*
X011083Y020761D01*
X011265Y020761D01*
X011433Y020831D01*
X011562Y020960D01*
X011595Y021039D01*
X011616Y020988D01*
X011731Y020874D01*
X011881Y020811D01*
X012043Y020811D01*
X012193Y020874D01*
X012307Y020988D01*
X012369Y021138D01*
X012369Y021300D01*
X012307Y021450D01*
X012193Y021564D01*
X012043Y021626D01*
X011881Y021626D01*
X011731Y021564D01*
X011616Y021450D01*
X011595Y021399D01*
X011562Y021478D01*
X011433Y021607D01*
X011265Y021676D01*
X011083Y021676D01*
X010915Y021607D01*
X010786Y021478D01*
X010717Y021310D01*
X010717Y021128D01*
X010786Y020960D01*
X010915Y020831D01*
X010849Y020898D02*
X007232Y020898D01*
X007376Y020996D02*
X007583Y020996D01*
X007489Y021095D02*
X007453Y021095D01*
X007428Y021587D02*
X007531Y021587D01*
X007662Y021686D02*
X007329Y021686D01*
X006771Y021686D02*
X006542Y021686D01*
X006640Y021587D02*
X006673Y021587D01*
X005984Y021686D02*
X005754Y021686D01*
X005853Y021587D02*
X005886Y021587D01*
X005197Y021686D02*
X000434Y021686D01*
X000402Y021587D02*
X001406Y021587D01*
X001340Y021560D02*
X001129Y021349D01*
X001015Y021073D01*
X001015Y020775D01*
X001129Y020499D01*
X001340Y020288D01*
X001616Y020174D01*
X001914Y020174D01*
X002190Y020288D01*
X002401Y020499D01*
X002515Y020775D01*
X002515Y021073D01*
X002401Y021349D01*
X002190Y021560D01*
X001914Y021674D01*
X001616Y021674D01*
X001340Y021560D01*
X001269Y021489D02*
X000370Y021489D01*
X000350Y021390D02*
X001171Y021390D01*
X001105Y021292D02*
X000342Y021292D01*
X000340Y021193D02*
X001065Y021193D01*
X001024Y021095D02*
X000340Y021095D01*
X000340Y020996D02*
X001015Y020996D01*
X001015Y020898D02*
X000340Y020898D01*
X000340Y020799D02*
X001015Y020799D01*
X001045Y020701D02*
X000340Y020701D01*
X000340Y020602D02*
X001086Y020602D01*
X001127Y020504D02*
X000340Y020504D01*
X000340Y020405D02*
X001223Y020405D01*
X001321Y020307D02*
X000340Y020307D01*
X000340Y020208D02*
X001533Y020208D01*
X001997Y020208D02*
X004500Y020208D01*
X004458Y020225D02*
X004607Y020163D01*
X004769Y020163D01*
X004918Y020225D01*
X005032Y020339D01*
X005094Y020489D01*
X005094Y020650D01*
X005032Y020799D01*
X005237Y020799D01*
X005237Y020701D02*
X005073Y020701D01*
X005094Y020602D02*
X005237Y020602D01*
X005210Y020504D02*
X005094Y020504D01*
X005111Y020405D02*
X005059Y020405D01*
X005013Y020307D02*
X004999Y020307D01*
X004914Y020208D02*
X004876Y020208D01*
X004851Y020110D02*
X000340Y020110D01*
X000340Y020011D02*
X004840Y020011D01*
X004840Y019913D02*
X000340Y019913D01*
X000340Y019814D02*
X004840Y019814D01*
X004840Y019716D02*
X000340Y019716D01*
X000340Y019617D02*
X004840Y019617D01*
X004840Y019519D02*
X000340Y019519D01*
X000340Y019420D02*
X004840Y019420D01*
X004840Y019322D02*
X000340Y019322D01*
X000340Y019223D02*
X004840Y019223D01*
X004840Y019125D02*
X000340Y019125D01*
X000340Y019026D02*
X004840Y019026D01*
X004840Y018928D02*
X000340Y018928D01*
X000340Y018829D02*
X004840Y018829D01*
X004840Y018731D02*
X000340Y018731D01*
X000340Y018632D02*
X004840Y018632D01*
X004840Y018534D02*
X000340Y018534D01*
X000340Y018435D02*
X004840Y018435D01*
X004840Y018337D02*
X000340Y018337D01*
X000340Y018238D02*
X004840Y018238D01*
X004840Y018140D02*
X000340Y018140D01*
X000340Y018041D02*
X004840Y018041D01*
X004840Y017943D02*
X000340Y017943D01*
X000340Y017844D02*
X004840Y017844D01*
X004840Y017746D02*
X002858Y017746D01*
X002773Y017781D02*
X002583Y017781D01*
X002408Y017708D01*
X002274Y017574D01*
X002201Y017399D01*
X002201Y017209D01*
X002274Y017033D01*
X002408Y016899D01*
X002583Y016826D01*
X002773Y016826D01*
X002949Y016899D01*
X003083Y017033D01*
X003155Y017209D01*
X003155Y017399D01*
X003083Y017574D01*
X002949Y017708D01*
X002773Y017781D01*
X003010Y017647D02*
X004840Y017647D01*
X004840Y017549D02*
X003093Y017549D01*
X003134Y017450D02*
X004840Y017450D01*
X004840Y017352D02*
X003155Y017352D01*
X003155Y017253D02*
X004840Y017253D01*
X004865Y017155D02*
X003133Y017155D01*
X003092Y017056D02*
X004947Y017056D01*
X005045Y016958D02*
X003007Y016958D01*
X002852Y016859D02*
X005144Y016859D01*
X005242Y016761D02*
X002822Y016761D01*
X002773Y016781D02*
X002583Y016781D01*
X002408Y016708D01*
X002274Y016574D01*
X002201Y016399D01*
X002201Y016209D01*
X002274Y016033D01*
X002408Y015899D01*
X002583Y015826D01*
X002773Y015826D01*
X002949Y015899D01*
X003083Y016033D01*
X003155Y016209D01*
X003155Y016399D01*
X003083Y016574D01*
X002949Y016708D01*
X002773Y016781D01*
X002534Y016761D02*
X001822Y016761D01*
X001773Y016781D02*
X001583Y016781D01*
X001408Y016708D01*
X001274Y016574D01*
X001201Y016399D01*
X001201Y016209D01*
X001274Y016033D01*
X001408Y015899D01*
X001583Y015826D01*
X001773Y015826D01*
X001949Y015899D01*
X002083Y016033D01*
X002155Y016209D01*
X002155Y016399D01*
X002083Y016574D01*
X001949Y016708D01*
X001773Y016781D01*
X001773Y016826D02*
X001949Y016899D01*
X002083Y017033D01*
X002155Y017209D01*
X002155Y017399D01*
X002083Y017574D01*
X001949Y017708D01*
X001773Y017781D01*
X001583Y017781D01*
X001408Y017708D01*
X001274Y017574D01*
X001201Y017399D01*
X001201Y017209D01*
X001274Y017033D01*
X001408Y016899D01*
X001583Y016826D01*
X001773Y016826D01*
X001852Y016859D02*
X002505Y016859D01*
X002350Y016958D02*
X002007Y016958D01*
X002092Y017056D02*
X002264Y017056D01*
X002224Y017155D02*
X002133Y017155D01*
X002155Y017253D02*
X002201Y017253D01*
X002201Y017352D02*
X002155Y017352D01*
X002134Y017450D02*
X002222Y017450D01*
X002263Y017549D02*
X002093Y017549D01*
X002010Y017647D02*
X002347Y017647D01*
X002498Y017746D02*
X001858Y017746D01*
X001498Y017746D02*
X000340Y017746D01*
X000340Y017647D02*
X001347Y017647D01*
X001263Y017549D02*
X000340Y017549D01*
X000340Y017450D02*
X001222Y017450D01*
X001201Y017352D02*
X000340Y017352D01*
X000340Y017253D02*
X001201Y017253D01*
X001224Y017155D02*
X000340Y017155D01*
X000340Y017056D02*
X001264Y017056D01*
X001350Y016958D02*
X000340Y016958D01*
X000340Y016859D02*
X001505Y016859D01*
X001534Y016761D02*
X000340Y016761D01*
X000340Y016662D02*
X001362Y016662D01*
X001269Y016564D02*
X000340Y016564D01*
X000340Y016465D02*
X001229Y016465D01*
X001201Y016367D02*
X000340Y016367D01*
X000340Y016268D02*
X001201Y016268D01*
X001217Y016170D02*
X000340Y016170D01*
X000340Y016071D02*
X001258Y016071D01*
X001335Y015973D02*
X000340Y015973D01*
X000340Y015874D02*
X001468Y015874D01*
X001571Y015776D02*
X000340Y015776D01*
X000340Y015677D02*
X001377Y015677D01*
X001408Y015708D02*
X001274Y015574D01*
X001201Y015399D01*
X001201Y015209D01*
X001274Y015033D01*
X001408Y014899D01*
X001583Y014826D01*
X001773Y014826D01*
X001949Y014899D01*
X002083Y015033D01*
X002155Y015209D01*
X002155Y015399D01*
X002083Y015574D01*
X001949Y015708D01*
X001773Y015781D01*
X001583Y015781D01*
X001408Y015708D01*
X001278Y015579D02*
X000340Y015579D01*
X000340Y015480D02*
X001235Y015480D01*
X001201Y015382D02*
X000340Y015382D01*
X000340Y015283D02*
X001201Y015283D01*
X001211Y015185D02*
X000340Y015185D01*
X000340Y015086D02*
X001252Y015086D01*
X001320Y014988D02*
X000340Y014988D01*
X000340Y014889D02*
X001432Y014889D01*
X001408Y014708D02*
X001274Y014574D01*
X001201Y014399D01*
X001201Y014209D01*
X001274Y014033D01*
X001408Y013899D01*
X001583Y013826D01*
X001773Y013826D01*
X001949Y013899D01*
X002083Y014033D01*
X002155Y014209D01*
X002155Y014399D01*
X002083Y014574D01*
X001949Y014708D01*
X001773Y014781D01*
X001583Y014781D01*
X001408Y014708D01*
X001392Y014692D02*
X000340Y014692D01*
X000340Y014594D02*
X001293Y014594D01*
X001241Y014495D02*
X000340Y014495D01*
X000340Y014397D02*
X001201Y014397D01*
X001201Y014298D02*
X000340Y014298D01*
X000340Y014200D02*
X001205Y014200D01*
X001246Y014101D02*
X000340Y014101D01*
X000340Y014003D02*
X001305Y014003D01*
X001403Y013904D02*
X000340Y013904D01*
X000340Y013806D02*
X007029Y013806D01*
X007029Y013904D02*
X002830Y013904D01*
X002763Y013876D02*
X002920Y013941D01*
X003040Y014062D01*
X003105Y014219D01*
X003105Y014389D01*
X003040Y014546D01*
X002920Y014666D01*
X002763Y014731D01*
X002593Y014731D01*
X002436Y014666D01*
X002316Y014546D01*
X002251Y014389D01*
X002251Y014219D01*
X002316Y014062D01*
X002436Y013941D01*
X002593Y013876D01*
X002763Y013876D01*
X002773Y013781D02*
X002583Y013781D01*
X002408Y013708D01*
X002274Y013574D01*
X002201Y013399D01*
X002201Y013209D01*
X002274Y013033D01*
X002408Y012899D01*
X002583Y012826D01*
X002773Y012826D01*
X002949Y012899D01*
X003083Y013033D01*
X003155Y013209D01*
X003155Y013399D01*
X003083Y013574D01*
X002949Y013708D01*
X002773Y013781D01*
X002950Y013707D02*
X007029Y013707D01*
X007029Y013609D02*
X003048Y013609D01*
X003109Y013510D02*
X007029Y013510D01*
X007029Y013412D02*
X003150Y013412D01*
X003155Y013313D02*
X007029Y013313D01*
X007029Y013215D02*
X003155Y013215D01*
X003117Y013116D02*
X007029Y013116D01*
X007029Y013018D02*
X003067Y013018D01*
X002968Y012919D02*
X007029Y012919D01*
X007029Y012821D02*
X000340Y012821D01*
X000340Y012919D02*
X001388Y012919D01*
X001408Y012899D02*
X001583Y012826D01*
X001773Y012826D01*
X001949Y012899D01*
X002083Y013033D01*
X002155Y013209D01*
X002155Y013399D01*
X002083Y013574D01*
X001949Y013708D01*
X001773Y013781D01*
X001583Y013781D01*
X001408Y013708D01*
X001274Y013574D01*
X001201Y013399D01*
X001201Y013209D01*
X001274Y013033D01*
X001408Y012899D01*
X001290Y013018D02*
X000340Y013018D01*
X000340Y013116D02*
X001239Y013116D01*
X001201Y013215D02*
X000340Y013215D01*
X000340Y013313D02*
X001201Y013313D01*
X001206Y013412D02*
X000340Y013412D01*
X000340Y013510D02*
X001247Y013510D01*
X001308Y013609D02*
X000340Y013609D01*
X000340Y013707D02*
X001407Y013707D01*
X001950Y013707D02*
X002407Y013707D01*
X002308Y013609D02*
X002048Y013609D01*
X002109Y013510D02*
X002247Y013510D01*
X002206Y013412D02*
X002150Y013412D01*
X002155Y013313D02*
X002201Y013313D01*
X002201Y013215D02*
X002155Y013215D01*
X002117Y013116D02*
X002239Y013116D01*
X002290Y013018D02*
X002067Y013018D01*
X001968Y012919D02*
X002388Y012919D01*
X002527Y013904D02*
X001953Y013904D01*
X002052Y014003D02*
X002375Y014003D01*
X002300Y014101D02*
X002111Y014101D01*
X002152Y014200D02*
X002259Y014200D01*
X002251Y014298D02*
X002155Y014298D01*
X002155Y014397D02*
X002254Y014397D01*
X002295Y014495D02*
X002115Y014495D01*
X002063Y014594D02*
X002364Y014594D01*
X002500Y014692D02*
X001965Y014692D01*
X001924Y014889D02*
X002432Y014889D01*
X002408Y014899D02*
X002583Y014826D01*
X002773Y014826D01*
X002949Y014899D01*
X003083Y015033D01*
X003155Y015209D01*
X003155Y015399D01*
X003083Y015574D01*
X002949Y015708D01*
X002773Y015781D01*
X002583Y015781D01*
X002408Y015708D01*
X002274Y015574D01*
X002201Y015399D01*
X002201Y015209D01*
X002274Y015033D01*
X002408Y014899D01*
X002320Y014988D02*
X002037Y014988D01*
X002105Y015086D02*
X002252Y015086D01*
X002211Y015185D02*
X002145Y015185D01*
X002155Y015283D02*
X002201Y015283D01*
X002201Y015382D02*
X002155Y015382D01*
X002122Y015480D02*
X002235Y015480D01*
X002278Y015579D02*
X002078Y015579D01*
X001980Y015677D02*
X002377Y015677D01*
X002468Y015874D02*
X001888Y015874D01*
X001786Y015776D02*
X002571Y015776D01*
X002786Y015776D02*
X006227Y015776D01*
X006129Y015874D02*
X002888Y015874D01*
X003022Y015973D02*
X006030Y015973D01*
X005932Y016071D02*
X003098Y016071D01*
X003139Y016170D02*
X005833Y016170D01*
X005735Y016268D02*
X003155Y016268D01*
X003155Y016367D02*
X005636Y016367D01*
X005538Y016465D02*
X003128Y016465D01*
X003087Y016564D02*
X005439Y016564D01*
X005341Y016662D02*
X002995Y016662D01*
X002362Y016662D02*
X001995Y016662D01*
X002087Y016564D02*
X002269Y016564D01*
X002229Y016465D02*
X002128Y016465D01*
X002155Y016367D02*
X002201Y016367D01*
X002201Y016268D02*
X002155Y016268D01*
X002139Y016170D02*
X002217Y016170D01*
X002258Y016071D02*
X002098Y016071D01*
X002022Y015973D02*
X002335Y015973D01*
X002980Y015677D02*
X006326Y015677D01*
X006424Y015579D02*
X003078Y015579D01*
X003122Y015480D02*
X006523Y015480D01*
X006621Y015382D02*
X003155Y015382D01*
X003155Y015283D02*
X006720Y015283D01*
X006818Y015185D02*
X003145Y015185D01*
X003105Y015086D02*
X006917Y015086D01*
X007015Y014988D02*
X003037Y014988D01*
X002924Y014889D02*
X007029Y014889D01*
X007029Y014791D02*
X000340Y014791D01*
X002857Y014692D02*
X007029Y014692D01*
X007029Y014594D02*
X002992Y014594D01*
X003061Y014495D02*
X007029Y014495D01*
X007029Y014397D02*
X003102Y014397D01*
X003105Y014298D02*
X007029Y014298D01*
X007029Y014200D02*
X003097Y014200D01*
X003057Y014101D02*
X007029Y014101D01*
X007029Y014003D02*
X002981Y014003D01*
X004312Y012651D02*
X004261Y012527D01*
X004261Y012392D01*
X004312Y012267D01*
X004408Y012172D01*
X004532Y012120D01*
X004667Y012120D01*
X004791Y012172D01*
X004887Y012267D01*
X004938Y012392D01*
X004938Y012527D01*
X004887Y012651D01*
X004791Y012746D01*
X004667Y012798D01*
X004532Y012798D01*
X004408Y012746D01*
X004312Y012651D01*
X004301Y012624D02*
X000340Y012624D01*
X000340Y012722D02*
X004383Y012722D01*
X004261Y012525D02*
X000340Y012525D01*
X000340Y012427D02*
X004261Y012427D01*
X004287Y012328D02*
X000340Y012328D01*
X000340Y012230D02*
X004350Y012230D01*
X004506Y012131D02*
X000340Y012131D01*
X000340Y012033D02*
X007029Y012033D01*
X007029Y012131D02*
X006602Y012131D01*
X006576Y012120D02*
X006701Y012172D01*
X006796Y012267D01*
X006848Y012392D01*
X006848Y012527D01*
X006796Y012651D01*
X006701Y012746D01*
X006576Y012798D01*
X006442Y012798D01*
X006317Y012746D01*
X006222Y012651D01*
X006170Y012527D01*
X006170Y012392D01*
X006222Y012267D01*
X006317Y012172D01*
X006442Y012120D01*
X006576Y012120D01*
X006416Y012131D02*
X004693Y012131D01*
X004849Y012230D02*
X005366Y012230D01*
X005381Y012214D02*
X005487Y012170D01*
X005602Y012170D01*
X005708Y012214D01*
X005789Y012296D01*
X005833Y012402D01*
X005833Y012517D01*
X005789Y012623D01*
X005708Y012704D01*
X005602Y012748D01*
X005487Y012748D01*
X005381Y012704D01*
X005300Y012623D01*
X005256Y012517D01*
X005256Y012402D01*
X005300Y012296D01*
X005381Y012214D01*
X005286Y012328D02*
X004912Y012328D01*
X004938Y012427D02*
X005256Y012427D01*
X005259Y012525D02*
X004938Y012525D01*
X004898Y012624D02*
X005300Y012624D01*
X005425Y012722D02*
X004816Y012722D01*
X005664Y012722D02*
X006293Y012722D01*
X006210Y012624D02*
X005788Y012624D01*
X005830Y012525D02*
X006170Y012525D01*
X006170Y012427D02*
X005833Y012427D01*
X005803Y012328D02*
X006197Y012328D01*
X006260Y012230D02*
X005723Y012230D01*
X005545Y011540D02*
X006312Y011540D01*
X006230Y011442D02*
X005627Y011442D01*
X005667Y011343D02*
X006190Y011343D01*
X006190Y011245D02*
X005667Y011245D01*
X005640Y011146D02*
X006217Y011146D01*
X006280Y011048D02*
X006069Y011048D01*
X006190Y010949D02*
X006308Y010949D01*
X006308Y010851D02*
X006265Y010851D01*
X006305Y010752D02*
X006308Y010752D01*
X006788Y010752D02*
X007029Y010752D01*
X007029Y010654D02*
X006788Y010654D01*
X006788Y010555D02*
X007029Y010555D01*
X007029Y010457D02*
X006788Y010457D01*
X006788Y010358D02*
X007029Y010358D01*
X007029Y010260D02*
X006788Y010260D01*
X006788Y010161D02*
X007029Y010161D01*
X007029Y010063D02*
X006788Y010063D01*
X006788Y009964D02*
X007029Y009964D01*
X007029Y009866D02*
X006788Y009866D01*
X006788Y009767D02*
X007029Y009767D01*
X007029Y010851D02*
X006788Y010851D01*
X006788Y010949D02*
X007029Y010949D01*
X007029Y011048D02*
X006788Y011048D01*
X006841Y011146D02*
X007029Y011146D01*
X007029Y011245D02*
X006867Y011245D01*
X006867Y011343D02*
X007029Y011343D01*
X007029Y011442D02*
X006828Y011442D01*
X006746Y011540D02*
X007029Y011540D01*
X007029Y011639D02*
X000340Y011639D01*
X000340Y011737D02*
X007029Y011737D01*
X007029Y011836D02*
X000340Y011836D01*
X000340Y011934D02*
X007029Y011934D01*
X007029Y012230D02*
X006758Y012230D01*
X006821Y012328D02*
X007029Y012328D01*
X007029Y012427D02*
X006848Y012427D01*
X006848Y012525D02*
X007029Y012525D01*
X007029Y012624D02*
X006807Y012624D01*
X006725Y012722D02*
X007029Y012722D01*
X008934Y012722D02*
X011312Y012722D01*
X011219Y012624D02*
X008934Y012624D01*
X008934Y012525D02*
X011178Y012525D01*
X011170Y012427D02*
X008934Y012427D01*
X009245Y012328D02*
X011188Y012328D01*
X011240Y012230D02*
X009327Y012230D01*
X009367Y012131D02*
X011368Y012131D01*
X011352Y012033D02*
X009460Y012033D01*
X009552Y011934D02*
X011233Y011934D01*
X011186Y011836D02*
X009584Y011836D01*
X009584Y011737D02*
X011170Y011737D01*
X011181Y011639D02*
X009584Y011639D01*
X009584Y011540D02*
X011221Y011540D01*
X011322Y011442D02*
X009584Y011442D01*
X010413Y013313D02*
X011704Y013313D01*
X011641Y013412D02*
X010505Y013412D01*
X010546Y013510D02*
X011615Y013510D01*
X011615Y013609D02*
X010552Y013609D01*
X010533Y013707D02*
X011656Y013707D01*
X011738Y013806D02*
X010480Y013806D01*
X012006Y017113D02*
X012131Y017061D01*
X012265Y017061D01*
X012390Y017113D01*
X012485Y017208D01*
X012537Y017333D01*
X012537Y017467D01*
X012485Y017592D01*
X012390Y017687D01*
X012265Y017739D01*
X012131Y017739D01*
X012006Y017687D01*
X011911Y017592D01*
X011859Y017467D01*
X011859Y017333D01*
X011911Y017208D01*
X012006Y017113D01*
X011964Y017155D02*
X006133Y017155D01*
X006035Y017253D02*
X011892Y017253D01*
X011859Y017352D02*
X005936Y017352D01*
X005838Y017450D02*
X011859Y017450D01*
X011893Y017549D02*
X005749Y017549D01*
X005749Y017647D02*
X005869Y017647D01*
X006125Y017647D02*
X006656Y017647D01*
X006481Y017746D02*
X006301Y017746D01*
X006913Y017647D02*
X007444Y017647D01*
X007268Y017746D02*
X007088Y017746D01*
X007700Y017647D02*
X011966Y017647D01*
X012088Y017746D02*
X014043Y017746D01*
X014034Y017844D02*
X012186Y017844D01*
X012231Y017943D02*
X014052Y017943D01*
X014102Y018041D02*
X012262Y018041D01*
X012430Y017647D02*
X014084Y017647D01*
X014052Y017549D02*
X012503Y017549D01*
X012537Y017450D02*
X014034Y017450D01*
X014043Y017352D02*
X012537Y017352D01*
X012504Y017253D02*
X014084Y017253D01*
X014179Y017155D02*
X012431Y017155D01*
X011520Y017746D02*
X011301Y017746D01*
X011399Y017844D02*
X011422Y017844D01*
X010733Y017746D02*
X010513Y017746D01*
X010612Y017844D02*
X010635Y017844D01*
X009946Y017746D02*
X007875Y017746D01*
X007966Y017844D02*
X009847Y017844D01*
X009803Y017943D02*
X008006Y017943D01*
X008029Y018041D02*
X009772Y018041D01*
X009772Y018140D02*
X008029Y018140D01*
X008005Y018238D02*
X009788Y018238D01*
X009829Y018337D02*
X007965Y018337D01*
X007873Y018435D02*
X008269Y018435D01*
X008279Y018431D02*
X008440Y018431D01*
X008589Y018493D01*
X008703Y018607D01*
X008765Y018756D01*
X008765Y018918D01*
X008703Y019067D01*
X008589Y019181D01*
X008440Y019243D01*
X008279Y019243D01*
X008129Y019181D01*
X008015Y019067D01*
X007953Y018918D01*
X007953Y018756D01*
X008015Y018607D01*
X008129Y018493D01*
X008279Y018431D01*
X008449Y018435D02*
X009909Y018435D01*
X010060Y018534D02*
X008630Y018534D01*
X008714Y018632D02*
X012245Y018632D01*
X012205Y018731D02*
X008755Y018731D01*
X008765Y018829D02*
X012186Y018829D01*
X012186Y018928D02*
X008761Y018928D01*
X008720Y019026D02*
X012222Y019026D01*
X012285Y019125D02*
X008646Y019125D01*
X008488Y019223D02*
X012415Y019223D01*
X012341Y018534D02*
X011974Y018534D01*
X011634Y018534D02*
X011187Y018534D01*
X011337Y018435D02*
X011484Y018435D01*
X010847Y018534D02*
X010399Y018534D01*
X010550Y018435D02*
X010696Y018435D01*
X008230Y019223D02*
X005888Y019223D01*
X005789Y019125D02*
X008073Y019125D01*
X007998Y019026D02*
X005749Y019026D01*
X005749Y018928D02*
X007957Y018928D01*
X007953Y018829D02*
X005749Y018829D01*
X005749Y018731D02*
X007964Y018731D01*
X008005Y018632D02*
X005749Y018632D01*
X005749Y018534D02*
X005875Y018534D01*
X006120Y018534D02*
X006662Y018534D01*
X006484Y018435D02*
X006298Y018435D01*
X006390Y018337D02*
X006392Y018337D01*
X006907Y018534D02*
X007450Y018534D01*
X007271Y018435D02*
X007086Y018435D01*
X007177Y018337D02*
X007179Y018337D01*
X007694Y018534D02*
X008089Y018534D01*
X005032Y020799D02*
X004918Y020913D01*
X004769Y020975D01*
X004607Y020975D01*
X004458Y020913D01*
X004344Y020799D01*
X002515Y020799D01*
X002515Y020898D02*
X004442Y020898D01*
X004344Y020799D02*
X004282Y020650D01*
X004282Y020489D01*
X004344Y020339D01*
X004458Y020225D01*
X004377Y020307D02*
X002208Y020307D01*
X002307Y020405D02*
X004317Y020405D01*
X004282Y020504D02*
X002403Y020504D01*
X002443Y020602D02*
X004282Y020602D01*
X004303Y020701D02*
X002484Y020701D01*
X002515Y020996D02*
X005150Y020996D01*
X005073Y021095D02*
X002506Y021095D01*
X002465Y021193D02*
X005032Y021193D01*
X005018Y021292D02*
X002424Y021292D01*
X002359Y021390D02*
X005018Y021390D01*
X005051Y021489D02*
X002261Y021489D01*
X002123Y021587D02*
X005098Y021587D01*
X005237Y020898D02*
X004934Y020898D01*
X008093Y020996D02*
X010771Y020996D01*
X010731Y021095D02*
X008186Y021095D01*
X008227Y021193D02*
X010717Y021193D01*
X010717Y021292D02*
X008245Y021292D01*
X008245Y021390D02*
X010750Y021390D01*
X010797Y021489D02*
X008208Y021489D01*
X008144Y021587D02*
X010895Y021587D01*
X011453Y021587D02*
X011785Y021587D01*
X011655Y021489D02*
X011552Y021489D01*
X011577Y020996D02*
X011613Y020996D01*
X011707Y020898D02*
X011500Y020898D01*
X011356Y020799D02*
X016725Y020799D01*
X016725Y020898D02*
X012217Y020898D01*
X012310Y020996D02*
X016725Y020996D01*
X016725Y021095D02*
X012351Y021095D01*
X012369Y021193D02*
X016725Y021193D01*
X016725Y021292D02*
X012369Y021292D01*
X012332Y021390D02*
X016725Y021390D01*
X016725Y021489D02*
X012268Y021489D01*
X012138Y021587D02*
X016725Y021587D01*
X016725Y021686D02*
X008014Y021686D01*
X014567Y017155D02*
X014573Y017155D01*
X014961Y017155D02*
X014966Y017155D01*
X016725Y021784D02*
X000476Y021784D01*
X000548Y021883D02*
X016725Y021883D01*
X016725Y021981D02*
X000619Y021981D01*
X000722Y022080D02*
X016725Y022080D01*
X016725Y022178D02*
X000857Y022178D01*
X001071Y022277D02*
X016725Y022277D01*
X005111Y011540D02*
X000340Y011540D01*
X000340Y011442D02*
X005029Y011442D01*
X004989Y011343D02*
X000340Y011343D01*
X000340Y011245D02*
X004989Y011245D01*
X005576Y011048D02*
X005579Y011048D01*
X004575Y011146D02*
X002942Y011146D01*
X002913Y011158D02*
X002734Y011158D01*
X002569Y011089D01*
X002442Y010963D01*
X002374Y010797D01*
X002374Y010618D01*
X002442Y010453D01*
X002569Y010326D01*
X002734Y010258D01*
X002913Y010258D01*
X003079Y010326D01*
X003205Y010453D01*
X003274Y010618D01*
X003274Y010797D01*
X003205Y010963D01*
X003079Y011089D01*
X002913Y011158D01*
X002706Y011146D02*
X001073Y011146D01*
X001191Y011048D02*
X002527Y011048D01*
X002437Y010949D02*
X001265Y010949D01*
X001306Y010851D02*
X002396Y010851D01*
X002374Y010752D02*
X001324Y010752D01*
X001324Y010654D02*
X002374Y010654D01*
X002400Y010555D02*
X001302Y010555D01*
X001261Y010457D02*
X002441Y010457D01*
X002537Y010358D02*
X001181Y010358D01*
X001048Y010260D02*
X002731Y010260D01*
X002917Y010260D02*
X003536Y010260D01*
X003569Y010226D02*
X003734Y010158D01*
X003913Y010158D01*
X004079Y010226D01*
X004205Y010353D01*
X004274Y010518D01*
X004274Y010697D01*
X004205Y010863D01*
X004079Y010989D01*
X003913Y011058D01*
X003734Y011058D01*
X003569Y010989D01*
X003442Y010863D01*
X003374Y010697D01*
X003374Y010518D01*
X003442Y010353D01*
X003569Y010226D01*
X003727Y010161D02*
X000340Y010161D01*
X000340Y010063D02*
X000417Y010063D01*
X000340Y010260D02*
X000600Y010260D01*
X000467Y010358D02*
X000340Y010358D01*
X000340Y010457D02*
X000387Y010457D01*
X000346Y010555D02*
X000340Y010555D01*
X000340Y010851D02*
X000342Y010851D01*
X000340Y010949D02*
X000383Y010949D01*
X000340Y011048D02*
X000456Y011048D01*
X000340Y011146D02*
X000575Y011146D01*
X000751Y010063D02*
X005088Y010063D01*
X005088Y010161D02*
X003921Y010161D01*
X004112Y010260D02*
X004600Y010260D01*
X004467Y010358D02*
X004207Y010358D01*
X004248Y010457D02*
X004387Y010457D01*
X004346Y010555D02*
X004274Y010555D01*
X004274Y010654D02*
X004324Y010654D01*
X004324Y010752D02*
X004251Y010752D01*
X004211Y010851D02*
X004342Y010851D01*
X004383Y010949D02*
X004119Y010949D01*
X003939Y011048D02*
X004456Y011048D01*
X003709Y011048D02*
X003121Y011048D01*
X003211Y010949D02*
X003529Y010949D01*
X003437Y010851D02*
X003252Y010851D01*
X003274Y010752D02*
X003396Y010752D01*
X003374Y010654D02*
X003274Y010654D01*
X003248Y010555D02*
X003374Y010555D01*
X003400Y010457D02*
X003207Y010457D01*
X003110Y010358D02*
X003440Y010358D01*
X005048Y010260D02*
X005088Y010260D01*
X005088Y009964D02*
X000837Y009964D01*
X000872Y009866D02*
X005088Y009866D01*
X005088Y009767D02*
X000872Y009767D01*
X000833Y009669D02*
X005088Y009669D01*
X005088Y009570D02*
X000731Y009570D01*
X000436Y009570D02*
X000340Y009570D01*
X000340Y009472D02*
X005088Y009472D01*
X005088Y008388D02*
X004945Y008388D01*
X005028Y008290D02*
X005088Y008290D01*
X005088Y008191D02*
X005068Y008191D01*
X005068Y008093D02*
X005088Y008093D01*
X005088Y007994D02*
X005042Y007994D01*
X005088Y007896D02*
X004979Y007896D01*
X005014Y007797D02*
X005088Y007797D01*
X005088Y007699D02*
X005014Y007699D01*
X004979Y007600D02*
X005088Y007600D01*
X005088Y007502D02*
X004893Y007502D01*
X003111Y006516D02*
X002919Y006516D01*
X002919Y006418D02*
X003049Y006418D01*
X003031Y006319D02*
X002919Y006319D01*
X002919Y006221D02*
X003047Y006221D01*
X002539Y005925D02*
X001914Y005925D01*
X002152Y005827D02*
X002539Y005827D01*
X002539Y005728D02*
X002273Y005728D01*
X002371Y005630D02*
X002539Y005630D01*
X002539Y005531D02*
X002429Y005531D01*
X002470Y005433D02*
X002539Y005433D01*
X002539Y005334D02*
X002511Y005334D01*
X002515Y005236D02*
X002539Y005236D01*
X002539Y005137D02*
X002515Y005137D01*
X002515Y005039D02*
X002539Y005039D01*
X002539Y004940D02*
X002479Y004940D01*
X002438Y004842D02*
X002539Y004842D01*
X002539Y004743D02*
X002393Y004743D01*
X002295Y004645D02*
X002539Y004645D01*
X002539Y004546D02*
X002196Y004546D01*
X001968Y004448D02*
X002539Y004448D01*
X002919Y004448D02*
X003345Y004448D01*
X003373Y004476D02*
X003292Y004394D01*
X003248Y004288D01*
X003248Y004173D01*
X003292Y004067D01*
X003373Y003986D01*
X003479Y003942D01*
X003594Y003942D01*
X003700Y003986D01*
X003781Y004067D01*
X003825Y004173D01*
X003825Y004288D01*
X003781Y004394D01*
X003700Y004476D01*
X003594Y004520D01*
X003479Y004520D01*
X003373Y004476D01*
X003273Y004349D02*
X002919Y004349D01*
X002919Y004251D02*
X003248Y004251D01*
X003256Y004152D02*
X002919Y004152D01*
X002998Y004054D02*
X003305Y004054D01*
X003447Y003955D02*
X003096Y003955D01*
X002756Y003758D02*
X001744Y003758D01*
X002919Y004546D02*
X009161Y004546D01*
X009259Y004448D02*
X003728Y004448D01*
X003800Y004349D02*
X010307Y004349D01*
X010266Y004251D02*
X008318Y004251D01*
X008429Y004152D02*
X010255Y004152D01*
X010255Y004054D02*
X009752Y004054D01*
X009812Y003955D02*
X010284Y003955D01*
X010325Y003857D02*
X009829Y003857D01*
X009812Y003758D02*
X010414Y003758D01*
X009329Y004054D02*
X008470Y004054D01*
X008471Y003955D02*
X009269Y003955D01*
X009446Y004940D02*
X010290Y004940D01*
X010255Y005039D02*
X009347Y005039D01*
X009249Y005137D02*
X010255Y005137D01*
X010260Y005236D02*
X009229Y005236D01*
X009229Y005334D02*
X010301Y005334D01*
X010356Y005433D02*
X009229Y005433D01*
X009229Y005531D02*
X010455Y005531D01*
X010090Y005819D02*
X010134Y005925D01*
X010134Y006040D01*
X010090Y006146D01*
X010009Y006228D01*
X009903Y006271D01*
X009788Y006271D01*
X009682Y006228D01*
X009601Y006146D01*
X009557Y006040D01*
X009557Y005925D01*
X009601Y005819D01*
X009682Y005738D01*
X009788Y005694D01*
X009903Y005694D01*
X010009Y005738D01*
X010090Y005819D01*
X010094Y005827D02*
X011099Y005827D01*
X011139Y005787D02*
X011245Y005743D01*
X011360Y005743D01*
X011460Y005785D01*
X011560Y005743D01*
X011675Y005743D01*
X011781Y005787D01*
X011862Y005868D01*
X011906Y005975D01*
X011906Y006089D01*
X011862Y006196D01*
X011781Y006277D01*
X011675Y006321D01*
X011560Y006321D01*
X011460Y006279D01*
X011360Y006321D01*
X011245Y006321D01*
X011139Y006277D01*
X011057Y006196D01*
X011014Y006089D01*
X011014Y005975D01*
X011057Y005868D01*
X011139Y005787D01*
X011034Y005925D02*
X010134Y005925D01*
X010134Y006024D02*
X011014Y006024D01*
X011027Y006122D02*
X010100Y006122D01*
X010016Y006221D02*
X011083Y006221D01*
X011242Y006319D02*
X009229Y006319D01*
X009229Y006221D02*
X009675Y006221D01*
X009591Y006122D02*
X009229Y006122D01*
X009229Y006024D02*
X009557Y006024D01*
X009557Y005925D02*
X009229Y005925D01*
X009229Y005827D02*
X009598Y005827D01*
X009705Y005728D02*
X009229Y005728D01*
X009229Y005630D02*
X013084Y005630D01*
X013080Y005728D02*
X009986Y005728D01*
X011055Y005531D02*
X011562Y005531D01*
X011427Y005433D02*
X011154Y005433D01*
X011209Y005334D02*
X011355Y005334D01*
X011314Y005236D02*
X011250Y005236D01*
X011255Y005137D02*
X011305Y005137D01*
X011305Y005039D02*
X011255Y005039D01*
X011220Y004940D02*
X011344Y004940D01*
X012166Y004940D02*
X013367Y004940D01*
X013576Y005039D02*
X012205Y005039D01*
X012205Y005137D02*
X013576Y005137D01*
X013576Y005236D02*
X012196Y005236D01*
X012155Y005334D02*
X013576Y005334D01*
X013213Y005433D02*
X012083Y005433D01*
X011948Y005531D02*
X013124Y005531D01*
X013101Y005827D02*
X011821Y005827D01*
X011886Y005925D02*
X013158Y005925D01*
X013298Y006024D02*
X011906Y006024D01*
X011892Y006122D02*
X013576Y006122D01*
X013576Y006024D02*
X013539Y006024D01*
X013576Y006221D02*
X011837Y006221D01*
X011678Y006319D02*
X013576Y006319D01*
X011557Y006319D02*
X011363Y006319D01*
X010412Y007896D02*
X009229Y007896D01*
X009229Y007994D02*
X010278Y007994D01*
X010225Y008093D02*
X009229Y008093D01*
X009229Y008191D02*
X010206Y008191D01*
X010212Y008290D02*
X009229Y008290D01*
X009229Y008388D02*
X010007Y008388D01*
X010156Y008388D02*
X010253Y008388D01*
X009857Y008487D02*
X009229Y008487D01*
X009229Y008585D02*
X009804Y008585D01*
X009793Y008684D02*
X009229Y008684D01*
X009229Y008782D02*
X009816Y008782D01*
X009808Y008881D02*
X009229Y008881D01*
X009229Y008979D02*
X009793Y008979D01*
X009812Y009078D02*
X009254Y009078D01*
X009353Y009176D02*
X009875Y009176D01*
X006958Y005925D02*
X006933Y005925D01*
X007012Y005827D02*
X006675Y005827D01*
X006388Y005728D02*
X007148Y005728D01*
X008047Y004251D02*
X003825Y004251D01*
X003817Y004152D02*
X007935Y004152D01*
X007894Y004054D02*
X003768Y004054D01*
X003626Y003955D02*
X007893Y003955D01*
D18*
X009383Y003739D02*
X009540Y003857D01*
X009383Y003739D02*
X003044Y003739D01*
X002729Y004054D01*
X002729Y008640D01*
X003182Y009093D01*
X003241Y009093D01*
X004245Y009723D02*
X004245Y009762D01*
X004206Y009802D01*
X005328Y011278D02*
X005328Y007164D01*
X004777Y006613D01*
X004777Y006278D01*
X005072Y006042D02*
X005072Y006554D01*
X006548Y008030D01*
X006548Y011258D01*
X006529Y011278D01*
X008694Y010451D02*
X008930Y010215D01*
X008930Y009861D01*
X008655Y009585D01*
X008655Y006750D01*
X008064Y006160D01*
X007395Y006160D01*
X007277Y006042D01*
X006922Y006357D02*
X007828Y006357D01*
X008379Y006908D01*
X008379Y013995D01*
X008615Y014231D01*
X008615Y014349D01*
X009048Y014349D02*
X009048Y014231D01*
X008694Y013876D01*
X008694Y010451D01*
X009344Y009506D02*
X009344Y011810D01*
X009088Y012065D01*
X009029Y012065D01*
X008143Y014349D02*
X008143Y007144D01*
X007592Y006593D01*
X006607Y006593D01*
X006450Y006436D01*
X006450Y006081D01*
X006804Y006239D02*
X006922Y006357D01*
X006411Y006829D02*
X006096Y006514D01*
X006096Y005880D01*
X006076Y005861D01*
X005702Y005624D02*
X005694Y005617D01*
X005702Y005624D02*
X005702Y006514D01*
X006174Y006987D01*
X007281Y006987D01*
X007477Y007184D01*
X007477Y015172D01*
X005304Y017345D01*
X005304Y019727D01*
X006261Y020684D01*
X006261Y021315D01*
X006263Y021317D01*
X005477Y021315D02*
X005475Y021317D01*
X005477Y021315D02*
X005477Y020432D01*
X005080Y020034D01*
X005080Y017262D01*
X007269Y015073D01*
X007269Y007380D01*
X007151Y007262D01*
X006096Y007262D01*
X005308Y006475D01*
X005308Y005337D01*
X005300Y005329D01*
X004875Y005845D02*
X005072Y006042D01*
X006411Y006829D02*
X007513Y006829D01*
X007749Y007065D01*
X007749Y015199D01*
X005509Y017439D01*
X005509Y019184D01*
X006966Y020640D01*
X006966Y021233D01*
X007050Y021317D01*
X017119Y021303D02*
X022648Y021303D01*
X022648Y021376D02*
X022648Y021225D01*
X022706Y021086D01*
X022812Y020980D01*
X022951Y020923D01*
X023101Y020923D01*
X023240Y020980D01*
X023346Y021086D01*
X023404Y021225D01*
X023404Y021376D01*
X023346Y021514D01*
X023240Y021621D01*
X023101Y021678D01*
X022951Y021678D01*
X022812Y021621D01*
X022706Y021514D01*
X022648Y021376D01*
X022651Y021381D02*
X019270Y021381D01*
X019265Y021376D02*
X019344Y021455D01*
X019386Y021557D01*
X019386Y021668D01*
X019344Y021771D01*
X019265Y021849D01*
X019163Y021891D01*
X019052Y021891D01*
X018949Y021849D01*
X018871Y021771D01*
X018829Y021668D01*
X018829Y021557D01*
X018871Y021455D01*
X018949Y021376D01*
X019052Y021334D01*
X019163Y021334D01*
X019265Y021376D01*
X019346Y021460D02*
X022683Y021460D01*
X022729Y021538D02*
X020313Y021538D01*
X020309Y021534D02*
X020387Y021612D01*
X020429Y021715D01*
X020429Y021826D01*
X020387Y021928D01*
X020309Y022006D01*
X020206Y022049D01*
X020095Y022049D01*
X019993Y022006D01*
X019914Y021928D01*
X019872Y021826D01*
X019872Y021715D01*
X019914Y021612D01*
X019993Y021534D01*
X020095Y021491D01*
X020206Y021491D01*
X020309Y021534D01*
X020389Y021617D02*
X022808Y021617D01*
X023244Y021617D02*
X025906Y021617D01*
X025906Y021695D02*
X020421Y021695D01*
X020429Y021774D02*
X025919Y021774D01*
X025906Y021742D02*
X025991Y021946D01*
X026146Y022101D01*
X026350Y022186D01*
X026570Y022186D01*
X026773Y022101D01*
X026929Y021946D01*
X027013Y021742D01*
X027013Y021522D01*
X026929Y021319D01*
X026773Y021163D01*
X026570Y021079D01*
X026350Y021079D01*
X026146Y021163D01*
X025991Y021319D01*
X025906Y021522D01*
X025906Y021742D01*
X025952Y021852D02*
X020418Y021852D01*
X020384Y021931D02*
X025984Y021931D01*
X026054Y022009D02*
X020302Y022009D01*
X019999Y022009D02*
X017119Y022009D01*
X017119Y021931D02*
X019917Y021931D01*
X019883Y021852D02*
X019258Y021852D01*
X019341Y021774D02*
X019872Y021774D01*
X019880Y021695D02*
X019375Y021695D01*
X019386Y021617D02*
X019913Y021617D01*
X019989Y021538D02*
X019378Y021538D01*
X018945Y021381D02*
X017119Y021381D01*
X017119Y021460D02*
X018869Y021460D01*
X018837Y021538D02*
X017119Y021538D01*
X017119Y021617D02*
X018829Y021617D01*
X018840Y021695D02*
X017119Y021695D01*
X017119Y021774D02*
X018874Y021774D01*
X018957Y021852D02*
X017119Y021852D01*
X017119Y022088D02*
X026132Y022088D01*
X026302Y022166D02*
X017119Y022166D01*
X017119Y022245D02*
X031810Y022245D01*
X031775Y022265D02*
X032051Y022105D01*
X032277Y021879D01*
X032437Y021603D01*
X032520Y021294D01*
X032530Y021134D01*
X032530Y005188D01*
X032518Y004999D01*
X032420Y004634D01*
X032231Y004307D01*
X031964Y004040D01*
X031637Y003851D01*
X031272Y003753D01*
X031083Y003741D01*
X018598Y003741D01*
X018615Y003758D01*
X018658Y003860D01*
X018658Y003971D01*
X018615Y004074D01*
X018576Y004113D01*
X018615Y004152D01*
X018658Y004254D01*
X018658Y004365D01*
X018615Y004467D01*
X018537Y004546D01*
X018434Y004588D01*
X018324Y004588D01*
X018221Y004546D01*
X018143Y004467D01*
X018100Y004365D01*
X018100Y004254D01*
X018143Y004152D01*
X018182Y004113D01*
X018143Y004074D01*
X018100Y003971D01*
X018100Y003860D01*
X018143Y003758D01*
X018160Y003741D01*
X016827Y003741D01*
X016844Y003758D01*
X016886Y003860D01*
X016886Y003971D01*
X016844Y004074D01*
X016765Y004152D01*
X016663Y004195D01*
X016552Y004195D01*
X016449Y004152D01*
X016371Y004074D01*
X016293Y004152D01*
X016190Y004195D01*
X016079Y004195D01*
X015977Y004152D01*
X015899Y004074D01*
X015820Y004152D01*
X015718Y004195D01*
X015607Y004195D01*
X015505Y004152D01*
X015426Y004074D01*
X015348Y004152D01*
X015245Y004195D01*
X015135Y004195D01*
X015032Y004152D01*
X014954Y004074D01*
X014875Y004152D01*
X014773Y004195D01*
X014662Y004195D01*
X014560Y004152D01*
X014481Y004074D01*
X014403Y004152D01*
X014301Y004195D01*
X014190Y004195D01*
X014087Y004152D01*
X014009Y004074D01*
X013970Y003979D01*
X013970Y009964D01*
X013998Y009976D01*
X014091Y010068D01*
X014095Y010079D01*
X014124Y010009D01*
X014216Y009917D01*
X014337Y009867D01*
X014468Y009867D01*
X014589Y009917D01*
X014681Y010009D01*
X014731Y010130D01*
X014731Y010261D01*
X014718Y010294D01*
X016850Y010294D01*
X017493Y009651D01*
X018116Y009651D01*
X018162Y009605D01*
X018265Y009562D01*
X018375Y009562D01*
X018478Y009605D01*
X018556Y009683D01*
X018599Y009786D01*
X018599Y009896D01*
X018556Y009999D01*
X018478Y010077D01*
X021705Y010077D01*
X021703Y010072D02*
X021762Y010215D01*
X021872Y010324D01*
X022014Y010383D01*
X022169Y010383D01*
X022312Y010324D01*
X022342Y010294D01*
X022372Y010324D01*
X022514Y010383D01*
X022669Y010383D01*
X022812Y010324D01*
X022842Y010294D01*
X022872Y010324D01*
X023014Y010383D01*
X023169Y010383D01*
X023312Y010324D01*
X023421Y010215D01*
X023480Y010072D01*
X023480Y009917D01*
X023421Y009775D01*
X023391Y009745D01*
X023421Y009715D01*
X023480Y009572D01*
X023480Y009417D01*
X023421Y009275D01*
X023391Y009245D01*
X023421Y009215D01*
X023480Y009072D01*
X023480Y008917D01*
X023421Y008775D01*
X023312Y008665D01*
X023169Y008606D01*
X023014Y008606D01*
X022872Y008665D01*
X022842Y008695D01*
X022812Y008665D01*
X022669Y008606D01*
X022514Y008606D01*
X022372Y008665D01*
X022342Y008695D01*
X022312Y008665D01*
X022169Y008606D01*
X022014Y008606D01*
X021872Y008665D01*
X021762Y008775D01*
X021703Y008917D01*
X021703Y009072D01*
X021762Y009215D01*
X021792Y009245D01*
X021762Y009275D01*
X021703Y009417D01*
X021703Y009572D01*
X021762Y009715D01*
X021792Y009745D01*
X021762Y009775D01*
X021703Y009917D01*
X021703Y010072D01*
X021703Y009999D02*
X018556Y009999D01*
X018589Y009920D02*
X021703Y009920D01*
X021735Y009842D02*
X018599Y009842D01*
X018589Y009763D02*
X019982Y009763D01*
X019984Y009765D02*
X019892Y009673D01*
X019842Y009552D01*
X019842Y009433D01*
X019799Y009535D01*
X019707Y009628D01*
X019586Y009678D01*
X019455Y009678D01*
X019335Y009628D01*
X019242Y009535D01*
X019192Y009414D01*
X019192Y009284D01*
X019242Y009163D01*
X019335Y009070D01*
X019455Y009020D01*
X019586Y009020D01*
X019707Y009070D01*
X019799Y009163D01*
X019849Y009284D01*
X019849Y009402D01*
X019892Y009300D01*
X019984Y009208D01*
X020105Y009158D01*
X020236Y009158D01*
X020357Y009208D01*
X020449Y009300D01*
X020453Y009310D01*
X020545Y009218D01*
X020666Y009168D01*
X020797Y009168D01*
X020918Y009218D01*
X021010Y009310D01*
X021060Y009431D01*
X021060Y009562D01*
X021010Y009683D01*
X020918Y009775D01*
X020797Y009825D01*
X020666Y009825D01*
X020545Y009775D01*
X020453Y009683D01*
X020449Y009673D01*
X020357Y009765D01*
X020236Y009815D01*
X020105Y009815D01*
X019984Y009765D01*
X019903Y009685D02*
X018557Y009685D01*
X018479Y009606D02*
X019313Y009606D01*
X019239Y009528D02*
X016420Y009528D01*
X016411Y009506D02*
X016453Y009608D01*
X016453Y009719D01*
X016411Y009822D01*
X016332Y009900D01*
X016230Y009943D01*
X016119Y009943D01*
X016016Y009900D01*
X015938Y009822D01*
X015896Y009719D01*
X015896Y009608D01*
X015938Y009506D01*
X016016Y009428D01*
X016119Y009385D01*
X016230Y009385D01*
X016332Y009428D01*
X016411Y009506D01*
X016354Y009449D02*
X019206Y009449D01*
X019192Y009371D02*
X013970Y009371D01*
X013970Y009449D02*
X015208Y009449D01*
X015229Y009428D02*
X015331Y009385D01*
X015442Y009385D01*
X015545Y009428D01*
X015623Y009506D01*
X015666Y009608D01*
X015666Y009719D01*
X015623Y009822D01*
X015545Y009900D01*
X015442Y009943D01*
X015331Y009943D01*
X015229Y009900D01*
X015151Y009822D01*
X015108Y009719D01*
X015108Y009608D01*
X015151Y009506D01*
X015229Y009428D01*
X015142Y009528D02*
X013970Y009528D01*
X013970Y009606D02*
X015109Y009606D01*
X015108Y009685D02*
X013970Y009685D01*
X013970Y009763D02*
X015126Y009763D01*
X015170Y009842D02*
X013970Y009842D01*
X013970Y009920D02*
X014213Y009920D01*
X014135Y009999D02*
X014021Y009999D01*
X014094Y010077D02*
X014096Y010077D01*
X014592Y009920D02*
X015277Y009920D01*
X015497Y009920D02*
X016064Y009920D01*
X015958Y009842D02*
X015603Y009842D01*
X015648Y009763D02*
X015914Y009763D01*
X015896Y009685D02*
X015666Y009685D01*
X015665Y009606D02*
X015897Y009606D01*
X015929Y009528D02*
X015632Y009528D01*
X015566Y009449D02*
X015995Y009449D01*
X016452Y009606D02*
X018161Y009606D01*
X018116Y010031D02*
X017651Y010031D01*
X017119Y010562D01*
X017119Y022358D01*
X031306Y022358D01*
X031466Y022348D01*
X031775Y022265D01*
X031946Y022166D02*
X026617Y022166D01*
X026787Y022088D02*
X032069Y022088D01*
X032148Y022009D02*
X026866Y022009D01*
X026935Y021931D02*
X032226Y021931D01*
X032293Y021852D02*
X026968Y021852D01*
X027000Y021774D02*
X032338Y021774D01*
X032384Y021695D02*
X027013Y021695D01*
X027013Y021617D02*
X030638Y021617D01*
X030752Y021664D02*
X030480Y021551D01*
X030271Y021343D01*
X030159Y021071D01*
X030159Y020776D01*
X030271Y020505D01*
X030480Y020296D01*
X030752Y020184D01*
X031046Y020184D01*
X031318Y020296D01*
X031526Y020505D01*
X031639Y020776D01*
X031639Y021071D01*
X031526Y021343D01*
X031318Y021551D01*
X031046Y021664D01*
X030752Y021664D01*
X030467Y021538D02*
X027013Y021538D01*
X026987Y021460D02*
X030388Y021460D01*
X030310Y021381D02*
X026955Y021381D01*
X026913Y021303D02*
X030255Y021303D01*
X030222Y021224D02*
X026834Y021224D01*
X026731Y021146D02*
X030190Y021146D01*
X030159Y021067D02*
X023327Y021067D01*
X023371Y021146D02*
X026189Y021146D01*
X026085Y021224D02*
X023403Y021224D01*
X023404Y021303D02*
X026007Y021303D01*
X025965Y021381D02*
X023402Y021381D01*
X023369Y021460D02*
X025932Y021460D01*
X025906Y021538D02*
X023323Y021538D01*
X022649Y021224D02*
X017119Y021224D01*
X017119Y021146D02*
X022681Y021146D01*
X022725Y021067D02*
X018589Y021067D01*
X018666Y021035D02*
X018486Y021110D01*
X018291Y021110D01*
X018111Y021035D01*
X017973Y020897D01*
X017899Y020717D01*
X017899Y020522D01*
X017973Y020342D01*
X018111Y020204D01*
X018291Y020130D01*
X018486Y020130D01*
X018666Y020204D01*
X018804Y020342D01*
X018879Y020522D01*
X018879Y020717D01*
X018804Y020897D01*
X018666Y021035D01*
X018713Y020989D02*
X022804Y020989D01*
X023248Y020989D02*
X030159Y020989D01*
X030159Y020910D02*
X018791Y020910D01*
X018831Y020832D02*
X030159Y020832D01*
X030168Y020753D02*
X018864Y020753D01*
X018879Y020675D02*
X030201Y020675D01*
X030233Y020596D02*
X018879Y020596D01*
X018877Y020518D02*
X030266Y020518D01*
X030337Y020439D02*
X018844Y020439D01*
X018812Y020361D02*
X030415Y020361D01*
X030514Y020282D02*
X018744Y020282D01*
X018665Y020204D02*
X030704Y020204D01*
X031094Y020204D02*
X032530Y020204D01*
X032530Y020282D02*
X031283Y020282D01*
X031382Y020361D02*
X032530Y020361D01*
X032530Y020439D02*
X031461Y020439D01*
X031531Y020518D02*
X032530Y020518D01*
X032530Y020596D02*
X031564Y020596D01*
X031596Y020675D02*
X032530Y020675D01*
X032530Y020753D02*
X031629Y020753D01*
X031639Y020832D02*
X032530Y020832D01*
X032530Y020910D02*
X031639Y020910D01*
X031639Y020989D02*
X032530Y020989D01*
X032530Y021067D02*
X031639Y021067D01*
X031608Y021146D02*
X032530Y021146D01*
X032524Y021224D02*
X031575Y021224D01*
X031543Y021303D02*
X032518Y021303D01*
X032497Y021381D02*
X031488Y021381D01*
X031409Y021460D02*
X032476Y021460D01*
X032454Y021538D02*
X031331Y021538D01*
X031160Y021617D02*
X032429Y021617D01*
X031559Y022323D02*
X017119Y022323D01*
X017119Y021067D02*
X018188Y021067D01*
X018065Y020989D02*
X017119Y020989D01*
X017119Y020910D02*
X017986Y020910D01*
X017946Y020832D02*
X017119Y020832D01*
X017119Y020753D02*
X017914Y020753D01*
X017899Y020675D02*
X017119Y020675D01*
X017119Y020596D02*
X017899Y020596D01*
X017901Y020518D02*
X017119Y020518D01*
X017119Y020439D02*
X017933Y020439D01*
X017966Y020361D02*
X017119Y020361D01*
X017119Y020282D02*
X018034Y020282D01*
X018113Y020204D02*
X017119Y020204D01*
X017119Y020125D02*
X032530Y020125D01*
X032530Y020047D02*
X017119Y020047D01*
X017119Y019968D02*
X027877Y019968D01*
X027800Y019936D02*
X027644Y019780D01*
X027560Y019577D01*
X027560Y019357D01*
X027644Y019154D01*
X027800Y018998D01*
X028003Y018914D01*
X028223Y018914D01*
X028427Y018998D01*
X028582Y019154D01*
X028667Y019357D01*
X028667Y019577D01*
X028582Y019780D01*
X028427Y019936D01*
X028223Y020020D01*
X028003Y020020D01*
X027800Y019936D01*
X027753Y019890D02*
X018549Y019890D01*
X018476Y019920D02*
X018638Y019853D01*
X018762Y019729D01*
X018829Y019567D01*
X018829Y019392D01*
X018762Y019230D01*
X018638Y019107D01*
X018476Y019040D01*
X018301Y019040D01*
X018140Y019107D01*
X018016Y019230D01*
X017949Y019392D01*
X017949Y019567D01*
X018016Y019729D01*
X018140Y019853D01*
X018301Y019920D01*
X018476Y019920D01*
X018680Y019811D02*
X027675Y019811D01*
X027624Y019733D02*
X018758Y019733D01*
X018793Y019654D02*
X027592Y019654D01*
X027560Y019576D02*
X018825Y019576D01*
X018829Y019497D02*
X027560Y019497D01*
X027560Y019419D02*
X018829Y019419D01*
X018807Y019340D02*
X027567Y019340D01*
X027599Y019262D02*
X018775Y019262D01*
X018714Y019183D02*
X027632Y019183D01*
X027693Y019105D02*
X018633Y019105D01*
X018145Y019105D02*
X017119Y019105D01*
X017119Y019183D02*
X018063Y019183D01*
X018003Y019262D02*
X017119Y019262D01*
X017119Y019340D02*
X017970Y019340D01*
X017949Y019419D02*
X017119Y019419D01*
X017119Y019497D02*
X017949Y019497D01*
X017952Y019576D02*
X017119Y019576D01*
X017119Y019654D02*
X017985Y019654D01*
X018019Y019733D02*
X017119Y019733D01*
X017119Y019811D02*
X018098Y019811D01*
X018229Y019890D02*
X017119Y019890D01*
X017119Y019026D02*
X027772Y019026D01*
X027921Y018948D02*
X017119Y018948D01*
X017119Y018869D02*
X032530Y018869D01*
X032530Y018791D02*
X017119Y018791D01*
X017119Y018712D02*
X032530Y018712D01*
X032530Y018634D02*
X017119Y018634D01*
X017119Y018555D02*
X032530Y018555D01*
X032530Y018477D02*
X017119Y018477D01*
X017119Y018398D02*
X032530Y018398D01*
X032530Y018320D02*
X017119Y018320D01*
X017119Y018241D02*
X032530Y018241D01*
X032530Y018163D02*
X017119Y018163D01*
X017119Y018084D02*
X032530Y018084D01*
X032530Y018006D02*
X028022Y018006D01*
X028014Y018013D02*
X027893Y018063D01*
X027762Y018063D01*
X027642Y018013D01*
X027549Y017921D01*
X027499Y017800D01*
X027499Y017669D01*
X027549Y017549D01*
X027642Y017456D01*
X027762Y017406D01*
X027893Y017406D01*
X028014Y017456D01*
X028107Y017549D01*
X028157Y017669D01*
X028157Y017800D01*
X028107Y017921D01*
X028014Y018013D01*
X028100Y017927D02*
X032530Y017927D01*
X032530Y017849D02*
X028137Y017849D01*
X028157Y017770D02*
X032530Y017770D01*
X032530Y017692D02*
X028157Y017692D01*
X028133Y017613D02*
X032530Y017613D01*
X032530Y017535D02*
X028093Y017535D01*
X028014Y017456D02*
X032530Y017456D01*
X032530Y017378D02*
X017119Y017378D01*
X017119Y017456D02*
X024118Y017456D01*
X024138Y017436D02*
X024045Y017529D01*
X023995Y017650D01*
X023995Y017780D01*
X024045Y017901D01*
X024138Y017994D01*
X024259Y018044D01*
X024389Y018044D01*
X024510Y017994D01*
X024603Y017901D01*
X024653Y017780D01*
X024653Y017650D01*
X024603Y017529D01*
X024510Y017436D01*
X024389Y017386D01*
X024259Y017386D01*
X024138Y017436D01*
X024043Y017535D02*
X017119Y017535D01*
X017119Y017613D02*
X024010Y017613D01*
X023995Y017692D02*
X017119Y017692D01*
X017119Y017770D02*
X023995Y017770D01*
X024023Y017849D02*
X017119Y017849D01*
X017119Y017927D02*
X024071Y017927D01*
X024166Y018006D02*
X017119Y018006D01*
X017119Y017299D02*
X032530Y017299D01*
X032530Y017221D02*
X017119Y017221D01*
X017119Y017142D02*
X024113Y017142D01*
X024118Y017147D02*
X024026Y017055D01*
X023975Y016934D01*
X023975Y016803D01*
X024026Y016682D01*
X024118Y016590D01*
X024239Y016540D01*
X024370Y016540D01*
X024490Y016590D01*
X024583Y016682D01*
X024633Y016803D01*
X024633Y016934D01*
X024583Y017055D01*
X024490Y017147D01*
X024370Y017197D01*
X024239Y017197D01*
X024118Y017147D01*
X024034Y017064D02*
X017119Y017064D01*
X017119Y016985D02*
X023997Y016985D01*
X023975Y016907D02*
X017119Y016907D01*
X017119Y016828D02*
X023975Y016828D01*
X023998Y016750D02*
X017119Y016750D01*
X017119Y016671D02*
X024037Y016671D01*
X024115Y016593D02*
X020182Y016593D01*
X020167Y016599D02*
X020016Y016599D01*
X019878Y016541D01*
X019771Y016435D01*
X019714Y016296D01*
X019714Y016146D01*
X019771Y016007D01*
X019878Y015901D01*
X020016Y015843D01*
X020167Y015843D01*
X020306Y015901D01*
X020412Y016007D01*
X020469Y016146D01*
X020469Y016296D01*
X020412Y016435D01*
X020306Y016541D01*
X020167Y016599D01*
X020001Y016593D02*
X017119Y016593D01*
X017119Y016514D02*
X019850Y016514D01*
X019772Y016436D02*
X017119Y016436D01*
X017119Y016357D02*
X019739Y016357D01*
X019714Y016279D02*
X017119Y016279D01*
X017119Y016200D02*
X019714Y016200D01*
X019724Y016122D02*
X017119Y016122D01*
X017119Y016043D02*
X019756Y016043D01*
X019814Y015965D02*
X017119Y015965D01*
X017119Y015886D02*
X019913Y015886D01*
X020270Y015886D02*
X032530Y015886D01*
X032530Y015808D02*
X028350Y015808D01*
X028349Y015809D02*
X028228Y015859D01*
X028097Y015859D01*
X027976Y015809D01*
X027884Y015716D01*
X027834Y015595D01*
X027834Y015465D01*
X027884Y015344D01*
X027976Y015251D01*
X028097Y015201D01*
X028228Y015201D01*
X028349Y015251D01*
X028441Y015344D01*
X028491Y015465D01*
X028491Y015595D01*
X028441Y015716D01*
X028349Y015809D01*
X028428Y015729D02*
X032530Y015729D01*
X032530Y015651D02*
X028468Y015651D01*
X028491Y015572D02*
X032530Y015572D01*
X032530Y015494D02*
X028491Y015494D01*
X028471Y015415D02*
X032530Y015415D01*
X032530Y015337D02*
X028434Y015337D01*
X028355Y015258D02*
X032530Y015258D01*
X032530Y015180D02*
X017119Y015180D01*
X017119Y015258D02*
X022635Y015258D01*
X022661Y015232D02*
X022782Y015182D01*
X022913Y015182D01*
X023034Y015232D01*
X023126Y015324D01*
X023176Y015445D01*
X023176Y015576D01*
X023126Y015697D01*
X023034Y015789D01*
X022913Y015839D01*
X022782Y015839D01*
X022661Y015789D01*
X022569Y015697D01*
X022519Y015576D01*
X022519Y015445D01*
X022569Y015324D01*
X022661Y015232D01*
X022564Y015337D02*
X017119Y015337D01*
X017119Y015415D02*
X022531Y015415D01*
X022519Y015494D02*
X017119Y015494D01*
X017119Y015572D02*
X022519Y015572D01*
X022550Y015651D02*
X017119Y015651D01*
X017119Y015729D02*
X022601Y015729D01*
X022706Y015808D02*
X017119Y015808D01*
X017119Y015101D02*
X028548Y015101D01*
X028567Y015120D02*
X028474Y015027D01*
X028424Y014906D01*
X028424Y014776D01*
X028454Y014703D01*
X028424Y014631D01*
X028424Y014500D01*
X028474Y014379D01*
X028567Y014287D01*
X028688Y014237D01*
X028818Y014237D01*
X028891Y014267D01*
X028963Y014237D01*
X029094Y014237D01*
X029166Y014267D01*
X029239Y014237D01*
X029370Y014237D01*
X029442Y014267D01*
X029514Y014237D01*
X029645Y014237D01*
X029718Y014267D01*
X029790Y014237D01*
X029921Y014237D01*
X030042Y014287D01*
X030134Y014379D01*
X030184Y014500D01*
X030184Y014631D01*
X030154Y014703D01*
X030184Y014776D01*
X030184Y014906D01*
X030134Y015027D01*
X030042Y015120D01*
X029921Y015170D01*
X029790Y015170D01*
X029718Y015140D01*
X029645Y015170D01*
X029514Y015170D01*
X029442Y015140D01*
X029370Y015170D01*
X029239Y015170D01*
X029166Y015140D01*
X029094Y015170D01*
X028963Y015170D01*
X028891Y015140D01*
X028818Y015170D01*
X028688Y015170D01*
X028567Y015120D01*
X028472Y015023D02*
X026417Y015023D01*
X026420Y015021D02*
X026299Y015071D01*
X026168Y015071D01*
X026096Y015041D01*
X026023Y015071D01*
X025892Y015071D01*
X025820Y015041D01*
X025748Y015071D01*
X025617Y015071D01*
X025544Y015041D01*
X025472Y015071D01*
X025341Y015071D01*
X025269Y015041D01*
X025196Y015071D01*
X025066Y015071D01*
X024945Y015021D01*
X024852Y014929D01*
X024802Y014808D01*
X024802Y014677D01*
X024832Y014605D01*
X024802Y014532D01*
X024802Y014402D01*
X024852Y014281D01*
X024945Y014188D01*
X025066Y014138D01*
X025196Y014138D01*
X025269Y014168D01*
X025341Y014138D01*
X025472Y014138D01*
X025544Y014168D01*
X025617Y014138D01*
X025748Y014138D01*
X025820Y014168D01*
X025840Y014160D01*
X025773Y014132D01*
X025604Y013962D01*
X025512Y013741D01*
X025512Y013501D01*
X025604Y013279D01*
X025773Y013109D01*
X025995Y013017D01*
X026235Y013017D01*
X026457Y013109D01*
X026627Y013279D01*
X026719Y013501D01*
X026719Y013741D01*
X026627Y013962D01*
X026457Y014132D01*
X026370Y014168D01*
X026420Y014188D01*
X026512Y014281D01*
X026562Y014402D01*
X026562Y014532D01*
X026532Y014605D01*
X026562Y014677D01*
X026562Y014808D01*
X026512Y014929D01*
X026420Y015021D01*
X026497Y014944D02*
X028440Y014944D01*
X028424Y014866D02*
X026538Y014866D01*
X026562Y014787D02*
X028424Y014787D01*
X028452Y014709D02*
X026562Y014709D01*
X026543Y014630D02*
X028424Y014630D01*
X028424Y014552D02*
X026554Y014552D01*
X026562Y014473D02*
X028435Y014473D01*
X028468Y014395D02*
X026559Y014395D01*
X026527Y014316D02*
X028538Y014316D01*
X028686Y014238D02*
X026469Y014238D01*
X026392Y014159D02*
X027492Y014159D01*
X027427Y014132D02*
X027257Y013962D01*
X027165Y013741D01*
X027165Y013501D01*
X027257Y013279D01*
X027427Y013109D01*
X027649Y013017D01*
X027889Y013017D01*
X028111Y013109D01*
X028280Y013279D01*
X028372Y013501D01*
X028372Y013741D01*
X028280Y013962D01*
X028111Y014132D01*
X027889Y014224D01*
X027649Y014224D01*
X027427Y014132D01*
X027375Y014081D02*
X026509Y014081D01*
X026587Y014002D02*
X027297Y014002D01*
X027241Y013924D02*
X026643Y013924D01*
X026675Y013845D02*
X027209Y013845D01*
X027176Y013767D02*
X026708Y013767D01*
X026719Y013688D02*
X027165Y013688D01*
X027165Y013610D02*
X026719Y013610D01*
X026719Y013531D02*
X027165Y013531D01*
X027185Y013453D02*
X026699Y013453D01*
X026666Y013374D02*
X027218Y013374D01*
X027250Y013296D02*
X026634Y013296D01*
X026565Y013217D02*
X027319Y013217D01*
X027397Y013139D02*
X026487Y013139D01*
X026339Y013060D02*
X027545Y013060D01*
X027992Y013060D02*
X032530Y013060D01*
X032530Y012982D02*
X017119Y012982D01*
X017119Y013060D02*
X024238Y013060D01*
X024342Y013017D02*
X024582Y013017D01*
X024803Y013109D01*
X024973Y013279D01*
X025065Y013501D01*
X025065Y013741D01*
X024973Y013962D01*
X024803Y014132D01*
X024582Y014224D01*
X024342Y014224D01*
X024120Y014132D01*
X023950Y013962D01*
X023858Y013741D01*
X023858Y013501D01*
X023950Y013279D01*
X024120Y013109D01*
X024342Y013017D01*
X024090Y013139D02*
X017119Y013139D01*
X017119Y013217D02*
X024012Y013217D01*
X023943Y013296D02*
X017119Y013296D01*
X017119Y013374D02*
X023911Y013374D01*
X023878Y013453D02*
X017119Y013453D01*
X017119Y013531D02*
X023858Y013531D01*
X023858Y013610D02*
X017119Y013610D01*
X017119Y013688D02*
X018927Y013688D01*
X018900Y013699D02*
X019003Y013657D01*
X019114Y013657D01*
X019216Y013699D01*
X019294Y013778D01*
X019337Y013880D01*
X019337Y013991D01*
X019294Y014093D01*
X019216Y014172D01*
X019114Y014214D01*
X019003Y014214D01*
X018900Y014172D01*
X018822Y014093D01*
X018779Y013991D01*
X018779Y013880D01*
X018822Y013778D01*
X018900Y013699D01*
X018833Y013767D02*
X017119Y013767D01*
X017119Y013845D02*
X018794Y013845D01*
X018779Y013924D02*
X017119Y013924D01*
X017119Y014002D02*
X018784Y014002D01*
X018817Y014081D02*
X017119Y014081D01*
X017119Y014159D02*
X018887Y014159D01*
X019229Y014159D02*
X021608Y014159D01*
X021618Y014149D02*
X021739Y014099D01*
X021870Y014099D01*
X021942Y014129D01*
X022014Y014099D01*
X022145Y014099D01*
X022218Y014129D01*
X022290Y014099D01*
X022421Y014099D01*
X022493Y014129D01*
X022566Y014099D01*
X022696Y014099D01*
X022769Y014129D01*
X022841Y014099D01*
X022972Y014099D01*
X023093Y014149D01*
X023185Y014241D01*
X023235Y014362D01*
X023235Y014493D01*
X023205Y014565D01*
X023235Y014638D01*
X023235Y014769D01*
X023185Y014889D01*
X023093Y014982D01*
X022972Y015032D01*
X022841Y015032D01*
X022769Y015002D01*
X022696Y015032D01*
X022566Y015032D01*
X022493Y015002D01*
X022421Y015032D01*
X022290Y015032D01*
X022218Y015002D01*
X022145Y015032D01*
X022014Y015032D01*
X021942Y015002D01*
X021870Y015032D01*
X021739Y015032D01*
X021618Y014982D01*
X021526Y014889D01*
X021475Y014769D01*
X021475Y014638D01*
X021505Y014565D01*
X021475Y014493D01*
X021475Y014362D01*
X021526Y014241D01*
X021618Y014149D01*
X021529Y014238D02*
X017119Y014238D01*
X017119Y014316D02*
X021495Y014316D01*
X021475Y014395D02*
X017119Y014395D01*
X017119Y014473D02*
X021475Y014473D01*
X021500Y014552D02*
X017119Y014552D01*
X017119Y014630D02*
X021479Y014630D01*
X021475Y014709D02*
X017119Y014709D01*
X017119Y014787D02*
X021483Y014787D01*
X021516Y014866D02*
X017119Y014866D01*
X017119Y014944D02*
X021580Y014944D01*
X021716Y015023D02*
X017119Y015023D01*
X019300Y014081D02*
X024068Y014081D01*
X023990Y014002D02*
X019332Y014002D01*
X019337Y013924D02*
X023934Y013924D01*
X023902Y013845D02*
X019322Y013845D01*
X019283Y013767D02*
X023869Y013767D01*
X023858Y013688D02*
X019189Y013688D01*
X017119Y012903D02*
X032530Y012903D01*
X032530Y012825D02*
X017119Y012825D01*
X017119Y012746D02*
X032530Y012746D01*
X032530Y012668D02*
X017119Y012668D01*
X017119Y012589D02*
X032530Y012589D01*
X032530Y012511D02*
X017119Y012511D01*
X017119Y012432D02*
X024293Y012432D01*
X024342Y012452D02*
X024120Y012360D01*
X023950Y012191D01*
X023858Y011969D01*
X023858Y011729D01*
X023950Y011507D01*
X024120Y011337D01*
X024342Y011246D01*
X024582Y011246D01*
X024803Y011337D01*
X024973Y011507D01*
X025065Y011729D01*
X025065Y011969D01*
X024973Y012191D01*
X024803Y012360D01*
X024582Y012452D01*
X024342Y012452D01*
X024113Y012354D02*
X017119Y012354D01*
X017119Y012275D02*
X024035Y012275D01*
X023956Y012197D02*
X017119Y012197D01*
X017119Y012118D02*
X023920Y012118D01*
X023888Y012040D02*
X017119Y012040D01*
X017119Y011961D02*
X023858Y011961D01*
X023858Y011883D02*
X017119Y011883D01*
X017119Y011804D02*
X023858Y011804D01*
X023860Y011726D02*
X017119Y011726D01*
X017119Y011647D02*
X023892Y011647D01*
X023925Y011569D02*
X017119Y011569D01*
X017119Y011490D02*
X023967Y011490D01*
X024046Y011412D02*
X017119Y011412D01*
X017119Y011333D02*
X024130Y011333D01*
X024320Y011255D02*
X017119Y011255D01*
X017119Y011176D02*
X030990Y011176D01*
X030972Y011194D02*
X031078Y011088D01*
X031217Y011030D01*
X031368Y011030D01*
X031506Y011088D01*
X031613Y011194D01*
X031670Y011333D01*
X032530Y011333D01*
X032530Y011255D02*
X031638Y011255D01*
X031670Y011333D02*
X031670Y011483D01*
X031613Y011622D01*
X031506Y011728D01*
X031368Y011786D01*
X031217Y011786D01*
X031078Y011728D01*
X030972Y011622D01*
X030915Y011483D01*
X030915Y011333D01*
X028100Y011333D01*
X028111Y011337D02*
X028280Y011507D01*
X028372Y011729D01*
X028372Y011969D01*
X028280Y012191D01*
X028111Y012360D01*
X027889Y012452D01*
X027649Y012452D01*
X027427Y012360D01*
X027257Y012191D01*
X027165Y011969D01*
X027165Y011729D01*
X027257Y011507D01*
X027427Y011337D01*
X027649Y011246D01*
X027889Y011246D01*
X028111Y011337D01*
X028185Y011412D02*
X030915Y011412D01*
X030917Y011490D02*
X028263Y011490D01*
X028306Y011569D02*
X030950Y011569D01*
X030997Y011647D02*
X028338Y011647D01*
X028371Y011726D02*
X031076Y011726D01*
X031509Y011726D02*
X032530Y011726D01*
X032530Y011804D02*
X028372Y011804D01*
X028372Y011883D02*
X032530Y011883D01*
X032530Y011961D02*
X028372Y011961D01*
X028343Y012040D02*
X032530Y012040D01*
X032530Y012118D02*
X028310Y012118D01*
X028274Y012197D02*
X032530Y012197D01*
X032530Y012275D02*
X028196Y012275D01*
X028117Y012354D02*
X032530Y012354D01*
X032530Y012432D02*
X027938Y012432D01*
X027600Y012432D02*
X026284Y012432D01*
X026235Y012452D02*
X025995Y012452D01*
X025773Y012360D01*
X025604Y012191D01*
X025512Y011969D01*
X025512Y011729D01*
X025604Y011507D01*
X025773Y011337D01*
X025995Y011246D01*
X026235Y011246D01*
X026457Y011337D01*
X026627Y011507D01*
X026719Y011729D01*
X026719Y011969D01*
X026627Y012191D01*
X026457Y012360D01*
X026235Y012452D01*
X026464Y012354D02*
X027420Y012354D01*
X027342Y012275D02*
X026542Y012275D01*
X026621Y012197D02*
X027263Y012197D01*
X027227Y012118D02*
X026657Y012118D01*
X026689Y012040D02*
X027195Y012040D01*
X027165Y011961D02*
X026719Y011961D01*
X026719Y011883D02*
X027165Y011883D01*
X027165Y011804D02*
X026719Y011804D01*
X026717Y011726D02*
X027167Y011726D01*
X027199Y011647D02*
X026685Y011647D01*
X026652Y011569D02*
X027232Y011569D01*
X027274Y011490D02*
X026610Y011490D01*
X026531Y011412D02*
X027353Y011412D01*
X027437Y011333D02*
X026447Y011333D01*
X026257Y011255D02*
X027627Y011255D01*
X027911Y011255D02*
X030947Y011255D01*
X030972Y011194D02*
X030915Y011333D01*
X031069Y011098D02*
X017119Y011098D01*
X017119Y011019D02*
X032530Y011019D01*
X032530Y010941D02*
X017119Y010941D01*
X017119Y010862D02*
X032530Y010862D01*
X032530Y010784D02*
X017119Y010784D01*
X017119Y010705D02*
X032530Y010705D01*
X032530Y010627D02*
X017119Y010627D01*
X017134Y010548D02*
X032530Y010548D01*
X032530Y010470D02*
X017212Y010470D01*
X017291Y010391D02*
X032530Y010391D01*
X032530Y010313D02*
X030370Y010313D01*
X030359Y010324D02*
X030216Y010383D01*
X030062Y010383D01*
X029919Y010324D01*
X029889Y010294D01*
X029859Y010324D01*
X029716Y010383D01*
X029562Y010383D01*
X029419Y010324D01*
X029389Y010294D01*
X029359Y010324D01*
X029216Y010383D01*
X029062Y010383D01*
X028919Y010324D01*
X028810Y010215D01*
X028750Y010072D01*
X028750Y009917D01*
X028810Y009775D01*
X028840Y009745D01*
X028810Y009715D01*
X028750Y009572D01*
X028750Y009417D01*
X028810Y009275D01*
X028840Y009245D01*
X028810Y009215D01*
X028750Y009072D01*
X028750Y008917D01*
X028810Y008775D01*
X028919Y008665D01*
X029062Y008606D01*
X029216Y008606D01*
X029359Y008665D01*
X029389Y008695D01*
X029419Y008665D01*
X029562Y008606D01*
X029716Y008606D01*
X029859Y008665D01*
X029889Y008695D01*
X029919Y008665D01*
X030062Y008606D01*
X030216Y008606D01*
X030359Y008665D01*
X030468Y008775D01*
X030527Y008917D01*
X030527Y009072D01*
X030468Y009215D01*
X030438Y009245D01*
X030468Y009275D01*
X030527Y009417D01*
X030527Y009572D01*
X030468Y009715D01*
X030438Y009745D01*
X030468Y009775D01*
X030527Y009917D01*
X030527Y010072D01*
X030468Y010215D01*
X030359Y010324D01*
X030449Y010234D02*
X032530Y010234D01*
X032530Y010156D02*
X030493Y010156D01*
X030525Y010077D02*
X032530Y010077D01*
X032530Y009999D02*
X030527Y009999D01*
X030527Y009920D02*
X032530Y009920D01*
X032530Y009842D02*
X030496Y009842D01*
X030457Y009763D02*
X032530Y009763D01*
X032530Y009685D02*
X030481Y009685D01*
X030513Y009606D02*
X032530Y009606D01*
X032530Y009528D02*
X030527Y009528D01*
X030527Y009449D02*
X032530Y009449D01*
X032530Y009371D02*
X030508Y009371D01*
X030475Y009292D02*
X032530Y009292D01*
X032530Y009214D02*
X030469Y009214D01*
X030501Y009135D02*
X032530Y009135D01*
X032530Y009057D02*
X030527Y009057D01*
X030527Y008978D02*
X032530Y008978D01*
X032530Y008900D02*
X030520Y008900D01*
X030487Y008821D02*
X032530Y008821D01*
X032530Y008743D02*
X030436Y008743D01*
X030356Y008664D02*
X032530Y008664D01*
X032530Y008586D02*
X013970Y008586D01*
X013970Y008664D02*
X015205Y008664D01*
X015229Y008640D02*
X015331Y008598D01*
X015442Y008598D01*
X015545Y008640D01*
X015623Y008719D01*
X015666Y008821D01*
X015896Y008821D01*
X015938Y008719D01*
X016016Y008640D01*
X016119Y008598D01*
X016230Y008598D01*
X016332Y008640D01*
X016411Y008719D01*
X016453Y008821D01*
X021743Y008821D01*
X021711Y008900D02*
X016453Y008900D01*
X016453Y008932D02*
X016453Y008821D01*
X016421Y008743D02*
X021794Y008743D01*
X021875Y008664D02*
X016356Y008664D01*
X016230Y008368D02*
X016119Y008368D01*
X016017Y008326D01*
X015915Y008368D01*
X015804Y008368D01*
X015702Y008326D01*
X015600Y008368D01*
X015489Y008368D01*
X015386Y008325D01*
X015308Y008247D01*
X015266Y008144D01*
X015266Y008034D01*
X015308Y007932D01*
X015266Y007830D01*
X015266Y007719D01*
X015308Y007617D01*
X015266Y007515D01*
X015266Y007404D01*
X015308Y007302D01*
X015266Y007200D01*
X015266Y007089D01*
X015308Y006987D01*
X015266Y006885D01*
X015266Y006774D01*
X015308Y006671D01*
X015386Y006593D01*
X015489Y006550D01*
X015600Y006550D01*
X015702Y006593D01*
X015804Y006550D01*
X015915Y006550D01*
X016017Y006593D01*
X016119Y006550D01*
X016230Y006550D01*
X016332Y006593D01*
X016411Y006671D01*
X016453Y006774D01*
X016453Y006885D01*
X016411Y006987D01*
X016453Y007089D01*
X016453Y007200D01*
X016411Y007302D01*
X016453Y007404D01*
X016453Y007515D01*
X016411Y007617D01*
X016453Y007719D01*
X016453Y007830D01*
X016411Y007932D01*
X016453Y008034D01*
X016453Y008144D01*
X016411Y008247D01*
X016332Y008325D01*
X016230Y008368D01*
X016273Y008350D02*
X022604Y008350D01*
X022569Y008315D02*
X022519Y008194D01*
X022519Y008063D01*
X022569Y007942D01*
X022661Y007850D01*
X022782Y007800D01*
X022913Y007800D01*
X023034Y007850D01*
X023126Y007942D01*
X023176Y008063D01*
X023176Y008194D01*
X023126Y008315D01*
X023034Y008407D01*
X022913Y008457D01*
X022782Y008457D01*
X022661Y008407D01*
X022569Y008315D01*
X022551Y008272D02*
X016386Y008272D01*
X016433Y008193D02*
X022519Y008193D01*
X022519Y008115D02*
X016453Y008115D01*
X016453Y008036D02*
X022530Y008036D01*
X022562Y007958D02*
X016422Y007958D01*
X016433Y007879D02*
X020138Y007879D01*
X020083Y007856D02*
X019990Y007763D01*
X019940Y007643D01*
X019940Y007512D01*
X019990Y007391D01*
X020083Y007299D01*
X020203Y007248D01*
X020334Y007248D01*
X020455Y007299D01*
X020547Y007391D01*
X020598Y007512D01*
X020598Y007643D01*
X020547Y007763D01*
X020455Y007856D01*
X020334Y007906D01*
X020203Y007906D01*
X020083Y007856D01*
X020027Y007801D02*
X016453Y007801D01*
X016453Y007722D02*
X019973Y007722D01*
X019940Y007644D02*
X016422Y007644D01*
X016432Y007565D02*
X019940Y007565D01*
X019951Y007487D02*
X016453Y007487D01*
X016453Y007408D02*
X019983Y007408D01*
X020052Y007330D02*
X016422Y007330D01*
X016432Y007251D02*
X020197Y007251D01*
X020255Y007237D02*
X020125Y007237D01*
X020004Y007187D01*
X019918Y007101D01*
X019875Y007144D01*
X019773Y007187D01*
X019662Y007187D01*
X019560Y007144D01*
X019481Y007066D01*
X019439Y006963D01*
X019439Y006853D01*
X019481Y006750D01*
X019560Y006672D01*
X019662Y006629D01*
X019773Y006629D01*
X019875Y006672D01*
X019918Y006715D01*
X020004Y006629D01*
X020125Y006579D01*
X020255Y006579D01*
X020376Y006629D01*
X020469Y006722D01*
X020519Y006843D01*
X020519Y006973D01*
X020469Y007094D01*
X024239Y007094D01*
X024298Y007119D02*
X024177Y007069D01*
X024085Y006976D01*
X024035Y006855D01*
X024035Y006724D01*
X024085Y006604D01*
X024177Y006511D01*
X024298Y006461D01*
X024429Y006461D01*
X024549Y006511D01*
X024642Y006604D01*
X024692Y006724D01*
X024692Y006855D01*
X024642Y006976D01*
X024549Y007069D01*
X024429Y007119D01*
X024298Y007119D01*
X024488Y007094D02*
X027840Y007094D01*
X027864Y007037D02*
X027957Y006944D01*
X028014Y006920D01*
X027985Y006908D01*
X027906Y006830D01*
X027864Y006727D01*
X027864Y006616D01*
X027901Y006528D01*
X027841Y006528D01*
X027720Y006478D01*
X027628Y006386D01*
X027578Y006265D01*
X027578Y006134D01*
X027628Y006013D01*
X027720Y005921D01*
X027841Y005871D01*
X027972Y005871D01*
X028093Y005921D01*
X028185Y006013D01*
X028235Y006134D01*
X028235Y006265D01*
X028185Y006386D01*
X028178Y006393D01*
X028198Y006393D01*
X028301Y006435D01*
X028379Y006514D01*
X028422Y006616D01*
X028422Y006727D01*
X028379Y006830D01*
X028301Y006908D01*
X028271Y006920D01*
X028329Y006944D01*
X028421Y007037D01*
X028472Y007158D01*
X028472Y007288D01*
X028421Y007409D01*
X028329Y007502D01*
X028208Y007552D01*
X028077Y007552D01*
X027957Y007502D01*
X027864Y007409D01*
X027814Y007288D01*
X027814Y007158D01*
X027864Y007037D01*
X027885Y007016D02*
X024603Y007016D01*
X024658Y006937D02*
X027974Y006937D01*
X027935Y006859D02*
X024691Y006859D01*
X024692Y006780D02*
X027886Y006780D01*
X027864Y006702D02*
X024683Y006702D01*
X024650Y006623D02*
X027864Y006623D01*
X027894Y006545D02*
X024583Y006545D01*
X024440Y006466D02*
X027708Y006466D01*
X027630Y006388D02*
X016258Y006388D01*
X016230Y006399D02*
X016119Y006399D01*
X016016Y006357D01*
X015938Y006278D01*
X015896Y006176D01*
X015896Y006065D01*
X015938Y005963D01*
X016016Y005884D01*
X016119Y005842D01*
X016230Y005842D01*
X016332Y005884D01*
X016411Y005963D01*
X016453Y006065D01*
X016453Y006176D01*
X016411Y006278D01*
X016332Y006357D01*
X016230Y006399D01*
X016090Y006388D02*
X015471Y006388D01*
X015442Y006399D02*
X015331Y006399D01*
X015229Y006357D01*
X015151Y006278D01*
X015108Y006176D01*
X015108Y006065D01*
X015151Y005963D01*
X015229Y005884D01*
X015331Y005842D01*
X015442Y005842D01*
X015545Y005884D01*
X015623Y005963D01*
X015666Y006065D01*
X015666Y006176D01*
X015623Y006278D01*
X015545Y006357D01*
X015442Y006399D01*
X015303Y006388D02*
X013970Y006388D01*
X013970Y006466D02*
X024286Y006466D01*
X024298Y006371D02*
X024177Y006320D01*
X024085Y006228D01*
X024035Y006107D01*
X024035Y005976D01*
X024085Y005856D01*
X024177Y005763D01*
X024298Y005713D01*
X024429Y005713D01*
X024549Y005763D01*
X024642Y005856D01*
X024692Y005976D01*
X024692Y006107D01*
X024642Y006228D01*
X024549Y006320D01*
X024429Y006371D01*
X024298Y006371D01*
X024166Y006309D02*
X016380Y006309D01*
X016430Y006230D02*
X024087Y006230D01*
X024053Y006152D02*
X016453Y006152D01*
X016453Y006073D02*
X024035Y006073D01*
X024035Y005995D02*
X016424Y005995D01*
X016364Y005916D02*
X024059Y005916D01*
X024102Y005838D02*
X013970Y005838D01*
X013970Y005916D02*
X015197Y005916D01*
X015137Y005995D02*
X013970Y005995D01*
X013970Y006073D02*
X015108Y006073D01*
X015108Y006152D02*
X013970Y006152D01*
X013970Y006230D02*
X015131Y006230D01*
X015181Y006309D02*
X013970Y006309D01*
X013970Y006545D02*
X024144Y006545D01*
X024077Y006623D02*
X020361Y006623D01*
X020449Y006702D02*
X024044Y006702D01*
X024035Y006780D02*
X020493Y006780D01*
X020519Y006859D02*
X024036Y006859D01*
X024068Y006937D02*
X020519Y006937D01*
X020501Y007016D02*
X024124Y007016D01*
X024561Y006309D02*
X027596Y006309D01*
X027578Y006230D02*
X024639Y006230D01*
X024673Y006152D02*
X027578Y006152D01*
X027603Y006073D02*
X024692Y006073D01*
X024692Y005995D02*
X027646Y005995D01*
X027730Y005916D02*
X024667Y005916D01*
X024624Y005838D02*
X030564Y005838D01*
X030480Y005803D02*
X030271Y005595D01*
X030159Y005323D01*
X030159Y005028D01*
X030271Y004756D01*
X030480Y004548D01*
X030752Y004436D01*
X031046Y004436D01*
X031318Y004548D01*
X031526Y004756D01*
X031639Y005028D01*
X031639Y005323D01*
X031526Y005595D01*
X031318Y005803D01*
X031046Y005916D01*
X030752Y005916D01*
X030480Y005803D01*
X030436Y005759D02*
X026457Y005759D01*
X026450Y005766D02*
X026348Y005809D01*
X026237Y005809D01*
X026155Y005775D01*
X026072Y005809D01*
X025961Y005809D01*
X025879Y005775D01*
X025797Y005809D01*
X025686Y005809D01*
X025603Y005775D01*
X025521Y005809D01*
X025410Y005809D01*
X025328Y005775D01*
X025245Y005809D01*
X025135Y005809D01*
X025032Y005766D01*
X024954Y005688D01*
X024911Y005585D01*
X024911Y005475D01*
X024945Y005392D01*
X024911Y005310D01*
X024911Y005199D01*
X024945Y005117D01*
X024911Y005034D01*
X024911Y004923D01*
X024945Y004841D01*
X024911Y004759D01*
X024911Y004648D01*
X024954Y004545D01*
X025032Y004467D01*
X025135Y004424D01*
X025245Y004424D01*
X025328Y004459D01*
X025410Y004424D01*
X025521Y004424D01*
X025603Y004459D01*
X025686Y004424D01*
X025797Y004424D01*
X025879Y004459D01*
X025961Y004424D01*
X026072Y004424D01*
X026155Y004459D01*
X026237Y004424D01*
X026348Y004424D01*
X026450Y004467D01*
X026529Y004545D01*
X026571Y004648D01*
X026571Y004759D01*
X026537Y004841D01*
X026571Y004923D01*
X026571Y005034D01*
X026537Y005117D01*
X026571Y005199D01*
X026571Y005310D01*
X026537Y005392D01*
X026571Y005475D01*
X026571Y005585D01*
X026529Y005688D01*
X026450Y005766D01*
X026532Y005681D02*
X030358Y005681D01*
X030279Y005602D02*
X026564Y005602D01*
X026571Y005524D02*
X028363Y005524D01*
X028362Y005524D02*
X028256Y005417D01*
X028198Y005278D01*
X028198Y005128D01*
X028256Y004989D01*
X028362Y004883D01*
X028501Y004825D01*
X028651Y004825D01*
X028790Y004883D01*
X028896Y004989D01*
X028954Y005128D01*
X028954Y005278D01*
X028896Y005417D01*
X028790Y005524D01*
X028651Y005581D01*
X028501Y005581D01*
X028362Y005524D01*
X028284Y005445D02*
X026559Y005445D01*
X026547Y005367D02*
X028235Y005367D01*
X028202Y005288D02*
X026571Y005288D01*
X026571Y005210D02*
X027245Y005210D01*
X027284Y005226D02*
X027182Y005184D01*
X027103Y005105D01*
X027061Y005003D01*
X027061Y004892D01*
X027103Y004789D01*
X027182Y004711D01*
X027284Y004669D01*
X027395Y004669D01*
X027498Y004711D01*
X027576Y004789D01*
X027618Y004892D01*
X027618Y005003D01*
X027576Y005105D01*
X027498Y005184D01*
X027395Y005226D01*
X027284Y005226D01*
X027434Y005210D02*
X028198Y005210D01*
X028198Y005131D02*
X027550Y005131D01*
X027598Y005053D02*
X028229Y005053D01*
X028270Y004974D02*
X027618Y004974D01*
X027618Y004896D02*
X028349Y004896D01*
X028803Y004896D02*
X030214Y004896D01*
X030246Y004817D02*
X027588Y004817D01*
X027526Y004739D02*
X030289Y004739D01*
X030367Y004660D02*
X026571Y004660D01*
X026571Y004739D02*
X027154Y004739D01*
X027092Y004817D02*
X026547Y004817D01*
X026560Y004896D02*
X027061Y004896D01*
X027061Y004974D02*
X026571Y004974D01*
X026563Y005053D02*
X027082Y005053D01*
X027130Y005131D02*
X026543Y005131D01*
X026544Y004582D02*
X030446Y004582D01*
X030588Y004503D02*
X026487Y004503D01*
X026349Y004425D02*
X032299Y004425D01*
X032254Y004346D02*
X021059Y004346D01*
X021059Y004385D02*
X021059Y004274D01*
X021017Y004171D01*
X020938Y004093D01*
X020836Y004050D01*
X020725Y004050D01*
X020623Y004093D01*
X020544Y004171D01*
X020502Y004274D01*
X020502Y004385D01*
X020544Y004487D01*
X020548Y004491D01*
X020502Y004537D01*
X020452Y004658D01*
X020452Y004788D01*
X020502Y004909D01*
X020503Y004910D01*
X020502Y004911D01*
X020452Y005032D01*
X020452Y005162D01*
X020502Y005283D01*
X020513Y005294D01*
X020502Y005304D01*
X020452Y005425D01*
X020452Y005556D01*
X020502Y005677D01*
X020594Y005769D01*
X020715Y005819D01*
X020846Y005819D01*
X020967Y005769D01*
X021059Y005677D01*
X021109Y005556D01*
X021109Y005425D01*
X021059Y005304D01*
X021049Y005294D01*
X021059Y005283D01*
X021109Y005162D01*
X021109Y005032D01*
X021059Y004911D01*
X021058Y004910D01*
X021059Y004909D01*
X021109Y004788D01*
X021109Y004658D01*
X021059Y004537D01*
X021013Y004491D01*
X021017Y004487D01*
X021059Y004385D01*
X021043Y004425D02*
X021613Y004425D01*
X021607Y004428D02*
X021709Y004385D01*
X021820Y004385D01*
X021903Y004419D01*
X021985Y004385D01*
X022096Y004385D01*
X022178Y004419D01*
X022261Y004385D01*
X022371Y004385D01*
X022454Y004419D01*
X022536Y004385D01*
X022647Y004385D01*
X022729Y004419D01*
X022812Y004385D01*
X022923Y004385D01*
X023025Y004428D01*
X023104Y004506D01*
X023146Y004608D01*
X023146Y004719D01*
X023112Y004802D01*
X023146Y004884D01*
X023146Y004995D01*
X023112Y005077D01*
X023146Y005160D01*
X023146Y005270D01*
X023112Y005353D01*
X023146Y005435D01*
X023146Y005546D01*
X023104Y005649D01*
X023025Y005727D01*
X022923Y005769D01*
X022812Y005769D01*
X022729Y005735D01*
X022647Y005769D01*
X022536Y005769D01*
X022454Y005735D01*
X022371Y005769D01*
X022261Y005769D01*
X022178Y005735D01*
X022096Y005769D01*
X021985Y005769D01*
X021903Y005735D01*
X021820Y005769D01*
X021709Y005769D01*
X021607Y005727D01*
X021529Y005649D01*
X021486Y005546D01*
X021486Y005435D01*
X021520Y005353D01*
X021486Y005270D01*
X021486Y005160D01*
X021520Y005077D01*
X021486Y004995D01*
X021486Y004884D01*
X021520Y004802D01*
X021486Y004719D01*
X021486Y004608D01*
X021529Y004506D01*
X021607Y004428D01*
X021531Y004503D02*
X021026Y004503D01*
X021078Y004582D02*
X021497Y004582D01*
X021486Y004660D02*
X021109Y004660D01*
X021109Y004739D02*
X021494Y004739D01*
X021514Y004817D02*
X021097Y004817D01*
X021065Y004896D02*
X021486Y004896D01*
X021486Y004974D02*
X021086Y004974D01*
X021109Y005053D02*
X021510Y005053D01*
X021498Y005131D02*
X021109Y005131D01*
X021090Y005210D02*
X021486Y005210D01*
X021494Y005288D02*
X021054Y005288D01*
X021085Y005367D02*
X021514Y005367D01*
X021486Y005445D02*
X021109Y005445D01*
X021109Y005524D02*
X021486Y005524D01*
X021509Y005602D02*
X021090Y005602D01*
X021055Y005681D02*
X021561Y005681D01*
X021686Y005759D02*
X020977Y005759D01*
X020585Y005759D02*
X013970Y005759D01*
X013970Y005681D02*
X020506Y005681D01*
X020471Y005602D02*
X016252Y005602D01*
X016230Y005612D02*
X016119Y005612D01*
X016016Y005569D01*
X015938Y005491D01*
X015896Y005389D01*
X015896Y005278D01*
X015938Y005175D01*
X016016Y005097D01*
X016119Y005054D01*
X016230Y005054D01*
X016332Y005097D01*
X016411Y005175D01*
X016453Y005278D01*
X016453Y005389D01*
X016411Y005491D01*
X016332Y005569D01*
X016230Y005612D01*
X016096Y005602D02*
X015465Y005602D01*
X015442Y005612D02*
X015331Y005612D01*
X015229Y005569D01*
X015151Y005491D01*
X015108Y005389D01*
X015108Y005278D01*
X015151Y005175D01*
X015229Y005097D01*
X015331Y005054D01*
X015442Y005054D01*
X015545Y005097D01*
X015623Y005175D01*
X015666Y005278D01*
X015666Y005389D01*
X015623Y005491D01*
X015545Y005569D01*
X015442Y005612D01*
X015309Y005602D02*
X013970Y005602D01*
X013970Y005524D02*
X015184Y005524D01*
X015132Y005445D02*
X013970Y005445D01*
X013970Y005367D02*
X015108Y005367D01*
X015108Y005288D02*
X013970Y005288D01*
X013970Y005210D02*
X015136Y005210D01*
X015194Y005131D02*
X013970Y005131D01*
X013970Y005053D02*
X020452Y005053D01*
X020452Y005131D02*
X016367Y005131D01*
X016425Y005210D02*
X020472Y005210D01*
X020507Y005288D02*
X016453Y005288D01*
X016453Y005367D02*
X020476Y005367D01*
X020452Y005445D02*
X016429Y005445D01*
X016378Y005524D02*
X020452Y005524D01*
X020475Y004974D02*
X013970Y004974D01*
X013970Y004896D02*
X020496Y004896D01*
X020464Y004817D02*
X013970Y004817D01*
X013970Y004739D02*
X020452Y004739D01*
X020452Y004660D02*
X013970Y004660D01*
X013970Y004582D02*
X018308Y004582D01*
X018450Y004582D02*
X020483Y004582D01*
X020535Y004503D02*
X018579Y004503D01*
X018633Y004425D02*
X020519Y004425D01*
X020502Y004346D02*
X018658Y004346D01*
X018658Y004268D02*
X020504Y004268D01*
X020537Y004189D02*
X018631Y004189D01*
X018578Y004111D02*
X020605Y004111D01*
X020957Y004111D02*
X032035Y004111D01*
X032114Y004189D02*
X021024Y004189D01*
X021057Y004268D02*
X032192Y004268D01*
X032345Y004503D02*
X031210Y004503D01*
X031352Y004582D02*
X032390Y004582D01*
X032427Y004660D02*
X031430Y004660D01*
X031509Y004739D02*
X032448Y004739D01*
X032469Y004817D02*
X031551Y004817D01*
X031584Y004896D02*
X032490Y004896D01*
X032511Y004974D02*
X031616Y004974D01*
X031639Y005053D02*
X032522Y005053D01*
X032527Y005131D02*
X031639Y005131D01*
X031639Y005210D02*
X032530Y005210D01*
X032530Y005288D02*
X031639Y005288D01*
X031620Y005367D02*
X032530Y005367D01*
X032530Y005445D02*
X031588Y005445D01*
X031555Y005524D02*
X032530Y005524D01*
X032530Y005602D02*
X031518Y005602D01*
X031440Y005681D02*
X032530Y005681D01*
X032530Y005759D02*
X031361Y005759D01*
X031233Y005838D02*
X032530Y005838D01*
X032530Y005916D02*
X028083Y005916D01*
X028167Y005995D02*
X032530Y005995D01*
X032530Y006073D02*
X028210Y006073D01*
X028235Y006152D02*
X032530Y006152D01*
X032530Y006230D02*
X028235Y006230D01*
X028217Y006309D02*
X032530Y006309D01*
X032530Y006388D02*
X028183Y006388D01*
X028331Y006466D02*
X032530Y006466D01*
X032530Y006545D02*
X028392Y006545D01*
X028422Y006623D02*
X032530Y006623D01*
X032530Y006702D02*
X028422Y006702D01*
X028400Y006780D02*
X031605Y006780D01*
X031628Y006757D02*
X031749Y006707D01*
X031879Y006707D01*
X032000Y006757D01*
X032093Y006850D01*
X032143Y006971D01*
X032143Y007101D01*
X032093Y007222D01*
X032000Y007315D01*
X031967Y007328D01*
X031990Y007338D01*
X032083Y007430D01*
X032133Y007551D01*
X032133Y007682D01*
X032083Y007803D01*
X031990Y007895D01*
X031870Y007945D01*
X031739Y007945D01*
X031618Y007895D01*
X031526Y007803D01*
X031475Y007682D01*
X031475Y007551D01*
X031526Y007430D01*
X031618Y007338D01*
X031651Y007324D01*
X031628Y007315D01*
X031535Y007222D01*
X031485Y007101D01*
X031485Y006971D01*
X031535Y006850D01*
X031628Y006757D01*
X031532Y006859D02*
X028350Y006859D01*
X028312Y006937D02*
X031499Y006937D01*
X031485Y007016D02*
X028400Y007016D01*
X028445Y007094D02*
X031485Y007094D01*
X031515Y007173D02*
X028472Y007173D01*
X028472Y007251D02*
X031564Y007251D01*
X031638Y007330D02*
X028454Y007330D01*
X028422Y007408D02*
X031548Y007408D01*
X031502Y007487D02*
X028344Y007487D01*
X027941Y007487D02*
X020587Y007487D01*
X020598Y007565D02*
X031475Y007565D01*
X031475Y007644D02*
X020597Y007644D01*
X020565Y007722D02*
X031492Y007722D01*
X031525Y007801D02*
X022915Y007801D01*
X022780Y007801D02*
X020510Y007801D01*
X020399Y007879D02*
X022632Y007879D01*
X023063Y007879D02*
X026111Y007879D01*
X026086Y007889D02*
X026207Y007839D01*
X026338Y007839D01*
X026459Y007889D01*
X026551Y007982D01*
X026601Y008102D01*
X026601Y008233D01*
X026551Y008354D01*
X026459Y008446D01*
X026338Y008497D01*
X026207Y008497D01*
X026086Y008446D01*
X025994Y008354D01*
X025944Y008233D01*
X025944Y008102D01*
X025994Y007982D01*
X026086Y007889D01*
X026018Y007958D02*
X023133Y007958D01*
X023165Y008036D02*
X025971Y008036D01*
X025944Y008115D02*
X023176Y008115D01*
X023176Y008193D02*
X025944Y008193D01*
X025960Y008272D02*
X023144Y008272D01*
X023091Y008350D02*
X025992Y008350D01*
X026069Y008429D02*
X022982Y008429D01*
X022875Y008664D02*
X022809Y008664D01*
X022713Y008429D02*
X013970Y008429D01*
X013970Y008507D02*
X032530Y008507D01*
X032530Y008429D02*
X026477Y008429D01*
X026553Y008350D02*
X032530Y008350D01*
X032530Y008272D02*
X026586Y008272D01*
X026601Y008193D02*
X032530Y008193D01*
X032530Y008115D02*
X026601Y008115D01*
X026574Y008036D02*
X032530Y008036D01*
X032530Y007958D02*
X026527Y007958D01*
X026435Y007879D02*
X031602Y007879D01*
X032007Y007879D02*
X032530Y007879D01*
X032530Y007801D02*
X032084Y007801D01*
X032116Y007722D02*
X032530Y007722D01*
X032530Y007644D02*
X032133Y007644D01*
X032133Y007565D02*
X032530Y007565D01*
X032530Y007487D02*
X032106Y007487D01*
X032061Y007408D02*
X032530Y007408D01*
X032530Y007330D02*
X031970Y007330D01*
X032064Y007251D02*
X032530Y007251D01*
X032530Y007173D02*
X032113Y007173D01*
X032143Y007094D02*
X032530Y007094D01*
X032530Y007016D02*
X032143Y007016D01*
X032129Y006937D02*
X032530Y006937D01*
X032530Y006859D02*
X032096Y006859D01*
X032023Y006780D02*
X032530Y006780D01*
X030242Y005524D02*
X028789Y005524D01*
X028868Y005445D02*
X030210Y005445D01*
X030177Y005367D02*
X028917Y005367D01*
X028949Y005288D02*
X030159Y005288D01*
X030159Y005210D02*
X028954Y005210D01*
X028954Y005131D02*
X030159Y005131D01*
X030159Y005053D02*
X028923Y005053D01*
X028881Y004974D02*
X030181Y004974D01*
X031435Y003797D02*
X018631Y003797D01*
X018658Y003875D02*
X031679Y003875D01*
X031815Y003954D02*
X018658Y003954D01*
X018632Y004032D02*
X031951Y004032D01*
X027814Y007173D02*
X020390Y007173D01*
X020376Y007187D02*
X020255Y007237D01*
X020340Y007251D02*
X027814Y007251D01*
X027831Y007330D02*
X020486Y007330D01*
X020555Y007408D02*
X027864Y007408D01*
X028922Y008664D02*
X026734Y008664D01*
X026737Y008665D02*
X026846Y008775D01*
X026905Y008917D01*
X026905Y009072D01*
X026846Y009215D01*
X026816Y009245D01*
X026846Y009275D01*
X026905Y009417D01*
X026905Y009572D01*
X026846Y009715D01*
X026816Y009745D01*
X026846Y009775D01*
X026905Y009917D01*
X026905Y010072D01*
X026846Y010215D01*
X026737Y010324D01*
X026594Y010383D01*
X026440Y010383D01*
X026297Y010324D01*
X026267Y010294D01*
X026237Y010324D01*
X026094Y010383D01*
X025940Y010383D01*
X025797Y010324D01*
X025767Y010294D01*
X025737Y010324D01*
X025594Y010383D01*
X025440Y010383D01*
X025297Y010324D01*
X025188Y010215D01*
X025128Y010072D01*
X025128Y009917D01*
X025188Y009775D01*
X025217Y009745D01*
X025188Y009715D01*
X025128Y009572D01*
X025128Y009417D01*
X025188Y009275D01*
X025217Y009245D01*
X025188Y009215D01*
X025128Y009072D01*
X025128Y008917D01*
X025188Y008775D01*
X025297Y008665D01*
X025440Y008606D01*
X025594Y008606D01*
X025737Y008665D01*
X025767Y008695D01*
X025797Y008665D01*
X025940Y008606D01*
X026094Y008606D01*
X026237Y008665D01*
X026267Y008695D01*
X026297Y008665D01*
X026440Y008606D01*
X026594Y008606D01*
X026737Y008665D01*
X026814Y008743D02*
X028842Y008743D01*
X028790Y008821D02*
X026865Y008821D01*
X026898Y008900D02*
X028758Y008900D01*
X028750Y008978D02*
X026905Y008978D01*
X026905Y009057D02*
X028750Y009057D01*
X028777Y009135D02*
X026879Y009135D01*
X026847Y009214D02*
X028809Y009214D01*
X028802Y009292D02*
X026853Y009292D01*
X026886Y009371D02*
X027657Y009371D01*
X027622Y009385D02*
X027743Y009335D01*
X027874Y009335D01*
X027994Y009385D01*
X028087Y009478D01*
X028137Y009598D01*
X028137Y009729D01*
X028087Y009850D01*
X027994Y009943D01*
X027874Y009993D01*
X027743Y009993D01*
X027622Y009943D01*
X027529Y009850D01*
X027479Y009729D01*
X027479Y009598D01*
X027529Y009478D01*
X027622Y009385D01*
X027558Y009449D02*
X026905Y009449D01*
X026905Y009528D02*
X027509Y009528D01*
X027479Y009606D02*
X026891Y009606D01*
X026859Y009685D02*
X027479Y009685D01*
X027493Y009763D02*
X026835Y009763D01*
X026874Y009842D02*
X027526Y009842D01*
X027599Y009920D02*
X026905Y009920D01*
X026905Y009999D02*
X028750Y009999D01*
X028753Y010077D02*
X026903Y010077D01*
X026871Y010156D02*
X028785Y010156D01*
X028829Y010234D02*
X026827Y010234D01*
X026748Y010313D02*
X028907Y010313D01*
X029370Y010313D02*
X029407Y010313D01*
X029870Y010313D02*
X029907Y010313D01*
X028821Y009763D02*
X028123Y009763D01*
X028137Y009685D02*
X028797Y009685D01*
X028765Y009606D02*
X028137Y009606D01*
X028107Y009528D02*
X028750Y009528D01*
X028750Y009449D02*
X028058Y009449D01*
X027959Y009371D02*
X028770Y009371D01*
X028782Y009842D02*
X028090Y009842D01*
X028017Y009920D02*
X028750Y009920D01*
X029356Y008664D02*
X029422Y008664D01*
X029856Y008664D02*
X029922Y008664D01*
X031516Y011098D02*
X032530Y011098D01*
X032530Y011176D02*
X031595Y011176D01*
X031670Y011412D02*
X032530Y011412D01*
X032530Y011490D02*
X031667Y011490D01*
X031635Y011569D02*
X032530Y011569D01*
X032530Y011647D02*
X031588Y011647D01*
X032530Y013139D02*
X028140Y013139D01*
X028219Y013217D02*
X032530Y013217D01*
X032530Y013296D02*
X028287Y013296D01*
X028320Y013374D02*
X032530Y013374D01*
X032530Y013453D02*
X028352Y013453D01*
X028372Y013531D02*
X032530Y013531D01*
X032530Y013610D02*
X028372Y013610D01*
X028372Y013688D02*
X032530Y013688D01*
X032530Y013767D02*
X028361Y013767D01*
X028329Y013845D02*
X032530Y013845D01*
X032530Y013924D02*
X028296Y013924D01*
X028241Y014002D02*
X032530Y014002D01*
X032530Y014081D02*
X028162Y014081D01*
X028045Y014159D02*
X032530Y014159D01*
X032530Y014238D02*
X029923Y014238D01*
X029788Y014238D02*
X029647Y014238D01*
X029512Y014238D02*
X029372Y014238D01*
X029237Y014238D02*
X029096Y014238D01*
X028961Y014238D02*
X028820Y014238D01*
X030071Y014316D02*
X032530Y014316D01*
X032530Y014395D02*
X030140Y014395D01*
X030173Y014473D02*
X032530Y014473D01*
X032530Y014552D02*
X030184Y014552D01*
X030184Y014630D02*
X032530Y014630D01*
X032530Y014709D02*
X030156Y014709D01*
X030184Y014787D02*
X032530Y014787D01*
X032530Y014866D02*
X030184Y014866D01*
X030169Y014944D02*
X032530Y014944D01*
X032530Y015023D02*
X030136Y015023D01*
X030060Y015101D02*
X032530Y015101D01*
X032530Y015965D02*
X020369Y015965D01*
X020427Y016043D02*
X032530Y016043D01*
X032530Y016122D02*
X020459Y016122D01*
X020469Y016200D02*
X032530Y016200D01*
X032530Y016279D02*
X020469Y016279D01*
X020444Y016357D02*
X032530Y016357D01*
X032530Y016436D02*
X020411Y016436D01*
X020333Y016514D02*
X032530Y016514D01*
X032530Y016593D02*
X028017Y016593D01*
X028014Y016590D02*
X028107Y016682D01*
X028157Y016803D01*
X028157Y016934D01*
X028107Y017055D01*
X028014Y017147D01*
X027893Y017197D01*
X027762Y017197D01*
X027642Y017147D01*
X027549Y017055D01*
X027499Y016934D01*
X027499Y016803D01*
X027549Y016682D01*
X027642Y016590D01*
X027762Y016540D01*
X027893Y016540D01*
X028014Y016590D01*
X028095Y016671D02*
X032530Y016671D01*
X032530Y016750D02*
X028134Y016750D01*
X028157Y016828D02*
X032530Y016828D01*
X032530Y016907D02*
X028157Y016907D01*
X028135Y016985D02*
X032530Y016985D01*
X032530Y017064D02*
X028098Y017064D01*
X028019Y017142D02*
X032530Y017142D01*
X032530Y018948D02*
X028305Y018948D01*
X028455Y019026D02*
X032530Y019026D01*
X032530Y019105D02*
X028533Y019105D01*
X028595Y019183D02*
X032530Y019183D01*
X032530Y019262D02*
X028627Y019262D01*
X028660Y019340D02*
X032530Y019340D01*
X032530Y019419D02*
X028667Y019419D01*
X028667Y019497D02*
X032530Y019497D01*
X032530Y019576D02*
X028667Y019576D01*
X028635Y019654D02*
X032530Y019654D01*
X032530Y019733D02*
X028602Y019733D01*
X028552Y019811D02*
X032530Y019811D01*
X032530Y019890D02*
X028473Y019890D01*
X028350Y019968D02*
X032530Y019968D01*
X027634Y018006D02*
X024482Y018006D01*
X024577Y017927D02*
X027555Y017927D01*
X027519Y017849D02*
X024624Y017849D01*
X024653Y017770D02*
X027499Y017770D01*
X027499Y017692D02*
X024653Y017692D01*
X024637Y017613D02*
X027522Y017613D01*
X027563Y017535D02*
X024605Y017535D01*
X024530Y017456D02*
X027642Y017456D01*
X027636Y017142D02*
X024496Y017142D01*
X024574Y017064D02*
X027558Y017064D01*
X027520Y016985D02*
X024612Y016985D01*
X024633Y016907D02*
X027499Y016907D01*
X027499Y016828D02*
X024633Y016828D01*
X024611Y016750D02*
X027521Y016750D01*
X027560Y016671D02*
X024572Y016671D01*
X024493Y016593D02*
X027639Y016593D01*
X027975Y015808D02*
X026460Y015808D01*
X026459Y015809D02*
X026338Y015859D01*
X026207Y015859D01*
X026086Y015809D01*
X025994Y015716D01*
X025944Y015595D01*
X025944Y015465D01*
X025994Y015344D01*
X026086Y015251D01*
X026207Y015201D01*
X026338Y015201D01*
X026459Y015251D01*
X026551Y015344D01*
X026601Y015465D01*
X026601Y015595D01*
X026551Y015716D01*
X026459Y015809D01*
X026539Y015729D02*
X027897Y015729D01*
X027857Y015651D02*
X026579Y015651D01*
X026601Y015572D02*
X027834Y015572D01*
X027834Y015494D02*
X026601Y015494D01*
X026581Y015415D02*
X027854Y015415D01*
X027891Y015337D02*
X026544Y015337D01*
X026466Y015258D02*
X027970Y015258D01*
X026080Y015258D02*
X024851Y015258D01*
X024825Y015232D02*
X024918Y015324D01*
X024968Y015445D01*
X024968Y015576D01*
X024918Y015697D01*
X024825Y015789D01*
X024704Y015839D01*
X024573Y015839D01*
X024453Y015789D01*
X024360Y015697D01*
X024310Y015576D01*
X024310Y015445D01*
X024360Y015324D01*
X024453Y015232D01*
X024573Y015182D01*
X024704Y015182D01*
X024825Y015232D01*
X024923Y015337D02*
X026001Y015337D01*
X025965Y015415D02*
X024955Y015415D01*
X024968Y015494D02*
X025944Y015494D01*
X025944Y015572D02*
X024968Y015572D01*
X024937Y015651D02*
X025967Y015651D01*
X026007Y015729D02*
X024885Y015729D01*
X024780Y015808D02*
X026085Y015808D01*
X024948Y015023D02*
X022995Y015023D01*
X023131Y014944D02*
X024868Y014944D01*
X024826Y014866D02*
X023195Y014866D01*
X023228Y014787D02*
X024802Y014787D01*
X024802Y014709D02*
X023235Y014709D01*
X023232Y014630D02*
X024822Y014630D01*
X024810Y014552D02*
X023211Y014552D01*
X023235Y014473D02*
X024802Y014473D01*
X024805Y014395D02*
X023235Y014395D01*
X023216Y014316D02*
X024838Y014316D01*
X024896Y014238D02*
X023181Y014238D01*
X023103Y014159D02*
X024185Y014159D01*
X024738Y014159D02*
X025015Y014159D01*
X024934Y014002D02*
X025643Y014002D01*
X025588Y013924D02*
X024989Y013924D01*
X025022Y013845D02*
X025555Y013845D01*
X025523Y013767D02*
X025054Y013767D01*
X025065Y013688D02*
X025512Y013688D01*
X025512Y013610D02*
X025065Y013610D01*
X025065Y013531D02*
X025512Y013531D01*
X025532Y013453D02*
X025045Y013453D01*
X025013Y013374D02*
X025564Y013374D01*
X025597Y013296D02*
X024980Y013296D01*
X024911Y013217D02*
X025665Y013217D01*
X025744Y013139D02*
X024833Y013139D01*
X024685Y013060D02*
X025892Y013060D01*
X025946Y012432D02*
X024631Y012432D01*
X024810Y012354D02*
X025767Y012354D01*
X025688Y012275D02*
X024889Y012275D01*
X024967Y012197D02*
X025610Y012197D01*
X025574Y012118D02*
X025003Y012118D01*
X025036Y012040D02*
X025541Y012040D01*
X025512Y011961D02*
X025065Y011961D01*
X025065Y011883D02*
X025512Y011883D01*
X025512Y011804D02*
X025065Y011804D01*
X025064Y011726D02*
X025513Y011726D01*
X025546Y011647D02*
X025031Y011647D01*
X024999Y011569D02*
X025578Y011569D01*
X025621Y011490D02*
X024956Y011490D01*
X024878Y011412D02*
X025699Y011412D01*
X025784Y011333D02*
X024793Y011333D01*
X024603Y011255D02*
X025973Y011255D01*
X025785Y010313D02*
X025748Y010313D01*
X025285Y010313D02*
X023323Y010313D01*
X023401Y010234D02*
X025207Y010234D01*
X025163Y010156D02*
X023445Y010156D01*
X023478Y010077D02*
X025131Y010077D01*
X025128Y009999D02*
X023480Y009999D01*
X023480Y009920D02*
X024095Y009920D01*
X024118Y009943D02*
X024026Y009850D01*
X023975Y009729D01*
X023975Y009598D01*
X024026Y009478D01*
X024118Y009385D01*
X024239Y009335D01*
X024370Y009335D01*
X024490Y009385D01*
X024583Y009478D01*
X024633Y009598D01*
X024633Y009729D01*
X024583Y009850D01*
X024490Y009943D01*
X024370Y009993D01*
X024239Y009993D01*
X024118Y009943D01*
X024022Y009842D02*
X023449Y009842D01*
X023409Y009763D02*
X023989Y009763D01*
X023975Y009685D02*
X023433Y009685D01*
X023466Y009606D02*
X023975Y009606D01*
X024005Y009528D02*
X023480Y009528D01*
X023480Y009449D02*
X024054Y009449D01*
X024153Y009371D02*
X023461Y009371D01*
X023428Y009292D02*
X025180Y009292D01*
X025187Y009214D02*
X023421Y009214D01*
X023454Y009135D02*
X025155Y009135D01*
X025128Y009057D02*
X023480Y009057D01*
X023480Y008978D02*
X025128Y008978D01*
X025136Y008900D02*
X023473Y008900D01*
X023440Y008821D02*
X025168Y008821D01*
X025220Y008743D02*
X023389Y008743D01*
X023309Y008664D02*
X025300Y008664D01*
X025734Y008664D02*
X025800Y008664D01*
X026234Y008664D02*
X026300Y008664D01*
X025148Y009371D02*
X024455Y009371D01*
X024554Y009449D02*
X025128Y009449D01*
X025128Y009528D02*
X024604Y009528D01*
X024633Y009606D02*
X025143Y009606D01*
X025175Y009685D02*
X024633Y009685D01*
X024619Y009763D02*
X025199Y009763D01*
X025160Y009842D02*
X024586Y009842D01*
X024513Y009920D02*
X025128Y009920D01*
X026248Y010313D02*
X026285Y010313D01*
X022860Y010313D02*
X022823Y010313D01*
X022360Y010313D02*
X022323Y010313D01*
X021860Y010313D02*
X017369Y010313D01*
X017448Y010234D02*
X021782Y010234D01*
X021738Y010156D02*
X017526Y010156D01*
X017605Y010077D02*
X018162Y010077D01*
X018116Y010031D01*
X018162Y010077D02*
X018265Y010120D01*
X018375Y010120D01*
X018478Y010077D01*
X017460Y009685D02*
X016453Y009685D01*
X016435Y009763D02*
X017381Y009763D01*
X017303Y009842D02*
X016391Y009842D01*
X016284Y009920D02*
X017224Y009920D01*
X017146Y009999D02*
X014671Y009999D01*
X014709Y010077D02*
X017067Y010077D01*
X016989Y010156D02*
X014731Y010156D01*
X014731Y010234D02*
X016910Y010234D01*
X016332Y009113D02*
X016230Y009155D01*
X016119Y009155D01*
X016016Y009113D01*
X015938Y009034D01*
X015896Y008932D01*
X015896Y008821D01*
X015896Y008900D02*
X015666Y008900D01*
X015666Y008932D02*
X015666Y008821D01*
X015633Y008743D02*
X015928Y008743D01*
X015993Y008664D02*
X015569Y008664D01*
X015643Y008350D02*
X015761Y008350D01*
X015958Y008350D02*
X016076Y008350D01*
X015446Y008350D02*
X013970Y008350D01*
X013970Y008272D02*
X015333Y008272D01*
X015286Y008193D02*
X013970Y008193D01*
X013970Y008115D02*
X015266Y008115D01*
X015266Y008036D02*
X013970Y008036D01*
X013970Y007958D02*
X015297Y007958D01*
X015286Y007879D02*
X013970Y007879D01*
X013970Y007801D02*
X015266Y007801D01*
X015266Y007722D02*
X013970Y007722D01*
X013970Y007644D02*
X015297Y007644D01*
X015287Y007565D02*
X013970Y007565D01*
X013970Y007487D02*
X015266Y007487D01*
X015266Y007408D02*
X013970Y007408D01*
X013970Y007330D02*
X015296Y007330D01*
X015287Y007251D02*
X013970Y007251D01*
X013970Y007173D02*
X015266Y007173D01*
X015266Y007094D02*
X013970Y007094D01*
X013970Y007016D02*
X015296Y007016D01*
X015287Y006937D02*
X013970Y006937D01*
X013970Y006859D02*
X015266Y006859D01*
X015266Y006780D02*
X013970Y006780D01*
X013970Y006702D02*
X015296Y006702D01*
X015356Y006623D02*
X013970Y006623D01*
X015593Y006309D02*
X015969Y006309D01*
X015918Y006230D02*
X015643Y006230D01*
X015666Y006152D02*
X015896Y006152D01*
X015896Y006073D02*
X015666Y006073D01*
X015637Y005995D02*
X015925Y005995D01*
X015984Y005916D02*
X015577Y005916D01*
X015590Y005524D02*
X015971Y005524D01*
X015919Y005445D02*
X015642Y005445D01*
X015666Y005367D02*
X015896Y005367D01*
X015896Y005288D02*
X015666Y005288D01*
X015638Y005210D02*
X015924Y005210D01*
X015982Y005131D02*
X015579Y005131D01*
X015595Y004189D02*
X015258Y004189D01*
X015122Y004189D02*
X014785Y004189D01*
X014650Y004189D02*
X014313Y004189D01*
X014177Y004189D02*
X013970Y004189D01*
X013970Y004111D02*
X014046Y004111D01*
X013992Y004032D02*
X013970Y004032D01*
X013773Y004073D02*
X014029Y004329D01*
X013970Y004346D02*
X018100Y004346D01*
X018100Y004268D02*
X013970Y004268D01*
X013970Y004425D02*
X018125Y004425D01*
X018179Y004503D02*
X013970Y004503D01*
X013536Y004624D02*
X009422Y004624D01*
X008989Y005058D01*
X008989Y009152D01*
X009344Y009506D01*
X013970Y009292D02*
X019192Y009292D01*
X019221Y009214D02*
X013970Y009214D01*
X013970Y009135D02*
X015283Y009135D01*
X015331Y009155D02*
X015229Y009113D01*
X015151Y009034D01*
X015108Y008932D01*
X015108Y008821D01*
X013970Y008821D01*
X013970Y008743D02*
X015141Y008743D01*
X015151Y008719D02*
X015229Y008640D01*
X015151Y008719D02*
X015108Y008821D01*
X015108Y008900D02*
X013970Y008900D01*
X013970Y008978D02*
X015127Y008978D01*
X015173Y009057D02*
X013970Y009057D01*
X015331Y009155D02*
X015442Y009155D01*
X015545Y009113D01*
X015623Y009034D01*
X015666Y008932D01*
X015647Y008978D02*
X015915Y008978D01*
X015960Y009057D02*
X015601Y009057D01*
X015491Y009135D02*
X016070Y009135D01*
X016278Y009135D02*
X019270Y009135D01*
X019368Y009057D02*
X016388Y009057D01*
X016411Y009034D02*
X016332Y009113D01*
X016411Y009034D02*
X016453Y008932D01*
X016434Y008978D02*
X021703Y008978D01*
X021703Y009057D02*
X019674Y009057D01*
X019772Y009135D02*
X021729Y009135D01*
X021762Y009214D02*
X020907Y009214D01*
X020992Y009292D02*
X021755Y009292D01*
X021723Y009371D02*
X021035Y009371D01*
X021060Y009449D02*
X021703Y009449D01*
X021703Y009528D02*
X021060Y009528D01*
X021042Y009606D02*
X021717Y009606D01*
X021750Y009685D02*
X021008Y009685D01*
X020930Y009763D02*
X021774Y009763D01*
X020533Y009763D02*
X020359Y009763D01*
X020437Y009685D02*
X020454Y009685D01*
X019864Y009606D02*
X019729Y009606D01*
X019803Y009528D02*
X019842Y009528D01*
X019835Y009449D02*
X019842Y009449D01*
X019849Y009371D02*
X019863Y009371D01*
X019849Y009292D02*
X019900Y009292D01*
X019820Y009214D02*
X019979Y009214D01*
X020362Y009214D02*
X020556Y009214D01*
X020471Y009292D02*
X020441Y009292D01*
X022309Y008664D02*
X022375Y008664D01*
X020469Y007094D02*
X020376Y007187D01*
X019990Y007173D02*
X019807Y007173D01*
X019628Y007173D02*
X016453Y007173D01*
X016453Y007094D02*
X019509Y007094D01*
X019460Y007016D02*
X016423Y007016D01*
X016431Y006937D02*
X019439Y006937D01*
X019439Y006859D02*
X016453Y006859D01*
X016453Y006780D02*
X019469Y006780D01*
X019530Y006702D02*
X016423Y006702D01*
X016362Y006623D02*
X020019Y006623D01*
X019932Y006702D02*
X019905Y006702D01*
X021844Y005759D02*
X021961Y005759D01*
X022120Y005759D02*
X022237Y005759D01*
X022395Y005759D02*
X022512Y005759D01*
X022671Y005759D02*
X022788Y005759D01*
X022946Y005759D02*
X024186Y005759D01*
X024541Y005759D02*
X025025Y005759D01*
X024951Y005681D02*
X023071Y005681D01*
X023123Y005602D02*
X024918Y005602D01*
X024911Y005524D02*
X023146Y005524D01*
X023146Y005445D02*
X024923Y005445D01*
X024935Y005367D02*
X023118Y005367D01*
X023138Y005288D02*
X024911Y005288D01*
X024911Y005210D02*
X023146Y005210D01*
X023134Y005131D02*
X024939Y005131D01*
X024919Y005053D02*
X023122Y005053D01*
X023146Y004974D02*
X024911Y004974D01*
X024923Y004896D02*
X023146Y004896D01*
X023118Y004817D02*
X024936Y004817D01*
X024911Y004739D02*
X023138Y004739D01*
X023146Y004660D02*
X024911Y004660D01*
X024939Y004582D02*
X023135Y004582D01*
X023101Y004503D02*
X024996Y004503D01*
X025133Y004425D02*
X023019Y004425D01*
X025247Y004425D02*
X025409Y004425D01*
X025522Y004425D02*
X025685Y004425D01*
X025798Y004425D02*
X025960Y004425D01*
X026073Y004425D02*
X026236Y004425D01*
X018180Y004111D02*
X016806Y004111D01*
X016861Y004032D02*
X018126Y004032D01*
X018100Y003954D02*
X016886Y003954D01*
X016886Y003875D02*
X018100Y003875D01*
X018127Y003797D02*
X016860Y003797D01*
X016675Y004189D02*
X018127Y004189D01*
X016540Y004189D02*
X016203Y004189D01*
X016067Y004189D02*
X015730Y004189D01*
X015862Y004111D02*
X015936Y004111D01*
X016334Y004111D02*
X016408Y004111D01*
X015463Y004111D02*
X015389Y004111D01*
X014991Y004111D02*
X014917Y004111D01*
X014519Y004111D02*
X014444Y004111D01*
X013773Y004073D02*
X013615Y004073D01*
X013536Y004624D02*
X013536Y004644D01*
X024855Y014081D02*
X025722Y014081D01*
X025798Y014159D02*
X025839Y014159D01*
X025567Y014159D02*
X025522Y014159D01*
X025291Y014159D02*
X025246Y014159D01*
X024426Y015258D02*
X023060Y015258D01*
X023131Y015337D02*
X024355Y015337D01*
X024322Y015415D02*
X023164Y015415D01*
X023176Y015494D02*
X024310Y015494D01*
X024310Y015572D02*
X023176Y015572D01*
X023145Y015651D02*
X024341Y015651D01*
X024393Y015729D02*
X023094Y015729D01*
X022989Y015808D02*
X024497Y015808D01*
X022818Y015023D02*
X022719Y015023D01*
X022543Y015023D02*
X022444Y015023D01*
X022267Y015023D02*
X022168Y015023D01*
X021992Y015023D02*
X021892Y015023D01*
M02*
