%
M48
M72
T01C0.0157
T02C0.0197
T03C0.0276
T04C0.0400
T05C0.0512
T06C0.0810
T07C0.1200
%
T01
X3300Y2493
X2119Y3300
X5402Y3217
X7496Y2678
X11969Y3115
X11961Y3693
X12040Y2355
X13800Y2150
X14772Y2563
X17827Y1725
X18654Y1725
X19441Y1725
X20229Y1725
X20229Y937
X21016Y937
X21804Y937
X22591Y937
X23378Y937
X24166Y937
X24953Y937
X25741Y937
X26528Y937
X26528Y1725
X25741Y1725
X24441Y1725
X23890Y1725
X23300Y1725
X22315Y1725
X22315Y2276
X21567Y2276
X20032Y2945
X19402Y2945
X19402Y3575
X20032Y3575
X18260Y2276
X18654Y937
X19441Y937
X17827Y937
X17079Y937
X24166Y3300
X24953Y3300
X25741Y3300
X26528Y3300
X27315Y3930
X26528Y4087
X25741Y4087
X24953Y4087
X25741Y4874
X26528Y4874
X26528Y5662
X26331Y6292
X26331Y7040
X25032Y7552
X24244Y7552
X23457Y7552
X22374Y7847
X22079Y7847
X21784Y7847
X21489Y7847
X21193Y7847
X20898Y7847
X20603Y7847
X20603Y8142
X20898Y8142
X21193Y8142
X21193Y8437
X20898Y8437
X20603Y8437
X20603Y8733
X20898Y8733
X21193Y8733
X21489Y8733
X21784Y8733
X22079Y8733
X22374Y8733
X22374Y8437
X22079Y8437
X22079Y8142
X21784Y8142
X21784Y8437
X21489Y8437
X21489Y8142
X22374Y8142
X23457Y8339
X24244Y8339
X25032Y8339
X25032Y9126
X24244Y9126
X23457Y9126
X24520Y10662
X26737Y12197
X26737Y12689
X26737Y13162
X26737Y13571
X26737Y14063
X26737Y14563
X25701Y14563
X25701Y15111
X25701Y15701
X26528Y15741
X25701Y16292
X26528Y16528
X28300Y16489
X28300Y15701
X31725Y15111
X34284Y15819
X34874Y15819
X35465Y15819
X36449Y15819
X37945Y15898
X38536Y15898
X39126Y15898
X39126Y15307
X38536Y15307
X37945Y15307
X38851Y14323
X39126Y14323
X39126Y14048
X38851Y14048
X38851Y13772
X39126Y13772
X39126Y13496
X39126Y13221
X38851Y13221
X38851Y13496
X38851Y12945
X38851Y12670
X39126Y12670
X39126Y12945
X39126Y12394
X38851Y12394
X38575Y12394
X38300Y12394
X38024Y12394
X37748Y12394
X37473Y12394
X37197Y12394
X36922Y12394
X36922Y12119
X37197Y12119
X37473Y12119
X37748Y12119
X38024Y12119
X38300Y12119
X38575Y12119
X38851Y12119
X39126Y12119
X38024Y11843
X37748Y11843
X37473Y11843
X37197Y11843
X36922Y11843
X36646Y11843
X36370Y11843
X36095Y11843
X35819Y11843
X35819Y11567
X35819Y11292
X35819Y11016
X35819Y10741
X36095Y10741
X36370Y10741
X36646Y10741
X36922Y10741
X37197Y10741
X37473Y10741
X37748Y10741
X38024Y10741
X38024Y11016
X37748Y11016
X37473Y11016
X37197Y11016
X36922Y11016
X36646Y11016
X36370Y11016
X36095Y11016
X36095Y11292
X36095Y11567
X36370Y11567
X36370Y11292
X36646Y11292
X36646Y11567
X36922Y11567
X37197Y11567
X37197Y11292
X36922Y11292
X37473Y11292
X37473Y11567
X37748Y11567
X37748Y11292
X38024Y11292
X38024Y11567
X36331Y12315
X35859Y12315
X35969Y10142
X35969Y9867
X36244Y9867
X36244Y10142
X36520Y10142
X36520Y9867
X36796Y9867
X36796Y10142
X37071Y10142
X37071Y9867
X37347Y9867
X37347Y10142
X37622Y10142
X37622Y9867
X37898Y9867
X37898Y10142
X37898Y9591
X37622Y9591
X37347Y9591
X37347Y9315
X37622Y9315
X37898Y9315
X37898Y9040
X37622Y9040
X37347Y9040
X37071Y9040
X36796Y9040
X36796Y8764
X37071Y8764
X37347Y8764
X37622Y8764
X37898Y8764
X37898Y8489
X37622Y8489
X37347Y8489
X37071Y8489
X36796Y8489
X36520Y8489
X36244Y8489
X35969Y8489
X35693Y8489
X35418Y8489
X35142Y8489
X34867Y8489
X34591Y8489
X34315Y8489
X34040Y8489
X33764Y8489
X33489Y8489
X33213Y8489
X32937Y8489
X32937Y8764
X32937Y9040
X33213Y9040
X33489Y9040
X33764Y9040
X34040Y9040
X34315Y9040
X34315Y8764
X34040Y8764
X33764Y8764
X33489Y8764
X33213Y8764
X33213Y9315
X33489Y9315
X33764Y9315
X34040Y9315
X34315Y9315
X34315Y9591
X34040Y9591
X33764Y9591
X33489Y9591
X33213Y9591
X32937Y9591
X32937Y9315
X32937Y9867
X32937Y10142
X33213Y10142
X33213Y9867
X33489Y9867
X33489Y10142
X33764Y10142
X33764Y9867
X34040Y9867
X34040Y10142
X34315Y10142
X34315Y9867
X34591Y9867
X34591Y10142
X34867Y10142
X35142Y10142
X35142Y9867
X34867Y9867
X35418Y9867
X35418Y10142
X35693Y10142
X35693Y9867
X35693Y9591
X35418Y9591
X35418Y9315
X35693Y9315
X35969Y9315
X36244Y9315
X36244Y9591
X35969Y9591
X36520Y9591
X36520Y9315
X36796Y9315
X37071Y9315
X37071Y9591
X36796Y9591
X36520Y9040
X36244Y9040
X35969Y9040
X35693Y9040
X35418Y9040
X35418Y8764
X35693Y8764
X35969Y8764
X36244Y8764
X36520Y8764
X35142Y8764
X34867Y8764
X34867Y9040
X35142Y9040
X34591Y9040
X34591Y8764
X34591Y9315
X34867Y9315
X35142Y9315
X35142Y9591
X34867Y9591
X34591Y9591
X35937Y7788
X36685Y7713
X36685Y7437
X36685Y7162
X36410Y7162
X36134Y7162
X35859Y7162
X35859Y6886
X36134Y6886
X36134Y6611
X35859Y6611
X36410Y6611
X36410Y6886
X36685Y6886
X36685Y6611
X36961Y6611
X36961Y6886
X37237Y6886
X37512Y6886
X37512Y6611
X37237Y6611
X37237Y6335
X37512Y6335
X37512Y6059
X37237Y6059
X36961Y6059
X36685Y6059
X36410Y6059
X36134Y6059
X35859Y6059
X35859Y6335
X36134Y6335
X36410Y6335
X36685Y6335
X36961Y6335
X37788Y6335
X38063Y6335
X38063Y6059
X37788Y6059
X38339Y6059
X38615Y6059
X38890Y6059
X39166Y6059
X39166Y6335
X38890Y6335
X38615Y6335
X38339Y6335
X38339Y6611
X38615Y6611
X38890Y6611
X39166Y6611
X38063Y6611
X37788Y6611
X37788Y6886
X38063Y6886
X38063Y7162
X37788Y7162
X37788Y7437
X38063Y7437
X38063Y7713
X37788Y7713
X37512Y7713
X37237Y7713
X37237Y7437
X37237Y7162
X37512Y7162
X37512Y7437
X36961Y7437
X36961Y7162
X36961Y7713
X37237Y5784
X37512Y5784
X37512Y5508
X37512Y5233
X37237Y5233
X37237Y5508
X37788Y5508
X37788Y5233
X38063Y5233
X38063Y5508
X38063Y5784
X37788Y5784
X38339Y5784
X38615Y5784
X38890Y5784
X38890Y5508
X38890Y5233
X38615Y5233
X38615Y5508
X38339Y5508
X38339Y5233
X38339Y4957
X38339Y4681
X38615Y4681
X38890Y4681
X39166Y4681
X39166Y4957
X38890Y4957
X38615Y4957
X38063Y4957
X37788Y4957
X37788Y4681
X38063Y4681
X37512Y4681
X37237Y4681
X37237Y4957
X37512Y4957
X37512Y4406
X37237Y4406
X37788Y4406
X38063Y4406
X38339Y4406
X38615Y4406
X38890Y4406
X39166Y4406
X39166Y5233
X39166Y5508
X39166Y5784
X34717Y3418
X34008Y2906
X32709Y2945
X30189Y3496
X29756Y4205
X27000Y2630
X26528Y2512
X25741Y2512
X24953Y2512
X28300Y1725
X28300Y1134
X29284Y1134
X30268Y1134
X30268Y1725
X29284Y1725
X31252Y1725
X32237Y1725
X33221Y1725
X33221Y1134
X32237Y1134
X31252Y1134
X34205Y1134
X35189Y1134
X35189Y1725
X34205Y1725
X24855Y5229
X24426Y5225
X23996Y5221
X19520Y7552
X18733Y7552
X18733Y8339
X19520Y8339
X19520Y9126
X18733Y9126
X17945Y9126
X17945Y8339
X17158Y8339
X13402Y8615
X12158Y8260
X11843Y7355
X10268Y8300
X10819Y8378
X10111Y8890
X10662Y9244
X9874Y9363
X9284Y9874
X9359Y10449
X8595Y10957
X7764Y10918
X6201Y11130
X5737Y10748
X6343Y9898
X5772Y9792
X5307Y9575
X4343Y10882
X4867Y11461
X3142Y11843
X2355Y11843
X3792Y12630
X2552Y14205
X2552Y14638
X2552Y15071
X2000Y15071
X1449Y15071
X898Y15071
X898Y14638
X1449Y14638
X2000Y14638
X2000Y14205
X1449Y14205
X898Y14205
X9028Y15996
X11851Y14319
X11752Y13717
X12008Y13185
X11307Y13272
X13461Y11752
X12040Y10741
X10583Y10701
X10493Y10063
X9756Y11292
X14914Y13040
X16489Y12748
X17079Y12748
X17867Y12748
X18733Y12394
X17079Y11961
X16489Y11961
X16489Y11174
X17079Y11174
X16489Y13811
X16489Y14520
X17079Y14520
X15465Y15622
X14528Y14870
X19205Y14874
X19835Y14599
X20465Y14599
X21016Y14599
X21646Y14599
X24835Y13969
X29638Y11646
X29638Y11134
X26764Y8575
X26764Y7827
X30189Y8457
X18339Y6449
X18496Y5111
X15504Y4402
X13890Y5150
X14323Y5347
X15111Y5347
X15426Y6528
X8733Y8339
X7197Y7315
X5780Y7004
X4748Y7040
X4256Y7347
X3441Y7008
X1930Y6835
X5662Y5268
X6792Y4996
X7611Y5016
X8130Y5024
X21804Y16922
X22591Y16922
X22591Y17709
X23378Y17709
X24166Y17709
X24244Y17237
X24953Y17709
X25741Y17709
X26528Y17709
X26528Y18496
X25741Y18496
X24953Y18496
X24166Y18496
X23378Y18496
X22591Y18496
X18811Y18496
X18536Y18496
X18260Y18496
X17985Y18496
X17709Y18496
X17433Y18496
X17158Y18496
X16882Y18496
X16607Y18496
X16331Y18496
X28300Y18260
X28890Y18260
X28890Y17670
X28300Y17670
X30662Y17670
X31252Y17670
X31252Y18260
X30662Y18260
T02
X37126Y14233
X37626Y14233
X37626Y13733
X37126Y13733
X37126Y13233
X37626Y13233
X38126Y13233
X38126Y13733
X38126Y14233
X34126Y12028
X33626Y12028
X33126Y12028
X33126Y11528
X33626Y11528
X33626Y11028
X33126Y11028
X34126Y11028
X34126Y11528
X31981Y10449
X31481Y10449
X30981Y10449
X30981Y9949
X31481Y9949
X31981Y9949
X31981Y9449
X31481Y9449
X30981Y9449
X33126Y7540
X33626Y7540
X34126Y7540
X34126Y7040
X33626Y7040
X33126Y7040
X33126Y6540
X33626Y6540
X34126Y6540
X35461Y5335
X35961Y5335
X36461Y5335
X36461Y4835
X35961Y4835
X35461Y4835
X35461Y4335
X35961Y4335
X36461Y4335
X31981Y6433
X31481Y6433
X30981Y6433
X30981Y6933
X31481Y6933
X31981Y6933
X31981Y7433
X31481Y7433
X30981Y7433
T03
X29580Y16037
X29580Y18037
T04
X15048Y18142
X14048Y18142
X13048Y18142
X12048Y18142
X11048Y18142
X10048Y18142
X8752Y18142
X7752Y18142
X6752Y18142
X5752Y18142
X4752Y18142
X3752Y18142
X1184Y12705
X1084Y11705
X1184Y10705
X1084Y9705
X1184Y8705
X1084Y7705
X1084Y5930
X1184Y4930
X1084Y3930
X3811Y1077
X4811Y977
X5811Y1077
X6811Y977
X7811Y1077
X8811Y977
X10307Y1027
X11307Y927
X12307Y1027
X13307Y927
X14307Y1027
X15307Y927
T05
X38721Y7355
X38721Y9323
X38721Y11292
T06
X35205Y18024
X33205Y18024
T07
X1725Y1725
X1607Y17591
X38260Y17591
X38142Y1725
M30
