G75*
%MOIN*%
%OFA0B0*%
%FSLAX24Y24*%
%IPPOS*%
%LPD*%
%AMOC8*
5,1,8,0,0,1.08239X$1,22.5*
%
%ADD10C,0.0000*%
%ADD11R,0.0315X0.0472*%
%ADD12C,0.0740*%
%ADD13R,0.0472X0.0315*%
%ADD14R,0.0630X0.0709*%
%ADD15R,0.0709X0.0630*%
%ADD16R,0.0197X0.0394*%
%ADD17R,0.0780X0.0220*%
%ADD18R,0.0630X0.0460*%
%ADD19C,0.0650*%
%ADD20R,0.0650X0.0650*%
%ADD21R,0.1380X0.2000*%
%ADD22R,0.0650X0.0236*%
%ADD23R,0.1811X0.1772*%
%ADD24R,0.0397X0.0397*%
%ADD25R,0.0236X0.0650*%
%ADD26R,0.1772X0.1811*%
%ADD27R,0.0140X0.0660*%
%ADD28C,0.0236*%
%ADD29R,0.0551X0.0118*%
%ADD30R,0.1370X0.1740*%
%ADD31R,0.0100X0.0100*%
%ADD32C,0.0515*%
%ADD33R,0.0515X0.0515*%
%ADD34R,0.0827X0.0827*%
%ADD35C,0.0827*%
%ADD36R,0.0580X0.0110*%
%ADD37R,0.0110X0.0580*%
%ADD38OC8,0.0740*%
%ADD39R,0.0554X0.0554*%
%ADD40C,0.0554*%
%ADD41R,0.0670X0.0630*%
%ADD42R,0.0240X0.0370*%
%ADD43R,0.0370X0.0240*%
%ADD44R,0.0886X0.0433*%
%ADD45R,0.1201X0.0803*%
%ADD46R,0.0866X0.1220*%
%ADD47R,0.0488X0.0551*%
%ADD48R,0.0787X0.0472*%
%ADD49R,0.0472X0.0787*%
%ADD50R,0.0140X0.0390*%
%ADD51R,0.0390X0.0140*%
%ADD52R,0.1240X0.1240*%
%ADD53C,0.0100*%
%ADD54R,0.0277X0.0277*%
%ADD55C,0.0120*%
%ADD56C,0.0080*%
%ADD57C,0.0079*%
%ADD58C,0.0320*%
%ADD59C,0.0240*%
%ADD60C,0.0400*%
%ADD61C,0.0160*%
D10*
X001820Y000150D02*
X038130Y000150D01*
X038208Y000152D01*
X038286Y000158D01*
X038363Y000167D01*
X038440Y000180D01*
X038516Y000198D01*
X038591Y000218D01*
X038665Y000243D01*
X038737Y000271D01*
X038809Y000302D01*
X038878Y000337D01*
X038946Y000376D01*
X039012Y000417D01*
X039075Y000462D01*
X039137Y000510D01*
X039196Y000561D01*
X039252Y000615D01*
X039306Y000671D01*
X039357Y000730D01*
X039405Y000792D01*
X039450Y000855D01*
X039491Y000921D01*
X039530Y000989D01*
X039565Y001058D01*
X039596Y001130D01*
X039624Y001202D01*
X039649Y001276D01*
X039669Y001351D01*
X039687Y001427D01*
X039700Y001504D01*
X039709Y001581D01*
X039715Y001659D01*
X039717Y001737D01*
X039717Y017683D01*
X039715Y017754D01*
X039710Y017826D01*
X039700Y017896D01*
X039687Y017967D01*
X039671Y018036D01*
X039650Y018104D01*
X039626Y018172D01*
X039599Y018238D01*
X039568Y018302D01*
X039534Y018365D01*
X039497Y018426D01*
X039456Y018485D01*
X039413Y018541D01*
X039367Y018596D01*
X039317Y018647D01*
X039266Y018697D01*
X039211Y018743D01*
X039155Y018786D01*
X039096Y018827D01*
X039035Y018864D01*
X038972Y018898D01*
X038908Y018929D01*
X038842Y018956D01*
X038774Y018980D01*
X038706Y019001D01*
X038637Y019017D01*
X038566Y019030D01*
X038496Y019040D01*
X038424Y019045D01*
X038353Y019047D01*
X038353Y019048D02*
X001380Y019048D01*
X001311Y019046D01*
X001242Y019040D01*
X001174Y019031D01*
X001106Y019017D01*
X001039Y019000D01*
X000974Y018979D01*
X000909Y018954D01*
X000846Y018926D01*
X000785Y018895D01*
X000726Y018859D01*
X000668Y018821D01*
X000613Y018780D01*
X000560Y018735D01*
X000510Y018688D01*
X000463Y018638D01*
X000418Y018585D01*
X000377Y018530D01*
X000339Y018472D01*
X000303Y018413D01*
X000272Y018352D01*
X000244Y018289D01*
X000219Y018224D01*
X000198Y018159D01*
X000181Y018092D01*
X000167Y018024D01*
X000158Y017956D01*
X000152Y017887D01*
X000150Y017818D01*
X000150Y001820D01*
X001125Y001725D02*
X001127Y001774D01*
X001133Y001822D01*
X001143Y001870D01*
X001157Y001917D01*
X001174Y001963D01*
X001195Y002007D01*
X001220Y002049D01*
X001248Y002089D01*
X001280Y002127D01*
X001314Y002162D01*
X001351Y002194D01*
X001390Y002223D01*
X001432Y002249D01*
X001476Y002271D01*
X001521Y002289D01*
X001568Y002304D01*
X001615Y002315D01*
X001664Y002322D01*
X001713Y002325D01*
X001762Y002324D01*
X001810Y002319D01*
X001859Y002310D01*
X001906Y002297D01*
X001952Y002280D01*
X001996Y002260D01*
X002039Y002236D01*
X002080Y002209D01*
X002118Y002178D01*
X002154Y002145D01*
X002186Y002109D01*
X002216Y002070D01*
X002243Y002029D01*
X002266Y001985D01*
X002285Y001940D01*
X002301Y001894D01*
X002313Y001847D01*
X002321Y001798D01*
X002325Y001749D01*
X002325Y001701D01*
X002321Y001652D01*
X002313Y001603D01*
X002301Y001556D01*
X002285Y001510D01*
X002266Y001465D01*
X002243Y001421D01*
X002216Y001380D01*
X002186Y001341D01*
X002154Y001305D01*
X002118Y001272D01*
X002080Y001241D01*
X002039Y001214D01*
X001996Y001190D01*
X001952Y001170D01*
X001906Y001153D01*
X001859Y001140D01*
X001810Y001131D01*
X001762Y001126D01*
X001713Y001125D01*
X001664Y001128D01*
X001615Y001135D01*
X001568Y001146D01*
X001521Y001161D01*
X001476Y001179D01*
X001432Y001201D01*
X001390Y001227D01*
X001351Y001256D01*
X001314Y001288D01*
X001280Y001323D01*
X001248Y001361D01*
X001220Y001401D01*
X001195Y001443D01*
X001174Y001487D01*
X001157Y001533D01*
X001143Y001580D01*
X001133Y001628D01*
X001127Y001676D01*
X001125Y001725D01*
X000150Y001820D02*
X000152Y001741D01*
X000158Y001661D01*
X000167Y001582D01*
X000180Y001504D01*
X000197Y001426D01*
X000218Y001350D01*
X000242Y001274D01*
X000270Y001199D01*
X000301Y001126D01*
X000336Y001055D01*
X000374Y000985D01*
X000415Y000917D01*
X000460Y000851D01*
X000507Y000788D01*
X000558Y000726D01*
X000611Y000668D01*
X000668Y000611D01*
X000726Y000558D01*
X000788Y000507D01*
X000851Y000460D01*
X000917Y000415D01*
X000985Y000374D01*
X001055Y000336D01*
X001126Y000301D01*
X001199Y000270D01*
X001274Y000242D01*
X001350Y000218D01*
X001426Y000197D01*
X001504Y000180D01*
X001582Y000167D01*
X001661Y000158D01*
X001741Y000152D01*
X001820Y000150D01*
X000603Y009756D02*
X000605Y009787D01*
X000611Y009818D01*
X000620Y009848D01*
X000633Y009877D01*
X000650Y009904D01*
X000670Y009928D01*
X000692Y009950D01*
X000718Y009969D01*
X000745Y009985D01*
X000774Y009997D01*
X000804Y010006D01*
X000835Y010011D01*
X000867Y010012D01*
X000898Y010009D01*
X000929Y010002D01*
X000959Y009992D01*
X000987Y009978D01*
X001013Y009960D01*
X001037Y009940D01*
X001058Y009916D01*
X001077Y009891D01*
X001092Y009863D01*
X001103Y009834D01*
X001111Y009803D01*
X001115Y009772D01*
X001115Y009740D01*
X001111Y009709D01*
X001103Y009678D01*
X001092Y009649D01*
X001077Y009621D01*
X001058Y009596D01*
X001037Y009572D01*
X001013Y009552D01*
X000987Y009534D01*
X000959Y009520D01*
X000929Y009510D01*
X000898Y009503D01*
X000867Y009500D01*
X000835Y009501D01*
X000804Y009506D01*
X000774Y009515D01*
X000745Y009527D01*
X000718Y009543D01*
X000692Y009562D01*
X000670Y009584D01*
X000650Y009608D01*
X000633Y009635D01*
X000620Y009664D01*
X000611Y009694D01*
X000605Y009725D01*
X000603Y009756D01*
X003555Y012433D02*
X003557Y012464D01*
X003563Y012495D01*
X003572Y012525D01*
X003585Y012554D01*
X003602Y012581D01*
X003622Y012605D01*
X003644Y012627D01*
X003670Y012646D01*
X003697Y012662D01*
X003726Y012674D01*
X003756Y012683D01*
X003787Y012688D01*
X003819Y012689D01*
X003850Y012686D01*
X003881Y012679D01*
X003911Y012669D01*
X003939Y012655D01*
X003965Y012637D01*
X003989Y012617D01*
X004010Y012593D01*
X004029Y012568D01*
X004044Y012540D01*
X004055Y012511D01*
X004063Y012480D01*
X004067Y012449D01*
X004067Y012417D01*
X004063Y012386D01*
X004055Y012355D01*
X004044Y012326D01*
X004029Y012298D01*
X004010Y012273D01*
X003989Y012249D01*
X003965Y012229D01*
X003939Y012211D01*
X003911Y012197D01*
X003881Y012187D01*
X003850Y012180D01*
X003819Y012177D01*
X003787Y012178D01*
X003756Y012183D01*
X003726Y012192D01*
X003697Y012204D01*
X003670Y012220D01*
X003644Y012239D01*
X003622Y012261D01*
X003602Y012285D01*
X003585Y012312D01*
X003572Y012341D01*
X003563Y012371D01*
X003557Y012402D01*
X003555Y012433D01*
X003555Y015229D02*
X003557Y015260D01*
X003563Y015291D01*
X003572Y015321D01*
X003585Y015350D01*
X003602Y015377D01*
X003622Y015401D01*
X003644Y015423D01*
X003670Y015442D01*
X003697Y015458D01*
X003726Y015470D01*
X003756Y015479D01*
X003787Y015484D01*
X003819Y015485D01*
X003850Y015482D01*
X003881Y015475D01*
X003911Y015465D01*
X003939Y015451D01*
X003965Y015433D01*
X003989Y015413D01*
X004010Y015389D01*
X004029Y015364D01*
X004044Y015336D01*
X004055Y015307D01*
X004063Y015276D01*
X004067Y015245D01*
X004067Y015213D01*
X004063Y015182D01*
X004055Y015151D01*
X004044Y015122D01*
X004029Y015094D01*
X004010Y015069D01*
X003989Y015045D01*
X003965Y015025D01*
X003939Y015007D01*
X003911Y014993D01*
X003881Y014983D01*
X003850Y014976D01*
X003819Y014973D01*
X003787Y014974D01*
X003756Y014979D01*
X003726Y014988D01*
X003697Y015000D01*
X003670Y015016D01*
X003644Y015035D01*
X003622Y015057D01*
X003602Y015081D01*
X003585Y015108D01*
X003572Y015137D01*
X003563Y015167D01*
X003557Y015198D01*
X003555Y015229D01*
X001125Y017473D02*
X001127Y017522D01*
X001133Y017570D01*
X001143Y017618D01*
X001157Y017665D01*
X001174Y017711D01*
X001195Y017755D01*
X001220Y017797D01*
X001248Y017837D01*
X001280Y017875D01*
X001314Y017910D01*
X001351Y017942D01*
X001390Y017971D01*
X001432Y017997D01*
X001476Y018019D01*
X001521Y018037D01*
X001568Y018052D01*
X001615Y018063D01*
X001664Y018070D01*
X001713Y018073D01*
X001762Y018072D01*
X001810Y018067D01*
X001859Y018058D01*
X001906Y018045D01*
X001952Y018028D01*
X001996Y018008D01*
X002039Y017984D01*
X002080Y017957D01*
X002118Y017926D01*
X002154Y017893D01*
X002186Y017857D01*
X002216Y017818D01*
X002243Y017777D01*
X002266Y017733D01*
X002285Y017688D01*
X002301Y017642D01*
X002313Y017595D01*
X002321Y017546D01*
X002325Y017497D01*
X002325Y017449D01*
X002321Y017400D01*
X002313Y017351D01*
X002301Y017304D01*
X002285Y017258D01*
X002266Y017213D01*
X002243Y017169D01*
X002216Y017128D01*
X002186Y017089D01*
X002154Y017053D01*
X002118Y017020D01*
X002080Y016989D01*
X002039Y016962D01*
X001996Y016938D01*
X001952Y016918D01*
X001906Y016901D01*
X001859Y016888D01*
X001810Y016879D01*
X001762Y016874D01*
X001713Y016873D01*
X001664Y016876D01*
X001615Y016883D01*
X001568Y016894D01*
X001521Y016909D01*
X001476Y016927D01*
X001432Y016949D01*
X001390Y016975D01*
X001351Y017004D01*
X001314Y017036D01*
X001280Y017071D01*
X001248Y017109D01*
X001220Y017149D01*
X001195Y017191D01*
X001174Y017235D01*
X001157Y017281D01*
X001143Y017328D01*
X001133Y017376D01*
X001127Y017424D01*
X001125Y017473D01*
X012847Y016922D02*
X012849Y016953D01*
X012855Y016984D01*
X012864Y017014D01*
X012877Y017043D01*
X012894Y017070D01*
X012914Y017094D01*
X012936Y017116D01*
X012962Y017135D01*
X012989Y017151D01*
X013018Y017163D01*
X013048Y017172D01*
X013079Y017177D01*
X013111Y017178D01*
X013142Y017175D01*
X013173Y017168D01*
X013203Y017158D01*
X013231Y017144D01*
X013257Y017126D01*
X013281Y017106D01*
X013302Y017082D01*
X013321Y017057D01*
X013336Y017029D01*
X013347Y017000D01*
X013355Y016969D01*
X013359Y016938D01*
X013359Y016906D01*
X013355Y016875D01*
X013347Y016844D01*
X013336Y016815D01*
X013321Y016787D01*
X013302Y016762D01*
X013281Y016738D01*
X013257Y016718D01*
X013231Y016700D01*
X013203Y016686D01*
X013173Y016676D01*
X013142Y016669D01*
X013111Y016666D01*
X013079Y016667D01*
X013048Y016672D01*
X013018Y016681D01*
X012989Y016693D01*
X012962Y016709D01*
X012936Y016728D01*
X012914Y016750D01*
X012894Y016774D01*
X012877Y016801D01*
X012864Y016830D01*
X012855Y016860D01*
X012849Y016891D01*
X012847Y016922D01*
X037739Y017473D02*
X037741Y017522D01*
X037747Y017570D01*
X037757Y017618D01*
X037771Y017665D01*
X037788Y017711D01*
X037809Y017755D01*
X037834Y017797D01*
X037862Y017837D01*
X037894Y017875D01*
X037928Y017910D01*
X037965Y017942D01*
X038004Y017971D01*
X038046Y017997D01*
X038090Y018019D01*
X038135Y018037D01*
X038182Y018052D01*
X038229Y018063D01*
X038278Y018070D01*
X038327Y018073D01*
X038376Y018072D01*
X038424Y018067D01*
X038473Y018058D01*
X038520Y018045D01*
X038566Y018028D01*
X038610Y018008D01*
X038653Y017984D01*
X038694Y017957D01*
X038732Y017926D01*
X038768Y017893D01*
X038800Y017857D01*
X038830Y017818D01*
X038857Y017777D01*
X038880Y017733D01*
X038899Y017688D01*
X038915Y017642D01*
X038927Y017595D01*
X038935Y017546D01*
X038939Y017497D01*
X038939Y017449D01*
X038935Y017400D01*
X038927Y017351D01*
X038915Y017304D01*
X038899Y017258D01*
X038880Y017213D01*
X038857Y017169D01*
X038830Y017128D01*
X038800Y017089D01*
X038768Y017053D01*
X038732Y017020D01*
X038694Y016989D01*
X038653Y016962D01*
X038610Y016938D01*
X038566Y016918D01*
X038520Y016901D01*
X038473Y016888D01*
X038424Y016879D01*
X038376Y016874D01*
X038327Y016873D01*
X038278Y016876D01*
X038229Y016883D01*
X038182Y016894D01*
X038135Y016909D01*
X038090Y016927D01*
X038046Y016949D01*
X038004Y016975D01*
X037965Y017004D01*
X037928Y017036D01*
X037894Y017071D01*
X037862Y017109D01*
X037834Y017149D01*
X037809Y017191D01*
X037788Y017235D01*
X037771Y017281D01*
X037757Y017328D01*
X037747Y017376D01*
X037741Y017424D01*
X037739Y017473D01*
X037739Y001725D02*
X037741Y001774D01*
X037747Y001822D01*
X037757Y001870D01*
X037771Y001917D01*
X037788Y001963D01*
X037809Y002007D01*
X037834Y002049D01*
X037862Y002089D01*
X037894Y002127D01*
X037928Y002162D01*
X037965Y002194D01*
X038004Y002223D01*
X038046Y002249D01*
X038090Y002271D01*
X038135Y002289D01*
X038182Y002304D01*
X038229Y002315D01*
X038278Y002322D01*
X038327Y002325D01*
X038376Y002324D01*
X038424Y002319D01*
X038473Y002310D01*
X038520Y002297D01*
X038566Y002280D01*
X038610Y002260D01*
X038653Y002236D01*
X038694Y002209D01*
X038732Y002178D01*
X038768Y002145D01*
X038800Y002109D01*
X038830Y002070D01*
X038857Y002029D01*
X038880Y001985D01*
X038899Y001940D01*
X038915Y001894D01*
X038927Y001847D01*
X038935Y001798D01*
X038939Y001749D01*
X038939Y001701D01*
X038935Y001652D01*
X038927Y001603D01*
X038915Y001556D01*
X038899Y001510D01*
X038880Y001465D01*
X038857Y001421D01*
X038830Y001380D01*
X038800Y001341D01*
X038768Y001305D01*
X038732Y001272D01*
X038694Y001241D01*
X038653Y001214D01*
X038610Y001190D01*
X038566Y001170D01*
X038520Y001153D01*
X038473Y001140D01*
X038424Y001131D01*
X038376Y001126D01*
X038327Y001125D01*
X038278Y001128D01*
X038229Y001135D01*
X038182Y001146D01*
X038135Y001161D01*
X038090Y001179D01*
X038046Y001201D01*
X038004Y001227D01*
X037965Y001256D01*
X037928Y001288D01*
X037894Y001323D01*
X037862Y001361D01*
X037834Y001401D01*
X037809Y001443D01*
X037788Y001487D01*
X037771Y001533D01*
X037757Y001580D01*
X037747Y001628D01*
X037741Y001676D01*
X037739Y001725D01*
D11*
X032713Y003496D03*
X032004Y003496D03*
X018603Y003918D03*
X017894Y003918D03*
X018000Y006103D03*
X017292Y006103D03*
X013705Y009930D03*
X012996Y009930D03*
X016213Y012276D03*
X016922Y012276D03*
X016922Y012906D03*
X016213Y012906D03*
X016213Y013536D03*
X016213Y014166D03*
X016922Y014166D03*
X016922Y013536D03*
X016922Y014796D03*
X016213Y014796D03*
X014083Y013075D03*
X013374Y013075D03*
X007111Y015441D03*
X006402Y015441D03*
X005347Y015386D03*
X004638Y015386D03*
X004481Y016260D03*
X005099Y016268D03*
X005807Y016268D03*
X005780Y017237D03*
X005071Y017237D03*
X004481Y017237D03*
X003772Y017237D03*
X003772Y016260D03*
X004638Y011056D03*
X005347Y011056D03*
X017040Y018536D03*
X017748Y018536D03*
X020701Y016213D03*
X021410Y016213D03*
X021410Y015622D03*
X020701Y015622D03*
X020701Y015032D03*
X020701Y014441D03*
X021410Y014441D03*
X021410Y015032D03*
X027000Y014166D03*
X027709Y014166D03*
X028465Y013882D03*
X029174Y013882D03*
X029189Y014473D03*
X028481Y014473D03*
D12*
X008815Y018210D03*
X007815Y018310D03*
X006815Y018210D03*
X005815Y018310D03*
X004815Y018210D03*
X003815Y018310D03*
D13*
X009244Y016370D03*
X009835Y016370D03*
X010426Y016370D03*
X011016Y016370D03*
X011016Y015662D03*
X010426Y015662D03*
X009835Y015662D03*
X009244Y015662D03*
X009339Y013367D03*
X009339Y012658D03*
X011036Y012658D03*
X011036Y013367D03*
X013469Y013622D03*
X013469Y014331D03*
X017906Y013260D03*
X017906Y012552D03*
X019835Y010465D03*
X020544Y010465D03*
X020544Y009756D03*
X020544Y009323D03*
X019835Y009323D03*
X019835Y009756D03*
X018851Y009500D03*
X018851Y008792D03*
X019835Y008615D03*
X020544Y008615D03*
X026922Y007414D03*
X026922Y006705D03*
X026922Y005760D03*
X026922Y005052D03*
X026922Y004158D03*
X026922Y003449D03*
X023733Y002433D03*
X023181Y002433D03*
X023181Y001725D03*
X023733Y001725D03*
X019737Y001977D03*
X019737Y002685D03*
X009894Y005351D03*
X009894Y006059D03*
X005650Y011744D03*
X005650Y012453D03*
X020111Y015583D03*
X020111Y016292D03*
X027079Y013575D03*
X027630Y013575D03*
X027630Y012867D03*
X027079Y012867D03*
X027493Y015229D03*
X027493Y015937D03*
X027512Y017847D03*
X027512Y018556D03*
X037178Y015870D03*
X037178Y015162D03*
D14*
X027993Y010662D03*
X026890Y010662D03*
X017516Y006859D03*
X016414Y006859D03*
X016500Y010662D03*
X015398Y010662D03*
D15*
X009052Y005402D03*
X009052Y004300D03*
D16*
X009678Y014343D03*
X009993Y014343D03*
X010307Y014343D03*
X010622Y014343D03*
X010622Y014894D03*
X010307Y014894D03*
X009993Y014894D03*
X009678Y014894D03*
D17*
X007750Y014786D03*
X007750Y014286D03*
X007750Y013786D03*
X007750Y013286D03*
X005810Y013286D03*
X005810Y013786D03*
X005810Y014286D03*
X005810Y014786D03*
D18*
X006520Y012383D03*
X006520Y011783D03*
D19*
X022099Y012327D03*
X030210Y017879D03*
D20*
X030210Y015879D03*
X022099Y013327D03*
D21*
X033231Y013721D03*
X034861Y013721D03*
X033208Y004902D03*
X031578Y004902D03*
D22*
X034418Y005085D03*
X034418Y004585D03*
X034418Y004085D03*
X034418Y005585D03*
X035170Y006290D03*
X035170Y006790D03*
X035170Y007290D03*
X035170Y007790D03*
X035170Y010778D03*
X035170Y011278D03*
X035170Y011778D03*
X035170Y012278D03*
X036083Y012983D03*
X036083Y013483D03*
X036083Y013983D03*
X036083Y014483D03*
D23*
X037579Y013733D03*
X033674Y011528D03*
X033674Y007040D03*
X035914Y004835D03*
D24*
X035961Y004835D03*
X035461Y004835D03*
X035461Y004335D03*
X035961Y004335D03*
X036461Y004335D03*
X036461Y004835D03*
X036461Y005335D03*
X035961Y005335D03*
X035461Y005335D03*
X034126Y006540D03*
X033626Y006540D03*
X033126Y006540D03*
X033126Y007040D03*
X033126Y007540D03*
X033626Y007540D03*
X034126Y007540D03*
X034126Y007040D03*
X033626Y007040D03*
X031981Y006933D03*
X031481Y006933D03*
X030981Y006933D03*
X030981Y006433D03*
X031481Y006433D03*
X031981Y006433D03*
X031981Y007433D03*
X031481Y007433D03*
X030981Y007433D03*
X030981Y009449D03*
X031481Y009449D03*
X031981Y009449D03*
X031981Y009949D03*
X031481Y009949D03*
X030981Y009949D03*
X030981Y010449D03*
X031481Y010449D03*
X031981Y010449D03*
X033126Y011028D03*
X033126Y011528D03*
X033626Y011528D03*
X034126Y011528D03*
X034126Y011028D03*
X033626Y011028D03*
X033626Y012028D03*
X034126Y012028D03*
X033126Y012028D03*
X037126Y013233D03*
X037126Y013733D03*
X037626Y013733D03*
X038126Y013733D03*
X038126Y013233D03*
X037626Y013233D03*
X037626Y014233D03*
X038126Y014233D03*
X037126Y014233D03*
D25*
X032231Y011493D03*
X031731Y011493D03*
X031231Y011493D03*
X030731Y011493D03*
X030731Y008477D03*
X031231Y008477D03*
X031731Y008477D03*
X032231Y008477D03*
D26*
X031481Y006981D03*
X031481Y009996D03*
D27*
X007487Y006406D03*
X007227Y006406D03*
X006967Y006406D03*
X006717Y006406D03*
X006457Y006406D03*
X006207Y006406D03*
X005947Y006406D03*
X005687Y006406D03*
X005687Y004186D03*
X005947Y004186D03*
X006207Y004186D03*
X006457Y004186D03*
X006717Y004186D03*
X006967Y004186D03*
X007227Y004186D03*
X007487Y004186D03*
D28*
X017709Y008004D03*
X017717Y008378D03*
X017717Y008760D03*
X017721Y009154D03*
X019859Y007886D03*
X020355Y007957D03*
D29*
X020367Y007650D03*
X020367Y007453D03*
X020367Y007256D03*
X020367Y007059D03*
X020367Y006863D03*
X020367Y006666D03*
X020367Y006469D03*
X020367Y006272D03*
X020367Y006075D03*
X020367Y005878D03*
X020367Y005681D03*
X020367Y005485D03*
X020367Y005288D03*
X020367Y005091D03*
X020367Y004894D03*
X020367Y004697D03*
X020367Y004500D03*
X020367Y004304D03*
X020367Y004107D03*
X020367Y003910D03*
X020367Y003713D03*
X020367Y003516D03*
X020367Y003319D03*
X020367Y003122D03*
X023162Y003122D03*
X023162Y003319D03*
X023162Y003516D03*
X023162Y003713D03*
X023162Y003910D03*
X023162Y004107D03*
X023162Y004304D03*
X023162Y004500D03*
X023162Y004697D03*
X023162Y004894D03*
X023162Y005091D03*
X023162Y005288D03*
X023162Y005485D03*
X023162Y005681D03*
X023162Y005878D03*
X023162Y006075D03*
X023162Y006272D03*
X023162Y006469D03*
X023162Y006666D03*
X023162Y006863D03*
X023162Y007059D03*
X023162Y007256D03*
X023162Y007453D03*
X023162Y007650D03*
D30*
X021764Y005386D03*
D31*
X031981Y003059D03*
X031981Y002981D03*
X033378Y003496D03*
X033457Y003496D03*
X030268Y011705D03*
X030268Y011784D03*
X035607Y014953D03*
X035685Y014953D03*
X032079Y015111D03*
X032000Y015111D03*
D32*
X013890Y017670D03*
X003024Y014481D03*
X002237Y014481D03*
X002237Y011685D03*
X003024Y011685D03*
X001607Y008969D03*
X001607Y008181D03*
X001607Y007394D03*
X001607Y006607D03*
D33*
X001607Y005819D03*
X001449Y011685D03*
X001449Y014481D03*
X014678Y017670D03*
D34*
X033870Y018181D03*
X038674Y010957D03*
D35*
X036902Y010957D03*
X036902Y009304D03*
X038674Y009304D03*
X038674Y007650D03*
X036902Y007650D03*
X035524Y016016D03*
X033870Y016016D03*
X035524Y018181D03*
D36*
X012006Y011039D03*
X012006Y010839D03*
X012006Y010639D03*
X012006Y010449D03*
X012006Y010249D03*
X012006Y010049D03*
X012006Y009859D03*
X012006Y009659D03*
X012006Y009459D03*
X012006Y009259D03*
X012006Y009069D03*
X012006Y008869D03*
X012006Y008669D03*
X012006Y008479D03*
X012006Y008279D03*
X012006Y008079D03*
X007586Y008079D03*
X007586Y008279D03*
X007586Y008479D03*
X007586Y008669D03*
X007586Y008869D03*
X007586Y009069D03*
X007586Y009259D03*
X007586Y009459D03*
X007586Y009659D03*
X007586Y009859D03*
X007586Y010049D03*
X007586Y010249D03*
X007586Y010449D03*
X007586Y010639D03*
X007586Y010839D03*
X007586Y011039D03*
D37*
X008316Y011769D03*
X008516Y011769D03*
X008716Y011769D03*
X008906Y011769D03*
X009106Y011769D03*
X009306Y011769D03*
X009496Y011769D03*
X009696Y011769D03*
X009896Y011769D03*
X010096Y011769D03*
X010286Y011769D03*
X010486Y011769D03*
X010686Y011769D03*
X010876Y011769D03*
X011076Y011769D03*
X011276Y011769D03*
X011276Y007349D03*
X011076Y007349D03*
X010876Y007349D03*
X010686Y007349D03*
X010486Y007349D03*
X010286Y007349D03*
X010096Y007349D03*
X009896Y007349D03*
X009696Y007349D03*
X009496Y007349D03*
X009306Y007349D03*
X009106Y007349D03*
X008906Y007349D03*
X008716Y007349D03*
X008516Y007349D03*
X008316Y007349D03*
D38*
X006071Y008744D03*
X005071Y008744D03*
X004071Y008744D03*
X004071Y009744D03*
X005071Y009744D03*
X006071Y009744D03*
D39*
X009119Y001579D03*
D40*
X008119Y001579D03*
X007119Y001579D03*
X006119Y001579D03*
X005119Y001579D03*
X005119Y002579D03*
X006119Y002579D03*
X007119Y002579D03*
X008119Y002579D03*
X009119Y002579D03*
D41*
X022548Y015040D03*
X026528Y015040D03*
X026528Y018260D03*
X022548Y018260D03*
D42*
X023118Y018390D03*
X023478Y018390D03*
X023828Y018390D03*
X024188Y018390D03*
X024538Y018390D03*
X024888Y018390D03*
X025248Y018390D03*
X025598Y018390D03*
X025958Y018390D03*
X025958Y014910D03*
X025598Y014910D03*
X025248Y014910D03*
X024888Y014910D03*
X024538Y014910D03*
X024188Y014910D03*
X023828Y014910D03*
X023478Y014910D03*
X023118Y014910D03*
D43*
X022398Y015590D03*
X022398Y015940D03*
X022398Y016300D03*
X022398Y016650D03*
X022398Y017000D03*
X022398Y017360D03*
X022398Y017710D03*
X026678Y017710D03*
X026678Y017360D03*
X026678Y017000D03*
X026678Y016650D03*
X026678Y016300D03*
X026678Y015940D03*
X026678Y015590D03*
D44*
X025839Y016733D03*
D45*
X024020Y015603D03*
D46*
X024496Y017158D03*
X023126Y017158D03*
D47*
X022941Y015729D03*
D48*
X021528Y017237D03*
X020386Y017237D03*
X019244Y017237D03*
X019244Y018496D03*
X020386Y018496D03*
X021528Y018496D03*
D49*
X024067Y012965D03*
X025327Y012965D03*
X025347Y011804D03*
X025977Y011804D03*
X027237Y011804D03*
X024087Y011804D03*
D50*
X019912Y011966D03*
X019662Y011966D03*
X019402Y011966D03*
X019142Y011966D03*
X018892Y011966D03*
X018892Y013846D03*
X019142Y013846D03*
X019402Y013846D03*
X019662Y013846D03*
X019912Y013846D03*
X017825Y015785D03*
X017575Y015785D03*
X017315Y015785D03*
X017055Y015785D03*
X016805Y015785D03*
X016805Y017665D03*
X017055Y017665D03*
X017315Y017665D03*
X017575Y017665D03*
X017825Y017665D03*
D51*
X018255Y017235D03*
X018255Y016985D03*
X018255Y016725D03*
X018255Y016465D03*
X018255Y016215D03*
X016375Y016215D03*
X016375Y016465D03*
X016375Y016725D03*
X016375Y016985D03*
X016375Y017235D03*
X018462Y013416D03*
X018462Y013166D03*
X018462Y012906D03*
X018462Y012646D03*
X018462Y012396D03*
X020342Y012396D03*
X020342Y012646D03*
X020342Y012906D03*
X020342Y013166D03*
X020342Y013416D03*
D52*
X019402Y012906D03*
X017315Y016725D03*
D53*
X016375Y017235D02*
X016375Y018137D01*
X016174Y018339D01*
X016489Y018339D02*
X016805Y018022D01*
X016805Y017665D01*
X017055Y017665D02*
X017055Y018638D01*
X017040Y018536D01*
X017315Y018063D02*
X017315Y017665D01*
X015819Y017683D02*
X015105Y017683D01*
X015105Y017585D02*
X015819Y017585D01*
X015819Y017486D02*
X015105Y017486D01*
X015105Y017388D02*
X015819Y017388D01*
X015819Y017289D02*
X015052Y017289D01*
X015005Y017242D02*
X015105Y017342D01*
X015105Y017998D01*
X015005Y018097D01*
X014350Y018097D01*
X014250Y017998D01*
X014250Y017957D01*
X014149Y018058D01*
X013981Y018127D01*
X013799Y018127D01*
X013631Y018058D01*
X013502Y017929D01*
X013433Y017761D01*
X013433Y017579D01*
X013490Y017440D01*
X013490Y017099D01*
X013464Y017163D01*
X013344Y017283D01*
X013187Y017348D01*
X013018Y017348D01*
X012861Y017283D01*
X012742Y017163D01*
X012677Y017006D01*
X012677Y016837D01*
X012742Y016680D01*
X012861Y016561D01*
X013018Y016496D01*
X013187Y016496D01*
X013344Y016561D01*
X013464Y016680D01*
X013490Y016744D01*
X013490Y016133D01*
X013551Y015986D01*
X014968Y014569D01*
X015081Y014457D01*
X015228Y014396D01*
X015819Y014396D01*
X015819Y009699D01*
X013354Y009699D01*
X013354Y010249D01*
X013323Y010279D01*
X013323Y010687D01*
X013295Y010715D01*
X013549Y010969D01*
X013549Y012669D01*
X013602Y012669D01*
X013702Y012769D01*
X013702Y013295D01*
X013726Y013295D01*
X013726Y012756D01*
X013843Y012639D01*
X014323Y012639D01*
X014409Y012725D01*
X014781Y012725D01*
X014898Y012842D01*
X014898Y013285D01*
X014781Y013402D01*
X014433Y013402D01*
X014323Y013511D01*
X013875Y013511D01*
X013875Y013850D01*
X013776Y013950D01*
X013162Y013950D01*
X013063Y013850D01*
X013063Y013398D01*
X013047Y013382D01*
X013047Y012769D01*
X013129Y012687D01*
X013129Y011142D01*
X013036Y011049D01*
X012466Y011049D01*
X012466Y011165D01*
X012366Y011264D01*
X011645Y011264D01*
X011546Y011165D01*
X011546Y010027D01*
X011516Y009997D01*
X011516Y009722D01*
X011578Y009659D01*
X011553Y009635D01*
X011384Y009804D01*
X011325Y009863D01*
X011325Y009965D01*
X011225Y010065D01*
X011095Y010065D01*
X011128Y010098D01*
X011128Y010517D01*
X011121Y010524D01*
X011128Y010531D01*
X011128Y010556D01*
X011339Y010767D01*
X011462Y010890D01*
X011462Y011370D01*
X011501Y011409D01*
X011501Y012130D01*
X011401Y012229D01*
X011136Y012229D01*
X011136Y012300D01*
X011337Y012300D01*
X011346Y012292D01*
X011789Y012292D01*
X011906Y012409D01*
X011906Y012852D01*
X011789Y012969D01*
X011401Y012969D01*
X011355Y013015D01*
X010717Y013015D01*
X010706Y013004D01*
X010706Y013662D01*
X010714Y013670D01*
X010842Y013799D01*
X010842Y014027D01*
X010891Y014076D01*
X010891Y014610D01*
X010883Y014619D01*
X010891Y014627D01*
X010891Y014851D01*
X011107Y015068D01*
X011107Y015068D01*
X011236Y015197D01*
X011236Y015334D01*
X011323Y015334D01*
X011422Y015434D01*
X011422Y015890D01*
X011323Y015989D01*
X008938Y015989D01*
X008838Y015890D01*
X008838Y015434D01*
X008938Y015334D01*
X009024Y015334D01*
X009024Y015236D01*
X009409Y014851D01*
X009409Y014627D01*
X009417Y014619D01*
X009409Y014610D01*
X009409Y014076D01*
X009458Y014027D01*
X009458Y013760D01*
X009586Y013631D01*
X009694Y013523D01*
X009694Y012980D01*
X009658Y013015D01*
X009020Y013015D01*
X008974Y012969D01*
X008726Y012969D01*
X008726Y014745D01*
X008588Y014883D01*
X008465Y015006D01*
X008270Y015006D01*
X008210Y015066D01*
X008051Y015066D01*
X007958Y015158D01*
X007958Y015630D01*
X008057Y015728D01*
X008057Y016147D01*
X007958Y016246D01*
X007539Y016246D01*
X007457Y016164D01*
X007457Y016198D01*
X007340Y016316D01*
X006897Y016316D01*
X006780Y016198D01*
X006780Y015787D01*
X006753Y015760D01*
X006753Y015122D01*
X006851Y015025D01*
X006851Y014319D01*
X006890Y014223D01*
X006977Y014137D01*
X007050Y014063D01*
X007146Y014024D01*
X007229Y014024D01*
X007277Y013976D01*
X008223Y013976D01*
X008306Y014059D01*
X008306Y013470D01*
X008210Y013566D01*
X007290Y013566D01*
X007190Y013466D01*
X007190Y013105D01*
X007290Y013006D01*
X007361Y013006D01*
X007361Y012657D01*
X007461Y012558D01*
X007879Y012558D01*
X007978Y012657D01*
X007978Y013006D01*
X008087Y013006D01*
X008087Y011663D01*
X008091Y011659D01*
X008091Y011409D01*
X008190Y011309D01*
X008916Y011309D01*
X008916Y011049D01*
X008838Y011049D01*
X008739Y010950D01*
X008739Y010531D01*
X008838Y010432D01*
X009257Y010432D01*
X009284Y010459D01*
X009311Y010432D01*
X009729Y010432D01*
X009829Y010531D01*
X009829Y010950D01*
X009729Y011049D01*
X009533Y011049D01*
X009533Y011279D01*
X009634Y011279D01*
X009717Y011363D01*
X009770Y011309D01*
X010580Y011309D01*
X010457Y011186D01*
X010334Y011063D01*
X010334Y010339D01*
X010452Y010221D01*
X010511Y010163D01*
X010511Y010098D01*
X010610Y009999D01*
X010741Y009999D01*
X010707Y009965D01*
X010707Y009547D01*
X010734Y009520D01*
X010707Y009493D01*
X010707Y009075D01*
X010711Y009071D01*
X010711Y008661D01*
X010786Y008587D01*
X010707Y008509D01*
X010707Y008090D01*
X010807Y007991D01*
X011225Y007991D01*
X011305Y008070D01*
X011546Y008070D01*
X011546Y007954D01*
X011645Y007854D01*
X011798Y007854D01*
X011798Y006377D01*
X011486Y006690D01*
X011486Y006974D01*
X011501Y006989D01*
X011501Y007710D01*
X011401Y007809D01*
X010064Y007809D01*
X010034Y007839D01*
X009758Y007839D01*
X009728Y007809D01*
X009116Y007809D01*
X009116Y009513D01*
X008825Y009804D01*
X008726Y009902D01*
X008726Y009926D01*
X008627Y010026D01*
X008209Y010026D01*
X008109Y009926D01*
X008109Y009508D01*
X008136Y009481D01*
X008109Y009454D01*
X008109Y009035D01*
X008116Y009028D01*
X008109Y009021D01*
X008109Y008602D01*
X008209Y008503D01*
X008306Y008503D01*
X008306Y007809D01*
X008190Y007809D01*
X008091Y007710D01*
X008091Y007092D01*
X006992Y007092D01*
X006874Y006974D01*
X006751Y006851D01*
X006751Y006830D01*
X006727Y006806D01*
X006727Y006029D01*
X006727Y006819D01*
X006717Y006829D01*
X006717Y006970D01*
X006721Y006982D01*
X006717Y007021D01*
X006717Y007060D01*
X006712Y007072D01*
X006711Y007085D01*
X006709Y007088D01*
X006709Y007301D01*
X006592Y007418D01*
X006149Y007418D01*
X006032Y007301D01*
X006032Y006906D01*
X005961Y006906D01*
X005961Y007301D01*
X005844Y007418D01*
X005401Y007418D01*
X005284Y007301D01*
X005284Y006858D01*
X005401Y006740D01*
X005417Y006740D01*
X005417Y005993D01*
X005534Y005876D01*
X005727Y005876D01*
X005727Y005693D01*
X005850Y005570D01*
X006047Y005373D01*
X008190Y005373D01*
X008313Y005496D01*
X008527Y005711D01*
X008527Y005017D01*
X008627Y004917D01*
X009476Y004917D01*
X009576Y005017D01*
X009576Y005702D01*
X010047Y005702D01*
X010047Y005480D01*
X010165Y005362D01*
X010608Y005362D01*
X010725Y005480D01*
X010725Y005747D01*
X012378Y004094D01*
X015819Y004094D01*
X015819Y000320D01*
X001852Y000320D01*
X002165Y000370D01*
X002562Y000572D01*
X002562Y000572D01*
X002878Y000887D01*
X002878Y000887D01*
X003080Y001284D01*
X003080Y001284D01*
X003150Y001725D01*
X003080Y002165D01*
X003080Y002165D01*
X002878Y002562D01*
X002878Y002562D01*
X002562Y002878D01*
X002165Y003080D01*
X001725Y003150D01*
X001725Y003150D01*
X001284Y003080D01*
X000887Y002878D01*
X000572Y002562D01*
X000370Y002165D01*
X000320Y001852D01*
X000320Y017345D01*
X000370Y017032D01*
X000572Y016635D01*
X000887Y016320D01*
X000887Y016320D01*
X001284Y016118D01*
X001284Y016118D01*
X001725Y016048D01*
X002165Y016118D01*
X002562Y016320D01*
X002562Y016320D01*
X002878Y016635D01*
X002878Y016635D01*
X003080Y017032D01*
X003080Y017032D01*
X003150Y017473D01*
X003080Y017913D01*
X003080Y017913D01*
X002878Y018310D01*
X002878Y018310D01*
X002878Y018310D01*
X002562Y018626D01*
X002165Y018828D01*
X001852Y018878D01*
X015819Y018878D01*
X015819Y015196D01*
X015473Y015196D01*
X014290Y016379D01*
X014290Y017302D01*
X014350Y017242D01*
X015005Y017242D01*
X014303Y017289D02*
X014290Y017289D01*
X014290Y017191D02*
X015819Y017191D01*
X015819Y017092D02*
X014290Y017092D01*
X014290Y016994D02*
X015819Y016994D01*
X015819Y016895D02*
X014290Y016895D01*
X014290Y016797D02*
X015819Y016797D01*
X015819Y016698D02*
X014290Y016698D01*
X014290Y016600D02*
X015819Y016600D01*
X015819Y016501D02*
X014290Y016501D01*
X014290Y016403D02*
X015819Y016403D01*
X015819Y016304D02*
X014365Y016304D01*
X014463Y016206D02*
X015819Y016206D01*
X015819Y016107D02*
X014562Y016107D01*
X014660Y016009D02*
X015819Y016009D01*
X015819Y015910D02*
X014759Y015910D01*
X014857Y015812D02*
X015819Y015812D01*
X015819Y015713D02*
X014956Y015713D01*
X015054Y015615D02*
X015819Y015615D01*
X015819Y015516D02*
X015153Y015516D01*
X015251Y015418D02*
X015819Y015418D01*
X015819Y015319D02*
X015350Y015319D01*
X015448Y015221D02*
X015819Y015221D01*
X014809Y014728D02*
X010891Y014728D01*
X010891Y014630D02*
X014908Y014630D01*
X014968Y014569D02*
X014968Y014569D01*
X015006Y014531D02*
X010891Y014531D01*
X010891Y014433D02*
X015139Y014433D01*
X014711Y014827D02*
X010891Y014827D01*
X010965Y014925D02*
X014612Y014925D01*
X014514Y015024D02*
X011063Y015024D01*
X011162Y015122D02*
X014415Y015122D01*
X014317Y015221D02*
X011236Y015221D01*
X011236Y015319D02*
X014218Y015319D01*
X014120Y015418D02*
X011406Y015418D01*
X011422Y015516D02*
X014021Y015516D01*
X013923Y015615D02*
X011422Y015615D01*
X011422Y015713D02*
X013824Y015713D01*
X013726Y015812D02*
X011422Y015812D01*
X011402Y015910D02*
X013627Y015910D01*
X013542Y016009D02*
X008057Y016009D01*
X008057Y016107D02*
X013501Y016107D01*
X013490Y016206D02*
X007998Y016206D01*
X008057Y015910D02*
X008859Y015910D01*
X008838Y015812D02*
X008057Y015812D01*
X008042Y015713D02*
X008838Y015713D01*
X008838Y015615D02*
X007958Y015615D01*
X007958Y015516D02*
X008838Y015516D01*
X008855Y015418D02*
X007958Y015418D01*
X007958Y015319D02*
X009024Y015319D01*
X009040Y015221D02*
X007958Y015221D01*
X007995Y015122D02*
X009138Y015122D01*
X009237Y015024D02*
X008253Y015024D01*
X008546Y014925D02*
X009335Y014925D01*
X009409Y014827D02*
X008644Y014827D01*
X008726Y014728D02*
X009409Y014728D01*
X009409Y014630D02*
X008726Y014630D01*
X008726Y014531D02*
X009409Y014531D01*
X009409Y014433D02*
X008726Y014433D01*
X008726Y014334D02*
X009409Y014334D01*
X009409Y014236D02*
X008726Y014236D01*
X008726Y014137D02*
X009409Y014137D01*
X009446Y014039D02*
X008726Y014039D01*
X008726Y013940D02*
X009458Y013940D01*
X009458Y013842D02*
X008726Y013842D01*
X008726Y013743D02*
X009474Y013743D01*
X009573Y013645D02*
X008726Y013645D01*
X008726Y013546D02*
X009671Y013546D01*
X009694Y013448D02*
X008726Y013448D01*
X008726Y013349D02*
X009694Y013349D01*
X009694Y013251D02*
X008726Y013251D01*
X008726Y013152D02*
X009694Y013152D01*
X009694Y013054D02*
X008726Y013054D01*
X008087Y012955D02*
X007978Y012955D01*
X007978Y012857D02*
X008087Y012857D01*
X008087Y012758D02*
X007978Y012758D01*
X007978Y012660D02*
X008087Y012660D01*
X008087Y012561D02*
X007882Y012561D01*
X008087Y012463D02*
X007005Y012463D01*
X007005Y012561D02*
X007457Y012561D01*
X007361Y012660D02*
X007005Y012660D01*
X007005Y012683D02*
X006935Y012754D01*
X006935Y013938D01*
X006812Y014061D01*
X006377Y014496D01*
X006340Y014496D01*
X006300Y014536D01*
X006370Y014605D01*
X006370Y014966D01*
X006270Y015066D01*
X005350Y015066D01*
X005250Y014966D01*
X005250Y014605D01*
X005320Y014536D01*
X005290Y014506D01*
X003451Y014506D01*
X003451Y014566D01*
X003386Y014723D01*
X003266Y014843D01*
X003109Y014908D01*
X002975Y014908D01*
X003233Y015166D01*
X003386Y015166D01*
X003386Y015144D01*
X003450Y014987D01*
X003570Y014868D01*
X003727Y014803D01*
X003896Y014803D01*
X004053Y014868D01*
X004172Y014987D01*
X004237Y015144D01*
X004237Y015166D01*
X004311Y015166D01*
X004311Y015080D01*
X004410Y014980D01*
X004866Y014980D01*
X004966Y015080D01*
X004966Y015693D01*
X004866Y015792D01*
X004410Y015792D01*
X004311Y015693D01*
X004311Y015606D01*
X004013Y015606D01*
X003896Y015655D01*
X003727Y015655D01*
X003610Y015606D01*
X003051Y015606D01*
X002344Y014899D01*
X002322Y014908D01*
X002152Y014908D01*
X001994Y014843D01*
X001877Y014725D01*
X001877Y014809D01*
X001777Y014908D01*
X001121Y014908D01*
X001022Y014809D01*
X001022Y014153D01*
X001121Y014053D01*
X001229Y014053D01*
X001229Y012113D01*
X001121Y012113D01*
X001022Y012013D01*
X001022Y011358D01*
X001121Y011258D01*
X001777Y011258D01*
X001877Y011358D01*
X001877Y011441D01*
X001994Y011323D01*
X002017Y011314D01*
X002017Y011201D01*
X002253Y010964D01*
X002382Y010836D01*
X004311Y010836D01*
X004311Y010749D01*
X004410Y010649D01*
X004866Y010649D01*
X004966Y010749D01*
X004966Y011362D01*
X004866Y011462D01*
X004410Y011462D01*
X004311Y011362D01*
X004311Y011276D01*
X003151Y011276D01*
X003266Y011323D01*
X003386Y011443D01*
X003451Y011600D01*
X003451Y011770D01*
X003442Y011793D01*
X003529Y011879D01*
X004946Y011879D01*
X004956Y011889D01*
X005244Y011889D01*
X005244Y011517D01*
X005343Y011417D01*
X005957Y011417D01*
X006035Y011495D01*
X006035Y011483D01*
X006135Y011383D01*
X006905Y011383D01*
X007005Y011483D01*
X007005Y012683D01*
X006935Y012758D02*
X007361Y012758D01*
X007361Y012857D02*
X006935Y012857D01*
X006935Y012955D02*
X007361Y012955D01*
X007242Y013054D02*
X006935Y013054D01*
X006935Y013152D02*
X007190Y013152D01*
X007190Y013251D02*
X006935Y013251D01*
X006935Y013349D02*
X007190Y013349D01*
X007190Y013448D02*
X006935Y013448D01*
X006935Y013546D02*
X007270Y013546D01*
X006935Y013645D02*
X008306Y013645D01*
X008306Y013743D02*
X006935Y013743D01*
X006935Y013842D02*
X008306Y013842D01*
X008306Y013940D02*
X006933Y013940D01*
X006834Y014039D02*
X007110Y014039D01*
X006976Y014137D02*
X006736Y014137D01*
X006637Y014236D02*
X006885Y014236D01*
X006851Y014334D02*
X006539Y014334D01*
X006440Y014433D02*
X006851Y014433D01*
X006851Y014531D02*
X006305Y014531D01*
X006370Y014630D02*
X006851Y014630D01*
X006851Y014728D02*
X006370Y014728D01*
X006370Y014827D02*
X006851Y014827D01*
X006851Y014925D02*
X006370Y014925D01*
X006313Y015024D02*
X006851Y015024D01*
X006753Y015122D02*
X004966Y015122D01*
X004966Y015221D02*
X006753Y015221D01*
X006753Y015319D02*
X004966Y015319D01*
X004966Y015418D02*
X006753Y015418D01*
X006753Y015516D02*
X004966Y015516D01*
X004966Y015615D02*
X006753Y015615D01*
X006753Y015713D02*
X004945Y015713D01*
X004765Y015910D02*
X005489Y015910D01*
X005450Y015949D02*
X005567Y015832D01*
X006048Y015832D01*
X006165Y015949D01*
X006165Y016027D01*
X006197Y016040D01*
X006267Y016111D01*
X006346Y016189D01*
X006384Y016281D01*
X006384Y017562D01*
X006346Y017654D01*
X006276Y017724D01*
X006118Y017882D01*
X006026Y017920D01*
X005312Y017920D01*
X005385Y018097D01*
X005385Y018324D01*
X005299Y018533D01*
X005138Y018693D01*
X004929Y018780D01*
X004702Y018780D01*
X004492Y018693D01*
X004332Y018533D01*
X004320Y018503D01*
X004273Y018616D01*
X004121Y018768D01*
X003923Y018850D01*
X003708Y018850D01*
X003509Y018768D01*
X003358Y018616D01*
X003275Y018418D01*
X003275Y018203D01*
X003358Y018004D01*
X003509Y017852D01*
X003595Y017817D01*
X003595Y017643D01*
X003544Y017643D01*
X003445Y017543D01*
X003445Y016930D01*
X003544Y016830D01*
X004000Y016830D01*
X004100Y016930D01*
X004100Y017543D01*
X004035Y017607D01*
X004035Y017817D01*
X004121Y017852D01*
X004273Y018004D01*
X004278Y018017D01*
X004332Y017887D01*
X004492Y017727D01*
X004696Y017643D01*
X004253Y017643D01*
X004153Y017543D01*
X004153Y016930D01*
X004253Y016830D01*
X004261Y016830D01*
X004261Y016666D01*
X004253Y016666D01*
X004153Y016567D01*
X004153Y015954D01*
X004253Y015854D01*
X004709Y015854D01*
X004808Y015954D01*
X004808Y016544D01*
X005450Y016544D01*
X005450Y015949D01*
X005450Y016009D02*
X004808Y016009D01*
X004808Y016107D02*
X005450Y016107D01*
X005450Y016206D02*
X004808Y016206D01*
X004808Y016304D02*
X005450Y016304D01*
X005450Y016403D02*
X004808Y016403D01*
X004808Y016501D02*
X005450Y016501D01*
X005701Y016764D02*
X004520Y016764D01*
X004481Y016725D01*
X004481Y016260D01*
X004153Y016304D02*
X002531Y016304D01*
X002645Y016403D02*
X004153Y016403D01*
X004153Y016501D02*
X002743Y016501D01*
X002842Y016600D02*
X004186Y016600D01*
X004261Y016698D02*
X002910Y016698D01*
X002960Y016797D02*
X004261Y016797D01*
X004188Y016895D02*
X004065Y016895D01*
X004100Y016994D02*
X004153Y016994D01*
X004153Y017092D02*
X004100Y017092D01*
X004100Y017191D02*
X004153Y017191D01*
X004153Y017289D02*
X004100Y017289D01*
X004100Y017388D02*
X004153Y017388D01*
X004153Y017486D02*
X004100Y017486D01*
X004058Y017585D02*
X004195Y017585D01*
X004035Y017683D02*
X004599Y017683D01*
X004438Y017782D02*
X004035Y017782D01*
X004149Y017880D02*
X004339Y017880D01*
X004294Y017979D02*
X004247Y017979D01*
X003815Y018310D02*
X003815Y017280D01*
X003772Y017237D01*
X003445Y017191D02*
X003105Y017191D01*
X003121Y017289D02*
X003445Y017289D01*
X003445Y017388D02*
X003136Y017388D01*
X003148Y017486D02*
X003445Y017486D01*
X003486Y017585D02*
X003132Y017585D01*
X003117Y017683D02*
X003595Y017683D01*
X003595Y017782D02*
X003101Y017782D01*
X003085Y017880D02*
X003482Y017880D01*
X003383Y017979D02*
X003047Y017979D01*
X002997Y018077D02*
X003327Y018077D01*
X003287Y018176D02*
X002946Y018176D01*
X002896Y018274D02*
X003275Y018274D01*
X003275Y018373D02*
X002816Y018373D01*
X002717Y018471D02*
X003297Y018471D01*
X003338Y018570D02*
X002619Y018570D01*
X002562Y018626D02*
X002562Y018626D01*
X002479Y018668D02*
X003409Y018668D01*
X003508Y018767D02*
X002286Y018767D01*
X002165Y018828D02*
X002165Y018828D01*
X001932Y018865D02*
X015819Y018865D01*
X015819Y018767D02*
X008123Y018767D01*
X008121Y018768D02*
X007923Y018850D01*
X007708Y018850D01*
X007509Y018768D01*
X007358Y018616D01*
X007295Y018464D01*
X007273Y018516D01*
X007121Y018668D01*
X007409Y018668D01*
X007338Y018570D02*
X007220Y018570D01*
X007292Y018471D02*
X007297Y018471D01*
X007121Y018668D02*
X006923Y018750D01*
X006708Y018750D01*
X006509Y018668D01*
X006358Y018516D01*
X006275Y018318D01*
X006275Y018103D01*
X006358Y017904D01*
X006509Y017752D01*
X006708Y017670D01*
X006923Y017670D01*
X007121Y017752D01*
X007273Y017904D01*
X007336Y018056D01*
X007358Y018004D01*
X007509Y017852D01*
X007708Y017770D01*
X007923Y017770D01*
X008121Y017852D01*
X008273Y018004D01*
X008295Y018056D01*
X008358Y017904D01*
X008509Y017752D01*
X008708Y017670D01*
X008923Y017670D01*
X009121Y017752D01*
X009273Y017904D01*
X009355Y018103D01*
X009355Y018318D01*
X009273Y018516D01*
X009121Y018668D01*
X015819Y018668D01*
X015819Y018570D02*
X009220Y018570D01*
X009292Y018471D02*
X015819Y018471D01*
X015819Y018373D02*
X009333Y018373D01*
X009355Y018274D02*
X015819Y018274D01*
X015819Y018176D02*
X009355Y018176D01*
X009345Y018077D02*
X013678Y018077D01*
X013552Y017979D02*
X009304Y017979D01*
X009249Y017880D02*
X013482Y017880D01*
X013441Y017782D02*
X009150Y017782D01*
X008954Y017683D02*
X013433Y017683D01*
X013433Y017585D02*
X006375Y017585D01*
X006384Y017486D02*
X013471Y017486D01*
X013490Y017388D02*
X006384Y017388D01*
X006384Y017289D02*
X012877Y017289D01*
X012769Y017191D02*
X006384Y017191D01*
X006384Y017092D02*
X012712Y017092D01*
X012677Y016994D02*
X006384Y016994D01*
X006384Y016895D02*
X012677Y016895D01*
X012694Y016797D02*
X006384Y016797D01*
X006384Y016698D02*
X012734Y016698D01*
X012823Y016600D02*
X006384Y016600D01*
X006384Y016501D02*
X013005Y016501D01*
X013200Y016501D02*
X013490Y016501D01*
X013490Y016403D02*
X006384Y016403D01*
X006384Y016304D02*
X006885Y016304D01*
X006787Y016206D02*
X006353Y016206D01*
X006264Y016107D02*
X006780Y016107D01*
X006780Y016009D02*
X006165Y016009D01*
X006126Y015910D02*
X006780Y015910D01*
X006780Y015812D02*
X000320Y015812D01*
X000320Y015910D02*
X004197Y015910D01*
X004153Y016009D02*
X000320Y016009D01*
X000320Y016107D02*
X001351Y016107D01*
X001112Y016206D02*
X000320Y016206D01*
X000320Y016304D02*
X000919Y016304D01*
X000805Y016403D02*
X000320Y016403D01*
X000320Y016501D02*
X000706Y016501D01*
X000608Y016600D02*
X000320Y016600D01*
X000320Y016698D02*
X000540Y016698D01*
X000572Y016635D02*
X000572Y016635D01*
X000490Y016797D02*
X000320Y016797D01*
X000320Y016895D02*
X000440Y016895D01*
X000389Y016994D02*
X000320Y016994D01*
X000370Y017032D02*
X000370Y017032D01*
X000360Y017092D02*
X000320Y017092D01*
X000320Y017191D02*
X000345Y017191D01*
X000329Y017289D02*
X000320Y017289D01*
X001725Y016048D02*
X001725Y016048D01*
X002099Y016107D02*
X004153Y016107D01*
X004153Y016206D02*
X002338Y016206D01*
X002165Y016118D02*
X002165Y016118D01*
X002862Y015418D02*
X000320Y015418D01*
X000320Y015516D02*
X002961Y015516D01*
X003142Y015386D02*
X002237Y014481D01*
X002630Y014314D02*
X002662Y014239D01*
X002782Y014118D01*
X002939Y014053D01*
X003109Y014053D01*
X003139Y014066D01*
X005290Y014066D01*
X005320Y014036D01*
X005250Y013966D01*
X005250Y013605D01*
X005320Y013536D01*
X005250Y013466D01*
X005250Y013105D01*
X005350Y013006D01*
X005662Y013006D01*
X005575Y012919D01*
X005452Y012796D01*
X005452Y012781D01*
X005343Y012781D01*
X005256Y012693D01*
X004154Y012693D01*
X004053Y012795D01*
X003896Y012859D01*
X003727Y012859D01*
X003570Y012795D01*
X003468Y012693D01*
X002145Y012693D01*
X001669Y012217D01*
X001669Y014053D01*
X001777Y014053D01*
X001877Y014153D01*
X001877Y014236D01*
X001994Y014118D01*
X002152Y014053D01*
X002322Y014053D01*
X002479Y014118D01*
X002599Y014239D01*
X002630Y014314D01*
X002596Y014236D02*
X002665Y014236D01*
X002763Y014137D02*
X002497Y014137D01*
X001976Y014137D02*
X001861Y014137D01*
X001877Y014236D02*
X001877Y014236D01*
X001669Y014039D02*
X005317Y014039D01*
X005250Y013940D02*
X001669Y013940D01*
X001669Y013842D02*
X005250Y013842D01*
X005250Y013743D02*
X001669Y013743D01*
X001669Y013645D02*
X005250Y013645D01*
X005309Y013546D02*
X001669Y013546D01*
X001669Y013448D02*
X005250Y013448D01*
X005250Y013349D02*
X001669Y013349D01*
X001669Y013251D02*
X005250Y013251D01*
X005250Y013152D02*
X001669Y013152D01*
X001669Y013054D02*
X005302Y013054D01*
X005512Y012857D02*
X003903Y012857D01*
X003720Y012857D02*
X001669Y012857D01*
X001669Y012955D02*
X005611Y012955D01*
X005321Y012758D02*
X004089Y012758D01*
X003534Y012758D02*
X001669Y012758D01*
X001669Y012660D02*
X002112Y012660D01*
X002014Y012561D02*
X001669Y012561D01*
X001669Y012463D02*
X001915Y012463D01*
X001817Y012364D02*
X001669Y012364D01*
X001669Y012266D02*
X001718Y012266D01*
X001229Y012266D02*
X000320Y012266D01*
X000320Y012364D02*
X001229Y012364D01*
X001229Y012463D02*
X000320Y012463D01*
X000320Y012561D02*
X001229Y012561D01*
X001229Y012660D02*
X000320Y012660D01*
X000320Y012758D02*
X001229Y012758D01*
X001229Y012857D02*
X000320Y012857D01*
X000320Y012955D02*
X001229Y012955D01*
X001229Y013054D02*
X000320Y013054D01*
X000320Y013152D02*
X001229Y013152D01*
X001229Y013251D02*
X000320Y013251D01*
X000320Y013349D02*
X001229Y013349D01*
X001229Y013448D02*
X000320Y013448D01*
X000320Y013546D02*
X001229Y013546D01*
X001229Y013645D02*
X000320Y013645D01*
X000320Y013743D02*
X001229Y013743D01*
X001229Y013842D02*
X000320Y013842D01*
X000320Y013940D02*
X001229Y013940D01*
X001229Y014039D02*
X000320Y014039D01*
X000320Y014137D02*
X001038Y014137D01*
X001022Y014236D02*
X000320Y014236D01*
X000320Y014334D02*
X001022Y014334D01*
X001022Y014433D02*
X000320Y014433D01*
X000320Y014531D02*
X001022Y014531D01*
X001022Y014630D02*
X000320Y014630D01*
X000320Y014728D02*
X001022Y014728D01*
X001040Y014827D02*
X000320Y014827D01*
X000320Y014925D02*
X002370Y014925D01*
X002468Y015024D02*
X000320Y015024D01*
X000320Y015122D02*
X002567Y015122D01*
X002665Y015221D02*
X000320Y015221D01*
X000320Y015319D02*
X002764Y015319D01*
X003142Y015386D02*
X004638Y015386D01*
X004311Y015615D02*
X003993Y015615D01*
X004331Y015713D02*
X000320Y015713D01*
X000320Y015615D02*
X003630Y015615D01*
X003395Y015122D02*
X003189Y015122D01*
X003091Y015024D02*
X003435Y015024D01*
X003513Y014925D02*
X002992Y014925D01*
X003283Y014827D02*
X003669Y014827D01*
X003953Y014827D02*
X005250Y014827D01*
X005250Y014925D02*
X004110Y014925D01*
X004187Y015024D02*
X004367Y015024D01*
X004311Y015122D02*
X004228Y015122D01*
X004910Y015024D02*
X005307Y015024D01*
X005250Y014728D02*
X003381Y014728D01*
X003425Y014630D02*
X005250Y014630D01*
X005315Y014531D02*
X003451Y014531D01*
X003219Y014286D02*
X003024Y014481D01*
X003219Y014286D02*
X005810Y014286D01*
X008285Y014039D02*
X008306Y014039D01*
X008306Y013546D02*
X008230Y013546D01*
X009678Y013851D02*
X009914Y013615D01*
X009914Y011788D01*
X010096Y011769D02*
X010096Y013787D01*
X009993Y013890D01*
X009993Y014343D01*
X010286Y014321D02*
X010307Y014343D01*
X010286Y014321D02*
X010286Y011769D01*
X010486Y011769D02*
X010486Y013753D01*
X010622Y013890D01*
X010622Y014343D01*
X010891Y014334D02*
X015819Y014334D01*
X015819Y014236D02*
X010891Y014236D01*
X010891Y014137D02*
X015819Y014137D01*
X015819Y014039D02*
X010854Y014039D01*
X010842Y013940D02*
X013152Y013940D01*
X013063Y013842D02*
X010842Y013842D01*
X010786Y013743D02*
X013063Y013743D01*
X013063Y013645D02*
X010706Y013645D01*
X010706Y013546D02*
X013063Y013546D01*
X013063Y013448D02*
X010706Y013448D01*
X010706Y013349D02*
X013047Y013349D01*
X013047Y013251D02*
X010706Y013251D01*
X010706Y013152D02*
X013047Y013152D01*
X013047Y013054D02*
X010706Y013054D01*
X011136Y012266D02*
X013129Y012266D01*
X013129Y012364D02*
X011861Y012364D01*
X011906Y012463D02*
X013129Y012463D01*
X013129Y012561D02*
X011906Y012561D01*
X011906Y012660D02*
X013129Y012660D01*
X013057Y012758D02*
X011906Y012758D01*
X011901Y012857D02*
X013047Y012857D01*
X013047Y012955D02*
X011803Y012955D01*
X011464Y012167D02*
X013129Y012167D01*
X013129Y012069D02*
X011501Y012069D01*
X011501Y011970D02*
X013129Y011970D01*
X013129Y011872D02*
X011501Y011872D01*
X011501Y011773D02*
X013129Y011773D01*
X013129Y011675D02*
X011501Y011675D01*
X011501Y011576D02*
X013129Y011576D01*
X013129Y011478D02*
X011501Y011478D01*
X011471Y011379D02*
X013129Y011379D01*
X013129Y011281D02*
X011462Y011281D01*
X011462Y011182D02*
X011563Y011182D01*
X011546Y011084D02*
X011462Y011084D01*
X011462Y010985D02*
X011546Y010985D01*
X011546Y010887D02*
X011458Y010887D01*
X011546Y010788D02*
X011360Y010788D01*
X011261Y010690D02*
X011546Y010690D01*
X011546Y010591D02*
X011163Y010591D01*
X011128Y010493D02*
X011546Y010493D01*
X011546Y010394D02*
X011128Y010394D01*
X011128Y010296D02*
X011546Y010296D01*
X011546Y010197D02*
X011128Y010197D01*
X011128Y010099D02*
X011546Y010099D01*
X011518Y010000D02*
X011290Y010000D01*
X011325Y009902D02*
X011516Y009902D01*
X011516Y009803D02*
X011385Y009803D01*
X011449Y009756D02*
X011449Y010386D01*
X011410Y010426D01*
X010609Y010000D02*
X008653Y010000D01*
X008727Y009902D02*
X010707Y009902D01*
X010707Y009803D02*
X008825Y009803D01*
X008924Y009705D02*
X010707Y009705D01*
X010707Y009606D02*
X009022Y009606D01*
X009116Y009508D02*
X010722Y009508D01*
X010707Y009409D02*
X009116Y009409D01*
X009116Y009311D02*
X010707Y009311D01*
X010707Y009212D02*
X009116Y009212D01*
X009116Y009114D02*
X010707Y009114D01*
X010711Y009015D02*
X009116Y009015D01*
X009116Y008917D02*
X010711Y008917D01*
X010711Y008818D02*
X009116Y008818D01*
X009116Y008720D02*
X010711Y008720D01*
X010752Y008621D02*
X009116Y008621D01*
X009116Y008523D02*
X010721Y008523D01*
X010707Y008424D02*
X009116Y008424D01*
X009116Y008326D02*
X010707Y008326D01*
X010707Y008227D02*
X009116Y008227D01*
X009116Y008129D02*
X010707Y008129D01*
X010768Y008030D02*
X009116Y008030D01*
X009116Y007932D02*
X011568Y007932D01*
X011546Y008030D02*
X011264Y008030D01*
X011798Y007833D02*
X010040Y007833D01*
X009751Y007833D02*
X009116Y007833D01*
X008306Y007833D02*
X007185Y007833D01*
X007216Y007864D02*
X006895Y007543D01*
X006772Y007420D01*
X002034Y007420D01*
X002034Y007309D01*
X001969Y007152D01*
X001849Y007032D01*
X001692Y006967D01*
X001522Y006967D01*
X001365Y007032D01*
X001244Y007152D01*
X001179Y007309D01*
X001179Y007479D01*
X001244Y007636D01*
X000320Y007636D01*
X000320Y007538D02*
X001203Y007538D01*
X001179Y007439D02*
X000320Y007439D01*
X000320Y007341D02*
X001179Y007341D01*
X001207Y007242D02*
X000320Y007242D01*
X000320Y007144D02*
X001253Y007144D01*
X001351Y007045D02*
X000320Y007045D01*
X000320Y006947D02*
X005284Y006947D01*
X005284Y007045D02*
X001862Y007045D01*
X001961Y007144D02*
X005284Y007144D01*
X005284Y007242D02*
X002006Y007242D01*
X002034Y007341D02*
X005324Y007341D01*
X005921Y007341D02*
X006072Y007341D01*
X006032Y007242D02*
X005961Y007242D01*
X005961Y007144D02*
X006032Y007144D01*
X006032Y007045D02*
X005961Y007045D01*
X005961Y006947D02*
X006032Y006947D01*
X006717Y006947D02*
X006846Y006947D01*
X006751Y006848D02*
X006717Y006848D01*
X006727Y006750D02*
X006727Y006750D01*
X006727Y006651D02*
X006727Y006651D01*
X006727Y006553D02*
X006727Y006553D01*
X006727Y006454D02*
X006727Y006454D01*
X006727Y006356D02*
X006727Y006356D01*
X006727Y006257D02*
X006727Y006257D01*
X006727Y006159D02*
X006727Y006159D01*
X006727Y006060D02*
X006727Y006060D01*
X006727Y006029D02*
X006727Y006029D01*
X007467Y006029D02*
X007467Y006672D01*
X008541Y006672D01*
X007898Y006029D01*
X007467Y006029D01*
X007467Y006060D02*
X007928Y006060D01*
X008027Y006159D02*
X007467Y006159D01*
X007467Y006257D02*
X008125Y006257D01*
X008224Y006356D02*
X007467Y006356D01*
X007467Y006454D02*
X008322Y006454D01*
X008421Y006553D02*
X007467Y006553D01*
X007467Y006651D02*
X008519Y006651D01*
X008091Y007144D02*
X006709Y007144D01*
X006709Y007242D02*
X008091Y007242D01*
X008091Y007341D02*
X006669Y007341D01*
X006791Y007439D02*
X008091Y007439D01*
X008091Y007538D02*
X006890Y007538D01*
X006988Y007636D02*
X008091Y007636D01*
X008115Y007735D02*
X007087Y007735D01*
X007216Y007864D02*
X007225Y007854D01*
X007946Y007854D01*
X008046Y007954D01*
X008046Y009385D01*
X007971Y009459D01*
X008046Y009534D01*
X008046Y009882D01*
X008076Y009912D01*
X008076Y010187D01*
X008046Y010217D01*
X008046Y011165D01*
X007946Y011264D01*
X007225Y011264D01*
X007126Y011165D01*
X007126Y010443D01*
X006788Y010781D01*
X006788Y011198D01*
X006671Y011316D01*
X006228Y011316D01*
X006110Y011198D01*
X006110Y010755D01*
X006228Y010638D01*
X006252Y010638D01*
X007044Y009846D01*
X007126Y009812D01*
X007126Y009534D01*
X007200Y009459D01*
X007126Y009385D01*
X007126Y008689D01*
X006818Y008689D01*
X006695Y008566D01*
X006362Y008234D01*
X006324Y008234D01*
X006611Y008521D01*
X006611Y008968D01*
X006335Y009244D01*
X006611Y009521D01*
X006611Y009968D01*
X006295Y010284D01*
X005848Y010284D01*
X005571Y010008D01*
X005295Y010284D01*
X004848Y010284D01*
X004571Y010008D01*
X004295Y010284D01*
X003848Y010284D01*
X003531Y009968D01*
X003531Y009521D01*
X003786Y009266D01*
X003501Y008981D01*
X003501Y008508D01*
X003776Y008234D01*
X002993Y008234D01*
X002048Y009179D01*
X001982Y009179D01*
X001969Y009211D01*
X001849Y009331D01*
X001692Y009396D01*
X001522Y009396D01*
X001365Y009331D01*
X001244Y009211D01*
X001179Y009054D01*
X001179Y008884D01*
X001244Y008727D01*
X001365Y008606D01*
X001440Y008575D01*
X001365Y008544D01*
X001244Y008424D01*
X001179Y008267D01*
X001179Y008096D01*
X001244Y007939D01*
X001365Y007819D01*
X001440Y007788D01*
X001365Y007756D01*
X001244Y007636D01*
X001343Y007735D02*
X000320Y007735D01*
X000320Y007833D02*
X001351Y007833D01*
X001252Y007932D02*
X000320Y007932D01*
X000320Y008030D02*
X001207Y008030D01*
X001179Y008129D02*
X000320Y008129D01*
X000320Y008227D02*
X001179Y008227D01*
X001204Y008326D02*
X000320Y008326D01*
X000320Y008424D02*
X001245Y008424D01*
X001343Y008523D02*
X000320Y008523D01*
X000320Y008621D02*
X001350Y008621D01*
X001252Y008720D02*
X000320Y008720D01*
X000320Y008818D02*
X001206Y008818D01*
X001179Y008917D02*
X000320Y008917D01*
X000320Y009015D02*
X001179Y009015D01*
X001204Y009114D02*
X000320Y009114D01*
X000320Y009212D02*
X001245Y009212D01*
X001344Y009311D02*
X000320Y009311D01*
X000320Y009409D02*
X000604Y009409D01*
X000617Y009395D02*
X000774Y009330D01*
X000943Y009330D01*
X001100Y009395D01*
X001220Y009515D01*
X001285Y009672D01*
X001285Y009841D01*
X001220Y009998D01*
X001100Y010117D01*
X000943Y010182D01*
X000774Y010182D01*
X000617Y010117D01*
X000498Y009998D01*
X000433Y009841D01*
X000433Y009672D01*
X000498Y009515D01*
X000617Y009395D01*
X000505Y009508D02*
X000320Y009508D01*
X000320Y009606D02*
X000460Y009606D01*
X000433Y009705D02*
X000320Y009705D01*
X000320Y009803D02*
X000433Y009803D01*
X000458Y009902D02*
X000320Y009902D01*
X000320Y010000D02*
X000500Y010000D01*
X000599Y010099D02*
X000320Y010099D01*
X000320Y010197D02*
X003760Y010197D01*
X003662Y010099D02*
X001119Y010099D01*
X001217Y010000D02*
X003563Y010000D01*
X003531Y009902D02*
X001260Y009902D01*
X001285Y009803D02*
X003531Y009803D01*
X003531Y009705D02*
X001285Y009705D01*
X001257Y009606D02*
X003531Y009606D01*
X003545Y009508D02*
X001212Y009508D01*
X001114Y009409D02*
X003643Y009409D01*
X003742Y009311D02*
X001870Y009311D01*
X001968Y009212D02*
X003733Y009212D01*
X003634Y009114D02*
X002113Y009114D01*
X002212Y009015D02*
X003536Y009015D01*
X003501Y008917D02*
X002310Y008917D01*
X002409Y008818D02*
X003501Y008818D01*
X003501Y008720D02*
X002507Y008720D01*
X002606Y008621D02*
X003501Y008621D01*
X003501Y008523D02*
X002704Y008523D01*
X002803Y008424D02*
X003586Y008424D01*
X003684Y008326D02*
X002901Y008326D01*
X004367Y008234D02*
X004641Y008508D01*
X004641Y008981D01*
X004356Y009266D01*
X004571Y009481D01*
X004848Y009204D01*
X005295Y009204D01*
X005571Y009481D01*
X005808Y009244D01*
X005531Y008968D01*
X005531Y008521D01*
X005818Y008234D01*
X004367Y008234D01*
X004458Y008326D02*
X005727Y008326D01*
X005628Y008424D02*
X004557Y008424D01*
X004641Y008523D02*
X005531Y008523D01*
X005531Y008621D02*
X004641Y008621D01*
X004641Y008720D02*
X005531Y008720D01*
X005531Y008818D02*
X004641Y008818D01*
X004641Y008917D02*
X005531Y008917D01*
X005578Y009015D02*
X004607Y009015D01*
X004508Y009114D02*
X005677Y009114D01*
X005775Y009212D02*
X005302Y009212D01*
X005401Y009311D02*
X005742Y009311D01*
X005643Y009409D02*
X005499Y009409D01*
X004840Y009212D02*
X004410Y009212D01*
X004401Y009311D02*
X004742Y009311D01*
X004643Y009409D02*
X004499Y009409D01*
X004481Y010099D02*
X004662Y010099D01*
X004760Y010197D02*
X004382Y010197D01*
X004370Y010690D02*
X000320Y010690D01*
X000320Y010788D02*
X004311Y010788D01*
X004638Y011056D02*
X002473Y011056D01*
X002237Y011292D01*
X002237Y011685D01*
X001938Y011379D02*
X001877Y011379D01*
X001800Y011281D02*
X002017Y011281D01*
X002035Y011182D02*
X000320Y011182D01*
X000320Y011084D02*
X002134Y011084D01*
X002232Y010985D02*
X000320Y010985D01*
X000320Y010887D02*
X002331Y010887D01*
X003164Y011281D02*
X004311Y011281D01*
X004328Y011379D02*
X003322Y011379D01*
X003401Y011478D02*
X005283Y011478D01*
X005244Y011576D02*
X003441Y011576D01*
X003451Y011675D02*
X005244Y011675D01*
X005244Y011773D02*
X003450Y011773D01*
X003521Y011872D02*
X005244Y011872D01*
X004855Y012099D02*
X003437Y012099D01*
X003024Y011685D01*
X002237Y012473D02*
X001449Y011685D01*
X001449Y014481D01*
X001877Y014728D02*
X001879Y014728D01*
X001859Y014827D02*
X001978Y014827D01*
X004481Y016804D02*
X004481Y017237D01*
X005071Y017237D02*
X005071Y017512D01*
X005229Y017670D01*
X005977Y017670D01*
X006134Y017512D01*
X006134Y016331D01*
X006056Y016252D01*
X005823Y016252D01*
X005807Y016268D01*
X005701Y016764D02*
X005780Y016843D01*
X005780Y017237D01*
X006317Y017683D02*
X006677Y017683D01*
X006480Y017782D02*
X006218Y017782D01*
X006120Y017880D02*
X006382Y017880D01*
X006327Y017979D02*
X005336Y017979D01*
X005377Y018077D02*
X006286Y018077D01*
X006275Y018176D02*
X005385Y018176D01*
X005385Y018274D02*
X006275Y018274D01*
X006298Y018373D02*
X005365Y018373D01*
X005324Y018471D02*
X006339Y018471D01*
X006411Y018570D02*
X005262Y018570D01*
X005164Y018668D02*
X006510Y018668D01*
X007508Y018767D02*
X004962Y018767D01*
X004669Y018767D02*
X004123Y018767D01*
X004221Y018668D02*
X004467Y018668D01*
X004369Y018570D02*
X004292Y018570D01*
X004815Y018210D02*
X004815Y018044D01*
X005071Y017788D01*
X005071Y017237D01*
X004520Y016764D02*
X004481Y016804D01*
X003480Y016895D02*
X003010Y016895D01*
X003060Y016994D02*
X003445Y016994D01*
X003445Y017092D02*
X003089Y017092D01*
X006954Y017683D02*
X008677Y017683D01*
X008480Y017782D02*
X007950Y017782D01*
X008149Y017880D02*
X008382Y017880D01*
X008327Y017979D02*
X008247Y017979D01*
X007681Y017782D02*
X007150Y017782D01*
X007249Y017880D02*
X007482Y017880D01*
X007383Y017979D02*
X007304Y017979D01*
X008121Y018768D02*
X008273Y018616D01*
X008336Y018464D01*
X008358Y018516D01*
X008509Y018668D01*
X008708Y018750D01*
X008923Y018750D01*
X009121Y018668D01*
X008510Y018668D02*
X008221Y018668D01*
X008292Y018570D02*
X008411Y018570D01*
X008339Y018471D02*
X008333Y018471D01*
X007352Y016304D02*
X013490Y016304D01*
X013490Y016600D02*
X013383Y016600D01*
X013471Y016698D02*
X013490Y016698D01*
X013490Y017191D02*
X013436Y017191D01*
X013490Y017289D02*
X013329Y017289D01*
X014102Y018077D02*
X014330Y018077D01*
X014250Y017979D02*
X014228Y017979D01*
X015026Y018077D02*
X015819Y018077D01*
X015819Y017979D02*
X015105Y017979D01*
X015105Y017880D02*
X015819Y017880D01*
X015819Y017782D02*
X015105Y017782D01*
X011016Y015662D02*
X011016Y015288D01*
X010622Y014894D01*
X010307Y014894D02*
X010307Y015544D01*
X010426Y015662D01*
X009993Y015504D02*
X009835Y015662D01*
X009993Y015504D02*
X009993Y014894D01*
X009678Y014894D02*
X009244Y015327D01*
X009244Y015662D01*
X007499Y016206D02*
X007450Y016206D01*
X009678Y014343D02*
X009678Y013851D01*
X008087Y012364D02*
X007005Y012364D01*
X007005Y012266D02*
X008087Y012266D01*
X008087Y012167D02*
X007005Y012167D01*
X007005Y012069D02*
X008087Y012069D01*
X008087Y011970D02*
X007005Y011970D01*
X007005Y011872D02*
X008087Y011872D01*
X008087Y011773D02*
X007005Y011773D01*
X007005Y011675D02*
X008087Y011675D01*
X008091Y011576D02*
X007005Y011576D01*
X007000Y011478D02*
X008091Y011478D01*
X008121Y011379D02*
X004949Y011379D01*
X004966Y011281D02*
X006193Y011281D01*
X006110Y011182D02*
X004966Y011182D01*
X004966Y011084D02*
X006110Y011084D01*
X006110Y010985D02*
X004966Y010985D01*
X004966Y010887D02*
X006110Y010887D01*
X006110Y010788D02*
X004966Y010788D01*
X004906Y010690D02*
X006176Y010690D01*
X006299Y010591D02*
X000320Y010591D01*
X000320Y010493D02*
X006397Y010493D01*
X006496Y010394D02*
X000320Y010394D01*
X000320Y010296D02*
X006594Y010296D01*
X006693Y010197D02*
X006382Y010197D01*
X006481Y010099D02*
X006791Y010099D01*
X006890Y010000D02*
X006579Y010000D01*
X006611Y009902D02*
X006988Y009902D01*
X007126Y009803D02*
X006611Y009803D01*
X006611Y009705D02*
X007126Y009705D01*
X007126Y009606D02*
X006611Y009606D01*
X006598Y009508D02*
X007152Y009508D01*
X007150Y009409D02*
X006499Y009409D01*
X006401Y009311D02*
X007126Y009311D01*
X007126Y009212D02*
X006367Y009212D01*
X006466Y009114D02*
X007126Y009114D01*
X007126Y009015D02*
X006564Y009015D01*
X006611Y008917D02*
X007126Y008917D01*
X007126Y008818D02*
X006611Y008818D01*
X006611Y008720D02*
X007126Y008720D01*
X006749Y008621D02*
X006611Y008621D01*
X006611Y008523D02*
X006651Y008523D01*
X006552Y008424D02*
X006514Y008424D01*
X006454Y008326D02*
X006416Y008326D01*
X008046Y008326D02*
X008306Y008326D01*
X008306Y008424D02*
X008046Y008424D01*
X008046Y008523D02*
X008189Y008523D01*
X008109Y008621D02*
X008046Y008621D01*
X008046Y008720D02*
X008109Y008720D01*
X008109Y008818D02*
X008046Y008818D01*
X008046Y008917D02*
X008109Y008917D01*
X008109Y009015D02*
X008046Y009015D01*
X008046Y009114D02*
X008109Y009114D01*
X008109Y009212D02*
X008046Y009212D01*
X008046Y009311D02*
X008109Y009311D01*
X008109Y009409D02*
X008022Y009409D01*
X008019Y009508D02*
X008109Y009508D01*
X008109Y009606D02*
X008046Y009606D01*
X008046Y009705D02*
X008109Y009705D01*
X008109Y009803D02*
X008046Y009803D01*
X008066Y009902D02*
X008109Y009902D01*
X008076Y010000D02*
X008183Y010000D01*
X008076Y010099D02*
X010511Y010099D01*
X010476Y010197D02*
X008066Y010197D01*
X008046Y010296D02*
X010378Y010296D01*
X010334Y010394D02*
X008046Y010394D01*
X008046Y010493D02*
X008778Y010493D01*
X008739Y010591D02*
X008046Y010591D01*
X008046Y010690D02*
X008739Y010690D01*
X008739Y010788D02*
X008046Y010788D01*
X008046Y010887D02*
X008739Y010887D01*
X008774Y010985D02*
X008046Y010985D01*
X008046Y011084D02*
X008916Y011084D01*
X008916Y011182D02*
X008029Y011182D01*
X008916Y011281D02*
X006706Y011281D01*
X006788Y011182D02*
X007143Y011182D01*
X007126Y011084D02*
X006788Y011084D01*
X006788Y010985D02*
X007126Y010985D01*
X007126Y010887D02*
X006788Y010887D01*
X006788Y010788D02*
X007126Y010788D01*
X007126Y010690D02*
X006879Y010690D01*
X006978Y010591D02*
X007126Y010591D01*
X007126Y010493D02*
X007076Y010493D01*
X005760Y010197D02*
X005382Y010197D01*
X005481Y010099D02*
X005662Y010099D01*
X006017Y011478D02*
X006040Y011478D01*
X005630Y012473D02*
X002237Y012473D01*
X001229Y012167D02*
X000320Y012167D01*
X000320Y012069D02*
X001077Y012069D01*
X001022Y011970D02*
X000320Y011970D01*
X000320Y011872D02*
X001022Y011872D01*
X001022Y011773D02*
X000320Y011773D01*
X000320Y011675D02*
X001022Y011675D01*
X001022Y011576D02*
X000320Y011576D01*
X000320Y011478D02*
X001022Y011478D01*
X001022Y011379D02*
X000320Y011379D01*
X000320Y011281D02*
X001099Y011281D01*
X008046Y008227D02*
X008306Y008227D01*
X008306Y008129D02*
X008046Y008129D01*
X008046Y008030D02*
X008306Y008030D01*
X008306Y007932D02*
X008023Y007932D01*
X006945Y007045D02*
X006717Y007045D01*
X005392Y006750D02*
X000320Y006750D01*
X000320Y006848D02*
X005293Y006848D01*
X005417Y006651D02*
X000320Y006651D01*
X000320Y006553D02*
X005417Y006553D01*
X005417Y006454D02*
X000320Y006454D01*
X000320Y006356D02*
X005417Y006356D01*
X005417Y006257D02*
X001967Y006257D01*
X001947Y006277D02*
X002064Y006160D01*
X002064Y005479D01*
X001947Y005362D01*
X001266Y005362D01*
X001149Y005479D01*
X001149Y006160D01*
X001266Y006277D01*
X001947Y006277D01*
X002064Y006159D02*
X005417Y006159D01*
X005417Y006060D02*
X002064Y006060D01*
X002064Y005962D02*
X005448Y005962D01*
X005727Y005863D02*
X002064Y005863D01*
X002064Y005765D02*
X005727Y005765D01*
X005754Y005666D02*
X002064Y005666D01*
X002064Y005568D02*
X005853Y005568D01*
X005951Y005469D02*
X002054Y005469D01*
X001956Y005371D02*
X008527Y005371D01*
X008527Y005469D02*
X008286Y005469D01*
X008384Y005568D02*
X008527Y005568D01*
X008527Y005666D02*
X008483Y005666D01*
X008527Y005272D02*
X000320Y005272D01*
X000320Y005174D02*
X008527Y005174D01*
X008527Y005075D02*
X000320Y005075D01*
X000320Y004977D02*
X008567Y004977D01*
X007727Y004586D02*
X007627Y004686D01*
X006433Y004686D01*
X006433Y004729D01*
X006304Y004858D01*
X006186Y004976D01*
X004862Y004976D01*
X004733Y004847D01*
X004458Y004572D01*
X004458Y004542D01*
X004369Y004454D01*
X004369Y004035D01*
X004468Y003936D01*
X004887Y003936D01*
X004986Y004035D01*
X004986Y004454D01*
X004974Y004466D01*
X005044Y004536D01*
X005447Y004536D01*
X005447Y004257D01*
X004899Y003708D01*
X004899Y002972D01*
X004865Y002958D01*
X004739Y002832D01*
X004671Y002668D01*
X004671Y002490D01*
X004739Y002326D01*
X004865Y002200D01*
X005030Y002132D01*
X005207Y002132D01*
X005101Y002026D01*
X005030Y002026D01*
X004865Y001958D01*
X004739Y001832D01*
X004671Y001668D01*
X004671Y001490D01*
X004739Y001326D01*
X004865Y001200D01*
X005030Y001132D01*
X005207Y001132D01*
X005372Y001200D01*
X005498Y001326D01*
X005566Y001490D01*
X005566Y001668D01*
X005507Y001810D01*
X005714Y002017D01*
X005842Y002145D01*
X005842Y002223D01*
X005865Y002200D01*
X006030Y002132D01*
X006207Y002132D01*
X006372Y002200D01*
X006498Y002326D01*
X006566Y002490D01*
X006566Y002668D01*
X006530Y002754D01*
X006540Y002765D01*
X006581Y002805D01*
X006685Y002701D01*
X006671Y002668D01*
X006671Y002490D01*
X006739Y002326D01*
X006865Y002200D01*
X007030Y002132D01*
X007207Y002132D01*
X007372Y002200D01*
X007410Y002239D01*
X007410Y001920D01*
X007372Y001958D01*
X007207Y002026D01*
X007030Y002026D01*
X006865Y001958D01*
X006739Y001832D01*
X006671Y001668D01*
X006671Y001490D01*
X006739Y001326D01*
X006865Y001200D01*
X007030Y001132D01*
X007207Y001132D01*
X007372Y001200D01*
X007498Y001326D01*
X007511Y001359D01*
X007576Y001359D01*
X007682Y001465D01*
X007739Y001326D01*
X007865Y001200D01*
X008030Y001132D01*
X008207Y001132D01*
X008372Y001200D01*
X008498Y001326D01*
X008566Y001490D01*
X008566Y001668D01*
X008498Y001832D01*
X008372Y001958D01*
X008207Y002026D01*
X008030Y002026D01*
X007865Y001958D01*
X007850Y001943D01*
X007850Y002958D01*
X007181Y003627D01*
X007181Y003686D01*
X007627Y003686D01*
X007727Y003785D01*
X007727Y004586D01*
X007727Y004583D02*
X011889Y004583D01*
X011791Y004681D02*
X007632Y004681D01*
X007727Y004484D02*
X011988Y004484D01*
X012086Y004386D02*
X007727Y004386D01*
X007727Y004287D02*
X012185Y004287D01*
X012283Y004189D02*
X007727Y004189D01*
X007727Y004090D02*
X015819Y004090D01*
X015819Y003992D02*
X007727Y003992D01*
X007727Y003893D02*
X015819Y003893D01*
X015819Y003795D02*
X007727Y003795D01*
X007638Y003696D02*
X015819Y003696D01*
X015819Y003598D02*
X007210Y003598D01*
X007309Y003499D02*
X015819Y003499D01*
X015819Y003401D02*
X007407Y003401D01*
X007506Y003302D02*
X015819Y003302D01*
X015819Y003204D02*
X007604Y003204D01*
X007703Y003105D02*
X015819Y003105D01*
X015819Y003007D02*
X009255Y003007D01*
X009207Y003026D02*
X009030Y003026D01*
X008865Y002958D01*
X008739Y002832D01*
X008671Y002668D01*
X008671Y002490D01*
X008739Y002326D01*
X008865Y002200D01*
X009030Y002132D01*
X009207Y002132D01*
X009372Y002200D01*
X009498Y002326D01*
X009566Y002490D01*
X009566Y002668D01*
X009498Y002832D01*
X009372Y002958D01*
X009207Y003026D01*
X008982Y003007D02*
X007801Y003007D01*
X007850Y002908D02*
X008815Y002908D01*
X008730Y002810D02*
X007850Y002810D01*
X007850Y002711D02*
X008689Y002711D01*
X008671Y002613D02*
X007850Y002613D01*
X007850Y002514D02*
X008671Y002514D01*
X008702Y002416D02*
X007850Y002416D01*
X007850Y002317D02*
X008748Y002317D01*
X008847Y002219D02*
X007850Y002219D01*
X007850Y002120D02*
X015819Y002120D01*
X015819Y002022D02*
X009471Y002022D01*
X009466Y002026D02*
X008771Y002026D01*
X008671Y001927D01*
X008671Y001232D01*
X008771Y001132D01*
X009466Y001132D01*
X009566Y001232D01*
X009566Y001927D01*
X009466Y002026D01*
X009566Y001923D02*
X015819Y001923D01*
X015819Y001825D02*
X009566Y001825D01*
X009566Y001726D02*
X015819Y001726D01*
X015819Y001628D02*
X009566Y001628D01*
X009566Y001529D02*
X015819Y001529D01*
X015819Y001431D02*
X009566Y001431D01*
X009566Y001332D02*
X015819Y001332D01*
X015819Y001234D02*
X009566Y001234D01*
X009469Y001135D02*
X015819Y001135D01*
X015819Y001037D02*
X002954Y001037D01*
X003004Y001135D02*
X005022Y001135D01*
X005215Y001135D02*
X006022Y001135D01*
X006030Y001132D02*
X006207Y001132D01*
X006372Y001200D01*
X006498Y001326D01*
X006566Y001490D01*
X006566Y001668D01*
X006498Y001832D01*
X006372Y001958D01*
X006207Y002026D01*
X006030Y002026D01*
X005865Y001958D01*
X005739Y001832D01*
X005671Y001668D01*
X005671Y001490D01*
X005739Y001326D01*
X005865Y001200D01*
X006030Y001132D01*
X006215Y001135D02*
X007022Y001135D01*
X007215Y001135D02*
X008022Y001135D01*
X008215Y001135D02*
X008768Y001135D01*
X008671Y001234D02*
X008405Y001234D01*
X008500Y001332D02*
X008671Y001332D01*
X008671Y001431D02*
X008541Y001431D01*
X008566Y001529D02*
X008671Y001529D01*
X008671Y001628D02*
X008566Y001628D01*
X008542Y001726D02*
X008671Y001726D01*
X008671Y001825D02*
X008501Y001825D01*
X008407Y001923D02*
X008671Y001923D01*
X008766Y002022D02*
X008219Y002022D01*
X008018Y002022D02*
X007850Y002022D01*
X007410Y002022D02*
X007219Y002022D01*
X007018Y002022D02*
X006219Y002022D01*
X006018Y002022D02*
X005718Y002022D01*
X005817Y002120D02*
X007410Y002120D01*
X007410Y002219D02*
X007390Y002219D01*
X007119Y002579D02*
X006717Y002981D01*
X006717Y004186D01*
X006961Y004180D02*
X006967Y004186D01*
X006961Y004180D02*
X006961Y003536D01*
X007630Y002867D01*
X007630Y001725D01*
X007485Y001579D01*
X007119Y001579D01*
X006696Y001431D02*
X006541Y001431D01*
X006566Y001529D02*
X006671Y001529D01*
X006671Y001628D02*
X006566Y001628D01*
X006542Y001726D02*
X006695Y001726D01*
X006736Y001825D02*
X006501Y001825D01*
X006407Y001923D02*
X006830Y001923D01*
X007407Y001923D02*
X007410Y001923D01*
X007647Y001431D02*
X007696Y001431D01*
X007737Y001332D02*
X007500Y001332D01*
X007405Y001234D02*
X007832Y001234D01*
X006832Y001234D02*
X006405Y001234D01*
X006500Y001332D02*
X006737Y001332D01*
X005832Y001234D02*
X005405Y001234D01*
X005500Y001332D02*
X005737Y001332D01*
X005696Y001431D02*
X005541Y001431D01*
X005566Y001529D02*
X005671Y001529D01*
X005671Y001628D02*
X005566Y001628D01*
X005542Y001726D02*
X005695Y001726D01*
X005736Y001825D02*
X005521Y001825D01*
X005620Y001923D02*
X005830Y001923D01*
X005842Y002219D02*
X005847Y002219D01*
X005622Y002237D02*
X005622Y003339D01*
X005937Y003654D01*
X005937Y004176D01*
X005947Y004186D01*
X005687Y004186D02*
X005119Y003617D01*
X005119Y002579D01*
X004702Y002416D02*
X002952Y002416D01*
X002902Y002514D02*
X004671Y002514D01*
X004671Y002613D02*
X002828Y002613D01*
X002729Y002711D02*
X004689Y002711D01*
X004730Y002810D02*
X002631Y002810D01*
X002562Y002878D02*
X002562Y002878D01*
X002503Y002908D02*
X004815Y002908D01*
X004899Y003007D02*
X002310Y003007D01*
X002165Y003080D02*
X002165Y003080D01*
X002008Y003105D02*
X004899Y003105D01*
X004899Y003204D02*
X000320Y003204D01*
X000320Y003302D02*
X004899Y003302D01*
X004899Y003401D02*
X000320Y003401D01*
X000320Y003499D02*
X004899Y003499D01*
X004899Y003598D02*
X000320Y003598D01*
X000320Y003696D02*
X004899Y003696D01*
X004985Y003795D02*
X000320Y003795D01*
X000320Y003893D02*
X005083Y003893D01*
X005182Y003992D02*
X004942Y003992D01*
X004986Y004090D02*
X005280Y004090D01*
X005379Y004189D02*
X004986Y004189D01*
X004986Y004287D02*
X005447Y004287D01*
X005447Y004386D02*
X004986Y004386D01*
X004992Y004484D02*
X005447Y004484D01*
X004953Y004756D02*
X006095Y004756D01*
X006213Y004638D01*
X006213Y004192D01*
X006207Y004186D01*
X006449Y004178D02*
X006457Y004186D01*
X006449Y004178D02*
X006449Y002985D01*
X006119Y002654D01*
X006119Y002579D01*
X006535Y002416D02*
X006702Y002416D01*
X006671Y002514D02*
X006566Y002514D01*
X006566Y002613D02*
X006671Y002613D01*
X006676Y002711D02*
X006548Y002711D01*
X006489Y002317D02*
X006748Y002317D01*
X006847Y002219D02*
X006390Y002219D01*
X005622Y002237D02*
X005119Y001733D01*
X005119Y001579D01*
X004696Y001431D02*
X003103Y001431D01*
X003119Y001529D02*
X004671Y001529D01*
X004671Y001628D02*
X003134Y001628D01*
X003150Y001726D02*
X004695Y001726D01*
X004736Y001825D02*
X003134Y001825D01*
X003118Y001923D02*
X004830Y001923D01*
X005018Y002022D02*
X003103Y002022D01*
X003087Y002120D02*
X005195Y002120D01*
X004847Y002219D02*
X003053Y002219D01*
X003003Y002317D02*
X004748Y002317D01*
X004737Y001332D02*
X003088Y001332D01*
X003054Y001234D02*
X004832Y001234D01*
X002904Y000938D02*
X015819Y000938D01*
X015819Y000840D02*
X002830Y000840D01*
X002731Y000741D02*
X015819Y000741D01*
X015819Y000643D02*
X002633Y000643D01*
X002508Y000544D02*
X015819Y000544D01*
X015819Y000446D02*
X002314Y000446D01*
X002165Y000370D02*
X002165Y000370D01*
X002023Y000347D02*
X015819Y000347D01*
X016095Y000360D02*
X016095Y002450D01*
X016105Y002439D01*
X016557Y002439D01*
X016680Y002562D01*
X016680Y002774D01*
X016963Y002774D01*
X016927Y002738D01*
X016927Y002286D01*
X017050Y002163D01*
X017502Y002163D01*
X017625Y002286D01*
X017625Y002507D01*
X017655Y002538D01*
X018967Y002538D01*
X019059Y002576D01*
X019290Y002807D01*
X019290Y002441D01*
X019413Y002318D01*
X020060Y002318D01*
X020183Y002441D01*
X020183Y002930D01*
X020063Y003049D01*
X020420Y003049D01*
X020423Y003050D01*
X020729Y003050D01*
X020852Y003173D01*
X020852Y007796D01*
X020729Y007919D01*
X020683Y007919D01*
X020683Y007932D01*
X020756Y008004D01*
X020794Y008096D01*
X020794Y008247D01*
X020867Y008247D01*
X020990Y008370D01*
X020990Y008859D01*
X020880Y008969D01*
X020990Y009079D01*
X020990Y010001D01*
X020880Y010111D01*
X020964Y010195D01*
X021345Y010195D01*
X021440Y010234D01*
X021636Y010234D01*
X021759Y010357D01*
X021759Y010809D01*
X021636Y010932D01*
X021184Y010932D01*
X021061Y010809D01*
X021061Y010735D01*
X020964Y010735D01*
X020867Y010832D01*
X020220Y010832D01*
X020189Y010801D01*
X020158Y010832D01*
X019512Y010832D01*
X019389Y010709D01*
X019389Y010220D01*
X019499Y010111D01*
X019389Y010001D01*
X019389Y009079D01*
X019499Y008969D01*
X019389Y008859D01*
X019389Y008370D01*
X019512Y008247D01*
X019585Y008247D01*
X019585Y008077D01*
X019581Y008072D01*
X019537Y007967D01*
X019180Y008324D01*
X019180Y008430D01*
X019297Y008547D01*
X019297Y009036D01*
X019174Y009159D01*
X018528Y009159D01*
X018405Y009036D01*
X018405Y008824D01*
X018049Y009179D01*
X018049Y009219D01*
X017999Y009340D01*
X017907Y009432D01*
X017786Y009482D01*
X017746Y009482D01*
X017557Y009671D01*
X017465Y009709D01*
X016095Y009709D01*
X016095Y011002D01*
X027315Y011002D01*
X027315Y009219D01*
X026537Y009219D01*
X026439Y009318D01*
X025987Y009318D01*
X025864Y009195D01*
X025864Y007600D01*
X025735Y007470D01*
X025735Y009574D01*
X025694Y009673D01*
X025418Y009949D01*
X025342Y010025D01*
X025243Y010066D01*
X023210Y010066D01*
X023132Y010144D01*
X022680Y010144D01*
X022557Y010021D01*
X022557Y009570D01*
X022680Y009447D01*
X023132Y009447D01*
X023210Y009526D01*
X025078Y009526D01*
X025195Y009408D01*
X025195Y007348D01*
X025176Y007329D01*
X023108Y007329D01*
X023106Y007329D01*
X022799Y007329D01*
X022676Y007205D01*
X022676Y002976D01*
X022705Y002948D01*
X022705Y002201D01*
X022745Y002105D01*
X022820Y002030D01*
X022856Y001993D01*
X022857Y001993D01*
X022904Y001973D01*
X022951Y001953D01*
X022952Y001953D01*
X022953Y001953D01*
X023004Y001953D01*
X023582Y001949D01*
X023583Y001949D01*
X023633Y001949D01*
X023684Y001949D01*
X023684Y001949D01*
X023703Y001949D01*
X023705Y001949D01*
X023706Y001949D01*
X023752Y001968D01*
X023799Y001987D01*
X023800Y001988D01*
X023801Y001989D01*
X023837Y002024D01*
X023873Y002060D01*
X023874Y002061D01*
X023874Y002062D01*
X023876Y002066D01*
X024056Y002066D01*
X024179Y002189D01*
X024179Y002303D01*
X025953Y000529D01*
X026045Y000491D01*
X026125Y000491D01*
X026223Y000392D01*
X026675Y000392D01*
X026798Y000515D01*
X026798Y000966D01*
X026768Y000996D01*
X026798Y001027D01*
X026798Y001730D01*
X027147Y001730D01*
X027246Y001829D01*
X027315Y001829D01*
X027315Y000360D01*
X016095Y000360D01*
X016095Y000446D02*
X026170Y000446D01*
X025938Y000544D02*
X016095Y000544D01*
X016095Y000643D02*
X025839Y000643D01*
X025741Y000741D02*
X016095Y000741D01*
X016095Y000840D02*
X025642Y000840D01*
X025544Y000938D02*
X016095Y000938D01*
X016095Y001037D02*
X025445Y001037D01*
X025347Y001135D02*
X016095Y001135D01*
X016095Y001234D02*
X025248Y001234D01*
X025150Y001332D02*
X016095Y001332D01*
X016095Y001431D02*
X025051Y001431D01*
X024953Y001529D02*
X016095Y001529D01*
X016095Y001628D02*
X024854Y001628D01*
X024756Y001726D02*
X016095Y001726D01*
X016095Y001825D02*
X024657Y001825D01*
X024559Y001923D02*
X016095Y001923D01*
X016095Y002022D02*
X022828Y002022D01*
X022856Y001993D02*
X022856Y001993D01*
X022738Y002120D02*
X016095Y002120D01*
X016095Y002219D02*
X016995Y002219D01*
X016927Y002317D02*
X016095Y002317D01*
X016095Y002416D02*
X016927Y002416D01*
X016927Y002514D02*
X016632Y002514D01*
X016680Y002613D02*
X016927Y002613D01*
X016927Y002711D02*
X016680Y002711D01*
X015819Y002711D02*
X009548Y002711D01*
X009566Y002613D02*
X015819Y002613D01*
X015819Y002514D02*
X009566Y002514D01*
X009535Y002416D02*
X015819Y002416D01*
X015819Y002317D02*
X009489Y002317D01*
X009390Y002219D02*
X015819Y002219D01*
X015819Y002810D02*
X009507Y002810D01*
X009422Y002908D02*
X015819Y002908D01*
X016095Y003756D02*
X016095Y004054D01*
X018235Y004054D01*
X018235Y003727D01*
X016675Y003727D01*
X016596Y003806D01*
X016145Y003806D01*
X016095Y003756D01*
X016095Y003795D02*
X016133Y003795D01*
X016095Y003893D02*
X018235Y003893D01*
X018235Y003795D02*
X016608Y003795D01*
X016095Y003992D02*
X018235Y003992D01*
X019194Y002711D02*
X019290Y002711D01*
X019290Y002613D02*
X019096Y002613D01*
X019290Y002514D02*
X017631Y002514D01*
X017625Y002416D02*
X019316Y002416D01*
X020157Y002416D02*
X022705Y002416D01*
X022705Y002514D02*
X020183Y002514D01*
X020183Y002613D02*
X022705Y002613D01*
X022705Y002711D02*
X020183Y002711D01*
X020183Y002810D02*
X022705Y002810D01*
X022705Y002908D02*
X020183Y002908D01*
X020106Y003007D02*
X022676Y003007D01*
X022676Y003105D02*
X020784Y003105D01*
X020852Y003204D02*
X022676Y003204D01*
X022676Y003302D02*
X020852Y003302D01*
X020852Y003401D02*
X022676Y003401D01*
X022676Y003499D02*
X020852Y003499D01*
X020852Y003598D02*
X022676Y003598D01*
X022676Y003696D02*
X020852Y003696D01*
X020852Y003795D02*
X022676Y003795D01*
X022676Y003893D02*
X020852Y003893D01*
X020852Y003992D02*
X022676Y003992D01*
X022676Y004090D02*
X020852Y004090D01*
X020852Y004189D02*
X022676Y004189D01*
X022676Y004287D02*
X020852Y004287D01*
X020852Y004386D02*
X022676Y004386D01*
X022676Y004484D02*
X020852Y004484D01*
X020852Y004583D02*
X022676Y004583D01*
X022676Y004681D02*
X020852Y004681D01*
X020852Y004780D02*
X022676Y004780D01*
X022676Y004878D02*
X020852Y004878D01*
X020852Y004977D02*
X022676Y004977D01*
X022676Y005075D02*
X020852Y005075D01*
X020852Y005174D02*
X022676Y005174D01*
X022676Y005272D02*
X020852Y005272D01*
X020852Y005371D02*
X022676Y005371D01*
X022676Y005469D02*
X020852Y005469D01*
X020852Y005568D02*
X022676Y005568D01*
X022676Y005666D02*
X020852Y005666D01*
X020852Y005765D02*
X022676Y005765D01*
X022676Y005863D02*
X020852Y005863D01*
X020852Y005962D02*
X022676Y005962D01*
X022676Y006060D02*
X020852Y006060D01*
X020852Y006159D02*
X022676Y006159D01*
X022676Y006257D02*
X020852Y006257D01*
X020852Y006356D02*
X022676Y006356D01*
X022676Y006454D02*
X020852Y006454D01*
X020852Y006553D02*
X022676Y006553D01*
X022676Y006651D02*
X020852Y006651D01*
X020852Y006750D02*
X022676Y006750D01*
X022676Y006848D02*
X020852Y006848D01*
X020852Y006947D02*
X022676Y006947D01*
X022676Y007045D02*
X020852Y007045D01*
X020852Y007144D02*
X022676Y007144D01*
X022713Y007242D02*
X020852Y007242D01*
X020852Y007341D02*
X025187Y007341D01*
X025195Y007439D02*
X020852Y007439D01*
X020852Y007538D02*
X025195Y007538D01*
X025195Y007636D02*
X020852Y007636D01*
X020852Y007735D02*
X025195Y007735D01*
X025195Y007833D02*
X020815Y007833D01*
X020683Y007932D02*
X025195Y007932D01*
X025195Y008030D02*
X020766Y008030D01*
X020794Y008129D02*
X025195Y008129D01*
X025195Y008227D02*
X020794Y008227D01*
X020945Y008326D02*
X025195Y008326D01*
X025195Y008424D02*
X020990Y008424D01*
X020990Y008523D02*
X025195Y008523D01*
X025195Y008621D02*
X020990Y008621D01*
X020990Y008720D02*
X025195Y008720D01*
X025195Y008818D02*
X020990Y008818D01*
X020932Y008917D02*
X025195Y008917D01*
X025195Y009015D02*
X020926Y009015D01*
X020990Y009114D02*
X025195Y009114D01*
X025195Y009212D02*
X020990Y009212D01*
X020990Y009311D02*
X025195Y009311D01*
X025194Y009409D02*
X020990Y009409D01*
X020990Y009508D02*
X022620Y009508D01*
X022557Y009606D02*
X020990Y009606D01*
X020990Y009705D02*
X022557Y009705D01*
X022557Y009803D02*
X020990Y009803D01*
X020990Y009902D02*
X022557Y009902D01*
X022557Y010000D02*
X020990Y010000D01*
X020892Y010099D02*
X022634Y010099D01*
X023178Y010099D02*
X027315Y010099D01*
X027315Y010197D02*
X021350Y010197D01*
X021697Y010296D02*
X027315Y010296D01*
X027315Y010394D02*
X021759Y010394D01*
X021759Y010493D02*
X027315Y010493D01*
X027315Y010591D02*
X021759Y010591D01*
X021759Y010690D02*
X027315Y010690D01*
X027315Y010788D02*
X021759Y010788D01*
X021681Y010887D02*
X027315Y010887D01*
X027315Y010985D02*
X016095Y010985D01*
X016095Y010887D02*
X021139Y010887D01*
X021061Y010788D02*
X020911Y010788D01*
X019467Y010788D02*
X016095Y010788D01*
X016095Y010690D02*
X019389Y010690D01*
X019389Y010591D02*
X016095Y010591D01*
X016095Y010493D02*
X019389Y010493D01*
X019389Y010394D02*
X016095Y010394D01*
X016095Y010296D02*
X019389Y010296D01*
X019412Y010197D02*
X016095Y010197D01*
X016095Y010099D02*
X019487Y010099D01*
X019389Y010000D02*
X016095Y010000D01*
X016095Y009902D02*
X019389Y009902D01*
X019389Y009803D02*
X016095Y009803D01*
X015819Y009803D02*
X013354Y009803D01*
X013354Y009705D02*
X015819Y009705D01*
X015819Y009902D02*
X013354Y009902D01*
X013354Y010000D02*
X015819Y010000D01*
X015819Y010099D02*
X013354Y010099D01*
X013354Y010197D02*
X015819Y010197D01*
X015819Y010296D02*
X013323Y010296D01*
X013323Y010394D02*
X015819Y010394D01*
X015819Y010493D02*
X013323Y010493D01*
X013323Y010591D02*
X015819Y010591D01*
X015819Y010690D02*
X013320Y010690D01*
X013368Y010788D02*
X015819Y010788D01*
X015819Y010887D02*
X013467Y010887D01*
X013549Y010985D02*
X015819Y010985D01*
X015819Y011084D02*
X013549Y011084D01*
X013549Y011182D02*
X015819Y011182D01*
X015819Y011281D02*
X013549Y011281D01*
X013549Y011379D02*
X015819Y011379D01*
X015819Y011478D02*
X013549Y011478D01*
X013549Y011576D02*
X015819Y011576D01*
X015819Y011675D02*
X013549Y011675D01*
X013549Y011773D02*
X015819Y011773D01*
X015819Y011872D02*
X013549Y011872D01*
X013549Y011970D02*
X015819Y011970D01*
X015819Y012069D02*
X013549Y012069D01*
X013549Y012167D02*
X015819Y012167D01*
X015819Y012266D02*
X013549Y012266D01*
X013549Y012364D02*
X015819Y012364D01*
X015819Y012463D02*
X013549Y012463D01*
X013549Y012561D02*
X015819Y012561D01*
X015819Y012660D02*
X014344Y012660D01*
X013822Y012660D02*
X013549Y012660D01*
X013691Y012758D02*
X013726Y012758D01*
X013726Y012857D02*
X013702Y012857D01*
X013702Y012955D02*
X013726Y012955D01*
X013726Y013054D02*
X013702Y013054D01*
X013702Y013152D02*
X013726Y013152D01*
X013726Y013251D02*
X013702Y013251D01*
X014387Y013448D02*
X015819Y013448D01*
X015819Y013546D02*
X013875Y013546D01*
X013875Y013645D02*
X015819Y013645D01*
X015819Y013743D02*
X013875Y013743D01*
X013875Y013842D02*
X015819Y013842D01*
X015819Y013940D02*
X013785Y013940D01*
X014834Y013349D02*
X015819Y013349D01*
X015819Y013251D02*
X014898Y013251D01*
X014898Y013152D02*
X015819Y013152D01*
X015819Y013054D02*
X014898Y013054D01*
X014898Y012955D02*
X015819Y012955D01*
X015819Y012857D02*
X014898Y012857D01*
X014814Y012758D02*
X015819Y012758D01*
X013129Y011182D02*
X012449Y011182D01*
X012466Y011084D02*
X013070Y011084D01*
X012006Y009659D02*
X011546Y009659D01*
X011449Y009756D01*
X011483Y009705D02*
X011533Y009705D01*
X012466Y009219D02*
X012466Y008995D01*
X012466Y008879D01*
X015819Y008879D01*
X015819Y009219D01*
X012466Y009219D01*
X012466Y009212D02*
X015819Y009212D01*
X015819Y009114D02*
X012466Y009114D01*
X012466Y009015D02*
X015819Y009015D01*
X015819Y008917D02*
X012466Y008917D01*
X012860Y008051D02*
X015819Y008051D01*
X015819Y007762D01*
X013961Y007762D01*
X013744Y007545D01*
X013524Y007545D01*
X013424Y007446D01*
X013424Y007027D01*
X013524Y006928D01*
X013942Y006928D01*
X014041Y007027D01*
X014041Y007248D01*
X014135Y007342D01*
X015819Y007342D01*
X015819Y005695D01*
X014115Y005695D01*
X014041Y005768D01*
X014041Y005989D01*
X013942Y006089D01*
X013524Y006089D01*
X013424Y005989D01*
X013424Y005571D01*
X013497Y005498D01*
X012989Y005498D01*
X012218Y006268D01*
X012218Y007854D01*
X012243Y007854D01*
X012243Y007736D01*
X012342Y007637D01*
X012761Y007637D01*
X012860Y007736D01*
X012860Y008051D01*
X012860Y008030D02*
X015819Y008030D01*
X015819Y007932D02*
X012860Y007932D01*
X012860Y007833D02*
X015819Y007833D01*
X015819Y007341D02*
X014134Y007341D01*
X014041Y007242D02*
X015819Y007242D01*
X015819Y007144D02*
X014041Y007144D01*
X014041Y007045D02*
X015819Y007045D01*
X015819Y006947D02*
X013960Y006947D01*
X013505Y006947D02*
X012218Y006947D01*
X012218Y007045D02*
X013424Y007045D01*
X013424Y007144D02*
X012218Y007144D01*
X012218Y007242D02*
X013424Y007242D01*
X013424Y007341D02*
X012218Y007341D01*
X012218Y007439D02*
X013424Y007439D01*
X013516Y007538D02*
X012218Y007538D01*
X012218Y007636D02*
X013835Y007636D01*
X013934Y007735D02*
X012859Y007735D01*
X012244Y007735D02*
X012218Y007735D01*
X012218Y007833D02*
X012243Y007833D01*
X011798Y007735D02*
X011476Y007735D01*
X011501Y007636D02*
X011798Y007636D01*
X011798Y007538D02*
X011501Y007538D01*
X011501Y007439D02*
X011798Y007439D01*
X011798Y007341D02*
X011501Y007341D01*
X011501Y007242D02*
X011798Y007242D01*
X011798Y007144D02*
X011501Y007144D01*
X011501Y007045D02*
X011798Y007045D01*
X011798Y006947D02*
X011486Y006947D01*
X011486Y006848D02*
X011798Y006848D01*
X011798Y006750D02*
X011486Y006750D01*
X011525Y006651D02*
X011798Y006651D01*
X011798Y006553D02*
X011623Y006553D01*
X011722Y006454D02*
X011798Y006454D01*
X012218Y006454D02*
X015819Y006454D01*
X015819Y006356D02*
X012218Y006356D01*
X012230Y006257D02*
X015819Y006257D01*
X015819Y006159D02*
X012328Y006159D01*
X012427Y006060D02*
X013495Y006060D01*
X013424Y005962D02*
X012525Y005962D01*
X012624Y005863D02*
X013424Y005863D01*
X013424Y005765D02*
X012722Y005765D01*
X012821Y005666D02*
X013424Y005666D01*
X013427Y005568D02*
X012919Y005568D01*
X013970Y006060D02*
X015819Y006060D01*
X015819Y005962D02*
X014041Y005962D01*
X014041Y005863D02*
X015819Y005863D01*
X015819Y005765D02*
X014045Y005765D01*
X015819Y006553D02*
X012218Y006553D01*
X012218Y006651D02*
X015819Y006651D01*
X015819Y006750D02*
X012218Y006750D01*
X012218Y006848D02*
X015819Y006848D01*
X016095Y006848D02*
X016991Y006848D01*
X016991Y006750D02*
X016095Y006750D01*
X016095Y006651D02*
X016991Y006651D01*
X016991Y006553D02*
X016095Y006553D01*
X016095Y006454D02*
X016952Y006454D01*
X016924Y006426D02*
X016991Y006493D01*
X016991Y007300D01*
X016993Y007302D01*
X016095Y007302D01*
X016095Y005735D01*
X016969Y005735D01*
X016924Y005780D01*
X016924Y006426D01*
X016924Y006356D02*
X016095Y006356D01*
X016095Y006257D02*
X016924Y006257D01*
X016924Y006159D02*
X016095Y006159D01*
X016095Y006060D02*
X016924Y006060D01*
X016924Y005962D02*
X016095Y005962D01*
X016095Y005863D02*
X016924Y005863D01*
X016939Y005765D02*
X016095Y005765D01*
X016095Y006947D02*
X016991Y006947D01*
X016991Y007045D02*
X016095Y007045D01*
X016095Y007144D02*
X016991Y007144D01*
X016991Y007242D02*
X016095Y007242D01*
X019180Y008326D02*
X019433Y008326D01*
X019389Y008424D02*
X019180Y008424D01*
X019272Y008523D02*
X019389Y008523D01*
X019389Y008621D02*
X019297Y008621D01*
X019297Y008720D02*
X019389Y008720D01*
X019389Y008818D02*
X019297Y008818D01*
X019297Y008917D02*
X019446Y008917D01*
X019453Y009015D02*
X019297Y009015D01*
X019220Y009114D02*
X019389Y009114D01*
X019389Y009212D02*
X018049Y009212D01*
X018011Y009311D02*
X019389Y009311D01*
X019389Y009409D02*
X017930Y009409D01*
X017721Y009508D02*
X019389Y009508D01*
X019389Y009606D02*
X017622Y009606D01*
X017477Y009705D02*
X019389Y009705D01*
X018482Y009114D02*
X018115Y009114D01*
X018213Y009015D02*
X018405Y009015D01*
X018405Y008917D02*
X018312Y008917D01*
X019277Y008227D02*
X019585Y008227D01*
X019585Y008129D02*
X019375Y008129D01*
X019474Y008030D02*
X019563Y008030D01*
X023162Y007453D02*
X023162Y007256D01*
X025735Y007538D02*
X025802Y007538D01*
X025864Y007636D02*
X025735Y007636D01*
X025735Y007735D02*
X025864Y007735D01*
X025864Y007833D02*
X025735Y007833D01*
X025735Y007932D02*
X025864Y007932D01*
X025864Y008030D02*
X025735Y008030D01*
X025735Y008129D02*
X025864Y008129D01*
X025864Y008227D02*
X025735Y008227D01*
X025735Y008326D02*
X025864Y008326D01*
X025864Y008424D02*
X025735Y008424D01*
X025735Y008523D02*
X025864Y008523D01*
X025864Y008621D02*
X025735Y008621D01*
X025735Y008720D02*
X025864Y008720D01*
X025864Y008818D02*
X025735Y008818D01*
X025735Y008917D02*
X025864Y008917D01*
X025864Y009015D02*
X025735Y009015D01*
X025735Y009114D02*
X025864Y009114D01*
X025882Y009212D02*
X025735Y009212D01*
X025735Y009311D02*
X025980Y009311D01*
X025735Y009409D02*
X027315Y009409D01*
X027315Y009311D02*
X026446Y009311D01*
X025735Y009508D02*
X027315Y009508D01*
X027315Y009606D02*
X025722Y009606D01*
X025662Y009705D02*
X027315Y009705D01*
X027315Y009803D02*
X025564Y009803D01*
X025465Y009902D02*
X027315Y009902D01*
X027315Y010000D02*
X025367Y010000D01*
X025096Y009508D02*
X023192Y009508D01*
X025977Y011804D02*
X025977Y012256D01*
X026213Y012493D01*
X027591Y012493D01*
X027650Y012552D01*
X027650Y012847D01*
X027630Y012867D01*
X027591Y013194D02*
X027591Y013218D01*
X027949Y013218D01*
X028067Y013335D01*
X028067Y013816D01*
X027949Y013933D01*
X027591Y013933D01*
X027591Y015580D01*
X027812Y015580D01*
X027929Y015697D01*
X027929Y016178D01*
X027812Y016295D01*
X027591Y016295D01*
X027591Y017489D01*
X027831Y017489D01*
X027948Y017607D01*
X027948Y018087D01*
X027834Y018201D01*
X027948Y018315D01*
X027948Y018796D01*
X027893Y018851D01*
X038042Y018851D01*
X037899Y018828D01*
X037899Y018828D01*
X037501Y018626D01*
X037186Y018310D01*
X036984Y017913D01*
X036914Y017473D01*
X036984Y017032D01*
X037186Y016635D01*
X037501Y016320D01*
X037501Y016320D01*
X037899Y016118D01*
X038339Y016048D01*
X038779Y016118D01*
X039177Y016320D01*
X039492Y016635D01*
X039492Y016635D01*
X039547Y016743D01*
X039547Y014743D01*
X039517Y014755D01*
X039472Y014774D01*
X039471Y014774D01*
X039422Y014774D01*
X039373Y014774D01*
X039372Y014774D01*
X038614Y014772D01*
X038567Y014819D01*
X037511Y014819D01*
X037614Y014921D01*
X037614Y015402D01*
X037497Y015519D01*
X036858Y015519D01*
X036751Y015412D01*
X036372Y015412D01*
X036280Y015374D01*
X035977Y015070D01*
X035882Y015165D01*
X035838Y015183D01*
X035818Y015203D01*
X035489Y015203D01*
X035489Y015293D01*
X035372Y015410D01*
X034928Y015410D01*
X034811Y015293D01*
X034811Y014952D01*
X034780Y014952D01*
X034780Y015293D01*
X034663Y015410D01*
X034220Y015410D01*
X034103Y015293D01*
X034103Y014921D01*
X034102Y014921D01*
X034088Y014921D01*
X033971Y014804D01*
X033971Y012638D01*
X034026Y012584D01*
X032698Y012584D01*
X032598Y012484D01*
X032598Y010648D01*
X032567Y010648D01*
X032567Y010985D01*
X032449Y011102D01*
X031049Y011102D01*
X031049Y011788D01*
X031079Y011818D01*
X031079Y012261D01*
X030962Y012379D01*
X030519Y012379D01*
X030402Y012261D01*
X030402Y011912D01*
X030389Y011925D01*
X030148Y011925D01*
X030048Y011826D01*
X030048Y011590D01*
X029959Y011501D01*
X029959Y011083D01*
X030059Y010983D01*
X030395Y010983D01*
X030395Y009008D01*
X030466Y008937D01*
X030413Y008884D01*
X030413Y008812D01*
X030157Y008812D01*
X030040Y008694D01*
X030040Y008251D01*
X030157Y008134D01*
X030413Y008134D01*
X030413Y008069D01*
X030475Y008007D01*
X030425Y007957D01*
X030425Y006005D01*
X030524Y005905D01*
X032318Y005905D01*
X032318Y004640D01*
X032317Y004554D01*
X032317Y004553D01*
X032317Y004504D01*
X032317Y004455D01*
X032318Y004454D01*
X032318Y004453D01*
X032318Y003819D01*
X032356Y003781D01*
X032356Y003177D01*
X032473Y003060D01*
X032953Y003060D01*
X033070Y003177D01*
X033070Y003229D01*
X033479Y002821D01*
X033567Y002784D01*
X035985Y002784D01*
X036073Y002821D01*
X036152Y002899D01*
X036220Y002967D01*
X036256Y003055D01*
X036256Y003137D01*
X036355Y003236D01*
X036355Y003661D01*
X039353Y003664D01*
X039403Y003664D01*
X039452Y003664D01*
X039452Y003664D01*
X039452Y003664D01*
X039498Y003683D01*
X039544Y003702D01*
X039547Y003705D01*
X039547Y002454D01*
X039492Y002562D01*
X039492Y002562D01*
X039177Y002878D01*
X038779Y003080D01*
X038339Y003150D01*
X037899Y003080D01*
X037899Y003080D01*
X037501Y002878D01*
X037186Y002562D01*
X036984Y002165D01*
X036914Y001725D01*
X036914Y001725D01*
X036984Y001284D01*
X037186Y000887D01*
X037501Y000572D01*
X037501Y000572D01*
X037899Y000370D01*
X038188Y000324D01*
X038130Y000320D01*
X027591Y000320D01*
X027591Y001869D01*
X027717Y001869D01*
X028195Y002346D01*
X028195Y003110D01*
X028521Y003110D01*
X028638Y003228D01*
X028638Y003671D01*
X028540Y003770D01*
X028540Y004618D01*
X029302Y005380D01*
X029369Y005447D01*
X029406Y005535D01*
X029406Y009332D01*
X029369Y009420D01*
X028855Y009934D01*
X028855Y011822D01*
X029048Y012016D01*
X029269Y012016D01*
X029386Y012133D01*
X029386Y012576D01*
X029269Y012693D01*
X028826Y012693D01*
X028709Y012576D01*
X028709Y012355D01*
X028411Y012058D01*
X028375Y011969D01*
X028375Y009819D01*
X027960Y009819D01*
X027843Y009702D01*
X027843Y009259D01*
X027893Y009209D01*
X027591Y009209D01*
X027591Y012273D01*
X027682Y012273D01*
X027741Y012332D01*
X027870Y012460D01*
X027870Y012539D01*
X027937Y012539D01*
X028037Y012639D01*
X028037Y013094D01*
X027937Y013194D01*
X027591Y013194D01*
X027979Y013152D02*
X033971Y013152D01*
X033971Y013054D02*
X028037Y013054D01*
X028037Y012955D02*
X033971Y012955D01*
X033971Y012857D02*
X028037Y012857D01*
X028037Y012758D02*
X033971Y012758D01*
X033971Y012660D02*
X029303Y012660D01*
X029386Y012561D02*
X032675Y012561D01*
X032598Y012463D02*
X029386Y012463D01*
X029386Y012364D02*
X030504Y012364D01*
X030406Y012266D02*
X029386Y012266D01*
X029386Y012167D02*
X030402Y012167D01*
X030402Y012069D02*
X029322Y012069D01*
X029002Y011970D02*
X030402Y011970D01*
X030094Y011872D02*
X028904Y011872D01*
X028855Y011773D02*
X030048Y011773D01*
X030048Y011675D02*
X028855Y011675D01*
X028855Y011576D02*
X030035Y011576D01*
X029959Y011478D02*
X028855Y011478D01*
X028855Y011379D02*
X029959Y011379D01*
X029959Y011281D02*
X028855Y011281D01*
X028855Y011182D02*
X029959Y011182D01*
X029959Y011084D02*
X028855Y011084D01*
X028855Y010985D02*
X030057Y010985D01*
X030395Y010887D02*
X028855Y010887D01*
X028855Y010788D02*
X030395Y010788D01*
X030395Y010690D02*
X028855Y010690D01*
X028855Y010591D02*
X030395Y010591D01*
X030395Y010493D02*
X028855Y010493D01*
X028855Y010394D02*
X030395Y010394D01*
X030395Y010296D02*
X028855Y010296D01*
X028855Y010197D02*
X030395Y010197D01*
X030395Y010099D02*
X028855Y010099D01*
X028855Y010000D02*
X030395Y010000D01*
X030395Y009902D02*
X028887Y009902D01*
X028986Y009803D02*
X030395Y009803D01*
X030395Y009705D02*
X029084Y009705D01*
X029183Y009606D02*
X030395Y009606D01*
X030395Y009508D02*
X029281Y009508D01*
X029374Y009409D02*
X030395Y009409D01*
X030395Y009311D02*
X029406Y009311D01*
X029406Y009212D02*
X030395Y009212D01*
X030395Y009114D02*
X029406Y009114D01*
X029406Y009015D02*
X030395Y009015D01*
X030445Y008917D02*
X029406Y008917D01*
X029406Y008818D02*
X030413Y008818D01*
X030065Y008720D02*
X029406Y008720D01*
X029406Y008621D02*
X030040Y008621D01*
X030040Y008523D02*
X029406Y008523D01*
X029406Y008424D02*
X030040Y008424D01*
X030040Y008326D02*
X029406Y008326D01*
X029406Y008227D02*
X030064Y008227D01*
X030413Y008129D02*
X029406Y008129D01*
X029406Y008030D02*
X030452Y008030D01*
X030425Y007932D02*
X029406Y007932D01*
X029406Y007833D02*
X030425Y007833D01*
X030425Y007735D02*
X029406Y007735D01*
X029406Y007636D02*
X030425Y007636D01*
X030425Y007538D02*
X029406Y007538D01*
X029406Y007439D02*
X030425Y007439D01*
X030425Y007341D02*
X029406Y007341D01*
X029406Y007242D02*
X030425Y007242D01*
X030425Y007144D02*
X029406Y007144D01*
X029406Y007045D02*
X030425Y007045D01*
X030425Y006947D02*
X029406Y006947D01*
X029406Y006848D02*
X030425Y006848D01*
X030425Y006750D02*
X029406Y006750D01*
X029406Y006651D02*
X030425Y006651D01*
X030425Y006553D02*
X029406Y006553D01*
X029406Y006454D02*
X030425Y006454D01*
X030425Y006356D02*
X029406Y006356D01*
X029406Y006257D02*
X030425Y006257D01*
X030425Y006159D02*
X029406Y006159D01*
X029406Y006060D02*
X030425Y006060D01*
X030468Y005962D02*
X029406Y005962D01*
X029406Y005863D02*
X032318Y005863D01*
X032318Y005765D02*
X029406Y005765D01*
X029406Y005666D02*
X032318Y005666D01*
X032318Y005568D02*
X029406Y005568D01*
X029378Y005469D02*
X032318Y005469D01*
X032318Y005371D02*
X029293Y005371D01*
X029194Y005272D02*
X032318Y005272D01*
X032318Y005174D02*
X029096Y005174D01*
X028997Y005075D02*
X032318Y005075D01*
X032318Y004977D02*
X028899Y004977D01*
X028800Y004878D02*
X032318Y004878D01*
X032318Y004780D02*
X028702Y004780D01*
X028603Y004681D02*
X032318Y004681D01*
X032318Y004583D02*
X028540Y004583D01*
X028540Y004484D02*
X032317Y004484D01*
X032318Y004453D02*
X032318Y004453D01*
X032318Y004386D02*
X028540Y004386D01*
X028540Y004287D02*
X032318Y004287D01*
X032318Y004189D02*
X028540Y004189D01*
X028540Y004090D02*
X032318Y004090D01*
X032318Y003992D02*
X028540Y003992D01*
X028540Y003893D02*
X032318Y003893D01*
X032342Y003795D02*
X028540Y003795D01*
X028613Y003696D02*
X032356Y003696D01*
X032356Y003598D02*
X028638Y003598D01*
X028638Y003499D02*
X032356Y003499D01*
X032356Y003401D02*
X028638Y003401D01*
X028638Y003302D02*
X032356Y003302D01*
X032356Y003204D02*
X028614Y003204D01*
X028195Y003105D02*
X031765Y003105D01*
X031761Y003101D02*
X031761Y002860D01*
X031771Y002850D01*
X031771Y001224D01*
X031849Y001146D01*
X031849Y000925D01*
X031949Y000826D01*
X032367Y000826D01*
X032467Y000925D01*
X032467Y001343D01*
X032367Y001443D01*
X032191Y001443D01*
X032191Y002850D01*
X032201Y002860D01*
X032201Y003101D01*
X032101Y003201D01*
X031860Y003201D01*
X031761Y003101D01*
X031761Y003007D02*
X028195Y003007D01*
X028195Y002908D02*
X031761Y002908D01*
X031771Y002810D02*
X028195Y002810D01*
X028195Y002711D02*
X031771Y002711D01*
X031771Y002613D02*
X028195Y002613D01*
X028195Y002514D02*
X031771Y002514D01*
X031771Y002416D02*
X028195Y002416D01*
X028165Y002317D02*
X031771Y002317D01*
X031771Y002219D02*
X028067Y002219D01*
X027968Y002120D02*
X031771Y002120D01*
X031771Y002022D02*
X027870Y002022D01*
X027771Y001923D02*
X031771Y001923D01*
X031771Y001825D02*
X027591Y001825D01*
X027591Y001726D02*
X031771Y001726D01*
X031771Y001628D02*
X027591Y001628D01*
X027591Y001529D02*
X031771Y001529D01*
X031771Y001431D02*
X027591Y001431D01*
X027591Y001332D02*
X031771Y001332D01*
X031771Y001234D02*
X027591Y001234D01*
X027591Y001135D02*
X031849Y001135D01*
X031849Y001037D02*
X027591Y001037D01*
X027591Y000938D02*
X031849Y000938D01*
X031935Y000840D02*
X027591Y000840D01*
X027591Y000741D02*
X037332Y000741D01*
X037234Y000840D02*
X032381Y000840D01*
X032467Y000938D02*
X037160Y000938D01*
X037186Y000887D02*
X037186Y000887D01*
X037110Y001037D02*
X032467Y001037D01*
X032467Y001135D02*
X037060Y001135D01*
X037010Y001234D02*
X032467Y001234D01*
X032467Y001332D02*
X036976Y001332D01*
X036984Y001284D02*
X036984Y001284D01*
X036961Y001431D02*
X032380Y001431D01*
X032191Y001529D02*
X036945Y001529D01*
X036929Y001628D02*
X032191Y001628D01*
X032191Y001726D02*
X036914Y001726D01*
X036930Y001825D02*
X032191Y001825D01*
X032191Y001923D02*
X036945Y001923D01*
X036961Y002022D02*
X032191Y002022D01*
X032191Y002120D02*
X036977Y002120D01*
X036984Y002165D02*
X036984Y002165D01*
X037011Y002219D02*
X032191Y002219D01*
X032191Y002317D02*
X037061Y002317D01*
X037111Y002416D02*
X032191Y002416D01*
X032191Y002514D02*
X037161Y002514D01*
X037186Y002562D02*
X037186Y002562D01*
X037236Y002613D02*
X032191Y002613D01*
X032191Y002711D02*
X037335Y002711D01*
X037433Y002810D02*
X036047Y002810D01*
X036161Y002908D02*
X037561Y002908D01*
X037501Y002878D02*
X037501Y002878D01*
X037754Y003007D02*
X036236Y003007D01*
X036256Y003105D02*
X038056Y003105D01*
X038339Y003150D02*
X038339Y003150D01*
X038622Y003105D02*
X039547Y003105D01*
X039547Y003007D02*
X038924Y003007D01*
X038779Y003080D02*
X038779Y003080D01*
X039117Y002908D02*
X039547Y002908D01*
X039547Y002810D02*
X039245Y002810D01*
X039177Y002878D02*
X039177Y002878D01*
X039343Y002711D02*
X039547Y002711D01*
X039547Y002613D02*
X039442Y002613D01*
X039516Y002514D02*
X039547Y002514D01*
X039547Y003204D02*
X036323Y003204D01*
X036355Y003302D02*
X039547Y003302D01*
X039547Y003401D02*
X036355Y003401D01*
X036355Y003499D02*
X039547Y003499D01*
X039547Y003598D02*
X036355Y003598D01*
X034933Y003910D02*
X034922Y007430D01*
X036418Y007433D01*
X036422Y007961D01*
X039394Y007961D01*
X039402Y003914D01*
X034933Y003910D01*
X034933Y003992D02*
X039402Y003992D01*
X039402Y004090D02*
X034933Y004090D01*
X034933Y004189D02*
X039401Y004189D01*
X039401Y004287D02*
X034932Y004287D01*
X034932Y004386D02*
X039401Y004386D01*
X039401Y004484D02*
X034932Y004484D01*
X034931Y004583D02*
X039401Y004583D01*
X039400Y004681D02*
X034931Y004681D01*
X034931Y004780D02*
X039400Y004780D01*
X039400Y004878D02*
X034930Y004878D01*
X034930Y004977D02*
X039400Y004977D01*
X039400Y005075D02*
X034930Y005075D01*
X034929Y005174D02*
X039400Y005174D01*
X039399Y005272D02*
X034929Y005272D01*
X034929Y005371D02*
X039399Y005371D01*
X039399Y005469D02*
X034928Y005469D01*
X034928Y005568D02*
X039399Y005568D01*
X039399Y005666D02*
X034928Y005666D01*
X034927Y005765D02*
X039398Y005765D01*
X039398Y005863D02*
X034927Y005863D01*
X034927Y005962D02*
X039398Y005962D01*
X039398Y006060D02*
X034926Y006060D01*
X034926Y006159D02*
X039398Y006159D01*
X039397Y006257D02*
X034926Y006257D01*
X034925Y006356D02*
X039397Y006356D01*
X039397Y006454D02*
X034925Y006454D01*
X034925Y006553D02*
X039397Y006553D01*
X039397Y006651D02*
X034924Y006651D01*
X034924Y006750D02*
X039396Y006750D01*
X039396Y006848D02*
X034924Y006848D01*
X034923Y006947D02*
X039396Y006947D01*
X039396Y007045D02*
X034923Y007045D01*
X034923Y007144D02*
X039396Y007144D01*
X039395Y007242D02*
X034922Y007242D01*
X034922Y007341D02*
X039395Y007341D01*
X039395Y007439D02*
X036418Y007439D01*
X036418Y007538D02*
X039395Y007538D01*
X039395Y007636D02*
X036419Y007636D01*
X036420Y007735D02*
X039395Y007735D01*
X039394Y007833D02*
X036421Y007833D01*
X036421Y007932D02*
X039394Y007932D01*
X039441Y008221D02*
X030999Y008221D01*
X030999Y008864D01*
X030973Y008889D01*
X030965Y010398D01*
X036779Y010398D01*
X036790Y010394D01*
X037014Y010394D01*
X037024Y010398D01*
X038194Y010398D01*
X038198Y010394D01*
X037015Y010394D01*
X036789Y010394D02*
X030965Y010394D01*
X030966Y010296D02*
X039430Y010296D01*
X039430Y010394D02*
X039149Y010394D01*
X039153Y010398D01*
X039430Y010398D01*
X039441Y008221D01*
X039441Y008227D02*
X030999Y008227D01*
X030999Y008326D02*
X039441Y008326D01*
X039440Y008424D02*
X030999Y008424D01*
X030999Y008523D02*
X039440Y008523D01*
X039439Y008621D02*
X030999Y008621D01*
X030999Y008720D02*
X039439Y008720D01*
X039438Y008818D02*
X030999Y008818D01*
X030973Y008917D02*
X039438Y008917D01*
X039437Y009015D02*
X030972Y009015D01*
X030972Y009114D02*
X039436Y009114D01*
X039436Y009212D02*
X030971Y009212D01*
X030971Y009311D02*
X039435Y009311D01*
X039435Y009409D02*
X030970Y009409D01*
X030970Y009508D02*
X039434Y009508D01*
X039434Y009606D02*
X030969Y009606D01*
X030969Y009705D02*
X039433Y009705D01*
X039433Y009803D02*
X030968Y009803D01*
X030968Y009902D02*
X039432Y009902D01*
X039432Y010000D02*
X030967Y010000D01*
X030967Y010099D02*
X039431Y010099D01*
X039431Y010197D02*
X030966Y010197D01*
X032567Y010690D02*
X032598Y010690D01*
X032598Y010788D02*
X032567Y010788D01*
X032567Y010887D02*
X032598Y010887D01*
X032598Y010985D02*
X032566Y010985D01*
X032598Y011084D02*
X032468Y011084D01*
X032598Y011182D02*
X031049Y011182D01*
X031049Y011281D02*
X032598Y011281D01*
X032598Y011379D02*
X031049Y011379D01*
X031049Y011478D02*
X032598Y011478D01*
X032598Y011576D02*
X031049Y011576D01*
X031049Y011675D02*
X032598Y011675D01*
X032598Y011773D02*
X031049Y011773D01*
X031079Y011872D02*
X032598Y011872D01*
X032598Y011970D02*
X031079Y011970D01*
X031079Y012069D02*
X032598Y012069D01*
X032598Y012167D02*
X031079Y012167D01*
X031075Y012266D02*
X032598Y012266D01*
X032598Y012364D02*
X030977Y012364D01*
X029531Y013563D02*
X029414Y013446D01*
X028933Y013446D01*
X028816Y013563D01*
X028816Y014201D01*
X028832Y014217D01*
X028832Y014792D01*
X028949Y014909D01*
X029430Y014909D01*
X029547Y014792D01*
X029547Y014154D01*
X029531Y014138D01*
X029531Y013563D01*
X029514Y013546D02*
X033971Y013546D01*
X033971Y013448D02*
X029415Y013448D01*
X029531Y013645D02*
X033971Y013645D01*
X033971Y013743D02*
X029531Y013743D01*
X029531Y013842D02*
X033971Y013842D01*
X033971Y013940D02*
X029531Y013940D01*
X029531Y014039D02*
X033971Y014039D01*
X033971Y014137D02*
X029531Y014137D01*
X029547Y014236D02*
X033971Y014236D01*
X033971Y014334D02*
X029547Y014334D01*
X029547Y014433D02*
X033971Y014433D01*
X033971Y014531D02*
X029547Y014531D01*
X029547Y014630D02*
X033971Y014630D01*
X033971Y014728D02*
X029547Y014728D01*
X029512Y014827D02*
X031491Y014827D01*
X031516Y014802D02*
X031934Y014802D01*
X032023Y014891D01*
X032121Y014891D01*
X032220Y014990D01*
X032220Y015231D01*
X032121Y015331D01*
X032023Y015331D01*
X031934Y015419D01*
X031516Y015419D01*
X031416Y015320D01*
X031416Y014901D01*
X031516Y014802D01*
X031416Y014925D02*
X028697Y014925D01*
X028697Y014960D02*
X029395Y015659D01*
X029715Y015659D01*
X029715Y015484D01*
X029815Y015384D01*
X030606Y015384D01*
X030705Y015484D01*
X030705Y016274D01*
X030606Y016374D01*
X029815Y016374D01*
X029715Y016274D01*
X029715Y016099D01*
X029213Y016099D01*
X028386Y015272D01*
X028257Y015143D01*
X028257Y014879D01*
X028253Y014879D01*
X028153Y014779D01*
X028153Y014166D01*
X028253Y014067D01*
X028709Y014067D01*
X028808Y014166D01*
X028808Y014779D01*
X028709Y014879D01*
X028697Y014879D01*
X028697Y014960D01*
X028760Y015024D02*
X031416Y015024D01*
X031416Y015122D02*
X028858Y015122D01*
X028957Y015221D02*
X031416Y015221D01*
X031416Y015319D02*
X029055Y015319D01*
X029154Y015418D02*
X029781Y015418D01*
X029715Y015516D02*
X029252Y015516D01*
X029351Y015615D02*
X029715Y015615D01*
X029304Y015879D02*
X028477Y015052D01*
X028477Y014477D01*
X028481Y014473D01*
X028808Y014433D02*
X028832Y014433D01*
X028832Y014531D02*
X028808Y014531D01*
X028808Y014630D02*
X028832Y014630D01*
X028832Y014728D02*
X028808Y014728D01*
X028761Y014827D02*
X028867Y014827D01*
X029189Y014473D02*
X029189Y013898D01*
X029174Y013882D01*
X028816Y013842D02*
X028041Y013842D01*
X028067Y013743D02*
X028816Y013743D01*
X028816Y013645D02*
X028067Y013645D01*
X028067Y013546D02*
X028833Y013546D01*
X028932Y013448D02*
X028067Y013448D01*
X028067Y013349D02*
X033971Y013349D01*
X033971Y013251D02*
X027982Y013251D01*
X027630Y013575D02*
X027079Y013575D01*
X026508Y013575D01*
X025598Y014486D01*
X025598Y014910D01*
X025958Y014910D02*
X025958Y014618D01*
X026410Y014166D01*
X027000Y014166D01*
X027591Y014137D02*
X028182Y014137D01*
X028153Y014236D02*
X027591Y014236D01*
X027591Y014334D02*
X028153Y014334D01*
X028153Y014433D02*
X027591Y014433D01*
X027591Y014531D02*
X028153Y014531D01*
X028153Y014630D02*
X027591Y014630D01*
X027591Y014728D02*
X028153Y014728D01*
X028200Y014827D02*
X027591Y014827D01*
X027591Y014925D02*
X028257Y014925D01*
X028257Y015024D02*
X027591Y015024D01*
X027591Y015122D02*
X028257Y015122D01*
X028335Y015221D02*
X027591Y015221D01*
X027591Y015319D02*
X028433Y015319D01*
X028532Y015418D02*
X027591Y015418D01*
X027591Y015516D02*
X028630Y015516D01*
X028729Y015615D02*
X027846Y015615D01*
X027929Y015713D02*
X028827Y015713D01*
X028926Y015812D02*
X027929Y015812D01*
X027929Y015910D02*
X029024Y015910D01*
X029123Y016009D02*
X027929Y016009D01*
X027929Y016107D02*
X029715Y016107D01*
X029715Y016206D02*
X027901Y016206D01*
X027591Y016304D02*
X029745Y016304D01*
X029304Y015879D02*
X030210Y015879D01*
X030705Y015910D02*
X033287Y015910D01*
X033287Y015900D02*
X033376Y015686D01*
X033540Y015522D01*
X033754Y015433D01*
X033987Y015433D01*
X034201Y015522D01*
X034365Y015686D01*
X034454Y015900D01*
X034454Y016132D01*
X034365Y016347D01*
X034201Y016511D01*
X033987Y016600D01*
X033754Y016600D01*
X033540Y016511D01*
X033376Y016347D01*
X033287Y016132D01*
X033287Y015900D01*
X033324Y015812D02*
X030705Y015812D01*
X030705Y015713D02*
X033365Y015713D01*
X033447Y015615D02*
X030705Y015615D01*
X030705Y015516D02*
X033553Y015516D01*
X034129Y015319D02*
X032132Y015319D01*
X032220Y015221D02*
X034103Y015221D01*
X034103Y015122D02*
X032220Y015122D01*
X032237Y015111D02*
X032079Y015111D01*
X032220Y015024D02*
X034103Y015024D01*
X034103Y014925D02*
X032155Y014925D01*
X031959Y014827D02*
X033994Y014827D01*
X034225Y014701D02*
X034225Y013339D01*
X036449Y013335D01*
X036449Y014705D01*
X034225Y014701D01*
X034225Y014630D02*
X036449Y014630D01*
X036449Y014531D02*
X034225Y014531D01*
X034225Y014433D02*
X036449Y014433D01*
X036449Y014334D02*
X034225Y014334D01*
X034225Y014236D02*
X036449Y014236D01*
X036449Y014137D02*
X034225Y014137D01*
X034225Y014039D02*
X036449Y014039D01*
X036449Y013940D02*
X034225Y013940D01*
X034225Y013842D02*
X036449Y013842D01*
X036449Y013743D02*
X034225Y013743D01*
X034225Y013645D02*
X036449Y013645D01*
X036449Y013546D02*
X034225Y013546D01*
X034225Y013448D02*
X036449Y013448D01*
X036449Y013349D02*
X034225Y013349D01*
X034815Y013767D02*
X034861Y013721D01*
X035977Y014589D02*
X036083Y014483D01*
X035977Y014589D02*
X035977Y014717D01*
X036422Y015162D01*
X037178Y015162D01*
X037500Y015516D02*
X039547Y015516D01*
X039547Y015418D02*
X037598Y015418D01*
X037614Y015319D02*
X039547Y015319D01*
X039547Y015221D02*
X037614Y015221D01*
X037614Y015122D02*
X039547Y015122D01*
X039547Y015024D02*
X037614Y015024D01*
X037614Y014925D02*
X039547Y014925D01*
X039547Y014827D02*
X037519Y014827D01*
X036705Y014516D02*
X039422Y014524D01*
X039410Y010622D01*
X034831Y010626D01*
X034831Y011965D01*
X036709Y011965D01*
X036705Y014516D01*
X036705Y014433D02*
X039421Y014433D01*
X039421Y014334D02*
X036705Y014334D01*
X036706Y014236D02*
X039421Y014236D01*
X039420Y014137D02*
X036706Y014137D01*
X036706Y014039D02*
X039420Y014039D01*
X039420Y013940D02*
X036706Y013940D01*
X036706Y013842D02*
X039420Y013842D01*
X039419Y013743D02*
X036706Y013743D01*
X036706Y013645D02*
X039419Y013645D01*
X039419Y013546D02*
X036707Y013546D01*
X036707Y013448D02*
X039418Y013448D01*
X039418Y013349D02*
X036707Y013349D01*
X036707Y013251D02*
X039418Y013251D01*
X039418Y013152D02*
X036707Y013152D01*
X036707Y013054D02*
X039417Y013054D01*
X039417Y012955D02*
X036708Y012955D01*
X036708Y012857D02*
X039417Y012857D01*
X039416Y012758D02*
X036708Y012758D01*
X036708Y012660D02*
X039416Y012660D01*
X039416Y012561D02*
X036708Y012561D01*
X036708Y012463D02*
X039415Y012463D01*
X039415Y012364D02*
X036708Y012364D01*
X036709Y012266D02*
X039415Y012266D01*
X039415Y012167D02*
X036709Y012167D01*
X036709Y012069D02*
X039414Y012069D01*
X039414Y011970D02*
X036709Y011970D01*
X034831Y011872D02*
X039414Y011872D01*
X039413Y011773D02*
X034831Y011773D01*
X034831Y011675D02*
X039413Y011675D01*
X039413Y011576D02*
X034831Y011576D01*
X034831Y011478D02*
X039412Y011478D01*
X039412Y011379D02*
X034831Y011379D01*
X034831Y011281D02*
X039412Y011281D01*
X039412Y011182D02*
X034831Y011182D01*
X034831Y011084D02*
X039411Y011084D01*
X039411Y010985D02*
X034831Y010985D01*
X034831Y010887D02*
X039411Y010887D01*
X039410Y010788D02*
X034831Y010788D01*
X034831Y010690D02*
X039410Y010690D01*
X039149Y010394D02*
X038198Y010394D01*
X033674Y011528D02*
X033626Y011528D01*
X028792Y012660D02*
X028037Y012660D01*
X027959Y012561D02*
X028709Y012561D01*
X028709Y012463D02*
X027870Y012463D01*
X027774Y012364D02*
X028709Y012364D01*
X028619Y012266D02*
X027591Y012266D01*
X027591Y012167D02*
X028521Y012167D01*
X028422Y012069D02*
X027591Y012069D01*
X027591Y011970D02*
X028375Y011970D01*
X028375Y011872D02*
X027591Y011872D01*
X027591Y011773D02*
X028375Y011773D01*
X028375Y011675D02*
X027591Y011675D01*
X027591Y011576D02*
X028375Y011576D01*
X028375Y011478D02*
X027591Y011478D01*
X027591Y011379D02*
X028375Y011379D01*
X028375Y011281D02*
X027591Y011281D01*
X027591Y011182D02*
X028375Y011182D01*
X028375Y011084D02*
X027591Y011084D01*
X027591Y010985D02*
X028375Y010985D01*
X028375Y010887D02*
X027591Y010887D01*
X027591Y010788D02*
X028375Y010788D01*
X028375Y010690D02*
X027591Y010690D01*
X027591Y010591D02*
X028375Y010591D01*
X028375Y010493D02*
X027591Y010493D01*
X027591Y010394D02*
X028375Y010394D01*
X028375Y010296D02*
X027591Y010296D01*
X027591Y010197D02*
X028375Y010197D01*
X028375Y010099D02*
X027591Y010099D01*
X027591Y010000D02*
X028375Y010000D01*
X028375Y009902D02*
X027591Y009902D01*
X027591Y009803D02*
X027943Y009803D01*
X027845Y009705D02*
X027591Y009705D01*
X027591Y009606D02*
X027843Y009606D01*
X027843Y009508D02*
X027591Y009508D01*
X027591Y009409D02*
X027843Y009409D01*
X027843Y009311D02*
X027591Y009311D01*
X027591Y009212D02*
X027890Y009212D01*
X030731Y008477D02*
X030731Y008467D01*
X030741Y008457D01*
X031481Y006981D02*
X031481Y006933D01*
X030981Y006433D01*
X032571Y005859D02*
X032567Y004504D01*
X034666Y004516D01*
X034674Y005863D01*
X032571Y005859D01*
X032571Y005765D02*
X034673Y005765D01*
X034672Y005666D02*
X032571Y005666D01*
X032570Y005568D02*
X034672Y005568D01*
X034671Y005469D02*
X032570Y005469D01*
X032570Y005371D02*
X034671Y005371D01*
X034670Y005272D02*
X032570Y005272D01*
X032569Y005174D02*
X034670Y005174D01*
X034669Y005075D02*
X032569Y005075D01*
X032569Y004977D02*
X034668Y004977D01*
X034668Y004878D02*
X032568Y004878D01*
X032568Y004780D02*
X034667Y004780D01*
X034667Y004681D02*
X032568Y004681D01*
X032568Y004583D02*
X034666Y004583D01*
X033319Y004619D02*
X033300Y004638D01*
X033300Y004810D01*
X033208Y004902D01*
X032713Y004407D01*
X032713Y003496D01*
X033181Y003496D01*
X033378Y003496D01*
X033096Y003204D02*
X033070Y003204D01*
X032998Y003105D02*
X033194Y003105D01*
X033293Y003007D02*
X032201Y003007D01*
X032197Y003105D02*
X032428Y003105D01*
X032201Y002908D02*
X033391Y002908D01*
X033505Y002810D02*
X032191Y002810D01*
X027591Y000643D02*
X037431Y000643D01*
X037556Y000544D02*
X027591Y000544D01*
X027591Y000446D02*
X037750Y000446D01*
X037899Y000370D02*
X037899Y000370D01*
X038041Y000347D02*
X027591Y000347D01*
X027315Y000446D02*
X026729Y000446D01*
X026798Y000544D02*
X027315Y000544D01*
X027315Y000643D02*
X026798Y000643D01*
X026798Y000741D02*
X027315Y000741D01*
X027315Y000840D02*
X026798Y000840D01*
X026798Y000938D02*
X027315Y000938D01*
X027315Y001037D02*
X026798Y001037D01*
X026798Y001135D02*
X027315Y001135D01*
X027315Y001234D02*
X026798Y001234D01*
X026798Y001332D02*
X027315Y001332D01*
X027315Y001431D02*
X026798Y001431D01*
X026798Y001529D02*
X027315Y001529D01*
X027315Y001628D02*
X026798Y001628D01*
X026798Y001726D02*
X027315Y001726D01*
X027315Y001825D02*
X027241Y001825D01*
X024460Y002022D02*
X023834Y002022D01*
X023654Y002209D02*
X023634Y002209D01*
X023004Y002213D01*
X022965Y002252D01*
X022965Y003146D01*
X022969Y003142D01*
X023430Y003138D01*
X023430Y002678D01*
X023658Y002678D01*
X023654Y002209D01*
X023654Y002219D02*
X022999Y002219D01*
X022965Y002317D02*
X023655Y002317D01*
X023656Y002416D02*
X022965Y002416D01*
X022965Y002514D02*
X023656Y002514D01*
X023657Y002613D02*
X022965Y002613D01*
X022965Y002711D02*
X023430Y002711D01*
X023430Y002810D02*
X022965Y002810D01*
X022965Y002908D02*
X023430Y002908D01*
X023430Y003007D02*
X022965Y003007D01*
X022965Y003105D02*
X023430Y003105D01*
X022705Y002317D02*
X017625Y002317D01*
X017557Y002219D02*
X022705Y002219D01*
X024110Y002120D02*
X024362Y002120D01*
X024263Y002219D02*
X024179Y002219D01*
X021292Y003260D02*
X021154Y003122D01*
X020367Y003122D01*
X011692Y004780D02*
X006383Y004780D01*
X006284Y004878D02*
X011594Y004878D01*
X011495Y004977D02*
X009536Y004977D01*
X009576Y005075D02*
X011397Y005075D01*
X011298Y005174D02*
X009576Y005174D01*
X009576Y005272D02*
X011200Y005272D01*
X011101Y005371D02*
X010616Y005371D01*
X010714Y005469D02*
X011003Y005469D01*
X010904Y005568D02*
X010725Y005568D01*
X010725Y005666D02*
X010806Y005666D01*
X010157Y005371D02*
X009576Y005371D01*
X009576Y005469D02*
X010058Y005469D01*
X010047Y005568D02*
X009576Y005568D01*
X009576Y005666D02*
X010047Y005666D01*
X004953Y004756D02*
X004678Y004481D01*
X004678Y004244D01*
X004369Y004287D02*
X000320Y004287D01*
X000320Y004189D02*
X004369Y004189D01*
X004369Y004090D02*
X000320Y004090D01*
X000320Y003992D02*
X004413Y003992D01*
X004369Y004386D02*
X000320Y004386D01*
X000320Y004484D02*
X004399Y004484D01*
X004468Y004583D02*
X000320Y004583D01*
X000320Y004681D02*
X004567Y004681D01*
X004665Y004780D02*
X000320Y004780D01*
X000320Y004878D02*
X004764Y004878D01*
X001258Y005371D02*
X000320Y005371D01*
X000320Y005469D02*
X001159Y005469D01*
X001149Y005568D02*
X000320Y005568D01*
X000320Y005666D02*
X001149Y005666D01*
X001149Y005765D02*
X000320Y005765D01*
X000320Y005863D02*
X001149Y005863D01*
X001149Y005962D02*
X000320Y005962D01*
X000320Y006060D02*
X001149Y006060D01*
X001149Y006159D02*
X000320Y006159D01*
X000320Y006257D02*
X001247Y006257D01*
X001442Y003105D02*
X000320Y003105D01*
X000320Y003007D02*
X001140Y003007D01*
X001284Y003080D02*
X001284Y003080D01*
X000947Y002908D02*
X000320Y002908D01*
X000320Y002810D02*
X000819Y002810D01*
X000887Y002878D02*
X000887Y002878D01*
X000721Y002711D02*
X000320Y002711D01*
X000320Y002613D02*
X000622Y002613D01*
X000572Y002562D02*
X000572Y002562D01*
X000547Y002514D02*
X000320Y002514D01*
X000320Y002416D02*
X000497Y002416D01*
X000447Y002317D02*
X000320Y002317D01*
X000320Y002219D02*
X000397Y002219D01*
X000370Y002165D02*
X000370Y002165D01*
X000362Y002120D02*
X000320Y002120D01*
X000320Y002022D02*
X000347Y002022D01*
X000331Y001923D02*
X000320Y001923D01*
X009790Y010493D02*
X010334Y010493D01*
X010334Y010591D02*
X009829Y010591D01*
X009829Y010690D02*
X010334Y010690D01*
X010334Y010788D02*
X009829Y010788D01*
X009829Y010887D02*
X010334Y010887D01*
X010334Y010985D02*
X009793Y010985D01*
X009533Y011084D02*
X010354Y011084D01*
X010453Y011182D02*
X009533Y011182D01*
X009635Y011281D02*
X010551Y011281D01*
X023126Y017158D02*
X023166Y017197D01*
X023300Y017197D01*
X023118Y018390D02*
X023118Y018728D01*
X023241Y018851D01*
X027217Y018851D01*
X027512Y018556D01*
X027948Y018570D02*
X035087Y018570D01*
X035029Y018512D02*
X034941Y018298D01*
X034941Y018065D01*
X035029Y017851D01*
X035194Y017687D01*
X035408Y017598D01*
X035640Y017598D01*
X035854Y017687D01*
X036019Y017851D01*
X036107Y018065D01*
X036107Y018298D01*
X036019Y018512D01*
X035854Y018676D01*
X035640Y018765D01*
X035408Y018765D01*
X035194Y018676D01*
X035029Y018512D01*
X035013Y018471D02*
X027948Y018471D01*
X027948Y018373D02*
X034972Y018373D01*
X034941Y018274D02*
X027907Y018274D01*
X027860Y018176D02*
X034941Y018176D01*
X034941Y018077D02*
X027948Y018077D01*
X027948Y017979D02*
X034977Y017979D01*
X035017Y017880D02*
X027948Y017880D01*
X027948Y017782D02*
X035099Y017782D01*
X035203Y017683D02*
X027948Y017683D01*
X027926Y017585D02*
X036932Y017585D01*
X036947Y017683D02*
X035845Y017683D01*
X035949Y017782D02*
X036963Y017782D01*
X036978Y017880D02*
X036031Y017880D01*
X036071Y017979D02*
X037017Y017979D01*
X037067Y018077D02*
X036107Y018077D01*
X036107Y018176D02*
X037117Y018176D01*
X037168Y018274D02*
X036107Y018274D01*
X036076Y018373D02*
X037248Y018373D01*
X037347Y018471D02*
X036036Y018471D01*
X035961Y018570D02*
X037445Y018570D01*
X037501Y018626D02*
X037501Y018626D01*
X037501Y018626D01*
X037585Y018668D02*
X035862Y018668D01*
X035186Y018668D02*
X027948Y018668D01*
X027948Y018767D02*
X037778Y018767D01*
X036916Y017486D02*
X027591Y017486D01*
X027591Y017388D02*
X036927Y017388D01*
X036943Y017289D02*
X027591Y017289D01*
X027591Y017191D02*
X036959Y017191D01*
X036974Y017092D02*
X027591Y017092D01*
X027591Y016994D02*
X037004Y016994D01*
X037054Y016895D02*
X027591Y016895D01*
X027591Y016797D02*
X037104Y016797D01*
X037154Y016698D02*
X027591Y016698D01*
X027591Y016600D02*
X037222Y016600D01*
X037186Y016635D02*
X037186Y016635D01*
X037320Y016501D02*
X034211Y016501D01*
X034309Y016403D02*
X037419Y016403D01*
X037533Y016304D02*
X034383Y016304D01*
X034423Y016206D02*
X037726Y016206D01*
X037899Y016118D02*
X037899Y016118D01*
X037965Y016107D02*
X034454Y016107D01*
X034454Y016009D02*
X039547Y016009D01*
X039547Y016107D02*
X038713Y016107D01*
X038779Y016118D02*
X038779Y016118D01*
X038952Y016206D02*
X039547Y016206D01*
X039547Y016304D02*
X039145Y016304D01*
X039177Y016320D02*
X039177Y016320D01*
X039259Y016403D02*
X039547Y016403D01*
X039547Y016501D02*
X039358Y016501D01*
X039456Y016600D02*
X039547Y016600D01*
X039547Y016698D02*
X039524Y016698D01*
X038339Y016048D02*
X038339Y016048D01*
X039547Y015910D02*
X034454Y015910D01*
X034417Y015812D02*
X039547Y015812D01*
X039547Y015713D02*
X034376Y015713D01*
X034294Y015615D02*
X039547Y015615D01*
X039471Y014774D02*
X039471Y014774D01*
X036855Y015516D02*
X034188Y015516D01*
X034754Y015319D02*
X034837Y015319D01*
X034811Y015221D02*
X034780Y015221D01*
X034780Y015122D02*
X034811Y015122D01*
X034811Y015024D02*
X034780Y015024D01*
X035489Y015221D02*
X036127Y015221D01*
X036225Y015319D02*
X035463Y015319D01*
X035925Y015122D02*
X036028Y015122D01*
X035741Y014953D02*
X035977Y014717D01*
X035741Y014953D02*
X035685Y014953D01*
X036757Y015418D02*
X031936Y015418D01*
X031514Y015418D02*
X030639Y015418D01*
X030705Y016009D02*
X033287Y016009D01*
X033287Y016107D02*
X030705Y016107D01*
X030705Y016206D02*
X033317Y016206D01*
X033358Y016304D02*
X030676Y016304D01*
X033432Y016403D02*
X027591Y016403D01*
X027591Y016501D02*
X033530Y016501D01*
X028832Y014334D02*
X028808Y014334D01*
X028808Y014236D02*
X028832Y014236D01*
X028816Y014137D02*
X028779Y014137D01*
X028816Y014039D02*
X027591Y014039D01*
X027591Y013940D02*
X028816Y013940D01*
X027493Y015937D02*
X027490Y015940D01*
X026678Y015940D01*
X026678Y017710D02*
X027376Y017710D01*
X027512Y017847D01*
X033339Y007040D02*
X033733Y006646D01*
X033733Y006981D01*
X033674Y007040D01*
X033626Y007040D02*
X033339Y007040D01*
X039353Y003664D02*
X039353Y003664D01*
X039529Y003696D02*
X039547Y003696D01*
X039544Y003702D02*
X039544Y003702D01*
X039544Y003702D01*
D54*
X039166Y004406D03*
X038890Y004406D03*
X038615Y004406D03*
X038339Y004406D03*
X038063Y004406D03*
X037788Y004406D03*
X037512Y004406D03*
X037237Y004406D03*
X037237Y004681D03*
X037512Y004681D03*
X037788Y004681D03*
X038063Y004681D03*
X038339Y004681D03*
X038615Y004681D03*
X038890Y004681D03*
X039166Y004681D03*
X039166Y004957D03*
X039166Y005233D03*
X039166Y005508D03*
X038890Y005508D03*
X038890Y005233D03*
X038615Y005233D03*
X038615Y005508D03*
X038339Y005508D03*
X038339Y005233D03*
X038063Y005233D03*
X037788Y005233D03*
X037788Y005508D03*
X038063Y005508D03*
X038063Y005784D03*
X037788Y005784D03*
X037788Y006059D03*
X038063Y006059D03*
X038339Y006059D03*
X038339Y005784D03*
X038615Y005784D03*
X038890Y005784D03*
X038890Y006059D03*
X038615Y006059D03*
X038615Y006335D03*
X038890Y006335D03*
X038890Y006611D03*
X038615Y006611D03*
X038339Y006611D03*
X038063Y006611D03*
X037788Y006611D03*
X037512Y006611D03*
X037237Y006611D03*
X037237Y006335D03*
X037512Y006335D03*
X037512Y006059D03*
X037512Y005784D03*
X037237Y005784D03*
X037237Y006059D03*
X036961Y006059D03*
X036685Y006059D03*
X036410Y006059D03*
X036134Y006059D03*
X035859Y006059D03*
X035859Y006335D03*
X036134Y006335D03*
X036134Y006611D03*
X035859Y006611D03*
X035859Y006886D03*
X036134Y006886D03*
X036134Y007162D03*
X035859Y007162D03*
X036410Y006886D03*
X036685Y006886D03*
X036961Y006886D03*
X037237Y006886D03*
X037512Y006886D03*
X037788Y006886D03*
X038063Y006886D03*
X038063Y007162D03*
X037788Y007162D03*
X037788Y007437D03*
X037788Y007713D03*
X037512Y007162D03*
X036961Y006611D03*
X036685Y006611D03*
X036410Y006611D03*
X036410Y006335D03*
X036685Y006335D03*
X036961Y006335D03*
X037788Y006335D03*
X038063Y006335D03*
X038339Y006335D03*
X039166Y006335D03*
X039166Y006059D03*
X039166Y005784D03*
X039166Y006611D03*
X037512Y005508D03*
X037512Y005233D03*
X037237Y005233D03*
X037237Y005508D03*
X037237Y004957D03*
X037512Y004957D03*
X037788Y004957D03*
X038063Y004957D03*
X038339Y004957D03*
X038615Y004957D03*
X038890Y004957D03*
X036016Y003457D03*
X035583Y003457D03*
X034520Y003457D03*
X034126Y003457D03*
X033733Y003457D03*
X033260Y001134D03*
X034244Y001134D03*
X035268Y001134D03*
X032158Y001134D03*
X031174Y001134D03*
X030111Y001134D03*
X029048Y001134D03*
X029048Y002433D03*
X028457Y002433D03*
X028457Y002906D03*
X029048Y002906D03*
X028300Y003449D03*
X027430Y003449D03*
X026922Y002945D03*
X026449Y002945D03*
X026449Y002512D03*
X026449Y002079D03*
X026922Y002079D03*
X026449Y001666D03*
X026449Y001252D03*
X026449Y000741D03*
X024441Y000898D03*
X023654Y000898D03*
X022867Y000898D03*
X022079Y000898D03*
X021292Y000898D03*
X020504Y000898D03*
X020504Y001685D03*
X021292Y001685D03*
X022079Y001685D03*
X022079Y002473D03*
X021292Y002473D03*
X021292Y003260D03*
X022079Y003260D03*
X023181Y002827D03*
X024441Y001685D03*
X022079Y004048D03*
X021292Y004048D03*
X021449Y004756D03*
X021764Y004756D03*
X022079Y004756D03*
X022079Y005071D03*
X021764Y005071D03*
X021449Y005071D03*
X021449Y005386D03*
X021764Y005386D03*
X022079Y005386D03*
X022079Y005701D03*
X021764Y005701D03*
X021449Y005701D03*
X021449Y006016D03*
X021764Y006016D03*
X022079Y006016D03*
X022079Y006804D03*
X021292Y006804D03*
X021292Y007591D03*
X022079Y007591D03*
X022079Y008378D03*
X021292Y008378D03*
X021292Y009166D03*
X022079Y009166D03*
X022867Y009166D03*
X022906Y009796D03*
X021410Y010583D03*
X022867Y008378D03*
X026213Y008181D03*
X026213Y007788D03*
X026213Y008575D03*
X026213Y008969D03*
X028181Y009481D03*
X030378Y008473D03*
X032937Y008489D03*
X032937Y008764D03*
X032937Y009040D03*
X032937Y009315D03*
X033213Y009315D03*
X033213Y009040D03*
X033489Y009040D03*
X033764Y009040D03*
X033764Y009315D03*
X033489Y009315D03*
X033489Y009591D03*
X033764Y009591D03*
X033764Y009867D03*
X033764Y010142D03*
X033489Y010142D03*
X033489Y009867D03*
X033213Y009867D03*
X033213Y010142D03*
X032937Y010142D03*
X032937Y009867D03*
X032937Y009591D03*
X033213Y009591D03*
X034040Y009591D03*
X034315Y009591D03*
X034315Y009867D03*
X034315Y010142D03*
X034040Y010142D03*
X034040Y009867D03*
X034591Y009867D03*
X034591Y010142D03*
X034867Y010142D03*
X035142Y010142D03*
X035142Y009867D03*
X034867Y009867D03*
X034867Y009591D03*
X035142Y009591D03*
X035418Y009591D03*
X035693Y009591D03*
X035693Y009867D03*
X035693Y010142D03*
X035418Y010142D03*
X035418Y009867D03*
X035969Y009867D03*
X035969Y010142D03*
X036244Y010142D03*
X036244Y009867D03*
X036244Y009591D03*
X035969Y009591D03*
X035969Y009315D03*
X035969Y009040D03*
X036244Y009040D03*
X036244Y009315D03*
X035693Y009315D03*
X035693Y009040D03*
X035418Y009040D03*
X035418Y009315D03*
X035142Y009315D03*
X035142Y009040D03*
X034867Y009040D03*
X034867Y009315D03*
X034591Y009315D03*
X034591Y009040D03*
X034315Y009040D03*
X034040Y009040D03*
X034040Y009315D03*
X034315Y009315D03*
X034591Y009591D03*
X034591Y008764D03*
X034591Y008489D03*
X034867Y008489D03*
X035142Y008489D03*
X035142Y008764D03*
X034867Y008764D03*
X035418Y008764D03*
X035693Y008764D03*
X035693Y008489D03*
X035418Y008489D03*
X035969Y008489D03*
X035969Y008764D03*
X036244Y008764D03*
X036244Y008489D03*
X036520Y008489D03*
X036796Y008489D03*
X037071Y008489D03*
X037347Y008489D03*
X037622Y008489D03*
X037622Y008764D03*
X037622Y009040D03*
X037622Y009315D03*
X037898Y009315D03*
X037898Y009040D03*
X037898Y008764D03*
X037898Y008489D03*
X037898Y009591D03*
X037898Y009867D03*
X037898Y010142D03*
X037622Y010142D03*
X037347Y010142D03*
X037071Y010142D03*
X036796Y010142D03*
X036520Y010142D03*
X036095Y010741D03*
X036095Y011016D03*
X035819Y011016D03*
X035819Y010741D03*
X035819Y011292D03*
X036095Y011292D03*
X036095Y011567D03*
X036370Y011567D03*
X036370Y011843D03*
X036095Y011843D03*
X035819Y011843D03*
X035819Y011567D03*
X036646Y011843D03*
X036922Y011843D03*
X037197Y011843D03*
X037197Y012119D03*
X037197Y012394D03*
X036922Y012394D03*
X036922Y012119D03*
X037473Y012119D03*
X037473Y012394D03*
X037748Y012394D03*
X037748Y012119D03*
X038024Y012119D03*
X038024Y012394D03*
X038300Y012394D03*
X038575Y012394D03*
X038575Y012119D03*
X038300Y012119D03*
X038024Y011843D03*
X037748Y011843D03*
X037473Y011843D03*
X037473Y011567D03*
X037748Y011567D03*
X037748Y011292D03*
X037748Y011016D03*
X037748Y010741D03*
X037622Y009867D03*
X037622Y009591D03*
X035859Y007788D03*
X034315Y008489D03*
X034315Y008764D03*
X034040Y008764D03*
X034040Y008489D03*
X033764Y008489D03*
X033764Y008764D03*
X033489Y008764D03*
X033489Y008489D03*
X033213Y008489D03*
X033213Y008764D03*
X030268Y011292D03*
X030741Y012040D03*
X029048Y012355D03*
X026174Y012847D03*
X025878Y012847D03*
X025681Y013831D03*
X022945Y015741D03*
X022906Y016804D03*
X023300Y016804D03*
X023300Y017197D03*
X022906Y017197D03*
X022906Y017591D03*
X023300Y017591D03*
X025819Y016725D03*
X028930Y017512D03*
X029520Y017512D03*
X029520Y018103D03*
X028930Y018103D03*
X031292Y018103D03*
X031882Y018103D03*
X031882Y017512D03*
X031292Y017512D03*
X031725Y015111D03*
X034441Y015071D03*
X035150Y015071D03*
X037945Y015307D03*
X038536Y015307D03*
X039126Y015307D03*
X039126Y015898D03*
X038536Y015898D03*
X037945Y015898D03*
X038851Y014323D03*
X038851Y014048D03*
X039126Y014048D03*
X039126Y014323D03*
X039126Y013772D03*
X038851Y013772D03*
X038851Y013496D03*
X038851Y013221D03*
X039126Y013221D03*
X039126Y013496D03*
X039126Y012945D03*
X038851Y012945D03*
X038851Y012670D03*
X039126Y012670D03*
X039126Y012394D03*
X038851Y012394D03*
X038851Y012119D03*
X039126Y012119D03*
X036252Y012276D03*
X035780Y012276D03*
X027473Y006804D03*
X027512Y004756D03*
X018930Y001685D03*
X018142Y001685D03*
X017276Y002512D03*
X016331Y002788D03*
X016370Y003457D03*
X016764Y003969D03*
X017119Y003969D03*
X014756Y003103D03*
X013969Y003103D03*
X013181Y003103D03*
X012394Y003103D03*
X011607Y003103D03*
X011607Y004402D03*
X010386Y005701D03*
X007867Y006370D03*
X006370Y007079D03*
X005622Y007079D03*
X008418Y008811D03*
X008418Y009244D03*
X008418Y009717D03*
X010071Y009087D03*
X011016Y009284D03*
X011020Y008870D03*
X011016Y008300D03*
X012552Y007945D03*
X012945Y007945D03*
X013339Y007945D03*
X013733Y007945D03*
X014126Y007945D03*
X014520Y007945D03*
X014914Y007945D03*
X015307Y007945D03*
X015701Y007945D03*
X015701Y009008D03*
X015307Y009008D03*
X014914Y009008D03*
X014520Y009008D03*
X014126Y009008D03*
X013733Y009008D03*
X013339Y009008D03*
X012945Y009008D03*
X012552Y009008D03*
X011016Y009756D03*
X010819Y010307D03*
X010819Y010741D03*
X009520Y010741D03*
X009048Y010741D03*
X006449Y010977D03*
X008823Y012630D03*
X007670Y012867D03*
X004559Y013142D03*
X007748Y015937D03*
X007119Y015977D03*
X011567Y012630D03*
X012433Y012630D03*
X014559Y013063D03*
X012985Y010465D03*
X013733Y007237D03*
X013733Y005780D03*
X016370Y005859D03*
X016370Y006174D03*
X016764Y006174D03*
X016764Y005859D03*
X004678Y004244D03*
X002158Y003890D03*
X000977Y003890D03*
X019402Y012906D03*
X019048Y015819D03*
X019048Y016174D03*
X020032Y016292D03*
X020367Y016292D03*
X017315Y016725D03*
X017315Y018063D03*
X016489Y018339D03*
X016174Y018339D03*
X019048Y018496D03*
X019402Y018496D03*
D55*
X020342Y012906D02*
X020898Y012906D01*
X020937Y012945D01*
X020937Y012709D02*
X020624Y012396D01*
X020342Y012396D01*
X019912Y011966D02*
X020903Y011966D01*
X021036Y012099D01*
X021036Y012670D01*
X020937Y012709D01*
X018462Y012646D02*
X018446Y012630D01*
X018103Y012630D01*
X018024Y012552D01*
X017906Y012552D01*
X014559Y013063D02*
X014548Y013075D01*
X011567Y012630D02*
X011540Y012658D01*
X011036Y012658D01*
X010876Y012655D01*
X010876Y011769D01*
X009696Y011769D02*
X009696Y011274D01*
X009717Y011252D01*
X009496Y011769D02*
X009496Y012657D01*
X009339Y012658D01*
X008851Y012658D01*
X008823Y012630D01*
X007748Y014284D02*
X007197Y014284D01*
X007111Y014370D01*
X007111Y015441D01*
X007119Y015449D01*
X007119Y015977D01*
X007750Y014286D02*
X007748Y014284D01*
X012985Y010465D02*
X012985Y009941D01*
X012996Y009930D01*
X012926Y009859D01*
X012006Y009859D01*
X008142Y009441D02*
X008124Y009459D01*
X007586Y009459D01*
X006581Y009459D01*
X009696Y007349D02*
X009696Y006542D01*
X009138Y005985D01*
X009138Y005489D01*
X009052Y005402D01*
X009894Y006059D02*
X009898Y006056D01*
X010229Y006056D01*
X010386Y005898D01*
X010386Y005701D01*
X009894Y006059D02*
X009894Y007348D01*
X006843Y007119D02*
X006717Y006993D01*
X006717Y006406D01*
X006457Y006406D02*
X006457Y007008D01*
X006370Y007079D01*
X005687Y007015D02*
X005622Y007079D01*
X005687Y007015D02*
X005687Y006406D01*
X016370Y003457D02*
X018969Y003457D01*
X019422Y003910D01*
X020367Y003910D01*
X020367Y003319D02*
X019894Y003319D01*
X019717Y003142D01*
X019717Y002705D01*
X019737Y002685D01*
X023162Y007059D02*
X025288Y007059D01*
X025465Y007237D01*
X025465Y009520D01*
X025189Y009796D01*
X022906Y009796D01*
X021410Y010583D02*
X021292Y010465D01*
X020544Y010465D01*
X019835Y010465D01*
X019835Y009756D02*
X019835Y009323D01*
X020544Y009323D02*
X020544Y009756D01*
D56*
X018930Y008713D02*
X018851Y008792D01*
X018930Y008713D02*
X018930Y008221D01*
X019894Y007256D01*
X020367Y007256D01*
X020367Y007059D02*
X019815Y007059D01*
X017721Y009154D01*
X017415Y009459D01*
X012006Y009459D01*
X012006Y009259D02*
X011631Y009259D01*
X011174Y009717D01*
X011056Y009717D01*
X011016Y009756D01*
X011020Y008870D02*
X012005Y008870D01*
X012006Y008869D01*
X012006Y008669D02*
X017626Y008669D01*
X017717Y008760D01*
X017800Y008760D01*
X019697Y006863D01*
X020367Y006863D01*
X020367Y006666D02*
X019579Y006666D01*
X018024Y008142D01*
X017788Y008378D01*
X017717Y008378D01*
X017616Y008479D01*
X012006Y008479D01*
X012456Y008869D02*
X012456Y008948D01*
X012456Y009229D01*
X015977Y009229D01*
X015977Y008869D01*
X012456Y008869D01*
X012456Y008942D02*
X015977Y008942D01*
X015977Y009021D02*
X012456Y009021D01*
X012456Y009099D02*
X015977Y009099D01*
X015977Y009178D02*
X012456Y009178D01*
X012850Y008061D02*
X015977Y008061D01*
X015977Y007752D01*
X013965Y007752D01*
X013765Y007552D01*
X012208Y007552D01*
X012208Y007864D01*
X012253Y007864D01*
X012253Y007740D01*
X012347Y007647D01*
X012757Y007647D01*
X012850Y007740D01*
X012850Y008061D01*
X012850Y008000D02*
X015977Y008000D01*
X015977Y007922D02*
X012850Y007922D01*
X012850Y007843D02*
X015977Y007843D01*
X015977Y007765D02*
X012850Y007765D01*
X012796Y007686D02*
X013899Y007686D01*
X013821Y007608D02*
X012208Y007608D01*
X012208Y007686D02*
X012307Y007686D01*
X012253Y007765D02*
X012208Y007765D01*
X012208Y007843D02*
X012253Y007843D01*
X012008Y007959D02*
X012006Y008079D01*
X012008Y007959D02*
X012008Y006181D01*
X012902Y005288D01*
X020367Y005288D01*
X020367Y005485D02*
X014028Y005485D01*
X013733Y005780D01*
X012788Y005091D02*
X011276Y006603D01*
X011276Y007231D01*
X011276Y007349D01*
X011076Y007349D02*
X011075Y007231D01*
X011075Y006532D01*
X012713Y004894D01*
X020367Y004894D01*
X020367Y004697D02*
X012638Y004697D01*
X010874Y006461D01*
X010874Y007230D01*
X010876Y007349D01*
X010686Y007349D02*
X010685Y007231D01*
X010685Y006363D01*
X012548Y004500D01*
X020367Y004500D01*
X020367Y004304D02*
X012465Y004304D01*
X010489Y006280D01*
X010489Y007228D01*
X010486Y007349D01*
X009896Y007349D02*
X009894Y007348D01*
X009496Y007349D02*
X009496Y006740D01*
X008969Y006213D01*
X008733Y006213D01*
X008103Y005583D01*
X006134Y005583D01*
X005937Y005780D01*
X005937Y006396D01*
X005947Y006406D01*
X006207Y006406D02*
X006213Y006400D01*
X006213Y005898D01*
X006292Y005819D01*
X007985Y005819D01*
X008654Y006489D01*
X008930Y006489D01*
X009306Y006865D01*
X009306Y007349D01*
X009106Y007349D02*
X009106Y006940D01*
X009048Y006882D01*
X007079Y006882D01*
X006961Y006764D01*
X006961Y006412D01*
X006967Y006406D01*
X008516Y007349D02*
X008516Y008713D01*
X008418Y008811D01*
X008716Y009065D02*
X008536Y009244D01*
X008418Y009244D01*
X008716Y009065D02*
X008716Y007349D01*
X008906Y007349D02*
X008906Y009426D01*
X008615Y009717D01*
X008418Y009717D01*
X007586Y010049D02*
X007180Y010049D01*
X006449Y010780D01*
X006449Y010977D01*
X005689Y011783D02*
X005650Y011744D01*
X005689Y011783D02*
X006520Y011783D01*
X006588Y012315D02*
X006520Y012383D01*
X006277Y012383D01*
X005993Y012099D01*
X004855Y012099D01*
X005630Y012473D02*
X005650Y012453D01*
X005662Y012465D01*
X005662Y012709D01*
X005819Y012867D01*
X006292Y012867D01*
X006410Y012985D01*
X006410Y013654D01*
X006278Y013786D01*
X005810Y013786D01*
X005810Y014286D02*
X006290Y014286D01*
X006725Y013851D01*
X006725Y012315D01*
X006588Y012315D01*
X006520Y012383D02*
X006470Y012355D01*
X006685Y012355D01*
X006646Y012394D01*
X007670Y012867D02*
X007670Y013206D01*
X007750Y013286D01*
X007764Y013300D01*
X008142Y013300D01*
X008297Y013145D01*
X008297Y011750D01*
X008316Y011769D01*
X008516Y011769D02*
X008516Y014658D01*
X008378Y014796D01*
X008024Y014796D01*
X007748Y015071D01*
X007748Y015937D01*
X007760Y014796D02*
X007750Y014786D01*
X007752Y014784D01*
X007760Y014796D02*
X008024Y014796D01*
X007750Y013286D02*
X007776Y013260D01*
X009106Y011769D02*
X009126Y011749D01*
X009126Y010898D01*
X009048Y010819D01*
X009048Y010741D01*
X009323Y010898D02*
X009323Y011752D01*
X009306Y011769D01*
X009896Y011769D02*
X009914Y011788D01*
X009323Y010898D02*
X009481Y010741D01*
X009520Y010741D01*
X012006Y010839D02*
X013123Y010839D01*
X013339Y011056D01*
X013339Y013040D01*
X013374Y013075D01*
X013374Y013528D01*
X013469Y013622D01*
X014083Y013075D02*
X014548Y013075D01*
X016059Y013103D02*
X016572Y013103D01*
X016572Y013181D02*
X016059Y013181D01*
X016059Y013260D02*
X016572Y013260D01*
X016572Y013338D02*
X016059Y013338D01*
X016059Y013417D02*
X016572Y013417D01*
X016572Y013495D02*
X016059Y013495D01*
X016059Y013574D02*
X016572Y013574D01*
X016572Y013652D02*
X016059Y013652D01*
X016059Y013731D02*
X016572Y013731D01*
X016572Y013809D02*
X016059Y013809D01*
X016059Y013888D02*
X016572Y013888D01*
X016572Y013966D02*
X016059Y013966D01*
X016059Y014045D02*
X016572Y014045D01*
X016572Y014123D02*
X016059Y014123D01*
X016059Y014202D02*
X016572Y014202D01*
X016572Y014280D02*
X016059Y014280D01*
X016059Y014359D02*
X016572Y014359D01*
X016572Y014437D02*
X016059Y014437D01*
X016059Y014516D02*
X016572Y014516D01*
X016572Y014594D02*
X016059Y014594D01*
X016059Y014673D02*
X016572Y014673D01*
X016572Y014751D02*
X016059Y014751D01*
X016059Y014830D02*
X016572Y014830D01*
X016572Y014865D02*
X016572Y012128D01*
X016574Y012122D01*
X016574Y011961D01*
X016685Y011850D01*
X016774Y011850D01*
X016842Y011782D01*
X016970Y011729D01*
X017087Y011729D01*
X017162Y011653D01*
X017262Y011612D01*
X018712Y011612D01*
X018743Y011581D01*
X019811Y011581D01*
X019841Y011611D01*
X020048Y011611D01*
X020142Y011705D01*
X020142Y011746D01*
X020994Y011746D01*
X021127Y011879D01*
X021256Y012008D01*
X021256Y012627D01*
X021274Y012673D01*
X021257Y012711D01*
X021257Y013875D01*
X021209Y013993D01*
X021119Y014083D01*
X021021Y014180D01*
X021021Y016277D01*
X021019Y016283D01*
X021019Y016515D01*
X020925Y016609D01*
X020692Y016609D01*
X020686Y016612D01*
X020047Y016612D01*
X020041Y016609D01*
X019808Y016609D01*
X019714Y016515D01*
X019714Y016068D01*
X019808Y015974D01*
X020041Y015974D01*
X020047Y015972D01*
X020381Y015972D01*
X020381Y013984D01*
X020430Y013866D01*
X020617Y013679D01*
X020617Y013674D01*
X020616Y013676D01*
X020172Y013676D01*
X020172Y014120D01*
X020061Y014231D01*
X019763Y014231D01*
X019652Y014120D01*
X019652Y013572D01*
X019763Y013461D01*
X019957Y013461D01*
X019957Y013017D01*
X019987Y012987D01*
X019987Y012825D01*
X019957Y012795D01*
X019957Y012497D01*
X019987Y012467D01*
X019987Y012321D01*
X019841Y012321D01*
X019811Y012351D01*
X018847Y012351D01*
X018847Y013055D01*
X018736Y013166D01*
X018540Y013166D01*
X018516Y013176D01*
X017783Y013176D01*
X017783Y014572D01*
X018130Y014918D01*
X018999Y014918D01*
X019128Y014971D01*
X019246Y015090D01*
X019344Y015188D01*
X019398Y015317D01*
X019398Y016243D01*
X019376Y016295D01*
X019376Y016391D01*
X019265Y016502D01*
X019169Y016502D01*
X019117Y016524D01*
X018978Y016524D01*
X018927Y016502D01*
X018830Y016502D01*
X018719Y016391D01*
X018719Y016295D01*
X018698Y016243D01*
X018698Y015618D01*
X018085Y015618D01*
X018085Y016059D01*
X017974Y016170D01*
X016802Y016170D01*
X016760Y016212D01*
X016760Y017280D01*
X017974Y017280D01*
X018085Y017391D01*
X018085Y017939D01*
X017974Y018050D01*
X017644Y018050D01*
X017644Y018281D01*
X017533Y018392D01*
X017387Y018392D01*
X017387Y018851D01*
X017351Y018887D01*
X018732Y018883D01*
X018661Y018811D01*
X018661Y018182D01*
X018772Y018070D01*
X019717Y018070D01*
X019815Y018169D01*
X019914Y018070D01*
X020859Y018070D01*
X020957Y018169D01*
X021056Y018070D01*
X021572Y018070D01*
X021761Y017881D01*
X021860Y017840D01*
X022023Y017840D01*
X022023Y016452D01*
X022134Y016340D01*
X022662Y016340D01*
X022679Y016358D01*
X023638Y016358D01*
X023749Y016469D01*
X023749Y017847D01*
X023638Y017958D01*
X023073Y017958D01*
X023073Y018015D01*
X023317Y018015D01*
X023428Y018127D01*
X023878Y018127D01*
X023989Y018015D01*
X024737Y018015D01*
X024848Y018127D01*
X025288Y018127D01*
X025399Y018015D01*
X026157Y018015D01*
X026268Y018127D01*
X027130Y018127D01*
X027086Y018083D02*
X027086Y017950D01*
X027012Y017950D01*
X026942Y018020D01*
X026414Y018020D01*
X026303Y017909D01*
X026303Y017162D01*
X026414Y017050D01*
X026942Y017050D01*
X027053Y017162D01*
X027053Y017470D01*
X027423Y017470D01*
X027494Y017499D01*
X027779Y017499D01*
X027779Y016285D01*
X027178Y016285D01*
X027073Y016180D01*
X027012Y016180D01*
X026942Y016250D01*
X026414Y016250D01*
X026303Y016139D01*
X026303Y015742D01*
X026414Y015630D01*
X026942Y015630D01*
X027012Y015700D01*
X027067Y015700D01*
X027178Y015590D01*
X027778Y015590D01*
X027777Y013923D01*
X027348Y013923D01*
X027348Y014481D01*
X027237Y014592D01*
X026764Y014592D01*
X026653Y014481D01*
X026653Y014406D01*
X026509Y014406D01*
X026268Y014647D01*
X026268Y015174D01*
X026157Y015285D01*
X025399Y015285D01*
X025369Y015255D01*
X025117Y015255D01*
X025087Y015285D01*
X024810Y015285D01*
X024810Y016083D01*
X024699Y016194D01*
X023341Y016194D01*
X023230Y016083D01*
X023230Y015236D01*
X023168Y015174D01*
X023168Y014647D01*
X023279Y014535D01*
X024968Y014535D01*
X024968Y013462D01*
X024931Y013425D01*
X024931Y012505D01*
X025025Y012411D01*
X025047Y012411D01*
X025047Y012357D01*
X025044Y012357D01*
X024951Y012264D01*
X024951Y011344D01*
X025042Y011252D01*
X016059Y011252D01*
X016059Y015997D01*
X016102Y015955D01*
X016254Y015955D01*
X016535Y015673D01*
X016535Y015074D01*
X016532Y015065D01*
X016059Y015065D01*
X016059Y014987D02*
X016535Y014987D01*
X016535Y014976D02*
X016539Y014968D01*
X016540Y014958D01*
X016559Y014918D01*
X016574Y014883D01*
X016574Y014871D01*
X016572Y014865D01*
X016564Y014908D02*
X016059Y014908D01*
X016059Y015144D02*
X016535Y015144D01*
X016535Y015222D02*
X016059Y015222D01*
X016059Y015301D02*
X016535Y015301D01*
X016535Y015379D02*
X016059Y015379D01*
X016059Y015458D02*
X016535Y015458D01*
X016535Y015536D02*
X016059Y015536D01*
X016059Y015615D02*
X016535Y015615D01*
X016515Y015693D02*
X016059Y015693D01*
X016059Y015772D02*
X016437Y015772D01*
X016358Y015850D02*
X016059Y015850D01*
X016059Y015929D02*
X016280Y015929D01*
X016760Y016243D02*
X018698Y016243D01*
X018698Y016164D02*
X017980Y016164D01*
X018058Y016086D02*
X018698Y016086D01*
X018698Y016007D02*
X018085Y016007D01*
X018085Y015929D02*
X018698Y015929D01*
X018698Y015850D02*
X018085Y015850D01*
X018085Y015772D02*
X018698Y015772D01*
X018698Y015693D02*
X018085Y015693D01*
X018120Y014908D02*
X020381Y014908D01*
X020381Y014830D02*
X018041Y014830D01*
X017963Y014751D02*
X020381Y014751D01*
X020381Y014673D02*
X017884Y014673D01*
X017806Y014594D02*
X020381Y014594D01*
X020381Y014516D02*
X017783Y014516D01*
X017783Y014437D02*
X020381Y014437D01*
X020381Y014359D02*
X017783Y014359D01*
X017783Y014280D02*
X020381Y014280D01*
X020381Y014202D02*
X020090Y014202D01*
X020169Y014123D02*
X020381Y014123D01*
X020381Y014045D02*
X020172Y014045D01*
X020172Y013966D02*
X020389Y013966D01*
X020421Y013888D02*
X020172Y013888D01*
X020172Y013809D02*
X020487Y013809D01*
X020566Y013731D02*
X020172Y013731D01*
X019957Y013417D02*
X017783Y013417D01*
X017783Y013495D02*
X018709Y013495D01*
X018743Y013461D02*
X019291Y013461D01*
X019402Y013572D01*
X019402Y014120D01*
X019291Y014231D01*
X018743Y014231D01*
X018632Y014120D01*
X018632Y013572D01*
X018743Y013461D01*
X018632Y013574D02*
X017783Y013574D01*
X017783Y013652D02*
X018632Y013652D01*
X018632Y013731D02*
X017783Y013731D01*
X017783Y013809D02*
X018632Y013809D01*
X018632Y013888D02*
X017783Y013888D01*
X017783Y013966D02*
X018632Y013966D01*
X018632Y014045D02*
X017783Y014045D01*
X017783Y014123D02*
X018635Y014123D01*
X018714Y014202D02*
X017783Y014202D01*
X016535Y014976D02*
X016535Y015021D01*
X016532Y015065D01*
X016760Y016321D02*
X018719Y016321D01*
X018727Y016400D02*
X016760Y016400D01*
X016760Y016478D02*
X017968Y016478D01*
X017982Y016465D02*
X017870Y016576D01*
X017870Y017134D01*
X017982Y017245D01*
X018529Y017245D01*
X018640Y017134D01*
X018640Y016576D01*
X018529Y016465D01*
X017982Y016465D01*
X017890Y016557D02*
X016760Y016557D01*
X016760Y016635D02*
X017870Y016635D01*
X017870Y016714D02*
X016760Y016714D01*
X016760Y016792D02*
X017870Y016792D01*
X017870Y016871D02*
X016760Y016871D01*
X016760Y016949D02*
X017870Y016949D01*
X017870Y017028D02*
X016760Y017028D01*
X016760Y017106D02*
X017870Y017106D01*
X017921Y017185D02*
X016760Y017185D01*
X016760Y017263D02*
X022023Y017263D01*
X022023Y017185D02*
X018589Y017185D01*
X018640Y017106D02*
X022023Y017106D01*
X022023Y017028D02*
X018640Y017028D01*
X018640Y016949D02*
X022023Y016949D01*
X022023Y016871D02*
X018640Y016871D01*
X018640Y016792D02*
X022023Y016792D01*
X022023Y016714D02*
X018640Y016714D01*
X018640Y016635D02*
X022023Y016635D01*
X022023Y016557D02*
X020978Y016557D01*
X021019Y016478D02*
X022023Y016478D01*
X022075Y016400D02*
X021019Y016400D01*
X021019Y016321D02*
X027779Y016321D01*
X027779Y016400D02*
X025050Y016400D01*
X025008Y016358D02*
X025120Y016469D01*
X025120Y017847D01*
X025008Y017958D01*
X023985Y017958D01*
X023873Y017847D01*
X023873Y016469D01*
X023985Y016358D01*
X025008Y016358D01*
X025120Y016478D02*
X027779Y016478D01*
X027779Y016557D02*
X025120Y016557D01*
X025120Y016635D02*
X027779Y016635D01*
X027779Y016714D02*
X025120Y016714D01*
X025120Y016792D02*
X027779Y016792D01*
X027779Y016871D02*
X025120Y016871D01*
X025120Y016949D02*
X027779Y016949D01*
X027779Y017028D02*
X025120Y017028D01*
X025120Y017106D02*
X026358Y017106D01*
X026303Y017185D02*
X025120Y017185D01*
X025120Y017263D02*
X026303Y017263D01*
X026303Y017342D02*
X025120Y017342D01*
X025120Y017420D02*
X026303Y017420D01*
X026303Y017499D02*
X025120Y017499D01*
X025120Y017577D02*
X026303Y017577D01*
X026303Y017656D02*
X025120Y017656D01*
X025120Y017734D02*
X026303Y017734D01*
X026303Y017813D02*
X025120Y017813D01*
X025075Y017891D02*
X026303Y017891D01*
X026364Y017970D02*
X023073Y017970D01*
X023349Y018048D02*
X023956Y018048D01*
X023878Y018127D02*
X023878Y018611D01*
X023428Y018611D01*
X023428Y018127D01*
X023428Y018205D02*
X023878Y018205D01*
X023878Y018284D02*
X023428Y018284D01*
X023428Y018362D02*
X023878Y018362D01*
X023878Y018441D02*
X023428Y018441D01*
X023428Y018519D02*
X023878Y018519D01*
X023878Y018598D02*
X023428Y018598D01*
X023705Y017891D02*
X023918Y017891D01*
X023873Y017813D02*
X023749Y017813D01*
X023749Y017734D02*
X023873Y017734D01*
X023873Y017656D02*
X023749Y017656D01*
X023749Y017577D02*
X023873Y017577D01*
X023873Y017499D02*
X023749Y017499D01*
X023749Y017420D02*
X023873Y017420D01*
X023873Y017342D02*
X023749Y017342D01*
X023749Y017263D02*
X023873Y017263D01*
X023873Y017185D02*
X023749Y017185D01*
X023749Y017106D02*
X023873Y017106D01*
X023873Y017028D02*
X023749Y017028D01*
X023749Y016949D02*
X023873Y016949D01*
X023873Y016871D02*
X023749Y016871D01*
X023749Y016792D02*
X023873Y016792D01*
X023873Y016714D02*
X023749Y016714D01*
X023749Y016635D02*
X023873Y016635D01*
X023873Y016557D02*
X023749Y016557D01*
X023749Y016478D02*
X023873Y016478D01*
X023943Y016400D02*
X023680Y016400D01*
X023311Y016164D02*
X021021Y016164D01*
X021021Y016086D02*
X023232Y016086D01*
X023230Y016007D02*
X021021Y016007D01*
X021021Y015929D02*
X023230Y015929D01*
X023230Y015850D02*
X021021Y015850D01*
X021021Y015772D02*
X023230Y015772D01*
X023230Y015693D02*
X021021Y015693D01*
X021021Y015615D02*
X023230Y015615D01*
X023230Y015536D02*
X021021Y015536D01*
X021021Y015458D02*
X023230Y015458D01*
X023230Y015379D02*
X021021Y015379D01*
X021021Y015301D02*
X023230Y015301D01*
X023216Y015222D02*
X021021Y015222D01*
X021021Y015144D02*
X023168Y015144D01*
X023168Y015065D02*
X021021Y015065D01*
X021021Y014987D02*
X023168Y014987D01*
X023168Y014908D02*
X021021Y014908D01*
X021021Y014830D02*
X023168Y014830D01*
X023168Y014751D02*
X021021Y014751D01*
X021021Y014673D02*
X023168Y014673D01*
X023220Y014594D02*
X021021Y014594D01*
X021021Y014516D02*
X024968Y014516D01*
X024968Y014437D02*
X021021Y014437D01*
X021021Y014359D02*
X024968Y014359D01*
X024968Y014280D02*
X021021Y014280D01*
X021021Y014202D02*
X024968Y014202D01*
X024968Y014123D02*
X021078Y014123D01*
X021157Y014045D02*
X024968Y014045D01*
X024968Y013966D02*
X021220Y013966D01*
X021252Y013888D02*
X024968Y013888D01*
X024968Y013809D02*
X022493Y013809D01*
X022490Y013812D02*
X022584Y013718D01*
X022584Y012936D01*
X022490Y012842D01*
X021708Y012842D01*
X021614Y012936D01*
X021614Y013718D01*
X021708Y013812D01*
X022490Y013812D01*
X022572Y013731D02*
X024968Y013731D01*
X024968Y013652D02*
X022584Y013652D01*
X022584Y013574D02*
X024968Y013574D01*
X024968Y013495D02*
X022584Y013495D01*
X022584Y013417D02*
X024931Y013417D01*
X024931Y013338D02*
X022584Y013338D01*
X022584Y013260D02*
X024931Y013260D01*
X024931Y013181D02*
X022584Y013181D01*
X022584Y013103D02*
X024931Y013103D01*
X024931Y013024D02*
X022584Y013024D01*
X022584Y012946D02*
X024931Y012946D01*
X024931Y012867D02*
X022515Y012867D01*
X021683Y012867D02*
X021257Y012867D01*
X021257Y012789D02*
X024931Y012789D01*
X024931Y012710D02*
X021258Y012710D01*
X021258Y012632D02*
X024931Y012632D01*
X024931Y012553D02*
X021256Y012553D01*
X021256Y012475D02*
X024961Y012475D01*
X025047Y012396D02*
X021256Y012396D01*
X021256Y012318D02*
X025005Y012318D01*
X024951Y012239D02*
X021256Y012239D01*
X021256Y012161D02*
X024951Y012161D01*
X024951Y012082D02*
X021256Y012082D01*
X021252Y012004D02*
X024951Y012004D01*
X024951Y011925D02*
X021173Y011925D01*
X021095Y011847D02*
X024951Y011847D01*
X024951Y011768D02*
X021016Y011768D01*
X020127Y011690D02*
X024951Y011690D01*
X024951Y011611D02*
X020048Y011611D01*
X019987Y012396D02*
X018847Y012396D01*
X018847Y012475D02*
X019980Y012475D01*
X019957Y012553D02*
X018847Y012553D01*
X018847Y012632D02*
X019957Y012632D01*
X019957Y012710D02*
X018847Y012710D01*
X018847Y012789D02*
X019957Y012789D01*
X019987Y012867D02*
X018847Y012867D01*
X018847Y012946D02*
X019987Y012946D01*
X019957Y013024D02*
X018847Y013024D01*
X018799Y013103D02*
X019957Y013103D01*
X019957Y013181D02*
X017783Y013181D01*
X017783Y013260D02*
X019957Y013260D01*
X019957Y013338D02*
X017783Y013338D01*
X016572Y013024D02*
X016059Y013024D01*
X016059Y012946D02*
X016572Y012946D01*
X016572Y012867D02*
X016059Y012867D01*
X016059Y012789D02*
X016572Y012789D01*
X016572Y012710D02*
X016059Y012710D01*
X016059Y012632D02*
X016572Y012632D01*
X016572Y012553D02*
X016059Y012553D01*
X016059Y012475D02*
X016572Y012475D01*
X016572Y012396D02*
X016059Y012396D01*
X016059Y012318D02*
X016572Y012318D01*
X016572Y012239D02*
X016059Y012239D01*
X016059Y012161D02*
X016572Y012161D01*
X016574Y012082D02*
X016059Y012082D01*
X016059Y012004D02*
X016574Y012004D01*
X016610Y011925D02*
X016059Y011925D01*
X016059Y011847D02*
X016777Y011847D01*
X016876Y011768D02*
X016059Y011768D01*
X016059Y011690D02*
X017126Y011690D01*
X016059Y011611D02*
X018713Y011611D01*
X016059Y011533D02*
X024951Y011533D01*
X024951Y011454D02*
X016059Y011454D01*
X016059Y011376D02*
X024951Y011376D01*
X024997Y011297D02*
X016059Y011297D01*
X017717Y009158D02*
X017721Y009154D01*
X017453Y008260D02*
X017709Y008004D01*
X017807Y008004D01*
X018024Y007788D01*
X019382Y006469D01*
X020367Y006469D01*
X020367Y006272D02*
X019107Y006272D01*
X017827Y007552D01*
X014048Y007552D01*
X013733Y007237D01*
X017276Y006087D02*
X017276Y005780D01*
X017374Y005681D01*
X020367Y005681D01*
X020367Y005878D02*
X018225Y005878D01*
X018000Y006103D01*
X017292Y006103D02*
X017276Y006087D01*
X017516Y006859D02*
X018048Y006859D01*
X018831Y006075D01*
X020367Y006075D01*
X020367Y005091D02*
X012788Y005091D01*
X016331Y002788D02*
X016567Y003024D01*
X018811Y003024D01*
X019500Y003713D01*
X020367Y003713D01*
X020367Y003516D02*
X019646Y003516D01*
X018918Y002788D01*
X017552Y002788D01*
X017276Y002512D01*
X018603Y003918D02*
X018792Y004107D01*
X020367Y004107D01*
X023162Y004107D02*
X024658Y004107D01*
X026252Y002512D01*
X026449Y002512D01*
X026449Y002079D02*
X026134Y002079D01*
X024304Y003910D01*
X023162Y003910D01*
X023162Y003713D02*
X024028Y003713D01*
X026099Y001666D01*
X026449Y001666D01*
X026449Y001252D02*
X026016Y001252D01*
X023752Y003516D01*
X023162Y003516D01*
X023162Y003319D02*
X023516Y003319D01*
X026095Y000741D01*
X026449Y000741D01*
X026922Y002079D02*
X027630Y002079D01*
X027985Y002433D01*
X027985Y004126D01*
X027630Y004481D01*
X026410Y004481D01*
X025800Y005091D01*
X023162Y005091D01*
X023162Y005288D02*
X025918Y005288D01*
X026489Y004717D01*
X027355Y004717D01*
X027512Y004756D01*
X028044Y005052D02*
X026922Y005052D01*
X026898Y005032D01*
X026489Y005032D01*
X026036Y005485D01*
X023162Y005485D01*
X023162Y005681D02*
X026233Y005681D01*
X026528Y005386D01*
X027827Y005386D01*
X028575Y006134D01*
X028575Y008615D01*
X028221Y008969D01*
X026213Y008969D01*
X026213Y008575D02*
X027906Y008575D01*
X028300Y008181D01*
X028300Y006410D01*
X027965Y006075D01*
X023162Y006075D01*
X023162Y005878D02*
X026760Y005878D01*
X026922Y005760D01*
X027709Y006331D02*
X026056Y006331D01*
X025996Y006272D01*
X023162Y006272D01*
X023162Y006469D02*
X025800Y006469D01*
X026016Y006685D01*
X026902Y006685D01*
X026922Y006705D01*
X027374Y006705D01*
X027473Y006804D01*
X027276Y007079D02*
X027355Y007158D01*
X027355Y007709D01*
X027276Y007788D01*
X026213Y007788D01*
X026213Y008181D02*
X027867Y008181D01*
X028024Y008024D01*
X028024Y006646D01*
X027709Y006331D01*
X027276Y007079D02*
X026056Y007079D01*
X025642Y006666D01*
X023162Y006666D01*
X023162Y006863D02*
X025481Y006863D01*
X026028Y007410D01*
X026918Y007410D01*
X026922Y007414D01*
X028851Y008811D02*
X028181Y009481D01*
X028615Y009835D02*
X028615Y011922D01*
X029048Y012355D01*
X027777Y012381D02*
X027776Y011252D01*
X026282Y011252D01*
X026373Y011344D01*
X026373Y011806D01*
X026425Y011858D01*
X026474Y011976D01*
X026474Y012283D01*
X027678Y012283D01*
X027737Y012342D01*
X027777Y012381D01*
X027777Y012318D02*
X027713Y012318D01*
X027776Y012239D02*
X026474Y012239D01*
X026474Y012161D02*
X027776Y012161D01*
X027776Y012082D02*
X026474Y012082D01*
X026474Y012004D02*
X027776Y012004D01*
X027776Y011925D02*
X026453Y011925D01*
X026413Y011847D02*
X027776Y011847D01*
X027776Y011768D02*
X026373Y011768D01*
X026373Y011690D02*
X027776Y011690D01*
X027776Y011611D02*
X026373Y011611D01*
X026373Y011533D02*
X027776Y011533D01*
X027776Y011454D02*
X026373Y011454D01*
X026373Y011376D02*
X027776Y011376D01*
X027776Y011297D02*
X026326Y011297D01*
X028615Y009835D02*
X029166Y009284D01*
X029166Y005583D01*
X028300Y004717D01*
X028300Y003449D01*
X027748Y003654D02*
X027748Y003063D01*
X027630Y002945D01*
X026922Y002945D01*
X026449Y002945D02*
X025091Y004304D01*
X023162Y004304D01*
X023162Y004500D02*
X025485Y004500D01*
X026528Y003457D01*
X026914Y003457D01*
X026922Y003449D01*
X027430Y003449D01*
X027748Y003654D02*
X027599Y003804D01*
X026469Y003804D01*
X025575Y004697D01*
X023162Y004697D01*
X023162Y004894D02*
X025681Y004894D01*
X026449Y004126D01*
X026890Y004126D01*
X026922Y004158D01*
X028044Y005052D02*
X028851Y005859D01*
X028851Y008811D01*
X030378Y008473D02*
X030727Y008473D01*
X030731Y008477D01*
X035170Y007790D02*
X035857Y007790D01*
X035859Y007788D01*
X030268Y011292D02*
X030268Y011705D01*
X030268Y011784D02*
X030268Y011961D01*
X030741Y012040D02*
X030741Y011502D01*
X030731Y011493D01*
X027777Y013184D02*
X027328Y013184D01*
X027234Y013090D01*
X027234Y012703D01*
X026474Y012703D01*
X026474Y012911D01*
X026472Y012914D01*
X026472Y013052D01*
X026379Y013146D01*
X026269Y013146D01*
X026218Y013167D01*
X025815Y013167D01*
X025763Y013146D01*
X025723Y013146D01*
X025723Y013425D01*
X025630Y013519D01*
X025528Y013519D01*
X025528Y014216D01*
X026305Y013439D01*
X026372Y013372D01*
X026461Y013335D01*
X026657Y013335D01*
X026764Y013228D01*
X027777Y013228D01*
X027777Y013184D01*
X027325Y013181D02*
X025723Y013181D01*
X025723Y013260D02*
X026732Y013260D01*
X026454Y013338D02*
X025723Y013338D01*
X025723Y013417D02*
X026328Y013417D01*
X026249Y013495D02*
X025653Y013495D01*
X025528Y013574D02*
X026171Y013574D01*
X026092Y013652D02*
X025528Y013652D01*
X025528Y013731D02*
X026014Y013731D01*
X025935Y013809D02*
X025528Y013809D01*
X025528Y013888D02*
X025857Y013888D01*
X025778Y013966D02*
X025528Y013966D01*
X025528Y014045D02*
X025700Y014045D01*
X025621Y014123D02*
X025528Y014123D01*
X025528Y014202D02*
X025543Y014202D01*
X026268Y014673D02*
X027778Y014673D01*
X027778Y014751D02*
X026268Y014751D01*
X026268Y014830D02*
X027778Y014830D01*
X027778Y014908D02*
X026268Y014908D01*
X026268Y014987D02*
X027778Y014987D01*
X027778Y015065D02*
X026268Y015065D01*
X026268Y015144D02*
X027778Y015144D01*
X027778Y015222D02*
X026220Y015222D01*
X026351Y015693D02*
X024810Y015693D01*
X024810Y015615D02*
X027153Y015615D01*
X027074Y015693D02*
X027004Y015693D01*
X026303Y015772D02*
X024810Y015772D01*
X024810Y015850D02*
X026303Y015850D01*
X026303Y015929D02*
X024810Y015929D01*
X024810Y016007D02*
X026303Y016007D01*
X026303Y016086D02*
X024808Y016086D01*
X024729Y016164D02*
X026328Y016164D01*
X026407Y016243D02*
X021021Y016243D01*
X020381Y015929D02*
X019398Y015929D01*
X019398Y016007D02*
X019775Y016007D01*
X019714Y016086D02*
X019398Y016086D01*
X019398Y016164D02*
X019714Y016164D01*
X019714Y016243D02*
X019398Y016243D01*
X019376Y016321D02*
X019714Y016321D01*
X019714Y016400D02*
X019368Y016400D01*
X019289Y016478D02*
X019714Y016478D01*
X019755Y016557D02*
X018621Y016557D01*
X018542Y016478D02*
X018806Y016478D01*
X019398Y015850D02*
X020381Y015850D01*
X020381Y015772D02*
X019398Y015772D01*
X019398Y015693D02*
X020381Y015693D01*
X020381Y015615D02*
X019398Y015615D01*
X019398Y015536D02*
X020381Y015536D01*
X020381Y015458D02*
X019398Y015458D01*
X019398Y015379D02*
X020381Y015379D01*
X020381Y015301D02*
X019391Y015301D01*
X019358Y015222D02*
X020381Y015222D01*
X020381Y015144D02*
X019300Y015144D01*
X019221Y015065D02*
X020381Y015065D01*
X020381Y014987D02*
X019143Y014987D01*
X019320Y014202D02*
X019734Y014202D01*
X019655Y014123D02*
X019399Y014123D01*
X019402Y014045D02*
X019652Y014045D01*
X019652Y013966D02*
X019402Y013966D01*
X019402Y013888D02*
X019652Y013888D01*
X019652Y013809D02*
X019402Y013809D01*
X019402Y013731D02*
X019652Y013731D01*
X019652Y013652D02*
X019402Y013652D01*
X019402Y013574D02*
X019652Y013574D01*
X019729Y013495D02*
X019325Y013495D01*
X021257Y013495D02*
X021614Y013495D01*
X021614Y013417D02*
X021257Y013417D01*
X021257Y013338D02*
X021614Y013338D01*
X021614Y013260D02*
X021257Y013260D01*
X021257Y013181D02*
X021614Y013181D01*
X021614Y013103D02*
X021257Y013103D01*
X021257Y013024D02*
X021614Y013024D01*
X021614Y012946D02*
X021257Y012946D01*
X021257Y013574D02*
X021614Y013574D01*
X021614Y013652D02*
X021257Y013652D01*
X021257Y013731D02*
X021626Y013731D01*
X021704Y013809D02*
X021257Y013809D01*
X024810Y015301D02*
X027778Y015301D01*
X027778Y015379D02*
X024810Y015379D01*
X024810Y015458D02*
X027778Y015458D01*
X027778Y015536D02*
X024810Y015536D01*
X026321Y014594D02*
X027778Y014594D01*
X027778Y014516D02*
X027313Y014516D01*
X027348Y014437D02*
X027778Y014437D01*
X027778Y014359D02*
X027348Y014359D01*
X027348Y014280D02*
X027778Y014280D01*
X027778Y014202D02*
X027348Y014202D01*
X027348Y014123D02*
X027777Y014123D01*
X027777Y014045D02*
X027348Y014045D01*
X027348Y013966D02*
X027777Y013966D01*
X027246Y013103D02*
X026422Y013103D01*
X026472Y013024D02*
X027234Y013024D01*
X027234Y012946D02*
X026472Y012946D01*
X026474Y012867D02*
X027234Y012867D01*
X027234Y012789D02*
X026474Y012789D01*
X026474Y012710D02*
X027234Y012710D01*
X026653Y014437D02*
X026478Y014437D01*
X026399Y014516D02*
X026688Y014516D01*
X026949Y016243D02*
X027135Y016243D01*
X026997Y017106D02*
X027779Y017106D01*
X027779Y017185D02*
X027053Y017185D01*
X027053Y017263D02*
X027779Y017263D01*
X027779Y017342D02*
X027053Y017342D01*
X027053Y017420D02*
X027779Y017420D01*
X027779Y017499D02*
X027492Y017499D01*
X027086Y017970D02*
X026992Y017970D01*
X027086Y018048D02*
X026189Y018048D01*
X026268Y018127D02*
X026268Y018611D01*
X027086Y018611D01*
X027086Y018319D01*
X027197Y018208D01*
X027780Y018208D01*
X027780Y018194D01*
X027197Y018194D01*
X027086Y018083D01*
X027122Y018284D02*
X026268Y018284D01*
X026268Y018362D02*
X027086Y018362D01*
X027086Y018441D02*
X026268Y018441D01*
X026268Y018519D02*
X027086Y018519D01*
X027086Y018598D02*
X026268Y018598D01*
X026268Y018205D02*
X027780Y018205D01*
X025366Y018048D02*
X024769Y018048D01*
X024848Y018127D02*
X024848Y018611D01*
X025288Y018611D01*
X025288Y018127D01*
X025288Y018205D02*
X024848Y018205D01*
X024848Y018284D02*
X025288Y018284D01*
X025288Y018362D02*
X024848Y018362D01*
X024848Y018441D02*
X025288Y018441D01*
X025288Y018519D02*
X024848Y018519D01*
X024848Y018598D02*
X025288Y018598D01*
X022023Y017813D02*
X018085Y017813D01*
X018085Y017891D02*
X021752Y017891D01*
X021673Y017970D02*
X018054Y017970D01*
X017976Y018048D02*
X021595Y018048D01*
X022023Y017734D02*
X018085Y017734D01*
X018085Y017656D02*
X022023Y017656D01*
X022023Y017577D02*
X018085Y017577D01*
X018085Y017499D02*
X022023Y017499D01*
X022023Y017420D02*
X018085Y017420D01*
X018036Y017342D02*
X022023Y017342D01*
X020999Y018127D02*
X020915Y018127D01*
X019857Y018127D02*
X019773Y018127D01*
X018716Y018127D02*
X017644Y018127D01*
X017644Y018205D02*
X018661Y018205D01*
X018661Y018284D02*
X017641Y018284D01*
X017563Y018362D02*
X018661Y018362D01*
X018661Y018441D02*
X017387Y018441D01*
X017387Y018519D02*
X018661Y018519D01*
X018661Y018598D02*
X017387Y018598D01*
X017387Y018676D02*
X018661Y018676D01*
X018661Y018755D02*
X017387Y018755D01*
X017387Y018833D02*
X018682Y018833D01*
X031725Y015111D02*
X032000Y015111D01*
X034441Y015071D02*
X034441Y014141D01*
X034861Y013721D01*
X036083Y012983D02*
X036083Y012445D01*
X036252Y012276D01*
X035780Y012276D02*
X035172Y012276D01*
X035170Y012278D01*
X035268Y014953D02*
X035150Y015071D01*
X035268Y014953D02*
X035607Y014953D01*
X020544Y008615D02*
X020544Y008146D01*
X020355Y007957D01*
X020367Y007945D01*
X020367Y007650D01*
X020367Y007453D02*
X019973Y007453D01*
X019874Y007552D01*
X019874Y007870D01*
X019859Y007886D01*
X019835Y007910D01*
X019835Y008615D01*
X031725Y003496D02*
X032004Y003496D01*
X031981Y003473D01*
X031981Y003059D01*
X031981Y002981D02*
X031981Y001311D01*
X032158Y001134D01*
X033615Y003024D02*
X033181Y003457D01*
X033181Y003496D01*
X033457Y003496D02*
X033693Y003496D01*
X033733Y003457D01*
X034126Y003457D02*
X034126Y003833D01*
X034418Y004085D01*
X034323Y003991D01*
X034363Y004030D02*
X034418Y004085D01*
X034520Y003457D02*
X035583Y003457D01*
X036016Y003457D02*
X036016Y003103D01*
X035937Y003024D01*
X033615Y003024D01*
X007586Y008079D02*
X007135Y008079D01*
X006685Y007630D01*
X001843Y007630D01*
X001607Y007394D01*
X002355Y007827D02*
X002000Y008181D01*
X001607Y008181D01*
X002355Y007827D02*
X006567Y007827D01*
X007020Y008279D01*
X007586Y008279D01*
X007586Y008479D02*
X006905Y008479D01*
X006449Y008024D01*
X002906Y008024D01*
X001961Y008969D01*
X001607Y008969D01*
D57*
X009717Y011252D02*
X009756Y011213D01*
X010504Y011213D01*
X010686Y011394D01*
X010686Y011769D01*
X011076Y011769D02*
X011076Y011273D01*
X010937Y011134D01*
X010701Y011134D01*
X010544Y010977D01*
X010544Y010426D01*
X010662Y010307D01*
X010819Y010307D01*
X010819Y010741D02*
X011016Y010741D01*
X011252Y010977D01*
X011252Y011746D01*
X011276Y011769D01*
X011134Y009284D02*
X011016Y009284D01*
X011134Y009284D02*
X011349Y009069D01*
X012006Y009069D01*
X012006Y008279D02*
X011036Y008279D01*
X011016Y008300D01*
X012552Y008142D02*
X012552Y007945D01*
X012552Y008142D02*
X012670Y008260D01*
X017453Y008260D01*
D58*
X017355Y012079D02*
X017040Y012079D01*
X016922Y012197D01*
X016922Y012276D01*
X016922Y012906D01*
X016922Y013536D01*
X016922Y014166D01*
X016922Y014796D01*
X017433Y014717D02*
X017433Y012906D01*
X017433Y012158D01*
X017355Y012079D01*
X020937Y012709D02*
X020937Y012945D01*
X020937Y013811D01*
X020701Y014048D01*
X020701Y014441D01*
X020701Y015032D01*
X020701Y015622D01*
X020701Y016213D01*
X020622Y016292D01*
X020367Y016292D01*
X020111Y016292D01*
X019048Y016174D02*
X019048Y015819D01*
X019048Y015386D01*
X018930Y015268D01*
X017985Y015268D01*
X017433Y014717D01*
X025878Y012847D02*
X025878Y011902D01*
X025977Y011804D01*
X025937Y011823D02*
X025937Y012630D01*
X026134Y012827D01*
X026134Y012847D01*
X026154Y012847D02*
X026154Y012040D01*
X025937Y011823D01*
X025937Y012847D02*
X025878Y012847D01*
X025937Y012847D02*
X026154Y012847D01*
D59*
X025327Y012965D02*
X025327Y011823D01*
X025347Y011804D01*
X025977Y011804D01*
X025327Y012965D02*
X025248Y013044D01*
X025248Y014910D01*
D60*
X016213Y014796D02*
X015307Y014796D01*
X013890Y016213D01*
X013890Y017670D01*
D61*
X016375Y016215D02*
X016805Y015785D01*
X016805Y015030D01*
X016922Y014796D01*
X017315Y015189D01*
X017315Y015785D01*
X021528Y018496D02*
X021914Y018110D01*
X022398Y018110D01*
X022548Y018260D01*
X022678Y018390D01*
X023118Y018390D01*
X022398Y018110D02*
X022398Y017710D01*
X022787Y017710D01*
X022906Y017591D01*
X022398Y017710D02*
X022398Y017360D01*
X022398Y017000D01*
X022398Y016650D01*
X021528Y018496D02*
X020386Y018496D01*
X019244Y018496D01*
X018462Y012906D02*
X017433Y012906D01*
X018224Y012158D02*
X018462Y012396D01*
X018224Y012158D02*
X017433Y012158D01*
X017315Y011882D02*
X017119Y012079D01*
X017040Y012079D01*
X017315Y011882D02*
X018808Y011882D01*
X018892Y011966D01*
M02*
