G75*
%MOIN*%
%OFA0B0*%
%FSLAX24Y24*%
%IPPOS*%
%LPD*%
%AMOC8*
5,1,8,0,0,1.08239X$1,22.5*
%
%ADD10C,0.0030*%
%ADD11C,0.0100*%
%ADD12C,0.0060*%
%ADD13C,0.0080*%
%ADD14C,0.0040*%
%ADD15C,0.0050*%
%ADD16C,0.0000*%
%ADD17C,0.0197*%
%ADD18C,0.0120*%
%ADD19C,0.0080*%
D10*
X005190Y003871D02*
X005504Y004184D01*
X005504Y004027D02*
X005190Y004027D01*
X005190Y004184D02*
X005504Y003871D01*
X005347Y003871D02*
X005347Y004184D01*
X011322Y002568D02*
X011322Y002197D01*
X011322Y002321D02*
X011508Y002321D01*
X011569Y002382D01*
X011569Y002506D01*
X011508Y002568D01*
X011322Y002568D01*
X011691Y002568D02*
X011814Y002444D01*
X011938Y002568D01*
X011938Y002197D01*
X012059Y002259D02*
X012121Y002197D01*
X012244Y002197D01*
X012306Y002259D01*
X012306Y002321D01*
X012244Y002382D01*
X012121Y002382D01*
X012059Y002444D01*
X012059Y002506D01*
X012121Y002568D01*
X012244Y002568D01*
X012306Y002506D01*
X012427Y002568D02*
X012551Y002444D01*
X012674Y002568D01*
X012674Y002197D01*
X012613Y001968D02*
X012674Y001906D01*
X012427Y001659D01*
X012489Y001597D01*
X012613Y001597D01*
X012674Y001659D01*
X012674Y001906D01*
X012613Y001968D02*
X012489Y001968D01*
X012427Y001906D01*
X012427Y001659D01*
X012306Y001782D02*
X012059Y001782D01*
X012244Y001968D01*
X012244Y001597D01*
X011938Y001782D02*
X011691Y001782D01*
X011569Y001721D02*
X011508Y001782D01*
X011322Y001782D01*
X011322Y001659D01*
X011384Y001597D01*
X011508Y001597D01*
X011569Y001659D01*
X011569Y001721D01*
X011446Y001906D02*
X011322Y001782D01*
X011446Y001906D02*
X011569Y001968D01*
X011691Y002197D02*
X011691Y002568D01*
X012427Y002568D02*
X012427Y002197D01*
X013164Y002197D02*
X013349Y002197D01*
X013411Y002259D01*
X013411Y002506D01*
X013349Y002568D01*
X013164Y002568D01*
X013164Y002197D01*
X013164Y001968D02*
X013164Y001721D01*
X013287Y001597D01*
X013411Y001721D01*
X013411Y001968D01*
X013532Y002197D02*
X013532Y002444D01*
X013532Y002321D02*
X013656Y002444D01*
X013718Y002444D01*
X013839Y002444D02*
X013901Y002444D01*
X013901Y002197D01*
X013839Y002197D02*
X013963Y002197D01*
X014208Y002197D02*
X014332Y002444D01*
X014453Y002382D02*
X014515Y002444D01*
X014638Y002444D01*
X014700Y002382D01*
X014700Y002321D01*
X014453Y002321D01*
X014453Y002382D02*
X014453Y002259D01*
X014515Y002197D01*
X014638Y002197D01*
X014821Y002197D02*
X014821Y002444D01*
X014821Y002321D02*
X014945Y002444D01*
X015007Y002444D01*
X015497Y002444D02*
X015620Y002197D01*
X015744Y002444D01*
X015865Y002444D02*
X015988Y002568D01*
X015988Y002197D01*
X015865Y002197D02*
X016112Y002197D01*
X016233Y002197D02*
X016295Y002197D01*
X016295Y002259D01*
X016233Y002259D01*
X016233Y002197D01*
X016417Y002259D02*
X016417Y002321D01*
X016479Y002382D01*
X016603Y002382D01*
X016664Y002321D01*
X016664Y002259D01*
X016603Y002197D01*
X016479Y002197D01*
X016417Y002259D01*
X016479Y002382D02*
X016417Y002444D01*
X016417Y002506D01*
X016479Y002568D01*
X016603Y002568D01*
X016664Y002506D01*
X016664Y002444D01*
X016603Y002382D01*
X016541Y001844D02*
X016726Y001844D01*
X016664Y001721D02*
X016541Y001721D01*
X016479Y001782D01*
X016541Y001844D01*
X016664Y001721D02*
X016726Y001659D01*
X016664Y001597D01*
X016479Y001597D01*
X016357Y001659D02*
X016357Y001782D01*
X016296Y001844D01*
X016111Y001844D01*
X016111Y001474D01*
X016111Y001597D02*
X016296Y001597D01*
X016357Y001659D01*
X015989Y001597D02*
X015989Y001782D01*
X015927Y001844D01*
X015866Y001782D01*
X015866Y001597D01*
X015742Y001597D02*
X015742Y001844D01*
X015804Y001844D01*
X015866Y001782D01*
X015621Y001782D02*
X015374Y001782D01*
X015374Y001844D02*
X015497Y001968D01*
X015621Y001844D01*
X015621Y001597D01*
X015374Y001597D02*
X015374Y001844D01*
X014884Y001906D02*
X014884Y001659D01*
X014822Y001597D01*
X014699Y001597D01*
X014637Y001659D01*
X014884Y001906D01*
X014822Y001968D01*
X014699Y001968D01*
X014637Y001906D01*
X014637Y001659D01*
X014516Y001782D02*
X014269Y001782D01*
X014454Y001968D01*
X014454Y001597D01*
X014576Y001368D02*
X014638Y001368D01*
X014638Y000997D01*
X014699Y000997D02*
X014576Y000997D01*
X014577Y000768D02*
X014639Y000706D01*
X014639Y000644D01*
X014577Y000582D01*
X014639Y000521D01*
X014639Y000459D01*
X014577Y000397D01*
X014453Y000397D01*
X014392Y000459D01*
X014270Y000397D02*
X014023Y000397D01*
X014147Y000397D02*
X014147Y000768D01*
X014023Y000644D01*
X013902Y000706D02*
X013655Y000459D01*
X013717Y000397D01*
X013840Y000397D01*
X013902Y000459D01*
X013902Y000706D01*
X013840Y000768D01*
X013717Y000768D01*
X013655Y000706D01*
X013655Y000459D01*
X013534Y000397D02*
X013287Y000397D01*
X013534Y000644D01*
X013534Y000706D01*
X013472Y000768D01*
X013349Y000768D01*
X013287Y000706D01*
X013471Y000874D02*
X013471Y001244D01*
X013656Y001244D01*
X013718Y001182D01*
X013718Y001059D01*
X013656Y000997D01*
X013471Y000997D01*
X013103Y000997D02*
X013350Y001368D01*
X012981Y001368D02*
X012734Y000997D01*
X012612Y000997D02*
X012550Y000997D01*
X012550Y001059D01*
X012612Y001059D01*
X012612Y000997D01*
X012612Y001182D02*
X012550Y001182D01*
X012550Y001244D01*
X012612Y001244D01*
X012612Y001182D01*
X012429Y001182D02*
X012429Y001059D01*
X012367Y000997D01*
X012182Y000997D01*
X012060Y000997D02*
X011998Y001059D01*
X011998Y001306D01*
X011936Y001244D02*
X012060Y001244D01*
X012182Y001244D02*
X012367Y001244D01*
X012429Y001182D01*
X012182Y001244D02*
X012182Y000874D01*
X012060Y000644D02*
X011936Y000768D01*
X011815Y000706D02*
X011753Y000768D01*
X011630Y000768D01*
X011568Y000706D01*
X011568Y000459D01*
X011630Y000397D01*
X011753Y000397D01*
X011815Y000459D01*
X011936Y000397D02*
X012060Y000521D01*
X012060Y000644D01*
X012550Y000582D02*
X012797Y000582D01*
X013839Y001059D02*
X013901Y001121D01*
X014086Y001121D01*
X014086Y001182D02*
X014086Y000997D01*
X013901Y000997D01*
X013839Y001059D01*
X013901Y001244D02*
X014024Y001244D01*
X014086Y001182D01*
X014208Y001244D02*
X014331Y000997D01*
X014454Y001244D01*
X014821Y001182D02*
X014821Y001059D01*
X014883Y000997D01*
X015007Y000997D01*
X015068Y001059D01*
X015068Y001182D01*
X015007Y001244D01*
X014883Y001244D01*
X014821Y001182D01*
X015190Y001059D02*
X015251Y001059D01*
X015251Y000997D01*
X015190Y000997D01*
X015190Y001059D01*
X015374Y000997D02*
X015374Y001244D01*
X015436Y001244D01*
X015497Y001182D01*
X015559Y001244D01*
X015621Y001182D01*
X015621Y000997D01*
X015497Y000997D02*
X015497Y001182D01*
X015742Y001182D02*
X015742Y001059D01*
X015804Y000997D01*
X015927Y000997D01*
X015989Y001121D02*
X015742Y001121D01*
X015742Y001182D02*
X015804Y001244D01*
X015927Y001244D01*
X015989Y001182D01*
X015989Y001121D01*
X016233Y000768D02*
X016295Y000768D01*
X016295Y000397D01*
X016233Y000397D02*
X016357Y000397D01*
X016479Y000459D02*
X016541Y000397D01*
X016664Y000397D01*
X016726Y000459D01*
X016726Y000582D01*
X016664Y000644D01*
X016541Y000644D01*
X016479Y000582D01*
X016479Y000459D01*
X016112Y000644D02*
X015988Y000397D01*
X015865Y000644D01*
X015744Y000582D02*
X015744Y000397D01*
X015558Y000397D01*
X015497Y000459D01*
X015558Y000521D01*
X015744Y000521D01*
X015744Y000582D02*
X015682Y000644D01*
X015558Y000644D01*
X015375Y000582D02*
X015314Y000521D01*
X015128Y000521D01*
X015128Y000397D02*
X015128Y000768D01*
X015314Y000768D01*
X015375Y000706D01*
X015375Y000582D01*
X014577Y000582D02*
X014515Y000582D01*
X014392Y000706D02*
X014453Y000768D01*
X014577Y000768D01*
X014208Y002197D02*
X014085Y002444D01*
X013901Y002568D02*
X013901Y002629D01*
X011814Y001244D02*
X011691Y001244D01*
X011753Y001306D02*
X011753Y001059D01*
X011814Y000997D01*
X011569Y000997D02*
X011569Y001182D01*
X011508Y001244D01*
X011384Y001244D01*
X011322Y001182D01*
X011322Y000997D02*
X011322Y001368D01*
X011446Y000768D02*
X011322Y000644D01*
X011322Y000521D01*
X011446Y000397D01*
X017216Y000397D02*
X017216Y000768D01*
X017339Y000644D01*
X017462Y000768D01*
X017462Y000397D01*
X017584Y000459D02*
X017646Y000521D01*
X017831Y000521D01*
X017831Y000582D02*
X017831Y000397D01*
X017646Y000397D01*
X017584Y000459D01*
X017646Y000644D02*
X017769Y000644D01*
X017831Y000582D01*
X017952Y000644D02*
X018137Y000644D01*
X018199Y000582D01*
X018199Y000397D01*
X018320Y000459D02*
X018382Y000397D01*
X018506Y000397D01*
X018567Y000459D01*
X018567Y000582D01*
X018506Y000644D01*
X018382Y000644D01*
X018320Y000582D01*
X018320Y000459D01*
X017952Y000397D02*
X017952Y000644D01*
X018689Y000644D02*
X018812Y000397D01*
X018936Y000644D01*
X019057Y000644D02*
X019119Y000644D01*
X019119Y000397D01*
X019057Y000397D02*
X019181Y000397D01*
X019119Y000768D02*
X019119Y000829D01*
X026741Y000651D02*
X026741Y000281D01*
X026988Y000281D02*
X026741Y000651D01*
X026988Y000651D02*
X026988Y000281D01*
X027110Y000342D02*
X027171Y000281D01*
X027295Y000281D01*
X027356Y000342D01*
X027356Y000589D01*
X027295Y000651D01*
X027171Y000651D01*
X027110Y000589D01*
X027110Y000342D01*
X027846Y000342D02*
X027908Y000281D01*
X028031Y000281D01*
X028093Y000342D01*
X028093Y000404D01*
X028031Y000466D01*
X027908Y000466D01*
X027846Y000528D01*
X027846Y000589D01*
X027908Y000651D01*
X028031Y000651D01*
X028093Y000589D01*
X028214Y000651D02*
X028214Y000281D01*
X028461Y000281D01*
X028583Y000281D02*
X028583Y000651D01*
X028830Y000281D01*
X028830Y000651D01*
X028951Y000589D02*
X028951Y000528D01*
X029013Y000466D01*
X029136Y000466D01*
X029198Y000404D01*
X029198Y000342D01*
X029136Y000281D01*
X029013Y000281D01*
X028951Y000342D01*
X028951Y000589D02*
X029013Y000651D01*
X029136Y000651D01*
X029198Y000589D01*
X029319Y000651D02*
X029443Y000651D01*
X029381Y000651D02*
X029381Y000281D01*
X029319Y000281D02*
X029443Y000281D01*
X029688Y000281D02*
X029688Y000651D01*
X029565Y000651D02*
X029812Y000651D01*
X029933Y000651D02*
X030057Y000651D01*
X029995Y000651D02*
X029995Y000281D01*
X029933Y000281D02*
X030057Y000281D01*
X030179Y000404D02*
X030302Y000281D01*
X030426Y000404D01*
X030426Y000651D01*
X030547Y000651D02*
X030547Y000281D01*
X030794Y000281D01*
X030671Y000466D02*
X030547Y000466D01*
X030547Y000651D02*
X030794Y000651D01*
X031284Y000589D02*
X031284Y000342D01*
X031345Y000281D01*
X031469Y000281D01*
X031531Y000342D01*
X031652Y000342D02*
X031652Y000589D01*
X031714Y000651D01*
X031837Y000651D01*
X031899Y000589D01*
X031899Y000342D01*
X031837Y000281D01*
X031714Y000281D01*
X031652Y000342D01*
X031531Y000589D02*
X031469Y000651D01*
X031345Y000651D01*
X031284Y000589D01*
X032020Y000651D02*
X032020Y000281D01*
X032267Y000281D02*
X032267Y000651D01*
X032144Y000528D01*
X032020Y000651D01*
X032389Y000651D02*
X032389Y000281D01*
X032389Y000404D02*
X032574Y000404D01*
X032636Y000466D01*
X032636Y000589D01*
X032574Y000651D01*
X032389Y000651D01*
X032757Y000589D02*
X032757Y000342D01*
X032819Y000281D01*
X032942Y000281D01*
X033004Y000342D01*
X033004Y000589D01*
X032942Y000651D01*
X032819Y000651D01*
X032757Y000589D01*
X033125Y000651D02*
X033125Y000281D01*
X033372Y000281D02*
X033125Y000651D01*
X033372Y000651D02*
X033372Y000281D01*
X033494Y000281D02*
X033741Y000281D01*
X033862Y000281D02*
X033862Y000651D01*
X034109Y000281D01*
X034109Y000651D01*
X034230Y000651D02*
X034477Y000651D01*
X034354Y000651D02*
X034354Y000281D01*
X034599Y000342D02*
X034660Y000281D01*
X034784Y000281D01*
X034845Y000342D01*
X034845Y000404D01*
X034784Y000466D01*
X034660Y000466D01*
X034599Y000528D01*
X034599Y000589D01*
X034660Y000651D01*
X034784Y000651D01*
X034845Y000589D01*
X035335Y000528D02*
X035335Y000281D01*
X035335Y000466D02*
X035582Y000466D01*
X035582Y000528D02*
X035582Y000281D01*
X035704Y000281D02*
X035889Y000281D01*
X035950Y000342D01*
X035950Y000404D01*
X035889Y000466D01*
X035704Y000466D01*
X035795Y000540D02*
X035918Y000663D01*
X035795Y000786D01*
X036165Y000786D01*
X036103Y000908D02*
X035980Y000908D01*
X035918Y000970D01*
X035918Y001093D01*
X035980Y001155D01*
X036103Y001155D01*
X036165Y001093D01*
X036165Y000970D01*
X036103Y000908D01*
X036395Y000786D02*
X036765Y000786D01*
X036641Y000663D01*
X036765Y000540D01*
X036395Y000540D01*
X036319Y000589D02*
X036319Y000342D01*
X036257Y000281D01*
X036134Y000281D01*
X036072Y000342D01*
X036072Y000589D01*
X036134Y000651D01*
X036257Y000651D01*
X036319Y000589D01*
X036440Y000651D02*
X036440Y000404D01*
X036564Y000281D01*
X036687Y000404D01*
X036687Y000651D01*
X036808Y000651D02*
X036808Y000281D01*
X037055Y000281D01*
X036932Y000466D02*
X036808Y000466D01*
X036808Y000651D02*
X037055Y000651D01*
X036165Y000540D02*
X035795Y000540D01*
X035889Y000466D02*
X035950Y000528D01*
X035950Y000589D01*
X035889Y000651D01*
X035704Y000651D01*
X035704Y000281D01*
X035582Y000528D02*
X035459Y000651D01*
X035335Y000528D01*
X035918Y001276D02*
X035918Y001400D01*
X035856Y001338D02*
X036103Y001338D01*
X036165Y001400D01*
X036103Y001522D02*
X036165Y001583D01*
X036165Y001707D01*
X036103Y001769D01*
X035980Y001769D01*
X035918Y001707D01*
X035918Y001583D01*
X035980Y001522D01*
X036103Y001522D01*
X036395Y001644D02*
X036641Y001644D01*
X036765Y001768D01*
X036641Y001891D01*
X036395Y001891D01*
X036165Y001890D02*
X035918Y001890D01*
X035918Y002013D02*
X035918Y002075D01*
X035918Y002013D02*
X036041Y001890D01*
X035980Y002197D02*
X035918Y002197D01*
X035918Y002259D01*
X035980Y002259D01*
X035980Y002197D01*
X036103Y002197D02*
X036103Y002259D01*
X036165Y002259D01*
X036165Y002197D01*
X036103Y002197D01*
X036395Y002749D02*
X036703Y002749D01*
X036765Y002811D01*
X036765Y002935D01*
X036703Y002996D01*
X036395Y002996D01*
X033741Y000651D02*
X033494Y000651D01*
X033494Y000281D01*
X033494Y000466D02*
X033617Y000466D01*
X030179Y000404D02*
X030179Y000651D01*
X028461Y000651D02*
X028214Y000651D01*
X028214Y000466D02*
X028338Y000466D01*
X021045Y007246D02*
X020799Y007246D01*
X020922Y007246D02*
X020922Y007616D01*
X020799Y007493D01*
X020677Y007554D02*
X020615Y007616D01*
X020492Y007616D01*
X020430Y007554D01*
X020430Y007307D01*
X020492Y007246D01*
X020615Y007246D01*
X020677Y007307D01*
X020308Y007246D02*
X020185Y007246D01*
X020246Y007246D02*
X020246Y007616D01*
X020185Y007616D02*
X020308Y007616D01*
X017285Y007803D02*
X017099Y007988D01*
X017038Y007926D02*
X017285Y008173D01*
X017100Y008315D02*
X017162Y008376D01*
X017162Y008623D01*
X017100Y008685D01*
X016977Y008685D01*
X016915Y008623D01*
X016915Y008376D01*
X016977Y008315D01*
X017100Y008315D01*
X017038Y008173D02*
X017038Y007803D01*
X016916Y007803D02*
X016669Y007803D01*
X016669Y008173D01*
X016548Y008111D02*
X016486Y008173D01*
X016363Y008173D01*
X016301Y008111D01*
X016301Y007865D01*
X016363Y007803D01*
X016486Y007803D01*
X016548Y007865D01*
X016180Y007865D02*
X016118Y007803D01*
X015994Y007803D01*
X015933Y007865D01*
X015994Y007988D02*
X015933Y008050D01*
X015933Y008111D01*
X015994Y008173D01*
X016118Y008173D01*
X016180Y008111D01*
X016118Y007988D02*
X016180Y007926D01*
X016180Y007865D01*
X016118Y007988D02*
X015994Y007988D01*
X015933Y008315D02*
X015933Y008685D01*
X016056Y008561D01*
X016180Y008685D01*
X016180Y008315D01*
X016301Y008315D02*
X016424Y008315D01*
X016363Y008315D02*
X016363Y008685D01*
X016424Y008685D02*
X016301Y008685D01*
X016363Y008826D02*
X016486Y008826D01*
X016548Y008888D01*
X016548Y009135D01*
X016486Y009197D01*
X016363Y009197D01*
X016301Y009135D01*
X016301Y008888D01*
X016363Y008826D01*
X016180Y008826D02*
X016180Y009197D01*
X016056Y009073D01*
X015933Y009197D01*
X015933Y008826D01*
X016547Y008623D02*
X016547Y008561D01*
X016608Y008500D01*
X016732Y008500D01*
X016793Y008438D01*
X016793Y008376D01*
X016732Y008315D01*
X016608Y008315D01*
X016547Y008376D01*
X016547Y008623D02*
X016608Y008685D01*
X016732Y008685D01*
X016793Y008623D01*
X016855Y008826D02*
X016731Y008826D01*
X016669Y008888D01*
X016731Y009012D02*
X016855Y009012D01*
X016916Y008950D01*
X016916Y008888D01*
X016855Y008826D01*
X017038Y008826D02*
X017161Y008826D01*
X017099Y008826D02*
X017099Y009197D01*
X017038Y009197D02*
X017161Y009197D01*
X016916Y009135D02*
X016855Y009197D01*
X016731Y009197D01*
X016669Y009135D01*
X016669Y009073D01*
X016731Y009012D01*
X016486Y009338D02*
X016363Y009338D01*
X016301Y009400D01*
X016180Y009400D02*
X016118Y009338D01*
X015994Y009338D01*
X015933Y009400D01*
X015933Y009647D01*
X015994Y009709D01*
X016118Y009709D01*
X016180Y009647D01*
X016301Y009647D02*
X016301Y009585D01*
X016363Y009523D01*
X016486Y009523D01*
X016548Y009462D01*
X016548Y009400D01*
X016486Y009338D01*
X016548Y009647D02*
X016486Y009709D01*
X016363Y009709D01*
X016301Y009647D01*
X019151Y009504D02*
X019521Y009504D01*
X019521Y009750D01*
X019521Y009872D02*
X019151Y009872D01*
X019151Y010119D01*
X019151Y010240D02*
X019151Y010425D01*
X019213Y010487D01*
X019460Y010487D01*
X019521Y010425D01*
X019521Y010240D01*
X019151Y010240D01*
X019336Y009995D02*
X019336Y009872D01*
X019521Y009872D02*
X019521Y010119D01*
X019460Y010608D02*
X019521Y010670D01*
X019521Y010794D01*
X019460Y010855D01*
X019336Y010855D01*
X019275Y010794D01*
X019275Y010732D01*
X019336Y010608D01*
X019151Y010608D01*
X019151Y010855D01*
X020844Y010855D02*
X020906Y010732D01*
X021029Y010608D01*
X021029Y010794D01*
X021091Y010855D01*
X021153Y010855D01*
X021214Y010794D01*
X021214Y010670D01*
X021153Y010608D01*
X021029Y010608D01*
X020906Y010487D02*
X020844Y010425D01*
X020844Y010240D01*
X021214Y010240D01*
X021214Y010425D01*
X021153Y010487D01*
X020906Y010487D01*
X020844Y010119D02*
X020844Y009872D01*
X021214Y009872D01*
X021214Y010119D01*
X021029Y009995D02*
X021029Y009872D01*
X021214Y009750D02*
X021214Y009504D01*
X020844Y009504D01*
X023564Y009461D02*
X023564Y009214D01*
X023934Y009214D01*
X023872Y009093D02*
X023626Y008846D01*
X023749Y008846D02*
X023749Y009093D01*
X023749Y009214D02*
X023749Y009338D01*
X023749Y009583D02*
X023749Y009830D01*
X023687Y009830D02*
X023934Y009830D01*
X023872Y009951D02*
X023934Y010013D01*
X023934Y010136D01*
X023872Y010198D01*
X023564Y010198D01*
X023564Y010319D02*
X023934Y010319D01*
X023934Y010566D01*
X023934Y010811D02*
X023564Y010811D01*
X023564Y010688D02*
X023564Y010935D01*
X023662Y011225D02*
X023415Y011225D01*
X023354Y011287D01*
X023354Y011411D01*
X023415Y011472D01*
X023539Y011594D02*
X023539Y011841D01*
X023477Y011962D02*
X023354Y012085D01*
X023724Y012085D01*
X023724Y011962D02*
X023724Y012209D01*
X023724Y011779D02*
X023354Y011779D01*
X023539Y011594D01*
X023662Y011472D02*
X023724Y011411D01*
X023724Y011287D01*
X023662Y011225D01*
X024233Y010566D02*
X024604Y010566D01*
X024480Y010443D01*
X024604Y010319D01*
X024233Y010319D01*
X024233Y010198D02*
X024233Y009951D01*
X024233Y010074D02*
X024604Y010074D01*
X024542Y009830D02*
X024604Y009768D01*
X024604Y009644D01*
X024542Y009583D01*
X024295Y009583D01*
X024233Y009644D01*
X024233Y009768D01*
X024295Y009830D01*
X023934Y009583D02*
X023687Y009583D01*
X023564Y009706D01*
X023687Y009830D01*
X023564Y009951D02*
X023872Y009951D01*
X024295Y009461D02*
X024233Y009400D01*
X024233Y009276D01*
X024295Y009214D01*
X024542Y009214D01*
X024604Y009276D01*
X024604Y009400D01*
X024542Y009461D01*
X024295Y009461D01*
X024295Y009093D02*
X024542Y008846D01*
X024542Y008970D02*
X024295Y008970D01*
X024295Y008846D02*
X024542Y009093D01*
X024418Y009093D02*
X024418Y008846D01*
X023872Y008846D02*
X023626Y009093D01*
X023626Y008970D02*
X023872Y008970D01*
X027599Y011526D02*
X027661Y011464D01*
X027908Y011464D01*
X027970Y011526D01*
X027970Y011649D01*
X027908Y011711D01*
X027908Y011833D02*
X027970Y011894D01*
X027970Y012018D01*
X027908Y012079D01*
X027784Y012079D01*
X027723Y012018D01*
X027723Y011956D01*
X027784Y011833D01*
X027599Y011833D01*
X027599Y012079D01*
X027661Y011711D02*
X027599Y011649D01*
X027599Y011526D01*
X024906Y013665D02*
X024844Y013604D01*
X024721Y013604D01*
X024659Y013665D01*
X024537Y013789D02*
X024291Y013789D01*
X024476Y013974D01*
X024476Y013604D01*
X024169Y013665D02*
X024107Y013604D01*
X023984Y013604D01*
X023922Y013665D01*
X023922Y013912D01*
X023984Y013974D01*
X024107Y013974D01*
X024169Y013912D01*
X024659Y013912D02*
X024721Y013974D01*
X024844Y013974D01*
X024906Y013912D01*
X024906Y013850D01*
X024844Y013789D01*
X024906Y013727D01*
X024906Y013665D01*
X024844Y013789D02*
X024782Y013789D01*
X021007Y012273D02*
X020693Y011959D01*
X020693Y012116D02*
X021007Y012116D01*
X021007Y011959D02*
X020693Y012273D01*
X020850Y012273D02*
X020850Y011959D01*
X016682Y015120D02*
X016368Y015433D01*
X016368Y015277D02*
X016682Y015277D01*
X016682Y015433D02*
X016368Y015120D01*
X016525Y015120D02*
X016525Y015433D01*
X018877Y016598D02*
X018877Y016845D01*
X018939Y016907D01*
X019062Y016907D01*
X019124Y016845D01*
X019246Y016722D02*
X019246Y016598D01*
X019307Y016537D01*
X019431Y016537D01*
X019492Y016598D01*
X019492Y016660D01*
X019431Y016722D01*
X019246Y016722D01*
X019369Y016845D01*
X019492Y016907D01*
X019769Y016845D02*
X019769Y016598D01*
X019830Y016537D01*
X019954Y016537D01*
X020016Y016598D01*
X020137Y016722D02*
X020384Y016722D01*
X020505Y016722D02*
X020505Y016907D01*
X020752Y016907D01*
X020691Y016784D02*
X020752Y016722D01*
X020752Y016598D01*
X020691Y016537D01*
X020567Y016537D01*
X020505Y016598D01*
X020505Y016722D02*
X020629Y016784D01*
X020691Y016784D01*
X020322Y016907D02*
X020322Y016537D01*
X020137Y016722D02*
X020322Y016907D01*
X020016Y016845D02*
X019954Y016907D01*
X019830Y016907D01*
X019769Y016845D01*
X019124Y016598D02*
X019062Y016537D01*
X018939Y016537D01*
X018877Y016598D01*
X020946Y017628D02*
X021008Y017567D01*
X021254Y017567D01*
X021316Y017628D01*
X021316Y017752D01*
X021254Y017813D01*
X021131Y017935D02*
X021131Y018182D01*
X021254Y018303D02*
X021008Y018303D01*
X020946Y018365D01*
X020946Y018488D01*
X021008Y018550D01*
X021254Y018303D01*
X021316Y018365D01*
X021316Y018488D01*
X021254Y018550D01*
X021008Y018550D01*
X020946Y018120D02*
X021131Y017935D01*
X021008Y017813D02*
X020946Y017752D01*
X020946Y017628D01*
X020946Y018120D02*
X021316Y018120D01*
X026121Y018722D02*
X026435Y019035D01*
X026435Y018878D02*
X026121Y018878D01*
X026121Y019035D02*
X026435Y018722D01*
X026278Y018722D02*
X026278Y019035D01*
X032114Y018872D02*
X032114Y018686D01*
X032484Y018686D01*
X032484Y018872D01*
X032422Y018933D01*
X032175Y018933D01*
X032114Y018872D01*
X032114Y018565D02*
X032484Y018565D01*
X032114Y018318D01*
X032484Y018318D01*
X032422Y018197D02*
X032299Y018197D01*
X032299Y018073D01*
X032422Y017950D02*
X032175Y017950D01*
X032114Y018012D01*
X032114Y018135D01*
X032175Y018197D01*
X032422Y018197D02*
X032484Y018135D01*
X032484Y018012D01*
X032422Y017950D01*
X036708Y017935D02*
X036955Y017935D01*
X037078Y017812D01*
X036955Y017689D01*
X036708Y017689D01*
X037140Y018057D02*
X037140Y018304D01*
X037078Y018425D02*
X037078Y018549D01*
X037078Y018487D02*
X036708Y018487D01*
X036708Y018425D02*
X036708Y018549D01*
X036708Y018671D02*
X037078Y018918D01*
X036708Y018918D01*
X036708Y018671D02*
X037078Y018671D01*
X032084Y014813D02*
X031837Y014813D01*
X031716Y014751D02*
X031654Y014813D01*
X031531Y014813D01*
X031469Y014751D01*
X031347Y014751D02*
X031286Y014813D01*
X031162Y014813D01*
X031101Y014751D01*
X031101Y014504D01*
X031162Y014442D01*
X031286Y014442D01*
X031347Y014504D01*
X031469Y014442D02*
X031716Y014689D01*
X031716Y014751D01*
X031837Y014504D02*
X031837Y014442D01*
X031837Y014504D02*
X032084Y014751D01*
X032084Y014813D01*
X031716Y014442D02*
X031469Y014442D01*
X032037Y013902D02*
X032222Y013717D01*
X032222Y013964D01*
X032407Y013902D02*
X032037Y013902D01*
X032098Y013596D02*
X032222Y013596D01*
X032284Y013534D01*
X032284Y013349D01*
X032407Y013349D02*
X032037Y013349D01*
X032037Y013534D01*
X032098Y013596D01*
X032284Y013472D02*
X032407Y013596D01*
X012761Y007996D02*
X012447Y007682D01*
X012604Y007682D02*
X012604Y007996D01*
X012447Y007996D02*
X012761Y007682D01*
X012761Y007839D02*
X012447Y007839D01*
X008065Y012709D02*
X007751Y013022D01*
X007751Y012866D02*
X008065Y012866D01*
X008065Y013022D02*
X007751Y012709D01*
X007908Y012709D02*
X007908Y013022D01*
X008471Y015259D02*
X008841Y015259D01*
X008841Y015506D01*
X008841Y015627D02*
X008471Y015627D01*
X008471Y015874D01*
X008471Y015995D02*
X008471Y016180D01*
X008533Y016242D01*
X008780Y016242D01*
X008841Y016180D01*
X008841Y015995D01*
X008471Y015995D01*
X008656Y015750D02*
X008656Y015627D01*
X008841Y015627D02*
X008841Y015874D01*
X008656Y016364D02*
X008656Y016611D01*
X008578Y016694D02*
X008825Y016694D01*
X008947Y016694D02*
X009194Y016694D01*
X009315Y016694D02*
X009315Y017064D01*
X009500Y017064D01*
X009562Y017003D01*
X009562Y016756D01*
X009500Y016694D01*
X009315Y016694D01*
X009070Y016879D02*
X008947Y016879D01*
X008947Y017064D02*
X008947Y016694D01*
X008841Y016549D02*
X008471Y016549D01*
X008656Y016364D01*
X008578Y016694D02*
X008578Y017064D01*
X008947Y017064D02*
X009194Y017064D01*
X009683Y017003D02*
X009745Y017064D01*
X009868Y017064D01*
X009930Y017003D01*
X009930Y016941D01*
X009868Y016879D01*
X009930Y016818D01*
X009930Y016756D01*
X009868Y016694D01*
X009745Y016694D01*
X009683Y016756D01*
X009807Y016879D02*
X009868Y016879D01*
X010011Y017057D02*
X010011Y016686D01*
X010258Y016686D01*
X010380Y016686D02*
X010627Y016686D01*
X010748Y016686D02*
X010933Y016686D01*
X010995Y016748D01*
X010995Y016995D01*
X010933Y017057D01*
X010748Y017057D01*
X010748Y016686D01*
X010503Y016871D02*
X010380Y016871D01*
X010380Y016686D02*
X010380Y017057D01*
X010627Y017057D01*
X011116Y016995D02*
X011178Y017057D01*
X011302Y017057D01*
X011363Y016995D01*
X011363Y016933D01*
X011116Y016686D01*
X011363Y016686D01*
X011454Y016425D02*
X011825Y016425D01*
X011825Y016548D02*
X011825Y016301D01*
X011763Y016180D02*
X011516Y016180D01*
X011454Y016118D01*
X011454Y015933D01*
X011825Y015933D01*
X011825Y016118D01*
X011763Y016180D01*
X011578Y016301D02*
X011454Y016425D01*
X011454Y015812D02*
X011454Y015565D01*
X011825Y015565D01*
X011825Y015812D01*
X011639Y015688D02*
X011639Y015565D01*
X011825Y015443D02*
X011825Y015196D01*
X011454Y015196D01*
X010403Y018072D02*
X010403Y018442D01*
X010588Y018442D01*
X010650Y018381D01*
X010650Y018257D01*
X010588Y018196D01*
X010403Y018196D01*
X010282Y018196D02*
X010282Y018134D01*
X010220Y018072D01*
X010096Y018072D01*
X010035Y018134D01*
X009913Y018134D02*
X009852Y018072D01*
X009728Y018072D01*
X009666Y018134D01*
X009666Y018381D01*
X009728Y018442D01*
X009852Y018442D01*
X009913Y018381D01*
X010035Y018381D02*
X010096Y018442D01*
X010220Y018442D01*
X010282Y018381D01*
X010220Y018257D02*
X010282Y018196D01*
X010220Y018257D02*
X010096Y018257D01*
X010035Y018319D01*
X010035Y018381D01*
X009544Y018442D02*
X009421Y018442D01*
X009483Y018442D02*
X009483Y018072D01*
X009544Y018072D02*
X009421Y018072D01*
X002918Y018531D02*
X002795Y018655D01*
X002857Y018655D02*
X002672Y018655D01*
X002672Y018531D02*
X002672Y018901D01*
X002857Y018901D01*
X002918Y018840D01*
X002918Y018716D01*
X002857Y018655D01*
X002550Y018531D02*
X002303Y018531D01*
X002303Y018901D01*
X002182Y018840D02*
X002120Y018901D01*
X001997Y018901D01*
X001935Y018840D01*
X001935Y018593D01*
X001997Y018531D01*
X002120Y018531D01*
X002182Y018593D01*
X001813Y018531D02*
X001813Y018901D01*
X001690Y018778D01*
X001567Y018901D01*
X001567Y018531D01*
X001584Y011126D02*
X001337Y011126D01*
X001275Y011065D01*
X001275Y010879D01*
X001645Y010879D01*
X001645Y011065D01*
X001584Y011126D01*
X001645Y010758D02*
X001275Y010758D01*
X001275Y010511D02*
X001645Y010758D01*
X001645Y010511D02*
X001275Y010511D01*
X001337Y010390D02*
X001275Y010328D01*
X001275Y010204D01*
X001337Y010143D01*
X001584Y010143D01*
X001645Y010204D01*
X001645Y010328D01*
X001584Y010390D01*
X001460Y010390D01*
X001460Y010266D01*
X002048Y010345D02*
X002418Y010345D01*
X002048Y010098D01*
X002418Y010098D01*
X002418Y009977D02*
X002172Y009977D01*
X002048Y009854D01*
X002172Y009730D01*
X002418Y009730D01*
X002357Y009609D02*
X002418Y009547D01*
X002418Y009424D01*
X002357Y009362D01*
X002110Y009362D01*
X002048Y009424D01*
X002048Y009547D01*
X002110Y009609D01*
X002233Y009730D02*
X002233Y009977D01*
X002788Y009909D02*
X002912Y010032D01*
X003159Y010032D01*
X003159Y010154D02*
X002788Y010154D01*
X003159Y010400D01*
X002788Y010400D01*
X002480Y010467D02*
X002480Y010714D01*
X002418Y010835D02*
X002048Y010835D01*
X002233Y010835D02*
X002233Y011082D01*
X002048Y011082D02*
X002418Y011082D01*
X002788Y010890D02*
X003159Y010890D01*
X003159Y011137D01*
X003220Y010769D02*
X003220Y010522D01*
X002973Y010032D02*
X002973Y009785D01*
X002912Y009785D02*
X002788Y009909D01*
X002912Y009785D02*
X003159Y009785D01*
X003097Y009664D02*
X003159Y009602D01*
X003159Y009479D01*
X003097Y009417D01*
X002850Y009417D01*
X002788Y009479D01*
X002788Y009602D01*
X002850Y009664D01*
D11*
X027315Y009599D02*
X027315Y008811D01*
X027315Y008024D02*
X027315Y007237D01*
X027315Y006449D02*
X027315Y005662D01*
X027315Y004874D02*
X027315Y004087D01*
X027315Y003300D02*
X027315Y002512D01*
X027315Y001843D02*
X027315Y001056D01*
X027315Y010386D02*
X027315Y011174D01*
X027296Y016567D02*
X027296Y017355D01*
D12*
X027506Y017261D02*
X027506Y017034D01*
X027676Y017034D01*
X027619Y017147D01*
X027619Y017204D01*
X027676Y017261D01*
X027789Y017261D01*
X027846Y017204D01*
X027846Y017091D01*
X027789Y017034D01*
X027846Y016892D02*
X027846Y016666D01*
X027619Y016892D01*
X027563Y016892D01*
X027506Y016836D01*
X027506Y016722D01*
X027563Y016666D01*
X027563Y016524D02*
X027676Y016524D01*
X027733Y016467D01*
X027733Y016297D01*
X027846Y016297D02*
X027506Y016297D01*
X027506Y016467D01*
X027563Y016524D01*
X027733Y016411D02*
X027846Y016524D01*
X027729Y015701D02*
X027729Y015465D01*
X027256Y015465D02*
X027256Y015701D01*
X027097Y014861D02*
X026984Y014861D01*
X026927Y014804D01*
X026927Y014577D01*
X026984Y014521D01*
X027097Y014521D01*
X027154Y014577D01*
X027296Y014691D02*
X027522Y014691D01*
X027466Y014861D02*
X027296Y014691D01*
X027154Y014804D02*
X027097Y014861D01*
X027466Y014861D02*
X027466Y014521D01*
X027473Y014402D02*
X027237Y014402D01*
X027664Y014521D02*
X027664Y014577D01*
X027891Y014804D01*
X027891Y014861D01*
X027664Y014861D01*
X028717Y014709D02*
X028953Y014709D01*
X029537Y014609D02*
X029708Y014609D01*
X029764Y014552D01*
X029764Y014439D01*
X029708Y014382D01*
X029537Y014382D01*
X029537Y014269D02*
X029537Y014609D01*
X029651Y014382D02*
X029764Y014269D01*
X029906Y014269D02*
X030133Y014496D01*
X030133Y014552D01*
X030076Y014609D01*
X029963Y014609D01*
X029906Y014552D01*
X029906Y014269D02*
X030133Y014269D01*
X030274Y014325D02*
X030501Y014552D01*
X030501Y014325D01*
X030444Y014269D01*
X030331Y014269D01*
X030274Y014325D01*
X030274Y014552D01*
X030331Y014609D01*
X030444Y014609D01*
X030501Y014552D01*
X030448Y014011D02*
X030335Y014011D01*
X030278Y013954D01*
X030278Y013897D01*
X030335Y013840D01*
X030448Y013840D01*
X030505Y013784D01*
X030505Y013727D01*
X030448Y013670D01*
X030335Y013670D01*
X030278Y013727D01*
X030278Y013784D01*
X030335Y013840D01*
X030448Y013840D02*
X030505Y013897D01*
X030505Y013954D01*
X030448Y014011D01*
X030137Y013954D02*
X030080Y014011D01*
X029966Y014011D01*
X029910Y013954D01*
X029768Y013954D02*
X029712Y014011D01*
X029598Y014011D01*
X029541Y013954D01*
X029541Y013727D01*
X029598Y013670D01*
X029712Y013670D01*
X029768Y013727D01*
X029910Y013670D02*
X030137Y013897D01*
X030137Y013954D01*
X030137Y013670D02*
X029910Y013670D01*
X028937Y013646D02*
X028701Y013646D01*
X028325Y013510D02*
X028269Y013567D01*
X028212Y013567D01*
X028155Y013510D01*
X028155Y013340D01*
X028269Y013340D01*
X028325Y013397D01*
X028325Y013510D01*
X028155Y013340D02*
X028042Y013453D01*
X027985Y013567D01*
X027867Y013339D02*
X027867Y013103D01*
X027985Y013142D02*
X027985Y013028D01*
X028042Y012972D01*
X028042Y012830D02*
X028155Y012830D01*
X028212Y012774D01*
X028212Y012603D01*
X028325Y012603D02*
X027985Y012603D01*
X027985Y012774D01*
X028042Y012830D01*
X028212Y012717D02*
X028325Y012830D01*
X028325Y012972D02*
X028098Y013199D01*
X028042Y013199D01*
X027985Y013142D01*
X028325Y013199D02*
X028325Y012972D01*
X027394Y013103D02*
X027394Y013339D01*
X027315Y013339D02*
X027315Y013103D01*
X026843Y013103D02*
X026843Y013339D01*
X026724Y013270D02*
X026724Y013044D01*
X026497Y013270D01*
X026441Y013270D01*
X026384Y013214D01*
X026384Y013100D01*
X026441Y013044D01*
X026441Y012902D02*
X026554Y012902D01*
X026611Y012845D01*
X026611Y012675D01*
X026724Y012675D02*
X026384Y012675D01*
X026384Y012845D01*
X026441Y012902D01*
X026611Y012789D02*
X026724Y012902D01*
X026724Y013412D02*
X026667Y013412D01*
X026441Y013639D01*
X026384Y013639D01*
X026384Y013412D01*
X027237Y013930D02*
X027473Y013930D01*
X028701Y014119D02*
X028937Y014119D01*
X028953Y014237D02*
X028717Y014237D01*
X023099Y013161D02*
X023099Y012935D01*
X022872Y013161D01*
X022816Y013161D01*
X022759Y013105D01*
X022759Y012991D01*
X022816Y012935D01*
X022929Y012793D02*
X022929Y012566D01*
X022759Y012736D01*
X023099Y012736D01*
X023042Y012425D02*
X023099Y012368D01*
X023099Y012255D01*
X023042Y012198D01*
X022816Y012198D01*
X022759Y012255D01*
X022759Y012368D01*
X022816Y012425D01*
X021174Y014205D02*
X020937Y014205D01*
X020450Y014341D02*
X020393Y014285D01*
X020280Y014285D01*
X020223Y014341D01*
X020081Y014341D02*
X020025Y014285D01*
X019911Y014285D01*
X019855Y014341D01*
X019855Y014455D02*
X019968Y014511D01*
X020025Y014511D01*
X020081Y014455D01*
X020081Y014341D01*
X019855Y014455D02*
X019855Y014625D01*
X020081Y014625D01*
X020223Y014568D02*
X020280Y014625D01*
X020393Y014625D01*
X020450Y014568D01*
X020450Y014511D01*
X020393Y014455D01*
X020450Y014398D01*
X020450Y014341D01*
X020393Y014455D02*
X020336Y014455D01*
X020321Y014849D02*
X020378Y014905D01*
X020378Y015132D01*
X020321Y015189D01*
X020208Y015189D01*
X020151Y015132D01*
X020151Y015076D01*
X020208Y015019D01*
X020378Y015019D01*
X020321Y014849D02*
X020208Y014849D01*
X020151Y014905D01*
X020010Y014905D02*
X019953Y014849D01*
X019839Y014849D01*
X019783Y014905D01*
X019641Y014905D02*
X019585Y014849D01*
X019471Y014849D01*
X019414Y014905D01*
X019414Y015132D01*
X019471Y015189D01*
X019585Y015189D01*
X019641Y015132D01*
X019783Y015132D02*
X019839Y015189D01*
X019953Y015189D01*
X020010Y015132D01*
X020010Y015076D01*
X019953Y015019D01*
X020010Y014962D01*
X020010Y014905D01*
X019953Y015019D02*
X019896Y015019D01*
X019725Y015359D02*
X019498Y015359D01*
X019442Y015416D01*
X019442Y015529D01*
X019498Y015586D01*
X019442Y015728D02*
X019612Y015728D01*
X019555Y015841D01*
X019555Y015898D01*
X019612Y015954D01*
X019725Y015954D01*
X019782Y015898D01*
X019782Y015784D01*
X019725Y015728D01*
X019725Y015586D02*
X019782Y015529D01*
X019782Y015416D01*
X019725Y015359D01*
X019442Y015728D02*
X019442Y015954D01*
X019555Y016096D02*
X019442Y016209D01*
X019782Y016209D01*
X019782Y016096D02*
X019782Y016323D01*
X019874Y016056D02*
X019874Y015819D01*
X020347Y015819D02*
X020347Y016056D01*
X020937Y015977D02*
X021174Y015977D01*
X021174Y015859D02*
X020937Y015859D01*
X020937Y015386D02*
X021174Y015386D01*
X021174Y015268D02*
X020937Y015268D01*
X020937Y014796D02*
X021174Y014796D01*
X021174Y014678D02*
X020937Y014678D01*
X021699Y015330D02*
X021756Y015274D01*
X021982Y015274D01*
X022039Y015330D01*
X022039Y015444D01*
X021982Y015501D01*
X021982Y015642D02*
X022039Y015699D01*
X022039Y015812D01*
X021982Y015869D01*
X021869Y015869D01*
X021812Y015812D01*
X021812Y015755D01*
X021869Y015642D01*
X021699Y015642D01*
X021699Y015869D01*
X021756Y016010D02*
X021699Y016067D01*
X021699Y016180D01*
X021756Y016237D01*
X021982Y016010D01*
X022039Y016067D01*
X022039Y016180D01*
X021982Y016237D01*
X021756Y016237D01*
X021756Y016010D02*
X021982Y016010D01*
X021874Y016542D02*
X021647Y016542D01*
X021874Y016768D01*
X021874Y016825D01*
X021817Y016882D01*
X021704Y016882D01*
X021647Y016825D01*
X021506Y016882D02*
X021279Y016882D01*
X021279Y016712D01*
X021392Y016768D01*
X021449Y016768D01*
X021506Y016712D01*
X021506Y016598D01*
X021449Y016542D01*
X021336Y016542D01*
X021279Y016598D01*
X021137Y016598D02*
X021081Y016542D01*
X020967Y016542D01*
X020910Y016598D01*
X020910Y016825D01*
X020967Y016882D01*
X021081Y016882D01*
X021137Y016825D01*
X021174Y016449D02*
X020937Y016449D01*
X021756Y015501D02*
X021699Y015444D01*
X021699Y015330D01*
X019713Y014568D02*
X019656Y014625D01*
X019543Y014625D01*
X019486Y014568D01*
X019486Y014341D01*
X019543Y014285D01*
X019656Y014285D01*
X019713Y014341D01*
X018023Y014374D02*
X017967Y014317D01*
X017910Y014317D01*
X017853Y014374D01*
X017853Y014488D01*
X017910Y014544D01*
X017967Y014544D01*
X018023Y014488D01*
X018023Y014374D01*
X017853Y014374D02*
X017796Y014317D01*
X017740Y014317D01*
X017683Y014374D01*
X017683Y014488D01*
X017740Y014544D01*
X017796Y014544D01*
X017853Y014488D01*
X017796Y014176D02*
X017853Y014119D01*
X017910Y014176D01*
X017967Y014176D01*
X018023Y014119D01*
X018023Y014006D01*
X017967Y013949D01*
X017967Y013808D02*
X018023Y013751D01*
X018023Y013638D01*
X017967Y013581D01*
X017740Y013581D01*
X017683Y013638D01*
X017683Y013751D01*
X017740Y013808D01*
X017740Y013949D02*
X017683Y014006D01*
X017683Y014119D01*
X017740Y014176D01*
X017796Y014176D01*
X017853Y014119D02*
X017853Y014063D01*
X016685Y013930D02*
X016449Y013930D01*
X016449Y013772D02*
X016685Y013772D01*
X016685Y014402D02*
X016449Y014402D01*
X016449Y014559D02*
X016685Y014559D01*
X016685Y015032D02*
X016449Y015032D01*
X015890Y014896D02*
X015890Y014839D01*
X015833Y014783D01*
X015890Y014726D01*
X015890Y014669D01*
X015833Y014612D01*
X015720Y014612D01*
X015663Y014669D01*
X015521Y014669D02*
X015465Y014612D01*
X015351Y014612D01*
X015295Y014669D01*
X015153Y014669D02*
X015096Y014612D01*
X014983Y014612D01*
X014926Y014669D01*
X014926Y014896D01*
X014983Y014953D01*
X015096Y014953D01*
X015153Y014896D01*
X015295Y014896D02*
X015351Y014953D01*
X015465Y014953D01*
X015521Y014896D01*
X015521Y014839D01*
X015465Y014783D01*
X015521Y014726D01*
X015521Y014669D01*
X015465Y014783D02*
X015408Y014783D01*
X015663Y014896D02*
X015720Y014953D01*
X015833Y014953D01*
X015890Y014896D01*
X015833Y014783D02*
X015776Y014783D01*
X015663Y014323D02*
X015663Y014153D01*
X015776Y014209D01*
X015833Y014209D01*
X015890Y014153D01*
X015890Y014039D01*
X015833Y013983D01*
X015720Y013983D01*
X015663Y014039D01*
X015521Y014039D02*
X015465Y013983D01*
X015351Y013983D01*
X015295Y014039D01*
X015153Y014039D02*
X015096Y013983D01*
X014983Y013983D01*
X014926Y014039D01*
X014926Y014266D01*
X014983Y014323D01*
X015096Y014323D01*
X015153Y014266D01*
X015295Y014266D02*
X015351Y014323D01*
X015465Y014323D01*
X015521Y014266D01*
X015521Y014209D01*
X015465Y014153D01*
X015521Y014096D01*
X015521Y014039D01*
X015465Y014153D02*
X015408Y014153D01*
X015663Y014323D02*
X015890Y014323D01*
X015890Y013693D02*
X015776Y013636D01*
X015663Y013523D01*
X015833Y013523D01*
X015890Y013466D01*
X015890Y013409D01*
X015833Y013353D01*
X015720Y013353D01*
X015663Y013409D01*
X015663Y013523D01*
X015521Y013579D02*
X015465Y013523D01*
X015521Y013466D01*
X015521Y013409D01*
X015465Y013353D01*
X015351Y013353D01*
X015295Y013409D01*
X015153Y013409D02*
X015096Y013353D01*
X014983Y013353D01*
X014926Y013409D01*
X014926Y013636D01*
X014983Y013693D01*
X015096Y013693D01*
X015153Y013636D01*
X015295Y013636D02*
X015351Y013693D01*
X015465Y013693D01*
X015521Y013636D01*
X015521Y013579D01*
X015465Y013523D02*
X015408Y013523D01*
X015465Y013063D02*
X015521Y013006D01*
X015521Y012950D01*
X015465Y012893D01*
X015521Y012836D01*
X015521Y012779D01*
X015465Y012723D01*
X015351Y012723D01*
X015295Y012779D01*
X015153Y012779D02*
X015096Y012723D01*
X014983Y012723D01*
X014926Y012779D01*
X014926Y013006D01*
X014983Y013063D01*
X015096Y013063D01*
X015153Y013006D01*
X015295Y013006D02*
X015351Y013063D01*
X015465Y013063D01*
X015465Y012893D02*
X015408Y012893D01*
X015663Y012893D02*
X015890Y012893D01*
X015833Y013063D02*
X015663Y012893D01*
X015833Y012723D02*
X015833Y013063D01*
X016449Y013142D02*
X016685Y013142D01*
X016685Y013300D02*
X016449Y013300D01*
X016449Y012670D02*
X016685Y012670D01*
X016685Y012512D02*
X016449Y012512D01*
X016449Y012040D02*
X016685Y012040D01*
X015890Y012093D02*
X015663Y012093D01*
X015890Y012320D01*
X015890Y012376D01*
X015833Y012433D01*
X015720Y012433D01*
X015663Y012376D01*
X015521Y012376D02*
X015465Y012433D01*
X015351Y012433D01*
X015295Y012376D01*
X015295Y012150D01*
X015351Y012093D01*
X015465Y012093D01*
X015521Y012150D01*
X014146Y012405D02*
X014089Y012349D01*
X013975Y012349D01*
X013919Y012405D01*
X013919Y012462D01*
X013975Y012519D01*
X014089Y012519D01*
X014146Y012462D01*
X014146Y012405D01*
X014089Y012519D02*
X014146Y012576D01*
X014146Y012632D01*
X014089Y012689D01*
X013975Y012689D01*
X013919Y012632D01*
X013919Y012576D01*
X013975Y012519D01*
X013777Y012349D02*
X013550Y012349D01*
X013664Y012349D02*
X013664Y012689D01*
X013550Y012576D01*
X013409Y012632D02*
X013409Y012519D01*
X013352Y012462D01*
X013182Y012462D01*
X013182Y012349D02*
X013182Y012689D01*
X013352Y012689D01*
X013409Y012632D01*
X013296Y012462D02*
X013409Y012349D01*
X013611Y012839D02*
X013847Y012839D01*
X013847Y013311D02*
X013611Y013311D01*
X013109Y013410D02*
X012768Y013410D01*
X012768Y013581D01*
X012825Y013637D01*
X012939Y013637D01*
X012995Y013581D01*
X012995Y013410D01*
X012995Y013524D02*
X013109Y013637D01*
X013109Y013779D02*
X013109Y014006D01*
X013109Y013892D02*
X012768Y013892D01*
X012882Y013779D01*
X013233Y013859D02*
X013233Y014095D01*
X013109Y014204D02*
X013109Y014317D01*
X013052Y014374D01*
X012825Y014374D01*
X012768Y014317D01*
X012768Y014204D01*
X012825Y014147D01*
X012882Y014147D01*
X012939Y014204D01*
X012939Y014374D01*
X013109Y014204D02*
X013052Y014147D01*
X013705Y014095D02*
X013705Y013859D01*
X011771Y013850D02*
X011771Y013736D01*
X011715Y013680D01*
X011601Y013680D01*
X011601Y013850D01*
X011658Y013906D01*
X011715Y013906D01*
X011771Y013850D01*
X011601Y013680D02*
X011488Y013793D01*
X011431Y013906D01*
X011488Y013538D02*
X011431Y013481D01*
X011431Y013368D01*
X011488Y013311D01*
X011488Y013170D02*
X011431Y013113D01*
X011431Y013000D01*
X011488Y012943D01*
X011715Y012943D01*
X011771Y013000D01*
X011771Y013113D01*
X011715Y013170D01*
X011771Y013311D02*
X011545Y013538D01*
X011488Y013538D01*
X011771Y013538D02*
X011771Y013311D01*
X011272Y013130D02*
X011272Y012894D01*
X010800Y012894D02*
X010800Y013130D01*
X009575Y013130D02*
X009575Y012894D01*
X009103Y012894D02*
X009103Y013130D01*
X008933Y013093D02*
X008876Y013150D01*
X008933Y013093D02*
X008933Y012980D01*
X008876Y012923D01*
X008649Y012923D01*
X008593Y012980D01*
X008593Y013093D01*
X008649Y013150D01*
X008649Y013292D02*
X008593Y013348D01*
X008593Y013462D01*
X008649Y013518D01*
X008706Y013518D01*
X008933Y013292D01*
X008933Y013518D01*
X008933Y013660D02*
X008933Y013887D01*
X008918Y013944D02*
X008918Y014114D01*
X008974Y014171D01*
X009088Y014171D01*
X009144Y014114D01*
X009144Y013944D01*
X009144Y014058D02*
X009258Y014171D01*
X009258Y014313D02*
X008918Y014313D01*
X009258Y014540D01*
X008918Y014540D01*
X009031Y014681D02*
X008918Y014794D01*
X009258Y014794D01*
X009258Y014681D02*
X009258Y014908D01*
X008422Y015298D02*
X008422Y015355D01*
X008366Y015411D01*
X008309Y015411D01*
X008366Y015411D02*
X008422Y015468D01*
X008422Y015525D01*
X008366Y015582D01*
X008252Y015582D01*
X008195Y015525D01*
X008054Y015525D02*
X007997Y015582D01*
X007884Y015582D01*
X007827Y015525D01*
X007686Y015525D02*
X007629Y015582D01*
X007515Y015582D01*
X007459Y015525D01*
X007459Y015298D01*
X007515Y015241D01*
X007629Y015241D01*
X007686Y015298D01*
X007827Y015241D02*
X008054Y015468D01*
X008054Y015525D01*
X008195Y015298D02*
X008252Y015241D01*
X008366Y015241D01*
X008422Y015298D01*
X008054Y015241D02*
X007827Y015241D01*
X006874Y015205D02*
X006638Y015205D01*
X006638Y015678D02*
X006874Y015678D01*
X006542Y015802D02*
X006542Y015915D01*
X006485Y015972D01*
X006542Y016113D02*
X006315Y016340D01*
X006258Y016340D01*
X006202Y016284D01*
X006202Y016170D01*
X006258Y016113D01*
X006258Y015972D02*
X006202Y015915D01*
X006202Y015802D01*
X006258Y015745D01*
X006485Y015745D01*
X006542Y015802D01*
X006542Y016113D02*
X006542Y016340D01*
X006542Y016482D02*
X006315Y016709D01*
X006258Y016709D01*
X006202Y016652D01*
X006202Y016538D01*
X006258Y016482D01*
X006542Y016482D02*
X006542Y016709D01*
X006589Y017069D02*
X006646Y017126D01*
X006646Y017183D01*
X006589Y017239D01*
X006419Y017239D01*
X006419Y017126D01*
X006475Y017069D01*
X006589Y017069D01*
X006419Y017239D02*
X006532Y017353D01*
X006646Y017409D01*
X006277Y017353D02*
X006277Y017239D01*
X006221Y017183D01*
X006050Y017183D01*
X006050Y017069D02*
X006050Y017409D01*
X006221Y017409D01*
X006277Y017353D01*
X006164Y017183D02*
X006277Y017069D01*
X005544Y017000D02*
X005307Y017000D01*
X005307Y017473D02*
X005544Y017473D01*
X004244Y017473D02*
X004008Y017473D01*
X004008Y017000D02*
X004244Y017000D01*
X004244Y016496D02*
X004008Y016496D01*
X004008Y016024D02*
X004244Y016024D01*
X004874Y015622D02*
X005111Y015622D01*
X005335Y016032D02*
X005571Y016032D01*
X005571Y016504D02*
X005335Y016504D01*
X003455Y016428D02*
X003455Y016371D01*
X003229Y016144D01*
X003229Y016088D01*
X003087Y016144D02*
X003030Y016088D01*
X002917Y016088D01*
X002860Y016144D01*
X002860Y016371D01*
X002917Y016428D01*
X003030Y016428D01*
X003087Y016371D01*
X003229Y016428D02*
X003455Y016428D01*
X003368Y017053D02*
X003255Y017053D01*
X003198Y017110D01*
X003198Y017224D02*
X003198Y017394D01*
X003425Y017394D01*
X003368Y017280D02*
X003425Y017224D01*
X003425Y017110D01*
X003368Y017053D01*
X003368Y017280D02*
X003312Y017280D01*
X003198Y017224D01*
X003057Y017224D02*
X003000Y017167D01*
X002830Y017167D01*
X002943Y017167D02*
X003057Y017053D01*
X003057Y017224D02*
X003057Y017337D01*
X003000Y017394D01*
X002830Y017394D01*
X002830Y017053D01*
X004874Y015150D02*
X005111Y015150D01*
X004874Y015017D02*
X004874Y014790D01*
X004647Y015017D01*
X004590Y015017D01*
X004533Y014960D01*
X004533Y014847D01*
X004590Y014790D01*
X004533Y014535D02*
X004874Y014535D01*
X004874Y014422D02*
X004874Y014648D01*
X004647Y014422D02*
X004533Y014535D01*
X004590Y014280D02*
X004704Y014280D01*
X004760Y014223D01*
X004760Y014053D01*
X004760Y014167D02*
X004874Y014280D01*
X004874Y014053D02*
X004533Y014053D01*
X004533Y014223D01*
X004590Y014280D01*
X006220Y012733D02*
X006820Y012733D01*
X006837Y012731D01*
X006854Y012727D01*
X006870Y012720D01*
X006884Y012710D01*
X006897Y012697D01*
X006907Y012683D01*
X006914Y012667D01*
X006918Y012650D01*
X006920Y012633D01*
X006920Y011533D01*
X006918Y011516D01*
X006914Y011499D01*
X006907Y011483D01*
X006897Y011469D01*
X006884Y011456D01*
X006870Y011446D01*
X006854Y011439D01*
X006837Y011435D01*
X006820Y011433D01*
X006220Y011433D01*
X006203Y011435D01*
X006186Y011439D01*
X006170Y011446D01*
X006156Y011456D01*
X006143Y011469D01*
X006133Y011483D01*
X006126Y011499D01*
X006122Y011516D01*
X006120Y011533D01*
X006120Y012633D01*
X006122Y012650D01*
X006126Y012667D01*
X006133Y012683D01*
X006143Y012697D01*
X006156Y012710D01*
X006170Y012720D01*
X006186Y012727D01*
X006203Y012731D01*
X006220Y012733D01*
X005886Y012217D02*
X005886Y011981D01*
X005414Y011981D02*
X005414Y012217D01*
X005247Y012285D02*
X005190Y012285D01*
X004963Y012512D01*
X004906Y012512D01*
X004906Y012285D01*
X004906Y012030D02*
X005247Y012030D01*
X005247Y011917D02*
X005247Y012143D01*
X005020Y011917D02*
X004906Y012030D01*
X004963Y011775D02*
X005076Y011775D01*
X005133Y011718D01*
X005133Y011548D01*
X005247Y011548D02*
X004906Y011548D01*
X004906Y011718D01*
X004963Y011775D01*
X005133Y011662D02*
X005247Y011775D01*
X005111Y011292D02*
X004874Y011292D01*
X004874Y010819D02*
X005111Y010819D01*
X005208Y010661D02*
X005151Y010605D01*
X005208Y010661D02*
X005321Y010661D01*
X005378Y010605D01*
X005378Y010548D01*
X005321Y010491D01*
X005378Y010435D01*
X005378Y010378D01*
X005321Y010321D01*
X005208Y010321D01*
X005151Y010378D01*
X005010Y010321D02*
X004783Y010321D01*
X004821Y010244D02*
X004571Y009994D01*
X004321Y010244D01*
X003821Y010244D01*
X003571Y009994D01*
X003571Y008494D01*
X003821Y008244D01*
X004321Y008244D01*
X004571Y008494D01*
X004571Y009994D01*
X004641Y010321D02*
X004528Y010435D01*
X004585Y010435D02*
X004414Y010435D01*
X004414Y010321D02*
X004414Y010661D01*
X004585Y010661D01*
X004641Y010605D01*
X004641Y010491D01*
X004585Y010435D01*
X004783Y010548D02*
X004896Y010661D01*
X004896Y010321D01*
X004821Y010244D02*
X005321Y010244D01*
X005571Y009994D01*
X005571Y008494D01*
X005321Y008244D01*
X004821Y008244D01*
X004571Y008494D01*
X005571Y008494D02*
X005821Y008244D01*
X006321Y008244D01*
X006571Y008494D01*
X006571Y009994D01*
X006321Y010244D01*
X005821Y010244D01*
X005571Y009994D01*
X005321Y010491D02*
X005264Y010491D01*
X008593Y013773D02*
X008706Y013660D01*
X008593Y013773D02*
X008933Y013773D01*
X008918Y013944D02*
X009258Y013944D01*
X013411Y010674D02*
X013411Y010448D01*
X013468Y010391D01*
X013582Y010391D01*
X013638Y010448D01*
X013780Y010391D02*
X014007Y010618D01*
X014007Y010674D01*
X013950Y010731D01*
X013837Y010731D01*
X013780Y010674D01*
X013638Y010674D02*
X013582Y010731D01*
X013468Y010731D01*
X013411Y010674D01*
X013780Y010391D02*
X014007Y010391D01*
X014148Y010448D02*
X014205Y010391D01*
X014318Y010391D01*
X014375Y010448D01*
X014375Y010561D01*
X014318Y010618D01*
X014262Y010618D01*
X014148Y010561D01*
X014148Y010731D01*
X014375Y010731D01*
X013469Y010166D02*
X013233Y010166D01*
X013233Y009693D02*
X013469Y009693D01*
X018116Y009555D02*
X018230Y009441D01*
X018286Y009300D02*
X018343Y009243D01*
X018343Y009073D01*
X018343Y009186D02*
X018456Y009300D01*
X018456Y009441D02*
X018456Y009668D01*
X018456Y009555D02*
X018116Y009555D01*
X018173Y009300D02*
X018286Y009300D01*
X018173Y009300D02*
X018116Y009243D01*
X018116Y009073D01*
X018456Y009073D01*
X018615Y009028D02*
X018615Y009264D01*
X019087Y009264D02*
X019087Y009028D01*
X019166Y008912D02*
X019506Y008912D01*
X019599Y008851D02*
X019599Y009087D01*
X019506Y009025D02*
X019506Y008798D01*
X019506Y008657D02*
X019393Y008544D01*
X019393Y008600D02*
X019393Y008430D01*
X019506Y008430D02*
X019166Y008430D01*
X019166Y008600D01*
X019223Y008657D01*
X019336Y008657D01*
X019393Y008600D01*
X019280Y008798D02*
X019166Y008912D01*
X019166Y009167D02*
X019336Y009167D01*
X019280Y009280D01*
X019280Y009337D01*
X019336Y009394D01*
X019450Y009394D01*
X019506Y009337D01*
X019506Y009224D01*
X019450Y009167D01*
X019166Y009167D02*
X019166Y009394D01*
X020071Y009087D02*
X020071Y008851D01*
X020307Y008851D02*
X020307Y009087D01*
X020780Y009087D02*
X020780Y008851D01*
X020832Y008929D02*
X020832Y008589D01*
X020832Y008702D02*
X021002Y008702D01*
X021059Y008759D01*
X021059Y008872D01*
X021002Y008929D01*
X020832Y008929D01*
X020945Y008702D02*
X021059Y008589D01*
X021200Y008589D02*
X021427Y008589D01*
X021313Y008589D02*
X021313Y008929D01*
X021200Y008816D01*
X021568Y008759D02*
X021795Y008759D01*
X021739Y008589D02*
X021739Y008929D01*
X021568Y008759D01*
X017764Y006339D02*
X017528Y006339D01*
X017528Y005867D02*
X017764Y005867D01*
X017816Y005720D02*
X018043Y005720D01*
X018043Y005664D01*
X017816Y005437D01*
X017816Y005380D01*
X017675Y005380D02*
X017448Y005380D01*
X017562Y005380D02*
X017562Y005720D01*
X017448Y005607D01*
X017307Y005664D02*
X017250Y005720D01*
X017136Y005720D01*
X017080Y005664D01*
X017080Y005437D01*
X017136Y005380D01*
X017250Y005380D01*
X017307Y005437D01*
X017838Y004613D02*
X017782Y004556D01*
X017782Y004329D01*
X017838Y004273D01*
X017952Y004273D01*
X018008Y004329D01*
X018150Y004273D02*
X018377Y004273D01*
X018263Y004273D02*
X018263Y004613D01*
X018150Y004500D01*
X018008Y004556D02*
X017952Y004613D01*
X017838Y004613D01*
X018130Y004154D02*
X018367Y004154D01*
X018518Y004329D02*
X018518Y004386D01*
X018575Y004443D01*
X018688Y004443D01*
X018745Y004386D01*
X018745Y004329D01*
X018688Y004273D01*
X018575Y004273D01*
X018518Y004329D01*
X018575Y004443D02*
X018518Y004500D01*
X018518Y004556D01*
X018575Y004613D01*
X018688Y004613D01*
X018745Y004556D01*
X018745Y004500D01*
X018688Y004443D01*
X018367Y003681D02*
X018130Y003681D01*
X019002Y002850D02*
X019059Y002906D01*
X019286Y002906D01*
X019342Y002850D01*
X019342Y002736D01*
X019286Y002680D01*
X019172Y002736D02*
X019172Y002906D01*
X019172Y002736D02*
X019115Y002680D01*
X019059Y002680D01*
X019002Y002736D01*
X019002Y002850D01*
X019342Y002538D02*
X019342Y002311D01*
X019342Y002425D02*
X019002Y002425D01*
X019115Y002311D01*
X019059Y002170D02*
X019002Y002113D01*
X019002Y002000D01*
X019059Y001943D01*
X019286Y001943D01*
X019342Y002000D01*
X019342Y002113D01*
X019286Y002170D01*
X019500Y002213D02*
X019500Y002449D01*
X019973Y002449D02*
X019973Y002213D01*
X022465Y002118D02*
X022465Y002005D01*
X022522Y001948D01*
X022749Y001948D01*
X022806Y002005D01*
X022806Y002118D01*
X022749Y002175D01*
X022749Y002316D02*
X022806Y002373D01*
X022806Y002487D01*
X022749Y002543D01*
X022692Y002543D01*
X022635Y002487D01*
X022635Y002430D01*
X022635Y002487D02*
X022579Y002543D01*
X022522Y002543D01*
X022465Y002487D01*
X022465Y002373D01*
X022522Y002316D01*
X022522Y002175D02*
X022465Y002118D01*
X022945Y002197D02*
X022945Y001961D01*
X023418Y001961D02*
X023418Y002197D01*
X023496Y002197D02*
X023496Y001961D01*
X023969Y001961D02*
X023969Y002197D01*
X024148Y002149D02*
X024148Y002035D01*
X024204Y001978D01*
X024431Y001978D01*
X024488Y002035D01*
X024488Y002149D01*
X024431Y002205D01*
X024318Y002347D02*
X024318Y002574D01*
X024488Y002517D02*
X024148Y002517D01*
X024318Y002347D01*
X024204Y002205D02*
X024148Y002149D01*
X026158Y003449D02*
X026214Y003392D01*
X026441Y003392D01*
X026498Y003449D01*
X026498Y003562D01*
X026441Y003619D01*
X026498Y003760D02*
X026498Y003987D01*
X026498Y003874D02*
X026158Y003874D01*
X026271Y003760D01*
X026214Y003619D02*
X026158Y003562D01*
X026158Y003449D01*
X026685Y003685D02*
X026685Y003922D01*
X026498Y004128D02*
X026498Y004355D01*
X026498Y004242D02*
X026158Y004242D01*
X026271Y004128D01*
X027158Y003922D02*
X027158Y003685D01*
X026461Y004939D02*
X026234Y004939D01*
X026177Y004996D01*
X026177Y005109D01*
X026234Y005166D01*
X026291Y005307D02*
X026177Y005421D01*
X026518Y005421D01*
X026518Y005534D02*
X026518Y005307D01*
X026461Y005166D02*
X026518Y005109D01*
X026518Y004996D01*
X026461Y004939D01*
X026685Y005288D02*
X026685Y005524D01*
X026518Y005732D02*
X026461Y005676D01*
X026234Y005903D01*
X026461Y005903D01*
X026518Y005846D01*
X026518Y005732D01*
X026461Y005676D02*
X026234Y005676D01*
X026177Y005732D01*
X026177Y005846D01*
X026234Y005903D01*
X027158Y005524D02*
X027158Y005288D01*
X026469Y006730D02*
X026242Y006730D01*
X026185Y006787D01*
X026185Y006901D01*
X026242Y006957D01*
X026242Y007099D02*
X026299Y007099D01*
X026355Y007155D01*
X026355Y007326D01*
X026242Y007326D02*
X026185Y007269D01*
X026185Y007155D01*
X026242Y007099D01*
X026242Y007326D02*
X026469Y007326D01*
X026526Y007269D01*
X026526Y007155D01*
X026469Y007099D01*
X026469Y006957D02*
X026526Y006901D01*
X026526Y006787D01*
X026469Y006730D01*
X026685Y006941D02*
X026685Y007178D01*
X027158Y007178D02*
X027158Y006941D01*
X032241Y003733D02*
X032477Y003733D01*
X032477Y003260D02*
X032241Y003260D01*
X032251Y003091D02*
X032251Y002750D01*
X032364Y002750D02*
X032137Y002750D01*
X031996Y002807D02*
X031939Y002750D01*
X031825Y002750D01*
X031769Y002807D01*
X031769Y003034D01*
X031825Y003091D01*
X031939Y003091D01*
X031996Y003034D01*
X032137Y002977D02*
X032251Y003091D01*
X032505Y003034D02*
X032562Y003091D01*
X032676Y003091D01*
X032732Y003034D01*
X032732Y002977D01*
X032505Y002750D01*
X032732Y002750D01*
X018142Y012788D02*
X018142Y013024D01*
X017670Y013024D02*
X017670Y012788D01*
X027276Y018083D02*
X027276Y018319D01*
X027748Y018319D02*
X027748Y018083D01*
X027880Y018101D02*
X027937Y018158D01*
X028050Y018158D01*
X028107Y018101D01*
X028107Y017931D01*
X028220Y017931D02*
X027880Y017931D01*
X027880Y018101D01*
X027937Y018299D02*
X027880Y018356D01*
X027880Y018470D01*
X027937Y018526D01*
X027993Y018526D01*
X028220Y018299D01*
X028220Y018526D01*
X028050Y018668D02*
X027880Y018838D01*
X028220Y018838D01*
X028050Y018895D02*
X028050Y018668D01*
X028220Y018158D02*
X028107Y018045D01*
X036730Y017098D02*
X036730Y016984D01*
X036787Y016928D01*
X036900Y017041D02*
X036900Y017098D01*
X036957Y017155D01*
X037014Y017155D01*
X037071Y017098D01*
X037071Y016984D01*
X037014Y016928D01*
X037071Y016786D02*
X037071Y016559D01*
X037071Y016673D02*
X036730Y016673D01*
X036844Y016559D01*
X036787Y016418D02*
X036730Y016361D01*
X036730Y016248D01*
X036787Y016191D01*
X037014Y016191D01*
X037071Y016248D01*
X037071Y016361D01*
X037014Y016418D01*
X036900Y017098D02*
X036844Y017155D01*
X036787Y017155D01*
X036730Y017098D01*
X036941Y015634D02*
X036941Y015398D01*
X037414Y015398D02*
X037414Y015634D01*
X018456Y018283D02*
X018456Y018397D01*
X018400Y018453D01*
X018456Y018595D02*
X018456Y018822D01*
X018456Y018708D02*
X018116Y018708D01*
X018230Y018595D01*
X018173Y018453D02*
X018116Y018397D01*
X018116Y018283D01*
X018173Y018226D01*
X018400Y018226D01*
X018456Y018283D01*
X017512Y018300D02*
X017276Y018300D01*
X017276Y018772D02*
X017512Y018772D01*
X010130Y005823D02*
X010130Y005587D01*
X009658Y005587D02*
X009658Y005823D01*
X009893Y005095D02*
X009893Y004869D01*
X009722Y005039D01*
X010063Y005039D01*
X010063Y004727D02*
X010063Y004500D01*
X009836Y004727D01*
X009779Y004727D01*
X009722Y004670D01*
X009722Y004557D01*
X009779Y004500D01*
X009779Y004359D02*
X009722Y004302D01*
X009722Y004189D01*
X009779Y004132D01*
X010006Y004132D01*
X010063Y004189D01*
X010063Y004302D01*
X010006Y004359D01*
D13*
X006431Y007534D02*
X006151Y007534D01*
X006291Y007534D02*
X006291Y007955D01*
X006151Y007815D01*
X005971Y007885D02*
X005971Y007745D01*
X005901Y007675D01*
X005690Y007675D01*
X005690Y007534D02*
X005690Y007955D01*
X005901Y007955D01*
X005971Y007885D01*
X005510Y007955D02*
X005370Y007955D01*
X005440Y007955D02*
X005440Y007605D01*
X005370Y007534D01*
X005300Y007534D01*
X005230Y007605D01*
X006651Y009534D02*
X006931Y009534D01*
X006791Y009534D02*
X006791Y009955D01*
X006651Y009815D01*
X018733Y017237D02*
X018733Y018496D01*
X019756Y018496D02*
X019756Y017237D01*
X019874Y017237D02*
X019874Y018496D01*
X020898Y018496D02*
X020898Y017237D01*
X021016Y017237D02*
X021016Y018496D01*
X022040Y018496D02*
X022040Y017237D01*
X024067Y013477D02*
X025327Y013477D01*
X025327Y012453D02*
X024067Y012453D01*
X024087Y012315D02*
X025347Y012315D01*
X025977Y012315D02*
X027237Y012315D01*
X027237Y011292D02*
X025977Y011292D01*
X025347Y011292D02*
X024087Y011292D01*
X021599Y012077D02*
X021599Y012577D01*
X020819Y012827D02*
X020821Y012898D01*
X020827Y012969D01*
X020837Y013040D01*
X020851Y013109D01*
X020868Y013178D01*
X020890Y013246D01*
X020915Y013313D01*
X020944Y013378D01*
X020976Y013441D01*
X021012Y013503D01*
X021051Y013562D01*
X021094Y013619D01*
X021139Y013674D01*
X021188Y013726D01*
X021239Y013775D01*
X021293Y013821D01*
X021350Y013865D01*
X021408Y013905D01*
X021469Y013941D01*
X021532Y013975D01*
X021597Y014004D01*
X021663Y014030D01*
X021731Y014053D01*
X021799Y014071D01*
X021869Y014086D01*
X021939Y014097D01*
X022010Y014104D01*
X022081Y014107D01*
X022152Y014106D01*
X022223Y014101D01*
X022294Y014092D01*
X022364Y014079D01*
X022433Y014063D01*
X022501Y014042D01*
X022568Y014018D01*
X022634Y013990D01*
X022697Y013958D01*
X022759Y013923D01*
X022819Y013885D01*
X022877Y013843D01*
X022932Y013799D01*
X022985Y013751D01*
X023035Y013700D01*
X023082Y013647D01*
X023126Y013591D01*
X023167Y013533D01*
X023205Y013472D01*
X023239Y013410D01*
X023269Y013345D01*
X023296Y013280D01*
X023320Y013212D01*
X023339Y013144D01*
X023355Y013075D01*
X023367Y013004D01*
X023375Y012934D01*
X023379Y012863D01*
X023379Y012791D01*
X023375Y012720D01*
X023367Y012650D01*
X023355Y012579D01*
X023339Y012510D01*
X023320Y012442D01*
X023296Y012374D01*
X023269Y012309D01*
X023239Y012244D01*
X023205Y012182D01*
X023167Y012121D01*
X023126Y012063D01*
X023082Y012007D01*
X023035Y011954D01*
X022985Y011903D01*
X022932Y011855D01*
X022877Y011811D01*
X022819Y011769D01*
X022759Y011731D01*
X022697Y011696D01*
X022634Y011664D01*
X022568Y011636D01*
X022501Y011612D01*
X022433Y011591D01*
X022364Y011575D01*
X022294Y011562D01*
X022223Y011553D01*
X022152Y011548D01*
X022081Y011547D01*
X022010Y011550D01*
X021939Y011557D01*
X021869Y011568D01*
X021799Y011583D01*
X021731Y011601D01*
X021663Y011624D01*
X021597Y011650D01*
X021532Y011679D01*
X021469Y011713D01*
X021408Y011749D01*
X021350Y011789D01*
X021293Y011833D01*
X021239Y011879D01*
X021188Y011928D01*
X021139Y011980D01*
X021094Y012035D01*
X021051Y012092D01*
X021012Y012151D01*
X020976Y012213D01*
X020944Y012276D01*
X020915Y012341D01*
X020890Y012408D01*
X020868Y012476D01*
X020851Y012545D01*
X020837Y012614D01*
X020827Y012685D01*
X020821Y012756D01*
X020819Y012827D01*
X020603Y007807D02*
X020603Y002966D01*
X022925Y002966D01*
X022925Y007807D01*
X020603Y007807D01*
X021646Y007807D02*
X021648Y007787D01*
X021653Y007767D01*
X021662Y007748D01*
X021674Y007731D01*
X021688Y007717D01*
X021705Y007705D01*
X021724Y007696D01*
X021744Y007691D01*
X021764Y007689D01*
X021784Y007691D01*
X021804Y007696D01*
X021823Y007705D01*
X021840Y007717D01*
X021854Y007731D01*
X021866Y007748D01*
X021875Y007767D01*
X021880Y007787D01*
X021882Y007807D01*
X028060Y016879D02*
X028062Y016971D01*
X028068Y017064D01*
X028078Y017156D01*
X028092Y017247D01*
X028110Y017338D01*
X028131Y017428D01*
X028157Y017517D01*
X028186Y017605D01*
X028219Y017691D01*
X028256Y017776D01*
X028296Y017859D01*
X028340Y017941D01*
X028388Y018020D01*
X028439Y018097D01*
X028493Y018172D01*
X028550Y018245D01*
X028610Y018315D01*
X028673Y018383D01*
X028740Y018448D01*
X028808Y018509D01*
X028880Y018568D01*
X028954Y018624D01*
X029030Y018676D01*
X029108Y018725D01*
X029189Y018771D01*
X029271Y018813D01*
X029355Y018852D01*
X029441Y018887D01*
X029528Y018918D01*
X029616Y018945D01*
X029706Y018969D01*
X029796Y018989D01*
X029887Y019005D01*
X029979Y019017D01*
X030071Y019025D01*
X030164Y019029D01*
X030256Y019029D01*
X030349Y019025D01*
X030441Y019017D01*
X030533Y019005D01*
X030624Y018989D01*
X030714Y018969D01*
X030804Y018945D01*
X030892Y018918D01*
X030979Y018887D01*
X031065Y018852D01*
X031149Y018813D01*
X031231Y018771D01*
X031312Y018725D01*
X031390Y018676D01*
X031466Y018624D01*
X031540Y018568D01*
X031612Y018509D01*
X031680Y018448D01*
X031747Y018383D01*
X031810Y018315D01*
X031870Y018245D01*
X031927Y018172D01*
X031981Y018097D01*
X032032Y018020D01*
X032080Y017941D01*
X032124Y017859D01*
X032164Y017776D01*
X032201Y017691D01*
X032234Y017605D01*
X032263Y017517D01*
X032289Y017428D01*
X032310Y017338D01*
X032328Y017247D01*
X032342Y017156D01*
X032352Y017064D01*
X032358Y016971D01*
X032360Y016879D01*
X032358Y016787D01*
X032352Y016694D01*
X032342Y016602D01*
X032328Y016511D01*
X032310Y016420D01*
X032289Y016330D01*
X032263Y016241D01*
X032234Y016153D01*
X032201Y016067D01*
X032164Y015982D01*
X032124Y015899D01*
X032080Y015817D01*
X032032Y015738D01*
X031981Y015661D01*
X031927Y015586D01*
X031870Y015513D01*
X031810Y015443D01*
X031747Y015375D01*
X031680Y015310D01*
X031612Y015249D01*
X031540Y015190D01*
X031466Y015134D01*
X031390Y015082D01*
X031312Y015033D01*
X031231Y014987D01*
X031149Y014945D01*
X031065Y014906D01*
X030979Y014871D01*
X030892Y014840D01*
X030804Y014813D01*
X030714Y014789D01*
X030624Y014769D01*
X030533Y014753D01*
X030441Y014741D01*
X030349Y014733D01*
X030256Y014729D01*
X030164Y014729D01*
X030071Y014733D01*
X029979Y014741D01*
X029887Y014753D01*
X029796Y014769D01*
X029706Y014789D01*
X029616Y014813D01*
X029528Y014840D01*
X029441Y014871D01*
X029355Y014906D01*
X029271Y014945D01*
X029189Y014987D01*
X029108Y015033D01*
X029030Y015082D01*
X028954Y015134D01*
X028880Y015190D01*
X028808Y015249D01*
X028740Y015310D01*
X028673Y015375D01*
X028610Y015443D01*
X028550Y015513D01*
X028493Y015586D01*
X028439Y015661D01*
X028388Y015738D01*
X028340Y015817D01*
X028296Y015899D01*
X028256Y015982D01*
X028219Y016067D01*
X028186Y016153D01*
X028157Y016241D01*
X028131Y016330D01*
X028110Y016420D01*
X028092Y016511D01*
X028078Y016602D01*
X028068Y016694D01*
X028062Y016787D01*
X028060Y016879D01*
X030710Y017629D02*
X030710Y018129D01*
X009315Y018010D02*
X009065Y017760D01*
X008565Y017760D01*
X008315Y018010D01*
X008315Y018510D01*
X008565Y018760D01*
X009065Y018760D01*
X009315Y018510D01*
X009315Y018010D01*
X008315Y018010D02*
X008065Y017760D01*
X007565Y017760D01*
X007315Y018010D01*
X007315Y018510D01*
X007565Y018760D01*
X008065Y018760D01*
X008315Y018510D01*
X007315Y018510D02*
X007065Y018760D01*
X006565Y018760D01*
X006315Y018510D01*
X006315Y018010D01*
X006065Y017760D01*
X005565Y017760D01*
X005315Y018010D01*
X005315Y018510D01*
X005565Y018760D01*
X006065Y018760D01*
X006315Y018510D01*
X006315Y018010D02*
X006565Y017760D01*
X007065Y017760D01*
X007315Y018010D01*
X005315Y018010D02*
X005065Y017760D01*
X004565Y017760D01*
X004315Y018010D01*
X004315Y017760D01*
X003315Y017760D01*
X003315Y018760D01*
X004315Y018760D01*
X004315Y018510D01*
X004315Y018010D01*
X004315Y018510D02*
X004565Y018760D01*
X005065Y018760D01*
X005315Y018510D01*
D14*
X015115Y011531D02*
X015115Y011231D01*
X015175Y011171D01*
X015295Y011171D01*
X015355Y011231D01*
X015355Y011531D01*
X015483Y011471D02*
X015483Y011411D01*
X015543Y011351D01*
X015723Y011351D01*
X015723Y011231D02*
X015723Y011471D01*
X015663Y011531D01*
X015543Y011531D01*
X015483Y011471D01*
X015483Y011231D02*
X015543Y011171D01*
X015663Y011171D01*
X015723Y011231D01*
X015800Y007004D02*
X015680Y006944D01*
X015560Y006824D01*
X015740Y006824D01*
X015800Y006764D01*
X015800Y006704D01*
X015740Y006644D01*
X015620Y006644D01*
X015560Y006704D01*
X015560Y006824D01*
X015432Y006644D02*
X015192Y006644D01*
X015312Y006644D02*
X015312Y007004D01*
X015192Y006884D01*
X015064Y006944D02*
X015004Y007004D01*
X014884Y007004D01*
X014824Y006944D01*
X014824Y006704D01*
X014884Y006644D01*
X015004Y006644D01*
X015064Y006704D01*
X008531Y005108D02*
X008531Y004988D01*
X008471Y004928D01*
X008231Y005168D01*
X008471Y005168D01*
X008531Y005108D01*
X008471Y004928D02*
X008231Y004928D01*
X008171Y004988D01*
X008171Y005108D01*
X008231Y005168D01*
X008231Y004800D02*
X008171Y004740D01*
X008171Y004619D01*
X008231Y004559D01*
X008231Y004431D02*
X008171Y004371D01*
X008171Y004251D01*
X008231Y004191D01*
X008471Y004191D01*
X008531Y004251D01*
X008531Y004371D01*
X008471Y004431D01*
X008531Y004559D02*
X008291Y004800D01*
X008231Y004800D01*
X008531Y004800D02*
X008531Y004559D01*
X009832Y003060D02*
X009832Y002599D01*
X009985Y002599D02*
X009678Y002599D01*
X009678Y002906D02*
X009832Y003060D01*
X009908Y001560D02*
X009755Y001560D01*
X009678Y001483D01*
X009908Y001560D02*
X009985Y001483D01*
X009985Y001406D01*
X009678Y001099D01*
X009985Y001099D01*
X025345Y010522D02*
X025405Y010462D01*
X025525Y010462D01*
X025585Y010522D01*
X025585Y010822D01*
X025713Y010702D02*
X025833Y010822D01*
X025833Y010462D01*
X025713Y010462D02*
X025953Y010462D01*
X026081Y010522D02*
X026321Y010762D01*
X026321Y010522D01*
X026261Y010462D01*
X026141Y010462D01*
X026081Y010522D01*
X026081Y010762D01*
X026141Y010822D01*
X026261Y010822D01*
X026321Y010762D01*
X025345Y010822D02*
X025345Y010522D01*
D15*
X020711Y010031D02*
X020544Y010031D01*
X020366Y010031D01*
X020436Y010189D02*
X020544Y010031D01*
X020662Y010189D01*
X020436Y010189D01*
X020003Y010031D02*
X019835Y010031D01*
X019658Y010031D01*
X019727Y010189D02*
X019835Y010031D01*
X019953Y010189D01*
X019727Y010189D01*
X010835Y014107D02*
X010835Y015170D01*
X010898Y015938D02*
X011016Y016096D01*
X011194Y016096D01*
X011124Y015938D02*
X011016Y016096D01*
X010849Y016096D01*
X010898Y015938D02*
X011124Y015938D01*
X010603Y016096D02*
X010426Y016096D01*
X010258Y016096D01*
X010307Y015938D02*
X010426Y016096D01*
X010534Y015938D01*
X010307Y015938D01*
X010013Y016096D02*
X009835Y016096D01*
X009668Y016096D01*
X009717Y015938D02*
X009835Y016096D01*
X009943Y015938D01*
X009717Y015938D01*
X009422Y016096D02*
X009244Y016096D01*
X009077Y016096D01*
X009126Y015938D02*
X009244Y016096D01*
X009353Y015938D01*
X009126Y015938D01*
X009481Y015170D02*
X009481Y014107D01*
X013300Y016351D02*
X015268Y016351D01*
X038575Y012059D02*
X038577Y012086D01*
X038582Y012112D01*
X038591Y012137D01*
X038604Y012161D01*
X038619Y012183D01*
X038638Y012203D01*
X038658Y012220D01*
X038681Y012234D01*
X038706Y012245D01*
X038732Y012252D01*
X038759Y012256D01*
X038785Y012256D01*
X038812Y012252D01*
X038838Y012245D01*
X038863Y012234D01*
X038886Y012220D01*
X038906Y012203D01*
X038925Y012183D01*
X038940Y012161D01*
X038953Y012137D01*
X038962Y012112D01*
X038967Y012086D01*
X038969Y012059D01*
D16*
X026728Y014850D02*
X026728Y018450D01*
X022348Y018450D01*
X022348Y014850D01*
X026728Y014850D01*
X026068Y014850D02*
X025848Y014850D01*
X025708Y014850D02*
X025488Y014850D01*
X025358Y014850D02*
X025138Y014850D01*
X024998Y014850D02*
X024778Y014850D01*
X024648Y014850D02*
X024428Y014850D01*
X024298Y014850D02*
X024078Y014850D01*
X023938Y014850D02*
X023718Y014850D01*
X023588Y014850D02*
X023368Y014850D01*
X023228Y014850D02*
X023008Y014850D01*
X022348Y015480D02*
X022348Y015700D01*
X022348Y015830D02*
X022348Y016050D01*
X022348Y016190D02*
X022348Y016410D01*
X022348Y016540D02*
X022348Y016760D01*
X022348Y016890D02*
X022348Y017110D01*
X022348Y017250D02*
X022348Y017470D01*
X022348Y017600D02*
X022348Y017820D01*
X023008Y018450D02*
X023228Y018450D01*
X023368Y018450D02*
X023588Y018450D01*
X023718Y018450D02*
X023938Y018450D01*
X024078Y018450D02*
X024298Y018450D01*
X024428Y018450D02*
X024648Y018450D01*
X024778Y018450D02*
X024998Y018450D01*
X025138Y018450D02*
X025358Y018450D01*
X025488Y018450D02*
X025708Y018450D01*
X025848Y018450D02*
X026068Y018450D01*
X026228Y018450D02*
X026728Y017950D01*
X026728Y017820D02*
X026728Y017600D01*
X026728Y017470D02*
X026728Y017250D01*
X026728Y017110D02*
X026728Y016890D01*
X026728Y016760D02*
X026728Y016540D01*
X026728Y016410D02*
X026728Y016190D01*
X026728Y016050D02*
X026728Y015830D01*
X026728Y015700D02*
X026728Y015480D01*
X020412Y013916D02*
X020412Y011896D01*
X018392Y011896D01*
X018392Y013916D01*
X020412Y013916D01*
X019992Y013916D02*
X019842Y013916D01*
X019732Y013916D02*
X019582Y013916D01*
X019472Y013916D02*
X019332Y013916D01*
X019222Y013916D02*
X019072Y013916D01*
X018962Y013916D02*
X018812Y013916D01*
X018392Y013496D02*
X018392Y013346D01*
X018392Y013236D02*
X018392Y013086D01*
X018392Y012976D02*
X018392Y012836D01*
X018392Y012726D02*
X018392Y012576D01*
X018392Y012466D02*
X018392Y012316D01*
X018812Y011896D02*
X018962Y011896D01*
X019072Y011896D02*
X019222Y011896D01*
X019332Y011896D02*
X019472Y011896D01*
X019582Y011896D02*
X019732Y011896D01*
X019842Y011896D02*
X019992Y011896D01*
X019912Y011896D02*
X020412Y012396D01*
X020412Y012466D02*
X020412Y012316D01*
X020412Y012576D02*
X020412Y012726D01*
X020412Y012836D02*
X020412Y012976D01*
X020412Y013086D02*
X020412Y013236D01*
X020412Y013346D02*
X020412Y013496D01*
X018325Y015715D02*
X016305Y015715D01*
X016305Y017735D01*
X018325Y017735D01*
X018325Y015715D01*
X017905Y015715D02*
X017755Y015715D01*
X017645Y015715D02*
X017495Y015715D01*
X017385Y015715D02*
X017245Y015715D01*
X017135Y015715D02*
X016985Y015715D01*
X016875Y015715D02*
X016725Y015715D01*
X016805Y015715D02*
X016305Y016215D01*
X016305Y016285D02*
X016305Y016135D01*
X016305Y016395D02*
X016305Y016545D01*
X016305Y016655D02*
X016305Y016795D01*
X016305Y016905D02*
X016305Y017055D01*
X016305Y017165D02*
X016305Y017315D01*
X016725Y017735D02*
X016875Y017735D01*
X016985Y017735D02*
X017135Y017735D01*
X017245Y017735D02*
X017385Y017735D01*
X017495Y017735D02*
X017645Y017735D01*
X017755Y017735D02*
X017905Y017735D01*
X018325Y017315D02*
X018325Y017165D01*
X018325Y017055D02*
X018325Y016905D01*
X018325Y016795D02*
X018325Y016655D01*
X018325Y016545D02*
X018325Y016395D01*
X018325Y016285D02*
X018325Y016135D01*
X011326Y011919D02*
X011216Y011919D01*
X011216Y011529D01*
X011326Y011529D01*
X011326Y011919D01*
X011126Y011919D02*
X011026Y011919D01*
X011026Y011529D01*
X011126Y011529D01*
X011126Y011919D01*
X010936Y011919D02*
X010826Y011919D01*
X010826Y011529D01*
X010936Y011529D01*
X010936Y011919D01*
X010736Y011919D02*
X010626Y011919D01*
X010626Y011529D01*
X010736Y011529D01*
X010736Y011919D01*
X010536Y011919D02*
X010436Y011919D01*
X010436Y011529D01*
X010536Y011529D01*
X010536Y011919D01*
X010346Y011919D02*
X010236Y011919D01*
X010236Y011529D01*
X010346Y011529D01*
X010346Y011919D01*
X010146Y011919D02*
X010036Y011919D01*
X010036Y011529D01*
X010146Y011529D01*
X010146Y011919D01*
X009946Y011919D02*
X009846Y011919D01*
X009846Y011529D01*
X009946Y011529D01*
X009946Y011919D01*
X009746Y011919D02*
X009646Y011919D01*
X009646Y011529D01*
X009746Y011529D01*
X009746Y011919D01*
X009556Y011919D02*
X009446Y011919D01*
X009446Y011529D01*
X009556Y011529D01*
X009556Y011919D01*
X009356Y011919D02*
X009246Y011919D01*
X009246Y011529D01*
X009356Y011529D01*
X009356Y011919D01*
X009156Y011919D02*
X009056Y011919D01*
X009056Y011529D01*
X009156Y011529D01*
X009156Y011919D01*
X008966Y011919D02*
X008856Y011919D01*
X008856Y011529D01*
X008966Y011529D01*
X008966Y011919D01*
X008766Y011919D02*
X008656Y011919D01*
X008656Y011529D01*
X008766Y011529D01*
X008766Y011919D01*
X008566Y011919D02*
X008466Y011919D01*
X008466Y011529D01*
X008566Y011529D01*
X008566Y011919D01*
X008376Y011919D02*
X008266Y011919D01*
X008266Y011529D01*
X008376Y011529D01*
X008376Y011919D01*
X007826Y011529D02*
X007826Y007589D01*
X011766Y007589D01*
X011766Y011529D01*
X007826Y011529D01*
X007826Y011089D02*
X007436Y011089D01*
X007436Y010979D01*
X007826Y010979D01*
X007826Y011089D01*
X007826Y010889D02*
X007436Y010889D01*
X007436Y010789D01*
X007826Y010789D01*
X007826Y010889D01*
X007826Y010699D02*
X007436Y010699D01*
X007436Y010589D01*
X007826Y010589D01*
X007826Y010699D01*
X007826Y010499D02*
X007436Y010499D01*
X007436Y010389D01*
X007826Y010389D01*
X007826Y010499D01*
X007826Y010299D02*
X007436Y010299D01*
X007436Y010199D01*
X007826Y010199D01*
X007826Y010299D01*
X007826Y010109D02*
X007436Y010109D01*
X007436Y009999D01*
X007826Y009999D01*
X007826Y010109D01*
X007826Y009909D02*
X007436Y009909D01*
X007436Y009799D01*
X007826Y009799D01*
X007826Y009909D01*
X007826Y009709D02*
X007436Y009709D01*
X007436Y009609D01*
X007826Y009609D01*
X007826Y009709D01*
X007826Y009509D02*
X007436Y009509D01*
X007436Y009409D01*
X007826Y009409D01*
X007826Y009509D01*
X007826Y009319D02*
X007436Y009319D01*
X007436Y009209D01*
X007826Y009209D01*
X007826Y009319D01*
X007826Y009119D02*
X007436Y009119D01*
X007436Y009009D01*
X007826Y009009D01*
X007826Y009119D01*
X007826Y008919D02*
X007436Y008919D01*
X007436Y008819D01*
X007826Y008819D01*
X007826Y008919D01*
X007826Y008729D02*
X007436Y008729D01*
X007436Y008619D01*
X007826Y008619D01*
X007826Y008729D01*
X007826Y008529D02*
X007436Y008529D01*
X007436Y008419D01*
X007826Y008419D01*
X007826Y008529D01*
X007826Y008329D02*
X007436Y008329D01*
X007436Y008229D01*
X007826Y008229D01*
X007826Y008329D01*
X007826Y008139D02*
X007436Y008139D01*
X007436Y008029D01*
X007826Y008029D01*
X007826Y008139D01*
X008266Y007589D02*
X008266Y007199D01*
X008376Y007199D01*
X008376Y007589D01*
X008266Y007589D01*
X008466Y007589D02*
X008466Y007199D01*
X008566Y007199D01*
X008566Y007589D01*
X008466Y007589D01*
X008656Y007589D02*
X008656Y007199D01*
X008766Y007199D01*
X008766Y007589D01*
X008656Y007589D01*
X008856Y007589D02*
X008856Y007199D01*
X008966Y007199D01*
X008966Y007589D01*
X008856Y007589D01*
X009056Y007589D02*
X009056Y007199D01*
X009156Y007199D01*
X009156Y007589D01*
X009056Y007589D01*
X009246Y007589D02*
X009246Y007199D01*
X009356Y007199D01*
X009356Y007589D01*
X009246Y007589D01*
X009446Y007589D02*
X009446Y007199D01*
X009556Y007199D01*
X009556Y007589D01*
X009446Y007589D01*
X009646Y007589D02*
X009646Y007199D01*
X009746Y007199D01*
X009746Y007589D01*
X009646Y007589D01*
X009846Y007589D02*
X009846Y007199D01*
X009946Y007199D01*
X009946Y007589D01*
X009846Y007589D01*
X010036Y007589D02*
X010036Y007199D01*
X010146Y007199D01*
X010146Y007589D01*
X010036Y007589D01*
X010236Y007589D02*
X010236Y007199D01*
X010346Y007199D01*
X010346Y007589D01*
X010236Y007589D01*
X010436Y007589D02*
X010436Y007199D01*
X010536Y007199D01*
X010536Y007589D01*
X010436Y007589D01*
X010626Y007589D02*
X010626Y007199D01*
X010736Y007199D01*
X010736Y007589D01*
X010626Y007589D01*
X010826Y007589D02*
X010826Y007199D01*
X010936Y007199D01*
X010936Y007589D01*
X010826Y007589D01*
X011026Y007589D02*
X011026Y007199D01*
X011126Y007199D01*
X011126Y007589D01*
X011026Y007589D01*
X011216Y007589D02*
X011216Y007199D01*
X011326Y007199D01*
X011326Y007589D01*
X011266Y007589D01*
X011766Y008089D01*
X011766Y008029D01*
X012156Y008029D01*
X012156Y008139D01*
X011766Y008139D01*
X011766Y008089D01*
X011766Y008229D02*
X012156Y008229D01*
X012156Y008329D01*
X011766Y008329D01*
X011766Y008229D01*
X011766Y008419D02*
X012156Y008419D01*
X012156Y008529D01*
X011766Y008529D01*
X011766Y008419D01*
X011766Y008619D02*
X012156Y008619D01*
X012156Y008729D01*
X011766Y008729D01*
X011766Y008619D01*
X011766Y008819D02*
X012156Y008819D01*
X012156Y008919D01*
X011766Y008919D01*
X011766Y008819D01*
X011766Y009009D02*
X012156Y009009D01*
X012156Y009119D01*
X011766Y009119D01*
X011766Y009009D01*
X011766Y009209D02*
X012156Y009209D01*
X012156Y009319D01*
X011766Y009319D01*
X011766Y009209D01*
X011766Y009409D02*
X012156Y009409D01*
X012156Y009509D01*
X011766Y009509D01*
X011766Y009409D01*
X011766Y009609D02*
X012156Y009609D01*
X012156Y009709D01*
X011766Y009709D01*
X011766Y009609D01*
X011766Y009799D02*
X012156Y009799D01*
X012156Y009909D01*
X011766Y009909D01*
X011766Y009799D01*
X011766Y009999D02*
X012156Y009999D01*
X012156Y010109D01*
X011766Y010109D01*
X011766Y009999D01*
X011766Y010199D02*
X012156Y010199D01*
X012156Y010299D01*
X011766Y010299D01*
X011766Y010199D01*
X011766Y010389D02*
X012156Y010389D01*
X012156Y010499D01*
X011766Y010499D01*
X011766Y010389D01*
X011766Y010589D02*
X012156Y010589D01*
X012156Y010699D01*
X011766Y010699D01*
X011766Y010589D01*
X011766Y010789D02*
X012156Y010789D01*
X012156Y010889D01*
X011766Y010889D01*
X011766Y010789D01*
X011766Y010979D02*
X012156Y010979D01*
X012156Y011089D01*
X011766Y011089D01*
X011766Y010979D01*
X008000Y013186D02*
X008000Y013386D01*
X007560Y013386D01*
X007560Y013186D01*
X008000Y013186D01*
X007560Y013056D02*
X007560Y015016D01*
X006000Y015016D01*
X006000Y013056D01*
X006900Y013056D01*
X007560Y013056D01*
X006900Y013056D02*
X006897Y013077D01*
X006891Y013097D01*
X006881Y013115D01*
X006869Y013132D01*
X006853Y013146D01*
X006836Y013157D01*
X006816Y013165D01*
X006796Y013170D01*
X006775Y013171D01*
X006754Y013168D01*
X006734Y013162D01*
X006716Y013152D01*
X006699Y013140D01*
X006685Y013124D01*
X006674Y013107D01*
X006666Y013087D01*
X006661Y013067D01*
X006660Y013046D01*
X006000Y013186D02*
X005560Y013186D01*
X005560Y013386D01*
X006000Y013386D01*
X006000Y013186D01*
X006000Y013686D02*
X005560Y013686D01*
X005560Y013886D01*
X006000Y013886D01*
X006000Y013686D01*
X006000Y014186D02*
X005560Y014186D01*
X005560Y014386D01*
X006000Y014386D01*
X006000Y014186D01*
X006000Y014686D02*
X005560Y014686D01*
X005560Y014886D01*
X006000Y014886D01*
X006000Y014686D01*
X007560Y014686D02*
X008000Y014686D01*
X008000Y014886D01*
X007560Y014886D01*
X007560Y014686D01*
X007560Y014386D02*
X008000Y014386D01*
X008000Y014186D01*
X007560Y014186D01*
X007560Y014386D01*
X007560Y013886D02*
X008000Y013886D01*
X008000Y013686D01*
X007560Y013686D01*
X007560Y013886D01*
X011216Y007589D02*
X011266Y007589D01*
X007547Y006596D02*
X007547Y006176D01*
X007427Y006176D01*
X007427Y006596D01*
X007547Y006596D01*
X007287Y006596D02*
X007167Y006596D01*
X007167Y006176D01*
X007287Y006176D01*
X007287Y006596D01*
X007027Y006596D02*
X006907Y006596D01*
X006907Y006176D01*
X007027Y006176D01*
X007027Y006596D01*
X006777Y006596D02*
X006657Y006596D01*
X006657Y006176D01*
X006777Y006176D01*
X006777Y006596D01*
X006517Y006596D02*
X006397Y006596D01*
X006397Y006176D01*
X006517Y006176D01*
X006517Y006596D01*
X006267Y006596D02*
X006147Y006596D01*
X006147Y006176D01*
X006267Y006176D01*
X006267Y006596D01*
X006007Y006596D02*
X005887Y006596D01*
X005887Y006176D01*
X006007Y006176D01*
X006007Y006596D01*
X005747Y006596D02*
X005627Y006596D01*
X005627Y006176D01*
X005747Y006176D01*
X005747Y006596D01*
X005587Y006176D02*
X005587Y005176D01*
X005587Y004416D01*
X007587Y004416D01*
X007587Y006176D01*
X005587Y006176D01*
X005577Y005416D02*
X005598Y005415D01*
X005618Y005410D01*
X005638Y005402D01*
X005655Y005391D01*
X005671Y005377D01*
X005683Y005360D01*
X005693Y005342D01*
X005699Y005322D01*
X005702Y005301D01*
X005701Y005280D01*
X005696Y005260D01*
X005688Y005240D01*
X005677Y005223D01*
X005663Y005207D01*
X005646Y005195D01*
X005628Y005185D01*
X005608Y005179D01*
X005587Y005176D01*
X005627Y004416D02*
X005627Y003996D01*
X005747Y003996D01*
X005747Y004416D01*
X005627Y004416D01*
X005887Y004416D02*
X005887Y003996D01*
X006007Y003996D01*
X006007Y004416D01*
X005887Y004416D01*
X006147Y004416D02*
X006147Y003996D01*
X006267Y003996D01*
X006267Y004416D01*
X006147Y004416D01*
X006397Y004416D02*
X006397Y003996D01*
X006517Y003996D01*
X006517Y004416D01*
X006397Y004416D01*
X006657Y004416D02*
X006657Y003996D01*
X006777Y003996D01*
X006777Y004416D01*
X006657Y004416D01*
X006907Y004416D02*
X006907Y003996D01*
X007027Y003996D01*
X007027Y004416D01*
X006907Y004416D01*
X007167Y004416D02*
X007167Y003996D01*
X007287Y003996D01*
X007287Y004416D01*
X007167Y004416D01*
X007427Y004416D02*
X007427Y003996D01*
X007547Y003996D01*
X007547Y004416D01*
X007427Y004416D01*
D17*
X032563Y008693D03*
X035386Y010445D03*
X032563Y011709D03*
X035867Y014815D03*
X035386Y005957D03*
X034201Y005918D03*
D18*
X003178Y003752D02*
X003178Y000406D01*
X003575Y000406D01*
X003969Y000406D01*
X010268Y000406D01*
X010662Y000406D01*
X011059Y000406D01*
X011059Y003752D01*
X003178Y003752D01*
X002748Y004638D02*
X002748Y010150D01*
X000465Y010150D01*
X000465Y004638D01*
X002748Y004638D01*
X003575Y000406D02*
X003577Y000379D01*
X003582Y000353D01*
X003591Y000328D01*
X003604Y000304D01*
X003619Y000282D01*
X003638Y000262D01*
X003658Y000245D01*
X003681Y000231D01*
X003706Y000220D01*
X003732Y000213D01*
X003759Y000209D01*
X003785Y000209D01*
X003812Y000213D01*
X003838Y000220D01*
X003863Y000231D01*
X003886Y000245D01*
X003906Y000262D01*
X003925Y000282D01*
X003940Y000304D01*
X003953Y000328D01*
X003962Y000353D01*
X003967Y000379D01*
X003969Y000406D01*
X010268Y000406D02*
X010270Y000379D01*
X010275Y000353D01*
X010284Y000328D01*
X010297Y000304D01*
X010312Y000282D01*
X010331Y000262D01*
X010351Y000245D01*
X010374Y000231D01*
X010399Y000220D01*
X010425Y000213D01*
X010452Y000209D01*
X010478Y000209D01*
X010505Y000213D01*
X010531Y000220D01*
X010556Y000231D01*
X010579Y000245D01*
X010599Y000262D01*
X010618Y000282D01*
X010633Y000304D01*
X010646Y000328D01*
X010655Y000353D01*
X010660Y000379D01*
X010662Y000406D01*
X004205Y010544D02*
X000268Y010544D01*
X000268Y012827D01*
X004205Y012827D01*
X004205Y010544D01*
X004205Y013339D02*
X000268Y013339D01*
X000268Y015622D01*
X004205Y015622D01*
X004205Y013339D01*
X012709Y016430D02*
X015859Y016430D01*
X015859Y018910D01*
X012709Y018910D01*
X012709Y016430D01*
X032807Y015209D02*
X032807Y018989D01*
X036587Y018989D01*
X036587Y015209D01*
X032807Y015209D01*
X035819Y012020D02*
X035819Y006587D01*
X035898Y006587D02*
X039678Y006587D01*
X039678Y012020D01*
X035898Y012020D01*
D19*
X032729Y017886D02*
X032702Y017888D01*
X032676Y017893D01*
X032651Y017902D01*
X032627Y017915D01*
X032605Y017930D01*
X032585Y017949D01*
X032568Y017969D01*
X032554Y017992D01*
X032543Y018017D01*
X032536Y018043D01*
X032532Y018070D01*
X032532Y018096D01*
X032536Y018123D01*
X032543Y018149D01*
X032554Y018174D01*
X032568Y018197D01*
X032585Y018217D01*
X032605Y018236D01*
X032627Y018251D01*
X032651Y018264D01*
X032676Y018273D01*
X032702Y018278D01*
X032729Y018280D01*
X003557Y015819D02*
X000916Y015819D01*
X000916Y013024D02*
X003557Y013024D01*
X000268Y008715D02*
X000268Y006074D01*
M02*
