G75*
%MOIN*%
%OFA0B0*%
%FSLAX24Y24*%
%IPPOS*%
%LPD*%
%AMOC8*
5,1,8,0,0,1.08239X$1,22.5*
%
%ADD10R,0.0355X0.0512*%
%ADD11C,0.0780*%
%ADD12R,0.0512X0.0355*%
%ADD13R,0.0670X0.0749*%
%ADD14R,0.0749X0.0670*%
%ADD15R,0.0237X0.0434*%
%ADD16R,0.0820X0.0260*%
%ADD17R,0.0670X0.0500*%
%ADD18R,0.0720X0.0060*%
%ADD19C,0.1240*%
%ADD20C,0.0690*%
%ADD21R,0.0690X0.0690*%
%ADD22R,0.1420X0.2040*%
%ADD23R,0.0690X0.0276*%
%ADD24R,0.1851X0.1812*%
%ADD25R,0.0437X0.0437*%
%ADD26R,0.0276X0.0690*%
%ADD27R,0.1812X0.1851*%
%ADD28R,0.0180X0.0700*%
%ADD29C,0.0276*%
%ADD30R,0.0591X0.0158*%
%ADD31R,0.1410X0.1780*%
%ADD32C,0.0555*%
%ADD33R,0.0555X0.0555*%
%ADD34C,0.0552*%
%ADD35R,0.0867X0.0867*%
%ADD36C,0.0867*%
%ADD37R,0.0620X0.0150*%
%ADD38R,0.0150X0.0620*%
%ADD39OC8,0.0780*%
%ADD40R,0.0594X0.0594*%
%ADD41C,0.0594*%
%ADD42R,0.0710X0.0670*%
%ADD43R,0.0280X0.0410*%
%ADD44R,0.0410X0.0280*%
%ADD45R,0.0926X0.0473*%
%ADD46R,0.1241X0.0843*%
%ADD47R,0.0906X0.1260*%
%ADD48R,0.0528X0.0591*%
%ADD49R,0.0827X0.0512*%
%ADD50R,0.0512X0.0827*%
%ADD51R,0.0180X0.0430*%
%ADD52R,0.0430X0.0180*%
%ADD53R,0.1280X0.1280*%
%ADD54R,0.0317X0.0317*%
D10*
X017292Y006103D03*
X018000Y006103D03*
X017894Y003918D03*
X018603Y003918D03*
X013705Y009930D03*
X012996Y009930D03*
X016213Y012276D03*
X016922Y012276D03*
X016922Y012906D03*
X016213Y012906D03*
X016213Y013536D03*
X016213Y014166D03*
X016922Y014166D03*
X016922Y013536D03*
X016922Y014796D03*
X016213Y014796D03*
X014083Y013075D03*
X013374Y013075D03*
X007111Y015441D03*
X006402Y015441D03*
X005347Y015386D03*
X004638Y015386D03*
X004481Y016260D03*
X005099Y016268D03*
X005807Y016268D03*
X005780Y017237D03*
X005071Y017237D03*
X004481Y017237D03*
X003772Y017237D03*
X003772Y016260D03*
X004638Y011056D03*
X005347Y011056D03*
X017040Y018536D03*
X017748Y018536D03*
X020701Y016213D03*
X021410Y016213D03*
X021410Y015622D03*
X020701Y015622D03*
X020701Y015032D03*
X020701Y014441D03*
X021410Y014441D03*
X021410Y015032D03*
X027000Y014166D03*
X027709Y014166D03*
X028465Y013882D03*
X029174Y013882D03*
X029189Y014473D03*
X028481Y014473D03*
X032004Y003496D03*
X032713Y003496D03*
D11*
X008815Y018210D03*
X007815Y018310D03*
X006815Y018210D03*
X005815Y018310D03*
X004815Y018210D03*
X003815Y018310D03*
D12*
X009244Y016370D03*
X009835Y016370D03*
X010426Y016370D03*
X011016Y016370D03*
X011016Y015662D03*
X010426Y015662D03*
X009835Y015662D03*
X009244Y015662D03*
X009339Y013367D03*
X009339Y012658D03*
X011036Y012658D03*
X011036Y013367D03*
X013469Y013622D03*
X013469Y014331D03*
X017906Y013260D03*
X017906Y012552D03*
X019835Y010465D03*
X020544Y010465D03*
X020544Y009756D03*
X020544Y009323D03*
X019835Y009323D03*
X019835Y009756D03*
X018851Y009500D03*
X018851Y008792D03*
X019835Y008615D03*
X020544Y008615D03*
X026922Y007414D03*
X026922Y006705D03*
X026922Y005760D03*
X026922Y005052D03*
X026922Y004158D03*
X026922Y003449D03*
X023733Y002433D03*
X023181Y002433D03*
X023181Y001725D03*
X023733Y001725D03*
X019737Y001977D03*
X019737Y002685D03*
X009894Y005351D03*
X009894Y006059D03*
X005650Y011744D03*
X005650Y012453D03*
X020111Y015583D03*
X020111Y016292D03*
X027079Y013575D03*
X027630Y013575D03*
X027630Y012867D03*
X027079Y012867D03*
X027493Y015229D03*
X027493Y015937D03*
X027512Y017847D03*
X027512Y018556D03*
X037178Y015870D03*
X037178Y015162D03*
D13*
X027993Y010662D03*
X026890Y010662D03*
X017516Y006859D03*
X016414Y006859D03*
X016500Y010662D03*
X015398Y010662D03*
D14*
X009052Y005402D03*
X009052Y004300D03*
D15*
X009678Y014343D03*
X009993Y014343D03*
X010307Y014343D03*
X010622Y014343D03*
X010622Y014894D03*
X010307Y014894D03*
X009993Y014894D03*
X009678Y014894D03*
D16*
X007750Y014786D03*
X007750Y014286D03*
X007750Y013786D03*
X007750Y013286D03*
X005810Y013286D03*
X005810Y013786D03*
X005810Y014286D03*
X005810Y014786D03*
D17*
X006520Y012383D03*
X006520Y011783D03*
D18*
X006520Y012083D03*
D19*
X001725Y001725D03*
X001725Y017473D03*
X038339Y017473D03*
X038339Y001725D03*
D20*
X022099Y012327D03*
X030210Y017879D03*
D21*
X030210Y015879D03*
X022099Y013327D03*
D22*
X033231Y013721D03*
X034861Y013721D03*
X033208Y004902D03*
X031578Y004902D03*
D23*
X034418Y005085D03*
X034418Y004585D03*
X034418Y004085D03*
X034418Y005585D03*
X035170Y006290D03*
X035170Y006790D03*
X035170Y007290D03*
X035170Y007790D03*
X035170Y010778D03*
X035170Y011278D03*
X035170Y011778D03*
X035170Y012278D03*
X036083Y012983D03*
X036083Y013483D03*
X036083Y013983D03*
X036083Y014483D03*
D24*
X037579Y013733D03*
X033674Y011528D03*
X033674Y007040D03*
X035914Y004835D03*
D25*
X035961Y004835D03*
X035461Y004835D03*
X035461Y004335D03*
X035961Y004335D03*
X036461Y004335D03*
X036461Y004835D03*
X036461Y005335D03*
X035961Y005335D03*
X035461Y005335D03*
X034126Y006540D03*
X033626Y006540D03*
X033126Y006540D03*
X033126Y007040D03*
X033126Y007540D03*
X033626Y007540D03*
X034126Y007540D03*
X034126Y007040D03*
X033626Y007040D03*
X031981Y006933D03*
X031481Y006933D03*
X030981Y006933D03*
X030981Y006433D03*
X031481Y006433D03*
X031981Y006433D03*
X031981Y007433D03*
X031481Y007433D03*
X030981Y007433D03*
X030981Y009449D03*
X031481Y009449D03*
X031981Y009449D03*
X031981Y009949D03*
X031481Y009949D03*
X030981Y009949D03*
X030981Y010449D03*
X031481Y010449D03*
X031981Y010449D03*
X033126Y011028D03*
X033126Y011528D03*
X033626Y011528D03*
X034126Y011528D03*
X034126Y011028D03*
X033626Y011028D03*
X033626Y012028D03*
X034126Y012028D03*
X033126Y012028D03*
X037126Y013233D03*
X037126Y013733D03*
X037626Y013733D03*
X038126Y013733D03*
X038126Y013233D03*
X037626Y013233D03*
X037626Y014233D03*
X038126Y014233D03*
X037126Y014233D03*
D26*
X032231Y011493D03*
X031731Y011493D03*
X031231Y011493D03*
X030731Y011493D03*
X030731Y008477D03*
X031231Y008477D03*
X031731Y008477D03*
X032231Y008477D03*
D27*
X031481Y006981D03*
X031481Y009996D03*
D28*
X007487Y006406D03*
X007227Y006406D03*
X006967Y006406D03*
X006717Y006406D03*
X006457Y006406D03*
X006207Y006406D03*
X005947Y006406D03*
X005687Y006406D03*
X005687Y004186D03*
X005947Y004186D03*
X006207Y004186D03*
X006457Y004186D03*
X006717Y004186D03*
X006967Y004186D03*
X007227Y004186D03*
X007487Y004186D03*
D29*
X017709Y008004D03*
X017717Y008378D03*
X017717Y008760D03*
X017721Y009154D03*
X019859Y007886D03*
X020355Y007957D03*
D30*
X020367Y007650D03*
X020367Y007453D03*
X020367Y007256D03*
X020367Y007059D03*
X020367Y006863D03*
X020367Y006666D03*
X020367Y006469D03*
X020367Y006272D03*
X020367Y006075D03*
X020367Y005878D03*
X020367Y005681D03*
X020367Y005485D03*
X020367Y005288D03*
X020367Y005091D03*
X020367Y004894D03*
X020367Y004697D03*
X020367Y004500D03*
X020367Y004304D03*
X020367Y004107D03*
X020367Y003910D03*
X020367Y003713D03*
X020367Y003516D03*
X020367Y003319D03*
X020367Y003122D03*
X023162Y003122D03*
X023162Y003319D03*
X023162Y003516D03*
X023162Y003713D03*
X023162Y003910D03*
X023162Y004107D03*
X023162Y004304D03*
X023162Y004500D03*
X023162Y004697D03*
X023162Y004894D03*
X023162Y005091D03*
X023162Y005288D03*
X023162Y005485D03*
X023162Y005681D03*
X023162Y005878D03*
X023162Y006075D03*
X023162Y006272D03*
X023162Y006469D03*
X023162Y006666D03*
X023162Y006863D03*
X023162Y007059D03*
X023162Y007256D03*
X023162Y007453D03*
X023162Y007650D03*
D31*
X021764Y005386D03*
D32*
X003024Y011685D03*
X002237Y011685D03*
X001607Y008969D03*
X001607Y008181D03*
X001607Y007394D03*
X001607Y006607D03*
X002237Y014481D03*
X003024Y014481D03*
X013890Y017670D03*
D33*
X014678Y017670D03*
X001449Y014481D03*
X001449Y011685D03*
X001607Y005819D03*
D34*
X000859Y009756D03*
X003811Y012433D03*
X003811Y015229D03*
X013103Y016922D03*
D35*
X033870Y018181D03*
X038674Y010957D03*
D36*
X036902Y010957D03*
X036902Y009304D03*
X038674Y009304D03*
X038674Y007650D03*
X036902Y007650D03*
X035524Y016016D03*
X033870Y016016D03*
X035524Y018181D03*
D37*
X012006Y011039D03*
X012006Y010839D03*
X012006Y010639D03*
X012006Y010449D03*
X012006Y010249D03*
X012006Y010049D03*
X012006Y009859D03*
X012006Y009659D03*
X012006Y009459D03*
X012006Y009259D03*
X012006Y009069D03*
X012006Y008869D03*
X012006Y008669D03*
X012006Y008479D03*
X012006Y008279D03*
X012006Y008079D03*
X007586Y008079D03*
X007586Y008279D03*
X007586Y008479D03*
X007586Y008669D03*
X007586Y008869D03*
X007586Y009069D03*
X007586Y009259D03*
X007586Y009459D03*
X007586Y009659D03*
X007586Y009859D03*
X007586Y010049D03*
X007586Y010249D03*
X007586Y010449D03*
X007586Y010639D03*
X007586Y010839D03*
X007586Y011039D03*
D38*
X008316Y011769D03*
X008516Y011769D03*
X008716Y011769D03*
X008906Y011769D03*
X009106Y011769D03*
X009306Y011769D03*
X009496Y011769D03*
X009696Y011769D03*
X009896Y011769D03*
X010096Y011769D03*
X010286Y011769D03*
X010486Y011769D03*
X010686Y011769D03*
X010876Y011769D03*
X011076Y011769D03*
X011276Y011769D03*
X011276Y007349D03*
X011076Y007349D03*
X010876Y007349D03*
X010686Y007349D03*
X010486Y007349D03*
X010286Y007349D03*
X010096Y007349D03*
X009896Y007349D03*
X009696Y007349D03*
X009496Y007349D03*
X009306Y007349D03*
X009106Y007349D03*
X008906Y007349D03*
X008716Y007349D03*
X008516Y007349D03*
X008316Y007349D03*
D39*
X006071Y008744D03*
X005071Y008744D03*
X004071Y008744D03*
X004071Y009744D03*
X005071Y009744D03*
X006071Y009744D03*
D40*
X009119Y001579D03*
D41*
X008119Y001579D03*
X007119Y001579D03*
X006119Y001579D03*
X005119Y001579D03*
X005119Y002579D03*
X006119Y002579D03*
X007119Y002579D03*
X008119Y002579D03*
X009119Y002579D03*
D42*
X022548Y015040D03*
X026528Y015040D03*
X026528Y018260D03*
X022548Y018260D03*
D43*
X023118Y018390D03*
X023478Y018390D03*
X023828Y018390D03*
X024188Y018390D03*
X024538Y018390D03*
X024888Y018390D03*
X025248Y018390D03*
X025598Y018390D03*
X025958Y018390D03*
X025958Y014910D03*
X025598Y014910D03*
X025248Y014910D03*
X024888Y014910D03*
X024538Y014910D03*
X024188Y014910D03*
X023828Y014910D03*
X023478Y014910D03*
X023118Y014910D03*
D44*
X022398Y015590D03*
X022398Y015940D03*
X022398Y016300D03*
X022398Y016650D03*
X022398Y017000D03*
X022398Y017360D03*
X022398Y017710D03*
X026678Y017710D03*
X026678Y017360D03*
X026678Y017000D03*
X026678Y016650D03*
X026678Y016300D03*
X026678Y015940D03*
X026678Y015590D03*
D45*
X025839Y016733D03*
D46*
X024020Y015603D03*
D47*
X024496Y017158D03*
X023126Y017158D03*
D48*
X022941Y015729D03*
D49*
X021528Y017237D03*
X020386Y017237D03*
X019244Y017237D03*
X019244Y018496D03*
X020386Y018496D03*
X021528Y018496D03*
D50*
X024067Y012965D03*
X025327Y012965D03*
X025347Y011804D03*
X025977Y011804D03*
X027237Y011804D03*
X024087Y011804D03*
D51*
X019912Y011966D03*
X019662Y011966D03*
X019402Y011966D03*
X019142Y011966D03*
X018892Y011966D03*
X018892Y013846D03*
X019142Y013846D03*
X019402Y013846D03*
X019662Y013846D03*
X019912Y013846D03*
X017825Y015785D03*
X017575Y015785D03*
X017315Y015785D03*
X017055Y015785D03*
X016805Y015785D03*
X016805Y017665D03*
X017055Y017665D03*
X017315Y017665D03*
X017575Y017665D03*
X017825Y017665D03*
D52*
X018255Y017235D03*
X018255Y016985D03*
X018255Y016725D03*
X018255Y016465D03*
X018255Y016215D03*
X016375Y016215D03*
X016375Y016465D03*
X016375Y016725D03*
X016375Y016985D03*
X016375Y017235D03*
X018462Y013416D03*
X018462Y013166D03*
X018462Y012906D03*
X018462Y012646D03*
X018462Y012396D03*
X020342Y012396D03*
X020342Y012646D03*
X020342Y012906D03*
X020342Y013166D03*
X020342Y013416D03*
D53*
X019402Y012906D03*
X017315Y016725D03*
D54*
X019048Y018496D03*
X019402Y018496D03*
X022906Y017591D03*
X023300Y017591D03*
X023300Y017197D03*
X022906Y017197D03*
X022906Y016804D03*
X023300Y016804D03*
X029048Y012355D03*
X030741Y012040D03*
X030268Y011292D03*
X028181Y009481D03*
X026213Y008969D03*
X026213Y008575D03*
X026213Y008181D03*
X026213Y007788D03*
X027473Y006804D03*
X030378Y008473D03*
X027512Y004756D03*
X027430Y003449D03*
X026922Y002945D03*
X026449Y002945D03*
X026449Y002512D03*
X026449Y002079D03*
X026922Y002079D03*
X026449Y001666D03*
X026449Y001252D03*
X026449Y000741D03*
X024441Y000898D03*
X023654Y000898D03*
X022867Y000898D03*
X022079Y000898D03*
X021292Y000898D03*
X020504Y000898D03*
X020504Y001685D03*
X021292Y001685D03*
X022079Y001685D03*
X022079Y002473D03*
X021292Y002473D03*
X021292Y003260D03*
X022079Y003260D03*
X023181Y002827D03*
X024441Y001685D03*
X028300Y003449D03*
X033733Y003457D03*
X034126Y003457D03*
X034520Y003457D03*
X035583Y003457D03*
X036016Y003457D03*
X022867Y008378D03*
X022079Y008378D03*
X021292Y008378D03*
X021292Y007591D03*
X022079Y007591D03*
X022079Y006804D03*
X021292Y006804D03*
X021449Y006016D03*
X021764Y006016D03*
X022079Y006016D03*
X022079Y005701D03*
X022079Y005386D03*
X021764Y005386D03*
X021449Y005386D03*
X021449Y005701D03*
X021764Y005701D03*
X021764Y005071D03*
X021764Y004756D03*
X021449Y004756D03*
X021449Y005071D03*
X022079Y005071D03*
X022079Y004756D03*
X022079Y004048D03*
X021292Y004048D03*
X017276Y002512D03*
X016331Y002788D03*
X016370Y003457D03*
X018142Y001685D03*
X018930Y001685D03*
X013733Y005780D03*
X013733Y007237D03*
X010386Y005701D03*
X006370Y007079D03*
X005622Y007079D03*
X010071Y009087D03*
X012985Y010465D03*
X012433Y012630D03*
X011567Y012630D03*
X008823Y012630D03*
X004559Y013142D03*
X007119Y015977D03*
X014559Y013063D03*
X021410Y010583D03*
X022906Y009796D03*
X022867Y009166D03*
X022079Y009166D03*
X021292Y009166D03*
X031725Y015111D03*
X034441Y015071D03*
X035150Y015071D03*
M02*
