G75*
G70*
%OFA0B0*%
%FSLAX24Y24*%
%IPPOS*%
%LPD*%
%AMOC8*
5,1,8,0,0,1.08239X$1,22.5*
%
%ADD10C,0.0079*%
%ADD11C,0.0030*%
D10*
X008084Y012605D02*
X008381Y012847D01*
X008440Y012814D01*
X008501Y012786D01*
X008670Y013195D01*
X008606Y013229D01*
X008550Y013275D01*
X008505Y013331D01*
X008470Y013395D01*
X008449Y013464D01*
X008442Y013536D01*
X008449Y013608D01*
X008470Y013677D01*
X008505Y013741D01*
X008550Y013797D01*
X008606Y013843D01*
X008670Y013877D01*
X008739Y013898D01*
X008811Y013905D01*
X008883Y013898D01*
X008953Y013877D01*
X009016Y013843D01*
X009072Y013797D01*
X009118Y013741D01*
X009152Y013677D01*
X009173Y013608D01*
X009181Y013536D01*
X009173Y013464D01*
X009152Y013395D01*
X009118Y013331D01*
X009072Y013275D01*
X009016Y013229D01*
X008953Y013195D01*
X009122Y012786D01*
X009183Y012814D01*
X009242Y012847D01*
X009539Y012605D01*
X009742Y012809D01*
X009500Y013106D01*
X009543Y013184D01*
X009578Y013267D01*
X009603Y013353D01*
X009984Y013392D01*
X009984Y013680D01*
X009603Y013718D01*
X009578Y013805D01*
X009543Y013888D01*
X009500Y013966D01*
X009742Y014263D01*
X009539Y014467D01*
X009242Y014224D01*
X009163Y014268D01*
X009080Y014302D01*
X008994Y014327D01*
X008955Y014708D01*
X008667Y014708D01*
X008629Y014327D01*
X008543Y014302D01*
X008460Y014268D01*
X008381Y014224D01*
X008084Y014467D01*
X007881Y014263D01*
X008123Y013966D01*
X008080Y013888D01*
X008045Y013805D01*
X008020Y013718D01*
X007639Y013680D01*
X007639Y013392D01*
X008020Y013353D01*
X008045Y013267D01*
X008080Y013184D01*
X008123Y013106D01*
X007881Y012809D01*
X008084Y012605D01*
X008026Y012663D02*
X008155Y012663D01*
X008250Y012740D02*
X007949Y012740D01*
X007888Y012817D02*
X008345Y012817D01*
X008433Y012817D02*
X008514Y012817D01*
X008546Y012895D02*
X007951Y012895D01*
X008014Y012972D02*
X008578Y012972D01*
X008610Y013049D02*
X008077Y013049D01*
X008111Y013126D02*
X008642Y013126D01*
X008654Y013204D02*
X008071Y013204D01*
X008041Y013281D02*
X008545Y013281D01*
X008490Y013358D02*
X007972Y013358D01*
X007639Y013435D02*
X008458Y013435D01*
X008445Y013513D02*
X007639Y013513D01*
X007639Y013590D02*
X008448Y013590D01*
X008467Y013667D02*
X007639Y013667D01*
X008028Y013744D02*
X008507Y013744D01*
X008581Y013822D02*
X008052Y013822D01*
X008086Y013899D02*
X008749Y013899D01*
X008874Y013899D02*
X009537Y013899D01*
X009508Y013976D02*
X008115Y013976D01*
X008052Y014053D02*
X009571Y014053D01*
X009634Y014131D02*
X007989Y014131D01*
X007926Y014208D02*
X009697Y014208D01*
X009720Y014285D02*
X009316Y014285D01*
X009411Y014362D02*
X009643Y014362D01*
X009566Y014439D02*
X009505Y014439D01*
X009121Y014285D02*
X008501Y014285D01*
X008632Y014362D02*
X008991Y014362D01*
X008983Y014439D02*
X008640Y014439D01*
X008648Y014517D02*
X008975Y014517D01*
X008967Y014594D02*
X008656Y014594D01*
X008664Y014671D02*
X008959Y014671D01*
X008307Y014285D02*
X007903Y014285D01*
X007980Y014362D02*
X008212Y014362D01*
X008117Y014439D02*
X008057Y014439D01*
X009042Y013822D02*
X009571Y013822D01*
X009595Y013744D02*
X009115Y013744D01*
X009155Y013667D02*
X009984Y013667D01*
X009984Y013590D02*
X009175Y013590D01*
X009178Y013513D02*
X009984Y013513D01*
X009984Y013435D02*
X009165Y013435D01*
X009133Y013358D02*
X009651Y013358D01*
X009582Y013281D02*
X009077Y013281D01*
X008969Y013204D02*
X009551Y013204D01*
X009512Y013126D02*
X008981Y013126D01*
X009013Y013049D02*
X009546Y013049D01*
X009609Y012972D02*
X009045Y012972D01*
X009077Y012895D02*
X009672Y012895D01*
X009735Y012817D02*
X009278Y012817D01*
X009189Y012817D02*
X009109Y012817D01*
X009373Y012740D02*
X009674Y012740D01*
X009596Y012663D02*
X009468Y012663D01*
D11*
X010693Y001845D02*
X010940Y001845D01*
X010940Y001783D02*
X010940Y001907D01*
X010879Y001969D01*
X010755Y001969D01*
X010693Y001907D01*
X010693Y001845D01*
X010755Y001722D02*
X010879Y001722D01*
X010940Y001783D01*
X011062Y001722D02*
X011062Y001907D01*
X011123Y001969D01*
X011247Y001969D01*
X011309Y001907D01*
X011309Y002092D02*
X011309Y001722D01*
X011554Y001722D02*
X011554Y002092D01*
X011677Y002092D02*
X011430Y002092D01*
X012167Y001969D02*
X012229Y001969D01*
X012352Y001845D01*
X012474Y001845D02*
X012721Y001845D01*
X012721Y001783D02*
X012721Y001907D01*
X012659Y001969D01*
X012535Y001969D01*
X012474Y001907D01*
X012474Y001845D01*
X012535Y001722D02*
X012659Y001722D01*
X012721Y001783D01*
X012842Y001722D02*
X013027Y001722D01*
X013089Y001783D01*
X013089Y001907D01*
X013027Y001969D01*
X012842Y001969D01*
X012842Y002092D02*
X012842Y001722D01*
X013210Y001722D02*
X013210Y001907D01*
X013272Y001969D01*
X013457Y001969D01*
X013457Y001722D01*
X013579Y001783D02*
X013579Y002092D01*
X013825Y002092D02*
X013825Y001783D01*
X013764Y001722D01*
X013640Y001722D01*
X013579Y001783D01*
X014315Y001722D02*
X014500Y001722D01*
X014562Y001783D01*
X014562Y001907D01*
X014500Y001969D01*
X014315Y001969D01*
X014315Y002092D02*
X014315Y001722D01*
X014439Y001492D02*
X014439Y001122D01*
X014192Y001122D01*
X014254Y000892D02*
X014501Y000522D01*
X014622Y000522D02*
X014807Y000522D01*
X014869Y000583D01*
X014869Y000707D01*
X014807Y000769D01*
X014622Y000769D01*
X014622Y000460D01*
X014684Y000398D01*
X014746Y000398D01*
X015176Y000522D02*
X015176Y000769D01*
X015053Y000769D02*
X014991Y000769D01*
X015053Y000769D02*
X015176Y000645D01*
X015297Y000583D02*
X015297Y000707D01*
X015359Y000769D01*
X015483Y000769D01*
X015544Y000707D01*
X015544Y000583D01*
X015483Y000522D01*
X015359Y000522D01*
X015297Y000583D01*
X015667Y000583D02*
X015667Y000522D01*
X015728Y000522D01*
X015728Y000583D01*
X015667Y000583D01*
X015850Y000769D02*
X015912Y000769D01*
X016035Y000645D01*
X016035Y000522D02*
X016035Y000769D01*
X016157Y000707D02*
X016157Y000583D01*
X016219Y000522D01*
X016404Y000522D01*
X016525Y000522D02*
X016710Y000522D01*
X016772Y000583D01*
X016710Y000645D01*
X016525Y000645D01*
X016525Y000707D02*
X016525Y000522D01*
X016404Y000398D02*
X016404Y000769D01*
X016219Y000769D01*
X016157Y000707D01*
X016525Y000707D02*
X016587Y000769D01*
X016710Y000769D01*
X016894Y000769D02*
X017018Y000769D01*
X016956Y000830D02*
X016956Y000583D01*
X016894Y000522D01*
X016894Y001122D02*
X016894Y001492D01*
X016771Y001492D02*
X017018Y001492D01*
X017018Y001722D02*
X017018Y002092D01*
X016832Y002092D01*
X016771Y002030D01*
X016771Y001907D01*
X016832Y001845D01*
X017018Y001845D01*
X016894Y001845D02*
X016771Y001722D01*
X016649Y001783D02*
X016587Y001722D01*
X016464Y001722D01*
X016402Y001845D02*
X016649Y001845D01*
X016649Y001783D02*
X016649Y001907D01*
X016587Y001969D01*
X016464Y001969D01*
X016402Y001907D01*
X016402Y001845D01*
X016281Y001722D02*
X016157Y001722D01*
X016219Y001722D02*
X016219Y002092D01*
X016281Y002092D01*
X016035Y001907D02*
X015974Y001969D01*
X015850Y001969D01*
X015788Y001907D01*
X015788Y001845D01*
X016035Y001845D01*
X016035Y001783D02*
X016035Y001907D01*
X016035Y001783D02*
X015974Y001722D01*
X015850Y001722D01*
X015667Y001783D02*
X015605Y001722D01*
X015420Y001722D01*
X015420Y001907D01*
X015482Y001969D01*
X015605Y001969D01*
X015605Y001845D02*
X015420Y001845D01*
X015299Y001907D02*
X015237Y001969D01*
X015052Y001969D01*
X014930Y001907D02*
X014869Y001969D01*
X014745Y001969D01*
X014684Y001907D01*
X014684Y001845D01*
X014930Y001845D01*
X014930Y001783D02*
X014930Y001907D01*
X014930Y001783D02*
X014869Y001722D01*
X014745Y001722D01*
X014808Y001492D02*
X014808Y001122D01*
X014929Y001183D02*
X014929Y001430D01*
X014991Y001492D01*
X015114Y001492D01*
X015176Y001430D01*
X015176Y001183D01*
X015114Y001122D01*
X014991Y001122D01*
X014929Y001183D01*
X014808Y001307D02*
X014561Y001307D01*
X014561Y001492D02*
X014561Y001122D01*
X014132Y000707D02*
X014132Y000583D01*
X014071Y000522D01*
X013947Y000522D01*
X013886Y000583D01*
X013886Y000707D01*
X013947Y000769D01*
X014071Y000769D01*
X014132Y000707D01*
X013764Y000707D02*
X013702Y000769D01*
X013579Y000769D01*
X013517Y000707D01*
X013517Y000522D01*
X013396Y000522D02*
X013272Y000522D01*
X013334Y000522D02*
X013334Y000892D01*
X013396Y000892D01*
X013764Y000892D02*
X013764Y000522D01*
X013150Y000522D02*
X013088Y000522D01*
X013088Y000583D01*
X013150Y000583D01*
X013150Y000522D01*
X012966Y000522D02*
X012966Y000892D01*
X012904Y000769D02*
X012781Y000769D01*
X012719Y000707D01*
X012719Y000522D01*
X012536Y000583D02*
X012474Y000522D01*
X012536Y000583D02*
X012536Y000830D01*
X012598Y000769D02*
X012474Y000769D01*
X012352Y000769D02*
X012352Y000522D01*
X012229Y000522D02*
X012229Y000707D01*
X012167Y000769D01*
X012105Y000707D01*
X012105Y000522D01*
X011984Y000522D02*
X011860Y000522D01*
X011922Y000522D02*
X011922Y000892D01*
X011984Y000892D01*
X012229Y000707D02*
X012290Y000769D01*
X012352Y000769D01*
X012904Y000769D02*
X012966Y000707D01*
X012352Y001722D02*
X012352Y001969D01*
X015052Y001783D02*
X015114Y001722D01*
X015299Y001722D01*
X015237Y001845D02*
X015114Y001845D01*
X015052Y001783D01*
X015237Y001845D02*
X015299Y001907D01*
X015605Y001845D02*
X015667Y001783D01*
X015727Y001492D02*
X015666Y001430D01*
X015666Y001307D01*
X015727Y001245D01*
X015913Y001245D01*
X015913Y001122D02*
X015913Y001492D01*
X015727Y001492D01*
X015789Y001245D02*
X015666Y001122D01*
X016034Y001307D02*
X016034Y001430D01*
X016096Y001492D01*
X016281Y001492D01*
X016281Y001122D01*
X016402Y001122D02*
X016402Y001369D01*
X016526Y001492D01*
X016649Y001369D01*
X016649Y001122D01*
X016649Y001307D02*
X016402Y001307D01*
X016281Y001245D02*
X016096Y001245D01*
X016034Y001307D01*
M02*
