G75*
%MOIN*%
%OFA0B0*%
%FSLAX24Y24*%
%IPPOS*%
%LPD*%
%AMOC8*
5,1,8,0,0,1.08239X$1,22.5*
%
%ADD10C,0.0740*%
%ADD11C,0.1400*%
%ADD12C,0.0650*%
%ADD13R,0.0650X0.0650*%
%ADD14R,0.0397X0.0397*%
%ADD15R,0.0800X0.0800*%
%ADD16C,0.0800*%
%ADD17R,0.0277X0.0277*%
%ADD18C,0.0100*%
%ADD19R,0.0320X0.0320*%
%ADD20C,0.0120*%
%ADD21C,0.0277*%
%ADD22C,0.0079*%
D10*
X003811Y001077D03*
X004811Y000977D03*
X005811Y001077D03*
X006811Y000977D03*
X007811Y001077D03*
X008811Y000977D03*
X010307Y001027D03*
X011307Y000927D03*
X012307Y001027D03*
X013307Y000927D03*
X014307Y001027D03*
X015307Y000927D03*
X001084Y003930D03*
X001184Y004930D03*
X001084Y005930D03*
X001084Y007705D03*
X001184Y008705D03*
X001084Y009705D03*
X001184Y010705D03*
X001084Y011705D03*
X001184Y012705D03*
X003752Y018142D03*
X004752Y018142D03*
X005752Y018142D03*
X006752Y018142D03*
X007752Y018142D03*
X008752Y018142D03*
X010048Y018142D03*
X011048Y018142D03*
X012048Y018142D03*
X013048Y018142D03*
X014048Y018142D03*
X015048Y018142D03*
D11*
X033205Y018024D03*
X035205Y018024D03*
D12*
X029580Y018037D03*
D13*
X029580Y016037D03*
D14*
X037126Y014233D03*
X037626Y014233D03*
X037626Y013733D03*
X037126Y013733D03*
X037126Y013233D03*
X037626Y013233D03*
X038126Y013233D03*
X038126Y013733D03*
X038126Y014233D03*
X034126Y012028D03*
X033626Y012028D03*
X033126Y012028D03*
X033126Y011528D03*
X033626Y011528D03*
X033626Y011028D03*
X033126Y011028D03*
X034126Y011028D03*
X034126Y011528D03*
X031981Y010449D03*
X031481Y010449D03*
X030981Y010449D03*
X030981Y009949D03*
X031481Y009949D03*
X031981Y009949D03*
X031981Y009449D03*
X031481Y009449D03*
X030981Y009449D03*
X033126Y007540D03*
X033626Y007540D03*
X034126Y007540D03*
X034126Y007040D03*
X033626Y007040D03*
X033126Y007040D03*
X033126Y006540D03*
X033626Y006540D03*
X034126Y006540D03*
X035461Y005335D03*
X035961Y005335D03*
X036461Y005335D03*
X036461Y004835D03*
X035961Y004835D03*
X035461Y004835D03*
X035461Y004335D03*
X035961Y004335D03*
X036461Y004335D03*
X031981Y006433D03*
X031481Y006433D03*
X030981Y006433D03*
X030981Y006933D03*
X031481Y006933D03*
X031981Y006933D03*
X031981Y007433D03*
X031481Y007433D03*
X030981Y007433D03*
D15*
X038721Y011292D03*
D16*
X038721Y009323D03*
X038721Y007355D03*
D17*
X038063Y007437D03*
X038063Y007162D03*
X037788Y007162D03*
X037788Y007437D03*
X037512Y007437D03*
X037512Y007162D03*
X037237Y007162D03*
X037237Y007437D03*
X036961Y007437D03*
X036961Y007162D03*
X036685Y007162D03*
X036410Y007162D03*
X036134Y007162D03*
X035859Y007162D03*
X035859Y006886D03*
X036134Y006886D03*
X036134Y006611D03*
X035859Y006611D03*
X036410Y006611D03*
X036410Y006886D03*
X036685Y006886D03*
X036685Y006611D03*
X036961Y006611D03*
X036961Y006886D03*
X037237Y006886D03*
X037512Y006886D03*
X037512Y006611D03*
X037237Y006611D03*
X037237Y006335D03*
X037512Y006335D03*
X037512Y006059D03*
X037237Y006059D03*
X036961Y006059D03*
X036685Y006059D03*
X036410Y006059D03*
X036134Y006059D03*
X035859Y006059D03*
X035859Y006335D03*
X036134Y006335D03*
X036410Y006335D03*
X036685Y006335D03*
X036961Y006335D03*
X037788Y006335D03*
X038063Y006335D03*
X038063Y006059D03*
X037788Y006059D03*
X038339Y006059D03*
X038615Y006059D03*
X038890Y006059D03*
X039166Y006059D03*
X039166Y006335D03*
X038890Y006335D03*
X038615Y006335D03*
X038339Y006335D03*
X038339Y006611D03*
X038615Y006611D03*
X038890Y006611D03*
X039166Y006611D03*
X038063Y006611D03*
X037788Y006611D03*
X037788Y006886D03*
X038063Y006886D03*
X036685Y007437D03*
X036685Y007713D03*
X036961Y007713D03*
X037237Y007713D03*
X037512Y007713D03*
X037788Y007713D03*
X038063Y007713D03*
X037898Y008489D03*
X037622Y008489D03*
X037347Y008489D03*
X037071Y008489D03*
X036796Y008489D03*
X036520Y008489D03*
X036244Y008489D03*
X035969Y008489D03*
X035693Y008489D03*
X035418Y008489D03*
X035142Y008489D03*
X034867Y008489D03*
X034591Y008489D03*
X034315Y008489D03*
X034040Y008489D03*
X033764Y008489D03*
X033489Y008489D03*
X033213Y008489D03*
X032937Y008489D03*
X032937Y008764D03*
X032937Y009040D03*
X033213Y009040D03*
X033489Y009040D03*
X033764Y009040D03*
X034040Y009040D03*
X034315Y009040D03*
X034315Y008764D03*
X034040Y008764D03*
X033764Y008764D03*
X033489Y008764D03*
X033213Y008764D03*
X033213Y009315D03*
X033489Y009315D03*
X033764Y009315D03*
X034040Y009315D03*
X034315Y009315D03*
X034315Y009591D03*
X034040Y009591D03*
X033764Y009591D03*
X033489Y009591D03*
X033213Y009591D03*
X032937Y009591D03*
X032937Y009315D03*
X032937Y009867D03*
X032937Y010142D03*
X033213Y010142D03*
X033213Y009867D03*
X033489Y009867D03*
X033489Y010142D03*
X033764Y010142D03*
X033764Y009867D03*
X034040Y009867D03*
X034040Y010142D03*
X034315Y010142D03*
X034315Y009867D03*
X034591Y009867D03*
X034591Y010142D03*
X034867Y010142D03*
X035142Y010142D03*
X035142Y009867D03*
X034867Y009867D03*
X035418Y009867D03*
X035418Y010142D03*
X035693Y010142D03*
X035693Y009867D03*
X035969Y009867D03*
X035969Y010142D03*
X036244Y010142D03*
X036244Y009867D03*
X036520Y009867D03*
X036520Y010142D03*
X036796Y010142D03*
X037071Y010142D03*
X037071Y009867D03*
X036796Y009867D03*
X036796Y009591D03*
X037071Y009591D03*
X037071Y009315D03*
X036796Y009315D03*
X036520Y009315D03*
X036244Y009315D03*
X035969Y009315D03*
X035693Y009315D03*
X035418Y009315D03*
X035142Y009315D03*
X034867Y009315D03*
X034867Y009591D03*
X035142Y009591D03*
X035418Y009591D03*
X035693Y009591D03*
X035969Y009591D03*
X036244Y009591D03*
X036520Y009591D03*
X037347Y009591D03*
X037622Y009591D03*
X037622Y009315D03*
X037347Y009315D03*
X037898Y009315D03*
X037898Y009591D03*
X037898Y009867D03*
X037898Y010142D03*
X037622Y010142D03*
X037347Y010142D03*
X037347Y009867D03*
X037622Y009867D03*
X037748Y010741D03*
X037473Y010741D03*
X037197Y010741D03*
X036922Y010741D03*
X036646Y010741D03*
X036370Y010741D03*
X036095Y010741D03*
X035819Y010741D03*
X035819Y011016D03*
X036095Y011016D03*
X036370Y011016D03*
X036646Y011016D03*
X036922Y011016D03*
X037197Y011016D03*
X037473Y011016D03*
X037748Y011016D03*
X038024Y011016D03*
X038024Y010741D03*
X038024Y011292D03*
X038024Y011567D03*
X037748Y011567D03*
X037473Y011567D03*
X037473Y011292D03*
X037748Y011292D03*
X037197Y011292D03*
X037197Y011567D03*
X036922Y011567D03*
X036922Y011292D03*
X036646Y011292D03*
X036646Y011567D03*
X036370Y011567D03*
X036095Y011567D03*
X036095Y011292D03*
X036370Y011292D03*
X035819Y011292D03*
X035819Y011567D03*
X035819Y011843D03*
X036095Y011843D03*
X036370Y011843D03*
X036646Y011843D03*
X036922Y011843D03*
X037197Y011843D03*
X037197Y012119D03*
X036922Y012119D03*
X037473Y012119D03*
X037748Y012119D03*
X038024Y012119D03*
X038300Y012119D03*
X038575Y012119D03*
X038851Y012119D03*
X039126Y012119D03*
X039126Y012394D03*
X038851Y012394D03*
X038851Y012670D03*
X038851Y012945D03*
X039126Y012945D03*
X039126Y012670D03*
X038575Y012394D03*
X038300Y012394D03*
X038024Y012394D03*
X037748Y012394D03*
X037473Y012394D03*
X037197Y012394D03*
X036922Y012394D03*
X036331Y012315D03*
X035859Y012315D03*
X037473Y011843D03*
X037748Y011843D03*
X038024Y011843D03*
X038851Y013221D03*
X039126Y013221D03*
X039126Y013496D03*
X038851Y013496D03*
X038851Y013772D03*
X039126Y013772D03*
X039126Y014048D03*
X038851Y014048D03*
X038851Y014323D03*
X039126Y014323D03*
X039126Y015307D03*
X038536Y015307D03*
X037945Y015307D03*
X037945Y015898D03*
X038536Y015898D03*
X039126Y015898D03*
X036449Y015819D03*
X035465Y015819D03*
X034874Y015819D03*
X034284Y015819D03*
X031725Y015111D03*
X028300Y015701D03*
X028300Y016489D03*
X026528Y016528D03*
X025701Y016292D03*
X025701Y015701D03*
X026528Y015741D03*
X025701Y015111D03*
X025701Y014563D03*
X026737Y014563D03*
X026737Y014063D03*
X026737Y013571D03*
X026737Y013162D03*
X026737Y012689D03*
X026737Y012197D03*
X024520Y010662D03*
X024244Y009126D03*
X023457Y009126D03*
X022374Y008733D03*
X022079Y008733D03*
X021784Y008733D03*
X021489Y008733D03*
X021193Y008733D03*
X020898Y008733D03*
X020603Y008733D03*
X020603Y008437D03*
X020603Y008142D03*
X020898Y008142D03*
X021193Y008142D03*
X021193Y008437D03*
X020898Y008437D03*
X021489Y008437D03*
X021784Y008437D03*
X021784Y008142D03*
X022079Y008142D03*
X022079Y008437D03*
X022374Y008437D03*
X022374Y008142D03*
X022374Y007847D03*
X022079Y007847D03*
X021784Y007847D03*
X021489Y007847D03*
X021193Y007847D03*
X020898Y007847D03*
X020603Y007847D03*
X019520Y007552D03*
X018733Y007552D03*
X018733Y008339D03*
X019520Y008339D03*
X019520Y009126D03*
X018733Y009126D03*
X017945Y009126D03*
X017945Y008339D03*
X017158Y008339D03*
X013402Y008615D03*
X012158Y008260D03*
X011843Y007355D03*
X010268Y008300D03*
X010819Y008378D03*
X010111Y008890D03*
X010662Y009244D03*
X009874Y009363D03*
X009284Y009874D03*
X009359Y010449D03*
X008595Y010957D03*
X007764Y010918D03*
X006201Y011130D03*
X005737Y010748D03*
X006343Y009898D03*
X005772Y009792D03*
X005307Y009575D03*
X004343Y010882D03*
X004867Y011461D03*
X003142Y011843D03*
X002355Y011843D03*
X003792Y012630D03*
X002552Y014205D03*
X002552Y014638D03*
X002552Y015071D03*
X002000Y015071D03*
X001449Y015071D03*
X000898Y015071D03*
X000898Y014638D03*
X001449Y014638D03*
X002000Y014638D03*
X002000Y014205D03*
X001449Y014205D03*
X000898Y014205D03*
X009028Y015996D03*
X011851Y014319D03*
X011752Y013717D03*
X012008Y013185D03*
X011307Y013272D03*
X014528Y014870D03*
X015465Y015622D03*
X016489Y014520D03*
X017079Y014520D03*
X016489Y013811D03*
X014914Y013040D03*
X016489Y012748D03*
X017079Y012748D03*
X017867Y012748D03*
X018733Y012394D03*
X017079Y011961D03*
X016489Y011961D03*
X016489Y011174D03*
X017079Y011174D03*
X012040Y010741D03*
X010583Y010701D03*
X010493Y010063D03*
X009756Y011292D03*
X008733Y008339D03*
X007197Y007315D03*
X005780Y007004D03*
X004748Y007040D03*
X004256Y007347D03*
X003441Y007008D03*
X001930Y006835D03*
X005662Y005268D03*
X006792Y004996D03*
X007611Y005016D03*
X008130Y005024D03*
X005402Y003217D03*
X003300Y002493D03*
X002119Y003300D03*
X011961Y003693D03*
X011969Y003115D03*
X012040Y002355D03*
X013800Y002150D03*
X017079Y000937D03*
X017827Y000937D03*
X018654Y000937D03*
X019441Y000937D03*
X020229Y000937D03*
X021016Y000937D03*
X021804Y000937D03*
X022591Y000937D03*
X023378Y000937D03*
X024166Y000937D03*
X024953Y000937D03*
X025741Y000937D03*
X026528Y000937D03*
X026528Y001725D03*
X025741Y001725D03*
X024441Y001725D03*
X023890Y001725D03*
X023300Y001725D03*
X022315Y001725D03*
X022315Y002276D03*
X021567Y002276D03*
X020229Y001725D03*
X019441Y001725D03*
X018654Y001725D03*
X017827Y001725D03*
X018260Y002276D03*
X019402Y002945D03*
X020032Y002945D03*
X020032Y003575D03*
X019402Y003575D03*
X018496Y005111D03*
X018339Y006449D03*
X015426Y006528D03*
X015111Y005347D03*
X014323Y005347D03*
X013890Y005150D03*
X015504Y004402D03*
X023457Y007552D03*
X024244Y007552D03*
X025032Y007552D03*
X026331Y007040D03*
X026331Y006292D03*
X026528Y005662D03*
X026528Y004874D03*
X025741Y004874D03*
X024855Y005229D03*
X024426Y005225D03*
X023996Y005221D03*
X024953Y004087D03*
X025741Y004087D03*
X026528Y004087D03*
X027315Y003930D03*
X026528Y003300D03*
X025741Y003300D03*
X024953Y003300D03*
X024166Y003300D03*
X024953Y002512D03*
X025741Y002512D03*
X026528Y002512D03*
X027000Y002630D03*
X028300Y001725D03*
X028300Y001134D03*
X029284Y001134D03*
X030268Y001134D03*
X030268Y001725D03*
X029284Y001725D03*
X031252Y001725D03*
X032237Y001725D03*
X033221Y001725D03*
X033221Y001134D03*
X032237Y001134D03*
X031252Y001134D03*
X034205Y001134D03*
X035189Y001134D03*
X035189Y001725D03*
X034205Y001725D03*
X034008Y002906D03*
X034717Y003418D03*
X032709Y002945D03*
X030189Y003496D03*
X029756Y004205D03*
X037237Y004406D03*
X037512Y004406D03*
X037788Y004406D03*
X038063Y004406D03*
X038339Y004406D03*
X038615Y004406D03*
X038890Y004406D03*
X039166Y004406D03*
X039166Y004681D03*
X038890Y004681D03*
X038615Y004681D03*
X038339Y004681D03*
X038063Y004681D03*
X037788Y004681D03*
X037512Y004681D03*
X037237Y004681D03*
X037237Y004957D03*
X037512Y004957D03*
X037788Y004957D03*
X038063Y004957D03*
X038339Y004957D03*
X038615Y004957D03*
X038890Y004957D03*
X039166Y004957D03*
X039166Y005233D03*
X039166Y005508D03*
X038890Y005508D03*
X038890Y005233D03*
X038615Y005233D03*
X038615Y005508D03*
X038615Y005784D03*
X038890Y005784D03*
X039166Y005784D03*
X038339Y005784D03*
X038063Y005784D03*
X037788Y005784D03*
X037788Y005508D03*
X037788Y005233D03*
X038063Y005233D03*
X038063Y005508D03*
X038339Y005508D03*
X038339Y005233D03*
X037512Y005233D03*
X037512Y005508D03*
X037237Y005508D03*
X037237Y005233D03*
X037237Y005784D03*
X037512Y005784D03*
X035937Y007788D03*
X035969Y008764D03*
X036244Y008764D03*
X036244Y009040D03*
X035969Y009040D03*
X035693Y009040D03*
X035418Y009040D03*
X035418Y008764D03*
X035693Y008764D03*
X035142Y008764D03*
X034867Y008764D03*
X034867Y009040D03*
X035142Y009040D03*
X034591Y009040D03*
X034591Y008764D03*
X034591Y009315D03*
X034591Y009591D03*
X036520Y009040D03*
X036796Y009040D03*
X037071Y009040D03*
X037071Y008764D03*
X036796Y008764D03*
X036520Y008764D03*
X037347Y008764D03*
X037622Y008764D03*
X037622Y009040D03*
X037347Y009040D03*
X037898Y009040D03*
X037898Y008764D03*
X030189Y008457D03*
X026764Y008575D03*
X026764Y007827D03*
X025032Y008339D03*
X024244Y008339D03*
X023457Y008339D03*
X025032Y009126D03*
X021489Y008142D03*
X029638Y011134D03*
X029638Y011646D03*
X024835Y013969D03*
X021646Y014599D03*
X021016Y014599D03*
X020465Y014599D03*
X019835Y014599D03*
X019205Y014874D03*
X021804Y016922D03*
X022591Y016922D03*
X022591Y017709D03*
X023378Y017709D03*
X024166Y017709D03*
X024244Y017237D03*
X024953Y017709D03*
X025741Y017709D03*
X026528Y017709D03*
X026528Y018496D03*
X025741Y018496D03*
X024953Y018496D03*
X024166Y018496D03*
X023378Y018496D03*
X022591Y018496D03*
X018811Y018496D03*
X018536Y018496D03*
X018260Y018496D03*
X017985Y018496D03*
X017709Y018496D03*
X017433Y018496D03*
X017158Y018496D03*
X016882Y018496D03*
X016607Y018496D03*
X016331Y018496D03*
X028300Y018260D03*
X028890Y018260D03*
X028890Y017670D03*
X028300Y017670D03*
X030662Y017670D03*
X031252Y017670D03*
X031252Y018260D03*
X030662Y018260D03*
D18*
X002165Y000370D02*
X001852Y000320D01*
X015898Y000320D01*
X015898Y001414D01*
X015728Y001584D01*
X013248Y001584D01*
X012697Y002135D01*
X012568Y002264D01*
X012568Y003720D01*
X010748Y005540D01*
X007834Y005540D01*
X007706Y005669D01*
X006977Y006397D01*
X006977Y007017D01*
X006889Y007106D01*
X006889Y007525D01*
X006988Y007624D01*
X007406Y007624D01*
X007506Y007525D01*
X007506Y007106D01*
X007417Y007017D01*
X007417Y006580D01*
X008017Y005980D01*
X010930Y005980D01*
X013008Y003903D01*
X013008Y002446D01*
X013430Y002024D01*
X014225Y002024D01*
X013563Y002686D01*
X013434Y002815D01*
X013434Y004157D01*
X010186Y007405D01*
X010057Y007534D01*
X010057Y007993D01*
X009959Y008090D01*
X009959Y008509D01*
X010032Y008581D01*
X009901Y008581D01*
X009802Y008681D01*
X009802Y009054D01*
X009665Y009054D01*
X009577Y009143D01*
X008229Y009143D01*
X007653Y008567D01*
X007653Y008563D01*
X007525Y008434D01*
X007521Y008434D01*
X006089Y007002D01*
X006089Y006795D01*
X005989Y006696D01*
X005571Y006696D01*
X005471Y006795D01*
X005471Y007213D01*
X005087Y007213D01*
X005087Y006818D01*
X004970Y006701D01*
X004527Y006701D01*
X004410Y006818D01*
X004410Y007038D01*
X004047Y007038D01*
X003948Y007138D01*
X003948Y007556D01*
X004047Y007656D01*
X004465Y007656D01*
X004468Y007653D01*
X005433Y007653D01*
X007745Y009966D01*
X007874Y010094D01*
X008986Y010094D01*
X009075Y010183D01*
X009107Y010183D01*
X009050Y010240D01*
X009050Y010658D01*
X009139Y010747D01*
X009139Y010929D01*
X008934Y011134D01*
X008934Y010736D01*
X008816Y010618D01*
X008373Y010618D01*
X008256Y010736D01*
X008256Y011179D01*
X008373Y011296D01*
X008772Y011296D01*
X008327Y011741D01*
X005147Y011741D01*
X005205Y011683D01*
X005205Y011239D01*
X005088Y011122D01*
X004645Y011122D01*
X004528Y011239D01*
X004528Y011683D01*
X004586Y011741D01*
X004370Y011741D01*
X004241Y011870D01*
X003789Y012322D01*
X003583Y012322D01*
X003483Y012421D01*
X003483Y012839D01*
X003583Y012939D01*
X004001Y012939D01*
X004100Y012839D01*
X004100Y012633D01*
X004552Y012181D01*
X008509Y012181D01*
X009448Y011242D01*
X009448Y011501D01*
X009547Y011600D01*
X009965Y011600D01*
X010065Y011501D01*
X010065Y011083D01*
X009965Y010983D01*
X009579Y010983D01*
X009579Y010747D01*
X009667Y010658D01*
X009667Y010240D01*
X009568Y010140D01*
X009536Y010140D01*
X009593Y010084D01*
X009593Y009665D01*
X009510Y009583D01*
X009577Y009583D01*
X009665Y009671D01*
X010084Y009671D01*
X010116Y009639D01*
X010138Y009661D01*
X010295Y009819D01*
X011777Y009819D01*
X011905Y009690D01*
X013093Y008502D01*
X013093Y008824D01*
X013193Y008923D01*
X013611Y008923D01*
X013711Y008824D01*
X013711Y008405D01*
X013611Y008306D01*
X013290Y008306D01*
X015117Y006479D01*
X015117Y006737D01*
X015216Y006837D01*
X015635Y006837D01*
X015734Y006737D01*
X015734Y006319D01*
X015635Y006219D01*
X015376Y006219D01*
X015898Y005697D01*
X015898Y016435D01*
X015651Y016435D01*
X015560Y016473D01*
X015489Y016544D01*
X015451Y016636D01*
X015451Y017740D01*
X015371Y017659D01*
X015161Y017572D01*
X014934Y017572D01*
X014725Y017659D01*
X014564Y017819D01*
X014531Y017899D01*
X014505Y017836D01*
X014354Y017684D01*
X014155Y017602D01*
X013940Y017602D01*
X013742Y017684D01*
X013590Y017836D01*
X013548Y017938D01*
X013505Y017836D01*
X013354Y017684D01*
X013155Y017602D01*
X012940Y017602D01*
X012742Y017684D01*
X012590Y017836D01*
X012548Y017938D01*
X012505Y017836D01*
X012354Y017684D01*
X012155Y017602D01*
X011940Y017602D01*
X011742Y017684D01*
X011590Y017836D01*
X011548Y017938D01*
X011505Y017836D01*
X011354Y017684D01*
X011155Y017602D01*
X010940Y017602D01*
X010742Y017684D01*
X010590Y017836D01*
X010537Y017965D01*
X010530Y017943D01*
X010492Y017870D01*
X010444Y017803D01*
X010386Y017745D01*
X010320Y017697D01*
X010247Y017660D01*
X010169Y017635D01*
X010098Y017624D01*
X010098Y018092D01*
X009998Y018092D01*
X009998Y017624D01*
X009926Y017635D01*
X009848Y017660D01*
X009775Y017697D01*
X009709Y017745D01*
X009651Y017803D01*
X009603Y017870D01*
X009566Y017943D01*
X009540Y018020D01*
X009529Y018092D01*
X009998Y018092D01*
X009998Y018192D01*
X009998Y018661D01*
X009926Y018649D01*
X009848Y018624D01*
X009775Y018587D01*
X009709Y018539D01*
X009651Y018481D01*
X009603Y018415D01*
X009566Y018342D01*
X009540Y018264D01*
X009529Y018192D01*
X009998Y018192D01*
X010098Y018192D01*
X010098Y018661D01*
X010169Y018649D01*
X010247Y018624D01*
X010320Y018587D01*
X010386Y018539D01*
X010444Y018481D01*
X010492Y018415D01*
X010530Y018342D01*
X010537Y018320D01*
X010590Y018448D01*
X010742Y018600D01*
X010940Y018682D01*
X011155Y018682D01*
X011354Y018600D01*
X011505Y018448D01*
X011548Y018346D01*
X011590Y018448D01*
X011742Y018600D01*
X011940Y018682D01*
X012155Y018682D01*
X012354Y018600D01*
X012505Y018448D01*
X012548Y018346D01*
X012590Y018448D01*
X012742Y018600D01*
X012940Y018682D01*
X013155Y018682D01*
X013354Y018600D01*
X013505Y018448D01*
X013548Y018346D01*
X013590Y018448D01*
X013742Y018600D01*
X013940Y018682D01*
X014155Y018682D01*
X014354Y018600D01*
X014505Y018448D01*
X014531Y018385D01*
X014564Y018465D01*
X014725Y018625D01*
X014934Y018712D01*
X015161Y018712D01*
X015371Y018625D01*
X015451Y018545D01*
X015451Y018878D01*
X002182Y018878D01*
X002444Y018744D01*
X002444Y018744D01*
X002760Y018429D01*
X002760Y018429D01*
X002962Y018031D01*
X002962Y018031D01*
X003032Y017591D01*
X003032Y017591D01*
X002962Y017151D01*
X002760Y016753D01*
X002760Y016753D01*
X002444Y016438D01*
X002444Y016438D01*
X002047Y016236D01*
X002047Y016236D01*
X001607Y016166D01*
X001607Y016166D01*
X001166Y016236D01*
X001166Y016236D01*
X000769Y016438D01*
X000769Y016438D01*
X000454Y016753D01*
X000454Y016753D01*
X000320Y017016D01*
X000320Y001852D01*
X000370Y002165D01*
X000370Y002165D01*
X000572Y002562D01*
X000572Y002562D01*
X000887Y002878D01*
X001284Y003080D01*
X001725Y003150D01*
X002165Y003080D01*
X002562Y002878D01*
X002562Y002878D01*
X002878Y002562D01*
X002878Y002562D01*
X002961Y002399D01*
X002961Y002714D01*
X003078Y002831D01*
X003521Y002831D01*
X003638Y002714D01*
X003638Y002271D01*
X003521Y002154D01*
X003082Y002154D01*
X003150Y001725D01*
X003080Y001284D01*
X003080Y001284D01*
X002878Y000887D01*
X002878Y000887D01*
X002562Y000572D01*
X002562Y000572D01*
X002165Y000370D01*
X002165Y000370D01*
X002023Y000347D02*
X015898Y000347D01*
X015898Y000446D02*
X015632Y000446D01*
X015630Y000444D02*
X015791Y000604D01*
X015877Y000813D01*
X015877Y001040D01*
X015791Y001250D01*
X015630Y001410D01*
X015421Y001497D01*
X015194Y001497D01*
X014985Y001410D01*
X014824Y001250D01*
X014800Y001192D01*
X014789Y001226D01*
X014752Y001299D01*
X014704Y001366D01*
X014646Y001423D01*
X014580Y001472D01*
X014507Y001509D01*
X014429Y001534D01*
X014357Y001545D01*
X014357Y001077D01*
X014257Y001077D01*
X014257Y001545D01*
X014186Y001534D01*
X014108Y001509D01*
X014035Y001472D01*
X013969Y001423D01*
X013911Y001366D01*
X013863Y001299D01*
X013826Y001226D01*
X013800Y001149D01*
X013800Y001148D01*
X013765Y001233D01*
X013613Y001385D01*
X013415Y001467D01*
X013200Y001467D01*
X013002Y001385D01*
X012850Y001233D01*
X012828Y001181D01*
X012765Y001333D01*
X012613Y001485D01*
X012415Y001567D01*
X012200Y001567D01*
X012002Y001485D01*
X011850Y001333D01*
X011787Y001181D01*
X011765Y001233D01*
X011613Y001385D01*
X011415Y001467D01*
X011200Y001467D01*
X011002Y001385D01*
X010850Y001233D01*
X010828Y001181D01*
X010765Y001333D01*
X010613Y001485D01*
X010415Y001567D01*
X010200Y001567D01*
X010002Y001485D01*
X009850Y001333D01*
X009767Y001134D01*
X009767Y000919D01*
X009850Y000721D01*
X010002Y000569D01*
X010200Y000487D01*
X010415Y000487D01*
X010613Y000569D01*
X010765Y000721D01*
X010787Y000773D01*
X010850Y000621D01*
X011002Y000469D01*
X011200Y000387D01*
X011415Y000387D01*
X011613Y000469D01*
X011765Y000621D01*
X011828Y000773D01*
X011850Y000721D01*
X012002Y000569D01*
X012200Y000487D01*
X012415Y000487D01*
X012613Y000569D01*
X012765Y000721D01*
X012787Y000773D01*
X012850Y000621D01*
X013002Y000469D01*
X013200Y000387D01*
X013415Y000387D01*
X013613Y000469D01*
X013765Y000621D01*
X013839Y000800D01*
X013863Y000754D01*
X013911Y000688D01*
X013969Y000630D01*
X014035Y000582D01*
X014108Y000545D01*
X014186Y000520D01*
X014257Y000508D01*
X014257Y000977D01*
X014357Y000977D01*
X014357Y000508D01*
X014429Y000520D01*
X014507Y000545D01*
X014580Y000582D01*
X014646Y000630D01*
X014704Y000688D01*
X014752Y000754D01*
X014758Y000765D01*
X014824Y000604D01*
X014985Y000444D01*
X015194Y000357D01*
X015421Y000357D01*
X015630Y000444D01*
X015731Y000544D02*
X015898Y000544D01*
X015898Y000643D02*
X015807Y000643D01*
X015847Y000741D02*
X015898Y000741D01*
X015898Y000840D02*
X015877Y000840D01*
X015877Y000938D02*
X015898Y000938D01*
X015898Y001037D02*
X015877Y001037D01*
X015898Y001135D02*
X015838Y001135D01*
X015797Y001234D02*
X015898Y001234D01*
X015898Y001332D02*
X015708Y001332D01*
X015581Y001431D02*
X015881Y001431D01*
X015783Y001529D02*
X014445Y001529D01*
X014357Y001529D02*
X014257Y001529D01*
X014170Y001529D02*
X012506Y001529D01*
X012667Y001431D02*
X013113Y001431D01*
X012949Y001332D02*
X012766Y001332D01*
X012806Y001234D02*
X012851Y001234D01*
X013204Y001628D02*
X003134Y001628D01*
X003150Y001726D02*
X013105Y001726D01*
X013007Y001825D02*
X003134Y001825D01*
X003118Y001923D02*
X012908Y001923D01*
X012810Y002022D02*
X003103Y002022D01*
X003087Y002120D02*
X012711Y002120D01*
X012613Y002219D02*
X003586Y002219D01*
X003638Y002317D02*
X012568Y002317D01*
X012568Y002416D02*
X007837Y002416D01*
X007856Y002435D02*
X007739Y002318D01*
X007254Y002318D01*
X007136Y002435D01*
X007136Y002920D01*
X007254Y003038D01*
X007739Y003038D01*
X007856Y002920D01*
X007856Y002435D01*
X007856Y002514D02*
X012568Y002514D01*
X012568Y002613D02*
X007856Y002613D01*
X007856Y002711D02*
X012568Y002711D01*
X012568Y002810D02*
X012182Y002810D01*
X012178Y002806D02*
X012278Y002905D01*
X012278Y003324D01*
X012193Y003408D01*
X012270Y003484D01*
X012270Y003902D01*
X012170Y004002D01*
X011752Y004002D01*
X011652Y003902D01*
X011652Y003484D01*
X011736Y003400D01*
X011660Y003324D01*
X011660Y002905D01*
X011760Y002806D01*
X012178Y002806D01*
X012278Y002908D02*
X012568Y002908D01*
X012568Y003007D02*
X012278Y003007D01*
X012278Y003105D02*
X012568Y003105D01*
X012568Y003204D02*
X012278Y003204D01*
X012278Y003302D02*
X012568Y003302D01*
X012568Y003401D02*
X012201Y003401D01*
X012270Y003499D02*
X012568Y003499D01*
X012568Y003598D02*
X012270Y003598D01*
X012270Y003696D02*
X012568Y003696D01*
X012494Y003795D02*
X012270Y003795D01*
X012270Y003893D02*
X012395Y003893D01*
X012297Y003992D02*
X012181Y003992D01*
X012198Y004090D02*
X001602Y004090D01*
X001624Y004037D02*
X001542Y004235D01*
X001390Y004387D01*
X001338Y004409D01*
X001490Y004472D01*
X001642Y004624D01*
X001724Y004822D01*
X001724Y005037D01*
X001642Y005235D01*
X001490Y005387D01*
X001311Y005461D01*
X001357Y005485D01*
X001423Y005533D01*
X001481Y005591D01*
X001529Y005657D01*
X001566Y005730D01*
X001591Y005808D01*
X001603Y005880D01*
X001134Y005880D01*
X001134Y005980D01*
X001034Y005980D01*
X001034Y006448D01*
X000962Y006437D01*
X000885Y006411D01*
X000812Y006374D01*
X000745Y006326D01*
X000688Y006268D01*
X000640Y006202D01*
X000602Y006129D01*
X000577Y006051D01*
X000566Y005980D01*
X001034Y005980D01*
X001034Y005880D01*
X000566Y005880D01*
X000577Y005808D01*
X000602Y005730D01*
X000640Y005657D01*
X000688Y005591D01*
X000745Y005533D01*
X000812Y005485D01*
X000885Y005448D01*
X000962Y005422D01*
X000963Y005422D01*
X000878Y005387D01*
X000726Y005235D01*
X000644Y005037D01*
X000644Y004822D01*
X000726Y004624D01*
X000878Y004472D01*
X000930Y004450D01*
X000778Y004387D01*
X000626Y004235D01*
X000544Y004037D01*
X000544Y003822D01*
X000626Y003624D01*
X000778Y003472D01*
X000977Y003390D01*
X001192Y003390D01*
X001390Y003472D01*
X001542Y003624D01*
X001624Y003822D01*
X001624Y004037D01*
X001624Y003992D02*
X011741Y003992D01*
X011652Y003893D02*
X001624Y003893D01*
X001613Y003795D02*
X011652Y003795D01*
X011652Y003696D02*
X001572Y003696D01*
X001516Y003598D02*
X011652Y003598D01*
X011652Y003499D02*
X005638Y003499D01*
X005611Y003526D02*
X005193Y003526D01*
X005093Y003426D01*
X005093Y003008D01*
X005193Y002908D01*
X005611Y002908D01*
X005711Y003008D01*
X005711Y003426D01*
X005611Y003526D01*
X005711Y003401D02*
X011736Y003401D01*
X011660Y003302D02*
X005711Y003302D01*
X005711Y003204D02*
X011660Y003204D01*
X011660Y003105D02*
X005711Y003105D01*
X005709Y003007D02*
X007223Y003007D01*
X007136Y002908D02*
X002503Y002908D01*
X002631Y002810D02*
X003056Y002810D01*
X002961Y002711D02*
X002729Y002711D01*
X002828Y002613D02*
X002961Y002613D01*
X002878Y002562D02*
X002878Y002562D01*
X002902Y002514D02*
X002961Y002514D01*
X002952Y002416D02*
X002961Y002416D01*
X003300Y002493D02*
X003374Y002493D01*
X003638Y002514D02*
X007136Y002514D01*
X007136Y002613D02*
X003638Y002613D01*
X003638Y002711D02*
X007136Y002711D01*
X007136Y002810D02*
X003543Y002810D01*
X003638Y002416D02*
X007156Y002416D01*
X007856Y002810D02*
X011756Y002810D01*
X011660Y002908D02*
X007856Y002908D01*
X007770Y003007D02*
X011660Y003007D01*
X012788Y002355D02*
X012788Y003811D01*
X010839Y005760D01*
X007926Y005760D01*
X007197Y006489D01*
X007197Y007315D01*
X006889Y007341D02*
X006427Y007341D01*
X006526Y007439D02*
X006889Y007439D01*
X006902Y007538D02*
X006624Y007538D01*
X006723Y007636D02*
X010057Y007636D01*
X010057Y007538D02*
X007493Y007538D01*
X007506Y007439D02*
X010152Y007439D01*
X010251Y007341D02*
X007506Y007341D01*
X007506Y007242D02*
X010349Y007242D01*
X010448Y007144D02*
X007506Y007144D01*
X007445Y007045D02*
X010546Y007045D01*
X010645Y006947D02*
X007417Y006947D01*
X007417Y006848D02*
X010743Y006848D01*
X010842Y006750D02*
X007417Y006750D01*
X007417Y006651D02*
X010940Y006651D01*
X011039Y006553D02*
X007444Y006553D01*
X007543Y006454D02*
X011137Y006454D01*
X011236Y006356D02*
X007641Y006356D01*
X007740Y006257D02*
X011334Y006257D01*
X011433Y006159D02*
X007838Y006159D01*
X007937Y006060D02*
X011531Y006060D01*
X011630Y005962D02*
X010949Y005962D01*
X011047Y005863D02*
X011728Y005863D01*
X011827Y005765D02*
X011146Y005765D01*
X011244Y005666D02*
X011925Y005666D01*
X012024Y005568D02*
X011343Y005568D01*
X011441Y005469D02*
X012122Y005469D01*
X012221Y005371D02*
X011540Y005371D01*
X011638Y005272D02*
X012319Y005272D01*
X012418Y005174D02*
X011737Y005174D01*
X011835Y005075D02*
X012516Y005075D01*
X012615Y004977D02*
X011934Y004977D01*
X012032Y004878D02*
X012713Y004878D01*
X012812Y004780D02*
X012131Y004780D01*
X012229Y004681D02*
X012910Y004681D01*
X013009Y004583D02*
X012328Y004583D01*
X012426Y004484D02*
X013107Y004484D01*
X013206Y004386D02*
X012525Y004386D01*
X012623Y004287D02*
X013304Y004287D01*
X013403Y004189D02*
X012722Y004189D01*
X012820Y004090D02*
X013434Y004090D01*
X013434Y003992D02*
X012919Y003992D01*
X013008Y003893D02*
X013434Y003893D01*
X013434Y003795D02*
X013008Y003795D01*
X013008Y003696D02*
X013434Y003696D01*
X013434Y003598D02*
X013008Y003598D01*
X013008Y003499D02*
X013434Y003499D01*
X013434Y003401D02*
X013008Y003401D01*
X013008Y003302D02*
X013434Y003302D01*
X013434Y003204D02*
X013008Y003204D01*
X013008Y003105D02*
X013434Y003105D01*
X013434Y003007D02*
X013008Y003007D01*
X013008Y002908D02*
X013434Y002908D01*
X013439Y002810D02*
X013008Y002810D01*
X013008Y002711D02*
X013538Y002711D01*
X013636Y002613D02*
X013008Y002613D01*
X013008Y002514D02*
X013735Y002514D01*
X013833Y002416D02*
X013038Y002416D01*
X013137Y002317D02*
X013932Y002317D01*
X014030Y002219D02*
X013235Y002219D01*
X013334Y002120D02*
X014129Y002120D01*
X014520Y002040D02*
X013654Y002906D01*
X013654Y004248D01*
X010277Y007625D01*
X010277Y008290D01*
X010268Y008300D01*
X010268Y008221D01*
X009959Y008227D02*
X009041Y008227D01*
X009041Y008130D02*
X008942Y008030D01*
X008524Y008030D01*
X008424Y008130D01*
X008424Y008548D01*
X008524Y008648D01*
X008942Y008648D01*
X009041Y008548D01*
X009041Y008130D01*
X009040Y008129D02*
X009959Y008129D01*
X010020Y008030D02*
X007117Y008030D01*
X007215Y008129D02*
X008425Y008129D01*
X008424Y008227D02*
X007314Y008227D01*
X007412Y008326D02*
X008424Y008326D01*
X008424Y008424D02*
X007511Y008424D01*
X007613Y008523D02*
X008424Y008523D01*
X008497Y008621D02*
X007708Y008621D01*
X007806Y008720D02*
X009802Y008720D01*
X009802Y008818D02*
X007905Y008818D01*
X008003Y008917D02*
X009802Y008917D01*
X009802Y009015D02*
X008102Y009015D01*
X008200Y009114D02*
X009606Y009114D01*
X009874Y009363D02*
X008138Y009363D01*
X007433Y008658D01*
X007433Y008654D01*
X007430Y008654D01*
X005780Y007004D01*
X005471Y007045D02*
X005087Y007045D01*
X005087Y006947D02*
X005471Y006947D01*
X005471Y006848D02*
X005087Y006848D01*
X005019Y006750D02*
X005517Y006750D01*
X006043Y006750D02*
X006977Y006750D01*
X006977Y006848D02*
X006089Y006848D01*
X006089Y006947D02*
X006977Y006947D01*
X006950Y007045D02*
X006132Y007045D01*
X006230Y007144D02*
X006889Y007144D01*
X006889Y007242D02*
X006329Y007242D01*
X005524Y007433D02*
X004343Y007433D01*
X004256Y007347D01*
X003948Y007341D02*
X003669Y007341D01*
X003663Y007347D02*
X003780Y007230D01*
X003780Y006787D01*
X003663Y006670D01*
X003220Y006670D01*
X003103Y006787D01*
X003103Y007230D01*
X003220Y007347D01*
X003663Y007347D01*
X003768Y007242D02*
X003948Y007242D01*
X003948Y007144D02*
X003780Y007144D01*
X003780Y007045D02*
X004040Y007045D01*
X003780Y006947D02*
X004410Y006947D01*
X004410Y006848D02*
X003780Y006848D01*
X003743Y006750D02*
X004478Y006750D01*
X005087Y007144D02*
X005471Y007144D01*
X005524Y007433D02*
X007965Y009874D01*
X009284Y009874D01*
X009593Y009902D02*
X015898Y009902D01*
X015898Y010000D02*
X009593Y010000D01*
X009578Y010099D02*
X015898Y010099D01*
X015898Y010197D02*
X009624Y010197D01*
X009667Y010296D02*
X015898Y010296D01*
X015898Y010394D02*
X010794Y010394D01*
X010792Y010392D02*
X010892Y010492D01*
X010892Y010910D01*
X010792Y011010D01*
X010374Y011010D01*
X010274Y010910D01*
X010274Y010492D01*
X010374Y010392D01*
X010792Y010392D01*
X010892Y010493D02*
X011770Y010493D01*
X011731Y010531D02*
X011831Y010432D01*
X012249Y010432D01*
X012349Y010531D01*
X012349Y010950D01*
X012249Y011049D01*
X011831Y011049D01*
X011731Y010950D01*
X011731Y010531D01*
X011731Y010591D02*
X010892Y010591D01*
X010892Y010690D02*
X011731Y010690D01*
X011731Y010788D02*
X010892Y010788D01*
X010892Y010887D02*
X011731Y010887D01*
X011766Y010985D02*
X010817Y010985D01*
X010349Y010985D02*
X009967Y010985D01*
X010065Y011084D02*
X015898Y011084D01*
X015898Y011182D02*
X010065Y011182D01*
X010065Y011281D02*
X015898Y011281D01*
X015898Y011379D02*
X010065Y011379D01*
X010065Y011478D02*
X013257Y011478D01*
X013269Y011465D02*
X013394Y011414D01*
X013528Y011414D01*
X013653Y011465D01*
X013748Y011560D01*
X013800Y011685D01*
X013800Y011820D01*
X013748Y011944D01*
X013653Y012040D01*
X013528Y012091D01*
X013394Y012091D01*
X013269Y012040D01*
X013174Y011944D01*
X013122Y011820D01*
X013122Y011685D01*
X013174Y011560D01*
X013269Y011465D01*
X013167Y011576D02*
X009990Y011576D01*
X009523Y011576D02*
X009114Y011576D01*
X009212Y011478D02*
X009448Y011478D01*
X009448Y011379D02*
X009311Y011379D01*
X009409Y011281D02*
X009448Y011281D01*
X009359Y011020D02*
X009359Y010449D01*
X009667Y010493D02*
X010274Y010493D01*
X010274Y010591D02*
X009667Y010591D01*
X009636Y010690D02*
X010274Y010690D01*
X010274Y010788D02*
X009579Y010788D01*
X009579Y010887D02*
X010274Y010887D01*
X009359Y011020D02*
X008418Y011961D01*
X004461Y011961D01*
X003792Y012630D01*
X004100Y012660D02*
X007732Y012660D01*
X007740Y012653D02*
X007929Y012465D01*
X007977Y012406D01*
X007989Y012404D01*
X007998Y012396D01*
X008074Y012396D01*
X008149Y012388D01*
X008159Y012396D01*
X008171Y012396D01*
X008225Y012450D01*
X008407Y012598D01*
X008421Y012592D01*
X008466Y012573D01*
X008501Y012559D01*
X008565Y012586D01*
X008661Y012625D01*
X008661Y012625D01*
X008707Y012738D01*
X008811Y012989D01*
X008914Y012740D01*
X008962Y012625D01*
X009056Y012587D01*
X009122Y012559D01*
X009122Y012559D01*
X009158Y012574D01*
X009202Y012592D01*
X009216Y012598D01*
X009398Y012450D01*
X009452Y012396D01*
X009464Y012396D01*
X009473Y012388D01*
X009549Y012396D01*
X009625Y012396D01*
X009634Y012404D01*
X009646Y012406D01*
X009694Y012465D01*
X009883Y012653D01*
X009942Y012701D01*
X009943Y012713D01*
X009952Y012722D01*
X009952Y012798D01*
X009959Y012874D01*
X009952Y012883D01*
X009952Y012895D01*
X009898Y012949D01*
X009757Y013122D01*
X009768Y013140D01*
X009773Y013160D01*
X009994Y013183D01*
X010070Y013183D01*
X010079Y013191D01*
X010091Y013192D01*
X010139Y013251D01*
X010193Y013305D01*
X010193Y013317D01*
X010201Y013327D01*
X010193Y013402D01*
X010193Y013669D01*
X010201Y013745D01*
X010193Y013754D01*
X010193Y013766D01*
X010139Y013820D01*
X010091Y013879D01*
X010079Y013881D01*
X010070Y013889D01*
X009994Y013889D01*
X009773Y013912D01*
X009768Y013932D01*
X009757Y013950D01*
X009898Y014122D01*
X009952Y014176D01*
X009952Y014188D01*
X009959Y014198D01*
X009952Y014274D01*
X009952Y014350D01*
X009943Y014358D01*
X009942Y014370D01*
X009883Y014419D01*
X009694Y014607D01*
X009646Y014666D01*
X009634Y014667D01*
X009625Y014676D01*
X009549Y014676D01*
X009473Y014684D01*
X009464Y014676D01*
X009452Y014676D01*
X009398Y014622D01*
X009226Y014481D01*
X009208Y014493D01*
X009208Y014493D01*
X009187Y014497D01*
X009165Y014719D01*
X009165Y014795D01*
X009156Y014803D01*
X009155Y014816D01*
X009096Y014864D01*
X009042Y014917D01*
X009030Y014917D01*
X009020Y014925D01*
X008945Y014917D01*
X008678Y014917D01*
X008602Y014925D01*
X000320Y014925D01*
X000320Y014827D02*
X008481Y014827D01*
X008468Y014816D02*
X008467Y014803D01*
X008458Y014795D01*
X008458Y014719D01*
X008436Y014497D01*
X008415Y014493D01*
X008397Y014481D01*
X008225Y014622D01*
X008171Y014676D01*
X008159Y014676D01*
X008149Y014684D01*
X008074Y014676D01*
X007998Y014676D01*
X007989Y014667D01*
X007977Y014666D01*
X007929Y014607D01*
X007740Y014419D01*
X007681Y014370D01*
X007680Y014358D01*
X007671Y014350D01*
X007671Y014274D01*
X007664Y014198D01*
X007671Y014188D01*
X007671Y014176D01*
X007725Y014122D01*
X007866Y013950D01*
X007855Y013932D01*
X007850Y013912D01*
X007629Y013889D01*
X007552Y013889D01*
X007544Y013881D01*
X007532Y013879D01*
X007484Y013820D01*
X007430Y013766D01*
X007430Y013754D01*
X007422Y013745D01*
X007430Y013669D01*
X007430Y013402D01*
X007422Y013327D01*
X007430Y013317D01*
X007430Y013305D01*
X007484Y013251D01*
X000320Y013251D01*
X000320Y013349D02*
X007424Y013349D01*
X007430Y013448D02*
X000320Y013448D01*
X000320Y013546D02*
X007430Y013546D01*
X007430Y013645D02*
X000320Y013645D01*
X000320Y013743D02*
X007422Y013743D01*
X007501Y013842D02*
X000320Y013842D01*
X000320Y013940D02*
X007860Y013940D01*
X007855Y013932D02*
X007855Y013932D01*
X007794Y014039D02*
X000320Y014039D01*
X000320Y014137D02*
X007711Y014137D01*
X007667Y014236D02*
X000320Y014236D01*
X000320Y014334D02*
X007671Y014334D01*
X007754Y014433D02*
X000320Y014433D01*
X000320Y014531D02*
X007853Y014531D01*
X007947Y014630D02*
X000320Y014630D01*
X000320Y014728D02*
X008458Y014728D01*
X008468Y014816D02*
X008527Y014864D01*
X008581Y014917D01*
X008593Y014917D01*
X008602Y014925D01*
X008604Y014925D02*
X009019Y014925D01*
X009021Y014925D02*
X015898Y014925D01*
X015898Y014827D02*
X009141Y014827D01*
X009165Y014728D02*
X015898Y014728D01*
X015898Y014630D02*
X009676Y014630D01*
X009770Y014531D02*
X015898Y014531D01*
X015898Y014433D02*
X009869Y014433D01*
X009952Y014334D02*
X015898Y014334D01*
X015898Y014236D02*
X009955Y014236D01*
X009912Y014137D02*
X015898Y014137D01*
X015898Y014039D02*
X011991Y014039D01*
X011974Y014056D02*
X011531Y014056D01*
X011414Y013939D01*
X011414Y013581D01*
X011098Y013581D01*
X010999Y013481D01*
X010999Y013063D01*
X011098Y012963D01*
X011517Y012963D01*
X011616Y013063D01*
X011616Y013378D01*
X011700Y013378D01*
X011700Y012976D01*
X011799Y012877D01*
X012217Y012877D01*
X012317Y012976D01*
X012317Y013395D01*
X012217Y013494D01*
X012090Y013494D01*
X012091Y013495D01*
X012091Y013939D01*
X011974Y014056D01*
X012090Y013940D02*
X015898Y013940D01*
X015898Y013842D02*
X012091Y013842D01*
X012091Y013743D02*
X015898Y013743D01*
X015898Y013645D02*
X012091Y013645D01*
X012091Y013546D02*
X015898Y013546D01*
X015898Y013448D02*
X012264Y013448D01*
X012317Y013349D02*
X014663Y013349D01*
X014692Y013379D02*
X014575Y013261D01*
X014575Y012818D01*
X014692Y012701D01*
X015135Y012701D01*
X015253Y012818D01*
X015253Y013261D01*
X015135Y013379D01*
X014692Y013379D01*
X014575Y013251D02*
X012317Y013251D01*
X012317Y013152D02*
X014575Y013152D01*
X014575Y013054D02*
X012317Y013054D01*
X012296Y012955D02*
X014575Y012955D01*
X014575Y012857D02*
X009957Y012857D01*
X009952Y012758D02*
X014635Y012758D01*
X015192Y012758D02*
X015898Y012758D01*
X015898Y012660D02*
X009891Y012660D01*
X009791Y012561D02*
X015898Y012561D01*
X015898Y012463D02*
X009692Y012463D01*
X009382Y012463D02*
X008241Y012463D01*
X008361Y012561D02*
X008496Y012561D01*
X008501Y012559D02*
X008501Y012559D01*
X008501Y012559D01*
X008506Y012561D02*
X009117Y012561D01*
X009127Y012561D02*
X009261Y012561D01*
X008962Y012625D02*
X008962Y012625D01*
X008962Y012625D01*
X008948Y012660D02*
X008675Y012660D01*
X008661Y012625D02*
X008661Y012625D01*
X008716Y012758D02*
X008907Y012758D01*
X008866Y012857D02*
X008757Y012857D01*
X008797Y012955D02*
X008825Y012955D01*
X007866Y013122D02*
X007725Y012949D01*
X007671Y012895D01*
X007671Y012883D01*
X007664Y012874D01*
X007671Y012798D01*
X007671Y012722D01*
X007680Y012713D01*
X007681Y012701D01*
X007740Y012653D01*
X007671Y012758D02*
X004100Y012758D01*
X004083Y012857D02*
X007665Y012857D01*
X007730Y012955D02*
X001665Y012955D01*
X001642Y013011D02*
X001490Y013163D01*
X001292Y013245D01*
X001077Y013245D01*
X000878Y013163D01*
X000726Y013011D01*
X000644Y012813D01*
X000644Y012598D01*
X000726Y012399D01*
X000878Y012247D01*
X000891Y012242D01*
X000761Y012188D01*
X000601Y012028D01*
X000514Y011818D01*
X000514Y011592D01*
X000601Y011382D01*
X000761Y011222D01*
X000922Y011155D01*
X000912Y011150D01*
X000845Y011102D01*
X000788Y011044D01*
X000740Y010978D01*
X000702Y010905D01*
X000677Y010827D01*
X000666Y010755D01*
X001134Y010755D01*
X001134Y010655D01*
X000666Y010655D01*
X000677Y010583D01*
X000702Y010506D01*
X000740Y010433D01*
X000788Y010366D01*
X000845Y010308D01*
X000912Y010260D01*
X000957Y010237D01*
X000778Y010163D01*
X000626Y010011D01*
X000544Y009813D01*
X000544Y009598D01*
X000626Y009399D01*
X000778Y009247D01*
X000930Y009184D01*
X000878Y009163D01*
X000726Y009011D01*
X000644Y008813D01*
X000644Y008598D01*
X000726Y008399D01*
X000878Y008247D01*
X000930Y008226D01*
X000778Y008163D01*
X000626Y008011D01*
X000544Y007813D01*
X000544Y007598D01*
X000626Y007399D01*
X000778Y007247D01*
X000977Y007165D01*
X001192Y007165D01*
X001390Y007247D01*
X001542Y007399D01*
X001624Y007598D01*
X001624Y007813D01*
X001542Y008011D01*
X001390Y008163D01*
X001338Y008184D01*
X001490Y008247D01*
X001642Y008399D01*
X001678Y008485D01*
X001883Y008485D01*
X002828Y009430D01*
X004999Y009430D01*
X004999Y009366D01*
X005098Y009266D01*
X005517Y009266D01*
X005616Y009366D01*
X005616Y009483D01*
X005981Y009483D01*
X006081Y009583D01*
X006081Y010001D01*
X005981Y010100D01*
X005774Y010100D01*
X005426Y010449D01*
X002354Y010449D01*
X002225Y010320D01*
X001831Y009925D01*
X001578Y009925D01*
X001542Y010011D01*
X001390Y010163D01*
X001306Y010198D01*
X001384Y010223D01*
X001457Y010260D01*
X001523Y010308D01*
X001581Y010366D01*
X001629Y010433D01*
X001666Y010506D01*
X001691Y010583D01*
X001703Y010655D01*
X001234Y010655D01*
X001234Y010755D01*
X001703Y010755D01*
X001691Y010827D01*
X001666Y010905D01*
X001629Y010978D01*
X001581Y011044D01*
X001523Y011102D01*
X001457Y011150D01*
X001384Y011187D01*
X001350Y011198D01*
X001407Y011222D01*
X001567Y011382D01*
X001654Y011592D01*
X001654Y011818D01*
X001567Y012028D01*
X001407Y012188D01*
X001377Y012201D01*
X001490Y012247D01*
X001642Y012399D01*
X001724Y012598D01*
X001724Y012813D01*
X001642Y013011D01*
X001600Y013054D02*
X007810Y013054D01*
X007866Y013122D02*
X007855Y013140D01*
X007850Y013160D01*
X007629Y013183D01*
X007552Y013183D01*
X007544Y013191D01*
X007532Y013192D01*
X007484Y013251D01*
X007852Y013152D02*
X001501Y013152D01*
X000867Y013152D02*
X000320Y013152D01*
X000320Y013054D02*
X000769Y013054D01*
X000703Y012955D02*
X000320Y012955D01*
X000320Y012857D02*
X000662Y012857D01*
X000644Y012758D02*
X000320Y012758D01*
X000320Y012660D02*
X000644Y012660D01*
X000659Y012561D02*
X000320Y012561D01*
X000320Y012463D02*
X000700Y012463D01*
X000762Y012364D02*
X000320Y012364D01*
X000320Y012266D02*
X000860Y012266D01*
X000740Y012167D02*
X000320Y012167D01*
X000320Y012069D02*
X000642Y012069D01*
X000577Y011970D02*
X000320Y011970D01*
X000320Y011872D02*
X000536Y011872D01*
X000514Y011773D02*
X000320Y011773D01*
X000320Y011675D02*
X000514Y011675D01*
X000521Y011576D02*
X000320Y011576D01*
X000320Y011478D02*
X000562Y011478D01*
X000604Y011379D02*
X000320Y011379D01*
X000320Y011281D02*
X000703Y011281D01*
X000858Y011182D02*
X000320Y011182D01*
X000320Y011084D02*
X000827Y011084D01*
X000745Y010985D02*
X000320Y010985D01*
X000320Y010887D02*
X000696Y010887D01*
X000671Y010788D02*
X000320Y010788D01*
X000320Y010690D02*
X001134Y010690D01*
X001234Y010690D02*
X005428Y010690D01*
X005428Y010788D02*
X001698Y010788D01*
X001672Y010887D02*
X005428Y010887D01*
X005428Y010958D02*
X005428Y010539D01*
X005527Y010440D01*
X005946Y010440D01*
X006045Y010539D01*
X006045Y010822D01*
X006410Y010822D01*
X006510Y010921D01*
X006510Y011339D01*
X006410Y011439D01*
X005992Y011439D01*
X005892Y011339D01*
X005892Y011057D01*
X005527Y011057D01*
X005428Y010958D01*
X005455Y010985D02*
X001624Y010985D01*
X001541Y011084D02*
X005892Y011084D01*
X005892Y011182D02*
X005148Y011182D01*
X005205Y011281D02*
X005892Y011281D01*
X005932Y011379D02*
X005205Y011379D01*
X005205Y011478D02*
X008590Y011478D01*
X008492Y011576D02*
X005205Y011576D01*
X005205Y011675D02*
X008393Y011675D01*
X008720Y011970D02*
X013200Y011970D01*
X013144Y011872D02*
X008818Y011872D01*
X008917Y011773D02*
X013122Y011773D01*
X013127Y011675D02*
X009015Y011675D01*
X008689Y011379D02*
X006470Y011379D01*
X006510Y011281D02*
X008358Y011281D01*
X008260Y011182D02*
X008018Y011182D01*
X007973Y011226D02*
X008073Y011127D01*
X008073Y010709D01*
X007973Y010609D01*
X007555Y010609D01*
X007455Y010709D01*
X007455Y011127D01*
X007555Y011226D01*
X007973Y011226D01*
X008073Y011084D02*
X008256Y011084D01*
X008256Y010985D02*
X008073Y010985D01*
X008073Y010887D02*
X008256Y010887D01*
X008256Y010788D02*
X008073Y010788D01*
X008054Y010690D02*
X008302Y010690D01*
X008595Y010870D02*
X008595Y010957D01*
X008934Y010985D02*
X009083Y010985D01*
X009139Y010887D02*
X008934Y010887D01*
X008934Y010788D02*
X009139Y010788D01*
X009081Y010690D02*
X008888Y010690D01*
X009050Y010591D02*
X006045Y010591D01*
X006045Y010690D02*
X007474Y010690D01*
X007455Y010788D02*
X006045Y010788D01*
X005999Y010493D02*
X009050Y010493D01*
X009050Y010394D02*
X005481Y010394D01*
X005475Y010493D02*
X001660Y010493D01*
X001693Y010591D02*
X005428Y010591D01*
X005579Y010296D02*
X009050Y010296D01*
X009093Y010197D02*
X005678Y010197D01*
X005983Y010099D02*
X008990Y010099D01*
X009667Y010394D02*
X010372Y010394D01*
X010279Y009803D02*
X009593Y009803D01*
X009593Y009705D02*
X010181Y009705D01*
X010386Y009599D02*
X010229Y009441D01*
X010229Y009008D01*
X010111Y008890D01*
X009862Y008621D02*
X008969Y008621D01*
X009041Y008523D02*
X009973Y008523D01*
X009959Y008424D02*
X009041Y008424D01*
X009041Y008326D02*
X009959Y008326D01*
X010057Y007932D02*
X007018Y007932D01*
X006920Y007833D02*
X010057Y007833D01*
X010057Y007735D02*
X006821Y007735D01*
X006006Y008227D02*
X001441Y008227D01*
X001425Y008129D02*
X005908Y008129D01*
X005809Y008030D02*
X001523Y008030D01*
X001575Y007932D02*
X005711Y007932D01*
X005612Y007833D02*
X001616Y007833D01*
X001624Y007735D02*
X005514Y007735D01*
X006105Y008326D02*
X001568Y008326D01*
X001652Y008424D02*
X006203Y008424D01*
X006302Y008523D02*
X001920Y008523D01*
X002019Y008621D02*
X006400Y008621D01*
X006499Y008720D02*
X002117Y008720D01*
X002216Y008818D02*
X006597Y008818D01*
X006696Y008917D02*
X002314Y008917D01*
X002413Y009015D02*
X006794Y009015D01*
X006893Y009114D02*
X002511Y009114D01*
X002610Y009212D02*
X006991Y009212D01*
X007090Y009311D02*
X005561Y009311D01*
X005616Y009409D02*
X007188Y009409D01*
X007287Y009508D02*
X006006Y009508D01*
X006081Y009606D02*
X007385Y009606D01*
X007484Y009705D02*
X006081Y009705D01*
X006081Y009803D02*
X007582Y009803D01*
X007681Y009902D02*
X006081Y009902D01*
X006081Y010000D02*
X007779Y010000D01*
X009533Y009606D02*
X009600Y009606D01*
X010386Y009599D02*
X011685Y009599D01*
X017315Y003969D01*
X021646Y003969D01*
X023890Y001725D01*
X023610Y001431D02*
X023580Y001431D01*
X023595Y001446D02*
X023664Y001376D01*
X024116Y001376D01*
X024166Y001426D01*
X024216Y001376D01*
X024667Y001376D01*
X024790Y001499D01*
X024790Y001951D01*
X024667Y002074D01*
X024216Y002074D01*
X024166Y002024D01*
X024116Y002074D01*
X023909Y002074D01*
X021866Y004116D01*
X021866Y004116D01*
X021793Y004189D01*
X021698Y004229D01*
X017423Y004229D01*
X016158Y005494D01*
X016158Y013568D01*
X016263Y013463D01*
X016714Y013463D01*
X016837Y013586D01*
X016837Y014037D01*
X016714Y014160D01*
X016263Y014160D01*
X016158Y014055D01*
X016158Y016425D01*
X020477Y016425D01*
X020573Y016465D01*
X020646Y016538D01*
X020686Y016634D01*
X020686Y018838D01*
X027315Y018838D01*
X027315Y017379D01*
X025295Y017379D01*
X025200Y017339D01*
X024688Y016827D01*
X024688Y016827D01*
X024615Y016754D01*
X024575Y016658D01*
X024575Y014283D01*
X024504Y014213D01*
X024504Y014611D01*
X024465Y014707D01*
X023801Y015370D01*
X023706Y015410D01*
X020335Y015410D01*
X020239Y015370D01*
X020166Y015297D01*
X019816Y014948D01*
X019609Y014948D01*
X019554Y014892D01*
X019554Y015100D01*
X019431Y015223D01*
X018979Y015223D01*
X018856Y015100D01*
X018856Y014649D01*
X018979Y014526D01*
X019431Y014526D01*
X019486Y014581D01*
X019486Y014373D01*
X019609Y014250D01*
X020061Y014250D01*
X020150Y014339D01*
X020239Y014250D01*
X020691Y014250D01*
X020741Y014300D01*
X020790Y014250D01*
X021242Y014250D01*
X021331Y014339D01*
X021420Y014250D01*
X021872Y014250D01*
X021995Y014373D01*
X021995Y014825D01*
X021929Y014890D01*
X023546Y014890D01*
X023984Y014452D01*
X023984Y013799D01*
X024024Y013704D01*
X024097Y013630D01*
X024097Y013630D01*
X025362Y012365D01*
X025362Y008209D01*
X025402Y008113D01*
X025475Y008040D01*
X026459Y007056D01*
X026555Y007016D01*
X027091Y007016D01*
X027187Y007056D01*
X027260Y007129D01*
X027315Y007184D01*
X027315Y006552D01*
X026646Y006552D01*
X026557Y006640D01*
X026105Y006640D01*
X025982Y006517D01*
X025982Y006066D01*
X026105Y005943D01*
X026557Y005943D01*
X026646Y006032D01*
X027315Y006032D01*
X027315Y004278D01*
X027090Y004278D01*
X026967Y004155D01*
X026967Y003704D01*
X027055Y003615D01*
X027055Y003169D01*
X027095Y003074D01*
X027168Y003000D01*
X027189Y002979D01*
X026775Y002979D01*
X026652Y002856D01*
X026652Y002405D01*
X026775Y002282D01*
X027226Y002282D01*
X027315Y002370D01*
X027315Y002370D01*
X027315Y000360D01*
X016158Y000360D01*
X016158Y001128D01*
X016201Y001110D01*
X023036Y001110D01*
X023132Y001150D01*
X023205Y001223D01*
X023358Y001376D01*
X023525Y001376D01*
X023595Y001446D01*
X023314Y001332D02*
X027315Y001332D01*
X027315Y001234D02*
X023215Y001234D01*
X023096Y001135D02*
X027315Y001135D01*
X027315Y001037D02*
X016158Y001037D01*
X016158Y000938D02*
X027315Y000938D01*
X027315Y000840D02*
X016158Y000840D01*
X016158Y000741D02*
X027315Y000741D01*
X027315Y000643D02*
X016158Y000643D01*
X016158Y000544D02*
X027315Y000544D01*
X027315Y000446D02*
X016158Y000446D01*
X014983Y000446D02*
X013557Y000446D01*
X013688Y000544D02*
X014111Y000544D01*
X014257Y000544D02*
X014357Y000544D01*
X014357Y000643D02*
X014257Y000643D01*
X014257Y000741D02*
X014357Y000741D01*
X014357Y000840D02*
X014257Y000840D01*
X014257Y000938D02*
X014357Y000938D01*
X014357Y001135D02*
X014257Y001135D01*
X014257Y001234D02*
X014357Y001234D01*
X014357Y001332D02*
X014257Y001332D01*
X014257Y001431D02*
X014357Y001431D01*
X014636Y001431D02*
X015034Y001431D01*
X014907Y001332D02*
X014728Y001332D01*
X014786Y001234D02*
X014818Y001234D01*
X013978Y001431D02*
X013502Y001431D01*
X013666Y001332D02*
X013886Y001332D01*
X013829Y001234D02*
X013764Y001234D01*
X013815Y000741D02*
X013872Y000741D01*
X013956Y000643D02*
X013774Y000643D01*
X013058Y000446D02*
X011557Y000446D01*
X011688Y000544D02*
X012062Y000544D01*
X011928Y000643D02*
X011774Y000643D01*
X011815Y000741D02*
X011841Y000741D01*
X012553Y000544D02*
X012927Y000544D01*
X012841Y000643D02*
X012687Y000643D01*
X012774Y000741D02*
X012800Y000741D01*
X011809Y001234D02*
X011764Y001234D01*
X011849Y001332D02*
X011666Y001332D01*
X011502Y001431D02*
X011948Y001431D01*
X012109Y001529D02*
X010506Y001529D01*
X010667Y001431D02*
X011113Y001431D01*
X010949Y001332D02*
X010766Y001332D01*
X010806Y001234D02*
X010851Y001234D01*
X010109Y001529D02*
X008123Y001529D01*
X008117Y001535D02*
X007919Y001617D01*
X007704Y001617D01*
X007506Y001535D01*
X007354Y001383D01*
X007291Y001231D01*
X007269Y001283D01*
X007117Y001435D01*
X006919Y001517D01*
X006704Y001517D01*
X006506Y001435D01*
X006354Y001283D01*
X006332Y001231D01*
X006269Y001383D01*
X006117Y001535D01*
X005919Y001617D01*
X005704Y001617D01*
X005506Y001535D01*
X005354Y001383D01*
X005291Y001231D01*
X005269Y001283D01*
X005117Y001435D01*
X004919Y001517D01*
X004704Y001517D01*
X004506Y001435D01*
X004354Y001283D01*
X004332Y001231D01*
X004269Y001383D01*
X004117Y001535D01*
X003919Y001617D01*
X003704Y001617D01*
X003506Y001535D01*
X003354Y001383D01*
X003271Y001184D01*
X003271Y000969D01*
X003354Y000771D01*
X003506Y000619D01*
X003704Y000537D01*
X003919Y000537D01*
X004117Y000619D01*
X004269Y000771D01*
X004291Y000823D01*
X004354Y000671D01*
X004506Y000519D01*
X004704Y000437D01*
X004919Y000437D01*
X005117Y000519D01*
X005269Y000671D01*
X005332Y000823D01*
X005354Y000771D01*
X005506Y000619D01*
X005704Y000537D01*
X005919Y000537D01*
X006117Y000619D01*
X006269Y000771D01*
X006291Y000823D01*
X006354Y000671D01*
X006506Y000519D01*
X006704Y000437D01*
X006919Y000437D01*
X007117Y000519D01*
X007269Y000671D01*
X007332Y000823D01*
X007354Y000771D01*
X007506Y000619D01*
X007704Y000537D01*
X007919Y000537D01*
X008117Y000619D01*
X008269Y000771D01*
X008291Y000823D01*
X008354Y000671D01*
X008506Y000519D01*
X008704Y000437D01*
X008919Y000437D01*
X009117Y000519D01*
X009269Y000671D01*
X009351Y000869D01*
X009351Y001084D01*
X009269Y001283D01*
X009117Y001435D01*
X008919Y001517D01*
X008704Y001517D01*
X008506Y001435D01*
X008354Y001283D01*
X008332Y001231D01*
X008269Y001383D01*
X008117Y001535D01*
X008221Y001431D02*
X008501Y001431D01*
X008403Y001332D02*
X008290Y001332D01*
X008331Y001234D02*
X008333Y001234D01*
X009121Y001431D02*
X009948Y001431D01*
X009849Y001332D02*
X009220Y001332D01*
X009290Y001234D02*
X009809Y001234D01*
X009768Y001135D02*
X009330Y001135D01*
X009351Y001037D02*
X009767Y001037D01*
X009767Y000938D02*
X009351Y000938D01*
X009339Y000840D02*
X009801Y000840D01*
X009841Y000741D02*
X009298Y000741D01*
X009241Y000643D02*
X009928Y000643D01*
X010062Y000544D02*
X009142Y000544D01*
X008940Y000446D02*
X011058Y000446D01*
X010927Y000544D02*
X010553Y000544D01*
X010687Y000643D02*
X010841Y000643D01*
X010800Y000741D02*
X010774Y000741D01*
X008683Y000446D02*
X006940Y000446D01*
X007142Y000544D02*
X007687Y000544D01*
X007482Y000643D02*
X007241Y000643D01*
X007298Y000741D02*
X007384Y000741D01*
X007936Y000544D02*
X008481Y000544D01*
X008382Y000643D02*
X008141Y000643D01*
X008239Y000741D02*
X008325Y000741D01*
X007292Y001234D02*
X007290Y001234D01*
X007333Y001332D02*
X007220Y001332D01*
X007121Y001431D02*
X007401Y001431D01*
X007500Y001529D02*
X006123Y001529D01*
X006221Y001431D02*
X006501Y001431D01*
X006403Y001332D02*
X006290Y001332D01*
X006331Y001234D02*
X006333Y001234D01*
X005500Y001529D02*
X004123Y001529D01*
X004221Y001431D02*
X004501Y001431D01*
X004403Y001332D02*
X004290Y001332D01*
X004331Y001234D02*
X004333Y001234D01*
X005121Y001431D02*
X005401Y001431D01*
X005333Y001332D02*
X005220Y001332D01*
X005290Y001234D02*
X005292Y001234D01*
X005298Y000741D02*
X005384Y000741D01*
X005482Y000643D02*
X005241Y000643D01*
X005142Y000544D02*
X005687Y000544D01*
X005936Y000544D02*
X006481Y000544D01*
X006382Y000643D02*
X006141Y000643D01*
X006239Y000741D02*
X006325Y000741D01*
X006683Y000446D02*
X004940Y000446D01*
X004683Y000446D02*
X002314Y000446D01*
X002508Y000544D02*
X003687Y000544D01*
X003482Y000643D02*
X002633Y000643D01*
X002731Y000741D02*
X003384Y000741D01*
X003325Y000840D02*
X002830Y000840D01*
X002904Y000938D02*
X003284Y000938D01*
X003271Y001037D02*
X002954Y001037D01*
X003004Y001135D02*
X003271Y001135D01*
X003292Y001234D02*
X003054Y001234D01*
X003088Y001332D02*
X003333Y001332D01*
X003401Y001431D02*
X003103Y001431D01*
X003119Y001529D02*
X003500Y001529D01*
X004239Y000741D02*
X004325Y000741D01*
X004382Y000643D02*
X004141Y000643D01*
X003936Y000544D02*
X004481Y000544D01*
X000497Y002416D02*
X000320Y002416D01*
X000320Y002514D02*
X000547Y002514D01*
X000622Y002613D02*
X000320Y002613D01*
X000320Y002711D02*
X000721Y002711D01*
X000819Y002810D02*
X000320Y002810D01*
X000320Y002908D02*
X000947Y002908D01*
X001140Y003007D02*
X000320Y003007D01*
X000320Y003105D02*
X001442Y003105D01*
X001218Y003401D02*
X005093Y003401D01*
X005093Y003302D02*
X000320Y003302D01*
X000320Y003204D02*
X005093Y003204D01*
X005093Y003105D02*
X002008Y003105D01*
X002310Y003007D02*
X005094Y003007D01*
X005166Y003499D02*
X001417Y003499D01*
X000950Y003401D02*
X000320Y003401D01*
X000320Y003499D02*
X000751Y003499D01*
X000653Y003598D02*
X000320Y003598D01*
X000320Y003696D02*
X000596Y003696D01*
X000556Y003795D02*
X000320Y003795D01*
X000320Y003893D02*
X000544Y003893D01*
X000544Y003992D02*
X000320Y003992D01*
X000320Y004090D02*
X000566Y004090D01*
X000607Y004189D02*
X000320Y004189D01*
X000320Y004287D02*
X000678Y004287D01*
X000777Y004386D02*
X000320Y004386D01*
X000320Y004484D02*
X000866Y004484D01*
X000768Y004583D02*
X000320Y004583D01*
X000320Y004681D02*
X000703Y004681D01*
X000662Y004780D02*
X000320Y004780D01*
X000320Y004878D02*
X000644Y004878D01*
X000644Y004977D02*
X000320Y004977D01*
X000320Y005075D02*
X000660Y005075D01*
X000701Y005174D02*
X000320Y005174D01*
X000320Y005272D02*
X000763Y005272D01*
X000862Y005371D02*
X000320Y005371D01*
X000320Y005469D02*
X000843Y005469D01*
X000711Y005568D02*
X000320Y005568D01*
X000320Y005666D02*
X000635Y005666D01*
X000591Y005765D02*
X000320Y005765D01*
X000320Y005863D02*
X000568Y005863D01*
X000580Y006060D02*
X000320Y006060D01*
X000320Y005962D02*
X001034Y005962D01*
X001034Y006060D02*
X001134Y006060D01*
X001134Y005980D02*
X001134Y006448D01*
X001206Y006437D01*
X001284Y006411D01*
X001357Y006374D01*
X001423Y006326D01*
X001481Y006268D01*
X001529Y006202D01*
X001566Y006129D01*
X001591Y006051D01*
X001603Y005980D01*
X001134Y005980D01*
X001134Y005962D02*
X007413Y005962D01*
X007315Y006060D02*
X001589Y006060D01*
X001551Y006159D02*
X007216Y006159D01*
X007118Y006257D02*
X001489Y006257D01*
X001383Y006356D02*
X007019Y006356D01*
X006977Y006454D02*
X000320Y006454D01*
X000320Y006356D02*
X000786Y006356D01*
X000679Y006257D02*
X000320Y006257D01*
X000320Y006159D02*
X000617Y006159D01*
X001034Y006159D02*
X001134Y006159D01*
X001134Y006257D02*
X001034Y006257D01*
X001034Y006356D02*
X001134Y006356D01*
X001600Y005863D02*
X007512Y005863D01*
X007610Y005765D02*
X001577Y005765D01*
X001534Y005666D02*
X007709Y005666D01*
X007807Y005568D02*
X001458Y005568D01*
X001326Y005469D02*
X010819Y005469D01*
X010918Y005371D02*
X001507Y005371D01*
X001605Y005272D02*
X006549Y005272D01*
X006583Y005305D02*
X006483Y005206D01*
X006483Y004787D01*
X006583Y004688D01*
X007001Y004688D01*
X007100Y004787D01*
X007100Y005206D01*
X007001Y005305D01*
X006583Y005305D01*
X006483Y005174D02*
X001668Y005174D01*
X001708Y005075D02*
X006483Y005075D01*
X006483Y004977D02*
X001724Y004977D01*
X001724Y004878D02*
X006483Y004878D01*
X006491Y004780D02*
X001707Y004780D01*
X001666Y004681D02*
X011607Y004681D01*
X011509Y004780D02*
X008404Y004780D01*
X008439Y004815D02*
X008439Y005233D01*
X008339Y005333D01*
X007921Y005333D01*
X007867Y005278D01*
X007820Y005325D01*
X007401Y005325D01*
X007302Y005225D01*
X007302Y004807D01*
X007401Y004707D01*
X007820Y004707D01*
X007874Y004762D01*
X007921Y004715D01*
X008339Y004715D01*
X008439Y004815D01*
X008439Y004878D02*
X011410Y004878D01*
X011312Y004977D02*
X008439Y004977D01*
X008439Y005075D02*
X011213Y005075D01*
X011115Y005174D02*
X008439Y005174D01*
X008400Y005272D02*
X011016Y005272D01*
X012252Y005962D02*
X013634Y005962D01*
X013670Y005925D02*
X013670Y005448D01*
X013581Y005359D01*
X013581Y004941D01*
X013681Y004841D01*
X014099Y004841D01*
X014199Y004941D01*
X014199Y005038D01*
X014532Y005038D01*
X014632Y005138D01*
X014632Y005556D01*
X014543Y005645D01*
X014543Y006186D01*
X014414Y006315D01*
X012467Y008263D01*
X012467Y008469D01*
X012367Y008569D01*
X011949Y008569D01*
X011849Y008469D01*
X011849Y008368D01*
X010971Y009247D01*
X010971Y009379D01*
X011594Y009379D01*
X015898Y005075D01*
X014569Y005075D01*
X014632Y005174D02*
X015800Y005174D01*
X015701Y005272D02*
X014632Y005272D01*
X014632Y005371D02*
X015603Y005371D01*
X015504Y005469D02*
X014632Y005469D01*
X014620Y005568D02*
X015406Y005568D01*
X015307Y005666D02*
X014543Y005666D01*
X014543Y005765D02*
X015209Y005765D01*
X015110Y005863D02*
X014543Y005863D01*
X014543Y005962D02*
X015012Y005962D01*
X014913Y006060D02*
X014543Y006060D01*
X014543Y006159D02*
X014815Y006159D01*
X014716Y006257D02*
X014472Y006257D01*
X014374Y006356D02*
X014618Y006356D01*
X014519Y006454D02*
X014275Y006454D01*
X014177Y006553D02*
X014421Y006553D01*
X014322Y006651D02*
X014078Y006651D01*
X013980Y006750D02*
X014224Y006750D01*
X014125Y006848D02*
X013881Y006848D01*
X013783Y006947D02*
X014027Y006947D01*
X013928Y007045D02*
X013684Y007045D01*
X013586Y007144D02*
X013830Y007144D01*
X013731Y007242D02*
X013487Y007242D01*
X013389Y007341D02*
X013633Y007341D01*
X013534Y007439D02*
X013290Y007439D01*
X013192Y007538D02*
X013436Y007538D01*
X013337Y007636D02*
X013093Y007636D01*
X012995Y007735D02*
X013239Y007735D01*
X013140Y007833D02*
X012896Y007833D01*
X012798Y007932D02*
X013042Y007932D01*
X012943Y008030D02*
X012699Y008030D01*
X012601Y008129D02*
X012845Y008129D01*
X012746Y008227D02*
X012502Y008227D01*
X012467Y008326D02*
X012648Y008326D01*
X012549Y008424D02*
X012467Y008424D01*
X012451Y008523D02*
X012413Y008523D01*
X012352Y008621D02*
X011596Y008621D01*
X011498Y008720D02*
X012254Y008720D01*
X012155Y008818D02*
X011399Y008818D01*
X011301Y008917D02*
X012057Y008917D01*
X011958Y009015D02*
X011202Y009015D01*
X011104Y009114D02*
X011860Y009114D01*
X011761Y009212D02*
X011005Y009212D01*
X010971Y009311D02*
X011663Y009311D01*
X011989Y009606D02*
X015898Y009606D01*
X015898Y009508D02*
X012088Y009508D01*
X012186Y009409D02*
X015898Y009409D01*
X015898Y009311D02*
X012285Y009311D01*
X012383Y009212D02*
X015898Y009212D01*
X015898Y009114D02*
X012482Y009114D01*
X012580Y009015D02*
X015898Y009015D01*
X015898Y008917D02*
X013618Y008917D01*
X013711Y008818D02*
X015898Y008818D01*
X015898Y008720D02*
X013711Y008720D01*
X013711Y008621D02*
X015898Y008621D01*
X015898Y008523D02*
X013711Y008523D01*
X013711Y008424D02*
X015898Y008424D01*
X015898Y008326D02*
X013631Y008326D01*
X013467Y008129D02*
X015898Y008129D01*
X015898Y008227D02*
X013368Y008227D01*
X013565Y008030D02*
X015898Y008030D01*
X015898Y007932D02*
X013664Y007932D01*
X013762Y007833D02*
X015898Y007833D01*
X015898Y007735D02*
X013861Y007735D01*
X013959Y007636D02*
X015898Y007636D01*
X015898Y007538D02*
X014058Y007538D01*
X014156Y007439D02*
X015898Y007439D01*
X015898Y007341D02*
X014255Y007341D01*
X014353Y007242D02*
X015898Y007242D01*
X015898Y007144D02*
X014452Y007144D01*
X014550Y007045D02*
X015898Y007045D01*
X015898Y006947D02*
X014649Y006947D01*
X014747Y006848D02*
X015898Y006848D01*
X015898Y006750D02*
X015722Y006750D01*
X015734Y006651D02*
X015898Y006651D01*
X015898Y006553D02*
X015734Y006553D01*
X015734Y006454D02*
X015898Y006454D01*
X015898Y006356D02*
X015734Y006356D01*
X015673Y006257D02*
X015898Y006257D01*
X015898Y006159D02*
X015437Y006159D01*
X015535Y006060D02*
X015898Y006060D01*
X015898Y005962D02*
X015634Y005962D01*
X015732Y005863D02*
X015898Y005863D01*
X015898Y005765D02*
X015831Y005765D01*
X016158Y005765D02*
X027315Y005765D01*
X027315Y005863D02*
X016158Y005863D01*
X016158Y005962D02*
X026087Y005962D01*
X025988Y006060D02*
X016158Y006060D01*
X016158Y006159D02*
X025982Y006159D01*
X025982Y006257D02*
X016158Y006257D01*
X016158Y006356D02*
X025982Y006356D01*
X025982Y006454D02*
X016158Y006454D01*
X016158Y006553D02*
X026017Y006553D01*
X026331Y006292D02*
X028772Y006292D01*
X029638Y005426D01*
X033851Y005426D01*
X034363Y005937D01*
X035737Y005937D01*
X035859Y006059D01*
X034933Y006060D02*
X039398Y006060D01*
X039398Y005962D02*
X034933Y005962D01*
X034933Y005863D02*
X039398Y005863D01*
X039398Y005765D02*
X034933Y005765D01*
X034933Y005666D02*
X039398Y005666D01*
X039398Y005568D02*
X034934Y005568D01*
X034934Y005469D02*
X039398Y005469D01*
X039398Y005371D02*
X034934Y005371D01*
X034934Y005272D02*
X039398Y005272D01*
X039398Y005174D02*
X034935Y005174D01*
X034935Y005075D02*
X039398Y005075D01*
X039398Y004977D02*
X034935Y004977D01*
X034935Y004878D02*
X039398Y004878D01*
X039398Y004780D02*
X034935Y004780D01*
X034936Y004681D02*
X039398Y004681D01*
X039398Y004583D02*
X034936Y004583D01*
X034936Y004484D02*
X039398Y004484D01*
X039398Y004386D02*
X034936Y004386D01*
X034937Y004287D02*
X039398Y004287D01*
X039398Y004189D02*
X034937Y004189D01*
X034937Y004090D02*
X039398Y004090D01*
X039398Y003992D02*
X034937Y003992D01*
X034937Y003910D02*
X034930Y007430D01*
X036418Y007433D01*
X036426Y007961D01*
X039398Y007961D01*
X039398Y003914D01*
X034937Y003910D01*
X034687Y004108D02*
X034653Y004189D01*
X034338Y004504D01*
X034268Y004575D01*
X034176Y004613D01*
X029864Y004613D01*
X029772Y004575D01*
X029741Y004544D01*
X029535Y004544D01*
X029418Y004427D01*
X029418Y003984D01*
X029535Y003866D01*
X029978Y003866D01*
X030095Y003984D01*
X030095Y004113D01*
X034023Y004113D01*
X034191Y003944D01*
X034191Y003604D01*
X034229Y003512D01*
X034300Y003442D01*
X034378Y003364D01*
X034378Y003196D01*
X034495Y003079D01*
X034939Y003079D01*
X035056Y003196D01*
X035056Y003639D01*
X035035Y003660D01*
X039398Y003664D01*
X039448Y003664D01*
X039493Y003683D01*
X039540Y003702D01*
X039567Y003729D01*
X039567Y001737D01*
X039555Y001549D01*
X039458Y001187D01*
X039270Y000862D01*
X039005Y000597D01*
X038680Y000409D01*
X038317Y000312D01*
X038130Y000300D01*
X027591Y000300D01*
X027591Y002380D01*
X033782Y002380D01*
X033874Y002418D01*
X034023Y002567D01*
X034230Y002567D01*
X034347Y002684D01*
X034347Y003127D01*
X034230Y003245D01*
X033787Y003245D01*
X033670Y003127D01*
X033670Y002921D01*
X033629Y002880D01*
X033048Y002880D01*
X033048Y003167D01*
X032931Y003284D01*
X032487Y003284D01*
X032399Y003195D01*
X027694Y003195D01*
X027591Y003299D01*
X027591Y003645D01*
X027654Y003708D01*
X027654Y004151D01*
X027591Y004214D01*
X027591Y006042D01*
X028668Y006042D01*
X029497Y005214D01*
X029588Y005176D01*
X033901Y005176D01*
X033992Y005214D01*
X034466Y005687D01*
X034683Y005687D01*
X034687Y004108D01*
X034687Y004189D02*
X034654Y004189D01*
X034687Y004287D02*
X034556Y004287D01*
X034457Y004386D02*
X034686Y004386D01*
X034686Y004484D02*
X034359Y004484D01*
X034249Y004583D02*
X034686Y004583D01*
X034686Y004681D02*
X027591Y004681D01*
X027591Y004583D02*
X029791Y004583D01*
X029914Y004363D02*
X029756Y004205D01*
X029914Y004363D02*
X034126Y004363D01*
X034441Y004048D01*
X034441Y003654D01*
X034678Y003418D01*
X034717Y003418D01*
X035056Y003401D02*
X039567Y003401D01*
X039567Y003499D02*
X035056Y003499D01*
X035056Y003598D02*
X039567Y003598D01*
X039567Y003696D02*
X039526Y003696D01*
X039540Y003702D02*
X039540Y003702D01*
X039540Y003702D01*
X039448Y003664D02*
X039448Y003664D01*
X039448Y003664D01*
X039567Y003302D02*
X035056Y003302D01*
X035056Y003204D02*
X039567Y003204D01*
X039567Y003105D02*
X034965Y003105D01*
X034469Y003105D02*
X034347Y003105D01*
X034347Y003007D02*
X037960Y003007D01*
X038034Y003025D02*
X037618Y002920D01*
X037618Y002920D01*
X037258Y002685D01*
X037258Y002685D01*
X037258Y002685D01*
X036994Y002346D01*
X036855Y001940D01*
X036855Y001510D01*
X036994Y001104D01*
X036994Y001104D01*
X037258Y000765D01*
X037258Y000765D01*
X037618Y000530D01*
X037618Y000530D01*
X038034Y000424D01*
X038034Y000424D01*
X038462Y000460D01*
X038856Y000632D01*
X039172Y000923D01*
X039172Y000923D01*
X039376Y001301D01*
X039447Y001725D01*
X039376Y002149D01*
X039172Y002526D01*
X039172Y002526D01*
X038856Y002817D01*
X038856Y002817D01*
X038462Y002990D01*
X038034Y003025D01*
X038034Y003025D01*
X038262Y003007D02*
X039567Y003007D01*
X039567Y002908D02*
X038649Y002908D01*
X038462Y002990D02*
X038462Y002990D01*
X038864Y002810D02*
X039567Y002810D01*
X039567Y002711D02*
X038971Y002711D01*
X039078Y002613D02*
X039567Y002613D01*
X039567Y002514D02*
X039179Y002514D01*
X039172Y002526D02*
X039172Y002526D01*
X039232Y002416D02*
X039567Y002416D01*
X039567Y002317D02*
X039285Y002317D01*
X039339Y002219D02*
X039567Y002219D01*
X039567Y002120D02*
X039381Y002120D01*
X039376Y002149D02*
X039376Y002149D01*
X039398Y002022D02*
X039567Y002022D01*
X039567Y001923D02*
X039414Y001923D01*
X039430Y001825D02*
X039567Y001825D01*
X039566Y001726D02*
X039447Y001726D01*
X039431Y001628D02*
X039560Y001628D01*
X039549Y001529D02*
X039414Y001529D01*
X039398Y001431D02*
X039523Y001431D01*
X039496Y001332D02*
X039382Y001332D01*
X039376Y001301D02*
X039376Y001301D01*
X039340Y001234D02*
X039470Y001234D01*
X039427Y001135D02*
X039287Y001135D01*
X039233Y001037D02*
X039371Y001037D01*
X039314Y000938D02*
X039180Y000938D01*
X039247Y000840D02*
X039081Y000840D01*
X039149Y000741D02*
X038974Y000741D01*
X039050Y000643D02*
X038867Y000643D01*
X038856Y000632D02*
X038856Y000632D01*
X038913Y000544D02*
X038655Y000544D01*
X038742Y000446D02*
X038291Y000446D01*
X038462Y000460D02*
X038462Y000460D01*
X038447Y000347D02*
X027591Y000347D01*
X027591Y000446D02*
X037950Y000446D01*
X037596Y000544D02*
X027591Y000544D01*
X027591Y000643D02*
X037445Y000643D01*
X037295Y000741D02*
X027591Y000741D01*
X027591Y000840D02*
X037200Y000840D01*
X037123Y000938D02*
X027591Y000938D01*
X027591Y001037D02*
X037047Y001037D01*
X036984Y001135D02*
X027591Y001135D01*
X027591Y001234D02*
X036950Y001234D01*
X036916Y001332D02*
X027591Y001332D01*
X027591Y001431D02*
X036882Y001431D01*
X036855Y001529D02*
X027591Y001529D01*
X027591Y001628D02*
X036855Y001628D01*
X036855Y001726D02*
X027591Y001726D01*
X027591Y001825D02*
X036855Y001825D01*
X036855Y001923D02*
X027591Y001923D01*
X027591Y002022D02*
X036883Y002022D01*
X036917Y002120D02*
X027591Y002120D01*
X027591Y002219D02*
X036951Y002219D01*
X036984Y002317D02*
X027591Y002317D01*
X027315Y002317D02*
X027262Y002317D01*
X027315Y002219D02*
X023764Y002219D01*
X023666Y002317D02*
X026739Y002317D01*
X026652Y002416D02*
X023567Y002416D01*
X023469Y002514D02*
X026652Y002514D01*
X026652Y002613D02*
X023370Y002613D01*
X023272Y002711D02*
X026652Y002711D01*
X026652Y002810D02*
X023173Y002810D01*
X023075Y002908D02*
X026704Y002908D01*
X027082Y003105D02*
X022878Y003105D01*
X022976Y003007D02*
X027162Y003007D01*
X027055Y003204D02*
X022779Y003204D01*
X022681Y003302D02*
X027055Y003302D01*
X027055Y003401D02*
X022582Y003401D01*
X022484Y003499D02*
X027055Y003499D01*
X027055Y003598D02*
X022385Y003598D01*
X022287Y003696D02*
X026974Y003696D01*
X026967Y003795D02*
X022188Y003795D01*
X022090Y003893D02*
X026967Y003893D01*
X026967Y003992D02*
X021991Y003992D01*
X021893Y004090D02*
X026967Y004090D01*
X027000Y004189D02*
X021794Y004189D01*
X021538Y003709D02*
X023174Y002074D01*
X023074Y002074D01*
X022951Y001951D01*
X022951Y001704D01*
X022877Y001630D01*
X022664Y001630D01*
X022664Y001951D01*
X022614Y002000D01*
X022664Y002050D01*
X022664Y002502D01*
X022541Y002625D01*
X022090Y002625D01*
X021967Y002502D01*
X021967Y002050D01*
X022016Y002000D01*
X022001Y001985D01*
X021851Y001985D01*
X021916Y002050D01*
X021916Y002502D01*
X021793Y002625D01*
X021342Y002625D01*
X021219Y002502D01*
X021219Y002166D01*
X020961Y002423D01*
X020961Y002423D01*
X020888Y002496D01*
X020792Y002536D01*
X018998Y002536D01*
X018678Y002856D01*
X018604Y002929D01*
X018509Y002969D01*
X016516Y002969D01*
X016420Y002929D01*
X016158Y002667D01*
X016158Y003381D01*
X016184Y003355D01*
X016279Y003315D01*
X019088Y003315D01*
X019176Y003226D01*
X019628Y003226D01*
X019751Y003349D01*
X019751Y003709D01*
X021538Y003709D01*
X021551Y003696D02*
X019751Y003696D01*
X019751Y003598D02*
X021650Y003598D01*
X021748Y003499D02*
X019751Y003499D01*
X019751Y003401D02*
X021847Y003401D01*
X021945Y003302D02*
X019703Y003302D01*
X019402Y003575D02*
X016331Y003575D01*
X015504Y004402D01*
X015502Y004093D02*
X015295Y004093D01*
X015196Y004193D01*
X015196Y004611D01*
X015295Y004711D01*
X015713Y004711D01*
X015813Y004611D01*
X015813Y004404D01*
X015898Y004319D01*
X015898Y005075D01*
X015898Y004977D02*
X014199Y004977D01*
X014136Y004878D02*
X015898Y004878D01*
X015898Y004780D02*
X013434Y004780D01*
X013335Y004878D02*
X013644Y004878D01*
X013581Y004977D02*
X013237Y004977D01*
X013138Y005075D02*
X013581Y005075D01*
X013581Y005174D02*
X013040Y005174D01*
X012941Y005272D02*
X013581Y005272D01*
X013593Y005371D02*
X012843Y005371D01*
X012744Y005469D02*
X013670Y005469D01*
X013670Y005568D02*
X012646Y005568D01*
X012547Y005666D02*
X013670Y005666D01*
X013670Y005765D02*
X012449Y005765D01*
X012350Y005863D02*
X013670Y005863D01*
X013670Y005925D02*
X011128Y008467D01*
X011128Y008169D01*
X011028Y008070D01*
X010610Y008070D01*
X010577Y008103D01*
X010577Y008090D01*
X010497Y008011D01*
X010497Y007716D01*
X013874Y004339D01*
X013874Y002997D01*
X014611Y002260D01*
X015807Y002260D01*
X015898Y002351D01*
X015898Y003697D01*
X015502Y004093D01*
X015505Y004090D02*
X013874Y004090D01*
X013874Y003992D02*
X015604Y003992D01*
X015702Y003893D02*
X013874Y003893D01*
X013874Y003795D02*
X015801Y003795D01*
X015898Y003696D02*
X013874Y003696D01*
X013874Y003598D02*
X015898Y003598D01*
X015898Y003499D02*
X013874Y003499D01*
X013874Y003401D02*
X015898Y003401D01*
X015898Y003302D02*
X013874Y003302D01*
X013874Y003204D02*
X015898Y003204D01*
X015898Y003105D02*
X013874Y003105D01*
X013874Y003007D02*
X015898Y003007D01*
X015898Y002908D02*
X013963Y002908D01*
X014061Y002810D02*
X015898Y002810D01*
X015898Y002711D02*
X014160Y002711D01*
X014258Y002613D02*
X015898Y002613D01*
X015898Y002514D02*
X014357Y002514D01*
X014455Y002416D02*
X015898Y002416D01*
X015864Y002317D02*
X014554Y002317D01*
X014520Y002040D02*
X015898Y002040D01*
X016567Y002709D01*
X018457Y002709D01*
X018890Y002276D01*
X020741Y002276D01*
X021292Y001725D01*
X022315Y001725D01*
X022664Y001726D02*
X022951Y001726D01*
X022951Y001825D02*
X022664Y001825D01*
X022664Y001923D02*
X022951Y001923D01*
X023022Y002022D02*
X022635Y002022D01*
X022664Y002120D02*
X023127Y002120D01*
X023029Y002219D02*
X022664Y002219D01*
X022664Y002317D02*
X022930Y002317D01*
X022832Y002416D02*
X022664Y002416D01*
X022652Y002514D02*
X022733Y002514D01*
X022635Y002613D02*
X022553Y002613D01*
X022536Y002711D02*
X018823Y002711D01*
X018921Y002613D02*
X021329Y002613D01*
X021231Y002514D02*
X020845Y002514D01*
X020969Y002416D02*
X021219Y002416D01*
X021219Y002317D02*
X021067Y002317D01*
X021166Y002219D02*
X021219Y002219D01*
X020824Y001825D02*
X016166Y001825D01*
X016158Y001832D02*
X016158Y001932D01*
X016675Y002449D01*
X017911Y002449D01*
X017911Y002050D01*
X018035Y001927D01*
X018486Y001927D01*
X018609Y002050D01*
X018609Y002189D01*
X018743Y002056D01*
X018838Y002016D01*
X020633Y002016D01*
X021018Y001630D01*
X016360Y001630D01*
X016158Y001832D01*
X016158Y001923D02*
X020726Y001923D01*
X020923Y001726D02*
X016265Y001726D01*
X016252Y001370D02*
X015819Y001804D01*
X013339Y001804D01*
X012788Y002355D01*
X016158Y002711D02*
X016202Y002711D01*
X016158Y002810D02*
X016300Y002810D01*
X016399Y002908D02*
X016158Y002908D01*
X016158Y003007D02*
X022241Y003007D01*
X022142Y003105D02*
X016158Y003105D01*
X016158Y003204D02*
X022044Y003204D01*
X022339Y002908D02*
X018626Y002908D01*
X018678Y002856D02*
X018678Y002856D01*
X018724Y002810D02*
X022438Y002810D01*
X022077Y002613D02*
X021805Y002613D01*
X021904Y002514D02*
X021979Y002514D01*
X021967Y002416D02*
X021916Y002416D01*
X021916Y002317D02*
X021967Y002317D01*
X021967Y002219D02*
X021916Y002219D01*
X021916Y002120D02*
X021967Y002120D01*
X021995Y002022D02*
X021887Y002022D01*
X022985Y001370D02*
X016252Y001370D01*
X016247Y002022D02*
X017940Y002022D01*
X017911Y002120D02*
X016346Y002120D01*
X016444Y002219D02*
X017911Y002219D01*
X017911Y002317D02*
X016543Y002317D01*
X016641Y002416D02*
X017911Y002416D01*
X018609Y002120D02*
X018678Y002120D01*
X018580Y002022D02*
X018825Y002022D01*
X019101Y003302D02*
X016158Y003302D01*
X015200Y004189D02*
X013874Y004189D01*
X013874Y004287D02*
X015196Y004287D01*
X015196Y004386D02*
X013828Y004386D01*
X013729Y004484D02*
X015196Y004484D01*
X015196Y004583D02*
X013631Y004583D01*
X013532Y004681D02*
X015265Y004681D01*
X015743Y004681D02*
X015898Y004681D01*
X015898Y004583D02*
X015813Y004583D01*
X015813Y004484D02*
X015898Y004484D01*
X015898Y004386D02*
X015832Y004386D01*
X016872Y004780D02*
X018253Y004780D01*
X018271Y004762D02*
X018722Y004762D01*
X018845Y004885D01*
X018845Y005336D01*
X018722Y005459D01*
X018271Y005459D01*
X018148Y005336D01*
X018148Y004885D01*
X018271Y004762D01*
X018155Y004878D02*
X016774Y004878D01*
X016675Y004977D02*
X018148Y004977D01*
X018148Y005075D02*
X016577Y005075D01*
X016478Y005174D02*
X018148Y005174D01*
X018148Y005272D02*
X016380Y005272D01*
X016281Y005371D02*
X018182Y005371D01*
X018811Y005371D02*
X023648Y005371D01*
X023648Y005447D02*
X023648Y004995D01*
X023771Y004872D01*
X024222Y004872D01*
X024226Y004876D01*
X024651Y004876D01*
X024655Y004880D01*
X025080Y004880D01*
X025203Y005003D01*
X025203Y005454D01*
X025080Y005577D01*
X024629Y005577D01*
X024625Y005574D01*
X024200Y005574D01*
X024196Y005570D01*
X023771Y005570D01*
X023648Y005447D01*
X023670Y005469D02*
X016183Y005469D01*
X016158Y005568D02*
X023769Y005568D01*
X023648Y005272D02*
X018845Y005272D01*
X018845Y005174D02*
X023648Y005174D01*
X023648Y005075D02*
X018845Y005075D01*
X018845Y004977D02*
X023666Y004977D01*
X023765Y004878D02*
X018838Y004878D01*
X018740Y004780D02*
X027315Y004780D01*
X027315Y004878D02*
X024653Y004878D01*
X025177Y004977D02*
X027315Y004977D01*
X027315Y005075D02*
X025203Y005075D01*
X025203Y005174D02*
X027315Y005174D01*
X027315Y005272D02*
X025203Y005272D01*
X025203Y005371D02*
X027315Y005371D01*
X027315Y005469D02*
X025189Y005469D01*
X025090Y005568D02*
X027315Y005568D01*
X027315Y005666D02*
X016158Y005666D01*
X015117Y006553D02*
X015043Y006553D01*
X015117Y006651D02*
X014944Y006651D01*
X014846Y006750D02*
X015129Y006750D01*
X016158Y006750D02*
X027315Y006750D01*
X027315Y006848D02*
X016158Y006848D01*
X016158Y006947D02*
X027315Y006947D01*
X027315Y007045D02*
X027162Y007045D01*
X027275Y007144D02*
X027315Y007144D01*
X027040Y007276D02*
X026607Y007276D01*
X025622Y008260D01*
X025622Y012473D01*
X024244Y013851D01*
X024244Y014559D01*
X023654Y015150D01*
X020386Y015150D01*
X019835Y014599D01*
X019486Y014531D02*
X019436Y014531D01*
X019486Y014433D02*
X016158Y014433D01*
X016158Y014531D02*
X018974Y014531D01*
X018876Y014630D02*
X016158Y014630D01*
X016158Y014728D02*
X018856Y014728D01*
X018856Y014827D02*
X016158Y014827D01*
X016158Y014925D02*
X018856Y014925D01*
X018856Y015024D02*
X016158Y015024D01*
X016158Y015122D02*
X018878Y015122D01*
X018977Y015221D02*
X016158Y015221D01*
X016158Y015319D02*
X020188Y015319D01*
X020089Y015221D02*
X019433Y015221D01*
X019532Y015122D02*
X019991Y015122D01*
X019892Y015024D02*
X019554Y015024D01*
X019554Y014925D02*
X019587Y014925D01*
X019525Y014334D02*
X016158Y014334D01*
X016158Y014236D02*
X023984Y014236D01*
X023984Y014334D02*
X021956Y014334D01*
X021995Y014433D02*
X023984Y014433D01*
X023905Y014531D02*
X021995Y014531D01*
X021995Y014630D02*
X023807Y014630D01*
X023708Y014728D02*
X021995Y014728D01*
X021993Y014827D02*
X023610Y014827D01*
X024148Y015024D02*
X024575Y015024D01*
X024575Y015122D02*
X024050Y015122D01*
X023951Y015221D02*
X024575Y015221D01*
X024575Y015319D02*
X023853Y015319D01*
X024247Y014925D02*
X024575Y014925D01*
X024575Y014827D02*
X024345Y014827D01*
X024444Y014728D02*
X024575Y014728D01*
X024575Y014630D02*
X024497Y014630D01*
X024504Y014531D02*
X024575Y014531D01*
X024575Y014433D02*
X024504Y014433D01*
X024504Y014334D02*
X024575Y014334D01*
X024527Y014236D02*
X024504Y014236D01*
X024835Y013969D02*
X024835Y016607D01*
X025347Y017119D01*
X036134Y017119D01*
X037000Y016252D01*
X037000Y014363D01*
X037119Y014244D01*
X036706Y014236D02*
X039421Y014236D01*
X039421Y014334D02*
X036705Y014334D01*
X036705Y014433D02*
X039421Y014433D01*
X039422Y014524D02*
X039410Y010626D01*
X034831Y010630D01*
X034831Y011965D01*
X036709Y011965D01*
X036705Y014516D01*
X039422Y014524D01*
X039517Y014755D02*
X039472Y014774D01*
X039471Y014774D01*
X039422Y014774D01*
X039373Y014774D01*
X039372Y014774D01*
X037250Y014768D01*
X037250Y016302D01*
X037212Y016394D01*
X036276Y017330D01*
X036184Y017369D01*
X035695Y017369D01*
X035892Y017565D01*
X036015Y017863D01*
X036015Y018185D01*
X035892Y018483D01*
X035664Y018711D01*
X035366Y018834D01*
X035044Y018834D01*
X034746Y018711D01*
X034518Y018483D01*
X034395Y018185D01*
X034395Y017863D01*
X034518Y017565D01*
X034715Y017369D01*
X027591Y017369D01*
X027591Y018851D01*
X037992Y018851D01*
X037736Y018786D01*
X037376Y018551D01*
X037113Y018212D01*
X036973Y017806D01*
X036973Y017376D01*
X037113Y016970D01*
X037113Y016970D01*
X037376Y016631D01*
X037376Y016631D01*
X037376Y016631D01*
X037736Y016396D01*
X038152Y016290D01*
X038581Y016326D01*
X038974Y016498D01*
X039290Y016789D01*
X039290Y016789D01*
X039495Y017167D01*
X039565Y017591D01*
X039495Y018015D01*
X039290Y018392D01*
X039290Y018392D01*
X038974Y018683D01*
X038593Y018851D01*
X038647Y018851D01*
X038817Y018805D01*
X039092Y018647D01*
X039316Y018423D01*
X039474Y018148D01*
X039557Y017842D01*
X039567Y017683D01*
X039550Y017683D01*
X039567Y017683D02*
X039567Y014732D01*
X039564Y014736D01*
X039563Y014736D01*
X039563Y014736D01*
X039517Y014755D01*
X039471Y014774D02*
X039471Y014774D01*
X039567Y014827D02*
X037250Y014827D01*
X037250Y014925D02*
X039567Y014925D01*
X039567Y015024D02*
X037250Y015024D01*
X037250Y015122D02*
X039567Y015122D01*
X039567Y015221D02*
X037250Y015221D01*
X037250Y015319D02*
X039567Y015319D01*
X039567Y015418D02*
X037250Y015418D01*
X037250Y015516D02*
X039567Y015516D01*
X039567Y015615D02*
X037250Y015615D01*
X037250Y015713D02*
X039567Y015713D01*
X039567Y015812D02*
X037250Y015812D01*
X037250Y015910D02*
X039567Y015910D01*
X039567Y016009D02*
X037250Y016009D01*
X037250Y016107D02*
X039567Y016107D01*
X039567Y016206D02*
X037250Y016206D01*
X037250Y016304D02*
X038099Y016304D01*
X038152Y016290D02*
X038152Y016290D01*
X038317Y016304D02*
X039567Y016304D01*
X039567Y016403D02*
X038755Y016403D01*
X038581Y016326D02*
X038581Y016326D01*
X038974Y016498D02*
X038974Y016498D01*
X038977Y016501D02*
X039567Y016501D01*
X039567Y016600D02*
X039084Y016600D01*
X039191Y016698D02*
X039567Y016698D01*
X039567Y016797D02*
X039294Y016797D01*
X039347Y016895D02*
X039567Y016895D01*
X039567Y016994D02*
X039401Y016994D01*
X039454Y017092D02*
X039567Y017092D01*
X039567Y017191D02*
X039498Y017191D01*
X039495Y017167D02*
X039495Y017167D01*
X039515Y017289D02*
X039567Y017289D01*
X039567Y017388D02*
X039531Y017388D01*
X039548Y017486D02*
X039567Y017486D01*
X039564Y017585D02*
X039567Y017585D01*
X039560Y017782D02*
X039533Y017782D01*
X039546Y017880D02*
X039517Y017880D01*
X039520Y017979D02*
X039501Y017979D01*
X039495Y018015D02*
X039495Y018015D01*
X039493Y018077D02*
X039461Y018077D01*
X039459Y018176D02*
X039407Y018176D01*
X039402Y018274D02*
X039354Y018274D01*
X039345Y018373D02*
X039301Y018373D01*
X039267Y018471D02*
X039205Y018471D01*
X039169Y018570D02*
X039098Y018570D01*
X039055Y018668D02*
X038991Y018668D01*
X038974Y018683D02*
X038974Y018683D01*
X038884Y018767D02*
X038785Y018767D01*
X037736Y018786D02*
X037736Y018786D01*
X037706Y018767D02*
X035529Y018767D01*
X035707Y018668D02*
X037555Y018668D01*
X037405Y018570D02*
X035805Y018570D01*
X035897Y018471D02*
X037314Y018471D01*
X037376Y018551D02*
X037376Y018551D01*
X037376Y018551D01*
X037237Y018373D02*
X035937Y018373D01*
X035978Y018274D02*
X037161Y018274D01*
X037113Y018212D02*
X037113Y018212D01*
X037100Y018176D02*
X036015Y018176D01*
X036015Y018077D02*
X037066Y018077D01*
X037032Y017979D02*
X036015Y017979D01*
X036015Y017880D02*
X036999Y017880D01*
X036973Y017782D02*
X035981Y017782D01*
X035941Y017683D02*
X036973Y017683D01*
X036973Y017585D02*
X035900Y017585D01*
X035813Y017486D02*
X036973Y017486D01*
X036973Y017388D02*
X035714Y017388D01*
X036317Y017289D02*
X037003Y017289D01*
X037037Y017191D02*
X036416Y017191D01*
X036514Y017092D02*
X037071Y017092D01*
X037104Y016994D02*
X036613Y016994D01*
X036711Y016895D02*
X037171Y016895D01*
X037247Y016797D02*
X036810Y016797D01*
X036908Y016698D02*
X037324Y016698D01*
X037424Y016600D02*
X037007Y016600D01*
X037105Y016501D02*
X037575Y016501D01*
X037726Y016403D02*
X037204Y016403D01*
X036489Y016252D02*
X036489Y015859D01*
X036449Y015819D01*
X036095Y016056D02*
X036095Y012906D01*
X036331Y012670D01*
X036331Y012315D01*
X036708Y012364D02*
X039415Y012364D01*
X039415Y012266D02*
X036709Y012266D01*
X036709Y012167D02*
X039415Y012167D01*
X039414Y012069D02*
X036709Y012069D01*
X036709Y011970D02*
X039414Y011970D01*
X039414Y011872D02*
X034831Y011872D01*
X034831Y011773D02*
X039413Y011773D01*
X039413Y011675D02*
X034831Y011675D01*
X034831Y011576D02*
X039413Y011576D01*
X039412Y011478D02*
X034831Y011478D01*
X034831Y011379D02*
X039412Y011379D01*
X039412Y011281D02*
X034831Y011281D01*
X034831Y011182D02*
X039412Y011182D01*
X039411Y011084D02*
X034831Y011084D01*
X034831Y010985D02*
X039411Y010985D01*
X039411Y010887D02*
X034831Y010887D01*
X034831Y010788D02*
X039410Y010788D01*
X039410Y010690D02*
X034831Y010690D01*
X032937Y009591D02*
X032867Y009520D01*
X030386Y009520D01*
X029914Y009048D01*
X027237Y009048D01*
X026764Y008575D01*
X027394Y008457D02*
X030189Y008457D01*
X030976Y008424D02*
X039440Y008424D01*
X039441Y008326D02*
X030976Y008326D01*
X030977Y008227D02*
X039441Y008227D01*
X039441Y008221D02*
X035551Y008221D01*
X035548Y008224D01*
X030977Y008224D01*
X030965Y010398D01*
X039430Y010398D01*
X039441Y008221D01*
X039398Y007932D02*
X036425Y007932D01*
X036424Y007833D02*
X039398Y007833D01*
X039398Y007735D02*
X036422Y007735D01*
X036421Y007636D02*
X039398Y007636D01*
X039398Y007538D02*
X036419Y007538D01*
X036418Y007439D02*
X039398Y007439D01*
X039398Y007341D02*
X034930Y007341D01*
X034930Y007242D02*
X039398Y007242D01*
X039398Y007144D02*
X034930Y007144D01*
X034930Y007045D02*
X039398Y007045D01*
X039398Y006947D02*
X034931Y006947D01*
X034931Y006848D02*
X039398Y006848D01*
X039398Y006750D02*
X034931Y006750D01*
X034931Y006651D02*
X039398Y006651D01*
X039398Y006553D02*
X034931Y006553D01*
X034932Y006454D02*
X039398Y006454D01*
X039398Y006356D02*
X034932Y006356D01*
X034932Y006257D02*
X039398Y006257D01*
X039398Y006159D02*
X034932Y006159D01*
X034683Y005666D02*
X034445Y005666D01*
X034346Y005568D02*
X034684Y005568D01*
X034684Y005469D02*
X034248Y005469D01*
X034149Y005371D02*
X034684Y005371D01*
X034684Y005272D02*
X034051Y005272D01*
X034685Y005174D02*
X027591Y005174D01*
X027591Y005272D02*
X029438Y005272D01*
X029340Y005371D02*
X027591Y005371D01*
X027591Y005469D02*
X029241Y005469D01*
X029143Y005568D02*
X027591Y005568D01*
X027591Y005666D02*
X029044Y005666D01*
X028946Y005765D02*
X027591Y005765D01*
X027591Y005863D02*
X028847Y005863D01*
X028749Y005962D02*
X027591Y005962D01*
X027315Y005962D02*
X026575Y005962D01*
X026645Y006553D02*
X027315Y006553D01*
X027315Y006651D02*
X016158Y006651D01*
X016158Y007045D02*
X026485Y007045D01*
X026371Y007144D02*
X016158Y007144D01*
X016158Y007242D02*
X026273Y007242D01*
X026174Y007341D02*
X016158Y007341D01*
X016158Y007439D02*
X026076Y007439D01*
X025977Y007538D02*
X016158Y007538D01*
X016158Y007636D02*
X025879Y007636D01*
X025780Y007735D02*
X016158Y007735D01*
X016158Y007833D02*
X025682Y007833D01*
X025583Y007932D02*
X016158Y007932D01*
X016158Y008030D02*
X025485Y008030D01*
X025396Y008129D02*
X016158Y008129D01*
X016158Y008227D02*
X025362Y008227D01*
X025362Y008326D02*
X016158Y008326D01*
X016158Y008424D02*
X025362Y008424D01*
X025362Y008523D02*
X016158Y008523D01*
X016158Y008621D02*
X025362Y008621D01*
X025362Y008720D02*
X016158Y008720D01*
X016158Y008818D02*
X025362Y008818D01*
X025362Y008917D02*
X016158Y008917D01*
X016158Y009015D02*
X025362Y009015D01*
X025362Y009114D02*
X016158Y009114D01*
X016158Y009212D02*
X025362Y009212D01*
X025362Y009311D02*
X016158Y009311D01*
X016158Y009409D02*
X025362Y009409D01*
X025362Y009508D02*
X016158Y009508D01*
X016158Y009606D02*
X025362Y009606D01*
X025362Y009705D02*
X016158Y009705D01*
X016158Y009803D02*
X025362Y009803D01*
X025362Y009902D02*
X016158Y009902D01*
X016158Y010000D02*
X025362Y010000D01*
X025362Y010099D02*
X016158Y010099D01*
X016158Y010197D02*
X025362Y010197D01*
X025362Y010296D02*
X016158Y010296D01*
X016158Y010394D02*
X024213Y010394D01*
X024171Y010436D02*
X024294Y010313D01*
X024746Y010313D01*
X024869Y010436D01*
X024869Y010888D01*
X024746Y011011D01*
X024294Y011011D01*
X024171Y010888D01*
X024171Y010436D01*
X024171Y010493D02*
X016158Y010493D01*
X016158Y010591D02*
X024171Y010591D01*
X024171Y010690D02*
X016158Y010690D01*
X016158Y010788D02*
X024171Y010788D01*
X024171Y010887D02*
X016158Y010887D01*
X016158Y010985D02*
X024269Y010985D01*
X024771Y010985D02*
X025362Y010985D01*
X025362Y010887D02*
X024869Y010887D01*
X024869Y010788D02*
X025362Y010788D01*
X025362Y010690D02*
X024869Y010690D01*
X024869Y010591D02*
X025362Y010591D01*
X025362Y010493D02*
X024869Y010493D01*
X024827Y010394D02*
X025362Y010394D01*
X025362Y011084D02*
X016158Y011084D01*
X016158Y011182D02*
X025362Y011182D01*
X025362Y011281D02*
X016158Y011281D01*
X016158Y011379D02*
X025362Y011379D01*
X025362Y011478D02*
X016158Y011478D01*
X016158Y011576D02*
X025362Y011576D01*
X025362Y011675D02*
X016158Y011675D01*
X016158Y011773D02*
X025362Y011773D01*
X025362Y011872D02*
X016158Y011872D01*
X016158Y011970D02*
X025362Y011970D01*
X025362Y012069D02*
X018982Y012069D01*
X018958Y012045D02*
X019081Y012168D01*
X019081Y012620D01*
X018958Y012743D01*
X018507Y012743D01*
X018384Y012620D01*
X018384Y012168D01*
X018507Y012045D01*
X018958Y012045D01*
X019080Y012167D02*
X025362Y012167D01*
X025362Y012266D02*
X019081Y012266D01*
X019081Y012364D02*
X025362Y012364D01*
X025265Y012463D02*
X019081Y012463D01*
X019081Y012561D02*
X025167Y012561D01*
X025068Y012660D02*
X019042Y012660D01*
X018424Y012660D02*
X016158Y012660D01*
X016158Y012758D02*
X024970Y012758D01*
X024871Y012857D02*
X016158Y012857D01*
X016158Y012955D02*
X024773Y012955D01*
X024674Y013054D02*
X016158Y013054D01*
X016158Y013152D02*
X024576Y013152D01*
X024477Y013251D02*
X016158Y013251D01*
X016158Y013349D02*
X024379Y013349D01*
X024280Y013448D02*
X016158Y013448D01*
X016158Y013546D02*
X016180Y013546D01*
X015898Y013349D02*
X015165Y013349D01*
X015253Y013251D02*
X015898Y013251D01*
X015898Y013152D02*
X015253Y013152D01*
X015253Y013054D02*
X015898Y013054D01*
X015898Y012955D02*
X015253Y012955D01*
X015253Y012857D02*
X015898Y012857D01*
X016158Y012561D02*
X018384Y012561D01*
X018384Y012463D02*
X016158Y012463D01*
X016158Y012364D02*
X018384Y012364D01*
X018384Y012266D02*
X016158Y012266D01*
X016158Y012167D02*
X018385Y012167D01*
X018484Y012069D02*
X016158Y012069D01*
X015898Y012069D02*
X013583Y012069D01*
X013722Y011970D02*
X015898Y011970D01*
X015898Y011872D02*
X013778Y011872D01*
X013800Y011773D02*
X015898Y011773D01*
X015898Y011675D02*
X013795Y011675D01*
X013755Y011576D02*
X015898Y011576D01*
X015898Y011478D02*
X013665Y011478D01*
X013485Y011752D02*
X013528Y011796D01*
X013485Y011752D02*
X013461Y011752D01*
X013339Y012069D02*
X008621Y012069D01*
X008523Y012167D02*
X015898Y012167D01*
X015898Y012266D02*
X004468Y012266D01*
X004369Y012364D02*
X015898Y012364D01*
X015898Y010985D02*
X012313Y010985D01*
X012349Y010887D02*
X015898Y010887D01*
X015898Y010788D02*
X012349Y010788D01*
X012349Y010690D02*
X015898Y010690D01*
X015898Y010591D02*
X012349Y010591D01*
X012310Y010493D02*
X015898Y010493D01*
X015898Y009803D02*
X011792Y009803D01*
X011891Y009705D02*
X015898Y009705D01*
X013186Y008917D02*
X012679Y008917D01*
X012777Y008818D02*
X013093Y008818D01*
X013093Y008720D02*
X012876Y008720D01*
X012974Y008621D02*
X013093Y008621D01*
X013093Y008523D02*
X013073Y008523D01*
X012158Y008260D02*
X014323Y006095D01*
X014323Y005347D01*
X013890Y005150D02*
X013890Y006016D01*
X010662Y009244D01*
X011695Y008523D02*
X011902Y008523D01*
X011849Y008424D02*
X011793Y008424D01*
X011467Y008129D02*
X011087Y008129D01*
X011128Y008227D02*
X011368Y008227D01*
X011270Y008326D02*
X011128Y008326D01*
X011128Y008424D02*
X011171Y008424D01*
X011565Y008030D02*
X010516Y008030D01*
X010497Y007932D02*
X011664Y007932D01*
X011762Y007833D02*
X010497Y007833D01*
X010497Y007735D02*
X011861Y007735D01*
X011959Y007636D02*
X010577Y007636D01*
X010676Y007538D02*
X012058Y007538D01*
X012156Y007439D02*
X010774Y007439D01*
X010873Y007341D02*
X012255Y007341D01*
X012353Y007242D02*
X010971Y007242D01*
X011070Y007144D02*
X012452Y007144D01*
X012550Y007045D02*
X011168Y007045D01*
X011267Y006947D02*
X012649Y006947D01*
X012747Y006848D02*
X011365Y006848D01*
X011464Y006750D02*
X012846Y006750D01*
X012944Y006651D02*
X011562Y006651D01*
X011661Y006553D02*
X013043Y006553D01*
X013141Y006454D02*
X011759Y006454D01*
X011858Y006356D02*
X013240Y006356D01*
X013338Y006257D02*
X011956Y006257D01*
X012055Y006159D02*
X013437Y006159D01*
X013535Y006060D02*
X012153Y006060D01*
X011706Y004583D02*
X001601Y004583D01*
X001502Y004484D02*
X011804Y004484D01*
X011903Y004386D02*
X001392Y004386D01*
X001490Y004287D02*
X012001Y004287D01*
X012100Y004189D02*
X001561Y004189D01*
X000447Y002317D02*
X000320Y002317D01*
X000320Y002219D02*
X000397Y002219D01*
X000362Y002120D02*
X000320Y002120D01*
X000320Y002022D02*
X000347Y002022D01*
X000331Y001923D02*
X000320Y001923D01*
X007093Y004780D02*
X007329Y004780D01*
X007302Y004878D02*
X007100Y004878D01*
X007100Y004977D02*
X007302Y004977D01*
X007302Y005075D02*
X007100Y005075D01*
X007100Y005174D02*
X007302Y005174D01*
X007349Y005272D02*
X007034Y005272D01*
X006977Y006553D02*
X000320Y006553D01*
X000320Y006651D02*
X006977Y006651D01*
X004028Y007636D02*
X001624Y007636D01*
X001599Y007538D02*
X003948Y007538D01*
X003948Y007439D02*
X001559Y007439D01*
X001483Y007341D02*
X003213Y007341D01*
X003115Y007242D02*
X001377Y007242D01*
X000791Y007242D02*
X000320Y007242D01*
X000320Y007144D02*
X003103Y007144D01*
X003103Y007045D02*
X000320Y007045D01*
X000320Y006947D02*
X003103Y006947D01*
X003103Y006848D02*
X000320Y006848D01*
X000320Y006750D02*
X003140Y006750D01*
X003422Y007008D02*
X003386Y007044D01*
X003422Y007008D02*
X003441Y007008D01*
X000927Y008227D02*
X000320Y008227D01*
X000320Y008129D02*
X000744Y008129D01*
X000645Y008030D02*
X000320Y008030D01*
X000320Y007932D02*
X000594Y007932D01*
X000553Y007833D02*
X000320Y007833D01*
X000320Y007735D02*
X000544Y007735D01*
X000544Y007636D02*
X000320Y007636D01*
X000320Y007538D02*
X000569Y007538D01*
X000610Y007439D02*
X000320Y007439D01*
X000320Y007341D02*
X000685Y007341D01*
X000800Y008326D02*
X000320Y008326D01*
X000320Y008424D02*
X000716Y008424D01*
X000675Y008523D02*
X000320Y008523D01*
X000320Y008621D02*
X000644Y008621D01*
X000644Y008720D02*
X000320Y008720D01*
X000320Y008818D02*
X000647Y008818D01*
X000687Y008917D02*
X000320Y008917D01*
X000320Y009015D02*
X000730Y009015D01*
X000829Y009114D02*
X000320Y009114D01*
X000320Y009212D02*
X000864Y009212D01*
X000715Y009311D02*
X000320Y009311D01*
X000320Y009409D02*
X000622Y009409D01*
X000582Y009508D02*
X000320Y009508D01*
X000320Y009606D02*
X000544Y009606D01*
X000544Y009705D02*
X000320Y009705D01*
X000320Y009803D02*
X000544Y009803D01*
X000581Y009902D02*
X000320Y009902D01*
X000320Y010000D02*
X000622Y010000D01*
X000714Y010099D02*
X000320Y010099D01*
X000320Y010197D02*
X000861Y010197D01*
X000863Y010296D02*
X000320Y010296D01*
X000320Y010394D02*
X000768Y010394D01*
X000709Y010493D02*
X000320Y010493D01*
X000320Y010591D02*
X000676Y010591D01*
X001306Y010198D02*
X001306Y010198D01*
X001308Y010197D02*
X002102Y010197D01*
X002004Y010099D02*
X001455Y010099D01*
X001547Y010000D02*
X001905Y010000D01*
X001922Y009705D02*
X001084Y009705D01*
X001922Y009705D02*
X002445Y010229D01*
X005335Y010229D01*
X005772Y009792D01*
X005307Y009575D02*
X005233Y009650D01*
X002737Y009650D01*
X001792Y008705D01*
X001184Y008705D01*
X002708Y009311D02*
X005054Y009311D01*
X004999Y009409D02*
X002807Y009409D01*
X002201Y010296D02*
X001505Y010296D01*
X001601Y010394D02*
X002299Y010394D01*
X001394Y011182D02*
X004585Y011182D01*
X004528Y011281D02*
X001466Y011281D01*
X001564Y011379D02*
X004528Y011379D01*
X004528Y011478D02*
X001607Y011478D01*
X001648Y011576D02*
X004528Y011576D01*
X004528Y011675D02*
X001654Y011675D01*
X001654Y011773D02*
X004338Y011773D01*
X004239Y011872D02*
X001632Y011872D01*
X001591Y011970D02*
X004141Y011970D01*
X004042Y012069D02*
X001527Y012069D01*
X001428Y012167D02*
X003944Y012167D01*
X003845Y012266D02*
X001508Y012266D01*
X001607Y012364D02*
X003540Y012364D01*
X003483Y012463D02*
X001668Y012463D01*
X001709Y012561D02*
X003483Y012561D01*
X003483Y012660D02*
X001724Y012660D01*
X001724Y012758D02*
X003483Y012758D01*
X003500Y012857D02*
X001706Y012857D01*
X004172Y012561D02*
X007832Y012561D01*
X007930Y012463D02*
X004271Y012463D01*
X006510Y011182D02*
X007511Y011182D01*
X007455Y011084D02*
X006510Y011084D01*
X006510Y010985D02*
X007455Y010985D01*
X007455Y010887D02*
X006475Y010887D01*
X008934Y011084D02*
X008984Y011084D01*
X009893Y012955D02*
X011721Y012955D01*
X011700Y013054D02*
X011607Y013054D01*
X011616Y013152D02*
X011700Y013152D01*
X011700Y013251D02*
X011616Y013251D01*
X011616Y013349D02*
X011700Y013349D01*
X011414Y013645D02*
X010193Y013645D01*
X010201Y013743D02*
X011414Y013743D01*
X011414Y013842D02*
X010122Y013842D01*
X010193Y013546D02*
X011064Y013546D01*
X010999Y013448D02*
X010193Y013448D01*
X010199Y013349D02*
X010999Y013349D01*
X010999Y013251D02*
X010139Y013251D01*
X009771Y013152D02*
X010999Y013152D01*
X011008Y013054D02*
X009813Y013054D01*
X009768Y013140D02*
X009768Y013140D01*
X009768Y013932D02*
X009768Y013932D01*
X009763Y013940D02*
X011415Y013940D01*
X011514Y014039D02*
X009829Y014039D01*
X009405Y014630D02*
X009174Y014630D01*
X009184Y014531D02*
X009286Y014531D01*
X008449Y014630D02*
X008217Y014630D01*
X008336Y014531D02*
X008439Y014531D01*
X008415Y014493D02*
X008415Y014493D01*
X008806Y015658D02*
X009250Y015658D01*
X009367Y015775D01*
X009367Y016218D01*
X009250Y016335D01*
X008806Y016335D01*
X008689Y016218D01*
X008689Y015775D01*
X008806Y015658D01*
X008751Y015713D02*
X000320Y015713D01*
X000320Y015615D02*
X015898Y015615D01*
X015898Y015713D02*
X009305Y015713D01*
X009367Y015812D02*
X015898Y015812D01*
X015898Y015910D02*
X009367Y015910D01*
X009367Y016009D02*
X015898Y016009D01*
X015898Y016107D02*
X009367Y016107D01*
X009367Y016206D02*
X015898Y016206D01*
X015898Y016304D02*
X009281Y016304D01*
X008775Y016304D02*
X002181Y016304D01*
X002375Y016403D02*
X015898Y016403D01*
X016158Y016403D02*
X024575Y016403D01*
X024575Y016501D02*
X020609Y016501D01*
X020671Y016600D02*
X024575Y016600D01*
X024591Y016698D02*
X020686Y016698D01*
X020686Y016797D02*
X024657Y016797D01*
X024756Y016895D02*
X024477Y016895D01*
X024470Y016888D02*
X024593Y017011D01*
X024593Y017462D01*
X024470Y017585D01*
X024019Y017585D01*
X023896Y017462D01*
X023896Y017011D01*
X024019Y016888D01*
X024470Y016888D01*
X024576Y016994D02*
X024854Y016994D01*
X024953Y017092D02*
X024593Y017092D01*
X024593Y017191D02*
X025051Y017191D01*
X025150Y017289D02*
X024593Y017289D01*
X024593Y017388D02*
X027315Y017388D01*
X027315Y017486D02*
X024570Y017486D01*
X024471Y017585D02*
X027315Y017585D01*
X027315Y017683D02*
X020686Y017683D01*
X020686Y017585D02*
X024018Y017585D01*
X023919Y017486D02*
X020686Y017486D01*
X020686Y017388D02*
X023896Y017388D01*
X023896Y017289D02*
X020686Y017289D01*
X020686Y017191D02*
X023896Y017191D01*
X023896Y017092D02*
X020686Y017092D01*
X020686Y016994D02*
X023913Y016994D01*
X024012Y016895D02*
X020686Y016895D01*
X020426Y016895D02*
X015701Y016895D01*
X015701Y016797D02*
X020426Y016797D01*
X020426Y016698D02*
X015701Y016698D01*
X015701Y016685D02*
X015701Y018894D01*
X020426Y018894D01*
X020426Y016685D01*
X015701Y016685D01*
X015532Y016501D02*
X002507Y016501D01*
X002444Y016438D02*
X002444Y016438D01*
X002606Y016600D02*
X015466Y016600D01*
X015451Y016698D02*
X002704Y016698D01*
X002782Y016797D02*
X015451Y016797D01*
X015451Y016895D02*
X002832Y016895D01*
X002882Y016994D02*
X015451Y016994D01*
X015451Y017092D02*
X002932Y017092D01*
X002968Y017191D02*
X015451Y017191D01*
X015451Y017289D02*
X002984Y017289D01*
X002999Y017388D02*
X015451Y017388D01*
X015451Y017486D02*
X003015Y017486D01*
X003031Y017585D02*
X014904Y017585D01*
X014701Y017683D02*
X014350Y017683D01*
X014451Y017782D02*
X014602Y017782D01*
X014539Y017880D02*
X014524Y017880D01*
X015191Y017585D02*
X015451Y017585D01*
X015451Y017683D02*
X015395Y017683D01*
X015701Y017683D02*
X020426Y017683D01*
X020426Y017585D02*
X015701Y017585D01*
X015701Y017486D02*
X020426Y017486D01*
X020426Y017388D02*
X015701Y017388D01*
X015701Y017289D02*
X020426Y017289D01*
X020426Y017191D02*
X015701Y017191D01*
X015701Y017092D02*
X020426Y017092D01*
X020426Y016994D02*
X015701Y016994D01*
X016158Y016304D02*
X024575Y016304D01*
X024575Y016206D02*
X016158Y016206D01*
X016158Y016107D02*
X024575Y016107D01*
X024575Y016009D02*
X016158Y016009D01*
X016158Y015910D02*
X024575Y015910D01*
X024575Y015812D02*
X016158Y015812D01*
X016158Y015713D02*
X024575Y015713D01*
X024575Y015615D02*
X016158Y015615D01*
X016158Y015516D02*
X024575Y015516D01*
X024575Y015418D02*
X016158Y015418D01*
X015898Y015418D02*
X000320Y015418D01*
X000320Y015516D02*
X015898Y015516D01*
X015898Y015319D02*
X000320Y015319D01*
X000320Y015221D02*
X015898Y015221D01*
X015898Y015122D02*
X000320Y015122D01*
X000320Y015024D02*
X015898Y015024D01*
X016158Y014137D02*
X016240Y014137D01*
X016737Y014137D02*
X023984Y014137D01*
X023984Y014039D02*
X016836Y014039D01*
X016837Y013940D02*
X023984Y013940D01*
X023984Y013842D02*
X016837Y013842D01*
X016837Y013743D02*
X024008Y013743D01*
X024083Y013645D02*
X016837Y013645D01*
X016798Y013546D02*
X024182Y013546D01*
X025248Y013930D02*
X026134Y013044D01*
X026134Y011961D01*
X026922Y011174D01*
X029599Y011174D01*
X029638Y011134D01*
X030965Y010394D02*
X039430Y010394D01*
X039430Y010296D02*
X030966Y010296D01*
X030966Y010197D02*
X039431Y010197D01*
X039431Y010099D02*
X030967Y010099D01*
X030967Y010000D02*
X039432Y010000D01*
X039432Y009902D02*
X030968Y009902D01*
X030968Y009803D02*
X039433Y009803D01*
X039433Y009705D02*
X030969Y009705D01*
X030969Y009606D02*
X039434Y009606D01*
X039434Y009508D02*
X030970Y009508D01*
X030970Y009409D02*
X039435Y009409D01*
X039435Y009311D02*
X030971Y009311D01*
X030971Y009212D02*
X039436Y009212D01*
X039436Y009114D02*
X030972Y009114D01*
X030972Y009015D02*
X039437Y009015D01*
X039438Y008917D02*
X030973Y008917D01*
X030974Y008818D02*
X039438Y008818D01*
X039439Y008720D02*
X030974Y008720D01*
X030975Y008621D02*
X039439Y008621D01*
X039440Y008523D02*
X030975Y008523D01*
X027788Y008024D02*
X027040Y007276D01*
X026764Y007827D02*
X027394Y008457D01*
X027788Y008024D02*
X035465Y008024D01*
X035701Y007788D01*
X035937Y007788D01*
X034685Y005075D02*
X027591Y005075D01*
X027591Y004977D02*
X034685Y004977D01*
X034685Y004878D02*
X027591Y004878D01*
X027591Y004780D02*
X034685Y004780D01*
X034045Y004090D02*
X030095Y004090D01*
X030095Y003992D02*
X034144Y003992D01*
X034191Y003893D02*
X030005Y003893D01*
X030005Y003745D02*
X029941Y003681D01*
X029941Y003312D01*
X030005Y003248D01*
X030374Y003248D01*
X030438Y003312D01*
X030438Y003681D01*
X030374Y003745D01*
X030005Y003745D01*
X029956Y003696D02*
X027642Y003696D01*
X027654Y003795D02*
X034191Y003795D01*
X034191Y003696D02*
X030423Y003696D01*
X030438Y003598D02*
X034194Y003598D01*
X034243Y003499D02*
X030438Y003499D01*
X030438Y003401D02*
X034341Y003401D01*
X034378Y003302D02*
X030428Y003302D01*
X029951Y003302D02*
X027591Y003302D01*
X027591Y003401D02*
X029941Y003401D01*
X029941Y003499D02*
X027591Y003499D01*
X027591Y003598D02*
X029941Y003598D01*
X029508Y003893D02*
X027654Y003893D01*
X027654Y003992D02*
X029418Y003992D01*
X029418Y004090D02*
X027654Y004090D01*
X027617Y004189D02*
X029418Y004189D01*
X029418Y004287D02*
X027591Y004287D01*
X027591Y004386D02*
X029418Y004386D01*
X029475Y004484D02*
X027591Y004484D01*
X027315Y004484D02*
X017168Y004484D01*
X017266Y004386D02*
X027315Y004386D01*
X027315Y004287D02*
X017365Y004287D01*
X017069Y004583D02*
X027315Y004583D01*
X027315Y004681D02*
X016971Y004681D01*
X022985Y001370D02*
X023300Y001685D01*
X023300Y001725D01*
X023863Y002120D02*
X027315Y002120D01*
X027315Y002022D02*
X024719Y002022D01*
X024790Y001923D02*
X027315Y001923D01*
X027315Y001825D02*
X024790Y001825D01*
X024790Y001726D02*
X027315Y001726D01*
X027315Y001628D02*
X024790Y001628D01*
X024790Y001529D02*
X027315Y001529D01*
X027315Y001431D02*
X024722Y001431D01*
X027000Y002630D02*
X033733Y002630D01*
X034008Y002906D01*
X034347Y002908D02*
X037600Y002908D01*
X037449Y002810D02*
X034347Y002810D01*
X034347Y002711D02*
X037298Y002711D01*
X037202Y002613D02*
X034275Y002613D01*
X033970Y002514D02*
X037125Y002514D01*
X037049Y002416D02*
X033867Y002416D01*
X033657Y002908D02*
X033048Y002908D01*
X033048Y003007D02*
X033670Y003007D01*
X033670Y003105D02*
X033048Y003105D01*
X033011Y003204D02*
X033746Y003204D01*
X034271Y003204D02*
X034378Y003204D01*
X032709Y002945D02*
X027591Y002945D01*
X027315Y003221D01*
X027315Y003930D01*
X027686Y003204D02*
X032407Y003204D01*
X036994Y002346D02*
X036994Y002346D01*
X035859Y012315D02*
X034874Y013300D01*
X034874Y015819D01*
X035465Y015819D02*
X035465Y016134D01*
X035347Y016252D01*
X031489Y016252D01*
X030898Y015662D01*
X030898Y014244D01*
X030717Y014063D01*
X026737Y014063D01*
X026737Y014563D02*
X030430Y014563D01*
X030583Y014717D01*
X030583Y015898D01*
X031252Y016567D01*
X035583Y016567D01*
X036095Y016056D01*
X036489Y016252D02*
X035898Y016843D01*
X031056Y016843D01*
X030150Y015937D01*
X030150Y015189D01*
X029914Y014953D01*
X026174Y014953D01*
X025784Y014563D01*
X025701Y014563D01*
X026050Y015183D02*
X026050Y015336D01*
X025980Y015406D01*
X026050Y015475D01*
X026050Y015927D01*
X025980Y015996D01*
X026050Y016066D01*
X026050Y016517D01*
X025927Y016640D01*
X025475Y016640D01*
X025352Y016517D01*
X025352Y016066D01*
X025422Y015996D01*
X025352Y015927D01*
X025352Y015878D01*
X025101Y015626D01*
X025095Y015620D01*
X025095Y016499D01*
X025455Y016859D01*
X027315Y016859D01*
X027315Y015213D01*
X026122Y015213D01*
X026050Y015183D01*
X026050Y015221D02*
X027315Y015221D01*
X027315Y015319D02*
X026050Y015319D01*
X025992Y015418D02*
X027315Y015418D01*
X027315Y015516D02*
X026050Y015516D01*
X026050Y015615D02*
X027315Y015615D01*
X027315Y015713D02*
X026050Y015713D01*
X026050Y015812D02*
X027315Y015812D01*
X027315Y015910D02*
X026050Y015910D01*
X025992Y016009D02*
X027315Y016009D01*
X027315Y016107D02*
X026050Y016107D01*
X026050Y016206D02*
X027315Y016206D01*
X027315Y016304D02*
X026050Y016304D01*
X026050Y016403D02*
X027315Y016403D01*
X027315Y016501D02*
X026050Y016501D01*
X025968Y016600D02*
X027315Y016600D01*
X027315Y016698D02*
X025294Y016698D01*
X025196Y016600D02*
X025435Y016600D01*
X025352Y016501D02*
X025097Y016501D01*
X025095Y016403D02*
X025352Y016403D01*
X025352Y016304D02*
X025095Y016304D01*
X025095Y016206D02*
X025352Y016206D01*
X025352Y016107D02*
X025095Y016107D01*
X025095Y016009D02*
X025410Y016009D01*
X025352Y015910D02*
X025095Y015910D01*
X025095Y015812D02*
X025286Y015812D01*
X025188Y015713D02*
X025095Y015713D01*
X025248Y015406D02*
X025248Y013930D01*
X027591Y015203D02*
X027591Y016869D01*
X030728Y016869D01*
X030015Y016156D01*
X030015Y016407D01*
X029951Y016472D01*
X029210Y016472D01*
X029145Y016407D01*
X029145Y015666D01*
X029210Y015602D01*
X029900Y015602D01*
X029900Y015293D01*
X029810Y015203D01*
X027591Y015203D01*
X027591Y015221D02*
X029828Y015221D01*
X029900Y015319D02*
X027591Y015319D01*
X027591Y015418D02*
X029900Y015418D01*
X029900Y015516D02*
X027591Y015516D01*
X027591Y015615D02*
X029197Y015615D01*
X029145Y015713D02*
X027591Y015713D01*
X027591Y015812D02*
X029145Y015812D01*
X029145Y015910D02*
X027591Y015910D01*
X027591Y016009D02*
X029145Y016009D01*
X029145Y016107D02*
X027591Y016107D01*
X027591Y016206D02*
X029145Y016206D01*
X029145Y016304D02*
X027591Y016304D01*
X027591Y016403D02*
X029145Y016403D01*
X030015Y016403D02*
X030262Y016403D01*
X030360Y016501D02*
X027591Y016501D01*
X027591Y016600D02*
X030459Y016600D01*
X030557Y016698D02*
X027591Y016698D01*
X027591Y016797D02*
X030656Y016797D01*
X030163Y016304D02*
X030015Y016304D01*
X030015Y016206D02*
X030065Y016206D01*
X031292Y015465D02*
X031528Y015701D01*
X034166Y015701D01*
X034284Y015819D01*
X031725Y015111D02*
X031685Y015071D01*
X031685Y012433D01*
X031449Y012197D01*
X026737Y012197D01*
X026737Y012689D02*
X031075Y012689D01*
X031292Y012906D01*
X031292Y015465D01*
X034696Y017388D02*
X027591Y017388D01*
X027591Y017486D02*
X034598Y017486D01*
X034510Y017585D02*
X029727Y017585D01*
X029692Y017573D02*
X029763Y017596D01*
X029829Y017630D01*
X029890Y017674D01*
X029943Y017727D01*
X029987Y017788D01*
X030021Y017854D01*
X030044Y017925D01*
X030055Y017999D01*
X030055Y018018D01*
X029599Y018018D01*
X029599Y018055D01*
X029562Y018055D01*
X029562Y018018D01*
X029105Y018018D01*
X029105Y017999D01*
X029117Y017925D01*
X029140Y017854D01*
X029174Y017788D01*
X029218Y017727D01*
X029271Y017674D01*
X029332Y017630D01*
X029398Y017596D01*
X029469Y017573D01*
X029543Y017562D01*
X029562Y017562D01*
X029562Y018018D01*
X029599Y018018D01*
X029599Y017562D01*
X029618Y017562D01*
X029692Y017573D01*
X029599Y017585D02*
X029562Y017585D01*
X029562Y017683D02*
X029599Y017683D01*
X029599Y017782D02*
X029562Y017782D01*
X029562Y017880D02*
X029599Y017880D01*
X029599Y017979D02*
X029562Y017979D01*
X029562Y018055D02*
X029105Y018055D01*
X029105Y018074D01*
X029117Y018148D01*
X029140Y018219D01*
X029174Y018285D01*
X029218Y018346D01*
X029271Y018399D01*
X029332Y018443D01*
X029398Y018477D01*
X029469Y018500D01*
X029543Y018512D01*
X029562Y018512D01*
X029562Y018055D01*
X029562Y018077D02*
X029599Y018077D01*
X029599Y018055D02*
X029599Y018512D01*
X029618Y018512D01*
X029692Y018500D01*
X029763Y018477D01*
X029829Y018443D01*
X029890Y018399D01*
X029943Y018346D01*
X029987Y018285D01*
X030021Y018219D01*
X030044Y018148D01*
X030055Y018074D01*
X030055Y018055D01*
X029599Y018055D01*
X029599Y018176D02*
X029562Y018176D01*
X029562Y018274D02*
X029599Y018274D01*
X029599Y018373D02*
X029562Y018373D01*
X029562Y018471D02*
X029599Y018471D01*
X029774Y018471D02*
X034514Y018471D01*
X034473Y018373D02*
X029916Y018373D01*
X029993Y018274D02*
X034432Y018274D01*
X034395Y018176D02*
X030035Y018176D01*
X030055Y018077D02*
X034395Y018077D01*
X034395Y017979D02*
X030052Y017979D01*
X030029Y017880D02*
X034395Y017880D01*
X034429Y017782D02*
X029982Y017782D01*
X029899Y017683D02*
X034470Y017683D01*
X034605Y018570D02*
X027591Y018570D01*
X027591Y018668D02*
X034704Y018668D01*
X034881Y018767D02*
X027591Y018767D01*
X027315Y018767D02*
X020686Y018767D01*
X020686Y018668D02*
X027315Y018668D01*
X027315Y018570D02*
X020686Y018570D01*
X020686Y018471D02*
X027315Y018471D01*
X027315Y018373D02*
X020686Y018373D01*
X020686Y018274D02*
X027315Y018274D01*
X027315Y018176D02*
X020686Y018176D01*
X020686Y018077D02*
X027315Y018077D01*
X027315Y017979D02*
X020686Y017979D01*
X020686Y017880D02*
X027315Y017880D01*
X027315Y017782D02*
X020686Y017782D01*
X020426Y017782D02*
X015701Y017782D01*
X015701Y017880D02*
X020426Y017880D01*
X020426Y017979D02*
X015701Y017979D01*
X015701Y018077D02*
X020426Y018077D01*
X020426Y018176D02*
X015701Y018176D01*
X015701Y018274D02*
X020426Y018274D01*
X020426Y018373D02*
X015701Y018373D01*
X015701Y018471D02*
X020426Y018471D01*
X020426Y018570D02*
X015701Y018570D01*
X015701Y018668D02*
X020426Y018668D01*
X020426Y018767D02*
X015701Y018767D01*
X015701Y018865D02*
X020426Y018865D01*
X015451Y018865D02*
X002206Y018865D01*
X002400Y018767D02*
X015451Y018767D01*
X015451Y018668D02*
X015267Y018668D01*
X015426Y018570D02*
X015451Y018570D01*
X014828Y018668D02*
X014189Y018668D01*
X014384Y018570D02*
X014669Y018570D01*
X014570Y018471D02*
X014482Y018471D01*
X013906Y018668D02*
X013189Y018668D01*
X013384Y018570D02*
X013711Y018570D01*
X013613Y018471D02*
X013482Y018471D01*
X013537Y018373D02*
X013559Y018373D01*
X012906Y018668D02*
X012189Y018668D01*
X012384Y018570D02*
X012711Y018570D01*
X012613Y018471D02*
X012482Y018471D01*
X012537Y018373D02*
X012559Y018373D01*
X011906Y018668D02*
X011189Y018668D01*
X011384Y018570D02*
X011711Y018570D01*
X011613Y018471D02*
X011482Y018471D01*
X011537Y018373D02*
X011559Y018373D01*
X010906Y018668D02*
X008894Y018668D01*
X008860Y018682D02*
X008645Y018682D01*
X008446Y018600D01*
X008295Y018448D01*
X008252Y018346D01*
X008210Y018448D01*
X008058Y018600D01*
X007860Y018682D01*
X007645Y018682D01*
X007446Y018600D01*
X007295Y018448D01*
X007252Y018346D01*
X007210Y018448D01*
X007058Y018600D01*
X006860Y018682D01*
X006645Y018682D01*
X006446Y018600D01*
X006295Y018448D01*
X006252Y018346D01*
X006210Y018448D01*
X006058Y018600D01*
X005860Y018682D01*
X005645Y018682D01*
X005446Y018600D01*
X005295Y018448D01*
X005252Y018346D01*
X005210Y018448D01*
X005058Y018600D01*
X004860Y018682D01*
X004645Y018682D01*
X004446Y018600D01*
X004295Y018448D01*
X004252Y018346D01*
X004210Y018448D01*
X004058Y018600D01*
X003860Y018682D01*
X003645Y018682D01*
X003446Y018600D01*
X003295Y018448D01*
X003212Y018250D01*
X003212Y018035D01*
X003295Y017836D01*
X003446Y017684D01*
X003645Y017602D01*
X003860Y017602D01*
X004058Y017684D01*
X004210Y017836D01*
X004252Y017938D01*
X004295Y017836D01*
X004446Y017684D01*
X004645Y017602D01*
X004860Y017602D01*
X005058Y017684D01*
X005210Y017836D01*
X005252Y017938D01*
X005295Y017836D01*
X005446Y017684D01*
X005645Y017602D01*
X005860Y017602D01*
X006058Y017684D01*
X006210Y017836D01*
X006252Y017938D01*
X006295Y017836D01*
X006446Y017684D01*
X006645Y017602D01*
X006860Y017602D01*
X007058Y017684D01*
X007210Y017836D01*
X007252Y017938D01*
X007295Y017836D01*
X007446Y017684D01*
X007645Y017602D01*
X007860Y017602D01*
X008058Y017684D01*
X008210Y017836D01*
X008252Y017938D01*
X008295Y017836D01*
X008446Y017684D01*
X008645Y017602D01*
X008860Y017602D01*
X009058Y017684D01*
X009210Y017836D01*
X009292Y018035D01*
X009292Y018250D01*
X009210Y018448D01*
X009058Y018600D01*
X008860Y018682D01*
X008611Y018668D02*
X007894Y018668D01*
X008089Y018570D02*
X008416Y018570D01*
X008318Y018471D02*
X008187Y018471D01*
X008241Y018373D02*
X008263Y018373D01*
X007611Y018668D02*
X006894Y018668D01*
X007089Y018570D02*
X007416Y018570D01*
X007318Y018471D02*
X007187Y018471D01*
X007241Y018373D02*
X007263Y018373D01*
X006611Y018668D02*
X005894Y018668D01*
X006089Y018570D02*
X006416Y018570D01*
X006318Y018471D02*
X006187Y018471D01*
X006241Y018373D02*
X006263Y018373D01*
X005611Y018668D02*
X004894Y018668D01*
X005089Y018570D02*
X005416Y018570D01*
X005318Y018471D02*
X005187Y018471D01*
X005241Y018373D02*
X005263Y018373D01*
X004611Y018668D02*
X003894Y018668D01*
X004089Y018570D02*
X004416Y018570D01*
X004318Y018471D02*
X004187Y018471D01*
X004241Y018373D02*
X004263Y018373D01*
X003611Y018668D02*
X002520Y018668D01*
X002619Y018570D02*
X003416Y018570D01*
X003318Y018471D02*
X002717Y018471D01*
X002788Y018373D02*
X003263Y018373D01*
X003223Y018274D02*
X002838Y018274D01*
X002888Y018176D02*
X003212Y018176D01*
X003212Y018077D02*
X002939Y018077D01*
X002970Y017979D02*
X003236Y017979D01*
X003276Y017880D02*
X002986Y017880D01*
X003002Y017782D02*
X003349Y017782D01*
X003450Y017683D02*
X003017Y017683D01*
X004055Y017683D02*
X004450Y017683D01*
X004349Y017782D02*
X004155Y017782D01*
X004228Y017880D02*
X004276Y017880D01*
X005055Y017683D02*
X005450Y017683D01*
X005349Y017782D02*
X005155Y017782D01*
X005228Y017880D02*
X005276Y017880D01*
X006055Y017683D02*
X006450Y017683D01*
X006349Y017782D02*
X006155Y017782D01*
X006228Y017880D02*
X006276Y017880D01*
X007055Y017683D02*
X007450Y017683D01*
X007349Y017782D02*
X007155Y017782D01*
X007228Y017880D02*
X007276Y017880D01*
X008055Y017683D02*
X008450Y017683D01*
X008349Y017782D02*
X008155Y017782D01*
X008228Y017880D02*
X008276Y017880D01*
X009055Y017683D02*
X009803Y017683D01*
X009673Y017782D02*
X009155Y017782D01*
X009228Y017880D02*
X009598Y017880D01*
X009554Y017979D02*
X009269Y017979D01*
X009292Y018077D02*
X009531Y018077D01*
X009544Y018274D02*
X009282Y018274D01*
X009292Y018176D02*
X009998Y018176D01*
X009998Y018274D02*
X010098Y018274D01*
X010098Y018373D02*
X009998Y018373D01*
X009998Y018471D02*
X010098Y018471D01*
X010098Y018570D02*
X009998Y018570D01*
X009751Y018570D02*
X009089Y018570D01*
X009187Y018471D02*
X009644Y018471D01*
X009581Y018373D02*
X009241Y018373D01*
X009998Y018077D02*
X010098Y018077D01*
X010098Y017979D02*
X009998Y017979D01*
X009998Y017880D02*
X010098Y017880D01*
X010098Y017782D02*
X009998Y017782D01*
X009998Y017683D02*
X010098Y017683D01*
X010292Y017683D02*
X010745Y017683D01*
X010645Y017782D02*
X010422Y017782D01*
X010498Y017880D02*
X010572Y017880D01*
X011350Y017683D02*
X011745Y017683D01*
X011645Y017782D02*
X011451Y017782D01*
X011524Y017880D02*
X011572Y017880D01*
X012350Y017683D02*
X012745Y017683D01*
X012645Y017782D02*
X012451Y017782D01*
X012524Y017880D02*
X012572Y017880D01*
X013350Y017683D02*
X013745Y017683D01*
X013645Y017782D02*
X013451Y017782D01*
X013524Y017880D02*
X013572Y017880D01*
X010711Y018570D02*
X010344Y018570D01*
X010451Y018471D02*
X010613Y018471D01*
X010559Y018373D02*
X010514Y018373D01*
X008689Y016206D02*
X001857Y016206D01*
X001357Y016206D02*
X000320Y016206D01*
X000320Y016304D02*
X001032Y016304D01*
X000839Y016403D02*
X000320Y016403D01*
X000320Y016501D02*
X000706Y016501D01*
X000608Y016600D02*
X000320Y016600D01*
X000320Y016698D02*
X000509Y016698D01*
X000432Y016797D02*
X000320Y016797D01*
X000320Y016895D02*
X000382Y016895D01*
X000331Y016994D02*
X000320Y016994D01*
X000320Y016107D02*
X008689Y016107D01*
X008689Y016009D02*
X000320Y016009D01*
X000320Y015910D02*
X008689Y015910D01*
X008689Y015812D02*
X000320Y015812D01*
X020145Y014334D02*
X020155Y014334D01*
X021326Y014334D02*
X021336Y014334D01*
X025248Y015406D02*
X025544Y015701D01*
X025701Y015701D01*
X025393Y016797D02*
X027315Y016797D01*
X027591Y017585D02*
X029434Y017585D01*
X029262Y017683D02*
X027591Y017683D01*
X027591Y017782D02*
X029179Y017782D01*
X029132Y017880D02*
X027591Y017880D01*
X027591Y017979D02*
X029109Y017979D01*
X029106Y018077D02*
X027591Y018077D01*
X027591Y018176D02*
X029126Y018176D01*
X029168Y018274D02*
X027591Y018274D01*
X027591Y018373D02*
X029245Y018373D01*
X029387Y018471D02*
X027591Y018471D01*
X036706Y014137D02*
X039420Y014137D01*
X039420Y014039D02*
X036706Y014039D01*
X036706Y013940D02*
X039420Y013940D01*
X039420Y013842D02*
X036706Y013842D01*
X036706Y013743D02*
X039419Y013743D01*
X039419Y013645D02*
X036706Y013645D01*
X036707Y013546D02*
X039419Y013546D01*
X039418Y013448D02*
X036707Y013448D01*
X036707Y013349D02*
X039418Y013349D01*
X039418Y013251D02*
X036707Y013251D01*
X036707Y013152D02*
X039417Y013152D01*
X039417Y013054D02*
X036707Y013054D01*
X036708Y012955D02*
X039417Y012955D01*
X039417Y012857D02*
X036708Y012857D01*
X036708Y012758D02*
X039416Y012758D01*
X039416Y012660D02*
X036708Y012660D01*
X036708Y012561D02*
X039416Y012561D01*
X039415Y012463D02*
X036708Y012463D01*
X037736Y016396D02*
X037736Y016396D01*
X014767Y000741D02*
X014743Y000741D01*
X014808Y000643D02*
X014659Y000643D01*
X014504Y000544D02*
X014884Y000544D01*
D19*
X014772Y002563D03*
X007496Y002678D03*
D20*
X004748Y007040D02*
X004748Y007111D01*
D21*
X013461Y011752D03*
D22*
X009984Y013392D02*
X009984Y013680D01*
X009603Y013718D01*
X009603Y013353D02*
X009984Y013392D01*
X009500Y013106D02*
X009742Y012809D01*
X009539Y012605D01*
X009242Y012847D01*
X009122Y012786D02*
X008953Y013195D01*
X008670Y013195D02*
X008501Y012786D01*
X008381Y012847D02*
X008084Y012605D01*
X007881Y012809D01*
X008123Y013106D01*
X008020Y013353D02*
X007639Y013392D01*
X007639Y013680D01*
X008020Y013718D01*
X008123Y013966D02*
X007881Y014263D01*
X008084Y014467D01*
X008381Y014224D01*
X008629Y014327D02*
X008667Y014708D01*
X008955Y014708D01*
X008994Y014327D01*
X009242Y014224D02*
X009539Y014467D01*
X009742Y014263D01*
X009500Y013966D01*
X009241Y012847D02*
X009203Y012825D01*
X009163Y012804D01*
X009122Y012786D01*
X008122Y013106D02*
X008095Y013152D01*
X008072Y013201D01*
X008051Y013250D01*
X008034Y013301D01*
X008020Y013353D01*
X008381Y012847D02*
X008419Y012825D01*
X008459Y012804D01*
X008500Y012786D01*
X009500Y013106D02*
X009527Y013152D01*
X009550Y013201D01*
X009571Y013250D01*
X009588Y013301D01*
X009602Y013353D01*
X009241Y014225D02*
X009195Y014252D01*
X009146Y014275D01*
X009097Y014296D01*
X009046Y014313D01*
X008994Y014327D01*
X008122Y013966D02*
X008095Y013920D01*
X008072Y013871D01*
X008051Y013822D01*
X008034Y013771D01*
X008020Y013719D01*
X008381Y014225D02*
X008427Y014252D01*
X008476Y014275D01*
X008525Y014296D01*
X008576Y014313D01*
X008628Y014327D01*
X009500Y013966D02*
X009527Y013920D01*
X009550Y013871D01*
X009571Y013822D01*
X009588Y013771D01*
X009602Y013719D01*
X008952Y013195D02*
X008986Y013211D01*
X009019Y013231D01*
X009049Y013254D01*
X009077Y013280D01*
X009102Y013309D01*
X009123Y013340D01*
X009142Y013373D01*
X009157Y013408D01*
X009168Y013444D01*
X009176Y013481D01*
X009180Y013519D01*
X009179Y013557D01*
X009175Y013594D01*
X009167Y013632D01*
X009156Y013668D01*
X009140Y013702D01*
X009122Y013735D01*
X009099Y013766D01*
X009074Y013794D01*
X009046Y013820D01*
X009016Y013843D01*
X008983Y013862D01*
X008949Y013878D01*
X008913Y013891D01*
X008876Y013899D01*
X008839Y013904D01*
X008801Y013905D01*
X008763Y013902D01*
X008726Y013895D01*
X008689Y013884D01*
X008654Y013870D01*
X008621Y013852D01*
X008589Y013831D01*
X008560Y013806D01*
X008534Y013779D01*
X008510Y013750D01*
X008490Y013718D01*
X008473Y013684D01*
X008459Y013648D01*
X008450Y013611D01*
X008444Y013574D01*
X008442Y013536D01*
X008444Y013500D01*
X008449Y013464D01*
X008458Y013429D01*
X008470Y013395D01*
X008486Y013362D01*
X008504Y013331D01*
X008526Y013302D01*
X008550Y013275D01*
X008577Y013251D01*
X008606Y013229D01*
X008637Y013211D01*
X008670Y013195D01*
M02*
