G75*
G70*
%OFA0B0*%
%FSLAX24Y24*%
%IPPOS*%
%LPD*%
%AMOC8*
5,1,8,0,0,1.08239X$1,22.5*
%
%ADD10C,0.0600*%
%ADD11C,0.0476*%
%ADD12C,0.0397*%
%ADD13C,0.0300*%
%ADD14C,0.0515*%
%ADD15C,0.0827*%
%ADD16C,0.0554*%
%ADD17C,0.0277*%
%ADD18C,0.0080*%
%ADD19C,0.0100*%
%ADD20C,0.0160*%
%ADD21C,0.0120*%
D10*
X004071Y008744D03*
X005071Y008744D03*
X006071Y008744D03*
X006071Y009744D03*
X005071Y009744D03*
X004071Y009744D03*
X004815Y018210D03*
X005815Y018310D03*
X006815Y018210D03*
X007815Y018310D03*
X008815Y018210D03*
X003815Y018310D03*
D11*
X029580Y018037D03*
X029580Y016037D03*
D12*
X033126Y012028D03*
X033626Y012028D03*
X034126Y012028D03*
X034126Y011528D03*
X033626Y011528D03*
X033126Y011528D03*
X033126Y011028D03*
X033626Y011028D03*
X034126Y011028D03*
X031981Y010449D03*
X031481Y010449D03*
X030981Y010449D03*
X030981Y009949D03*
X031481Y009949D03*
X031981Y009949D03*
X031981Y009449D03*
X031481Y009449D03*
X030981Y009449D03*
X030981Y007433D03*
X031481Y007433D03*
X031981Y007433D03*
X031981Y006933D03*
X031481Y006933D03*
X030981Y006933D03*
X030981Y006433D03*
X031481Y006433D03*
X031981Y006433D03*
X033126Y006540D03*
X033126Y007040D03*
X033126Y007540D03*
X033626Y007540D03*
X034126Y007540D03*
X034126Y007040D03*
X033626Y007040D03*
X033626Y006540D03*
X034126Y006540D03*
X035461Y005335D03*
X035961Y005335D03*
X036461Y005335D03*
X036461Y004835D03*
X036461Y004335D03*
X035961Y004335D03*
X035461Y004335D03*
X035461Y004835D03*
X035961Y004835D03*
X037126Y013233D03*
X037126Y013733D03*
X037626Y013733D03*
X038126Y013733D03*
X038126Y013233D03*
X037626Y013233D03*
X037626Y014233D03*
X038126Y014233D03*
X037126Y014233D03*
D13*
X017121Y016252D03*
X016801Y016252D03*
D14*
X014678Y017670D03*
X013890Y017670D03*
X003024Y014481D03*
X002237Y014481D03*
X001449Y014481D03*
X001449Y011685D03*
X002237Y011685D03*
X003024Y011685D03*
X001607Y008969D03*
X001607Y008181D03*
X001607Y007394D03*
X001607Y006607D03*
X001607Y005819D03*
D15*
X033378Y015996D03*
X035032Y015996D03*
X035032Y018162D03*
X033378Y018162D03*
X036902Y010957D03*
X038674Y010957D03*
X038674Y009304D03*
X036902Y009304D03*
X036902Y007650D03*
X038674Y007650D03*
D16*
X009119Y002579D03*
X008119Y002579D03*
X007119Y002579D03*
X006119Y002579D03*
X005119Y002579D03*
X005119Y001579D03*
X006119Y001579D03*
X007119Y001579D03*
X008119Y001579D03*
X009119Y001579D03*
D17*
X011607Y003103D03*
X012394Y003103D03*
X013181Y003103D03*
X013969Y003103D03*
X014756Y003103D03*
X016331Y002788D03*
X016370Y003457D03*
X016764Y003969D03*
X017119Y003969D03*
X017276Y002512D03*
X018142Y001685D03*
X018930Y001685D03*
X020504Y001685D03*
X021292Y001685D03*
X022079Y001685D03*
X022079Y000898D03*
X021292Y000898D03*
X020504Y000898D03*
X022867Y000898D03*
X023654Y000898D03*
X024441Y000898D03*
X024441Y001685D03*
X023181Y002827D03*
X022079Y002473D03*
X021292Y002473D03*
X021292Y003260D03*
X022079Y003260D03*
X022079Y004048D03*
X021292Y004048D03*
X021449Y004756D03*
X021764Y004756D03*
X022079Y004756D03*
X022079Y005071D03*
X021764Y005071D03*
X021449Y005071D03*
X021449Y005386D03*
X021764Y005386D03*
X022079Y005386D03*
X022079Y005701D03*
X021764Y005701D03*
X021449Y005701D03*
X021449Y006016D03*
X021764Y006016D03*
X022079Y006016D03*
X022079Y006804D03*
X021292Y006804D03*
X021292Y007591D03*
X022079Y007591D03*
X022079Y008378D03*
X021292Y008378D03*
X021292Y009166D03*
X022079Y009166D03*
X022867Y009166D03*
X022906Y009796D03*
X021410Y010583D03*
X019953Y012512D03*
X021016Y013457D03*
X018339Y014087D03*
X018221Y012867D03*
X017945Y012867D03*
X017670Y012867D03*
X017394Y012867D03*
X014559Y013063D03*
X012433Y012630D03*
X011567Y012630D03*
X008823Y012630D03*
X007670Y012867D03*
X004559Y013142D03*
X009048Y010741D03*
X009520Y010741D03*
X010819Y010741D03*
X010819Y010307D03*
X011016Y009756D03*
X011016Y009323D03*
X010071Y009087D03*
X011020Y008870D03*
X012552Y009008D03*
X012945Y009008D03*
X013339Y009008D03*
X013733Y009008D03*
X014126Y009008D03*
X014520Y009008D03*
X014914Y009008D03*
X015307Y009008D03*
X015701Y009008D03*
X015701Y007945D03*
X015307Y007945D03*
X014914Y007945D03*
X014520Y007945D03*
X014126Y007945D03*
X013733Y007945D03*
X013339Y007945D03*
X012945Y007945D03*
X012552Y007945D03*
X013733Y007237D03*
X013733Y005780D03*
X016370Y005859D03*
X016370Y006174D03*
X016764Y006174D03*
X016764Y005859D03*
X011607Y004402D03*
X010386Y005701D03*
X007867Y006370D03*
X006370Y007079D03*
X005622Y007079D03*
X008418Y008811D03*
X008418Y009244D03*
X008418Y009717D03*
X012985Y010465D03*
X016804Y015189D03*
X017119Y015189D03*
X018654Y016292D03*
X017473Y017331D03*
X017473Y017607D03*
X018890Y017788D03*
X020111Y018300D03*
X021685Y018300D03*
X021292Y015583D03*
X021292Y015307D03*
X021016Y015307D03*
X020741Y015307D03*
X020741Y015583D03*
X021016Y015583D03*
X028300Y017670D03*
X028890Y017670D03*
X028890Y018260D03*
X028300Y018260D03*
X030662Y018260D03*
X031252Y018260D03*
X031252Y017670D03*
X030662Y017670D03*
X031725Y015111D03*
X034441Y015071D03*
X035150Y015071D03*
X037945Y015307D03*
X038536Y015307D03*
X039126Y015307D03*
X039126Y015898D03*
X038536Y015898D03*
X037945Y015898D03*
X038851Y014323D03*
X038851Y014048D03*
X039126Y014048D03*
X039126Y014323D03*
X039126Y013772D03*
X038851Y013772D03*
X038851Y013496D03*
X038851Y013221D03*
X039126Y013221D03*
X039126Y013496D03*
X039126Y012945D03*
X038851Y012945D03*
X038851Y012670D03*
X039126Y012670D03*
X039126Y012394D03*
X038851Y012394D03*
X038851Y012119D03*
X039126Y012119D03*
X038575Y012119D03*
X038575Y012394D03*
X038300Y012394D03*
X038300Y012119D03*
X038024Y012119D03*
X038024Y012394D03*
X037748Y012394D03*
X037473Y012394D03*
X037473Y012119D03*
X037748Y012119D03*
X037748Y011843D03*
X037473Y011843D03*
X037473Y011567D03*
X037748Y011567D03*
X038024Y011843D03*
X037197Y011843D03*
X036922Y011843D03*
X036922Y012119D03*
X036922Y012394D03*
X037197Y012394D03*
X037197Y012119D03*
X036646Y011843D03*
X036370Y011843D03*
X036095Y011843D03*
X036095Y011567D03*
X036370Y011567D03*
X035819Y011567D03*
X035819Y011843D03*
X035780Y012276D03*
X036252Y012276D03*
X036095Y011292D03*
X035819Y011292D03*
X035819Y011016D03*
X035819Y010741D03*
X036095Y010741D03*
X036095Y011016D03*
X035969Y010142D03*
X035969Y009867D03*
X036244Y009867D03*
X036244Y010142D03*
X036520Y010142D03*
X036796Y010142D03*
X037071Y010142D03*
X037347Y010142D03*
X037622Y010142D03*
X037622Y009867D03*
X037898Y009867D03*
X037898Y010142D03*
X037898Y009591D03*
X037622Y009591D03*
X037622Y009315D03*
X037622Y009040D03*
X037622Y008764D03*
X037622Y008489D03*
X037347Y008489D03*
X037071Y008489D03*
X036796Y008489D03*
X036520Y008489D03*
X036244Y008489D03*
X035969Y008489D03*
X035969Y008764D03*
X036244Y008764D03*
X036244Y009040D03*
X035969Y009040D03*
X035969Y009315D03*
X036244Y009315D03*
X035693Y009315D03*
X035693Y009040D03*
X035418Y009040D03*
X035418Y009315D03*
X035142Y009315D03*
X035142Y009040D03*
X034867Y009040D03*
X034867Y009315D03*
X034591Y009315D03*
X034591Y009040D03*
X034315Y009040D03*
X034040Y009040D03*
X034040Y009315D03*
X034315Y009315D03*
X033764Y009315D03*
X033764Y009040D03*
X033489Y009040D03*
X033489Y009315D03*
X033213Y009315D03*
X033213Y009040D03*
X032937Y009040D03*
X032937Y009315D03*
X032937Y009591D03*
X032937Y009867D03*
X032937Y010142D03*
X033213Y010142D03*
X033213Y009867D03*
X033489Y009867D03*
X033489Y010142D03*
X033764Y010142D03*
X033764Y009867D03*
X034040Y009867D03*
X034040Y010142D03*
X034315Y010142D03*
X034315Y009867D03*
X034591Y009867D03*
X034591Y010142D03*
X034867Y010142D03*
X035142Y010142D03*
X035142Y009867D03*
X034867Y009867D03*
X034867Y009591D03*
X035142Y009591D03*
X035418Y009591D03*
X035693Y009591D03*
X035693Y009867D03*
X035693Y010142D03*
X035418Y010142D03*
X035418Y009867D03*
X035969Y009591D03*
X036244Y009591D03*
X035693Y008764D03*
X035418Y008764D03*
X035418Y008489D03*
X035693Y008489D03*
X035142Y008489D03*
X035142Y008764D03*
X034867Y008764D03*
X034867Y008489D03*
X034591Y008489D03*
X034591Y008764D03*
X034315Y008764D03*
X034040Y008764D03*
X034040Y008489D03*
X034315Y008489D03*
X033764Y008489D03*
X033764Y008764D03*
X033489Y008764D03*
X033489Y008489D03*
X033213Y008489D03*
X033213Y008764D03*
X032937Y008764D03*
X032937Y008489D03*
X033213Y009591D03*
X033489Y009591D03*
X033764Y009591D03*
X034040Y009591D03*
X034315Y009591D03*
X034591Y009591D03*
X035859Y007788D03*
X035859Y007162D03*
X036134Y007162D03*
X036134Y006886D03*
X035859Y006886D03*
X035859Y006611D03*
X036134Y006611D03*
X036410Y006611D03*
X036685Y006611D03*
X036685Y006335D03*
X036410Y006335D03*
X036410Y006059D03*
X036685Y006059D03*
X036961Y006059D03*
X037237Y006059D03*
X037237Y005784D03*
X037512Y005784D03*
X037512Y006059D03*
X037788Y006059D03*
X037788Y005784D03*
X038063Y005784D03*
X038063Y006059D03*
X038339Y006059D03*
X038339Y005784D03*
X038615Y005784D03*
X038890Y005784D03*
X038890Y006059D03*
X038615Y006059D03*
X038615Y006335D03*
X038890Y006335D03*
X038890Y006611D03*
X038615Y006611D03*
X038339Y006611D03*
X038063Y006611D03*
X037788Y006611D03*
X037512Y006611D03*
X037237Y006611D03*
X037237Y006335D03*
X037512Y006335D03*
X037788Y006335D03*
X038063Y006335D03*
X038339Y006335D03*
X039166Y006335D03*
X039166Y006059D03*
X039166Y005784D03*
X039166Y005508D03*
X039166Y005233D03*
X038890Y005233D03*
X038890Y005508D03*
X038615Y005508D03*
X038615Y005233D03*
X038615Y004957D03*
X038890Y004957D03*
X038890Y004681D03*
X038615Y004681D03*
X038339Y004681D03*
X038063Y004681D03*
X037788Y004681D03*
X037512Y004681D03*
X037237Y004681D03*
X037237Y004957D03*
X037512Y004957D03*
X037512Y005233D03*
X037512Y005508D03*
X037237Y005508D03*
X037237Y005233D03*
X037788Y005233D03*
X037788Y005508D03*
X038063Y005508D03*
X038063Y005233D03*
X038063Y004957D03*
X037788Y004957D03*
X038339Y004957D03*
X038339Y005233D03*
X038339Y005508D03*
X039166Y004957D03*
X039166Y004681D03*
X039166Y004406D03*
X038890Y004406D03*
X038615Y004406D03*
X038339Y004406D03*
X038063Y004406D03*
X037788Y004406D03*
X037512Y004406D03*
X037237Y004406D03*
X036016Y003457D03*
X035583Y003457D03*
X034520Y003457D03*
X034126Y003457D03*
X033733Y003457D03*
X033260Y001134D03*
X034244Y001134D03*
X035268Y001134D03*
X032158Y001134D03*
X031174Y001134D03*
X030111Y001134D03*
X029048Y001134D03*
X029048Y002433D03*
X028457Y002433D03*
X028457Y002906D03*
X029048Y002906D03*
X028300Y003449D03*
X027430Y003449D03*
X026922Y002945D03*
X026449Y002945D03*
X026449Y002512D03*
X026449Y002079D03*
X026922Y002079D03*
X026449Y001666D03*
X026449Y001252D03*
X026449Y000741D03*
X027512Y004756D03*
X027473Y006804D03*
X026213Y007788D03*
X026213Y008181D03*
X026213Y008575D03*
X026213Y008969D03*
X028181Y009481D03*
X030378Y008473D03*
X030268Y011292D03*
X030741Y012040D03*
X029048Y012355D03*
X022867Y008378D03*
X035859Y006335D03*
X036134Y006335D03*
X036134Y006059D03*
X035859Y006059D03*
X036961Y006335D03*
X036961Y006611D03*
X036961Y006886D03*
X036685Y006886D03*
X036410Y006886D03*
X037237Y006886D03*
X037512Y006886D03*
X037788Y006886D03*
X038063Y006886D03*
X038063Y007162D03*
X037788Y007162D03*
X037788Y007437D03*
X037788Y007713D03*
X037512Y007162D03*
X039166Y006611D03*
X037898Y008489D03*
X037898Y008764D03*
X037898Y009040D03*
X037898Y009315D03*
X037748Y010741D03*
X037748Y011016D03*
X037748Y011292D03*
X007748Y015937D03*
X007119Y015977D03*
X004678Y004244D03*
X002158Y003890D03*
X000977Y003890D03*
D18*
X009126Y004284D02*
X009126Y010622D01*
X009048Y010741D01*
X009441Y010662D02*
X009520Y010741D01*
X009441Y010662D02*
X009441Y004402D01*
X009953Y003890D01*
X015229Y003890D01*
X016331Y002788D01*
X015701Y003024D02*
X015111Y003615D01*
X009796Y003615D01*
X009126Y004284D01*
X011292Y006607D02*
X012119Y005780D01*
X013733Y005780D01*
X013733Y007237D02*
X011804Y007237D01*
X011528Y007512D01*
X011528Y009048D01*
X011252Y009323D01*
X011016Y009323D01*
X011020Y008870D02*
X011292Y008599D01*
X011292Y006607D01*
X012119Y007552D02*
X012119Y009363D01*
X015977Y009363D01*
X015977Y007552D01*
X012119Y007552D01*
X012119Y007608D02*
X015977Y007608D01*
X015977Y007686D02*
X012119Y007686D01*
X012119Y007765D02*
X015977Y007765D01*
X015977Y007843D02*
X012119Y007843D01*
X012119Y007922D02*
X015977Y007922D01*
X015977Y008000D02*
X012119Y008000D01*
X012119Y008079D02*
X015977Y008079D01*
X015977Y008157D02*
X012119Y008157D01*
X012119Y008236D02*
X015977Y008236D01*
X015977Y008314D02*
X012119Y008314D01*
X012119Y008393D02*
X015977Y008393D01*
X015977Y008471D02*
X012119Y008471D01*
X012119Y008550D02*
X015977Y008550D01*
X015977Y008628D02*
X012119Y008628D01*
X012119Y008707D02*
X015977Y008707D01*
X015977Y008785D02*
X012119Y008785D01*
X012119Y008864D02*
X015977Y008864D01*
X015977Y008942D02*
X012119Y008942D01*
X012119Y009021D02*
X015977Y009021D01*
X015977Y009099D02*
X012119Y009099D01*
X012119Y009178D02*
X015977Y009178D01*
X015977Y009256D02*
X012119Y009256D01*
X012119Y009335D02*
X015977Y009335D01*
X015662Y011331D02*
X027315Y011292D01*
X027406Y018863D01*
X016699Y018888D01*
X015622Y018888D01*
X015662Y011331D01*
X015662Y011376D02*
X027316Y011376D01*
X027317Y011454D02*
X015661Y011454D01*
X015661Y011533D02*
X027318Y011533D01*
X027319Y011611D02*
X015660Y011611D01*
X015660Y011690D02*
X027320Y011690D01*
X027321Y011768D02*
X015660Y011768D01*
X015659Y011847D02*
X027322Y011847D01*
X027323Y011925D02*
X015659Y011925D01*
X015658Y012004D02*
X027324Y012004D01*
X027325Y012082D02*
X015658Y012082D01*
X015657Y012161D02*
X027326Y012161D01*
X027327Y012239D02*
X020074Y012239D01*
X020122Y012259D02*
X020206Y012343D01*
X020252Y012453D01*
X020252Y012572D01*
X020206Y012681D01*
X020122Y012765D01*
X020013Y012811D01*
X019894Y012811D01*
X019784Y012765D01*
X019700Y012681D01*
X019654Y012572D01*
X019654Y012453D01*
X019700Y012343D01*
X019784Y012259D01*
X019894Y012213D01*
X020013Y012213D01*
X020122Y012259D01*
X020181Y012318D02*
X027328Y012318D01*
X027329Y012396D02*
X020228Y012396D01*
X020252Y012475D02*
X027330Y012475D01*
X027330Y012553D02*
X020252Y012553D01*
X020227Y012632D02*
X027331Y012632D01*
X027332Y012710D02*
X020178Y012710D01*
X020067Y012789D02*
X027333Y012789D01*
X027334Y012867D02*
X018520Y012867D01*
X018520Y012926D02*
X018474Y013036D01*
X018390Y013120D01*
X018280Y013165D01*
X018161Y013165D01*
X018083Y013133D01*
X018005Y013165D01*
X017886Y013165D01*
X017807Y013133D01*
X017729Y013165D01*
X017610Y013165D01*
X017532Y013133D01*
X017454Y013165D01*
X017335Y013165D01*
X017225Y013120D01*
X017141Y013036D01*
X017095Y012926D01*
X017095Y012807D01*
X017141Y012697D01*
X017225Y012613D01*
X017335Y012568D01*
X017454Y012568D01*
X017532Y012600D01*
X017610Y012568D01*
X017729Y012568D01*
X017807Y012600D01*
X017886Y012568D01*
X018005Y012568D01*
X018083Y012600D01*
X018161Y012568D01*
X018280Y012568D01*
X018390Y012613D01*
X018474Y012697D01*
X018520Y012807D01*
X018520Y012926D01*
X018511Y012946D02*
X027335Y012946D01*
X027336Y013024D02*
X018479Y013024D01*
X018407Y013103D02*
X027337Y013103D01*
X027338Y013181D02*
X021205Y013181D01*
X021202Y013178D02*
X021295Y013271D01*
X021345Y013392D01*
X021345Y013522D01*
X021295Y013643D01*
X021202Y013736D01*
X021082Y013786D01*
X020951Y013786D01*
X020830Y013736D01*
X020737Y013643D01*
X020687Y013522D01*
X020687Y013392D01*
X020737Y013271D01*
X020830Y013178D01*
X020951Y013128D01*
X021082Y013128D01*
X021202Y013178D01*
X021284Y013260D02*
X027339Y013260D01*
X027340Y013338D02*
X021323Y013338D01*
X021345Y013417D02*
X027341Y013417D01*
X027342Y013495D02*
X021345Y013495D01*
X021324Y013574D02*
X027343Y013574D01*
X027344Y013652D02*
X021286Y013652D01*
X021208Y013731D02*
X027345Y013731D01*
X027345Y013809D02*
X018526Y013809D01*
X018525Y013808D02*
X018618Y013901D01*
X018668Y014022D01*
X018668Y014152D01*
X018618Y014273D01*
X018525Y014366D01*
X018404Y014416D01*
X018274Y014416D01*
X018153Y014366D01*
X018060Y014273D01*
X018010Y014152D01*
X018010Y014022D01*
X018060Y013901D01*
X018153Y013808D01*
X018274Y013758D01*
X018404Y013758D01*
X018525Y013808D01*
X018604Y013888D02*
X027346Y013888D01*
X027347Y013966D02*
X018645Y013966D01*
X018668Y014045D02*
X027348Y014045D01*
X027349Y014123D02*
X018668Y014123D01*
X018647Y014202D02*
X027350Y014202D01*
X027351Y014280D02*
X018611Y014280D01*
X018532Y014359D02*
X027352Y014359D01*
X027353Y014437D02*
X015646Y014437D01*
X015646Y014359D02*
X018146Y014359D01*
X018067Y014280D02*
X015646Y014280D01*
X015647Y014202D02*
X018031Y014202D01*
X018010Y014123D02*
X015647Y014123D01*
X015648Y014045D02*
X018010Y014045D01*
X018033Y013966D02*
X015648Y013966D01*
X015648Y013888D02*
X018074Y013888D01*
X018152Y013809D02*
X015649Y013809D01*
X015649Y013731D02*
X020825Y013731D01*
X020746Y013652D02*
X015650Y013652D01*
X015650Y013574D02*
X020709Y013574D01*
X020687Y013495D02*
X015651Y013495D01*
X015651Y013417D02*
X020687Y013417D01*
X020710Y013338D02*
X015651Y013338D01*
X015652Y013260D02*
X020749Y013260D01*
X020827Y013181D02*
X015652Y013181D01*
X015653Y013103D02*
X017208Y013103D01*
X017136Y013024D02*
X015653Y013024D01*
X015653Y012946D02*
X017103Y012946D01*
X017095Y012867D02*
X015654Y012867D01*
X015654Y012789D02*
X017103Y012789D01*
X017136Y012710D02*
X015655Y012710D01*
X015655Y012632D02*
X017207Y012632D01*
X018408Y012632D02*
X019679Y012632D01*
X019654Y012553D02*
X015655Y012553D01*
X015656Y012475D02*
X019654Y012475D01*
X019678Y012396D02*
X015656Y012396D01*
X015657Y012318D02*
X019725Y012318D01*
X019832Y012239D02*
X015657Y012239D01*
X018479Y012710D02*
X019729Y012710D01*
X019840Y012789D02*
X018512Y012789D01*
X015645Y014516D02*
X027354Y014516D01*
X027355Y014594D02*
X015645Y014594D01*
X015644Y014673D02*
X027356Y014673D01*
X027357Y014751D02*
X015644Y014751D01*
X015644Y014830D02*
X027358Y014830D01*
X027359Y014908D02*
X017298Y014908D01*
X017305Y014911D02*
X017397Y015003D01*
X017447Y015124D01*
X017447Y015255D01*
X017397Y015376D01*
X017305Y015468D01*
X017184Y015518D01*
X017053Y015518D01*
X016961Y015480D01*
X016869Y015518D01*
X016738Y015518D01*
X016617Y015468D01*
X016525Y015376D01*
X016475Y015255D01*
X016475Y015124D01*
X016525Y015003D01*
X016617Y014911D01*
X016738Y014861D01*
X016869Y014861D01*
X016961Y014899D01*
X017053Y014861D01*
X017184Y014861D01*
X017305Y014911D01*
X017381Y014987D02*
X027360Y014987D01*
X027360Y015065D02*
X021472Y015065D01*
X021461Y015054D02*
X021545Y015138D01*
X021590Y015248D01*
X021590Y015367D01*
X021558Y015445D01*
X021590Y015524D01*
X021590Y015642D01*
X021545Y015752D01*
X021461Y015836D01*
X021351Y015882D01*
X021232Y015882D01*
X021154Y015849D01*
X021076Y015882D01*
X020957Y015882D01*
X020878Y015849D01*
X020800Y015882D01*
X020681Y015882D01*
X020571Y015836D01*
X020487Y015752D01*
X020442Y015642D01*
X020442Y015524D01*
X020474Y015445D01*
X020442Y015367D01*
X020442Y015248D01*
X020487Y015138D01*
X020571Y015054D01*
X020681Y015009D01*
X020800Y015009D01*
X020878Y015041D01*
X020957Y015009D01*
X021076Y015009D01*
X021154Y015041D01*
X021232Y015009D01*
X021351Y015009D01*
X021461Y015054D01*
X021547Y015144D02*
X027361Y015144D01*
X027362Y015222D02*
X021580Y015222D01*
X021590Y015301D02*
X027363Y015301D01*
X027364Y015379D02*
X021585Y015379D01*
X021563Y015458D02*
X027365Y015458D01*
X027366Y015536D02*
X021590Y015536D01*
X021590Y015615D02*
X027367Y015615D01*
X027368Y015693D02*
X021570Y015693D01*
X021526Y015772D02*
X027369Y015772D01*
X027370Y015850D02*
X021428Y015850D01*
X021156Y015850D02*
X021152Y015850D01*
X020880Y015850D02*
X020877Y015850D01*
X020604Y015850D02*
X015638Y015850D01*
X015639Y015772D02*
X020507Y015772D01*
X020463Y015693D02*
X015639Y015693D01*
X015640Y015615D02*
X020442Y015615D01*
X020442Y015536D02*
X015640Y015536D01*
X015640Y015458D02*
X016607Y015458D01*
X016528Y015379D02*
X015641Y015379D01*
X015641Y015301D02*
X016494Y015301D01*
X016475Y015222D02*
X015642Y015222D01*
X015642Y015144D02*
X016475Y015144D01*
X016499Y015065D02*
X015642Y015065D01*
X015643Y014987D02*
X016541Y014987D01*
X016624Y014908D02*
X015643Y014908D01*
X015638Y015929D02*
X016694Y015929D01*
X016733Y015912D02*
X016869Y015912D01*
X016961Y015951D01*
X017053Y015912D01*
X017189Y015912D01*
X017314Y015964D01*
X017409Y016060D01*
X017461Y016185D01*
X017461Y016320D01*
X017409Y016445D01*
X017314Y016541D01*
X017189Y016592D01*
X017053Y016592D01*
X016961Y016554D01*
X016869Y016592D01*
X016733Y016592D01*
X016608Y016541D01*
X016513Y016445D01*
X016461Y016320D01*
X016461Y016185D01*
X016513Y016060D01*
X016608Y015964D01*
X016733Y015912D01*
X016908Y015929D02*
X017014Y015929D01*
X017228Y015929D02*
X027371Y015929D01*
X027372Y016007D02*
X018747Y016007D01*
X018713Y015993D02*
X018823Y016038D01*
X018907Y016123D01*
X018953Y016232D01*
X018953Y016351D01*
X018907Y016461D01*
X018823Y016545D01*
X018713Y016590D01*
X018595Y016590D01*
X018485Y016545D01*
X018401Y016461D01*
X018355Y016351D01*
X018355Y016232D01*
X018401Y016123D01*
X018485Y016038D01*
X018595Y015993D01*
X018713Y015993D01*
X018561Y016007D02*
X017357Y016007D01*
X017420Y016086D02*
X018438Y016086D01*
X018383Y016164D02*
X017452Y016164D01*
X017461Y016243D02*
X018355Y016243D01*
X018355Y016321D02*
X017461Y016321D01*
X017428Y016400D02*
X018375Y016400D01*
X018418Y016478D02*
X017376Y016478D01*
X017275Y016557D02*
X018513Y016557D01*
X018795Y016557D02*
X027378Y016557D01*
X027379Y016635D02*
X015634Y016635D01*
X015635Y016557D02*
X016647Y016557D01*
X016546Y016478D02*
X015635Y016478D01*
X015635Y016400D02*
X016494Y016400D01*
X016461Y016321D02*
X015636Y016321D01*
X015636Y016243D02*
X016461Y016243D01*
X016470Y016164D02*
X015637Y016164D01*
X015637Y016086D02*
X016502Y016086D01*
X016566Y016007D02*
X015637Y016007D01*
X015634Y016714D02*
X027380Y016714D01*
X027381Y016792D02*
X015633Y016792D01*
X015633Y016871D02*
X027382Y016871D01*
X027383Y016949D02*
X015633Y016949D01*
X015632Y017028D02*
X027384Y017028D01*
X027385Y017106D02*
X015632Y017106D01*
X015631Y017185D02*
X027386Y017185D01*
X027387Y017263D02*
X015631Y017263D01*
X015631Y017342D02*
X027388Y017342D01*
X027389Y017420D02*
X015630Y017420D01*
X015630Y017499D02*
X018808Y017499D01*
X018831Y017489D02*
X018950Y017489D01*
X019059Y017535D01*
X019143Y017619D01*
X019189Y017728D01*
X019189Y017847D01*
X019143Y017957D01*
X019059Y018041D01*
X018950Y018087D01*
X018831Y018087D01*
X018721Y018041D01*
X018637Y017957D01*
X018591Y017847D01*
X018591Y017728D01*
X018637Y017619D01*
X018721Y017535D01*
X018831Y017489D01*
X018973Y017499D02*
X027390Y017499D01*
X027391Y017577D02*
X019102Y017577D01*
X019159Y017656D02*
X027391Y017656D01*
X027392Y017734D02*
X019189Y017734D01*
X019189Y017813D02*
X027393Y017813D01*
X027394Y017891D02*
X019171Y017891D01*
X019131Y017970D02*
X027395Y017970D01*
X027396Y018048D02*
X021899Y018048D01*
X021872Y018021D02*
X021964Y018113D01*
X022014Y018234D01*
X022014Y018365D01*
X021964Y018486D01*
X021872Y018578D01*
X021751Y018628D01*
X021620Y018628D01*
X021499Y018578D01*
X021407Y018486D01*
X021357Y018365D01*
X021357Y018234D01*
X021407Y018113D01*
X021499Y018021D01*
X021620Y017971D01*
X021751Y017971D01*
X021872Y018021D01*
X021970Y018127D02*
X027397Y018127D01*
X027398Y018205D02*
X022002Y018205D01*
X022014Y018284D02*
X027399Y018284D01*
X027400Y018362D02*
X022014Y018362D01*
X021983Y018441D02*
X027401Y018441D01*
X027402Y018519D02*
X021931Y018519D01*
X021825Y018598D02*
X027403Y018598D01*
X027404Y018676D02*
X015624Y018676D01*
X015624Y018598D02*
X019971Y018598D01*
X019924Y018578D02*
X019832Y018486D01*
X019782Y018365D01*
X019782Y018234D01*
X019832Y018113D01*
X019924Y018021D01*
X020045Y017971D01*
X020176Y017971D01*
X020297Y018021D01*
X020389Y018113D01*
X020439Y018234D01*
X020439Y018365D01*
X020389Y018486D01*
X020297Y018578D01*
X020176Y018628D01*
X020045Y018628D01*
X019924Y018578D01*
X019865Y018519D02*
X015624Y018519D01*
X015625Y018441D02*
X019813Y018441D01*
X019782Y018362D02*
X015625Y018362D01*
X015626Y018284D02*
X019782Y018284D01*
X019794Y018205D02*
X015626Y018205D01*
X015626Y018127D02*
X019826Y018127D01*
X019897Y018048D02*
X019042Y018048D01*
X018738Y018048D02*
X015627Y018048D01*
X015627Y017970D02*
X018649Y017970D01*
X018610Y017891D02*
X015628Y017891D01*
X015628Y017813D02*
X018591Y017813D01*
X018591Y017734D02*
X015628Y017734D01*
X015629Y017656D02*
X018622Y017656D01*
X018678Y017577D02*
X015629Y017577D01*
X015623Y018755D02*
X027405Y018755D01*
X027406Y018833D02*
X015623Y018833D01*
X016955Y016557D02*
X016967Y016557D01*
X017315Y015458D02*
X020469Y015458D01*
X020447Y015379D02*
X017394Y015379D01*
X017428Y015301D02*
X020442Y015301D01*
X020453Y015222D02*
X017447Y015222D01*
X017447Y015144D02*
X020485Y015144D01*
X020561Y015065D02*
X017423Y015065D01*
X018870Y016086D02*
X027373Y016086D01*
X027374Y016164D02*
X018924Y016164D01*
X018953Y016243D02*
X027375Y016243D01*
X027376Y016321D02*
X018953Y016321D01*
X018933Y016400D02*
X027376Y016400D01*
X027377Y016478D02*
X018890Y016478D01*
X020324Y018048D02*
X021472Y018048D01*
X021401Y018127D02*
X020395Y018127D01*
X020427Y018205D02*
X021369Y018205D01*
X021357Y018284D02*
X020439Y018284D01*
X020439Y018362D02*
X021357Y018362D01*
X021388Y018441D02*
X020408Y018441D01*
X020356Y018519D02*
X021440Y018519D01*
X021546Y018598D02*
X020250Y018598D01*
X025746Y011297D02*
X027315Y011297D01*
X015701Y003024D02*
X015701Y002315D01*
X016016Y002000D01*
X016922Y002000D01*
X017276Y002355D01*
X017276Y002512D01*
X008418Y008811D02*
X007237Y008811D01*
X006843Y009205D01*
X006843Y009993D01*
X006449Y010386D01*
X005662Y010386D01*
X005268Y009993D01*
X005268Y009941D01*
X005071Y009744D01*
D19*
X000895Y000643D02*
X015819Y000643D01*
X015819Y000741D02*
X000796Y000741D01*
X000698Y000840D02*
X015819Y000840D01*
X015819Y000938D02*
X000612Y000938D01*
X000630Y000907D02*
X000434Y001246D01*
X000333Y001624D01*
X000320Y001820D01*
X000320Y017818D01*
X000333Y017983D01*
X000436Y018299D01*
X000630Y018567D01*
X000899Y018762D01*
X001214Y018865D01*
X001380Y018878D01*
X015819Y018878D01*
X015819Y009603D01*
X012071Y009603D01*
X011983Y009566D01*
X011915Y009499D01*
X011879Y009410D01*
X011879Y007504D01*
X011880Y007499D01*
X011768Y007612D01*
X011768Y009095D01*
X011731Y009184D01*
X011456Y009459D01*
X011388Y009527D01*
X011302Y009563D01*
X011303Y009564D01*
X011355Y009689D01*
X011355Y009824D01*
X011303Y009948D01*
X011208Y010043D01*
X011084Y010095D01*
X011043Y010095D01*
X011081Y010133D01*
X011128Y010246D01*
X011128Y010369D01*
X011081Y010482D01*
X011061Y010503D01*
X011106Y010549D01*
X011158Y010673D01*
X011158Y010808D01*
X011106Y010932D01*
X011011Y011028D01*
X010887Y011079D01*
X010752Y011079D01*
X010627Y011028D01*
X010532Y010932D01*
X010481Y010808D01*
X010481Y010673D01*
X010532Y010549D01*
X010578Y010503D01*
X010558Y010482D01*
X010511Y010369D01*
X010511Y010246D01*
X010558Y010133D01*
X010644Y010046D01*
X010758Y009999D01*
X010780Y009999D01*
X010729Y009948D01*
X010677Y009824D01*
X010677Y009689D01*
X010729Y009564D01*
X010754Y009540D01*
X010729Y009515D01*
X010677Y009391D01*
X010677Y009256D01*
X010729Y009131D01*
X010765Y009095D01*
X010733Y009062D01*
X010681Y008938D01*
X010681Y008803D01*
X010733Y008679D01*
X010828Y008583D01*
X010953Y008532D01*
X011019Y008532D01*
X011052Y008499D01*
X011052Y006559D01*
X011088Y006471D01*
X011156Y006403D01*
X011983Y005576D01*
X012071Y005540D01*
X013494Y005540D01*
X013541Y005493D01*
X013665Y005441D01*
X013800Y005441D01*
X013925Y005493D01*
X014020Y005588D01*
X014071Y005713D01*
X014071Y005847D01*
X014020Y005972D01*
X013925Y006067D01*
X013800Y006119D01*
X013665Y006119D01*
X013541Y006067D01*
X013494Y006020D01*
X012218Y006020D01*
X011532Y006706D01*
X011532Y007169D01*
X011668Y007033D01*
X011756Y006997D01*
X013494Y006997D01*
X013541Y006949D01*
X013665Y006898D01*
X013800Y006898D01*
X013925Y006949D01*
X014020Y007045D01*
X015819Y007045D01*
X015819Y006947D02*
X013917Y006947D01*
X014020Y007045D02*
X014071Y007169D01*
X014071Y007304D01*
X014068Y007312D01*
X015819Y007312D01*
X015819Y003639D01*
X015432Y004026D01*
X015365Y004094D01*
X015276Y004130D01*
X011814Y004130D01*
X011894Y004210D01*
X011945Y004335D01*
X011945Y004469D01*
X011894Y004594D01*
X011799Y004689D01*
X011674Y004741D01*
X011539Y004741D01*
X011415Y004689D01*
X011320Y004594D01*
X011268Y004469D01*
X011268Y004335D01*
X011320Y004210D01*
X011399Y004130D01*
X010053Y004130D01*
X009681Y004501D01*
X009681Y010441D01*
X009712Y010453D01*
X009807Y010549D01*
X009859Y010673D01*
X009859Y010808D01*
X009807Y010932D01*
X009712Y011028D01*
X009587Y011079D01*
X009453Y011079D01*
X009328Y011028D01*
X009284Y010983D01*
X009240Y011028D01*
X009115Y011079D01*
X008980Y011079D01*
X008856Y011028D01*
X008760Y010932D01*
X008709Y010808D01*
X008709Y010673D01*
X008760Y010549D01*
X008856Y010453D01*
X008886Y010441D01*
X008886Y004236D01*
X008923Y004148D01*
X008990Y004080D01*
X009660Y003411D01*
X009748Y003375D01*
X011399Y003375D01*
X011320Y003295D01*
X011268Y003170D01*
X011268Y003035D01*
X011320Y002911D01*
X011415Y002816D01*
X011539Y002764D01*
X011674Y002764D01*
X011799Y002816D01*
X011894Y002911D01*
X011945Y003035D01*
X011945Y003170D01*
X011894Y003295D01*
X011814Y003375D01*
X012187Y003375D01*
X012107Y003295D01*
X012055Y003170D01*
X012055Y003035D01*
X012107Y002911D01*
X012202Y002816D01*
X012327Y002764D01*
X012461Y002764D01*
X012586Y002816D01*
X012681Y002911D01*
X012733Y003035D01*
X012733Y003170D01*
X012681Y003295D01*
X012601Y003375D01*
X012974Y003375D01*
X012894Y003295D01*
X012843Y003170D01*
X012843Y003035D01*
X012894Y002911D01*
X012990Y002816D01*
X013114Y002764D01*
X013249Y002764D01*
X013373Y002816D01*
X013469Y002911D01*
X013520Y003035D01*
X013520Y003170D01*
X013469Y003295D01*
X013389Y003375D01*
X013762Y003375D01*
X013682Y003295D01*
X013630Y003170D01*
X013630Y003035D01*
X013682Y002911D01*
X013777Y002816D01*
X013902Y002764D01*
X014036Y002764D01*
X014161Y002816D01*
X014256Y002911D01*
X014308Y003035D01*
X014308Y003170D01*
X014256Y003295D01*
X014176Y003375D01*
X014549Y003375D01*
X014469Y003295D01*
X014418Y003170D01*
X014418Y003035D01*
X014469Y002911D01*
X014564Y002816D01*
X014689Y002764D01*
X014824Y002764D01*
X014948Y002816D01*
X015043Y002911D01*
X015095Y003035D01*
X015095Y003170D01*
X015043Y003295D01*
X014964Y003375D01*
X015011Y003375D01*
X015461Y002925D01*
X015461Y002268D01*
X015498Y002179D01*
X015565Y002112D01*
X015813Y001864D01*
X015819Y001858D01*
X015819Y000320D01*
X001820Y000320D01*
X001624Y000333D01*
X001246Y000434D01*
X000907Y000630D01*
X000630Y000907D01*
X000555Y001037D02*
X001374Y001037D01*
X001289Y001072D02*
X001572Y000955D01*
X001878Y000955D01*
X002161Y001072D01*
X002378Y001289D01*
X002495Y001572D01*
X002495Y001878D01*
X002378Y002161D01*
X002161Y002378D01*
X001878Y002495D01*
X001572Y002495D01*
X001289Y002378D01*
X001072Y002161D01*
X000955Y001878D01*
X000955Y001572D01*
X001072Y001289D01*
X001289Y001072D01*
X001226Y001135D02*
X000498Y001135D01*
X000442Y001234D02*
X001127Y001234D01*
X001054Y001332D02*
X000411Y001332D01*
X000385Y001431D02*
X001013Y001431D01*
X000972Y001529D02*
X000358Y001529D01*
X000333Y001628D02*
X000955Y001628D01*
X000955Y001726D02*
X000326Y001726D01*
X000320Y001825D02*
X000955Y001825D01*
X000973Y001923D02*
X000320Y001923D01*
X000320Y002022D02*
X001014Y002022D01*
X001055Y002120D02*
X000320Y002120D01*
X000320Y002219D02*
X001130Y002219D01*
X001228Y002317D02*
X000320Y002317D01*
X000320Y002416D02*
X001380Y002416D01*
X002069Y002416D02*
X004670Y002416D01*
X004641Y002484D02*
X004714Y002309D01*
X004848Y002175D01*
X005024Y002102D01*
X005213Y002102D01*
X005389Y002175D01*
X005523Y002309D01*
X005596Y002484D01*
X005596Y002674D01*
X005523Y002849D01*
X005389Y002984D01*
X005213Y003056D01*
X005024Y003056D01*
X004848Y002984D01*
X004714Y002849D01*
X004641Y002674D01*
X004641Y002484D01*
X004641Y002514D02*
X000320Y002514D01*
X000320Y002613D02*
X004641Y002613D01*
X004657Y002711D02*
X000320Y002711D01*
X000320Y002810D02*
X004697Y002810D01*
X004773Y002908D02*
X000320Y002908D01*
X000320Y003007D02*
X004903Y003007D01*
X005334Y003007D02*
X005903Y003007D01*
X005848Y002984D02*
X005714Y002849D01*
X005641Y002674D01*
X005641Y002484D01*
X005714Y002309D01*
X005848Y002175D01*
X006024Y002102D01*
X006079Y002102D01*
X006033Y002056D01*
X006024Y002056D01*
X005848Y001984D01*
X005714Y001849D01*
X005641Y001674D01*
X005641Y001484D01*
X005714Y001309D01*
X005848Y001175D01*
X006024Y001102D01*
X006213Y001102D01*
X006389Y001175D01*
X006523Y001309D01*
X006596Y001484D01*
X006596Y001674D01*
X006526Y001842D01*
X006748Y002064D01*
X006819Y002134D01*
X006839Y002184D01*
X006848Y002175D01*
X007024Y002102D01*
X007213Y002102D01*
X007389Y002175D01*
X007523Y002309D01*
X007596Y002484D01*
X007596Y002674D01*
X007523Y002849D01*
X007389Y002984D01*
X007213Y003056D01*
X007024Y003056D01*
X006857Y002987D01*
X006857Y003625D01*
X006819Y003717D01*
X006149Y004386D01*
X006079Y004456D01*
X005987Y004494D01*
X004907Y004494D01*
X004869Y004532D01*
X004745Y004583D01*
X004610Y004583D01*
X004486Y004532D01*
X004390Y004436D01*
X004339Y004312D01*
X004339Y004177D01*
X004390Y004053D01*
X004486Y003957D01*
X004610Y003906D01*
X004745Y003906D01*
X004869Y003957D01*
X004907Y003994D01*
X005834Y003994D01*
X006357Y003472D01*
X006357Y002997D01*
X006213Y003056D01*
X006024Y003056D01*
X005848Y002984D01*
X005773Y002908D02*
X005464Y002908D01*
X005540Y002810D02*
X005697Y002810D01*
X005657Y002711D02*
X005580Y002711D01*
X005596Y002613D02*
X005641Y002613D01*
X005641Y002514D02*
X005596Y002514D01*
X005567Y002416D02*
X005670Y002416D01*
X005711Y002317D02*
X005526Y002317D01*
X005433Y002219D02*
X005804Y002219D01*
X005980Y002120D02*
X005257Y002120D01*
X005213Y002056D02*
X005024Y002056D01*
X004848Y001984D01*
X004714Y001849D01*
X004641Y001674D01*
X004641Y001484D01*
X004714Y001309D01*
X004848Y001175D01*
X005024Y001102D01*
X005213Y001102D01*
X005389Y001175D01*
X005523Y001309D01*
X005596Y001484D01*
X005596Y001674D01*
X005523Y001849D01*
X005389Y001984D01*
X005213Y002056D01*
X005297Y002022D02*
X005940Y002022D01*
X005788Y001923D02*
X005449Y001923D01*
X005533Y001825D02*
X005704Y001825D01*
X005663Y001726D02*
X005574Y001726D01*
X005596Y001628D02*
X005641Y001628D01*
X005641Y001529D02*
X005596Y001529D01*
X005573Y001431D02*
X005664Y001431D01*
X005704Y001332D02*
X005533Y001332D01*
X005448Y001234D02*
X005789Y001234D01*
X005944Y001135D02*
X005293Y001135D01*
X004944Y001135D02*
X002224Y001135D01*
X002322Y001234D02*
X004789Y001234D01*
X004704Y001332D02*
X002396Y001332D01*
X002436Y001431D02*
X004664Y001431D01*
X004641Y001529D02*
X002477Y001529D01*
X002495Y001628D02*
X004641Y001628D01*
X004663Y001726D02*
X002495Y001726D01*
X002495Y001825D02*
X004704Y001825D01*
X004788Y001923D02*
X002476Y001923D01*
X002435Y002022D02*
X004940Y002022D01*
X004980Y002120D02*
X002395Y002120D01*
X002320Y002219D02*
X004804Y002219D01*
X004711Y002317D02*
X002222Y002317D01*
X000320Y003105D02*
X006357Y003105D01*
X006357Y003007D02*
X006334Y003007D01*
X006357Y003204D02*
X000320Y003204D01*
X000320Y003302D02*
X006357Y003302D01*
X006357Y003401D02*
X000320Y003401D01*
X000320Y003499D02*
X006329Y003499D01*
X006231Y003598D02*
X002337Y003598D01*
X002350Y003603D02*
X002445Y003698D01*
X002497Y003823D01*
X002497Y003958D01*
X002445Y004082D01*
X002350Y004177D01*
X002225Y004229D01*
X002090Y004229D01*
X001966Y004177D01*
X001871Y004082D01*
X001819Y003958D01*
X001819Y003823D01*
X001871Y003698D01*
X001966Y003603D01*
X002090Y003551D01*
X002225Y003551D01*
X002350Y003603D01*
X002443Y003696D02*
X006132Y003696D01*
X006034Y003795D02*
X002485Y003795D01*
X002497Y003893D02*
X005935Y003893D01*
X005837Y003992D02*
X004904Y003992D01*
X004451Y003992D02*
X002483Y003992D01*
X002437Y004090D02*
X004375Y004090D01*
X004339Y004189D02*
X002323Y004189D01*
X001993Y004189D02*
X001142Y004189D01*
X001169Y004177D02*
X001044Y004229D01*
X000909Y004229D01*
X000785Y004177D01*
X000690Y004082D01*
X000638Y003958D01*
X000638Y003823D01*
X000690Y003698D01*
X000785Y003603D01*
X000909Y003551D01*
X001044Y003551D01*
X001169Y003603D01*
X001264Y003698D01*
X001316Y003823D01*
X001316Y003958D01*
X001264Y004082D01*
X001169Y004177D01*
X001256Y004090D02*
X001879Y004090D01*
X001833Y003992D02*
X001301Y003992D01*
X001316Y003893D02*
X001819Y003893D01*
X001831Y003795D02*
X001304Y003795D01*
X001262Y003696D02*
X001873Y003696D01*
X001979Y003598D02*
X001155Y003598D01*
X000798Y003598D02*
X000320Y003598D01*
X000320Y003696D02*
X000692Y003696D01*
X000650Y003795D02*
X000320Y003795D01*
X000320Y003893D02*
X000638Y003893D01*
X000652Y003992D02*
X000320Y003992D01*
X000320Y004090D02*
X000698Y004090D01*
X000812Y004189D02*
X000320Y004189D01*
X000320Y004287D02*
X004339Y004287D01*
X004369Y004386D02*
X000320Y004386D01*
X000320Y004484D02*
X004438Y004484D01*
X004608Y004583D02*
X000320Y004583D01*
X000320Y004681D02*
X008886Y004681D01*
X008886Y004583D02*
X004747Y004583D01*
X004678Y004244D02*
X005937Y004244D01*
X006607Y003575D01*
X006607Y002276D01*
X006119Y001788D01*
X006119Y001579D01*
X006573Y001431D02*
X006664Y001431D01*
X006641Y001484D02*
X006714Y001309D01*
X006848Y001175D01*
X007024Y001102D01*
X007213Y001102D01*
X007389Y001175D01*
X007523Y001309D01*
X007596Y001484D01*
X007596Y001674D01*
X007523Y001849D01*
X007389Y001984D01*
X007213Y002056D01*
X007024Y002056D01*
X006848Y001984D01*
X006714Y001849D01*
X006641Y001674D01*
X006641Y001484D01*
X006641Y001529D02*
X006596Y001529D01*
X006596Y001628D02*
X006641Y001628D01*
X006663Y001726D02*
X006574Y001726D01*
X006533Y001825D02*
X006704Y001825D01*
X006788Y001923D02*
X006607Y001923D01*
X006706Y002022D02*
X006940Y002022D01*
X006980Y002120D02*
X006804Y002120D01*
X007257Y002120D02*
X007980Y002120D01*
X008024Y002102D02*
X007848Y002175D01*
X007714Y002309D01*
X007641Y002484D01*
X007641Y002674D01*
X007714Y002849D01*
X007848Y002984D01*
X008024Y003056D01*
X008213Y003056D01*
X008389Y002984D01*
X008523Y002849D01*
X008596Y002674D01*
X008596Y002484D01*
X008523Y002309D01*
X008389Y002175D01*
X008213Y002102D01*
X008024Y002102D01*
X008024Y002056D02*
X007848Y001984D01*
X007714Y001849D01*
X007641Y001674D01*
X007641Y001484D01*
X007714Y001309D01*
X007848Y001175D01*
X008024Y001102D01*
X008213Y001102D01*
X008389Y001175D01*
X008523Y001309D01*
X008596Y001484D01*
X008596Y001674D01*
X008523Y001849D01*
X008389Y001984D01*
X008213Y002056D01*
X008024Y002056D01*
X007940Y002022D02*
X007297Y002022D01*
X007449Y001923D02*
X007788Y001923D01*
X007704Y001825D02*
X007533Y001825D01*
X007574Y001726D02*
X007663Y001726D01*
X007641Y001628D02*
X007596Y001628D01*
X007596Y001529D02*
X007641Y001529D01*
X007664Y001431D02*
X007573Y001431D01*
X007533Y001332D02*
X007704Y001332D01*
X007789Y001234D02*
X007448Y001234D01*
X007293Y001135D02*
X007944Y001135D01*
X008293Y001135D02*
X008944Y001135D01*
X009024Y001102D02*
X008848Y001175D01*
X008714Y001309D01*
X008641Y001484D01*
X008641Y001674D01*
X008714Y001849D01*
X008848Y001984D01*
X009024Y002056D01*
X009213Y002056D01*
X009389Y001984D01*
X009523Y001849D01*
X009596Y001674D01*
X009596Y001484D01*
X009523Y001309D01*
X009389Y001175D01*
X009213Y001102D01*
X009024Y001102D01*
X008789Y001234D02*
X008448Y001234D01*
X008533Y001332D02*
X008704Y001332D01*
X008664Y001431D02*
X008573Y001431D01*
X008596Y001529D02*
X008641Y001529D01*
X008641Y001628D02*
X008596Y001628D01*
X008574Y001726D02*
X008663Y001726D01*
X008704Y001825D02*
X008533Y001825D01*
X008449Y001923D02*
X008788Y001923D01*
X008940Y002022D02*
X008297Y002022D01*
X008257Y002120D02*
X008980Y002120D01*
X009024Y002102D02*
X009213Y002102D01*
X009389Y002175D01*
X009523Y002309D01*
X009596Y002484D01*
X009596Y002674D01*
X009523Y002849D01*
X009389Y002984D01*
X009213Y003056D01*
X009024Y003056D01*
X008848Y002984D01*
X008714Y002849D01*
X008641Y002674D01*
X008641Y002484D01*
X008714Y002309D01*
X008848Y002175D01*
X009024Y002102D01*
X009257Y002120D02*
X015557Y002120D01*
X015482Y002219D02*
X009433Y002219D01*
X009526Y002317D02*
X015461Y002317D01*
X015461Y002416D02*
X009567Y002416D01*
X009596Y002514D02*
X015461Y002514D01*
X015461Y002613D02*
X009596Y002613D01*
X009580Y002711D02*
X015461Y002711D01*
X015461Y002810D02*
X014934Y002810D01*
X015041Y002908D02*
X015461Y002908D01*
X015379Y003007D02*
X015083Y003007D01*
X015095Y003105D02*
X015281Y003105D01*
X015182Y003204D02*
X015081Y003204D01*
X015084Y003302D02*
X015036Y003302D01*
X014477Y003302D02*
X014249Y003302D01*
X014294Y003204D02*
X014431Y003204D01*
X014418Y003105D02*
X014308Y003105D01*
X014296Y003007D02*
X014430Y003007D01*
X014472Y002908D02*
X014253Y002908D01*
X014146Y002810D02*
X014579Y002810D01*
X013792Y002810D02*
X013359Y002810D01*
X013466Y002908D02*
X013685Y002908D01*
X013642Y003007D02*
X013508Y003007D01*
X013520Y003105D02*
X013630Y003105D01*
X013644Y003204D02*
X013506Y003204D01*
X013461Y003302D02*
X013689Y003302D01*
X012902Y003302D02*
X012674Y003302D01*
X012719Y003204D02*
X012857Y003204D01*
X012843Y003105D02*
X012733Y003105D01*
X012721Y003007D02*
X012855Y003007D01*
X012897Y002908D02*
X012678Y002908D01*
X012571Y002810D02*
X013004Y002810D01*
X012217Y002810D02*
X011784Y002810D01*
X011891Y002908D02*
X012110Y002908D01*
X012067Y003007D02*
X011933Y003007D01*
X011945Y003105D02*
X012055Y003105D01*
X012069Y003204D02*
X011932Y003204D01*
X011886Y003302D02*
X012114Y003302D01*
X011327Y003302D02*
X006857Y003302D01*
X006857Y003204D02*
X011282Y003204D01*
X011268Y003105D02*
X006857Y003105D01*
X006857Y003007D02*
X006903Y003007D01*
X007334Y003007D02*
X007903Y003007D01*
X007773Y002908D02*
X007464Y002908D01*
X007540Y002810D02*
X007697Y002810D01*
X007657Y002711D02*
X007580Y002711D01*
X007596Y002613D02*
X007641Y002613D01*
X007641Y002514D02*
X007596Y002514D01*
X007567Y002416D02*
X007670Y002416D01*
X007711Y002317D02*
X007526Y002317D01*
X007433Y002219D02*
X007804Y002219D01*
X008433Y002219D02*
X008804Y002219D01*
X008711Y002317D02*
X008526Y002317D01*
X008567Y002416D02*
X008670Y002416D01*
X008641Y002514D02*
X008596Y002514D01*
X008596Y002613D02*
X008641Y002613D01*
X008657Y002711D02*
X008580Y002711D01*
X008540Y002810D02*
X008697Y002810D01*
X008773Y002908D02*
X008464Y002908D01*
X008334Y003007D02*
X008903Y003007D01*
X009334Y003007D02*
X011280Y003007D01*
X011322Y002908D02*
X009464Y002908D01*
X009540Y002810D02*
X011429Y002810D01*
X009685Y003401D02*
X006857Y003401D01*
X006857Y003499D02*
X009572Y003499D01*
X009473Y003598D02*
X006857Y003598D01*
X006827Y003696D02*
X009375Y003696D01*
X009276Y003795D02*
X006741Y003795D01*
X006642Y003893D02*
X009178Y003893D01*
X009079Y003992D02*
X006544Y003992D01*
X006445Y004090D02*
X008981Y004090D01*
X008906Y004189D02*
X006347Y004189D01*
X006248Y004287D02*
X008886Y004287D01*
X008886Y004386D02*
X006150Y004386D01*
X006012Y004484D02*
X008886Y004484D01*
X008886Y004780D02*
X000320Y004780D01*
X000320Y004878D02*
X008886Y004878D01*
X008886Y004977D02*
X000320Y004977D01*
X000320Y005075D02*
X008886Y005075D01*
X008886Y005174D02*
X000320Y005174D01*
X000320Y005272D02*
X008886Y005272D01*
X008886Y005371D02*
X000320Y005371D01*
X000320Y005469D02*
X008886Y005469D01*
X008886Y005568D02*
X000320Y005568D01*
X000320Y005666D02*
X008886Y005666D01*
X008886Y005765D02*
X000320Y005765D01*
X000320Y005863D02*
X008886Y005863D01*
X008886Y005962D02*
X000320Y005962D01*
X000320Y006060D02*
X007731Y006060D01*
X007675Y006083D02*
X007799Y006032D01*
X007934Y006032D01*
X008058Y006083D01*
X008154Y006179D01*
X008205Y006303D01*
X008205Y006438D01*
X008154Y006562D01*
X008058Y006658D01*
X007934Y006709D01*
X007799Y006709D01*
X007675Y006658D01*
X007579Y006562D01*
X007528Y006438D01*
X007528Y006303D01*
X007579Y006179D01*
X007675Y006083D01*
X007599Y006159D02*
X001720Y006159D01*
X001698Y006149D02*
X001866Y006219D01*
X001995Y006348D01*
X002064Y006516D01*
X002064Y006698D01*
X001995Y006866D01*
X001866Y006995D01*
X001852Y007000D01*
X001866Y007006D01*
X001995Y007135D01*
X002064Y007303D01*
X002064Y007485D01*
X001995Y007653D01*
X001866Y007782D01*
X001852Y007788D01*
X001866Y007794D01*
X001995Y007922D01*
X002064Y008090D01*
X002064Y008272D01*
X001995Y008441D01*
X001866Y008569D01*
X001852Y008575D01*
X001866Y008581D01*
X001995Y008710D01*
X002064Y008878D01*
X002064Y009060D01*
X001995Y009228D01*
X001866Y009357D01*
X001698Y009426D01*
X001516Y009426D01*
X001348Y009357D01*
X001219Y009228D01*
X001149Y009060D01*
X001149Y008878D01*
X001219Y008710D01*
X001348Y008581D01*
X001362Y008575D01*
X001348Y008569D01*
X001219Y008441D01*
X001149Y008272D01*
X001149Y008090D01*
X001219Y007922D01*
X001348Y007794D01*
X001362Y007788D01*
X001348Y007782D01*
X001219Y007653D01*
X001149Y007485D01*
X001149Y007303D01*
X001219Y007135D01*
X001348Y007006D01*
X001362Y007000D01*
X001348Y006995D01*
X001219Y006866D01*
X001149Y006698D01*
X001149Y006516D01*
X001219Y006348D01*
X001348Y006219D01*
X001516Y006149D01*
X001698Y006149D01*
X001493Y006159D02*
X000320Y006159D01*
X000320Y006257D02*
X001309Y006257D01*
X001216Y006356D02*
X000320Y006356D01*
X000320Y006454D02*
X001175Y006454D01*
X001149Y006553D02*
X000320Y006553D01*
X000320Y006651D02*
X001149Y006651D01*
X001171Y006750D02*
X000320Y006750D01*
X000320Y006848D02*
X001211Y006848D01*
X001300Y006947D02*
X000320Y006947D01*
X000320Y007045D02*
X001309Y007045D01*
X001215Y007144D02*
X000320Y007144D01*
X000320Y007242D02*
X001175Y007242D01*
X001149Y007341D02*
X000320Y007341D01*
X000320Y007439D02*
X001149Y007439D01*
X001171Y007538D02*
X000320Y007538D01*
X000320Y007636D02*
X001212Y007636D01*
X001300Y007735D02*
X000320Y007735D01*
X000320Y007833D02*
X001308Y007833D01*
X001215Y007932D02*
X000320Y007932D01*
X000320Y008030D02*
X001174Y008030D01*
X001149Y008129D02*
X000320Y008129D01*
X000320Y008227D02*
X001149Y008227D01*
X001171Y008326D02*
X000320Y008326D01*
X000320Y008424D02*
X001212Y008424D01*
X001301Y008523D02*
X000320Y008523D01*
X000320Y008621D02*
X001308Y008621D01*
X001215Y008720D02*
X000320Y008720D01*
X000320Y008818D02*
X001174Y008818D01*
X001149Y008917D02*
X000320Y008917D01*
X000320Y009015D02*
X001149Y009015D01*
X001171Y009114D02*
X000320Y009114D01*
X000320Y009212D02*
X001212Y009212D01*
X001301Y009311D02*
X000320Y009311D01*
X000320Y009409D02*
X000604Y009409D01*
X000617Y009395D02*
X000774Y009330D01*
X000943Y009330D01*
X001100Y009395D01*
X001220Y009515D01*
X001285Y009672D01*
X001285Y009841D01*
X001220Y009998D01*
X001100Y010117D01*
X000943Y010182D01*
X000774Y010182D01*
X000617Y010117D01*
X000498Y009998D01*
X000433Y009841D01*
X000433Y009672D01*
X000498Y009515D01*
X000617Y009395D01*
X000505Y009508D02*
X000320Y009508D01*
X000320Y009606D02*
X000460Y009606D01*
X000433Y009705D02*
X000320Y009705D01*
X000320Y009803D02*
X000433Y009803D01*
X000458Y009902D02*
X000320Y009902D01*
X000320Y010000D02*
X000500Y010000D01*
X000599Y010099D02*
X000320Y010099D01*
X000320Y010197D02*
X003857Y010197D01*
X003788Y010168D02*
X003647Y010028D01*
X003571Y009844D01*
X003571Y009645D01*
X003647Y009461D01*
X003788Y009321D01*
X003972Y009244D01*
X004171Y009244D01*
X004354Y009321D01*
X004495Y009461D01*
X004571Y009645D01*
X004571Y009844D01*
X004495Y010028D01*
X004354Y010168D01*
X004171Y010244D01*
X003972Y010244D01*
X003788Y010168D01*
X003718Y010099D02*
X001119Y010099D01*
X001217Y010000D02*
X003636Y010000D01*
X003595Y009902D02*
X001260Y009902D01*
X001285Y009803D02*
X003571Y009803D01*
X003571Y009705D02*
X001285Y009705D01*
X001257Y009606D02*
X003587Y009606D01*
X003628Y009508D02*
X001212Y009508D01*
X001114Y009409D02*
X001474Y009409D01*
X001740Y009409D02*
X003700Y009409D01*
X003812Y009311D02*
X001912Y009311D01*
X002001Y009212D02*
X004893Y009212D01*
X004972Y009244D02*
X004788Y009168D01*
X004647Y009028D01*
X004571Y008844D01*
X004571Y008645D01*
X004647Y008461D01*
X004788Y008321D01*
X004972Y008244D01*
X005171Y008244D01*
X005354Y008321D01*
X005495Y008461D01*
X005571Y008645D01*
X005571Y008844D01*
X005495Y009028D01*
X005354Y009168D01*
X005171Y009244D01*
X004972Y009244D01*
X005171Y009244D01*
X005354Y009321D01*
X005495Y009461D01*
X005571Y009645D01*
X005571Y009844D01*
X005538Y009923D01*
X005761Y010146D01*
X005766Y010146D01*
X005647Y010028D01*
X005571Y009844D01*
X005571Y009645D01*
X005647Y009461D01*
X005788Y009321D01*
X005972Y009244D01*
X005788Y009168D01*
X005647Y009028D01*
X005571Y008844D01*
X005571Y008645D01*
X005647Y008461D01*
X005788Y008321D01*
X005972Y008244D01*
X006171Y008244D01*
X006354Y008321D01*
X006495Y008461D01*
X006571Y008645D01*
X006571Y008844D01*
X006495Y009028D01*
X006354Y009168D01*
X006171Y009244D01*
X005972Y009244D01*
X006171Y009244D01*
X006354Y009321D01*
X006495Y009461D01*
X006571Y009645D01*
X006571Y009844D01*
X006514Y009982D01*
X006603Y009893D01*
X006603Y009157D01*
X006639Y009069D01*
X006707Y009002D01*
X007101Y008608D01*
X007189Y008571D01*
X008179Y008571D01*
X008226Y008524D01*
X008350Y008473D01*
X008485Y008473D01*
X008610Y008524D01*
X008705Y008620D01*
X008756Y008744D01*
X008756Y008879D01*
X008705Y009003D01*
X008680Y009028D01*
X008705Y009053D01*
X008756Y009177D01*
X008756Y009312D01*
X008705Y009436D01*
X008661Y009481D01*
X008705Y009525D01*
X008756Y009650D01*
X008756Y009784D01*
X008705Y009909D01*
X008610Y010004D01*
X008485Y010056D01*
X008350Y010056D01*
X008226Y010004D01*
X008131Y009909D01*
X008079Y009784D01*
X008079Y009650D01*
X008131Y009525D01*
X008175Y009481D01*
X008131Y009436D01*
X008079Y009312D01*
X008079Y009177D01*
X008131Y009053D01*
X008132Y009051D01*
X007336Y009051D01*
X007083Y009305D01*
X007083Y010040D01*
X007046Y010128D01*
X006653Y010522D01*
X006585Y010590D01*
X006497Y010626D01*
X005614Y010626D01*
X005526Y010590D01*
X005178Y010242D01*
X005171Y010244D01*
X004972Y010244D01*
X004788Y010168D01*
X004647Y010028D01*
X004571Y009844D01*
X004571Y009645D01*
X004647Y009461D01*
X004788Y009321D01*
X004972Y009244D01*
X004812Y009311D02*
X004330Y009311D01*
X004443Y009409D02*
X004700Y009409D01*
X004628Y009508D02*
X004514Y009508D01*
X004555Y009606D02*
X004587Y009606D01*
X004571Y009705D02*
X004571Y009705D01*
X004571Y009803D02*
X004571Y009803D01*
X004547Y009902D02*
X004595Y009902D01*
X004636Y010000D02*
X004507Y010000D01*
X004424Y010099D02*
X004718Y010099D01*
X004857Y010197D02*
X004285Y010197D01*
X005232Y010296D02*
X000320Y010296D01*
X000320Y010394D02*
X005330Y010394D01*
X005429Y010493D02*
X000320Y010493D01*
X000320Y010591D02*
X005529Y010591D01*
X005714Y010099D02*
X005718Y010099D01*
X005636Y010000D02*
X005615Y010000D01*
X005595Y009902D02*
X005547Y009902D01*
X005571Y009803D02*
X005571Y009803D01*
X005571Y009705D02*
X005571Y009705D01*
X005555Y009606D02*
X005587Y009606D01*
X005628Y009508D02*
X005514Y009508D01*
X005443Y009409D02*
X005700Y009409D01*
X005812Y009311D02*
X005330Y009311D01*
X005249Y009212D02*
X005893Y009212D01*
X005733Y009114D02*
X005409Y009114D01*
X005500Y009015D02*
X005642Y009015D01*
X005601Y008917D02*
X005541Y008917D01*
X005571Y008818D02*
X005571Y008818D01*
X005571Y008720D02*
X005571Y008720D01*
X005561Y008621D02*
X005581Y008621D01*
X005622Y008523D02*
X005521Y008523D01*
X005458Y008424D02*
X005685Y008424D01*
X005783Y008326D02*
X005359Y008326D01*
X004783Y008326D02*
X002042Y008326D01*
X002064Y008227D02*
X008886Y008227D01*
X008886Y008129D02*
X002064Y008129D01*
X002039Y008030D02*
X008886Y008030D01*
X008886Y007932D02*
X001998Y007932D01*
X001905Y007833D02*
X008886Y007833D01*
X008886Y007735D02*
X001913Y007735D01*
X002002Y007636D02*
X008886Y007636D01*
X008886Y007538D02*
X002042Y007538D01*
X002064Y007439D02*
X008886Y007439D01*
X008886Y007341D02*
X002064Y007341D01*
X002039Y007242D02*
X008886Y007242D01*
X008886Y007144D02*
X001998Y007144D01*
X001905Y007045D02*
X008886Y007045D01*
X008886Y006947D02*
X001914Y006947D01*
X002002Y006848D02*
X008886Y006848D01*
X008886Y006750D02*
X002043Y006750D01*
X002064Y006651D02*
X007668Y006651D01*
X007575Y006553D02*
X002064Y006553D01*
X002039Y006454D02*
X007534Y006454D01*
X007528Y006356D02*
X001998Y006356D01*
X001904Y006257D02*
X007547Y006257D01*
X008002Y006060D02*
X008886Y006060D01*
X008886Y006159D02*
X008134Y006159D01*
X008186Y006257D02*
X008886Y006257D01*
X008886Y006356D02*
X008205Y006356D01*
X008199Y006454D02*
X008886Y006454D01*
X008886Y006553D02*
X008158Y006553D01*
X008065Y006651D02*
X008886Y006651D01*
X009681Y006651D02*
X011052Y006651D01*
X011054Y006553D02*
X009681Y006553D01*
X009681Y006454D02*
X011105Y006454D01*
X011203Y006356D02*
X009681Y006356D01*
X009681Y006257D02*
X011302Y006257D01*
X011400Y006159D02*
X009681Y006159D01*
X009681Y006060D02*
X011499Y006060D01*
X011597Y005962D02*
X009681Y005962D01*
X009681Y005863D02*
X011696Y005863D01*
X011794Y005765D02*
X009681Y005765D01*
X009681Y005666D02*
X011893Y005666D01*
X012004Y005568D02*
X009681Y005568D01*
X009681Y005469D02*
X013598Y005469D01*
X013867Y005469D02*
X015819Y005469D01*
X015819Y005371D02*
X009681Y005371D01*
X009681Y005272D02*
X015819Y005272D01*
X015819Y005174D02*
X009681Y005174D01*
X009681Y005075D02*
X015819Y005075D01*
X015819Y004977D02*
X009681Y004977D01*
X009681Y004878D02*
X015819Y004878D01*
X015819Y004780D02*
X009681Y004780D01*
X009681Y004681D02*
X011407Y004681D01*
X011315Y004583D02*
X009681Y004583D01*
X009699Y004484D02*
X011274Y004484D01*
X011268Y004386D02*
X009797Y004386D01*
X009896Y004287D02*
X011288Y004287D01*
X011341Y004189D02*
X009994Y004189D01*
X011872Y004189D02*
X015819Y004189D01*
X015819Y004287D02*
X011926Y004287D01*
X011945Y004386D02*
X015819Y004386D01*
X015819Y004484D02*
X011939Y004484D01*
X011899Y004583D02*
X015819Y004583D01*
X015819Y004681D02*
X011807Y004681D01*
X012178Y006060D02*
X013534Y006060D01*
X013932Y006060D02*
X015819Y006060D01*
X015819Y005962D02*
X014024Y005962D01*
X014065Y005863D02*
X015819Y005863D01*
X015819Y005765D02*
X014071Y005765D01*
X014052Y005666D02*
X015819Y005666D01*
X015819Y005568D02*
X013999Y005568D01*
X015819Y006159D02*
X012079Y006159D01*
X011981Y006257D02*
X015819Y006257D01*
X015819Y006356D02*
X011882Y006356D01*
X011784Y006454D02*
X015819Y006454D01*
X015819Y006553D02*
X011685Y006553D01*
X011587Y006651D02*
X015819Y006651D01*
X015819Y006750D02*
X011532Y006750D01*
X011532Y006848D02*
X015819Y006848D01*
X016095Y006848D02*
X027124Y006848D01*
X027124Y006873D02*
X027124Y006734D01*
X027177Y006606D01*
X027275Y006508D01*
X027315Y006491D01*
X027315Y005052D01*
X027217Y004954D01*
X027163Y004826D01*
X027163Y004687D01*
X027217Y004559D01*
X027315Y004461D01*
X027315Y004460D01*
X027315Y003779D01*
X027232Y003745D01*
X027134Y003647D01*
X027081Y003519D01*
X027081Y003380D01*
X027134Y003252D01*
X027232Y003154D01*
X027315Y003119D01*
X027315Y000360D01*
X016095Y000360D01*
X016095Y001750D01*
X016971Y001750D01*
X017063Y001788D01*
X017134Y001859D01*
X017488Y002213D01*
X017501Y002244D01*
X017572Y002315D01*
X017625Y002443D01*
X017625Y002582D01*
X017572Y002710D01*
X017474Y002808D01*
X017345Y002861D01*
X017207Y002861D01*
X017078Y002808D01*
X016980Y002710D01*
X016927Y002582D01*
X016927Y002443D01*
X016952Y002384D01*
X016818Y002250D01*
X016120Y002250D01*
X016095Y002275D01*
X016095Y002531D01*
X016134Y002492D01*
X016262Y002439D01*
X016400Y002439D01*
X016529Y002492D01*
X016627Y002590D01*
X016680Y002718D01*
X016680Y002857D01*
X016627Y002985D01*
X016529Y003083D01*
X016454Y003114D01*
X016568Y003161D01*
X016666Y003260D01*
X016719Y003388D01*
X016719Y003526D01*
X016666Y003655D01*
X016568Y003753D01*
X016440Y003806D01*
X016301Y003806D01*
X016173Y003753D01*
X016171Y003751D01*
X016095Y003828D01*
X016095Y007330D01*
X016118Y007340D01*
X016189Y007410D01*
X016227Y007502D01*
X016227Y009412D01*
X016189Y009504D01*
X016118Y009575D01*
X016095Y009584D01*
X016095Y010628D01*
X021061Y010628D01*
X021061Y010514D01*
X021114Y010386D01*
X021212Y010287D01*
X021340Y010234D01*
X021479Y010234D01*
X021607Y010287D01*
X021705Y010386D01*
X021759Y010514D01*
X021759Y010628D01*
X022518Y010628D01*
X022636Y010511D01*
X022636Y010019D01*
X022610Y009993D01*
X022557Y009865D01*
X022557Y009726D01*
X022610Y009598D01*
X022708Y009500D01*
X022837Y009447D01*
X022975Y009447D01*
X023103Y009500D01*
X023202Y009598D01*
X023255Y009726D01*
X023255Y009865D01*
X023202Y009993D01*
X023176Y010019D01*
X023176Y010676D01*
X023135Y010775D01*
X022894Y011016D01*
X027315Y011016D01*
X027315Y007116D01*
X027275Y007099D01*
X027177Y007001D01*
X027124Y006873D01*
X027155Y006947D02*
X016095Y006947D01*
X016095Y007045D02*
X027221Y007045D01*
X027315Y007144D02*
X016095Y007144D01*
X016095Y007242D02*
X027315Y007242D01*
X027315Y007341D02*
X016119Y007341D01*
X016201Y007439D02*
X027315Y007439D01*
X027315Y007538D02*
X026456Y007538D01*
X026411Y007492D02*
X026509Y007590D01*
X026562Y007718D01*
X026562Y007857D01*
X026509Y007985D01*
X026562Y008112D01*
X026562Y008251D01*
X026509Y008378D01*
X026562Y008506D01*
X026562Y008645D01*
X026509Y008772D01*
X026562Y008900D01*
X026562Y009038D01*
X026509Y009166D01*
X026411Y009265D01*
X026282Y009318D01*
X026144Y009318D01*
X026015Y009265D01*
X025917Y009166D01*
X025864Y009038D01*
X025864Y008900D01*
X025917Y008772D01*
X025864Y008645D01*
X025864Y008506D01*
X025917Y008378D01*
X025864Y008251D01*
X025864Y008112D01*
X025917Y007985D01*
X025864Y007857D01*
X025864Y007718D01*
X025917Y007590D01*
X026015Y007492D01*
X026144Y007439D01*
X026282Y007439D01*
X026411Y007492D01*
X026528Y007636D02*
X027315Y007636D01*
X027315Y007735D02*
X026562Y007735D01*
X026562Y007833D02*
X027315Y007833D01*
X027315Y007932D02*
X026531Y007932D01*
X026528Y008030D02*
X027315Y008030D01*
X027315Y008129D02*
X026562Y008129D01*
X026562Y008227D02*
X027315Y008227D01*
X027315Y008326D02*
X026531Y008326D01*
X026528Y008424D02*
X027315Y008424D01*
X027315Y008523D02*
X026562Y008523D01*
X026562Y008621D02*
X027315Y008621D01*
X027315Y008720D02*
X026531Y008720D01*
X026528Y008818D02*
X027315Y008818D01*
X027315Y008917D02*
X026562Y008917D01*
X026562Y009015D02*
X027315Y009015D01*
X027315Y009114D02*
X026531Y009114D01*
X026463Y009212D02*
X027315Y009212D01*
X027315Y009311D02*
X026300Y009311D01*
X026126Y009311D02*
X016227Y009311D01*
X016227Y009409D02*
X027315Y009409D01*
X027315Y009508D02*
X023111Y009508D01*
X023205Y009606D02*
X027315Y009606D01*
X027315Y009705D02*
X023246Y009705D01*
X023255Y009803D02*
X027315Y009803D01*
X027315Y009902D02*
X023240Y009902D01*
X023195Y010000D02*
X027315Y010000D01*
X027315Y010099D02*
X023176Y010099D01*
X023176Y010197D02*
X027315Y010197D01*
X027315Y010296D02*
X023176Y010296D01*
X023176Y010394D02*
X027315Y010394D01*
X027315Y010493D02*
X023176Y010493D01*
X023176Y010591D02*
X027315Y010591D01*
X027315Y010690D02*
X023170Y010690D01*
X023122Y010788D02*
X027315Y010788D01*
X027315Y010887D02*
X023024Y010887D01*
X022925Y010985D02*
X027315Y010985D01*
X027591Y010985D02*
X030202Y010985D01*
X030207Y010983D02*
X030330Y010983D01*
X030443Y011030D01*
X030530Y011117D01*
X030577Y011230D01*
X030577Y011353D01*
X030530Y011467D01*
X030443Y011553D01*
X030330Y011600D01*
X030207Y011600D01*
X030093Y011553D01*
X030006Y011467D01*
X029959Y011353D01*
X029959Y011230D01*
X030006Y011117D01*
X030093Y011030D01*
X030207Y010983D01*
X030334Y010985D02*
X032758Y010985D01*
X032758Y010955D02*
X032814Y010819D01*
X032918Y010716D01*
X033053Y010660D01*
X033200Y010660D01*
X033335Y010716D01*
X033376Y010757D01*
X033418Y010716D01*
X033553Y010660D01*
X033700Y010660D01*
X033835Y010716D01*
X033876Y010757D01*
X033918Y010716D01*
X034053Y010660D01*
X034200Y010660D01*
X034335Y010716D01*
X034439Y010819D01*
X034495Y010955D01*
X034495Y011101D01*
X034439Y011237D01*
X034397Y011278D01*
X034439Y011319D01*
X034495Y011455D01*
X034495Y011601D01*
X034439Y011737D01*
X034397Y011778D01*
X034439Y011819D01*
X034495Y011955D01*
X034495Y012101D01*
X034439Y012237D01*
X034335Y012340D01*
X034200Y012396D01*
X034053Y012396D01*
X033918Y012340D01*
X033876Y012299D01*
X033835Y012340D01*
X033700Y012396D01*
X033553Y012396D01*
X033418Y012340D01*
X033376Y012299D01*
X033335Y012340D01*
X033200Y012396D01*
X033053Y012396D01*
X032918Y012340D01*
X032814Y012237D01*
X032758Y012101D01*
X032758Y011955D01*
X032814Y011819D01*
X032855Y011778D01*
X032814Y011737D01*
X032758Y011601D01*
X032758Y011455D01*
X032814Y011319D01*
X032855Y011278D01*
X032814Y011237D01*
X032758Y011101D01*
X032758Y010955D01*
X032786Y010887D02*
X027591Y010887D01*
X027591Y010788D02*
X030758Y010788D01*
X030755Y010787D02*
X030643Y010675D01*
X030582Y010528D01*
X030582Y010370D01*
X030643Y010224D01*
X030667Y010199D01*
X030643Y010175D01*
X030582Y010028D01*
X030582Y009870D01*
X030643Y009724D01*
X030667Y009699D01*
X030643Y009675D01*
X030582Y009528D01*
X030582Y009370D01*
X030643Y009224D01*
X030722Y009145D01*
X030727Y008220D01*
X030727Y008171D01*
X030727Y008170D01*
X030746Y008125D01*
X030765Y008079D01*
X030765Y008079D01*
X030766Y008078D01*
X030801Y008044D01*
X030835Y008009D01*
X030836Y008009D01*
X030836Y008008D01*
X030882Y007990D01*
X030927Y007971D01*
X030928Y007971D01*
X030928Y007971D01*
X030977Y007971D01*
X035568Y007971D01*
X035520Y007855D01*
X035520Y007720D01*
X035536Y007681D01*
X034924Y007680D01*
X034875Y007679D01*
X034830Y007660D01*
X034784Y007641D01*
X034783Y007641D01*
X034749Y007606D01*
X034713Y007571D01*
X034713Y007571D01*
X034713Y007571D01*
X034694Y007524D01*
X034675Y007479D01*
X034675Y007479D01*
X034675Y007479D01*
X034676Y007429D01*
X034683Y003910D01*
X034684Y003860D01*
X034684Y003860D01*
X034684Y003860D01*
X034703Y003814D01*
X034722Y003768D01*
X034722Y003768D01*
X034722Y003768D01*
X034757Y003733D01*
X034792Y003698D01*
X034792Y003698D01*
X034792Y003698D01*
X034838Y003679D01*
X034884Y003660D01*
X034884Y003660D01*
X034884Y003660D01*
X034933Y003660D01*
X035350Y003660D01*
X035321Y003632D01*
X035274Y003518D01*
X035274Y003396D01*
X035321Y003282D01*
X035408Y003195D01*
X035522Y003148D01*
X035644Y003148D01*
X035758Y003195D01*
X035778Y003216D01*
X035824Y003170D01*
X035949Y003118D01*
X036084Y003118D01*
X036208Y003170D01*
X036303Y003265D01*
X036355Y003390D01*
X036355Y003524D01*
X036303Y003649D01*
X036291Y003661D01*
X039349Y003664D01*
X039399Y003664D01*
X039448Y003664D01*
X039448Y003664D01*
X039448Y003664D01*
X039494Y003683D01*
X039540Y003702D01*
X039540Y003702D01*
X039540Y003702D01*
X039547Y003709D01*
X039547Y001737D01*
X039535Y001552D01*
X039439Y001195D01*
X039254Y000874D01*
X038993Y000613D01*
X038672Y000428D01*
X038315Y000332D01*
X038130Y000320D01*
X027591Y000320D01*
X027591Y003149D01*
X027621Y003162D01*
X027717Y003257D01*
X027768Y003382D01*
X027768Y003517D01*
X027717Y003641D01*
X027621Y003736D01*
X027591Y003749D01*
X027591Y004422D01*
X027704Y004469D01*
X027799Y004564D01*
X027851Y004689D01*
X027851Y004824D01*
X027799Y004948D01*
X027704Y005043D01*
X027591Y005090D01*
X027591Y006486D01*
X027665Y006516D01*
X027760Y006612D01*
X027812Y006736D01*
X027812Y006871D01*
X027760Y006995D01*
X027665Y007091D01*
X027591Y007121D01*
X027591Y016775D01*
X027615Y018774D01*
X027616Y018775D01*
X027616Y018851D01*
X038571Y018851D01*
X038810Y018787D01*
X039080Y018631D01*
X039300Y018410D01*
X039456Y018140D01*
X039537Y017839D01*
X039547Y017683D01*
X039085Y017683D01*
X039109Y017626D02*
X038992Y017909D01*
X038775Y018126D01*
X038492Y018243D01*
X038186Y018243D01*
X037903Y018126D01*
X037686Y017909D01*
X037569Y017626D01*
X037569Y017320D01*
X037686Y017037D01*
X037903Y016820D01*
X038186Y016703D01*
X038492Y016703D01*
X038775Y016820D01*
X038992Y017037D01*
X039109Y017320D01*
X039109Y017626D01*
X039109Y017585D02*
X039547Y017585D01*
X039547Y017683D02*
X039547Y014743D01*
X039517Y014755D01*
X039472Y014774D01*
X039471Y014774D01*
X039422Y014774D01*
X039373Y014774D01*
X039372Y014774D01*
X036704Y014766D01*
X036655Y014766D01*
X036655Y014766D01*
X036655Y014766D01*
X036609Y014747D01*
X036563Y014728D01*
X036563Y014728D01*
X036563Y014728D01*
X036528Y014693D01*
X036493Y014657D01*
X036474Y014611D01*
X036455Y014565D01*
X036455Y014516D01*
X036458Y012549D01*
X036444Y012563D01*
X036320Y012615D01*
X036185Y012615D01*
X036060Y012563D01*
X036016Y012519D01*
X035972Y012563D01*
X035847Y012615D01*
X035713Y012615D01*
X035588Y012563D01*
X035493Y012468D01*
X035441Y012343D01*
X035441Y012215D01*
X034781Y012215D01*
X034689Y012177D01*
X034619Y012107D01*
X034581Y012015D01*
X034581Y010648D01*
X032330Y010648D01*
X032318Y010675D01*
X032206Y010787D01*
X032060Y010848D01*
X031901Y010848D01*
X031755Y010787D01*
X031731Y010763D01*
X031706Y010787D01*
X031560Y010848D01*
X031401Y010848D01*
X031255Y010787D01*
X031231Y010763D01*
X031206Y010787D01*
X031060Y010848D01*
X030901Y010848D01*
X030755Y010787D01*
X030658Y010690D02*
X027591Y010690D01*
X027591Y010591D02*
X030608Y010591D01*
X030582Y010493D02*
X027591Y010493D01*
X027591Y010394D02*
X030582Y010394D01*
X030613Y010296D02*
X027591Y010296D01*
X027591Y010197D02*
X030665Y010197D01*
X030611Y010099D02*
X027591Y010099D01*
X027591Y010000D02*
X030582Y010000D01*
X030582Y009902D02*
X027591Y009902D01*
X027591Y009803D02*
X028074Y009803D01*
X028114Y009819D02*
X027990Y009768D01*
X027894Y009673D01*
X027843Y009548D01*
X027843Y009413D01*
X027894Y009289D01*
X027990Y009194D01*
X028114Y009142D01*
X028249Y009142D01*
X028373Y009194D01*
X028469Y009289D01*
X028520Y009413D01*
X028520Y009548D01*
X028469Y009673D01*
X028373Y009768D01*
X028249Y009819D01*
X028114Y009819D01*
X028289Y009803D02*
X030610Y009803D01*
X030662Y009705D02*
X028437Y009705D01*
X028496Y009606D02*
X030614Y009606D01*
X030582Y009508D02*
X028520Y009508D01*
X028518Y009409D02*
X030582Y009409D01*
X030607Y009311D02*
X028478Y009311D01*
X028392Y009212D02*
X030654Y009212D01*
X030722Y009114D02*
X027591Y009114D01*
X027591Y009212D02*
X027971Y009212D01*
X027885Y009311D02*
X027591Y009311D01*
X027591Y009409D02*
X027845Y009409D01*
X027843Y009508D02*
X027591Y009508D01*
X027591Y009606D02*
X027867Y009606D01*
X027926Y009705D02*
X027591Y009705D01*
X027591Y009015D02*
X030722Y009015D01*
X030723Y008917D02*
X027591Y008917D01*
X027591Y008818D02*
X030724Y008818D01*
X030724Y008720D02*
X030611Y008720D01*
X030570Y008760D02*
X030446Y008812D01*
X030311Y008812D01*
X030186Y008760D01*
X030091Y008665D01*
X030040Y008540D01*
X030040Y008405D01*
X030091Y008281D01*
X030186Y008186D01*
X030311Y008134D01*
X030446Y008134D01*
X030570Y008186D01*
X030666Y008281D01*
X030717Y008405D01*
X030717Y008540D01*
X030666Y008665D01*
X030570Y008760D01*
X030684Y008621D02*
X030725Y008621D01*
X030717Y008523D02*
X030725Y008523D01*
X030717Y008424D02*
X030726Y008424D01*
X030726Y008326D02*
X030684Y008326D01*
X030727Y008227D02*
X030612Y008227D01*
X030727Y008170D02*
X030727Y008170D01*
X030744Y008129D02*
X027591Y008129D01*
X027591Y008227D02*
X030145Y008227D01*
X030073Y008326D02*
X027591Y008326D01*
X027591Y008424D02*
X030040Y008424D01*
X030040Y008523D02*
X027591Y008523D01*
X027591Y008621D02*
X030073Y008621D01*
X030146Y008720D02*
X027591Y008720D01*
X027591Y008030D02*
X030814Y008030D01*
X030907Y007802D02*
X030772Y007746D01*
X030668Y007642D01*
X030612Y007507D01*
X030612Y007360D01*
X030668Y007225D01*
X030710Y007183D01*
X030668Y007142D01*
X030612Y007007D01*
X030612Y006860D01*
X030668Y006725D01*
X030710Y006683D01*
X030668Y006642D01*
X030612Y006507D01*
X030612Y006360D01*
X030668Y006225D01*
X030772Y006121D01*
X030907Y006065D01*
X031054Y006065D01*
X031189Y006121D01*
X031231Y006162D01*
X031272Y006121D01*
X031407Y006065D01*
X031554Y006065D01*
X031689Y006121D01*
X031731Y006162D01*
X031772Y006121D01*
X031907Y006065D01*
X032054Y006065D01*
X032189Y006121D01*
X032293Y006225D01*
X032349Y006360D01*
X032349Y006507D01*
X032293Y006642D01*
X032252Y006683D01*
X032293Y006725D01*
X032349Y006860D01*
X032349Y007007D01*
X032293Y007142D01*
X032252Y007183D01*
X032293Y007225D01*
X032349Y007360D01*
X032349Y007507D01*
X032293Y007642D01*
X032189Y007746D01*
X032054Y007802D01*
X031907Y007802D01*
X031772Y007746D01*
X031731Y007704D01*
X031689Y007746D01*
X031554Y007802D01*
X031407Y007802D01*
X031272Y007746D01*
X031231Y007704D01*
X031189Y007746D01*
X031054Y007802D01*
X030907Y007802D01*
X030761Y007735D02*
X027591Y007735D01*
X027591Y007833D02*
X032899Y007833D01*
X032918Y007852D02*
X032814Y007748D01*
X032758Y007613D01*
X032758Y007466D01*
X032814Y007331D01*
X032855Y007290D01*
X032814Y007248D01*
X032758Y007113D01*
X032758Y006966D01*
X032814Y006831D01*
X032855Y006790D01*
X032814Y006748D01*
X032758Y006613D01*
X032758Y006466D01*
X032814Y006331D01*
X032918Y006227D01*
X033053Y006171D01*
X033200Y006171D01*
X033335Y006227D01*
X033376Y006269D01*
X033418Y006227D01*
X033553Y006171D01*
X033700Y006171D01*
X033835Y006227D01*
X033876Y006269D01*
X033918Y006227D01*
X034053Y006171D01*
X034200Y006171D01*
X034335Y006227D01*
X034439Y006331D01*
X034495Y006466D01*
X034495Y006613D01*
X034439Y006748D01*
X034397Y006790D01*
X034439Y006831D01*
X034495Y006966D01*
X034495Y007113D01*
X034439Y007248D01*
X034397Y007290D01*
X034439Y007331D01*
X034495Y007466D01*
X034495Y007613D01*
X034439Y007748D01*
X034335Y007852D01*
X034200Y007908D01*
X034053Y007908D01*
X033918Y007852D01*
X033876Y007811D01*
X033835Y007852D01*
X033700Y007908D01*
X033553Y007908D01*
X033418Y007852D01*
X033376Y007811D01*
X033335Y007852D01*
X033200Y007908D01*
X033053Y007908D01*
X032918Y007852D01*
X032808Y007735D02*
X032201Y007735D01*
X032296Y007636D02*
X032767Y007636D01*
X032758Y007538D02*
X032336Y007538D01*
X032349Y007439D02*
X032769Y007439D01*
X032810Y007341D02*
X032341Y007341D01*
X032300Y007242D02*
X032811Y007242D01*
X032771Y007144D02*
X032292Y007144D01*
X032333Y007045D02*
X032758Y007045D01*
X032766Y006947D02*
X032349Y006947D01*
X032344Y006848D02*
X032807Y006848D01*
X032815Y006750D02*
X032303Y006750D01*
X032284Y006651D02*
X032774Y006651D01*
X032758Y006553D02*
X032330Y006553D01*
X032349Y006454D02*
X032763Y006454D01*
X032804Y006356D02*
X032347Y006356D01*
X032306Y006257D02*
X032888Y006257D01*
X033365Y006257D02*
X033388Y006257D01*
X033865Y006257D02*
X033888Y006257D01*
X034365Y006257D02*
X034678Y006257D01*
X034678Y006159D02*
X032227Y006159D01*
X031735Y006159D02*
X031727Y006159D01*
X031235Y006159D02*
X031227Y006159D01*
X030735Y006159D02*
X027591Y006159D01*
X027591Y006257D02*
X030655Y006257D01*
X030614Y006356D02*
X027591Y006356D01*
X027591Y006454D02*
X030612Y006454D01*
X030631Y006553D02*
X027701Y006553D01*
X027776Y006651D02*
X030677Y006651D01*
X030658Y006750D02*
X027812Y006750D01*
X027812Y006848D02*
X030617Y006848D01*
X030612Y006947D02*
X027780Y006947D01*
X027710Y007045D02*
X030628Y007045D01*
X030670Y007144D02*
X027591Y007144D01*
X027591Y007242D02*
X030661Y007242D01*
X030620Y007341D02*
X027591Y007341D01*
X027591Y007439D02*
X030612Y007439D01*
X030625Y007538D02*
X027591Y007538D01*
X027591Y007636D02*
X030666Y007636D01*
X031201Y007735D02*
X031261Y007735D01*
X031701Y007735D02*
X031761Y007735D01*
X030977Y008221D02*
X030965Y010398D01*
X036779Y010398D01*
X036790Y010394D01*
X037014Y010394D01*
X037024Y010398D01*
X038551Y010398D01*
X038562Y010394D01*
X038786Y010394D01*
X038796Y010398D01*
X039430Y010398D01*
X039441Y008221D01*
X030977Y008221D01*
X030977Y008227D02*
X039441Y008227D01*
X039441Y008326D02*
X030976Y008326D01*
X030976Y008424D02*
X039440Y008424D01*
X039440Y008523D02*
X030975Y008523D01*
X030975Y008621D02*
X039439Y008621D01*
X039439Y008720D02*
X030974Y008720D01*
X030974Y008818D02*
X039438Y008818D01*
X039438Y008917D02*
X030973Y008917D01*
X030972Y009015D02*
X039437Y009015D01*
X039436Y009114D02*
X030972Y009114D01*
X030971Y009212D02*
X039436Y009212D01*
X039435Y009311D02*
X030971Y009311D01*
X030970Y009409D02*
X039435Y009409D01*
X039434Y009508D02*
X030970Y009508D01*
X030969Y009606D02*
X039434Y009606D01*
X039433Y009705D02*
X030969Y009705D01*
X030968Y009803D02*
X039433Y009803D01*
X039432Y009902D02*
X030968Y009902D01*
X030967Y010000D02*
X039432Y010000D01*
X039431Y010099D02*
X030967Y010099D01*
X030966Y010197D02*
X039431Y010197D01*
X039430Y010296D02*
X030966Y010296D01*
X030965Y010394D02*
X036789Y010394D01*
X037015Y010394D02*
X038561Y010394D01*
X038786Y010394D02*
X039430Y010394D01*
X039410Y010626D02*
X034831Y010630D01*
X034831Y011965D01*
X036709Y011965D01*
X036705Y014516D01*
X039422Y014524D01*
X039410Y010626D01*
X039410Y010690D02*
X034831Y010690D01*
X034831Y010788D02*
X039410Y010788D01*
X039411Y010887D02*
X034831Y010887D01*
X034831Y010985D02*
X039411Y010985D01*
X039411Y011084D02*
X034831Y011084D01*
X034831Y011182D02*
X039412Y011182D01*
X039412Y011281D02*
X034831Y011281D01*
X034831Y011379D02*
X039412Y011379D01*
X039412Y011478D02*
X034831Y011478D01*
X034831Y011576D02*
X039413Y011576D01*
X039413Y011675D02*
X034831Y011675D01*
X034831Y011773D02*
X039413Y011773D01*
X039414Y011872D02*
X034831Y011872D01*
X034581Y011872D02*
X034460Y011872D01*
X034495Y011970D02*
X034581Y011970D01*
X034603Y012069D02*
X034495Y012069D01*
X034468Y012167D02*
X034680Y012167D01*
X034410Y012266D02*
X035441Y012266D01*
X035450Y012364D02*
X034278Y012364D01*
X033975Y012364D02*
X033778Y012364D01*
X033475Y012364D02*
X033278Y012364D01*
X032975Y012364D02*
X030843Y012364D01*
X030808Y012379D02*
X030673Y012379D01*
X030549Y012327D01*
X030453Y012232D01*
X030402Y012107D01*
X030402Y011972D01*
X030453Y011848D01*
X030549Y011753D01*
X030673Y011701D01*
X030808Y011701D01*
X030932Y011753D01*
X031028Y011848D01*
X031079Y011972D01*
X031079Y012107D01*
X031028Y012232D01*
X030932Y012327D01*
X030808Y012379D01*
X030638Y012364D02*
X029386Y012364D01*
X029386Y012422D02*
X029386Y012287D01*
X029335Y012163D01*
X029240Y012068D01*
X029115Y012016D01*
X028980Y012016D01*
X028856Y012068D01*
X028760Y012163D01*
X028709Y012287D01*
X028709Y012422D01*
X028760Y012547D01*
X028856Y012642D01*
X028980Y012693D01*
X029115Y012693D01*
X029240Y012642D01*
X029335Y012547D01*
X029386Y012422D01*
X029370Y012463D02*
X035491Y012463D01*
X035586Y012561D02*
X029320Y012561D01*
X029197Y012660D02*
X036458Y012660D01*
X036458Y012758D02*
X027591Y012758D01*
X027591Y012660D02*
X028898Y012660D01*
X028775Y012561D02*
X027591Y012561D01*
X027591Y012463D02*
X028726Y012463D01*
X028709Y012364D02*
X027591Y012364D01*
X027591Y012266D02*
X028718Y012266D01*
X028759Y012167D02*
X027591Y012167D01*
X027591Y012069D02*
X028855Y012069D01*
X029240Y012069D02*
X030402Y012069D01*
X030403Y011970D02*
X027591Y011970D01*
X027591Y011872D02*
X030444Y011872D01*
X030528Y011773D02*
X027591Y011773D01*
X027591Y011675D02*
X032788Y011675D01*
X032758Y011576D02*
X030389Y011576D01*
X030519Y011478D02*
X032758Y011478D01*
X032789Y011379D02*
X030566Y011379D01*
X030577Y011281D02*
X032853Y011281D01*
X032791Y011182D02*
X030557Y011182D01*
X030497Y011084D02*
X032758Y011084D01*
X032845Y010788D02*
X032204Y010788D01*
X032304Y010690D02*
X032981Y010690D01*
X033272Y010690D02*
X033481Y010690D01*
X033772Y010690D02*
X033981Y010690D01*
X034272Y010690D02*
X034581Y010690D01*
X034581Y010788D02*
X034407Y010788D01*
X034467Y010887D02*
X034581Y010887D01*
X034581Y010985D02*
X034495Y010985D01*
X034495Y011084D02*
X034581Y011084D01*
X034581Y011182D02*
X034461Y011182D01*
X034400Y011281D02*
X034581Y011281D01*
X034581Y011379D02*
X034463Y011379D01*
X034495Y011478D02*
X034581Y011478D01*
X034581Y011576D02*
X034495Y011576D01*
X034464Y011675D02*
X034581Y011675D01*
X034581Y011773D02*
X034402Y011773D01*
X035974Y012561D02*
X036058Y012561D01*
X036446Y012561D02*
X036458Y012561D01*
X036708Y012561D02*
X039416Y012561D01*
X039415Y012463D02*
X036708Y012463D01*
X036708Y012364D02*
X039415Y012364D01*
X039415Y012266D02*
X036709Y012266D01*
X036709Y012167D02*
X039415Y012167D01*
X039414Y012069D02*
X036709Y012069D01*
X036709Y011970D02*
X039414Y011970D01*
X039416Y012660D02*
X036708Y012660D01*
X036708Y012758D02*
X039416Y012758D01*
X039417Y012857D02*
X036708Y012857D01*
X036708Y012955D02*
X039417Y012955D01*
X039417Y013054D02*
X036707Y013054D01*
X036707Y013152D02*
X039417Y013152D01*
X039418Y013251D02*
X036707Y013251D01*
X036707Y013349D02*
X039418Y013349D01*
X039418Y013448D02*
X036707Y013448D01*
X036707Y013546D02*
X039419Y013546D01*
X039419Y013645D02*
X036706Y013645D01*
X036706Y013743D02*
X039419Y013743D01*
X039420Y013842D02*
X036706Y013842D01*
X036706Y013940D02*
X039420Y013940D01*
X039420Y014039D02*
X036706Y014039D01*
X036706Y014137D02*
X039420Y014137D01*
X039421Y014236D02*
X036706Y014236D01*
X036705Y014334D02*
X039421Y014334D01*
X039421Y014433D02*
X036705Y014433D01*
X036455Y014433D02*
X027591Y014433D01*
X027591Y014531D02*
X036455Y014531D01*
X036455Y014565D02*
X036455Y014565D01*
X036455Y014565D01*
X036481Y014630D02*
X027591Y014630D01*
X027591Y014728D02*
X036564Y014728D01*
X036493Y014657D02*
X036493Y014657D01*
X036493Y014657D01*
X036455Y014334D02*
X027591Y014334D01*
X027591Y014236D02*
X036456Y014236D01*
X036456Y014137D02*
X027591Y014137D01*
X027591Y014039D02*
X036456Y014039D01*
X036456Y013940D02*
X027591Y013940D01*
X027591Y013842D02*
X036456Y013842D01*
X036456Y013743D02*
X027591Y013743D01*
X027591Y013645D02*
X036456Y013645D01*
X036457Y013546D02*
X027591Y013546D01*
X027591Y013448D02*
X036457Y013448D01*
X036457Y013349D02*
X027591Y013349D01*
X027591Y013251D02*
X036457Y013251D01*
X036457Y013152D02*
X027591Y013152D01*
X027591Y013054D02*
X036457Y013054D01*
X036458Y012955D02*
X027591Y012955D01*
X027591Y012857D02*
X036458Y012857D01*
X035342Y014784D02*
X035437Y014879D01*
X035489Y015004D01*
X035489Y015139D01*
X035437Y015263D01*
X035342Y015358D01*
X035217Y015410D01*
X035083Y015410D01*
X034958Y015358D01*
X034863Y015263D01*
X034811Y015139D01*
X034811Y015004D01*
X034863Y014879D01*
X034958Y014784D01*
X035083Y014733D01*
X035217Y014733D01*
X035342Y014784D01*
X035384Y014827D02*
X039547Y014827D01*
X039471Y014774D02*
X039471Y014774D01*
X039547Y014925D02*
X035456Y014925D01*
X035489Y015024D02*
X039547Y015024D01*
X039547Y015122D02*
X035489Y015122D01*
X035455Y015221D02*
X039547Y015221D01*
X039547Y015319D02*
X035381Y015319D01*
X034919Y015319D02*
X034673Y015319D01*
X034633Y015358D02*
X034509Y015410D01*
X034374Y015410D01*
X034249Y015358D01*
X034154Y015263D01*
X034103Y015139D01*
X034103Y015004D01*
X034154Y014879D01*
X034249Y014784D01*
X034374Y014733D01*
X034509Y014733D01*
X034633Y014784D01*
X034729Y014879D01*
X034780Y015004D01*
X034780Y015139D01*
X034729Y015263D01*
X034633Y015358D01*
X034746Y015221D02*
X034845Y015221D01*
X034811Y015122D02*
X034780Y015122D01*
X034780Y015024D02*
X034811Y015024D01*
X034844Y014925D02*
X034747Y014925D01*
X034676Y014827D02*
X034916Y014827D01*
X034207Y014827D02*
X031846Y014827D01*
X031900Y014849D02*
X031987Y014936D01*
X032034Y015049D01*
X032034Y015172D01*
X031987Y015286D01*
X031900Y015372D01*
X031786Y015419D01*
X031663Y015419D01*
X031550Y015372D01*
X031463Y015286D01*
X031416Y015172D01*
X031416Y015049D01*
X031463Y014936D01*
X031550Y014849D01*
X031663Y014802D01*
X031786Y014802D01*
X031900Y014849D01*
X031976Y014925D02*
X034135Y014925D01*
X034103Y015024D02*
X032023Y015024D01*
X032034Y015122D02*
X034103Y015122D01*
X034137Y015221D02*
X032013Y015221D01*
X031953Y015319D02*
X034210Y015319D01*
X033873Y015666D02*
X033962Y015880D01*
X033962Y016112D01*
X033873Y016327D01*
X033709Y016491D01*
X033494Y016580D01*
X033262Y016580D01*
X033048Y016491D01*
X032884Y016327D01*
X032795Y016112D01*
X032795Y015880D01*
X032884Y015666D01*
X033048Y015502D01*
X033262Y015413D01*
X033494Y015413D01*
X033709Y015502D01*
X033873Y015666D01*
X033892Y015713D02*
X039547Y015713D01*
X039547Y015615D02*
X033821Y015615D01*
X033723Y015516D02*
X039547Y015516D01*
X039547Y015418D02*
X033505Y015418D01*
X033252Y015418D02*
X031791Y015418D01*
X031659Y015418D02*
X027591Y015418D01*
X027591Y015516D02*
X033034Y015516D01*
X032935Y015615D02*
X027591Y015615D01*
X027591Y015713D02*
X029327Y015713D01*
X029349Y015691D02*
X029499Y015629D01*
X029662Y015629D01*
X029811Y015691D01*
X029926Y015806D01*
X029988Y015955D01*
X029988Y016118D01*
X029926Y016268D01*
X029811Y016382D01*
X029662Y016444D01*
X029499Y016444D01*
X029349Y016382D01*
X029235Y016268D01*
X029173Y016118D01*
X029173Y015955D01*
X029235Y015806D01*
X029349Y015691D01*
X029232Y015812D02*
X027591Y015812D01*
X027591Y015910D02*
X029191Y015910D01*
X029173Y016009D02*
X027591Y016009D01*
X027591Y016107D02*
X029173Y016107D01*
X029209Y016206D02*
X027591Y016206D01*
X027591Y016304D02*
X029271Y016304D01*
X029399Y016403D02*
X027591Y016403D01*
X027591Y016501D02*
X033072Y016501D01*
X032959Y016403D02*
X029762Y016403D01*
X029890Y016304D02*
X032874Y016304D01*
X032834Y016206D02*
X029952Y016206D01*
X029988Y016107D02*
X032795Y016107D01*
X032795Y016009D02*
X029988Y016009D01*
X029969Y015910D02*
X032795Y015910D01*
X032823Y015812D02*
X029929Y015812D01*
X029834Y015713D02*
X032864Y015713D01*
X033933Y015812D02*
X039547Y015812D01*
X039547Y015910D02*
X033962Y015910D01*
X033962Y016009D02*
X039547Y016009D01*
X039547Y016107D02*
X033962Y016107D01*
X033923Y016206D02*
X039547Y016206D01*
X039547Y016304D02*
X033882Y016304D01*
X033797Y016403D02*
X039547Y016403D01*
X039547Y016501D02*
X033685Y016501D01*
X034701Y017667D02*
X034916Y017578D01*
X035148Y017578D01*
X035362Y017667D01*
X035526Y017831D01*
X035615Y018046D01*
X035615Y018278D01*
X035526Y018492D01*
X035362Y018656D01*
X035148Y018745D01*
X034916Y018745D01*
X034701Y018656D01*
X034537Y018492D01*
X034449Y018278D01*
X034449Y018046D01*
X034537Y017831D01*
X034701Y017667D01*
X034686Y017683D02*
X027602Y017683D01*
X027601Y017585D02*
X034901Y017585D01*
X035163Y017585D02*
X037569Y017585D01*
X037569Y017486D02*
X027599Y017486D01*
X027598Y017388D02*
X037569Y017388D01*
X037582Y017289D02*
X027597Y017289D01*
X027596Y017191D02*
X037622Y017191D01*
X037663Y017092D02*
X027595Y017092D01*
X027594Y016994D02*
X037729Y016994D01*
X037828Y016895D02*
X027592Y016895D01*
X027591Y016797D02*
X037960Y016797D01*
X038718Y016797D02*
X039547Y016797D01*
X039547Y016895D02*
X038850Y016895D01*
X038949Y016994D02*
X039547Y016994D01*
X039547Y017092D02*
X039015Y017092D01*
X039055Y017191D02*
X039547Y017191D01*
X039547Y017289D02*
X039096Y017289D01*
X039109Y017388D02*
X039547Y017388D01*
X039547Y017486D02*
X039109Y017486D01*
X039045Y017782D02*
X039540Y017782D01*
X039526Y017880D02*
X039004Y017880D01*
X038922Y017979D02*
X039499Y017979D01*
X039473Y018077D02*
X038824Y018077D01*
X038655Y018176D02*
X039436Y018176D01*
X039379Y018274D02*
X035615Y018274D01*
X035615Y018176D02*
X038023Y018176D01*
X037854Y018077D02*
X035615Y018077D01*
X035587Y017979D02*
X037756Y017979D01*
X037674Y017880D02*
X035547Y017880D01*
X035477Y017782D02*
X037633Y017782D01*
X037593Y017683D02*
X035378Y017683D01*
X034587Y017782D02*
X027603Y017782D01*
X027604Y017880D02*
X034517Y017880D01*
X034476Y017979D02*
X027605Y017979D01*
X027607Y018077D02*
X034449Y018077D01*
X034449Y018176D02*
X027608Y018176D01*
X027609Y018274D02*
X034449Y018274D01*
X034488Y018373D02*
X027610Y018373D01*
X027611Y018471D02*
X034529Y018471D01*
X034615Y018570D02*
X027612Y018570D01*
X027614Y018668D02*
X034730Y018668D01*
X035334Y018668D02*
X039015Y018668D01*
X039141Y018570D02*
X035449Y018570D01*
X035535Y018471D02*
X039239Y018471D01*
X039322Y018373D02*
X035576Y018373D01*
X038845Y018767D02*
X027615Y018767D01*
X027591Y016698D02*
X039547Y016698D01*
X039547Y016600D02*
X027591Y016600D01*
X027591Y015319D02*
X031497Y015319D01*
X031436Y015221D02*
X027591Y015221D01*
X027591Y015122D02*
X031416Y015122D01*
X031427Y015024D02*
X027591Y015024D01*
X027591Y014925D02*
X031474Y014925D01*
X031604Y014827D02*
X027591Y014827D01*
X029377Y012266D02*
X030487Y012266D01*
X030427Y012167D02*
X029337Y012167D01*
X030148Y011576D02*
X027591Y011576D01*
X027591Y011478D02*
X030017Y011478D01*
X029970Y011379D02*
X027591Y011379D01*
X027591Y011281D02*
X029959Y011281D01*
X029979Y011182D02*
X027591Y011182D01*
X027591Y011084D02*
X030040Y011084D01*
X031204Y010788D02*
X031258Y010788D01*
X031704Y010788D02*
X031758Y010788D01*
X030953Y011773D02*
X032850Y011773D01*
X032792Y011872D02*
X031038Y011872D01*
X031078Y011970D02*
X032758Y011970D01*
X032758Y012069D02*
X031079Y012069D01*
X031054Y012167D02*
X032785Y012167D01*
X032843Y012266D02*
X030994Y012266D01*
X025963Y009212D02*
X016227Y009212D01*
X016227Y009114D02*
X025895Y009114D01*
X025864Y009015D02*
X016227Y009015D01*
X016227Y008917D02*
X025864Y008917D01*
X025898Y008818D02*
X016227Y008818D01*
X016227Y008720D02*
X025895Y008720D01*
X025864Y008621D02*
X016227Y008621D01*
X016227Y008523D02*
X025864Y008523D01*
X025898Y008424D02*
X016227Y008424D01*
X016227Y008326D02*
X025895Y008326D01*
X025864Y008227D02*
X016227Y008227D01*
X016227Y008129D02*
X025864Y008129D01*
X025898Y008030D02*
X016227Y008030D01*
X016227Y007932D02*
X025895Y007932D01*
X025864Y007833D02*
X016227Y007833D01*
X016227Y007735D02*
X025864Y007735D01*
X025898Y007636D02*
X016227Y007636D01*
X016227Y007538D02*
X025970Y007538D01*
X027124Y006750D02*
X016095Y006750D01*
X016095Y006651D02*
X027159Y006651D01*
X027231Y006553D02*
X016095Y006553D01*
X016095Y006454D02*
X027315Y006454D01*
X027315Y006356D02*
X016095Y006356D01*
X016095Y006257D02*
X027315Y006257D01*
X027315Y006159D02*
X016095Y006159D01*
X016095Y006060D02*
X027315Y006060D01*
X027315Y005962D02*
X016095Y005962D01*
X016095Y005863D02*
X027315Y005863D01*
X027315Y005765D02*
X016095Y005765D01*
X016095Y005666D02*
X027315Y005666D01*
X027315Y005568D02*
X016095Y005568D01*
X016095Y005469D02*
X027315Y005469D01*
X027315Y005371D02*
X016095Y005371D01*
X016095Y005272D02*
X027315Y005272D01*
X027315Y005174D02*
X016095Y005174D01*
X016095Y005075D02*
X027315Y005075D01*
X027315Y005052D02*
X027315Y005052D01*
X027239Y004977D02*
X016095Y004977D01*
X016095Y004878D02*
X027185Y004878D01*
X027163Y004780D02*
X016095Y004780D01*
X016095Y004681D02*
X027166Y004681D01*
X027207Y004583D02*
X016095Y004583D01*
X016095Y004484D02*
X027291Y004484D01*
X027315Y004386D02*
X016095Y004386D01*
X016095Y004287D02*
X027315Y004287D01*
X027315Y004189D02*
X016095Y004189D01*
X016095Y004090D02*
X027315Y004090D01*
X027315Y003992D02*
X016095Y003992D01*
X016095Y003893D02*
X027315Y003893D01*
X027315Y003795D02*
X016467Y003795D01*
X016625Y003696D02*
X027183Y003696D01*
X027113Y003598D02*
X016690Y003598D01*
X016719Y003499D02*
X027081Y003499D01*
X027081Y003401D02*
X016719Y003401D01*
X016684Y003302D02*
X027113Y003302D01*
X027119Y003241D02*
X026991Y003294D01*
X026852Y003294D01*
X026724Y003241D01*
X026685Y003202D01*
X026647Y003241D01*
X026519Y003294D01*
X026380Y003294D01*
X026252Y003241D01*
X026154Y003143D01*
X026100Y003015D01*
X026100Y002876D01*
X026154Y002748D01*
X026173Y002729D01*
X026154Y002710D01*
X026100Y002582D01*
X026100Y002443D01*
X026154Y002315D01*
X026173Y002296D01*
X026154Y002277D01*
X026100Y002149D01*
X026100Y002010D01*
X026154Y001882D01*
X026163Y001872D01*
X026154Y001863D01*
X026100Y001735D01*
X026100Y001596D01*
X026154Y001468D01*
X026163Y001459D01*
X026154Y001450D01*
X026100Y001322D01*
X026100Y001183D01*
X026154Y001055D01*
X026212Y000996D01*
X026154Y000938D01*
X026100Y000810D01*
X026100Y000671D01*
X026154Y000543D01*
X026252Y000445D01*
X026380Y000392D01*
X026519Y000392D01*
X026647Y000445D01*
X026745Y000543D01*
X026798Y000671D01*
X026798Y000810D01*
X026745Y000938D01*
X027315Y000938D01*
X027315Y000840D02*
X026786Y000840D01*
X026798Y000741D02*
X027315Y000741D01*
X027315Y000643D02*
X026786Y000643D01*
X026745Y000544D02*
X027315Y000544D01*
X027315Y000446D02*
X026647Y000446D01*
X026251Y000446D02*
X016095Y000446D01*
X016095Y000544D02*
X026153Y000544D01*
X026112Y000643D02*
X016095Y000643D01*
X016095Y000741D02*
X026100Y000741D01*
X026113Y000840D02*
X016095Y000840D01*
X016095Y000938D02*
X026154Y000938D01*
X026172Y001037D02*
X016095Y001037D01*
X016095Y001135D02*
X026120Y001135D01*
X026100Y001234D02*
X016095Y001234D01*
X016095Y001332D02*
X026105Y001332D01*
X026146Y001431D02*
X016095Y001431D01*
X016095Y001529D02*
X026128Y001529D01*
X026100Y001628D02*
X016095Y001628D01*
X016095Y001726D02*
X026100Y001726D01*
X026137Y001825D02*
X017099Y001825D01*
X017198Y001923D02*
X026136Y001923D01*
X026100Y002022D02*
X017296Y002022D01*
X017395Y002120D02*
X026100Y002120D01*
X026129Y002219D02*
X017490Y002219D01*
X017573Y002317D02*
X026153Y002317D01*
X026112Y002416D02*
X017613Y002416D01*
X017625Y002514D02*
X023026Y002514D01*
X022984Y002532D02*
X023112Y002478D01*
X023251Y002478D01*
X023379Y002532D01*
X023477Y002630D01*
X023530Y002758D01*
X023530Y002897D01*
X023477Y003025D01*
X023379Y003123D01*
X023251Y003176D01*
X023112Y003176D01*
X022984Y003123D01*
X022886Y003025D01*
X022833Y002897D01*
X022833Y002758D01*
X022886Y002630D01*
X022984Y002532D01*
X022903Y002613D02*
X017612Y002613D01*
X017570Y002711D02*
X022852Y002711D01*
X022833Y002810D02*
X017470Y002810D01*
X017082Y002810D02*
X016680Y002810D01*
X016677Y002711D02*
X016982Y002711D01*
X016940Y002613D02*
X016636Y002613D01*
X016551Y002514D02*
X016927Y002514D01*
X016939Y002416D02*
X016095Y002416D01*
X016095Y002514D02*
X016112Y002514D01*
X016095Y002317D02*
X016885Y002317D01*
X016659Y002908D02*
X022838Y002908D01*
X022878Y003007D02*
X016606Y003007D01*
X016477Y003105D02*
X022966Y003105D01*
X023397Y003105D02*
X026138Y003105D01*
X026100Y003007D02*
X023485Y003007D01*
X023525Y002908D02*
X026100Y002908D01*
X026128Y002810D02*
X023530Y002810D01*
X023511Y002711D02*
X026155Y002711D01*
X026113Y002613D02*
X023460Y002613D01*
X023337Y002514D02*
X026100Y002514D01*
X026779Y002627D02*
X026852Y002597D01*
X026991Y002597D01*
X027119Y002650D01*
X027217Y002748D01*
X027270Y002876D01*
X027270Y003015D01*
X027217Y003143D01*
X027119Y003241D01*
X027157Y003204D02*
X027182Y003204D01*
X027233Y003105D02*
X027315Y003105D01*
X027315Y003007D02*
X027270Y003007D01*
X027270Y002908D02*
X027315Y002908D01*
X027315Y002810D02*
X027243Y002810D01*
X027181Y002711D02*
X027315Y002711D01*
X027315Y002613D02*
X027030Y002613D01*
X026991Y002428D02*
X026852Y002428D01*
X026779Y002398D01*
X026798Y002443D01*
X026798Y002582D01*
X026779Y002627D01*
X026785Y002613D02*
X026814Y002613D01*
X026798Y002514D02*
X027315Y002514D01*
X027315Y002416D02*
X027021Y002416D01*
X026991Y002428D02*
X027119Y002375D01*
X027217Y002277D01*
X027270Y002149D01*
X027270Y002010D01*
X027217Y001882D01*
X027119Y001783D01*
X026991Y001730D01*
X026852Y001730D01*
X026789Y001757D01*
X026798Y001735D01*
X026798Y001596D01*
X026745Y001468D01*
X026736Y001459D01*
X026745Y001450D01*
X026798Y001322D01*
X026798Y001183D01*
X026745Y001055D01*
X026686Y000996D01*
X026745Y000938D01*
X026727Y001037D02*
X027315Y001037D01*
X027315Y001135D02*
X026778Y001135D01*
X026798Y001234D02*
X027315Y001234D01*
X027315Y001332D02*
X026794Y001332D01*
X026753Y001431D02*
X027315Y001431D01*
X027315Y001529D02*
X026770Y001529D01*
X026798Y001628D02*
X027315Y001628D01*
X027315Y001726D02*
X026798Y001726D01*
X027160Y001825D02*
X027315Y001825D01*
X027315Y001923D02*
X027234Y001923D01*
X027270Y002022D02*
X027315Y002022D01*
X027315Y002120D02*
X027270Y002120D01*
X027241Y002219D02*
X027315Y002219D01*
X027315Y002317D02*
X027177Y002317D01*
X026822Y002416D02*
X026787Y002416D01*
X027591Y002416D02*
X037994Y002416D01*
X037903Y002378D02*
X037686Y002161D01*
X037569Y001878D01*
X037569Y001572D01*
X037686Y001289D01*
X037903Y001072D01*
X038186Y000955D01*
X038492Y000955D01*
X038775Y001072D01*
X038992Y001289D01*
X039109Y001572D01*
X039109Y001878D01*
X038992Y002161D01*
X038775Y002378D01*
X038492Y002495D01*
X038186Y002495D01*
X037903Y002378D01*
X037842Y002317D02*
X027591Y002317D01*
X027591Y002219D02*
X037744Y002219D01*
X037669Y002120D02*
X027591Y002120D01*
X027591Y002022D02*
X037628Y002022D01*
X037588Y001923D02*
X027591Y001923D01*
X027591Y001825D02*
X037569Y001825D01*
X037569Y001726D02*
X027591Y001726D01*
X027591Y001628D02*
X037569Y001628D01*
X037587Y001529D02*
X027591Y001529D01*
X027591Y001431D02*
X032066Y001431D01*
X032096Y001443D02*
X031983Y001396D01*
X031896Y001309D01*
X031849Y001196D01*
X031849Y001073D01*
X031896Y000959D01*
X031983Y000873D01*
X032096Y000826D01*
X032219Y000826D01*
X032333Y000873D01*
X032420Y000959D01*
X032467Y001073D01*
X032467Y001196D01*
X032420Y001309D01*
X032333Y001396D01*
X032219Y001443D01*
X032096Y001443D01*
X032249Y001431D02*
X037627Y001431D01*
X037668Y001332D02*
X032397Y001332D01*
X032451Y001234D02*
X037741Y001234D01*
X037840Y001135D02*
X032467Y001135D01*
X032452Y001037D02*
X037989Y001037D01*
X038689Y001037D02*
X039348Y001037D01*
X039405Y001135D02*
X038838Y001135D01*
X038937Y001234D02*
X039449Y001234D01*
X039476Y001332D02*
X039010Y001332D01*
X039051Y001431D02*
X039502Y001431D01*
X039529Y001529D02*
X039091Y001529D01*
X039109Y001628D02*
X039540Y001628D01*
X039546Y001726D02*
X039109Y001726D01*
X039109Y001825D02*
X039547Y001825D01*
X039547Y001923D02*
X039090Y001923D01*
X039050Y002022D02*
X039547Y002022D01*
X039547Y002120D02*
X039009Y002120D01*
X038934Y002219D02*
X039547Y002219D01*
X039547Y002317D02*
X038836Y002317D01*
X038684Y002416D02*
X039547Y002416D01*
X039547Y002514D02*
X027591Y002514D01*
X027591Y002613D02*
X039547Y002613D01*
X039547Y002711D02*
X027591Y002711D01*
X027591Y002810D02*
X039547Y002810D01*
X039547Y002908D02*
X027591Y002908D01*
X027591Y003007D02*
X039547Y003007D01*
X039547Y003105D02*
X027591Y003105D01*
X027663Y003204D02*
X028066Y003204D01*
X028108Y003162D02*
X028232Y003110D01*
X028367Y003110D01*
X028491Y003162D01*
X028587Y003257D01*
X028638Y003382D01*
X028638Y003517D01*
X028587Y003641D01*
X028491Y003736D01*
X028367Y003788D01*
X028232Y003788D01*
X028108Y003736D01*
X028012Y003641D01*
X027961Y003517D01*
X027961Y003382D01*
X028012Y003257D01*
X028108Y003162D01*
X027994Y003302D02*
X027735Y003302D01*
X027768Y003401D02*
X027961Y003401D01*
X027961Y003499D02*
X027768Y003499D01*
X027735Y003598D02*
X027994Y003598D01*
X028067Y003696D02*
X027662Y003696D01*
X027591Y003795D02*
X033662Y003795D01*
X033665Y003796D02*
X033541Y003744D01*
X033446Y003649D01*
X033394Y003524D01*
X033394Y003390D01*
X033446Y003265D01*
X033541Y003170D01*
X033665Y003118D01*
X033800Y003118D01*
X033925Y003170D01*
X033930Y003175D01*
X033934Y003170D01*
X034059Y003118D01*
X034194Y003118D01*
X034318Y003170D01*
X034344Y003196D01*
X034345Y003195D01*
X034459Y003148D01*
X034581Y003148D01*
X034695Y003195D01*
X034782Y003282D01*
X034829Y003396D01*
X034829Y003518D01*
X034782Y003632D01*
X034695Y003719D01*
X034581Y003766D01*
X034459Y003766D01*
X034345Y003719D01*
X034344Y003718D01*
X034318Y003744D01*
X034194Y003796D01*
X034059Y003796D01*
X033934Y003744D01*
X033930Y003739D01*
X033925Y003744D01*
X033800Y003796D01*
X033665Y003796D01*
X033803Y003795D02*
X034056Y003795D01*
X034197Y003795D02*
X034711Y003795D01*
X034718Y003696D02*
X034796Y003696D01*
X034796Y003598D02*
X035307Y003598D01*
X035274Y003499D02*
X034829Y003499D01*
X034829Y003401D02*
X035274Y003401D01*
X035313Y003302D02*
X034790Y003302D01*
X034703Y003204D02*
X035400Y003204D01*
X035766Y003204D02*
X035791Y003204D01*
X036242Y003204D02*
X039547Y003204D01*
X039547Y003302D02*
X036319Y003302D01*
X036355Y003401D02*
X039547Y003401D01*
X039547Y003499D02*
X036355Y003499D01*
X036325Y003598D02*
X039547Y003598D01*
X039547Y003696D02*
X039525Y003696D01*
X039349Y003664D02*
X039349Y003664D01*
X039398Y003914D02*
X034933Y003910D01*
X034926Y007430D01*
X036418Y007433D01*
X036418Y007961D01*
X039390Y007961D01*
X039398Y003914D01*
X039398Y003992D02*
X034933Y003992D01*
X034933Y004090D02*
X039398Y004090D01*
X039397Y004189D02*
X034933Y004189D01*
X034933Y004287D02*
X039397Y004287D01*
X039397Y004386D02*
X034932Y004386D01*
X034932Y004484D02*
X039397Y004484D01*
X039397Y004583D02*
X034932Y004583D01*
X034932Y004681D02*
X039397Y004681D01*
X039396Y004780D02*
X034932Y004780D01*
X034931Y004878D02*
X039396Y004878D01*
X039396Y004977D02*
X034931Y004977D01*
X034931Y005075D02*
X039396Y005075D01*
X039396Y005174D02*
X034931Y005174D01*
X034930Y005272D02*
X039395Y005272D01*
X039395Y005371D02*
X034930Y005371D01*
X034930Y005469D02*
X039395Y005469D01*
X039395Y005568D02*
X034930Y005568D01*
X034930Y005666D02*
X039395Y005666D01*
X039394Y005765D02*
X034929Y005765D01*
X034929Y005863D02*
X039394Y005863D01*
X039394Y005962D02*
X034929Y005962D01*
X034929Y006060D02*
X039394Y006060D01*
X039394Y006159D02*
X034928Y006159D01*
X034928Y006257D02*
X039393Y006257D01*
X039393Y006356D02*
X034928Y006356D01*
X034928Y006454D02*
X039393Y006454D01*
X039393Y006553D02*
X034928Y006553D01*
X034927Y006651D02*
X039393Y006651D01*
X039393Y006750D02*
X034927Y006750D01*
X034927Y006848D02*
X039392Y006848D01*
X039392Y006947D02*
X034927Y006947D01*
X034926Y007045D02*
X039392Y007045D01*
X039392Y007144D02*
X034926Y007144D01*
X034926Y007242D02*
X039392Y007242D01*
X039391Y007341D02*
X034926Y007341D01*
X034676Y007341D02*
X034443Y007341D01*
X034441Y007242D02*
X034676Y007242D01*
X034676Y007144D02*
X034482Y007144D01*
X034495Y007045D02*
X034676Y007045D01*
X034677Y006947D02*
X034487Y006947D01*
X034446Y006848D02*
X034677Y006848D01*
X034677Y006750D02*
X034438Y006750D01*
X034479Y006651D02*
X034677Y006651D01*
X034678Y006553D02*
X034495Y006553D01*
X034490Y006454D02*
X034678Y006454D01*
X034678Y006356D02*
X034449Y006356D01*
X034679Y006060D02*
X027591Y006060D01*
X027591Y005962D02*
X034679Y005962D01*
X034679Y005863D02*
X027591Y005863D01*
X027591Y005765D02*
X034679Y005765D01*
X034680Y005666D02*
X027591Y005666D01*
X027591Y005568D02*
X034680Y005568D01*
X034680Y005469D02*
X027591Y005469D01*
X027591Y005371D02*
X034680Y005371D01*
X034680Y005272D02*
X027591Y005272D01*
X027591Y005174D02*
X034681Y005174D01*
X034681Y005075D02*
X027628Y005075D01*
X027771Y004977D02*
X034681Y004977D01*
X034681Y004878D02*
X027828Y004878D01*
X027851Y004780D02*
X034682Y004780D01*
X034682Y004681D02*
X027848Y004681D01*
X027807Y004583D02*
X034682Y004583D01*
X034682Y004484D02*
X027719Y004484D01*
X027591Y004386D02*
X034682Y004386D01*
X034683Y004287D02*
X027591Y004287D01*
X027591Y004189D02*
X034683Y004189D01*
X034683Y004090D02*
X027591Y004090D01*
X027591Y003992D02*
X034683Y003992D01*
X034683Y003893D02*
X027591Y003893D01*
X028532Y003696D02*
X033493Y003696D01*
X033424Y003598D02*
X028605Y003598D01*
X028638Y003499D02*
X033394Y003499D01*
X033394Y003401D02*
X028638Y003401D01*
X028605Y003302D02*
X033430Y003302D01*
X033507Y003204D02*
X028533Y003204D01*
X026687Y003204D02*
X026684Y003204D01*
X026214Y003204D02*
X016610Y003204D01*
X015819Y003696D02*
X015762Y003696D01*
X015819Y003795D02*
X015664Y003795D01*
X015565Y003893D02*
X015819Y003893D01*
X015819Y003992D02*
X015467Y003992D01*
X015368Y004090D02*
X015819Y004090D01*
X016128Y003795D02*
X016274Y003795D01*
X015656Y002022D02*
X009297Y002022D01*
X009449Y001923D02*
X015754Y001923D01*
X015813Y001864D02*
X015813Y001864D01*
X015819Y001825D02*
X009533Y001825D01*
X009574Y001726D02*
X015819Y001726D01*
X015819Y001628D02*
X009596Y001628D01*
X009596Y001529D02*
X015819Y001529D01*
X015819Y001431D02*
X009573Y001431D01*
X009533Y001332D02*
X015819Y001332D01*
X015819Y001234D02*
X009448Y001234D01*
X009293Y001135D02*
X015819Y001135D01*
X015819Y001037D02*
X002075Y001037D01*
X001227Y000446D02*
X015819Y000446D01*
X015819Y000544D02*
X001056Y000544D01*
X001572Y000347D02*
X015819Y000347D01*
X006944Y001135D02*
X006293Y001135D01*
X006448Y001234D02*
X006789Y001234D01*
X006704Y001332D02*
X006533Y001332D01*
X009681Y006750D02*
X011052Y006750D01*
X011052Y006848D02*
X009681Y006848D01*
X009681Y006947D02*
X011052Y006947D01*
X011052Y007045D02*
X009681Y007045D01*
X009681Y007144D02*
X011052Y007144D01*
X011052Y007242D02*
X009681Y007242D01*
X009681Y007341D02*
X011052Y007341D01*
X011052Y007439D02*
X009681Y007439D01*
X009681Y007538D02*
X011052Y007538D01*
X011052Y007636D02*
X009681Y007636D01*
X009681Y007735D02*
X011052Y007735D01*
X011052Y007833D02*
X009681Y007833D01*
X009681Y007932D02*
X011052Y007932D01*
X011052Y008030D02*
X009681Y008030D01*
X009681Y008129D02*
X011052Y008129D01*
X011052Y008227D02*
X009681Y008227D01*
X009681Y008326D02*
X011052Y008326D01*
X011052Y008424D02*
X009681Y008424D01*
X009681Y008523D02*
X011029Y008523D01*
X010790Y008621D02*
X009681Y008621D01*
X009681Y008720D02*
X010716Y008720D01*
X010681Y008818D02*
X010281Y008818D01*
X010263Y008800D02*
X010358Y008895D01*
X010410Y009020D01*
X010410Y009154D01*
X010358Y009279D01*
X010263Y009374D01*
X010139Y009426D01*
X010004Y009426D01*
X009879Y009374D01*
X009784Y009279D01*
X009733Y009154D01*
X009733Y009020D01*
X009784Y008895D01*
X009879Y008800D01*
X010004Y008748D01*
X010139Y008748D01*
X010263Y008800D01*
X010367Y008917D02*
X010681Y008917D01*
X010713Y009015D02*
X010408Y009015D01*
X010410Y009114D02*
X010747Y009114D01*
X010696Y009212D02*
X010386Y009212D01*
X010327Y009311D02*
X010677Y009311D01*
X010685Y009409D02*
X010179Y009409D01*
X009964Y009409D02*
X009681Y009409D01*
X009681Y009311D02*
X009816Y009311D01*
X009756Y009212D02*
X009681Y009212D01*
X009681Y009114D02*
X009733Y009114D01*
X009734Y009015D02*
X009681Y009015D01*
X009681Y008917D02*
X009775Y008917D01*
X009861Y008818D02*
X009681Y008818D01*
X008886Y008818D02*
X008756Y008818D01*
X008746Y008720D02*
X008886Y008720D01*
X008886Y008621D02*
X008705Y008621D01*
X008605Y008523D02*
X008886Y008523D01*
X008886Y008424D02*
X006458Y008424D01*
X006521Y008523D02*
X008230Y008523D01*
X008741Y008917D02*
X008886Y008917D01*
X008886Y009015D02*
X008693Y009015D01*
X008730Y009114D02*
X008886Y009114D01*
X008886Y009212D02*
X008756Y009212D01*
X008756Y009311D02*
X008886Y009311D01*
X008886Y009409D02*
X008716Y009409D01*
X008687Y009508D02*
X008886Y009508D01*
X008886Y009606D02*
X008738Y009606D01*
X008756Y009705D02*
X008886Y009705D01*
X008886Y009803D02*
X008749Y009803D01*
X008708Y009902D02*
X008886Y009902D01*
X008886Y010000D02*
X008614Y010000D01*
X008886Y010099D02*
X007059Y010099D01*
X007083Y010000D02*
X008222Y010000D01*
X008128Y009902D02*
X007083Y009902D01*
X007083Y009803D02*
X008087Y009803D01*
X008079Y009705D02*
X007083Y009705D01*
X007083Y009606D02*
X008097Y009606D01*
X008148Y009508D02*
X007083Y009508D01*
X007083Y009409D02*
X008119Y009409D01*
X008079Y009311D02*
X007083Y009311D01*
X007175Y009212D02*
X008079Y009212D01*
X008105Y009114D02*
X007274Y009114D01*
X006891Y008818D02*
X006571Y008818D01*
X006571Y008720D02*
X006989Y008720D01*
X007088Y008621D02*
X006561Y008621D01*
X006359Y008326D02*
X008886Y008326D01*
X009681Y009508D02*
X010726Y009508D01*
X010712Y009606D02*
X009681Y009606D01*
X009681Y009705D02*
X010677Y009705D01*
X010677Y009803D02*
X009681Y009803D01*
X009681Y009902D02*
X010710Y009902D01*
X010755Y010000D02*
X009681Y010000D01*
X009681Y010099D02*
X010592Y010099D01*
X010531Y010197D02*
X009681Y010197D01*
X009681Y010296D02*
X010511Y010296D01*
X010521Y010394D02*
X009681Y010394D01*
X009751Y010493D02*
X010568Y010493D01*
X010515Y010591D02*
X009825Y010591D01*
X009859Y010690D02*
X010481Y010690D01*
X010481Y010788D02*
X009859Y010788D01*
X009826Y010887D02*
X010513Y010887D01*
X010585Y010985D02*
X009755Y010985D01*
X009286Y010985D02*
X009282Y010985D01*
X008813Y010985D02*
X000320Y010985D01*
X000320Y010887D02*
X008741Y010887D01*
X008709Y010788D02*
X000320Y010788D01*
X000320Y010690D02*
X008709Y010690D01*
X008743Y010591D02*
X006582Y010591D01*
X006682Y010493D02*
X008817Y010493D01*
X008886Y010394D02*
X006781Y010394D01*
X006879Y010296D02*
X008886Y010296D01*
X008886Y010197D02*
X006978Y010197D01*
X006594Y009902D02*
X006547Y009902D01*
X006571Y009803D02*
X006603Y009803D01*
X006603Y009705D02*
X006571Y009705D01*
X006555Y009606D02*
X006603Y009606D01*
X006603Y009508D02*
X006514Y009508D01*
X006443Y009409D02*
X006603Y009409D01*
X006603Y009311D02*
X006330Y009311D01*
X006249Y009212D02*
X006603Y009212D01*
X006621Y009114D02*
X006409Y009114D01*
X006500Y009015D02*
X006694Y009015D01*
X006792Y008917D02*
X006541Y008917D01*
X004733Y009114D02*
X002042Y009114D01*
X002064Y009015D02*
X004642Y009015D01*
X004601Y008917D02*
X002064Y008917D01*
X002039Y008818D02*
X004571Y008818D01*
X004571Y008720D02*
X001999Y008720D01*
X001906Y008621D02*
X004581Y008621D01*
X004622Y008523D02*
X001913Y008523D01*
X002001Y008424D02*
X004685Y008424D01*
X000320Y011084D02*
X015819Y011084D01*
X015819Y011182D02*
X000320Y011182D01*
X000320Y011281D02*
X001231Y011281D01*
X001190Y011298D02*
X001358Y011228D01*
X001540Y011228D01*
X001708Y011298D01*
X001837Y011426D01*
X001843Y011440D01*
X001849Y011426D01*
X001977Y011298D01*
X002146Y011228D01*
X002328Y011228D01*
X002496Y011298D01*
X002624Y011426D01*
X002630Y011440D01*
X002636Y011426D01*
X002765Y011298D01*
X002933Y011228D01*
X003115Y011228D01*
X003283Y011298D01*
X003412Y011426D01*
X003481Y011594D01*
X003481Y011776D01*
X003412Y011945D01*
X003283Y012073D01*
X003115Y012143D01*
X002933Y012143D01*
X002765Y012073D01*
X002636Y011945D01*
X002630Y011930D01*
X002624Y011945D01*
X002496Y012073D01*
X002328Y012143D01*
X002146Y012143D01*
X001977Y012073D01*
X001849Y011945D01*
X001843Y011930D01*
X001837Y011945D01*
X001708Y012073D01*
X001540Y012143D01*
X001358Y012143D01*
X001190Y012073D01*
X001061Y011945D01*
X000992Y011776D01*
X000992Y011594D01*
X001061Y011426D01*
X001190Y011298D01*
X001109Y011379D02*
X000320Y011379D01*
X000320Y011478D02*
X001040Y011478D01*
X000999Y011576D02*
X000320Y011576D01*
X000320Y011675D02*
X000992Y011675D01*
X000992Y011773D02*
X000320Y011773D01*
X000320Y011872D02*
X001031Y011872D01*
X001087Y011970D02*
X000320Y011970D01*
X000320Y012069D02*
X001185Y012069D01*
X001713Y012069D02*
X001973Y012069D01*
X001874Y011970D02*
X001812Y011970D01*
X001790Y011379D02*
X001896Y011379D01*
X002019Y011281D02*
X001667Y011281D01*
X002455Y011281D02*
X002806Y011281D01*
X002683Y011379D02*
X002577Y011379D01*
X002599Y011970D02*
X002662Y011970D01*
X002760Y012069D02*
X002500Y012069D01*
X003288Y012069D02*
X003580Y012069D01*
X003570Y012072D02*
X003727Y012008D01*
X003896Y012008D01*
X004053Y012072D01*
X004172Y012192D01*
X004237Y012349D01*
X004237Y012518D01*
X004172Y012675D01*
X004053Y012795D01*
X003896Y012859D01*
X003727Y012859D01*
X003570Y012795D01*
X003450Y012675D01*
X003386Y012518D01*
X003386Y012349D01*
X003450Y012192D01*
X003570Y012072D01*
X003476Y012167D02*
X000320Y012167D01*
X000320Y012266D02*
X003420Y012266D01*
X003386Y012364D02*
X000320Y012364D01*
X000320Y012463D02*
X003386Y012463D01*
X003403Y012561D02*
X000320Y012561D01*
X000320Y012660D02*
X003444Y012660D01*
X003534Y012758D02*
X000320Y012758D01*
X000320Y012857D02*
X003720Y012857D01*
X003903Y012857D02*
X004366Y012857D01*
X004368Y012855D02*
X004492Y012803D01*
X004627Y012803D01*
X004751Y012855D01*
X004847Y012950D01*
X004898Y013075D01*
X004898Y013210D01*
X004847Y013334D01*
X004751Y013429D01*
X004627Y013481D01*
X004492Y013481D01*
X004368Y013429D01*
X004272Y013334D01*
X004221Y013210D01*
X004221Y013075D01*
X004272Y012950D01*
X004368Y012855D01*
X004270Y012955D02*
X000320Y012955D01*
X000320Y013054D02*
X004229Y013054D01*
X004221Y013152D02*
X000320Y013152D01*
X000320Y013251D02*
X004238Y013251D01*
X004287Y013349D02*
X000320Y013349D01*
X000320Y013448D02*
X004412Y013448D01*
X004707Y013448D02*
X015819Y013448D01*
X015819Y013546D02*
X000320Y013546D01*
X000320Y013645D02*
X015819Y013645D01*
X015819Y013743D02*
X000320Y013743D01*
X000320Y013842D02*
X015819Y013842D01*
X015819Y013940D02*
X000320Y013940D01*
X000320Y014039D02*
X001321Y014039D01*
X001358Y014023D02*
X001540Y014023D01*
X001708Y014093D01*
X001837Y014222D01*
X001843Y014236D01*
X001849Y014222D01*
X001977Y014093D01*
X002146Y014023D01*
X002328Y014023D01*
X002496Y014093D01*
X002624Y014222D01*
X002630Y014236D01*
X002636Y014222D01*
X002765Y014093D01*
X002933Y014023D01*
X003115Y014023D01*
X003283Y014093D01*
X003412Y014222D01*
X003481Y014390D01*
X003481Y014572D01*
X003412Y014740D01*
X003283Y014869D01*
X003115Y014938D01*
X002933Y014938D01*
X002765Y014869D01*
X002636Y014740D01*
X002630Y014726D01*
X002624Y014740D01*
X002496Y014869D01*
X002328Y014938D01*
X002146Y014938D01*
X001977Y014869D01*
X001849Y014740D01*
X001843Y014726D01*
X001837Y014740D01*
X001708Y014869D01*
X001540Y014938D01*
X001358Y014938D01*
X001190Y014869D01*
X001061Y014740D01*
X000992Y014572D01*
X000992Y014390D01*
X001061Y014222D01*
X001190Y014093D01*
X001358Y014023D01*
X001577Y014039D02*
X002109Y014039D01*
X001933Y014137D02*
X001753Y014137D01*
X001843Y014236D02*
X001843Y014236D01*
X002365Y014039D02*
X002896Y014039D01*
X002721Y014137D02*
X002540Y014137D01*
X002630Y014236D02*
X002630Y014236D01*
X003152Y014039D02*
X015819Y014039D01*
X015819Y014137D02*
X003327Y014137D01*
X003418Y014236D02*
X015819Y014236D01*
X015819Y014334D02*
X003458Y014334D01*
X003481Y014433D02*
X015819Y014433D01*
X015819Y014531D02*
X003481Y014531D01*
X003458Y014630D02*
X015819Y014630D01*
X015819Y014728D02*
X003417Y014728D01*
X003325Y014827D02*
X003669Y014827D01*
X003727Y014803D02*
X003896Y014803D01*
X004053Y014868D01*
X004172Y014987D01*
X004237Y015144D01*
X004237Y015313D01*
X004172Y015470D01*
X004053Y015590D01*
X003896Y015655D01*
X003727Y015655D01*
X003570Y015590D01*
X003450Y015470D01*
X003386Y015313D01*
X003386Y015144D01*
X003450Y014987D01*
X003570Y014868D01*
X003727Y014803D01*
X003953Y014827D02*
X015819Y014827D01*
X015819Y014925D02*
X004110Y014925D01*
X004187Y015024D02*
X015819Y015024D01*
X015819Y015122D02*
X004228Y015122D01*
X004237Y015221D02*
X015819Y015221D01*
X015819Y015319D02*
X004235Y015319D01*
X004194Y015418D02*
X015819Y015418D01*
X015819Y015516D02*
X004126Y015516D01*
X003993Y015615D02*
X007643Y015615D01*
X007681Y015599D02*
X007816Y015599D01*
X007940Y015650D01*
X008036Y015746D01*
X008087Y015870D01*
X008087Y016005D01*
X008036Y016129D01*
X007940Y016225D01*
X007816Y016276D01*
X007681Y016276D01*
X007557Y016225D01*
X007461Y016129D01*
X007410Y016005D01*
X007410Y015870D01*
X007461Y015746D01*
X007557Y015650D01*
X007681Y015599D01*
X007854Y015615D02*
X015819Y015615D01*
X015819Y015713D02*
X008003Y015713D01*
X008063Y015812D02*
X015819Y015812D01*
X015819Y015910D02*
X008087Y015910D01*
X008086Y016009D02*
X015819Y016009D01*
X015819Y016107D02*
X008045Y016107D01*
X007959Y016206D02*
X015819Y016206D01*
X015819Y016304D02*
X000320Y016304D01*
X000320Y016206D02*
X007538Y016206D01*
X007452Y016107D02*
X000320Y016107D01*
X000320Y016009D02*
X007411Y016009D01*
X007410Y015910D02*
X000320Y015910D01*
X000320Y015812D02*
X007434Y015812D01*
X007494Y015713D02*
X000320Y015713D01*
X000320Y015615D02*
X003630Y015615D01*
X003496Y015516D02*
X000320Y015516D01*
X000320Y015418D02*
X003429Y015418D01*
X003388Y015319D02*
X000320Y015319D01*
X000320Y015221D02*
X003386Y015221D01*
X003395Y015122D02*
X000320Y015122D01*
X000320Y015024D02*
X003435Y015024D01*
X003513Y014925D02*
X003147Y014925D01*
X002901Y014925D02*
X002359Y014925D01*
X002538Y014827D02*
X002723Y014827D01*
X002631Y014728D02*
X002629Y014728D01*
X002114Y014925D02*
X001572Y014925D01*
X001750Y014827D02*
X001935Y014827D01*
X001844Y014728D02*
X001842Y014728D01*
X001326Y014925D02*
X000320Y014925D01*
X000320Y014827D02*
X001148Y014827D01*
X001056Y014728D02*
X000320Y014728D01*
X000320Y014630D02*
X001016Y014630D01*
X000992Y014531D02*
X000320Y014531D01*
X000320Y014433D02*
X000992Y014433D01*
X001015Y014334D02*
X000320Y014334D01*
X000320Y014236D02*
X001056Y014236D01*
X001146Y014137D02*
X000320Y014137D01*
X000320Y016403D02*
X015819Y016403D01*
X015819Y016501D02*
X013200Y016501D01*
X013187Y016496D02*
X013344Y016561D01*
X013464Y016680D01*
X013529Y016837D01*
X013529Y017006D01*
X013464Y017163D01*
X013344Y017283D01*
X013187Y017348D01*
X013018Y017348D01*
X012861Y017283D01*
X012742Y017163D01*
X012677Y017006D01*
X012677Y016837D01*
X012742Y016680D01*
X012861Y016561D01*
X013018Y016496D01*
X013187Y016496D01*
X013005Y016501D02*
X000320Y016501D01*
X000320Y016600D02*
X012823Y016600D01*
X012734Y016698D02*
X000320Y016698D01*
X000320Y016797D02*
X001345Y016797D01*
X001289Y016820D02*
X001572Y016703D01*
X001878Y016703D01*
X002161Y016820D01*
X002378Y017037D01*
X002495Y017320D01*
X002495Y017626D01*
X002378Y017909D01*
X002161Y018126D01*
X001878Y018243D01*
X001572Y018243D01*
X001289Y018126D01*
X001072Y017909D01*
X000955Y017626D01*
X000955Y017320D01*
X001072Y017037D01*
X001289Y016820D01*
X001214Y016895D02*
X000320Y016895D01*
X000320Y016994D02*
X001115Y016994D01*
X001049Y017092D02*
X000320Y017092D01*
X000320Y017191D02*
X001008Y017191D01*
X000967Y017289D02*
X000320Y017289D01*
X000320Y017388D02*
X000955Y017388D01*
X000955Y017486D02*
X000320Y017486D01*
X000320Y017585D02*
X000955Y017585D01*
X000978Y017683D02*
X000320Y017683D01*
X000320Y017782D02*
X001019Y017782D01*
X001060Y017880D02*
X000325Y017880D01*
X000333Y017979D02*
X001142Y017979D01*
X001240Y018077D02*
X000363Y018077D01*
X000333Y017983D02*
X000333Y017983D01*
X000395Y018176D02*
X001409Y018176D01*
X002040Y018176D02*
X003330Y018176D01*
X003315Y018211D02*
X003391Y018027D01*
X003532Y017886D01*
X003716Y017810D01*
X003915Y017810D01*
X004099Y017886D01*
X004239Y018027D01*
X004315Y018211D01*
X004315Y018410D01*
X004239Y018593D01*
X004099Y018734D01*
X003915Y018810D01*
X003716Y018810D01*
X003532Y018734D01*
X003391Y018593D01*
X003315Y018410D01*
X003315Y018211D01*
X003315Y018274D02*
X000427Y018274D01*
X000489Y018373D02*
X003315Y018373D01*
X003341Y018471D02*
X000561Y018471D01*
X000634Y018570D02*
X003382Y018570D01*
X003466Y018668D02*
X000769Y018668D01*
X000912Y018767D02*
X003610Y018767D01*
X004020Y018767D02*
X005610Y018767D01*
X005532Y018734D02*
X005716Y018810D01*
X005915Y018810D01*
X006099Y018734D01*
X006239Y018593D01*
X006315Y018410D01*
X006315Y018211D01*
X006239Y018027D01*
X006099Y017886D01*
X005915Y017810D01*
X005716Y017810D01*
X005532Y017886D01*
X005391Y018027D01*
X005315Y018211D01*
X005315Y018410D01*
X005391Y018593D01*
X005532Y018734D01*
X005466Y018668D02*
X004165Y018668D01*
X004249Y018570D02*
X005382Y018570D01*
X005341Y018471D02*
X004290Y018471D01*
X004315Y018373D02*
X005315Y018373D01*
X005315Y018274D02*
X004315Y018274D01*
X004301Y018176D02*
X005330Y018176D01*
X005371Y018077D02*
X004260Y018077D01*
X004191Y017979D02*
X005440Y017979D01*
X005547Y017880D02*
X004083Y017880D01*
X003547Y017880D02*
X002390Y017880D01*
X002430Y017782D02*
X006622Y017782D01*
X006549Y017812D02*
X006722Y017740D01*
X006909Y017740D01*
X007082Y017812D01*
X007214Y017944D01*
X007285Y018117D01*
X007285Y018304D01*
X007214Y018476D01*
X007082Y018609D01*
X006909Y018680D01*
X006722Y018680D01*
X006549Y018609D01*
X006417Y018476D01*
X006345Y018304D01*
X006345Y018117D01*
X006417Y017944D01*
X006549Y017812D01*
X006481Y017880D02*
X006083Y017880D01*
X006191Y017979D02*
X006403Y017979D01*
X006362Y018077D02*
X006260Y018077D01*
X006301Y018176D02*
X006345Y018176D01*
X006345Y018274D02*
X006315Y018274D01*
X006315Y018373D02*
X006374Y018373D01*
X006415Y018471D02*
X006290Y018471D01*
X006249Y018570D02*
X006510Y018570D01*
X006692Y018668D02*
X006165Y018668D01*
X006020Y018767D02*
X007610Y018767D01*
X007532Y018734D02*
X007716Y018810D01*
X007915Y018810D01*
X008099Y018734D01*
X008239Y018593D01*
X008315Y018410D01*
X008315Y018211D01*
X008239Y018027D01*
X008099Y017886D01*
X007915Y017810D01*
X007716Y017810D01*
X007532Y017886D01*
X007391Y018027D01*
X007315Y018211D01*
X007315Y018410D01*
X007391Y018593D01*
X007532Y018734D01*
X007466Y018668D02*
X006938Y018668D01*
X007121Y018570D02*
X007382Y018570D01*
X007341Y018471D02*
X007216Y018471D01*
X007257Y018373D02*
X007315Y018373D01*
X007315Y018274D02*
X007285Y018274D01*
X007285Y018176D02*
X007330Y018176D01*
X007371Y018077D02*
X007269Y018077D01*
X007228Y017979D02*
X007440Y017979D01*
X007547Y017880D02*
X007150Y017880D01*
X007009Y017782D02*
X008544Y017782D01*
X008532Y017786D02*
X008716Y017710D01*
X008915Y017710D01*
X009099Y017786D01*
X009239Y017927D01*
X009315Y018111D01*
X009315Y018310D01*
X009239Y018493D01*
X009099Y018634D01*
X008915Y018710D01*
X008716Y018710D01*
X008532Y018634D01*
X008391Y018493D01*
X008315Y018310D01*
X008315Y018111D01*
X008391Y017927D01*
X008532Y017786D01*
X008438Y017880D02*
X008083Y017880D01*
X008191Y017979D02*
X008370Y017979D01*
X008329Y018077D02*
X008260Y018077D01*
X008301Y018176D02*
X008315Y018176D01*
X008315Y018274D02*
X008315Y018274D01*
X008315Y018373D02*
X008341Y018373D01*
X008382Y018471D02*
X008290Y018471D01*
X008249Y018570D02*
X008468Y018570D01*
X008614Y018668D02*
X008165Y018668D01*
X008020Y018767D02*
X015819Y018767D01*
X015819Y018865D02*
X001220Y018865D01*
X002210Y018077D02*
X003371Y018077D01*
X003440Y017979D02*
X002308Y017979D01*
X002471Y017683D02*
X013463Y017683D01*
X013463Y017755D02*
X013463Y017585D01*
X013528Y017428D01*
X013648Y017307D01*
X013805Y017242D01*
X013975Y017242D01*
X014132Y017307D01*
X014253Y017428D01*
X014268Y017464D01*
X014290Y017411D01*
X014418Y017282D01*
X014587Y017212D01*
X014769Y017212D01*
X014937Y017282D01*
X015065Y017411D01*
X015135Y017579D01*
X015135Y017761D01*
X015065Y017929D01*
X014937Y018058D01*
X014769Y018127D01*
X014587Y018127D01*
X014418Y018058D01*
X014290Y017929D01*
X014268Y017875D01*
X014253Y017912D01*
X014132Y018032D01*
X013975Y018097D01*
X013805Y018097D01*
X013648Y018032D01*
X013528Y017912D01*
X013463Y017755D01*
X013474Y017782D02*
X009087Y017782D01*
X009192Y017880D02*
X013515Y017880D01*
X013594Y017979D02*
X009261Y017979D01*
X009301Y018077D02*
X013757Y018077D01*
X014024Y018077D02*
X014466Y018077D01*
X014339Y017979D02*
X014186Y017979D01*
X014266Y017880D02*
X014270Y017880D01*
X014313Y017388D02*
X014213Y017388D01*
X014088Y017289D02*
X014411Y017289D01*
X014944Y017289D02*
X015819Y017289D01*
X015819Y017191D02*
X013436Y017191D01*
X013493Y017092D02*
X015819Y017092D01*
X015819Y016994D02*
X013529Y016994D01*
X013529Y016895D02*
X015819Y016895D01*
X015819Y016797D02*
X013512Y016797D01*
X013471Y016698D02*
X015819Y016698D01*
X015819Y016600D02*
X013383Y016600D01*
X012694Y016797D02*
X002104Y016797D01*
X002236Y016895D02*
X012677Y016895D01*
X012677Y016994D02*
X002334Y016994D01*
X002401Y017092D02*
X012712Y017092D01*
X012769Y017191D02*
X002441Y017191D01*
X002482Y017289D02*
X012877Y017289D01*
X013329Y017289D02*
X013692Y017289D01*
X013568Y017388D02*
X002495Y017388D01*
X002495Y017486D02*
X013504Y017486D01*
X013463Y017585D02*
X002495Y017585D01*
X009017Y018668D02*
X015819Y018668D01*
X015819Y018570D02*
X009163Y018570D01*
X009249Y018471D02*
X015819Y018471D01*
X015819Y018373D02*
X009289Y018373D01*
X009315Y018274D02*
X015819Y018274D01*
X015819Y018176D02*
X009315Y018176D01*
X014890Y018077D02*
X015819Y018077D01*
X015819Y017979D02*
X015016Y017979D01*
X015086Y017880D02*
X015819Y017880D01*
X015819Y017782D02*
X015126Y017782D01*
X015135Y017683D02*
X015819Y017683D01*
X015819Y017585D02*
X015135Y017585D01*
X015097Y017486D02*
X015819Y017486D01*
X015819Y017388D02*
X015042Y017388D01*
X014621Y013372D02*
X014498Y013372D01*
X014385Y013325D01*
X014298Y013238D01*
X014251Y013125D01*
X014251Y013002D01*
X014298Y012888D01*
X014385Y012802D01*
X014498Y012755D01*
X014621Y012755D01*
X014734Y012802D01*
X014821Y012888D01*
X014868Y013002D01*
X014868Y013125D01*
X014821Y013238D01*
X014734Y013325D01*
X014621Y013372D01*
X014677Y013349D02*
X015819Y013349D01*
X015819Y013251D02*
X014809Y013251D01*
X014857Y013152D02*
X015819Y013152D01*
X015819Y013054D02*
X014868Y013054D01*
X014849Y012955D02*
X015819Y012955D01*
X015819Y012857D02*
X014789Y012857D01*
X014629Y012758D02*
X015819Y012758D01*
X015819Y012660D02*
X012772Y012660D01*
X012772Y012698D02*
X012721Y012822D01*
X012625Y012917D01*
X012501Y012969D01*
X012366Y012969D01*
X012242Y012917D01*
X012146Y012822D01*
X012095Y012698D01*
X012095Y012563D01*
X012146Y012438D01*
X012242Y012343D01*
X012366Y012292D01*
X012501Y012292D01*
X012625Y012343D01*
X012721Y012438D01*
X012772Y012563D01*
X012772Y012698D01*
X012747Y012758D02*
X014490Y012758D01*
X014330Y012857D02*
X012686Y012857D01*
X012535Y012955D02*
X014270Y012955D01*
X014251Y013054D02*
X007959Y013054D01*
X007957Y013058D02*
X007862Y013154D01*
X007737Y013205D01*
X007602Y013205D01*
X007478Y013154D01*
X007383Y013058D01*
X007331Y012934D01*
X007331Y012799D01*
X007383Y012675D01*
X007478Y012579D01*
X007602Y012528D01*
X007737Y012528D01*
X007862Y012579D01*
X007957Y012675D01*
X008008Y012799D01*
X008008Y012934D01*
X007957Y013058D01*
X008000Y012955D02*
X012332Y012955D01*
X012181Y012857D02*
X008008Y012857D01*
X007991Y012758D02*
X012120Y012758D01*
X012095Y012660D02*
X007942Y012660D01*
X007817Y012561D02*
X012096Y012561D01*
X012136Y012463D02*
X004237Y012463D01*
X004237Y012364D02*
X012221Y012364D01*
X012646Y012364D02*
X015819Y012364D01*
X015819Y012266D02*
X004203Y012266D01*
X004147Y012167D02*
X015819Y012167D01*
X015819Y012069D02*
X004043Y012069D01*
X004220Y012561D02*
X007522Y012561D01*
X007398Y012660D02*
X004179Y012660D01*
X004089Y012758D02*
X007348Y012758D01*
X007331Y012857D02*
X004753Y012857D01*
X004849Y012955D02*
X007340Y012955D01*
X007380Y013054D02*
X004889Y013054D01*
X004898Y013152D02*
X007476Y013152D01*
X007863Y013152D02*
X014262Y013152D01*
X014310Y013251D02*
X004881Y013251D01*
X004832Y013349D02*
X014442Y013349D01*
X015819Y012561D02*
X012771Y012561D01*
X012731Y012463D02*
X015819Y012463D01*
X015819Y011970D02*
X003386Y011970D01*
X003442Y011872D02*
X015819Y011872D01*
X015819Y011773D02*
X003481Y011773D01*
X003481Y011675D02*
X015819Y011675D01*
X015819Y011576D02*
X003474Y011576D01*
X003433Y011478D02*
X015819Y011478D01*
X015819Y011379D02*
X003365Y011379D01*
X003242Y011281D02*
X015819Y011281D01*
X015819Y010985D02*
X011054Y010985D01*
X011125Y010887D02*
X015819Y010887D01*
X015819Y010788D02*
X011158Y010788D01*
X011158Y010690D02*
X015819Y010690D01*
X015819Y010591D02*
X011124Y010591D01*
X011071Y010493D02*
X015819Y010493D01*
X015819Y010394D02*
X011118Y010394D01*
X011128Y010296D02*
X015819Y010296D01*
X015819Y010197D02*
X011108Y010197D01*
X011047Y010099D02*
X015819Y010099D01*
X015819Y010000D02*
X011251Y010000D01*
X011323Y009902D02*
X015819Y009902D01*
X015819Y009803D02*
X011355Y009803D01*
X011355Y009705D02*
X015819Y009705D01*
X015819Y009606D02*
X011321Y009606D01*
X011407Y009508D02*
X011924Y009508D01*
X011879Y009409D02*
X011506Y009409D01*
X011604Y009311D02*
X011879Y009311D01*
X011879Y009212D02*
X011703Y009212D01*
X011760Y009114D02*
X011879Y009114D01*
X011879Y009015D02*
X011768Y009015D01*
X011768Y008917D02*
X011879Y008917D01*
X011879Y008818D02*
X011768Y008818D01*
X011768Y008720D02*
X011879Y008720D01*
X011879Y008621D02*
X011768Y008621D01*
X011768Y008523D02*
X011879Y008523D01*
X011879Y008424D02*
X011768Y008424D01*
X011768Y008326D02*
X011879Y008326D01*
X011879Y008227D02*
X011768Y008227D01*
X011768Y008129D02*
X011879Y008129D01*
X011879Y008030D02*
X011768Y008030D01*
X011768Y007932D02*
X011879Y007932D01*
X011879Y007833D02*
X011768Y007833D01*
X011768Y007735D02*
X011879Y007735D01*
X011879Y007636D02*
X011768Y007636D01*
X011842Y007538D02*
X011879Y007538D01*
X011557Y007144D02*
X011532Y007144D01*
X011532Y007045D02*
X011656Y007045D01*
X011532Y006947D02*
X013548Y006947D01*
X014061Y007144D02*
X015819Y007144D01*
X015819Y007242D02*
X014071Y007242D01*
X016185Y009508D02*
X022701Y009508D01*
X022607Y009606D02*
X016095Y009606D01*
X016095Y009705D02*
X022566Y009705D01*
X022557Y009803D02*
X016095Y009803D01*
X016095Y009902D02*
X022572Y009902D01*
X022617Y010000D02*
X016095Y010000D01*
X016095Y010099D02*
X022636Y010099D01*
X022636Y010197D02*
X016095Y010197D01*
X016095Y010296D02*
X021204Y010296D01*
X021111Y010394D02*
X016095Y010394D01*
X016095Y010493D02*
X021070Y010493D01*
X021061Y010591D02*
X016095Y010591D01*
X021615Y010296D02*
X022636Y010296D01*
X022636Y010394D02*
X021709Y010394D01*
X021750Y010493D02*
X022636Y010493D01*
X022555Y010591D02*
X021759Y010591D01*
X027591Y007932D02*
X035552Y007932D01*
X035520Y007833D02*
X034354Y007833D01*
X034444Y007735D02*
X035520Y007735D01*
X034875Y007679D02*
X034875Y007679D01*
X034875Y007679D01*
X034783Y007641D02*
X034783Y007641D01*
X034778Y007636D02*
X034485Y007636D01*
X034495Y007538D02*
X034700Y007538D01*
X034676Y007439D02*
X034483Y007439D01*
X033899Y007833D02*
X033854Y007833D01*
X033399Y007833D02*
X033354Y007833D01*
X036418Y007833D02*
X039390Y007833D01*
X039391Y007735D02*
X036418Y007735D01*
X036418Y007636D02*
X039391Y007636D01*
X039391Y007538D02*
X036418Y007538D01*
X036418Y007439D02*
X039391Y007439D01*
X039390Y007932D02*
X036418Y007932D01*
X031919Y001332D02*
X027591Y001332D01*
X027591Y001234D02*
X031865Y001234D01*
X031849Y001135D02*
X027591Y001135D01*
X027591Y001037D02*
X031864Y001037D01*
X031917Y000938D02*
X027591Y000938D01*
X027591Y000840D02*
X032063Y000840D01*
X032253Y000840D02*
X039219Y000840D01*
X039291Y000938D02*
X032398Y000938D01*
X027591Y000741D02*
X039121Y000741D01*
X039022Y000643D02*
X027591Y000643D01*
X027591Y000544D02*
X038873Y000544D01*
X038703Y000446D02*
X027591Y000446D01*
X027591Y000347D02*
X038370Y000347D01*
D20*
X016370Y003457D02*
X016056Y003457D01*
X015662Y003851D01*
D21*
X022906Y009796D02*
X022906Y010622D01*
X022630Y010898D01*
X021410Y010898D01*
X021410Y010583D01*
X021410Y010898D02*
X015819Y010898D01*
M02*
