G75*
%MOIN*%
%OFA0B0*%
%FSLAX24Y24*%
%IPPOS*%
%LPD*%
%AMOC8*
5,1,8,0,0,1.08239X$1,22.5*
%
%ADD10C,0.0600*%
%ADD11C,0.0476*%
%ADD12C,0.0515*%
%ADD13C,0.0827*%
%ADD14C,0.0554*%
%ADD15C,0.0397*%
%ADD16C,0.0277*%
%ADD17C,0.0100*%
%ADD18C,0.0080*%
D10*
X010755Y004124D03*
X011755Y004124D03*
X012755Y004124D03*
X012755Y005124D03*
X011755Y005124D03*
X010755Y005124D03*
X005824Y010608D03*
X004824Y010708D03*
X003824Y010608D03*
X002824Y010708D03*
X001824Y010608D03*
X000824Y010708D03*
X018389Y019480D03*
X018389Y020620D03*
D11*
X019993Y017497D03*
X019993Y016497D03*
X023223Y019320D03*
X023223Y021320D03*
X031292Y012408D03*
X031292Y011408D03*
X028576Y005203D03*
X028576Y004203D03*
D12*
X011804Y018109D03*
X011017Y018109D03*
X010229Y018109D03*
X007572Y018089D03*
X006785Y018089D03*
X005997Y018089D03*
X006263Y021317D03*
X005475Y021317D03*
X007050Y021317D03*
X007838Y021317D03*
X008625Y021317D03*
X011174Y021219D03*
X011962Y021219D03*
D13*
X024462Y013621D03*
X026115Y013621D03*
X027769Y013621D03*
X027769Y011849D03*
X026115Y011849D03*
X024462Y011849D03*
X026676Y019467D03*
X028330Y019467D03*
X028330Y021632D03*
X026676Y021632D03*
D14*
X002678Y017304D03*
X001678Y017304D03*
X001678Y016304D03*
X002678Y016304D03*
X002678Y015304D03*
X001678Y015304D03*
X001678Y014304D03*
X002678Y014304D03*
X002678Y013304D03*
X001678Y013304D03*
D15*
X022092Y016357D03*
X022592Y016357D03*
X023092Y016357D03*
X023092Y016857D03*
X022592Y016857D03*
X022592Y017357D03*
X023092Y017357D03*
X022092Y017357D03*
X022092Y016857D03*
X025517Y016857D03*
X026017Y016857D03*
X026017Y017357D03*
X025517Y017357D03*
X026517Y017357D03*
X026517Y016857D03*
X026517Y016357D03*
X026017Y016357D03*
X025517Y016357D03*
X029139Y016357D03*
X029639Y016357D03*
X029639Y016857D03*
X029139Y016857D03*
X029139Y017357D03*
X029639Y017357D03*
X030139Y017357D03*
X030139Y016857D03*
X030139Y016357D03*
X030139Y009995D03*
X029639Y009995D03*
X029139Y009995D03*
X029139Y009495D03*
X029639Y009495D03*
X030139Y009495D03*
X030139Y008995D03*
X029639Y008995D03*
X029139Y008995D03*
X026517Y008995D03*
X026517Y009495D03*
X026517Y009995D03*
X026017Y009995D03*
X025517Y009995D03*
X025517Y009495D03*
X026017Y009495D03*
X026017Y008995D03*
X025517Y008995D03*
X023092Y008995D03*
X022592Y008995D03*
X022592Y009495D03*
X023092Y009495D03*
X023092Y009995D03*
X022592Y009995D03*
X022092Y009995D03*
X022092Y009495D03*
X022092Y008995D03*
D16*
X022848Y008128D03*
X024363Y006790D03*
X024363Y006042D03*
X025190Y005530D03*
X025466Y005530D03*
X025741Y005530D03*
X026017Y005530D03*
X026292Y005530D03*
X026292Y005254D03*
X026292Y004979D03*
X026017Y004979D03*
X026017Y005254D03*
X025741Y005254D03*
X025741Y004979D03*
X025466Y004979D03*
X025466Y005254D03*
X025190Y005254D03*
X025190Y004979D03*
X025190Y004703D03*
X025466Y004703D03*
X025741Y004703D03*
X026017Y004703D03*
X026292Y004703D03*
X027340Y004947D03*
X027907Y006199D03*
X028143Y006672D03*
X028143Y007223D03*
X026273Y008168D03*
X027808Y009664D03*
X024304Y009664D03*
X020731Y009497D03*
X020170Y009487D03*
X019521Y009349D03*
X018320Y009841D03*
X016174Y009664D03*
X015387Y009664D03*
X014403Y010195D03*
X013812Y010254D03*
X013517Y011160D03*
X013202Y011160D03*
X011509Y011731D03*
X011509Y012439D03*
X011954Y013542D03*
X011210Y013735D03*
X010214Y013593D03*
X009048Y014349D03*
X008615Y014349D03*
X008143Y014349D03*
X006458Y014306D03*
X006509Y012459D03*
X005544Y012459D03*
X004599Y012459D03*
X005328Y011278D03*
X006529Y011278D03*
X008635Y010018D03*
X010082Y008975D03*
X010377Y008975D03*
X010377Y008670D03*
X010082Y008670D03*
X010544Y008207D03*
X010249Y005983D03*
X009846Y005983D03*
X009757Y005215D03*
X008773Y004565D03*
X008182Y003995D03*
X009540Y003857D03*
X011302Y006032D03*
X011617Y006032D03*
X013418Y005707D03*
X013536Y004644D03*
X013615Y004073D03*
X014245Y003916D03*
X014718Y003916D03*
X015190Y003916D03*
X015662Y003916D03*
X016135Y003916D03*
X016607Y003916D03*
X017277Y004743D03*
X017749Y004743D03*
X017277Y005058D03*
X016174Y005333D03*
X015387Y005333D03*
X015387Y006121D03*
X016174Y006121D03*
X016174Y006829D03*
X015859Y006829D03*
X015544Y006829D03*
X015544Y007144D03*
X015544Y007459D03*
X015544Y007774D03*
X015859Y007774D03*
X015859Y007459D03*
X015859Y007144D03*
X016174Y007144D03*
X016174Y007459D03*
X016174Y007774D03*
X016174Y008089D03*
X015859Y008089D03*
X015544Y008089D03*
X015387Y008876D03*
X016174Y008876D03*
X019718Y006908D03*
X020190Y006908D03*
X020269Y007577D03*
X020781Y005491D03*
X020781Y005097D03*
X020781Y004723D03*
X020781Y004329D03*
X021765Y004664D03*
X022040Y004664D03*
X022040Y004939D03*
X021765Y004939D03*
X021765Y005215D03*
X022040Y005215D03*
X022040Y005491D03*
X021765Y005491D03*
X022316Y005491D03*
X022592Y005491D03*
X022867Y005491D03*
X022867Y005215D03*
X022592Y005215D03*
X022592Y004939D03*
X022592Y004664D03*
X022867Y004664D03*
X022867Y004939D03*
X022316Y004939D03*
X022316Y004664D03*
X022316Y005215D03*
X018379Y004310D03*
X018379Y003916D03*
X007277Y006042D03*
X006804Y006239D03*
X006450Y006081D03*
X006076Y005861D03*
X005694Y005617D03*
X005300Y005329D03*
X004733Y005345D03*
X004733Y004920D03*
X004257Y004223D03*
X003536Y004231D03*
X003312Y005601D03*
X003320Y006317D03*
X004777Y006278D03*
X004875Y005845D03*
X004725Y007743D03*
X004729Y008124D03*
X003399Y008030D03*
X003241Y009093D03*
X004245Y009723D03*
X006922Y009369D03*
X006981Y007567D03*
X006588Y007567D03*
X009029Y011613D03*
X009029Y012065D03*
X009666Y011735D03*
X009670Y012447D03*
X014875Y014290D03*
X014871Y016176D03*
X016568Y016081D03*
X018340Y016770D03*
X016224Y017479D03*
X015161Y017439D03*
X015161Y017833D03*
X014767Y017833D03*
X014767Y017439D03*
X014373Y017439D03*
X014373Y017833D03*
X012198Y017400D03*
X015239Y020353D03*
X019117Y020412D03*
X019117Y020707D03*
X019107Y021613D03*
X020151Y021770D03*
X024324Y017715D03*
X024304Y016869D03*
X024639Y015510D03*
X025131Y014743D03*
X025407Y014743D03*
X025682Y014743D03*
X025958Y014743D03*
X026233Y014743D03*
X026233Y014467D03*
X025958Y014467D03*
X025682Y014467D03*
X025407Y014467D03*
X025131Y014467D03*
X026273Y015530D03*
X028162Y015530D03*
X028753Y014841D03*
X028753Y014565D03*
X029029Y014565D03*
X029304Y014565D03*
X029580Y014565D03*
X029855Y014565D03*
X029855Y014841D03*
X029580Y014841D03*
X029304Y014841D03*
X029029Y014841D03*
X027828Y016869D03*
X027828Y017735D03*
X022848Y015510D03*
X022907Y014703D03*
X022907Y014428D03*
X022631Y014428D03*
X022631Y014703D03*
X022355Y014703D03*
X022080Y014703D03*
X022080Y014428D03*
X022355Y014428D03*
X021804Y014428D03*
X021804Y014703D03*
X031804Y007617D03*
X031814Y007036D03*
X003694Y019979D03*
X003930Y022223D03*
X003340Y022223D03*
X000584Y009821D03*
X000505Y006317D03*
D17*
X000935Y004065D02*
X001279Y003867D01*
X001662Y003764D01*
X001860Y003751D01*
X002763Y003751D01*
X002651Y003864D01*
X002539Y003975D01*
X002539Y008719D01*
X002651Y008830D01*
X002651Y008830D01*
X002952Y009132D01*
X002952Y009150D01*
X002996Y009257D01*
X003078Y009338D01*
X003184Y009382D01*
X003299Y009382D01*
X003405Y009338D01*
X003486Y009257D01*
X003530Y009150D01*
X003530Y009036D01*
X003486Y008929D01*
X003405Y008848D01*
X003299Y008804D01*
X003184Y008804D01*
X003168Y008811D01*
X002919Y008562D01*
X002919Y004132D01*
X003123Y003929D01*
X007897Y003929D01*
X007893Y003937D01*
X007893Y004052D01*
X007937Y004158D01*
X008019Y004239D01*
X008125Y004283D01*
X008240Y004283D01*
X008346Y004239D01*
X008427Y004158D01*
X008471Y004052D01*
X008471Y003937D01*
X008467Y003929D01*
X009258Y003929D01*
X009296Y004020D01*
X009377Y004102D01*
X009483Y004146D01*
X009598Y004146D01*
X009704Y004102D01*
X009785Y004020D01*
X009829Y003914D01*
X009829Y003799D01*
X009809Y003751D01*
X010422Y003751D01*
X010331Y003841D01*
X010255Y004025D01*
X010255Y004224D01*
X010322Y004384D01*
X009375Y004384D01*
X009286Y004421D01*
X008853Y004854D01*
X008786Y004922D01*
X008749Y005010D01*
X008749Y006506D01*
X008268Y006024D01*
X008200Y005956D01*
X008112Y005920D01*
X007593Y005920D01*
X007564Y005850D01*
X007469Y005755D01*
X007344Y005703D01*
X007209Y005703D01*
X007085Y005755D01*
X006989Y005850D01*
X006955Y005934D01*
X006872Y005900D01*
X006741Y005900D01*
X006737Y005889D01*
X006642Y005794D01*
X006517Y005742D01*
X006394Y005742D01*
X006363Y005669D01*
X006268Y005574D01*
X006143Y005522D01*
X006021Y005522D01*
X005981Y005425D01*
X005886Y005329D01*
X005761Y005278D01*
X005639Y005278D01*
X005639Y005262D01*
X005587Y005137D01*
X005492Y005042D01*
X005368Y004990D01*
X005233Y004990D01*
X005108Y005042D01*
X005013Y005137D01*
X005011Y005143D01*
X005000Y005132D01*
X005021Y005112D01*
X005072Y004987D01*
X005072Y004852D01*
X005021Y004728D01*
X004925Y004633D01*
X004801Y004581D01*
X004666Y004581D01*
X004541Y004633D01*
X004446Y004728D01*
X004395Y004852D01*
X004395Y004987D01*
X004446Y005112D01*
X004467Y005132D01*
X004446Y005153D01*
X004395Y005278D01*
X004395Y005412D01*
X004446Y005537D01*
X004541Y005632D01*
X004589Y005652D01*
X004588Y005653D01*
X004536Y005778D01*
X004536Y005912D01*
X004574Y006002D01*
X004489Y006086D01*
X004438Y006211D01*
X004438Y006345D01*
X004489Y006470D01*
X004537Y006517D01*
X004537Y006660D01*
X004573Y006749D01*
X005088Y007263D01*
X005088Y010276D01*
X004923Y010208D01*
X004724Y010208D01*
X004541Y010284D01*
X004400Y010425D01*
X004324Y010608D01*
X004324Y010807D01*
X004400Y010991D01*
X004541Y011132D01*
X004724Y011208D01*
X004923Y011208D01*
X005004Y011175D01*
X004989Y011211D01*
X004989Y011345D01*
X005041Y011470D01*
X005136Y011565D01*
X005260Y011617D01*
X005395Y011617D01*
X005520Y011565D01*
X005615Y011470D01*
X005667Y011345D01*
X005667Y011211D01*
X005615Y011086D01*
X005575Y011046D01*
X005724Y011108D01*
X005923Y011108D01*
X006107Y011032D01*
X006248Y010891D01*
X006308Y010745D01*
X006308Y011019D01*
X006241Y011086D01*
X006190Y011211D01*
X006190Y011345D01*
X006241Y011470D01*
X006337Y011565D01*
X006461Y011617D01*
X006596Y011617D01*
X006721Y011565D01*
X006816Y011470D01*
X006867Y011345D01*
X006867Y011211D01*
X006816Y011086D01*
X006788Y011059D01*
X006788Y009680D01*
X006855Y009707D01*
X006990Y009707D01*
X007029Y009691D01*
X007029Y014974D01*
X004944Y017059D01*
X004876Y017126D01*
X004840Y017215D01*
X004840Y020082D01*
X004876Y020170D01*
X005237Y020531D01*
X005237Y020921D01*
X005216Y020930D01*
X005088Y021058D01*
X005018Y021226D01*
X005018Y021408D01*
X005088Y021577D01*
X005216Y021705D01*
X005384Y021775D01*
X005566Y021775D01*
X005735Y021705D01*
X005863Y021577D01*
X005869Y021562D01*
X005875Y021577D01*
X006004Y021705D01*
X006172Y021775D01*
X006354Y021775D01*
X006522Y021705D01*
X006651Y021577D01*
X006657Y021562D01*
X006662Y021577D01*
X006791Y021705D01*
X006959Y021775D01*
X007141Y021775D01*
X007309Y021705D01*
X007438Y021577D01*
X007471Y021497D01*
X007492Y021548D01*
X007607Y021663D01*
X007757Y021725D01*
X007919Y021725D01*
X008068Y021663D01*
X008183Y021548D01*
X008245Y021398D01*
X008245Y021236D01*
X008183Y021087D01*
X008068Y020972D01*
X007919Y020910D01*
X007757Y020910D01*
X007607Y020972D01*
X007492Y021087D01*
X007471Y021138D01*
X007438Y021058D01*
X007309Y020930D01*
X007206Y020887D01*
X007206Y020592D01*
X007169Y020504D01*
X007102Y020437D01*
X005749Y019084D01*
X005749Y018481D01*
X005906Y018547D01*
X006088Y018547D01*
X006256Y018477D01*
X006385Y018348D01*
X006391Y018334D01*
X006397Y018348D01*
X006525Y018477D01*
X006694Y018547D01*
X006876Y018547D01*
X007044Y018477D01*
X007172Y018348D01*
X007178Y018334D01*
X007184Y018348D01*
X007313Y018477D01*
X007481Y018547D01*
X007663Y018547D01*
X007831Y018477D01*
X007960Y018348D01*
X008029Y018180D01*
X008029Y017998D01*
X007960Y017830D01*
X007831Y017701D01*
X007663Y017632D01*
X007481Y017632D01*
X007313Y017701D01*
X007184Y017830D01*
X007178Y017844D01*
X007172Y017830D01*
X007044Y017701D01*
X006876Y017632D01*
X006694Y017632D01*
X006525Y017701D01*
X006397Y017830D01*
X006391Y017844D01*
X006385Y017830D01*
X006256Y017701D01*
X006088Y017632D01*
X005906Y017632D01*
X005749Y017697D01*
X005749Y017539D01*
X007953Y015335D01*
X007989Y015247D01*
X007989Y014652D01*
X008075Y014688D01*
X008210Y014688D01*
X008335Y014636D01*
X008379Y014592D01*
X008423Y014636D01*
X008548Y014688D01*
X008683Y014688D01*
X008807Y014636D01*
X008832Y014611D01*
X008856Y014636D01*
X008981Y014688D01*
X009116Y014688D01*
X009240Y014636D01*
X009335Y014541D01*
X009387Y014416D01*
X009387Y014282D01*
X009335Y014157D01*
X009240Y014062D01*
X009203Y014046D01*
X008934Y013777D01*
X008934Y012393D01*
X008961Y012404D01*
X009096Y012404D01*
X009221Y012353D01*
X009316Y012257D01*
X009367Y012133D01*
X009367Y012125D01*
X009547Y011945D01*
X009584Y011857D01*
X009584Y009459D01*
X009547Y009370D01*
X009480Y009303D01*
X009229Y009053D01*
X009229Y005157D01*
X009522Y004864D01*
X010322Y004864D01*
X010255Y005025D01*
X010255Y005224D01*
X010331Y005408D01*
X010472Y005548D01*
X010656Y005624D01*
X010854Y005624D01*
X011038Y005548D01*
X011179Y005408D01*
X011255Y005224D01*
X011255Y005025D01*
X011188Y004864D01*
X011379Y004864D01*
X011374Y004870D01*
X011305Y005035D01*
X011305Y005214D01*
X011374Y005379D01*
X011500Y005506D01*
X011665Y005574D01*
X011845Y005574D01*
X012010Y005506D01*
X012136Y005379D01*
X012205Y005214D01*
X012205Y005035D01*
X012136Y004870D01*
X012131Y004864D01*
X013278Y004864D01*
X013345Y004931D01*
X013469Y004983D01*
X013576Y004983D01*
X013576Y005406D01*
X013486Y005368D01*
X013351Y005368D01*
X013227Y005420D01*
X013131Y005515D01*
X013080Y005640D01*
X013080Y005775D01*
X013131Y005899D01*
X013227Y005994D01*
X013351Y006046D01*
X013486Y006046D01*
X013576Y006009D01*
X013576Y010012D01*
X013525Y010063D01*
X013473Y010187D01*
X013473Y010322D01*
X013525Y010446D01*
X013576Y010497D01*
X013576Y010687D01*
X016725Y010687D01*
X016725Y015780D01*
X016635Y015742D01*
X016501Y015742D01*
X016376Y015794D01*
X016281Y015889D01*
X016229Y016014D01*
X016229Y016149D01*
X016281Y016273D01*
X016376Y016368D01*
X016501Y016420D01*
X016635Y016420D01*
X016725Y016383D01*
X016725Y022348D01*
X001420Y022348D01*
X001251Y022335D01*
X000930Y022231D01*
X000656Y022032D01*
X000458Y021759D01*
X000353Y021437D01*
X000353Y021437D01*
X000340Y021269D01*
X000340Y010846D01*
X000400Y010991D01*
X000541Y011132D01*
X000724Y011208D01*
X000923Y011208D01*
X001107Y011132D01*
X001248Y010991D01*
X001324Y010807D01*
X001324Y010608D01*
X001248Y010425D01*
X001107Y010284D01*
X000923Y010208D01*
X000724Y010208D01*
X000541Y010284D01*
X000400Y010425D01*
X000340Y010570D01*
X000340Y009986D01*
X000420Y010066D01*
X000526Y010110D01*
X000641Y010110D01*
X000747Y010066D01*
X000829Y009985D01*
X000872Y009879D01*
X000872Y009764D01*
X000829Y009658D01*
X000747Y009577D01*
X000641Y009533D01*
X000526Y009533D01*
X000420Y009577D01*
X000340Y009657D01*
X000340Y006561D01*
X000341Y006562D01*
X000448Y006606D01*
X000562Y006606D01*
X000669Y006562D01*
X000750Y006481D01*
X000794Y006375D01*
X000794Y006260D01*
X000750Y006154D01*
X000669Y006073D01*
X000562Y006029D01*
X000448Y006029D01*
X000341Y006073D01*
X000340Y006074D01*
X000340Y005271D01*
X000353Y005073D01*
X000456Y004689D01*
X000654Y004346D01*
X000935Y004065D01*
X000907Y004093D02*
X002539Y004093D01*
X002539Y003995D02*
X001056Y003995D01*
X001227Y003896D02*
X002618Y003896D01*
X002716Y003798D02*
X001535Y003798D01*
X000808Y004192D02*
X002539Y004192D01*
X002539Y004290D02*
X000710Y004290D01*
X000629Y004389D02*
X002539Y004389D01*
X002539Y004487D02*
X002063Y004487D01*
X002190Y004540D02*
X002401Y004751D01*
X002515Y005026D01*
X002515Y005325D01*
X002401Y005601D01*
X002190Y005811D01*
X001914Y005926D01*
X001616Y005926D01*
X001340Y005811D01*
X001129Y005601D01*
X001015Y005325D01*
X001015Y005026D01*
X001129Y004751D01*
X001340Y004540D01*
X001616Y004426D01*
X001914Y004426D01*
X002190Y004540D01*
X002236Y004586D02*
X002539Y004586D01*
X002539Y004684D02*
X002334Y004684D01*
X002414Y004783D02*
X002539Y004783D01*
X002539Y004881D02*
X002455Y004881D01*
X002496Y004980D02*
X002539Y004980D01*
X002539Y005078D02*
X002515Y005078D01*
X002515Y005177D02*
X002539Y005177D01*
X002539Y005275D02*
X002515Y005275D01*
X002495Y005374D02*
X002539Y005374D01*
X002539Y005472D02*
X002454Y005472D01*
X002413Y005571D02*
X002539Y005571D01*
X002539Y005669D02*
X002332Y005669D01*
X002233Y005768D02*
X002539Y005768D01*
X002539Y005866D02*
X002057Y005866D01*
X002539Y005965D02*
X000340Y005965D01*
X000340Y006063D02*
X000364Y006063D01*
X000340Y005866D02*
X001473Y005866D01*
X001296Y005768D02*
X000340Y005768D01*
X000340Y005669D02*
X001198Y005669D01*
X001117Y005571D02*
X000340Y005571D01*
X000340Y005472D02*
X001076Y005472D01*
X001035Y005374D02*
X000340Y005374D01*
X000340Y005275D02*
X001015Y005275D01*
X001015Y005177D02*
X000346Y005177D01*
X000353Y005078D02*
X001015Y005078D01*
X001034Y004980D02*
X000378Y004980D01*
X000404Y004881D02*
X001075Y004881D01*
X001116Y004783D02*
X000431Y004783D01*
X000459Y004684D02*
X001195Y004684D01*
X001294Y004586D02*
X000516Y004586D01*
X000572Y004487D02*
X001467Y004487D01*
X002919Y004487D02*
X003401Y004487D01*
X003373Y004476D02*
X003292Y004394D01*
X003248Y004288D01*
X003248Y004173D01*
X003292Y004067D01*
X003373Y003986D01*
X003479Y003942D01*
X003594Y003942D01*
X003700Y003986D01*
X003781Y004067D01*
X003825Y004173D01*
X003825Y004288D01*
X003781Y004394D01*
X003700Y004476D01*
X003594Y004520D01*
X003479Y004520D01*
X003373Y004476D01*
X003289Y004389D02*
X002919Y004389D01*
X002919Y004290D02*
X003249Y004290D01*
X003248Y004192D02*
X002919Y004192D01*
X002958Y004093D02*
X003281Y004093D01*
X003364Y003995D02*
X003057Y003995D01*
X003709Y003995D02*
X007893Y003995D01*
X007911Y004093D02*
X003792Y004093D01*
X003825Y004192D02*
X007971Y004192D01*
X008393Y004192D02*
X010255Y004192D01*
X010255Y004093D02*
X009712Y004093D01*
X009796Y003995D02*
X010267Y003995D01*
X010308Y003896D02*
X009829Y003896D01*
X009829Y003798D02*
X010375Y003798D01*
X010283Y004290D02*
X003824Y004290D01*
X003784Y004389D02*
X009364Y004389D01*
X009220Y004487D02*
X003672Y004487D01*
X002919Y004684D02*
X004490Y004684D01*
X004423Y004783D02*
X002919Y004783D01*
X002919Y004881D02*
X004395Y004881D01*
X004395Y004980D02*
X002919Y004980D01*
X002919Y005078D02*
X004432Y005078D01*
X004436Y005177D02*
X002919Y005177D01*
X002919Y005275D02*
X004396Y005275D01*
X004395Y005374D02*
X002919Y005374D01*
X002919Y005472D02*
X004419Y005472D01*
X004480Y005571D02*
X002919Y005571D01*
X002919Y005669D02*
X004581Y005669D01*
X004540Y005768D02*
X002919Y005768D01*
X002919Y005866D02*
X004536Y005866D01*
X004558Y005965D02*
X002919Y005965D01*
X002919Y006063D02*
X003179Y006063D01*
X003156Y006073D02*
X003263Y006029D01*
X003377Y006029D01*
X003484Y006073D01*
X003565Y006154D01*
X003609Y006260D01*
X003609Y006375D01*
X003565Y006481D01*
X003484Y006562D01*
X003377Y006606D01*
X003263Y006606D01*
X003156Y006562D01*
X003075Y006481D01*
X003031Y006375D01*
X003031Y006260D01*
X003075Y006154D01*
X003156Y006073D01*
X003072Y006162D02*
X002919Y006162D01*
X002919Y006260D02*
X003031Y006260D01*
X003031Y006359D02*
X002919Y006359D01*
X002919Y006457D02*
X003065Y006457D01*
X003150Y006556D02*
X002919Y006556D01*
X002919Y006654D02*
X004537Y006654D01*
X004537Y006556D02*
X003490Y006556D01*
X003575Y006457D02*
X004484Y006457D01*
X004443Y006359D02*
X003609Y006359D01*
X003609Y006260D02*
X004438Y006260D01*
X004458Y006162D02*
X003568Y006162D01*
X003461Y006063D02*
X004512Y006063D01*
X004577Y006753D02*
X002919Y006753D01*
X002919Y006851D02*
X004676Y006851D01*
X004774Y006950D02*
X002919Y006950D01*
X002919Y007048D02*
X004873Y007048D01*
X004971Y007147D02*
X002919Y007147D01*
X002919Y007245D02*
X005070Y007245D01*
X005088Y007344D02*
X002919Y007344D01*
X002919Y007442D02*
X005088Y007442D01*
X005088Y007541D02*
X004932Y007541D01*
X004970Y007579D02*
X004889Y007498D01*
X004783Y007454D01*
X004668Y007454D01*
X004562Y007498D01*
X004481Y007579D01*
X004437Y007685D01*
X004437Y007800D01*
X004477Y007898D01*
X004442Y007933D01*
X004391Y008057D01*
X004391Y008192D01*
X004442Y008316D01*
X004538Y008412D01*
X004662Y008463D01*
X004797Y008463D01*
X004921Y008412D01*
X005017Y008316D01*
X005068Y008192D01*
X005068Y008057D01*
X005017Y007933D01*
X004976Y007892D01*
X005014Y007800D01*
X005014Y007685D01*
X004970Y007579D01*
X004995Y007639D02*
X005088Y007639D01*
X005088Y007738D02*
X005014Y007738D01*
X004999Y007836D02*
X005088Y007836D01*
X005088Y007935D02*
X005018Y007935D01*
X005058Y008033D02*
X005088Y008033D01*
X005088Y008132D02*
X005068Y008132D01*
X005052Y008230D02*
X005088Y008230D01*
X005088Y008329D02*
X005004Y008329D01*
X005088Y008427D02*
X004883Y008427D01*
X005088Y008526D02*
X002919Y008526D01*
X002919Y008427D02*
X004575Y008427D01*
X004455Y008329D02*
X002919Y008329D01*
X002919Y008230D02*
X004407Y008230D01*
X004391Y008132D02*
X002919Y008132D01*
X002919Y008033D02*
X004400Y008033D01*
X004441Y007935D02*
X002919Y007935D01*
X002919Y007836D02*
X004452Y007836D01*
X004437Y007738D02*
X002919Y007738D01*
X002919Y007639D02*
X004456Y007639D01*
X004519Y007541D02*
X002919Y007541D01*
X002539Y007541D02*
X000340Y007541D01*
X000340Y007639D02*
X002539Y007639D01*
X002539Y007738D02*
X000340Y007738D01*
X000340Y007836D02*
X002539Y007836D01*
X002539Y007935D02*
X000340Y007935D01*
X000340Y008033D02*
X002539Y008033D01*
X002539Y008132D02*
X000340Y008132D01*
X000340Y008230D02*
X002539Y008230D01*
X002539Y008329D02*
X000340Y008329D01*
X000340Y008427D02*
X002539Y008427D01*
X002539Y008526D02*
X000340Y008526D01*
X000340Y008624D02*
X002539Y008624D01*
X002543Y008723D02*
X000340Y008723D01*
X000340Y008821D02*
X002642Y008821D01*
X002740Y008920D02*
X000340Y008920D01*
X000340Y009018D02*
X002839Y009018D01*
X002937Y009117D02*
X000340Y009117D01*
X000340Y009215D02*
X002979Y009215D01*
X003054Y009314D02*
X000340Y009314D01*
X000340Y009412D02*
X005088Y009412D01*
X005088Y009314D02*
X003429Y009314D01*
X003503Y009215D02*
X005088Y009215D01*
X005088Y009117D02*
X003530Y009117D01*
X003523Y009018D02*
X005088Y009018D01*
X005088Y008920D02*
X003476Y008920D01*
X003340Y008821D02*
X005088Y008821D01*
X005088Y008723D02*
X003081Y008723D01*
X002982Y008624D02*
X005088Y008624D01*
X005088Y009511D02*
X000340Y009511D01*
X000340Y009609D02*
X000387Y009609D01*
X000780Y009609D02*
X005088Y009609D01*
X005088Y009708D02*
X000849Y009708D01*
X000872Y009806D02*
X005088Y009806D01*
X005088Y009905D02*
X000862Y009905D01*
X000810Y010003D02*
X005088Y010003D01*
X005088Y010102D02*
X000661Y010102D01*
X000507Y010102D02*
X000340Y010102D01*
X000340Y010200D02*
X003632Y010200D01*
X003569Y010226D02*
X003734Y010158D01*
X003913Y010158D01*
X004079Y010226D01*
X004205Y010353D01*
X004274Y010518D01*
X004274Y010697D01*
X004205Y010863D01*
X004079Y010989D01*
X003913Y011058D01*
X003734Y011058D01*
X003569Y010989D01*
X003442Y010863D01*
X003374Y010697D01*
X003374Y010518D01*
X003442Y010353D01*
X003569Y010226D01*
X003497Y010299D02*
X003012Y010299D01*
X003079Y010326D02*
X003205Y010453D01*
X003274Y010618D01*
X003274Y010797D01*
X003205Y010963D01*
X003079Y011089D01*
X002913Y011158D01*
X002734Y011158D01*
X002569Y011089D01*
X002442Y010963D01*
X002374Y010797D01*
X002374Y010618D01*
X002442Y010453D01*
X002569Y010326D01*
X002734Y010258D01*
X002913Y010258D01*
X003079Y010326D01*
X003150Y010397D02*
X003424Y010397D01*
X003383Y010496D02*
X003223Y010496D01*
X003264Y010594D02*
X003374Y010594D01*
X003374Y010693D02*
X003274Y010693D01*
X003274Y010791D02*
X003413Y010791D01*
X003469Y010890D02*
X003236Y010890D01*
X003180Y010988D02*
X003568Y010988D01*
X003081Y011087D02*
X004496Y011087D01*
X004399Y010988D02*
X004080Y010988D01*
X004178Y010890D02*
X004358Y010890D01*
X004324Y010791D02*
X004235Y010791D01*
X004274Y010693D02*
X004324Y010693D01*
X004330Y010594D02*
X004274Y010594D01*
X004265Y010496D02*
X004371Y010496D01*
X004427Y010397D02*
X004224Y010397D01*
X004151Y010299D02*
X004526Y010299D01*
X004016Y010200D02*
X005088Y010200D01*
X006151Y010988D02*
X006308Y010988D01*
X006308Y010890D02*
X006248Y010890D01*
X006289Y010791D02*
X006308Y010791D01*
X006241Y011087D02*
X005974Y011087D01*
X006200Y011185D02*
X005656Y011185D01*
X005667Y011284D02*
X006190Y011284D01*
X006205Y011382D02*
X005651Y011382D01*
X005604Y011481D02*
X006252Y011481D01*
X006371Y011579D02*
X005485Y011579D01*
X005170Y011579D02*
X000340Y011579D01*
X000340Y011481D02*
X005052Y011481D01*
X005004Y011382D02*
X000340Y011382D01*
X000340Y011284D02*
X004989Y011284D01*
X004978Y011185D02*
X005000Y011185D01*
X004670Y011185D02*
X000978Y011185D01*
X001152Y011087D02*
X002566Y011087D01*
X002468Y010988D02*
X001249Y010988D01*
X001290Y010890D02*
X002412Y010890D01*
X002374Y010791D02*
X001324Y010791D01*
X001324Y010693D02*
X002374Y010693D01*
X002384Y010594D02*
X001318Y010594D01*
X001277Y010496D02*
X002425Y010496D01*
X002498Y010397D02*
X001220Y010397D01*
X001122Y010299D02*
X002636Y010299D01*
X000670Y011185D02*
X000340Y011185D01*
X000340Y011087D02*
X000496Y011087D01*
X000399Y010988D02*
X000340Y010988D01*
X000340Y010890D02*
X000358Y010890D01*
X000340Y010496D02*
X000371Y010496D01*
X000340Y010397D02*
X000427Y010397D01*
X000340Y010299D02*
X000526Y010299D01*
X000357Y010003D02*
X000340Y010003D01*
X000340Y011678D02*
X007029Y011678D01*
X007029Y011776D02*
X000340Y011776D01*
X000340Y011875D02*
X007029Y011875D01*
X007029Y011973D02*
X000340Y011973D01*
X000340Y012072D02*
X007029Y012072D01*
X007029Y012170D02*
X006697Y012170D01*
X006701Y012172D02*
X006796Y012267D01*
X006848Y012392D01*
X006848Y012527D01*
X006796Y012651D01*
X006701Y012746D01*
X006576Y012798D01*
X006442Y012798D01*
X006317Y012746D01*
X006222Y012651D01*
X006170Y012527D01*
X006170Y012392D01*
X006222Y012267D01*
X006317Y012172D01*
X006442Y012120D01*
X006576Y012120D01*
X006701Y012172D01*
X006797Y012269D02*
X007029Y012269D01*
X007029Y012367D02*
X006838Y012367D01*
X006848Y012466D02*
X007029Y012466D01*
X007029Y012564D02*
X006832Y012564D01*
X006784Y012663D02*
X007029Y012663D01*
X007029Y012761D02*
X006664Y012761D01*
X006353Y012761D02*
X004755Y012761D01*
X004791Y012746D02*
X004667Y012798D01*
X004532Y012798D01*
X004408Y012746D01*
X004312Y012651D01*
X004261Y012527D01*
X004261Y012392D01*
X004312Y012267D01*
X004408Y012172D01*
X004532Y012120D01*
X004667Y012120D01*
X004791Y012172D01*
X004887Y012267D01*
X004938Y012392D01*
X004938Y012527D01*
X004887Y012651D01*
X004791Y012746D01*
X004875Y012663D02*
X005340Y012663D01*
X005300Y012623D02*
X005256Y012517D01*
X005256Y012402D01*
X005300Y012296D01*
X005381Y012214D01*
X005487Y012170D01*
X005602Y012170D01*
X005708Y012214D01*
X005789Y012296D01*
X005833Y012402D01*
X005833Y012517D01*
X005789Y012623D01*
X005708Y012704D01*
X005602Y012748D01*
X005487Y012748D01*
X005381Y012704D01*
X005300Y012623D01*
X005275Y012564D02*
X004923Y012564D01*
X004938Y012466D02*
X005256Y012466D01*
X005270Y012367D02*
X004928Y012367D01*
X004887Y012269D02*
X005326Y012269D01*
X005762Y012269D02*
X006221Y012269D01*
X006180Y012367D02*
X005819Y012367D01*
X005833Y012466D02*
X006170Y012466D01*
X006186Y012564D02*
X005813Y012564D01*
X005749Y012663D02*
X006234Y012663D01*
X006321Y012170D02*
X004788Y012170D01*
X004411Y012170D02*
X000340Y012170D01*
X000340Y012269D02*
X004312Y012269D01*
X004271Y012367D02*
X000340Y012367D01*
X000340Y012466D02*
X004261Y012466D01*
X004276Y012564D02*
X000340Y012564D01*
X000340Y012663D02*
X004324Y012663D01*
X004444Y012761D02*
X000340Y012761D01*
X000340Y012860D02*
X001503Y012860D01*
X001583Y012826D02*
X001773Y012826D01*
X001949Y012899D01*
X002083Y013033D01*
X002155Y013209D01*
X002155Y013399D01*
X002083Y013574D01*
X001949Y013708D01*
X001773Y013781D01*
X001583Y013781D01*
X001408Y013708D01*
X001274Y013574D01*
X001201Y013399D01*
X001201Y013209D01*
X001274Y013033D01*
X001408Y012899D01*
X001583Y012826D01*
X001349Y012958D02*
X000340Y012958D01*
X000340Y013057D02*
X001264Y013057D01*
X001223Y013155D02*
X000340Y013155D01*
X000340Y013254D02*
X001201Y013254D01*
X001201Y013352D02*
X000340Y013352D01*
X000340Y013451D02*
X001223Y013451D01*
X001264Y013549D02*
X000340Y013549D01*
X000340Y013648D02*
X001348Y013648D01*
X001500Y013746D02*
X000340Y013746D01*
X000340Y013845D02*
X001539Y013845D01*
X001583Y013826D02*
X001773Y013826D01*
X001949Y013899D01*
X002083Y014033D01*
X002155Y014209D01*
X002155Y014399D01*
X002083Y014574D01*
X001949Y014708D01*
X001773Y014781D01*
X001583Y014781D01*
X001408Y014708D01*
X001274Y014574D01*
X001201Y014399D01*
X001201Y014209D01*
X001274Y014033D01*
X001408Y013899D01*
X001583Y013826D01*
X001818Y013845D02*
X007029Y013845D01*
X007029Y013943D02*
X002922Y013943D01*
X002920Y013941D02*
X003040Y014062D01*
X003105Y014219D01*
X003105Y014389D01*
X003040Y014546D01*
X002920Y014666D01*
X002763Y014731D01*
X002593Y014731D01*
X002436Y014666D01*
X002316Y014546D01*
X002251Y014389D01*
X002251Y014219D01*
X002316Y014062D01*
X002436Y013941D01*
X002593Y013876D01*
X002763Y013876D01*
X002920Y013941D01*
X003021Y014042D02*
X007029Y014042D01*
X007029Y014140D02*
X003073Y014140D01*
X003105Y014239D02*
X007029Y014239D01*
X007029Y014337D02*
X003105Y014337D01*
X003086Y014436D02*
X007029Y014436D01*
X007029Y014534D02*
X003045Y014534D01*
X002953Y014633D02*
X007029Y014633D01*
X007029Y014731D02*
X001892Y014731D01*
X001781Y014830D02*
X002575Y014830D01*
X002583Y014826D02*
X002773Y014826D01*
X002949Y014899D01*
X003083Y015033D01*
X003155Y015209D01*
X003155Y015399D01*
X003083Y015574D01*
X002949Y015708D01*
X002773Y015781D01*
X002583Y015781D01*
X002408Y015708D01*
X002274Y015574D01*
X002201Y015399D01*
X002201Y015209D01*
X002274Y015033D01*
X002408Y014899D01*
X002583Y014826D01*
X002781Y014830D02*
X007029Y014830D01*
X007029Y014928D02*
X002978Y014928D01*
X003076Y015027D02*
X006976Y015027D01*
X006877Y015125D02*
X003121Y015125D01*
X003155Y015224D02*
X006779Y015224D01*
X006680Y015322D02*
X003155Y015322D01*
X003146Y015421D02*
X006582Y015421D01*
X006483Y015519D02*
X003105Y015519D01*
X003039Y015618D02*
X006385Y015618D01*
X006286Y015716D02*
X002929Y015716D01*
X002949Y015899D02*
X003083Y016033D01*
X003155Y016209D01*
X005794Y016209D01*
X005892Y016110D02*
X003115Y016110D01*
X003155Y016209D02*
X003155Y016399D01*
X003083Y016574D01*
X002949Y016708D01*
X002773Y016781D01*
X002583Y016781D01*
X002408Y016708D01*
X002274Y016574D01*
X002201Y016399D01*
X002201Y016209D01*
X002155Y016209D01*
X002083Y016033D01*
X001949Y015899D01*
X001773Y015826D01*
X001583Y015826D01*
X001408Y015899D01*
X001274Y016033D01*
X001201Y016209D01*
X000340Y016209D01*
X000340Y016307D02*
X001201Y016307D01*
X001201Y016399D02*
X001201Y016209D01*
X001242Y016110D02*
X000340Y016110D01*
X000340Y016012D02*
X001295Y016012D01*
X001394Y015913D02*
X000340Y015913D01*
X000340Y015815D02*
X006188Y015815D01*
X006089Y015913D02*
X002963Y015913D01*
X002949Y015899D02*
X002773Y015826D01*
X002583Y015826D01*
X002408Y015899D01*
X002274Y016033D01*
X002201Y016209D01*
X002155Y016209D02*
X002155Y016399D01*
X002083Y016574D01*
X001949Y016708D01*
X001773Y016781D01*
X001583Y016781D01*
X001408Y016708D01*
X001274Y016574D01*
X001201Y016399D01*
X001204Y016406D02*
X000340Y016406D01*
X000340Y016504D02*
X001245Y016504D01*
X001303Y016603D02*
X000340Y016603D01*
X000340Y016701D02*
X001401Y016701D01*
X001410Y016898D02*
X000340Y016898D01*
X000340Y016800D02*
X005203Y016800D01*
X005301Y016701D02*
X002955Y016701D01*
X003054Y016603D02*
X005400Y016603D01*
X005498Y016504D02*
X003112Y016504D01*
X003152Y016406D02*
X005597Y016406D01*
X005695Y016307D02*
X003155Y016307D01*
X003061Y016012D02*
X005991Y016012D01*
X006882Y016406D02*
X016467Y016406D01*
X016315Y016307D02*
X006980Y016307D01*
X007079Y016209D02*
X016254Y016209D01*
X016229Y016110D02*
X007177Y016110D01*
X007276Y016012D02*
X016230Y016012D01*
X016271Y015913D02*
X007374Y015913D01*
X007473Y015815D02*
X016355Y015815D01*
X016725Y015716D02*
X007571Y015716D01*
X007670Y015618D02*
X016725Y015618D01*
X016725Y015519D02*
X007768Y015519D01*
X007867Y015421D02*
X016725Y015421D01*
X016725Y015322D02*
X007958Y015322D01*
X007989Y015224D02*
X016725Y015224D01*
X016725Y015125D02*
X007989Y015125D01*
X007989Y015027D02*
X016725Y015027D01*
X016725Y014928D02*
X007989Y014928D01*
X007989Y014830D02*
X016725Y014830D01*
X016725Y014731D02*
X007989Y014731D01*
X008338Y014633D02*
X008420Y014633D01*
X008810Y014633D02*
X008853Y014633D01*
X009243Y014633D02*
X016725Y014633D01*
X016725Y014534D02*
X015110Y014534D01*
X015067Y014577D02*
X014942Y014629D01*
X014808Y014629D01*
X014683Y014577D01*
X014588Y014482D01*
X014536Y014357D01*
X014536Y014222D01*
X014588Y014098D01*
X014683Y014003D01*
X014808Y013951D01*
X014942Y013951D01*
X015067Y014003D01*
X015162Y014098D01*
X015214Y014222D01*
X015214Y014357D01*
X015162Y014482D01*
X015067Y014577D01*
X015181Y014436D02*
X016725Y014436D01*
X016725Y014337D02*
X015214Y014337D01*
X015214Y014239D02*
X016725Y014239D01*
X016725Y014140D02*
X015180Y014140D01*
X015106Y014042D02*
X016725Y014042D01*
X016725Y013943D02*
X009100Y013943D01*
X009002Y013845D02*
X009987Y013845D01*
X010022Y013880D02*
X009926Y013785D01*
X009875Y013660D01*
X009875Y013526D01*
X009926Y013401D01*
X010022Y013306D01*
X010146Y013254D01*
X010281Y013254D01*
X010406Y013306D01*
X010501Y013401D01*
X010552Y013526D01*
X010552Y013660D01*
X010501Y013785D01*
X010406Y013880D01*
X010281Y013932D01*
X010146Y013932D01*
X010022Y013880D01*
X009911Y013746D02*
X008934Y013746D01*
X008934Y013648D02*
X009875Y013648D01*
X009875Y013549D02*
X008934Y013549D01*
X008934Y013451D02*
X009906Y013451D01*
X009975Y013352D02*
X008934Y013352D01*
X008934Y013254D02*
X011764Y013254D01*
X011762Y013255D02*
X011886Y013203D01*
X012021Y013203D01*
X012146Y013255D01*
X012241Y013350D01*
X012293Y013474D01*
X012293Y013609D01*
X012241Y013734D01*
X012146Y013829D01*
X012021Y013881D01*
X011886Y013881D01*
X011762Y013829D01*
X011667Y013734D01*
X011615Y013609D01*
X011615Y013474D01*
X011667Y013350D01*
X011762Y013255D01*
X011666Y013352D02*
X010452Y013352D01*
X010521Y013451D02*
X011625Y013451D01*
X011615Y013549D02*
X010552Y013549D01*
X010552Y013648D02*
X011631Y013648D01*
X011679Y013746D02*
X010517Y013746D01*
X010441Y013845D02*
X011800Y013845D01*
X012107Y013845D02*
X016725Y013845D01*
X016725Y013746D02*
X012228Y013746D01*
X012277Y013648D02*
X016725Y013648D01*
X016725Y013549D02*
X012293Y013549D01*
X012283Y013451D02*
X016725Y013451D01*
X016725Y013352D02*
X012242Y013352D01*
X012144Y013254D02*
X016725Y013254D01*
X016725Y013155D02*
X008934Y013155D01*
X008934Y013057D02*
X016725Y013057D01*
X016725Y012958D02*
X008934Y012958D01*
X008934Y012860D02*
X016725Y012860D01*
X016725Y012761D02*
X011617Y012761D01*
X011576Y012778D02*
X011442Y012778D01*
X011317Y012727D01*
X011222Y012631D01*
X011170Y012507D01*
X011170Y012372D01*
X011222Y012248D01*
X011317Y012152D01*
X011442Y012101D01*
X011576Y012101D01*
X011701Y012152D01*
X011796Y012248D01*
X011848Y012372D01*
X011848Y012507D01*
X011796Y012631D01*
X011701Y012727D01*
X011576Y012778D01*
X011401Y012761D02*
X008934Y012761D01*
X008934Y012663D02*
X011253Y012663D01*
X011194Y012564D02*
X008934Y012564D01*
X008934Y012466D02*
X011170Y012466D01*
X011172Y012367D02*
X009185Y012367D01*
X009304Y012269D02*
X011213Y012269D01*
X011299Y012170D02*
X009352Y012170D01*
X009421Y012072D02*
X016725Y012072D01*
X016725Y012170D02*
X011719Y012170D01*
X011805Y012269D02*
X016725Y012269D01*
X016725Y012367D02*
X011846Y012367D01*
X011848Y012466D02*
X016725Y012466D01*
X016725Y012564D02*
X011824Y012564D01*
X011765Y012663D02*
X016725Y012663D01*
X016725Y011973D02*
X011745Y011973D01*
X011701Y012018D02*
X011576Y012070D01*
X011442Y012070D01*
X011317Y012018D01*
X011222Y011923D01*
X011170Y011798D01*
X011170Y011663D01*
X011222Y011539D01*
X011317Y011444D01*
X011442Y011392D01*
X011576Y011392D01*
X011701Y011444D01*
X011796Y011539D01*
X011848Y011663D01*
X011848Y011798D01*
X011796Y011923D01*
X011701Y012018D01*
X011816Y011875D02*
X016725Y011875D01*
X016725Y011776D02*
X011848Y011776D01*
X011848Y011678D02*
X016725Y011678D01*
X016725Y011579D02*
X011813Y011579D01*
X011738Y011481D02*
X016725Y011481D01*
X016725Y011382D02*
X013703Y011382D01*
X013680Y011405D02*
X013574Y011449D01*
X013459Y011449D01*
X013359Y011407D01*
X013259Y011449D01*
X013144Y011449D01*
X013038Y011405D01*
X012957Y011323D01*
X012913Y011217D01*
X012913Y011102D01*
X012957Y010996D01*
X013038Y010915D01*
X013144Y010871D01*
X013259Y010871D01*
X013359Y010913D01*
X013459Y010871D01*
X013574Y010871D01*
X013680Y010915D01*
X013762Y010996D01*
X013806Y011102D01*
X013806Y011217D01*
X013762Y011323D01*
X013680Y011405D01*
X013778Y011284D02*
X016725Y011284D01*
X016725Y011185D02*
X013806Y011185D01*
X013799Y011087D02*
X016725Y011087D01*
X016725Y010988D02*
X013754Y010988D01*
X013619Y010890D02*
X016725Y010890D01*
X016725Y010791D02*
X009584Y010791D01*
X009584Y010693D02*
X016725Y010693D01*
X016647Y010766D02*
X017572Y009841D01*
X018320Y009841D01*
X013576Y009806D02*
X009584Y009806D01*
X009584Y009708D02*
X013576Y009708D01*
X013576Y009609D02*
X009584Y009609D01*
X009584Y009511D02*
X013576Y009511D01*
X013576Y009412D02*
X009564Y009412D01*
X009490Y009314D02*
X013576Y009314D01*
X013576Y009215D02*
X010545Y009215D01*
X010541Y009220D02*
X010434Y009264D01*
X010320Y009264D01*
X010229Y009226D01*
X010139Y009264D01*
X010024Y009264D01*
X009918Y009220D01*
X009837Y009138D01*
X009793Y009032D01*
X009793Y008917D01*
X009832Y008822D01*
X009793Y008727D01*
X009793Y008612D01*
X009837Y008506D01*
X009918Y008425D01*
X010024Y008381D01*
X010139Y008381D01*
X010229Y008418D01*
X010263Y008405D01*
X010257Y008399D01*
X010206Y008275D01*
X010206Y008140D01*
X010257Y008015D01*
X010352Y007920D01*
X010477Y007868D01*
X010612Y007868D01*
X010736Y007920D01*
X010832Y008015D01*
X010883Y008140D01*
X010883Y008275D01*
X010832Y008399D01*
X010736Y008494D01*
X010634Y008537D01*
X010666Y008612D01*
X010666Y008727D01*
X010626Y008822D01*
X010666Y008917D01*
X010666Y009032D01*
X010622Y009138D01*
X010541Y009220D01*
X010631Y009117D02*
X013576Y009117D01*
X013576Y009018D02*
X010666Y009018D01*
X010666Y008920D02*
X013576Y008920D01*
X013576Y008821D02*
X010627Y008821D01*
X010666Y008723D02*
X013576Y008723D01*
X013576Y008624D02*
X010666Y008624D01*
X010660Y008526D02*
X013576Y008526D01*
X013576Y008427D02*
X010803Y008427D01*
X010861Y008329D02*
X013576Y008329D01*
X013576Y008230D02*
X010883Y008230D01*
X010880Y008132D02*
X013576Y008132D01*
X013576Y008033D02*
X010839Y008033D01*
X010751Y007935D02*
X013576Y007935D01*
X013576Y007836D02*
X009229Y007836D01*
X009229Y007738D02*
X013576Y007738D01*
X013576Y007639D02*
X009229Y007639D01*
X009229Y007541D02*
X013576Y007541D01*
X013576Y007442D02*
X009229Y007442D01*
X009229Y007344D02*
X013576Y007344D01*
X013576Y007245D02*
X009229Y007245D01*
X009229Y007147D02*
X013576Y007147D01*
X013576Y007048D02*
X009229Y007048D01*
X009229Y006950D02*
X013576Y006950D01*
X013576Y006851D02*
X009229Y006851D01*
X009229Y006753D02*
X013576Y006753D01*
X013576Y006654D02*
X009229Y006654D01*
X009229Y006556D02*
X013576Y006556D01*
X013576Y006457D02*
X009229Y006457D01*
X009229Y006359D02*
X013576Y006359D01*
X013576Y006260D02*
X011797Y006260D01*
X011781Y006277D02*
X011675Y006321D01*
X011560Y006321D01*
X011460Y006279D01*
X011360Y006321D01*
X011245Y006321D01*
X011139Y006277D01*
X011057Y006196D01*
X011014Y006089D01*
X011014Y005975D01*
X011057Y005868D01*
X011139Y005787D01*
X011245Y005743D01*
X011360Y005743D01*
X011460Y005785D01*
X011560Y005743D01*
X011675Y005743D01*
X011781Y005787D01*
X011862Y005868D01*
X011906Y005975D01*
X011906Y006089D01*
X011862Y006196D01*
X011781Y006277D01*
X011876Y006162D02*
X013576Y006162D01*
X013576Y006063D02*
X011906Y006063D01*
X011902Y005965D02*
X013197Y005965D01*
X013118Y005866D02*
X011860Y005866D01*
X011734Y005768D02*
X013080Y005768D01*
X013080Y005669D02*
X009229Y005669D01*
X009229Y005571D02*
X010526Y005571D01*
X010396Y005472D02*
X009229Y005472D01*
X009229Y005374D02*
X010317Y005374D01*
X010276Y005275D02*
X009229Y005275D01*
X009229Y005177D02*
X010255Y005177D01*
X010255Y005078D02*
X009308Y005078D01*
X009406Y004980D02*
X010274Y004980D01*
X010315Y004881D02*
X009505Y004881D01*
X009122Y004586D02*
X004812Y004586D01*
X004654Y004586D02*
X002919Y004586D01*
X002539Y006063D02*
X000646Y006063D01*
X000753Y006162D02*
X002539Y006162D01*
X002539Y006260D02*
X000794Y006260D01*
X000794Y006359D02*
X002539Y006359D01*
X002539Y006457D02*
X000760Y006457D01*
X000675Y006556D02*
X002539Y006556D01*
X002539Y006654D02*
X000340Y006654D01*
X000340Y006753D02*
X002539Y006753D01*
X002539Y006851D02*
X000340Y006851D01*
X000340Y006950D02*
X002539Y006950D01*
X002539Y007048D02*
X000340Y007048D01*
X000340Y007147D02*
X002539Y007147D01*
X002539Y007245D02*
X000340Y007245D01*
X000340Y007344D02*
X002539Y007344D01*
X002539Y007442D02*
X000340Y007442D01*
X005034Y005078D02*
X005072Y005078D01*
X005072Y004980D02*
X008762Y004980D01*
X008749Y005078D02*
X005528Y005078D01*
X005604Y005177D02*
X008749Y005177D01*
X008749Y005275D02*
X005639Y005275D01*
X005930Y005374D02*
X008749Y005374D01*
X008749Y005472D02*
X006001Y005472D01*
X006261Y005571D02*
X008749Y005571D01*
X008749Y005669D02*
X006363Y005669D01*
X006579Y005768D02*
X007072Y005768D01*
X006983Y005866D02*
X006714Y005866D01*
X007482Y005768D02*
X008749Y005768D01*
X008749Y005866D02*
X007571Y005866D01*
X008208Y005965D02*
X008749Y005965D01*
X008749Y006063D02*
X008307Y006063D01*
X008405Y006162D02*
X008749Y006162D01*
X008749Y006260D02*
X008504Y006260D01*
X008602Y006359D02*
X008749Y006359D01*
X008749Y006457D02*
X008701Y006457D01*
X009229Y006260D02*
X009761Y006260D01*
X009788Y006271D02*
X009682Y006228D01*
X009601Y006146D01*
X009557Y006040D01*
X009557Y005925D01*
X009601Y005819D01*
X009682Y005738D01*
X009788Y005694D01*
X009903Y005694D01*
X010009Y005738D01*
X010090Y005819D01*
X010134Y005925D01*
X010134Y006040D01*
X010090Y006146D01*
X010009Y006228D01*
X009903Y006271D01*
X009788Y006271D01*
X009930Y006260D02*
X011122Y006260D01*
X011044Y006162D02*
X010075Y006162D01*
X010125Y006063D02*
X011014Y006063D01*
X011018Y005965D02*
X010134Y005965D01*
X010110Y005866D02*
X011059Y005866D01*
X011185Y005768D02*
X010039Y005768D01*
X009652Y005768D02*
X009229Y005768D01*
X009229Y005866D02*
X009581Y005866D01*
X009557Y005965D02*
X009229Y005965D01*
X009229Y006063D02*
X009566Y006063D01*
X009616Y006162D02*
X009229Y006162D01*
X008826Y004881D02*
X005072Y004881D01*
X005043Y004783D02*
X008925Y004783D01*
X009023Y004684D02*
X004977Y004684D01*
X008454Y004093D02*
X009369Y004093D01*
X009285Y003995D02*
X008471Y003995D01*
X011195Y004881D02*
X011369Y004881D01*
X011328Y004980D02*
X011236Y004980D01*
X011255Y005078D02*
X011305Y005078D01*
X011305Y005177D02*
X011255Y005177D01*
X011234Y005275D02*
X011330Y005275D01*
X011371Y005374D02*
X011193Y005374D01*
X011114Y005472D02*
X011466Y005472D01*
X011657Y005571D02*
X010984Y005571D01*
X011419Y005768D02*
X011500Y005768D01*
X011853Y005571D02*
X013108Y005571D01*
X013174Y005472D02*
X012044Y005472D01*
X012139Y005374D02*
X013338Y005374D01*
X013499Y005374D02*
X013576Y005374D01*
X013576Y005275D02*
X012180Y005275D01*
X012205Y005177D02*
X013576Y005177D01*
X013576Y005078D02*
X012205Y005078D01*
X012182Y004980D02*
X013462Y004980D01*
X013295Y004881D02*
X012141Y004881D01*
X010338Y007935D02*
X009229Y007935D01*
X009229Y008033D02*
X010250Y008033D01*
X010209Y008132D02*
X009229Y008132D01*
X009229Y008230D02*
X010206Y008230D01*
X010228Y008329D02*
X009229Y008329D01*
X009229Y008427D02*
X009916Y008427D01*
X009829Y008526D02*
X009229Y008526D01*
X009229Y008624D02*
X009793Y008624D01*
X009793Y008723D02*
X009229Y008723D01*
X009229Y008821D02*
X009832Y008821D01*
X009793Y008920D02*
X009229Y008920D01*
X009229Y009018D02*
X009793Y009018D01*
X009828Y009117D02*
X009293Y009117D01*
X009392Y009215D02*
X009914Y009215D01*
X009584Y009905D02*
X013576Y009905D01*
X013576Y010003D02*
X009584Y010003D01*
X009584Y010102D02*
X013509Y010102D01*
X013473Y010200D02*
X009584Y010200D01*
X009584Y010299D02*
X013473Y010299D01*
X013505Y010397D02*
X009584Y010397D01*
X009584Y010496D02*
X013575Y010496D01*
X013576Y010594D02*
X009584Y010594D01*
X009584Y010890D02*
X013099Y010890D01*
X012965Y010988D02*
X009584Y010988D01*
X009584Y011087D02*
X012920Y011087D01*
X012913Y011185D02*
X009584Y011185D01*
X009584Y011284D02*
X012941Y011284D01*
X013016Y011382D02*
X009584Y011382D01*
X009584Y011481D02*
X011280Y011481D01*
X011205Y011579D02*
X009584Y011579D01*
X009584Y011678D02*
X011170Y011678D01*
X011170Y011776D02*
X009584Y011776D01*
X009576Y011875D02*
X011202Y011875D01*
X011272Y011973D02*
X009519Y011973D01*
X007029Y011579D02*
X006686Y011579D01*
X006805Y011481D02*
X007029Y011481D01*
X007029Y011382D02*
X006852Y011382D01*
X006867Y011284D02*
X007029Y011284D01*
X007029Y011185D02*
X006857Y011185D01*
X006816Y011087D02*
X007029Y011087D01*
X007029Y010988D02*
X006788Y010988D01*
X006788Y010890D02*
X007029Y010890D01*
X007029Y010791D02*
X006788Y010791D01*
X006788Y010693D02*
X007029Y010693D01*
X007029Y010594D02*
X006788Y010594D01*
X006788Y010496D02*
X007029Y010496D01*
X007029Y010397D02*
X006788Y010397D01*
X006788Y010299D02*
X007029Y010299D01*
X007029Y010200D02*
X006788Y010200D01*
X006788Y010102D02*
X007029Y010102D01*
X007029Y010003D02*
X006788Y010003D01*
X006788Y009905D02*
X007029Y009905D01*
X007029Y009806D02*
X006788Y009806D01*
X006788Y009708D02*
X007029Y009708D01*
X005674Y011087D02*
X005615Y011087D01*
X007029Y012860D02*
X002854Y012860D01*
X002773Y012826D02*
X002949Y012899D01*
X003083Y013033D01*
X003155Y013209D01*
X003155Y013399D01*
X003083Y013574D01*
X002949Y013708D01*
X002773Y013781D01*
X002583Y013781D01*
X002408Y013708D01*
X002274Y013574D01*
X002201Y013399D01*
X002201Y013209D01*
X002274Y013033D01*
X002408Y012899D01*
X002583Y012826D01*
X002773Y012826D01*
X003008Y012958D02*
X007029Y012958D01*
X007029Y013057D02*
X003093Y013057D01*
X003133Y013155D02*
X007029Y013155D01*
X007029Y013254D02*
X003155Y013254D01*
X003155Y013352D02*
X007029Y013352D01*
X007029Y013451D02*
X003134Y013451D01*
X003093Y013549D02*
X007029Y013549D01*
X007029Y013648D02*
X003009Y013648D01*
X002856Y013746D02*
X007029Y013746D01*
X009199Y014042D02*
X014644Y014042D01*
X014570Y014140D02*
X009319Y014140D01*
X009369Y014239D02*
X014536Y014239D01*
X014536Y014337D02*
X009387Y014337D01*
X009379Y014436D02*
X014569Y014436D01*
X014641Y014534D02*
X009338Y014534D01*
X006783Y016504D02*
X016725Y016504D01*
X016725Y016406D02*
X016669Y016406D01*
X016725Y016603D02*
X006685Y016603D01*
X006586Y016701D02*
X016725Y016701D01*
X016725Y016800D02*
X006488Y016800D01*
X006389Y016898D02*
X016725Y016898D01*
X016725Y016997D02*
X006291Y016997D01*
X006192Y017095D02*
X012048Y017095D01*
X012006Y017113D02*
X012131Y017061D01*
X012265Y017061D01*
X012390Y017113D01*
X012485Y017208D01*
X012537Y017333D01*
X012537Y017467D01*
X012485Y017592D01*
X012390Y017687D01*
X012265Y017739D01*
X012131Y017739D01*
X012006Y017687D01*
X011911Y017592D01*
X011859Y017467D01*
X011859Y017333D01*
X011911Y017208D01*
X012006Y017113D01*
X011925Y017194D02*
X006094Y017194D01*
X005995Y017292D02*
X011876Y017292D01*
X011859Y017391D02*
X005897Y017391D01*
X005798Y017489D02*
X011868Y017489D01*
X011909Y017588D02*
X005749Y017588D01*
X005749Y017686D02*
X005774Y017686D01*
X006220Y017686D02*
X006561Y017686D01*
X006442Y017785D02*
X006340Y017785D01*
X007008Y017686D02*
X007349Y017686D01*
X007229Y017785D02*
X007127Y017785D01*
X007795Y017686D02*
X010054Y017686D01*
X009970Y017721D02*
X010138Y017651D01*
X010320Y017651D01*
X010489Y017721D01*
X010617Y017850D01*
X010623Y017864D01*
X010629Y017850D01*
X010758Y017721D01*
X010926Y017651D01*
X011108Y017651D01*
X011276Y017721D01*
X011405Y017850D01*
X011411Y017864D01*
X011416Y017850D01*
X011545Y017721D01*
X011713Y017651D01*
X011895Y017651D01*
X012063Y017721D01*
X012192Y017850D01*
X012262Y018018D01*
X012262Y018200D01*
X012192Y018368D01*
X012063Y018497D01*
X011895Y018566D01*
X011713Y018566D01*
X011545Y018497D01*
X011416Y018368D01*
X011411Y018354D01*
X011405Y018368D01*
X011276Y018497D01*
X011108Y018566D01*
X010926Y018566D01*
X010758Y018497D01*
X010629Y018368D01*
X010623Y018354D01*
X010617Y018368D01*
X010489Y018497D01*
X010320Y018566D01*
X010138Y018566D01*
X009970Y018497D01*
X009842Y018368D01*
X009772Y018200D01*
X009772Y018018D01*
X009842Y017850D01*
X009970Y017721D01*
X009906Y017785D02*
X007915Y017785D01*
X007982Y017883D02*
X009828Y017883D01*
X009787Y017982D02*
X008023Y017982D01*
X008029Y018080D02*
X009772Y018080D01*
X009772Y018179D02*
X008029Y018179D01*
X007989Y018277D02*
X009804Y018277D01*
X009850Y018376D02*
X007932Y018376D01*
X007834Y018474D02*
X008174Y018474D01*
X008129Y018493D02*
X008279Y018431D01*
X008440Y018431D01*
X008589Y018493D01*
X008703Y018607D01*
X008765Y018756D01*
X008765Y018918D01*
X008703Y019067D01*
X008589Y019181D01*
X008440Y019243D01*
X008279Y019243D01*
X008129Y019181D01*
X008015Y019067D01*
X007953Y018918D01*
X007953Y018756D01*
X008015Y018607D01*
X008129Y018493D01*
X008049Y018573D02*
X005749Y018573D01*
X005749Y018671D02*
X007989Y018671D01*
X007953Y018770D02*
X005749Y018770D01*
X005749Y018868D02*
X007953Y018868D01*
X007974Y018967D02*
X005749Y018967D01*
X005749Y019065D02*
X008015Y019065D01*
X008112Y019164D02*
X005829Y019164D01*
X005927Y019262D02*
X012510Y019262D01*
X012511Y019263D02*
X012362Y019201D01*
X012248Y019087D01*
X012186Y018938D01*
X012186Y018776D01*
X012248Y018627D01*
X012362Y018513D01*
X012511Y018451D01*
X012672Y018451D01*
X012822Y018513D01*
X012936Y018627D01*
X012998Y018776D01*
X012998Y018938D01*
X012936Y019087D01*
X012822Y019201D01*
X012672Y019263D01*
X012511Y019263D01*
X012673Y019262D02*
X016725Y019262D01*
X016725Y019164D02*
X012859Y019164D01*
X012945Y019065D02*
X016725Y019065D01*
X016725Y018967D02*
X012985Y018967D01*
X012998Y018868D02*
X016725Y018868D01*
X016725Y018770D02*
X012995Y018770D01*
X012954Y018671D02*
X016725Y018671D01*
X016725Y018573D02*
X012882Y018573D01*
X012729Y018474D02*
X016725Y018474D01*
X016725Y018376D02*
X012184Y018376D01*
X012230Y018277D02*
X016725Y018277D01*
X016725Y018179D02*
X012262Y018179D01*
X012262Y018080D02*
X014141Y018080D01*
X014181Y018120D02*
X014086Y018025D01*
X014034Y017901D01*
X014034Y017766D01*
X014086Y017641D01*
X014091Y017636D01*
X014086Y017631D01*
X014034Y017507D01*
X014034Y017372D01*
X014086Y017248D01*
X014181Y017152D01*
X014306Y017101D01*
X014440Y017101D01*
X014565Y017152D01*
X014570Y017157D01*
X014575Y017152D01*
X014699Y017101D01*
X014834Y017101D01*
X014959Y017152D01*
X014964Y017157D01*
X014969Y017152D01*
X015093Y017101D01*
X015228Y017101D01*
X015352Y017152D01*
X015448Y017248D01*
X015499Y017372D01*
X015499Y017507D01*
X015448Y017631D01*
X015443Y017636D01*
X015448Y017641D01*
X015499Y017766D01*
X015499Y017901D01*
X015448Y018025D01*
X015352Y018120D01*
X015228Y018172D01*
X015093Y018172D01*
X014969Y018120D01*
X014964Y018115D01*
X014959Y018120D01*
X014834Y018172D01*
X014699Y018172D01*
X014575Y018120D01*
X014570Y018115D01*
X014565Y018120D01*
X014440Y018172D01*
X014306Y018172D01*
X014181Y018120D01*
X014068Y017982D02*
X012247Y017982D01*
X012206Y017883D02*
X014034Y017883D01*
X014034Y017785D02*
X012127Y017785D01*
X012005Y017686D02*
X011980Y017686D01*
X011628Y017686D02*
X011193Y017686D01*
X011340Y017785D02*
X011481Y017785D01*
X010841Y017686D02*
X010405Y017686D01*
X010553Y017785D02*
X010694Y017785D01*
X010637Y018376D02*
X010609Y018376D01*
X010511Y018474D02*
X010735Y018474D01*
X011298Y018474D02*
X011523Y018474D01*
X011424Y018376D02*
X011397Y018376D01*
X012086Y018474D02*
X012454Y018474D01*
X012301Y018573D02*
X008669Y018573D01*
X008730Y018671D02*
X012229Y018671D01*
X012188Y018770D02*
X008765Y018770D01*
X008765Y018868D02*
X012186Y018868D01*
X012198Y018967D02*
X008745Y018967D01*
X008704Y019065D02*
X012239Y019065D01*
X012325Y019164D02*
X008607Y019164D01*
X008544Y018474D02*
X009948Y018474D01*
X010306Y020065D02*
X010157Y020127D01*
X010043Y020241D01*
X009981Y020390D01*
X009981Y020552D01*
X010043Y020701D01*
X010157Y020815D01*
X010306Y020877D01*
X010468Y020877D01*
X010617Y020815D01*
X010731Y020701D01*
X010793Y020552D01*
X010793Y020390D01*
X010731Y020241D01*
X010617Y020127D01*
X010468Y020065D01*
X010306Y020065D01*
X010135Y020149D02*
X006814Y020149D01*
X006912Y020247D02*
X010040Y020247D01*
X009999Y020346D02*
X007011Y020346D01*
X007109Y020444D02*
X009981Y020444D01*
X009981Y020543D02*
X007185Y020543D01*
X007206Y020641D02*
X010018Y020641D01*
X010082Y020740D02*
X007206Y020740D01*
X007206Y020838D02*
X010213Y020838D01*
X010560Y020838D02*
X010908Y020838D01*
X010915Y020831D02*
X011083Y020761D01*
X011265Y020761D01*
X011433Y020831D01*
X011562Y020960D01*
X011595Y021039D01*
X011616Y020988D01*
X011731Y020874D01*
X011881Y020811D01*
X012043Y020811D01*
X012193Y020874D01*
X012307Y020988D01*
X012369Y021138D01*
X012369Y021300D01*
X012307Y021450D01*
X012193Y021564D01*
X012043Y021626D01*
X016725Y021626D01*
X016725Y021528D02*
X012229Y021528D01*
X012316Y021429D02*
X016725Y021429D01*
X016725Y021331D02*
X012356Y021331D01*
X012369Y021232D02*
X016725Y021232D01*
X016725Y021134D02*
X012368Y021134D01*
X012327Y021035D02*
X016725Y021035D01*
X016725Y020937D02*
X012256Y020937D01*
X012108Y020838D02*
X016725Y020838D01*
X016725Y020740D02*
X010692Y020740D01*
X010756Y020641D02*
X015181Y020641D01*
X015182Y020642D02*
X015076Y020598D01*
X014994Y020516D01*
X014951Y020410D01*
X014951Y020295D01*
X014994Y020189D01*
X015076Y020108D01*
X015182Y020064D01*
X015297Y020064D01*
X015403Y020108D01*
X015484Y020189D01*
X015528Y020295D01*
X015528Y020410D01*
X015484Y020516D01*
X015403Y020598D01*
X015297Y020642D01*
X015182Y020642D01*
X015297Y020641D02*
X016725Y020641D01*
X016725Y020543D02*
X015458Y020543D01*
X015514Y020444D02*
X016725Y020444D01*
X016725Y020346D02*
X015528Y020346D01*
X015508Y020247D02*
X016725Y020247D01*
X016725Y020149D02*
X015444Y020149D01*
X015035Y020149D02*
X010639Y020149D01*
X010734Y020247D02*
X014970Y020247D01*
X014951Y020346D02*
X010774Y020346D01*
X010793Y020444D02*
X014965Y020444D01*
X015021Y020543D02*
X010793Y020543D01*
X010915Y020831D02*
X010786Y020960D01*
X010717Y021128D01*
X010717Y021310D01*
X010786Y021478D01*
X010915Y021607D01*
X011083Y021676D01*
X011265Y021676D01*
X011433Y021607D01*
X011562Y021478D01*
X011595Y021399D01*
X011616Y021450D01*
X011731Y021564D01*
X011881Y021626D01*
X012043Y021626D01*
X011881Y021626D02*
X011386Y021626D01*
X011512Y021528D02*
X011694Y021528D01*
X011608Y021429D02*
X011582Y021429D01*
X011593Y021035D02*
X011597Y021035D01*
X011539Y020937D02*
X011667Y020937D01*
X011816Y020838D02*
X011441Y020838D01*
X010809Y020937D02*
X007984Y020937D01*
X008132Y021035D02*
X010755Y021035D01*
X010717Y021134D02*
X008203Y021134D01*
X008244Y021232D02*
X010717Y021232D01*
X010725Y021331D02*
X008245Y021331D01*
X008232Y021429D02*
X010766Y021429D01*
X010836Y021528D02*
X008192Y021528D01*
X008105Y021626D02*
X010962Y021626D01*
X007691Y020937D02*
X007317Y020937D01*
X007415Y021035D02*
X007543Y021035D01*
X007473Y021134D02*
X007469Y021134D01*
X007458Y021528D02*
X007484Y021528D01*
X007570Y021626D02*
X007388Y021626D01*
X007262Y021725D02*
X016725Y021725D01*
X016725Y021823D02*
X000505Y021823D01*
X000447Y021725D02*
X005264Y021725D01*
X005138Y021626D02*
X002028Y021626D01*
X001914Y021674D02*
X002190Y021560D01*
X002401Y021349D01*
X002515Y021073D01*
X002515Y020775D01*
X002401Y020499D01*
X002190Y020288D01*
X001914Y020174D01*
X001616Y020174D01*
X001340Y020288D01*
X001129Y020499D01*
X001015Y020775D01*
X001015Y021073D01*
X001129Y021349D01*
X001340Y021560D01*
X001616Y021674D01*
X001914Y021674D01*
X002221Y021528D02*
X005067Y021528D01*
X005027Y021429D02*
X002320Y021429D01*
X002408Y021331D02*
X005018Y021331D01*
X005018Y021232D02*
X002449Y021232D01*
X002490Y021134D02*
X005056Y021134D01*
X005110Y021035D02*
X002515Y021035D01*
X002515Y020937D02*
X004515Y020937D01*
X004458Y020913D02*
X004344Y020799D01*
X004282Y020650D01*
X004282Y020489D01*
X004344Y020339D01*
X004458Y020225D01*
X004607Y020163D01*
X004769Y020163D01*
X004918Y020225D01*
X005032Y020339D01*
X005094Y020489D01*
X005094Y020650D01*
X005032Y020799D01*
X004918Y020913D01*
X004769Y020975D01*
X004607Y020975D01*
X004458Y020913D01*
X004383Y020838D02*
X002515Y020838D01*
X002501Y020740D02*
X004319Y020740D01*
X004282Y020641D02*
X002460Y020641D01*
X002419Y020543D02*
X004282Y020543D01*
X004300Y020444D02*
X002346Y020444D01*
X002248Y020346D02*
X004341Y020346D01*
X004436Y020247D02*
X002092Y020247D01*
X001438Y020247D02*
X000340Y020247D01*
X000340Y020149D02*
X004868Y020149D01*
X004840Y020050D02*
X000340Y020050D01*
X000340Y019952D02*
X004840Y019952D01*
X004840Y019853D02*
X000340Y019853D01*
X000340Y019755D02*
X004840Y019755D01*
X004840Y019656D02*
X000340Y019656D01*
X000340Y019558D02*
X004840Y019558D01*
X004840Y019459D02*
X000340Y019459D01*
X000340Y019361D02*
X004840Y019361D01*
X004840Y019262D02*
X000340Y019262D01*
X000340Y019164D02*
X004840Y019164D01*
X004840Y019065D02*
X000340Y019065D01*
X000340Y018967D02*
X004840Y018967D01*
X004840Y018868D02*
X000340Y018868D01*
X000340Y018770D02*
X004840Y018770D01*
X004840Y018671D02*
X000340Y018671D01*
X000340Y018573D02*
X004840Y018573D01*
X004840Y018474D02*
X000340Y018474D01*
X000340Y018376D02*
X004840Y018376D01*
X004840Y018277D02*
X000340Y018277D01*
X000340Y018179D02*
X004840Y018179D01*
X004840Y018080D02*
X000340Y018080D01*
X000340Y017982D02*
X004840Y017982D01*
X004840Y017883D02*
X000340Y017883D01*
X000340Y017785D02*
X004840Y017785D01*
X004840Y017686D02*
X002970Y017686D01*
X002949Y017708D02*
X002773Y017781D01*
X002583Y017781D01*
X002408Y017708D01*
X002274Y017574D01*
X002201Y017399D01*
X002201Y017209D01*
X002274Y017033D01*
X002408Y016899D01*
X002583Y016826D01*
X002773Y016826D01*
X002949Y016899D01*
X003083Y017033D01*
X003155Y017209D01*
X003155Y017399D01*
X003083Y017574D01*
X002949Y017708D01*
X003069Y017588D02*
X004840Y017588D01*
X004840Y017489D02*
X003118Y017489D01*
X003155Y017391D02*
X004840Y017391D01*
X004840Y017292D02*
X003155Y017292D01*
X003149Y017194D02*
X004848Y017194D01*
X004907Y017095D02*
X003108Y017095D01*
X003046Y016997D02*
X005006Y016997D01*
X005104Y016898D02*
X002947Y016898D01*
X002410Y016898D02*
X001947Y016898D01*
X001949Y016899D02*
X002083Y017033D01*
X002155Y017209D01*
X002155Y017399D01*
X002083Y017574D01*
X001949Y017708D01*
X001773Y017781D01*
X001583Y017781D01*
X001408Y017708D01*
X001274Y017574D01*
X001201Y017399D01*
X001201Y017209D01*
X001274Y017033D01*
X001408Y016899D01*
X001583Y016826D01*
X001773Y016826D01*
X001949Y016899D01*
X002046Y016997D02*
X002310Y016997D01*
X002248Y017095D02*
X002108Y017095D01*
X002149Y017194D02*
X002207Y017194D01*
X002201Y017292D02*
X002155Y017292D01*
X002155Y017391D02*
X002201Y017391D01*
X002239Y017489D02*
X002118Y017489D01*
X002069Y017588D02*
X002288Y017588D01*
X002386Y017686D02*
X001970Y017686D01*
X001386Y017686D02*
X000340Y017686D01*
X000340Y017588D02*
X001288Y017588D01*
X001239Y017489D02*
X000340Y017489D01*
X000340Y017391D02*
X001201Y017391D01*
X001201Y017292D02*
X000340Y017292D01*
X000340Y017194D02*
X001207Y017194D01*
X001248Y017095D02*
X000340Y017095D01*
X000340Y016997D02*
X001310Y016997D01*
X001955Y016701D02*
X002401Y016701D01*
X002303Y016603D02*
X002054Y016603D01*
X002112Y016504D02*
X002245Y016504D01*
X002204Y016406D02*
X002152Y016406D01*
X002155Y016307D02*
X002201Y016307D01*
X002242Y016110D02*
X002115Y016110D01*
X002061Y016012D02*
X002295Y016012D01*
X002394Y015913D02*
X001963Y015913D01*
X001929Y015716D02*
X002428Y015716D01*
X002318Y015618D02*
X002039Y015618D01*
X002083Y015574D02*
X001949Y015708D01*
X001773Y015781D01*
X001583Y015781D01*
X001408Y015708D01*
X001274Y015574D01*
X001201Y015399D01*
X001201Y015209D01*
X001274Y015033D01*
X001408Y014899D01*
X001583Y014826D01*
X001773Y014826D01*
X001949Y014899D01*
X002083Y015033D01*
X002155Y015209D01*
X002155Y015399D01*
X002083Y015574D01*
X002105Y015519D02*
X002251Y015519D01*
X002210Y015421D02*
X002146Y015421D01*
X002155Y015322D02*
X002201Y015322D01*
X002201Y015224D02*
X002155Y015224D01*
X002121Y015125D02*
X002236Y015125D01*
X002280Y015027D02*
X002076Y015027D01*
X001978Y014928D02*
X002379Y014928D01*
X002403Y014633D02*
X002024Y014633D01*
X002099Y014534D02*
X002311Y014534D01*
X002271Y014436D02*
X002140Y014436D01*
X002155Y014337D02*
X002251Y014337D01*
X002251Y014239D02*
X002155Y014239D01*
X002127Y014140D02*
X002283Y014140D01*
X002336Y014042D02*
X002086Y014042D01*
X001993Y013943D02*
X002434Y013943D01*
X002500Y013746D02*
X001856Y013746D01*
X002009Y013648D02*
X002348Y013648D01*
X002264Y013549D02*
X002093Y013549D01*
X002134Y013451D02*
X002223Y013451D01*
X002201Y013352D02*
X002155Y013352D01*
X002155Y013254D02*
X002201Y013254D01*
X002223Y013155D02*
X002133Y013155D01*
X002093Y013057D02*
X002264Y013057D01*
X002349Y012958D02*
X002008Y012958D01*
X001854Y012860D02*
X002503Y012860D01*
X001364Y013943D02*
X000340Y013943D01*
X000340Y014042D02*
X001270Y014042D01*
X001229Y014140D02*
X000340Y014140D01*
X000340Y014239D02*
X001201Y014239D01*
X001201Y014337D02*
X000340Y014337D01*
X000340Y014436D02*
X001217Y014436D01*
X001257Y014534D02*
X000340Y014534D01*
X000340Y014633D02*
X001333Y014633D01*
X001464Y014731D02*
X000340Y014731D01*
X000340Y014830D02*
X001575Y014830D01*
X001379Y014928D02*
X000340Y014928D01*
X000340Y015027D02*
X001280Y015027D01*
X001236Y015125D02*
X000340Y015125D01*
X000340Y015224D02*
X001201Y015224D01*
X001201Y015322D02*
X000340Y015322D01*
X000340Y015421D02*
X001210Y015421D01*
X001251Y015519D02*
X000340Y015519D01*
X000340Y015618D02*
X001318Y015618D01*
X001428Y015716D02*
X000340Y015716D01*
X006259Y018474D02*
X006523Y018474D01*
X006424Y018376D02*
X006357Y018376D01*
X007046Y018474D02*
X007310Y018474D01*
X007212Y018376D02*
X007145Y018376D01*
X006124Y019459D02*
X016725Y019459D01*
X016725Y019361D02*
X006026Y019361D01*
X006223Y019558D02*
X016725Y019558D01*
X016725Y019656D02*
X006321Y019656D01*
X006420Y019755D02*
X016725Y019755D01*
X016725Y019853D02*
X006518Y019853D01*
X006617Y019952D02*
X016725Y019952D01*
X016725Y020050D02*
X006715Y020050D01*
X005237Y020543D02*
X005094Y020543D01*
X005094Y020641D02*
X005237Y020641D01*
X005237Y020740D02*
X005057Y020740D01*
X004993Y020838D02*
X005237Y020838D01*
X005209Y020937D02*
X004861Y020937D01*
X005076Y020444D02*
X005151Y020444D01*
X005052Y020346D02*
X005035Y020346D01*
X004954Y020247D02*
X004940Y020247D01*
X005813Y021626D02*
X005925Y021626D01*
X006051Y021725D02*
X005687Y021725D01*
X006475Y021725D02*
X006839Y021725D01*
X006712Y021626D02*
X006601Y021626D01*
X001501Y021626D02*
X000415Y021626D01*
X000383Y021528D02*
X001308Y021528D01*
X001210Y021429D02*
X000353Y021429D01*
X000345Y021331D02*
X001122Y021331D01*
X001081Y021232D02*
X000340Y021232D01*
X000340Y021134D02*
X001040Y021134D01*
X001015Y021035D02*
X000340Y021035D01*
X000340Y020937D02*
X001015Y020937D01*
X001015Y020838D02*
X000340Y020838D01*
X000340Y020740D02*
X001029Y020740D01*
X001070Y020641D02*
X000340Y020641D01*
X000340Y020543D02*
X001111Y020543D01*
X001183Y020444D02*
X000340Y020444D01*
X000340Y020346D02*
X001282Y020346D01*
X000576Y021922D02*
X016725Y021922D01*
X016725Y022020D02*
X000648Y022020D01*
X000776Y022119D02*
X016725Y022119D01*
X016725Y022217D02*
X000911Y022217D01*
X001192Y022316D02*
X016725Y022316D01*
X016725Y018080D02*
X015392Y018080D01*
X015466Y017982D02*
X016725Y017982D01*
X016725Y017883D02*
X015499Y017883D01*
X015499Y017785D02*
X016725Y017785D01*
X016725Y017686D02*
X016424Y017686D01*
X016387Y017724D02*
X016281Y017768D01*
X016166Y017768D01*
X016060Y017724D01*
X015979Y017642D01*
X015935Y017536D01*
X015935Y017421D01*
X015979Y017315D01*
X016060Y017234D01*
X016166Y017190D01*
X016281Y017190D01*
X016387Y017234D01*
X016468Y017315D01*
X016512Y017421D01*
X016512Y017536D01*
X016468Y017642D01*
X016387Y017724D01*
X016491Y017588D02*
X016725Y017588D01*
X016725Y017489D02*
X016512Y017489D01*
X016500Y017391D02*
X016725Y017391D01*
X016725Y017292D02*
X016445Y017292D01*
X016290Y017194D02*
X016725Y017194D01*
X016725Y017095D02*
X012348Y017095D01*
X012471Y017194D02*
X014140Y017194D01*
X014067Y017292D02*
X012520Y017292D01*
X012537Y017391D02*
X014034Y017391D01*
X014034Y017489D02*
X012528Y017489D01*
X012487Y017588D02*
X014068Y017588D01*
X014067Y017686D02*
X012391Y017686D01*
X015394Y017194D02*
X016157Y017194D01*
X016002Y017292D02*
X015466Y017292D01*
X015499Y017391D02*
X015947Y017391D01*
X015935Y017489D02*
X015499Y017489D01*
X015466Y017588D02*
X015956Y017588D01*
X016023Y017686D02*
X015466Y017686D01*
X013414Y010890D02*
X013304Y010890D01*
D18*
X014095Y010079D02*
X014124Y010009D01*
X014216Y009917D01*
X014337Y009867D01*
X014468Y009867D01*
X014589Y009917D01*
X014681Y010009D01*
X014731Y010130D01*
X014731Y010261D01*
X014718Y010294D01*
X016850Y010294D01*
X017493Y009651D01*
X018116Y009651D01*
X018162Y009605D01*
X018265Y009562D01*
X018375Y009562D01*
X018478Y009605D01*
X018556Y009683D01*
X018599Y009786D01*
X018599Y009896D01*
X018556Y009999D01*
X018478Y010077D01*
X018375Y010120D01*
X018265Y010120D01*
X018162Y010077D01*
X018116Y010031D01*
X017651Y010031D01*
X017119Y010562D01*
X017119Y022358D01*
X031306Y022358D01*
X031466Y022348D01*
X031775Y022265D01*
X032051Y022105D01*
X032277Y021879D01*
X032437Y021603D01*
X032520Y021294D01*
X032530Y021134D01*
X032530Y005188D01*
X032518Y004999D01*
X032420Y004634D01*
X032231Y004307D01*
X031964Y004040D01*
X031637Y003851D01*
X031272Y003753D01*
X031083Y003741D01*
X018598Y003741D01*
X018615Y003758D01*
X031289Y003758D01*
X031582Y003836D02*
X018648Y003836D01*
X018658Y003860D02*
X018658Y003971D01*
X018615Y004074D01*
X018576Y004113D01*
X018615Y004152D01*
X018658Y004254D01*
X018658Y004365D01*
X018615Y004467D01*
X018537Y004546D01*
X018434Y004588D01*
X018324Y004588D01*
X018221Y004546D01*
X018143Y004467D01*
X018100Y004365D01*
X018100Y004254D01*
X018143Y004152D01*
X018182Y004113D01*
X018143Y004074D01*
X018100Y003971D01*
X018100Y003860D01*
X018143Y003758D01*
X016844Y003758D01*
X016886Y003860D01*
X016886Y003971D01*
X016844Y004074D01*
X016765Y004152D01*
X016663Y004195D01*
X016552Y004195D01*
X016449Y004152D01*
X016371Y004074D01*
X016293Y004152D01*
X016190Y004195D01*
X016079Y004195D01*
X015977Y004152D01*
X015899Y004074D01*
X015820Y004152D01*
X015718Y004195D01*
X015607Y004195D01*
X015505Y004152D01*
X015426Y004074D01*
X015348Y004152D01*
X015245Y004195D01*
X015135Y004195D01*
X015032Y004152D01*
X014954Y004074D01*
X014875Y004152D01*
X014773Y004195D01*
X014662Y004195D01*
X014560Y004152D01*
X014481Y004074D01*
X014403Y004152D01*
X014301Y004195D01*
X014190Y004195D01*
X014087Y004152D01*
X014009Y004074D01*
X013970Y003979D01*
X013970Y009964D01*
X013998Y009976D01*
X014091Y010068D01*
X014095Y010079D01*
X014112Y010038D02*
X014060Y010038D01*
X013970Y009959D02*
X014174Y009959D01*
X014303Y009881D02*
X013970Y009881D01*
X013970Y009802D02*
X015143Y009802D01*
X015151Y009822D02*
X015108Y009719D01*
X015108Y009608D01*
X015151Y009506D01*
X015229Y009428D01*
X015331Y009385D01*
X015442Y009385D01*
X015545Y009428D01*
X015623Y009506D01*
X015666Y009608D01*
X015666Y009719D01*
X015623Y009822D01*
X015545Y009900D01*
X015442Y009943D01*
X015331Y009943D01*
X015229Y009900D01*
X015151Y009822D01*
X015210Y009881D02*
X014502Y009881D01*
X014632Y009959D02*
X017185Y009959D01*
X017263Y009881D02*
X016351Y009881D01*
X016332Y009900D02*
X016230Y009943D01*
X016119Y009943D01*
X016016Y009900D01*
X015938Y009822D01*
X015896Y009719D01*
X015896Y009608D01*
X015938Y009506D01*
X016016Y009428D01*
X016119Y009385D01*
X016230Y009385D01*
X016332Y009428D01*
X016411Y009506D01*
X016453Y009608D01*
X016453Y009719D01*
X016411Y009822D01*
X016332Y009900D01*
X016419Y009802D02*
X017342Y009802D01*
X017420Y009724D02*
X016451Y009724D01*
X016453Y009645D02*
X018121Y009645D01*
X018253Y009567D02*
X016436Y009567D01*
X016393Y009488D02*
X019223Y009488D01*
X019242Y009535D02*
X019192Y009414D01*
X019192Y009284D01*
X019242Y009163D01*
X019335Y009070D01*
X019455Y009020D01*
X019586Y009020D01*
X019707Y009070D01*
X019799Y009163D01*
X019849Y009284D01*
X019849Y009402D01*
X019892Y009300D01*
X019984Y009208D01*
X020105Y009158D01*
X020236Y009158D01*
X020357Y009208D01*
X020449Y009300D01*
X020453Y009310D01*
X020545Y009218D01*
X020666Y009168D01*
X020797Y009168D01*
X020918Y009218D01*
X021010Y009310D01*
X021060Y009431D01*
X021060Y009562D01*
X021010Y009683D01*
X020918Y009775D01*
X020797Y009825D01*
X020666Y009825D01*
X020545Y009775D01*
X020453Y009683D01*
X020449Y009673D01*
X020357Y009765D01*
X020236Y009815D01*
X020105Y009815D01*
X019984Y009765D01*
X019892Y009673D01*
X019842Y009552D01*
X019842Y009433D01*
X019799Y009535D01*
X019707Y009628D01*
X019586Y009678D01*
X019455Y009678D01*
X019335Y009628D01*
X019242Y009535D01*
X019274Y009567D02*
X018387Y009567D01*
X018519Y009645D02*
X019377Y009645D01*
X019664Y009645D02*
X019880Y009645D01*
X019848Y009567D02*
X019768Y009567D01*
X019819Y009488D02*
X019842Y009488D01*
X019849Y009331D02*
X019879Y009331D01*
X019837Y009253D02*
X019939Y009253D01*
X020065Y009174D02*
X019804Y009174D01*
X019733Y009096D02*
X021713Y009096D01*
X021703Y009072D02*
X021703Y008917D01*
X021762Y008775D01*
X021872Y008665D01*
X022014Y008606D01*
X022169Y008606D01*
X022312Y008665D01*
X022342Y008695D01*
X022372Y008665D01*
X022514Y008606D01*
X022669Y008606D01*
X022812Y008665D01*
X022842Y008695D01*
X022872Y008665D01*
X023014Y008606D01*
X023169Y008606D01*
X023312Y008665D01*
X023421Y008775D01*
X023480Y008917D01*
X023480Y009072D01*
X023421Y009215D01*
X023391Y009245D01*
X023421Y009275D01*
X023480Y009417D01*
X023480Y009572D01*
X023421Y009715D01*
X023391Y009745D01*
X023421Y009775D01*
X023480Y009917D01*
X023480Y010072D01*
X023421Y010215D01*
X023312Y010324D01*
X023169Y010383D01*
X023014Y010383D01*
X022872Y010324D01*
X022842Y010294D01*
X022812Y010324D01*
X022669Y010383D01*
X022514Y010383D01*
X022372Y010324D01*
X022342Y010294D01*
X022312Y010324D01*
X022169Y010383D01*
X022014Y010383D01*
X021872Y010324D01*
X021762Y010215D01*
X021703Y010072D01*
X021703Y009917D01*
X021762Y009775D01*
X021792Y009745D01*
X021762Y009715D01*
X021703Y009572D01*
X021703Y009417D01*
X021762Y009275D01*
X021792Y009245D01*
X021762Y009215D01*
X021703Y009072D01*
X021703Y009017D02*
X016418Y009017D01*
X016411Y009034D02*
X016332Y009113D01*
X016230Y009155D01*
X016119Y009155D01*
X016016Y009113D01*
X015938Y009034D01*
X015896Y008932D01*
X015896Y008821D01*
X015938Y008719D01*
X016016Y008640D01*
X016119Y008598D01*
X016230Y008598D01*
X016332Y008640D01*
X016411Y008719D01*
X016453Y008821D01*
X016453Y008932D01*
X016411Y009034D01*
X016349Y009096D02*
X019309Y009096D01*
X019237Y009174D02*
X013970Y009174D01*
X013970Y009096D02*
X015212Y009096D01*
X015229Y009113D02*
X015151Y009034D01*
X015108Y008932D01*
X015108Y008821D01*
X015151Y008719D01*
X015229Y008640D01*
X015331Y008598D01*
X015442Y008598D01*
X015545Y008640D01*
X015623Y008719D01*
X015666Y008821D01*
X015666Y008932D01*
X015623Y009034D01*
X015545Y009113D01*
X015442Y009155D01*
X015331Y009155D01*
X015229Y009113D01*
X015144Y009017D02*
X013970Y009017D01*
X013970Y008939D02*
X015111Y008939D01*
X015108Y008860D02*
X013970Y008860D01*
X013970Y008782D02*
X015124Y008782D01*
X015166Y008703D02*
X013970Y008703D01*
X013970Y008625D02*
X015266Y008625D01*
X015508Y008625D02*
X016053Y008625D01*
X015953Y008703D02*
X015608Y008703D01*
X015649Y008782D02*
X015912Y008782D01*
X015896Y008860D02*
X015666Y008860D01*
X015663Y008939D02*
X015898Y008939D01*
X015931Y009017D02*
X015630Y009017D01*
X015562Y009096D02*
X016000Y009096D01*
X016450Y008939D02*
X021703Y008939D01*
X021727Y008860D02*
X016453Y008860D01*
X016437Y008782D02*
X021759Y008782D01*
X021833Y008703D02*
X016395Y008703D01*
X016295Y008625D02*
X021969Y008625D01*
X022214Y008625D02*
X022469Y008625D01*
X022714Y008625D02*
X022969Y008625D01*
X022913Y008457D02*
X022782Y008457D01*
X022661Y008407D01*
X022569Y008315D01*
X022519Y008194D01*
X022519Y008063D01*
X022569Y007942D01*
X022661Y007850D01*
X022782Y007800D01*
X022913Y007800D01*
X023034Y007850D01*
X023126Y007942D01*
X023176Y008063D01*
X023176Y008194D01*
X023126Y008315D01*
X023034Y008407D01*
X022913Y008457D01*
X023051Y008389D02*
X026029Y008389D01*
X025994Y008354D02*
X025944Y008233D01*
X025944Y008102D01*
X025994Y007982D01*
X026086Y007889D01*
X026207Y007839D01*
X026338Y007839D01*
X026459Y007889D01*
X026551Y007982D01*
X026601Y008102D01*
X026601Y008233D01*
X026551Y008354D01*
X026459Y008446D01*
X026338Y008497D01*
X026207Y008497D01*
X026086Y008446D01*
X025994Y008354D01*
X025976Y008311D02*
X023128Y008311D01*
X023160Y008232D02*
X025944Y008232D01*
X025944Y008154D02*
X023176Y008154D01*
X023176Y008075D02*
X025955Y008075D01*
X025988Y007997D02*
X023149Y007997D01*
X023102Y007918D02*
X026057Y007918D01*
X026205Y007840D02*
X023010Y007840D01*
X022685Y007840D02*
X020471Y007840D01*
X020455Y007856D02*
X020334Y007906D01*
X020203Y007906D01*
X020083Y007856D01*
X019990Y007763D01*
X019940Y007643D01*
X019940Y007512D01*
X019990Y007391D01*
X020083Y007299D01*
X020203Y007248D01*
X020334Y007248D01*
X020455Y007299D01*
X020547Y007391D01*
X020598Y007512D01*
X020598Y007643D01*
X020547Y007763D01*
X020455Y007856D01*
X020548Y007761D02*
X031508Y007761D01*
X031526Y007803D02*
X031475Y007682D01*
X031475Y007551D01*
X031526Y007430D01*
X031618Y007338D01*
X031651Y007324D01*
X031628Y007315D01*
X031535Y007222D01*
X031485Y007101D01*
X031485Y006971D01*
X031535Y006850D01*
X031628Y006757D01*
X031749Y006707D01*
X031879Y006707D01*
X032000Y006757D01*
X032093Y006850D01*
X032143Y006971D01*
X032143Y007101D01*
X032093Y007222D01*
X032000Y007315D01*
X031967Y007328D01*
X031990Y007338D01*
X032083Y007430D01*
X032133Y007551D01*
X032133Y007682D01*
X032083Y007803D01*
X031990Y007895D01*
X031870Y007945D01*
X031739Y007945D01*
X031618Y007895D01*
X031526Y007803D01*
X031563Y007840D02*
X026340Y007840D01*
X026488Y007918D02*
X031674Y007918D01*
X031935Y007918D02*
X032530Y007918D01*
X032530Y007840D02*
X032046Y007840D01*
X032100Y007761D02*
X032530Y007761D01*
X032530Y007683D02*
X032133Y007683D01*
X032133Y007604D02*
X032530Y007604D01*
X032530Y007526D02*
X032122Y007526D01*
X032090Y007447D02*
X032530Y007447D01*
X032530Y007369D02*
X032021Y007369D01*
X032024Y007290D02*
X032530Y007290D01*
X032530Y007212D02*
X032097Y007212D01*
X032130Y007133D02*
X032530Y007133D01*
X032530Y007055D02*
X032143Y007055D01*
X032143Y006976D02*
X032530Y006976D01*
X032530Y006898D02*
X032113Y006898D01*
X032062Y006819D02*
X032530Y006819D01*
X032530Y006741D02*
X031961Y006741D01*
X031667Y006741D02*
X028416Y006741D01*
X028422Y006727D02*
X028379Y006830D01*
X028301Y006908D01*
X028271Y006920D01*
X028329Y006944D01*
X028421Y007037D01*
X028472Y007158D01*
X028472Y007288D01*
X028421Y007409D01*
X028329Y007502D01*
X028208Y007552D01*
X028077Y007552D01*
X027957Y007502D01*
X027864Y007409D01*
X027814Y007288D01*
X027814Y007158D01*
X027864Y007037D01*
X027957Y006944D01*
X028014Y006920D01*
X027985Y006908D01*
X027906Y006830D01*
X027864Y006727D01*
X027864Y006616D01*
X027901Y006528D01*
X027841Y006528D01*
X027720Y006478D01*
X027628Y006386D01*
X027578Y006265D01*
X027578Y006134D01*
X027628Y006013D01*
X027720Y005921D01*
X027841Y005871D01*
X027972Y005871D01*
X028093Y005921D01*
X028185Y006013D01*
X028235Y006134D01*
X028235Y006265D01*
X028185Y006386D01*
X028178Y006393D01*
X028198Y006393D01*
X028301Y006435D01*
X028379Y006514D01*
X028422Y006616D01*
X028422Y006727D01*
X028422Y006662D02*
X032530Y006662D01*
X032530Y006584D02*
X028408Y006584D01*
X028371Y006505D02*
X032530Y006505D01*
X032530Y006427D02*
X028280Y006427D01*
X028201Y006348D02*
X032530Y006348D01*
X032530Y006270D02*
X028233Y006270D01*
X028235Y006191D02*
X032530Y006191D01*
X032530Y006113D02*
X028227Y006113D01*
X028194Y006034D02*
X032530Y006034D01*
X032530Y005956D02*
X028128Y005956D01*
X027988Y005877D02*
X030659Y005877D01*
X030752Y005916D02*
X030480Y005803D01*
X030271Y005595D01*
X030159Y005323D01*
X030159Y005028D01*
X030271Y004756D01*
X030480Y004548D01*
X030752Y004436D01*
X031046Y004436D01*
X031318Y004548D01*
X031526Y004756D01*
X031639Y005028D01*
X031639Y005323D01*
X031526Y005595D01*
X031318Y005803D01*
X031046Y005916D01*
X030752Y005916D01*
X030475Y005799D02*
X026372Y005799D01*
X026348Y005809D02*
X026237Y005809D01*
X026155Y005775D01*
X026072Y005809D01*
X025961Y005809D01*
X025879Y005775D01*
X025797Y005809D01*
X025686Y005809D01*
X025603Y005775D01*
X025521Y005809D01*
X025410Y005809D01*
X025328Y005775D01*
X025245Y005809D01*
X025135Y005809D01*
X025032Y005766D01*
X024954Y005688D01*
X024911Y005585D01*
X024911Y005475D01*
X024945Y005392D01*
X024911Y005310D01*
X024911Y005199D01*
X024945Y005117D01*
X024911Y005034D01*
X024911Y004923D01*
X024945Y004841D01*
X024911Y004759D01*
X024911Y004648D01*
X024954Y004545D01*
X025032Y004467D01*
X025135Y004424D01*
X025245Y004424D01*
X025328Y004459D01*
X025410Y004424D01*
X025521Y004424D01*
X025603Y004459D01*
X025686Y004424D01*
X025797Y004424D01*
X025879Y004459D01*
X025961Y004424D01*
X026072Y004424D01*
X026155Y004459D01*
X026237Y004424D01*
X026348Y004424D01*
X026450Y004467D01*
X026529Y004545D01*
X026571Y004648D01*
X026571Y004759D01*
X026537Y004841D01*
X026571Y004923D01*
X026571Y005034D01*
X026537Y005117D01*
X026571Y005199D01*
X026571Y005310D01*
X026537Y005392D01*
X026571Y005475D01*
X026571Y005585D01*
X026529Y005688D01*
X026450Y005766D01*
X026348Y005809D01*
X026213Y005799D02*
X026096Y005799D01*
X025938Y005799D02*
X025820Y005799D01*
X025662Y005799D02*
X025545Y005799D01*
X025386Y005799D02*
X025269Y005799D01*
X025111Y005799D02*
X024585Y005799D01*
X024549Y005763D02*
X024642Y005856D01*
X024692Y005976D01*
X024692Y006107D01*
X024642Y006228D01*
X024549Y006320D01*
X024429Y006371D01*
X024298Y006371D01*
X024177Y006320D01*
X024085Y006228D01*
X024035Y006107D01*
X024035Y005976D01*
X024085Y005856D01*
X024177Y005763D01*
X024298Y005713D01*
X024429Y005713D01*
X024549Y005763D01*
X024446Y005720D02*
X024986Y005720D01*
X024935Y005642D02*
X023106Y005642D01*
X023104Y005649D02*
X023025Y005727D01*
X022923Y005769D01*
X022812Y005769D01*
X022729Y005735D01*
X022647Y005769D01*
X022536Y005769D01*
X022454Y005735D01*
X022371Y005769D01*
X022261Y005769D01*
X022178Y005735D01*
X022096Y005769D01*
X021985Y005769D01*
X021903Y005735D01*
X021820Y005769D01*
X021709Y005769D01*
X021607Y005727D01*
X021529Y005649D01*
X021486Y005546D01*
X021486Y005435D01*
X021520Y005353D01*
X021486Y005270D01*
X021486Y005160D01*
X021520Y005077D01*
X021486Y004995D01*
X021486Y004884D01*
X021520Y004802D01*
X021486Y004719D01*
X021486Y004608D01*
X021529Y004506D01*
X021607Y004428D01*
X021709Y004385D01*
X021820Y004385D01*
X021903Y004419D01*
X021985Y004385D01*
X022096Y004385D01*
X022178Y004419D01*
X022261Y004385D01*
X022371Y004385D01*
X022454Y004419D01*
X022536Y004385D01*
X022647Y004385D01*
X022729Y004419D01*
X022812Y004385D01*
X022923Y004385D01*
X023025Y004428D01*
X023104Y004506D01*
X023146Y004608D01*
X023146Y004719D01*
X023112Y004802D01*
X023146Y004884D01*
X023146Y004995D01*
X023112Y005077D01*
X023146Y005160D01*
X023146Y005270D01*
X023112Y005353D01*
X023146Y005435D01*
X023146Y005546D01*
X023104Y005649D01*
X023139Y005563D02*
X024911Y005563D01*
X024911Y005485D02*
X023146Y005485D01*
X023134Y005406D02*
X024940Y005406D01*
X024919Y005328D02*
X023122Y005328D01*
X023146Y005249D02*
X024911Y005249D01*
X024923Y005171D02*
X023146Y005171D01*
X023118Y005092D02*
X024935Y005092D01*
X024911Y005014D02*
X023138Y005014D01*
X023146Y004935D02*
X024911Y004935D01*
X024939Y004857D02*
X023135Y004857D01*
X023121Y004778D02*
X024919Y004778D01*
X024911Y004700D02*
X023146Y004700D01*
X023146Y004621D02*
X024922Y004621D01*
X024956Y004543D02*
X023119Y004543D01*
X023062Y004464D02*
X025038Y004464D01*
X026444Y004464D02*
X030682Y004464D01*
X030493Y004543D02*
X026526Y004543D01*
X026560Y004621D02*
X030406Y004621D01*
X030328Y004700D02*
X027471Y004700D01*
X027498Y004711D02*
X027576Y004789D01*
X027618Y004892D01*
X027618Y005003D01*
X027576Y005105D01*
X027498Y005184D01*
X027395Y005226D01*
X027284Y005226D01*
X027182Y005184D01*
X027103Y005105D01*
X027061Y005003D01*
X027061Y004892D01*
X027103Y004789D01*
X027182Y004711D01*
X027284Y004669D01*
X027395Y004669D01*
X027498Y004711D01*
X027565Y004778D02*
X030262Y004778D01*
X030230Y004857D02*
X028727Y004857D01*
X028790Y004883D02*
X028651Y004825D01*
X028501Y004825D01*
X028362Y004883D01*
X028256Y004989D01*
X028198Y005128D01*
X028198Y005278D01*
X028256Y005417D01*
X028362Y005524D01*
X028501Y005581D01*
X028651Y005581D01*
X028790Y005524D01*
X028896Y005417D01*
X028954Y005278D01*
X028954Y005128D01*
X028896Y004989D01*
X028790Y004883D01*
X028842Y004935D02*
X030197Y004935D01*
X030165Y005014D02*
X028906Y005014D01*
X028939Y005092D02*
X030159Y005092D01*
X030159Y005171D02*
X028954Y005171D01*
X028954Y005249D02*
X030159Y005249D01*
X030161Y005328D02*
X028933Y005328D01*
X028901Y005406D02*
X030193Y005406D01*
X030226Y005485D02*
X028829Y005485D01*
X028694Y005563D02*
X030258Y005563D01*
X030318Y005642D02*
X026548Y005642D01*
X026571Y005563D02*
X028458Y005563D01*
X028323Y005485D02*
X026571Y005485D01*
X026543Y005406D02*
X028251Y005406D01*
X028219Y005328D02*
X026564Y005328D01*
X026571Y005249D02*
X028198Y005249D01*
X028198Y005171D02*
X027510Y005171D01*
X027581Y005092D02*
X028213Y005092D01*
X028245Y005014D02*
X027614Y005014D01*
X027618Y004935D02*
X028309Y004935D01*
X028425Y004857D02*
X027604Y004857D01*
X027209Y004700D02*
X026571Y004700D01*
X026563Y004778D02*
X027114Y004778D01*
X027075Y004857D02*
X026544Y004857D01*
X026571Y004935D02*
X027061Y004935D01*
X027066Y005014D02*
X026571Y005014D01*
X026547Y005092D02*
X027098Y005092D01*
X027169Y005171D02*
X026560Y005171D01*
X026496Y005720D02*
X030397Y005720D01*
X031138Y005877D02*
X032530Y005877D01*
X032530Y005799D02*
X031322Y005799D01*
X031401Y005720D02*
X032530Y005720D01*
X032530Y005642D02*
X031479Y005642D01*
X031539Y005563D02*
X032530Y005563D01*
X032530Y005485D02*
X031572Y005485D01*
X031604Y005406D02*
X032530Y005406D01*
X032530Y005328D02*
X031637Y005328D01*
X031639Y005249D02*
X032530Y005249D01*
X032529Y005171D02*
X031639Y005171D01*
X031639Y005092D02*
X032524Y005092D01*
X032519Y005014D02*
X031633Y005014D01*
X031600Y004935D02*
X032501Y004935D01*
X032480Y004857D02*
X031568Y004857D01*
X031535Y004778D02*
X032459Y004778D01*
X032438Y004700D02*
X031469Y004700D01*
X031391Y004621D02*
X032413Y004621D01*
X032367Y004543D02*
X031305Y004543D01*
X031115Y004464D02*
X032322Y004464D01*
X032277Y004386D02*
X022924Y004386D01*
X022810Y004386D02*
X022649Y004386D01*
X022534Y004386D02*
X022373Y004386D01*
X022259Y004386D02*
X022098Y004386D01*
X021983Y004386D02*
X021822Y004386D01*
X021708Y004386D02*
X021059Y004386D01*
X021059Y004385D02*
X021017Y004487D01*
X021013Y004491D01*
X021059Y004537D01*
X021109Y004658D01*
X021109Y004788D01*
X021059Y004909D01*
X021058Y004910D01*
X021059Y004911D01*
X021109Y005032D01*
X021109Y005162D01*
X021059Y005283D01*
X021049Y005294D01*
X021059Y005304D01*
X021109Y005425D01*
X021109Y005556D01*
X021059Y005677D01*
X020967Y005769D01*
X020846Y005819D01*
X020715Y005819D01*
X020594Y005769D01*
X020502Y005677D01*
X020452Y005556D01*
X020452Y005425D01*
X020502Y005304D01*
X020513Y005294D01*
X020502Y005283D01*
X020452Y005162D01*
X020452Y005032D01*
X020502Y004911D01*
X020503Y004910D01*
X020502Y004909D01*
X020452Y004788D01*
X020452Y004658D01*
X020502Y004537D01*
X020548Y004491D01*
X020544Y004487D01*
X020502Y004385D01*
X020502Y004274D01*
X020544Y004171D01*
X020623Y004093D01*
X020725Y004050D01*
X020836Y004050D01*
X020938Y004093D01*
X021017Y004171D01*
X021059Y004274D01*
X021059Y004385D01*
X021059Y004307D02*
X032232Y004307D01*
X032153Y004229D02*
X021041Y004229D01*
X020996Y004150D02*
X032075Y004150D01*
X031996Y004072D02*
X020888Y004072D01*
X020673Y004072D02*
X018616Y004072D01*
X018614Y004150D02*
X020565Y004150D01*
X020520Y004229D02*
X018647Y004229D01*
X018658Y004307D02*
X020502Y004307D01*
X020502Y004386D02*
X018649Y004386D01*
X018617Y004464D02*
X020535Y004464D01*
X020499Y004543D02*
X018540Y004543D01*
X018218Y004543D02*
X013970Y004543D01*
X013970Y004621D02*
X020467Y004621D01*
X020452Y004700D02*
X013970Y004700D01*
X013970Y004778D02*
X020452Y004778D01*
X020480Y004857D02*
X013970Y004857D01*
X013970Y004935D02*
X020492Y004935D01*
X020459Y005014D02*
X013970Y005014D01*
X013970Y005092D02*
X015240Y005092D01*
X015229Y005097D02*
X015331Y005054D01*
X015442Y005054D01*
X015545Y005097D01*
X015623Y005175D01*
X015666Y005278D01*
X015666Y005389D01*
X015623Y005491D01*
X015545Y005569D01*
X015442Y005612D01*
X015331Y005612D01*
X015229Y005569D01*
X015151Y005491D01*
X015108Y005389D01*
X015108Y005278D01*
X015151Y005175D01*
X015229Y005097D01*
X015155Y005171D02*
X013970Y005171D01*
X013970Y005249D02*
X015120Y005249D01*
X015108Y005328D02*
X013970Y005328D01*
X013970Y005406D02*
X015116Y005406D01*
X015148Y005485D02*
X013970Y005485D01*
X013970Y005563D02*
X015223Y005563D01*
X015331Y005842D02*
X015442Y005842D01*
X015545Y005884D01*
X015623Y005963D01*
X015666Y006065D01*
X015666Y006176D01*
X015623Y006278D01*
X015545Y006357D01*
X015442Y006399D01*
X015331Y006399D01*
X015229Y006357D01*
X015151Y006278D01*
X015108Y006176D01*
X015108Y006065D01*
X015151Y005963D01*
X015229Y005884D01*
X015331Y005842D01*
X015246Y005877D02*
X013970Y005877D01*
X013970Y005799D02*
X020666Y005799D01*
X020545Y005720D02*
X013970Y005720D01*
X013970Y005642D02*
X020487Y005642D01*
X020455Y005563D02*
X016338Y005563D01*
X016332Y005569D02*
X016230Y005612D01*
X016119Y005612D01*
X016016Y005569D01*
X015938Y005491D01*
X015896Y005389D01*
X015896Y005278D01*
X015938Y005175D01*
X016016Y005097D01*
X016119Y005054D01*
X016230Y005054D01*
X016332Y005097D01*
X016411Y005175D01*
X016453Y005278D01*
X016453Y005389D01*
X016411Y005491D01*
X016332Y005569D01*
X016413Y005485D02*
X020452Y005485D01*
X020460Y005406D02*
X016446Y005406D01*
X016453Y005328D02*
X020492Y005328D01*
X020488Y005249D02*
X016441Y005249D01*
X016406Y005171D02*
X020455Y005171D01*
X020452Y005092D02*
X016321Y005092D01*
X016027Y005092D02*
X015534Y005092D01*
X015619Y005171D02*
X015942Y005171D01*
X015907Y005249D02*
X015654Y005249D01*
X015666Y005328D02*
X015896Y005328D01*
X015903Y005406D02*
X015658Y005406D01*
X015626Y005485D02*
X015935Y005485D01*
X016010Y005563D02*
X015551Y005563D01*
X015528Y005877D02*
X016033Y005877D01*
X016016Y005884D02*
X016119Y005842D01*
X016230Y005842D01*
X016332Y005884D01*
X016411Y005963D01*
X016453Y006065D01*
X016453Y006176D01*
X016411Y006278D01*
X016332Y006357D01*
X016230Y006399D01*
X016119Y006399D01*
X016016Y006357D01*
X015938Y006278D01*
X015896Y006176D01*
X015896Y006065D01*
X015938Y005963D01*
X016016Y005884D01*
X015945Y005956D02*
X015616Y005956D01*
X015653Y006034D02*
X015908Y006034D01*
X015896Y006113D02*
X015666Y006113D01*
X015659Y006191D02*
X015902Y006191D01*
X015934Y006270D02*
X015627Y006270D01*
X015553Y006348D02*
X016008Y006348D01*
X015915Y006550D02*
X015804Y006550D01*
X015702Y006593D01*
X015600Y006550D01*
X015489Y006550D01*
X015386Y006593D01*
X015308Y006671D01*
X015266Y006774D01*
X015266Y006885D01*
X015308Y006987D01*
X015266Y007089D01*
X015266Y007200D01*
X015308Y007302D01*
X015266Y007404D01*
X015266Y007515D01*
X015308Y007617D01*
X015266Y007719D01*
X015266Y007830D01*
X015308Y007932D01*
X015266Y008034D01*
X015266Y008144D01*
X015308Y008247D01*
X015386Y008325D01*
X015489Y008368D01*
X015600Y008368D01*
X015702Y008326D01*
X015804Y008368D01*
X015915Y008368D01*
X016017Y008326D01*
X016119Y008368D01*
X016230Y008368D01*
X016332Y008325D01*
X016411Y008247D01*
X016453Y008144D01*
X016453Y008034D01*
X016411Y007932D01*
X016453Y007830D01*
X016453Y007719D01*
X016411Y007617D01*
X016453Y007515D01*
X016453Y007404D01*
X016411Y007302D01*
X016453Y007200D01*
X016453Y007089D01*
X016411Y006987D01*
X016453Y006885D01*
X016453Y006774D01*
X016411Y006671D01*
X016332Y006593D01*
X016230Y006550D01*
X016119Y006550D01*
X016017Y006593D01*
X015915Y006550D01*
X015995Y006584D02*
X016038Y006584D01*
X016310Y006584D02*
X020113Y006584D01*
X020125Y006579D02*
X020255Y006579D01*
X020376Y006629D01*
X020469Y006722D01*
X020519Y006843D01*
X020519Y006973D01*
X020469Y007094D01*
X020376Y007187D01*
X020255Y007237D01*
X020125Y007237D01*
X020004Y007187D01*
X019918Y007101D01*
X019875Y007144D01*
X019773Y007187D01*
X019662Y007187D01*
X019560Y007144D01*
X019481Y007066D01*
X019439Y006963D01*
X019439Y006853D01*
X019481Y006750D01*
X019560Y006672D01*
X019662Y006629D01*
X019773Y006629D01*
X019875Y006672D01*
X019918Y006715D01*
X020004Y006629D01*
X020125Y006579D01*
X020267Y006584D02*
X024104Y006584D01*
X024085Y006604D02*
X024177Y006511D01*
X024298Y006461D01*
X024429Y006461D01*
X024549Y006511D01*
X024642Y006604D01*
X024692Y006724D01*
X024692Y006855D01*
X024642Y006976D01*
X024549Y007069D01*
X024429Y007119D01*
X024298Y007119D01*
X024177Y007069D01*
X024085Y006976D01*
X020518Y006976D01*
X020519Y006898D02*
X024052Y006898D01*
X024035Y006855D02*
X024085Y006976D01*
X024163Y007055D02*
X020485Y007055D01*
X020430Y007133D02*
X027824Y007133D01*
X027814Y007212D02*
X020315Y007212D01*
X020435Y007290D02*
X027815Y007290D01*
X027847Y007369D02*
X020525Y007369D01*
X020571Y007447D02*
X027902Y007447D01*
X028015Y007526D02*
X020598Y007526D01*
X020598Y007604D02*
X031475Y007604D01*
X031476Y007683D02*
X020581Y007683D01*
X020067Y007840D02*
X016449Y007840D01*
X016453Y007761D02*
X019989Y007761D01*
X019957Y007683D02*
X016438Y007683D01*
X016416Y007604D02*
X019940Y007604D01*
X019940Y007526D02*
X016448Y007526D01*
X016453Y007447D02*
X019967Y007447D01*
X020012Y007369D02*
X016439Y007369D01*
X016415Y007290D02*
X020102Y007290D01*
X020065Y007212D02*
X016448Y007212D01*
X016453Y007133D02*
X019549Y007133D01*
X019477Y007055D02*
X016439Y007055D01*
X016415Y006976D02*
X019444Y006976D01*
X019439Y006898D02*
X016448Y006898D01*
X016453Y006819D02*
X019453Y006819D01*
X019490Y006741D02*
X016439Y006741D01*
X016402Y006662D02*
X019582Y006662D01*
X019853Y006662D02*
X019971Y006662D01*
X020409Y006662D02*
X024060Y006662D01*
X024085Y006604D02*
X024035Y006724D01*
X024035Y006855D01*
X024035Y006819D02*
X020509Y006819D01*
X020477Y006741D02*
X024035Y006741D01*
X024191Y006505D02*
X013970Y006505D01*
X013970Y006427D02*
X027669Y006427D01*
X027613Y006348D02*
X024482Y006348D01*
X024600Y006270D02*
X027580Y006270D01*
X027578Y006191D02*
X024657Y006191D01*
X024690Y006113D02*
X027587Y006113D01*
X027619Y006034D02*
X024692Y006034D01*
X024683Y005956D02*
X027685Y005956D01*
X027825Y005877D02*
X024651Y005877D01*
X024280Y005720D02*
X023032Y005720D01*
X024043Y005956D02*
X016404Y005956D01*
X016440Y006034D02*
X024035Y006034D01*
X024037Y006113D02*
X016453Y006113D01*
X016447Y006191D02*
X024069Y006191D01*
X024126Y006270D02*
X016414Y006270D01*
X016341Y006348D02*
X024244Y006348D01*
X024536Y006505D02*
X027786Y006505D01*
X027877Y006584D02*
X024622Y006584D01*
X024666Y006662D02*
X027864Y006662D01*
X027870Y006741D02*
X024692Y006741D01*
X024692Y006819D02*
X027902Y006819D01*
X027975Y006898D02*
X024674Y006898D01*
X024642Y006976D02*
X027924Y006976D01*
X027857Y007055D02*
X024563Y007055D01*
X024076Y005877D02*
X016316Y005877D01*
X015723Y006584D02*
X015680Y006584D01*
X015408Y006584D02*
X013970Y006584D01*
X013970Y006662D02*
X015317Y006662D01*
X015279Y006741D02*
X013970Y006741D01*
X013970Y006819D02*
X015266Y006819D01*
X015271Y006898D02*
X013970Y006898D01*
X013970Y006976D02*
X015304Y006976D01*
X015280Y007055D02*
X013970Y007055D01*
X013970Y007133D02*
X015266Y007133D01*
X015271Y007212D02*
X013970Y007212D01*
X013970Y007290D02*
X015303Y007290D01*
X015280Y007369D02*
X013970Y007369D01*
X013970Y007447D02*
X015266Y007447D01*
X015270Y007526D02*
X013970Y007526D01*
X013970Y007604D02*
X015303Y007604D01*
X015280Y007683D02*
X013970Y007683D01*
X013970Y007761D02*
X015266Y007761D01*
X015270Y007840D02*
X013970Y007840D01*
X013970Y007918D02*
X015302Y007918D01*
X015281Y007997D02*
X013970Y007997D01*
X013970Y008075D02*
X015266Y008075D01*
X015270Y008154D02*
X013970Y008154D01*
X013970Y008232D02*
X015302Y008232D01*
X015372Y008311D02*
X013970Y008311D01*
X013970Y008389D02*
X022644Y008389D01*
X022567Y008311D02*
X016347Y008311D01*
X016417Y008232D02*
X022535Y008232D01*
X022519Y008154D02*
X016449Y008154D01*
X016453Y008075D02*
X022519Y008075D01*
X022546Y007997D02*
X016438Y007997D01*
X016416Y007918D02*
X022593Y007918D01*
X023214Y008625D02*
X025394Y008625D01*
X025440Y008606D02*
X025594Y008606D01*
X025737Y008665D01*
X025767Y008695D01*
X025797Y008665D01*
X025940Y008606D01*
X026094Y008606D01*
X026237Y008665D01*
X026267Y008695D01*
X026297Y008665D01*
X026440Y008606D01*
X026594Y008606D01*
X026737Y008665D01*
X026846Y008775D01*
X026905Y008917D01*
X026905Y009072D01*
X026846Y009215D01*
X026816Y009245D01*
X026846Y009275D01*
X026905Y009417D01*
X026905Y009572D01*
X026846Y009715D01*
X026816Y009745D01*
X026846Y009775D01*
X026905Y009917D01*
X026905Y010072D01*
X026846Y010215D01*
X026737Y010324D01*
X026594Y010383D01*
X026440Y010383D01*
X026297Y010324D01*
X026267Y010294D01*
X026237Y010324D01*
X026094Y010383D01*
X025940Y010383D01*
X025797Y010324D01*
X025767Y010294D01*
X025737Y010324D01*
X025594Y010383D01*
X025440Y010383D01*
X025297Y010324D01*
X025188Y010215D01*
X025128Y010072D01*
X025128Y009917D01*
X025188Y009775D01*
X025217Y009745D01*
X025188Y009715D01*
X025128Y009572D01*
X025128Y009417D01*
X025188Y009275D01*
X025217Y009245D01*
X025188Y009215D01*
X025128Y009072D01*
X025128Y008917D01*
X025188Y008775D01*
X025297Y008665D01*
X025440Y008606D01*
X025639Y008625D02*
X025894Y008625D01*
X026139Y008625D02*
X026394Y008625D01*
X026407Y008468D02*
X032530Y008468D01*
X032530Y008546D02*
X013970Y008546D01*
X013970Y008468D02*
X026138Y008468D01*
X026516Y008389D02*
X032530Y008389D01*
X032530Y008311D02*
X026569Y008311D01*
X026601Y008232D02*
X032530Y008232D01*
X032530Y008154D02*
X026601Y008154D01*
X026590Y008075D02*
X032530Y008075D01*
X032530Y007997D02*
X026558Y007997D01*
X026639Y008625D02*
X029016Y008625D01*
X029062Y008606D02*
X029216Y008606D01*
X029359Y008665D01*
X029389Y008695D01*
X029419Y008665D01*
X029562Y008606D01*
X029716Y008606D01*
X029859Y008665D01*
X029889Y008695D01*
X029919Y008665D01*
X030062Y008606D01*
X030216Y008606D01*
X030359Y008665D01*
X030468Y008775D01*
X030527Y008917D01*
X030527Y009072D01*
X030468Y009215D01*
X030438Y009245D01*
X030468Y009275D01*
X030527Y009417D01*
X030527Y009572D01*
X030468Y009715D01*
X030438Y009745D01*
X030468Y009775D01*
X030527Y009917D01*
X030527Y010072D01*
X030468Y010215D01*
X030359Y010324D01*
X030216Y010383D01*
X030062Y010383D01*
X029919Y010324D01*
X029889Y010294D01*
X029859Y010324D01*
X029716Y010383D01*
X029562Y010383D01*
X029419Y010324D01*
X029389Y010294D01*
X029359Y010324D01*
X029216Y010383D01*
X029062Y010383D01*
X028919Y010324D01*
X028810Y010215D01*
X028750Y010072D01*
X028750Y009917D01*
X028810Y009775D01*
X028840Y009745D01*
X028810Y009715D01*
X028750Y009572D01*
X028750Y009417D01*
X028810Y009275D01*
X028840Y009245D01*
X028810Y009215D01*
X028750Y009072D01*
X028750Y008917D01*
X028810Y008775D01*
X028919Y008665D01*
X029062Y008606D01*
X029261Y008625D02*
X029516Y008625D01*
X029761Y008625D02*
X030016Y008625D01*
X030261Y008625D02*
X032530Y008625D01*
X032530Y008703D02*
X030397Y008703D01*
X030471Y008782D02*
X032530Y008782D01*
X032530Y008860D02*
X030504Y008860D01*
X030527Y008939D02*
X032530Y008939D01*
X032530Y009017D02*
X030527Y009017D01*
X030517Y009096D02*
X032530Y009096D01*
X032530Y009174D02*
X030485Y009174D01*
X030446Y009253D02*
X032530Y009253D01*
X032530Y009331D02*
X030492Y009331D01*
X030524Y009410D02*
X032530Y009410D01*
X032530Y009488D02*
X030527Y009488D01*
X030527Y009567D02*
X032530Y009567D01*
X032530Y009645D02*
X030497Y009645D01*
X030459Y009724D02*
X032530Y009724D01*
X032530Y009802D02*
X030480Y009802D01*
X030512Y009881D02*
X032530Y009881D01*
X032530Y009959D02*
X030527Y009959D01*
X030527Y010038D02*
X032530Y010038D01*
X032530Y010116D02*
X030509Y010116D01*
X030476Y010195D02*
X032530Y010195D01*
X032530Y010273D02*
X030409Y010273D01*
X030291Y010352D02*
X032530Y010352D01*
X032530Y010430D02*
X017251Y010430D01*
X017330Y010352D02*
X021939Y010352D01*
X021821Y010273D02*
X017408Y010273D01*
X017487Y010195D02*
X021754Y010195D01*
X021722Y010116D02*
X018384Y010116D01*
X018256Y010116D02*
X017565Y010116D01*
X017644Y010038D02*
X018123Y010038D01*
X018517Y010038D02*
X021703Y010038D01*
X021703Y009959D02*
X018573Y009959D01*
X018599Y009881D02*
X021718Y009881D01*
X021751Y009802D02*
X020852Y009802D01*
X020969Y009724D02*
X021772Y009724D01*
X021734Y009645D02*
X021026Y009645D01*
X021058Y009567D02*
X021703Y009567D01*
X021703Y009488D02*
X021060Y009488D01*
X021051Y009410D02*
X021706Y009410D01*
X021739Y009331D02*
X021019Y009331D01*
X020953Y009253D02*
X021784Y009253D01*
X021746Y009174D02*
X020813Y009174D01*
X020650Y009174D02*
X020275Y009174D01*
X020401Y009253D02*
X020510Y009253D01*
X020494Y009724D02*
X020398Y009724D01*
X020267Y009802D02*
X020611Y009802D01*
X020073Y009802D02*
X018599Y009802D01*
X018573Y009724D02*
X019943Y009724D01*
X019192Y009410D02*
X016290Y009410D01*
X016059Y009410D02*
X015502Y009410D01*
X015606Y009488D02*
X015956Y009488D01*
X015913Y009567D02*
X015648Y009567D01*
X015666Y009645D02*
X015896Y009645D01*
X015897Y009724D02*
X015664Y009724D01*
X015631Y009802D02*
X015930Y009802D01*
X015997Y009881D02*
X015564Y009881D01*
X015110Y009724D02*
X013970Y009724D01*
X013970Y009645D02*
X015108Y009645D01*
X015125Y009567D02*
X013970Y009567D01*
X013970Y009488D02*
X015168Y009488D01*
X015272Y009410D02*
X013970Y009410D01*
X013970Y009331D02*
X019192Y009331D01*
X019205Y009253D02*
X013970Y009253D01*
X014693Y010038D02*
X017106Y010038D01*
X017028Y010116D02*
X014726Y010116D01*
X014731Y010195D02*
X016949Y010195D01*
X016871Y010273D02*
X014726Y010273D01*
X017119Y010587D02*
X032530Y010587D01*
X032530Y010509D02*
X017173Y010509D01*
X017119Y010666D02*
X032530Y010666D01*
X032530Y010744D02*
X017119Y010744D01*
X017119Y010823D02*
X032530Y010823D01*
X032530Y010901D02*
X017119Y010901D01*
X017119Y010980D02*
X032530Y010980D01*
X032530Y011058D02*
X031436Y011058D01*
X031368Y011030D02*
X031506Y011088D01*
X031613Y011194D01*
X031670Y011333D01*
X031670Y011483D01*
X031613Y011622D01*
X031506Y011728D01*
X031368Y011786D01*
X031217Y011786D01*
X031078Y011728D01*
X030972Y011622D01*
X030915Y011483D01*
X030915Y011333D01*
X030972Y011194D01*
X031078Y011088D01*
X031217Y011030D01*
X031368Y011030D01*
X031556Y011137D02*
X032530Y011137D01*
X032530Y011215D02*
X031622Y011215D01*
X031654Y011294D02*
X032530Y011294D01*
X032530Y011372D02*
X031670Y011372D01*
X031670Y011451D02*
X032530Y011451D01*
X032530Y011529D02*
X031651Y011529D01*
X031619Y011608D02*
X032530Y011608D01*
X032530Y011686D02*
X031548Y011686D01*
X031418Y011765D02*
X032530Y011765D01*
X032530Y011843D02*
X028372Y011843D01*
X028372Y011765D02*
X031167Y011765D01*
X031037Y011686D02*
X028355Y011686D01*
X028372Y011729D02*
X028280Y011507D01*
X028111Y011337D01*
X027889Y011246D01*
X027649Y011246D01*
X027427Y011337D01*
X027257Y011507D01*
X027165Y011729D01*
X027165Y011969D01*
X027257Y012191D01*
X027427Y012360D01*
X027649Y012452D01*
X027889Y012452D01*
X028111Y012360D01*
X028280Y012191D01*
X028372Y011969D01*
X028372Y011729D01*
X028322Y011608D02*
X030966Y011608D01*
X030934Y011529D02*
X028290Y011529D01*
X028224Y011451D02*
X030915Y011451D01*
X030915Y011372D02*
X028146Y011372D01*
X028006Y011294D02*
X030931Y011294D01*
X030963Y011215D02*
X017119Y011215D01*
X017119Y011137D02*
X031029Y011137D01*
X031149Y011058D02*
X017119Y011058D01*
X017119Y011294D02*
X024225Y011294D01*
X024120Y011337D02*
X024342Y011246D01*
X024582Y011246D01*
X024803Y011337D01*
X024973Y011507D01*
X025065Y011729D01*
X025065Y011969D01*
X024973Y012191D01*
X024803Y012360D01*
X024582Y012452D01*
X024342Y012452D01*
X024120Y012360D01*
X023950Y012191D01*
X023858Y011969D01*
X023858Y011729D01*
X023950Y011507D01*
X024120Y011337D01*
X024085Y011372D02*
X017119Y011372D01*
X017119Y011451D02*
X024006Y011451D01*
X023941Y011529D02*
X017119Y011529D01*
X017119Y011608D02*
X023908Y011608D01*
X023876Y011686D02*
X017119Y011686D01*
X017119Y011765D02*
X023858Y011765D01*
X023858Y011843D02*
X017119Y011843D01*
X017119Y011922D02*
X023858Y011922D01*
X023871Y012000D02*
X017119Y012000D01*
X017119Y012079D02*
X023904Y012079D01*
X023936Y012157D02*
X017119Y012157D01*
X017119Y012236D02*
X023995Y012236D01*
X024074Y012314D02*
X017119Y012314D01*
X017119Y012393D02*
X024198Y012393D01*
X024725Y012393D02*
X025852Y012393D01*
X025773Y012360D02*
X025995Y012452D01*
X026235Y012452D01*
X026457Y012360D01*
X026627Y012191D01*
X026719Y011969D01*
X026719Y011729D01*
X026627Y011507D01*
X026457Y011337D01*
X026235Y011246D01*
X025995Y011246D01*
X025773Y011337D01*
X025604Y011507D01*
X025512Y011729D01*
X025512Y011969D01*
X025604Y012191D01*
X025773Y012360D01*
X025727Y012314D02*
X024850Y012314D01*
X024928Y012236D02*
X025649Y012236D01*
X025590Y012157D02*
X024987Y012157D01*
X025020Y012079D02*
X025557Y012079D01*
X025525Y012000D02*
X025052Y012000D01*
X025065Y011922D02*
X025512Y011922D01*
X025512Y011843D02*
X025065Y011843D01*
X025065Y011765D02*
X025512Y011765D01*
X025529Y011686D02*
X025047Y011686D01*
X025015Y011608D02*
X025562Y011608D01*
X025594Y011529D02*
X024982Y011529D01*
X024917Y011451D02*
X025660Y011451D01*
X025738Y011372D02*
X024839Y011372D01*
X024699Y011294D02*
X025878Y011294D01*
X026352Y011294D02*
X027532Y011294D01*
X027392Y011372D02*
X026492Y011372D01*
X026571Y011451D02*
X027313Y011451D01*
X027248Y011529D02*
X026636Y011529D01*
X026669Y011608D02*
X027216Y011608D01*
X027183Y011686D02*
X026701Y011686D01*
X026719Y011765D02*
X027165Y011765D01*
X027165Y011843D02*
X026719Y011843D01*
X026719Y011922D02*
X027165Y011922D01*
X027178Y012000D02*
X026706Y012000D01*
X026673Y012079D02*
X027211Y012079D01*
X027243Y012157D02*
X026641Y012157D01*
X026582Y012236D02*
X027302Y012236D01*
X027381Y012314D02*
X026503Y012314D01*
X026379Y012393D02*
X027505Y012393D01*
X028032Y012393D02*
X032530Y012393D01*
X032530Y012471D02*
X017119Y012471D01*
X017119Y012550D02*
X032530Y012550D01*
X032530Y012628D02*
X017119Y012628D01*
X017119Y012707D02*
X032530Y012707D01*
X032530Y012785D02*
X017119Y012785D01*
X017119Y012864D02*
X032530Y012864D01*
X032530Y012942D02*
X017119Y012942D01*
X017119Y013021D02*
X024333Y013021D01*
X024342Y013017D02*
X024582Y013017D01*
X024803Y013109D01*
X024973Y013279D01*
X025065Y013501D01*
X025065Y013741D01*
X024973Y013962D01*
X024803Y014132D01*
X024582Y014224D01*
X024342Y014224D01*
X024120Y014132D01*
X023950Y013962D01*
X023858Y013741D01*
X023858Y013501D01*
X023950Y013279D01*
X024120Y013109D01*
X024342Y013017D01*
X024143Y013099D02*
X017119Y013099D01*
X017119Y013178D02*
X024051Y013178D01*
X023973Y013256D02*
X017119Y013256D01*
X017119Y013335D02*
X023927Y013335D01*
X023894Y013413D02*
X017119Y013413D01*
X017119Y013492D02*
X023862Y013492D01*
X023858Y013570D02*
X017119Y013570D01*
X017119Y013649D02*
X023858Y013649D01*
X023858Y013727D02*
X017119Y013727D01*
X017119Y013806D02*
X023885Y013806D01*
X023918Y013884D02*
X017119Y013884D01*
X017119Y013963D02*
X023951Y013963D01*
X024029Y014041D02*
X017119Y014041D01*
X017119Y014120D02*
X021688Y014120D01*
X021739Y014099D02*
X021870Y014099D01*
X021942Y014129D01*
X022014Y014099D01*
X022145Y014099D01*
X022218Y014129D01*
X022290Y014099D01*
X022421Y014099D01*
X022493Y014129D01*
X022566Y014099D01*
X022696Y014099D01*
X022769Y014129D01*
X022841Y014099D01*
X022972Y014099D01*
X023093Y014149D01*
X023185Y014241D01*
X023235Y014362D01*
X023235Y014493D01*
X023205Y014565D01*
X023235Y014638D01*
X023235Y014769D01*
X023185Y014889D01*
X023093Y014982D01*
X022972Y015032D01*
X022841Y015032D01*
X022769Y015002D01*
X022696Y015032D01*
X022566Y015032D01*
X022493Y015002D01*
X022421Y015032D01*
X022290Y015032D01*
X022218Y015002D01*
X022145Y015032D01*
X022014Y015032D01*
X021942Y015002D01*
X021870Y015032D01*
X021739Y015032D01*
X021618Y014982D01*
X021526Y014889D01*
X021475Y014769D01*
X021475Y014638D01*
X021505Y014565D01*
X021475Y014493D01*
X021475Y014362D01*
X021526Y014241D01*
X021618Y014149D01*
X021739Y014099D01*
X021920Y014120D02*
X021964Y014120D01*
X022196Y014120D02*
X022239Y014120D01*
X022471Y014120D02*
X022515Y014120D01*
X022747Y014120D02*
X022790Y014120D01*
X023023Y014120D02*
X024108Y014120D01*
X024280Y014198D02*
X023142Y014198D01*
X023200Y014277D02*
X024856Y014277D01*
X024852Y014281D02*
X024945Y014188D01*
X025066Y014138D01*
X025196Y014138D01*
X025269Y014168D01*
X025341Y014138D01*
X025472Y014138D01*
X025544Y014168D01*
X025617Y014138D01*
X025748Y014138D01*
X025820Y014168D01*
X025840Y014160D01*
X025773Y014132D01*
X025604Y013962D01*
X025512Y013741D01*
X025512Y013501D01*
X025604Y013279D01*
X025773Y013109D01*
X025995Y013017D01*
X026235Y013017D01*
X026457Y013109D01*
X026627Y013279D01*
X026719Y013501D01*
X026719Y013741D01*
X026627Y013962D01*
X026457Y014132D01*
X026370Y014168D01*
X026420Y014188D01*
X026512Y014281D01*
X026562Y014402D01*
X026562Y014532D01*
X026532Y014605D01*
X026562Y014677D01*
X026562Y014808D01*
X026512Y014929D01*
X026420Y015021D01*
X026299Y015071D01*
X026168Y015071D01*
X026096Y015041D01*
X026023Y015071D01*
X025892Y015071D01*
X025820Y015041D01*
X025748Y015071D01*
X025617Y015071D01*
X025544Y015041D01*
X025472Y015071D01*
X025341Y015071D01*
X025269Y015041D01*
X025196Y015071D01*
X025066Y015071D01*
X024945Y015021D01*
X024852Y014929D01*
X024802Y014808D01*
X024802Y014677D01*
X024832Y014605D01*
X024802Y014532D01*
X024802Y014402D01*
X024852Y014281D01*
X024821Y014355D02*
X023232Y014355D01*
X023235Y014434D02*
X024802Y014434D01*
X024802Y014512D02*
X023227Y014512D01*
X023216Y014591D02*
X024826Y014591D01*
X024805Y014669D02*
X023235Y014669D01*
X023235Y014748D02*
X024802Y014748D01*
X024810Y014826D02*
X023211Y014826D01*
X023170Y014905D02*
X024842Y014905D01*
X024907Y014983D02*
X023089Y014983D01*
X023003Y015219D02*
X024483Y015219D01*
X024453Y015232D02*
X024573Y015182D01*
X024704Y015182D01*
X024825Y015232D01*
X024918Y015324D01*
X024968Y015445D01*
X024968Y015576D01*
X024918Y015697D01*
X024825Y015789D01*
X024704Y015839D01*
X024573Y015839D01*
X024453Y015789D01*
X024360Y015697D01*
X024310Y015576D01*
X024310Y015445D01*
X024360Y015324D01*
X024453Y015232D01*
X024387Y015297D02*
X023100Y015297D01*
X023126Y015324D02*
X023176Y015445D01*
X023176Y015576D01*
X023126Y015697D01*
X023034Y015789D01*
X022913Y015839D01*
X022782Y015839D01*
X022661Y015789D01*
X022569Y015697D01*
X022519Y015576D01*
X022519Y015445D01*
X022569Y015324D01*
X022661Y015232D01*
X022782Y015182D01*
X022913Y015182D01*
X023034Y015232D01*
X023126Y015324D01*
X023148Y015376D02*
X024339Y015376D01*
X024310Y015454D02*
X023176Y015454D01*
X023176Y015533D02*
X024310Y015533D01*
X024325Y015611D02*
X023161Y015611D01*
X023129Y015690D02*
X024357Y015690D01*
X024432Y015768D02*
X023054Y015768D01*
X022641Y015768D02*
X017119Y015768D01*
X017119Y015690D02*
X022566Y015690D01*
X022534Y015611D02*
X017119Y015611D01*
X017119Y015533D02*
X022519Y015533D01*
X022519Y015454D02*
X017119Y015454D01*
X017119Y015376D02*
X022547Y015376D01*
X022596Y015297D02*
X017119Y015297D01*
X017119Y015219D02*
X022692Y015219D01*
X021622Y014983D02*
X017119Y014983D01*
X017119Y014905D02*
X021541Y014905D01*
X021499Y014826D02*
X017119Y014826D01*
X017119Y014748D02*
X021475Y014748D01*
X021475Y014669D02*
X017119Y014669D01*
X017119Y014591D02*
X021495Y014591D01*
X021483Y014512D02*
X017119Y014512D01*
X017119Y014434D02*
X021475Y014434D01*
X021478Y014355D02*
X017119Y014355D01*
X017119Y014277D02*
X021511Y014277D01*
X021569Y014198D02*
X017119Y014198D01*
X017119Y015062D02*
X025043Y015062D01*
X025219Y015062D02*
X025318Y015062D01*
X025495Y015062D02*
X025594Y015062D01*
X025770Y015062D02*
X025870Y015062D01*
X026046Y015062D02*
X026145Y015062D01*
X026207Y015201D02*
X026086Y015251D01*
X025994Y015344D01*
X025944Y015465D01*
X025944Y015595D01*
X025994Y015716D01*
X026086Y015809D01*
X026207Y015859D01*
X026338Y015859D01*
X026459Y015809D01*
X026551Y015716D01*
X026601Y015595D01*
X026601Y015465D01*
X026551Y015344D01*
X026459Y015251D01*
X026338Y015201D01*
X026207Y015201D01*
X026165Y015219D02*
X024794Y015219D01*
X024891Y015297D02*
X026040Y015297D01*
X025981Y015376D02*
X024939Y015376D01*
X024968Y015454D02*
X025948Y015454D01*
X025944Y015533D02*
X024968Y015533D01*
X024953Y015611D02*
X025951Y015611D01*
X025983Y015690D02*
X024920Y015690D01*
X024846Y015768D02*
X026046Y015768D01*
X026179Y015847D02*
X017119Y015847D01*
X017119Y015925D02*
X032530Y015925D01*
X032530Y015847D02*
X028256Y015847D01*
X028228Y015859D02*
X028097Y015859D01*
X027976Y015809D01*
X027884Y015716D01*
X027834Y015595D01*
X027834Y015465D01*
X027884Y015344D01*
X027976Y015251D01*
X028097Y015201D01*
X028228Y015201D01*
X028349Y015251D01*
X028441Y015344D01*
X028491Y015465D01*
X028491Y015595D01*
X028441Y015716D01*
X028349Y015809D01*
X028228Y015859D01*
X028069Y015847D02*
X026367Y015847D01*
X026499Y015768D02*
X027936Y015768D01*
X027873Y015690D02*
X026562Y015690D01*
X026595Y015611D02*
X027840Y015611D01*
X027834Y015533D02*
X026601Y015533D01*
X026597Y015454D02*
X027838Y015454D01*
X027870Y015376D02*
X026565Y015376D01*
X026505Y015297D02*
X027930Y015297D01*
X028054Y015219D02*
X026381Y015219D01*
X026322Y015062D02*
X028509Y015062D01*
X028474Y015027D02*
X028424Y014906D01*
X028424Y014776D01*
X028454Y014703D01*
X028424Y014631D01*
X028424Y014500D01*
X028474Y014379D01*
X028567Y014287D01*
X028688Y014237D01*
X028818Y014237D01*
X028891Y014267D01*
X028963Y014237D01*
X029094Y014237D01*
X029166Y014267D01*
X029239Y014237D01*
X029370Y014237D01*
X029442Y014267D01*
X029514Y014237D01*
X029645Y014237D01*
X029718Y014267D01*
X029790Y014237D01*
X029921Y014237D01*
X030042Y014287D01*
X030134Y014379D01*
X030184Y014500D01*
X030184Y014631D01*
X030154Y014703D01*
X030184Y014776D01*
X030184Y014906D01*
X030134Y015027D01*
X030042Y015120D01*
X029921Y015170D01*
X029790Y015170D01*
X029718Y015140D01*
X029645Y015170D01*
X029514Y015170D01*
X029442Y015140D01*
X029370Y015170D01*
X029239Y015170D01*
X029166Y015140D01*
X029094Y015170D01*
X028963Y015170D01*
X028891Y015140D01*
X028818Y015170D01*
X028688Y015170D01*
X028567Y015120D01*
X028474Y015027D01*
X028456Y014983D02*
X026457Y014983D01*
X026522Y014905D02*
X028424Y014905D01*
X028424Y014826D02*
X026554Y014826D01*
X026562Y014748D02*
X028436Y014748D01*
X028440Y014669D02*
X026559Y014669D01*
X026538Y014591D02*
X028424Y014591D01*
X028424Y014512D02*
X026562Y014512D01*
X026562Y014434D02*
X028452Y014434D01*
X028498Y014355D02*
X026543Y014355D01*
X026508Y014277D02*
X028591Y014277D01*
X028280Y013962D02*
X028111Y014132D01*
X027889Y014224D01*
X027649Y014224D01*
X027427Y014132D01*
X027257Y013962D01*
X027165Y013741D01*
X027165Y013501D01*
X027257Y013279D01*
X027427Y013109D01*
X027649Y013017D01*
X027889Y013017D01*
X028111Y013109D01*
X028280Y013279D01*
X028372Y013501D01*
X028372Y013741D01*
X028280Y013962D01*
X028280Y013963D02*
X032530Y013963D01*
X032530Y014041D02*
X028201Y014041D01*
X028123Y014120D02*
X032530Y014120D01*
X032530Y014198D02*
X027950Y014198D01*
X027587Y014198D02*
X026430Y014198D01*
X026469Y014120D02*
X027415Y014120D01*
X027336Y014041D02*
X026548Y014041D01*
X026626Y013963D02*
X027258Y013963D01*
X027225Y013884D02*
X026659Y013884D01*
X026692Y013806D02*
X027192Y013806D01*
X027165Y013727D02*
X026719Y013727D01*
X026719Y013649D02*
X027165Y013649D01*
X027165Y013570D02*
X026719Y013570D01*
X026715Y013492D02*
X027169Y013492D01*
X027201Y013413D02*
X026683Y013413D01*
X026650Y013335D02*
X027234Y013335D01*
X027280Y013256D02*
X026604Y013256D01*
X026526Y013178D02*
X027358Y013178D01*
X027450Y013099D02*
X026434Y013099D01*
X026244Y013021D02*
X027640Y013021D01*
X027898Y013021D02*
X032530Y013021D01*
X032530Y013099D02*
X028087Y013099D01*
X028179Y013178D02*
X032530Y013178D01*
X032530Y013256D02*
X028258Y013256D01*
X028304Y013335D02*
X032530Y013335D01*
X032530Y013413D02*
X028336Y013413D01*
X028369Y013492D02*
X032530Y013492D01*
X032530Y013570D02*
X028372Y013570D01*
X028372Y013649D02*
X032530Y013649D01*
X032530Y013727D02*
X028372Y013727D01*
X028345Y013806D02*
X032530Y013806D01*
X032530Y013884D02*
X028313Y013884D01*
X030018Y014277D02*
X032530Y014277D01*
X032530Y014355D02*
X030110Y014355D01*
X030157Y014434D02*
X032530Y014434D01*
X032530Y014512D02*
X030184Y014512D01*
X030184Y014591D02*
X032530Y014591D01*
X032530Y014669D02*
X030168Y014669D01*
X030173Y014748D02*
X032530Y014748D01*
X032530Y014826D02*
X030184Y014826D01*
X030184Y014905D02*
X032530Y014905D01*
X032530Y014983D02*
X030152Y014983D01*
X030099Y015062D02*
X032530Y015062D01*
X032530Y015140D02*
X029992Y015140D01*
X029719Y015140D02*
X029716Y015140D01*
X029444Y015140D02*
X029440Y015140D01*
X029168Y015140D02*
X029165Y015140D01*
X028892Y015140D02*
X028889Y015140D01*
X028617Y015140D02*
X017119Y015140D01*
X017119Y016004D02*
X032530Y016004D01*
X032530Y016082D02*
X017119Y016082D01*
X017119Y016161D02*
X032530Y016161D01*
X032530Y016239D02*
X017119Y016239D01*
X017119Y016318D02*
X032530Y016318D01*
X032530Y016396D02*
X017119Y016396D01*
X017119Y016475D02*
X032530Y016475D01*
X032530Y016553D02*
X027926Y016553D01*
X027893Y016540D02*
X028014Y016590D01*
X028107Y016682D01*
X028157Y016803D01*
X028157Y016934D01*
X028107Y017055D01*
X028014Y017147D01*
X027893Y017197D01*
X027762Y017197D01*
X027642Y017147D01*
X027549Y017055D01*
X027499Y016934D01*
X027499Y016803D01*
X027549Y016682D01*
X027642Y016590D01*
X027762Y016540D01*
X027893Y016540D01*
X027730Y016553D02*
X024402Y016553D01*
X024370Y016540D02*
X024490Y016590D01*
X024583Y016682D01*
X024633Y016803D01*
X024633Y016934D01*
X024583Y017055D01*
X024490Y017147D01*
X024370Y017197D01*
X024239Y017197D01*
X024118Y017147D01*
X024026Y017055D01*
X023975Y016934D01*
X023975Y016803D01*
X024026Y016682D01*
X024118Y016590D01*
X024239Y016540D01*
X024370Y016540D01*
X024206Y016553D02*
X017119Y016553D01*
X017119Y016632D02*
X024076Y016632D01*
X024014Y016710D02*
X017119Y016710D01*
X017119Y016789D02*
X023981Y016789D01*
X023975Y016867D02*
X017119Y016867D01*
X017119Y016946D02*
X023980Y016946D01*
X024013Y017024D02*
X017119Y017024D01*
X017119Y017103D02*
X024074Y017103D01*
X024200Y017181D02*
X020212Y017181D01*
X020207Y017176D02*
X020313Y017283D01*
X020371Y017421D01*
X020371Y017572D01*
X020313Y017711D01*
X020207Y017817D01*
X020068Y017874D01*
X019918Y017874D01*
X019779Y017817D01*
X019673Y017711D01*
X019615Y017572D01*
X019615Y017421D01*
X019673Y017283D01*
X019779Y017176D01*
X019918Y017119D01*
X020068Y017119D01*
X020207Y017176D01*
X020291Y017260D02*
X032530Y017260D01*
X032530Y017338D02*
X020337Y017338D01*
X020369Y017417D02*
X024185Y017417D01*
X024138Y017436D02*
X024259Y017386D01*
X024389Y017386D01*
X024510Y017436D01*
X024603Y017529D01*
X024653Y017650D01*
X024653Y017780D01*
X024603Y017901D01*
X024510Y017994D01*
X024389Y018044D01*
X024259Y018044D01*
X024138Y017994D01*
X024045Y017901D01*
X023995Y017780D01*
X023995Y017650D01*
X024045Y017529D01*
X024138Y017436D01*
X024079Y017495D02*
X020371Y017495D01*
X020370Y017574D02*
X024027Y017574D01*
X023995Y017652D02*
X020338Y017652D01*
X020293Y017731D02*
X023995Y017731D01*
X024007Y017809D02*
X020215Y017809D01*
X019772Y017809D02*
X017119Y017809D01*
X017119Y017731D02*
X019693Y017731D01*
X019649Y017652D02*
X017119Y017652D01*
X017119Y017574D02*
X019616Y017574D01*
X019615Y017495D02*
X017119Y017495D01*
X017119Y017417D02*
X019617Y017417D01*
X019650Y017338D02*
X017119Y017338D01*
X017119Y017260D02*
X019696Y017260D01*
X019774Y017181D02*
X017119Y017181D01*
X017119Y017888D02*
X024040Y017888D01*
X024110Y017966D02*
X017119Y017966D01*
X017119Y018045D02*
X027718Y018045D01*
X027762Y018063D02*
X027642Y018013D01*
X027549Y017921D01*
X027499Y017800D01*
X027499Y017669D01*
X027549Y017549D01*
X027642Y017456D01*
X027762Y017406D01*
X027893Y017406D01*
X028014Y017456D01*
X028107Y017549D01*
X028157Y017669D01*
X028157Y017800D01*
X028107Y017921D01*
X028014Y018013D01*
X027893Y018063D01*
X027762Y018063D01*
X027938Y018045D02*
X032530Y018045D01*
X032530Y018123D02*
X017119Y018123D01*
X017119Y018202D02*
X032530Y018202D01*
X032530Y018280D02*
X017119Y018280D01*
X017119Y018359D02*
X032530Y018359D01*
X032530Y018437D02*
X017119Y018437D01*
X017119Y018516D02*
X032530Y018516D01*
X032530Y018594D02*
X017119Y018594D01*
X017119Y018673D02*
X032530Y018673D01*
X032530Y018751D02*
X017119Y018751D01*
X017119Y018830D02*
X032530Y018830D01*
X032530Y018908D02*
X017119Y018908D01*
X017119Y018987D02*
X028043Y018987D01*
X028016Y018998D02*
X028220Y018914D01*
X028440Y018914D01*
X028643Y018998D01*
X028799Y019154D01*
X028883Y019357D01*
X028883Y019577D01*
X028799Y019780D01*
X028643Y019936D01*
X028440Y020020D01*
X028220Y020020D01*
X028016Y019936D01*
X027861Y019780D01*
X027776Y019577D01*
X027776Y019357D01*
X027861Y019154D01*
X028016Y018998D01*
X027949Y019065D02*
X018538Y019065D01*
X018476Y019040D02*
X018638Y019107D01*
X018762Y019230D01*
X018829Y019392D01*
X018829Y019567D01*
X018762Y019729D01*
X018638Y019853D01*
X018476Y019920D01*
X018301Y019920D01*
X018140Y019853D01*
X018016Y019729D01*
X017949Y019567D01*
X017949Y019392D01*
X018016Y019230D01*
X018140Y019107D01*
X018301Y019040D01*
X018476Y019040D01*
X018675Y019144D02*
X027870Y019144D01*
X027832Y019222D02*
X018754Y019222D01*
X018791Y019301D02*
X027800Y019301D01*
X027776Y019379D02*
X018824Y019379D01*
X018829Y019458D02*
X027776Y019458D01*
X027776Y019536D02*
X018829Y019536D01*
X018809Y019615D02*
X027792Y019615D01*
X027825Y019693D02*
X018777Y019693D01*
X018719Y019772D02*
X027857Y019772D01*
X027931Y019850D02*
X018640Y019850D01*
X018486Y020130D02*
X018666Y020204D01*
X018804Y020342D01*
X018879Y020522D01*
X018879Y020717D01*
X018804Y020897D01*
X018666Y021035D01*
X018486Y021110D01*
X018291Y021110D01*
X018111Y021035D01*
X017973Y020897D01*
X017899Y020717D01*
X017899Y020522D01*
X017973Y020342D01*
X018111Y020204D01*
X018291Y020130D01*
X018486Y020130D01*
X018570Y020164D02*
X032530Y020164D01*
X032530Y020086D02*
X017119Y020086D01*
X017119Y020164D02*
X018208Y020164D01*
X018073Y020243D02*
X017119Y020243D01*
X017119Y020321D02*
X017994Y020321D01*
X017950Y020400D02*
X017119Y020400D01*
X017119Y020478D02*
X017917Y020478D01*
X017899Y020557D02*
X017119Y020557D01*
X017119Y020635D02*
X017899Y020635D01*
X017899Y020714D02*
X017119Y020714D01*
X017119Y020792D02*
X017930Y020792D01*
X017963Y020871D02*
X017119Y020871D01*
X017119Y020949D02*
X018026Y020949D01*
X018104Y021028D02*
X017119Y021028D01*
X017119Y021106D02*
X018284Y021106D01*
X018494Y021106D02*
X022902Y021106D01*
X022903Y021106D02*
X023009Y021000D01*
X023148Y020942D01*
X023298Y020942D01*
X023437Y021000D01*
X023543Y021106D01*
X023601Y021245D01*
X023601Y021395D01*
X023543Y021534D01*
X023437Y021640D01*
X023298Y021698D01*
X023148Y021698D01*
X023009Y021640D01*
X022903Y021534D01*
X022845Y021395D01*
X022845Y021245D01*
X022903Y021106D01*
X022870Y021185D02*
X017119Y021185D01*
X017119Y021263D02*
X022845Y021263D01*
X022845Y021342D02*
X019182Y021342D01*
X019163Y021334D02*
X019265Y021376D01*
X019344Y021455D01*
X019386Y021557D01*
X019386Y021668D01*
X019344Y021771D01*
X019265Y021849D01*
X019163Y021891D01*
X019052Y021891D01*
X018949Y021849D01*
X018871Y021771D01*
X018829Y021668D01*
X018829Y021557D01*
X018871Y021455D01*
X018949Y021376D01*
X019052Y021334D01*
X019163Y021334D01*
X019033Y021342D02*
X017119Y021342D01*
X017119Y021420D02*
X018905Y021420D01*
X018853Y021499D02*
X017119Y021499D01*
X017119Y021577D02*
X018829Y021577D01*
X018829Y021656D02*
X017119Y021656D01*
X017119Y021734D02*
X018856Y021734D01*
X018913Y021813D02*
X017119Y021813D01*
X017119Y021891D02*
X019899Y021891D01*
X019914Y021928D02*
X019872Y021826D01*
X019872Y021715D01*
X019914Y021612D01*
X019993Y021534D01*
X020095Y021491D01*
X020206Y021491D01*
X020309Y021534D01*
X020387Y021612D01*
X020429Y021715D01*
X020429Y021826D01*
X020387Y021928D01*
X020309Y022006D01*
X020206Y022049D01*
X020095Y022049D01*
X019993Y022006D01*
X019914Y021928D01*
X019956Y021970D02*
X017119Y021970D01*
X017119Y022048D02*
X020094Y022048D01*
X020207Y022048D02*
X026310Y022048D01*
X026363Y022101D02*
X026207Y021946D01*
X026123Y021742D01*
X026123Y021522D01*
X026207Y021319D01*
X026363Y021163D01*
X026566Y021079D01*
X026786Y021079D01*
X026990Y021163D01*
X027145Y021319D01*
X027230Y021522D01*
X027230Y021742D01*
X027145Y021946D01*
X026990Y022101D01*
X026786Y022186D01*
X026566Y022186D01*
X026363Y022101D01*
X026424Y022127D02*
X017119Y022127D01*
X017119Y022205D02*
X031878Y022205D01*
X032014Y022127D02*
X026928Y022127D01*
X027043Y022048D02*
X032108Y022048D01*
X032187Y021970D02*
X027121Y021970D01*
X027168Y021891D02*
X032265Y021891D01*
X032316Y021813D02*
X027200Y021813D01*
X027230Y021734D02*
X032361Y021734D01*
X032406Y021656D02*
X031065Y021656D01*
X031046Y021664D02*
X031318Y021551D01*
X031526Y021343D01*
X031639Y021071D01*
X031639Y020776D01*
X031526Y020505D01*
X031318Y020296D01*
X031046Y020184D01*
X030752Y020184D01*
X030480Y020296D01*
X030271Y020505D01*
X030159Y020776D01*
X030159Y021071D01*
X030271Y021343D01*
X030480Y021551D01*
X030752Y021664D01*
X031046Y021664D01*
X031254Y021577D02*
X032444Y021577D01*
X032465Y021499D02*
X031370Y021499D01*
X031448Y021420D02*
X032486Y021420D01*
X032507Y021342D02*
X031526Y021342D01*
X031559Y021263D02*
X032522Y021263D01*
X032527Y021185D02*
X031591Y021185D01*
X031624Y021106D02*
X032530Y021106D01*
X032530Y021028D02*
X031639Y021028D01*
X031639Y020949D02*
X032530Y020949D01*
X032530Y020871D02*
X031639Y020871D01*
X031639Y020792D02*
X032530Y020792D01*
X032530Y020714D02*
X031613Y020714D01*
X031580Y020635D02*
X032530Y020635D01*
X032530Y020557D02*
X031548Y020557D01*
X031500Y020478D02*
X032530Y020478D01*
X032530Y020400D02*
X031421Y020400D01*
X031343Y020321D02*
X032530Y020321D01*
X032530Y020243D02*
X031189Y020243D01*
X030609Y020243D02*
X018705Y020243D01*
X018784Y020321D02*
X030454Y020321D01*
X030376Y020400D02*
X018828Y020400D01*
X018861Y020478D02*
X030297Y020478D01*
X030250Y020557D02*
X018879Y020557D01*
X018879Y020635D02*
X030217Y020635D01*
X030185Y020714D02*
X018879Y020714D01*
X018848Y020792D02*
X030159Y020792D01*
X030159Y020871D02*
X018815Y020871D01*
X018752Y020949D02*
X023130Y020949D01*
X022981Y021028D02*
X018674Y021028D01*
X019309Y021420D02*
X022856Y021420D01*
X022888Y021499D02*
X020224Y021499D01*
X020077Y021499D02*
X019362Y021499D01*
X019386Y021577D02*
X019949Y021577D01*
X019896Y021656D02*
X019386Y021656D01*
X019359Y021734D02*
X019872Y021734D01*
X019872Y021813D02*
X019301Y021813D01*
X020345Y021970D02*
X026231Y021970D01*
X026185Y021891D02*
X020402Y021891D01*
X020429Y021813D02*
X026152Y021813D01*
X026123Y021734D02*
X020429Y021734D01*
X020405Y021656D02*
X023047Y021656D01*
X022946Y021577D02*
X020352Y021577D01*
X018137Y019850D02*
X017119Y019850D01*
X017119Y019772D02*
X018059Y019772D01*
X018001Y019693D02*
X017119Y019693D01*
X017119Y019615D02*
X017969Y019615D01*
X017949Y019536D02*
X017119Y019536D01*
X017119Y019458D02*
X017949Y019458D01*
X017954Y019379D02*
X017119Y019379D01*
X017119Y019301D02*
X017987Y019301D01*
X018024Y019222D02*
X017119Y019222D01*
X017119Y019144D02*
X018102Y019144D01*
X018239Y019065D02*
X017119Y019065D01*
X017119Y019929D02*
X028009Y019929D01*
X028188Y020007D02*
X017119Y020007D01*
X017119Y022284D02*
X031705Y022284D01*
X030733Y021656D02*
X027230Y021656D01*
X027230Y021577D02*
X030543Y021577D01*
X030427Y021499D02*
X027220Y021499D01*
X027187Y021420D02*
X030349Y021420D01*
X030271Y021342D02*
X027155Y021342D01*
X027090Y021263D02*
X030238Y021263D01*
X030206Y021185D02*
X027011Y021185D01*
X026853Y021106D02*
X030173Y021106D01*
X030159Y021028D02*
X023465Y021028D01*
X023543Y021106D02*
X026500Y021106D01*
X026341Y021185D02*
X023576Y021185D01*
X023601Y021263D02*
X026263Y021263D01*
X026198Y021342D02*
X023601Y021342D01*
X023590Y021420D02*
X026165Y021420D01*
X026133Y021499D02*
X023558Y021499D01*
X023500Y021577D02*
X026123Y021577D01*
X026123Y021656D02*
X023399Y021656D01*
X023315Y020949D02*
X030159Y020949D01*
X028802Y019772D02*
X032530Y019772D01*
X032530Y019850D02*
X028729Y019850D01*
X028650Y019929D02*
X032530Y019929D01*
X032530Y020007D02*
X028471Y020007D01*
X028835Y019693D02*
X032530Y019693D01*
X032530Y019615D02*
X028868Y019615D01*
X028883Y019536D02*
X032530Y019536D01*
X032530Y019458D02*
X028883Y019458D01*
X028883Y019379D02*
X032530Y019379D01*
X032530Y019301D02*
X028860Y019301D01*
X028827Y019222D02*
X032530Y019222D01*
X032530Y019144D02*
X028789Y019144D01*
X028711Y019065D02*
X032530Y019065D01*
X032530Y018987D02*
X028617Y018987D01*
X028061Y017966D02*
X032530Y017966D01*
X032530Y017888D02*
X028120Y017888D01*
X028153Y017809D02*
X032530Y017809D01*
X032530Y017731D02*
X028157Y017731D01*
X028150Y017652D02*
X032530Y017652D01*
X032530Y017574D02*
X028117Y017574D01*
X028053Y017495D02*
X032530Y017495D01*
X032530Y017417D02*
X027920Y017417D01*
X027736Y017417D02*
X024463Y017417D01*
X024569Y017495D02*
X027602Y017495D01*
X027539Y017574D02*
X024621Y017574D01*
X024653Y017652D02*
X027506Y017652D01*
X027499Y017731D02*
X024653Y017731D01*
X024641Y017809D02*
X027503Y017809D01*
X027535Y017888D02*
X024608Y017888D01*
X024537Y017966D02*
X027595Y017966D01*
X027724Y017181D02*
X024408Y017181D01*
X024535Y017103D02*
X027597Y017103D01*
X027537Y017024D02*
X024595Y017024D01*
X024628Y016946D02*
X027504Y016946D01*
X027499Y016867D02*
X024633Y016867D01*
X024627Y016789D02*
X027505Y016789D01*
X027538Y016710D02*
X024595Y016710D01*
X024532Y016632D02*
X027600Y016632D01*
X028056Y016632D02*
X032530Y016632D01*
X032530Y016710D02*
X028118Y016710D01*
X028151Y016789D02*
X032530Y016789D01*
X032530Y016867D02*
X028157Y016867D01*
X028152Y016946D02*
X032530Y016946D01*
X032530Y017024D02*
X028119Y017024D01*
X028058Y017103D02*
X032530Y017103D01*
X032530Y017181D02*
X027932Y017181D01*
X028389Y015768D02*
X032530Y015768D01*
X032530Y015690D02*
X028452Y015690D01*
X028485Y015611D02*
X032530Y015611D01*
X032530Y015533D02*
X028491Y015533D01*
X028487Y015454D02*
X032530Y015454D01*
X032530Y015376D02*
X028454Y015376D01*
X028395Y015297D02*
X032530Y015297D01*
X032530Y015219D02*
X028270Y015219D01*
X025761Y014120D02*
X024816Y014120D01*
X024894Y014041D02*
X025683Y014041D01*
X025604Y013963D02*
X024973Y013963D01*
X025006Y013884D02*
X025571Y013884D01*
X025539Y013806D02*
X025038Y013806D01*
X025065Y013727D02*
X025512Y013727D01*
X025512Y013649D02*
X025065Y013649D01*
X025065Y013570D02*
X025512Y013570D01*
X025515Y013492D02*
X025062Y013492D01*
X025029Y013413D02*
X025548Y013413D01*
X025580Y013335D02*
X024996Y013335D01*
X024951Y013256D02*
X025626Y013256D01*
X025705Y013178D02*
X024872Y013178D01*
X024780Y013099D02*
X025797Y013099D01*
X025986Y013021D02*
X024591Y013021D01*
X024643Y014198D02*
X024935Y014198D01*
X028157Y012314D02*
X032530Y012314D01*
X032530Y012236D02*
X028235Y012236D01*
X028294Y012157D02*
X032530Y012157D01*
X032530Y012079D02*
X028327Y012079D01*
X028359Y012000D02*
X032530Y012000D01*
X032530Y011922D02*
X028372Y011922D01*
X028987Y010352D02*
X026669Y010352D01*
X026787Y010273D02*
X028868Y010273D01*
X028801Y010195D02*
X026854Y010195D01*
X026887Y010116D02*
X028769Y010116D01*
X028750Y010038D02*
X026905Y010038D01*
X026905Y009959D02*
X027663Y009959D01*
X027622Y009943D02*
X027529Y009850D01*
X027479Y009729D01*
X027479Y009598D01*
X027529Y009478D01*
X027622Y009385D01*
X027743Y009335D01*
X027874Y009335D01*
X027994Y009385D01*
X028087Y009478D01*
X028137Y009598D01*
X028137Y009729D01*
X028087Y009850D01*
X027994Y009943D01*
X027874Y009993D01*
X027743Y009993D01*
X027622Y009943D01*
X027560Y009881D02*
X026890Y009881D01*
X026858Y009802D02*
X027510Y009802D01*
X027479Y009724D02*
X026837Y009724D01*
X026875Y009645D02*
X027479Y009645D01*
X027492Y009567D02*
X026905Y009567D01*
X026905Y009488D02*
X027525Y009488D01*
X027597Y009410D02*
X026902Y009410D01*
X026870Y009331D02*
X028786Y009331D01*
X028754Y009410D02*
X028019Y009410D01*
X028091Y009488D02*
X028750Y009488D01*
X028750Y009567D02*
X028124Y009567D01*
X028137Y009645D02*
X028781Y009645D01*
X028819Y009724D02*
X028137Y009724D01*
X028107Y009802D02*
X028798Y009802D01*
X028766Y009881D02*
X028056Y009881D01*
X027954Y009959D02*
X028750Y009959D01*
X029291Y010352D02*
X029487Y010352D01*
X029791Y010352D02*
X029987Y010352D01*
X028831Y009253D02*
X026824Y009253D01*
X026863Y009174D02*
X028793Y009174D01*
X028760Y009096D02*
X026895Y009096D01*
X026905Y009017D02*
X028750Y009017D01*
X028750Y008939D02*
X026905Y008939D01*
X026882Y008860D02*
X028774Y008860D01*
X028807Y008782D02*
X026849Y008782D01*
X026775Y008703D02*
X028881Y008703D01*
X028270Y007526D02*
X031486Y007526D01*
X031518Y007447D02*
X028383Y007447D01*
X028438Y007369D02*
X031587Y007369D01*
X031604Y007290D02*
X028471Y007290D01*
X028472Y007212D02*
X031531Y007212D01*
X031499Y007133D02*
X028462Y007133D01*
X028429Y007055D02*
X031485Y007055D01*
X031485Y006976D02*
X028361Y006976D01*
X028311Y006898D02*
X031515Y006898D01*
X031566Y006819D02*
X028383Y006819D01*
X025259Y008703D02*
X023350Y008703D01*
X023424Y008782D02*
X025184Y008782D01*
X025152Y008860D02*
X023456Y008860D01*
X023480Y008939D02*
X025128Y008939D01*
X025128Y009017D02*
X023480Y009017D01*
X023470Y009096D02*
X025138Y009096D01*
X025171Y009174D02*
X023438Y009174D01*
X023399Y009253D02*
X025209Y009253D01*
X025164Y009331D02*
X023444Y009331D01*
X023477Y009410D02*
X024093Y009410D01*
X024118Y009385D02*
X024026Y009478D01*
X023975Y009598D01*
X023975Y009729D01*
X024026Y009850D01*
X024118Y009943D01*
X024239Y009993D01*
X024370Y009993D01*
X024490Y009943D01*
X024583Y009850D01*
X024633Y009729D01*
X024633Y009598D01*
X024583Y009478D01*
X024490Y009385D01*
X024370Y009335D01*
X024239Y009335D01*
X024118Y009385D01*
X024021Y009488D02*
X023480Y009488D01*
X023480Y009567D02*
X023989Y009567D01*
X023975Y009645D02*
X023450Y009645D01*
X023412Y009724D02*
X023975Y009724D01*
X024006Y009802D02*
X023432Y009802D01*
X023465Y009881D02*
X024056Y009881D01*
X024159Y009959D02*
X023480Y009959D01*
X023480Y010038D02*
X025128Y010038D01*
X025128Y009959D02*
X024450Y009959D01*
X024552Y009881D02*
X025143Y009881D01*
X025176Y009802D02*
X024603Y009802D01*
X024633Y009724D02*
X025197Y009724D01*
X025159Y009645D02*
X024633Y009645D01*
X024620Y009567D02*
X025128Y009567D01*
X025128Y009488D02*
X024587Y009488D01*
X024515Y009410D02*
X025131Y009410D01*
X025147Y010116D02*
X023462Y010116D01*
X023429Y010195D02*
X025179Y010195D01*
X025246Y010273D02*
X023362Y010273D01*
X023244Y010352D02*
X025364Y010352D01*
X025669Y010352D02*
X025864Y010352D01*
X026169Y010352D02*
X026364Y010352D01*
X022939Y010352D02*
X022744Y010352D01*
X022439Y010352D02*
X022244Y010352D01*
X019951Y007133D02*
X019886Y007133D01*
X020895Y005799D02*
X024141Y005799D01*
X021600Y005720D02*
X021016Y005720D01*
X021074Y005642D02*
X021526Y005642D01*
X021493Y005563D02*
X021106Y005563D01*
X021109Y005485D02*
X021486Y005485D01*
X021498Y005406D02*
X021102Y005406D01*
X021069Y005328D02*
X021510Y005328D01*
X021486Y005249D02*
X021073Y005249D01*
X021106Y005171D02*
X021486Y005171D01*
X021514Y005092D02*
X021109Y005092D01*
X021102Y005014D02*
X021494Y005014D01*
X021486Y004935D02*
X021069Y004935D01*
X021081Y004857D02*
X021497Y004857D01*
X021511Y004778D02*
X021109Y004778D01*
X021109Y004700D02*
X021486Y004700D01*
X021486Y004621D02*
X021094Y004621D01*
X021062Y004543D02*
X021513Y004543D01*
X021570Y004464D02*
X021026Y004464D01*
X018649Y003993D02*
X031884Y003993D01*
X031748Y003915D02*
X018658Y003915D01*
X018658Y003860D02*
X018615Y003758D01*
X018160Y003741D02*
X016827Y003741D01*
X016844Y003758D01*
X016876Y003836D02*
X018110Y003836D01*
X018100Y003915D02*
X016886Y003915D01*
X016877Y003993D02*
X018109Y003993D01*
X018142Y004072D02*
X016844Y004072D01*
X016767Y004150D02*
X018144Y004150D01*
X018111Y004229D02*
X013970Y004229D01*
X013970Y004307D02*
X018100Y004307D01*
X018109Y004386D02*
X013970Y004386D01*
X013970Y004464D02*
X018141Y004464D01*
X018143Y003758D02*
X018160Y003741D01*
X016448Y004150D02*
X016295Y004150D01*
X015975Y004150D02*
X015822Y004150D01*
X015503Y004150D02*
X015350Y004150D01*
X015030Y004150D02*
X014877Y004150D01*
X014558Y004150D02*
X014405Y004150D01*
X014086Y004150D02*
X013970Y004150D01*
X013970Y004072D02*
X014008Y004072D01*
X013976Y003993D02*
X013970Y003993D01*
X013773Y004073D02*
X014029Y004329D01*
X013773Y004073D02*
X013615Y004073D01*
X013536Y004624D02*
X009422Y004624D01*
X008989Y005058D01*
X008989Y009152D01*
X009344Y009506D01*
X009344Y011810D01*
X009088Y012065D01*
X009029Y012065D01*
X008694Y010451D02*
X008930Y010215D01*
X008930Y009861D01*
X008655Y009585D01*
X008655Y006750D01*
X008064Y006160D01*
X007395Y006160D01*
X007277Y006042D01*
X006922Y006357D02*
X007828Y006357D01*
X008379Y006908D01*
X008379Y013995D01*
X008615Y014231D01*
X008615Y014349D01*
X009048Y014349D02*
X009048Y014231D01*
X008694Y013876D01*
X008694Y010451D01*
X006548Y011258D02*
X006529Y011278D01*
X006548Y011258D02*
X006548Y008030D01*
X005072Y006554D01*
X005072Y006042D01*
X004875Y005845D01*
X004777Y006278D02*
X004777Y006613D01*
X005328Y007164D01*
X005328Y011278D01*
X004206Y009802D02*
X004245Y009762D01*
X004245Y009723D01*
X003241Y009093D02*
X003182Y009093D01*
X002729Y008640D01*
X002729Y004054D01*
X003044Y003739D01*
X009383Y003739D01*
X009540Y003857D01*
X006450Y006081D02*
X006450Y006436D01*
X006607Y006593D01*
X007592Y006593D01*
X008143Y007144D01*
X008143Y014349D01*
X007269Y015073D02*
X005080Y017262D01*
X005080Y020034D01*
X005477Y020432D01*
X005477Y021315D01*
X005475Y021317D01*
X006261Y021315D02*
X006263Y021317D01*
X006261Y021315D02*
X006261Y020684D01*
X005304Y019727D01*
X005304Y017345D01*
X007477Y015172D01*
X007477Y007184D01*
X007281Y006987D01*
X006174Y006987D01*
X005702Y006514D01*
X005702Y005624D01*
X005694Y005617D01*
X006076Y005861D02*
X006096Y005880D01*
X006096Y006514D01*
X006411Y006829D01*
X007513Y006829D01*
X007749Y007065D01*
X007749Y015199D01*
X005509Y017439D01*
X005509Y019184D01*
X006966Y020640D01*
X006966Y021233D01*
X007050Y021317D01*
X007269Y015073D02*
X007269Y007380D01*
X007151Y007262D01*
X006096Y007262D01*
X005308Y006475D01*
X005308Y005337D01*
X005300Y005329D01*
X006804Y006239D02*
X006922Y006357D01*
X013536Y004644D02*
X013536Y004624D01*
X013970Y005956D02*
X015157Y005956D01*
X015121Y006034D02*
X013970Y006034D01*
X013970Y006113D02*
X015108Y006113D01*
X015115Y006191D02*
X013970Y006191D01*
X013970Y006270D02*
X015147Y006270D01*
X015221Y006348D02*
X013970Y006348D01*
M02*
