G75*
%MOIN*%
%OFA0B0*%
%FSLAX24Y24*%
%IPPOS*%
%LPD*%
%AMOC8*
5,1,8,0,0,1.08239X$1,22.5*
%
%ADD10C,0.0740*%
%ADD11C,0.0650*%
%ADD12R,0.0650X0.0650*%
%ADD13C,0.0515*%
%ADD14R,0.0515X0.0515*%
%ADD15R,0.0827X0.0827*%
%ADD16C,0.0827*%
%ADD17OC8,0.0740*%
%ADD18R,0.0554X0.0554*%
%ADD19C,0.0554*%
%ADD20R,0.0397X0.0397*%
%ADD21OC8,0.0277*%
%ADD22R,0.0277X0.0277*%
%ADD23C,0.0100*%
%ADD24C,0.0080*%
%ADD25C,0.0160*%
%ADD26C,0.0079*%
%ADD27C,0.0560*%
D10*
X000824Y010708D03*
X001824Y010608D03*
X002824Y010708D03*
X003824Y010608D03*
X004824Y010708D03*
X005824Y010608D03*
X018389Y019480D03*
X018389Y020620D03*
D11*
X019993Y017497D03*
X023223Y021320D03*
X031292Y011408D03*
X028576Y005203D03*
D12*
X028576Y004203D03*
X031292Y012408D03*
X023223Y019320D03*
X019993Y016497D03*
D13*
X011804Y018109D03*
X011017Y018109D03*
X007572Y018089D03*
X006785Y018089D03*
X011174Y021219D03*
X007838Y021317D03*
X007050Y021317D03*
X006263Y021317D03*
X005475Y021317D03*
D14*
X008625Y021317D03*
X011962Y021219D03*
X010229Y018109D03*
X005997Y018089D03*
D15*
X024462Y013621D03*
X026676Y021632D03*
D16*
X028330Y021632D03*
X028330Y019467D03*
X026676Y019467D03*
X026115Y013621D03*
X027769Y013621D03*
X027769Y011849D03*
X026115Y011849D03*
X024462Y011849D03*
D17*
X012755Y005124D03*
X011755Y005124D03*
X010755Y005124D03*
X010755Y004124D03*
X011755Y004124D03*
X012755Y004124D03*
D18*
X001678Y013304D03*
D19*
X002678Y013304D03*
X002678Y014304D03*
X001678Y014304D03*
X001678Y015304D03*
X002678Y015304D03*
X002678Y016304D03*
X001678Y016304D03*
X001678Y017304D03*
X002678Y017304D03*
D20*
X022092Y017357D03*
X022592Y017357D03*
X023092Y017357D03*
X023092Y016857D03*
X022592Y016857D03*
X022592Y016357D03*
X023092Y016357D03*
X022092Y016357D03*
X022092Y016857D03*
X025517Y016857D03*
X026017Y016857D03*
X026017Y017357D03*
X025517Y017357D03*
X026517Y017357D03*
X026517Y016857D03*
X026517Y016357D03*
X026017Y016357D03*
X025517Y016357D03*
X029139Y016357D03*
X029639Y016357D03*
X029639Y016857D03*
X029139Y016857D03*
X029139Y017357D03*
X029639Y017357D03*
X030139Y017357D03*
X030139Y016857D03*
X030139Y016357D03*
X030139Y009995D03*
X029639Y009995D03*
X029139Y009995D03*
X029139Y009495D03*
X029639Y009495D03*
X030139Y009495D03*
X030139Y008995D03*
X029639Y008995D03*
X029139Y008995D03*
X026517Y008995D03*
X026517Y009495D03*
X026517Y009995D03*
X026017Y009995D03*
X025517Y009995D03*
X025517Y009495D03*
X026017Y009495D03*
X026017Y008995D03*
X025517Y008995D03*
X023092Y008995D03*
X022592Y008995D03*
X022592Y009495D03*
X023092Y009495D03*
X023092Y009995D03*
X022592Y009995D03*
X022092Y009995D03*
X022092Y009495D03*
X022092Y008995D03*
D21*
X020731Y009497D03*
X020170Y009487D03*
X019521Y009349D03*
X019718Y006908D03*
X020190Y006908D03*
X020781Y005491D03*
X020781Y005097D03*
X020781Y004723D03*
X020781Y004329D03*
X024363Y006042D03*
X024363Y006790D03*
X027340Y004947D03*
X027907Y006199D03*
X028143Y006672D03*
X028143Y007223D03*
X013615Y004073D03*
X009540Y003857D03*
X006981Y007567D03*
X006588Y007567D03*
X008635Y010018D03*
X010082Y008975D03*
X010377Y008975D03*
X010377Y008670D03*
X010082Y008670D03*
X010544Y008207D03*
X003241Y009093D03*
X012198Y017400D03*
D22*
X014373Y017439D03*
X014767Y017439D03*
X015161Y017439D03*
X015161Y017833D03*
X014767Y017833D03*
X014373Y017833D03*
X016224Y017479D03*
X016568Y016081D03*
X014871Y016176D03*
X014875Y014290D03*
X011954Y013542D03*
X011210Y013735D03*
X010214Y013593D03*
X009048Y014349D03*
X008615Y014349D03*
X008143Y014349D03*
X006458Y014306D03*
X006509Y012459D03*
X005544Y012459D03*
X004599Y012459D03*
X005328Y011278D03*
X006529Y011278D03*
X004245Y009723D03*
X004729Y008124D03*
X004725Y007743D03*
X003399Y008030D03*
X003320Y006317D03*
X003312Y005601D03*
X004733Y005345D03*
X004733Y004920D03*
X005300Y005329D03*
X005694Y005617D03*
X006076Y005861D03*
X006450Y006081D03*
X006804Y006239D03*
X007277Y006042D03*
X008773Y004565D03*
X008182Y003995D03*
X009757Y005215D03*
X009846Y005983D03*
X010249Y005983D03*
X011302Y006032D03*
X011617Y006032D03*
X013418Y005707D03*
X013536Y004644D03*
X014245Y003916D03*
X014718Y003916D03*
X015190Y003916D03*
X015662Y003916D03*
X016135Y003916D03*
X016607Y003916D03*
X017277Y004743D03*
X017749Y004743D03*
X017277Y005058D03*
X016174Y005333D03*
X015387Y005333D03*
X015387Y006121D03*
X016174Y006121D03*
X016174Y006829D03*
X015859Y006829D03*
X015544Y006829D03*
X015544Y007144D03*
X015544Y007459D03*
X015544Y007774D03*
X015859Y007774D03*
X015859Y007459D03*
X015859Y007144D03*
X016174Y007144D03*
X016174Y007459D03*
X016174Y007774D03*
X016174Y008089D03*
X015859Y008089D03*
X015544Y008089D03*
X015387Y008876D03*
X016174Y008876D03*
X016174Y009664D03*
X015387Y009664D03*
X014403Y010195D03*
X013812Y010254D03*
X013517Y011160D03*
X013202Y011160D03*
X011509Y011731D03*
X011509Y012439D03*
X009670Y012447D03*
X009029Y012065D03*
X009029Y011613D03*
X009666Y011735D03*
X006922Y009369D03*
X004777Y006278D03*
X004875Y005845D03*
X004257Y004223D03*
X003536Y004231D03*
X000505Y006317D03*
X000584Y009821D03*
X003694Y019979D03*
X003930Y022223D03*
X003340Y022223D03*
X015239Y020353D03*
X019117Y020412D03*
X019117Y020707D03*
X019107Y021613D03*
X020151Y021770D03*
X024324Y017715D03*
X024304Y016869D03*
X024639Y015510D03*
X025131Y014743D03*
X025407Y014743D03*
X025682Y014743D03*
X025958Y014743D03*
X026233Y014743D03*
X026233Y014467D03*
X025958Y014467D03*
X025682Y014467D03*
X025407Y014467D03*
X025131Y014467D03*
X026273Y015530D03*
X028162Y015530D03*
X028753Y014841D03*
X028753Y014565D03*
X029029Y014565D03*
X029304Y014565D03*
X029580Y014565D03*
X029855Y014565D03*
X029855Y014841D03*
X029580Y014841D03*
X029304Y014841D03*
X029029Y014841D03*
X027828Y016869D03*
X027828Y017735D03*
X022848Y015510D03*
X022907Y014703D03*
X022907Y014428D03*
X022631Y014428D03*
X022631Y014703D03*
X022355Y014703D03*
X022080Y014703D03*
X022080Y014428D03*
X022355Y014428D03*
X021804Y014428D03*
X021804Y014703D03*
X018340Y016770D03*
X018320Y009841D03*
X020269Y007577D03*
X022848Y008128D03*
X024304Y009664D03*
X026273Y008168D03*
X027808Y009664D03*
X031804Y007617D03*
X031814Y007036D03*
X026292Y005530D03*
X026017Y005530D03*
X025741Y005530D03*
X025466Y005530D03*
X025190Y005530D03*
X025190Y005254D03*
X025190Y004979D03*
X025466Y004979D03*
X025741Y004979D03*
X025741Y005254D03*
X025466Y005254D03*
X026017Y005254D03*
X026017Y004979D03*
X026292Y004979D03*
X026292Y005254D03*
X026292Y004703D03*
X026017Y004703D03*
X025741Y004703D03*
X025466Y004703D03*
X025190Y004703D03*
X022867Y004664D03*
X022592Y004664D03*
X022592Y004939D03*
X022867Y004939D03*
X022867Y005215D03*
X022592Y005215D03*
X022592Y005491D03*
X022867Y005491D03*
X022316Y005491D03*
X022040Y005491D03*
X021765Y005491D03*
X021765Y005215D03*
X022040Y005215D03*
X022040Y004939D03*
X022040Y004664D03*
X021765Y004664D03*
X021765Y004939D03*
X022316Y004939D03*
X022316Y004664D03*
X022316Y005215D03*
X018379Y004310D03*
X018379Y003916D03*
D23*
X001279Y003867D02*
X001270Y003871D01*
X001649Y003775D01*
X002110Y003814D01*
X002533Y003999D01*
X002533Y003999D01*
X002874Y004313D01*
X003094Y004719D01*
X003094Y004719D01*
X003170Y005176D01*
X003147Y005312D01*
X003513Y005312D01*
X003601Y005400D01*
X003601Y005802D01*
X003513Y005890D01*
X003111Y005890D01*
X003023Y005802D01*
X003023Y005762D01*
X002874Y006039D01*
X002874Y006039D01*
X002874Y006039D01*
X002533Y006352D01*
X002110Y006538D01*
X001649Y006576D01*
X001649Y006576D01*
X001200Y006462D01*
X000813Y006209D01*
X000529Y005844D01*
X000379Y005407D01*
X000379Y004976D01*
X000353Y005073D01*
X000340Y005271D01*
X000340Y007557D01*
X000370Y007557D01*
X000562Y007538D01*
X000563Y007533D01*
X000566Y007530D01*
X000440Y007375D01*
X000415Y007350D01*
X000410Y007338D01*
X000402Y007329D01*
X000392Y007295D01*
X000378Y007262D01*
X000378Y007249D01*
X000375Y007237D01*
X000378Y007202D01*
X000378Y007167D01*
X000383Y007155D01*
X000384Y007143D01*
X000401Y007111D01*
X000415Y007079D01*
X000423Y007070D01*
X000429Y007059D01*
X000457Y007036D01*
X000643Y006850D01*
X000666Y006823D01*
X000677Y006817D01*
X000686Y006808D01*
X000718Y006794D01*
X000750Y006777D01*
X000762Y006776D01*
X000774Y006771D01*
X000809Y006771D01*
X000844Y006768D01*
X000856Y006771D01*
X000869Y006771D01*
X000902Y006785D01*
X000936Y006795D01*
X000945Y006803D01*
X000957Y006808D01*
X000982Y006833D01*
X001149Y006969D01*
X001165Y006962D01*
X001190Y006952D01*
X001285Y006952D01*
X001336Y006973D01*
X001373Y006988D01*
X001440Y007056D01*
X001461Y007104D01*
X001548Y007316D01*
X001650Y007070D01*
X001656Y007056D01*
X001656Y007056D01*
X001656Y007056D01*
X001723Y006988D01*
X001786Y006963D01*
X001811Y006952D01*
X001907Y006952D01*
X001948Y006969D01*
X002115Y006833D01*
X002140Y006808D01*
X002151Y006803D01*
X002161Y006795D01*
X002195Y006785D01*
X002228Y006771D01*
X002240Y006771D01*
X002252Y006768D01*
X002288Y006771D01*
X002323Y006771D01*
X002335Y006776D01*
X002347Y006777D01*
X002378Y006794D01*
X002411Y006808D01*
X002420Y006817D01*
X002431Y006823D01*
X002453Y006850D01*
X002640Y007036D01*
X002667Y007059D01*
X002673Y007070D01*
X002682Y007079D01*
X002696Y007111D01*
X002712Y007143D01*
X002714Y007155D01*
X002718Y007167D01*
X002718Y007202D01*
X002722Y007237D01*
X002718Y007249D01*
X002718Y007262D01*
X002705Y007295D01*
X002695Y007329D01*
X002687Y007338D01*
X002682Y007350D01*
X002657Y007375D01*
X002531Y007530D01*
X002533Y007533D01*
X002533Y007533D01*
X002534Y007538D01*
X002733Y007558D01*
X002768Y007558D01*
X002780Y007563D01*
X002792Y007564D01*
X002823Y007581D01*
X002856Y007595D01*
X002865Y007603D01*
X002876Y007609D01*
X002898Y007637D01*
X002924Y007662D01*
X002928Y007673D01*
X002936Y007683D01*
X002946Y007717D01*
X002960Y007750D01*
X002960Y007762D01*
X002964Y007774D01*
X002960Y007810D01*
X002960Y008073D01*
X002964Y008109D01*
X002960Y008120D01*
X002960Y008133D01*
X002946Y008166D01*
X002936Y008200D01*
X002928Y008209D01*
X002924Y008221D01*
X002898Y008246D01*
X002876Y008274D01*
X002865Y008279D01*
X002856Y008288D01*
X002823Y008302D01*
X002792Y008319D01*
X002780Y008320D01*
X002768Y008325D01*
X002733Y008325D01*
X002534Y008345D01*
X002533Y008349D01*
X002533Y008349D01*
X002531Y008353D01*
X002657Y008508D01*
X002682Y008533D01*
X002687Y008545D01*
X002695Y008554D01*
X002705Y008588D01*
X002718Y008621D01*
X002718Y008633D01*
X002722Y008645D01*
X002718Y008681D01*
X002718Y008716D01*
X002714Y008728D01*
X002712Y008740D01*
X002696Y008771D01*
X002682Y008804D01*
X002673Y008813D01*
X002667Y008824D01*
X002640Y008846D01*
X002453Y009033D01*
X002431Y009060D01*
X002420Y009066D01*
X002411Y009075D01*
X002378Y009089D01*
X002347Y009105D01*
X002335Y009107D01*
X002323Y009112D01*
X002288Y009112D01*
X002252Y009115D01*
X002240Y009112D01*
X002228Y009112D01*
X002195Y009098D01*
X002161Y009088D01*
X002151Y009080D01*
X002140Y009075D01*
X002115Y009050D01*
X001960Y008924D01*
X001956Y008926D01*
X001952Y008927D01*
X001932Y009126D01*
X001932Y009161D01*
X001927Y009173D01*
X001926Y009185D01*
X001909Y009217D01*
X001895Y009249D01*
X001886Y009258D01*
X001880Y009269D01*
X001853Y009292D01*
X001828Y009317D01*
X001816Y009321D01*
X001807Y009329D01*
X001773Y009340D01*
X001740Y009353D01*
X001727Y009353D01*
X001715Y009357D01*
X001680Y009353D01*
X001416Y009353D01*
X001381Y009357D01*
X001369Y009353D01*
X001357Y009353D01*
X001324Y009340D01*
X001290Y009329D01*
X001280Y009321D01*
X001269Y009317D01*
X001244Y009292D01*
X001216Y009269D01*
X001210Y009258D01*
X001201Y009249D01*
X001188Y009217D01*
X001171Y009185D01*
X001170Y009173D01*
X001165Y009161D01*
X001165Y009126D01*
X001145Y008927D01*
X001140Y008926D01*
X001136Y008924D01*
X000982Y009050D01*
X000957Y009075D01*
X000945Y009080D01*
X000936Y009088D01*
X000902Y009098D01*
X000869Y009112D01*
X000856Y009112D01*
X000844Y009115D01*
X000809Y009112D01*
X000774Y009112D01*
X000762Y009107D01*
X000750Y009105D01*
X000718Y009089D01*
X000686Y009075D01*
X000677Y009066D01*
X000666Y009060D01*
X000643Y009033D01*
X000457Y008846D01*
X000429Y008824D01*
X000423Y008813D01*
X000415Y008804D01*
X000401Y008771D01*
X000384Y008740D01*
X000383Y008728D01*
X000378Y008716D01*
X000378Y008681D01*
X000375Y008645D01*
X000378Y008633D01*
X000378Y008621D01*
X000392Y008588D01*
X000402Y008554D01*
X000410Y008545D01*
X000415Y008533D01*
X000440Y008508D01*
X000566Y008353D01*
X000563Y008349D01*
X000562Y008345D01*
X000370Y008325D01*
X000340Y008325D01*
X000340Y010387D01*
X000341Y010385D01*
X000501Y010225D01*
X000711Y010138D01*
X000937Y010138D01*
X001147Y010225D01*
X001307Y010385D01*
X001330Y010441D01*
X001383Y010313D01*
X001529Y010167D01*
X001720Y010088D01*
X001927Y010088D01*
X002118Y010167D01*
X002265Y010313D01*
X002344Y010505D01*
X002344Y010711D01*
X002265Y010903D01*
X002118Y011049D01*
X001927Y011128D01*
X001720Y011128D01*
X001529Y011049D01*
X001383Y010903D01*
X001372Y010875D01*
X001307Y011031D01*
X001147Y011191D01*
X000937Y011278D01*
X000711Y011278D01*
X000501Y011191D01*
X000341Y011031D01*
X000340Y011029D01*
X000340Y021269D01*
X000353Y021437D01*
X000353Y021437D01*
X000458Y021759D01*
X000656Y022032D01*
X000930Y022231D01*
X001251Y022335D01*
X001420Y022348D01*
X003051Y022348D01*
X003051Y022022D01*
X003139Y021934D01*
X003541Y021934D01*
X003628Y022022D01*
X003628Y022348D01*
X003641Y022348D01*
X003641Y022022D01*
X003729Y021934D01*
X004131Y021934D01*
X004219Y022022D01*
X004219Y022348D01*
X011054Y022348D01*
X010925Y022219D01*
X010767Y022062D01*
X010694Y021885D01*
X010694Y021123D01*
X010767Y020947D01*
X010902Y020812D01*
X011079Y020739D01*
X011270Y020739D01*
X011446Y020812D01*
X011581Y020947D01*
X011654Y021123D01*
X011654Y021467D01*
X013175Y021467D01*
X013175Y017994D01*
X013248Y017817D01*
X013700Y017364D01*
X013808Y017257D01*
X013808Y016998D01*
X013845Y016910D01*
X013912Y016842D01*
X014001Y016806D01*
X015612Y016806D01*
X015700Y016842D01*
X015768Y016910D01*
X015804Y016998D01*
X015804Y018294D01*
X015768Y018382D01*
X015700Y018450D01*
X015612Y018487D01*
X014135Y018487D01*
X014135Y021767D01*
X014062Y021944D01*
X013927Y022079D01*
X013657Y022348D01*
X031306Y022348D01*
X031464Y022338D01*
X031771Y022256D01*
X032045Y022098D01*
X032269Y021873D01*
X032428Y021599D01*
X032510Y021293D01*
X032520Y021134D01*
X032269Y021134D01*
X032252Y021232D02*
X032514Y021232D01*
X032520Y021134D02*
X032520Y005188D01*
X032508Y005000D01*
X032411Y004638D01*
X032223Y004313D01*
X031958Y004048D01*
X031633Y003860D01*
X031271Y003763D01*
X031083Y003751D01*
X028986Y003751D01*
X029051Y003816D01*
X029051Y004590D01*
X028963Y004678D01*
X028189Y004678D01*
X028101Y004590D01*
X028101Y003816D01*
X028166Y003751D01*
X013187Y003751D01*
X013325Y003888D01*
X013325Y004095D01*
X013326Y004093D01*
X013325Y004093D01*
X013326Y004093D02*
X013326Y003954D01*
X013496Y003785D01*
X013735Y003785D01*
X013904Y003954D01*
X013904Y004193D01*
X013775Y004322D01*
X013875Y004423D01*
X013875Y004866D01*
X013758Y004983D01*
X013315Y004983D01*
X013275Y004943D01*
X013275Y005340D01*
X013246Y005368D01*
X013640Y005368D01*
X013757Y005486D01*
X013757Y005929D01*
X013640Y006046D01*
X013197Y006046D01*
X013098Y005947D01*
X011175Y005947D01*
X010528Y006594D01*
X010528Y007192D01*
X010492Y007280D01*
X009328Y008444D01*
X009328Y011351D01*
X009367Y011391D01*
X009367Y011834D01*
X009363Y011839D01*
X009367Y011844D01*
X009367Y012287D01*
X009250Y012404D01*
X009158Y012404D01*
X009382Y012628D01*
X009382Y012246D01*
X009469Y012159D01*
X009871Y012159D01*
X009959Y012246D01*
X009959Y012648D01*
X009871Y012736D01*
X009490Y012736D01*
X009719Y012965D01*
X011677Y012965D01*
X011769Y013003D01*
X011969Y013203D01*
X012175Y013203D01*
X012293Y013320D01*
X012293Y013763D01*
X012175Y013881D01*
X011732Y013881D01*
X011615Y013763D01*
X011615Y013557D01*
X011523Y013465D01*
X011430Y013465D01*
X011498Y013534D01*
X011498Y013936D01*
X011411Y014023D01*
X011009Y014023D01*
X010921Y013936D01*
X010921Y013534D01*
X010990Y013465D01*
X010552Y013465D01*
X010552Y013815D01*
X010435Y013932D01*
X009992Y013932D01*
X009895Y013835D01*
X009479Y013835D01*
X009387Y013797D01*
X006867Y011277D01*
X006867Y011500D01*
X006750Y011617D01*
X006307Y011617D01*
X006190Y011500D01*
X006190Y011056D01*
X006307Y010939D01*
X006529Y010939D01*
X006370Y010780D01*
X006307Y010931D01*
X006147Y011091D01*
X005937Y011178D01*
X005711Y011178D01*
X005667Y011160D01*
X005667Y011500D01*
X005549Y011617D01*
X005106Y011617D01*
X004989Y011500D01*
X004989Y011256D01*
X004937Y011278D01*
X004711Y011278D01*
X004501Y011191D01*
X004341Y011031D01*
X004276Y010875D01*
X004265Y010903D01*
X004118Y011049D01*
X003927Y011128D01*
X003720Y011128D01*
X003529Y011049D01*
X003383Y010903D01*
X003304Y010711D01*
X003304Y010505D01*
X003383Y010313D01*
X003529Y010167D01*
X003624Y010128D01*
X003624Y008294D01*
X003600Y008319D01*
X003198Y008319D01*
X003110Y008231D01*
X003110Y007829D01*
X003198Y007741D01*
X003600Y007741D01*
X003687Y007829D01*
X003687Y008136D01*
X004163Y007660D01*
X004280Y007543D01*
X004311Y007543D01*
X004241Y007514D01*
X003867Y007140D01*
X003797Y007069D01*
X003759Y006977D01*
X003759Y004870D01*
X003797Y004778D01*
X003895Y004680D01*
X003966Y004609D01*
X004058Y004571D01*
X004685Y004571D01*
X004708Y004581D01*
X004955Y004581D01*
X005072Y004698D01*
X005072Y004997D01*
X005079Y004990D01*
X005522Y004990D01*
X005639Y005108D01*
X005639Y005278D01*
X005916Y005278D01*
X006033Y005395D01*
X006033Y005522D01*
X006297Y005522D01*
X006415Y005639D01*
X006415Y005742D01*
X006671Y005742D01*
X006789Y005860D01*
X006789Y005900D01*
X006938Y005900D01*
X006938Y005820D01*
X007055Y005703D01*
X007498Y005703D01*
X007615Y005820D01*
X007615Y006263D01*
X007498Y006381D01*
X007143Y006381D01*
X007143Y006460D01*
X007026Y006577D01*
X006583Y006577D01*
X006465Y006460D01*
X006465Y006420D01*
X006228Y006420D01*
X006111Y006303D01*
X006111Y006199D01*
X005854Y006199D01*
X005737Y006082D01*
X005737Y005955D01*
X005472Y005955D01*
X005355Y005838D01*
X005355Y005668D01*
X005214Y005668D01*
X005214Y006067D01*
X005115Y006165D01*
X005115Y006500D01*
X004998Y006617D01*
X004555Y006617D01*
X004515Y006577D01*
X004515Y006608D01*
X004723Y006815D01*
X005122Y006815D01*
X005214Y006853D01*
X005284Y006924D01*
X005559Y007199D01*
X005598Y007291D01*
X005598Y007391D01*
X005588Y007415D01*
X005588Y008848D01*
X006339Y009599D01*
X006363Y009609D01*
X006603Y009609D01*
X006584Y009590D02*
X006584Y009147D01*
X006701Y009030D01*
X007144Y009030D01*
X007261Y009147D01*
X007261Y009565D01*
X007474Y009778D01*
X008396Y009778D01*
X008495Y009679D01*
X008775Y009679D01*
X008848Y009752D01*
X008848Y008297D01*
X008884Y008209D01*
X008952Y008141D01*
X010048Y007045D01*
X010048Y006447D01*
X010085Y006359D01*
X007520Y006359D01*
X007615Y006260D02*
X010037Y006260D01*
X010048Y006271D02*
X009960Y006184D01*
X009960Y005782D01*
X010048Y005694D01*
X010450Y005694D01*
X010538Y005782D01*
X010538Y005906D01*
X010749Y005694D01*
X010519Y005694D01*
X010185Y005361D01*
X010185Y004888D01*
X010259Y004814D01*
X009757Y004814D01*
X009646Y004703D01*
X009350Y004408D01*
X009350Y004075D01*
X009252Y003976D01*
X009252Y003751D01*
X001860Y003751D01*
X001662Y003764D01*
X001279Y003867D01*
X001535Y003798D02*
X001560Y003798D01*
X001649Y003775D02*
X001649Y003775D01*
X001919Y003798D02*
X009252Y003798D01*
X009252Y003896D02*
X002298Y003896D01*
X002110Y003814D02*
X002110Y003814D01*
X002523Y003995D02*
X003995Y003995D01*
X003968Y004022D02*
X004056Y003934D01*
X004458Y003934D01*
X004546Y004022D01*
X004546Y004424D01*
X004458Y004512D01*
X004056Y004512D01*
X003968Y004424D01*
X003968Y004022D01*
X003968Y004093D02*
X002635Y004093D01*
X002742Y004192D02*
X003968Y004192D01*
X003968Y004290D02*
X002849Y004290D01*
X002874Y004313D02*
X002874Y004313D01*
X002915Y004389D02*
X003968Y004389D01*
X004032Y004487D02*
X002968Y004487D01*
X003021Y004586D02*
X004023Y004586D01*
X003891Y004684D02*
X003075Y004684D01*
X003104Y004783D02*
X003795Y004783D01*
X003759Y004881D02*
X003121Y004881D01*
X003137Y004980D02*
X003759Y004980D01*
X003759Y005078D02*
X003154Y005078D01*
X003170Y005177D02*
X003759Y005177D01*
X003759Y005275D02*
X003153Y005275D01*
X003575Y005374D02*
X003759Y005374D01*
X003759Y005472D02*
X003601Y005472D01*
X003601Y005571D02*
X003759Y005571D01*
X003759Y005669D02*
X003601Y005669D01*
X003601Y005768D02*
X003759Y005768D01*
X003759Y005866D02*
X003536Y005866D01*
X003759Y005965D02*
X002914Y005965D01*
X002967Y005866D02*
X003088Y005866D01*
X003023Y005768D02*
X003020Y005768D01*
X002847Y006063D02*
X003759Y006063D01*
X003759Y006162D02*
X002740Y006162D01*
X002633Y006260D02*
X003759Y006260D01*
X003759Y006359D02*
X002517Y006359D01*
X002533Y006352D02*
X002533Y006352D01*
X002293Y006457D02*
X003759Y006457D01*
X003759Y006556D02*
X001890Y006556D01*
X002110Y006538D02*
X002110Y006538D01*
X002092Y006851D02*
X001005Y006851D01*
X001125Y006950D02*
X001971Y006950D01*
X001663Y007048D02*
X001433Y007048D01*
X001440Y007056D02*
X001440Y007056D01*
X001478Y007147D02*
X001618Y007147D01*
X001578Y007245D02*
X001519Y007245D01*
X001570Y006556D02*
X000340Y006556D01*
X000340Y006654D02*
X003759Y006654D01*
X003759Y006753D02*
X000340Y006753D01*
X000340Y006851D02*
X000642Y006851D01*
X000543Y006950D02*
X000340Y006950D01*
X000340Y007048D02*
X000442Y007048D01*
X000384Y007147D02*
X000340Y007147D01*
X000340Y007245D02*
X000377Y007245D01*
X000340Y007344D02*
X000412Y007344D01*
X000340Y007442D02*
X000495Y007442D01*
X000533Y007541D02*
X000340Y007541D01*
X000563Y007533D02*
X000563Y007533D01*
X000405Y008329D02*
X000340Y008329D01*
X000340Y008427D02*
X000505Y008427D01*
X000563Y008349D02*
X000563Y008349D01*
X000422Y008526D02*
X000340Y008526D01*
X000340Y008624D02*
X000378Y008624D01*
X000381Y008723D02*
X000340Y008723D01*
X000340Y008821D02*
X000428Y008821D01*
X000340Y008920D02*
X000530Y008920D01*
X000629Y009018D02*
X000340Y009018D01*
X000340Y009117D02*
X001164Y009117D01*
X001154Y009018D02*
X001021Y009018D01*
X001140Y008926D02*
X001140Y008926D01*
X001187Y009215D02*
X000340Y009215D01*
X000340Y009314D02*
X001266Y009314D01*
X001831Y009314D02*
X003054Y009314D01*
X003122Y009382D02*
X002952Y009213D01*
X002952Y008973D01*
X003122Y008804D01*
X003361Y008804D01*
X003530Y008973D01*
X003530Y009213D01*
X003361Y009382D01*
X003122Y009382D01*
X002955Y009215D02*
X001909Y009215D01*
X001933Y009117D02*
X002952Y009117D01*
X002952Y009018D02*
X002468Y009018D01*
X002566Y008920D02*
X003006Y008920D01*
X003104Y008821D02*
X002669Y008821D01*
X002716Y008723D02*
X003624Y008723D01*
X003624Y008821D02*
X003378Y008821D01*
X003476Y008920D02*
X003624Y008920D01*
X003624Y009018D02*
X003530Y009018D01*
X003530Y009117D02*
X003624Y009117D01*
X003624Y009215D02*
X003527Y009215D01*
X003624Y009314D02*
X003429Y009314D01*
X003624Y009412D02*
X000340Y009412D01*
X000340Y009511D02*
X003624Y009511D01*
X003624Y009609D02*
X000340Y009609D01*
X000340Y009708D02*
X003624Y009708D01*
X003624Y009806D02*
X000340Y009806D01*
X000340Y009905D02*
X003624Y009905D01*
X003624Y010003D02*
X000340Y010003D01*
X000340Y010102D02*
X001687Y010102D01*
X001496Y010200D02*
X001088Y010200D01*
X001221Y010299D02*
X001398Y010299D01*
X001348Y010397D02*
X001312Y010397D01*
X001366Y010890D02*
X001378Y010890D01*
X001325Y010988D02*
X001469Y010988D01*
X001621Y011087D02*
X001251Y011087D01*
X001153Y011185D02*
X004495Y011185D01*
X004397Y011087D02*
X004026Y011087D01*
X004179Y010988D02*
X004323Y010988D01*
X004282Y010890D02*
X004270Y010890D01*
X003824Y010608D02*
X003824Y008282D01*
X004363Y007743D01*
X004725Y007743D01*
X005111Y007577D02*
X004836Y007302D01*
X004383Y007302D01*
X004009Y006928D01*
X004009Y004920D01*
X004107Y004821D01*
X004635Y004821D01*
X004733Y004920D01*
X004674Y004861D01*
X004960Y004586D02*
X008484Y004586D01*
X008484Y004684D02*
X005058Y004684D01*
X005072Y004783D02*
X008501Y004783D01*
X008484Y004766D02*
X008484Y004365D01*
X008572Y004277D01*
X008974Y004277D01*
X009061Y004365D01*
X009061Y004766D01*
X008974Y004854D01*
X008572Y004854D01*
X008484Y004766D01*
X008484Y004487D02*
X004482Y004487D01*
X004546Y004389D02*
X008484Y004389D01*
X008558Y004290D02*
X004546Y004290D01*
X004546Y004192D02*
X009350Y004192D01*
X009350Y004290D02*
X008987Y004290D01*
X009061Y004389D02*
X009350Y004389D01*
X009430Y004487D02*
X009061Y004487D01*
X009061Y004586D02*
X009528Y004586D01*
X009627Y004684D02*
X009061Y004684D01*
X009045Y004783D02*
X009725Y004783D01*
X009556Y004926D02*
X009958Y004926D01*
X010046Y005014D01*
X010046Y005416D01*
X009958Y005504D01*
X009556Y005504D01*
X009468Y005416D01*
X009468Y005014D01*
X009556Y004926D01*
X009503Y004980D02*
X005072Y004980D01*
X005072Y004881D02*
X010192Y004881D01*
X010185Y004980D02*
X010011Y004980D01*
X010046Y005078D02*
X010185Y005078D01*
X010185Y005177D02*
X010046Y005177D01*
X010046Y005275D02*
X010185Y005275D01*
X010198Y005374D02*
X010046Y005374D01*
X009989Y005472D02*
X010297Y005472D01*
X010395Y005571D02*
X006346Y005571D01*
X006415Y005669D02*
X010494Y005669D01*
X010524Y005768D02*
X010676Y005768D01*
X010577Y005866D02*
X010538Y005866D01*
X009974Y005768D02*
X007563Y005768D01*
X007615Y005866D02*
X009960Y005866D01*
X009960Y005965D02*
X007615Y005965D01*
X007615Y006063D02*
X009960Y006063D01*
X009960Y006162D02*
X007615Y006162D01*
X007143Y006457D02*
X010048Y006457D01*
X010048Y006556D02*
X007047Y006556D01*
X006561Y006556D02*
X005059Y006556D01*
X005115Y006457D02*
X006465Y006457D01*
X006167Y006359D02*
X005115Y006359D01*
X005115Y006260D02*
X006111Y006260D01*
X005817Y006162D02*
X005118Y006162D01*
X005214Y006063D02*
X005737Y006063D01*
X005737Y005965D02*
X005214Y005965D01*
X005214Y005866D02*
X005383Y005866D01*
X005355Y005768D02*
X005214Y005768D01*
X005214Y005669D02*
X005355Y005669D01*
X005639Y005275D02*
X009468Y005275D01*
X009468Y005177D02*
X005639Y005177D01*
X005610Y005078D02*
X009468Y005078D01*
X009468Y005374D02*
X006012Y005374D01*
X006033Y005472D02*
X009525Y005472D01*
X010048Y006271D02*
X010172Y006271D01*
X010153Y006291D01*
X010085Y006359D01*
X010567Y006556D02*
X019528Y006556D01*
X019528Y006534D02*
X019646Y006416D01*
X019757Y006305D01*
X020544Y006305D01*
X021194Y006954D01*
X021259Y006954D01*
X020645Y006340D01*
X020577Y006272D01*
X020541Y006184D01*
X020541Y005730D01*
X020442Y005631D01*
X020442Y005350D01*
X020498Y005294D01*
X020442Y005237D01*
X020442Y004957D01*
X020489Y004910D01*
X020442Y004863D01*
X020442Y004583D01*
X020534Y004491D01*
X020492Y004449D01*
X020492Y004210D01*
X020661Y004040D01*
X020786Y004040D01*
X020858Y003963D01*
X020858Y003959D01*
X020912Y003906D01*
X020963Y003851D01*
X020967Y003851D01*
X020970Y003848D01*
X021045Y003848D01*
X021120Y003845D01*
X021123Y003848D01*
X026882Y003848D01*
X026884Y003846D01*
X026960Y003848D01*
X027036Y003848D01*
X027038Y003850D01*
X027041Y003850D01*
X027094Y003905D01*
X027148Y003959D01*
X027148Y003962D01*
X027480Y004311D01*
X027534Y004365D01*
X027534Y004367D01*
X027535Y004369D01*
X027534Y004446D01*
X027534Y004733D01*
X027628Y004828D01*
X027628Y005067D01*
X027459Y005236D01*
X027417Y005236D01*
X028041Y005861D01*
X028047Y005861D01*
X028245Y006059D01*
X028245Y006340D01*
X028202Y006383D01*
X028262Y006383D01*
X028432Y006552D01*
X028432Y006791D01*
X028311Y006912D01*
X028482Y007083D01*
X028482Y007363D01*
X028283Y007562D01*
X028143Y007562D01*
X028121Y007584D01*
X028033Y007620D01*
X025356Y007620D01*
X025708Y007973D01*
X025745Y008061D01*
X025745Y008243D01*
X025934Y008243D01*
X025934Y007946D01*
X026051Y007829D01*
X026494Y007829D01*
X026553Y007888D01*
X027569Y007888D01*
X027671Y007930D01*
X027750Y008009D01*
X028046Y008304D01*
X028088Y008407D01*
X028088Y009384D01*
X028147Y009442D01*
X028147Y009885D01*
X028030Y010003D01*
X027587Y010003D01*
X027469Y009885D01*
X027469Y009442D01*
X027528Y009384D01*
X027528Y008579D01*
X027397Y008448D01*
X027359Y008448D01*
X027359Y010211D01*
X028257Y010211D01*
X028257Y008396D01*
X028294Y008307D01*
X028361Y008240D01*
X028449Y008203D01*
X030789Y008203D01*
X030877Y008240D01*
X030945Y008307D01*
X030981Y008396D01*
X030981Y011933D01*
X031574Y011933D01*
X031574Y008257D01*
X031235Y007918D01*
X031168Y007851D01*
X031131Y007763D01*
X031131Y007431D01*
X031168Y007343D01*
X031475Y007035D01*
X031475Y006814D01*
X031592Y006697D01*
X032036Y006697D01*
X032153Y006814D01*
X032153Y007257D01*
X032079Y007331D01*
X032143Y007395D01*
X032143Y007498D01*
X032255Y007610D01*
X032323Y007678D01*
X032359Y007766D01*
X032359Y017507D01*
X032323Y017595D01*
X032255Y017663D01*
X031241Y018676D01*
X031153Y018713D01*
X021127Y018713D01*
X021038Y018676D01*
X020971Y018609D01*
X020577Y018215D01*
X020541Y018127D01*
X020541Y010196D01*
X020170Y009825D01*
X020030Y009825D01*
X019832Y009627D01*
X019832Y009517D01*
X019661Y009688D01*
X019380Y009688D01*
X019182Y009489D01*
X019182Y009209D01*
X019380Y009010D01*
X019658Y009010D01*
X019759Y008909D01*
X019847Y008873D01*
X020976Y008873D01*
X021064Y008909D01*
X021132Y008977D01*
X021407Y009252D01*
X021407Y008435D01*
X021443Y008347D01*
X021511Y008279D01*
X021599Y008243D01*
X022509Y008243D01*
X022509Y007907D01*
X022520Y007896D01*
X020536Y007896D01*
X020518Y007888D01*
X020490Y007916D01*
X020047Y007916D01*
X019930Y007799D01*
X019930Y007356D01*
X020044Y007241D01*
X019918Y007115D01*
X019837Y007197D01*
X019598Y007197D01*
X019429Y007028D01*
X019429Y006788D01*
X019528Y006690D01*
X019528Y006534D01*
X019604Y006457D02*
X010665Y006457D01*
X010764Y006359D02*
X019703Y006359D01*
X019528Y006654D02*
X010528Y006654D01*
X010528Y006753D02*
X019464Y006753D01*
X019429Y006851D02*
X010528Y006851D01*
X010528Y006950D02*
X019429Y006950D01*
X019450Y007048D02*
X010528Y007048D01*
X010528Y007147D02*
X019548Y007147D01*
X019887Y007147D02*
X019950Y007147D01*
X020040Y007245D02*
X010506Y007245D01*
X010428Y007344D02*
X019942Y007344D01*
X019930Y007442D02*
X010330Y007442D01*
X010231Y007541D02*
X019930Y007541D01*
X019930Y007639D02*
X010133Y007639D01*
X010034Y007738D02*
X019930Y007738D01*
X019968Y007836D02*
X009936Y007836D01*
X009837Y007935D02*
X010338Y007935D01*
X010404Y007868D02*
X010685Y007868D01*
X010883Y008067D01*
X010883Y008347D01*
X010685Y008546D01*
X010404Y008546D01*
X010206Y008347D01*
X010206Y008067D01*
X010404Y007868D01*
X010239Y008033D02*
X009739Y008033D01*
X009640Y008132D02*
X010206Y008132D01*
X010206Y008230D02*
X009542Y008230D01*
X009443Y008329D02*
X010206Y008329D01*
X010286Y008427D02*
X009345Y008427D01*
X009328Y008526D02*
X010384Y008526D01*
X010705Y008526D02*
X021407Y008526D01*
X021407Y008624D02*
X009328Y008624D01*
X009328Y008723D02*
X021407Y008723D01*
X021407Y008821D02*
X009328Y008821D01*
X009328Y008920D02*
X019748Y008920D01*
X019372Y009018D02*
X009328Y009018D01*
X009328Y009117D02*
X019274Y009117D01*
X019182Y009215D02*
X009328Y009215D01*
X009328Y009314D02*
X019182Y009314D01*
X019182Y009412D02*
X009328Y009412D01*
X009328Y009511D02*
X019204Y009511D01*
X019302Y009609D02*
X018578Y009609D01*
X018609Y009640D02*
X018521Y009552D01*
X018119Y009552D01*
X018031Y009640D01*
X018031Y010042D01*
X018119Y010130D01*
X018521Y010130D01*
X018609Y010042D01*
X018609Y009640D01*
X018609Y009708D02*
X019912Y009708D01*
X019832Y009609D02*
X019739Y009609D01*
X020011Y009806D02*
X018609Y009806D01*
X018609Y009905D02*
X020249Y009905D01*
X020348Y010003D02*
X018609Y010003D01*
X018549Y010102D02*
X020446Y010102D01*
X020541Y010200D02*
X014741Y010200D01*
X014741Y010102D02*
X018091Y010102D01*
X018031Y010003D02*
X014741Y010003D01*
X014741Y009974D02*
X014624Y009857D01*
X014181Y009857D01*
X014078Y009960D01*
X014034Y009916D01*
X013591Y009916D01*
X013502Y010004D01*
X012581Y010004D01*
X012489Y010042D01*
X012419Y010113D01*
X011297Y011235D01*
X011259Y011327D01*
X011259Y011420D01*
X011170Y011509D01*
X011170Y011952D01*
X011287Y012070D01*
X011447Y012070D01*
X011415Y012101D01*
X011287Y012101D01*
X011170Y012218D01*
X011170Y012661D01*
X011287Y012778D01*
X011731Y012778D01*
X011848Y012661D01*
X011848Y012376D01*
X012025Y012199D01*
X012095Y012128D01*
X012133Y012036D01*
X012133Y011697D01*
X012892Y010937D01*
X014196Y010937D01*
X014288Y010899D01*
X014544Y010644D01*
X014615Y010573D01*
X014635Y010523D01*
X014741Y010417D01*
X014741Y009974D01*
X014672Y009905D02*
X018031Y009905D01*
X018031Y009806D02*
X009328Y009806D01*
X009328Y009708D02*
X018031Y009708D01*
X018062Y009609D02*
X009328Y009609D01*
X009328Y009905D02*
X014133Y009905D01*
X014403Y010195D02*
X014403Y010432D01*
X014147Y010687D01*
X012788Y010687D01*
X011883Y011593D01*
X011883Y011987D01*
X011509Y012361D01*
X011509Y012439D01*
X011848Y012466D02*
X020541Y012466D01*
X020541Y012564D02*
X011848Y012564D01*
X011846Y012663D02*
X020541Y012663D01*
X020541Y012761D02*
X011747Y012761D01*
X011856Y012367D02*
X020541Y012367D01*
X020541Y012269D02*
X011954Y012269D01*
X012053Y012170D02*
X020541Y012170D01*
X020541Y012072D02*
X012118Y012072D01*
X012133Y011973D02*
X020541Y011973D01*
X020541Y011875D02*
X012133Y011875D01*
X012133Y011776D02*
X020541Y011776D01*
X020541Y011678D02*
X012152Y011678D01*
X012250Y011579D02*
X020541Y011579D01*
X020541Y011481D02*
X012349Y011481D01*
X012447Y011382D02*
X020541Y011382D01*
X020541Y011284D02*
X012546Y011284D01*
X012644Y011185D02*
X020541Y011185D01*
X020541Y011087D02*
X012743Y011087D01*
X012841Y010988D02*
X020541Y010988D01*
X020541Y010890D02*
X014298Y010890D01*
X014396Y010791D02*
X020541Y010791D01*
X020541Y010693D02*
X014495Y010693D01*
X014593Y010594D02*
X020541Y010594D01*
X020541Y010496D02*
X014662Y010496D01*
X014741Y010397D02*
X020541Y010397D01*
X020541Y010299D02*
X014741Y010299D01*
X013812Y010254D02*
X012631Y010254D01*
X011509Y011376D01*
X011509Y011731D01*
X011170Y011776D02*
X009955Y011776D01*
X009955Y011678D02*
X011170Y011678D01*
X011170Y011579D02*
X009955Y011579D01*
X009955Y011534D02*
X009867Y011446D01*
X009466Y011446D01*
X009378Y011534D01*
X009378Y011936D01*
X009466Y012023D01*
X009867Y012023D01*
X009955Y011936D01*
X009955Y011534D01*
X009902Y011481D02*
X011199Y011481D01*
X011259Y011382D02*
X009359Y011382D01*
X009367Y011481D02*
X009431Y011481D01*
X009378Y011579D02*
X009367Y011579D01*
X009367Y011678D02*
X009378Y011678D01*
X009367Y011776D02*
X009378Y011776D01*
X009367Y011875D02*
X009378Y011875D01*
X009367Y011973D02*
X009415Y011973D01*
X009367Y012072D02*
X011444Y012072D01*
X011218Y012170D02*
X009883Y012170D01*
X009959Y012269D02*
X011170Y012269D01*
X011170Y012367D02*
X009959Y012367D01*
X009959Y012466D02*
X011170Y012466D01*
X011170Y012564D02*
X009959Y012564D01*
X009944Y012663D02*
X011172Y012663D01*
X011271Y012761D02*
X009515Y012761D01*
X009614Y012860D02*
X020541Y012860D01*
X020541Y012958D02*
X009712Y012958D01*
X009615Y013215D02*
X006222Y009821D01*
X006363Y009609D02*
X008690Y011936D01*
X008690Y011844D01*
X008695Y011839D01*
X008690Y011834D01*
X008690Y011391D01*
X008807Y011274D01*
X008848Y011274D01*
X008848Y010284D01*
X008775Y010357D01*
X008495Y010357D01*
X008396Y010258D01*
X007327Y010258D01*
X007239Y010222D01*
X006845Y009828D01*
X006778Y009760D01*
X006756Y009707D01*
X006701Y009707D01*
X006584Y009590D01*
X006584Y009511D02*
X006250Y009511D01*
X006152Y009412D02*
X006584Y009412D01*
X006584Y009314D02*
X006053Y009314D01*
X005955Y009215D02*
X006584Y009215D01*
X006614Y009117D02*
X005856Y009117D01*
X005758Y009018D02*
X008848Y009018D01*
X008848Y008920D02*
X005659Y008920D01*
X005588Y008821D02*
X008848Y008821D01*
X008848Y008723D02*
X005588Y008723D01*
X005588Y008624D02*
X008848Y008624D01*
X008848Y008526D02*
X005588Y008526D01*
X005588Y008427D02*
X008848Y008427D01*
X008848Y008329D02*
X005588Y008329D01*
X005588Y008230D02*
X008875Y008230D01*
X008961Y008132D02*
X005588Y008132D01*
X005588Y008033D02*
X009060Y008033D01*
X009158Y007935D02*
X005588Y007935D01*
X005588Y007836D02*
X006378Y007836D01*
X006447Y007906D02*
X006249Y007708D01*
X006249Y007427D01*
X006447Y007229D01*
X006728Y007229D01*
X006785Y007285D01*
X006841Y007229D01*
X007122Y007229D01*
X007320Y007427D01*
X007320Y007708D01*
X007122Y007906D01*
X006841Y007906D01*
X006785Y007850D01*
X006728Y007906D01*
X006447Y007906D01*
X006279Y007738D02*
X005588Y007738D01*
X005588Y007639D02*
X006249Y007639D01*
X006249Y007541D02*
X005588Y007541D01*
X005588Y007442D02*
X006249Y007442D01*
X006332Y007344D02*
X005598Y007344D01*
X005578Y007245D02*
X006431Y007245D01*
X006745Y007245D02*
X006824Y007245D01*
X007138Y007245D02*
X009848Y007245D01*
X009946Y007147D02*
X005507Y007147D01*
X005408Y007048D02*
X010045Y007048D01*
X010048Y006950D02*
X005310Y006950D01*
X005208Y006851D02*
X010048Y006851D01*
X010048Y006753D02*
X004660Y006753D01*
X004562Y006654D02*
X010048Y006654D01*
X010862Y006260D02*
X020572Y006260D01*
X020599Y006359D02*
X020664Y006359D01*
X020697Y006457D02*
X020762Y006457D01*
X020796Y006556D02*
X020861Y006556D01*
X020894Y006654D02*
X020959Y006654D01*
X020993Y006753D02*
X021058Y006753D01*
X021091Y006851D02*
X021156Y006851D01*
X021190Y006950D02*
X021255Y006950D01*
X021534Y006550D02*
X024124Y006550D01*
X024223Y006451D01*
X024504Y006451D01*
X024702Y006650D01*
X024702Y006930D01*
X024678Y006954D01*
X027592Y006954D01*
X027854Y006692D01*
X027854Y006552D01*
X027868Y006538D01*
X027766Y006538D01*
X027568Y006340D01*
X027568Y006066D01*
X026790Y005288D01*
X026753Y005200D01*
X026753Y004460D01*
X026744Y004451D01*
X021391Y004451D01*
X021391Y004604D01*
X021394Y004640D01*
X021391Y004652D01*
X021391Y004664D01*
X021377Y004697D01*
X021367Y004731D01*
X021359Y004741D01*
X021354Y004753D01*
X021329Y004778D01*
X021272Y004847D01*
X021268Y004859D01*
X021242Y004884D01*
X021220Y004912D01*
X021209Y004917D01*
X021200Y004926D01*
X021179Y004935D01*
X021201Y004957D01*
X021307Y005063D01*
X021343Y005152D01*
X021343Y005718D01*
X021427Y005802D01*
X024124Y005802D01*
X024223Y005703D01*
X024504Y005703D01*
X024702Y005901D01*
X024702Y006182D01*
X024504Y006381D01*
X024223Y006381D01*
X024124Y006282D01*
X021280Y006282D01*
X021255Y006271D01*
X021534Y006550D01*
X021441Y006457D02*
X024217Y006457D01*
X024201Y006359D02*
X021343Y006359D01*
X021393Y005768D02*
X024158Y005768D01*
X024568Y005768D02*
X027270Y005768D01*
X027368Y005866D02*
X024667Y005866D01*
X024702Y005965D02*
X027467Y005965D01*
X027565Y006063D02*
X024702Y006063D01*
X024702Y006162D02*
X027568Y006162D01*
X027568Y006260D02*
X024624Y006260D01*
X024525Y006359D02*
X027587Y006359D01*
X027686Y006457D02*
X024510Y006457D01*
X024608Y006556D02*
X027854Y006556D01*
X027854Y006654D02*
X024702Y006654D01*
X024702Y006753D02*
X027793Y006753D01*
X027694Y006851D02*
X024702Y006851D01*
X024682Y006950D02*
X027596Y006950D01*
X028349Y006950D02*
X031475Y006950D01*
X031475Y006851D02*
X028371Y006851D01*
X028432Y006753D02*
X031537Y006753D01*
X031462Y007048D02*
X028447Y007048D01*
X028482Y007147D02*
X031364Y007147D01*
X031265Y007245D02*
X028482Y007245D01*
X028482Y007344D02*
X031167Y007344D01*
X031131Y007442D02*
X028402Y007442D01*
X028304Y007541D02*
X031131Y007541D01*
X031131Y007639D02*
X025375Y007639D01*
X025474Y007738D02*
X031131Y007738D01*
X031162Y007836D02*
X026502Y007836D01*
X026044Y007836D02*
X025572Y007836D01*
X025671Y007935D02*
X025945Y007935D01*
X025934Y008033D02*
X025734Y008033D01*
X025745Y008132D02*
X025934Y008132D01*
X025934Y008230D02*
X025745Y008230D01*
X027359Y008526D02*
X027475Y008526D01*
X027528Y008624D02*
X027359Y008624D01*
X027359Y008723D02*
X027528Y008723D01*
X027528Y008821D02*
X027359Y008821D01*
X027359Y008920D02*
X027528Y008920D01*
X027528Y009018D02*
X027359Y009018D01*
X027359Y009117D02*
X027528Y009117D01*
X027528Y009215D02*
X027359Y009215D01*
X027359Y009314D02*
X027528Y009314D01*
X027499Y009412D02*
X027359Y009412D01*
X027359Y009511D02*
X027469Y009511D01*
X027469Y009609D02*
X027359Y009609D01*
X027359Y009708D02*
X027469Y009708D01*
X027469Y009806D02*
X027359Y009806D01*
X027359Y009905D02*
X027489Y009905D01*
X027359Y010003D02*
X028257Y010003D01*
X028257Y009905D02*
X028127Y009905D01*
X028147Y009806D02*
X028257Y009806D01*
X028257Y009708D02*
X028147Y009708D01*
X028147Y009609D02*
X028257Y009609D01*
X028257Y009511D02*
X028147Y009511D01*
X028117Y009412D02*
X028257Y009412D01*
X028257Y009314D02*
X028088Y009314D01*
X028088Y009215D02*
X028257Y009215D01*
X028257Y009117D02*
X028088Y009117D01*
X028088Y009018D02*
X028257Y009018D01*
X028257Y008920D02*
X028088Y008920D01*
X028088Y008821D02*
X028257Y008821D01*
X028257Y008723D02*
X028088Y008723D01*
X028088Y008624D02*
X028257Y008624D01*
X028257Y008526D02*
X028088Y008526D01*
X028088Y008427D02*
X028257Y008427D01*
X028285Y008329D02*
X028056Y008329D01*
X027971Y008230D02*
X028384Y008230D01*
X027873Y008132D02*
X031449Y008132D01*
X031547Y008230D02*
X030854Y008230D01*
X030954Y008329D02*
X031574Y008329D01*
X031574Y008427D02*
X030981Y008427D01*
X030981Y008526D02*
X031574Y008526D01*
X031574Y008624D02*
X030981Y008624D01*
X030981Y008723D02*
X031574Y008723D01*
X031574Y008821D02*
X030981Y008821D01*
X030981Y008920D02*
X031574Y008920D01*
X031574Y009018D02*
X030981Y009018D01*
X030981Y009117D02*
X031574Y009117D01*
X031574Y009215D02*
X030981Y009215D01*
X030981Y009314D02*
X031574Y009314D01*
X031574Y009412D02*
X030981Y009412D01*
X030981Y009511D02*
X031574Y009511D01*
X031574Y009609D02*
X030981Y009609D01*
X030981Y009708D02*
X031574Y009708D01*
X031574Y009806D02*
X030981Y009806D01*
X030981Y009905D02*
X031574Y009905D01*
X031574Y010003D02*
X030981Y010003D01*
X030981Y010102D02*
X031574Y010102D01*
X031574Y010200D02*
X030981Y010200D01*
X030981Y010299D02*
X031574Y010299D01*
X031574Y010397D02*
X030981Y010397D01*
X030981Y010496D02*
X031574Y010496D01*
X031574Y010594D02*
X030981Y010594D01*
X030981Y010693D02*
X031574Y010693D01*
X031574Y010791D02*
X030981Y010791D01*
X030981Y010890D02*
X031574Y010890D01*
X031574Y010988D02*
X030981Y010988D01*
X030981Y011087D02*
X031574Y011087D01*
X031574Y011185D02*
X030981Y011185D01*
X030981Y011284D02*
X031574Y011284D01*
X031574Y011382D02*
X030981Y011382D01*
X030981Y011481D02*
X031574Y011481D01*
X031574Y011579D02*
X030981Y011579D01*
X030981Y011678D02*
X031574Y011678D01*
X031574Y011776D02*
X030981Y011776D01*
X030981Y011875D02*
X031574Y011875D01*
X032359Y011875D02*
X032520Y011875D01*
X032520Y011973D02*
X032359Y011973D01*
X032359Y012072D02*
X032520Y012072D01*
X032520Y012170D02*
X032359Y012170D01*
X032359Y012269D02*
X032520Y012269D01*
X032520Y012367D02*
X032359Y012367D01*
X032359Y012466D02*
X032520Y012466D01*
X032520Y012564D02*
X032359Y012564D01*
X032359Y012663D02*
X032520Y012663D01*
X032520Y012761D02*
X032359Y012761D01*
X032359Y012860D02*
X032520Y012860D01*
X032520Y012958D02*
X032359Y012958D01*
X032359Y013057D02*
X032520Y013057D01*
X032520Y013155D02*
X032359Y013155D01*
X032359Y013254D02*
X032520Y013254D01*
X032520Y013352D02*
X032359Y013352D01*
X032359Y013451D02*
X032520Y013451D01*
X032520Y013549D02*
X032359Y013549D01*
X032359Y013648D02*
X032520Y013648D01*
X032520Y013746D02*
X032359Y013746D01*
X032359Y013845D02*
X032520Y013845D01*
X032520Y013943D02*
X032359Y013943D01*
X032359Y014042D02*
X032520Y014042D01*
X032520Y014140D02*
X032359Y014140D01*
X032359Y014239D02*
X032520Y014239D01*
X032520Y014337D02*
X032359Y014337D01*
X032359Y014436D02*
X032520Y014436D01*
X032520Y014534D02*
X032359Y014534D01*
X032359Y014633D02*
X032520Y014633D01*
X032520Y014731D02*
X032359Y014731D01*
X032359Y014830D02*
X032520Y014830D01*
X032520Y014928D02*
X032359Y014928D01*
X032359Y015027D02*
X032520Y015027D01*
X032520Y015125D02*
X032359Y015125D01*
X032359Y015224D02*
X032520Y015224D01*
X032520Y015322D02*
X032359Y015322D01*
X032359Y015421D02*
X032520Y015421D01*
X032520Y015519D02*
X032359Y015519D01*
X032359Y015618D02*
X032520Y015618D01*
X032520Y015716D02*
X032359Y015716D01*
X032359Y015815D02*
X032520Y015815D01*
X032520Y015913D02*
X032359Y015913D01*
X032359Y016012D02*
X032520Y016012D01*
X032520Y016110D02*
X032359Y016110D01*
X032359Y016209D02*
X032520Y016209D01*
X032520Y016307D02*
X032359Y016307D01*
X032359Y016406D02*
X032520Y016406D01*
X032520Y016504D02*
X032359Y016504D01*
X032359Y016603D02*
X032520Y016603D01*
X032520Y016701D02*
X032359Y016701D01*
X032359Y016800D02*
X032520Y016800D01*
X032520Y016898D02*
X032359Y016898D01*
X032359Y016997D02*
X032520Y016997D01*
X032520Y017095D02*
X032359Y017095D01*
X032359Y017194D02*
X032520Y017194D01*
X032520Y017292D02*
X032359Y017292D01*
X032359Y017391D02*
X032520Y017391D01*
X032520Y017489D02*
X032359Y017489D01*
X032326Y017588D02*
X032520Y017588D01*
X032520Y017686D02*
X032231Y017686D01*
X032133Y017785D02*
X032520Y017785D01*
X032520Y017883D02*
X032034Y017883D01*
X031936Y017982D02*
X032520Y017982D01*
X032520Y018080D02*
X031837Y018080D01*
X031739Y018179D02*
X032520Y018179D01*
X032520Y018277D02*
X031640Y018277D01*
X031542Y018376D02*
X032520Y018376D01*
X032520Y018474D02*
X031443Y018474D01*
X031345Y018573D02*
X032520Y018573D01*
X032520Y018671D02*
X031246Y018671D01*
X031198Y019558D02*
X032520Y019558D01*
X032520Y019656D02*
X031460Y019656D01*
X031667Y019747D02*
X031667Y019747D01*
X032007Y020061D01*
X032228Y020467D01*
X032228Y020467D01*
X032304Y020924D01*
X032228Y021380D01*
X032007Y021787D01*
X031667Y022100D01*
X031244Y022286D01*
X031244Y022286D01*
X030783Y022324D01*
X030783Y022324D01*
X030334Y022210D01*
X029947Y021957D01*
X029663Y021592D01*
X029513Y021155D01*
X029513Y020692D01*
X029663Y020255D01*
X029947Y019890D01*
X029947Y019890D01*
X030334Y019637D01*
X030783Y019523D01*
X031244Y019562D01*
X031667Y019747D01*
X031675Y019755D02*
X032520Y019755D01*
X032520Y019853D02*
X031782Y019853D01*
X031889Y019952D02*
X032520Y019952D01*
X032520Y020050D02*
X031996Y020050D01*
X032007Y020061D02*
X032007Y020061D01*
X032055Y020149D02*
X032520Y020149D01*
X032520Y020247D02*
X032108Y020247D01*
X032162Y020346D02*
X032520Y020346D01*
X032520Y020444D02*
X032215Y020444D01*
X032240Y020543D02*
X032520Y020543D01*
X032520Y020641D02*
X032257Y020641D01*
X032273Y020740D02*
X032520Y020740D01*
X032520Y020838D02*
X032289Y020838D01*
X032301Y020937D02*
X032520Y020937D01*
X032520Y021035D02*
X032285Y021035D01*
X032236Y021331D02*
X032500Y021331D01*
X032473Y021429D02*
X032201Y021429D01*
X032228Y021380D02*
X032228Y021380D01*
X032147Y021528D02*
X032447Y021528D01*
X032412Y021626D02*
X032094Y021626D01*
X032041Y021725D02*
X032355Y021725D01*
X032298Y021823D02*
X031968Y021823D01*
X032007Y021787D02*
X032007Y021787D01*
X032007Y021787D01*
X031861Y021922D02*
X032221Y021922D01*
X032122Y022020D02*
X031754Y022020D01*
X031667Y022100D02*
X031667Y022100D01*
X031624Y022119D02*
X032008Y022119D01*
X031838Y022217D02*
X031399Y022217D01*
X031547Y022316D02*
X030879Y022316D01*
X030751Y022316D02*
X013689Y022316D01*
X013788Y022217D02*
X030362Y022217D01*
X030334Y022210D02*
X030334Y022210D01*
X030194Y022119D02*
X028627Y022119D01*
X028649Y022110D02*
X028442Y022196D01*
X028218Y022196D01*
X028011Y022110D01*
X027852Y021951D01*
X027766Y021744D01*
X027766Y021520D01*
X027852Y021313D01*
X028011Y021155D01*
X028218Y021069D01*
X028442Y021069D01*
X028649Y021155D01*
X028807Y021313D01*
X028893Y021520D01*
X028893Y021744D01*
X028807Y021951D01*
X028649Y022110D01*
X028738Y022020D02*
X030044Y022020D01*
X029947Y021957D02*
X029947Y021957D01*
X029947Y021957D01*
X029920Y021922D02*
X028820Y021922D01*
X028860Y021823D02*
X029843Y021823D01*
X029766Y021725D02*
X028893Y021725D01*
X028893Y021626D02*
X029690Y021626D01*
X029663Y021592D02*
X029663Y021592D01*
X029641Y021528D02*
X028893Y021528D01*
X028856Y021429D02*
X029607Y021429D01*
X029573Y021331D02*
X028815Y021331D01*
X028727Y021232D02*
X029539Y021232D01*
X029513Y021134D02*
X028599Y021134D01*
X028061Y021134D02*
X018637Y021134D01*
X018712Y021103D02*
X018868Y020947D01*
X018916Y020996D01*
X019318Y020996D01*
X019406Y020908D01*
X019406Y020211D01*
X019318Y020123D01*
X018916Y020123D01*
X018828Y020211D01*
X018828Y020253D01*
X018712Y020136D01*
X018502Y020050D01*
X018275Y020050D01*
X018066Y020136D01*
X017906Y020297D01*
X017819Y020506D01*
X017819Y020733D01*
X017906Y020943D01*
X018066Y021103D01*
X018275Y021190D01*
X018502Y021190D01*
X018712Y021103D01*
X018779Y021035D02*
X029513Y021035D01*
X029513Y020937D02*
X019377Y020937D01*
X019406Y020838D02*
X029513Y020838D01*
X029513Y020740D02*
X019406Y020740D01*
X019406Y020641D02*
X029530Y020641D01*
X029564Y020543D02*
X019406Y020543D01*
X019406Y020444D02*
X029598Y020444D01*
X029632Y020346D02*
X019406Y020346D01*
X019406Y020247D02*
X029669Y020247D01*
X029746Y020149D02*
X019344Y020149D01*
X018891Y020149D02*
X018724Y020149D01*
X018823Y020247D02*
X018828Y020247D01*
X018504Y020050D02*
X029822Y020050D01*
X029899Y019952D02*
X026978Y019952D01*
X026995Y019945D02*
X026788Y020030D01*
X026564Y020030D01*
X026357Y019945D01*
X026199Y019786D01*
X026113Y019579D01*
X026113Y019355D01*
X026199Y019148D01*
X026357Y018989D01*
X026564Y018904D01*
X026788Y018904D01*
X026995Y018989D01*
X027154Y019148D01*
X027240Y019355D01*
X027240Y019579D01*
X027154Y019786D01*
X026995Y019945D01*
X027087Y019853D02*
X030003Y019853D01*
X030154Y019755D02*
X027167Y019755D01*
X027208Y019656D02*
X030305Y019656D01*
X030647Y019558D02*
X027240Y019558D01*
X027240Y019459D02*
X032520Y019459D01*
X032520Y019361D02*
X027240Y019361D01*
X027201Y019262D02*
X032520Y019262D01*
X032520Y019164D02*
X027161Y019164D01*
X027071Y019065D02*
X032520Y019065D01*
X032520Y018967D02*
X026941Y018967D01*
X026411Y018967D02*
X023698Y018967D01*
X023698Y018933D02*
X023698Y019707D01*
X023610Y019795D01*
X022836Y019795D01*
X022748Y019707D01*
X022748Y018933D01*
X022836Y018845D01*
X023610Y018845D01*
X023698Y018933D01*
X023633Y018868D02*
X032520Y018868D01*
X032520Y018770D02*
X014135Y018770D01*
X014135Y018868D02*
X022812Y018868D01*
X022748Y018967D02*
X014135Y018967D01*
X014135Y019065D02*
X022748Y019065D01*
X022748Y019164D02*
X014135Y019164D01*
X014135Y019262D02*
X022748Y019262D01*
X022748Y019361D02*
X014135Y019361D01*
X014135Y019459D02*
X022748Y019459D01*
X022748Y019558D02*
X014135Y019558D01*
X014135Y019656D02*
X022748Y019656D01*
X022796Y019755D02*
X014135Y019755D01*
X014135Y019853D02*
X026266Y019853D01*
X026186Y019755D02*
X023650Y019755D01*
X023698Y019656D02*
X026145Y019656D01*
X026113Y019558D02*
X023698Y019558D01*
X023698Y019459D02*
X026113Y019459D01*
X026113Y019361D02*
X023698Y019361D01*
X023698Y019262D02*
X026151Y019262D01*
X026192Y019164D02*
X023698Y019164D01*
X023698Y019065D02*
X026281Y019065D01*
X026375Y019952D02*
X014135Y019952D01*
X014135Y020050D02*
X018274Y020050D01*
X018054Y020149D02*
X014135Y020149D01*
X014135Y020247D02*
X017955Y020247D01*
X017885Y020346D02*
X014135Y020346D01*
X014135Y020444D02*
X017844Y020444D01*
X017819Y020543D02*
X014135Y020543D01*
X014135Y020641D02*
X017819Y020641D01*
X017822Y020740D02*
X014135Y020740D01*
X014135Y020838D02*
X017862Y020838D01*
X017903Y020937D02*
X014135Y020937D01*
X014135Y021035D02*
X017998Y021035D01*
X018141Y021134D02*
X014135Y021134D01*
X014135Y021232D02*
X027933Y021232D01*
X027845Y021331D02*
X014135Y021331D01*
X014135Y021429D02*
X027804Y021429D01*
X027766Y021528D02*
X014135Y021528D01*
X014135Y021626D02*
X027766Y021626D01*
X027766Y021725D02*
X014135Y021725D01*
X014111Y021823D02*
X027799Y021823D01*
X027840Y021922D02*
X014071Y021922D01*
X013985Y022020D02*
X027921Y022020D01*
X028032Y022119D02*
X013886Y022119D01*
X013175Y021429D02*
X011654Y021429D01*
X011654Y021331D02*
X013175Y021331D01*
X013175Y021232D02*
X011654Y021232D01*
X011654Y021134D02*
X013175Y021134D01*
X013175Y021035D02*
X011618Y021035D01*
X011571Y020937D02*
X013175Y020937D01*
X013175Y020838D02*
X011473Y020838D01*
X011272Y020740D02*
X013175Y020740D01*
X013175Y020641D02*
X010756Y020641D01*
X010731Y020701D02*
X010617Y020815D01*
X010468Y020877D01*
X010306Y020877D01*
X010157Y020815D01*
X010043Y020701D01*
X009981Y020552D01*
X009981Y020390D01*
X010043Y020241D01*
X010157Y020127D01*
X010306Y020065D01*
X010468Y020065D01*
X010617Y020127D01*
X010731Y020241D01*
X010793Y020390D01*
X010793Y020552D01*
X010731Y020701D01*
X010692Y020740D02*
X011077Y020740D01*
X010876Y020838D02*
X010560Y020838D01*
X010778Y020937D02*
X008972Y020937D01*
X008945Y020910D02*
X009033Y020998D01*
X009033Y021637D01*
X008945Y021725D01*
X008305Y021725D01*
X008218Y021637D01*
X008218Y020998D01*
X008305Y020910D01*
X008945Y020910D01*
X009033Y021035D02*
X010731Y021035D01*
X010694Y021134D02*
X009033Y021134D01*
X009033Y021232D02*
X010694Y021232D01*
X010694Y021331D02*
X009033Y021331D01*
X009033Y021429D02*
X010694Y021429D01*
X010694Y021528D02*
X009033Y021528D01*
X009033Y021626D02*
X010694Y021626D01*
X010694Y021725D02*
X007262Y021725D01*
X007309Y021705D02*
X007141Y021775D01*
X006959Y021775D01*
X006791Y021705D01*
X006662Y021577D01*
X006657Y021562D01*
X006651Y021577D01*
X006522Y021705D01*
X006354Y021775D01*
X006172Y021775D01*
X006004Y021705D01*
X005875Y021577D01*
X005869Y021562D01*
X005863Y021577D01*
X005735Y021705D01*
X005566Y021775D01*
X005384Y021775D01*
X005216Y021705D01*
X005088Y021577D01*
X005018Y021408D01*
X005018Y021226D01*
X005088Y021058D01*
X005216Y020930D01*
X005384Y020860D01*
X005566Y020860D01*
X005735Y020930D01*
X005863Y021058D01*
X005869Y021072D01*
X005875Y021058D01*
X006004Y020930D01*
X006172Y020860D01*
X006354Y020860D01*
X006522Y020930D01*
X006651Y021058D01*
X006657Y021072D01*
X006662Y021058D01*
X006791Y020930D01*
X006959Y020860D01*
X007141Y020860D01*
X007309Y020930D01*
X007438Y021058D01*
X007508Y021226D01*
X007508Y021408D01*
X007438Y021577D01*
X007309Y021705D01*
X007388Y021626D02*
X008218Y021626D01*
X008218Y021528D02*
X007458Y021528D01*
X007499Y021429D02*
X008218Y021429D01*
X008218Y021331D02*
X007508Y021331D01*
X007508Y021232D02*
X008218Y021232D01*
X008218Y021134D02*
X007469Y021134D01*
X007415Y021035D02*
X008218Y021035D01*
X008278Y020937D02*
X007317Y020937D01*
X006784Y020937D02*
X006529Y020937D01*
X006628Y021035D02*
X006685Y021035D01*
X005996Y020937D02*
X005742Y020937D01*
X005840Y021035D02*
X005898Y021035D01*
X005209Y020937D02*
X004861Y020937D01*
X004918Y020913D02*
X004769Y020975D01*
X004607Y020975D01*
X004458Y020913D01*
X004344Y020799D01*
X004282Y020650D01*
X004282Y020489D01*
X004344Y020339D01*
X004458Y020225D01*
X004607Y020163D01*
X004769Y020163D01*
X004918Y020225D01*
X005032Y020339D01*
X005094Y020489D01*
X005094Y020650D01*
X005032Y020799D01*
X004918Y020913D01*
X004993Y020838D02*
X010213Y020838D01*
X010082Y020740D02*
X005057Y020740D01*
X005094Y020641D02*
X010018Y020641D01*
X009981Y020543D02*
X005094Y020543D01*
X005076Y020444D02*
X009981Y020444D01*
X009999Y020346D02*
X005035Y020346D01*
X004940Y020247D02*
X010040Y020247D01*
X010135Y020149D02*
X003983Y020149D01*
X003983Y020180D02*
X003895Y020268D01*
X003493Y020268D01*
X003405Y020180D01*
X003405Y019778D01*
X003493Y019690D01*
X003895Y019690D01*
X003983Y019778D01*
X003983Y020180D01*
X003915Y020247D02*
X004436Y020247D01*
X004341Y020346D02*
X003028Y020346D01*
X003081Y020444D02*
X004300Y020444D01*
X004282Y020543D02*
X003106Y020543D01*
X003094Y020467D02*
X003170Y020924D01*
X003094Y021380D01*
X002874Y021787D01*
X002533Y022100D01*
X002110Y022286D01*
X002110Y022286D01*
X001649Y022324D01*
X001649Y022324D01*
X001200Y022210D01*
X000813Y021957D01*
X000529Y021592D01*
X000379Y021155D01*
X000379Y020692D01*
X000529Y020255D01*
X000813Y019890D01*
X000813Y019890D01*
X000813Y019890D01*
X001200Y019637D01*
X001200Y019637D01*
X001649Y019523D01*
X002110Y019562D01*
X002533Y019747D01*
X002533Y019747D01*
X002874Y020061D01*
X003094Y020467D01*
X003094Y020467D01*
X003123Y020641D02*
X004282Y020641D01*
X004319Y020740D02*
X003139Y020740D01*
X003156Y020838D02*
X004383Y020838D01*
X004515Y020937D02*
X003168Y020937D01*
X003151Y021035D02*
X005110Y021035D01*
X005056Y021134D02*
X003135Y021134D01*
X003118Y021232D02*
X005018Y021232D01*
X005018Y021331D02*
X003102Y021331D01*
X003094Y021380D02*
X003094Y021380D01*
X003067Y021429D02*
X005027Y021429D01*
X005067Y021528D02*
X003014Y021528D01*
X002960Y021626D02*
X005138Y021626D01*
X005264Y021725D02*
X002907Y021725D01*
X002874Y021787D02*
X002874Y021787D01*
X002834Y021823D02*
X010694Y021823D01*
X010709Y021922D02*
X002727Y021922D01*
X002620Y022020D02*
X003053Y022020D01*
X003051Y022119D02*
X002490Y022119D01*
X002533Y022100D02*
X002533Y022100D01*
X002265Y022217D02*
X003051Y022217D01*
X003051Y022316D02*
X001745Y022316D01*
X001617Y022316D02*
X001192Y022316D01*
X001228Y022217D02*
X000911Y022217D01*
X000776Y022119D02*
X001060Y022119D01*
X001200Y022210D02*
X001200Y022210D01*
X000910Y022020D02*
X000648Y022020D01*
X000576Y021922D02*
X000786Y021922D01*
X000813Y021957D02*
X000813Y021957D01*
X000813Y021957D01*
X000709Y021823D02*
X000505Y021823D01*
X000447Y021725D02*
X000632Y021725D01*
X000556Y021626D02*
X000415Y021626D01*
X000383Y021528D02*
X000507Y021528D01*
X000529Y021592D02*
X000529Y021592D01*
X000473Y021429D02*
X000353Y021429D01*
X000345Y021331D02*
X000439Y021331D01*
X000406Y021232D02*
X000340Y021232D01*
X000340Y021134D02*
X000379Y021134D01*
X000379Y021035D02*
X000340Y021035D01*
X000340Y020937D02*
X000379Y020937D01*
X000379Y020838D02*
X000340Y020838D01*
X000340Y020740D02*
X000379Y020740D01*
X000397Y020641D02*
X000340Y020641D01*
X000340Y020543D02*
X000430Y020543D01*
X000464Y020444D02*
X000340Y020444D01*
X000340Y020346D02*
X000498Y020346D01*
X000529Y020255D02*
X000529Y020255D01*
X000535Y020247D02*
X000340Y020247D01*
X000340Y020149D02*
X000612Y020149D01*
X000688Y020050D02*
X000340Y020050D01*
X000340Y019952D02*
X000765Y019952D01*
X000869Y019853D02*
X000340Y019853D01*
X000340Y019755D02*
X001020Y019755D01*
X001171Y019656D02*
X000340Y019656D01*
X000340Y019558D02*
X001513Y019558D01*
X001649Y019523D02*
X001649Y019523D01*
X002064Y019558D02*
X013175Y019558D01*
X013175Y019656D02*
X002326Y019656D01*
X002110Y019562D02*
X002110Y019562D01*
X002541Y019755D02*
X003428Y019755D01*
X003405Y019853D02*
X002648Y019853D01*
X002755Y019952D02*
X003405Y019952D01*
X003405Y020050D02*
X002862Y020050D01*
X002874Y020061D02*
X002874Y020061D01*
X002921Y020149D02*
X003405Y020149D01*
X003473Y020247D02*
X002975Y020247D01*
X003960Y019755D02*
X013175Y019755D01*
X013175Y019853D02*
X003983Y019853D01*
X003983Y019952D02*
X013175Y019952D01*
X013175Y020050D02*
X003983Y020050D01*
X005540Y018429D02*
X005657Y018547D01*
X006337Y018547D01*
X006455Y018429D01*
X006455Y018406D01*
X006525Y018477D01*
X006694Y018547D01*
X006876Y018547D01*
X007044Y018477D01*
X007172Y018348D01*
X007178Y018334D01*
X007184Y018348D01*
X007313Y018477D01*
X007481Y018547D01*
X007663Y018547D01*
X007831Y018477D01*
X007960Y018348D01*
X008029Y018180D01*
X008029Y017998D01*
X007960Y017830D01*
X007868Y017738D01*
X009802Y017738D01*
X009772Y017768D01*
X009772Y018449D01*
X009889Y018566D01*
X010570Y018566D01*
X010687Y018449D01*
X010687Y018426D01*
X010758Y018497D01*
X010926Y018566D01*
X011108Y018566D01*
X011276Y018497D01*
X011405Y018368D01*
X011411Y018354D01*
X011416Y018368D01*
X011545Y018497D01*
X011713Y018566D01*
X011895Y018566D01*
X012063Y018497D01*
X012192Y018368D01*
X012262Y018200D01*
X012262Y018018D01*
X012192Y017850D01*
X012081Y017739D01*
X012338Y017739D01*
X012537Y017540D01*
X012537Y017260D01*
X012338Y017061D01*
X012058Y017061D01*
X011959Y017160D01*
X011186Y017160D01*
X011097Y017197D01*
X011009Y017285D01*
X010946Y017258D01*
X007052Y017258D01*
X006964Y017295D01*
X006896Y017363D01*
X006581Y017678D01*
X006581Y017678D01*
X006525Y017701D01*
X006455Y017772D01*
X006455Y017749D01*
X006337Y017632D01*
X005657Y017632D01*
X005540Y017749D01*
X005540Y018429D01*
X005540Y018376D02*
X000340Y018376D01*
X000340Y018474D02*
X005585Y018474D01*
X005540Y018277D02*
X000340Y018277D01*
X000340Y018179D02*
X005540Y018179D01*
X005540Y018080D02*
X000340Y018080D01*
X000340Y017982D02*
X005540Y017982D01*
X005540Y017883D02*
X000340Y017883D01*
X000340Y017785D02*
X005540Y017785D01*
X005602Y017686D02*
X002970Y017686D01*
X002949Y017708D02*
X002773Y017781D01*
X002583Y017781D01*
X002408Y017708D01*
X002274Y017574D01*
X002201Y017399D01*
X002201Y017209D01*
X002274Y017033D01*
X002408Y016899D01*
X002583Y016826D01*
X002773Y016826D01*
X002949Y016899D01*
X003083Y017033D01*
X003155Y017209D01*
X003155Y017399D01*
X003083Y017574D01*
X002949Y017708D01*
X003069Y017588D02*
X006671Y017588D01*
X006769Y017489D02*
X003118Y017489D01*
X003155Y017391D02*
X006868Y017391D01*
X006970Y017292D02*
X003155Y017292D01*
X003149Y017194D02*
X011104Y017194D01*
X012024Y017095D02*
X003108Y017095D01*
X003046Y016997D02*
X013809Y016997D01*
X013808Y017095D02*
X012372Y017095D01*
X012471Y017194D02*
X013808Y017194D01*
X013772Y017292D02*
X012537Y017292D01*
X012537Y017391D02*
X013674Y017391D01*
X013575Y017489D02*
X012537Y017489D01*
X012489Y017588D02*
X013477Y017588D01*
X013378Y017686D02*
X012391Y017686D01*
X012206Y017883D02*
X013220Y017883D01*
X013179Y017982D02*
X012247Y017982D01*
X012262Y018080D02*
X013175Y018080D01*
X013175Y018179D02*
X012262Y018179D01*
X012230Y018277D02*
X013175Y018277D01*
X013175Y018376D02*
X012184Y018376D01*
X012086Y018474D02*
X012454Y018474D01*
X012511Y018451D02*
X012672Y018451D01*
X012822Y018513D01*
X012936Y018627D01*
X012998Y018776D01*
X012998Y018938D01*
X012936Y019087D01*
X012822Y019201D01*
X012672Y019263D01*
X012511Y019263D01*
X012362Y019201D01*
X012248Y019087D01*
X012186Y018938D01*
X012186Y018776D01*
X012248Y018627D01*
X012362Y018513D01*
X012511Y018451D01*
X012729Y018474D02*
X013175Y018474D01*
X013175Y018573D02*
X012882Y018573D01*
X012954Y018671D02*
X013175Y018671D01*
X013175Y018770D02*
X012995Y018770D01*
X012998Y018868D02*
X013175Y018868D01*
X013175Y018967D02*
X012985Y018967D01*
X012945Y019065D02*
X013175Y019065D01*
X013175Y019164D02*
X012859Y019164D01*
X012673Y019262D02*
X013175Y019262D01*
X013175Y019361D02*
X000340Y019361D01*
X000340Y019459D02*
X013175Y019459D01*
X012510Y019262D02*
X000340Y019262D01*
X000340Y019164D02*
X008112Y019164D01*
X008129Y019181D02*
X008015Y019067D01*
X007953Y018918D01*
X007953Y018756D01*
X008015Y018607D01*
X008129Y018493D01*
X008279Y018431D01*
X008440Y018431D01*
X008589Y018493D01*
X008703Y018607D01*
X008765Y018756D01*
X008765Y018918D01*
X008703Y019067D01*
X008589Y019181D01*
X008440Y019243D01*
X008279Y019243D01*
X008129Y019181D01*
X008015Y019065D02*
X000340Y019065D01*
X000340Y018967D02*
X007974Y018967D01*
X007953Y018868D02*
X000340Y018868D01*
X000340Y018770D02*
X007953Y018770D01*
X007989Y018671D02*
X000340Y018671D01*
X000340Y018573D02*
X008049Y018573D01*
X008174Y018474D02*
X007834Y018474D01*
X007932Y018376D02*
X009772Y018376D01*
X009772Y018277D02*
X007989Y018277D01*
X008029Y018179D02*
X009772Y018179D01*
X009772Y018080D02*
X008029Y018080D01*
X008023Y017982D02*
X009772Y017982D01*
X009772Y017883D02*
X007982Y017883D01*
X007915Y017785D02*
X009772Y017785D01*
X009797Y018474D02*
X008544Y018474D01*
X008669Y018573D02*
X012301Y018573D01*
X012229Y018671D02*
X008730Y018671D01*
X008765Y018770D02*
X012188Y018770D01*
X012186Y018868D02*
X008765Y018868D01*
X008745Y018967D02*
X012198Y018967D01*
X012239Y019065D02*
X008704Y019065D01*
X008607Y019164D02*
X012325Y019164D01*
X011523Y018474D02*
X011298Y018474D01*
X011397Y018376D02*
X011424Y018376D01*
X010736Y018474D02*
X010662Y018474D01*
X012127Y017785D02*
X013280Y017785D01*
X013856Y016898D02*
X002947Y016898D01*
X002949Y016708D02*
X002773Y016781D01*
X002583Y016781D01*
X002408Y016708D01*
X002274Y016574D01*
X002201Y016399D01*
X002201Y016209D01*
X002155Y016209D01*
X002083Y016033D01*
X001949Y015899D01*
X001773Y015826D01*
X001583Y015826D01*
X001408Y015899D01*
X001274Y016033D01*
X001201Y016209D01*
X000340Y016209D01*
X000340Y016307D02*
X001201Y016307D01*
X001201Y016399D02*
X001201Y016209D01*
X001242Y016110D02*
X000340Y016110D01*
X000340Y016012D02*
X001295Y016012D01*
X001394Y015913D02*
X000340Y015913D01*
X000340Y015815D02*
X016274Y015815D01*
X016229Y015860D02*
X016346Y015742D01*
X016790Y015742D01*
X016907Y015860D01*
X016907Y016303D01*
X016790Y016420D01*
X016346Y016420D01*
X016229Y016303D01*
X016229Y015860D01*
X016229Y015913D02*
X015098Y015913D01*
X015072Y015887D02*
X015160Y015975D01*
X015160Y016377D01*
X015072Y016464D01*
X014670Y016464D01*
X014582Y016377D01*
X014582Y015975D01*
X014670Y015887D01*
X015072Y015887D01*
X015160Y016012D02*
X016229Y016012D01*
X016229Y016110D02*
X015160Y016110D01*
X015160Y016209D02*
X016229Y016209D01*
X016234Y016307D02*
X015160Y016307D01*
X015131Y016406D02*
X016332Y016406D01*
X016804Y016406D02*
X019518Y016406D01*
X019518Y016504D02*
X018563Y016504D01*
X018541Y016481D02*
X018628Y016569D01*
X018628Y016971D01*
X018541Y017059D01*
X018139Y017059D01*
X018051Y016971D01*
X018051Y016569D01*
X018139Y016481D01*
X018541Y016481D01*
X018628Y016603D02*
X019518Y016603D01*
X019518Y016701D02*
X018628Y016701D01*
X018628Y016800D02*
X019518Y016800D01*
X019518Y016884D02*
X019518Y016109D01*
X019606Y016022D01*
X020380Y016022D01*
X020468Y016109D01*
X020468Y016884D01*
X020380Y016972D01*
X019606Y016972D01*
X019518Y016884D01*
X019533Y016898D02*
X018628Y016898D01*
X018603Y016997D02*
X020541Y016997D01*
X020541Y017095D02*
X015804Y017095D01*
X015804Y016997D02*
X018077Y016997D01*
X018051Y016898D02*
X015756Y016898D01*
X015804Y017194D02*
X020541Y017194D01*
X020541Y017292D02*
X015804Y017292D01*
X015804Y017391D02*
X020541Y017391D01*
X020541Y017489D02*
X015804Y017489D01*
X015804Y017588D02*
X020541Y017588D01*
X020541Y017686D02*
X015804Y017686D01*
X015804Y017785D02*
X020541Y017785D01*
X020541Y017883D02*
X015804Y017883D01*
X015804Y017982D02*
X020541Y017982D01*
X020541Y018080D02*
X015804Y018080D01*
X015804Y018179D02*
X020562Y018179D01*
X020639Y018277D02*
X015804Y018277D01*
X015770Y018376D02*
X020738Y018376D01*
X020836Y018474D02*
X015641Y018474D01*
X014135Y018573D02*
X020935Y018573D01*
X021033Y018671D02*
X014135Y018671D01*
X013175Y020149D02*
X010639Y020149D01*
X010734Y020247D02*
X013175Y020247D01*
X013175Y020346D02*
X010774Y020346D01*
X010793Y020444D02*
X013175Y020444D01*
X013175Y020543D02*
X010793Y020543D01*
X010750Y022020D02*
X004217Y022020D01*
X004219Y022119D02*
X010825Y022119D01*
X010923Y022217D02*
X004219Y022217D01*
X004219Y022316D02*
X011022Y022316D01*
X006839Y021725D02*
X006475Y021725D01*
X006601Y021626D02*
X006712Y021626D01*
X006051Y021725D02*
X005687Y021725D01*
X005813Y021626D02*
X005925Y021626D01*
X003643Y022020D02*
X003627Y022020D01*
X003628Y022119D02*
X003641Y022119D01*
X003628Y022217D02*
X003641Y022217D01*
X003628Y022316D02*
X003641Y022316D01*
X006410Y018474D02*
X006523Y018474D01*
X007046Y018474D02*
X007310Y018474D01*
X007212Y018376D02*
X007145Y018376D01*
X006561Y017686D02*
X006392Y017686D01*
X003155Y016399D02*
X003155Y016209D01*
X014582Y016209D01*
X014582Y016307D02*
X003155Y016307D01*
X003155Y016399D02*
X003083Y016574D01*
X002949Y016708D01*
X002955Y016701D02*
X018051Y016701D01*
X018051Y016603D02*
X003054Y016603D01*
X003112Y016504D02*
X018116Y016504D01*
X018051Y016800D02*
X000340Y016800D01*
X000340Y016898D02*
X001410Y016898D01*
X001408Y016899D02*
X001583Y016826D01*
X001773Y016826D01*
X001949Y016899D01*
X002083Y017033D01*
X002155Y017209D01*
X002155Y017399D01*
X002083Y017574D01*
X001949Y017708D01*
X001773Y017781D01*
X001583Y017781D01*
X001408Y017708D01*
X001274Y017574D01*
X001201Y017399D01*
X001201Y017209D01*
X001274Y017033D01*
X001408Y016899D01*
X001310Y016997D02*
X000340Y016997D01*
X000340Y017095D02*
X001248Y017095D01*
X001207Y017194D02*
X000340Y017194D01*
X000340Y017292D02*
X001201Y017292D01*
X001201Y017391D02*
X000340Y017391D01*
X000340Y017489D02*
X001239Y017489D01*
X001288Y017588D02*
X000340Y017588D01*
X000340Y017686D02*
X001386Y017686D01*
X001970Y017686D02*
X002386Y017686D01*
X002288Y017588D02*
X002069Y017588D01*
X002118Y017489D02*
X002239Y017489D01*
X002201Y017391D02*
X002155Y017391D01*
X002155Y017292D02*
X002201Y017292D01*
X002207Y017194D02*
X002149Y017194D01*
X002108Y017095D02*
X002248Y017095D01*
X002310Y016997D02*
X002046Y016997D01*
X001947Y016898D02*
X002410Y016898D01*
X002401Y016701D02*
X001955Y016701D01*
X001949Y016708D02*
X001773Y016781D01*
X001583Y016781D01*
X001408Y016708D01*
X001274Y016574D01*
X001201Y016399D01*
X001204Y016406D02*
X000340Y016406D01*
X000340Y016504D02*
X001245Y016504D01*
X001303Y016603D02*
X000340Y016603D01*
X000340Y016701D02*
X001401Y016701D01*
X001949Y016708D02*
X002083Y016574D01*
X002155Y016399D01*
X002155Y016209D01*
X002201Y016209D02*
X002274Y016033D01*
X002408Y015899D01*
X002583Y015826D01*
X002773Y015826D01*
X002949Y015899D01*
X003083Y016033D01*
X003155Y016209D01*
X003115Y016110D02*
X014582Y016110D01*
X014582Y016012D02*
X003061Y016012D01*
X002963Y015913D02*
X014644Y015913D01*
X014612Y016406D02*
X003152Y016406D01*
X002394Y015913D02*
X001963Y015913D01*
X002061Y016012D02*
X002295Y016012D01*
X002242Y016110D02*
X002115Y016110D01*
X002155Y016307D02*
X002201Y016307D01*
X002204Y016406D02*
X002152Y016406D01*
X002112Y016504D02*
X002245Y016504D01*
X002303Y016603D02*
X002054Y016603D01*
X001773Y015781D02*
X001583Y015781D01*
X001408Y015708D01*
X001274Y015574D01*
X001201Y015399D01*
X001201Y015209D01*
X001274Y015033D01*
X001408Y014899D01*
X001583Y014826D01*
X001773Y014826D01*
X001949Y014899D01*
X002083Y015033D01*
X002155Y015209D01*
X002155Y015399D01*
X002083Y015574D01*
X001949Y015708D01*
X001773Y015781D01*
X001929Y015716D02*
X002428Y015716D01*
X002408Y015708D02*
X002274Y015574D01*
X002201Y015399D01*
X002201Y015209D01*
X002274Y015033D01*
X002408Y014899D01*
X002583Y014826D01*
X002773Y014826D01*
X002949Y014899D01*
X003083Y015033D01*
X003155Y015209D01*
X003155Y015399D01*
X003083Y015574D01*
X002949Y015708D01*
X002773Y015781D01*
X002583Y015781D01*
X002408Y015708D01*
X002318Y015618D02*
X002039Y015618D01*
X002105Y015519D02*
X002251Y015519D01*
X002210Y015421D02*
X002146Y015421D01*
X002155Y015322D02*
X002201Y015322D01*
X002201Y015224D02*
X002155Y015224D01*
X002121Y015125D02*
X002236Y015125D01*
X002280Y015027D02*
X002076Y015027D01*
X001978Y014928D02*
X002379Y014928D01*
X002575Y014830D02*
X001781Y014830D01*
X001773Y014781D02*
X001583Y014781D01*
X001408Y014708D01*
X001274Y014574D01*
X001201Y014399D01*
X001201Y014209D01*
X001274Y014033D01*
X001408Y013899D01*
X001583Y013826D01*
X001773Y013826D01*
X001949Y013899D01*
X002083Y014033D01*
X002155Y014209D01*
X002155Y014399D01*
X002083Y014574D01*
X001949Y014708D01*
X001773Y014781D01*
X001892Y014731D02*
X020541Y014731D01*
X020541Y014633D02*
X009325Y014633D01*
X009270Y014688D02*
X009387Y014570D01*
X009387Y014127D01*
X009270Y014010D01*
X008394Y014010D01*
X008379Y014025D01*
X008364Y014010D01*
X007921Y014010D01*
X007804Y014127D01*
X007804Y014570D01*
X007921Y014688D01*
X008364Y014688D01*
X008379Y014673D01*
X008394Y014688D01*
X009270Y014688D01*
X009387Y014534D02*
X014559Y014534D01*
X014536Y014511D02*
X014653Y014629D01*
X015097Y014629D01*
X015214Y014511D01*
X015214Y014068D01*
X015097Y013951D01*
X014653Y013951D01*
X014536Y014068D01*
X014536Y014511D01*
X014536Y014436D02*
X009387Y014436D01*
X009387Y014337D02*
X014536Y014337D01*
X014536Y014239D02*
X009387Y014239D01*
X009387Y014140D02*
X014536Y014140D01*
X014563Y014042D02*
X009302Y014042D01*
X009336Y013746D02*
X002856Y013746D01*
X002773Y013781D02*
X002583Y013781D01*
X002408Y013708D01*
X002274Y013574D01*
X002201Y013399D01*
X002201Y013209D01*
X002274Y013033D01*
X002408Y012899D01*
X002583Y012826D01*
X002773Y012826D01*
X002949Y012899D01*
X003083Y013033D01*
X003155Y013209D01*
X003155Y013399D01*
X003083Y013574D01*
X002949Y013708D01*
X002773Y013781D01*
X003009Y013648D02*
X009238Y013648D01*
X009139Y013549D02*
X003093Y013549D01*
X003134Y013451D02*
X009041Y013451D01*
X008942Y013352D02*
X003155Y013352D01*
X003155Y013254D02*
X008844Y013254D01*
X008745Y013155D02*
X003133Y013155D01*
X003093Y013057D02*
X008647Y013057D01*
X008548Y012958D02*
X003008Y012958D01*
X002854Y012860D02*
X008450Y012860D01*
X008351Y012761D02*
X006767Y012761D01*
X006731Y012798D02*
X006287Y012798D01*
X006170Y012681D01*
X006170Y012238D01*
X006287Y012120D01*
X006731Y012120D01*
X006848Y012238D01*
X006848Y012681D01*
X006731Y012798D01*
X006848Y012663D02*
X008253Y012663D01*
X008154Y012564D02*
X006848Y012564D01*
X006848Y012466D02*
X008056Y012466D01*
X007957Y012367D02*
X006848Y012367D01*
X006848Y012269D02*
X007859Y012269D01*
X007760Y012170D02*
X006781Y012170D01*
X006237Y012170D02*
X004871Y012170D01*
X004821Y012120D02*
X004938Y012238D01*
X004938Y012681D01*
X004821Y012798D01*
X004378Y012798D01*
X004261Y012681D01*
X004261Y012238D01*
X004378Y012120D01*
X004821Y012120D01*
X004938Y012269D02*
X006170Y012269D01*
X006170Y012367D02*
X004938Y012367D01*
X004938Y012466D02*
X006170Y012466D01*
X006170Y012564D02*
X004938Y012564D01*
X004938Y012663D02*
X006170Y012663D01*
X006251Y012761D02*
X004858Y012761D01*
X004341Y012761D02*
X000340Y012761D01*
X000340Y012663D02*
X004261Y012663D01*
X004261Y012564D02*
X000340Y012564D01*
X000340Y012466D02*
X004261Y012466D01*
X004261Y012367D02*
X000340Y012367D01*
X000340Y012269D02*
X004261Y012269D01*
X004328Y012170D02*
X000340Y012170D01*
X000340Y012072D02*
X007662Y012072D01*
X007563Y011973D02*
X000340Y011973D01*
X000340Y011875D02*
X007465Y011875D01*
X007366Y011776D02*
X000340Y011776D01*
X000340Y011678D02*
X007268Y011678D01*
X007169Y011579D02*
X006788Y011579D01*
X006867Y011481D02*
X007071Y011481D01*
X006972Y011382D02*
X006867Y011382D01*
X006867Y011284D02*
X006874Y011284D01*
X006480Y010890D02*
X006324Y010890D01*
X006365Y010791D02*
X006381Y010791D01*
X006258Y010988D02*
X006250Y010988D01*
X006190Y011087D02*
X006151Y011087D01*
X006190Y011185D02*
X005667Y011185D01*
X005667Y011284D02*
X006190Y011284D01*
X006190Y011382D02*
X005667Y011382D01*
X005667Y011481D02*
X006190Y011481D01*
X006270Y011579D02*
X005587Y011579D01*
X005069Y011579D02*
X000340Y011579D01*
X000340Y011481D02*
X004989Y011481D01*
X004989Y011382D02*
X000340Y011382D01*
X000340Y011284D02*
X004989Y011284D01*
X004824Y010708D02*
X004729Y010613D01*
X004729Y008124D01*
X004184Y007639D02*
X002901Y007639D01*
X002955Y007738D02*
X004085Y007738D01*
X003987Y007836D02*
X003687Y007836D01*
X003687Y007935D02*
X003888Y007935D01*
X003790Y008033D02*
X003687Y008033D01*
X003687Y008132D02*
X003691Y008132D01*
X003624Y008329D02*
X002692Y008329D01*
X002591Y008427D02*
X003624Y008427D01*
X003624Y008526D02*
X002675Y008526D01*
X002718Y008624D02*
X003624Y008624D01*
X003110Y008230D02*
X002914Y008230D01*
X002960Y008132D02*
X003110Y008132D01*
X003110Y008033D02*
X002960Y008033D01*
X002960Y007935D02*
X003110Y007935D01*
X003110Y007836D02*
X002960Y007836D01*
X002563Y007541D02*
X004307Y007541D01*
X004170Y007442D02*
X002602Y007442D01*
X002684Y007344D02*
X004072Y007344D01*
X003973Y007245D02*
X002720Y007245D01*
X002713Y007147D02*
X003875Y007147D01*
X003788Y007048D02*
X002654Y007048D01*
X002553Y006950D02*
X003759Y006950D01*
X003759Y006851D02*
X002455Y006851D01*
X001200Y006462D02*
X001200Y006462D01*
X001193Y006457D02*
X000340Y006457D01*
X000340Y006359D02*
X001042Y006359D01*
X000891Y006260D02*
X000340Y006260D01*
X000340Y006162D02*
X000776Y006162D01*
X000813Y006209D02*
X000813Y006209D01*
X000700Y006063D02*
X000340Y006063D01*
X000340Y005965D02*
X000623Y005965D01*
X000546Y005866D02*
X000340Y005866D01*
X000340Y005768D02*
X000503Y005768D01*
X000469Y005669D02*
X000340Y005669D01*
X000340Y005571D02*
X000435Y005571D01*
X000401Y005472D02*
X000340Y005472D01*
X000340Y005374D02*
X000379Y005374D01*
X000379Y005275D02*
X000340Y005275D01*
X000346Y005177D02*
X000379Y005177D01*
X000379Y005078D02*
X000353Y005078D01*
X000378Y004980D02*
X000379Y004980D01*
X004265Y005550D02*
X004265Y006711D01*
X004619Y007065D01*
X005072Y007065D01*
X005348Y007341D01*
X007237Y007344D02*
X009749Y007344D01*
X009651Y007442D02*
X007320Y007442D01*
X007320Y007541D02*
X009552Y007541D01*
X009454Y007639D02*
X007320Y007639D01*
X007290Y007738D02*
X009355Y007738D01*
X009257Y007836D02*
X007191Y007836D01*
X007231Y009117D02*
X008848Y009117D01*
X008848Y009215D02*
X007261Y009215D01*
X007261Y009314D02*
X008848Y009314D01*
X008848Y009412D02*
X007261Y009412D01*
X007261Y009511D02*
X008848Y009511D01*
X008848Y009609D02*
X007306Y009609D01*
X007404Y009708D02*
X008466Y009708D01*
X008804Y009708D02*
X008848Y009708D01*
X009328Y010003D02*
X013503Y010003D01*
X012430Y010102D02*
X009328Y010102D01*
X009328Y010200D02*
X012331Y010200D01*
X012233Y010299D02*
X009328Y010299D01*
X009328Y010397D02*
X012134Y010397D01*
X012036Y010496D02*
X009328Y010496D01*
X009328Y010594D02*
X011937Y010594D01*
X011839Y010693D02*
X009328Y010693D01*
X009328Y010791D02*
X011740Y010791D01*
X011642Y010890D02*
X009328Y010890D01*
X009328Y010988D02*
X011543Y010988D01*
X011445Y011087D02*
X009328Y011087D01*
X009328Y011185D02*
X011346Y011185D01*
X011277Y011284D02*
X009328Y011284D01*
X008848Y011185D02*
X007939Y011185D01*
X007841Y011087D02*
X008848Y011087D01*
X008848Y010988D02*
X007742Y010988D01*
X007644Y010890D02*
X008848Y010890D01*
X008848Y010791D02*
X007545Y010791D01*
X007447Y010693D02*
X008848Y010693D01*
X008848Y010594D02*
X007348Y010594D01*
X007250Y010496D02*
X008848Y010496D01*
X008848Y010397D02*
X007151Y010397D01*
X007053Y010299D02*
X008437Y010299D01*
X008833Y010299D02*
X008848Y010299D01*
X008797Y011284D02*
X008038Y011284D01*
X008136Y011382D02*
X008699Y011382D01*
X008690Y011481D02*
X008235Y011481D01*
X008333Y011579D02*
X008690Y011579D01*
X008690Y011678D02*
X008432Y011678D01*
X008530Y011776D02*
X008690Y011776D01*
X008690Y011875D02*
X008629Y011875D01*
X009367Y012170D02*
X009458Y012170D01*
X009382Y012269D02*
X009367Y012269D01*
X009382Y012367D02*
X009287Y012367D01*
X009220Y012466D02*
X009382Y012466D01*
X009382Y012564D02*
X009318Y012564D01*
X009917Y011973D02*
X011191Y011973D01*
X011170Y011875D02*
X009955Y011875D01*
X009615Y013215D02*
X011627Y013215D01*
X011954Y013542D01*
X012293Y013549D02*
X020541Y013549D01*
X020541Y013451D02*
X012293Y013451D01*
X012293Y013352D02*
X020541Y013352D01*
X020541Y013254D02*
X012226Y013254D01*
X011921Y013155D02*
X020541Y013155D01*
X020541Y013057D02*
X011822Y013057D01*
X011608Y013549D02*
X011498Y013549D01*
X011498Y013648D02*
X011615Y013648D01*
X011615Y013746D02*
X011498Y013746D01*
X011498Y013845D02*
X011697Y013845D01*
X011491Y013943D02*
X020541Y013943D01*
X020541Y013845D02*
X012211Y013845D01*
X012293Y013746D02*
X020541Y013746D01*
X020541Y013648D02*
X012293Y013648D01*
X010921Y013648D02*
X010552Y013648D01*
X010552Y013746D02*
X010921Y013746D01*
X010921Y013845D02*
X010522Y013845D01*
X010552Y013549D02*
X010921Y013549D01*
X010929Y013943D02*
X001993Y013943D01*
X002086Y014042D02*
X006232Y014042D01*
X006257Y014017D02*
X006659Y014017D01*
X006746Y014105D01*
X006746Y014506D01*
X006659Y014594D01*
X006257Y014594D01*
X006169Y014506D01*
X006169Y014105D01*
X006257Y014017D01*
X006169Y014140D02*
X002127Y014140D01*
X002155Y014239D02*
X006169Y014239D01*
X006169Y014337D02*
X002155Y014337D01*
X002140Y014436D02*
X006169Y014436D01*
X006197Y014534D02*
X002099Y014534D01*
X002024Y014633D02*
X007866Y014633D01*
X007804Y014534D02*
X006719Y014534D01*
X006746Y014436D02*
X007804Y014436D01*
X007804Y014337D02*
X006746Y014337D01*
X006746Y014239D02*
X007804Y014239D01*
X007804Y014140D02*
X006746Y014140D01*
X006684Y014042D02*
X007889Y014042D01*
X009529Y013585D02*
X006001Y010058D01*
X006462Y009708D02*
X006756Y009708D01*
X006824Y009806D02*
X006560Y009806D01*
X006659Y009905D02*
X006922Y009905D01*
X007021Y010003D02*
X006757Y010003D01*
X006856Y010102D02*
X007119Y010102D01*
X007218Y010200D02*
X006954Y010200D01*
X003624Y010102D02*
X001961Y010102D01*
X002152Y010200D02*
X003496Y010200D01*
X003398Y010299D02*
X002250Y010299D01*
X002300Y010397D02*
X003348Y010397D01*
X003307Y010496D02*
X002340Y010496D01*
X002344Y010594D02*
X003304Y010594D01*
X003304Y010693D02*
X002344Y010693D01*
X002311Y010791D02*
X003337Y010791D01*
X003378Y010890D02*
X002270Y010890D01*
X002179Y010988D02*
X003469Y010988D01*
X003621Y011087D02*
X002026Y011087D01*
X000495Y011185D02*
X000340Y011185D01*
X000340Y011087D02*
X000397Y011087D01*
X000427Y010299D02*
X000340Y010299D01*
X000340Y010200D02*
X000560Y010200D01*
X001943Y009018D02*
X002076Y009018D01*
X001956Y008926D02*
X001956Y008926D01*
X004265Y005550D02*
X004481Y005333D01*
X004722Y005333D01*
X004733Y005345D01*
X004546Y004093D02*
X009350Y004093D01*
X009270Y003995D02*
X004519Y003995D01*
X006697Y005768D02*
X006990Y005768D01*
X006938Y005866D02*
X006789Y005866D01*
X010751Y007935D02*
X022509Y007935D01*
X022509Y008033D02*
X010850Y008033D01*
X010883Y008132D02*
X022509Y008132D01*
X022509Y008230D02*
X010883Y008230D01*
X010883Y008329D02*
X021461Y008329D01*
X021410Y008427D02*
X010803Y008427D01*
X010961Y006162D02*
X020541Y006162D01*
X020541Y006063D02*
X011059Y006063D01*
X011158Y005965D02*
X013116Y005965D01*
X013721Y005965D02*
X020541Y005965D01*
X020541Y005866D02*
X013757Y005866D01*
X013757Y005768D02*
X020541Y005768D01*
X020480Y005669D02*
X013757Y005669D01*
X013757Y005571D02*
X020442Y005571D01*
X020442Y005472D02*
X013744Y005472D01*
X013645Y005374D02*
X020442Y005374D01*
X020480Y005275D02*
X017548Y005275D01*
X017565Y005258D02*
X017565Y005031D01*
X017950Y005031D01*
X018038Y004943D01*
X018038Y004542D01*
X017950Y004454D01*
X017548Y004454D01*
X017513Y004489D01*
X017478Y004454D01*
X017076Y004454D01*
X016988Y004542D01*
X016988Y005258D01*
X017076Y005346D01*
X017478Y005346D01*
X017565Y005258D01*
X017565Y005177D02*
X020442Y005177D01*
X020442Y005078D02*
X017565Y005078D01*
X018001Y004980D02*
X020442Y004980D01*
X020460Y004881D02*
X018038Y004881D01*
X018038Y004783D02*
X020442Y004783D01*
X020442Y004684D02*
X018038Y004684D01*
X018038Y004586D02*
X020442Y004586D01*
X020530Y004487D02*
X017983Y004487D01*
X017515Y004487D02*
X017511Y004487D01*
X017042Y004487D02*
X013875Y004487D01*
X013875Y004586D02*
X016988Y004586D01*
X016988Y004684D02*
X013875Y004684D01*
X013875Y004783D02*
X016988Y004783D01*
X016988Y004881D02*
X013860Y004881D01*
X013761Y004980D02*
X016988Y004980D01*
X016988Y005078D02*
X013275Y005078D01*
X013275Y004980D02*
X013312Y004980D01*
X013275Y005177D02*
X016988Y005177D01*
X017005Y005275D02*
X013275Y005275D01*
X012362Y005467D02*
X012235Y005340D01*
X012235Y004909D01*
X012330Y004814D01*
X011251Y004814D01*
X011325Y004888D01*
X011325Y005361D01*
X011218Y005467D01*
X012362Y005467D01*
X012269Y005374D02*
X011312Y005374D01*
X011325Y005275D02*
X012235Y005275D01*
X012235Y005177D02*
X011325Y005177D01*
X011325Y005078D02*
X012235Y005078D01*
X012235Y004980D02*
X011325Y004980D01*
X011318Y004881D02*
X012263Y004881D01*
X013325Y003995D02*
X013326Y003995D01*
X013325Y003896D02*
X013384Y003896D01*
X013482Y003798D02*
X013234Y003798D01*
X013748Y003798D02*
X028119Y003798D01*
X028101Y003896D02*
X027085Y003896D01*
X027179Y003995D02*
X028101Y003995D01*
X028101Y004093D02*
X027273Y004093D01*
X027367Y004192D02*
X028101Y004192D01*
X028101Y004290D02*
X027460Y004290D01*
X027535Y004389D02*
X028101Y004389D01*
X028101Y004487D02*
X027534Y004487D01*
X027534Y004586D02*
X028101Y004586D01*
X027584Y004783D02*
X029568Y004783D01*
X029535Y004881D02*
X027628Y004881D01*
X027628Y004980D02*
X029513Y004980D01*
X029513Y004944D02*
X029663Y004507D01*
X029663Y004507D01*
X029947Y004142D01*
X029947Y004142D01*
X029947Y004142D01*
X030334Y003889D01*
X030334Y003889D01*
X030783Y003775D01*
X031244Y003814D01*
X031667Y003999D01*
X032007Y004313D01*
X032228Y004719D01*
X032228Y004719D01*
X032304Y005176D01*
X032228Y005632D01*
X032007Y006039D01*
X031667Y006352D01*
X031244Y006538D01*
X031244Y006538D01*
X030783Y006576D01*
X030783Y006576D01*
X030334Y006462D01*
X029947Y006209D01*
X029663Y005844D01*
X029513Y005407D01*
X029513Y004944D01*
X029513Y005078D02*
X027617Y005078D01*
X027518Y005177D02*
X029513Y005177D01*
X029513Y005275D02*
X027456Y005275D01*
X027554Y005374D02*
X029513Y005374D01*
X029535Y005472D02*
X027653Y005472D01*
X027751Y005571D02*
X029569Y005571D01*
X029603Y005669D02*
X027850Y005669D01*
X027948Y005768D02*
X029637Y005768D01*
X029663Y005844D02*
X029663Y005844D01*
X029680Y005866D02*
X028053Y005866D01*
X028151Y005965D02*
X029757Y005965D01*
X029833Y006063D02*
X028245Y006063D01*
X028245Y006162D02*
X029910Y006162D01*
X029947Y006209D02*
X029947Y006209D01*
X029947Y006209D01*
X030025Y006260D02*
X028245Y006260D01*
X028226Y006359D02*
X030176Y006359D01*
X030327Y006457D02*
X028337Y006457D01*
X028432Y006556D02*
X030704Y006556D01*
X031024Y006556D02*
X032520Y006556D01*
X032520Y006654D02*
X028432Y006654D01*
X027676Y007935D02*
X031252Y007935D01*
X031350Y008033D02*
X027774Y008033D01*
X030334Y006462D02*
X030334Y006462D01*
X031427Y006457D02*
X032520Y006457D01*
X032520Y006359D02*
X031651Y006359D01*
X031667Y006352D02*
X031667Y006352D01*
X031767Y006260D02*
X032520Y006260D01*
X032520Y006162D02*
X031874Y006162D01*
X031981Y006063D02*
X032520Y006063D01*
X032520Y005965D02*
X032047Y005965D01*
X032007Y006039D02*
X032007Y006039D01*
X032101Y005866D02*
X032520Y005866D01*
X032520Y005768D02*
X032154Y005768D01*
X032207Y005669D02*
X032520Y005669D01*
X032520Y005571D02*
X032238Y005571D01*
X032228Y005632D02*
X032228Y005632D01*
X032254Y005472D02*
X032520Y005472D01*
X032520Y005374D02*
X032271Y005374D01*
X032287Y005275D02*
X032520Y005275D01*
X032520Y005177D02*
X032303Y005177D01*
X032287Y005078D02*
X032513Y005078D01*
X032503Y004980D02*
X032271Y004980D01*
X032255Y004881D02*
X032476Y004881D01*
X032450Y004783D02*
X032238Y004783D01*
X032209Y004684D02*
X032423Y004684D01*
X032381Y004586D02*
X032155Y004586D01*
X032102Y004487D02*
X032324Y004487D01*
X032267Y004389D02*
X032049Y004389D01*
X032007Y004313D02*
X032007Y004313D01*
X031983Y004290D02*
X032201Y004290D01*
X032102Y004192D02*
X031876Y004192D01*
X031769Y004093D02*
X032004Y004093D01*
X031866Y003995D02*
X031657Y003995D01*
X031667Y003999D02*
X031667Y003999D01*
X031696Y003896D02*
X031432Y003896D01*
X031400Y003798D02*
X031053Y003798D01*
X031244Y003814D02*
X031244Y003814D01*
X030783Y003775D02*
X030783Y003775D01*
X030694Y003798D02*
X029033Y003798D01*
X029051Y003896D02*
X030323Y003896D01*
X030172Y003995D02*
X029051Y003995D01*
X029051Y004093D02*
X030022Y004093D01*
X029908Y004192D02*
X029051Y004192D01*
X029051Y004290D02*
X029832Y004290D01*
X029755Y004389D02*
X029051Y004389D01*
X029051Y004487D02*
X029678Y004487D01*
X029636Y004586D02*
X029051Y004586D01*
X029602Y004684D02*
X027534Y004684D01*
X026753Y004684D02*
X021382Y004684D01*
X021391Y004586D02*
X026753Y004586D01*
X026753Y004487D02*
X021391Y004487D01*
X021325Y004783D02*
X026753Y004783D01*
X026753Y004881D02*
X021245Y004881D01*
X021223Y004980D02*
X026753Y004980D01*
X026753Y005078D02*
X021313Y005078D01*
X021343Y005177D02*
X026753Y005177D01*
X026784Y005275D02*
X021343Y005275D01*
X021343Y005374D02*
X026876Y005374D01*
X026974Y005472D02*
X021343Y005472D01*
X021343Y005571D02*
X027073Y005571D01*
X027171Y005669D02*
X021343Y005669D01*
X020492Y004389D02*
X013842Y004389D01*
X013807Y004290D02*
X020492Y004290D01*
X020510Y004192D02*
X013904Y004192D01*
X013904Y004093D02*
X020608Y004093D01*
X020829Y003995D02*
X013904Y003995D01*
X013847Y003896D02*
X020920Y003896D01*
X021075Y008920D02*
X021407Y008920D01*
X021407Y009018D02*
X021173Y009018D01*
X021272Y009117D02*
X021407Y009117D01*
X021407Y009215D02*
X021370Y009215D01*
X027359Y010102D02*
X028257Y010102D01*
X028257Y010200D02*
X027359Y010200D01*
X032359Y010200D02*
X032520Y010200D01*
X032520Y010102D02*
X032359Y010102D01*
X032359Y010003D02*
X032520Y010003D01*
X032520Y009905D02*
X032359Y009905D01*
X032359Y009806D02*
X032520Y009806D01*
X032520Y009708D02*
X032359Y009708D01*
X032359Y009609D02*
X032520Y009609D01*
X032520Y009511D02*
X032359Y009511D01*
X032359Y009412D02*
X032520Y009412D01*
X032520Y009314D02*
X032359Y009314D01*
X032359Y009215D02*
X032520Y009215D01*
X032520Y009117D02*
X032359Y009117D01*
X032359Y009018D02*
X032520Y009018D01*
X032520Y008920D02*
X032359Y008920D01*
X032359Y008821D02*
X032520Y008821D01*
X032520Y008723D02*
X032359Y008723D01*
X032359Y008624D02*
X032520Y008624D01*
X032520Y008526D02*
X032359Y008526D01*
X032359Y008427D02*
X032520Y008427D01*
X032520Y008329D02*
X032359Y008329D01*
X032359Y008230D02*
X032520Y008230D01*
X032520Y008132D02*
X032359Y008132D01*
X032359Y008033D02*
X032520Y008033D01*
X032520Y007935D02*
X032359Y007935D01*
X032359Y007836D02*
X032520Y007836D01*
X032520Y007738D02*
X032348Y007738D01*
X032284Y007639D02*
X032520Y007639D01*
X032520Y007541D02*
X032186Y007541D01*
X032143Y007442D02*
X032520Y007442D01*
X032520Y007344D02*
X032092Y007344D01*
X032153Y007245D02*
X032520Y007245D01*
X032520Y007147D02*
X032153Y007147D01*
X032153Y007048D02*
X032520Y007048D01*
X032520Y006950D02*
X032153Y006950D01*
X032153Y006851D02*
X032520Y006851D01*
X032520Y006753D02*
X032091Y006753D01*
X032359Y010299D02*
X032520Y010299D01*
X032520Y010397D02*
X032359Y010397D01*
X032359Y010496D02*
X032520Y010496D01*
X032520Y010594D02*
X032359Y010594D01*
X032359Y010693D02*
X032520Y010693D01*
X032520Y010791D02*
X032359Y010791D01*
X032359Y010890D02*
X032520Y010890D01*
X032520Y010988D02*
X032359Y010988D01*
X032359Y011087D02*
X032520Y011087D01*
X032520Y011185D02*
X032359Y011185D01*
X032359Y011284D02*
X032520Y011284D01*
X032520Y011382D02*
X032359Y011382D01*
X032359Y011481D02*
X032520Y011481D01*
X032520Y011579D02*
X032359Y011579D01*
X032359Y011678D02*
X032520Y011678D01*
X032520Y011776D02*
X032359Y011776D01*
X031244Y019562D02*
X031244Y019562D01*
X030783Y019523D02*
X030783Y019523D01*
X020541Y016898D02*
X020453Y016898D01*
X020468Y016800D02*
X020541Y016800D01*
X020541Y016701D02*
X020468Y016701D01*
X020468Y016603D02*
X020541Y016603D01*
X020541Y016504D02*
X020468Y016504D01*
X020468Y016406D02*
X020541Y016406D01*
X020541Y016307D02*
X020468Y016307D01*
X020468Y016209D02*
X020541Y016209D01*
X020541Y016110D02*
X020468Y016110D01*
X020541Y016012D02*
X016907Y016012D01*
X016907Y016110D02*
X019518Y016110D01*
X019518Y016209D02*
X016907Y016209D01*
X016902Y016307D02*
X019518Y016307D01*
X020541Y015913D02*
X016907Y015913D01*
X016862Y015815D02*
X020541Y015815D01*
X020541Y015716D02*
X002929Y015716D01*
X003039Y015618D02*
X020541Y015618D01*
X020541Y015519D02*
X003105Y015519D01*
X003146Y015421D02*
X020541Y015421D01*
X020541Y015322D02*
X003155Y015322D01*
X003155Y015224D02*
X020541Y015224D01*
X020541Y015125D02*
X003121Y015125D01*
X003076Y015027D02*
X020541Y015027D01*
X020541Y014928D02*
X002978Y014928D01*
X002781Y014830D02*
X020541Y014830D01*
X020541Y014534D02*
X015191Y014534D01*
X015214Y014436D02*
X020541Y014436D01*
X020541Y014337D02*
X015214Y014337D01*
X015214Y014239D02*
X020541Y014239D01*
X020541Y014140D02*
X015214Y014140D01*
X015187Y014042D02*
X020541Y014042D01*
X010214Y013593D02*
X010206Y013585D01*
X009529Y013585D01*
X009905Y013845D02*
X001818Y013845D01*
X002038Y013781D02*
X002155Y013664D01*
X002155Y012944D01*
X002038Y012826D01*
X001318Y012826D01*
X001201Y012944D01*
X001201Y013664D01*
X001318Y013781D01*
X002038Y013781D01*
X002073Y013746D02*
X002500Y013746D01*
X002348Y013648D02*
X002155Y013648D01*
X002155Y013549D02*
X002264Y013549D01*
X002223Y013451D02*
X002155Y013451D01*
X002155Y013352D02*
X002201Y013352D01*
X002201Y013254D02*
X002155Y013254D01*
X002155Y013155D02*
X002223Y013155D01*
X002264Y013057D02*
X002155Y013057D01*
X002155Y012958D02*
X002349Y012958D01*
X002503Y012860D02*
X002072Y012860D01*
X001285Y012860D02*
X000340Y012860D01*
X000340Y012958D02*
X001201Y012958D01*
X001201Y013057D02*
X000340Y013057D01*
X000340Y013155D02*
X001201Y013155D01*
X001201Y013254D02*
X000340Y013254D01*
X000340Y013352D02*
X001201Y013352D01*
X001201Y013451D02*
X000340Y013451D01*
X000340Y013549D02*
X001201Y013549D01*
X001201Y013648D02*
X000340Y013648D01*
X000340Y013746D02*
X001284Y013746D01*
X001364Y013943D02*
X000340Y013943D01*
X000340Y013845D02*
X001539Y013845D01*
X001270Y014042D02*
X000340Y014042D01*
X000340Y014140D02*
X001229Y014140D01*
X001201Y014239D02*
X000340Y014239D01*
X000340Y014337D02*
X001201Y014337D01*
X001217Y014436D02*
X000340Y014436D01*
X000340Y014534D02*
X001257Y014534D01*
X001333Y014633D02*
X000340Y014633D01*
X000340Y014731D02*
X001464Y014731D01*
X001575Y014830D02*
X000340Y014830D01*
X000340Y014928D02*
X001379Y014928D01*
X001280Y015027D02*
X000340Y015027D01*
X000340Y015125D02*
X001236Y015125D01*
X001201Y015224D02*
X000340Y015224D01*
X000340Y015322D02*
X001201Y015322D01*
X001210Y015421D02*
X000340Y015421D01*
X000340Y015519D02*
X001251Y015519D01*
X001318Y015618D02*
X000340Y015618D01*
X000340Y015716D02*
X001428Y015716D01*
D24*
X006785Y017813D02*
X007099Y017498D01*
X010899Y017498D01*
X011017Y017617D01*
X011233Y017400D01*
X012198Y017400D01*
X011017Y017617D02*
X011017Y018109D01*
X014048Y018123D02*
X015564Y018123D01*
X015564Y018045D02*
X014048Y018045D01*
X014048Y017966D02*
X015564Y017966D01*
X015564Y017888D02*
X014048Y017888D01*
X014048Y017809D02*
X015564Y017809D01*
X015564Y017731D02*
X014048Y017731D01*
X014048Y017652D02*
X015564Y017652D01*
X015564Y017574D02*
X014048Y017574D01*
X014048Y017495D02*
X015564Y017495D01*
X015564Y017417D02*
X014048Y017417D01*
X014048Y017338D02*
X015564Y017338D01*
X015564Y017260D02*
X014048Y017260D01*
X014048Y017181D02*
X015564Y017181D01*
X015564Y017103D02*
X014048Y017103D01*
X014048Y017046D02*
X015564Y017046D01*
X015564Y018247D01*
X014048Y018247D01*
X014048Y017046D01*
X014048Y018202D02*
X015564Y018202D01*
X020781Y018079D02*
X021174Y018473D01*
X031105Y018473D01*
X032119Y017459D01*
X032119Y007813D01*
X031922Y007617D01*
X031804Y007617D01*
X031371Y007715D02*
X031814Y008158D01*
X031814Y017341D01*
X030928Y018227D01*
X021332Y018227D01*
X021056Y017951D01*
X021056Y009703D01*
X020849Y009497D01*
X020731Y009497D01*
X020170Y009487D02*
X020781Y010097D01*
X020781Y018079D01*
X021312Y017843D02*
X021479Y018010D01*
X028379Y018010D01*
X028536Y017853D01*
X028536Y014388D01*
X027769Y013621D01*
X027299Y013649D02*
X030741Y013649D01*
X030741Y013727D02*
X027299Y013727D01*
X027299Y013806D02*
X030741Y013806D01*
X030741Y013884D02*
X027299Y013884D01*
X027299Y013963D02*
X030741Y013963D01*
X030741Y014041D02*
X027299Y014041D01*
X027299Y014120D02*
X030741Y014120D01*
X030741Y014198D02*
X027299Y014198D01*
X027299Y014277D02*
X030741Y014277D01*
X030741Y014355D02*
X027299Y014355D01*
X027299Y014434D02*
X030741Y014434D01*
X030741Y014512D02*
X027299Y014512D01*
X027299Y014591D02*
X030741Y014591D01*
X030741Y014669D02*
X028655Y014669D01*
X028655Y014664D02*
X028655Y015687D01*
X030072Y015687D01*
X030072Y014743D01*
X030741Y014743D01*
X030741Y008443D01*
X028497Y008443D01*
X028497Y010451D01*
X027299Y010451D01*
X027299Y014664D01*
X028655Y014664D01*
X028655Y014748D02*
X030072Y014748D01*
X030072Y014826D02*
X028655Y014826D01*
X028655Y014905D02*
X030072Y014905D01*
X030072Y014983D02*
X028655Y014983D01*
X028655Y015062D02*
X030072Y015062D01*
X030072Y015140D02*
X028655Y015140D01*
X028655Y015219D02*
X030072Y015219D01*
X030072Y015297D02*
X028655Y015297D01*
X028655Y015376D02*
X030072Y015376D01*
X030072Y015454D02*
X028655Y015454D01*
X028655Y015533D02*
X030072Y015533D01*
X030072Y015611D02*
X028655Y015611D01*
X028182Y015550D02*
X028162Y015530D01*
X028182Y015550D02*
X028182Y017361D01*
X027828Y017715D01*
X027828Y017735D01*
X026529Y015687D02*
X025033Y015687D01*
X025033Y008483D01*
X027119Y008483D01*
X027119Y014664D01*
X026529Y014664D01*
X026529Y015687D01*
X026529Y015611D02*
X025033Y015611D01*
X025033Y015533D02*
X026529Y015533D01*
X026529Y015454D02*
X025033Y015454D01*
X025033Y015376D02*
X026529Y015376D01*
X026529Y015297D02*
X025033Y015297D01*
X025033Y015219D02*
X026529Y015219D01*
X026529Y015140D02*
X025033Y015140D01*
X025033Y015062D02*
X026529Y015062D01*
X026529Y014983D02*
X025033Y014983D01*
X025033Y014905D02*
X026529Y014905D01*
X026529Y014826D02*
X025033Y014826D01*
X025033Y014748D02*
X026529Y014748D01*
X026529Y014669D02*
X025033Y014669D01*
X025033Y014591D02*
X027119Y014591D01*
X027119Y014512D02*
X025033Y014512D01*
X025033Y014434D02*
X027119Y014434D01*
X027119Y014355D02*
X025033Y014355D01*
X025033Y014277D02*
X027119Y014277D01*
X027119Y014198D02*
X025033Y014198D01*
X025033Y014120D02*
X027119Y014120D01*
X027119Y014041D02*
X025033Y014041D01*
X025033Y013963D02*
X027119Y013963D01*
X027119Y013884D02*
X025033Y013884D01*
X025033Y013806D02*
X027119Y013806D01*
X027119Y013727D02*
X025033Y013727D01*
X025033Y013649D02*
X027119Y013649D01*
X027119Y013570D02*
X025033Y013570D01*
X025033Y013492D02*
X027119Y013492D01*
X027119Y013413D02*
X025033Y013413D01*
X025033Y013335D02*
X027119Y013335D01*
X027119Y013256D02*
X025033Y013256D01*
X025033Y013178D02*
X027119Y013178D01*
X027119Y013099D02*
X025033Y013099D01*
X025033Y013021D02*
X027119Y013021D01*
X027119Y012942D02*
X025033Y012942D01*
X025033Y012864D02*
X027119Y012864D01*
X027119Y012785D02*
X025033Y012785D01*
X025033Y012707D02*
X027119Y012707D01*
X027119Y012628D02*
X025033Y012628D01*
X025033Y012550D02*
X027119Y012550D01*
X027119Y012471D02*
X025033Y012471D01*
X025033Y012393D02*
X027119Y012393D01*
X027119Y012314D02*
X025033Y012314D01*
X025033Y012236D02*
X027119Y012236D01*
X027119Y012157D02*
X025033Y012157D01*
X025033Y012079D02*
X027119Y012079D01*
X027119Y012000D02*
X025033Y012000D01*
X025033Y011922D02*
X027119Y011922D01*
X027119Y011843D02*
X025033Y011843D01*
X025033Y011765D02*
X027119Y011765D01*
X027119Y011686D02*
X025033Y011686D01*
X025033Y011608D02*
X027119Y011608D01*
X027119Y011529D02*
X025033Y011529D01*
X025033Y011451D02*
X027119Y011451D01*
X027119Y011372D02*
X025033Y011372D01*
X025033Y011294D02*
X027119Y011294D01*
X027119Y011215D02*
X025033Y011215D01*
X025033Y011137D02*
X027119Y011137D01*
X027119Y011058D02*
X025033Y011058D01*
X025033Y010980D02*
X027119Y010980D01*
X027119Y010901D02*
X025033Y010901D01*
X025033Y010823D02*
X027119Y010823D01*
X027119Y010744D02*
X025033Y010744D01*
X025033Y010666D02*
X027119Y010666D01*
X027119Y010587D02*
X025033Y010587D01*
X025033Y010509D02*
X027119Y010509D01*
X027119Y010430D02*
X025033Y010430D01*
X025033Y010352D02*
X027119Y010352D01*
X027119Y010273D02*
X025033Y010273D01*
X025033Y010195D02*
X027119Y010195D01*
X027119Y010116D02*
X025033Y010116D01*
X025033Y010038D02*
X027119Y010038D01*
X027119Y009959D02*
X025033Y009959D01*
X025033Y009881D02*
X027119Y009881D01*
X027119Y009802D02*
X025033Y009802D01*
X025033Y009724D02*
X027119Y009724D01*
X027119Y009645D02*
X025033Y009645D01*
X025033Y009567D02*
X027119Y009567D01*
X027119Y009488D02*
X025033Y009488D01*
X025033Y009410D02*
X027119Y009410D01*
X027119Y009331D02*
X025033Y009331D01*
X025033Y009253D02*
X027119Y009253D01*
X027119Y009174D02*
X025033Y009174D01*
X025033Y009096D02*
X027119Y009096D01*
X027119Y009017D02*
X025033Y009017D01*
X025033Y008939D02*
X027119Y008939D01*
X027119Y008860D02*
X025033Y008860D01*
X025033Y008782D02*
X027119Y008782D01*
X027119Y008703D02*
X025033Y008703D01*
X025033Y008625D02*
X027119Y008625D01*
X027119Y008546D02*
X025033Y008546D01*
X025505Y008109D02*
X025505Y008983D01*
X025517Y008995D01*
X025544Y008967D01*
X025505Y008109D02*
X025052Y007656D01*
X020584Y007656D01*
X020505Y007577D01*
X020269Y007577D01*
X020682Y007380D02*
X027985Y007380D01*
X028143Y007223D01*
X027670Y007144D02*
X028143Y006672D01*
X027907Y006199D02*
X027907Y006065D01*
X026993Y005152D01*
X026993Y004361D01*
X026844Y004211D01*
X021210Y004211D01*
X021151Y004270D01*
X021151Y004617D01*
X021064Y004723D01*
X020781Y004723D01*
X020785Y005093D02*
X020781Y005097D01*
X020785Y005093D02*
X020997Y005093D01*
X021103Y005199D01*
X021103Y005817D01*
X021328Y006042D01*
X024363Y006042D01*
X024363Y006790D02*
X021434Y006790D01*
X020781Y006136D01*
X020781Y005491D01*
X020466Y006495D02*
X019836Y006495D01*
X019718Y006613D01*
X019718Y006908D01*
X020190Y006908D02*
X020210Y006908D01*
X020682Y007380D01*
X021115Y007144D02*
X027670Y007144D01*
X028497Y008468D02*
X030741Y008468D01*
X030741Y008546D02*
X028497Y008546D01*
X028497Y008625D02*
X030741Y008625D01*
X030741Y008703D02*
X028497Y008703D01*
X028497Y008782D02*
X030741Y008782D01*
X030741Y008860D02*
X028497Y008860D01*
X028497Y008939D02*
X030741Y008939D01*
X030741Y009017D02*
X028497Y009017D01*
X028497Y009096D02*
X030741Y009096D01*
X030741Y009174D02*
X028497Y009174D01*
X028497Y009253D02*
X030741Y009253D01*
X030741Y009331D02*
X028497Y009331D01*
X028497Y009410D02*
X030741Y009410D01*
X030741Y009488D02*
X028497Y009488D01*
X028497Y009567D02*
X030741Y009567D01*
X030741Y009645D02*
X028497Y009645D01*
X028497Y009724D02*
X030741Y009724D01*
X030741Y009802D02*
X028497Y009802D01*
X028497Y009881D02*
X030741Y009881D01*
X030741Y009959D02*
X028497Y009959D01*
X028497Y010038D02*
X030741Y010038D01*
X030741Y010116D02*
X028497Y010116D01*
X028497Y010195D02*
X030741Y010195D01*
X030741Y010273D02*
X028497Y010273D01*
X028497Y010352D02*
X030741Y010352D01*
X030741Y010430D02*
X028497Y010430D01*
X027299Y010509D02*
X030741Y010509D01*
X030741Y010587D02*
X027299Y010587D01*
X027299Y010666D02*
X030741Y010666D01*
X030741Y010744D02*
X027299Y010744D01*
X027299Y010823D02*
X030741Y010823D01*
X030741Y010901D02*
X027299Y010901D01*
X027299Y010980D02*
X030741Y010980D01*
X030741Y011058D02*
X027299Y011058D01*
X027299Y011137D02*
X030741Y011137D01*
X030741Y011215D02*
X027299Y011215D01*
X027299Y011294D02*
X030741Y011294D01*
X030741Y011372D02*
X027299Y011372D01*
X027299Y011451D02*
X030741Y011451D01*
X030741Y011529D02*
X027299Y011529D01*
X027299Y011608D02*
X030741Y011608D01*
X030741Y011686D02*
X027299Y011686D01*
X027299Y011765D02*
X030741Y011765D01*
X030741Y011843D02*
X027299Y011843D01*
X027299Y011922D02*
X030741Y011922D01*
X030741Y012000D02*
X027299Y012000D01*
X027299Y012079D02*
X030741Y012079D01*
X030741Y012157D02*
X027299Y012157D01*
X027299Y012236D02*
X030741Y012236D01*
X030741Y012314D02*
X027299Y012314D01*
X027299Y012393D02*
X030741Y012393D01*
X030741Y012471D02*
X027299Y012471D01*
X027299Y012550D02*
X030741Y012550D01*
X030741Y012628D02*
X027299Y012628D01*
X027299Y012707D02*
X030741Y012707D01*
X030741Y012785D02*
X027299Y012785D01*
X027299Y012864D02*
X030741Y012864D01*
X030741Y012942D02*
X027299Y012942D01*
X027299Y013021D02*
X030741Y013021D01*
X030741Y013099D02*
X027299Y013099D01*
X027299Y013178D02*
X030741Y013178D01*
X030741Y013256D02*
X027299Y013256D01*
X027299Y013335D02*
X030741Y013335D01*
X030741Y013413D02*
X027299Y013413D01*
X027299Y013492D02*
X030741Y013492D01*
X030741Y013570D02*
X027299Y013570D01*
X024853Y013570D02*
X021647Y013570D01*
X021647Y013492D02*
X024853Y013492D01*
X024853Y013413D02*
X021647Y013413D01*
X021647Y013335D02*
X024853Y013335D01*
X024853Y013256D02*
X021647Y013256D01*
X021647Y013178D02*
X024853Y013178D01*
X024853Y013099D02*
X021647Y013099D01*
X021647Y013021D02*
X024853Y013021D01*
X024853Y012942D02*
X021647Y012942D01*
X021647Y012864D02*
X024853Y012864D01*
X024853Y012785D02*
X021647Y012785D01*
X021647Y012707D02*
X024853Y012707D01*
X024853Y012628D02*
X021647Y012628D01*
X021647Y012550D02*
X024853Y012550D01*
X024853Y012471D02*
X021647Y012471D01*
X021647Y012393D02*
X024853Y012393D01*
X024853Y012314D02*
X021647Y012314D01*
X021647Y012236D02*
X024853Y012236D01*
X024853Y012157D02*
X021647Y012157D01*
X021647Y012079D02*
X024853Y012079D01*
X024853Y012000D02*
X021647Y012000D01*
X021647Y011922D02*
X024853Y011922D01*
X024853Y011843D02*
X021647Y011843D01*
X021647Y011765D02*
X024853Y011765D01*
X024853Y011686D02*
X021647Y011686D01*
X021647Y011608D02*
X024853Y011608D01*
X024853Y011529D02*
X021647Y011529D01*
X021647Y011451D02*
X024853Y011451D01*
X024853Y011372D02*
X021647Y011372D01*
X021647Y011294D02*
X024853Y011294D01*
X024853Y011215D02*
X021647Y011215D01*
X021647Y011137D02*
X024853Y011137D01*
X024853Y011058D02*
X021647Y011058D01*
X021647Y010980D02*
X024853Y010980D01*
X024853Y010901D02*
X021647Y010901D01*
X021647Y010823D02*
X024853Y010823D01*
X024853Y010744D02*
X021647Y010744D01*
X021647Y010666D02*
X024853Y010666D01*
X024853Y010587D02*
X021647Y010587D01*
X021647Y010509D02*
X024853Y010509D01*
X024853Y010430D02*
X021647Y010430D01*
X021647Y010352D02*
X023616Y010352D01*
X023615Y010412D02*
X023655Y008483D01*
X021647Y008483D01*
X021647Y015727D01*
X022985Y015727D01*
X022985Y014664D01*
X024852Y014664D01*
X024852Y014270D01*
X024853Y014270D01*
X024853Y010412D01*
X023615Y010412D01*
X023618Y010273D02*
X021647Y010273D01*
X021647Y010195D02*
X023620Y010195D01*
X023621Y010116D02*
X021647Y010116D01*
X021647Y010038D02*
X023623Y010038D01*
X023624Y009959D02*
X021647Y009959D01*
X021647Y009881D02*
X023626Y009881D01*
X023628Y009802D02*
X021647Y009802D01*
X021647Y009724D02*
X023629Y009724D01*
X023631Y009645D02*
X021647Y009645D01*
X021647Y009567D02*
X023632Y009567D01*
X023634Y009488D02*
X021647Y009488D01*
X021647Y009410D02*
X023636Y009410D01*
X023637Y009331D02*
X021647Y009331D01*
X021647Y009253D02*
X023639Y009253D01*
X023640Y009174D02*
X021647Y009174D01*
X021647Y009096D02*
X023642Y009096D01*
X023644Y009017D02*
X021647Y009017D01*
X021647Y008939D02*
X023645Y008939D01*
X023647Y008860D02*
X021647Y008860D01*
X021647Y008782D02*
X023649Y008782D01*
X023650Y008703D02*
X021647Y008703D01*
X021647Y008625D02*
X023652Y008625D01*
X023653Y008546D02*
X021647Y008546D01*
X020928Y009113D02*
X019895Y009113D01*
X019659Y009349D01*
X019521Y009349D01*
X020928Y009113D02*
X021312Y009497D01*
X021312Y017843D01*
X021647Y015690D02*
X022985Y015690D01*
X022985Y015611D02*
X021647Y015611D01*
X021647Y015533D02*
X022985Y015533D01*
X022985Y015454D02*
X021647Y015454D01*
X021647Y015376D02*
X022985Y015376D01*
X022985Y015297D02*
X021647Y015297D01*
X021647Y015219D02*
X022985Y015219D01*
X022985Y015140D02*
X021647Y015140D01*
X021647Y015062D02*
X022985Y015062D01*
X022985Y014983D02*
X021647Y014983D01*
X021647Y014905D02*
X022985Y014905D01*
X022985Y014826D02*
X021647Y014826D01*
X021647Y014748D02*
X022985Y014748D01*
X022985Y014669D02*
X021647Y014669D01*
X021647Y014591D02*
X024852Y014591D01*
X024852Y014512D02*
X021647Y014512D01*
X021647Y014434D02*
X024852Y014434D01*
X024852Y014355D02*
X021647Y014355D01*
X021647Y014277D02*
X024852Y014277D01*
X024853Y014198D02*
X021647Y014198D01*
X021647Y014120D02*
X024853Y014120D01*
X024853Y014041D02*
X021647Y014041D01*
X021647Y013963D02*
X024853Y013963D01*
X024853Y013884D02*
X021647Y013884D01*
X021647Y013806D02*
X024853Y013806D01*
X024853Y013727D02*
X021647Y013727D01*
X021647Y013649D02*
X024853Y013649D01*
X024639Y015510D02*
X024678Y015550D01*
X024678Y017361D01*
X024324Y017715D01*
X031371Y007715D02*
X031371Y007479D01*
X031814Y007036D01*
X027344Y004943D02*
X027344Y004443D01*
X026958Y004038D01*
X021048Y004038D01*
X020781Y004325D01*
X020781Y004329D01*
X020466Y006495D02*
X021115Y007144D01*
X027340Y004947D02*
X027344Y004943D01*
X013615Y004073D02*
X013064Y004624D01*
X009836Y004624D01*
X009540Y004329D01*
X009540Y003857D01*
X011076Y005707D02*
X010288Y006495D01*
X010288Y007144D01*
X009088Y008345D01*
X009088Y011514D01*
X009029Y011613D01*
X008635Y010018D02*
X007375Y010018D01*
X006981Y009624D01*
X006981Y009428D01*
X006922Y009369D01*
X006222Y009821D02*
X005348Y008947D01*
X005348Y007341D01*
X005111Y007577D02*
X005111Y009168D01*
X006001Y010058D01*
X000376Y008085D02*
X000376Y007933D01*
X000377Y007932D01*
X000376Y007960D02*
X000377Y007961D01*
X000376Y007960D02*
X000376Y007797D01*
X011076Y005707D02*
X013418Y005707D01*
X006785Y017813D02*
X006785Y018089D01*
D25*
X022848Y015510D02*
X024225Y015510D01*
X024304Y015589D01*
X024304Y016869D01*
X026273Y015530D02*
X027710Y015530D01*
X027828Y015648D01*
X027828Y016869D01*
X027808Y009664D02*
X027808Y008463D01*
X027513Y008168D01*
X026273Y008168D01*
X024304Y008266D02*
X024166Y008128D01*
X022848Y008128D01*
X024304Y008266D02*
X024304Y009664D01*
D26*
X002721Y008085D02*
X002721Y007797D01*
X002340Y007759D01*
X002237Y007511D02*
X002479Y007214D01*
X002275Y007011D01*
X001979Y007253D01*
X001859Y007191D02*
X001690Y007600D01*
X001407Y007600D02*
X001238Y007191D01*
X001118Y007253D02*
X000821Y007011D01*
X000618Y007214D01*
X000860Y007511D01*
X000757Y007759D02*
X000376Y007797D01*
X000376Y008085D02*
X000757Y008124D01*
X000860Y008372D02*
X000618Y008669D01*
X000821Y008872D01*
X001118Y008630D01*
X001366Y008733D02*
X001404Y009114D01*
X001692Y009114D01*
X001731Y008733D01*
X001979Y008630D02*
X002275Y008872D01*
X002479Y008669D01*
X002237Y008372D01*
X002340Y008124D02*
X002721Y008085D01*
X001978Y007252D02*
X001940Y007230D01*
X001900Y007209D01*
X001859Y007191D01*
X000859Y007511D02*
X000832Y007557D01*
X000809Y007606D01*
X000788Y007655D01*
X000771Y007706D01*
X000757Y007758D01*
X001118Y007252D02*
X001156Y007230D01*
X001196Y007209D01*
X001237Y007191D01*
X002237Y007511D02*
X002264Y007557D01*
X002287Y007606D01*
X002308Y007655D01*
X002325Y007706D01*
X002339Y007758D01*
X001978Y008630D02*
X001932Y008657D01*
X001883Y008680D01*
X001834Y008701D01*
X001783Y008718D01*
X001731Y008732D01*
X000859Y008371D02*
X000832Y008325D01*
X000809Y008276D01*
X000788Y008227D01*
X000771Y008176D01*
X000757Y008124D01*
X001118Y008630D02*
X001164Y008657D01*
X001213Y008680D01*
X001262Y008701D01*
X001313Y008718D01*
X001365Y008732D01*
X002237Y008371D02*
X002264Y008325D01*
X002287Y008276D01*
X002308Y008227D01*
X002325Y008176D01*
X002339Y008124D01*
X001689Y007600D02*
X001723Y007616D01*
X001756Y007636D01*
X001786Y007659D01*
X001814Y007685D01*
X001839Y007714D01*
X001860Y007745D01*
X001879Y007778D01*
X001894Y007813D01*
X001905Y007849D01*
X001913Y007886D01*
X001917Y007924D01*
X001916Y007962D01*
X001912Y007999D01*
X001904Y008037D01*
X001893Y008073D01*
X001877Y008107D01*
X001859Y008140D01*
X001836Y008171D01*
X001811Y008199D01*
X001783Y008225D01*
X001753Y008248D01*
X001720Y008267D01*
X001686Y008283D01*
X001650Y008296D01*
X001613Y008304D01*
X001576Y008309D01*
X001538Y008310D01*
X001500Y008307D01*
X001463Y008300D01*
X001426Y008289D01*
X001391Y008275D01*
X001358Y008257D01*
X001326Y008236D01*
X001297Y008211D01*
X001271Y008184D01*
X001247Y008155D01*
X001227Y008123D01*
X001210Y008089D01*
X001196Y008053D01*
X001187Y008016D01*
X001181Y007979D01*
X001179Y007941D01*
X001181Y007905D01*
X001186Y007869D01*
X001195Y007834D01*
X001207Y007800D01*
X001223Y007767D01*
X001241Y007736D01*
X001263Y007707D01*
X001287Y007680D01*
X001314Y007656D01*
X001343Y007634D01*
X001374Y007616D01*
X001407Y007600D01*
D27*
X014964Y017636D02*
X015161Y017439D01*
X014964Y017636D02*
X014107Y017636D01*
X013655Y018089D01*
X013655Y021672D01*
X013379Y021947D01*
X011332Y021947D01*
X011174Y021790D01*
X011174Y021219D01*
M02*
