G75*
G70*
%OFA0B0*%
%FSLAX24Y24*%
%IPPOS*%
%LPD*%
%AMOC8*
5,1,8,0,0,1.08239X$1,22.5*
%
%ADD10C,0.0000*%
%ADD11R,0.0315X0.0472*%
%ADD12C,0.0740*%
%ADD13R,0.0472X0.0315*%
%ADD14R,0.0630X0.0709*%
%ADD15R,0.0709X0.0630*%
%ADD16R,0.0197X0.0394*%
%ADD17R,0.0780X0.0220*%
%ADD18R,0.0630X0.0460*%
%ADD19C,0.0650*%
%ADD20R,0.0650X0.0650*%
%ADD21R,0.1380X0.2000*%
%ADD22R,0.0650X0.0236*%
%ADD23R,0.1811X0.1772*%
%ADD24R,0.0397X0.0397*%
%ADD25R,0.0236X0.0650*%
%ADD26R,0.1772X0.1811*%
%ADD27R,0.0140X0.0660*%
%ADD28C,0.0236*%
%ADD29R,0.0551X0.0118*%
%ADD30R,0.1370X0.1740*%
%ADD31R,0.0100X0.0100*%
%ADD32R,0.0140X0.0330*%
%ADD33R,0.0690X0.0590*%
%ADD34C,0.0300*%
%ADD35R,0.0315X0.0157*%
%ADD36R,0.0330X0.0110*%
%ADD37R,0.0140X0.0240*%
%ADD38R,0.0830X0.0630*%
%ADD39R,0.0787X0.0472*%
%ADD40R,0.0669X0.0984*%
%ADD41R,0.1260X0.1024*%
%ADD42R,0.2165X0.0728*%
%ADD43C,0.0515*%
%ADD44R,0.0515X0.0515*%
%ADD45R,0.0554X0.0554*%
%ADD46C,0.0554*%
%ADD47R,0.0827X0.0827*%
%ADD48C,0.0827*%
%ADD49R,0.0580X0.0110*%
%ADD50R,0.0110X0.0580*%
%ADD51OC8,0.0740*%
%ADD52C,0.0100*%
%ADD53R,0.0277X0.0277*%
%ADD54C,0.0120*%
%ADD55C,0.0080*%
%ADD56C,0.0160*%
%ADD57C,0.0240*%
%ADD58C,0.0320*%
%ADD59C,0.0560*%
D10*
X001820Y000150D02*
X038130Y000150D01*
X038208Y000152D01*
X038286Y000158D01*
X038363Y000167D01*
X038440Y000180D01*
X038516Y000198D01*
X038591Y000218D01*
X038665Y000243D01*
X038737Y000271D01*
X038809Y000302D01*
X038878Y000337D01*
X038946Y000376D01*
X039012Y000417D01*
X039075Y000462D01*
X039137Y000510D01*
X039196Y000561D01*
X039252Y000615D01*
X039306Y000671D01*
X039357Y000730D01*
X039405Y000792D01*
X039450Y000855D01*
X039491Y000921D01*
X039530Y000989D01*
X039565Y001058D01*
X039596Y001130D01*
X039624Y001202D01*
X039649Y001276D01*
X039669Y001351D01*
X039687Y001427D01*
X039700Y001504D01*
X039709Y001581D01*
X039715Y001659D01*
X039717Y001737D01*
X039717Y017683D01*
X039715Y017754D01*
X039710Y017826D01*
X039700Y017896D01*
X039687Y017967D01*
X039671Y018036D01*
X039650Y018104D01*
X039626Y018172D01*
X039599Y018238D01*
X039568Y018302D01*
X039534Y018365D01*
X039497Y018426D01*
X039456Y018485D01*
X039413Y018541D01*
X039367Y018596D01*
X039317Y018647D01*
X039266Y018697D01*
X039211Y018743D01*
X039155Y018786D01*
X039096Y018827D01*
X039035Y018864D01*
X038972Y018898D01*
X038908Y018929D01*
X038842Y018956D01*
X038774Y018980D01*
X038706Y019001D01*
X038637Y019017D01*
X038566Y019030D01*
X038496Y019040D01*
X038424Y019045D01*
X038353Y019047D01*
X038353Y019048D02*
X001380Y019048D01*
X001311Y019046D01*
X001242Y019040D01*
X001174Y019031D01*
X001106Y019017D01*
X001039Y019000D01*
X000974Y018979D01*
X000909Y018954D01*
X000846Y018926D01*
X000785Y018895D01*
X000726Y018859D01*
X000668Y018821D01*
X000613Y018780D01*
X000560Y018735D01*
X000510Y018688D01*
X000463Y018638D01*
X000418Y018585D01*
X000377Y018530D01*
X000339Y018472D01*
X000303Y018413D01*
X000272Y018352D01*
X000244Y018289D01*
X000219Y018224D01*
X000198Y018159D01*
X000181Y018092D01*
X000167Y018024D01*
X000158Y017956D01*
X000152Y017887D01*
X000150Y017818D01*
X000150Y001820D01*
X001125Y001725D02*
X001127Y001774D01*
X001133Y001822D01*
X001143Y001870D01*
X001157Y001917D01*
X001174Y001963D01*
X001195Y002007D01*
X001220Y002049D01*
X001248Y002089D01*
X001280Y002127D01*
X001314Y002162D01*
X001351Y002194D01*
X001390Y002223D01*
X001432Y002249D01*
X001476Y002271D01*
X001521Y002289D01*
X001568Y002304D01*
X001615Y002315D01*
X001664Y002322D01*
X001713Y002325D01*
X001762Y002324D01*
X001810Y002319D01*
X001859Y002310D01*
X001906Y002297D01*
X001952Y002280D01*
X001996Y002260D01*
X002039Y002236D01*
X002080Y002209D01*
X002118Y002178D01*
X002154Y002145D01*
X002186Y002109D01*
X002216Y002070D01*
X002243Y002029D01*
X002266Y001985D01*
X002285Y001940D01*
X002301Y001894D01*
X002313Y001847D01*
X002321Y001798D01*
X002325Y001749D01*
X002325Y001701D01*
X002321Y001652D01*
X002313Y001603D01*
X002301Y001556D01*
X002285Y001510D01*
X002266Y001465D01*
X002243Y001421D01*
X002216Y001380D01*
X002186Y001341D01*
X002154Y001305D01*
X002118Y001272D01*
X002080Y001241D01*
X002039Y001214D01*
X001996Y001190D01*
X001952Y001170D01*
X001906Y001153D01*
X001859Y001140D01*
X001810Y001131D01*
X001762Y001126D01*
X001713Y001125D01*
X001664Y001128D01*
X001615Y001135D01*
X001568Y001146D01*
X001521Y001161D01*
X001476Y001179D01*
X001432Y001201D01*
X001390Y001227D01*
X001351Y001256D01*
X001314Y001288D01*
X001280Y001323D01*
X001248Y001361D01*
X001220Y001401D01*
X001195Y001443D01*
X001174Y001487D01*
X001157Y001533D01*
X001143Y001580D01*
X001133Y001628D01*
X001127Y001676D01*
X001125Y001725D01*
X000150Y001820D02*
X000152Y001738D01*
X000158Y001656D01*
X000168Y001575D01*
X000182Y001494D01*
X000200Y001414D01*
X000222Y001335D01*
X000248Y001257D01*
X000277Y001181D01*
X000310Y001106D01*
X000347Y001033D01*
X000388Y000961D01*
X000431Y000892D01*
X000479Y000825D01*
X000529Y000761D01*
X000583Y000698D01*
X000639Y000639D01*
X000698Y000583D01*
X000761Y000529D01*
X000825Y000479D01*
X000892Y000431D01*
X000961Y000388D01*
X001033Y000347D01*
X001106Y000310D01*
X001181Y000277D01*
X001257Y000248D01*
X001335Y000222D01*
X001414Y000200D01*
X001494Y000182D01*
X001575Y000168D01*
X001656Y000158D01*
X001738Y000152D01*
X001820Y000150D01*
X000603Y009756D02*
X000605Y009787D01*
X000611Y009818D01*
X000620Y009848D01*
X000633Y009877D01*
X000650Y009904D01*
X000670Y009928D01*
X000692Y009950D01*
X000718Y009969D01*
X000745Y009985D01*
X000774Y009997D01*
X000804Y010006D01*
X000835Y010011D01*
X000867Y010012D01*
X000898Y010009D01*
X000929Y010002D01*
X000959Y009992D01*
X000987Y009978D01*
X001013Y009960D01*
X001037Y009940D01*
X001058Y009916D01*
X001077Y009891D01*
X001092Y009863D01*
X001103Y009834D01*
X001111Y009803D01*
X001115Y009772D01*
X001115Y009740D01*
X001111Y009709D01*
X001103Y009678D01*
X001092Y009649D01*
X001077Y009621D01*
X001058Y009596D01*
X001037Y009572D01*
X001013Y009552D01*
X000987Y009534D01*
X000959Y009520D01*
X000929Y009510D01*
X000898Y009503D01*
X000867Y009500D01*
X000835Y009501D01*
X000804Y009506D01*
X000774Y009515D01*
X000745Y009527D01*
X000718Y009543D01*
X000692Y009562D01*
X000670Y009584D01*
X000650Y009608D01*
X000633Y009635D01*
X000620Y009664D01*
X000611Y009694D01*
X000605Y009725D01*
X000603Y009756D01*
X003555Y012433D02*
X003557Y012464D01*
X003563Y012495D01*
X003572Y012525D01*
X003585Y012554D01*
X003602Y012581D01*
X003622Y012605D01*
X003644Y012627D01*
X003670Y012646D01*
X003697Y012662D01*
X003726Y012674D01*
X003756Y012683D01*
X003787Y012688D01*
X003819Y012689D01*
X003850Y012686D01*
X003881Y012679D01*
X003911Y012669D01*
X003939Y012655D01*
X003965Y012637D01*
X003989Y012617D01*
X004010Y012593D01*
X004029Y012568D01*
X004044Y012540D01*
X004055Y012511D01*
X004063Y012480D01*
X004067Y012449D01*
X004067Y012417D01*
X004063Y012386D01*
X004055Y012355D01*
X004044Y012326D01*
X004029Y012298D01*
X004010Y012273D01*
X003989Y012249D01*
X003965Y012229D01*
X003939Y012211D01*
X003911Y012197D01*
X003881Y012187D01*
X003850Y012180D01*
X003819Y012177D01*
X003787Y012178D01*
X003756Y012183D01*
X003726Y012192D01*
X003697Y012204D01*
X003670Y012220D01*
X003644Y012239D01*
X003622Y012261D01*
X003602Y012285D01*
X003585Y012312D01*
X003572Y012341D01*
X003563Y012371D01*
X003557Y012402D01*
X003555Y012433D01*
X003555Y015229D02*
X003557Y015260D01*
X003563Y015291D01*
X003572Y015321D01*
X003585Y015350D01*
X003602Y015377D01*
X003622Y015401D01*
X003644Y015423D01*
X003670Y015442D01*
X003697Y015458D01*
X003726Y015470D01*
X003756Y015479D01*
X003787Y015484D01*
X003819Y015485D01*
X003850Y015482D01*
X003881Y015475D01*
X003911Y015465D01*
X003939Y015451D01*
X003965Y015433D01*
X003989Y015413D01*
X004010Y015389D01*
X004029Y015364D01*
X004044Y015336D01*
X004055Y015307D01*
X004063Y015276D01*
X004067Y015245D01*
X004067Y015213D01*
X004063Y015182D01*
X004055Y015151D01*
X004044Y015122D01*
X004029Y015094D01*
X004010Y015069D01*
X003989Y015045D01*
X003965Y015025D01*
X003939Y015007D01*
X003911Y014993D01*
X003881Y014983D01*
X003850Y014976D01*
X003819Y014973D01*
X003787Y014974D01*
X003756Y014979D01*
X003726Y014988D01*
X003697Y015000D01*
X003670Y015016D01*
X003644Y015035D01*
X003622Y015057D01*
X003602Y015081D01*
X003585Y015108D01*
X003572Y015137D01*
X003563Y015167D01*
X003557Y015198D01*
X003555Y015229D01*
X001125Y017473D02*
X001127Y017522D01*
X001133Y017570D01*
X001143Y017618D01*
X001157Y017665D01*
X001174Y017711D01*
X001195Y017755D01*
X001220Y017797D01*
X001248Y017837D01*
X001280Y017875D01*
X001314Y017910D01*
X001351Y017942D01*
X001390Y017971D01*
X001432Y017997D01*
X001476Y018019D01*
X001521Y018037D01*
X001568Y018052D01*
X001615Y018063D01*
X001664Y018070D01*
X001713Y018073D01*
X001762Y018072D01*
X001810Y018067D01*
X001859Y018058D01*
X001906Y018045D01*
X001952Y018028D01*
X001996Y018008D01*
X002039Y017984D01*
X002080Y017957D01*
X002118Y017926D01*
X002154Y017893D01*
X002186Y017857D01*
X002216Y017818D01*
X002243Y017777D01*
X002266Y017733D01*
X002285Y017688D01*
X002301Y017642D01*
X002313Y017595D01*
X002321Y017546D01*
X002325Y017497D01*
X002325Y017449D01*
X002321Y017400D01*
X002313Y017351D01*
X002301Y017304D01*
X002285Y017258D01*
X002266Y017213D01*
X002243Y017169D01*
X002216Y017128D01*
X002186Y017089D01*
X002154Y017053D01*
X002118Y017020D01*
X002080Y016989D01*
X002039Y016962D01*
X001996Y016938D01*
X001952Y016918D01*
X001906Y016901D01*
X001859Y016888D01*
X001810Y016879D01*
X001762Y016874D01*
X001713Y016873D01*
X001664Y016876D01*
X001615Y016883D01*
X001568Y016894D01*
X001521Y016909D01*
X001476Y016927D01*
X001432Y016949D01*
X001390Y016975D01*
X001351Y017004D01*
X001314Y017036D01*
X001280Y017071D01*
X001248Y017109D01*
X001220Y017149D01*
X001195Y017191D01*
X001174Y017235D01*
X001157Y017281D01*
X001143Y017328D01*
X001133Y017376D01*
X001127Y017424D01*
X001125Y017473D01*
X012847Y016922D02*
X012849Y016953D01*
X012855Y016984D01*
X012864Y017014D01*
X012877Y017043D01*
X012894Y017070D01*
X012914Y017094D01*
X012936Y017116D01*
X012962Y017135D01*
X012989Y017151D01*
X013018Y017163D01*
X013048Y017172D01*
X013079Y017177D01*
X013111Y017178D01*
X013142Y017175D01*
X013173Y017168D01*
X013203Y017158D01*
X013231Y017144D01*
X013257Y017126D01*
X013281Y017106D01*
X013302Y017082D01*
X013321Y017057D01*
X013336Y017029D01*
X013347Y017000D01*
X013355Y016969D01*
X013359Y016938D01*
X013359Y016906D01*
X013355Y016875D01*
X013347Y016844D01*
X013336Y016815D01*
X013321Y016787D01*
X013302Y016762D01*
X013281Y016738D01*
X013257Y016718D01*
X013231Y016700D01*
X013203Y016686D01*
X013173Y016676D01*
X013142Y016669D01*
X013111Y016666D01*
X013079Y016667D01*
X013048Y016672D01*
X013018Y016681D01*
X012989Y016693D01*
X012962Y016709D01*
X012936Y016728D01*
X012914Y016750D01*
X012894Y016774D01*
X012877Y016801D01*
X012864Y016830D01*
X012855Y016860D01*
X012849Y016891D01*
X012847Y016922D01*
X037739Y017473D02*
X037741Y017522D01*
X037747Y017570D01*
X037757Y017618D01*
X037771Y017665D01*
X037788Y017711D01*
X037809Y017755D01*
X037834Y017797D01*
X037862Y017837D01*
X037894Y017875D01*
X037928Y017910D01*
X037965Y017942D01*
X038004Y017971D01*
X038046Y017997D01*
X038090Y018019D01*
X038135Y018037D01*
X038182Y018052D01*
X038229Y018063D01*
X038278Y018070D01*
X038327Y018073D01*
X038376Y018072D01*
X038424Y018067D01*
X038473Y018058D01*
X038520Y018045D01*
X038566Y018028D01*
X038610Y018008D01*
X038653Y017984D01*
X038694Y017957D01*
X038732Y017926D01*
X038768Y017893D01*
X038800Y017857D01*
X038830Y017818D01*
X038857Y017777D01*
X038880Y017733D01*
X038899Y017688D01*
X038915Y017642D01*
X038927Y017595D01*
X038935Y017546D01*
X038939Y017497D01*
X038939Y017449D01*
X038935Y017400D01*
X038927Y017351D01*
X038915Y017304D01*
X038899Y017258D01*
X038880Y017213D01*
X038857Y017169D01*
X038830Y017128D01*
X038800Y017089D01*
X038768Y017053D01*
X038732Y017020D01*
X038694Y016989D01*
X038653Y016962D01*
X038610Y016938D01*
X038566Y016918D01*
X038520Y016901D01*
X038473Y016888D01*
X038424Y016879D01*
X038376Y016874D01*
X038327Y016873D01*
X038278Y016876D01*
X038229Y016883D01*
X038182Y016894D01*
X038135Y016909D01*
X038090Y016927D01*
X038046Y016949D01*
X038004Y016975D01*
X037965Y017004D01*
X037928Y017036D01*
X037894Y017071D01*
X037862Y017109D01*
X037834Y017149D01*
X037809Y017191D01*
X037788Y017235D01*
X037771Y017281D01*
X037757Y017328D01*
X037747Y017376D01*
X037741Y017424D01*
X037739Y017473D01*
X037739Y001725D02*
X037741Y001774D01*
X037747Y001822D01*
X037757Y001870D01*
X037771Y001917D01*
X037788Y001963D01*
X037809Y002007D01*
X037834Y002049D01*
X037862Y002089D01*
X037894Y002127D01*
X037928Y002162D01*
X037965Y002194D01*
X038004Y002223D01*
X038046Y002249D01*
X038090Y002271D01*
X038135Y002289D01*
X038182Y002304D01*
X038229Y002315D01*
X038278Y002322D01*
X038327Y002325D01*
X038376Y002324D01*
X038424Y002319D01*
X038473Y002310D01*
X038520Y002297D01*
X038566Y002280D01*
X038610Y002260D01*
X038653Y002236D01*
X038694Y002209D01*
X038732Y002178D01*
X038768Y002145D01*
X038800Y002109D01*
X038830Y002070D01*
X038857Y002029D01*
X038880Y001985D01*
X038899Y001940D01*
X038915Y001894D01*
X038927Y001847D01*
X038935Y001798D01*
X038939Y001749D01*
X038939Y001701D01*
X038935Y001652D01*
X038927Y001603D01*
X038915Y001556D01*
X038899Y001510D01*
X038880Y001465D01*
X038857Y001421D01*
X038830Y001380D01*
X038800Y001341D01*
X038768Y001305D01*
X038732Y001272D01*
X038694Y001241D01*
X038653Y001214D01*
X038610Y001190D01*
X038566Y001170D01*
X038520Y001153D01*
X038473Y001140D01*
X038424Y001131D01*
X038376Y001126D01*
X038327Y001125D01*
X038278Y001128D01*
X038229Y001135D01*
X038182Y001146D01*
X038135Y001161D01*
X038090Y001179D01*
X038046Y001201D01*
X038004Y001227D01*
X037965Y001256D01*
X037928Y001288D01*
X037894Y001323D01*
X037862Y001361D01*
X037834Y001401D01*
X037809Y001443D01*
X037788Y001487D01*
X037771Y001533D01*
X037757Y001580D01*
X037747Y001628D01*
X037741Y001676D01*
X037739Y001725D01*
D11*
X032713Y003496D03*
X032004Y003496D03*
X018603Y003918D03*
X017894Y003918D03*
X018000Y006103D03*
X017292Y006103D03*
X013705Y009930D03*
X012996Y009930D03*
X013374Y013075D03*
X014083Y013075D03*
X017945Y014874D03*
X018654Y014874D03*
X021725Y012630D03*
X021725Y012040D03*
X022433Y012040D03*
X022433Y012630D03*
X024244Y012315D03*
X024953Y012315D03*
X025622Y012315D03*
X026331Y012315D03*
X029390Y013567D03*
X030099Y013567D03*
X030095Y014276D03*
X029386Y014276D03*
X036205Y015189D03*
X036914Y015189D03*
X019008Y018496D03*
X018300Y018496D03*
X017237Y018496D03*
X016528Y018496D03*
X007111Y015441D03*
X006402Y015441D03*
X005347Y015386D03*
X004638Y015386D03*
X004481Y016260D03*
X005099Y016268D03*
X005807Y016268D03*
X005780Y017237D03*
X005071Y017237D03*
X004481Y017237D03*
X003772Y017237D03*
X003772Y016260D03*
X004638Y011056D03*
X005347Y011056D03*
D12*
X004815Y018210D03*
X005815Y018310D03*
X006815Y018210D03*
X007815Y018310D03*
X008815Y018210D03*
X003815Y018310D03*
D13*
X009244Y016370D03*
X009835Y016370D03*
X010426Y016370D03*
X011016Y016370D03*
X011016Y015662D03*
X010426Y015662D03*
X009835Y015662D03*
X009244Y015662D03*
X009339Y013367D03*
X009339Y012658D03*
X011036Y012658D03*
X011036Y013367D03*
X013469Y013622D03*
X013469Y014331D03*
X016567Y012670D03*
X017433Y012119D03*
X018103Y012119D03*
X018772Y012119D03*
X018772Y011410D03*
X018103Y011410D03*
X017433Y011410D03*
X016567Y011961D03*
X017748Y013378D03*
X017748Y014087D03*
X023221Y012693D03*
X023221Y011985D03*
X020544Y010465D03*
X019835Y010465D03*
X019835Y009756D03*
X019835Y009323D03*
X020544Y009323D03*
X020544Y009756D03*
X018851Y009500D03*
X018851Y008792D03*
X019835Y008615D03*
X020544Y008615D03*
X026922Y007414D03*
X026922Y006705D03*
X026922Y005760D03*
X026922Y005052D03*
X026922Y004158D03*
X026922Y003449D03*
X023733Y002433D03*
X023181Y002433D03*
X023181Y001725D03*
X023733Y001725D03*
X019737Y001977D03*
X019737Y002685D03*
X009894Y005351D03*
X009894Y006059D03*
X005650Y011744D03*
X005650Y012453D03*
D14*
X015398Y010662D03*
X016500Y010662D03*
X016414Y006859D03*
X017516Y006859D03*
X026890Y010662D03*
X027993Y010662D03*
D15*
X009052Y005402D03*
X009052Y004300D03*
D16*
X009678Y014343D03*
X009993Y014343D03*
X010307Y014343D03*
X010622Y014343D03*
X010622Y014894D03*
X010307Y014894D03*
X009993Y014894D03*
X009678Y014894D03*
D17*
X007750Y014786D03*
X007750Y014286D03*
X007750Y013786D03*
X007750Y013286D03*
X005810Y013286D03*
X005810Y013786D03*
X005810Y014286D03*
X005810Y014786D03*
D18*
X006520Y012383D03*
X006520Y011783D03*
D19*
X029580Y018037D03*
D20*
X029580Y016037D03*
D21*
X033231Y013721D03*
X034861Y013721D03*
X033208Y004902D03*
X031578Y004902D03*
D22*
X034418Y005085D03*
X034418Y004585D03*
X034418Y004085D03*
X034418Y005585D03*
X035170Y006290D03*
X035170Y006790D03*
X035170Y007290D03*
X035170Y007790D03*
X035170Y010778D03*
X035170Y011278D03*
X035170Y011778D03*
X035170Y012278D03*
X036083Y012983D03*
X036083Y013483D03*
X036083Y013983D03*
X036083Y014483D03*
D23*
X037579Y013733D03*
X033674Y011528D03*
X033674Y007040D03*
X035914Y004835D03*
D24*
X035961Y004835D03*
X035461Y004835D03*
X035461Y004335D03*
X035961Y004335D03*
X036461Y004335D03*
X036461Y004835D03*
X036461Y005335D03*
X035961Y005335D03*
X035461Y005335D03*
X034126Y006540D03*
X033626Y006540D03*
X033126Y006540D03*
X033126Y007040D03*
X033126Y007540D03*
X033626Y007540D03*
X034126Y007540D03*
X034126Y007040D03*
X033626Y007040D03*
X031981Y006933D03*
X031481Y006933D03*
X030981Y006933D03*
X030981Y006433D03*
X031481Y006433D03*
X031981Y006433D03*
X031981Y007433D03*
X031481Y007433D03*
X030981Y007433D03*
X030981Y009449D03*
X031481Y009449D03*
X031981Y009449D03*
X031981Y009949D03*
X031481Y009949D03*
X030981Y009949D03*
X030981Y010449D03*
X031481Y010449D03*
X031981Y010449D03*
X033126Y011028D03*
X033126Y011528D03*
X033626Y011528D03*
X034126Y011528D03*
X034126Y011028D03*
X033626Y011028D03*
X033626Y012028D03*
X034126Y012028D03*
X033126Y012028D03*
X037126Y013233D03*
X037126Y013733D03*
X037626Y013733D03*
X038126Y013733D03*
X038126Y013233D03*
X037626Y013233D03*
X037626Y014233D03*
X038126Y014233D03*
X037126Y014233D03*
D25*
X032231Y011493D03*
X031731Y011493D03*
X031231Y011493D03*
X030731Y011493D03*
X030731Y008477D03*
X031231Y008477D03*
X031731Y008477D03*
X032231Y008477D03*
D26*
X031481Y006981D03*
X031481Y009996D03*
D27*
X007487Y006406D03*
X007227Y006406D03*
X006967Y006406D03*
X006717Y006406D03*
X006457Y006406D03*
X006207Y006406D03*
X005947Y006406D03*
X005687Y006406D03*
X005687Y004186D03*
X005947Y004186D03*
X006207Y004186D03*
X006457Y004186D03*
X006717Y004186D03*
X006967Y004186D03*
X007227Y004186D03*
X007487Y004186D03*
D28*
X017709Y008004D03*
X017717Y008378D03*
X017717Y008760D03*
X017721Y009154D03*
X019859Y007886D03*
X020355Y007957D03*
D29*
X020367Y007650D03*
X020367Y007453D03*
X020367Y007256D03*
X020367Y007059D03*
X020367Y006863D03*
X020367Y006666D03*
X020367Y006469D03*
X020367Y006272D03*
X020367Y006075D03*
X020367Y005878D03*
X020367Y005681D03*
X020367Y005485D03*
X020367Y005288D03*
X020367Y005091D03*
X020367Y004894D03*
X020367Y004697D03*
X020367Y004500D03*
X020367Y004304D03*
X020367Y004107D03*
X020367Y003910D03*
X020367Y003713D03*
X020367Y003516D03*
X020367Y003319D03*
X020367Y003122D03*
X023162Y003122D03*
X023162Y003319D03*
X023162Y003516D03*
X023162Y003713D03*
X023162Y003910D03*
X023162Y004107D03*
X023162Y004304D03*
X023162Y004500D03*
X023162Y004697D03*
X023162Y004894D03*
X023162Y005091D03*
X023162Y005288D03*
X023162Y005485D03*
X023162Y005681D03*
X023162Y005878D03*
X023162Y006075D03*
X023162Y006272D03*
X023162Y006469D03*
X023162Y006666D03*
X023162Y006863D03*
X023162Y007059D03*
X023162Y007256D03*
X023162Y007453D03*
X023162Y007650D03*
D30*
X021764Y005386D03*
D31*
X031981Y003059D03*
X031981Y002981D03*
X033378Y003496D03*
X033457Y003496D03*
X030268Y011705D03*
X030268Y011784D03*
X035607Y014953D03*
X035685Y014953D03*
X032079Y015111D03*
X032000Y015111D03*
D32*
X017341Y015672D03*
X017091Y015672D03*
X016831Y015672D03*
X016581Y015672D03*
X016581Y016832D03*
X016831Y016832D03*
X017091Y016832D03*
X017341Y016832D03*
D33*
X016961Y016252D03*
D34*
X016801Y016252D03*
X017121Y016252D03*
D35*
X017453Y016079D03*
X017453Y016426D03*
X016469Y016426D03*
X016469Y016079D03*
D36*
X019373Y012902D03*
X019373Y012712D03*
X019373Y012512D03*
X019373Y012312D03*
X019373Y012122D03*
X020533Y012122D03*
X020533Y012312D03*
X020533Y012512D03*
X020533Y012712D03*
X020533Y012902D03*
D37*
X019024Y015742D03*
X018654Y015742D03*
X018284Y015742D03*
X018284Y016842D03*
X018654Y016842D03*
X019024Y016842D03*
D38*
X018654Y016292D03*
D39*
X016725Y014481D03*
X016725Y013221D03*
D40*
X020111Y014205D03*
X021685Y014205D03*
D41*
X024599Y013949D03*
X024599Y018319D03*
D42*
X020898Y018319D03*
X020898Y016311D03*
D43*
X013890Y017670D03*
X003024Y014481D03*
X002237Y014481D03*
X002237Y011685D03*
X003024Y011685D03*
X001607Y008969D03*
X001607Y008181D03*
X001607Y007394D03*
X001607Y006607D03*
D44*
X001607Y005819D03*
X001449Y011685D03*
X001449Y014481D03*
X014678Y017670D03*
D45*
X005119Y002422D03*
D46*
X006119Y002422D03*
X007119Y002422D03*
X008119Y002422D03*
X009119Y002422D03*
X009119Y001422D03*
X008119Y001422D03*
X007119Y001422D03*
X006119Y001422D03*
X005119Y001422D03*
D47*
X033378Y018162D03*
X038674Y010957D03*
D48*
X036902Y010957D03*
X036902Y009304D03*
X038674Y009304D03*
X038674Y007650D03*
X036902Y007650D03*
X035032Y015996D03*
X033378Y015996D03*
X035032Y018162D03*
D49*
X012006Y011039D03*
X012006Y010839D03*
X012006Y010639D03*
X012006Y010449D03*
X012006Y010249D03*
X012006Y010049D03*
X012006Y009859D03*
X012006Y009659D03*
X012006Y009459D03*
X012006Y009259D03*
X012006Y009069D03*
X012006Y008869D03*
X012006Y008669D03*
X012006Y008479D03*
X012006Y008279D03*
X012006Y008079D03*
X007586Y008079D03*
X007586Y008279D03*
X007586Y008479D03*
X007586Y008669D03*
X007586Y008869D03*
X007586Y009069D03*
X007586Y009259D03*
X007586Y009459D03*
X007586Y009659D03*
X007586Y009859D03*
X007586Y010049D03*
X007586Y010249D03*
X007586Y010449D03*
X007586Y010639D03*
X007586Y010839D03*
X007586Y011039D03*
D50*
X008316Y011769D03*
X008516Y011769D03*
X008716Y011769D03*
X008906Y011769D03*
X009106Y011769D03*
X009306Y011769D03*
X009496Y011769D03*
X009696Y011769D03*
X009896Y011769D03*
X010096Y011769D03*
X010286Y011769D03*
X010486Y011769D03*
X010686Y011769D03*
X010876Y011769D03*
X011076Y011769D03*
X011276Y011769D03*
X011276Y007349D03*
X011076Y007349D03*
X010876Y007349D03*
X010686Y007349D03*
X010486Y007349D03*
X010286Y007349D03*
X010096Y007349D03*
X009896Y007349D03*
X009696Y007349D03*
X009496Y007349D03*
X009306Y007349D03*
X009106Y007349D03*
X008906Y007349D03*
X008716Y007349D03*
X008516Y007349D03*
X008316Y007349D03*
D51*
X006071Y008744D03*
X005071Y008744D03*
X004071Y008744D03*
X004071Y009744D03*
X005071Y009744D03*
X006071Y009744D03*
D52*
X006611Y009705D02*
X007126Y009705D01*
X007126Y009803D02*
X006611Y009803D01*
X006611Y009902D02*
X007126Y009902D01*
X007126Y010000D02*
X006579Y010000D01*
X006611Y009968D02*
X006295Y010284D01*
X005848Y010284D01*
X005571Y010008D01*
X005295Y010284D01*
X004848Y010284D01*
X004571Y010008D01*
X004295Y010284D01*
X003848Y010284D01*
X003531Y009968D01*
X003531Y009521D01*
X003786Y009266D01*
X003501Y008981D01*
X003501Y008508D01*
X003776Y008234D01*
X002993Y008234D01*
X002048Y009179D01*
X001982Y009179D01*
X001969Y009211D01*
X001849Y009331D01*
X001692Y009396D01*
X001522Y009396D01*
X001365Y009331D01*
X001244Y009211D01*
X001179Y009054D01*
X001179Y008884D01*
X001244Y008727D01*
X001365Y008606D01*
X001440Y008575D01*
X001365Y008544D01*
X001244Y008424D01*
X001179Y008267D01*
X001179Y008096D01*
X001244Y007939D01*
X001365Y007819D01*
X001440Y007788D01*
X001365Y007756D01*
X001244Y007636D01*
X000320Y007636D01*
X000320Y007538D02*
X001203Y007538D01*
X001179Y007479D02*
X001179Y007309D01*
X001244Y007152D01*
X001365Y007032D01*
X001522Y006967D01*
X001692Y006967D01*
X001849Y007032D01*
X001969Y007152D01*
X002034Y007309D01*
X002034Y007420D01*
X006772Y007420D01*
X006895Y007543D01*
X007216Y007864D01*
X007225Y007854D01*
X007946Y007854D01*
X008046Y007954D01*
X008046Y009385D01*
X007971Y009459D01*
X008046Y009534D01*
X008046Y011165D01*
X007946Y011264D01*
X007225Y011264D01*
X007126Y011165D01*
X007126Y009534D01*
X007200Y009459D01*
X007126Y009385D01*
X007126Y008689D01*
X006818Y008689D01*
X006695Y008566D01*
X006362Y008234D01*
X006324Y008234D01*
X006611Y008521D01*
X006611Y008968D01*
X006335Y009244D01*
X006611Y009521D01*
X006611Y009968D01*
X006481Y010099D02*
X007126Y010099D01*
X007126Y010197D02*
X006382Y010197D01*
X005760Y010197D02*
X005382Y010197D01*
X005481Y010099D02*
X005662Y010099D01*
X006611Y009606D02*
X007126Y009606D01*
X007152Y009508D02*
X006598Y009508D01*
X006499Y009409D02*
X007150Y009409D01*
X007126Y009311D02*
X006401Y009311D01*
X006367Y009212D02*
X007126Y009212D01*
X007126Y009114D02*
X006466Y009114D01*
X006564Y009015D02*
X007126Y009015D01*
X007126Y008917D02*
X006611Y008917D01*
X006611Y008818D02*
X007126Y008818D01*
X007126Y008720D02*
X006611Y008720D01*
X006611Y008621D02*
X006749Y008621D01*
X006651Y008523D02*
X006611Y008523D01*
X006552Y008424D02*
X006514Y008424D01*
X006454Y008326D02*
X006416Y008326D01*
X005818Y008234D02*
X004367Y008234D01*
X004641Y008508D01*
X004641Y008981D01*
X004356Y009266D01*
X004571Y009481D01*
X004848Y009204D01*
X005295Y009204D01*
X005571Y009481D01*
X005808Y009244D01*
X005531Y008968D01*
X005531Y008521D01*
X005818Y008234D01*
X005727Y008326D02*
X004458Y008326D01*
X004557Y008424D02*
X005628Y008424D01*
X005531Y008523D02*
X004641Y008523D01*
X004641Y008621D02*
X005531Y008621D01*
X005531Y008720D02*
X004641Y008720D01*
X004641Y008818D02*
X005531Y008818D01*
X005531Y008917D02*
X004641Y008917D01*
X004607Y009015D02*
X005578Y009015D01*
X005677Y009114D02*
X004508Y009114D01*
X004410Y009212D02*
X004840Y009212D01*
X004742Y009311D02*
X004401Y009311D01*
X004499Y009409D02*
X004643Y009409D01*
X005302Y009212D02*
X005775Y009212D01*
X005742Y009311D02*
X005401Y009311D01*
X005499Y009409D02*
X005643Y009409D01*
X004760Y010197D02*
X004382Y010197D01*
X004481Y010099D02*
X004662Y010099D01*
X003760Y010197D02*
X000320Y010197D01*
X000320Y010099D02*
X000599Y010099D01*
X000617Y010117D02*
X000498Y009998D01*
X000433Y009841D01*
X000433Y009672D01*
X000498Y009515D01*
X000617Y009395D01*
X000774Y009330D01*
X000943Y009330D01*
X001100Y009395D01*
X001220Y009515D01*
X001285Y009672D01*
X001285Y009841D01*
X001220Y009998D01*
X001100Y010117D01*
X000943Y010182D01*
X000774Y010182D01*
X000617Y010117D01*
X000500Y010000D02*
X000320Y010000D01*
X000320Y009902D02*
X000458Y009902D01*
X000433Y009803D02*
X000320Y009803D01*
X000320Y009705D02*
X000433Y009705D01*
X000460Y009606D02*
X000320Y009606D01*
X000320Y009508D02*
X000505Y009508D01*
X000604Y009409D02*
X000320Y009409D01*
X000320Y009311D02*
X001344Y009311D01*
X001245Y009212D02*
X000320Y009212D01*
X000320Y009114D02*
X001204Y009114D01*
X001179Y009015D02*
X000320Y009015D01*
X000320Y008917D02*
X001179Y008917D01*
X001206Y008818D02*
X000320Y008818D01*
X000320Y008720D02*
X001252Y008720D01*
X001350Y008621D02*
X000320Y008621D01*
X000320Y008523D02*
X001343Y008523D01*
X001245Y008424D02*
X000320Y008424D01*
X000320Y008326D02*
X001204Y008326D01*
X001179Y008227D02*
X000320Y008227D01*
X000320Y008129D02*
X001179Y008129D01*
X001207Y008030D02*
X000320Y008030D01*
X000320Y007932D02*
X001252Y007932D01*
X001351Y007833D02*
X000320Y007833D01*
X000320Y007735D02*
X001343Y007735D01*
X001244Y007636D02*
X001179Y007479D01*
X001179Y007439D02*
X000320Y007439D01*
X000320Y007341D02*
X001179Y007341D01*
X001207Y007242D02*
X000320Y007242D01*
X000320Y007144D02*
X001253Y007144D01*
X001351Y007045D02*
X000320Y007045D01*
X000320Y006947D02*
X005284Y006947D01*
X005284Y006858D02*
X005401Y006740D01*
X005417Y006740D01*
X005417Y005993D01*
X005534Y005876D01*
X005727Y005876D01*
X005727Y005693D01*
X005850Y005570D01*
X006047Y005373D01*
X008190Y005373D01*
X008313Y005496D01*
X008527Y005711D01*
X008527Y005017D01*
X008627Y004917D01*
X009476Y004917D01*
X009576Y005017D01*
X009576Y005702D01*
X010047Y005702D01*
X010047Y005480D01*
X010165Y005362D01*
X010608Y005362D01*
X010725Y005480D01*
X010725Y005747D01*
X012378Y004094D01*
X015819Y004094D01*
X015819Y000320D01*
X001852Y000320D01*
X002165Y000370D01*
X002562Y000572D01*
X002562Y000572D01*
X002878Y000887D01*
X002878Y000887D01*
X003080Y001284D01*
X003080Y001284D01*
X003150Y001725D01*
X003080Y002165D01*
X003080Y002165D01*
X002878Y002562D01*
X002878Y002562D01*
X002562Y002878D01*
X002165Y003080D01*
X001725Y003150D01*
X001725Y003150D01*
X001284Y003080D01*
X000887Y002878D01*
X000572Y002562D01*
X000370Y002165D01*
X000320Y001852D01*
X000320Y017345D01*
X000370Y017032D01*
X000572Y016635D01*
X000887Y016320D01*
X000887Y016320D01*
X001284Y016118D01*
X001284Y016118D01*
X001725Y016048D01*
X002165Y016118D01*
X002562Y016320D01*
X002562Y016320D01*
X002878Y016635D01*
X002878Y016635D01*
X003080Y017032D01*
X003080Y017032D01*
X003150Y017473D01*
X003080Y017913D01*
X003080Y017913D01*
X002878Y018310D01*
X002878Y018310D01*
X002878Y018310D01*
X002562Y018626D01*
X002165Y018828D01*
X001852Y018878D01*
X015819Y018878D01*
X015819Y018816D01*
X014102Y018816D01*
X013984Y018768D01*
X013709Y018492D01*
X013619Y018402D01*
X013570Y018285D01*
X013570Y017997D01*
X013502Y017929D01*
X013433Y017761D01*
X013433Y017579D01*
X013502Y017411D01*
X013631Y017282D01*
X013799Y017212D01*
X013981Y017212D01*
X014149Y017282D01*
X014250Y017383D01*
X014250Y017342D01*
X014350Y017242D01*
X015005Y017242D01*
X015105Y017342D01*
X015105Y017998D01*
X015005Y018097D01*
X014350Y018097D01*
X014250Y017998D01*
X014250Y017957D01*
X014210Y017997D01*
X014210Y018088D01*
X014298Y018176D01*
X015819Y018176D01*
X014297Y018176D01*
X014330Y018077D02*
X014210Y018077D01*
X014228Y017979D02*
X014250Y017979D01*
X013607Y018373D02*
X009333Y018373D01*
X009355Y018318D02*
X009273Y018516D01*
X009121Y018668D01*
X013885Y018668D01*
X013983Y018767D02*
X008123Y018767D01*
X008121Y018768D02*
X007923Y018850D01*
X007708Y018850D01*
X007509Y018768D01*
X007358Y018616D01*
X007295Y018464D01*
X007273Y018516D01*
X007121Y018668D01*
X007409Y018668D01*
X007338Y018570D02*
X007220Y018570D01*
X007292Y018471D02*
X007297Y018471D01*
X007121Y018668D02*
X006923Y018750D01*
X006708Y018750D01*
X006509Y018668D01*
X006358Y018516D01*
X006275Y018318D01*
X006275Y018103D01*
X006358Y017904D01*
X006509Y017752D01*
X006708Y017670D01*
X006923Y017670D01*
X007121Y017752D01*
X007273Y017904D01*
X007336Y018056D01*
X007358Y018004D01*
X007509Y017852D01*
X007708Y017770D01*
X007923Y017770D01*
X008121Y017852D01*
X008273Y018004D01*
X008295Y018056D01*
X008358Y017904D01*
X008509Y017752D01*
X008708Y017670D01*
X008923Y017670D01*
X009121Y017752D01*
X009273Y017904D01*
X009355Y018103D01*
X009355Y018318D01*
X009355Y018274D02*
X013570Y018274D01*
X013570Y018176D02*
X009355Y018176D01*
X009345Y018077D02*
X013570Y018077D01*
X013552Y017979D02*
X009304Y017979D01*
X009249Y017880D02*
X013482Y017880D01*
X013441Y017782D02*
X009150Y017782D01*
X008954Y017683D02*
X013433Y017683D01*
X013433Y017585D02*
X006375Y017585D01*
X006384Y017562D02*
X006346Y017654D01*
X006118Y017882D01*
X006026Y017920D01*
X005312Y017920D01*
X005385Y018097D01*
X005385Y018324D01*
X005299Y018533D01*
X005138Y018693D01*
X004929Y018780D01*
X004702Y018780D01*
X004492Y018693D01*
X004332Y018533D01*
X004320Y018503D01*
X004273Y018616D01*
X004121Y018768D01*
X003923Y018850D01*
X003708Y018850D01*
X003509Y018768D01*
X003358Y018616D01*
X003275Y018418D01*
X003275Y018203D01*
X003358Y018004D01*
X003509Y017852D01*
X003595Y017817D01*
X003595Y017643D01*
X003544Y017643D01*
X003445Y017543D01*
X003445Y016930D01*
X003544Y016830D01*
X004000Y016830D01*
X004100Y016930D01*
X004100Y017543D01*
X004035Y017607D01*
X004035Y017817D01*
X004121Y017852D01*
X004273Y018004D01*
X004278Y018017D01*
X004332Y017887D01*
X004492Y017727D01*
X004696Y017643D01*
X004253Y017643D01*
X004153Y017543D01*
X004153Y016930D01*
X004253Y016830D01*
X004261Y016830D01*
X004261Y016666D01*
X004253Y016666D01*
X004153Y016567D01*
X004153Y015954D01*
X004253Y015854D01*
X004709Y015854D01*
X004808Y015954D01*
X004808Y016544D01*
X005450Y016544D01*
X005450Y015949D01*
X005567Y015832D01*
X006048Y015832D01*
X006165Y015949D01*
X006165Y016027D01*
X006197Y016040D01*
X006267Y016111D01*
X006346Y016189D01*
X006384Y016281D01*
X006384Y017562D01*
X006384Y017486D02*
X013471Y017486D01*
X013525Y017388D02*
X006384Y017388D01*
X006384Y017289D02*
X012877Y017289D01*
X012861Y017283D02*
X012742Y017163D01*
X012677Y017006D01*
X012677Y016837D01*
X012742Y016680D01*
X012861Y016561D01*
X013018Y016496D01*
X013187Y016496D01*
X013344Y016561D01*
X013464Y016680D01*
X013529Y016837D01*
X013529Y017006D01*
X013464Y017163D01*
X013344Y017283D01*
X013187Y017348D01*
X013018Y017348D01*
X012861Y017283D01*
X012769Y017191D02*
X006384Y017191D01*
X006384Y017092D02*
X012712Y017092D01*
X012677Y016994D02*
X006384Y016994D01*
X006384Y016895D02*
X012677Y016895D01*
X012694Y016797D02*
X006384Y016797D01*
X006384Y016698D02*
X012734Y016698D01*
X012823Y016600D02*
X006384Y016600D01*
X006384Y016501D02*
X013005Y016501D01*
X013200Y016501D02*
X015819Y016501D01*
X015819Y016403D02*
X006384Y016403D01*
X006384Y016304D02*
X006885Y016304D01*
X006897Y016316D02*
X006780Y016198D01*
X006780Y015787D01*
X006753Y015760D01*
X006753Y015122D01*
X006851Y015025D01*
X006851Y014319D01*
X006890Y014223D01*
X006977Y014137D01*
X007050Y014063D01*
X007146Y014024D01*
X007229Y014024D01*
X007277Y013976D01*
X008223Y013976D01*
X008306Y014059D01*
X008306Y013470D01*
X008210Y013566D01*
X007290Y013566D01*
X007190Y013466D01*
X007190Y013105D01*
X007290Y013006D01*
X007361Y013006D01*
X007361Y012657D01*
X007461Y012558D01*
X007879Y012558D01*
X007978Y012657D01*
X007978Y013006D01*
X008087Y013006D01*
X008087Y011663D01*
X008091Y011659D01*
X008091Y011409D01*
X008190Y011309D01*
X008916Y011309D01*
X008916Y011049D01*
X008838Y011049D01*
X008739Y010950D01*
X008739Y010531D01*
X008838Y010432D01*
X009257Y010432D01*
X009284Y010459D01*
X009311Y010432D01*
X009729Y010432D01*
X009829Y010531D01*
X009829Y010950D01*
X009729Y011049D01*
X009533Y011049D01*
X009533Y011279D01*
X009634Y011279D01*
X009717Y011363D01*
X009770Y011309D01*
X010611Y011309D01*
X010659Y011358D01*
X010738Y011279D01*
X010866Y011279D01*
X010866Y011084D01*
X010831Y011049D01*
X010610Y011049D01*
X010511Y010950D01*
X010511Y010531D01*
X010518Y010524D01*
X010511Y010517D01*
X010511Y010098D01*
X010610Y009999D01*
X010741Y009999D01*
X010707Y009965D01*
X010707Y009547D01*
X010715Y009540D01*
X010707Y009532D01*
X010707Y009114D01*
X010727Y009095D01*
X010711Y009080D01*
X010711Y008661D01*
X010811Y008562D01*
X011229Y008562D01*
X011328Y008660D01*
X011546Y008660D01*
X011546Y007954D01*
X011645Y007854D01*
X011798Y007854D01*
X011798Y006377D01*
X011486Y006690D01*
X011486Y006974D01*
X011501Y006989D01*
X011501Y007710D01*
X011401Y007809D01*
X010064Y007809D01*
X010034Y007839D01*
X009758Y007839D01*
X009728Y007809D01*
X009116Y007809D01*
X009116Y009513D01*
X008825Y009804D01*
X008726Y009902D01*
X008726Y009926D01*
X008627Y010026D01*
X008209Y010026D01*
X008109Y009926D01*
X008109Y009508D01*
X008136Y009481D01*
X008109Y009454D01*
X008109Y009035D01*
X008116Y009028D01*
X008109Y009021D01*
X008109Y008602D01*
X008209Y008503D01*
X008306Y008503D01*
X008306Y007809D01*
X008190Y007809D01*
X008091Y007710D01*
X008091Y007092D01*
X006992Y007092D01*
X006874Y006974D01*
X006751Y006851D01*
X006751Y006830D01*
X006727Y006806D01*
X006727Y006029D01*
X006727Y006819D01*
X006717Y006829D01*
X006717Y006970D01*
X006721Y006982D01*
X006717Y007021D01*
X006717Y007060D01*
X006712Y007072D01*
X006711Y007085D01*
X006709Y007088D01*
X006709Y007301D01*
X006592Y007418D01*
X006149Y007418D01*
X006032Y007301D01*
X006032Y006906D01*
X005961Y006906D01*
X005961Y007301D01*
X005844Y007418D01*
X005401Y007418D01*
X005284Y007301D01*
X005284Y006858D01*
X005293Y006848D02*
X000320Y006848D01*
X000320Y006750D02*
X005392Y006750D01*
X005417Y006651D02*
X000320Y006651D01*
X000320Y006553D02*
X005417Y006553D01*
X005417Y006454D02*
X000320Y006454D01*
X000320Y006356D02*
X005417Y006356D01*
X005417Y006257D02*
X001967Y006257D01*
X001947Y006277D02*
X002064Y006160D01*
X002064Y005479D01*
X001947Y005362D01*
X001266Y005362D01*
X001149Y005479D01*
X001149Y006160D01*
X001266Y006277D01*
X001947Y006277D01*
X002064Y006159D02*
X005417Y006159D01*
X005417Y006060D02*
X002064Y006060D01*
X002064Y005962D02*
X005448Y005962D01*
X005727Y005863D02*
X002064Y005863D01*
X002064Y005765D02*
X005727Y005765D01*
X005754Y005666D02*
X002064Y005666D01*
X002064Y005568D02*
X005853Y005568D01*
X005951Y005469D02*
X002054Y005469D01*
X001956Y005371D02*
X008527Y005371D01*
X008527Y005469D02*
X008286Y005469D01*
X008313Y005496D02*
X008313Y005496D01*
X008384Y005568D02*
X008527Y005568D01*
X008527Y005666D02*
X008483Y005666D01*
X008527Y005272D02*
X000320Y005272D01*
X000320Y005174D02*
X008527Y005174D01*
X008527Y005075D02*
X005916Y005075D01*
X005906Y005084D02*
X005378Y005084D01*
X005097Y004804D01*
X005097Y004135D01*
X004433Y003470D01*
X004310Y003347D01*
X004310Y001638D01*
X004625Y001323D01*
X004711Y001237D01*
X004739Y001168D01*
X004865Y001043D01*
X005030Y000974D01*
X005207Y000974D01*
X005372Y001043D01*
X005498Y001168D01*
X005566Y001333D01*
X005566Y001511D01*
X005498Y001675D01*
X005372Y001801D01*
X005207Y001869D01*
X005030Y001869D01*
X004865Y001801D01*
X004803Y001739D01*
X004730Y001812D01*
X004730Y002015D01*
X004771Y001974D01*
X005452Y001974D01*
X005452Y001791D01*
X005689Y001554D01*
X005671Y001511D01*
X005671Y001333D01*
X005739Y001168D01*
X005865Y001043D01*
X006030Y000974D01*
X006207Y000974D01*
X006372Y001043D01*
X006498Y001168D01*
X006566Y001333D01*
X006566Y001511D01*
X006498Y001675D01*
X006372Y001801D01*
X006207Y001869D01*
X006030Y001869D01*
X005986Y001851D01*
X005872Y001965D01*
X005872Y002040D01*
X006030Y001974D01*
X006207Y001974D01*
X006372Y002043D01*
X006498Y002168D01*
X006566Y002333D01*
X006566Y002511D01*
X006548Y002554D01*
X006619Y002625D01*
X006689Y002554D01*
X006671Y002511D01*
X006671Y002333D01*
X006739Y002168D01*
X006865Y002043D01*
X007030Y001974D01*
X007207Y001974D01*
X007372Y002043D01*
X007381Y002052D01*
X007381Y001981D01*
X007251Y001851D01*
X007207Y001869D01*
X007030Y001869D01*
X006865Y001801D01*
X006739Y001675D01*
X006671Y001511D01*
X006671Y001333D01*
X006739Y001168D01*
X006865Y001043D01*
X007030Y000974D01*
X007207Y000974D01*
X007372Y001043D01*
X007498Y001168D01*
X007566Y001333D01*
X007566Y001511D01*
X007548Y001554D01*
X007801Y001807D01*
X007801Y003032D01*
X007678Y003155D01*
X007177Y003656D01*
X007177Y003686D01*
X007627Y003686D01*
X007727Y003785D01*
X007727Y004586D01*
X007627Y004686D01*
X006157Y004686D01*
X006157Y004834D01*
X006029Y004961D01*
X005906Y005084D01*
X006014Y004977D02*
X008567Y004977D01*
X007727Y004583D02*
X011889Y004583D01*
X011791Y004681D02*
X007632Y004681D01*
X007727Y004484D02*
X011988Y004484D01*
X012086Y004386D02*
X007727Y004386D01*
X007727Y004287D02*
X012185Y004287D01*
X012283Y004189D02*
X007727Y004189D01*
X007727Y004090D02*
X015819Y004090D01*
X015819Y003992D02*
X007727Y003992D01*
X007727Y003893D02*
X015819Y003893D01*
X015819Y003795D02*
X007727Y003795D01*
X007638Y003696D02*
X015819Y003696D01*
X015819Y003598D02*
X007236Y003598D01*
X007334Y003499D02*
X015819Y003499D01*
X015819Y003401D02*
X007433Y003401D01*
X007531Y003302D02*
X015819Y003302D01*
X015819Y003204D02*
X007630Y003204D01*
X007728Y003105D02*
X015819Y003105D01*
X015819Y003007D02*
X007801Y003007D01*
X007801Y002908D02*
X015819Y002908D01*
X015819Y002810D02*
X009351Y002810D01*
X009372Y002801D02*
X009207Y002869D01*
X009030Y002869D01*
X008865Y002801D01*
X008739Y002675D01*
X008671Y002511D01*
X008671Y002333D01*
X008739Y002168D01*
X008865Y002043D01*
X009030Y001974D01*
X009207Y001974D01*
X009372Y002043D01*
X009498Y002168D01*
X009566Y002333D01*
X009566Y002511D01*
X009498Y002675D01*
X009372Y002801D01*
X009462Y002711D02*
X015819Y002711D01*
X015819Y002613D02*
X009523Y002613D01*
X009564Y002514D02*
X015819Y002514D01*
X015819Y002416D02*
X009566Y002416D01*
X009559Y002317D02*
X015819Y002317D01*
X015819Y002219D02*
X009518Y002219D01*
X009449Y002120D02*
X015819Y002120D01*
X015819Y002022D02*
X009321Y002022D01*
X009207Y001869D02*
X009030Y001869D01*
X008865Y001801D01*
X008739Y001675D01*
X008671Y001511D01*
X008671Y001333D01*
X008739Y001168D01*
X008865Y001043D01*
X009030Y000974D01*
X009207Y000974D01*
X009372Y001043D01*
X009498Y001168D01*
X009566Y001333D01*
X009566Y001511D01*
X009498Y001675D01*
X009372Y001801D01*
X009207Y001869D01*
X009314Y001825D02*
X015819Y001825D01*
X015819Y001923D02*
X007801Y001923D01*
X007801Y001825D02*
X007923Y001825D01*
X007865Y001801D02*
X007739Y001675D01*
X007671Y001511D01*
X007671Y001333D01*
X007739Y001168D01*
X007865Y001043D01*
X008030Y000974D01*
X008207Y000974D01*
X008372Y001043D01*
X008498Y001168D01*
X008566Y001333D01*
X008566Y001511D01*
X008498Y001675D01*
X008372Y001801D01*
X008207Y001869D01*
X008030Y001869D01*
X007865Y001801D01*
X007790Y001726D02*
X007720Y001726D01*
X007720Y001628D02*
X007621Y001628D01*
X007679Y001529D02*
X007558Y001529D01*
X007566Y001431D02*
X007671Y001431D01*
X007672Y001332D02*
X007565Y001332D01*
X007525Y001234D02*
X007712Y001234D01*
X007773Y001135D02*
X007464Y001135D01*
X007357Y001037D02*
X007880Y001037D01*
X008357Y001037D02*
X008880Y001037D01*
X008773Y001135D02*
X008464Y001135D01*
X008525Y001234D02*
X008712Y001234D01*
X008672Y001332D02*
X008565Y001332D01*
X008566Y001431D02*
X008671Y001431D01*
X008679Y001529D02*
X008558Y001529D01*
X008517Y001628D02*
X008720Y001628D01*
X008790Y001726D02*
X008447Y001726D01*
X008314Y001825D02*
X008923Y001825D01*
X008916Y002022D02*
X007801Y002022D01*
X007801Y002120D02*
X008788Y002120D01*
X008719Y002219D02*
X007801Y002219D01*
X007801Y002317D02*
X008678Y002317D01*
X008671Y002416D02*
X007801Y002416D01*
X007801Y002514D02*
X008673Y002514D01*
X008714Y002613D02*
X007801Y002613D01*
X007801Y002711D02*
X008775Y002711D01*
X008886Y002810D02*
X007801Y002810D01*
X007381Y002022D02*
X007321Y002022D01*
X007323Y001923D02*
X005914Y001923D01*
X005916Y002022D02*
X005872Y002022D01*
X005452Y001923D02*
X004730Y001923D01*
X004730Y001825D02*
X004923Y001825D01*
X005314Y001825D02*
X005452Y001825D01*
X005447Y001726D02*
X005517Y001726D01*
X005517Y001628D02*
X005616Y001628D01*
X005558Y001529D02*
X005679Y001529D01*
X005671Y001431D02*
X005566Y001431D01*
X005565Y001332D02*
X005672Y001332D01*
X005712Y001234D02*
X005525Y001234D01*
X005464Y001135D02*
X005773Y001135D01*
X005880Y001037D02*
X005357Y001037D01*
X004880Y001037D02*
X002954Y001037D01*
X003004Y001135D02*
X004773Y001135D01*
X004712Y001234D02*
X003054Y001234D01*
X003088Y001332D02*
X004616Y001332D01*
X004517Y001431D02*
X003103Y001431D01*
X003119Y001529D02*
X004419Y001529D01*
X004320Y001628D02*
X003134Y001628D01*
X003150Y001726D02*
X004310Y001726D01*
X004310Y001825D02*
X003134Y001825D01*
X003118Y001923D02*
X004310Y001923D01*
X004310Y002022D02*
X003103Y002022D01*
X003087Y002120D02*
X004310Y002120D01*
X004310Y002219D02*
X003053Y002219D01*
X003003Y002317D02*
X004310Y002317D01*
X004310Y002416D02*
X002952Y002416D01*
X002902Y002514D02*
X004310Y002514D01*
X004310Y002613D02*
X002828Y002613D01*
X002729Y002711D02*
X004310Y002711D01*
X004310Y002810D02*
X002631Y002810D01*
X002562Y002878D02*
X002562Y002878D01*
X002503Y002908D02*
X004310Y002908D01*
X004310Y003007D02*
X002310Y003007D01*
X002165Y003080D02*
X002165Y003080D01*
X002008Y003105D02*
X004310Y003105D01*
X004310Y003204D02*
X000320Y003204D01*
X000320Y003302D02*
X004310Y003302D01*
X004363Y003401D02*
X000320Y003401D01*
X000320Y003499D02*
X004462Y003499D01*
X004433Y003470D02*
X004433Y003470D01*
X004560Y003598D02*
X000320Y003598D01*
X000320Y003696D02*
X004659Y003696D01*
X004757Y003795D02*
X000320Y003795D01*
X000320Y003893D02*
X004856Y003893D01*
X004954Y003992D02*
X000320Y003992D01*
X000320Y004090D02*
X005053Y004090D01*
X005097Y004189D02*
X000320Y004189D01*
X000320Y004287D02*
X005097Y004287D01*
X005097Y004386D02*
X000320Y004386D01*
X000320Y004484D02*
X005097Y004484D01*
X005097Y004583D02*
X000320Y004583D01*
X000320Y004681D02*
X005097Y004681D01*
X005097Y004780D02*
X000320Y004780D01*
X000320Y004878D02*
X005172Y004878D01*
X005270Y004977D02*
X000320Y004977D01*
X000320Y005075D02*
X005369Y005075D01*
X006113Y004878D02*
X011594Y004878D01*
X011692Y004780D02*
X006157Y004780D01*
X006727Y006029D02*
X006727Y006029D01*
X006727Y006060D02*
X006727Y006060D01*
X006727Y006159D02*
X006727Y006159D01*
X006727Y006257D02*
X006727Y006257D01*
X006727Y006356D02*
X006727Y006356D01*
X006727Y006454D02*
X006727Y006454D01*
X006727Y006553D02*
X006727Y006553D01*
X006727Y006651D02*
X006727Y006651D01*
X006727Y006750D02*
X006727Y006750D01*
X006717Y006848D02*
X006751Y006848D01*
X006717Y006947D02*
X006846Y006947D01*
X006945Y007045D02*
X006717Y007045D01*
X006709Y007144D02*
X008091Y007144D01*
X008091Y007242D02*
X006709Y007242D01*
X006669Y007341D02*
X008091Y007341D01*
X008091Y007439D02*
X006791Y007439D01*
X006890Y007538D02*
X008091Y007538D01*
X008091Y007636D02*
X006988Y007636D01*
X007087Y007735D02*
X008115Y007735D01*
X008306Y007833D02*
X007185Y007833D01*
X006072Y007341D02*
X005921Y007341D01*
X005961Y007242D02*
X006032Y007242D01*
X006032Y007144D02*
X005961Y007144D01*
X005961Y007045D02*
X006032Y007045D01*
X006032Y006947D02*
X005961Y006947D01*
X005284Y007045D02*
X001862Y007045D01*
X001961Y007144D02*
X005284Y007144D01*
X005284Y007242D02*
X002006Y007242D01*
X002034Y007341D02*
X005324Y007341D01*
X003684Y008326D02*
X002901Y008326D01*
X002803Y008424D02*
X003586Y008424D01*
X003501Y008523D02*
X002704Y008523D01*
X002606Y008621D02*
X003501Y008621D01*
X003501Y008720D02*
X002507Y008720D01*
X002409Y008818D02*
X003501Y008818D01*
X003501Y008917D02*
X002310Y008917D01*
X002212Y009015D02*
X003536Y009015D01*
X003634Y009114D02*
X002113Y009114D01*
X001968Y009212D02*
X003733Y009212D01*
X003742Y009311D02*
X001870Y009311D01*
X001212Y009508D02*
X003545Y009508D01*
X003531Y009606D02*
X001257Y009606D01*
X001285Y009705D02*
X003531Y009705D01*
X003531Y009803D02*
X001285Y009803D01*
X001260Y009902D02*
X003531Y009902D01*
X003563Y010000D02*
X001217Y010000D01*
X001119Y010099D02*
X003662Y010099D01*
X003643Y009409D02*
X001114Y009409D01*
X000320Y010296D02*
X007126Y010296D01*
X007126Y010394D02*
X000320Y010394D01*
X000320Y010493D02*
X007126Y010493D01*
X007126Y010591D02*
X000320Y010591D01*
X000320Y010690D02*
X004370Y010690D01*
X004410Y010649D02*
X004311Y010749D01*
X004311Y010836D01*
X002382Y010836D01*
X002253Y010964D01*
X002017Y011201D01*
X002017Y011314D01*
X001994Y011323D01*
X001877Y011441D01*
X001877Y011358D01*
X001777Y011258D01*
X001121Y011258D01*
X001022Y011358D01*
X001022Y012013D01*
X001121Y012113D01*
X001229Y012113D01*
X001229Y014053D01*
X001121Y014053D01*
X001022Y014153D01*
X001022Y014809D01*
X001121Y014908D01*
X001777Y014908D01*
X001877Y014809D01*
X001877Y014725D01*
X001994Y014843D01*
X002152Y014908D01*
X002322Y014908D01*
X002344Y014899D01*
X003051Y015606D01*
X003610Y015606D01*
X003727Y015655D01*
X003896Y015655D01*
X004013Y015606D01*
X004311Y015606D01*
X004311Y015693D01*
X004410Y015792D01*
X004866Y015792D01*
X004966Y015693D01*
X004966Y015080D01*
X004866Y014980D01*
X004410Y014980D01*
X004311Y015080D01*
X004311Y015166D01*
X004237Y015166D01*
X004237Y015144D01*
X004172Y014987D01*
X004053Y014868D01*
X003896Y014803D01*
X003727Y014803D01*
X003570Y014868D01*
X003450Y014987D01*
X003386Y015144D01*
X003386Y015166D01*
X003233Y015166D01*
X002975Y014908D01*
X003109Y014908D01*
X003266Y014843D01*
X003386Y014723D01*
X003451Y014566D01*
X003451Y014506D01*
X005290Y014506D01*
X005320Y014536D01*
X005250Y014605D01*
X005250Y014966D01*
X005350Y015066D01*
X006270Y015066D01*
X006370Y014966D01*
X006370Y014605D01*
X006300Y014536D01*
X006340Y014496D01*
X006377Y014496D01*
X006812Y014061D01*
X006935Y013938D01*
X006935Y012754D01*
X007005Y012683D01*
X007005Y011483D01*
X006905Y011383D01*
X006135Y011383D01*
X006035Y011483D01*
X006035Y011495D01*
X005957Y011417D01*
X005343Y011417D01*
X005244Y011517D01*
X005244Y011889D01*
X004956Y011889D01*
X004946Y011879D01*
X003529Y011879D01*
X003442Y011793D01*
X003451Y011770D01*
X003451Y011600D01*
X003386Y011443D01*
X003266Y011323D01*
X003151Y011276D01*
X004311Y011276D01*
X004311Y011362D01*
X004410Y011462D01*
X004866Y011462D01*
X004966Y011362D01*
X004966Y010749D01*
X004866Y010649D01*
X004410Y010649D01*
X004311Y010788D02*
X000320Y010788D01*
X000320Y010887D02*
X002331Y010887D01*
X002232Y010985D02*
X000320Y010985D01*
X000320Y011084D02*
X002134Y011084D01*
X002035Y011182D02*
X000320Y011182D01*
X000320Y011281D02*
X001099Y011281D01*
X001022Y011379D02*
X000320Y011379D01*
X000320Y011478D02*
X001022Y011478D01*
X001022Y011576D02*
X000320Y011576D01*
X000320Y011675D02*
X001022Y011675D01*
X001022Y011773D02*
X000320Y011773D01*
X000320Y011872D02*
X001022Y011872D01*
X001022Y011970D02*
X000320Y011970D01*
X000320Y012069D02*
X001077Y012069D01*
X001229Y012167D02*
X000320Y012167D01*
X000320Y012266D02*
X001229Y012266D01*
X001229Y012364D02*
X000320Y012364D01*
X000320Y012463D02*
X001229Y012463D01*
X001229Y012561D02*
X000320Y012561D01*
X000320Y012660D02*
X001229Y012660D01*
X001229Y012758D02*
X000320Y012758D01*
X000320Y012857D02*
X001229Y012857D01*
X001229Y012955D02*
X000320Y012955D01*
X000320Y013054D02*
X001229Y013054D01*
X001229Y013152D02*
X000320Y013152D01*
X000320Y013251D02*
X001229Y013251D01*
X001229Y013349D02*
X000320Y013349D01*
X000320Y013448D02*
X001229Y013448D01*
X001229Y013546D02*
X000320Y013546D01*
X000320Y013645D02*
X001229Y013645D01*
X001229Y013743D02*
X000320Y013743D01*
X000320Y013842D02*
X001229Y013842D01*
X001229Y013940D02*
X000320Y013940D01*
X000320Y014039D02*
X001229Y014039D01*
X001038Y014137D02*
X000320Y014137D01*
X000320Y014236D02*
X001022Y014236D01*
X001022Y014334D02*
X000320Y014334D01*
X000320Y014433D02*
X001022Y014433D01*
X001022Y014531D02*
X000320Y014531D01*
X000320Y014630D02*
X001022Y014630D01*
X001022Y014728D02*
X000320Y014728D01*
X000320Y014827D02*
X001040Y014827D01*
X001449Y014481D02*
X001449Y011685D01*
X002237Y012473D01*
X005630Y012473D01*
X005452Y012781D02*
X005343Y012781D01*
X005256Y012693D01*
X004154Y012693D01*
X004053Y012795D01*
X003896Y012859D01*
X003727Y012859D01*
X003570Y012795D01*
X003468Y012693D01*
X002145Y012693D01*
X001669Y012217D01*
X001669Y014053D01*
X001777Y014053D01*
X001877Y014153D01*
X001877Y014236D01*
X001994Y014118D01*
X002152Y014053D01*
X002322Y014053D01*
X002479Y014118D01*
X002599Y014239D01*
X002630Y014314D01*
X002662Y014239D01*
X002782Y014118D01*
X002939Y014053D01*
X003109Y014053D01*
X003139Y014066D01*
X005290Y014066D01*
X005320Y014036D01*
X005250Y013966D01*
X005250Y013605D01*
X005320Y013536D01*
X005250Y013466D01*
X005250Y013105D01*
X005350Y013006D01*
X005662Y013006D01*
X005575Y012919D01*
X005452Y012796D01*
X005452Y012781D01*
X005512Y012857D02*
X003903Y012857D01*
X003720Y012857D02*
X001669Y012857D01*
X001669Y012955D02*
X005611Y012955D01*
X005302Y013054D02*
X001669Y013054D01*
X001669Y013152D02*
X005250Y013152D01*
X005250Y013251D02*
X001669Y013251D01*
X001669Y013349D02*
X005250Y013349D01*
X005250Y013448D02*
X001669Y013448D01*
X001669Y013546D02*
X005309Y013546D01*
X005250Y013645D02*
X001669Y013645D01*
X001669Y013743D02*
X005250Y013743D01*
X005250Y013842D02*
X001669Y013842D01*
X001669Y013940D02*
X005250Y013940D01*
X005317Y014039D02*
X001669Y014039D01*
X001861Y014137D02*
X001976Y014137D01*
X001877Y014236D02*
X001877Y014236D01*
X002237Y014481D02*
X003142Y015386D01*
X004638Y015386D01*
X004966Y015418D02*
X006753Y015418D01*
X006753Y015516D02*
X004966Y015516D01*
X004966Y015615D02*
X006753Y015615D01*
X006753Y015713D02*
X004945Y015713D01*
X004765Y015910D02*
X005489Y015910D01*
X005450Y016009D02*
X004808Y016009D01*
X004808Y016107D02*
X005450Y016107D01*
X005450Y016206D02*
X004808Y016206D01*
X004808Y016304D02*
X005450Y016304D01*
X005450Y016403D02*
X004808Y016403D01*
X004808Y016501D02*
X005450Y016501D01*
X005701Y016764D02*
X004520Y016764D01*
X004481Y016725D01*
X004481Y016260D01*
X004153Y016304D02*
X002531Y016304D01*
X002645Y016403D02*
X004153Y016403D01*
X004153Y016501D02*
X002743Y016501D01*
X002842Y016600D02*
X004186Y016600D01*
X004261Y016698D02*
X002910Y016698D01*
X002960Y016797D02*
X004261Y016797D01*
X004188Y016895D02*
X004065Y016895D01*
X004100Y016994D02*
X004153Y016994D01*
X004153Y017092D02*
X004100Y017092D01*
X004100Y017191D02*
X004153Y017191D01*
X004153Y017289D02*
X004100Y017289D01*
X004100Y017388D02*
X004153Y017388D01*
X004153Y017486D02*
X004100Y017486D01*
X004058Y017585D02*
X004195Y017585D01*
X004035Y017683D02*
X004599Y017683D01*
X004438Y017782D02*
X004035Y017782D01*
X004149Y017880D02*
X004339Y017880D01*
X004294Y017979D02*
X004247Y017979D01*
X003815Y018310D02*
X003815Y017280D01*
X003772Y017237D01*
X003445Y017191D02*
X003105Y017191D01*
X003121Y017289D02*
X003445Y017289D01*
X003445Y017388D02*
X003136Y017388D01*
X003148Y017486D02*
X003445Y017486D01*
X003486Y017585D02*
X003132Y017585D01*
X003117Y017683D02*
X003595Y017683D01*
X003595Y017782D02*
X003101Y017782D01*
X003085Y017880D02*
X003482Y017880D01*
X003383Y017979D02*
X003047Y017979D01*
X002997Y018077D02*
X003327Y018077D01*
X003287Y018176D02*
X002946Y018176D01*
X002896Y018274D02*
X003275Y018274D01*
X003275Y018373D02*
X002816Y018373D01*
X002717Y018471D02*
X003297Y018471D01*
X003338Y018570D02*
X002619Y018570D01*
X002562Y018626D02*
X002562Y018626D01*
X002479Y018668D02*
X003409Y018668D01*
X003508Y018767D02*
X002286Y018767D01*
X002165Y018828D02*
X002165Y018828D01*
X001932Y018865D02*
X015819Y018865D01*
X015819Y018176D02*
X015819Y009699D01*
X013354Y009699D01*
X013354Y010249D01*
X013323Y010279D01*
X013323Y010687D01*
X013295Y010715D01*
X013426Y010846D01*
X013549Y010969D01*
X013549Y012669D01*
X013602Y012669D01*
X013702Y012769D01*
X013702Y013295D01*
X013726Y013295D01*
X013726Y012756D01*
X013843Y012639D01*
X014323Y012639D01*
X014409Y012725D01*
X014781Y012725D01*
X014898Y012842D01*
X014898Y013285D01*
X014781Y013402D01*
X014433Y013402D01*
X014323Y013511D01*
X013875Y013511D01*
X013875Y013850D01*
X013776Y013950D01*
X013162Y013950D01*
X013063Y013850D01*
X013063Y013398D01*
X013047Y013382D01*
X013047Y012769D01*
X013129Y012687D01*
X013129Y011142D01*
X013036Y011049D01*
X012466Y011049D01*
X012466Y011165D01*
X012366Y011264D01*
X011645Y011264D01*
X011546Y011165D01*
X011546Y010027D01*
X011516Y009997D01*
X011516Y009722D01*
X011578Y009659D01*
X011553Y009635D01*
X011384Y009804D01*
X011325Y009863D01*
X011325Y009965D01*
X011225Y010065D01*
X011095Y010065D01*
X011128Y010098D01*
X011128Y010162D01*
X011344Y010378D01*
X011344Y010614D01*
X011486Y010756D01*
X011486Y011394D01*
X011501Y011409D01*
X011501Y012130D01*
X011401Y012229D01*
X011136Y012229D01*
X011136Y012300D01*
X011337Y012300D01*
X011346Y012292D01*
X011789Y012292D01*
X011906Y012409D01*
X011906Y012852D01*
X011789Y012969D01*
X011401Y012969D01*
X011355Y013015D01*
X010717Y013015D01*
X010706Y013004D01*
X010706Y013662D01*
X010714Y013670D01*
X010842Y013799D01*
X010842Y014027D01*
X010891Y014076D01*
X010891Y014610D01*
X010883Y014619D01*
X010891Y014627D01*
X010891Y014851D01*
X011236Y015197D01*
X011236Y015334D01*
X011323Y015334D01*
X011422Y015434D01*
X011422Y015890D01*
X011323Y015989D01*
X008938Y015989D01*
X008838Y015890D01*
X008838Y015434D01*
X008938Y015334D01*
X009024Y015334D01*
X009024Y015236D01*
X009409Y014851D01*
X009409Y014627D01*
X009417Y014619D01*
X009409Y014610D01*
X009409Y014076D01*
X009458Y014027D01*
X009458Y013760D01*
X009586Y013631D01*
X009694Y013523D01*
X009694Y012980D01*
X009658Y013015D01*
X009020Y013015D01*
X008974Y012969D01*
X008726Y012969D01*
X008726Y014745D01*
X008588Y014883D01*
X008465Y015006D01*
X008270Y015006D01*
X008210Y015066D01*
X008051Y015066D01*
X007958Y015158D01*
X007958Y015630D01*
X008057Y015728D01*
X008057Y016147D01*
X007958Y016246D01*
X007539Y016246D01*
X007457Y016164D01*
X007457Y016198D01*
X007340Y016316D01*
X006897Y016316D01*
X006787Y016206D02*
X006353Y016206D01*
X006267Y016111D02*
X006267Y016111D01*
X006264Y016107D02*
X006780Y016107D01*
X006780Y016009D02*
X006165Y016009D01*
X006126Y015910D02*
X006780Y015910D01*
X006780Y015812D02*
X000320Y015812D01*
X000320Y015910D02*
X004197Y015910D01*
X004153Y016009D02*
X000320Y016009D01*
X000320Y016107D02*
X001351Y016107D01*
X001112Y016206D02*
X000320Y016206D01*
X000320Y016304D02*
X000919Y016304D01*
X000805Y016403D02*
X000320Y016403D01*
X000320Y016501D02*
X000706Y016501D01*
X000608Y016600D02*
X000320Y016600D01*
X000320Y016698D02*
X000540Y016698D01*
X000572Y016635D02*
X000572Y016635D01*
X000490Y016797D02*
X000320Y016797D01*
X000320Y016895D02*
X000440Y016895D01*
X000389Y016994D02*
X000320Y016994D01*
X000370Y017032D02*
X000370Y017032D01*
X000360Y017092D02*
X000320Y017092D01*
X000320Y017191D02*
X000345Y017191D01*
X000329Y017289D02*
X000320Y017289D01*
X001725Y016048D02*
X001725Y016048D01*
X002099Y016107D02*
X004153Y016107D01*
X004153Y016206D02*
X002338Y016206D01*
X002165Y016118D02*
X002165Y016118D01*
X002862Y015418D02*
X000320Y015418D01*
X000320Y015516D02*
X002961Y015516D01*
X002764Y015319D02*
X000320Y015319D01*
X000320Y015221D02*
X002665Y015221D01*
X002567Y015122D02*
X000320Y015122D01*
X000320Y015024D02*
X002468Y015024D01*
X002370Y014925D02*
X000320Y014925D01*
X000320Y015615D02*
X003630Y015615D01*
X003993Y015615D02*
X004311Y015615D01*
X004331Y015713D02*
X000320Y015713D01*
X001859Y014827D02*
X001978Y014827D01*
X001879Y014728D02*
X001877Y014728D01*
X002596Y014236D02*
X002665Y014236D01*
X002763Y014137D02*
X002497Y014137D01*
X003024Y014481D02*
X003219Y014286D01*
X005810Y014286D01*
X006305Y014531D02*
X006851Y014531D01*
X006851Y014433D02*
X006440Y014433D01*
X006539Y014334D02*
X006851Y014334D01*
X006885Y014236D02*
X006637Y014236D01*
X006736Y014137D02*
X006976Y014137D01*
X007110Y014039D02*
X006834Y014039D01*
X006933Y013940D02*
X008306Y013940D01*
X008306Y013842D02*
X006935Y013842D01*
X006935Y013743D02*
X008306Y013743D01*
X008306Y013645D02*
X006935Y013645D01*
X006935Y013546D02*
X007270Y013546D01*
X007190Y013448D02*
X006935Y013448D01*
X006935Y013349D02*
X007190Y013349D01*
X007190Y013251D02*
X006935Y013251D01*
X006935Y013152D02*
X007190Y013152D01*
X007242Y013054D02*
X006935Y013054D01*
X006935Y012955D02*
X007361Y012955D01*
X007361Y012857D02*
X006935Y012857D01*
X006935Y012758D02*
X007361Y012758D01*
X007361Y012660D02*
X007005Y012660D01*
X007005Y012561D02*
X007457Y012561D01*
X007882Y012561D02*
X008087Y012561D01*
X008087Y012463D02*
X007005Y012463D01*
X007005Y012364D02*
X008087Y012364D01*
X008087Y012266D02*
X007005Y012266D01*
X007005Y012167D02*
X008087Y012167D01*
X008087Y012069D02*
X007005Y012069D01*
X007005Y011970D02*
X008087Y011970D01*
X008087Y011872D02*
X007005Y011872D01*
X007005Y011773D02*
X008087Y011773D01*
X008087Y011675D02*
X007005Y011675D01*
X007005Y011576D02*
X008091Y011576D01*
X008091Y011478D02*
X007000Y011478D01*
X007143Y011182D02*
X004966Y011182D01*
X004966Y011084D02*
X007126Y011084D01*
X007126Y010985D02*
X004966Y010985D01*
X004966Y010887D02*
X007126Y010887D01*
X007126Y010788D02*
X004966Y010788D01*
X004906Y010690D02*
X007126Y010690D01*
X008046Y010690D02*
X008739Y010690D01*
X008739Y010788D02*
X008046Y010788D01*
X008046Y010887D02*
X008739Y010887D01*
X008774Y010985D02*
X008046Y010985D01*
X008046Y011084D02*
X008916Y011084D01*
X008916Y011182D02*
X008029Y011182D01*
X008121Y011379D02*
X004949Y011379D01*
X004966Y011281D02*
X008916Y011281D01*
X009533Y011182D02*
X010866Y011182D01*
X010865Y011084D02*
X009533Y011084D01*
X009635Y011281D02*
X010737Y011281D01*
X010546Y010985D02*
X009793Y010985D01*
X009829Y010887D02*
X010511Y010887D01*
X010511Y010788D02*
X009829Y010788D01*
X009829Y010690D02*
X010511Y010690D01*
X010511Y010591D02*
X009829Y010591D01*
X009790Y010493D02*
X010511Y010493D01*
X010511Y010394D02*
X008046Y010394D01*
X008046Y010296D02*
X010511Y010296D01*
X010511Y010197D02*
X008046Y010197D01*
X008046Y010099D02*
X010511Y010099D01*
X010609Y010000D02*
X008653Y010000D01*
X008727Y009902D02*
X010707Y009902D01*
X010707Y009803D02*
X008825Y009803D01*
X008924Y009705D02*
X010707Y009705D01*
X010707Y009606D02*
X009022Y009606D01*
X009116Y009508D02*
X010707Y009508D01*
X010707Y009409D02*
X009116Y009409D01*
X009116Y009311D02*
X010707Y009311D01*
X010707Y009212D02*
X009116Y009212D01*
X009116Y009114D02*
X010708Y009114D01*
X010711Y009015D02*
X009116Y009015D01*
X009116Y008917D02*
X010711Y008917D01*
X010711Y008818D02*
X009116Y008818D01*
X009116Y008720D02*
X010711Y008720D01*
X010752Y008621D02*
X009116Y008621D01*
X009116Y008523D02*
X011546Y008523D01*
X011546Y008621D02*
X011289Y008621D01*
X011546Y008424D02*
X009116Y008424D01*
X009116Y008326D02*
X011546Y008326D01*
X011546Y008227D02*
X009116Y008227D01*
X009116Y008129D02*
X011546Y008129D01*
X011546Y008030D02*
X009116Y008030D01*
X009116Y007932D02*
X011568Y007932D01*
X011476Y007735D02*
X011798Y007735D01*
X011798Y007833D02*
X010040Y007833D01*
X009751Y007833D02*
X009116Y007833D01*
X008306Y007932D02*
X008023Y007932D01*
X008046Y008030D02*
X008306Y008030D01*
X008306Y008129D02*
X008046Y008129D01*
X008046Y008227D02*
X008306Y008227D01*
X008306Y008326D02*
X008046Y008326D01*
X008046Y008424D02*
X008306Y008424D01*
X008189Y008523D02*
X008046Y008523D01*
X008046Y008621D02*
X008109Y008621D01*
X008109Y008720D02*
X008046Y008720D01*
X008046Y008818D02*
X008109Y008818D01*
X008109Y008917D02*
X008046Y008917D01*
X008046Y009015D02*
X008109Y009015D01*
X008109Y009114D02*
X008046Y009114D01*
X008046Y009212D02*
X008109Y009212D01*
X008109Y009311D02*
X008046Y009311D01*
X008022Y009409D02*
X008109Y009409D01*
X008109Y009508D02*
X008019Y009508D01*
X008046Y009606D02*
X008109Y009606D01*
X008109Y009705D02*
X008046Y009705D01*
X008046Y009803D02*
X008109Y009803D01*
X008109Y009902D02*
X008046Y009902D01*
X008046Y010000D02*
X008183Y010000D01*
X008046Y010493D02*
X008778Y010493D01*
X008739Y010591D02*
X008046Y010591D01*
X006040Y011478D02*
X006017Y011478D01*
X005283Y011478D02*
X003401Y011478D01*
X003441Y011576D02*
X005244Y011576D01*
X005244Y011675D02*
X003451Y011675D01*
X003450Y011773D02*
X005244Y011773D01*
X005244Y011872D02*
X003521Y011872D01*
X003437Y012099D02*
X003024Y011685D01*
X003322Y011379D02*
X004328Y011379D01*
X004311Y011281D02*
X003164Y011281D01*
X002473Y011056D02*
X004638Y011056D01*
X004855Y012099D02*
X003437Y012099D01*
X003534Y012758D02*
X001669Y012758D01*
X001669Y012660D02*
X002112Y012660D01*
X002014Y012561D02*
X001669Y012561D01*
X001669Y012463D02*
X001915Y012463D01*
X001817Y012364D02*
X001669Y012364D01*
X001669Y012266D02*
X001718Y012266D01*
X002237Y011685D02*
X002237Y011292D01*
X002473Y011056D01*
X002017Y011281D02*
X001800Y011281D01*
X001877Y011379D02*
X001938Y011379D01*
X004089Y012758D02*
X005321Y012758D01*
X007978Y012758D02*
X008087Y012758D01*
X008087Y012660D02*
X007978Y012660D01*
X007978Y012857D02*
X008087Y012857D01*
X008087Y012955D02*
X007978Y012955D01*
X008726Y013054D02*
X009694Y013054D01*
X009694Y013152D02*
X008726Y013152D01*
X008726Y013251D02*
X009694Y013251D01*
X009694Y013349D02*
X008726Y013349D01*
X008726Y013448D02*
X009694Y013448D01*
X009671Y013546D02*
X008726Y013546D01*
X008726Y013645D02*
X009573Y013645D01*
X009474Y013743D02*
X008726Y013743D01*
X008726Y013842D02*
X009458Y013842D01*
X009458Y013940D02*
X008726Y013940D01*
X008726Y014039D02*
X009446Y014039D01*
X009409Y014137D02*
X008726Y014137D01*
X008726Y014236D02*
X009409Y014236D01*
X009409Y014334D02*
X008726Y014334D01*
X008726Y014433D02*
X009409Y014433D01*
X009409Y014531D02*
X008726Y014531D01*
X008726Y014630D02*
X009409Y014630D01*
X009409Y014728D02*
X008726Y014728D01*
X008644Y014827D02*
X009409Y014827D01*
X009335Y014925D02*
X008546Y014925D01*
X008588Y014883D02*
X008588Y014883D01*
X008253Y015024D02*
X009237Y015024D01*
X009138Y015122D02*
X007995Y015122D01*
X007958Y015221D02*
X009040Y015221D01*
X009024Y015319D02*
X007958Y015319D01*
X007958Y015418D02*
X008855Y015418D01*
X008838Y015516D02*
X007958Y015516D01*
X007958Y015615D02*
X008838Y015615D01*
X008838Y015713D02*
X008042Y015713D01*
X008057Y015812D02*
X008838Y015812D01*
X008859Y015910D02*
X008057Y015910D01*
X008057Y016009D02*
X015819Y016009D01*
X015819Y016107D02*
X008057Y016107D01*
X007998Y016206D02*
X015819Y016206D01*
X015819Y016304D02*
X007352Y016304D01*
X007450Y016206D02*
X007499Y016206D01*
X006134Y016331D02*
X006056Y016252D01*
X005823Y016252D01*
X005807Y016268D01*
X006134Y016331D02*
X006134Y017512D01*
X005977Y017670D01*
X005229Y017670D01*
X005071Y017512D01*
X005071Y017237D01*
X005071Y017788D01*
X004815Y018044D01*
X004815Y018210D01*
X005336Y017979D02*
X006327Y017979D01*
X006286Y018077D02*
X005377Y018077D01*
X005385Y018176D02*
X006275Y018176D01*
X006275Y018274D02*
X005385Y018274D01*
X005365Y018373D02*
X006298Y018373D01*
X006339Y018471D02*
X005324Y018471D01*
X005262Y018570D02*
X006411Y018570D01*
X006510Y018668D02*
X005164Y018668D01*
X004962Y018767D02*
X007508Y018767D01*
X008121Y018768D02*
X008273Y018616D01*
X008336Y018464D01*
X008358Y018516D01*
X008509Y018668D01*
X008708Y018750D01*
X008923Y018750D01*
X009121Y018668D01*
X009220Y018570D02*
X013786Y018570D01*
X013688Y018471D02*
X009292Y018471D01*
X008510Y018668D02*
X008221Y018668D01*
X008292Y018570D02*
X008411Y018570D01*
X008339Y018471D02*
X008333Y018471D01*
X008327Y017979D02*
X008247Y017979D01*
X008149Y017880D02*
X008382Y017880D01*
X008480Y017782D02*
X007950Y017782D01*
X007681Y017782D02*
X007150Y017782D01*
X007249Y017880D02*
X007482Y017880D01*
X007383Y017979D02*
X007304Y017979D01*
X006954Y017683D02*
X008677Y017683D01*
X006677Y017683D02*
X006317Y017683D01*
X006218Y017782D02*
X006480Y017782D01*
X006382Y017880D02*
X006120Y017880D01*
X005780Y017237D02*
X005780Y016843D01*
X005701Y016764D01*
X004520Y016764D02*
X004481Y016804D01*
X004481Y017237D01*
X003445Y017092D02*
X003089Y017092D01*
X003060Y016994D02*
X003445Y016994D01*
X003480Y016895D02*
X003010Y016895D01*
X004292Y018570D02*
X004369Y018570D01*
X004467Y018668D02*
X004221Y018668D01*
X004123Y018767D02*
X004669Y018767D01*
X009244Y015662D02*
X009244Y015327D01*
X009678Y014894D01*
X009993Y014894D02*
X009993Y015504D01*
X009835Y015662D01*
X010307Y015544D02*
X010426Y015662D01*
X010307Y015544D02*
X010307Y014894D01*
X010622Y014894D02*
X011016Y015288D01*
X011016Y015662D01*
X011236Y015319D02*
X015819Y015319D01*
X015819Y015221D02*
X011236Y015221D01*
X011162Y015122D02*
X015819Y015122D01*
X015819Y015024D02*
X011063Y015024D01*
X010965Y014925D02*
X015819Y014925D01*
X015819Y014827D02*
X010891Y014827D01*
X010891Y014728D02*
X015819Y014728D01*
X015819Y014630D02*
X010891Y014630D01*
X010891Y014531D02*
X015819Y014531D01*
X015819Y014433D02*
X010891Y014433D01*
X010891Y014334D02*
X015819Y014334D01*
X015819Y014236D02*
X010891Y014236D01*
X010891Y014137D02*
X015819Y014137D01*
X015819Y014039D02*
X010854Y014039D01*
X010842Y013940D02*
X013152Y013940D01*
X013063Y013842D02*
X010842Y013842D01*
X010786Y013743D02*
X013063Y013743D01*
X013063Y013645D02*
X010706Y013645D01*
X010706Y013546D02*
X013063Y013546D01*
X013063Y013448D02*
X010706Y013448D01*
X010706Y013349D02*
X013047Y013349D01*
X013047Y013251D02*
X010706Y013251D01*
X010706Y013152D02*
X013047Y013152D01*
X013047Y013054D02*
X010706Y013054D01*
X011136Y012266D02*
X013129Y012266D01*
X013129Y012364D02*
X011861Y012364D01*
X011906Y012463D02*
X013129Y012463D01*
X013129Y012561D02*
X011906Y012561D01*
X011906Y012660D02*
X013129Y012660D01*
X013057Y012758D02*
X011906Y012758D01*
X011901Y012857D02*
X013047Y012857D01*
X013047Y012955D02*
X011803Y012955D01*
X011464Y012167D02*
X013129Y012167D01*
X013129Y012069D02*
X011501Y012069D01*
X011501Y011970D02*
X013129Y011970D01*
X013129Y011872D02*
X011501Y011872D01*
X011501Y011773D02*
X013129Y011773D01*
X013129Y011675D02*
X011501Y011675D01*
X011501Y011576D02*
X013129Y011576D01*
X013129Y011478D02*
X011501Y011478D01*
X011486Y011379D02*
X013129Y011379D01*
X013129Y011281D02*
X011486Y011281D01*
X011486Y011182D02*
X011563Y011182D01*
X011546Y011084D02*
X011486Y011084D01*
X011486Y010985D02*
X011546Y010985D01*
X011546Y010887D02*
X011486Y010887D01*
X011486Y010788D02*
X011546Y010788D01*
X011546Y010690D02*
X011420Y010690D01*
X011344Y010591D02*
X011546Y010591D01*
X011546Y010493D02*
X011344Y010493D01*
X011410Y010426D02*
X011449Y010386D01*
X011449Y009756D01*
X011546Y009659D01*
X012006Y009659D01*
X011533Y009705D02*
X011483Y009705D01*
X011516Y009803D02*
X011385Y009803D01*
X011325Y009902D02*
X011516Y009902D01*
X011518Y010000D02*
X011290Y010000D01*
X011128Y010099D02*
X011546Y010099D01*
X011546Y010197D02*
X011163Y010197D01*
X011262Y010296D02*
X011546Y010296D01*
X011546Y010394D02*
X011344Y010394D01*
X012466Y011084D02*
X013070Y011084D01*
X013129Y011182D02*
X012449Y011182D01*
X013368Y010788D02*
X015819Y010788D01*
X015819Y010690D02*
X013320Y010690D01*
X013323Y010591D02*
X015819Y010591D01*
X015819Y010493D02*
X013323Y010493D01*
X013323Y010394D02*
X015819Y010394D01*
X015819Y010296D02*
X013323Y010296D01*
X013354Y010197D02*
X015819Y010197D01*
X015819Y010099D02*
X013354Y010099D01*
X013354Y010000D02*
X015819Y010000D01*
X015819Y009902D02*
X013354Y009902D01*
X013354Y009803D02*
X015819Y009803D01*
X015819Y009705D02*
X013354Y009705D01*
X012466Y009219D02*
X015819Y009219D01*
X015819Y008879D01*
X012466Y008879D01*
X012466Y008944D01*
X012466Y009219D01*
X012466Y009212D02*
X015819Y009212D01*
X015819Y009114D02*
X012466Y009114D01*
X012466Y009015D02*
X015819Y009015D01*
X015819Y008917D02*
X012466Y008917D01*
X012466Y008069D02*
X015819Y008069D01*
X015819Y007762D01*
X013961Y007762D01*
X013744Y007545D01*
X013524Y007545D01*
X013424Y007446D01*
X013424Y007027D01*
X013524Y006928D01*
X013942Y006928D01*
X014041Y007027D01*
X014041Y007248D01*
X014135Y007342D01*
X015819Y007342D01*
X015819Y005695D01*
X014115Y005695D01*
X014041Y005768D01*
X014041Y005989D01*
X013942Y006089D01*
X013524Y006089D01*
X013424Y005989D01*
X013424Y005571D01*
X013497Y005498D01*
X012989Y005498D01*
X012218Y006268D01*
X012218Y007854D01*
X012366Y007854D01*
X012466Y007954D01*
X012466Y008069D01*
X012466Y008030D02*
X015819Y008030D01*
X015819Y007932D02*
X012443Y007932D01*
X012218Y007833D02*
X015819Y007833D01*
X015819Y007341D02*
X014134Y007341D01*
X014041Y007242D02*
X015819Y007242D01*
X015819Y007144D02*
X014041Y007144D01*
X014041Y007045D02*
X015819Y007045D01*
X015819Y006947D02*
X013960Y006947D01*
X013505Y006947D02*
X012218Y006947D01*
X012218Y007045D02*
X013424Y007045D01*
X013424Y007144D02*
X012218Y007144D01*
X012218Y007242D02*
X013424Y007242D01*
X013424Y007341D02*
X012218Y007341D01*
X012218Y007439D02*
X013424Y007439D01*
X013516Y007538D02*
X012218Y007538D01*
X012218Y007636D02*
X013835Y007636D01*
X013934Y007735D02*
X012218Y007735D01*
X011798Y007636D02*
X011501Y007636D01*
X011501Y007538D02*
X011798Y007538D01*
X011798Y007439D02*
X011501Y007439D01*
X011501Y007341D02*
X011798Y007341D01*
X011798Y007242D02*
X011501Y007242D01*
X011501Y007144D02*
X011798Y007144D01*
X011798Y007045D02*
X011501Y007045D01*
X011486Y006947D02*
X011798Y006947D01*
X011798Y006848D02*
X011486Y006848D01*
X011486Y006750D02*
X011798Y006750D01*
X011798Y006651D02*
X011525Y006651D01*
X011623Y006553D02*
X011798Y006553D01*
X011798Y006454D02*
X011722Y006454D01*
X012218Y006454D02*
X015819Y006454D01*
X015819Y006356D02*
X012218Y006356D01*
X012230Y006257D02*
X015819Y006257D01*
X015819Y006159D02*
X012328Y006159D01*
X012427Y006060D02*
X013495Y006060D01*
X013424Y005962D02*
X012525Y005962D01*
X012624Y005863D02*
X013424Y005863D01*
X013424Y005765D02*
X012722Y005765D01*
X012821Y005666D02*
X013424Y005666D01*
X013427Y005568D02*
X012919Y005568D01*
X013970Y006060D02*
X015819Y006060D01*
X015819Y005962D02*
X014041Y005962D01*
X014041Y005863D02*
X015819Y005863D01*
X015819Y005765D02*
X014045Y005765D01*
X015819Y006553D02*
X012218Y006553D01*
X012218Y006651D02*
X015819Y006651D01*
X015819Y006750D02*
X012218Y006750D01*
X012218Y006848D02*
X015819Y006848D01*
X016095Y006848D02*
X016991Y006848D01*
X016991Y006750D02*
X016095Y006750D01*
X016095Y006651D02*
X016991Y006651D01*
X016991Y006553D02*
X016095Y006553D01*
X016095Y006454D02*
X016952Y006454D01*
X016924Y006426D02*
X016991Y006493D01*
X016991Y007300D01*
X016993Y007302D01*
X016095Y007302D01*
X016095Y005735D01*
X016969Y005735D01*
X016924Y005780D01*
X016924Y006426D01*
X016924Y006356D02*
X016095Y006356D01*
X016095Y006257D02*
X016924Y006257D01*
X016924Y006159D02*
X016095Y006159D01*
X016095Y006060D02*
X016924Y006060D01*
X016924Y005962D02*
X016095Y005962D01*
X016095Y005863D02*
X016924Y005863D01*
X016939Y005765D02*
X016095Y005765D01*
X016095Y006947D02*
X016991Y006947D01*
X016991Y007045D02*
X016095Y007045D01*
X016095Y007144D02*
X016991Y007144D01*
X016991Y007242D02*
X016095Y007242D01*
X018049Y009179D02*
X018405Y008824D01*
X018405Y009036D01*
X018528Y009159D01*
X019174Y009159D01*
X019297Y009036D01*
X019297Y008547D01*
X019180Y008430D01*
X019180Y008324D01*
X019537Y007967D01*
X019581Y008072D01*
X019585Y008077D01*
X019585Y008247D01*
X019512Y008247D01*
X019389Y008370D01*
X019389Y008859D01*
X019499Y008969D01*
X019389Y009079D01*
X019389Y010001D01*
X019499Y010111D01*
X019389Y010220D01*
X019389Y010709D01*
X019512Y010832D01*
X020158Y010832D01*
X020189Y010801D01*
X020220Y010832D01*
X020867Y010832D01*
X020964Y010735D01*
X021061Y010735D01*
X021061Y010809D01*
X021184Y010932D01*
X021636Y010932D01*
X021759Y010809D01*
X021759Y010357D01*
X021636Y010234D01*
X021440Y010234D01*
X021345Y010195D01*
X020964Y010195D01*
X020880Y010111D01*
X020990Y010001D01*
X020990Y009079D01*
X020880Y008969D01*
X020990Y008859D01*
X020990Y008370D01*
X020867Y008247D01*
X020794Y008247D01*
X020794Y008096D01*
X020756Y008004D01*
X020683Y007932D01*
X020683Y007919D01*
X020729Y007919D01*
X020852Y007796D01*
X020852Y003173D01*
X020729Y003050D01*
X020423Y003050D01*
X020420Y003049D01*
X020063Y003049D01*
X020183Y002930D01*
X020183Y002441D01*
X020060Y002318D01*
X019413Y002318D01*
X019290Y002441D01*
X019290Y002807D01*
X019059Y002576D01*
X018967Y002538D01*
X017655Y002538D01*
X017625Y002507D01*
X017625Y002286D01*
X017502Y002163D01*
X017050Y002163D01*
X016927Y002286D01*
X016927Y002738D01*
X016963Y002774D01*
X016680Y002774D01*
X016680Y002562D01*
X016557Y002439D01*
X016105Y002439D01*
X016095Y002450D01*
X016095Y000360D01*
X027315Y000360D01*
X027315Y001829D01*
X027246Y001829D01*
X027147Y001730D01*
X026798Y001730D01*
X026798Y001027D01*
X026768Y000996D01*
X026798Y000966D01*
X026798Y000515D01*
X026675Y000392D01*
X026223Y000392D01*
X026125Y000491D01*
X026045Y000491D01*
X025953Y000529D01*
X025883Y000599D01*
X024179Y002303D01*
X024179Y002189D01*
X024056Y002066D01*
X023876Y002066D01*
X023874Y002062D01*
X023874Y002061D01*
X023873Y002060D01*
X023837Y002024D01*
X023801Y001989D01*
X023800Y001988D01*
X023799Y001987D01*
X023752Y001968D01*
X023706Y001949D01*
X023705Y001949D01*
X023703Y001949D01*
X023684Y001949D01*
X023684Y001949D01*
X023633Y001949D01*
X023583Y001949D01*
X023582Y001949D01*
X023004Y001953D01*
X022953Y001953D01*
X022952Y001953D01*
X022951Y001953D01*
X022904Y001973D01*
X022857Y001993D01*
X022856Y001993D01*
X022856Y001993D01*
X022820Y002030D01*
X022745Y002105D01*
X022705Y002201D01*
X022705Y002948D01*
X022676Y002976D01*
X022676Y007205D01*
X022799Y007329D01*
X023106Y007329D01*
X023108Y007329D01*
X025176Y007329D01*
X025195Y007348D01*
X025195Y009408D01*
X025078Y009526D01*
X023210Y009526D01*
X023132Y009447D01*
X022680Y009447D01*
X022557Y009570D01*
X022557Y010021D01*
X022680Y010144D01*
X023132Y010144D01*
X023210Y010066D01*
X025243Y010066D01*
X025342Y010025D01*
X025418Y009949D01*
X025418Y009949D01*
X025694Y009673D01*
X025735Y009574D01*
X025735Y007470D01*
X025816Y007551D01*
X025864Y007600D01*
X025864Y009195D01*
X025987Y009318D01*
X026439Y009318D01*
X026537Y009219D01*
X027315Y009219D01*
X027315Y011002D01*
X016095Y011002D01*
X016095Y009709D01*
X017465Y009709D01*
X017557Y009671D01*
X017746Y009482D01*
X017786Y009482D01*
X017907Y009432D01*
X017999Y009340D01*
X018049Y009219D01*
X018049Y009179D01*
X018049Y009212D02*
X019389Y009212D01*
X019389Y009114D02*
X019220Y009114D01*
X019297Y009015D02*
X019453Y009015D01*
X019446Y008917D02*
X019297Y008917D01*
X019297Y008818D02*
X019389Y008818D01*
X019389Y008720D02*
X019297Y008720D01*
X019297Y008621D02*
X019389Y008621D01*
X019389Y008523D02*
X019272Y008523D01*
X019180Y008424D02*
X019389Y008424D01*
X019433Y008326D02*
X019180Y008326D01*
X019277Y008227D02*
X019585Y008227D01*
X019585Y008129D02*
X019375Y008129D01*
X019474Y008030D02*
X019563Y008030D01*
X020683Y007932D02*
X025195Y007932D01*
X025195Y008030D02*
X020766Y008030D01*
X020794Y008129D02*
X025195Y008129D01*
X025195Y008227D02*
X020794Y008227D01*
X020945Y008326D02*
X025195Y008326D01*
X025195Y008424D02*
X020990Y008424D01*
X020990Y008523D02*
X025195Y008523D01*
X025195Y008621D02*
X020990Y008621D01*
X020990Y008720D02*
X025195Y008720D01*
X025195Y008818D02*
X020990Y008818D01*
X020932Y008917D02*
X025195Y008917D01*
X025195Y009015D02*
X020926Y009015D01*
X020990Y009114D02*
X025195Y009114D01*
X025195Y009212D02*
X020990Y009212D01*
X020990Y009311D02*
X025195Y009311D01*
X025194Y009409D02*
X020990Y009409D01*
X020990Y009508D02*
X022620Y009508D01*
X022557Y009606D02*
X020990Y009606D01*
X020990Y009705D02*
X022557Y009705D01*
X022557Y009803D02*
X020990Y009803D01*
X020990Y009902D02*
X022557Y009902D01*
X022557Y010000D02*
X020990Y010000D01*
X020892Y010099D02*
X022634Y010099D01*
X023178Y010099D02*
X027315Y010099D01*
X027315Y010197D02*
X021350Y010197D01*
X021697Y010296D02*
X027315Y010296D01*
X027315Y010394D02*
X021759Y010394D01*
X021759Y010493D02*
X027315Y010493D01*
X027315Y010591D02*
X021759Y010591D01*
X021759Y010690D02*
X027315Y010690D01*
X027315Y010788D02*
X021759Y010788D01*
X021681Y010887D02*
X027315Y010887D01*
X027315Y010985D02*
X016095Y010985D01*
X016095Y010887D02*
X021139Y010887D01*
X021061Y010788D02*
X020911Y010788D01*
X019467Y010788D02*
X016095Y010788D01*
X016095Y010690D02*
X019389Y010690D01*
X019389Y010591D02*
X016095Y010591D01*
X016095Y010493D02*
X019389Y010493D01*
X019389Y010394D02*
X016095Y010394D01*
X016095Y010296D02*
X019389Y010296D01*
X019412Y010197D02*
X016095Y010197D01*
X016095Y010099D02*
X019487Y010099D01*
X019389Y010000D02*
X016095Y010000D01*
X016095Y009902D02*
X019389Y009902D01*
X019389Y009803D02*
X016095Y009803D01*
X017477Y009705D02*
X019389Y009705D01*
X019389Y009606D02*
X017622Y009606D01*
X017721Y009508D02*
X019389Y009508D01*
X019389Y009409D02*
X017930Y009409D01*
X018011Y009311D02*
X019389Y009311D01*
X018482Y009114D02*
X018115Y009114D01*
X018213Y009015D02*
X018405Y009015D01*
X018405Y008917D02*
X018312Y008917D01*
X020815Y007833D02*
X025195Y007833D01*
X025195Y007735D02*
X020852Y007735D01*
X020852Y007636D02*
X025195Y007636D01*
X025195Y007538D02*
X020852Y007538D01*
X020852Y007439D02*
X025195Y007439D01*
X025187Y007341D02*
X020852Y007341D01*
X020852Y007242D02*
X022713Y007242D01*
X022676Y007144D02*
X020852Y007144D01*
X020852Y007045D02*
X022676Y007045D01*
X022676Y006947D02*
X020852Y006947D01*
X020852Y006848D02*
X022676Y006848D01*
X022676Y006750D02*
X020852Y006750D01*
X020852Y006651D02*
X022676Y006651D01*
X022676Y006553D02*
X020852Y006553D01*
X020852Y006454D02*
X022676Y006454D01*
X022676Y006356D02*
X020852Y006356D01*
X020852Y006257D02*
X022676Y006257D01*
X022676Y006159D02*
X020852Y006159D01*
X020852Y006060D02*
X022676Y006060D01*
X022676Y005962D02*
X020852Y005962D01*
X020852Y005863D02*
X022676Y005863D01*
X022676Y005765D02*
X020852Y005765D01*
X020852Y005666D02*
X022676Y005666D01*
X022676Y005568D02*
X020852Y005568D01*
X020852Y005469D02*
X022676Y005469D01*
X022676Y005371D02*
X020852Y005371D01*
X020852Y005272D02*
X022676Y005272D01*
X022676Y005174D02*
X020852Y005174D01*
X020852Y005075D02*
X022676Y005075D01*
X022676Y004977D02*
X020852Y004977D01*
X020852Y004878D02*
X022676Y004878D01*
X022676Y004780D02*
X020852Y004780D01*
X020852Y004681D02*
X022676Y004681D01*
X022676Y004583D02*
X020852Y004583D01*
X020852Y004484D02*
X022676Y004484D01*
X022676Y004386D02*
X020852Y004386D01*
X020852Y004287D02*
X022676Y004287D01*
X022676Y004189D02*
X020852Y004189D01*
X020852Y004090D02*
X022676Y004090D01*
X022676Y003992D02*
X020852Y003992D01*
X020852Y003893D02*
X022676Y003893D01*
X022676Y003795D02*
X020852Y003795D01*
X020852Y003696D02*
X022676Y003696D01*
X022676Y003598D02*
X020852Y003598D01*
X020852Y003499D02*
X022676Y003499D01*
X022676Y003401D02*
X020852Y003401D01*
X020852Y003302D02*
X022676Y003302D01*
X022676Y003204D02*
X020852Y003204D01*
X020784Y003105D02*
X022676Y003105D01*
X022676Y003007D02*
X020106Y003007D01*
X020183Y002908D02*
X022705Y002908D01*
X022705Y002810D02*
X020183Y002810D01*
X020183Y002711D02*
X022705Y002711D01*
X022705Y002613D02*
X020183Y002613D01*
X020183Y002514D02*
X022705Y002514D01*
X022705Y002416D02*
X020157Y002416D01*
X019316Y002416D02*
X017625Y002416D01*
X017631Y002514D02*
X019290Y002514D01*
X019290Y002613D02*
X019096Y002613D01*
X019194Y002711D02*
X019290Y002711D01*
X018235Y003727D02*
X018235Y004054D01*
X016095Y004054D01*
X016095Y003756D01*
X016145Y003806D01*
X016596Y003806D01*
X016675Y003727D01*
X018235Y003727D01*
X018235Y003795D02*
X016608Y003795D01*
X016133Y003795D02*
X016095Y003795D01*
X016095Y003893D02*
X018235Y003893D01*
X018235Y003992D02*
X016095Y003992D01*
X016680Y002711D02*
X016927Y002711D01*
X016927Y002613D02*
X016680Y002613D01*
X016632Y002514D02*
X016927Y002514D01*
X016927Y002416D02*
X016095Y002416D01*
X016095Y002317D02*
X016927Y002317D01*
X016995Y002219D02*
X016095Y002219D01*
X016095Y002120D02*
X022738Y002120D01*
X022705Y002219D02*
X017557Y002219D01*
X017625Y002317D02*
X022705Y002317D01*
X022965Y002317D02*
X023655Y002317D01*
X023654Y002219D02*
X022999Y002219D01*
X023004Y002213D02*
X022965Y002252D01*
X022965Y003146D01*
X022969Y003142D01*
X023430Y003138D01*
X023430Y002678D01*
X023658Y002678D01*
X023654Y002209D01*
X023634Y002209D01*
X023004Y002213D01*
X022965Y002416D02*
X023656Y002416D01*
X023656Y002514D02*
X022965Y002514D01*
X022965Y002613D02*
X023657Y002613D01*
X023430Y002711D02*
X022965Y002711D01*
X022965Y002810D02*
X023430Y002810D01*
X023430Y002908D02*
X022965Y002908D01*
X022965Y003007D02*
X023430Y003007D01*
X023430Y003105D02*
X022965Y003105D01*
X024179Y002219D02*
X024263Y002219D01*
X024362Y002120D02*
X024110Y002120D01*
X023834Y002022D02*
X024460Y002022D01*
X024559Y001923D02*
X016095Y001923D01*
X016095Y001825D02*
X024657Y001825D01*
X024756Y001726D02*
X016095Y001726D01*
X016095Y001628D02*
X024854Y001628D01*
X024953Y001529D02*
X016095Y001529D01*
X016095Y001431D02*
X025051Y001431D01*
X025150Y001332D02*
X016095Y001332D01*
X016095Y001234D02*
X025248Y001234D01*
X025347Y001135D02*
X016095Y001135D01*
X016095Y001037D02*
X025445Y001037D01*
X025544Y000938D02*
X016095Y000938D01*
X016095Y000840D02*
X025642Y000840D01*
X025741Y000741D02*
X016095Y000741D01*
X016095Y000643D02*
X025839Y000643D01*
X025938Y000544D02*
X016095Y000544D01*
X016095Y000446D02*
X026170Y000446D01*
X026729Y000446D02*
X027315Y000446D01*
X027315Y000544D02*
X026798Y000544D01*
X026798Y000643D02*
X027315Y000643D01*
X027315Y000741D02*
X026798Y000741D01*
X026798Y000840D02*
X027315Y000840D01*
X027315Y000938D02*
X026798Y000938D01*
X026798Y001037D02*
X027315Y001037D01*
X027315Y001135D02*
X026798Y001135D01*
X026798Y001234D02*
X027315Y001234D01*
X027315Y001332D02*
X026798Y001332D01*
X026798Y001431D02*
X027315Y001431D01*
X027315Y001529D02*
X026798Y001529D01*
X026798Y001628D02*
X027315Y001628D01*
X027315Y001726D02*
X026798Y001726D01*
X027241Y001825D02*
X027315Y001825D01*
X027591Y001825D02*
X031771Y001825D01*
X031771Y001923D02*
X027771Y001923D01*
X027717Y001869D02*
X028195Y002346D01*
X028195Y003110D01*
X028521Y003110D01*
X028638Y003228D01*
X028638Y003671D01*
X028540Y003770D01*
X028540Y004618D01*
X029302Y005380D01*
X029369Y005447D01*
X029406Y005535D01*
X029406Y009332D01*
X029369Y009420D01*
X028855Y009934D01*
X028855Y011822D01*
X029048Y012016D01*
X029269Y012016D01*
X029386Y012133D01*
X029386Y012576D01*
X029269Y012693D01*
X028826Y012693D01*
X028709Y012576D01*
X028709Y012355D01*
X028411Y012058D01*
X028375Y011969D01*
X028375Y009819D01*
X027960Y009819D01*
X027843Y009702D01*
X027843Y009259D01*
X027893Y009209D01*
X027591Y009209D01*
X027591Y018851D01*
X038042Y018851D01*
X037899Y018828D01*
X037899Y018828D01*
X037501Y018626D01*
X037186Y018310D01*
X036984Y017913D01*
X036914Y017473D01*
X036984Y017032D01*
X037186Y016635D01*
X037501Y016320D01*
X037501Y016320D01*
X037899Y016118D01*
X038339Y016048D01*
X038779Y016118D01*
X039177Y016320D01*
X039492Y016635D01*
X039492Y016635D01*
X039547Y016743D01*
X039547Y014743D01*
X039517Y014755D01*
X039472Y014774D01*
X039471Y014774D01*
X039422Y014774D01*
X039373Y014774D01*
X039372Y014774D01*
X038614Y014772D01*
X038567Y014819D01*
X036673Y014819D01*
X036661Y014847D01*
X036661Y014847D01*
X036661Y014847D01*
X036626Y014882D01*
X036591Y014917D01*
X036591Y014917D01*
X036590Y014917D01*
X036563Y014929D01*
X036563Y015508D01*
X036445Y015626D01*
X035965Y015626D01*
X035848Y015508D01*
X035848Y015179D01*
X035838Y015183D01*
X035818Y015203D01*
X035489Y015203D01*
X035489Y015293D01*
X035372Y015410D01*
X034928Y015410D01*
X034811Y015293D01*
X034811Y014952D01*
X034780Y014952D01*
X034780Y015293D01*
X034663Y015410D01*
X034220Y015410D01*
X034103Y015293D01*
X034103Y014921D01*
X034102Y014921D01*
X034088Y014921D01*
X033971Y014804D01*
X033971Y012638D01*
X034026Y012584D01*
X032698Y012584D01*
X032598Y012484D01*
X032598Y010648D01*
X032567Y010648D01*
X032567Y010985D01*
X032449Y011102D01*
X031049Y011102D01*
X031049Y011788D01*
X031079Y011818D01*
X031079Y012261D01*
X030962Y012379D01*
X030519Y012379D01*
X030402Y012261D01*
X030402Y011912D01*
X030389Y011925D01*
X030148Y011925D01*
X030048Y011826D01*
X030048Y011590D01*
X029959Y011501D01*
X029959Y011083D01*
X030059Y010983D01*
X030395Y010983D01*
X030395Y009008D01*
X030466Y008937D01*
X030413Y008884D01*
X030413Y008812D01*
X030157Y008812D01*
X030040Y008694D01*
X030040Y008251D01*
X030157Y008134D01*
X030413Y008134D01*
X030413Y008069D01*
X030475Y008007D01*
X030425Y007957D01*
X030425Y006005D01*
X030524Y005905D01*
X032318Y005905D01*
X032318Y004640D01*
X032317Y004554D01*
X032317Y004553D01*
X032317Y004504D01*
X032317Y004455D01*
X032318Y004454D01*
X032318Y004453D01*
X032318Y003819D01*
X032356Y003781D01*
X032356Y003177D01*
X032473Y003060D01*
X032953Y003060D01*
X033070Y003177D01*
X033070Y003229D01*
X033479Y002821D01*
X033567Y002784D01*
X035985Y002784D01*
X036073Y002821D01*
X036152Y002899D01*
X036220Y002967D01*
X036256Y003055D01*
X036256Y003137D01*
X036355Y003236D01*
X036355Y003661D01*
X039353Y003664D01*
X039403Y003664D01*
X039452Y003664D01*
X039452Y003664D01*
X039452Y003664D01*
X039498Y003683D01*
X039544Y003702D01*
X039547Y003705D01*
X039547Y002454D01*
X039492Y002562D01*
X039492Y002562D01*
X039177Y002878D01*
X038779Y003080D01*
X038339Y003150D01*
X037899Y003080D01*
X037899Y003080D01*
X037501Y002878D01*
X037186Y002562D01*
X036984Y002165D01*
X036914Y001725D01*
X036914Y001725D01*
X036984Y001284D01*
X037186Y000887D01*
X037501Y000572D01*
X037501Y000572D01*
X037899Y000370D01*
X038188Y000324D01*
X038130Y000320D01*
X027591Y000320D01*
X027591Y001869D01*
X027717Y001869D01*
X027591Y001726D02*
X031771Y001726D01*
X031771Y001628D02*
X027591Y001628D01*
X027591Y001529D02*
X031771Y001529D01*
X031771Y001431D02*
X027591Y001431D01*
X027591Y001332D02*
X031771Y001332D01*
X031771Y001234D02*
X027591Y001234D01*
X027591Y001135D02*
X031849Y001135D01*
X031849Y001146D02*
X031849Y000925D01*
X031949Y000826D01*
X032367Y000826D01*
X032467Y000925D01*
X032467Y001343D01*
X032367Y001443D01*
X032191Y001443D01*
X032191Y002850D01*
X032201Y002860D01*
X032201Y003101D01*
X032101Y003201D01*
X031860Y003201D01*
X031761Y003101D01*
X031761Y002860D01*
X031771Y002850D01*
X031771Y001224D01*
X031849Y001146D01*
X031849Y001037D02*
X027591Y001037D01*
X027591Y000938D02*
X031849Y000938D01*
X031935Y000840D02*
X027591Y000840D01*
X027591Y000741D02*
X037332Y000741D01*
X037234Y000840D02*
X032381Y000840D01*
X032467Y000938D02*
X037160Y000938D01*
X037186Y000887D02*
X037186Y000887D01*
X037110Y001037D02*
X032467Y001037D01*
X032467Y001135D02*
X037060Y001135D01*
X037010Y001234D02*
X032467Y001234D01*
X032467Y001332D02*
X036976Y001332D01*
X036984Y001284D02*
X036984Y001284D01*
X036961Y001431D02*
X032380Y001431D01*
X032191Y001529D02*
X036945Y001529D01*
X036929Y001628D02*
X032191Y001628D01*
X032191Y001726D02*
X036914Y001726D01*
X036930Y001825D02*
X032191Y001825D01*
X032191Y001923D02*
X036945Y001923D01*
X036961Y002022D02*
X032191Y002022D01*
X032191Y002120D02*
X036977Y002120D01*
X036984Y002165D02*
X036984Y002165D01*
X037011Y002219D02*
X032191Y002219D01*
X032191Y002317D02*
X037061Y002317D01*
X037111Y002416D02*
X032191Y002416D01*
X032191Y002514D02*
X037161Y002514D01*
X037186Y002562D02*
X037186Y002562D01*
X037236Y002613D02*
X032191Y002613D01*
X032191Y002711D02*
X037335Y002711D01*
X037433Y002810D02*
X036047Y002810D01*
X036161Y002908D02*
X037561Y002908D01*
X037501Y002878D02*
X037501Y002878D01*
X037754Y003007D02*
X036236Y003007D01*
X036256Y003105D02*
X038056Y003105D01*
X038339Y003150D02*
X038339Y003150D01*
X038622Y003105D02*
X039547Y003105D01*
X039547Y003007D02*
X038924Y003007D01*
X038779Y003080D02*
X038779Y003080D01*
X039117Y002908D02*
X039547Y002908D01*
X039547Y002810D02*
X039245Y002810D01*
X039177Y002878D02*
X039177Y002878D01*
X039343Y002711D02*
X039547Y002711D01*
X039547Y002613D02*
X039442Y002613D01*
X039516Y002514D02*
X039547Y002514D01*
X039547Y003204D02*
X036323Y003204D01*
X036355Y003302D02*
X039547Y003302D01*
X039547Y003401D02*
X036355Y003401D01*
X036355Y003499D02*
X039547Y003499D01*
X039547Y003598D02*
X036355Y003598D01*
X034933Y003910D02*
X034922Y007430D01*
X036418Y007433D01*
X036422Y007961D01*
X039394Y007961D01*
X039402Y003914D01*
X034933Y003910D01*
X034933Y003992D02*
X039402Y003992D01*
X039402Y004090D02*
X034933Y004090D01*
X034933Y004189D02*
X039401Y004189D01*
X039401Y004287D02*
X034932Y004287D01*
X034932Y004386D02*
X039401Y004386D01*
X039401Y004484D02*
X034932Y004484D01*
X034931Y004583D02*
X039401Y004583D01*
X039400Y004681D02*
X034931Y004681D01*
X034931Y004780D02*
X039400Y004780D01*
X039400Y004878D02*
X034930Y004878D01*
X034930Y004977D02*
X039400Y004977D01*
X039400Y005075D02*
X034930Y005075D01*
X034929Y005174D02*
X039400Y005174D01*
X039399Y005272D02*
X034929Y005272D01*
X034929Y005371D02*
X039399Y005371D01*
X039399Y005469D02*
X034928Y005469D01*
X034928Y005568D02*
X039399Y005568D01*
X039399Y005666D02*
X034928Y005666D01*
X034927Y005765D02*
X039398Y005765D01*
X039398Y005863D02*
X034927Y005863D01*
X034927Y005962D02*
X039398Y005962D01*
X039398Y006060D02*
X034926Y006060D01*
X034926Y006159D02*
X039398Y006159D01*
X039397Y006257D02*
X034926Y006257D01*
X034925Y006356D02*
X039397Y006356D01*
X039397Y006454D02*
X034925Y006454D01*
X034925Y006553D02*
X039397Y006553D01*
X039397Y006651D02*
X034924Y006651D01*
X034924Y006750D02*
X039396Y006750D01*
X039396Y006848D02*
X034924Y006848D01*
X034923Y006947D02*
X039396Y006947D01*
X039396Y007045D02*
X034923Y007045D01*
X034923Y007144D02*
X039396Y007144D01*
X039395Y007242D02*
X034922Y007242D01*
X034922Y007341D02*
X039395Y007341D01*
X039395Y007439D02*
X036418Y007439D01*
X036418Y007538D02*
X039395Y007538D01*
X039395Y007636D02*
X036419Y007636D01*
X036420Y007735D02*
X039395Y007735D01*
X039394Y007833D02*
X036421Y007833D01*
X036421Y007932D02*
X039394Y007932D01*
X039441Y008221D02*
X030999Y008221D01*
X030999Y008864D01*
X030973Y008889D01*
X030965Y010398D01*
X036779Y010398D01*
X036790Y010394D01*
X037014Y010394D01*
X037024Y010398D01*
X038194Y010398D01*
X038198Y010394D01*
X037015Y010394D01*
X036789Y010394D02*
X030965Y010394D01*
X030966Y010296D02*
X039430Y010296D01*
X039430Y010394D02*
X039149Y010394D01*
X039153Y010398D01*
X039430Y010398D01*
X039441Y008221D01*
X039441Y008227D02*
X030999Y008227D01*
X030999Y008326D02*
X039441Y008326D01*
X039440Y008424D02*
X030999Y008424D01*
X030999Y008523D02*
X039440Y008523D01*
X039439Y008621D02*
X030999Y008621D01*
X030999Y008720D02*
X039439Y008720D01*
X039438Y008818D02*
X030999Y008818D01*
X030973Y008917D02*
X039438Y008917D01*
X039437Y009015D02*
X030972Y009015D01*
X030972Y009114D02*
X039436Y009114D01*
X039436Y009212D02*
X030971Y009212D01*
X030971Y009311D02*
X039435Y009311D01*
X039435Y009409D02*
X030970Y009409D01*
X030970Y009508D02*
X039434Y009508D01*
X039434Y009606D02*
X030969Y009606D01*
X030969Y009705D02*
X039433Y009705D01*
X039433Y009803D02*
X030968Y009803D01*
X030968Y009902D02*
X039432Y009902D01*
X039432Y010000D02*
X030967Y010000D01*
X030967Y010099D02*
X039431Y010099D01*
X039431Y010197D02*
X030966Y010197D01*
X030395Y010197D02*
X028855Y010197D01*
X028855Y010099D02*
X030395Y010099D01*
X030395Y010000D02*
X028855Y010000D01*
X028887Y009902D02*
X030395Y009902D01*
X030395Y009803D02*
X028986Y009803D01*
X029084Y009705D02*
X030395Y009705D01*
X030395Y009606D02*
X029183Y009606D01*
X029281Y009508D02*
X030395Y009508D01*
X030395Y009409D02*
X029374Y009409D01*
X029406Y009311D02*
X030395Y009311D01*
X030395Y009212D02*
X029406Y009212D01*
X029406Y009114D02*
X030395Y009114D01*
X030395Y009015D02*
X029406Y009015D01*
X029406Y008917D02*
X030445Y008917D01*
X030413Y008818D02*
X029406Y008818D01*
X029406Y008720D02*
X030065Y008720D01*
X030040Y008621D02*
X029406Y008621D01*
X029406Y008523D02*
X030040Y008523D01*
X030040Y008424D02*
X029406Y008424D01*
X029406Y008326D02*
X030040Y008326D01*
X030064Y008227D02*
X029406Y008227D01*
X029406Y008129D02*
X030413Y008129D01*
X030452Y008030D02*
X029406Y008030D01*
X029406Y007932D02*
X030425Y007932D01*
X030425Y007833D02*
X029406Y007833D01*
X029406Y007735D02*
X030425Y007735D01*
X030425Y007636D02*
X029406Y007636D01*
X029406Y007538D02*
X030425Y007538D01*
X030425Y007439D02*
X029406Y007439D01*
X029406Y007341D02*
X030425Y007341D01*
X030425Y007242D02*
X029406Y007242D01*
X029406Y007144D02*
X030425Y007144D01*
X030425Y007045D02*
X029406Y007045D01*
X029406Y006947D02*
X030425Y006947D01*
X030425Y006848D02*
X029406Y006848D01*
X029406Y006750D02*
X030425Y006750D01*
X030425Y006651D02*
X029406Y006651D01*
X029406Y006553D02*
X030425Y006553D01*
X030425Y006454D02*
X029406Y006454D01*
X029406Y006356D02*
X030425Y006356D01*
X030425Y006257D02*
X029406Y006257D01*
X029406Y006159D02*
X030425Y006159D01*
X030425Y006060D02*
X029406Y006060D01*
X029406Y005962D02*
X030468Y005962D01*
X030981Y006433D02*
X031481Y006933D01*
X031481Y006981D01*
X032318Y005863D02*
X029406Y005863D01*
X029406Y005765D02*
X032318Y005765D01*
X032318Y005666D02*
X029406Y005666D01*
X029406Y005568D02*
X032318Y005568D01*
X032318Y005469D02*
X029378Y005469D01*
X029293Y005371D02*
X032318Y005371D01*
X032318Y005272D02*
X029194Y005272D01*
X029096Y005174D02*
X032318Y005174D01*
X032318Y005075D02*
X028997Y005075D01*
X028899Y004977D02*
X032318Y004977D01*
X032318Y004878D02*
X028800Y004878D01*
X028702Y004780D02*
X032318Y004780D01*
X032318Y004681D02*
X028603Y004681D01*
X028540Y004583D02*
X032318Y004583D01*
X032317Y004484D02*
X028540Y004484D01*
X028540Y004386D02*
X032318Y004386D01*
X032318Y004453D02*
X032318Y004453D01*
X032318Y004287D02*
X028540Y004287D01*
X028540Y004189D02*
X032318Y004189D01*
X032318Y004090D02*
X028540Y004090D01*
X028540Y003992D02*
X032318Y003992D01*
X032318Y003893D02*
X028540Y003893D01*
X028540Y003795D02*
X032342Y003795D01*
X032356Y003696D02*
X028613Y003696D01*
X028638Y003598D02*
X032356Y003598D01*
X032356Y003499D02*
X028638Y003499D01*
X028638Y003401D02*
X032356Y003401D01*
X032356Y003302D02*
X028638Y003302D01*
X028614Y003204D02*
X032356Y003204D01*
X032428Y003105D02*
X032197Y003105D01*
X032201Y003007D02*
X033293Y003007D01*
X033194Y003105D02*
X032998Y003105D01*
X033070Y003204D02*
X033096Y003204D01*
X033181Y003496D02*
X032713Y003496D01*
X032713Y004407D01*
X033208Y004902D01*
X033300Y004810D01*
X033300Y004638D01*
X033319Y004619D01*
X032568Y004583D02*
X034666Y004583D01*
X034666Y004516D02*
X032567Y004504D01*
X032571Y005859D01*
X034674Y005863D01*
X034666Y004516D01*
X034667Y004681D02*
X032568Y004681D01*
X032568Y004780D02*
X034667Y004780D01*
X034668Y004878D02*
X032568Y004878D01*
X032569Y004977D02*
X034668Y004977D01*
X034669Y005075D02*
X032569Y005075D01*
X032569Y005174D02*
X034670Y005174D01*
X034670Y005272D02*
X032570Y005272D01*
X032570Y005371D02*
X034671Y005371D01*
X034671Y005469D02*
X032570Y005469D01*
X032570Y005568D02*
X034672Y005568D01*
X034672Y005666D02*
X032571Y005666D01*
X032571Y005765D02*
X034673Y005765D01*
X033733Y006646D02*
X033733Y006981D01*
X033674Y007040D01*
X033626Y007040D02*
X033339Y007040D01*
X033733Y006646D01*
X030741Y008457D02*
X030731Y008467D01*
X030731Y008477D01*
X028375Y009902D02*
X027591Y009902D01*
X027591Y010000D02*
X028375Y010000D01*
X028375Y010099D02*
X027591Y010099D01*
X027591Y010197D02*
X028375Y010197D01*
X028375Y010296D02*
X027591Y010296D01*
X027591Y010394D02*
X028375Y010394D01*
X028375Y010493D02*
X027591Y010493D01*
X027591Y010591D02*
X028375Y010591D01*
X028375Y010690D02*
X027591Y010690D01*
X027591Y010788D02*
X028375Y010788D01*
X028375Y010887D02*
X027591Y010887D01*
X027591Y010985D02*
X028375Y010985D01*
X028375Y011084D02*
X027591Y011084D01*
X027591Y011182D02*
X028375Y011182D01*
X028375Y011281D02*
X027591Y011281D01*
X027591Y011379D02*
X028375Y011379D01*
X028375Y011478D02*
X027591Y011478D01*
X027591Y011576D02*
X028375Y011576D01*
X028375Y011675D02*
X027591Y011675D01*
X027591Y011773D02*
X028375Y011773D01*
X028375Y011872D02*
X027591Y011872D01*
X027591Y011970D02*
X028375Y011970D01*
X028422Y012069D02*
X027591Y012069D01*
X027591Y012167D02*
X028521Y012167D01*
X028619Y012266D02*
X027591Y012266D01*
X027591Y012364D02*
X028709Y012364D01*
X028709Y012463D02*
X027591Y012463D01*
X027591Y012561D02*
X028709Y012561D01*
X028792Y012660D02*
X027591Y012660D01*
X027591Y012758D02*
X033971Y012758D01*
X033971Y012660D02*
X029303Y012660D01*
X029386Y012561D02*
X032675Y012561D01*
X032598Y012463D02*
X029386Y012463D01*
X029386Y012364D02*
X030504Y012364D01*
X030406Y012266D02*
X029386Y012266D01*
X029386Y012167D02*
X030402Y012167D01*
X030402Y012069D02*
X029322Y012069D01*
X029002Y011970D02*
X030402Y011970D01*
X030094Y011872D02*
X028904Y011872D01*
X028855Y011773D02*
X030048Y011773D01*
X030048Y011675D02*
X028855Y011675D01*
X028855Y011576D02*
X030035Y011576D01*
X029959Y011478D02*
X028855Y011478D01*
X028855Y011379D02*
X029959Y011379D01*
X029959Y011281D02*
X028855Y011281D01*
X028855Y011182D02*
X029959Y011182D01*
X029959Y011084D02*
X028855Y011084D01*
X028855Y010985D02*
X030057Y010985D01*
X030395Y010887D02*
X028855Y010887D01*
X028855Y010788D02*
X030395Y010788D01*
X030395Y010690D02*
X028855Y010690D01*
X028855Y010591D02*
X030395Y010591D01*
X030395Y010493D02*
X028855Y010493D01*
X028855Y010394D02*
X030395Y010394D01*
X030395Y010296D02*
X028855Y010296D01*
X027943Y009803D02*
X027591Y009803D01*
X027591Y009705D02*
X027845Y009705D01*
X027843Y009606D02*
X027591Y009606D01*
X027591Y009508D02*
X027843Y009508D01*
X027843Y009409D02*
X027591Y009409D01*
X027591Y009311D02*
X027843Y009311D01*
X027890Y009212D02*
X027591Y009212D01*
X027315Y009311D02*
X026446Y009311D01*
X025980Y009311D02*
X025735Y009311D01*
X025735Y009409D02*
X027315Y009409D01*
X027315Y009508D02*
X025735Y009508D01*
X025722Y009606D02*
X027315Y009606D01*
X027315Y009705D02*
X025662Y009705D01*
X025564Y009803D02*
X027315Y009803D01*
X027315Y009902D02*
X025465Y009902D01*
X025367Y010000D02*
X027315Y010000D01*
X025882Y009212D02*
X025735Y009212D01*
X025735Y009114D02*
X025864Y009114D01*
X025864Y009015D02*
X025735Y009015D01*
X025735Y008917D02*
X025864Y008917D01*
X025864Y008818D02*
X025735Y008818D01*
X025735Y008720D02*
X025864Y008720D01*
X025864Y008621D02*
X025735Y008621D01*
X025735Y008523D02*
X025864Y008523D01*
X025864Y008424D02*
X025735Y008424D01*
X025735Y008326D02*
X025864Y008326D01*
X025864Y008227D02*
X025735Y008227D01*
X025735Y008129D02*
X025864Y008129D01*
X025864Y008030D02*
X025735Y008030D01*
X025735Y007932D02*
X025864Y007932D01*
X025864Y007833D02*
X025735Y007833D01*
X025735Y007735D02*
X025864Y007735D01*
X025864Y007636D02*
X025735Y007636D01*
X025735Y007538D02*
X025802Y007538D01*
X023162Y007453D02*
X023162Y007256D01*
X023192Y009508D02*
X025096Y009508D01*
X026331Y012315D02*
X026331Y016587D01*
X024599Y018319D01*
X027591Y018274D02*
X034449Y018274D01*
X034449Y018278D02*
X034449Y018046D01*
X034537Y017831D01*
X034701Y017667D01*
X034916Y017578D01*
X035148Y017578D01*
X035362Y017667D01*
X035526Y017831D01*
X035615Y018046D01*
X035615Y018278D01*
X035526Y018492D01*
X035362Y018656D01*
X035148Y018745D01*
X034916Y018745D01*
X034701Y018656D01*
X034537Y018492D01*
X034449Y018278D01*
X034488Y018373D02*
X027591Y018373D01*
X027591Y018471D02*
X034529Y018471D01*
X034615Y018570D02*
X027591Y018570D01*
X027591Y018668D02*
X034730Y018668D01*
X035334Y018668D02*
X037585Y018668D01*
X037501Y018626D02*
X037501Y018626D01*
X037501Y018626D01*
X037445Y018570D02*
X035449Y018570D01*
X035535Y018471D02*
X037347Y018471D01*
X037248Y018373D02*
X035576Y018373D01*
X035615Y018274D02*
X037168Y018274D01*
X037117Y018176D02*
X035615Y018176D01*
X035615Y018077D02*
X037067Y018077D01*
X037017Y017979D02*
X035587Y017979D01*
X035547Y017880D02*
X036978Y017880D01*
X036963Y017782D02*
X035477Y017782D01*
X035378Y017683D02*
X036947Y017683D01*
X036932Y017585D02*
X035163Y017585D01*
X034901Y017585D02*
X027591Y017585D01*
X027591Y017683D02*
X034686Y017683D01*
X034587Y017782D02*
X027591Y017782D01*
X027591Y017880D02*
X034517Y017880D01*
X034476Y017979D02*
X027591Y017979D01*
X027591Y018077D02*
X034449Y018077D01*
X034449Y018176D02*
X027591Y018176D01*
X027591Y018767D02*
X037778Y018767D01*
X036916Y017486D02*
X027591Y017486D01*
X027591Y017388D02*
X036927Y017388D01*
X036943Y017289D02*
X027591Y017289D01*
X027591Y017191D02*
X036959Y017191D01*
X036974Y017092D02*
X027591Y017092D01*
X027591Y016994D02*
X037004Y016994D01*
X037054Y016895D02*
X027591Y016895D01*
X027591Y016797D02*
X037104Y016797D01*
X037154Y016698D02*
X027591Y016698D01*
X027591Y016600D02*
X037222Y016600D01*
X037186Y016635D02*
X037186Y016635D01*
X037320Y016501D02*
X033685Y016501D01*
X033709Y016491D02*
X033494Y016580D01*
X033262Y016580D01*
X033048Y016491D01*
X032884Y016327D01*
X032795Y016112D01*
X032795Y015880D01*
X032884Y015666D01*
X033048Y015502D01*
X033262Y015413D01*
X033494Y015413D01*
X033709Y015502D01*
X033873Y015666D01*
X033962Y015880D01*
X033962Y016112D01*
X033873Y016327D01*
X033709Y016491D01*
X033797Y016403D02*
X037419Y016403D01*
X037533Y016304D02*
X033882Y016304D01*
X033923Y016206D02*
X037726Y016206D01*
X037899Y016118D02*
X037899Y016118D01*
X037965Y016107D02*
X033962Y016107D01*
X033962Y016009D02*
X039547Y016009D01*
X039547Y016107D02*
X038713Y016107D01*
X038779Y016118D02*
X038779Y016118D01*
X038952Y016206D02*
X039547Y016206D01*
X039547Y016304D02*
X039145Y016304D01*
X039177Y016320D02*
X039177Y016320D01*
X039259Y016403D02*
X039547Y016403D01*
X039547Y016501D02*
X039358Y016501D01*
X039456Y016600D02*
X039547Y016600D01*
X039547Y016698D02*
X039524Y016698D01*
X038339Y016048D02*
X038339Y016048D01*
X039547Y015910D02*
X033962Y015910D01*
X033933Y015812D02*
X039547Y015812D01*
X039547Y015713D02*
X033892Y015713D01*
X033821Y015615D02*
X035954Y015615D01*
X035855Y015516D02*
X033723Y015516D01*
X033505Y015418D02*
X035848Y015418D01*
X035848Y015319D02*
X035463Y015319D01*
X035489Y015221D02*
X035848Y015221D01*
X036083Y015067D02*
X036083Y014483D01*
X035977Y014589D01*
X035977Y014717D01*
X035741Y014953D01*
X035685Y014953D01*
X036083Y015067D02*
X036205Y015189D01*
X036563Y015221D02*
X039547Y015221D01*
X039547Y015319D02*
X036563Y015319D01*
X036563Y015418D02*
X039547Y015418D01*
X039547Y015516D02*
X036555Y015516D01*
X036456Y015615D02*
X039547Y015615D01*
X039547Y015122D02*
X036563Y015122D01*
X036563Y015024D02*
X039547Y015024D01*
X039547Y014925D02*
X036572Y014925D01*
X036670Y014827D02*
X039547Y014827D01*
X039471Y014774D02*
X039471Y014774D01*
X039422Y014524D02*
X039410Y010622D01*
X034831Y010626D01*
X034831Y011965D01*
X036709Y011965D01*
X036705Y014516D01*
X039422Y014524D01*
X039421Y014433D02*
X036705Y014433D01*
X036705Y014334D02*
X039421Y014334D01*
X039421Y014236D02*
X036706Y014236D01*
X036706Y014137D02*
X039420Y014137D01*
X039420Y014039D02*
X036706Y014039D01*
X036706Y013940D02*
X039420Y013940D01*
X039420Y013842D02*
X036706Y013842D01*
X036706Y013743D02*
X039419Y013743D01*
X039419Y013645D02*
X036706Y013645D01*
X036707Y013546D02*
X039419Y013546D01*
X039418Y013448D02*
X036707Y013448D01*
X036707Y013349D02*
X039418Y013349D01*
X039418Y013251D02*
X036707Y013251D01*
X036707Y013152D02*
X039418Y013152D01*
X039417Y013054D02*
X036707Y013054D01*
X036708Y012955D02*
X039417Y012955D01*
X039417Y012857D02*
X036708Y012857D01*
X036708Y012758D02*
X039416Y012758D01*
X039416Y012660D02*
X036708Y012660D01*
X036708Y012561D02*
X039416Y012561D01*
X039415Y012463D02*
X036708Y012463D01*
X036708Y012364D02*
X039415Y012364D01*
X039415Y012266D02*
X036709Y012266D01*
X036709Y012167D02*
X039415Y012167D01*
X039414Y012069D02*
X036709Y012069D01*
X036709Y011970D02*
X039414Y011970D01*
X039414Y011872D02*
X034831Y011872D01*
X034831Y011773D02*
X039413Y011773D01*
X039413Y011675D02*
X034831Y011675D01*
X034831Y011576D02*
X039413Y011576D01*
X039412Y011478D02*
X034831Y011478D01*
X034831Y011379D02*
X039412Y011379D01*
X039412Y011281D02*
X034831Y011281D01*
X034831Y011182D02*
X039412Y011182D01*
X039411Y011084D02*
X034831Y011084D01*
X034831Y010985D02*
X039411Y010985D01*
X039411Y010887D02*
X034831Y010887D01*
X034831Y010788D02*
X039410Y010788D01*
X039410Y010690D02*
X034831Y010690D01*
X033674Y011528D02*
X033626Y011528D01*
X032598Y011576D02*
X031049Y011576D01*
X031049Y011478D02*
X032598Y011478D01*
X032598Y011379D02*
X031049Y011379D01*
X031049Y011281D02*
X032598Y011281D01*
X032598Y011182D02*
X031049Y011182D01*
X031049Y011675D02*
X032598Y011675D01*
X032598Y011773D02*
X031049Y011773D01*
X031079Y011872D02*
X032598Y011872D01*
X032598Y011970D02*
X031079Y011970D01*
X031079Y012069D02*
X032598Y012069D01*
X032598Y012167D02*
X031079Y012167D01*
X031075Y012266D02*
X032598Y012266D01*
X032598Y012364D02*
X030977Y012364D01*
X030339Y013131D02*
X029858Y013131D01*
X029741Y013248D01*
X029741Y013886D01*
X029775Y013920D01*
X029737Y013957D01*
X029737Y014316D01*
X029714Y014292D01*
X029714Y013969D01*
X029614Y013870D01*
X029158Y013870D01*
X029059Y013969D01*
X029059Y014583D01*
X029158Y014682D01*
X029360Y014682D01*
X029360Y015542D01*
X029185Y015542D01*
X029085Y015641D01*
X029085Y016432D01*
X029185Y016532D01*
X029976Y016532D01*
X030075Y016432D01*
X030075Y015641D01*
X029976Y015542D01*
X029800Y015542D01*
X029800Y014658D01*
X029855Y014712D01*
X030335Y014712D01*
X030452Y014595D01*
X030452Y013957D01*
X030419Y013924D01*
X030456Y013886D01*
X030456Y013248D01*
X030339Y013131D01*
X030360Y013152D02*
X033971Y013152D01*
X033971Y013054D02*
X027591Y013054D01*
X027591Y013152D02*
X029838Y013152D01*
X029741Y013251D02*
X027591Y013251D01*
X027591Y013349D02*
X029741Y013349D01*
X029741Y013448D02*
X027591Y013448D01*
X027591Y013546D02*
X029741Y013546D01*
X029741Y013645D02*
X027591Y013645D01*
X027591Y013743D02*
X029741Y013743D01*
X029741Y013842D02*
X027591Y013842D01*
X027591Y013940D02*
X029088Y013940D01*
X029059Y014039D02*
X027591Y014039D01*
X027591Y014137D02*
X029059Y014137D01*
X029059Y014236D02*
X027591Y014236D01*
X027591Y014334D02*
X029059Y014334D01*
X029059Y014433D02*
X027591Y014433D01*
X027591Y014531D02*
X029059Y014531D01*
X029106Y014630D02*
X027591Y014630D01*
X027591Y014728D02*
X029360Y014728D01*
X029360Y014827D02*
X027591Y014827D01*
X027591Y014925D02*
X029360Y014925D01*
X029360Y015024D02*
X027591Y015024D01*
X027591Y015122D02*
X029360Y015122D01*
X029360Y015221D02*
X027591Y015221D01*
X027591Y015319D02*
X029360Y015319D01*
X029360Y015418D02*
X027591Y015418D01*
X027591Y015516D02*
X029360Y015516D01*
X029112Y015615D02*
X027591Y015615D01*
X027591Y015713D02*
X029085Y015713D01*
X029085Y015812D02*
X027591Y015812D01*
X027591Y015910D02*
X029085Y015910D01*
X029085Y016009D02*
X027591Y016009D01*
X027591Y016107D02*
X029085Y016107D01*
X029085Y016206D02*
X027591Y016206D01*
X027591Y016304D02*
X029085Y016304D01*
X029085Y016403D02*
X027591Y016403D01*
X027591Y016501D02*
X029155Y016501D01*
X029580Y016037D02*
X029580Y014470D01*
X029386Y014276D01*
X029714Y014236D02*
X029737Y014236D01*
X029737Y014137D02*
X029714Y014137D01*
X029714Y014039D02*
X029737Y014039D01*
X029754Y013940D02*
X029684Y013940D01*
X030095Y014276D02*
X030095Y013571D01*
X030099Y013567D01*
X030456Y013546D02*
X033971Y013546D01*
X033971Y013448D02*
X030456Y013448D01*
X030456Y013349D02*
X033971Y013349D01*
X033971Y013251D02*
X030456Y013251D01*
X030456Y013645D02*
X033971Y013645D01*
X033971Y013743D02*
X030456Y013743D01*
X030456Y013842D02*
X033971Y013842D01*
X033971Y013940D02*
X030435Y013940D01*
X030452Y014039D02*
X033971Y014039D01*
X033971Y014137D02*
X030452Y014137D01*
X030452Y014236D02*
X033971Y014236D01*
X033971Y014334D02*
X030452Y014334D01*
X030452Y014433D02*
X033971Y014433D01*
X033971Y014531D02*
X030452Y014531D01*
X030418Y014630D02*
X033971Y014630D01*
X033971Y014728D02*
X029800Y014728D01*
X029800Y014827D02*
X031491Y014827D01*
X031516Y014802D02*
X031934Y014802D01*
X032023Y014891D01*
X032121Y014891D01*
X032220Y014990D01*
X032220Y015231D01*
X032121Y015331D01*
X032023Y015331D01*
X031934Y015419D01*
X031516Y015419D01*
X031416Y015320D01*
X031416Y014901D01*
X031516Y014802D01*
X031416Y014925D02*
X029800Y014925D01*
X029800Y015024D02*
X031416Y015024D01*
X031416Y015122D02*
X029800Y015122D01*
X029800Y015221D02*
X031416Y015221D01*
X031416Y015319D02*
X029800Y015319D01*
X029800Y015418D02*
X031514Y015418D01*
X031936Y015418D02*
X033252Y015418D01*
X033034Y015516D02*
X029800Y015516D01*
X030049Y015615D02*
X032935Y015615D01*
X032864Y015713D02*
X030075Y015713D01*
X030075Y015812D02*
X032823Y015812D01*
X032795Y015910D02*
X030075Y015910D01*
X030075Y016009D02*
X032795Y016009D01*
X032795Y016107D02*
X030075Y016107D01*
X030075Y016206D02*
X032834Y016206D01*
X032874Y016304D02*
X030075Y016304D01*
X030075Y016403D02*
X032959Y016403D01*
X033072Y016501D02*
X030006Y016501D01*
X032132Y015319D02*
X034129Y015319D01*
X034103Y015221D02*
X032220Y015221D01*
X032220Y015122D02*
X034103Y015122D01*
X034103Y015024D02*
X032220Y015024D01*
X032237Y015111D02*
X032079Y015111D01*
X032155Y014925D02*
X034103Y014925D01*
X033994Y014827D02*
X031959Y014827D01*
X034225Y014701D02*
X034225Y013339D01*
X036449Y013335D01*
X036449Y014705D01*
X034225Y014701D01*
X034225Y014630D02*
X036449Y014630D01*
X036449Y014531D02*
X034225Y014531D01*
X034225Y014433D02*
X036449Y014433D01*
X036449Y014334D02*
X034225Y014334D01*
X034225Y014236D02*
X036449Y014236D01*
X036449Y014137D02*
X034225Y014137D01*
X034225Y014039D02*
X036449Y014039D01*
X036449Y013940D02*
X034225Y013940D01*
X034225Y013842D02*
X036449Y013842D01*
X036449Y013743D02*
X034225Y013743D01*
X034225Y013645D02*
X036449Y013645D01*
X036449Y013546D02*
X034225Y013546D01*
X034225Y013448D02*
X036449Y013448D01*
X036449Y013349D02*
X034225Y013349D01*
X033971Y012955D02*
X027591Y012955D01*
X027591Y012857D02*
X033971Y012857D01*
X034861Y013721D02*
X034815Y013767D01*
X034780Y015024D02*
X034811Y015024D01*
X034811Y015122D02*
X034780Y015122D01*
X034780Y015221D02*
X034811Y015221D01*
X034837Y015319D02*
X034754Y015319D01*
X032598Y011084D02*
X032468Y011084D01*
X032566Y010985D02*
X032598Y010985D01*
X032598Y010887D02*
X032567Y010887D01*
X032567Y010788D02*
X032598Y010788D01*
X032598Y010690D02*
X032567Y010690D01*
X038198Y010394D02*
X039149Y010394D01*
X039544Y003702D02*
X039544Y003702D01*
X039544Y003702D01*
X039547Y003696D02*
X039529Y003696D01*
X039353Y003664D02*
X039353Y003664D01*
X037431Y000643D02*
X027591Y000643D01*
X027591Y000544D02*
X037556Y000544D01*
X037750Y000446D02*
X027591Y000446D01*
X027591Y000347D02*
X038041Y000347D01*
X037899Y000370D02*
X037899Y000370D01*
X033505Y002810D02*
X032191Y002810D01*
X032201Y002908D02*
X033391Y002908D01*
X033378Y003496D02*
X033181Y003496D01*
X031765Y003105D02*
X028195Y003105D01*
X028195Y003007D02*
X031761Y003007D01*
X031761Y002908D02*
X028195Y002908D01*
X028195Y002810D02*
X031771Y002810D01*
X031771Y002711D02*
X028195Y002711D01*
X028195Y002613D02*
X031771Y002613D01*
X031771Y002514D02*
X028195Y002514D01*
X028195Y002416D02*
X031771Y002416D01*
X031771Y002317D02*
X028165Y002317D01*
X028067Y002219D02*
X031771Y002219D01*
X031771Y002120D02*
X027968Y002120D01*
X027870Y002022D02*
X031771Y002022D01*
X022828Y002022D02*
X016095Y002022D01*
X015819Y001726D02*
X009447Y001726D01*
X009517Y001628D02*
X015819Y001628D01*
X015819Y001529D02*
X009558Y001529D01*
X009566Y001431D02*
X015819Y001431D01*
X015819Y001332D02*
X009565Y001332D01*
X009525Y001234D02*
X015819Y001234D01*
X015819Y001135D02*
X009464Y001135D01*
X009357Y001037D02*
X015819Y001037D01*
X015819Y000938D02*
X002904Y000938D01*
X002830Y000840D02*
X015819Y000840D01*
X015819Y000741D02*
X002731Y000741D01*
X002633Y000643D02*
X015819Y000643D01*
X015819Y000544D02*
X002508Y000544D01*
X002314Y000446D02*
X015819Y000446D01*
X015819Y000347D02*
X002023Y000347D01*
X002165Y000370D02*
X002165Y000370D01*
X000331Y001923D02*
X000320Y001923D01*
X000320Y002022D02*
X000347Y002022D01*
X000362Y002120D02*
X000320Y002120D01*
X000370Y002165D02*
X000370Y002165D01*
X000397Y002219D02*
X000320Y002219D01*
X000320Y002317D02*
X000447Y002317D01*
X000497Y002416D02*
X000320Y002416D01*
X000320Y002514D02*
X000547Y002514D01*
X000572Y002562D02*
X000572Y002562D01*
X000622Y002613D02*
X000320Y002613D01*
X000320Y002711D02*
X000721Y002711D01*
X000819Y002810D02*
X000320Y002810D01*
X000320Y002908D02*
X000947Y002908D01*
X000887Y002878D02*
X000887Y002878D01*
X001140Y003007D02*
X000320Y003007D01*
X000320Y003105D02*
X001442Y003105D01*
X001284Y003080D02*
X001284Y003080D01*
X001258Y005371D02*
X000320Y005371D01*
X000320Y005469D02*
X001159Y005469D01*
X001149Y005568D02*
X000320Y005568D01*
X000320Y005666D02*
X001149Y005666D01*
X001149Y005765D02*
X000320Y005765D01*
X000320Y005863D02*
X001149Y005863D01*
X001149Y005962D02*
X000320Y005962D01*
X000320Y006060D02*
X001149Y006060D01*
X001149Y006159D02*
X000320Y006159D01*
X000320Y006257D02*
X001247Y006257D01*
X007467Y006257D02*
X008125Y006257D01*
X008027Y006159D02*
X007467Y006159D01*
X007467Y006060D02*
X007928Y006060D01*
X007898Y006029D02*
X008541Y006672D01*
X007467Y006672D01*
X007467Y006029D01*
X007898Y006029D01*
X008224Y006356D02*
X007467Y006356D01*
X007467Y006454D02*
X008322Y006454D01*
X008421Y006553D02*
X007467Y006553D01*
X007467Y006651D02*
X008519Y006651D01*
X009576Y005666D02*
X010047Y005666D01*
X010047Y005568D02*
X009576Y005568D01*
X009576Y005469D02*
X010058Y005469D01*
X010157Y005371D02*
X009576Y005371D01*
X009576Y005272D02*
X011200Y005272D01*
X011298Y005174D02*
X009576Y005174D01*
X009576Y005075D02*
X011397Y005075D01*
X011495Y004977D02*
X009536Y004977D01*
X010616Y005371D02*
X011101Y005371D01*
X011003Y005469D02*
X010714Y005469D01*
X010725Y005568D02*
X010904Y005568D01*
X010806Y005666D02*
X010725Y005666D01*
X006631Y002613D02*
X006606Y002613D01*
X006564Y002514D02*
X006673Y002514D01*
X006671Y002416D02*
X006566Y002416D01*
X006559Y002317D02*
X006678Y002317D01*
X006719Y002219D02*
X006518Y002219D01*
X006449Y002120D02*
X006788Y002120D01*
X006916Y002022D02*
X006321Y002022D01*
X006314Y001825D02*
X006923Y001825D01*
X006790Y001726D02*
X006447Y001726D01*
X006517Y001628D02*
X006720Y001628D01*
X006679Y001529D02*
X006558Y001529D01*
X006566Y001431D02*
X006671Y001431D01*
X006672Y001332D02*
X006565Y001332D01*
X006525Y001234D02*
X006712Y001234D01*
X006773Y001135D02*
X006464Y001135D01*
X006357Y001037D02*
X006880Y001037D01*
X013467Y010887D02*
X015819Y010887D01*
X015819Y010985D02*
X013549Y010985D01*
X013549Y011084D02*
X015819Y011084D01*
X015819Y011182D02*
X013549Y011182D01*
X013549Y011281D02*
X015819Y011281D01*
X015819Y011379D02*
X013549Y011379D01*
X013549Y011478D02*
X015819Y011478D01*
X015819Y011576D02*
X013549Y011576D01*
X013549Y011675D02*
X015819Y011675D01*
X015819Y011773D02*
X013549Y011773D01*
X013549Y011872D02*
X015819Y011872D01*
X015819Y011970D02*
X013549Y011970D01*
X013549Y012069D02*
X015819Y012069D01*
X015819Y012167D02*
X013549Y012167D01*
X013549Y012266D02*
X015819Y012266D01*
X015819Y012364D02*
X013549Y012364D01*
X013549Y012463D02*
X015819Y012463D01*
X015819Y012561D02*
X013549Y012561D01*
X013549Y012660D02*
X013822Y012660D01*
X013726Y012758D02*
X013691Y012758D01*
X013702Y012857D02*
X013726Y012857D01*
X013726Y012955D02*
X013702Y012955D01*
X013702Y013054D02*
X013726Y013054D01*
X013726Y013152D02*
X013702Y013152D01*
X013702Y013251D02*
X013726Y013251D01*
X014387Y013448D02*
X015819Y013448D01*
X015819Y013546D02*
X013875Y013546D01*
X013875Y013645D02*
X015819Y013645D01*
X015819Y013743D02*
X013875Y013743D01*
X013875Y013842D02*
X015819Y013842D01*
X015819Y013940D02*
X013785Y013940D01*
X014834Y013349D02*
X015819Y013349D01*
X015819Y013251D02*
X014898Y013251D01*
X014898Y013152D02*
X015819Y013152D01*
X015819Y013054D02*
X014898Y013054D01*
X014898Y012955D02*
X015819Y012955D01*
X015819Y012857D02*
X014898Y012857D01*
X014814Y012758D02*
X015819Y012758D01*
X015819Y012660D02*
X014344Y012660D01*
X010622Y013890D02*
X010622Y014343D01*
X010307Y014343D02*
X010286Y014321D01*
X010286Y011769D01*
X010096Y011769D02*
X010096Y013787D01*
X009993Y013890D01*
X009993Y014343D01*
X009678Y014343D02*
X009678Y013851D01*
X009914Y013615D01*
X009914Y011788D01*
X010486Y011769D02*
X010486Y013753D01*
X010622Y013890D01*
X008306Y014039D02*
X008285Y014039D01*
X008306Y013546D02*
X008230Y013546D01*
X006851Y014630D02*
X006370Y014630D01*
X006370Y014728D02*
X006851Y014728D01*
X006851Y014827D02*
X006370Y014827D01*
X006370Y014925D02*
X006851Y014925D01*
X006851Y015024D02*
X006313Y015024D01*
X006753Y015122D02*
X004966Y015122D01*
X004966Y015221D02*
X006753Y015221D01*
X006753Y015319D02*
X004966Y015319D01*
X004910Y015024D02*
X005307Y015024D01*
X005250Y014925D02*
X004110Y014925D01*
X004187Y015024D02*
X004367Y015024D01*
X004311Y015122D02*
X004228Y015122D01*
X003953Y014827D02*
X005250Y014827D01*
X005250Y014728D02*
X003381Y014728D01*
X003425Y014630D02*
X005250Y014630D01*
X005315Y014531D02*
X003451Y014531D01*
X003283Y014827D02*
X003669Y014827D01*
X003513Y014925D02*
X002992Y014925D01*
X003091Y015024D02*
X003435Y015024D01*
X003395Y015122D02*
X003189Y015122D01*
X011406Y015418D02*
X015819Y015418D01*
X015819Y015516D02*
X011422Y015516D01*
X011422Y015615D02*
X015819Y015615D01*
X015819Y015713D02*
X011422Y015713D01*
X011422Y015812D02*
X015819Y015812D01*
X015819Y015910D02*
X011402Y015910D01*
X013383Y016600D02*
X015819Y016600D01*
X015819Y016698D02*
X013471Y016698D01*
X013512Y016797D02*
X015819Y016797D01*
X015819Y016895D02*
X013529Y016895D01*
X013529Y016994D02*
X015819Y016994D01*
X015819Y017092D02*
X013493Y017092D01*
X013436Y017191D02*
X015819Y017191D01*
X015819Y017289D02*
X015052Y017289D01*
X015105Y017388D02*
X015819Y017388D01*
X015819Y017486D02*
X015105Y017486D01*
X015105Y017585D02*
X015819Y017585D01*
X015819Y017683D02*
X015105Y017683D01*
X015105Y017782D02*
X015819Y017782D01*
X015819Y017880D02*
X015105Y017880D01*
X015105Y017979D02*
X015819Y017979D01*
X015819Y018077D02*
X015026Y018077D01*
X014303Y017289D02*
X014156Y017289D01*
X013624Y017289D02*
X013329Y017289D01*
D53*
X016804Y015189D03*
X017119Y015189D03*
X018339Y014087D03*
X018221Y012867D03*
X017945Y012867D03*
X017670Y012867D03*
X017394Y012867D03*
X019953Y012512D03*
X021016Y013457D03*
X021016Y015307D03*
X020741Y015307D03*
X020741Y015583D03*
X021016Y015583D03*
X021292Y015583D03*
X021292Y015307D03*
X018654Y016292D03*
X017473Y017331D03*
X017473Y017607D03*
X018890Y017788D03*
X020111Y018300D03*
X021685Y018300D03*
X028300Y018260D03*
X028890Y018260D03*
X028890Y017670D03*
X028300Y017670D03*
X030662Y017670D03*
X031252Y017670D03*
X031252Y018260D03*
X030662Y018260D03*
X031725Y015111D03*
X034441Y015071D03*
X035150Y015071D03*
X037945Y015307D03*
X038536Y015307D03*
X039126Y015307D03*
X039126Y015898D03*
X038536Y015898D03*
X037945Y015898D03*
X038851Y014323D03*
X038851Y014048D03*
X039126Y014048D03*
X039126Y014323D03*
X039126Y013772D03*
X038851Y013772D03*
X038851Y013496D03*
X038851Y013221D03*
X039126Y013221D03*
X039126Y013496D03*
X039126Y012945D03*
X038851Y012945D03*
X038851Y012670D03*
X039126Y012670D03*
X039126Y012394D03*
X038851Y012394D03*
X038851Y012119D03*
X039126Y012119D03*
X038575Y012119D03*
X038575Y012394D03*
X038300Y012394D03*
X038300Y012119D03*
X038024Y012119D03*
X038024Y012394D03*
X037748Y012394D03*
X037473Y012394D03*
X037473Y012119D03*
X037748Y012119D03*
X037748Y011843D03*
X037473Y011843D03*
X037473Y011567D03*
X037748Y011567D03*
X038024Y011843D03*
X037197Y011843D03*
X036922Y011843D03*
X036922Y012119D03*
X036922Y012394D03*
X037197Y012394D03*
X037197Y012119D03*
X036646Y011843D03*
X036370Y011843D03*
X036095Y011843D03*
X036095Y011567D03*
X036370Y011567D03*
X035819Y011567D03*
X035819Y011843D03*
X035780Y012276D03*
X036252Y012276D03*
X036095Y011292D03*
X035819Y011292D03*
X035819Y011016D03*
X035819Y010741D03*
X036095Y010741D03*
X036095Y011016D03*
X035969Y010142D03*
X035969Y009867D03*
X036244Y009867D03*
X036244Y010142D03*
X036520Y010142D03*
X036796Y010142D03*
X037071Y010142D03*
X037347Y010142D03*
X037622Y010142D03*
X037622Y009867D03*
X037898Y009867D03*
X037898Y010142D03*
X037898Y009591D03*
X037622Y009591D03*
X037622Y009315D03*
X037622Y009040D03*
X037622Y008764D03*
X037622Y008489D03*
X037347Y008489D03*
X037071Y008489D03*
X036796Y008489D03*
X036520Y008489D03*
X036244Y008489D03*
X035969Y008489D03*
X035969Y008764D03*
X036244Y008764D03*
X036244Y009040D03*
X035969Y009040D03*
X035969Y009315D03*
X036244Y009315D03*
X035693Y009315D03*
X035693Y009040D03*
X035418Y009040D03*
X035418Y009315D03*
X035142Y009315D03*
X035142Y009040D03*
X034867Y009040D03*
X034867Y009315D03*
X034591Y009315D03*
X034591Y009040D03*
X034315Y009040D03*
X034040Y009040D03*
X034040Y009315D03*
X034315Y009315D03*
X033764Y009315D03*
X033764Y009040D03*
X033489Y009040D03*
X033489Y009315D03*
X033213Y009315D03*
X033213Y009040D03*
X032937Y009040D03*
X032937Y009315D03*
X032937Y009591D03*
X032937Y009867D03*
X032937Y010142D03*
X033213Y010142D03*
X033213Y009867D03*
X033489Y009867D03*
X033489Y010142D03*
X033764Y010142D03*
X033764Y009867D03*
X034040Y009867D03*
X034040Y010142D03*
X034315Y010142D03*
X034315Y009867D03*
X034591Y009867D03*
X034591Y010142D03*
X034867Y010142D03*
X035142Y010142D03*
X035142Y009867D03*
X034867Y009867D03*
X034867Y009591D03*
X035142Y009591D03*
X035418Y009591D03*
X035693Y009591D03*
X035693Y009867D03*
X035693Y010142D03*
X035418Y010142D03*
X035418Y009867D03*
X035969Y009591D03*
X036244Y009591D03*
X035693Y008764D03*
X035418Y008764D03*
X035418Y008489D03*
X035693Y008489D03*
X035142Y008489D03*
X035142Y008764D03*
X034867Y008764D03*
X034867Y008489D03*
X034591Y008489D03*
X034591Y008764D03*
X034315Y008764D03*
X034040Y008764D03*
X034040Y008489D03*
X034315Y008489D03*
X033764Y008489D03*
X033764Y008764D03*
X033489Y008764D03*
X033489Y008489D03*
X033213Y008489D03*
X033213Y008764D03*
X032937Y008764D03*
X032937Y008489D03*
X033213Y009591D03*
X033489Y009591D03*
X033764Y009591D03*
X034040Y009591D03*
X034315Y009591D03*
X034591Y009591D03*
X035859Y007788D03*
X035859Y007162D03*
X036134Y007162D03*
X036134Y006886D03*
X035859Y006886D03*
X035859Y006611D03*
X036134Y006611D03*
X036410Y006611D03*
X036685Y006611D03*
X036685Y006335D03*
X036410Y006335D03*
X036410Y006059D03*
X036685Y006059D03*
X036961Y006059D03*
X037237Y006059D03*
X037237Y005784D03*
X037512Y005784D03*
X037512Y006059D03*
X037788Y006059D03*
X037788Y005784D03*
X038063Y005784D03*
X038063Y006059D03*
X038339Y006059D03*
X038339Y005784D03*
X038615Y005784D03*
X038890Y005784D03*
X038890Y006059D03*
X038615Y006059D03*
X038615Y006335D03*
X038890Y006335D03*
X038890Y006611D03*
X038615Y006611D03*
X038339Y006611D03*
X038063Y006611D03*
X037788Y006611D03*
X037512Y006611D03*
X037237Y006611D03*
X037237Y006335D03*
X037512Y006335D03*
X037788Y006335D03*
X038063Y006335D03*
X038339Y006335D03*
X039166Y006335D03*
X039166Y006059D03*
X039166Y005784D03*
X039166Y005508D03*
X039166Y005233D03*
X038890Y005233D03*
X038890Y005508D03*
X038615Y005508D03*
X038615Y005233D03*
X038615Y004957D03*
X038890Y004957D03*
X038890Y004681D03*
X038615Y004681D03*
X038339Y004681D03*
X038063Y004681D03*
X037788Y004681D03*
X037512Y004681D03*
X037237Y004681D03*
X037237Y004957D03*
X037512Y004957D03*
X037512Y005233D03*
X037512Y005508D03*
X037237Y005508D03*
X037237Y005233D03*
X037788Y005233D03*
X037788Y005508D03*
X038063Y005508D03*
X038063Y005233D03*
X038063Y004957D03*
X037788Y004957D03*
X038339Y004957D03*
X038339Y005233D03*
X038339Y005508D03*
X039166Y004957D03*
X039166Y004681D03*
X039166Y004406D03*
X038890Y004406D03*
X038615Y004406D03*
X038339Y004406D03*
X038063Y004406D03*
X037788Y004406D03*
X037512Y004406D03*
X037237Y004406D03*
X036016Y003457D03*
X035583Y003457D03*
X034520Y003457D03*
X034126Y003457D03*
X033733Y003457D03*
X033260Y001134D03*
X034244Y001134D03*
X035268Y001134D03*
X032158Y001134D03*
X031174Y001134D03*
X030111Y001134D03*
X029048Y001134D03*
X029048Y002433D03*
X028457Y002433D03*
X028457Y002906D03*
X029048Y002906D03*
X028300Y003449D03*
X027430Y003449D03*
X026922Y002945D03*
X026449Y002945D03*
X026449Y002512D03*
X026449Y002079D03*
X026922Y002079D03*
X026449Y001666D03*
X026449Y001252D03*
X026449Y000741D03*
X024441Y000898D03*
X023654Y000898D03*
X022867Y000898D03*
X022079Y000898D03*
X021292Y000898D03*
X020504Y000898D03*
X020504Y001685D03*
X021292Y001685D03*
X022079Y001685D03*
X022079Y002473D03*
X021292Y002473D03*
X021292Y003260D03*
X022079Y003260D03*
X023181Y002827D03*
X024441Y001685D03*
X022079Y004048D03*
X021292Y004048D03*
X021449Y004756D03*
X021764Y004756D03*
X022079Y004756D03*
X022079Y005071D03*
X021764Y005071D03*
X021449Y005071D03*
X021449Y005386D03*
X021764Y005386D03*
X022079Y005386D03*
X022079Y005701D03*
X021764Y005701D03*
X021449Y005701D03*
X021449Y006016D03*
X021764Y006016D03*
X022079Y006016D03*
X022079Y006804D03*
X021292Y006804D03*
X021292Y007591D03*
X022079Y007591D03*
X022079Y008378D03*
X021292Y008378D03*
X021292Y009166D03*
X022079Y009166D03*
X022867Y009166D03*
X022906Y009796D03*
X021410Y010583D03*
X022867Y008378D03*
X026213Y008181D03*
X026213Y007788D03*
X026213Y008575D03*
X026213Y008969D03*
X028181Y009481D03*
X030378Y008473D03*
X027473Y006804D03*
X027512Y004756D03*
X035859Y006059D03*
X036134Y006059D03*
X036134Y006335D03*
X035859Y006335D03*
X036410Y006886D03*
X036685Y006886D03*
X036961Y006886D03*
X037237Y006886D03*
X037512Y006886D03*
X037788Y006886D03*
X038063Y006886D03*
X038063Y007162D03*
X037788Y007162D03*
X037788Y007437D03*
X037788Y007713D03*
X037512Y007162D03*
X036961Y006611D03*
X036961Y006335D03*
X039166Y006611D03*
X037898Y008489D03*
X037898Y008764D03*
X037898Y009040D03*
X037898Y009315D03*
X037748Y010741D03*
X037748Y011016D03*
X037748Y011292D03*
X030741Y012040D03*
X030268Y011292D03*
X029048Y012355D03*
X016764Y006174D03*
X016764Y005859D03*
X016370Y005859D03*
X016370Y006174D03*
X013733Y005780D03*
X013733Y007237D03*
X013733Y007945D03*
X014126Y007945D03*
X014520Y007945D03*
X014914Y007945D03*
X015307Y007945D03*
X015701Y007945D03*
X015701Y009008D03*
X015307Y009008D03*
X014914Y009008D03*
X014520Y009008D03*
X014126Y009008D03*
X013733Y009008D03*
X013339Y009008D03*
X012945Y009008D03*
X012552Y009008D03*
X011020Y008870D03*
X010071Y009087D03*
X011016Y009323D03*
X011016Y009756D03*
X010819Y010307D03*
X010819Y010741D03*
X009520Y010741D03*
X009048Y010741D03*
X008418Y009717D03*
X008418Y009244D03*
X008418Y008811D03*
X006370Y007079D03*
X005622Y007079D03*
X007867Y006370D03*
X010386Y005701D03*
X011607Y004402D03*
X011607Y003103D03*
X012394Y003103D03*
X013181Y003103D03*
X013969Y003103D03*
X014756Y003103D03*
X016331Y002788D03*
X016370Y003457D03*
X016764Y003969D03*
X017119Y003969D03*
X017276Y002512D03*
X018142Y001685D03*
X018930Y001685D03*
X013339Y007945D03*
X012945Y007945D03*
X012552Y007945D03*
X012985Y010465D03*
X012433Y012630D03*
X011567Y012630D03*
X008823Y012630D03*
X007670Y012867D03*
X004559Y013142D03*
X007748Y015937D03*
X007119Y015977D03*
X014559Y013063D03*
X002158Y003890D03*
X000977Y003890D03*
D54*
X005687Y006406D02*
X005687Y007015D01*
X005622Y007079D01*
X006370Y007079D02*
X006457Y007008D01*
X006457Y006406D01*
X006717Y006406D02*
X006717Y006993D01*
X006843Y007119D01*
X009138Y005985D02*
X009138Y005489D01*
X009052Y005402D01*
X009138Y005985D02*
X009696Y006542D01*
X009696Y007349D01*
X009894Y007348D02*
X009894Y006059D01*
X009898Y006056D01*
X010229Y006056D01*
X010386Y005898D01*
X010386Y005701D01*
X016370Y003457D02*
X018969Y003457D01*
X019422Y003910D01*
X020367Y003910D01*
X020367Y003319D02*
X019894Y003319D01*
X019717Y003142D01*
X019717Y002705D01*
X019737Y002685D01*
X023162Y007059D02*
X025288Y007059D01*
X025465Y007237D01*
X025465Y009520D01*
X025189Y009796D01*
X022906Y009796D01*
X021410Y010583D02*
X021292Y010465D01*
X020544Y010465D01*
X019835Y010465D01*
X019835Y009756D02*
X019835Y009323D01*
X020544Y009323D02*
X020544Y009756D01*
X019373Y012712D02*
X018375Y012712D01*
X018260Y012827D01*
X018024Y012827D01*
X017945Y012748D01*
X020533Y012902D02*
X020855Y012902D01*
X020859Y012906D01*
X020937Y012906D01*
X017945Y014874D02*
X017552Y015268D01*
X017276Y015268D01*
X014559Y013063D02*
X014548Y013075D01*
X011567Y012630D02*
X011540Y012658D01*
X011036Y012658D01*
X010876Y012655D01*
X010876Y011769D01*
X010686Y011769D02*
X010686Y011237D01*
X010662Y011213D01*
X009717Y011252D02*
X009696Y011274D01*
X009696Y011769D01*
X009496Y011769D02*
X009496Y012657D01*
X009339Y012658D01*
X008851Y012658D01*
X008823Y012630D01*
X007748Y014284D02*
X007197Y014284D01*
X007111Y014370D01*
X007111Y015441D01*
X007119Y015449D01*
X007119Y015977D01*
X007750Y014286D02*
X007748Y014284D01*
X012985Y010465D02*
X012985Y009941D01*
X012996Y009930D01*
X012926Y009859D01*
X012006Y009859D01*
X008142Y009441D02*
X008124Y009459D01*
X007586Y009459D01*
X006581Y009459D01*
D55*
X006905Y008479D02*
X007586Y008479D01*
X007586Y008279D02*
X007020Y008279D01*
X006567Y007827D01*
X002355Y007827D01*
X002000Y008181D01*
X001607Y008181D01*
X001843Y007630D02*
X001607Y007394D01*
X001843Y007630D02*
X006685Y007630D01*
X007135Y008079D01*
X007586Y008079D01*
X006905Y008479D02*
X006449Y008024D01*
X002906Y008024D01*
X001961Y008969D01*
X001607Y008969D01*
X005650Y011744D02*
X005689Y011783D01*
X006520Y011783D01*
X006588Y012315D02*
X006520Y012383D01*
X006277Y012383D01*
X005993Y012099D01*
X004855Y012099D01*
X005630Y012473D02*
X005650Y012453D01*
X005662Y012465D01*
X005662Y012709D01*
X005819Y012867D01*
X006292Y012867D01*
X006410Y012985D01*
X006410Y013654D01*
X006278Y013786D01*
X005810Y013786D01*
X005810Y014286D02*
X006290Y014286D01*
X006725Y013851D01*
X006725Y012315D01*
X006588Y012315D01*
X006520Y012383D02*
X006470Y012355D01*
X006685Y012355D01*
X006646Y012394D01*
X007670Y012867D02*
X007670Y013206D01*
X007750Y013286D01*
X007764Y013300D01*
X008142Y013300D01*
X008297Y013145D01*
X008297Y011750D01*
X008316Y011769D01*
X008516Y011769D02*
X008516Y014658D01*
X008378Y014796D01*
X008024Y014796D01*
X007748Y015071D01*
X007748Y015937D01*
X007760Y014796D02*
X007750Y014786D01*
X007752Y014784D01*
X007760Y014796D02*
X008024Y014796D01*
X007750Y013286D02*
X007776Y013260D01*
X009106Y011769D02*
X009126Y011749D01*
X009126Y010898D01*
X009048Y010819D01*
X009048Y010741D01*
X009323Y010898D02*
X009323Y011752D01*
X009306Y011769D01*
X009896Y011769D02*
X009914Y011788D01*
X011076Y011769D02*
X011076Y010997D01*
X010819Y010741D01*
X011134Y010701D02*
X011134Y010465D01*
X010977Y010307D01*
X010819Y010307D01*
X011134Y010701D02*
X011276Y010843D01*
X011276Y011769D01*
X011276Y011769D01*
X012006Y010839D02*
X013123Y010839D01*
X013339Y011056D01*
X013339Y013040D01*
X013374Y013075D01*
X013374Y013528D01*
X013469Y013622D01*
X014083Y013075D02*
X014548Y013075D01*
X016059Y013103D02*
X016092Y013103D01*
X016092Y013181D02*
X016059Y013181D01*
X016059Y013260D02*
X016092Y013260D01*
X016092Y013338D02*
X016059Y013338D01*
X016059Y013417D02*
X016092Y013417D01*
X016092Y013495D02*
X016059Y013495D01*
X016059Y013574D02*
X016092Y013574D01*
X016092Y013579D02*
X016092Y012351D01*
X016193Y012249D01*
X016141Y012197D01*
X016141Y011725D01*
X016252Y011614D01*
X016882Y011614D01*
X016994Y011725D01*
X016994Y011731D01*
X017371Y011731D01*
X017411Y011771D01*
X017748Y011771D01*
X017768Y011791D01*
X017788Y011771D01*
X018418Y011771D01*
X018437Y011791D01*
X018457Y011771D01*
X019087Y011771D01*
X019193Y011877D01*
X019617Y011877D01*
X019728Y011989D01*
X019728Y012241D01*
X019838Y012351D01*
X019838Y013107D01*
X019721Y013224D01*
X019173Y013224D01*
X019051Y013346D01*
X019051Y013579D01*
X018934Y013696D01*
X018093Y013696D01*
X018063Y013726D01*
X017434Y013726D01*
X017404Y013696D01*
X016209Y013696D01*
X016092Y013579D01*
X016059Y013652D02*
X016164Y013652D01*
X016059Y013731D02*
X020743Y013731D01*
X020799Y013786D02*
X020687Y013675D01*
X020687Y013240D01*
X020732Y013195D01*
X020689Y013152D01*
X020483Y013152D01*
X020471Y013147D01*
X020289Y013147D01*
X020178Y013036D01*
X020178Y012769D01*
X020239Y012707D01*
X020178Y012646D01*
X020178Y011989D01*
X020289Y011877D01*
X020777Y011877D01*
X020888Y011989D01*
X020888Y012082D01*
X021180Y012082D01*
X021180Y011669D01*
X021298Y011551D01*
X021433Y011416D01*
X024733Y011416D01*
X025088Y011770D01*
X025223Y011905D01*
X025223Y011922D01*
X025288Y011988D01*
X025386Y011889D01*
X025859Y011889D01*
X025970Y012000D01*
X025970Y012630D01*
X025859Y012742D01*
X025386Y012742D01*
X025288Y012643D01*
X025189Y012742D01*
X024717Y012742D01*
X024606Y012630D01*
X024606Y012000D01*
X024636Y011970D01*
X024543Y011876D01*
X022072Y011876D01*
X022072Y012945D01*
X021961Y013057D01*
X021819Y013057D01*
X021825Y013062D01*
X021878Y013191D01*
X021878Y013523D01*
X022099Y013523D01*
X022210Y013634D01*
X022210Y013855D01*
X023779Y013855D01*
X023779Y013359D01*
X023890Y013247D01*
X025307Y013247D01*
X025419Y013359D01*
X025419Y014540D01*
X025307Y014651D01*
X023890Y014651D01*
X023794Y014555D01*
X022210Y014555D01*
X022210Y014776D01*
X022099Y014887D01*
X021272Y014887D01*
X021161Y014776D01*
X021161Y013786D01*
X020799Y013786D01*
X020687Y013652D02*
X018978Y013652D01*
X019051Y013574D02*
X020687Y013574D01*
X020687Y013495D02*
X019051Y013495D01*
X019051Y013417D02*
X020687Y013417D01*
X020687Y013338D02*
X019059Y013338D01*
X019137Y013260D02*
X020687Y013260D01*
X020718Y013181D02*
X019764Y013181D01*
X019838Y013103D02*
X020245Y013103D01*
X020178Y013024D02*
X019838Y013024D01*
X019838Y012946D02*
X020178Y012946D01*
X020178Y012867D02*
X019838Y012867D01*
X019838Y012789D02*
X020178Y012789D01*
X020237Y012710D02*
X019838Y012710D01*
X019838Y012632D02*
X020178Y012632D01*
X020178Y012553D02*
X019838Y012553D01*
X019838Y012475D02*
X020178Y012475D01*
X020178Y012396D02*
X019838Y012396D01*
X019805Y012318D02*
X020178Y012318D01*
X020178Y012239D02*
X019728Y012239D01*
X019728Y012161D02*
X020178Y012161D01*
X020178Y012082D02*
X019728Y012082D01*
X019728Y012004D02*
X020178Y012004D01*
X020242Y011925D02*
X019665Y011925D01*
X019373Y012122D02*
X018772Y012122D01*
X018772Y012119D01*
X019087Y012394D02*
X018378Y012394D01*
X018103Y012119D01*
X018142Y012394D02*
X017709Y012394D01*
X017433Y012119D01*
X017276Y011961D01*
X016567Y011961D01*
X016141Y011925D02*
X016059Y011925D01*
X016059Y011847D02*
X016141Y011847D01*
X016141Y011768D02*
X016059Y011768D01*
X016059Y011690D02*
X016176Y011690D01*
X016059Y011611D02*
X021238Y011611D01*
X021180Y011690D02*
X016958Y011690D01*
X017408Y011768D02*
X021180Y011768D01*
X021180Y011847D02*
X019162Y011847D01*
X019169Y012312D02*
X019087Y012394D01*
X019169Y012312D02*
X019373Y012312D01*
X019373Y012512D02*
X019166Y012512D01*
X019126Y012552D01*
X018300Y012552D01*
X018142Y012394D01*
X018047Y012624D02*
X017614Y012624D01*
X017456Y012466D01*
X017119Y012466D01*
X017086Y012433D01*
X016292Y012433D01*
X016292Y013496D01*
X017322Y013496D01*
X017322Y013142D01*
X017434Y013031D01*
X018063Y013031D01*
X018175Y013142D01*
X018175Y013148D01*
X018598Y013148D01*
X018965Y012782D01*
X018204Y012782D01*
X018047Y012624D01*
X018054Y012632D02*
X016292Y012632D01*
X016292Y012710D02*
X018133Y012710D01*
X018100Y012712D02*
X017945Y012867D01*
X018100Y012712D02*
X019373Y012712D01*
X019373Y012902D02*
X019169Y012902D01*
X018693Y013378D01*
X017748Y013378D01*
X017322Y013417D02*
X016292Y013417D01*
X016292Y013495D02*
X017322Y013495D01*
X017322Y013338D02*
X016292Y013338D01*
X016292Y013260D02*
X017322Y013260D01*
X017322Y013181D02*
X016292Y013181D01*
X016292Y013103D02*
X017362Y013103D01*
X017434Y013740D02*
X018063Y013740D01*
X018102Y013778D01*
X018122Y013758D01*
X018556Y013758D01*
X018668Y013870D01*
X018668Y014304D01*
X018556Y014416D01*
X018122Y014416D01*
X018102Y014396D01*
X018063Y014434D01*
X017434Y014434D01*
X017322Y014323D01*
X017322Y013851D01*
X017434Y013740D01*
X017364Y013809D02*
X016059Y013809D01*
X016059Y013888D02*
X017322Y013888D01*
X017322Y013966D02*
X016059Y013966D01*
X016059Y014045D02*
X017322Y014045D01*
X017322Y014123D02*
X016059Y014123D01*
X016059Y014202D02*
X017322Y014202D01*
X017322Y014280D02*
X016059Y014280D01*
X016059Y014359D02*
X017358Y014359D01*
X017598Y014559D02*
X017709Y014448D01*
X018181Y014448D01*
X018293Y014559D01*
X018293Y015189D01*
X018181Y015301D01*
X017873Y015301D01*
X017702Y015472D01*
X018095Y015472D01*
X018135Y015432D01*
X018433Y015432D01*
X018469Y015468D01*
X018505Y015432D01*
X018803Y015432D01*
X018839Y015468D01*
X018875Y015432D01*
X019173Y015432D01*
X019213Y015472D01*
X019339Y015472D01*
X019438Y015513D01*
X019594Y015669D01*
X019670Y015745D01*
X019711Y015844D01*
X019711Y016751D01*
X020726Y017765D01*
X022059Y017765D01*
X022144Y017849D01*
X023779Y017849D01*
X023779Y017729D01*
X023890Y017617D01*
X024961Y017617D01*
X026091Y016488D01*
X026091Y012738D01*
X025984Y012630D01*
X025984Y012000D01*
X026095Y011889D01*
X026567Y011889D01*
X026679Y012000D01*
X026679Y012630D01*
X026571Y012738D01*
X026571Y016635D01*
X027779Y016635D01*
X027779Y016557D02*
X026571Y016557D01*
X026571Y016635D02*
X026535Y016723D01*
X025419Y017839D01*
X025419Y018865D01*
X027780Y018859D01*
X027776Y011252D01*
X016059Y011252D01*
X016059Y018888D01*
X016993Y018888D01*
X017008Y018888D01*
X016919Y018799D01*
X016919Y018194D01*
X017013Y018100D01*
X017101Y018100D01*
X017101Y017187D01*
X016682Y017187D01*
X016571Y017076D01*
X016571Y016589D01*
X016616Y016544D01*
X016608Y016541D01*
X016513Y016445D01*
X016461Y016320D01*
X016461Y016185D01*
X016513Y016060D01*
X016545Y016027D01*
X016432Y016027D01*
X016321Y015916D01*
X016321Y015770D01*
X016297Y015712D01*
X016297Y015293D01*
X016338Y015194D01*
X016414Y015118D01*
X016475Y015058D01*
X016475Y014972D01*
X016586Y014861D01*
X017336Y014861D01*
X017447Y014972D01*
X017447Y015018D01*
X017448Y015018D01*
X017598Y014868D01*
X017598Y014559D01*
X017598Y014594D02*
X016059Y014594D01*
X016059Y014516D02*
X017642Y014516D01*
X017598Y014673D02*
X016059Y014673D01*
X016059Y014751D02*
X017598Y014751D01*
X017598Y014830D02*
X016059Y014830D01*
X016059Y014908D02*
X016539Y014908D01*
X016475Y014987D02*
X016059Y014987D01*
X016059Y015065D02*
X016467Y015065D01*
X016389Y015144D02*
X016059Y015144D01*
X016059Y015222D02*
X016327Y015222D01*
X016297Y015301D02*
X016059Y015301D01*
X016059Y015379D02*
X016297Y015379D01*
X016297Y015458D02*
X016059Y015458D01*
X016059Y015536D02*
X016297Y015536D01*
X016297Y015615D02*
X016059Y015615D01*
X016059Y015693D02*
X016297Y015693D01*
X016321Y015772D02*
X016059Y015772D01*
X016059Y015850D02*
X016321Y015850D01*
X016334Y015929D02*
X016059Y015929D01*
X016059Y016007D02*
X016412Y016007D01*
X016469Y016079D02*
X016642Y016252D01*
X016961Y016252D01*
X017347Y016507D02*
X017477Y016507D01*
X017571Y016601D01*
X017571Y016760D01*
X017581Y016785D01*
X017581Y017032D01*
X017678Y017032D01*
X017772Y017126D01*
X017772Y017812D01*
X017678Y017905D01*
X017581Y017905D01*
X017581Y018440D01*
X017554Y018505D01*
X017554Y018799D01*
X017467Y018886D01*
X018026Y018885D01*
X017952Y018811D01*
X017952Y018182D01*
X018014Y018120D01*
X018014Y016788D01*
X018024Y016764D01*
X018024Y016643D01*
X018135Y016532D01*
X018433Y016532D01*
X018544Y016643D01*
X018544Y016764D01*
X018554Y016788D01*
X018554Y016967D01*
X018700Y016967D01*
X018754Y016912D01*
X018754Y016788D01*
X018764Y016764D01*
X018764Y016643D01*
X018875Y016532D01*
X019171Y016532D01*
X019171Y016052D01*
X018875Y016052D01*
X018839Y016015D01*
X018803Y016052D01*
X018505Y016052D01*
X018469Y016015D01*
X018433Y016052D01*
X018135Y016052D01*
X018095Y016012D01*
X017505Y016012D01*
X017490Y016027D01*
X017377Y016027D01*
X017409Y016060D01*
X017461Y016185D01*
X017461Y016320D01*
X017409Y016445D01*
X017347Y016507D01*
X017376Y016478D02*
X019171Y016478D01*
X019171Y016400D02*
X017428Y016400D01*
X017461Y016321D02*
X019171Y016321D01*
X019171Y016243D02*
X017461Y016243D01*
X017452Y016164D02*
X019171Y016164D01*
X019171Y016086D02*
X017420Y016086D01*
X017526Y016557D02*
X018110Y016557D01*
X018032Y016635D02*
X017571Y016635D01*
X017571Y016714D02*
X018024Y016714D01*
X018014Y016792D02*
X017581Y016792D01*
X017581Y016871D02*
X018014Y016871D01*
X018014Y016949D02*
X017581Y016949D01*
X017581Y017028D02*
X018014Y017028D01*
X018014Y017106D02*
X017752Y017106D01*
X017772Y017185D02*
X018014Y017185D01*
X018014Y017263D02*
X017772Y017263D01*
X017772Y017342D02*
X018014Y017342D01*
X018014Y017420D02*
X017772Y017420D01*
X017772Y017499D02*
X018014Y017499D01*
X018014Y017577D02*
X017772Y017577D01*
X017772Y017656D02*
X018014Y017656D01*
X018014Y017734D02*
X017772Y017734D01*
X017771Y017813D02*
X018014Y017813D01*
X018014Y017891D02*
X017692Y017891D01*
X017581Y017970D02*
X018014Y017970D01*
X018014Y018048D02*
X017581Y018048D01*
X017581Y018127D02*
X018007Y018127D01*
X017952Y018205D02*
X017581Y018205D01*
X017581Y018284D02*
X017952Y018284D01*
X017952Y018362D02*
X017581Y018362D01*
X017581Y018441D02*
X017952Y018441D01*
X017952Y018519D02*
X017554Y018519D01*
X017554Y018598D02*
X017952Y018598D01*
X017952Y018676D02*
X017554Y018676D01*
X017554Y018755D02*
X017952Y018755D01*
X017974Y018833D02*
X017520Y018833D01*
X016953Y018833D02*
X016059Y018833D01*
X016059Y018755D02*
X016919Y018755D01*
X016919Y018676D02*
X016059Y018676D01*
X016059Y018598D02*
X016919Y018598D01*
X016919Y018519D02*
X016059Y018519D01*
X016059Y018441D02*
X016919Y018441D01*
X016919Y018362D02*
X016059Y018362D01*
X016059Y018284D02*
X016919Y018284D01*
X016919Y018205D02*
X016059Y018205D01*
X016059Y018127D02*
X016987Y018127D01*
X017101Y018048D02*
X016059Y018048D01*
X016059Y017970D02*
X017101Y017970D01*
X017101Y017891D02*
X016059Y017891D01*
X016059Y017813D02*
X017101Y017813D01*
X017101Y017734D02*
X016059Y017734D01*
X016059Y017656D02*
X017101Y017656D01*
X017101Y017577D02*
X016059Y017577D01*
X016059Y017499D02*
X017101Y017499D01*
X017101Y017420D02*
X016059Y017420D01*
X016059Y017342D02*
X017101Y017342D01*
X017101Y017263D02*
X016059Y017263D01*
X016059Y017185D02*
X016680Y017185D01*
X016601Y017106D02*
X016059Y017106D01*
X016059Y017028D02*
X016571Y017028D01*
X016571Y016949D02*
X016059Y016949D01*
X016059Y016871D02*
X016571Y016871D01*
X016571Y016792D02*
X016059Y016792D01*
X016059Y016714D02*
X016571Y016714D01*
X016571Y016635D02*
X016059Y016635D01*
X016059Y016557D02*
X016603Y016557D01*
X016546Y016478D02*
X016059Y016478D01*
X016059Y016400D02*
X016494Y016400D01*
X016461Y016321D02*
X016059Y016321D01*
X016059Y016243D02*
X016461Y016243D01*
X016470Y016164D02*
X016059Y016164D01*
X016059Y016086D02*
X016502Y016086D01*
X017716Y015458D02*
X018109Y015458D01*
X018182Y015301D02*
X026091Y015301D01*
X026091Y015379D02*
X017794Y015379D01*
X018260Y015222D02*
X026091Y015222D01*
X026091Y015144D02*
X018293Y015144D01*
X018293Y015065D02*
X026091Y015065D01*
X026091Y014987D02*
X018293Y014987D01*
X018293Y014908D02*
X026091Y014908D01*
X026091Y014830D02*
X022156Y014830D01*
X022210Y014751D02*
X026091Y014751D01*
X026091Y014673D02*
X022210Y014673D01*
X022210Y014594D02*
X023833Y014594D01*
X023779Y013809D02*
X022210Y013809D01*
X022210Y013731D02*
X023779Y013731D01*
X023779Y013652D02*
X022210Y013652D01*
X022149Y013574D02*
X023779Y013574D01*
X023779Y013495D02*
X021878Y013495D01*
X021878Y013417D02*
X023779Y013417D01*
X023800Y013338D02*
X021878Y013338D01*
X021878Y013260D02*
X023878Y013260D01*
X023631Y012946D02*
X026091Y012946D01*
X026091Y013024D02*
X023553Y013024D01*
X023536Y013041D02*
X022906Y013041D01*
X022795Y012929D01*
X022795Y012923D01*
X022781Y012923D01*
X022781Y012945D01*
X022670Y013057D01*
X022197Y013057D01*
X022086Y012945D01*
X022086Y012315D01*
X022197Y012204D01*
X022670Y012204D01*
X022781Y012315D01*
X022781Y012463D01*
X022795Y012463D01*
X022795Y012457D01*
X022906Y012346D01*
X023536Y012346D01*
X023647Y012457D01*
X023647Y012929D01*
X023536Y013041D01*
X023647Y012867D02*
X026091Y012867D01*
X026091Y012789D02*
X023647Y012789D01*
X023647Y012710D02*
X024685Y012710D01*
X024607Y012632D02*
X023647Y012632D01*
X023647Y012553D02*
X024606Y012553D01*
X024606Y012475D02*
X023647Y012475D01*
X023586Y012396D02*
X024606Y012396D01*
X024606Y012318D02*
X022781Y012318D01*
X022781Y012396D02*
X022856Y012396D01*
X022705Y012239D02*
X024606Y012239D01*
X024606Y012161D02*
X022072Y012161D01*
X022072Y012239D02*
X022162Y012239D01*
X022086Y012318D02*
X022072Y012318D01*
X022072Y012396D02*
X022086Y012396D01*
X022086Y012475D02*
X022072Y012475D01*
X022072Y012553D02*
X022086Y012553D01*
X022086Y012632D02*
X022072Y012632D01*
X022072Y012710D02*
X022086Y012710D01*
X022086Y012789D02*
X022072Y012789D01*
X022072Y012867D02*
X022086Y012867D01*
X022086Y012946D02*
X022072Y012946D01*
X021993Y013024D02*
X022165Y013024D01*
X021874Y013181D02*
X026091Y013181D01*
X026091Y013103D02*
X021841Y013103D01*
X021331Y013457D02*
X021646Y013772D01*
X021646Y014166D01*
X021685Y014205D01*
X021161Y014202D02*
X018668Y014202D01*
X018668Y014280D02*
X021161Y014280D01*
X021161Y014359D02*
X018614Y014359D01*
X018668Y014123D02*
X021161Y014123D01*
X021161Y014045D02*
X018668Y014045D01*
X018668Y013966D02*
X021161Y013966D01*
X021161Y013888D02*
X018668Y013888D01*
X018607Y013809D02*
X021161Y013809D01*
X021016Y013457D02*
X021331Y013457D01*
X020533Y012712D02*
X020074Y012712D01*
X020071Y012709D01*
X020533Y012512D02*
X021685Y012512D01*
X021725Y012630D01*
X021725Y012040D01*
X022072Y012004D02*
X024606Y012004D01*
X024606Y012082D02*
X022072Y012082D01*
X022072Y011925D02*
X024592Y011925D01*
X024638Y011646D02*
X024993Y012000D01*
X024993Y012355D01*
X024953Y012315D01*
X025622Y012315D01*
X025970Y012318D02*
X025984Y012318D01*
X025984Y012396D02*
X025970Y012396D01*
X025970Y012475D02*
X025984Y012475D01*
X025984Y012553D02*
X025970Y012553D01*
X025969Y012632D02*
X025985Y012632D01*
X026063Y012710D02*
X025890Y012710D01*
X025355Y012710D02*
X025221Y012710D01*
X024953Y012315D02*
X024953Y012276D01*
X025225Y011925D02*
X025350Y011925D01*
X025164Y011847D02*
X027776Y011847D01*
X027776Y011925D02*
X026603Y011925D01*
X026679Y012004D02*
X027776Y012004D01*
X027776Y012082D02*
X026679Y012082D01*
X026679Y012161D02*
X027776Y012161D01*
X027776Y012239D02*
X026679Y012239D01*
X026679Y012318D02*
X027777Y012318D01*
X027777Y012396D02*
X026679Y012396D01*
X026679Y012475D02*
X027777Y012475D01*
X027777Y012553D02*
X026679Y012553D01*
X026677Y012632D02*
X027777Y012632D01*
X027777Y012710D02*
X026599Y012710D01*
X026571Y012789D02*
X027777Y012789D01*
X027777Y012867D02*
X026571Y012867D01*
X026571Y012946D02*
X027777Y012946D01*
X027777Y013024D02*
X026571Y013024D01*
X026571Y013103D02*
X027777Y013103D01*
X027777Y013181D02*
X026571Y013181D01*
X026571Y013260D02*
X027777Y013260D01*
X027777Y013338D02*
X026571Y013338D01*
X026571Y013417D02*
X027777Y013417D01*
X027777Y013495D02*
X026571Y013495D01*
X026571Y013574D02*
X027777Y013574D01*
X027777Y013652D02*
X026571Y013652D01*
X026571Y013731D02*
X027777Y013731D01*
X027777Y013809D02*
X026571Y013809D01*
X026571Y013888D02*
X027777Y013888D01*
X027777Y013966D02*
X026571Y013966D01*
X026571Y014045D02*
X027777Y014045D01*
X027777Y014123D02*
X026571Y014123D01*
X026571Y014202D02*
X027778Y014202D01*
X027778Y014280D02*
X026571Y014280D01*
X026571Y014359D02*
X027778Y014359D01*
X027778Y014437D02*
X026571Y014437D01*
X026571Y014516D02*
X027778Y014516D01*
X027778Y014594D02*
X026571Y014594D01*
X026571Y014673D02*
X027778Y014673D01*
X027778Y014751D02*
X026571Y014751D01*
X026571Y014830D02*
X027778Y014830D01*
X027778Y014908D02*
X026571Y014908D01*
X026571Y014987D02*
X027778Y014987D01*
X027778Y015065D02*
X026571Y015065D01*
X026571Y015144D02*
X027778Y015144D01*
X027778Y015222D02*
X026571Y015222D01*
X026571Y015301D02*
X027778Y015301D01*
X027778Y015379D02*
X026571Y015379D01*
X026571Y015458D02*
X027778Y015458D01*
X027778Y015536D02*
X026571Y015536D01*
X026571Y015615D02*
X027778Y015615D01*
X027778Y015693D02*
X026571Y015693D01*
X026571Y015772D02*
X027778Y015772D01*
X027778Y015850D02*
X026571Y015850D01*
X026571Y015929D02*
X027778Y015929D01*
X027778Y016007D02*
X026571Y016007D01*
X026571Y016086D02*
X027778Y016086D01*
X027779Y016164D02*
X026571Y016164D01*
X026571Y016243D02*
X027779Y016243D01*
X027779Y016321D02*
X026571Y016321D01*
X026571Y016400D02*
X027779Y016400D01*
X027779Y016478D02*
X026571Y016478D01*
X026538Y016714D02*
X027779Y016714D01*
X027779Y016792D02*
X026465Y016792D01*
X026387Y016871D02*
X027779Y016871D01*
X027779Y016949D02*
X026308Y016949D01*
X026230Y017028D02*
X027779Y017028D01*
X027779Y017106D02*
X026151Y017106D01*
X026073Y017185D02*
X027779Y017185D01*
X027779Y017263D02*
X025994Y017263D01*
X025916Y017342D02*
X027779Y017342D01*
X027779Y017420D02*
X025837Y017420D01*
X025759Y017499D02*
X027779Y017499D01*
X027779Y017577D02*
X025680Y017577D01*
X025602Y017656D02*
X027779Y017656D01*
X027779Y017734D02*
X025523Y017734D01*
X025445Y017813D02*
X027779Y017813D01*
X027779Y017891D02*
X025419Y017891D01*
X025419Y017970D02*
X027779Y017970D01*
X027780Y018048D02*
X025419Y018048D01*
X025419Y018127D02*
X027780Y018127D01*
X027780Y018205D02*
X025419Y018205D01*
X025419Y018284D02*
X027780Y018284D01*
X027780Y018362D02*
X025419Y018362D01*
X025419Y018441D02*
X027780Y018441D01*
X027780Y018519D02*
X025419Y018519D01*
X025419Y018598D02*
X027780Y018598D01*
X027780Y018676D02*
X025419Y018676D01*
X025419Y018755D02*
X027780Y018755D01*
X027780Y018833D02*
X025419Y018833D01*
X023779Y018833D02*
X022100Y018833D01*
X022059Y018873D02*
X022144Y018789D01*
X023779Y018789D01*
X023779Y018869D01*
X018575Y018883D01*
X018647Y018811D01*
X018647Y018182D01*
X018554Y018088D01*
X018554Y017507D01*
X018865Y017507D01*
X018964Y017466D01*
X019040Y017390D01*
X019205Y017225D01*
X019745Y017765D01*
X019737Y017765D01*
X019625Y017876D01*
X019625Y018762D01*
X019737Y018873D01*
X022059Y018873D01*
X022107Y017813D02*
X023779Y017813D01*
X023779Y017734D02*
X020695Y017734D01*
X020616Y017656D02*
X023852Y017656D01*
X025002Y017577D02*
X020538Y017577D01*
X020459Y017499D02*
X025080Y017499D01*
X025159Y017420D02*
X020381Y017420D01*
X020302Y017342D02*
X025237Y017342D01*
X025316Y017263D02*
X020224Y017263D01*
X020145Y017185D02*
X025394Y017185D01*
X025473Y017106D02*
X020067Y017106D01*
X019988Y017028D02*
X025551Y017028D01*
X025630Y016949D02*
X019910Y016949D01*
X019831Y016871D02*
X025708Y016871D01*
X025787Y016792D02*
X019753Y016792D01*
X019711Y016714D02*
X025865Y016714D01*
X025944Y016635D02*
X019711Y016635D01*
X019711Y016557D02*
X026022Y016557D01*
X026091Y016478D02*
X019711Y016478D01*
X019711Y016400D02*
X026091Y016400D01*
X026091Y016321D02*
X019711Y016321D01*
X019711Y016243D02*
X026091Y016243D01*
X026091Y016164D02*
X019711Y016164D01*
X019711Y016086D02*
X026091Y016086D01*
X026091Y016007D02*
X019711Y016007D01*
X019711Y015929D02*
X026091Y015929D01*
X026091Y015850D02*
X019711Y015850D01*
X019681Y015772D02*
X026091Y015772D01*
X026091Y015693D02*
X019618Y015693D01*
X019540Y015615D02*
X026091Y015615D01*
X026091Y015536D02*
X019461Y015536D01*
X019198Y015458D02*
X026091Y015458D01*
X026091Y014594D02*
X025364Y014594D01*
X025419Y014516D02*
X026091Y014516D01*
X026091Y014437D02*
X025419Y014437D01*
X025419Y014359D02*
X026091Y014359D01*
X026091Y014280D02*
X025419Y014280D01*
X025419Y014202D02*
X026091Y014202D01*
X026091Y014123D02*
X025419Y014123D01*
X025419Y014045D02*
X026091Y014045D01*
X026091Y013966D02*
X025419Y013966D01*
X025419Y013888D02*
X026091Y013888D01*
X026091Y013809D02*
X025419Y013809D01*
X025419Y013731D02*
X026091Y013731D01*
X026091Y013652D02*
X025419Y013652D01*
X025419Y013574D02*
X026091Y013574D01*
X026091Y013495D02*
X025419Y013495D01*
X025419Y013417D02*
X026091Y013417D01*
X026091Y013338D02*
X025398Y013338D01*
X025320Y013260D02*
X026091Y013260D01*
X025984Y012239D02*
X025970Y012239D01*
X025970Y012161D02*
X025984Y012161D01*
X025984Y012082D02*
X025970Y012082D01*
X025970Y012004D02*
X025984Y012004D01*
X026059Y011925D02*
X025895Y011925D01*
X025085Y011768D02*
X027776Y011768D01*
X027776Y011690D02*
X025007Y011690D01*
X024928Y011611D02*
X027776Y011611D01*
X027776Y011533D02*
X024850Y011533D01*
X024771Y011454D02*
X027776Y011454D01*
X027776Y011376D02*
X016059Y011376D01*
X016059Y011454D02*
X021395Y011454D01*
X021316Y011533D02*
X016059Y011533D01*
X016059Y011297D02*
X027776Y011297D01*
X028615Y011922D02*
X029048Y012355D01*
X028615Y011922D02*
X028615Y009835D01*
X029166Y009284D01*
X029166Y005583D01*
X028300Y004717D01*
X028300Y003449D01*
X027748Y003654D02*
X027748Y003063D01*
X027630Y002945D01*
X026922Y002945D01*
X026449Y002945D02*
X025091Y004304D01*
X023162Y004304D01*
X023162Y004500D02*
X025485Y004500D01*
X026528Y003457D01*
X026914Y003457D01*
X026922Y003449D01*
X027430Y003449D01*
X027748Y003654D02*
X027599Y003804D01*
X026469Y003804D01*
X025575Y004697D01*
X023162Y004697D01*
X023162Y004894D02*
X025681Y004894D01*
X026449Y004126D01*
X026890Y004126D01*
X026922Y004158D01*
X026410Y004481D02*
X027630Y004481D01*
X027985Y004126D01*
X027985Y002433D01*
X027630Y002079D01*
X026922Y002079D01*
X026449Y002079D02*
X026134Y002079D01*
X024304Y003910D01*
X023162Y003910D01*
X023162Y004107D02*
X024658Y004107D01*
X026252Y002512D01*
X026449Y002512D01*
X026449Y001666D02*
X026099Y001666D01*
X024028Y003713D01*
X023162Y003713D01*
X023162Y003516D02*
X023752Y003516D01*
X026016Y001252D01*
X026449Y001252D01*
X026449Y000741D02*
X026095Y000741D01*
X023516Y003319D01*
X023162Y003319D01*
X020367Y003516D02*
X019646Y003516D01*
X018918Y002788D01*
X017552Y002788D01*
X017276Y002512D01*
X016567Y003024D02*
X016331Y002788D01*
X016567Y003024D02*
X018811Y003024D01*
X019500Y003713D01*
X020367Y003713D01*
X020367Y004107D02*
X018792Y004107D01*
X018603Y003918D01*
X020367Y004304D02*
X012465Y004304D01*
X010489Y006280D01*
X010489Y007228D01*
X010486Y007349D01*
X010686Y007349D02*
X010685Y007231D01*
X010685Y006363D01*
X012548Y004500D01*
X020367Y004500D01*
X020367Y004697D02*
X012638Y004697D01*
X010874Y006461D01*
X010874Y007230D01*
X010876Y007349D01*
X011076Y007349D02*
X011075Y007231D01*
X011075Y006532D01*
X012713Y004894D01*
X020367Y004894D01*
X020367Y005091D02*
X012788Y005091D01*
X011276Y006603D01*
X011276Y007231D01*
X011276Y007349D01*
X012008Y007959D02*
X012006Y008079D01*
X012008Y007959D02*
X012008Y006181D01*
X012902Y005288D01*
X020367Y005288D01*
X020367Y005485D02*
X014028Y005485D01*
X013733Y005780D01*
X013733Y007237D02*
X014048Y007552D01*
X017827Y007552D01*
X019107Y006272D01*
X020367Y006272D01*
X020367Y006075D02*
X018831Y006075D01*
X018048Y006859D01*
X017516Y006859D01*
X017292Y006103D02*
X017276Y006087D01*
X017276Y005780D01*
X017374Y005681D01*
X020367Y005681D01*
X020367Y005878D02*
X018225Y005878D01*
X018000Y006103D01*
X019382Y006469D02*
X018024Y007788D01*
X017807Y008004D01*
X017709Y008004D01*
X017434Y008279D01*
X012006Y008279D01*
X012006Y008479D02*
X017616Y008479D01*
X017717Y008378D01*
X017788Y008378D01*
X018024Y008142D01*
X019579Y006666D01*
X020367Y006666D01*
X020367Y006863D02*
X019697Y006863D01*
X017800Y008760D01*
X017717Y008760D01*
X017626Y008669D01*
X012006Y008669D01*
X012006Y008869D02*
X012005Y008870D01*
X011020Y008870D01*
X011233Y009323D02*
X011485Y009071D01*
X012004Y009071D01*
X012006Y009069D01*
X012006Y009259D02*
X011631Y009259D01*
X011174Y009717D01*
X011056Y009717D01*
X011016Y009756D01*
X011016Y009323D02*
X011233Y009323D01*
X012006Y009459D02*
X017415Y009459D01*
X017721Y009154D01*
X017717Y009158D01*
X017721Y009154D02*
X019815Y007059D01*
X020367Y007059D01*
X020367Y007256D02*
X019894Y007256D01*
X018930Y008221D01*
X018930Y008713D01*
X018851Y008792D01*
X019835Y008615D02*
X019835Y007910D01*
X019859Y007886D01*
X019874Y007870D01*
X019874Y007552D01*
X019973Y007453D01*
X020367Y007453D01*
X020367Y007650D02*
X020367Y007945D01*
X020355Y007957D01*
X020544Y008146D01*
X020544Y008615D01*
X017709Y008004D02*
X017453Y008260D01*
X015977Y008079D02*
X015977Y007752D01*
X013965Y007752D01*
X013765Y007552D01*
X012208Y007552D01*
X012208Y007864D01*
X012362Y007864D01*
X012456Y007958D01*
X012456Y008079D01*
X015977Y008079D01*
X012456Y008079D01*
X012456Y008000D02*
X015977Y008000D01*
X015977Y007922D02*
X012419Y007922D01*
X012208Y007843D02*
X015977Y007843D01*
X015977Y007765D02*
X012208Y007765D01*
X012208Y007686D02*
X013899Y007686D01*
X013821Y007608D02*
X012208Y007608D01*
X012456Y008869D02*
X012456Y008948D01*
X012456Y009229D01*
X015977Y009229D01*
X015977Y008869D01*
X012456Y008869D01*
X012456Y008942D02*
X015977Y008942D01*
X015977Y009021D02*
X012456Y009021D01*
X012456Y009099D02*
X015977Y009099D01*
X015977Y009178D02*
X012456Y009178D01*
X009896Y007349D02*
X009894Y007348D01*
X009496Y007349D02*
X009496Y006740D01*
X008969Y006213D01*
X008733Y006213D01*
X008103Y005583D01*
X006134Y005583D01*
X005937Y005780D01*
X005937Y006396D01*
X005947Y006406D01*
X006207Y006406D02*
X006213Y006400D01*
X006213Y005898D01*
X006292Y005819D01*
X007985Y005819D01*
X008654Y006489D01*
X008930Y006489D01*
X009306Y006865D01*
X009306Y007349D01*
X009106Y007349D02*
X009106Y006940D01*
X009048Y006882D01*
X007079Y006882D01*
X006961Y006764D01*
X006961Y006412D01*
X006967Y006406D01*
X008516Y007349D02*
X008516Y008713D01*
X008418Y008811D01*
X008716Y009065D02*
X008536Y009244D01*
X008418Y009244D01*
X008716Y009065D02*
X008716Y007349D01*
X008906Y007349D02*
X008906Y009426D01*
X008615Y009717D01*
X008418Y009717D01*
X009481Y010741D02*
X009323Y010898D01*
X009481Y010741D02*
X009520Y010741D01*
X016059Y012004D02*
X016141Y012004D01*
X016141Y012082D02*
X016059Y012082D01*
X016059Y012161D02*
X016141Y012161D01*
X016183Y012239D02*
X016059Y012239D01*
X016059Y012318D02*
X016125Y012318D01*
X016092Y012396D02*
X016059Y012396D01*
X016059Y012475D02*
X016092Y012475D01*
X016092Y012553D02*
X016059Y012553D01*
X016059Y012632D02*
X016092Y012632D01*
X016092Y012710D02*
X016059Y012710D01*
X016059Y012789D02*
X016092Y012789D01*
X016092Y012867D02*
X016059Y012867D01*
X016059Y012946D02*
X016092Y012946D01*
X016092Y013024D02*
X016059Y013024D01*
X016292Y013024D02*
X018722Y013024D01*
X018644Y013103D02*
X018135Y013103D01*
X018801Y012946D02*
X016292Y012946D01*
X016292Y012867D02*
X018879Y012867D01*
X018958Y012789D02*
X016292Y012789D01*
X016292Y012553D02*
X017543Y012553D01*
X017464Y012475D02*
X016292Y012475D01*
X017748Y014087D02*
X018339Y014087D01*
X018249Y014516D02*
X021161Y014516D01*
X021161Y014594D02*
X018293Y014594D01*
X018293Y014673D02*
X021161Y014673D01*
X021161Y014751D02*
X018293Y014751D01*
X018293Y014830D02*
X021214Y014830D01*
X021161Y014437D02*
X016059Y014437D01*
X017383Y014908D02*
X017558Y014908D01*
X017480Y014987D02*
X017447Y014987D01*
X018458Y015458D02*
X018479Y015458D01*
X018828Y015458D02*
X018849Y015458D01*
X018850Y016557D02*
X018457Y016557D01*
X018536Y016635D02*
X018772Y016635D01*
X018764Y016714D02*
X018544Y016714D01*
X018554Y016792D02*
X018754Y016792D01*
X018754Y016871D02*
X018554Y016871D01*
X018554Y016949D02*
X018717Y016949D01*
X019167Y017263D02*
X019243Y017263D01*
X019322Y017342D02*
X019088Y017342D01*
X019010Y017420D02*
X019400Y017420D01*
X019479Y017499D02*
X018885Y017499D01*
X018554Y017577D02*
X019557Y017577D01*
X019636Y017656D02*
X018554Y017656D01*
X018554Y017734D02*
X019714Y017734D01*
X019689Y017813D02*
X018554Y017813D01*
X018554Y017891D02*
X019625Y017891D01*
X019625Y017970D02*
X018554Y017970D01*
X018554Y018048D02*
X019625Y018048D01*
X019625Y018127D02*
X018592Y018127D01*
X018647Y018205D02*
X019625Y018205D01*
X019625Y018284D02*
X018647Y018284D01*
X018647Y018362D02*
X019625Y018362D01*
X019625Y018441D02*
X018647Y018441D01*
X018647Y018519D02*
X019625Y018519D01*
X019625Y018598D02*
X018647Y018598D01*
X018647Y018676D02*
X019625Y018676D01*
X019625Y018755D02*
X018647Y018755D01*
X018625Y018833D02*
X019696Y018833D01*
X022702Y013024D02*
X022889Y013024D01*
X022811Y012946D02*
X022781Y012946D01*
X022457Y012693D02*
X022433Y012630D01*
X022457Y012693D02*
X023221Y012693D01*
X024638Y011646D02*
X021528Y011646D01*
X021410Y011764D01*
X021410Y012276D01*
X021374Y012312D01*
X020533Y012312D01*
X020888Y012082D02*
X021180Y012082D01*
X021180Y012004D02*
X020888Y012004D01*
X020825Y011925D02*
X021180Y011925D01*
X026213Y008969D02*
X028221Y008969D01*
X028575Y008615D01*
X028575Y006134D01*
X027827Y005386D01*
X026528Y005386D01*
X026233Y005681D01*
X023162Y005681D01*
X023162Y005485D02*
X026036Y005485D01*
X026489Y005032D01*
X026898Y005032D01*
X026922Y005052D01*
X028044Y005052D01*
X028851Y005859D01*
X028851Y008811D01*
X028181Y009481D01*
X027906Y008575D02*
X028300Y008181D01*
X028300Y006410D01*
X027965Y006075D01*
X023162Y006075D01*
X023162Y005878D02*
X026760Y005878D01*
X026922Y005760D01*
X027709Y006331D02*
X026056Y006331D01*
X025996Y006272D01*
X023162Y006272D01*
X023162Y006469D02*
X025800Y006469D01*
X026016Y006685D01*
X026902Y006685D01*
X026922Y006705D01*
X027374Y006705D01*
X027473Y006804D01*
X027276Y007079D02*
X027355Y007158D01*
X027355Y007709D01*
X027276Y007788D01*
X026213Y007788D01*
X026213Y008181D02*
X027867Y008181D01*
X028024Y008024D01*
X028024Y006646D01*
X027709Y006331D01*
X027276Y007079D02*
X026056Y007079D01*
X025642Y006666D01*
X023162Y006666D01*
X023162Y006863D02*
X025481Y006863D01*
X026028Y007410D01*
X026918Y007410D01*
X026922Y007414D01*
X026213Y008575D02*
X027906Y008575D01*
X030378Y008473D02*
X030727Y008473D01*
X030731Y008477D01*
X035170Y007790D02*
X035857Y007790D01*
X035859Y007788D01*
X030268Y011292D02*
X030268Y011705D01*
X030268Y011784D02*
X030268Y011961D01*
X030741Y012040D02*
X030741Y011502D01*
X030731Y011493D01*
X035170Y012278D02*
X035172Y012276D01*
X035780Y012276D01*
X036083Y012445D02*
X036083Y012983D01*
X036083Y012445D02*
X036252Y012276D01*
X034861Y013721D02*
X034441Y014141D01*
X034441Y015071D01*
X035150Y015071D02*
X035268Y014953D01*
X035607Y014953D01*
X032000Y015111D02*
X031725Y015111D01*
X020367Y006469D02*
X019382Y006469D01*
X023162Y005288D02*
X025918Y005288D01*
X026489Y004717D01*
X027355Y004717D01*
X027512Y004756D01*
X026410Y004481D02*
X025800Y005091D01*
X023162Y005091D01*
X031725Y003496D02*
X032004Y003496D01*
X031981Y003473D01*
X031981Y003059D01*
X031981Y002981D02*
X031981Y001311D01*
X032158Y001134D01*
X033615Y003024D02*
X033181Y003457D01*
X033181Y003496D01*
X033457Y003496D02*
X033693Y003496D01*
X033733Y003457D01*
X034126Y003457D02*
X034126Y003833D01*
X034418Y004085D01*
X034323Y003991D01*
X034363Y004030D02*
X034418Y004085D01*
X034520Y003457D02*
X035583Y003457D01*
X036016Y003457D02*
X036016Y003103D01*
X035937Y003024D01*
X033615Y003024D01*
X007591Y002945D02*
X007591Y001894D01*
X007119Y001422D01*
X006119Y001422D02*
X005662Y001878D01*
X005662Y002827D01*
X006207Y003372D01*
X006207Y004186D01*
X006457Y004186D02*
X006457Y002760D01*
X006119Y002422D01*
X006717Y002823D02*
X007119Y002422D01*
X006717Y002823D02*
X006717Y004186D01*
X006967Y004186D02*
X006967Y003569D01*
X007591Y002945D01*
X005687Y003443D02*
X005111Y002867D01*
X005111Y002430D01*
X005119Y002422D01*
X004520Y001725D02*
X004835Y001410D01*
X005107Y001410D01*
X005119Y001422D01*
X004520Y001725D02*
X004520Y003260D01*
X005307Y004048D01*
X005307Y004717D01*
X005465Y004874D01*
X005819Y004874D01*
X005947Y004747D01*
X005947Y004186D01*
X005687Y004186D02*
X005687Y003443D01*
D56*
X016646Y015268D02*
X016567Y015347D01*
X016567Y015659D01*
X016581Y015672D01*
X016646Y015268D02*
X017197Y015268D01*
X017119Y015189D01*
X017197Y015268D02*
X017276Y015268D01*
X017341Y015333D01*
X017341Y015672D01*
X017410Y015742D01*
X018284Y015742D01*
X018654Y015742D01*
X019024Y015742D02*
X019285Y015742D01*
X019441Y015898D01*
X019441Y016863D01*
X020898Y018319D01*
X020622Y018260D02*
X019204Y016842D01*
X019024Y016842D01*
X019024Y017024D01*
X018811Y017237D01*
X018323Y017237D01*
X018284Y017197D01*
X018284Y018481D01*
X018300Y018496D01*
X017341Y018392D02*
X017237Y018496D01*
X017341Y018392D02*
X017341Y017276D01*
X017396Y017331D01*
X017473Y017331D01*
X017341Y017276D02*
X017341Y016832D01*
X018284Y016842D02*
X018284Y017197D01*
D57*
X016528Y018496D02*
X014166Y018496D01*
X013890Y018221D01*
X013890Y017670D01*
D58*
X021528Y014048D02*
X021685Y014205D01*
X024520Y014205D01*
X024559Y014166D01*
X024559Y013989D01*
X024599Y013949D01*
X021528Y014048D02*
X021528Y013260D01*
X021174Y012906D01*
X020937Y012906D01*
D59*
X020839Y018260D02*
X020622Y018260D01*
X020681Y018319D01*
X020898Y018319D01*
X020839Y018260D01*
X020898Y018319D02*
X024599Y018319D01*
M02*
