G75*
G70*
%OFA0B0*%
%FSLAX24Y24*%
%IPPOS*%
%LPD*%
%AMOC8*
5,1,8,0,0,1.08239X$1,22.5*
%
%ADD10C,0.0600*%
%ADD11C,0.0476*%
%ADD12C,0.0397*%
%ADD13C,0.0300*%
%ADD14C,0.0515*%
%ADD15C,0.0827*%
%ADD16C,0.0554*%
%ADD17C,0.0277*%
%ADD18C,0.0080*%
%ADD19C,0.0100*%
%ADD20C,0.0120*%
%ADD21C,0.0240*%
D10*
X004071Y008744D03*
X005071Y008744D03*
X006071Y008744D03*
X006071Y009744D03*
X005071Y009744D03*
X004071Y009744D03*
X004815Y018210D03*
X005815Y018310D03*
X006815Y018210D03*
X007815Y018310D03*
X008815Y018210D03*
X003815Y018310D03*
D11*
X029580Y018037D03*
X029580Y016037D03*
D12*
X033126Y012028D03*
X033626Y012028D03*
X034126Y012028D03*
X034126Y011528D03*
X033626Y011528D03*
X033126Y011528D03*
X033126Y011028D03*
X033626Y011028D03*
X034126Y011028D03*
X031981Y010449D03*
X031481Y010449D03*
X030981Y010449D03*
X030981Y009949D03*
X031481Y009949D03*
X031981Y009949D03*
X031981Y009449D03*
X031481Y009449D03*
X030981Y009449D03*
X030981Y007433D03*
X031481Y007433D03*
X031981Y007433D03*
X031981Y006933D03*
X031481Y006933D03*
X030981Y006933D03*
X030981Y006433D03*
X031481Y006433D03*
X031981Y006433D03*
X033126Y006540D03*
X033126Y007040D03*
X033126Y007540D03*
X033626Y007540D03*
X034126Y007540D03*
X034126Y007040D03*
X033626Y007040D03*
X033626Y006540D03*
X034126Y006540D03*
X035461Y005335D03*
X035961Y005335D03*
X036461Y005335D03*
X036461Y004835D03*
X036461Y004335D03*
X035961Y004335D03*
X035461Y004335D03*
X035461Y004835D03*
X035961Y004835D03*
X037126Y013233D03*
X037126Y013733D03*
X037626Y013733D03*
X038126Y013733D03*
X038126Y013233D03*
X037626Y013233D03*
X037626Y014233D03*
X038126Y014233D03*
X037126Y014233D03*
D13*
X017121Y016252D03*
X016801Y016252D03*
D14*
X014678Y017670D03*
X013890Y017670D03*
X003024Y014481D03*
X002237Y014481D03*
X001449Y014481D03*
X001449Y011685D03*
X002237Y011685D03*
X003024Y011685D03*
X001607Y008969D03*
X001607Y008181D03*
X001607Y007394D03*
X001607Y006607D03*
X001607Y005819D03*
D15*
X033378Y015996D03*
X035032Y015996D03*
X035032Y018162D03*
X033378Y018162D03*
X036902Y010957D03*
X038674Y010957D03*
X038674Y009304D03*
X036902Y009304D03*
X036902Y007650D03*
X038674Y007650D03*
D16*
X009119Y002579D03*
X008119Y002579D03*
X007119Y002579D03*
X006119Y002579D03*
X005119Y002579D03*
X005119Y001579D03*
X006119Y001579D03*
X007119Y001579D03*
X008119Y001579D03*
X009119Y001579D03*
D17*
X011607Y003103D03*
X012394Y003103D03*
X013181Y003103D03*
X013969Y003103D03*
X014756Y003103D03*
X016331Y002788D03*
X016370Y003457D03*
X016764Y003969D03*
X017119Y003969D03*
X017276Y002512D03*
X018142Y001685D03*
X018930Y001685D03*
X020504Y001685D03*
X021292Y001685D03*
X022079Y001685D03*
X022079Y000898D03*
X021292Y000898D03*
X020504Y000898D03*
X022867Y000898D03*
X023654Y000898D03*
X024441Y000898D03*
X024441Y001685D03*
X023181Y002827D03*
X022079Y002473D03*
X021292Y002473D03*
X021292Y003260D03*
X022079Y003260D03*
X022079Y004048D03*
X021292Y004048D03*
X021449Y004756D03*
X021764Y004756D03*
X022079Y004756D03*
X022079Y005071D03*
X021764Y005071D03*
X021449Y005071D03*
X021449Y005386D03*
X021764Y005386D03*
X022079Y005386D03*
X022079Y005701D03*
X021764Y005701D03*
X021449Y005701D03*
X021449Y006016D03*
X021764Y006016D03*
X022079Y006016D03*
X022079Y006804D03*
X021292Y006804D03*
X021292Y007591D03*
X022079Y007591D03*
X022079Y008378D03*
X021292Y008378D03*
X021292Y009166D03*
X022079Y009166D03*
X022867Y009166D03*
X022906Y009796D03*
X021410Y010583D03*
X019953Y012512D03*
X021016Y013457D03*
X018339Y014087D03*
X018221Y012867D03*
X017945Y012867D03*
X017670Y012867D03*
X017394Y012867D03*
X014559Y013063D03*
X012433Y012630D03*
X011567Y012630D03*
X008823Y012630D03*
X007670Y012867D03*
X004559Y013142D03*
X009048Y010741D03*
X009520Y010741D03*
X010819Y010741D03*
X010819Y010307D03*
X011016Y009756D03*
X011016Y009323D03*
X010071Y009087D03*
X011020Y008870D03*
X012552Y009008D03*
X012945Y009008D03*
X013339Y009008D03*
X013733Y009008D03*
X014126Y009008D03*
X014520Y009008D03*
X014914Y009008D03*
X015307Y009008D03*
X015701Y009008D03*
X015701Y007945D03*
X015307Y007945D03*
X014914Y007945D03*
X014520Y007945D03*
X014126Y007945D03*
X013733Y007945D03*
X013339Y007945D03*
X012945Y007945D03*
X012552Y007945D03*
X013733Y007237D03*
X013733Y005780D03*
X016370Y005859D03*
X016370Y006174D03*
X016764Y006174D03*
X016764Y005859D03*
X011607Y004402D03*
X010386Y005701D03*
X007867Y006370D03*
X006370Y007079D03*
X005622Y007079D03*
X008418Y008811D03*
X008418Y009244D03*
X008418Y009717D03*
X012985Y010465D03*
X016804Y015189D03*
X017119Y015189D03*
X018654Y016292D03*
X017473Y017331D03*
X017473Y017607D03*
X018890Y017788D03*
X020111Y018300D03*
X021685Y018300D03*
X021292Y015583D03*
X021292Y015307D03*
X021016Y015307D03*
X020741Y015307D03*
X020741Y015583D03*
X021016Y015583D03*
X028300Y017670D03*
X028890Y017670D03*
X028890Y018260D03*
X028300Y018260D03*
X030662Y018260D03*
X031252Y018260D03*
X031252Y017670D03*
X030662Y017670D03*
X031725Y015111D03*
X034441Y015071D03*
X035150Y015071D03*
X037945Y015307D03*
X038536Y015307D03*
X039126Y015307D03*
X039126Y015898D03*
X038536Y015898D03*
X037945Y015898D03*
X038851Y014323D03*
X038851Y014048D03*
X039126Y014048D03*
X039126Y014323D03*
X039126Y013772D03*
X038851Y013772D03*
X038851Y013496D03*
X038851Y013221D03*
X039126Y013221D03*
X039126Y013496D03*
X039126Y012945D03*
X038851Y012945D03*
X038851Y012670D03*
X039126Y012670D03*
X039126Y012394D03*
X038851Y012394D03*
X038851Y012119D03*
X039126Y012119D03*
X038575Y012119D03*
X038575Y012394D03*
X038300Y012394D03*
X038300Y012119D03*
X038024Y012119D03*
X038024Y012394D03*
X037748Y012394D03*
X037473Y012394D03*
X037473Y012119D03*
X037748Y012119D03*
X037748Y011843D03*
X037473Y011843D03*
X037473Y011567D03*
X037748Y011567D03*
X038024Y011843D03*
X037197Y011843D03*
X036922Y011843D03*
X036922Y012119D03*
X036922Y012394D03*
X037197Y012394D03*
X037197Y012119D03*
X036646Y011843D03*
X036370Y011843D03*
X036095Y011843D03*
X036095Y011567D03*
X036370Y011567D03*
X035819Y011567D03*
X035819Y011843D03*
X035780Y012276D03*
X036252Y012276D03*
X036095Y011292D03*
X035819Y011292D03*
X035819Y011016D03*
X035819Y010741D03*
X036095Y010741D03*
X036095Y011016D03*
X035969Y010142D03*
X035969Y009867D03*
X036244Y009867D03*
X036244Y010142D03*
X036520Y010142D03*
X036796Y010142D03*
X037071Y010142D03*
X037347Y010142D03*
X037622Y010142D03*
X037622Y009867D03*
X037898Y009867D03*
X037898Y010142D03*
X037898Y009591D03*
X037622Y009591D03*
X037622Y009315D03*
X037622Y009040D03*
X037622Y008764D03*
X037622Y008489D03*
X037347Y008489D03*
X037071Y008489D03*
X036796Y008489D03*
X036520Y008489D03*
X036244Y008489D03*
X035969Y008489D03*
X035969Y008764D03*
X036244Y008764D03*
X036244Y009040D03*
X035969Y009040D03*
X035969Y009315D03*
X036244Y009315D03*
X035693Y009315D03*
X035693Y009040D03*
X035418Y009040D03*
X035418Y009315D03*
X035142Y009315D03*
X035142Y009040D03*
X034867Y009040D03*
X034867Y009315D03*
X034591Y009315D03*
X034591Y009040D03*
X034315Y009040D03*
X034040Y009040D03*
X034040Y009315D03*
X034315Y009315D03*
X033764Y009315D03*
X033764Y009040D03*
X033489Y009040D03*
X033489Y009315D03*
X033213Y009315D03*
X033213Y009040D03*
X032937Y009040D03*
X032937Y009315D03*
X032937Y009591D03*
X032937Y009867D03*
X032937Y010142D03*
X033213Y010142D03*
X033213Y009867D03*
X033489Y009867D03*
X033489Y010142D03*
X033764Y010142D03*
X033764Y009867D03*
X034040Y009867D03*
X034040Y010142D03*
X034315Y010142D03*
X034315Y009867D03*
X034591Y009867D03*
X034591Y010142D03*
X034867Y010142D03*
X035142Y010142D03*
X035142Y009867D03*
X034867Y009867D03*
X034867Y009591D03*
X035142Y009591D03*
X035418Y009591D03*
X035693Y009591D03*
X035693Y009867D03*
X035693Y010142D03*
X035418Y010142D03*
X035418Y009867D03*
X035969Y009591D03*
X036244Y009591D03*
X035693Y008764D03*
X035418Y008764D03*
X035418Y008489D03*
X035693Y008489D03*
X035142Y008489D03*
X035142Y008764D03*
X034867Y008764D03*
X034867Y008489D03*
X034591Y008489D03*
X034591Y008764D03*
X034315Y008764D03*
X034040Y008764D03*
X034040Y008489D03*
X034315Y008489D03*
X033764Y008489D03*
X033764Y008764D03*
X033489Y008764D03*
X033489Y008489D03*
X033213Y008489D03*
X033213Y008764D03*
X032937Y008764D03*
X032937Y008489D03*
X033213Y009591D03*
X033489Y009591D03*
X033764Y009591D03*
X034040Y009591D03*
X034315Y009591D03*
X034591Y009591D03*
X035859Y007788D03*
X035859Y007162D03*
X036134Y007162D03*
X036134Y006886D03*
X035859Y006886D03*
X035859Y006611D03*
X036134Y006611D03*
X036410Y006611D03*
X036685Y006611D03*
X036685Y006335D03*
X036410Y006335D03*
X036410Y006059D03*
X036685Y006059D03*
X036961Y006059D03*
X037237Y006059D03*
X037237Y005784D03*
X037512Y005784D03*
X037512Y006059D03*
X037788Y006059D03*
X037788Y005784D03*
X038063Y005784D03*
X038063Y006059D03*
X038339Y006059D03*
X038339Y005784D03*
X038615Y005784D03*
X038890Y005784D03*
X038890Y006059D03*
X038615Y006059D03*
X038615Y006335D03*
X038890Y006335D03*
X038890Y006611D03*
X038615Y006611D03*
X038339Y006611D03*
X038063Y006611D03*
X037788Y006611D03*
X037512Y006611D03*
X037237Y006611D03*
X037237Y006335D03*
X037512Y006335D03*
X037788Y006335D03*
X038063Y006335D03*
X038339Y006335D03*
X039166Y006335D03*
X039166Y006059D03*
X039166Y005784D03*
X039166Y005508D03*
X039166Y005233D03*
X038890Y005233D03*
X038890Y005508D03*
X038615Y005508D03*
X038615Y005233D03*
X038615Y004957D03*
X038890Y004957D03*
X038890Y004681D03*
X038615Y004681D03*
X038339Y004681D03*
X038063Y004681D03*
X037788Y004681D03*
X037512Y004681D03*
X037237Y004681D03*
X037237Y004957D03*
X037512Y004957D03*
X037512Y005233D03*
X037512Y005508D03*
X037237Y005508D03*
X037237Y005233D03*
X037788Y005233D03*
X037788Y005508D03*
X038063Y005508D03*
X038063Y005233D03*
X038063Y004957D03*
X037788Y004957D03*
X038339Y004957D03*
X038339Y005233D03*
X038339Y005508D03*
X039166Y004957D03*
X039166Y004681D03*
X039166Y004406D03*
X038890Y004406D03*
X038615Y004406D03*
X038339Y004406D03*
X038063Y004406D03*
X037788Y004406D03*
X037512Y004406D03*
X037237Y004406D03*
X036016Y003457D03*
X035583Y003457D03*
X034520Y003457D03*
X034126Y003457D03*
X033733Y003457D03*
X033260Y001134D03*
X034244Y001134D03*
X035268Y001134D03*
X032158Y001134D03*
X031174Y001134D03*
X030111Y001134D03*
X029048Y001134D03*
X029048Y002433D03*
X028457Y002433D03*
X028457Y002906D03*
X029048Y002906D03*
X028300Y003449D03*
X027430Y003449D03*
X026922Y002945D03*
X026449Y002945D03*
X026449Y002512D03*
X026449Y002079D03*
X026922Y002079D03*
X026449Y001666D03*
X026449Y001252D03*
X026449Y000741D03*
X027512Y004756D03*
X027473Y006804D03*
X026213Y007788D03*
X026213Y008181D03*
X026213Y008575D03*
X026213Y008969D03*
X028181Y009481D03*
X030378Y008473D03*
X030268Y011292D03*
X030741Y012040D03*
X029048Y012355D03*
X022867Y008378D03*
X035859Y006335D03*
X036134Y006335D03*
X036134Y006059D03*
X035859Y006059D03*
X036961Y006335D03*
X036961Y006611D03*
X036961Y006886D03*
X036685Y006886D03*
X036410Y006886D03*
X037237Y006886D03*
X037512Y006886D03*
X037788Y006886D03*
X038063Y006886D03*
X038063Y007162D03*
X037788Y007162D03*
X037788Y007437D03*
X037788Y007713D03*
X037512Y007162D03*
X039166Y006611D03*
X037898Y008489D03*
X037898Y008764D03*
X037898Y009040D03*
X037898Y009315D03*
X037748Y010741D03*
X037748Y011016D03*
X037748Y011292D03*
X007748Y015937D03*
X007119Y015977D03*
X004678Y004244D03*
X002158Y003890D03*
X000977Y003890D03*
D18*
X006071Y008744D02*
X006571Y009244D01*
X008418Y009244D01*
X009048Y009756D02*
X004874Y013930D01*
X004874Y015622D01*
X003811Y016685D01*
X003811Y018306D01*
X003815Y018310D01*
X006815Y018210D02*
X006815Y017737D01*
X010307Y014244D01*
X010307Y010662D01*
X010662Y010307D01*
X010819Y010307D01*
X010819Y010741D02*
X010819Y014481D01*
X007815Y017485D01*
X007815Y018310D01*
X015347Y016567D02*
X015347Y014284D01*
X018113Y014284D01*
X018170Y014340D01*
X018280Y014386D01*
X018398Y014386D01*
X018508Y014340D01*
X018565Y014284D01*
X019638Y014284D01*
X019638Y016567D01*
X018843Y016567D01*
X018933Y016478D01*
X018983Y016357D01*
X018983Y016226D01*
X018933Y016106D01*
X018840Y016013D01*
X018719Y015963D01*
X018589Y015963D01*
X018468Y016013D01*
X018375Y016106D01*
X018325Y016226D01*
X018325Y016357D01*
X018375Y016478D01*
X018465Y016567D01*
X015347Y016567D01*
X015347Y016557D02*
X016725Y016557D01*
X016739Y016562D02*
X016625Y016515D01*
X016538Y016428D01*
X016491Y016314D01*
X016491Y016191D01*
X016538Y016077D01*
X016625Y015990D01*
X016739Y015942D01*
X016863Y015942D01*
X016961Y015983D01*
X017059Y015942D01*
X017183Y015942D01*
X017297Y015990D01*
X017384Y016077D01*
X017431Y016191D01*
X017431Y016314D01*
X017384Y016428D01*
X017297Y016515D01*
X017183Y016562D01*
X017059Y016562D01*
X016961Y016522D01*
X016863Y016562D01*
X016739Y016562D01*
X016877Y016557D02*
X017045Y016557D01*
X017197Y016557D02*
X018454Y016557D01*
X018375Y016478D02*
X017334Y016478D01*
X017396Y016400D02*
X018343Y016400D01*
X018325Y016321D02*
X017428Y016321D01*
X017431Y016243D02*
X018325Y016243D01*
X018351Y016164D02*
X017420Y016164D01*
X017387Y016086D02*
X018395Y016086D01*
X018482Y016007D02*
X017314Y016007D01*
X016608Y016007D02*
X015347Y016007D01*
X015347Y015929D02*
X019638Y015929D01*
X019638Y016007D02*
X018826Y016007D01*
X018913Y016086D02*
X019638Y016086D01*
X019638Y016164D02*
X018957Y016164D01*
X018983Y016243D02*
X019638Y016243D01*
X019638Y016321D02*
X018983Y016321D01*
X018965Y016400D02*
X019638Y016400D01*
X019638Y016478D02*
X018933Y016478D01*
X018854Y016557D02*
X019638Y016557D01*
X019868Y016557D02*
X027670Y016557D01*
X027670Y016635D02*
X019868Y016635D01*
X019868Y016642D02*
X019868Y014379D01*
X019868Y014189D01*
X019733Y014054D01*
X018668Y014054D01*
X018668Y014022D01*
X018618Y013901D01*
X018525Y013808D01*
X018404Y013758D01*
X018274Y013758D01*
X018153Y013808D01*
X018060Y013901D01*
X018010Y014022D01*
X018010Y014054D01*
X016059Y014054D01*
X016059Y011252D01*
X027670Y011252D01*
X027670Y018863D01*
X022276Y018875D01*
X022283Y018869D01*
X022319Y018780D01*
X022319Y016835D01*
X022283Y016746D01*
X022215Y016679D01*
X022127Y016642D01*
X019868Y016642D01*
X019868Y016478D02*
X027670Y016478D01*
X027670Y016400D02*
X019868Y016400D01*
X019868Y016321D02*
X027670Y016321D01*
X027670Y016243D02*
X019868Y016243D01*
X019868Y016164D02*
X027670Y016164D01*
X027670Y016086D02*
X019868Y016086D01*
X019868Y016007D02*
X027670Y016007D01*
X027670Y015929D02*
X019868Y015929D01*
X019868Y015850D02*
X020604Y015850D01*
X020571Y015836D02*
X020487Y015752D01*
X020442Y015642D01*
X020442Y015524D01*
X020474Y015445D01*
X020442Y015367D01*
X020442Y015248D01*
X020487Y015138D01*
X020571Y015054D01*
X020681Y015009D01*
X020800Y015009D01*
X020878Y015041D01*
X020957Y015009D01*
X021076Y015009D01*
X021154Y015041D01*
X021232Y015009D01*
X021351Y015009D01*
X021461Y015054D01*
X021545Y015138D01*
X021590Y015248D01*
X021590Y015367D01*
X021558Y015445D01*
X021590Y015524D01*
X021590Y015642D01*
X021545Y015752D01*
X021461Y015836D01*
X021351Y015882D01*
X021232Y015882D01*
X021154Y015849D01*
X021076Y015882D01*
X020957Y015882D01*
X020878Y015849D01*
X020800Y015882D01*
X020681Y015882D01*
X020571Y015836D01*
X020507Y015772D02*
X019868Y015772D01*
X019868Y015693D02*
X020463Y015693D01*
X020442Y015615D02*
X019868Y015615D01*
X019868Y015536D02*
X020442Y015536D01*
X020469Y015458D02*
X019868Y015458D01*
X019868Y015379D02*
X020447Y015379D01*
X020442Y015301D02*
X019868Y015301D01*
X019868Y015222D02*
X020453Y015222D01*
X020485Y015144D02*
X019868Y015144D01*
X019868Y015065D02*
X020561Y015065D01*
X019868Y014987D02*
X027670Y014987D01*
X027670Y015065D02*
X021472Y015065D01*
X021547Y015144D02*
X027670Y015144D01*
X027670Y015222D02*
X021580Y015222D01*
X021590Y015301D02*
X027670Y015301D01*
X027670Y015379D02*
X021585Y015379D01*
X021563Y015458D02*
X027670Y015458D01*
X027670Y015536D02*
X021590Y015536D01*
X021590Y015615D02*
X027670Y015615D01*
X027670Y015693D02*
X021570Y015693D01*
X021526Y015772D02*
X027670Y015772D01*
X027670Y015850D02*
X021428Y015850D01*
X021156Y015850D02*
X021152Y015850D01*
X020880Y015850D02*
X020877Y015850D01*
X019638Y015850D02*
X015347Y015850D01*
X015347Y015772D02*
X019638Y015772D01*
X019638Y015693D02*
X015347Y015693D01*
X015347Y015615D02*
X019638Y015615D01*
X019638Y015536D02*
X015347Y015536D01*
X015347Y015458D02*
X019638Y015458D01*
X019638Y015379D02*
X015347Y015379D01*
X015347Y015301D02*
X019638Y015301D01*
X019638Y015222D02*
X015347Y015222D01*
X015347Y015144D02*
X019638Y015144D01*
X019638Y015065D02*
X015347Y015065D01*
X015347Y014987D02*
X019638Y014987D01*
X019638Y014908D02*
X015347Y014908D01*
X015347Y014830D02*
X019638Y014830D01*
X019638Y014751D02*
X015347Y014751D01*
X015347Y014673D02*
X019638Y014673D01*
X019638Y014594D02*
X015347Y014594D01*
X015347Y014516D02*
X019638Y014516D01*
X019638Y014437D02*
X015347Y014437D01*
X015347Y014359D02*
X018214Y014359D01*
X018464Y014359D02*
X019638Y014359D01*
X019868Y014359D02*
X027670Y014359D01*
X027670Y014437D02*
X019868Y014437D01*
X019868Y014516D02*
X027670Y014516D01*
X027670Y014594D02*
X019868Y014594D01*
X019868Y014673D02*
X027670Y014673D01*
X027670Y014751D02*
X019868Y014751D01*
X019868Y014830D02*
X027670Y014830D01*
X027670Y014908D02*
X019868Y014908D01*
X019868Y014280D02*
X027670Y014280D01*
X027670Y014202D02*
X019868Y014202D01*
X019803Y014123D02*
X027670Y014123D01*
X027670Y014045D02*
X018668Y014045D01*
X018645Y013966D02*
X027670Y013966D01*
X027670Y013888D02*
X018604Y013888D01*
X018526Y013809D02*
X027670Y013809D01*
X027670Y013731D02*
X021208Y013731D01*
X021202Y013736D02*
X021082Y013786D01*
X020951Y013786D01*
X020830Y013736D01*
X020737Y013643D01*
X020687Y013522D01*
X020687Y013392D01*
X020737Y013271D01*
X020830Y013178D01*
X020951Y013128D01*
X021082Y013128D01*
X021202Y013178D01*
X021295Y013271D01*
X021345Y013392D01*
X021345Y013522D01*
X021295Y013643D01*
X021202Y013736D01*
X021286Y013652D02*
X027670Y013652D01*
X027670Y013574D02*
X021324Y013574D01*
X021345Y013495D02*
X027670Y013495D01*
X027670Y013417D02*
X021345Y013417D01*
X021323Y013338D02*
X027670Y013338D01*
X027670Y013260D02*
X021284Y013260D01*
X021205Y013181D02*
X027670Y013181D01*
X027670Y013103D02*
X016059Y013103D01*
X016059Y013181D02*
X020827Y013181D01*
X020749Y013260D02*
X016059Y013260D01*
X016059Y013338D02*
X020710Y013338D01*
X020687Y013417D02*
X016059Y013417D01*
X016059Y013495D02*
X020687Y013495D01*
X020709Y013574D02*
X016059Y013574D01*
X016059Y013652D02*
X020746Y013652D01*
X020825Y013731D02*
X016059Y013731D01*
X016059Y013809D02*
X018152Y013809D01*
X018074Y013888D02*
X016059Y013888D01*
X016059Y013966D02*
X018033Y013966D01*
X018010Y014045D02*
X016059Y014045D01*
X016059Y013024D02*
X027670Y013024D01*
X027670Y012946D02*
X016059Y012946D01*
X016059Y012867D02*
X027670Y012867D01*
X027670Y012789D02*
X020067Y012789D01*
X020013Y012811D02*
X019894Y012811D01*
X019784Y012765D01*
X019700Y012681D01*
X019654Y012572D01*
X019654Y012453D01*
X019700Y012343D01*
X019784Y012259D01*
X019894Y012213D01*
X020013Y012213D01*
X020122Y012259D01*
X020206Y012343D01*
X020252Y012453D01*
X020252Y012572D01*
X020206Y012681D01*
X020122Y012765D01*
X020013Y012811D01*
X019840Y012789D02*
X016059Y012789D01*
X016059Y012710D02*
X019729Y012710D01*
X019679Y012632D02*
X016059Y012632D01*
X016059Y012553D02*
X019654Y012553D01*
X019654Y012475D02*
X016059Y012475D01*
X016059Y012396D02*
X019678Y012396D01*
X019725Y012318D02*
X016059Y012318D01*
X016059Y012239D02*
X019832Y012239D01*
X020074Y012239D02*
X027670Y012239D01*
X027670Y012161D02*
X016059Y012161D01*
X016059Y012082D02*
X027670Y012082D01*
X027670Y012004D02*
X016059Y012004D01*
X016059Y011925D02*
X027670Y011925D01*
X027670Y011847D02*
X016059Y011847D01*
X016059Y011768D02*
X027670Y011768D01*
X027670Y011690D02*
X016059Y011690D01*
X016059Y011611D02*
X027670Y011611D01*
X027670Y011533D02*
X016059Y011533D01*
X016059Y011454D02*
X027670Y011454D01*
X027670Y011376D02*
X016059Y011376D01*
X016059Y011297D02*
X027670Y011297D01*
X027670Y012318D02*
X020181Y012318D01*
X020228Y012396D02*
X027670Y012396D01*
X027670Y012475D02*
X020252Y012475D01*
X020252Y012553D02*
X027670Y012553D01*
X027670Y012632D02*
X020227Y012632D01*
X020178Y012710D02*
X027670Y012710D01*
X027670Y016714D02*
X022250Y016714D01*
X022302Y016792D02*
X027670Y016792D01*
X027670Y016871D02*
X022319Y016871D01*
X022319Y016949D02*
X027670Y016949D01*
X027670Y017028D02*
X022319Y017028D01*
X022319Y017106D02*
X027670Y017106D01*
X027670Y017185D02*
X022319Y017185D01*
X022319Y017263D02*
X027670Y017263D01*
X027670Y017342D02*
X022319Y017342D01*
X022319Y017420D02*
X027670Y017420D01*
X027670Y017499D02*
X022319Y017499D01*
X022319Y017577D02*
X027670Y017577D01*
X027670Y017656D02*
X022319Y017656D01*
X022319Y017734D02*
X027670Y017734D01*
X027670Y017813D02*
X022319Y017813D01*
X022319Y017891D02*
X027670Y017891D01*
X027670Y017970D02*
X022319Y017970D01*
X022319Y018048D02*
X027670Y018048D01*
X027670Y018127D02*
X022319Y018127D01*
X022319Y018205D02*
X027670Y018205D01*
X027670Y018284D02*
X022319Y018284D01*
X022319Y018362D02*
X027670Y018362D01*
X027670Y018441D02*
X022319Y018441D01*
X022319Y018519D02*
X027670Y018519D01*
X027670Y018598D02*
X022319Y018598D01*
X022319Y018676D02*
X027670Y018676D01*
X027670Y018755D02*
X022319Y018755D01*
X022297Y018833D02*
X027670Y018833D01*
X016588Y016478D02*
X015347Y016478D01*
X015347Y016400D02*
X016526Y016400D01*
X016494Y016321D02*
X015347Y016321D01*
X015347Y016243D02*
X016491Y016243D01*
X016502Y016164D02*
X015347Y016164D01*
X015347Y016086D02*
X016535Y016086D01*
X011016Y009756D02*
X009048Y009756D01*
X012119Y009363D02*
X015977Y009363D01*
X015977Y007552D01*
X012119Y007552D01*
X012119Y009363D01*
X012119Y009335D02*
X015977Y009335D01*
X015977Y009256D02*
X012119Y009256D01*
X012119Y009178D02*
X015977Y009178D01*
X015977Y009099D02*
X012119Y009099D01*
X012119Y009021D02*
X015977Y009021D01*
X015977Y008942D02*
X012119Y008942D01*
X012119Y008864D02*
X015977Y008864D01*
X015977Y008785D02*
X012119Y008785D01*
X012119Y008707D02*
X015977Y008707D01*
X015977Y008628D02*
X012119Y008628D01*
X012119Y008550D02*
X015977Y008550D01*
X015977Y008471D02*
X012119Y008471D01*
X012119Y008393D02*
X015977Y008393D01*
X015977Y008314D02*
X012119Y008314D01*
X012119Y008236D02*
X015977Y008236D01*
X015977Y008157D02*
X012119Y008157D01*
X012119Y008079D02*
X015977Y008079D01*
X015977Y008000D02*
X012119Y008000D01*
X012119Y007922D02*
X015977Y007922D01*
X015977Y007843D02*
X012119Y007843D01*
X012119Y007765D02*
X015977Y007765D01*
X015977Y007686D02*
X012119Y007686D01*
X012119Y007608D02*
X015977Y007608D01*
D19*
X015819Y000643D02*
X000895Y000643D01*
X000907Y000630D02*
X000630Y000907D01*
X000434Y001246D01*
X000333Y001624D01*
X000320Y001820D01*
X000320Y017818D01*
X000333Y017983D01*
X000436Y018299D01*
X000630Y018567D01*
X000899Y018762D01*
X001214Y018865D01*
X001380Y018878D01*
X012858Y018878D01*
X012804Y018824D01*
X012804Y017225D01*
X012742Y017163D01*
X012677Y017006D01*
X012677Y016837D01*
X012742Y016680D01*
X012861Y016561D01*
X013018Y016496D01*
X013187Y016496D01*
X013344Y016561D01*
X013446Y016662D01*
X015819Y016662D01*
X015819Y013323D01*
X014778Y013323D01*
X014751Y013351D01*
X014627Y013402D01*
X014492Y013402D01*
X014368Y013351D01*
X014272Y013255D01*
X014221Y013131D01*
X014221Y012996D01*
X014272Y012872D01*
X014368Y012776D01*
X014492Y012725D01*
X014627Y012725D01*
X014751Y012776D01*
X014778Y012803D01*
X015819Y012803D01*
X015819Y009573D01*
X012032Y009573D01*
X011909Y009450D01*
X011909Y007465D01*
X012032Y007342D01*
X013442Y007342D01*
X013424Y007298D01*
X013424Y007175D01*
X013471Y007062D01*
X013558Y006975D01*
X013671Y006928D01*
X013794Y006928D01*
X013908Y006975D01*
X013994Y007062D01*
X014041Y007175D01*
X014041Y007298D01*
X014023Y007342D01*
X015819Y007342D01*
X015819Y000320D01*
X001820Y000320D01*
X001624Y000333D01*
X001246Y000434D01*
X000907Y000630D01*
X000796Y000741D02*
X015819Y000741D01*
X015819Y000840D02*
X000698Y000840D01*
X000612Y000938D02*
X015819Y000938D01*
X015819Y001037D02*
X002075Y001037D01*
X002161Y001072D02*
X002378Y001289D01*
X002495Y001572D01*
X002495Y001878D01*
X002378Y002161D01*
X002161Y002378D01*
X001878Y002495D01*
X001572Y002495D01*
X001289Y002378D01*
X001072Y002161D01*
X000955Y001878D01*
X000955Y001572D01*
X001072Y001289D01*
X001289Y001072D01*
X001572Y000955D01*
X001878Y000955D01*
X002161Y001072D01*
X002224Y001135D02*
X005022Y001135D01*
X005030Y001132D02*
X005207Y001132D01*
X005372Y001200D01*
X005498Y001326D01*
X005566Y001490D01*
X005566Y001668D01*
X005498Y001832D01*
X005372Y001958D01*
X005207Y002026D01*
X005030Y002026D01*
X004865Y001958D01*
X004739Y001832D01*
X004671Y001668D01*
X004671Y001490D01*
X004739Y001326D01*
X004865Y001200D01*
X005030Y001132D01*
X005215Y001135D02*
X006022Y001135D01*
X006030Y001132D02*
X006207Y001132D01*
X006372Y001200D01*
X006498Y001326D01*
X006566Y001490D01*
X006566Y001668D01*
X006498Y001832D01*
X006372Y001958D01*
X006207Y002026D01*
X006030Y002026D01*
X005865Y001958D01*
X005739Y001832D01*
X005671Y001668D01*
X005671Y001490D01*
X005739Y001326D01*
X005865Y001200D01*
X006030Y001132D01*
X006215Y001135D02*
X007022Y001135D01*
X007030Y001132D02*
X007207Y001132D01*
X007372Y001200D01*
X007498Y001326D01*
X007566Y001490D01*
X007566Y001668D01*
X007498Y001832D01*
X007372Y001958D01*
X007207Y002026D01*
X007030Y002026D01*
X006865Y001958D01*
X006739Y001832D01*
X006671Y001668D01*
X006671Y001490D01*
X006739Y001326D01*
X006865Y001200D01*
X007030Y001132D01*
X007215Y001135D02*
X008022Y001135D01*
X008030Y001132D02*
X008207Y001132D01*
X008372Y001200D01*
X008498Y001326D01*
X008566Y001490D01*
X008566Y001668D01*
X008498Y001832D01*
X008372Y001958D01*
X008207Y002026D01*
X008030Y002026D01*
X007865Y001958D01*
X007739Y001832D01*
X007671Y001668D01*
X007671Y001490D01*
X007739Y001326D01*
X007865Y001200D01*
X008030Y001132D01*
X008215Y001135D02*
X015819Y001135D01*
X015819Y001234D02*
X008405Y001234D01*
X008500Y001332D02*
X015819Y001332D01*
X015819Y001431D02*
X008541Y001431D01*
X008566Y001529D02*
X015819Y001529D01*
X015819Y001628D02*
X008566Y001628D01*
X008542Y001726D02*
X015819Y001726D01*
X015819Y001825D02*
X008501Y001825D01*
X008407Y001923D02*
X015819Y001923D01*
X015819Y002022D02*
X008219Y002022D01*
X008207Y002132D02*
X008372Y002200D01*
X008498Y002326D01*
X008566Y002490D01*
X008566Y002668D01*
X008498Y002832D01*
X008372Y002958D01*
X008207Y003026D01*
X008030Y003026D01*
X007865Y002958D01*
X007739Y002832D01*
X007671Y002668D01*
X007671Y002490D01*
X007739Y002326D01*
X007865Y002200D01*
X008030Y002132D01*
X008207Y002132D01*
X008390Y002219D02*
X008847Y002219D01*
X008865Y002200D02*
X009030Y002132D01*
X009207Y002132D01*
X009372Y002200D01*
X009498Y002326D01*
X009566Y002490D01*
X009566Y002668D01*
X009498Y002832D01*
X009372Y002958D01*
X009207Y003026D01*
X009030Y003026D01*
X008865Y002958D01*
X008739Y002832D01*
X008671Y002668D01*
X008671Y002490D01*
X008739Y002326D01*
X008865Y002200D01*
X008748Y002317D02*
X008489Y002317D01*
X008535Y002416D02*
X008702Y002416D01*
X008671Y002514D02*
X008566Y002514D01*
X008566Y002613D02*
X008671Y002613D01*
X008689Y002711D02*
X008548Y002711D01*
X008507Y002810D02*
X008730Y002810D01*
X008815Y002908D02*
X008422Y002908D01*
X008255Y003007D02*
X008982Y003007D01*
X009255Y003007D02*
X011312Y003007D01*
X011298Y003041D02*
X011345Y002928D01*
X011432Y002841D01*
X011545Y002794D01*
X011668Y002794D01*
X011782Y002841D01*
X011868Y002928D01*
X011915Y003041D01*
X011915Y003164D01*
X011868Y003278D01*
X011782Y003364D01*
X011668Y003411D01*
X011545Y003411D01*
X011432Y003364D01*
X011345Y003278D01*
X011298Y003164D01*
X011298Y003041D01*
X011298Y003105D02*
X000320Y003105D01*
X000320Y003007D02*
X004982Y003007D01*
X005030Y003026D02*
X004865Y002958D01*
X004739Y002832D01*
X004671Y002668D01*
X004671Y002490D01*
X004739Y002326D01*
X004865Y002200D01*
X005030Y002132D01*
X005207Y002132D01*
X005372Y002200D01*
X005498Y002326D01*
X005566Y002490D01*
X005566Y002668D01*
X005498Y002832D01*
X005372Y002958D01*
X005207Y003026D01*
X005030Y003026D01*
X005255Y003007D02*
X005982Y003007D01*
X006030Y003026D02*
X005865Y002958D01*
X005739Y002832D01*
X005671Y002668D01*
X005671Y002490D01*
X005739Y002326D01*
X005865Y002200D01*
X006030Y002132D01*
X006207Y002132D01*
X006372Y002200D01*
X006498Y002326D01*
X006566Y002490D01*
X006566Y002668D01*
X006498Y002832D01*
X006372Y002958D01*
X006207Y003026D01*
X006030Y003026D01*
X006255Y003007D02*
X006982Y003007D01*
X007030Y003026D02*
X006865Y002958D01*
X006739Y002832D01*
X006671Y002668D01*
X006671Y002490D01*
X006739Y002326D01*
X006865Y002200D01*
X007030Y002132D01*
X007207Y002132D01*
X007372Y002200D01*
X007498Y002326D01*
X007566Y002490D01*
X007566Y002668D01*
X007498Y002832D01*
X007372Y002958D01*
X007207Y003026D01*
X007030Y003026D01*
X007255Y003007D02*
X007982Y003007D01*
X007815Y002908D02*
X007422Y002908D01*
X007507Y002810D02*
X007730Y002810D01*
X007689Y002711D02*
X007548Y002711D01*
X007566Y002613D02*
X007671Y002613D01*
X007671Y002514D02*
X007566Y002514D01*
X007535Y002416D02*
X007702Y002416D01*
X007748Y002317D02*
X007489Y002317D01*
X007390Y002219D02*
X007847Y002219D01*
X008018Y002022D02*
X007219Y002022D01*
X007018Y002022D02*
X006219Y002022D01*
X006018Y002022D02*
X005219Y002022D01*
X005018Y002022D02*
X002435Y002022D01*
X002395Y002120D02*
X015819Y002120D01*
X015819Y002219D02*
X009390Y002219D01*
X009489Y002317D02*
X015819Y002317D01*
X015819Y002416D02*
X009535Y002416D01*
X009566Y002514D02*
X015819Y002514D01*
X015819Y002613D02*
X009566Y002613D01*
X009548Y002711D02*
X015819Y002711D01*
X015819Y002810D02*
X014855Y002810D01*
X014818Y002794D02*
X014931Y002841D01*
X015018Y002928D01*
X015065Y003041D01*
X015065Y003164D01*
X015018Y003278D01*
X014931Y003364D01*
X014818Y003411D01*
X014695Y003411D01*
X014581Y003364D01*
X014495Y003278D01*
X014448Y003164D01*
X014448Y003041D01*
X014495Y002928D01*
X014581Y002841D01*
X014695Y002794D01*
X014818Y002794D01*
X014657Y002810D02*
X014068Y002810D01*
X014030Y002794D02*
X014144Y002841D01*
X014231Y002928D01*
X014278Y003041D01*
X014278Y003164D01*
X014231Y003278D01*
X014144Y003364D01*
X014030Y003411D01*
X013907Y003411D01*
X013794Y003364D01*
X013707Y003278D01*
X013660Y003164D01*
X013660Y003041D01*
X013707Y002928D01*
X013794Y002841D01*
X013907Y002794D01*
X014030Y002794D01*
X013870Y002810D02*
X013280Y002810D01*
X013243Y002794D02*
X013356Y002841D01*
X013443Y002928D01*
X013490Y003041D01*
X013490Y003164D01*
X013443Y003278D01*
X013356Y003364D01*
X013243Y003411D01*
X013120Y003411D01*
X013007Y003364D01*
X012920Y003278D01*
X012873Y003164D01*
X012873Y003041D01*
X012920Y002928D01*
X013007Y002841D01*
X013120Y002794D01*
X013243Y002794D01*
X013083Y002810D02*
X012493Y002810D01*
X012456Y002794D02*
X012569Y002841D01*
X012656Y002928D01*
X012703Y003041D01*
X012703Y003164D01*
X012656Y003278D01*
X012569Y003364D01*
X012456Y003411D01*
X012333Y003411D01*
X012219Y003364D01*
X012132Y003278D01*
X012085Y003164D01*
X012085Y003041D01*
X012132Y002928D01*
X012219Y002841D01*
X012333Y002794D01*
X012456Y002794D01*
X012295Y002810D02*
X011706Y002810D01*
X011849Y002908D02*
X012152Y002908D01*
X012100Y003007D02*
X011901Y003007D01*
X011915Y003105D02*
X012085Y003105D01*
X012102Y003204D02*
X011899Y003204D01*
X011844Y003302D02*
X012157Y003302D01*
X012306Y003401D02*
X011695Y003401D01*
X011519Y003401D02*
X000320Y003401D01*
X000320Y003499D02*
X015819Y003499D01*
X015819Y003401D02*
X014844Y003401D01*
X014668Y003401D02*
X014057Y003401D01*
X013881Y003401D02*
X013269Y003401D01*
X013094Y003401D02*
X012482Y003401D01*
X012631Y003302D02*
X012944Y003302D01*
X012889Y003204D02*
X012687Y003204D01*
X012703Y003105D02*
X012873Y003105D01*
X012887Y003007D02*
X012688Y003007D01*
X012636Y002908D02*
X012940Y002908D01*
X013423Y002908D02*
X013727Y002908D01*
X013675Y003007D02*
X013476Y003007D01*
X013490Y003105D02*
X013660Y003105D01*
X013676Y003204D02*
X013474Y003204D01*
X013419Y003302D02*
X013732Y003302D01*
X014206Y003302D02*
X014519Y003302D01*
X014464Y003204D02*
X014261Y003204D01*
X014278Y003105D02*
X014448Y003105D01*
X014462Y003007D02*
X014263Y003007D01*
X014211Y002908D02*
X014514Y002908D01*
X014998Y002908D02*
X015819Y002908D01*
X015819Y003007D02*
X015051Y003007D01*
X015065Y003105D02*
X015819Y003105D01*
X015819Y003204D02*
X015049Y003204D01*
X014994Y003302D02*
X015819Y003302D01*
X015819Y003598D02*
X002258Y003598D01*
X002219Y003581D02*
X002333Y003628D01*
X002420Y003715D01*
X002467Y003829D01*
X002467Y003952D01*
X002420Y004065D01*
X002333Y004152D01*
X002219Y004199D01*
X002096Y004199D01*
X001983Y004152D01*
X001896Y004065D01*
X001849Y003952D01*
X001849Y003829D01*
X001896Y003715D01*
X001983Y003628D01*
X002096Y003581D01*
X002219Y003581D01*
X002058Y003598D02*
X001077Y003598D01*
X001038Y003581D02*
X001152Y003628D01*
X001239Y003715D01*
X001286Y003829D01*
X001286Y003952D01*
X001239Y004065D01*
X001152Y004152D01*
X001038Y004199D01*
X000915Y004199D01*
X000802Y004152D01*
X000715Y004065D01*
X000668Y003952D01*
X000668Y003829D01*
X000715Y003715D01*
X000802Y003628D01*
X000915Y003581D01*
X001038Y003581D01*
X000877Y003598D02*
X000320Y003598D01*
X000320Y003696D02*
X000734Y003696D01*
X000682Y003795D02*
X000320Y003795D01*
X000320Y003893D02*
X000668Y003893D01*
X000685Y003992D02*
X000320Y003992D01*
X000320Y004090D02*
X000740Y004090D01*
X000890Y004189D02*
X000320Y004189D01*
X000320Y004287D02*
X004369Y004287D01*
X004369Y004306D02*
X004369Y004183D01*
X004416Y004070D01*
X004503Y003983D01*
X004616Y003936D01*
X004739Y003936D01*
X004852Y003983D01*
X004939Y004070D01*
X004986Y004183D01*
X004986Y004306D01*
X004939Y004419D01*
X004852Y004506D01*
X004739Y004553D01*
X004616Y004553D01*
X004503Y004506D01*
X004416Y004419D01*
X004369Y004306D01*
X004402Y004386D02*
X000320Y004386D01*
X000320Y004484D02*
X004480Y004484D01*
X004875Y004484D02*
X011306Y004484D01*
X011298Y004463D02*
X011298Y004341D01*
X011345Y004227D01*
X011432Y004140D01*
X011545Y004093D01*
X011668Y004093D01*
X011782Y004140D01*
X011868Y004227D01*
X011915Y004341D01*
X011915Y004463D01*
X011868Y004577D01*
X011782Y004664D01*
X011668Y004711D01*
X011545Y004711D01*
X011432Y004664D01*
X011345Y004577D01*
X011298Y004463D01*
X011298Y004386D02*
X004953Y004386D01*
X004986Y004287D02*
X011320Y004287D01*
X011384Y004189D02*
X004986Y004189D01*
X004948Y004090D02*
X015819Y004090D01*
X015819Y003992D02*
X004861Y003992D01*
X004494Y003992D02*
X002450Y003992D01*
X002467Y003893D02*
X015819Y003893D01*
X015819Y003795D02*
X002452Y003795D01*
X002400Y003696D02*
X015819Y003696D01*
X016095Y003696D02*
X016116Y003696D01*
X016095Y003675D02*
X016095Y007330D01*
X016118Y007340D01*
X016189Y007410D01*
X016227Y007502D01*
X016227Y009412D01*
X016189Y009504D01*
X016118Y009575D01*
X016095Y009584D01*
X016095Y011016D01*
X027315Y011016D01*
X027315Y010086D01*
X025478Y010086D01*
X025357Y010036D01*
X025264Y009943D01*
X022902Y007581D01*
X022851Y007460D01*
X022851Y002942D01*
X022833Y002897D01*
X022833Y002758D01*
X022886Y002630D01*
X022984Y002532D01*
X023112Y002478D01*
X023251Y002478D01*
X023379Y002532D01*
X023477Y002630D01*
X023530Y002758D01*
X023530Y002897D01*
X023511Y002942D01*
X023511Y007257D01*
X025680Y009426D01*
X027315Y009426D01*
X027315Y007116D01*
X027275Y007099D01*
X027177Y007001D01*
X027124Y006873D01*
X027124Y006734D01*
X027177Y006606D01*
X027275Y006508D01*
X027315Y006491D01*
X027315Y005052D01*
X027217Y004954D01*
X027163Y004826D01*
X027163Y004687D01*
X027217Y004559D01*
X027315Y004461D01*
X027315Y004460D01*
X027315Y003779D01*
X027232Y003745D01*
X027134Y003647D01*
X027081Y003519D01*
X027081Y003380D01*
X027134Y003252D01*
X027232Y003154D01*
X027315Y003119D01*
X027315Y000360D01*
X016095Y000360D01*
X016095Y002531D01*
X016134Y002492D01*
X016262Y002439D01*
X016400Y002439D01*
X016529Y002492D01*
X016627Y002590D01*
X016680Y002718D01*
X016680Y002857D01*
X016627Y002985D01*
X016529Y003083D01*
X016454Y003114D01*
X016568Y003161D01*
X016666Y003260D01*
X016719Y003388D01*
X016719Y003526D01*
X016666Y003655D01*
X016568Y003753D01*
X016440Y003806D01*
X016301Y003806D01*
X016173Y003753D01*
X016095Y003675D01*
X016095Y003795D02*
X016274Y003795D01*
X016467Y003795D02*
X022851Y003795D01*
X022851Y003893D02*
X016095Y003893D01*
X016095Y003992D02*
X022851Y003992D01*
X022851Y004090D02*
X016095Y004090D01*
X016095Y004189D02*
X022851Y004189D01*
X022851Y004287D02*
X016095Y004287D01*
X016095Y004386D02*
X022851Y004386D01*
X022851Y004484D02*
X016095Y004484D01*
X016095Y004583D02*
X022851Y004583D01*
X022851Y004681D02*
X016095Y004681D01*
X016095Y004780D02*
X022851Y004780D01*
X022851Y004878D02*
X016095Y004878D01*
X016095Y004977D02*
X022851Y004977D01*
X022851Y005075D02*
X016095Y005075D01*
X016095Y005174D02*
X022851Y005174D01*
X022851Y005272D02*
X016095Y005272D01*
X016095Y005371D02*
X022851Y005371D01*
X022851Y005469D02*
X016095Y005469D01*
X016095Y005568D02*
X022851Y005568D01*
X022851Y005666D02*
X016095Y005666D01*
X016095Y005765D02*
X022851Y005765D01*
X022851Y005863D02*
X016095Y005863D01*
X016095Y005962D02*
X022851Y005962D01*
X022851Y006060D02*
X016095Y006060D01*
X016095Y006159D02*
X022851Y006159D01*
X022851Y006257D02*
X016095Y006257D01*
X016095Y006356D02*
X022851Y006356D01*
X022851Y006454D02*
X016095Y006454D01*
X016095Y006553D02*
X022851Y006553D01*
X022851Y006651D02*
X016095Y006651D01*
X016095Y006750D02*
X022851Y006750D01*
X022851Y006848D02*
X016095Y006848D01*
X016095Y006947D02*
X022851Y006947D01*
X022851Y007045D02*
X016095Y007045D01*
X016095Y007144D02*
X022851Y007144D01*
X022851Y007242D02*
X016095Y007242D01*
X016119Y007341D02*
X022851Y007341D01*
X022851Y007439D02*
X016201Y007439D01*
X016227Y007538D02*
X022884Y007538D01*
X022957Y007636D02*
X016227Y007636D01*
X016227Y007735D02*
X023055Y007735D01*
X023154Y007833D02*
X016227Y007833D01*
X016227Y007932D02*
X023252Y007932D01*
X023351Y008030D02*
X016227Y008030D01*
X016227Y008129D02*
X023449Y008129D01*
X023548Y008227D02*
X016227Y008227D01*
X016227Y008326D02*
X023646Y008326D01*
X023745Y008424D02*
X016227Y008424D01*
X016227Y008523D02*
X023843Y008523D01*
X023942Y008621D02*
X016227Y008621D01*
X016227Y008720D02*
X024040Y008720D01*
X024139Y008818D02*
X016227Y008818D01*
X016227Y008917D02*
X024237Y008917D01*
X024336Y009015D02*
X016227Y009015D01*
X016227Y009114D02*
X024434Y009114D01*
X024533Y009212D02*
X016227Y009212D01*
X016227Y009311D02*
X024631Y009311D01*
X024730Y009409D02*
X016227Y009409D01*
X016185Y009508D02*
X022701Y009508D01*
X022708Y009500D02*
X022837Y009447D01*
X022975Y009447D01*
X023103Y009500D01*
X023202Y009598D01*
X023255Y009726D01*
X023255Y009865D01*
X023202Y009993D01*
X023103Y010091D01*
X022975Y010144D01*
X022837Y010144D01*
X022708Y010091D01*
X022610Y009993D01*
X022557Y009865D01*
X022557Y009726D01*
X022610Y009598D01*
X022708Y009500D01*
X022607Y009606D02*
X016095Y009606D01*
X016095Y009705D02*
X022566Y009705D01*
X022557Y009803D02*
X016095Y009803D01*
X016095Y009902D02*
X022572Y009902D01*
X022617Y010000D02*
X016095Y010000D01*
X016095Y010099D02*
X022726Y010099D01*
X023086Y010099D02*
X027315Y010099D01*
X027315Y010197D02*
X016095Y010197D01*
X016095Y010296D02*
X021204Y010296D01*
X021212Y010287D02*
X021340Y010234D01*
X021479Y010234D01*
X021607Y010287D01*
X021705Y010386D01*
X021759Y010514D01*
X021759Y010652D01*
X021705Y010781D01*
X021607Y010879D01*
X021479Y010932D01*
X021340Y010932D01*
X021212Y010879D01*
X021114Y010781D01*
X021061Y010652D01*
X021061Y010514D01*
X021114Y010386D01*
X021212Y010287D01*
X021111Y010394D02*
X016095Y010394D01*
X016095Y010493D02*
X021070Y010493D01*
X021061Y010591D02*
X016095Y010591D01*
X016095Y010690D02*
X021076Y010690D01*
X021122Y010788D02*
X016095Y010788D01*
X016095Y010887D02*
X021231Y010887D01*
X021589Y010887D02*
X027315Y010887D01*
X027315Y010985D02*
X016095Y010985D01*
X015819Y010985D02*
X011029Y010985D01*
X011029Y010967D02*
X011029Y014568D01*
X008025Y017572D01*
X008025Y017888D01*
X008082Y017912D01*
X008214Y018044D01*
X008285Y018217D01*
X008285Y018404D01*
X008214Y018576D01*
X008082Y018709D01*
X007909Y018780D01*
X007722Y018780D01*
X007549Y018709D01*
X007417Y018576D01*
X007345Y018404D01*
X007345Y018217D01*
X007417Y018044D01*
X007549Y017912D01*
X007605Y017888D01*
X007605Y017398D01*
X007728Y017275D01*
X010609Y014394D01*
X010609Y010967D01*
X010558Y010915D01*
X010517Y010819D01*
X010517Y014331D01*
X007050Y017799D01*
X007082Y017812D01*
X007214Y017944D01*
X007285Y018117D01*
X007285Y018304D01*
X007214Y018476D01*
X007082Y018609D01*
X006909Y018680D01*
X006722Y018680D01*
X006549Y018609D01*
X006417Y018476D01*
X006345Y018304D01*
X006345Y018117D01*
X006417Y017944D01*
X006549Y017812D01*
X006605Y017788D01*
X006605Y017650D01*
X006728Y017527D01*
X010097Y014158D01*
X010097Y010575D01*
X010220Y010452D01*
X010452Y010220D01*
X010575Y010097D01*
X010593Y010097D01*
X010644Y010046D01*
X010758Y009999D01*
X010822Y009999D01*
X010790Y009966D01*
X009135Y009966D01*
X005084Y014017D01*
X005084Y015709D01*
X004961Y015832D01*
X004021Y016772D01*
X004021Y017887D01*
X004082Y017912D01*
X004214Y018044D01*
X004285Y018217D01*
X004285Y018404D01*
X004214Y018576D01*
X004082Y018709D01*
X003909Y018780D01*
X003722Y018780D01*
X003549Y018709D01*
X003417Y018576D01*
X003345Y018404D01*
X003345Y018217D01*
X003417Y018044D01*
X003549Y017912D01*
X003601Y017890D01*
X003601Y016598D01*
X003724Y016475D01*
X004664Y015535D01*
X004664Y013843D01*
X004787Y013720D01*
X008483Y010024D01*
X008479Y010026D01*
X008356Y010026D01*
X008243Y009979D01*
X008156Y009892D01*
X008109Y009778D01*
X008109Y009656D01*
X008156Y009542D01*
X008217Y009481D01*
X008191Y009454D01*
X006484Y009454D01*
X006221Y009191D01*
X006165Y009214D01*
X005978Y009214D01*
X005805Y009143D01*
X005673Y009011D01*
X005601Y008838D01*
X005601Y008651D01*
X005673Y008478D01*
X005805Y008346D01*
X005978Y008274D01*
X006165Y008274D01*
X006337Y008346D01*
X006470Y008478D01*
X006541Y008651D01*
X006541Y008838D01*
X006518Y008894D01*
X006658Y009034D01*
X008191Y009034D01*
X008198Y009028D01*
X008156Y008986D01*
X008109Y008873D01*
X008109Y008750D01*
X008156Y008637D01*
X008243Y008550D01*
X008356Y008503D01*
X008479Y008503D01*
X008593Y008550D01*
X008679Y008637D01*
X008726Y008750D01*
X008726Y008873D01*
X008679Y008986D01*
X008638Y009028D01*
X008679Y009070D01*
X008726Y009183D01*
X008726Y009306D01*
X008679Y009419D01*
X008618Y009481D01*
X008679Y009542D01*
X008726Y009656D01*
X008726Y009778D01*
X008725Y009782D01*
X008961Y009546D01*
X010790Y009546D01*
X010796Y009540D01*
X010754Y009498D01*
X010707Y009385D01*
X010707Y009262D01*
X010754Y009148D01*
X010808Y009095D01*
X010758Y009045D01*
X010711Y008932D01*
X010711Y008809D01*
X010758Y008696D01*
X010845Y008609D01*
X010959Y008562D01*
X011081Y008562D01*
X011195Y008609D01*
X011282Y008696D01*
X011329Y008809D01*
X011329Y008932D01*
X011282Y009045D01*
X011228Y009099D01*
X011278Y009148D01*
X011325Y009262D01*
X011325Y009385D01*
X011278Y009498D01*
X011236Y009540D01*
X011278Y009581D01*
X011325Y009695D01*
X011325Y009818D01*
X011278Y009931D01*
X011191Y010018D01*
X011078Y010065D01*
X011013Y010065D01*
X011081Y010133D01*
X011128Y010246D01*
X011128Y010369D01*
X011081Y010482D01*
X011039Y010524D01*
X011081Y010566D01*
X011128Y010679D01*
X011128Y010802D01*
X011081Y010915D01*
X011029Y010967D01*
X011093Y010887D02*
X015819Y010887D01*
X015819Y010788D02*
X013090Y010788D01*
X013052Y010804D02*
X012917Y010804D01*
X012793Y010752D01*
X012697Y010657D01*
X012646Y010532D01*
X012646Y010398D01*
X012697Y010273D01*
X012793Y010178D01*
X012917Y010126D01*
X013052Y010126D01*
X013177Y010178D01*
X013272Y010273D01*
X013323Y010398D01*
X013323Y010532D01*
X013272Y010657D01*
X013177Y010752D01*
X013052Y010804D01*
X012879Y010788D02*
X011128Y010788D01*
X011128Y010690D02*
X012730Y010690D01*
X012670Y010591D02*
X011092Y010591D01*
X011071Y010493D02*
X012646Y010493D01*
X012647Y010394D02*
X011118Y010394D01*
X011128Y010296D02*
X012688Y010296D01*
X012774Y010197D02*
X011108Y010197D01*
X011047Y010099D02*
X015819Y010099D01*
X015819Y010197D02*
X013196Y010197D01*
X013281Y010296D02*
X015819Y010296D01*
X015819Y010394D02*
X013322Y010394D01*
X013323Y010493D02*
X015819Y010493D01*
X015819Y010591D02*
X013299Y010591D01*
X013239Y010690D02*
X015819Y010690D01*
X015819Y011084D02*
X011029Y011084D01*
X011029Y011182D02*
X015819Y011182D01*
X015819Y011281D02*
X011029Y011281D01*
X011029Y011379D02*
X015819Y011379D01*
X015819Y011478D02*
X011029Y011478D01*
X011029Y011576D02*
X015819Y011576D01*
X015819Y011675D02*
X011029Y011675D01*
X011029Y011773D02*
X015819Y011773D01*
X015819Y011872D02*
X011029Y011872D01*
X011029Y011970D02*
X015819Y011970D01*
X015819Y012069D02*
X011029Y012069D01*
X011029Y012167D02*
X015819Y012167D01*
X015819Y012266D02*
X011029Y012266D01*
X011029Y012364D02*
X011355Y012364D01*
X011375Y012343D02*
X011500Y012292D01*
X011635Y012292D01*
X011759Y012343D01*
X011854Y012438D01*
X011906Y012563D01*
X011906Y012698D01*
X011854Y012822D01*
X011759Y012917D01*
X011635Y012969D01*
X011500Y012969D01*
X011375Y012917D01*
X011280Y012822D01*
X011229Y012698D01*
X011229Y012563D01*
X011280Y012438D01*
X011375Y012343D01*
X011270Y012463D02*
X011029Y012463D01*
X011029Y012561D02*
X011229Y012561D01*
X011229Y012660D02*
X011029Y012660D01*
X011029Y012758D02*
X011254Y012758D01*
X011314Y012857D02*
X011029Y012857D01*
X011029Y012955D02*
X011466Y012955D01*
X011669Y012955D02*
X014238Y012955D01*
X014221Y013054D02*
X011029Y013054D01*
X011029Y013152D02*
X014230Y013152D01*
X014270Y013251D02*
X011029Y013251D01*
X011029Y013349D02*
X014366Y013349D01*
X014753Y013349D02*
X015819Y013349D01*
X015819Y013448D02*
X011029Y013448D01*
X011029Y013546D02*
X015819Y013546D01*
X015819Y013645D02*
X011029Y013645D01*
X011029Y013743D02*
X015819Y013743D01*
X015819Y013842D02*
X011029Y013842D01*
X011029Y013940D02*
X015819Y013940D01*
X015819Y014039D02*
X011029Y014039D01*
X011029Y014137D02*
X015819Y014137D01*
X015819Y014236D02*
X011029Y014236D01*
X011029Y014334D02*
X015819Y014334D01*
X015819Y014433D02*
X011029Y014433D01*
X011029Y014531D02*
X015819Y014531D01*
X015819Y014630D02*
X010967Y014630D01*
X010869Y014728D02*
X015819Y014728D01*
X015819Y014827D02*
X010770Y014827D01*
X010672Y014925D02*
X015819Y014925D01*
X015819Y015024D02*
X010573Y015024D01*
X010475Y015122D02*
X015819Y015122D01*
X015819Y015221D02*
X010376Y015221D01*
X010278Y015319D02*
X015819Y015319D01*
X015819Y015418D02*
X010179Y015418D01*
X010081Y015516D02*
X015819Y015516D01*
X015819Y015615D02*
X009982Y015615D01*
X009884Y015713D02*
X015819Y015713D01*
X015819Y015812D02*
X009785Y015812D01*
X009687Y015910D02*
X015819Y015910D01*
X015819Y016009D02*
X009588Y016009D01*
X009490Y016107D02*
X015819Y016107D01*
X015819Y016206D02*
X009391Y016206D01*
X009293Y016304D02*
X015819Y016304D01*
X015819Y016403D02*
X009194Y016403D01*
X009096Y016501D02*
X013005Y016501D01*
X013200Y016501D02*
X015819Y016501D01*
X015819Y016600D02*
X013383Y016600D01*
X012823Y016600D02*
X008997Y016600D01*
X008899Y016698D02*
X012734Y016698D01*
X012694Y016797D02*
X008800Y016797D01*
X008702Y016895D02*
X012677Y016895D01*
X012677Y016994D02*
X008603Y016994D01*
X008505Y017092D02*
X012712Y017092D01*
X012769Y017191D02*
X008406Y017191D01*
X008308Y017289D02*
X012804Y017289D01*
X012804Y017388D02*
X008209Y017388D01*
X008111Y017486D02*
X012804Y017486D01*
X012804Y017585D02*
X008025Y017585D01*
X008025Y017683D02*
X012804Y017683D01*
X012804Y017782D02*
X009009Y017782D01*
X009082Y017812D02*
X009214Y017944D01*
X009285Y018117D01*
X009285Y018304D01*
X009214Y018476D01*
X009082Y018609D01*
X008909Y018680D01*
X008722Y018680D01*
X008549Y018609D01*
X008417Y018476D01*
X008345Y018304D01*
X008345Y018117D01*
X008417Y017944D01*
X008549Y017812D01*
X008722Y017740D01*
X008909Y017740D01*
X009082Y017812D01*
X009150Y017880D02*
X012804Y017880D01*
X012804Y017979D02*
X009228Y017979D01*
X009269Y018077D02*
X012804Y018077D01*
X012804Y018176D02*
X009285Y018176D01*
X009285Y018274D02*
X012804Y018274D01*
X012804Y018373D02*
X009257Y018373D01*
X009216Y018471D02*
X012804Y018471D01*
X012804Y018570D02*
X009121Y018570D01*
X008938Y018668D02*
X012804Y018668D01*
X012804Y018767D02*
X007942Y018767D01*
X008122Y018668D02*
X008692Y018668D01*
X008510Y018570D02*
X008217Y018570D01*
X008257Y018471D02*
X008415Y018471D01*
X008374Y018373D02*
X008285Y018373D01*
X008285Y018274D02*
X008345Y018274D01*
X008345Y018176D02*
X008268Y018176D01*
X008227Y018077D02*
X008362Y018077D01*
X008403Y017979D02*
X008148Y017979D01*
X008025Y017880D02*
X008481Y017880D01*
X008622Y017782D02*
X008025Y017782D01*
X007605Y017782D02*
X007067Y017782D01*
X007150Y017880D02*
X007605Y017880D01*
X007482Y017979D02*
X007228Y017979D01*
X007269Y018077D02*
X007403Y018077D01*
X007362Y018176D02*
X007285Y018176D01*
X007285Y018274D02*
X007345Y018274D01*
X007345Y018373D02*
X007257Y018373D01*
X007216Y018471D02*
X007373Y018471D01*
X007414Y018570D02*
X007121Y018570D01*
X006938Y018668D02*
X007508Y018668D01*
X007689Y018767D02*
X005942Y018767D01*
X005909Y018780D02*
X005722Y018780D01*
X005549Y018709D01*
X005417Y018576D01*
X005345Y018404D01*
X005345Y018217D01*
X005417Y018044D01*
X005549Y017912D01*
X005722Y017840D01*
X005909Y017840D01*
X006082Y017912D01*
X006214Y018044D01*
X006285Y018217D01*
X006285Y018404D01*
X006214Y018576D01*
X006082Y018709D01*
X005909Y018780D01*
X005689Y018767D02*
X003942Y018767D01*
X004122Y018668D02*
X004614Y018668D01*
X004532Y018634D02*
X004391Y018493D01*
X004315Y018310D01*
X004315Y018111D01*
X004391Y017927D01*
X004532Y017786D01*
X004716Y017710D01*
X004915Y017710D01*
X005099Y017786D01*
X005239Y017927D01*
X005315Y018111D01*
X005315Y018310D01*
X005239Y018493D01*
X005099Y018634D01*
X004915Y018710D01*
X004716Y018710D01*
X004532Y018634D01*
X004468Y018570D02*
X004217Y018570D01*
X004257Y018471D02*
X004382Y018471D01*
X004341Y018373D02*
X004285Y018373D01*
X004285Y018274D02*
X004315Y018274D01*
X004315Y018176D02*
X004268Y018176D01*
X004227Y018077D02*
X004329Y018077D01*
X004370Y017979D02*
X004148Y017979D01*
X004021Y017880D02*
X004438Y017880D01*
X004544Y017782D02*
X004021Y017782D01*
X004021Y017683D02*
X006605Y017683D01*
X006605Y017782D02*
X005087Y017782D01*
X005192Y017880D02*
X005626Y017880D01*
X005482Y017979D02*
X005261Y017979D01*
X005301Y018077D02*
X005403Y018077D01*
X005362Y018176D02*
X005315Y018176D01*
X005315Y018274D02*
X005345Y018274D01*
X005345Y018373D02*
X005289Y018373D01*
X005249Y018471D02*
X005373Y018471D01*
X005414Y018570D02*
X005163Y018570D01*
X005017Y018668D02*
X005508Y018668D01*
X006122Y018668D02*
X006692Y018668D01*
X006510Y018570D02*
X006217Y018570D01*
X006257Y018471D02*
X006415Y018471D01*
X006374Y018373D02*
X006285Y018373D01*
X006285Y018274D02*
X006345Y018274D01*
X006345Y018176D02*
X006268Y018176D01*
X006227Y018077D02*
X006362Y018077D01*
X006403Y017979D02*
X006148Y017979D01*
X006005Y017880D02*
X006481Y017880D01*
X006670Y017585D02*
X004021Y017585D01*
X004021Y017486D02*
X006769Y017486D01*
X006867Y017388D02*
X004021Y017388D01*
X004021Y017289D02*
X006966Y017289D01*
X007064Y017191D02*
X004021Y017191D01*
X004021Y017092D02*
X007163Y017092D01*
X007261Y016994D02*
X004021Y016994D01*
X004021Y016895D02*
X007360Y016895D01*
X007458Y016797D02*
X004021Y016797D01*
X004096Y016698D02*
X007557Y016698D01*
X007655Y016600D02*
X004194Y016600D01*
X004293Y016501D02*
X007754Y016501D01*
X007852Y016403D02*
X004391Y016403D01*
X004490Y016304D02*
X007023Y016304D01*
X007051Y016316D02*
X006927Y016264D01*
X006831Y016169D01*
X006780Y016044D01*
X006780Y015909D01*
X006831Y015785D01*
X006927Y015690D01*
X007051Y015638D01*
X007186Y015638D01*
X007310Y015690D01*
X007406Y015785D01*
X007442Y015871D01*
X007487Y015763D01*
X007574Y015676D01*
X007687Y015629D01*
X007810Y015629D01*
X007923Y015676D01*
X008010Y015763D01*
X008057Y015876D01*
X008057Y015999D01*
X008010Y016112D01*
X007923Y016199D01*
X007810Y016246D01*
X007687Y016246D01*
X007574Y016199D01*
X007487Y016112D01*
X007457Y016041D01*
X007457Y016044D01*
X007406Y016169D01*
X007310Y016264D01*
X007186Y016316D01*
X007051Y016316D01*
X007214Y016304D02*
X007951Y016304D01*
X007908Y016206D02*
X008049Y016206D01*
X008012Y016107D02*
X008148Y016107D01*
X008053Y016009D02*
X008246Y016009D01*
X008345Y015910D02*
X008057Y015910D01*
X008030Y015812D02*
X008443Y015812D01*
X008542Y015713D02*
X007961Y015713D01*
X007536Y015713D02*
X007334Y015713D01*
X007417Y015812D02*
X007466Y015812D01*
X007485Y016107D02*
X007431Y016107D01*
X007369Y016206D02*
X007589Y016206D01*
X006868Y016206D02*
X004588Y016206D01*
X004687Y016107D02*
X006806Y016107D01*
X006780Y016009D02*
X004785Y016009D01*
X004884Y015910D02*
X006780Y015910D01*
X006820Y015812D02*
X004982Y015812D01*
X004961Y015832D02*
X004961Y015832D01*
X005081Y015713D02*
X006903Y015713D01*
X008249Y016600D02*
X008403Y016600D01*
X008348Y016501D02*
X008502Y016501D01*
X008446Y016403D02*
X008600Y016403D01*
X008545Y016304D02*
X008699Y016304D01*
X008643Y016206D02*
X008797Y016206D01*
X008742Y016107D02*
X008896Y016107D01*
X008840Y016009D02*
X008994Y016009D01*
X008939Y015910D02*
X009093Y015910D01*
X009037Y015812D02*
X009191Y015812D01*
X009136Y015713D02*
X009290Y015713D01*
X009234Y015615D02*
X009388Y015615D01*
X009333Y015516D02*
X009487Y015516D01*
X009431Y015418D02*
X009585Y015418D01*
X009530Y015319D02*
X009684Y015319D01*
X009628Y015221D02*
X009782Y015221D01*
X009727Y015122D02*
X009881Y015122D01*
X009825Y015024D02*
X009979Y015024D01*
X009924Y014925D02*
X010078Y014925D01*
X010022Y014827D02*
X010176Y014827D01*
X010121Y014728D02*
X010275Y014728D01*
X010219Y014630D02*
X010373Y014630D01*
X010318Y014531D02*
X010472Y014531D01*
X010416Y014433D02*
X010570Y014433D01*
X010609Y014334D02*
X010515Y014334D01*
X010517Y014236D02*
X010609Y014236D01*
X010609Y014137D02*
X010517Y014137D01*
X010517Y014039D02*
X010609Y014039D01*
X010609Y013940D02*
X010517Y013940D01*
X010517Y013842D02*
X010609Y013842D01*
X010609Y013743D02*
X010517Y013743D01*
X010517Y013645D02*
X010609Y013645D01*
X010609Y013546D02*
X010517Y013546D01*
X010517Y013448D02*
X010609Y013448D01*
X010609Y013349D02*
X010517Y013349D01*
X010517Y013251D02*
X010609Y013251D01*
X010609Y013152D02*
X010517Y013152D01*
X010517Y013054D02*
X010609Y013054D01*
X010609Y012955D02*
X010517Y012955D01*
X010517Y012857D02*
X010609Y012857D01*
X010609Y012758D02*
X010517Y012758D01*
X010517Y012660D02*
X010609Y012660D01*
X010609Y012561D02*
X010517Y012561D01*
X010517Y012463D02*
X010609Y012463D01*
X010609Y012364D02*
X010517Y012364D01*
X010517Y012266D02*
X010609Y012266D01*
X010609Y012167D02*
X010517Y012167D01*
X010517Y012069D02*
X010609Y012069D01*
X010609Y011970D02*
X010517Y011970D01*
X010517Y011872D02*
X010609Y011872D01*
X010609Y011773D02*
X010517Y011773D01*
X010517Y011675D02*
X010609Y011675D01*
X010609Y011576D02*
X010517Y011576D01*
X010517Y011478D02*
X010609Y011478D01*
X010609Y011379D02*
X010517Y011379D01*
X010517Y011281D02*
X010609Y011281D01*
X010609Y011182D02*
X010517Y011182D01*
X010517Y011084D02*
X010609Y011084D01*
X010609Y010985D02*
X010517Y010985D01*
X010517Y010887D02*
X010546Y010887D01*
X010097Y010887D02*
X009794Y010887D01*
X009782Y010915D02*
X009695Y011002D01*
X009581Y011049D01*
X009459Y011049D01*
X009345Y011002D01*
X009284Y010941D01*
X009223Y011002D01*
X009109Y011049D01*
X008986Y011049D01*
X008873Y011002D01*
X008786Y010915D01*
X008739Y010802D01*
X008739Y010679D01*
X008786Y010566D01*
X008873Y010479D01*
X008986Y010432D01*
X009109Y010432D01*
X009223Y010479D01*
X009284Y010540D01*
X009345Y010479D01*
X009459Y010432D01*
X009581Y010432D01*
X009695Y010479D01*
X009782Y010566D01*
X009829Y010679D01*
X009829Y010802D01*
X009782Y010915D01*
X009712Y010985D02*
X010097Y010985D01*
X010097Y011084D02*
X008017Y011084D01*
X007919Y011182D02*
X010097Y011182D01*
X010097Y011281D02*
X007820Y011281D01*
X007722Y011379D02*
X010097Y011379D01*
X010097Y011478D02*
X007623Y011478D01*
X007525Y011576D02*
X010097Y011576D01*
X010097Y011675D02*
X007426Y011675D01*
X007328Y011773D02*
X010097Y011773D01*
X010097Y011872D02*
X007229Y011872D01*
X007131Y011970D02*
X010097Y011970D01*
X010097Y012069D02*
X007032Y012069D01*
X006934Y012167D02*
X010097Y012167D01*
X010097Y012266D02*
X006835Y012266D01*
X006737Y012364D02*
X008610Y012364D01*
X008631Y012343D02*
X008756Y012292D01*
X008891Y012292D01*
X009015Y012343D01*
X009110Y012438D01*
X009162Y012563D01*
X009162Y012698D01*
X009110Y012822D01*
X009015Y012917D01*
X008891Y012969D01*
X008756Y012969D01*
X008631Y012917D01*
X008536Y012822D01*
X008484Y012698D01*
X008484Y012563D01*
X008536Y012438D01*
X008631Y012343D01*
X008526Y012463D02*
X006638Y012463D01*
X006540Y012561D02*
X007600Y012561D01*
X007608Y012558D02*
X007731Y012558D01*
X007845Y012605D01*
X007931Y012692D01*
X007978Y012805D01*
X007978Y012928D01*
X007931Y013041D01*
X007845Y013128D01*
X007731Y013175D01*
X007608Y013175D01*
X007495Y013128D01*
X007408Y013041D01*
X007361Y012928D01*
X007361Y012805D01*
X007408Y012692D01*
X007495Y012605D01*
X007608Y012558D01*
X007739Y012561D02*
X008485Y012561D01*
X008484Y012660D02*
X007899Y012660D01*
X007959Y012758D02*
X008509Y012758D01*
X008570Y012857D02*
X007978Y012857D01*
X007967Y012955D02*
X008722Y012955D01*
X008924Y012955D02*
X010097Y012955D01*
X010097Y012857D02*
X009076Y012857D01*
X009137Y012758D02*
X010097Y012758D01*
X010097Y012660D02*
X009162Y012660D01*
X009161Y012561D02*
X010097Y012561D01*
X010097Y012463D02*
X009120Y012463D01*
X009036Y012364D02*
X010097Y012364D01*
X010097Y013054D02*
X007919Y013054D01*
X007787Y013152D02*
X010097Y013152D01*
X010097Y013251D02*
X005850Y013251D01*
X005752Y013349D02*
X010097Y013349D01*
X010097Y013448D02*
X005653Y013448D01*
X005555Y013546D02*
X010097Y013546D01*
X010097Y013645D02*
X005456Y013645D01*
X005358Y013743D02*
X010097Y013743D01*
X010097Y013842D02*
X005259Y013842D01*
X005161Y013940D02*
X010097Y013940D01*
X010097Y014039D02*
X005084Y014039D01*
X005084Y014137D02*
X010097Y014137D01*
X010019Y014236D02*
X005084Y014236D01*
X005084Y014334D02*
X009921Y014334D01*
X009822Y014433D02*
X005084Y014433D01*
X005084Y014531D02*
X009724Y014531D01*
X009625Y014630D02*
X005084Y014630D01*
X005084Y014728D02*
X009527Y014728D01*
X009428Y014827D02*
X005084Y014827D01*
X005084Y014925D02*
X009330Y014925D01*
X009231Y015024D02*
X005084Y015024D01*
X005084Y015122D02*
X009133Y015122D01*
X009034Y015221D02*
X005084Y015221D01*
X005084Y015319D02*
X008936Y015319D01*
X008837Y015418D02*
X005084Y015418D01*
X005084Y015516D02*
X008739Y015516D01*
X008640Y015615D02*
X005084Y015615D01*
X004664Y015516D02*
X004126Y015516D01*
X004172Y015470D02*
X004053Y015590D01*
X003896Y015655D01*
X003727Y015655D01*
X003570Y015590D01*
X003450Y015470D01*
X003386Y015313D01*
X003386Y015144D01*
X003450Y014987D01*
X003570Y014868D01*
X003727Y014803D01*
X003896Y014803D01*
X004053Y014868D01*
X004172Y014987D01*
X004237Y015144D01*
X004237Y015313D01*
X004172Y015470D01*
X004194Y015418D02*
X004664Y015418D01*
X004664Y015319D02*
X004235Y015319D01*
X004237Y015221D02*
X004664Y015221D01*
X004664Y015122D02*
X004228Y015122D01*
X004187Y015024D02*
X004664Y015024D01*
X004664Y014925D02*
X004110Y014925D01*
X003953Y014827D02*
X004664Y014827D01*
X004664Y014728D02*
X003381Y014728D01*
X003386Y014723D02*
X003266Y014843D01*
X003109Y014908D01*
X002939Y014908D01*
X002782Y014843D01*
X002662Y014723D01*
X002630Y014647D01*
X002599Y014723D01*
X002479Y014843D01*
X002322Y014908D01*
X002152Y014908D01*
X001994Y014843D01*
X001874Y014723D01*
X001843Y014647D01*
X001812Y014723D01*
X001691Y014843D01*
X001534Y014908D01*
X001364Y014908D01*
X001207Y014843D01*
X001087Y014723D01*
X001022Y014566D01*
X001022Y014396D01*
X001087Y014239D01*
X001207Y014118D01*
X001364Y014053D01*
X001534Y014053D01*
X001691Y014118D01*
X001812Y014239D01*
X001843Y014314D01*
X001874Y014239D01*
X001994Y014118D01*
X002152Y014053D01*
X002322Y014053D01*
X002479Y014118D01*
X002599Y014239D01*
X002630Y014314D01*
X002662Y014239D01*
X002782Y014118D01*
X002939Y014053D01*
X003109Y014053D01*
X003266Y014118D01*
X003386Y014239D01*
X003451Y014396D01*
X003451Y014566D01*
X003386Y014723D01*
X003425Y014630D02*
X004664Y014630D01*
X004664Y014531D02*
X003451Y014531D01*
X003451Y014433D02*
X004664Y014433D01*
X004664Y014334D02*
X003426Y014334D01*
X003383Y014236D02*
X004664Y014236D01*
X004664Y014137D02*
X003285Y014137D01*
X002763Y014137D02*
X002497Y014137D01*
X002596Y014236D02*
X002665Y014236D01*
X002667Y014728D02*
X002594Y014728D01*
X002495Y014827D02*
X002765Y014827D01*
X003283Y014827D02*
X003669Y014827D01*
X003513Y014925D02*
X000320Y014925D01*
X000320Y014827D02*
X001190Y014827D01*
X001092Y014728D02*
X000320Y014728D01*
X000320Y014630D02*
X001048Y014630D01*
X001022Y014531D02*
X000320Y014531D01*
X000320Y014433D02*
X001022Y014433D01*
X001047Y014334D02*
X000320Y014334D01*
X000320Y014236D02*
X001090Y014236D01*
X001188Y014137D02*
X000320Y014137D01*
X000320Y014039D02*
X004664Y014039D01*
X004664Y013940D02*
X000320Y013940D01*
X000320Y013842D02*
X004665Y013842D01*
X004764Y013743D02*
X000320Y013743D01*
X000320Y013645D02*
X004862Y013645D01*
X004961Y013546D02*
X000320Y013546D01*
X000320Y013448D02*
X004490Y013448D01*
X004498Y013451D02*
X004385Y013404D01*
X004298Y013317D01*
X004251Y013204D01*
X004251Y013081D01*
X004298Y012967D01*
X004385Y012880D01*
X004498Y012833D01*
X004621Y012833D01*
X004734Y012880D01*
X004821Y012967D01*
X004868Y013081D01*
X004868Y013204D01*
X004821Y013317D01*
X004734Y013404D01*
X004621Y013451D01*
X004498Y013451D01*
X004629Y013448D02*
X005059Y013448D01*
X005158Y013349D02*
X004789Y013349D01*
X004849Y013251D02*
X005256Y013251D01*
X005355Y013152D02*
X004868Y013152D01*
X004857Y013054D02*
X005453Y013054D01*
X005552Y012955D02*
X004809Y012955D01*
X004677Y012857D02*
X005650Y012857D01*
X005749Y012758D02*
X004089Y012758D01*
X004053Y012795D02*
X003896Y012859D01*
X003727Y012859D01*
X003570Y012795D01*
X003450Y012675D01*
X003386Y012518D01*
X003386Y012349D01*
X003450Y012192D01*
X003570Y012072D01*
X003727Y012008D01*
X003896Y012008D01*
X004053Y012072D01*
X004172Y012192D01*
X004237Y012349D01*
X004237Y012518D01*
X004172Y012675D01*
X004053Y012795D01*
X003903Y012857D02*
X004442Y012857D01*
X004310Y012955D02*
X000320Y012955D01*
X000320Y012857D02*
X003720Y012857D01*
X003534Y012758D02*
X000320Y012758D01*
X000320Y012660D02*
X003444Y012660D01*
X003403Y012561D02*
X000320Y012561D01*
X000320Y012463D02*
X003386Y012463D01*
X003386Y012364D02*
X000320Y012364D01*
X000320Y012266D02*
X003420Y012266D01*
X003476Y012167D02*
X000320Y012167D01*
X000320Y012069D02*
X001257Y012069D01*
X001207Y012048D02*
X001087Y011928D01*
X001022Y011770D01*
X001022Y011600D01*
X001087Y011443D01*
X001207Y011323D01*
X001364Y011258D01*
X001534Y011258D01*
X001691Y011323D01*
X001812Y011443D01*
X001843Y011519D01*
X001874Y011443D01*
X001994Y011323D01*
X002152Y011258D01*
X002322Y011258D01*
X002479Y011323D01*
X002599Y011443D01*
X002630Y011519D01*
X002662Y011443D01*
X002782Y011323D01*
X002939Y011258D01*
X003109Y011258D01*
X003266Y011323D01*
X003386Y011443D01*
X003451Y011600D01*
X003451Y011770D01*
X003386Y011928D01*
X003266Y012048D01*
X003109Y012113D01*
X002939Y012113D01*
X002782Y012048D01*
X002662Y011928D01*
X002630Y011852D01*
X002599Y011928D01*
X002479Y012048D01*
X002322Y012113D01*
X002152Y012113D01*
X001994Y012048D01*
X001874Y011928D01*
X001843Y011852D01*
X001812Y011928D01*
X001691Y012048D01*
X001534Y012113D01*
X001364Y012113D01*
X001207Y012048D01*
X001129Y011970D02*
X000320Y011970D01*
X000320Y011872D02*
X001064Y011872D01*
X001023Y011773D02*
X000320Y011773D01*
X000320Y011675D02*
X001022Y011675D01*
X001032Y011576D02*
X000320Y011576D01*
X000320Y011478D02*
X001073Y011478D01*
X001151Y011379D02*
X000320Y011379D01*
X000320Y011281D02*
X001310Y011281D01*
X001589Y011281D02*
X002097Y011281D01*
X001938Y011379D02*
X001747Y011379D01*
X001826Y011478D02*
X001860Y011478D01*
X002376Y011281D02*
X002884Y011281D01*
X002726Y011379D02*
X002535Y011379D01*
X002613Y011478D02*
X002647Y011478D01*
X003164Y011281D02*
X007226Y011281D01*
X007128Y011379D02*
X003322Y011379D01*
X003401Y011478D02*
X007029Y011478D01*
X006931Y011576D02*
X003441Y011576D01*
X003451Y011675D02*
X006832Y011675D01*
X006734Y011773D02*
X003450Y011773D01*
X003410Y011872D02*
X006635Y011872D01*
X006537Y011970D02*
X003344Y011970D01*
X003216Y012069D02*
X003580Y012069D01*
X002832Y012069D02*
X002429Y012069D01*
X002557Y011970D02*
X002704Y011970D01*
X002638Y011872D02*
X002622Y011872D01*
X002044Y012069D02*
X001641Y012069D01*
X001769Y011970D02*
X001917Y011970D01*
X001851Y011872D02*
X001835Y011872D01*
X000320Y011182D02*
X007325Y011182D01*
X007423Y011084D02*
X000320Y011084D01*
X000320Y010985D02*
X007522Y010985D01*
X007620Y010887D02*
X000320Y010887D01*
X000320Y010788D02*
X007719Y010788D01*
X007817Y010690D02*
X000320Y010690D01*
X000320Y010591D02*
X007916Y010591D01*
X008014Y010493D02*
X000320Y010493D01*
X000320Y010394D02*
X008113Y010394D01*
X008211Y010296D02*
X000320Y010296D01*
X000320Y010197D02*
X004936Y010197D01*
X004978Y010214D02*
X004805Y010143D01*
X004673Y010011D01*
X004601Y009838D01*
X004601Y009651D01*
X004673Y009478D01*
X004805Y009346D01*
X004978Y009274D01*
X005165Y009274D01*
X005337Y009346D01*
X005470Y009478D01*
X005541Y009651D01*
X005541Y009838D01*
X005470Y010011D01*
X005337Y010143D01*
X005165Y010214D01*
X004978Y010214D01*
X005207Y010197D02*
X005936Y010197D01*
X005978Y010214D02*
X005805Y010143D01*
X005673Y010011D01*
X005601Y009838D01*
X005601Y009651D01*
X005673Y009478D01*
X005805Y009346D01*
X005978Y009274D01*
X006165Y009274D01*
X006337Y009346D01*
X006470Y009478D01*
X006541Y009651D01*
X006541Y009838D01*
X006470Y010011D01*
X006337Y010143D01*
X006165Y010214D01*
X005978Y010214D01*
X006207Y010197D02*
X008310Y010197D01*
X008408Y010099D02*
X006382Y010099D01*
X006474Y010000D02*
X008294Y010000D01*
X008166Y009902D02*
X006515Y009902D01*
X006541Y009803D02*
X008119Y009803D01*
X008109Y009705D02*
X006541Y009705D01*
X006523Y009606D02*
X008129Y009606D01*
X008190Y009508D02*
X006482Y009508D01*
X006439Y009409D02*
X006400Y009409D01*
X006340Y009311D02*
X006252Y009311D01*
X006242Y009212D02*
X006171Y009212D01*
X005972Y009212D02*
X005171Y009212D01*
X005165Y009214D02*
X004978Y009214D01*
X004805Y009143D01*
X004673Y009011D01*
X004601Y008838D01*
X004601Y008651D01*
X004673Y008478D01*
X004805Y008346D01*
X004978Y008274D01*
X005165Y008274D01*
X005337Y008346D01*
X005470Y008478D01*
X005541Y008651D01*
X005541Y008838D01*
X005470Y009011D01*
X005337Y009143D01*
X005165Y009214D01*
X005252Y009311D02*
X005891Y009311D01*
X005742Y009409D02*
X005400Y009409D01*
X005482Y009508D02*
X005661Y009508D01*
X005620Y009606D02*
X005523Y009606D01*
X005541Y009705D02*
X005601Y009705D01*
X005601Y009803D02*
X005541Y009803D01*
X005515Y009902D02*
X005628Y009902D01*
X005668Y010000D02*
X005474Y010000D01*
X005382Y010099D02*
X005761Y010099D01*
X004761Y010099D02*
X001119Y010099D01*
X001100Y010117D02*
X000943Y010182D01*
X000774Y010182D01*
X000617Y010117D01*
X000498Y009998D01*
X000433Y009841D01*
X000433Y009672D01*
X000498Y009515D01*
X000617Y009395D01*
X000774Y009330D01*
X000943Y009330D01*
X001100Y009395D01*
X001220Y009515D01*
X001285Y009672D01*
X001285Y009841D01*
X001220Y009998D01*
X001100Y010117D01*
X001217Y010000D02*
X004668Y010000D01*
X004628Y009902D02*
X001260Y009902D01*
X001285Y009803D02*
X004601Y009803D01*
X004601Y009705D02*
X001285Y009705D01*
X001257Y009606D02*
X004620Y009606D01*
X004661Y009508D02*
X001212Y009508D01*
X001114Y009409D02*
X004742Y009409D01*
X004891Y009311D02*
X001870Y009311D01*
X001849Y009331D02*
X001969Y009211D01*
X002034Y009054D01*
X002034Y008884D01*
X001969Y008727D01*
X001849Y008606D01*
X001773Y008575D01*
X001849Y008544D01*
X001969Y008424D01*
X003685Y008424D01*
X003647Y008461D02*
X003788Y008321D01*
X003972Y008244D01*
X004171Y008244D01*
X004354Y008321D01*
X004495Y008461D01*
X004571Y008645D01*
X004571Y008844D01*
X004495Y009028D01*
X004354Y009168D01*
X004171Y009244D01*
X003972Y009244D01*
X003788Y009168D01*
X003647Y009028D01*
X003571Y008844D01*
X003571Y008645D01*
X003647Y008461D01*
X003622Y008523D02*
X001870Y008523D01*
X001863Y008621D02*
X003581Y008621D01*
X003571Y008720D02*
X001962Y008720D01*
X002007Y008818D02*
X003571Y008818D01*
X003601Y008917D02*
X002034Y008917D01*
X002034Y009015D02*
X003642Y009015D01*
X003733Y009114D02*
X002009Y009114D01*
X001968Y009212D02*
X003893Y009212D01*
X004249Y009212D02*
X004972Y009212D01*
X004776Y009114D02*
X004409Y009114D01*
X004500Y009015D02*
X004677Y009015D01*
X004634Y008917D02*
X004541Y008917D01*
X004571Y008818D02*
X004601Y008818D01*
X004601Y008720D02*
X004571Y008720D01*
X004561Y008621D02*
X004614Y008621D01*
X004654Y008523D02*
X004521Y008523D01*
X004458Y008424D02*
X004727Y008424D01*
X004855Y008326D02*
X004359Y008326D01*
X003783Y008326D02*
X002010Y008326D01*
X002034Y008267D02*
X001969Y008424D01*
X002034Y008267D02*
X002034Y008096D01*
X001969Y007939D01*
X001849Y007819D01*
X001773Y007788D01*
X001849Y007756D01*
X001969Y007636D01*
X011909Y007636D01*
X011909Y007538D02*
X002010Y007538D01*
X002034Y007479D02*
X001969Y007636D01*
X001871Y007735D02*
X011909Y007735D01*
X011909Y007833D02*
X001863Y007833D01*
X001961Y007932D02*
X011909Y007932D01*
X011909Y008030D02*
X002007Y008030D01*
X002034Y008129D02*
X011909Y008129D01*
X011909Y008227D02*
X002034Y008227D01*
X001440Y008575D02*
X001365Y008544D01*
X001244Y008424D01*
X001179Y008267D01*
X001179Y008096D01*
X001244Y007939D01*
X001365Y007819D01*
X001440Y007788D01*
X001365Y007756D01*
X001244Y007636D01*
X000320Y007636D01*
X000320Y007538D02*
X001203Y007538D01*
X001179Y007479D02*
X001179Y007309D01*
X001244Y007152D01*
X001365Y007032D01*
X001440Y007000D01*
X001365Y006969D01*
X001244Y006849D01*
X001179Y006692D01*
X001179Y006522D01*
X001244Y006365D01*
X001365Y006244D01*
X001401Y006229D01*
X001348Y006207D01*
X001219Y006078D01*
X001149Y005910D01*
X001149Y005728D01*
X001219Y005560D01*
X001348Y005431D01*
X001516Y005362D01*
X001698Y005362D01*
X001866Y005431D01*
X001995Y005560D01*
X002064Y005728D01*
X002064Y005910D01*
X001995Y006078D01*
X001866Y006207D01*
X001812Y006229D01*
X001849Y006244D01*
X001969Y006365D01*
X002034Y006522D01*
X002034Y006692D01*
X001969Y006849D01*
X001849Y006969D01*
X001773Y007000D01*
X001849Y007032D01*
X001969Y007152D01*
X002034Y007309D01*
X002034Y007479D01*
X002034Y007439D02*
X011934Y007439D01*
X011909Y008326D02*
X006288Y008326D01*
X006415Y008424D02*
X011909Y008424D01*
X011909Y008523D02*
X008527Y008523D01*
X008664Y008621D02*
X010833Y008621D01*
X010748Y008720D02*
X008714Y008720D01*
X008726Y008818D02*
X009914Y008818D01*
X009896Y008825D02*
X010010Y008778D01*
X010133Y008778D01*
X010246Y008825D01*
X010333Y008912D01*
X010380Y009026D01*
X010380Y009148D01*
X010333Y009262D01*
X010246Y009349D01*
X010133Y009396D01*
X010010Y009396D01*
X009896Y009349D01*
X009810Y009262D01*
X009763Y009148D01*
X009763Y009026D01*
X009810Y008912D01*
X009896Y008825D01*
X009808Y008917D02*
X008708Y008917D01*
X008651Y009015D02*
X009767Y009015D01*
X009763Y009114D02*
X008698Y009114D01*
X008726Y009212D02*
X009789Y009212D01*
X009858Y009311D02*
X008725Y009311D01*
X008684Y009409D02*
X010718Y009409D01*
X010707Y009311D02*
X010284Y009311D01*
X010354Y009212D02*
X010728Y009212D01*
X010789Y009114D02*
X010380Y009114D01*
X010376Y009015D02*
X010746Y009015D01*
X010711Y008917D02*
X010335Y008917D01*
X010229Y008818D02*
X010711Y008818D01*
X011207Y008621D02*
X011909Y008621D01*
X011909Y008720D02*
X011292Y008720D01*
X011329Y008818D02*
X011909Y008818D01*
X011909Y008917D02*
X011329Y008917D01*
X011294Y009015D02*
X011909Y009015D01*
X011909Y009114D02*
X011243Y009114D01*
X011304Y009212D02*
X011909Y009212D01*
X011909Y009311D02*
X011325Y009311D01*
X011315Y009409D02*
X011909Y009409D01*
X011966Y009508D02*
X011268Y009508D01*
X011288Y009606D02*
X015819Y009606D01*
X015819Y009705D02*
X011325Y009705D01*
X011325Y009803D02*
X015819Y009803D01*
X015819Y009902D02*
X011290Y009902D01*
X011209Y010000D02*
X015819Y010000D01*
X015819Y012364D02*
X012597Y012364D01*
X012608Y012369D02*
X012695Y012455D01*
X012742Y012569D01*
X012742Y012692D01*
X012695Y012805D01*
X012608Y012892D01*
X012495Y012939D01*
X012372Y012939D01*
X012259Y012892D01*
X012172Y012805D01*
X012125Y012692D01*
X012125Y012569D01*
X012172Y012455D01*
X012259Y012369D01*
X012372Y012322D01*
X012495Y012322D01*
X012608Y012369D01*
X012698Y012463D02*
X015819Y012463D01*
X015819Y012561D02*
X012739Y012561D01*
X012742Y012660D02*
X015819Y012660D01*
X015819Y012758D02*
X014707Y012758D01*
X014411Y012758D02*
X012715Y012758D01*
X012644Y012857D02*
X014287Y012857D01*
X012223Y012857D02*
X011820Y012857D01*
X011881Y012758D02*
X012152Y012758D01*
X012125Y012660D02*
X011906Y012660D01*
X011905Y012561D02*
X012128Y012561D01*
X012169Y012463D02*
X011864Y012463D01*
X011780Y012364D02*
X012270Y012364D01*
X010097Y010788D02*
X009829Y010788D01*
X009829Y010690D02*
X010097Y010690D01*
X010097Y010591D02*
X009792Y010591D01*
X009709Y010493D02*
X010180Y010493D01*
X010278Y010394D02*
X008707Y010394D01*
X008805Y010296D02*
X010377Y010296D01*
X010475Y010197D02*
X008904Y010197D01*
X009002Y010099D02*
X010574Y010099D01*
X010755Y010000D02*
X009101Y010000D01*
X008802Y009705D02*
X008726Y009705D01*
X008706Y009606D02*
X008901Y009606D01*
X008645Y009508D02*
X010764Y009508D01*
X009331Y010493D02*
X009236Y010493D01*
X008859Y010493D02*
X008608Y010493D01*
X008510Y010591D02*
X008775Y010591D01*
X008739Y010690D02*
X008411Y010690D01*
X008313Y010788D02*
X008739Y010788D01*
X008774Y010887D02*
X008214Y010887D01*
X008116Y010985D02*
X008855Y010985D01*
X009240Y010985D02*
X009328Y010985D01*
X006438Y012069D02*
X004043Y012069D01*
X004147Y012167D02*
X006340Y012167D01*
X006241Y012266D02*
X004203Y012266D01*
X004237Y012364D02*
X006143Y012364D01*
X006044Y012463D02*
X004237Y012463D01*
X004220Y012561D02*
X005946Y012561D01*
X005847Y012660D02*
X004179Y012660D01*
X004262Y013054D02*
X000320Y013054D01*
X000320Y013152D02*
X004251Y013152D01*
X004270Y013251D02*
X000320Y013251D01*
X000320Y013349D02*
X004330Y013349D01*
X005949Y013152D02*
X007552Y013152D01*
X007420Y013054D02*
X006047Y013054D01*
X006146Y012955D02*
X007372Y012955D01*
X007361Y012857D02*
X006244Y012857D01*
X006343Y012758D02*
X007380Y012758D01*
X007440Y012660D02*
X006441Y012660D01*
X003435Y015024D02*
X000320Y015024D01*
X000320Y015122D02*
X003395Y015122D01*
X003386Y015221D02*
X000320Y015221D01*
X000320Y015319D02*
X003388Y015319D01*
X003429Y015418D02*
X000320Y015418D01*
X000320Y015516D02*
X003496Y015516D01*
X003630Y015615D02*
X000320Y015615D01*
X000320Y015713D02*
X004487Y015713D01*
X004585Y015615D02*
X003993Y015615D01*
X004290Y015910D02*
X000320Y015910D01*
X000320Y015812D02*
X004388Y015812D01*
X004191Y016009D02*
X000320Y016009D01*
X000320Y016107D02*
X004093Y016107D01*
X003994Y016206D02*
X000320Y016206D01*
X000320Y016304D02*
X003896Y016304D01*
X003797Y016403D02*
X000320Y016403D01*
X000320Y016501D02*
X003699Y016501D01*
X003601Y016600D02*
X000320Y016600D01*
X000320Y016698D02*
X003601Y016698D01*
X003601Y016797D02*
X002104Y016797D01*
X002161Y016820D02*
X002378Y017037D01*
X002495Y017320D01*
X002495Y017626D01*
X002378Y017909D01*
X002161Y018126D01*
X001878Y018243D01*
X001572Y018243D01*
X001289Y018126D01*
X001072Y017909D01*
X000955Y017626D01*
X000955Y017320D01*
X001072Y017037D01*
X001289Y016820D01*
X001572Y016703D01*
X001878Y016703D01*
X002161Y016820D01*
X002236Y016895D02*
X003601Y016895D01*
X003601Y016994D02*
X002334Y016994D01*
X002401Y017092D02*
X003601Y017092D01*
X003601Y017191D02*
X002441Y017191D01*
X002482Y017289D02*
X003601Y017289D01*
X003601Y017388D02*
X002495Y017388D01*
X002495Y017486D02*
X003601Y017486D01*
X003601Y017585D02*
X002495Y017585D01*
X002471Y017683D02*
X003601Y017683D01*
X003601Y017782D02*
X002430Y017782D01*
X002390Y017880D02*
X003601Y017880D01*
X003482Y017979D02*
X002308Y017979D01*
X002210Y018077D02*
X003403Y018077D01*
X003362Y018176D02*
X002040Y018176D01*
X001409Y018176D02*
X000395Y018176D01*
X000427Y018274D02*
X003345Y018274D01*
X003345Y018373D02*
X000489Y018373D01*
X000561Y018471D02*
X003373Y018471D01*
X003414Y018570D02*
X000634Y018570D01*
X000769Y018668D02*
X003508Y018668D01*
X003689Y018767D02*
X000912Y018767D01*
X001220Y018865D02*
X012845Y018865D01*
X013024Y018733D02*
X022079Y018733D01*
X022079Y016882D01*
X013529Y016882D01*
X013529Y017006D01*
X013464Y017163D01*
X013344Y017283D01*
X013187Y017348D01*
X013024Y017348D01*
X013024Y018733D01*
X013024Y018668D02*
X022079Y018668D01*
X022079Y018570D02*
X013024Y018570D01*
X013024Y018471D02*
X022079Y018471D01*
X022079Y018373D02*
X013024Y018373D01*
X013024Y018274D02*
X022079Y018274D01*
X022079Y018176D02*
X013024Y018176D01*
X013024Y018077D02*
X013678Y018077D01*
X013631Y018058D02*
X013502Y017929D01*
X013433Y017761D01*
X013433Y017579D01*
X013502Y017411D01*
X013631Y017282D01*
X013799Y017212D01*
X013981Y017212D01*
X014149Y017282D01*
X014278Y017411D01*
X014348Y017579D01*
X014348Y017761D01*
X014278Y017929D01*
X014149Y018058D01*
X013981Y018127D01*
X013799Y018127D01*
X013631Y018058D01*
X013552Y017979D02*
X013024Y017979D01*
X013024Y017880D02*
X013482Y017880D01*
X013441Y017782D02*
X013024Y017782D01*
X013024Y017683D02*
X013433Y017683D01*
X013433Y017585D02*
X013024Y017585D01*
X013024Y017486D02*
X013471Y017486D01*
X013525Y017388D02*
X013024Y017388D01*
X013329Y017289D02*
X013624Y017289D01*
X013436Y017191D02*
X017164Y017191D01*
X017186Y017139D02*
X017281Y017044D01*
X017405Y016992D01*
X017540Y016992D01*
X017665Y017044D01*
X017760Y017139D01*
X017812Y017264D01*
X017812Y017398D01*
X017782Y017469D01*
X017812Y017539D01*
X017812Y017674D01*
X017760Y017799D01*
X017665Y017894D01*
X017540Y017945D01*
X017405Y017945D01*
X017281Y017894D01*
X017186Y017799D01*
X017134Y017674D01*
X017134Y017539D01*
X017163Y017469D01*
X017134Y017398D01*
X017134Y017264D01*
X017186Y017139D01*
X017233Y017092D02*
X013493Y017092D01*
X013529Y016994D02*
X017403Y016994D01*
X017543Y016994D02*
X022079Y016994D01*
X022079Y017092D02*
X017713Y017092D01*
X017781Y017191D02*
X022079Y017191D01*
X022079Y017289D02*
X017812Y017289D01*
X017812Y017388D02*
X022079Y017388D01*
X022079Y017486D02*
X019047Y017486D01*
X019082Y017501D02*
X019177Y017596D01*
X019229Y017720D01*
X019229Y017855D01*
X019177Y017980D01*
X019082Y018075D01*
X018958Y018127D01*
X018823Y018127D01*
X018698Y018075D01*
X018603Y017980D01*
X018551Y017855D01*
X018551Y017720D01*
X018603Y017596D01*
X018698Y017501D01*
X018823Y017449D01*
X018958Y017449D01*
X019082Y017501D01*
X019166Y017585D02*
X022079Y017585D01*
X022079Y017683D02*
X019213Y017683D01*
X019229Y017782D02*
X022079Y017782D01*
X022079Y017880D02*
X019219Y017880D01*
X019178Y017979D02*
X022079Y017979D01*
X022079Y018077D02*
X019077Y018077D01*
X018703Y018077D02*
X014102Y018077D01*
X014228Y017979D02*
X018603Y017979D01*
X018562Y017880D02*
X017679Y017880D01*
X017767Y017782D02*
X018551Y017782D01*
X018567Y017683D02*
X017808Y017683D01*
X017812Y017585D02*
X018614Y017585D01*
X018733Y017486D02*
X017790Y017486D01*
X017156Y017486D02*
X014309Y017486D01*
X014348Y017585D02*
X017134Y017585D01*
X017138Y017683D02*
X014348Y017683D01*
X014339Y017782D02*
X017179Y017782D01*
X017267Y017880D02*
X014298Y017880D01*
X014255Y017388D02*
X017134Y017388D01*
X017134Y017289D02*
X014156Y017289D01*
X013529Y016895D02*
X022079Y016895D01*
X020485Y018122D02*
X020307Y018300D01*
X020111Y018300D01*
X027591Y018274D02*
X027991Y018274D01*
X027991Y018322D02*
X027991Y018199D01*
X028038Y018085D01*
X028125Y017998D01*
X028206Y017965D01*
X028125Y017931D01*
X028038Y017845D01*
X027991Y017731D01*
X027991Y017608D01*
X028038Y017495D01*
X028125Y017408D01*
X028238Y017361D01*
X028361Y017361D01*
X028474Y017408D01*
X028561Y017495D01*
X028595Y017576D01*
X028628Y017495D01*
X028715Y017408D01*
X028829Y017361D01*
X028952Y017361D01*
X029065Y017408D01*
X029152Y017495D01*
X029199Y017608D01*
X029199Y017731D01*
X029152Y017845D01*
X029065Y017931D01*
X028984Y017965D01*
X029065Y017998D01*
X029152Y018085D01*
X029199Y018199D01*
X029199Y018322D01*
X029152Y018435D01*
X029065Y018522D01*
X028952Y018569D01*
X028829Y018569D01*
X028715Y018522D01*
X028628Y018435D01*
X028595Y018354D01*
X028561Y018435D01*
X028474Y018522D01*
X028361Y018569D01*
X028238Y018569D01*
X028125Y018522D01*
X028038Y018435D01*
X027991Y018322D01*
X028012Y018373D02*
X027591Y018373D01*
X027591Y018471D02*
X028074Y018471D01*
X028525Y018471D02*
X028664Y018471D01*
X028603Y018373D02*
X028587Y018373D01*
X029116Y018471D02*
X030436Y018471D01*
X030400Y018435D02*
X030353Y018322D01*
X030353Y018199D01*
X030400Y018085D01*
X030487Y017998D01*
X030568Y017965D01*
X030487Y017931D01*
X030400Y017845D01*
X030353Y017731D01*
X030353Y017608D01*
X030400Y017495D01*
X030487Y017408D01*
X030600Y017361D01*
X030723Y017361D01*
X030837Y017408D01*
X030924Y017495D01*
X030957Y017576D01*
X030991Y017495D01*
X031077Y017408D01*
X031191Y017361D01*
X031314Y017361D01*
X031427Y017408D01*
X031514Y017495D01*
X031561Y017608D01*
X031561Y017731D01*
X031514Y017845D01*
X031427Y017931D01*
X031346Y017965D01*
X031427Y017998D01*
X031514Y018085D01*
X031561Y018199D01*
X031561Y018322D01*
X031514Y018435D01*
X031427Y018522D01*
X031314Y018569D01*
X031191Y018569D01*
X031077Y018522D01*
X030991Y018435D01*
X030957Y018354D01*
X030924Y018435D01*
X030837Y018522D01*
X030723Y018569D01*
X030600Y018569D01*
X030487Y018522D01*
X030400Y018435D01*
X030374Y018373D02*
X029821Y018373D01*
X029811Y018382D02*
X029662Y018444D01*
X029499Y018444D01*
X029349Y018382D01*
X029235Y018268D01*
X029173Y018118D01*
X029173Y017955D01*
X029235Y017806D01*
X029349Y017691D01*
X029499Y017629D01*
X029662Y017629D01*
X029811Y017691D01*
X029926Y017806D01*
X029988Y017955D01*
X029988Y018118D01*
X029926Y018268D01*
X029811Y018382D01*
X029920Y018274D02*
X030353Y018274D01*
X030363Y018176D02*
X029964Y018176D01*
X029988Y018077D02*
X030408Y018077D01*
X030535Y017979D02*
X029988Y017979D01*
X029957Y017880D02*
X030436Y017880D01*
X030374Y017782D02*
X029902Y017782D01*
X029793Y017683D02*
X030353Y017683D01*
X030363Y017585D02*
X029189Y017585D01*
X029199Y017683D02*
X029368Y017683D01*
X029259Y017782D02*
X029178Y017782D01*
X029204Y017880D02*
X029116Y017880D01*
X029173Y017979D02*
X029017Y017979D01*
X029144Y018077D02*
X029173Y018077D01*
X029189Y018176D02*
X029197Y018176D01*
X029199Y018274D02*
X029241Y018274D01*
X029178Y018373D02*
X029340Y018373D01*
X028173Y017979D02*
X027591Y017979D01*
X027591Y018077D02*
X028046Y018077D01*
X028001Y018176D02*
X027591Y018176D01*
X027591Y017880D02*
X028073Y017880D01*
X028012Y017782D02*
X027591Y017782D01*
X027591Y017683D02*
X027991Y017683D01*
X028001Y017585D02*
X027591Y017585D01*
X027591Y017486D02*
X028047Y017486D01*
X028174Y017388D02*
X027591Y017388D01*
X027591Y017289D02*
X037582Y017289D01*
X037569Y017320D02*
X037686Y017037D01*
X037903Y016820D01*
X038186Y016703D01*
X038492Y016703D01*
X038775Y016820D01*
X038992Y017037D01*
X039109Y017320D01*
X039109Y017626D01*
X038992Y017909D01*
X038775Y018126D01*
X038492Y018243D01*
X038186Y018243D01*
X037903Y018126D01*
X037686Y017909D01*
X037569Y017626D01*
X037569Y017320D01*
X037569Y017388D02*
X031378Y017388D01*
X031505Y017486D02*
X037569Y017486D01*
X037569Y017585D02*
X033509Y017585D01*
X033494Y017578D02*
X033709Y017667D01*
X033873Y017831D01*
X033962Y018046D01*
X033962Y018278D01*
X033873Y018492D01*
X033709Y018656D01*
X033494Y018745D01*
X033262Y018745D01*
X033048Y018656D01*
X032884Y018492D01*
X032795Y018278D01*
X032795Y018046D01*
X032884Y017831D01*
X033048Y017667D01*
X033262Y017578D01*
X033494Y017578D01*
X033248Y017585D02*
X031551Y017585D01*
X031561Y017683D02*
X033032Y017683D01*
X032934Y017782D02*
X031540Y017782D01*
X031479Y017880D02*
X032864Y017880D01*
X032823Y017979D02*
X031379Y017979D01*
X031506Y018077D02*
X032795Y018077D01*
X032795Y018176D02*
X031551Y018176D01*
X031561Y018274D02*
X032795Y018274D01*
X032834Y018373D02*
X031540Y018373D01*
X031478Y018471D02*
X032875Y018471D01*
X032961Y018570D02*
X027591Y018570D01*
X027591Y018668D02*
X033076Y018668D01*
X033681Y018668D02*
X039015Y018668D01*
X039080Y018631D02*
X038810Y018787D01*
X038571Y018851D01*
X027591Y018851D01*
X027591Y007121D01*
X027665Y007091D01*
X027760Y006995D01*
X027812Y006871D01*
X027812Y006736D01*
X027760Y006612D01*
X027665Y006516D01*
X027591Y006486D01*
X027591Y005090D01*
X027704Y005043D01*
X027799Y004948D01*
X027851Y004824D01*
X027851Y004689D01*
X027799Y004564D01*
X027704Y004469D01*
X027591Y004422D01*
X027591Y003749D01*
X027621Y003736D01*
X027717Y003641D01*
X027768Y003517D01*
X027768Y003382D01*
X027717Y003257D01*
X027621Y003162D01*
X027591Y003149D01*
X027591Y000320D01*
X038130Y000320D01*
X038315Y000332D01*
X038672Y000428D01*
X038993Y000613D01*
X039254Y000874D01*
X039439Y001195D01*
X039535Y001552D01*
X039547Y001737D01*
X039547Y003709D01*
X039536Y003698D01*
X039536Y003698D01*
X039489Y003679D01*
X039444Y003660D01*
X039444Y003660D01*
X039394Y003660D01*
X036298Y003654D01*
X036303Y003649D01*
X036355Y003524D01*
X036355Y003390D01*
X036303Y003265D01*
X036208Y003170D01*
X036084Y003118D01*
X035949Y003118D01*
X035824Y003170D01*
X035778Y003216D01*
X035758Y003195D01*
X035644Y003148D01*
X035522Y003148D01*
X035408Y003195D01*
X035321Y003282D01*
X035274Y003396D01*
X035274Y003518D01*
X035321Y003632D01*
X035342Y003653D01*
X034984Y003652D01*
X034983Y003652D01*
X034933Y003652D01*
X034884Y003652D01*
X034884Y003652D01*
X034839Y003671D01*
X034792Y003690D01*
X034792Y003690D01*
X034758Y003724D01*
X034722Y003760D01*
X034722Y003760D01*
X034722Y003760D01*
X034702Y003807D01*
X034684Y003852D01*
X034684Y003852D01*
X034684Y003852D01*
X034683Y003903D01*
X034683Y003951D01*
X034683Y003951D01*
X034680Y007425D01*
X034679Y007474D01*
X034679Y007474D01*
X034679Y007475D01*
X034698Y007521D01*
X034717Y007566D01*
X034717Y007566D01*
X034717Y007567D01*
X034752Y007602D01*
X034787Y007637D01*
X034787Y007637D01*
X034788Y007637D01*
X034833Y007656D01*
X034878Y007675D01*
X034879Y007675D01*
X034880Y007676D01*
X034929Y007676D01*
X035537Y007679D01*
X035520Y007720D01*
X035520Y007855D01*
X035568Y007971D01*
X030977Y007971D01*
X030928Y007971D01*
X030928Y007971D01*
X030927Y007971D01*
X030882Y007990D01*
X030836Y008008D01*
X030836Y008009D01*
X030835Y008009D01*
X030801Y008044D01*
X030766Y008078D01*
X030765Y008079D01*
X030765Y008079D01*
X030746Y008125D01*
X030727Y008170D01*
X030727Y008170D01*
X030727Y008171D01*
X030727Y008220D01*
X030722Y009145D01*
X030643Y009224D01*
X030582Y009370D01*
X030582Y009528D01*
X030643Y009675D01*
X030667Y009699D01*
X030643Y009724D01*
X030582Y009870D01*
X030582Y010028D01*
X030643Y010175D01*
X030667Y010199D01*
X030643Y010224D01*
X030582Y010370D01*
X030582Y010528D01*
X030643Y010675D01*
X030755Y010787D01*
X030901Y010848D01*
X031060Y010848D01*
X031206Y010787D01*
X031231Y010763D01*
X031255Y010787D01*
X031401Y010848D01*
X031560Y010848D01*
X031706Y010787D01*
X031731Y010763D01*
X031755Y010787D01*
X031901Y010848D01*
X032060Y010848D01*
X032206Y010787D01*
X032318Y010675D01*
X032330Y010648D01*
X034577Y010648D01*
X034577Y010676D01*
X034577Y010676D01*
X034581Y011965D01*
X034581Y012015D01*
X034581Y012015D01*
X034581Y012015D01*
X034600Y012061D01*
X034619Y012107D01*
X034619Y012107D01*
X034620Y012107D01*
X034655Y012142D01*
X034689Y012177D01*
X034690Y012177D01*
X034690Y012177D01*
X034736Y012196D01*
X034781Y012215D01*
X034782Y012215D01*
X034782Y012215D01*
X034831Y012215D01*
X035441Y012215D01*
X035441Y012343D01*
X035493Y012468D01*
X035588Y012563D01*
X035713Y012615D01*
X035847Y012615D01*
X035972Y012563D01*
X036016Y012519D01*
X036060Y012563D01*
X036185Y012615D01*
X036320Y012615D01*
X036444Y012563D01*
X036458Y012549D01*
X036455Y014516D01*
X036455Y014565D01*
X036455Y014565D01*
X036455Y014565D01*
X036474Y014611D01*
X036493Y014657D01*
X036493Y014657D01*
X036493Y014657D01*
X036528Y014693D01*
X036563Y014728D01*
X036563Y014728D01*
X036609Y014747D01*
X036655Y014766D01*
X036704Y014766D01*
X039372Y014774D01*
X039373Y014774D01*
X039422Y014774D01*
X039471Y014774D01*
X039471Y014774D01*
X039472Y014774D01*
X039517Y014755D01*
X039547Y014743D01*
X039547Y017683D01*
X039085Y017683D01*
X039109Y017585D02*
X039547Y017585D01*
X039547Y017683D02*
X039537Y017839D01*
X039456Y018140D01*
X039300Y018410D01*
X039080Y018631D01*
X039141Y018570D02*
X033796Y018570D01*
X033882Y018471D02*
X039239Y018471D01*
X039322Y018373D02*
X033923Y018373D01*
X033962Y018274D02*
X039379Y018274D01*
X039436Y018176D02*
X038655Y018176D01*
X038824Y018077D02*
X039473Y018077D01*
X039499Y017979D02*
X038922Y017979D01*
X039004Y017880D02*
X039526Y017880D01*
X039540Y017782D02*
X039045Y017782D01*
X039109Y017486D02*
X039547Y017486D01*
X039547Y017388D02*
X039109Y017388D01*
X039096Y017289D02*
X039547Y017289D01*
X039547Y017191D02*
X039055Y017191D01*
X039015Y017092D02*
X039547Y017092D01*
X039547Y016994D02*
X038949Y016994D01*
X038850Y016895D02*
X039547Y016895D01*
X039547Y016797D02*
X038718Y016797D01*
X038597Y016207D02*
X038474Y016207D01*
X038361Y016160D01*
X038274Y016073D01*
X038241Y015992D01*
X038207Y016073D01*
X038120Y016160D01*
X038007Y016207D01*
X037884Y016207D01*
X037770Y016160D01*
X037684Y016073D01*
X037637Y015959D01*
X037637Y015837D01*
X037684Y015723D01*
X037770Y015636D01*
X037851Y015603D01*
X037770Y015569D01*
X037684Y015482D01*
X037637Y015369D01*
X037637Y015246D01*
X037684Y015133D01*
X037770Y015046D01*
X037884Y014999D01*
X038007Y014999D01*
X038120Y015046D01*
X038207Y015133D01*
X038241Y015214D01*
X038274Y015133D01*
X038361Y015046D01*
X038474Y014999D01*
X038597Y014999D01*
X038711Y015046D01*
X038798Y015133D01*
X038831Y015214D01*
X038865Y015133D01*
X038951Y015046D01*
X039065Y014999D01*
X039188Y014999D01*
X039301Y015046D01*
X039388Y015133D01*
X039435Y015246D01*
X039435Y015369D01*
X039388Y015482D01*
X039301Y015569D01*
X039220Y015603D01*
X039301Y015636D01*
X039388Y015723D01*
X039435Y015837D01*
X039435Y015959D01*
X039388Y016073D01*
X039301Y016160D01*
X039188Y016207D01*
X039065Y016207D01*
X038951Y016160D01*
X038865Y016073D01*
X038831Y015992D01*
X038798Y016073D01*
X038711Y016160D01*
X038597Y016207D01*
X038600Y016206D02*
X039062Y016206D01*
X039191Y016206D02*
X039547Y016206D01*
X039547Y016304D02*
X035536Y016304D01*
X035526Y016327D02*
X035362Y016491D01*
X035148Y016580D01*
X034916Y016580D01*
X034701Y016491D01*
X034537Y016327D01*
X034449Y016112D01*
X034449Y015880D01*
X034537Y015666D01*
X034701Y015502D01*
X034916Y015413D01*
X035148Y015413D01*
X035362Y015502D01*
X035526Y015666D01*
X035615Y015880D01*
X035615Y016112D01*
X035526Y016327D01*
X035451Y016403D02*
X039547Y016403D01*
X039547Y016501D02*
X035338Y016501D01*
X035577Y016206D02*
X037881Y016206D01*
X038010Y016206D02*
X038471Y016206D01*
X038308Y016107D02*
X038173Y016107D01*
X038234Y016009D02*
X038247Y016009D01*
X038763Y016107D02*
X038899Y016107D01*
X038838Y016009D02*
X038824Y016009D01*
X039354Y016107D02*
X039547Y016107D01*
X039547Y016009D02*
X039415Y016009D01*
X039435Y015910D02*
X039547Y015910D01*
X039547Y015812D02*
X039425Y015812D01*
X039378Y015713D02*
X039547Y015713D01*
X039547Y015615D02*
X039249Y015615D01*
X039354Y015516D02*
X039547Y015516D01*
X039547Y015418D02*
X039415Y015418D01*
X039435Y015319D02*
X039547Y015319D01*
X039547Y015221D02*
X039425Y015221D01*
X039378Y015122D02*
X039547Y015122D01*
X039547Y015024D02*
X039248Y015024D01*
X039005Y015024D02*
X038657Y015024D01*
X038787Y015122D02*
X038875Y015122D01*
X038415Y015024D02*
X038067Y015024D01*
X038196Y015122D02*
X038285Y015122D01*
X037824Y015024D02*
X035489Y015024D01*
X035489Y015004D02*
X035437Y014879D01*
X035342Y014784D01*
X035217Y014733D01*
X035083Y014733D01*
X034958Y014784D01*
X034863Y014879D01*
X034811Y015004D01*
X034811Y015139D01*
X034863Y015263D01*
X034958Y015358D01*
X035083Y015410D01*
X035217Y015410D01*
X035342Y015358D01*
X035437Y015263D01*
X035489Y015139D01*
X035489Y015004D01*
X035456Y014925D02*
X039547Y014925D01*
X039547Y014827D02*
X035384Y014827D01*
X034916Y014827D02*
X034676Y014827D01*
X034633Y014784D02*
X034729Y014879D01*
X034780Y015004D01*
X034780Y015139D01*
X034729Y015263D01*
X034633Y015358D01*
X034509Y015410D01*
X034374Y015410D01*
X034249Y015358D01*
X034154Y015263D01*
X034103Y015139D01*
X034103Y015004D01*
X034154Y014879D01*
X034249Y014784D01*
X034374Y014733D01*
X034509Y014733D01*
X034633Y014784D01*
X034747Y014925D02*
X034844Y014925D01*
X034811Y015024D02*
X034780Y015024D01*
X034780Y015122D02*
X034811Y015122D01*
X034845Y015221D02*
X034746Y015221D01*
X034673Y015319D02*
X034919Y015319D01*
X034905Y015418D02*
X031791Y015418D01*
X031786Y015419D02*
X031663Y015419D01*
X031550Y015372D01*
X031463Y015286D01*
X031416Y015172D01*
X031416Y015049D01*
X031463Y014936D01*
X031550Y014849D01*
X031663Y014802D01*
X031786Y014802D01*
X031900Y014849D01*
X031987Y014936D01*
X032034Y015049D01*
X032034Y015172D01*
X031987Y015286D01*
X031900Y015372D01*
X031786Y015419D01*
X031659Y015418D02*
X027591Y015418D01*
X027591Y015516D02*
X034687Y015516D01*
X034589Y015615D02*
X027591Y015615D01*
X027591Y015713D02*
X034518Y015713D01*
X034477Y015812D02*
X027591Y015812D01*
X027591Y015910D02*
X034449Y015910D01*
X034449Y016009D02*
X027591Y016009D01*
X027591Y016107D02*
X034449Y016107D01*
X034487Y016206D02*
X027591Y016206D01*
X027591Y016304D02*
X034528Y016304D01*
X034613Y016403D02*
X027591Y016403D01*
X027591Y016501D02*
X034726Y016501D01*
X035615Y016107D02*
X037718Y016107D01*
X037657Y016009D02*
X035615Y016009D01*
X035615Y015910D02*
X037637Y015910D01*
X037647Y015812D02*
X035587Y015812D01*
X035546Y015713D02*
X037694Y015713D01*
X037823Y015615D02*
X035475Y015615D01*
X035377Y015516D02*
X037717Y015516D01*
X037657Y015418D02*
X035159Y015418D01*
X035381Y015319D02*
X037637Y015319D01*
X037647Y015221D02*
X035455Y015221D01*
X035489Y015122D02*
X037694Y015122D01*
X036655Y014766D02*
X036655Y014766D01*
X036655Y014766D01*
X036564Y014728D02*
X027591Y014728D01*
X027591Y014630D02*
X036481Y014630D01*
X036455Y014531D02*
X027591Y014531D01*
X027591Y014433D02*
X036455Y014433D01*
X036455Y014334D02*
X027591Y014334D01*
X027591Y014236D02*
X036456Y014236D01*
X036456Y014137D02*
X027591Y014137D01*
X027591Y014039D02*
X036456Y014039D01*
X036456Y013940D02*
X027591Y013940D01*
X027591Y013842D02*
X036456Y013842D01*
X036456Y013743D02*
X027591Y013743D01*
X027591Y013645D02*
X036456Y013645D01*
X036457Y013546D02*
X027591Y013546D01*
X027591Y013448D02*
X036457Y013448D01*
X036457Y013349D02*
X027591Y013349D01*
X027591Y013251D02*
X036457Y013251D01*
X036457Y013152D02*
X027591Y013152D01*
X027591Y013054D02*
X036457Y013054D01*
X036458Y012955D02*
X027591Y012955D01*
X027591Y012857D02*
X036458Y012857D01*
X036458Y012758D02*
X027591Y012758D01*
X027591Y012660D02*
X028898Y012660D01*
X028856Y012642D02*
X028980Y012693D01*
X029115Y012693D01*
X029240Y012642D01*
X029335Y012547D01*
X029386Y012422D01*
X029386Y012287D01*
X029335Y012163D01*
X029240Y012068D01*
X029115Y012016D01*
X028980Y012016D01*
X028856Y012068D01*
X028760Y012163D01*
X028709Y012287D01*
X028709Y012422D01*
X028760Y012547D01*
X028856Y012642D01*
X028775Y012561D02*
X027591Y012561D01*
X027591Y012463D02*
X028726Y012463D01*
X028709Y012364D02*
X027591Y012364D01*
X027591Y012266D02*
X028718Y012266D01*
X028759Y012167D02*
X027591Y012167D01*
X027591Y012069D02*
X028855Y012069D01*
X029240Y012069D02*
X030402Y012069D01*
X030402Y012107D02*
X030402Y011972D01*
X030453Y011848D01*
X030549Y011753D01*
X030673Y011701D01*
X030808Y011701D01*
X030932Y011753D01*
X031028Y011848D01*
X031079Y011972D01*
X031079Y012107D01*
X031028Y012232D01*
X030932Y012327D01*
X030808Y012379D01*
X030673Y012379D01*
X030549Y012327D01*
X030453Y012232D01*
X030402Y012107D01*
X030427Y012167D02*
X029337Y012167D01*
X029377Y012266D02*
X030487Y012266D01*
X030638Y012364D02*
X029386Y012364D01*
X029370Y012463D02*
X035491Y012463D01*
X035450Y012364D02*
X030843Y012364D01*
X030994Y012266D02*
X035441Y012266D01*
X035586Y012561D02*
X029320Y012561D01*
X029197Y012660D02*
X036458Y012660D01*
X036446Y012561D02*
X036458Y012561D01*
X036708Y012561D02*
X039416Y012561D01*
X039415Y012463D02*
X036708Y012463D01*
X036708Y012364D02*
X039415Y012364D01*
X039415Y012266D02*
X036709Y012266D01*
X036709Y012167D02*
X039415Y012167D01*
X039414Y012069D02*
X036709Y012069D01*
X036709Y011970D02*
X039414Y011970D01*
X039414Y011872D02*
X034831Y011872D01*
X034831Y011965D02*
X036709Y011965D01*
X036705Y014516D01*
X039422Y014524D01*
X039410Y010626D01*
X034827Y010626D01*
X034831Y011965D01*
X034831Y011773D02*
X039413Y011773D01*
X039413Y011675D02*
X034830Y011675D01*
X034830Y011576D02*
X039413Y011576D01*
X039412Y011478D02*
X034830Y011478D01*
X034829Y011379D02*
X039412Y011379D01*
X039412Y011281D02*
X034829Y011281D01*
X034829Y011182D02*
X039412Y011182D01*
X039411Y011084D02*
X034829Y011084D01*
X034828Y010985D02*
X039411Y010985D01*
X039411Y010887D02*
X034828Y010887D01*
X034828Y010788D02*
X039410Y010788D01*
X039410Y010690D02*
X034827Y010690D01*
X034577Y010690D02*
X032304Y010690D01*
X032204Y010788D02*
X034578Y010788D01*
X034578Y010887D02*
X027591Y010887D01*
X027591Y010985D02*
X030202Y010985D01*
X030207Y010983D02*
X030330Y010983D01*
X030443Y011030D01*
X030530Y011117D01*
X030577Y011230D01*
X030577Y011353D01*
X030530Y011467D01*
X030443Y011553D01*
X030330Y011600D01*
X030207Y011600D01*
X030093Y011553D01*
X030006Y011467D01*
X029959Y011353D01*
X029959Y011230D01*
X030006Y011117D01*
X030093Y011030D01*
X030207Y010983D01*
X030334Y010985D02*
X034578Y010985D01*
X034579Y011084D02*
X030497Y011084D01*
X030557Y011182D02*
X034579Y011182D01*
X034579Y011281D02*
X030577Y011281D01*
X030566Y011379D02*
X034579Y011379D01*
X034580Y011478D02*
X030519Y011478D01*
X030389Y011576D02*
X034580Y011576D01*
X034580Y011675D02*
X027591Y011675D01*
X027591Y011773D02*
X030528Y011773D01*
X030444Y011872D02*
X027591Y011872D01*
X027591Y011970D02*
X030403Y011970D01*
X030148Y011576D02*
X027591Y011576D01*
X027591Y011478D02*
X030017Y011478D01*
X029970Y011379D02*
X027591Y011379D01*
X027591Y011281D02*
X029959Y011281D01*
X029979Y011182D02*
X027591Y011182D01*
X027591Y011084D02*
X030040Y011084D01*
X030658Y010690D02*
X027591Y010690D01*
X027591Y010788D02*
X030758Y010788D01*
X030608Y010591D02*
X027591Y010591D01*
X027591Y010493D02*
X030582Y010493D01*
X030582Y010394D02*
X027591Y010394D01*
X027591Y010296D02*
X030613Y010296D01*
X030665Y010197D02*
X027591Y010197D01*
X027591Y010099D02*
X030611Y010099D01*
X030582Y010000D02*
X027591Y010000D01*
X027591Y009902D02*
X030582Y009902D01*
X030610Y009803D02*
X028289Y009803D01*
X028249Y009819D02*
X028114Y009819D01*
X027990Y009768D01*
X027894Y009673D01*
X027843Y009548D01*
X027843Y009413D01*
X027894Y009289D01*
X027990Y009194D01*
X028114Y009142D01*
X028249Y009142D01*
X028373Y009194D01*
X028469Y009289D01*
X028520Y009413D01*
X028520Y009548D01*
X028469Y009673D01*
X028373Y009768D01*
X028249Y009819D01*
X028074Y009803D02*
X027591Y009803D01*
X027591Y009705D02*
X027926Y009705D01*
X027867Y009606D02*
X027591Y009606D01*
X027591Y009508D02*
X027843Y009508D01*
X027845Y009409D02*
X027591Y009409D01*
X027591Y009311D02*
X027885Y009311D01*
X027971Y009212D02*
X027591Y009212D01*
X027591Y009114D02*
X030722Y009114D01*
X030722Y009015D02*
X027591Y009015D01*
X027591Y008917D02*
X030723Y008917D01*
X030724Y008818D02*
X027591Y008818D01*
X027591Y008720D02*
X030146Y008720D01*
X030186Y008760D02*
X030091Y008665D01*
X030040Y008540D01*
X030040Y008405D01*
X030091Y008281D01*
X030186Y008186D01*
X030311Y008134D01*
X030446Y008134D01*
X030570Y008186D01*
X030666Y008281D01*
X030717Y008405D01*
X030717Y008540D01*
X030666Y008665D01*
X030570Y008760D01*
X030446Y008812D01*
X030311Y008812D01*
X030186Y008760D01*
X030073Y008621D02*
X027591Y008621D01*
X027591Y008523D02*
X030040Y008523D01*
X030040Y008424D02*
X027591Y008424D01*
X027591Y008326D02*
X030073Y008326D01*
X030145Y008227D02*
X027591Y008227D01*
X027591Y008129D02*
X030744Y008129D01*
X030727Y008227D02*
X030612Y008227D01*
X030684Y008326D02*
X030726Y008326D01*
X030717Y008424D02*
X030726Y008424D01*
X030717Y008523D02*
X030725Y008523D01*
X030725Y008621D02*
X030684Y008621D01*
X030724Y008720D02*
X030611Y008720D01*
X030974Y008720D02*
X039439Y008720D01*
X039438Y008818D02*
X030974Y008818D01*
X030973Y008917D02*
X039438Y008917D01*
X039437Y009015D02*
X030972Y009015D01*
X030972Y009114D02*
X039436Y009114D01*
X039436Y009212D02*
X030971Y009212D01*
X030971Y009311D02*
X039435Y009311D01*
X039435Y009409D02*
X030970Y009409D01*
X030970Y009508D02*
X039434Y009508D01*
X039434Y009606D02*
X030969Y009606D01*
X030969Y009705D02*
X039433Y009705D01*
X039433Y009803D02*
X030968Y009803D01*
X030968Y009902D02*
X039432Y009902D01*
X039432Y010000D02*
X030967Y010000D01*
X030967Y010099D02*
X039431Y010099D01*
X039431Y010197D02*
X030966Y010197D01*
X030966Y010296D02*
X039430Y010296D01*
X039430Y010394D02*
X038786Y010394D01*
X038796Y010398D01*
X039430Y010398D01*
X039441Y008221D01*
X030977Y008221D01*
X030965Y010398D01*
X036779Y010398D01*
X036790Y010394D01*
X037014Y010394D01*
X037024Y010398D01*
X038551Y010398D01*
X038562Y010394D01*
X038786Y010394D01*
X038561Y010394D02*
X037015Y010394D01*
X036789Y010394D02*
X030965Y010394D01*
X031204Y010788D02*
X031258Y010788D01*
X031704Y010788D02*
X031758Y010788D01*
X030953Y011773D02*
X034581Y011773D01*
X034581Y011872D02*
X031038Y011872D01*
X031078Y011970D02*
X034581Y011970D01*
X034603Y012069D02*
X031079Y012069D01*
X031054Y012167D02*
X034680Y012167D01*
X035974Y012561D02*
X036058Y012561D01*
X036708Y012660D02*
X039416Y012660D01*
X039416Y012758D02*
X036708Y012758D01*
X036708Y012857D02*
X039417Y012857D01*
X039417Y012955D02*
X036708Y012955D01*
X036707Y013054D02*
X039417Y013054D01*
X039417Y013152D02*
X036707Y013152D01*
X036707Y013251D02*
X039418Y013251D01*
X039418Y013349D02*
X036707Y013349D01*
X036707Y013448D02*
X039418Y013448D01*
X039419Y013546D02*
X036707Y013546D01*
X036706Y013645D02*
X039419Y013645D01*
X039419Y013743D02*
X036706Y013743D01*
X036706Y013842D02*
X039420Y013842D01*
X039420Y013940D02*
X036706Y013940D01*
X036706Y014039D02*
X039420Y014039D01*
X039420Y014137D02*
X036706Y014137D01*
X036706Y014236D02*
X039421Y014236D01*
X039421Y014334D02*
X036705Y014334D01*
X036705Y014433D02*
X039421Y014433D01*
X036563Y014728D02*
X036563Y014728D01*
X034207Y014827D02*
X031846Y014827D01*
X031976Y014925D02*
X034135Y014925D01*
X034103Y015024D02*
X032023Y015024D01*
X032034Y015122D02*
X034103Y015122D01*
X034137Y015221D02*
X032013Y015221D01*
X031953Y015319D02*
X034210Y015319D01*
X031604Y014827D02*
X027591Y014827D01*
X027591Y014925D02*
X031474Y014925D01*
X031427Y015024D02*
X027591Y015024D01*
X027591Y015122D02*
X031416Y015122D01*
X031436Y015221D02*
X027591Y015221D01*
X027591Y015319D02*
X031497Y015319D01*
X031127Y017388D02*
X030787Y017388D01*
X030915Y017486D02*
X030999Y017486D01*
X030536Y017388D02*
X029016Y017388D01*
X029143Y017486D02*
X030409Y017486D01*
X030949Y018373D02*
X030965Y018373D01*
X031027Y018471D02*
X030888Y018471D01*
X028765Y017388D02*
X028425Y017388D01*
X028553Y017486D02*
X028637Y017486D01*
X027591Y017191D02*
X037622Y017191D01*
X037663Y017092D02*
X027591Y017092D01*
X027591Y016994D02*
X037729Y016994D01*
X037828Y016895D02*
X027591Y016895D01*
X027591Y016797D02*
X037960Y016797D01*
X037593Y017683D02*
X033725Y017683D01*
X033823Y017782D02*
X037633Y017782D01*
X037674Y017880D02*
X033893Y017880D01*
X033934Y017979D02*
X037756Y017979D01*
X037854Y018077D02*
X033962Y018077D01*
X033962Y018176D02*
X038023Y018176D01*
X038845Y018767D02*
X027591Y018767D01*
X027591Y016698D02*
X039547Y016698D01*
X039547Y016600D02*
X027591Y016600D01*
X027315Y010788D02*
X021698Y010788D01*
X021743Y010690D02*
X027315Y010690D01*
X027315Y010591D02*
X021759Y010591D01*
X021750Y010493D02*
X027315Y010493D01*
X027315Y010394D02*
X021709Y010394D01*
X021615Y010296D02*
X027315Y010296D01*
X028437Y009705D02*
X030662Y009705D01*
X030614Y009606D02*
X028496Y009606D01*
X028520Y009508D02*
X030582Y009508D01*
X030582Y009409D02*
X028518Y009409D01*
X028478Y009311D02*
X030607Y009311D01*
X030654Y009212D02*
X028392Y009212D01*
X027315Y009212D02*
X026463Y009212D01*
X026509Y009166D02*
X026411Y009265D01*
X026282Y009318D01*
X026144Y009318D01*
X026015Y009265D01*
X025917Y009166D01*
X025864Y009038D01*
X025864Y008900D01*
X025917Y008772D01*
X025864Y008645D01*
X025864Y008506D01*
X025917Y008378D01*
X025864Y008251D01*
X025864Y008112D01*
X025917Y007985D01*
X025864Y007857D01*
X025864Y007718D01*
X025917Y007590D01*
X026015Y007492D01*
X026144Y007439D01*
X026282Y007439D01*
X026411Y007492D01*
X026509Y007590D01*
X026562Y007718D01*
X026562Y007857D01*
X026509Y007985D01*
X026562Y008112D01*
X026562Y008251D01*
X026509Y008378D01*
X026562Y008506D01*
X026562Y008645D01*
X026509Y008772D01*
X026562Y008900D01*
X026562Y009038D01*
X026509Y009166D01*
X026531Y009114D02*
X027315Y009114D01*
X027315Y009015D02*
X026562Y009015D01*
X026562Y008917D02*
X027315Y008917D01*
X027315Y008818D02*
X026528Y008818D01*
X026531Y008720D02*
X027315Y008720D01*
X027315Y008621D02*
X026562Y008621D01*
X026562Y008523D02*
X027315Y008523D01*
X027315Y008424D02*
X026528Y008424D01*
X026531Y008326D02*
X027315Y008326D01*
X027315Y008227D02*
X026562Y008227D01*
X026562Y008129D02*
X027315Y008129D01*
X027315Y008030D02*
X026528Y008030D01*
X026531Y007932D02*
X027315Y007932D01*
X027315Y007833D02*
X026562Y007833D01*
X026562Y007735D02*
X027315Y007735D01*
X027315Y007636D02*
X026528Y007636D01*
X026456Y007538D02*
X027315Y007538D01*
X027315Y007439D02*
X023693Y007439D01*
X023595Y007341D02*
X027315Y007341D01*
X027315Y007242D02*
X023511Y007242D01*
X023511Y007144D02*
X027315Y007144D01*
X027221Y007045D02*
X023511Y007045D01*
X023511Y006947D02*
X027155Y006947D01*
X027124Y006848D02*
X023511Y006848D01*
X023511Y006750D02*
X027124Y006750D01*
X027159Y006651D02*
X023511Y006651D01*
X023511Y006553D02*
X027231Y006553D01*
X027315Y006454D02*
X023511Y006454D01*
X023511Y006356D02*
X027315Y006356D01*
X027315Y006257D02*
X023511Y006257D01*
X023511Y006159D02*
X027315Y006159D01*
X027315Y006060D02*
X023511Y006060D01*
X023511Y005962D02*
X027315Y005962D01*
X027315Y005863D02*
X023511Y005863D01*
X023511Y005765D02*
X027315Y005765D01*
X027315Y005666D02*
X023511Y005666D01*
X023511Y005568D02*
X027315Y005568D01*
X027315Y005469D02*
X023511Y005469D01*
X023511Y005371D02*
X027315Y005371D01*
X027315Y005272D02*
X023511Y005272D01*
X023511Y005174D02*
X027315Y005174D01*
X027315Y005075D02*
X023511Y005075D01*
X023511Y004977D02*
X027239Y004977D01*
X027315Y005052D02*
X027315Y005052D01*
X027185Y004878D02*
X023511Y004878D01*
X023511Y004780D02*
X027163Y004780D01*
X027166Y004681D02*
X023511Y004681D01*
X023511Y004583D02*
X027207Y004583D01*
X027291Y004484D02*
X023511Y004484D01*
X023511Y004386D02*
X027315Y004386D01*
X027315Y004287D02*
X023511Y004287D01*
X023511Y004189D02*
X027315Y004189D01*
X027315Y004090D02*
X023511Y004090D01*
X023511Y003992D02*
X027315Y003992D01*
X027315Y003893D02*
X023511Y003893D01*
X023511Y003795D02*
X027315Y003795D01*
X027183Y003696D02*
X023511Y003696D01*
X023511Y003598D02*
X027113Y003598D01*
X027081Y003499D02*
X023511Y003499D01*
X023511Y003401D02*
X027081Y003401D01*
X027113Y003302D02*
X023511Y003302D01*
X023511Y003204D02*
X026214Y003204D01*
X026252Y003241D02*
X026154Y003143D01*
X026100Y003015D01*
X026100Y002876D01*
X026154Y002748D01*
X026173Y002729D01*
X026154Y002710D01*
X026100Y002582D01*
X026100Y002443D01*
X026154Y002315D01*
X026173Y002296D01*
X026154Y002277D01*
X026100Y002149D01*
X026100Y002010D01*
X026154Y001882D01*
X026163Y001872D01*
X026154Y001863D01*
X026100Y001735D01*
X026100Y001596D01*
X026154Y001468D01*
X026163Y001459D01*
X026154Y001450D01*
X026100Y001322D01*
X026100Y001183D01*
X026154Y001055D01*
X026212Y000996D01*
X026154Y000938D01*
X026100Y000810D01*
X026100Y000671D01*
X026154Y000543D01*
X026252Y000445D01*
X026380Y000392D01*
X026519Y000392D01*
X026647Y000445D01*
X026745Y000543D01*
X026798Y000671D01*
X026798Y000810D01*
X026745Y000938D01*
X027315Y000938D01*
X027315Y000840D02*
X026786Y000840D01*
X026798Y000741D02*
X027315Y000741D01*
X027315Y000643D02*
X026786Y000643D01*
X026745Y000544D02*
X027315Y000544D01*
X027315Y000446D02*
X026647Y000446D01*
X026251Y000446D02*
X016095Y000446D01*
X016095Y000544D02*
X026153Y000544D01*
X026112Y000643D02*
X016095Y000643D01*
X016095Y000741D02*
X026100Y000741D01*
X026113Y000840D02*
X016095Y000840D01*
X016095Y000938D02*
X026154Y000938D01*
X026172Y001037D02*
X016095Y001037D01*
X016095Y001135D02*
X026120Y001135D01*
X026100Y001234D02*
X016095Y001234D01*
X016095Y001332D02*
X026105Y001332D01*
X026146Y001431D02*
X016095Y001431D01*
X016095Y001529D02*
X026128Y001529D01*
X026100Y001628D02*
X016095Y001628D01*
X016095Y001726D02*
X026100Y001726D01*
X026137Y001825D02*
X016095Y001825D01*
X016095Y001923D02*
X026136Y001923D01*
X026100Y002022D02*
X016095Y002022D01*
X016095Y002120D02*
X026100Y002120D01*
X026129Y002219D02*
X017475Y002219D01*
X017474Y002217D02*
X017572Y002315D01*
X017625Y002443D01*
X017625Y002582D01*
X017572Y002710D01*
X017474Y002808D01*
X017345Y002861D01*
X017207Y002861D01*
X017078Y002808D01*
X016980Y002710D01*
X016927Y002582D01*
X016927Y002443D01*
X016980Y002315D01*
X017078Y002217D01*
X017207Y002163D01*
X017345Y002163D01*
X017474Y002217D01*
X017573Y002317D02*
X026153Y002317D01*
X026112Y002416D02*
X017613Y002416D01*
X017625Y002514D02*
X023026Y002514D01*
X022903Y002613D02*
X017612Y002613D01*
X017570Y002711D02*
X022852Y002711D01*
X022833Y002810D02*
X017470Y002810D01*
X017082Y002810D02*
X016680Y002810D01*
X016677Y002711D02*
X016982Y002711D01*
X016940Y002613D02*
X016636Y002613D01*
X016551Y002514D02*
X016927Y002514D01*
X016939Y002416D02*
X016095Y002416D01*
X016095Y002514D02*
X016112Y002514D01*
X016095Y002317D02*
X016979Y002317D01*
X017076Y002219D02*
X016095Y002219D01*
X016659Y002908D02*
X022838Y002908D01*
X022851Y003007D02*
X016606Y003007D01*
X016477Y003105D02*
X022851Y003105D01*
X022851Y003204D02*
X016610Y003204D01*
X016684Y003302D02*
X022851Y003302D01*
X022851Y003401D02*
X016719Y003401D01*
X016719Y003499D02*
X022851Y003499D01*
X022851Y003598D02*
X016690Y003598D01*
X016625Y003696D02*
X022851Y003696D01*
X023511Y003105D02*
X026138Y003105D01*
X026100Y003007D02*
X023511Y003007D01*
X023525Y002908D02*
X026100Y002908D01*
X026128Y002810D02*
X023530Y002810D01*
X023511Y002711D02*
X026155Y002711D01*
X026113Y002613D02*
X023460Y002613D01*
X023337Y002514D02*
X026100Y002514D01*
X026779Y002627D02*
X026852Y002597D01*
X026991Y002597D01*
X027119Y002650D01*
X027217Y002748D01*
X027270Y002876D01*
X027270Y003015D01*
X027217Y003143D01*
X027119Y003241D01*
X026991Y003294D01*
X026852Y003294D01*
X026724Y003241D01*
X026685Y003202D01*
X026647Y003241D01*
X026519Y003294D01*
X026380Y003294D01*
X026252Y003241D01*
X026684Y003204D02*
X026687Y003204D01*
X027157Y003204D02*
X027182Y003204D01*
X027233Y003105D02*
X027315Y003105D01*
X027315Y003007D02*
X027270Y003007D01*
X027270Y002908D02*
X027315Y002908D01*
X027315Y002810D02*
X027243Y002810D01*
X027181Y002711D02*
X027315Y002711D01*
X027315Y002613D02*
X027030Y002613D01*
X026991Y002428D02*
X026852Y002428D01*
X026779Y002398D01*
X026798Y002443D01*
X026798Y002582D01*
X026779Y002627D01*
X026785Y002613D02*
X026814Y002613D01*
X026798Y002514D02*
X027315Y002514D01*
X027315Y002416D02*
X027021Y002416D01*
X026991Y002428D02*
X027119Y002375D01*
X027217Y002277D01*
X027270Y002149D01*
X027270Y002010D01*
X027217Y001882D01*
X027119Y001783D01*
X026991Y001730D01*
X026852Y001730D01*
X026789Y001757D01*
X026798Y001735D01*
X026798Y001596D01*
X026745Y001468D01*
X026736Y001459D01*
X026745Y001450D01*
X026798Y001322D01*
X026798Y001183D01*
X026745Y001055D01*
X026686Y000996D01*
X026745Y000938D01*
X026727Y001037D02*
X027315Y001037D01*
X027315Y001135D02*
X026778Y001135D01*
X026798Y001234D02*
X027315Y001234D01*
X027315Y001332D02*
X026794Y001332D01*
X026753Y001431D02*
X027315Y001431D01*
X027315Y001529D02*
X026770Y001529D01*
X026798Y001628D02*
X027315Y001628D01*
X027315Y001726D02*
X026798Y001726D01*
X027160Y001825D02*
X027315Y001825D01*
X027315Y001923D02*
X027234Y001923D01*
X027270Y002022D02*
X027315Y002022D01*
X027315Y002120D02*
X027270Y002120D01*
X027241Y002219D02*
X027315Y002219D01*
X027315Y002317D02*
X027177Y002317D01*
X026822Y002416D02*
X026787Y002416D01*
X027591Y002416D02*
X028148Y002416D01*
X028148Y002372D02*
X028195Y002259D01*
X028282Y002172D01*
X028396Y002125D01*
X028518Y002125D01*
X028632Y002172D01*
X028719Y002259D01*
X028752Y002340D01*
X028786Y002259D01*
X028873Y002172D01*
X028986Y002125D01*
X029109Y002125D01*
X029223Y002172D01*
X029309Y002259D01*
X029356Y002372D01*
X029356Y002495D01*
X029309Y002608D01*
X029248Y002670D01*
X029309Y002731D01*
X029356Y002844D01*
X029356Y002967D01*
X029309Y003081D01*
X029223Y003168D01*
X029109Y003215D01*
X028986Y003215D01*
X028873Y003168D01*
X028786Y003081D01*
X028752Y003000D01*
X028719Y003081D01*
X028632Y003168D01*
X028537Y003207D01*
X028587Y003257D01*
X028638Y003382D01*
X028638Y003517D01*
X028587Y003641D01*
X028491Y003736D01*
X028367Y003788D01*
X028232Y003788D01*
X028108Y003736D01*
X028012Y003641D01*
X027961Y003517D01*
X027961Y003382D01*
X028012Y003257D01*
X028108Y003162D01*
X028227Y003113D01*
X028195Y003081D01*
X028148Y002967D01*
X028148Y002844D01*
X028195Y002731D01*
X028257Y002670D01*
X028195Y002608D01*
X028148Y002495D01*
X028148Y002372D01*
X028171Y002317D02*
X027591Y002317D01*
X027591Y002219D02*
X028235Y002219D01*
X028156Y002514D02*
X027591Y002514D01*
X027591Y002613D02*
X028200Y002613D01*
X028215Y002711D02*
X027591Y002711D01*
X027591Y002810D02*
X028163Y002810D01*
X028148Y002908D02*
X027591Y002908D01*
X027591Y003007D02*
X028165Y003007D01*
X028220Y003105D02*
X027591Y003105D01*
X027663Y003204D02*
X028066Y003204D01*
X027994Y003302D02*
X027735Y003302D01*
X027768Y003401D02*
X027961Y003401D01*
X027961Y003499D02*
X027768Y003499D01*
X027735Y003598D02*
X027994Y003598D01*
X028067Y003696D02*
X027662Y003696D01*
X027591Y003795D02*
X033662Y003795D01*
X033665Y003796D02*
X033541Y003744D01*
X033446Y003649D01*
X033394Y003524D01*
X033394Y003390D01*
X033446Y003265D01*
X033541Y003170D01*
X033665Y003118D01*
X033800Y003118D01*
X033925Y003170D01*
X033930Y003175D01*
X033934Y003170D01*
X034059Y003118D01*
X034194Y003118D01*
X034318Y003170D01*
X034344Y003196D01*
X034345Y003195D01*
X034459Y003148D01*
X034581Y003148D01*
X034695Y003195D01*
X034782Y003282D01*
X034829Y003396D01*
X034829Y003518D01*
X034782Y003632D01*
X034695Y003719D01*
X034581Y003766D01*
X034459Y003766D01*
X034345Y003719D01*
X034344Y003718D01*
X034318Y003744D01*
X034194Y003796D01*
X034059Y003796D01*
X033934Y003744D01*
X033930Y003739D01*
X033925Y003744D01*
X033800Y003796D01*
X033665Y003796D01*
X033803Y003795D02*
X034056Y003795D01*
X034197Y003795D02*
X034707Y003795D01*
X034718Y003696D02*
X034786Y003696D01*
X034792Y003690D02*
X034792Y003690D01*
X034796Y003598D02*
X035307Y003598D01*
X035274Y003499D02*
X034829Y003499D01*
X034829Y003401D02*
X035274Y003401D01*
X035313Y003302D02*
X034790Y003302D01*
X034703Y003204D02*
X035400Y003204D01*
X035766Y003204D02*
X035791Y003204D01*
X036242Y003204D02*
X039547Y003204D01*
X039547Y003302D02*
X036319Y003302D01*
X036355Y003401D02*
X039547Y003401D01*
X039547Y003499D02*
X036355Y003499D01*
X036325Y003598D02*
X039547Y003598D01*
X039547Y003696D02*
X039531Y003696D01*
X039536Y003698D02*
X039536Y003698D01*
X039444Y003660D02*
X039444Y003660D01*
X039394Y003910D02*
X034933Y003902D01*
X034930Y007426D01*
X036418Y007433D01*
X036418Y007961D01*
X039390Y007961D01*
X039394Y003910D01*
X039394Y003992D02*
X034933Y003992D01*
X034933Y004090D02*
X039394Y004090D01*
X039394Y004189D02*
X034933Y004189D01*
X034933Y004287D02*
X039394Y004287D01*
X039394Y004386D02*
X034933Y004386D01*
X034933Y004484D02*
X039394Y004484D01*
X039393Y004583D02*
X034933Y004583D01*
X034933Y004681D02*
X039393Y004681D01*
X039393Y004780D02*
X034932Y004780D01*
X034932Y004878D02*
X039393Y004878D01*
X039393Y004977D02*
X034932Y004977D01*
X034932Y005075D02*
X039393Y005075D01*
X039393Y005174D02*
X034932Y005174D01*
X034932Y005272D02*
X039393Y005272D01*
X039393Y005371D02*
X034932Y005371D01*
X034932Y005469D02*
X039393Y005469D01*
X039392Y005568D02*
X034932Y005568D01*
X034931Y005666D02*
X039392Y005666D01*
X039392Y005765D02*
X034931Y005765D01*
X034931Y005863D02*
X039392Y005863D01*
X039392Y005962D02*
X034931Y005962D01*
X034931Y006060D02*
X039392Y006060D01*
X039392Y006159D02*
X034931Y006159D01*
X034931Y006257D02*
X039392Y006257D01*
X039392Y006356D02*
X034931Y006356D01*
X034931Y006454D02*
X039392Y006454D01*
X039392Y006553D02*
X034931Y006553D01*
X034930Y006651D02*
X039391Y006651D01*
X039391Y006750D02*
X034930Y006750D01*
X034930Y006848D02*
X039391Y006848D01*
X039391Y006947D02*
X034930Y006947D01*
X034930Y007045D02*
X039391Y007045D01*
X039391Y007144D02*
X034930Y007144D01*
X034930Y007242D02*
X039391Y007242D01*
X039391Y007341D02*
X034930Y007341D01*
X034680Y007341D02*
X027591Y007341D01*
X027591Y007439D02*
X034679Y007439D01*
X034705Y007538D02*
X027591Y007538D01*
X027591Y007636D02*
X034786Y007636D01*
X035520Y007735D02*
X027591Y007735D01*
X027591Y007833D02*
X035520Y007833D01*
X035552Y007932D02*
X027591Y007932D01*
X027591Y008030D02*
X030814Y008030D01*
X030977Y008227D02*
X039441Y008227D01*
X039441Y008326D02*
X030976Y008326D01*
X030976Y008424D02*
X039440Y008424D01*
X039440Y008523D02*
X030975Y008523D01*
X030975Y008621D02*
X039439Y008621D01*
X039390Y007932D02*
X036418Y007932D01*
X036418Y007833D02*
X039390Y007833D01*
X039390Y007735D02*
X036418Y007735D01*
X036418Y007636D02*
X039390Y007636D01*
X039391Y007538D02*
X036418Y007538D01*
X036418Y007439D02*
X039391Y007439D01*
X034680Y007242D02*
X027591Y007242D01*
X027591Y007144D02*
X034680Y007144D01*
X034680Y007045D02*
X027710Y007045D01*
X027780Y006947D02*
X034680Y006947D01*
X034680Y006848D02*
X027812Y006848D01*
X027812Y006750D02*
X034680Y006750D01*
X034680Y006651D02*
X027776Y006651D01*
X027701Y006553D02*
X034681Y006553D01*
X034681Y006454D02*
X027591Y006454D01*
X027591Y006356D02*
X034681Y006356D01*
X034681Y006257D02*
X027591Y006257D01*
X027591Y006159D02*
X034681Y006159D01*
X034681Y006060D02*
X027591Y006060D01*
X027591Y005962D02*
X034681Y005962D01*
X034681Y005863D02*
X027591Y005863D01*
X027591Y005765D02*
X034681Y005765D01*
X034681Y005666D02*
X027591Y005666D01*
X027591Y005568D02*
X034682Y005568D01*
X034682Y005469D02*
X027591Y005469D01*
X027591Y005371D02*
X034682Y005371D01*
X034682Y005272D02*
X027591Y005272D01*
X027591Y005174D02*
X034682Y005174D01*
X034682Y005075D02*
X027628Y005075D01*
X027771Y004977D02*
X034682Y004977D01*
X034682Y004878D02*
X027828Y004878D01*
X027851Y004780D02*
X034682Y004780D01*
X034683Y004681D02*
X027848Y004681D01*
X027807Y004583D02*
X034683Y004583D01*
X034683Y004484D02*
X027719Y004484D01*
X027591Y004386D02*
X034683Y004386D01*
X034683Y004287D02*
X027591Y004287D01*
X027591Y004189D02*
X034683Y004189D01*
X034683Y004090D02*
X027591Y004090D01*
X027591Y003992D02*
X034683Y003992D01*
X034683Y003893D02*
X027591Y003893D01*
X028532Y003696D02*
X033493Y003696D01*
X033424Y003598D02*
X028605Y003598D01*
X028638Y003499D02*
X033394Y003499D01*
X033394Y003401D02*
X028638Y003401D01*
X028605Y003302D02*
X033430Y003302D01*
X033507Y003204D02*
X029136Y003204D01*
X028959Y003204D02*
X028545Y003204D01*
X028695Y003105D02*
X028810Y003105D01*
X028755Y003007D02*
X028750Y003007D01*
X029285Y003105D02*
X039547Y003105D01*
X039547Y003007D02*
X029340Y003007D01*
X029356Y002908D02*
X039547Y002908D01*
X039547Y002810D02*
X029342Y002810D01*
X029289Y002711D02*
X039547Y002711D01*
X039547Y002613D02*
X029305Y002613D01*
X029348Y002514D02*
X039547Y002514D01*
X039547Y002416D02*
X038684Y002416D01*
X038775Y002378D02*
X038492Y002495D01*
X038186Y002495D01*
X037903Y002378D01*
X037686Y002161D01*
X037569Y001878D01*
X037569Y001572D01*
X037686Y001289D01*
X037903Y001072D01*
X038186Y000955D01*
X038492Y000955D01*
X038775Y001072D01*
X038992Y001289D01*
X039109Y001572D01*
X039109Y001878D01*
X038992Y002161D01*
X038775Y002378D01*
X038836Y002317D02*
X039547Y002317D01*
X039547Y002219D02*
X038934Y002219D01*
X039009Y002120D02*
X039547Y002120D01*
X039547Y002022D02*
X039050Y002022D01*
X039090Y001923D02*
X039547Y001923D01*
X039547Y001825D02*
X039109Y001825D01*
X039109Y001726D02*
X039546Y001726D01*
X039540Y001628D02*
X039109Y001628D01*
X039091Y001529D02*
X039529Y001529D01*
X039502Y001431D02*
X039051Y001431D01*
X039010Y001332D02*
X039476Y001332D01*
X039449Y001234D02*
X038937Y001234D01*
X038838Y001135D02*
X039405Y001135D01*
X039348Y001037D02*
X038689Y001037D01*
X039121Y000741D02*
X027591Y000741D01*
X027591Y000643D02*
X039022Y000643D01*
X038873Y000544D02*
X027591Y000544D01*
X027591Y000446D02*
X038703Y000446D01*
X038370Y000347D02*
X027591Y000347D01*
X027591Y000840D02*
X028952Y000840D01*
X028986Y000826D02*
X029109Y000826D01*
X029223Y000873D01*
X029309Y000959D01*
X029356Y001073D01*
X029356Y001196D01*
X029309Y001309D01*
X029223Y001396D01*
X029109Y001443D01*
X028986Y001443D01*
X028873Y001396D01*
X028786Y001309D01*
X028739Y001196D01*
X028739Y001073D01*
X028786Y000959D01*
X028873Y000873D01*
X028986Y000826D01*
X029143Y000840D02*
X030015Y000840D01*
X030049Y000826D02*
X030172Y000826D01*
X030286Y000873D01*
X030372Y000959D01*
X030419Y001073D01*
X030419Y001196D01*
X030372Y001309D01*
X030286Y001396D01*
X030172Y001443D01*
X030049Y001443D01*
X029936Y001396D01*
X029849Y001309D01*
X029802Y001196D01*
X029802Y001073D01*
X029849Y000959D01*
X029936Y000873D01*
X030049Y000826D01*
X030206Y000840D02*
X031078Y000840D01*
X031112Y000826D02*
X031235Y000826D01*
X031349Y000873D01*
X031435Y000959D01*
X031482Y001073D01*
X031482Y001196D01*
X031435Y001309D01*
X031349Y001396D01*
X031235Y001443D01*
X031112Y001443D01*
X030999Y001396D01*
X030912Y001309D01*
X030865Y001196D01*
X030865Y001073D01*
X030912Y000959D01*
X030999Y000873D01*
X031112Y000826D01*
X031269Y000840D02*
X032063Y000840D01*
X032096Y000826D02*
X032219Y000826D01*
X032333Y000873D01*
X032420Y000959D01*
X032467Y001073D01*
X032467Y001196D01*
X032420Y001309D01*
X032333Y001396D01*
X032219Y001443D01*
X032096Y001443D01*
X031983Y001396D01*
X031896Y001309D01*
X031849Y001196D01*
X031849Y001073D01*
X031896Y000959D01*
X031983Y000873D01*
X032096Y000826D01*
X032253Y000840D02*
X033165Y000840D01*
X033199Y000826D02*
X033085Y000873D01*
X032998Y000959D01*
X032951Y001073D01*
X032951Y001196D01*
X032998Y001309D01*
X033085Y001396D01*
X033199Y001443D01*
X033322Y001443D01*
X033435Y001396D01*
X033522Y001309D01*
X033569Y001196D01*
X033569Y001073D01*
X033522Y000959D01*
X033435Y000873D01*
X033322Y000826D01*
X033199Y000826D01*
X033355Y000840D02*
X034149Y000840D01*
X034183Y000826D02*
X034306Y000826D01*
X034419Y000873D01*
X034506Y000959D01*
X034553Y001073D01*
X034553Y001196D01*
X034506Y001309D01*
X034419Y001396D01*
X034306Y001443D01*
X034183Y001443D01*
X034070Y001396D01*
X033983Y001309D01*
X033936Y001196D01*
X033936Y001073D01*
X033983Y000959D01*
X034070Y000873D01*
X034183Y000826D01*
X034340Y000840D02*
X035173Y000840D01*
X035207Y000826D02*
X035093Y000873D01*
X035006Y000959D01*
X034959Y001073D01*
X034959Y001196D01*
X035006Y001309D01*
X035093Y001396D01*
X035207Y001443D01*
X035330Y001443D01*
X035443Y001396D01*
X035530Y001309D01*
X035577Y001196D01*
X035577Y001073D01*
X035530Y000959D01*
X035443Y000873D01*
X035330Y000826D01*
X035207Y000826D01*
X035363Y000840D02*
X039219Y000840D01*
X039291Y000938D02*
X035508Y000938D01*
X035562Y001037D02*
X037989Y001037D01*
X037840Y001135D02*
X035577Y001135D01*
X035561Y001234D02*
X037741Y001234D01*
X037668Y001332D02*
X035507Y001332D01*
X035360Y001431D02*
X037627Y001431D01*
X037587Y001529D02*
X027591Y001529D01*
X027591Y001431D02*
X028956Y001431D01*
X028809Y001332D02*
X027591Y001332D01*
X027591Y001234D02*
X028755Y001234D01*
X028739Y001135D02*
X027591Y001135D01*
X027591Y001037D02*
X028754Y001037D01*
X028807Y000938D02*
X027591Y000938D01*
X027591Y001628D02*
X037569Y001628D01*
X037569Y001726D02*
X027591Y001726D01*
X027591Y001825D02*
X037569Y001825D01*
X037588Y001923D02*
X027591Y001923D01*
X027591Y002022D02*
X037628Y002022D01*
X037669Y002120D02*
X027591Y002120D01*
X028679Y002219D02*
X028826Y002219D01*
X028762Y002317D02*
X028743Y002317D01*
X029269Y002219D02*
X037744Y002219D01*
X037842Y002317D02*
X029334Y002317D01*
X029356Y002416D02*
X037994Y002416D01*
X035177Y001431D02*
X034336Y001431D01*
X034483Y001332D02*
X035029Y001332D01*
X034975Y001234D02*
X034538Y001234D01*
X034553Y001135D02*
X034959Y001135D01*
X034974Y001037D02*
X034538Y001037D01*
X034485Y000938D02*
X035028Y000938D01*
X034153Y001431D02*
X033352Y001431D01*
X033499Y001332D02*
X034006Y001332D01*
X033951Y001234D02*
X033553Y001234D01*
X033569Y001135D02*
X033936Y001135D01*
X033951Y001037D02*
X033554Y001037D01*
X033501Y000938D02*
X034004Y000938D01*
X033169Y001431D02*
X032249Y001431D01*
X032397Y001332D02*
X033021Y001332D01*
X032967Y001234D02*
X032451Y001234D01*
X032467Y001135D02*
X032951Y001135D01*
X032967Y001037D02*
X032452Y001037D01*
X032398Y000938D02*
X033020Y000938D01*
X032066Y001431D02*
X031265Y001431D01*
X031412Y001332D02*
X031919Y001332D01*
X031865Y001234D02*
X031467Y001234D01*
X031482Y001135D02*
X031849Y001135D01*
X031864Y001037D02*
X031467Y001037D01*
X031414Y000938D02*
X031917Y000938D01*
X031082Y001431D02*
X030202Y001431D01*
X030350Y001332D02*
X030935Y001332D01*
X030881Y001234D02*
X030404Y001234D01*
X030419Y001135D02*
X030865Y001135D01*
X030880Y001037D02*
X030404Y001037D01*
X030351Y000938D02*
X030933Y000938D01*
X030019Y001431D02*
X029139Y001431D01*
X029287Y001332D02*
X029872Y001332D01*
X029818Y001234D02*
X029341Y001234D01*
X029356Y001135D02*
X029802Y001135D01*
X029817Y001037D02*
X029341Y001037D01*
X029288Y000938D02*
X029870Y000938D01*
X034884Y003652D02*
X034884Y003652D01*
X025970Y007538D02*
X023792Y007538D01*
X023890Y007636D02*
X025898Y007636D01*
X025864Y007735D02*
X023989Y007735D01*
X024087Y007833D02*
X025864Y007833D01*
X025895Y007932D02*
X024186Y007932D01*
X024284Y008030D02*
X025898Y008030D01*
X025864Y008129D02*
X024383Y008129D01*
X024481Y008227D02*
X025864Y008227D01*
X025895Y008326D02*
X024580Y008326D01*
X024678Y008424D02*
X025898Y008424D01*
X025864Y008523D02*
X024777Y008523D01*
X024875Y008621D02*
X025864Y008621D01*
X025895Y008720D02*
X024974Y008720D01*
X025072Y008818D02*
X025898Y008818D01*
X025864Y008917D02*
X025171Y008917D01*
X025269Y009015D02*
X025864Y009015D01*
X025895Y009114D02*
X025368Y009114D01*
X025466Y009212D02*
X025963Y009212D01*
X026126Y009311D02*
X025565Y009311D01*
X025663Y009409D02*
X027315Y009409D01*
X027315Y009311D02*
X026300Y009311D01*
X025222Y009902D02*
X023240Y009902D01*
X023255Y009803D02*
X025124Y009803D01*
X025025Y009705D02*
X023246Y009705D01*
X023205Y009606D02*
X024927Y009606D01*
X024828Y009508D02*
X023111Y009508D01*
X023195Y010000D02*
X025321Y010000D01*
X015819Y007341D02*
X014024Y007341D01*
X014041Y007242D02*
X015819Y007242D01*
X015819Y007144D02*
X014028Y007144D01*
X013978Y007045D02*
X015819Y007045D01*
X015819Y006947D02*
X013839Y006947D01*
X013626Y006947D02*
X006682Y006947D01*
X006658Y006887D02*
X006709Y007012D01*
X006709Y007147D01*
X006658Y007271D01*
X006562Y007366D01*
X006438Y007418D01*
X006303Y007418D01*
X006179Y007366D01*
X006083Y007271D01*
X006032Y007147D01*
X006032Y007012D01*
X006083Y006887D01*
X006179Y006792D01*
X006303Y006740D01*
X006438Y006740D01*
X006562Y006792D01*
X006658Y006887D01*
X006618Y006848D02*
X015819Y006848D01*
X015819Y006750D02*
X006460Y006750D01*
X006281Y006750D02*
X005712Y006750D01*
X005690Y006740D02*
X005814Y006792D01*
X005910Y006887D01*
X005961Y007012D01*
X005961Y007147D01*
X005910Y007271D01*
X005814Y007366D01*
X005690Y007418D01*
X005555Y007418D01*
X005431Y007366D01*
X005335Y007271D01*
X005284Y007147D01*
X005284Y007012D01*
X005335Y006887D01*
X005431Y006792D01*
X005555Y006740D01*
X005690Y006740D01*
X005533Y006750D02*
X002010Y006750D01*
X002034Y006651D02*
X007737Y006651D01*
X007692Y006632D02*
X007605Y006545D01*
X007558Y006432D01*
X007558Y006309D01*
X007605Y006196D01*
X007692Y006109D01*
X007805Y006062D01*
X007928Y006062D01*
X008041Y006109D01*
X008128Y006196D01*
X008175Y006309D01*
X008175Y006432D01*
X008128Y006545D01*
X008041Y006632D01*
X007928Y006679D01*
X007805Y006679D01*
X007692Y006632D01*
X007612Y006553D02*
X002034Y006553D01*
X002006Y006454D02*
X007567Y006454D01*
X007558Y006356D02*
X001960Y006356D01*
X001862Y006257D02*
X007579Y006257D01*
X007642Y006159D02*
X001914Y006159D01*
X002002Y006060D02*
X013602Y006060D01*
X013558Y006042D02*
X013671Y006089D01*
X013794Y006089D01*
X013908Y006042D01*
X013994Y005955D01*
X014041Y005841D01*
X014041Y005719D01*
X013994Y005605D01*
X013908Y005518D01*
X013794Y005471D01*
X013671Y005471D01*
X013558Y005518D01*
X013471Y005605D01*
X013424Y005719D01*
X013424Y005841D01*
X013471Y005955D01*
X013558Y006042D01*
X013478Y005962D02*
X010605Y005962D01*
X010578Y005988D02*
X010454Y006040D01*
X010319Y006040D01*
X010194Y005988D01*
X010099Y005893D01*
X010047Y005769D01*
X010047Y005634D01*
X010099Y005509D01*
X010194Y005414D01*
X010319Y005362D01*
X010454Y005362D01*
X010578Y005414D01*
X010673Y005509D01*
X010725Y005634D01*
X010725Y005769D01*
X010673Y005893D01*
X010578Y005988D01*
X010686Y005863D02*
X013433Y005863D01*
X013424Y005765D02*
X010725Y005765D01*
X010725Y005666D02*
X013446Y005666D01*
X013508Y005568D02*
X010698Y005568D01*
X010633Y005469D02*
X015819Y005469D01*
X015819Y005371D02*
X010473Y005371D01*
X010299Y005371D02*
X001719Y005371D01*
X001903Y005469D02*
X010139Y005469D01*
X010075Y005568D02*
X001998Y005568D01*
X002038Y005666D02*
X010047Y005666D01*
X010047Y005765D02*
X002064Y005765D01*
X002064Y005863D02*
X010087Y005863D01*
X010168Y005962D02*
X002043Y005962D01*
X001352Y006257D02*
X000320Y006257D01*
X000320Y006159D02*
X001299Y006159D01*
X001211Y006060D02*
X000320Y006060D01*
X000320Y005962D02*
X001170Y005962D01*
X001149Y005863D02*
X000320Y005863D01*
X000320Y005765D02*
X001149Y005765D01*
X001175Y005666D02*
X000320Y005666D01*
X000320Y005568D02*
X001216Y005568D01*
X001310Y005469D02*
X000320Y005469D01*
X000320Y005371D02*
X001495Y005371D01*
X000320Y005272D02*
X015819Y005272D01*
X015819Y005174D02*
X000320Y005174D01*
X000320Y005075D02*
X015819Y005075D01*
X015819Y004977D02*
X000320Y004977D01*
X000320Y004878D02*
X015819Y004878D01*
X015819Y004780D02*
X000320Y004780D01*
X000320Y004681D02*
X011474Y004681D01*
X011351Y004583D02*
X000320Y004583D01*
X001063Y004189D02*
X002071Y004189D01*
X002244Y004189D02*
X004369Y004189D01*
X004407Y004090D02*
X002395Y004090D01*
X001921Y004090D02*
X001214Y004090D01*
X001269Y003992D02*
X001866Y003992D01*
X001849Y003893D02*
X001286Y003893D01*
X001271Y003795D02*
X001863Y003795D01*
X001915Y003696D02*
X001219Y003696D01*
X000320Y003302D02*
X011369Y003302D01*
X011314Y003204D02*
X000320Y003204D01*
X000320Y002908D02*
X004815Y002908D01*
X004730Y002810D02*
X000320Y002810D01*
X000320Y002711D02*
X004689Y002711D01*
X004671Y002613D02*
X000320Y002613D01*
X000320Y002514D02*
X004671Y002514D01*
X004702Y002416D02*
X002069Y002416D01*
X002222Y002317D02*
X004748Y002317D01*
X004847Y002219D02*
X002320Y002219D01*
X002476Y001923D02*
X004830Y001923D01*
X004736Y001825D02*
X002495Y001825D01*
X002495Y001726D02*
X004695Y001726D01*
X004671Y001628D02*
X002495Y001628D01*
X002477Y001529D02*
X004671Y001529D01*
X004696Y001431D02*
X002436Y001431D01*
X002396Y001332D02*
X004737Y001332D01*
X004832Y001234D02*
X002322Y001234D01*
X001374Y001037D02*
X000555Y001037D01*
X000498Y001135D02*
X001226Y001135D01*
X001127Y001234D02*
X000442Y001234D01*
X000411Y001332D02*
X001054Y001332D01*
X001013Y001431D02*
X000385Y001431D01*
X000358Y001529D02*
X000972Y001529D01*
X000955Y001628D02*
X000333Y001628D01*
X000326Y001726D02*
X000955Y001726D01*
X000955Y001825D02*
X000320Y001825D01*
X000320Y001923D02*
X000973Y001923D01*
X001014Y002022D02*
X000320Y002022D01*
X000320Y002120D02*
X001055Y002120D01*
X001130Y002219D02*
X000320Y002219D01*
X000320Y002317D02*
X001228Y002317D01*
X001380Y002416D02*
X000320Y002416D01*
X001056Y000544D02*
X015819Y000544D01*
X015819Y000446D02*
X001227Y000446D01*
X001572Y000347D02*
X015819Y000347D01*
X011508Y002810D02*
X009507Y002810D01*
X009422Y002908D02*
X011365Y002908D01*
X011830Y004189D02*
X015819Y004189D01*
X015819Y004287D02*
X011893Y004287D01*
X011915Y004386D02*
X015819Y004386D01*
X015819Y004484D02*
X011907Y004484D01*
X011863Y004583D02*
X015819Y004583D01*
X015819Y004681D02*
X011740Y004681D01*
X013957Y005568D02*
X015819Y005568D01*
X015819Y005666D02*
X014020Y005666D01*
X014041Y005765D02*
X015819Y005765D01*
X015819Y005863D02*
X014032Y005863D01*
X013988Y005962D02*
X015819Y005962D01*
X015819Y006060D02*
X013863Y006060D01*
X013488Y007045D02*
X006709Y007045D01*
X006709Y007144D02*
X013437Y007144D01*
X013424Y007242D02*
X006670Y007242D01*
X006588Y007341D02*
X013442Y007341D01*
X015819Y006651D02*
X007996Y006651D01*
X008121Y006553D02*
X015819Y006553D01*
X015819Y006454D02*
X008166Y006454D01*
X008175Y006356D02*
X015819Y006356D01*
X015819Y006257D02*
X008154Y006257D01*
X008091Y006159D02*
X015819Y006159D01*
X008308Y008523D02*
X006488Y008523D01*
X006529Y008621D02*
X008171Y008621D01*
X008122Y008720D02*
X006541Y008720D01*
X006541Y008818D02*
X008109Y008818D01*
X008127Y008917D02*
X006540Y008917D01*
X006639Y009015D02*
X008185Y009015D01*
X005776Y009114D02*
X005367Y009114D01*
X005465Y009015D02*
X005677Y009015D01*
X005634Y008917D02*
X005509Y008917D01*
X005541Y008818D02*
X005601Y008818D01*
X005601Y008720D02*
X005541Y008720D01*
X005529Y008621D02*
X005614Y008621D01*
X005654Y008523D02*
X005488Y008523D01*
X005415Y008424D02*
X005727Y008424D01*
X005855Y008326D02*
X005288Y008326D01*
X005405Y007341D02*
X002034Y007341D01*
X002006Y007242D02*
X005323Y007242D01*
X005284Y007144D02*
X001961Y007144D01*
X001862Y007045D02*
X005284Y007045D01*
X005311Y006947D02*
X001871Y006947D01*
X001969Y006848D02*
X005375Y006848D01*
X005870Y006848D02*
X006123Y006848D01*
X006059Y006947D02*
X005934Y006947D01*
X005961Y007045D02*
X006032Y007045D01*
X006032Y007144D02*
X005961Y007144D01*
X005922Y007242D02*
X006071Y007242D01*
X006153Y007341D02*
X005840Y007341D01*
X001849Y009331D02*
X001692Y009396D01*
X001522Y009396D01*
X001365Y009331D01*
X001244Y009211D01*
X001179Y009054D01*
X001179Y008884D01*
X001244Y008727D01*
X001365Y008606D01*
X001440Y008575D01*
X001350Y008621D02*
X000320Y008621D01*
X000320Y008523D02*
X001343Y008523D01*
X001245Y008424D02*
X000320Y008424D01*
X000320Y008326D02*
X001204Y008326D01*
X001179Y008227D02*
X000320Y008227D01*
X000320Y008129D02*
X001179Y008129D01*
X001207Y008030D02*
X000320Y008030D01*
X000320Y007932D02*
X001252Y007932D01*
X001351Y007833D02*
X000320Y007833D01*
X000320Y007735D02*
X001343Y007735D01*
X001244Y007636D02*
X001179Y007479D01*
X001179Y007439D02*
X000320Y007439D01*
X000320Y007341D02*
X001179Y007341D01*
X001207Y007242D02*
X000320Y007242D01*
X000320Y007144D02*
X001253Y007144D01*
X001351Y007045D02*
X000320Y007045D01*
X000320Y006947D02*
X001342Y006947D01*
X001244Y006848D02*
X000320Y006848D01*
X000320Y006750D02*
X001203Y006750D01*
X001179Y006651D02*
X000320Y006651D01*
X000320Y006553D02*
X001179Y006553D01*
X001207Y006454D02*
X000320Y006454D01*
X000320Y006356D02*
X001253Y006356D01*
X001252Y008720D02*
X000320Y008720D01*
X000320Y008818D02*
X001206Y008818D01*
X001179Y008917D02*
X000320Y008917D01*
X000320Y009015D02*
X001179Y009015D01*
X001204Y009114D02*
X000320Y009114D01*
X000320Y009212D02*
X001245Y009212D01*
X001344Y009311D02*
X000320Y009311D01*
X000320Y009409D02*
X000604Y009409D01*
X000505Y009508D02*
X000320Y009508D01*
X000320Y009606D02*
X000460Y009606D01*
X000433Y009705D02*
X000320Y009705D01*
X000320Y009803D02*
X000433Y009803D01*
X000458Y009902D02*
X000320Y009902D01*
X000320Y010000D02*
X000500Y010000D01*
X000599Y010099D02*
X000320Y010099D01*
X001710Y014137D02*
X001976Y014137D01*
X001877Y014236D02*
X001809Y014236D01*
X001806Y014728D02*
X001879Y014728D01*
X001978Y014827D02*
X001708Y014827D01*
X001345Y016797D02*
X000320Y016797D01*
X000320Y016895D02*
X001214Y016895D01*
X001115Y016994D02*
X000320Y016994D01*
X000320Y017092D02*
X001049Y017092D01*
X001008Y017191D02*
X000320Y017191D01*
X000320Y017289D02*
X000967Y017289D01*
X000955Y017388D02*
X000320Y017388D01*
X000320Y017486D02*
X000955Y017486D01*
X000955Y017585D02*
X000320Y017585D01*
X000320Y017683D02*
X000978Y017683D01*
X001019Y017782D02*
X000320Y017782D01*
X000325Y017880D02*
X001060Y017880D01*
X001142Y017979D02*
X000333Y017979D01*
X000333Y017983D02*
X000333Y017983D01*
X000363Y018077D02*
X001240Y018077D01*
X007166Y017683D02*
X007605Y017683D01*
X007605Y017585D02*
X007264Y017585D01*
X007363Y017486D02*
X007605Y017486D01*
X007615Y017388D02*
X007461Y017388D01*
X007560Y017289D02*
X007714Y017289D01*
X007658Y017191D02*
X007812Y017191D01*
X007757Y017092D02*
X007911Y017092D01*
X007855Y016994D02*
X008009Y016994D01*
X007954Y016895D02*
X008108Y016895D01*
X008052Y016797D02*
X008206Y016797D01*
X008151Y016698D02*
X008305Y016698D01*
X007788Y018283D02*
X007815Y018310D01*
X006815Y002908D02*
X006422Y002908D01*
X006507Y002810D02*
X006730Y002810D01*
X006689Y002711D02*
X006548Y002711D01*
X006566Y002613D02*
X006671Y002613D01*
X006671Y002514D02*
X006566Y002514D01*
X006535Y002416D02*
X006702Y002416D01*
X006748Y002317D02*
X006489Y002317D01*
X006390Y002219D02*
X006847Y002219D01*
X006830Y001923D02*
X006407Y001923D01*
X006501Y001825D02*
X006736Y001825D01*
X006695Y001726D02*
X006542Y001726D01*
X006566Y001628D02*
X006671Y001628D01*
X006671Y001529D02*
X006566Y001529D01*
X006541Y001431D02*
X006696Y001431D01*
X006737Y001332D02*
X006500Y001332D01*
X006405Y001234D02*
X006832Y001234D01*
X007405Y001234D02*
X007832Y001234D01*
X007737Y001332D02*
X007500Y001332D01*
X007541Y001431D02*
X007696Y001431D01*
X007671Y001529D02*
X007566Y001529D01*
X007566Y001628D02*
X007671Y001628D01*
X007695Y001726D02*
X007542Y001726D01*
X007501Y001825D02*
X007736Y001825D01*
X007830Y001923D02*
X007407Y001923D01*
X005830Y001923D02*
X005407Y001923D01*
X005501Y001825D02*
X005736Y001825D01*
X005695Y001726D02*
X005542Y001726D01*
X005566Y001628D02*
X005671Y001628D01*
X005671Y001529D02*
X005566Y001529D01*
X005541Y001431D02*
X005696Y001431D01*
X005737Y001332D02*
X005500Y001332D01*
X005405Y001234D02*
X005832Y001234D01*
X005847Y002219D02*
X005390Y002219D01*
X005489Y002317D02*
X005748Y002317D01*
X005702Y002416D02*
X005535Y002416D01*
X005566Y002514D02*
X005671Y002514D01*
X005671Y002613D02*
X005566Y002613D01*
X005548Y002711D02*
X005689Y002711D01*
X005730Y002810D02*
X005507Y002810D01*
X005422Y002908D02*
X005815Y002908D01*
D20*
X016528Y012709D02*
X016567Y012670D01*
X016528Y012709D02*
X016528Y012906D01*
X016370Y013063D01*
X014559Y013063D01*
D21*
X023181Y007394D02*
X025544Y009756D01*
X027630Y009756D01*
X023181Y007394D02*
X023181Y002827D01*
M02*
