%
M48
M72
T01C0.0100
T02C0.0157
T03C0.0197
T04C0.0276
T05C0.0315
T06C0.0354
T07C0.0400
T08C0.0512
T09C0.0551
T10C0.1200
%
T01
X16801Y16252
X17121Y16252
T02
X18654Y16292
X17473Y17331
X17473Y17607
X18890Y17788
X20111Y18300
X21685Y18300
X21292Y15583
X21292Y15307
X21016Y15307
X20741Y15307
X20741Y15583
X21016Y15583
X18339Y14087
X18221Y12867
X17945Y12867
X17670Y12867
X17394Y12867
X19953Y12512
X21016Y13457
X17119Y15189
X16804Y15189
X14559Y13063
X12433Y12630
X11567Y12630
X8823Y12630
X7670Y12867
X4559Y13142
X9048Y10741
X9520Y10741
X10819Y10741
X10819Y10307
X11016Y9756
X11016Y9323
X10071Y9087
X11020Y8870
X12552Y9008
X12945Y9008
X13339Y9008
X13733Y9008
X14126Y9008
X14520Y9008
X14914Y9008
X15307Y9008
X15701Y9008
X15701Y7945
X15307Y7945
X14914Y7945
X14520Y7945
X14126Y7945
X13733Y7945
X13339Y7945
X12945Y7945
X12552Y7945
X13733Y7237
X13733Y5780
X16370Y5859
X16370Y6174
X16764Y6174
X16764Y5859
X16764Y3969
X17119Y3969
X16370Y3457
X16331Y2788
X17276Y2512
X18142Y1685
X18930Y1685
X20504Y1685
X21292Y1685
X22079Y1685
X22079Y898
X21292Y898
X20504Y898
X22867Y898
X23654Y898
X24441Y898
X24441Y1685
X23181Y2827
X22079Y2473
X21292Y2473
X21292Y3260
X22079Y3260
X22079Y4048
X21292Y4048
X21449Y4756
X21764Y4756
X22079Y4756
X22079Y5071
X21764Y5071
X21449Y5071
X21449Y5386
X21764Y5386
X22079Y5386
X22079Y5701
X21764Y5701
X21449Y5701
X21449Y6016
X21764Y6016
X22079Y6016
X22079Y6804
X21292Y6804
X21292Y7591
X22079Y7591
X22079Y8378
X21292Y8378
X21292Y9166
X22079Y9166
X22867Y9166
X22906Y9796
X21410Y10583
X22867Y8378
X26213Y8181
X26213Y7788
X26213Y8575
X26213Y8969
X28181Y9481
X30378Y8473
X32937Y8489
X32937Y8764
X32937Y9040
X32937Y9315
X33213Y9315
X33213Y9040
X33489Y9040
X33764Y9040
X33764Y9315
X33489Y9315
X33489Y9591
X33764Y9591
X33764Y9867
X33764Y10142
X33489Y10142
X33489Y9867
X33213Y9867
X33213Y10142
X32937Y10142
X32937Y9867
X32937Y9591
X33213Y9591
X34040Y9591
X34315Y9591
X34315Y9867
X34315Y10142
X34040Y10142
X34040Y9867
X34591Y9867
X34591Y10142
X34867Y10142
X35142Y10142
X35142Y9867
X34867Y9867
X34867Y9591
X35142Y9591
X35418Y9591
X35693Y9591
X35693Y9867
X35693Y10142
X35418Y10142
X35418Y9867
X35969Y9867
X35969Y10142
X36244Y10142
X36244Y9867
X36244Y9591
X35969Y9591
X35969Y9315
X35969Y9040
X36244Y9040
X36244Y9315
X35693Y9315
X35693Y9040
X35418Y9040
X35418Y9315
X35142Y9315
X35142Y9040
X34867Y9040
X34867Y9315
X34591Y9315
X34591Y9040
X34315Y9040
X34040Y9040
X34040Y9315
X34315Y9315
X34591Y9591
X34591Y8764
X34591Y8489
X34867Y8489
X35142Y8489
X35142Y8764
X34867Y8764
X35418Y8764
X35693Y8764
X35693Y8489
X35418Y8489
X35969Y8489
X35969Y8764
X36244Y8764
X36244Y8489
X36520Y8489
X36796Y8489
X37071Y8489
X37347Y8489
X37622Y8489
X37622Y8764
X37622Y9040
X37622Y9315
X37898Y9315
X37898Y9040
X37898Y8764
X37898Y8489
X37788Y7713
X37788Y7437
X37788Y7162
X38063Y7162
X38063Y6886
X37788Y6886
X37512Y6886
X37237Y6886
X36961Y6886
X36685Y6886
X36410Y6886
X36134Y6886
X35859Y6886
X35859Y7162
X36134Y7162
X36134Y6611
X35859Y6611
X35859Y6335
X36134Y6335
X36134Y6059
X35859Y6059
X36410Y6059
X36685Y6059
X36961Y6059
X37237Y6059
X37237Y5784
X37512Y5784
X37512Y6059
X37788Y6059
X37788Y5784
X38063Y5784
X38063Y6059
X38339Y6059
X38339Y5784
X38615Y5784
X38890Y5784
X38890Y6059
X38615Y6059
X38615Y6335
X38890Y6335
X38890Y6611
X38615Y6611
X38339Y6611
X38063Y6611
X37788Y6611
X37512Y6611
X37237Y6611
X37237Y6335
X37512Y6335
X37788Y6335
X38063Y6335
X38339Y6335
X39166Y6335
X39166Y6059
X39166Y5784
X39166Y5508
X39166Y5233
X38890Y5233
X38890Y5508
X38615Y5508
X38615Y5233
X38615Y4957
X38890Y4957
X38890Y4681
X38615Y4681
X38339Y4681
X38063Y4681
X37788Y4681
X37512Y4681
X37237Y4681
X37237Y4957
X37512Y4957
X37512Y5233
X37512Y5508
X37237Y5508
X37237Y5233
X37788Y5233
X37788Y5508
X38063Y5508
X38063Y5233
X38063Y4957
X37788Y4957
X38339Y4957
X38339Y5233
X38339Y5508
X39166Y4957
X39166Y4681
X39166Y4406
X38890Y4406
X38615Y4406
X38339Y4406
X38063Y4406
X37788Y4406
X37512Y4406
X37237Y4406
X36016Y3457
X35583Y3457
X34520Y3457
X34126Y3457
X33733Y3457
X33260Y1134
X34244Y1134
X35268Y1134
X32158Y1134
X31174Y1134
X30111Y1134
X29048Y1134
X29048Y2433
X28457Y2433
X28457Y2906
X29048Y2906
X28300Y3449
X27430Y3449
X26922Y2945
X26449Y2945
X26449Y2512
X26449Y2079
X26922Y2079
X26449Y1666
X26449Y1252
X26449Y741
X27512Y4756
X27473Y6804
X33213Y8489
X33213Y8764
X33489Y8764
X33764Y8764
X33764Y8489
X33489Y8489
X34040Y8489
X34040Y8764
X34315Y8764
X34315Y8489
X35859Y7788
X37512Y7162
X36961Y6611
X36685Y6611
X36410Y6611
X36410Y6335
X36685Y6335
X36961Y6335
X39166Y6611
X37898Y9591
X37898Y9867
X37898Y10142
X37622Y10142
X37347Y10142
X37071Y10142
X36796Y10142
X36520Y10142
X36095Y10741
X36095Y11016
X35819Y11016
X35819Y10741
X35819Y11292
X36095Y11292
X36095Y11567
X36370Y11567
X36370Y11843
X36095Y11843
X35819Y11843
X35819Y11567
X36646Y11843
X36922Y11843
X37197Y11843
X37197Y12119
X37197Y12394
X36922Y12394
X36922Y12119
X37473Y12119
X37473Y12394
X37748Y12394
X37748Y12119
X38024Y12119
X38024Y12394
X38300Y12394
X38575Y12394
X38575Y12119
X38300Y12119
X38024Y11843
X37748Y11843
X37473Y11843
X37473Y11567
X37748Y11567
X37748Y11292
X37748Y11016
X37748Y10741
X37622Y9867
X37622Y9591
X38851Y12119
X38851Y12394
X39126Y12394
X39126Y12119
X39126Y12670
X38851Y12670
X38851Y12945
X39126Y12945
X39126Y13221
X38851Y13221
X38851Y13496
X39126Y13496
X39126Y13772
X38851Y13772
X38851Y14048
X38851Y14323
X39126Y14323
X39126Y14048
X39126Y15307
X38536Y15307
X37945Y15307
X37945Y15898
X38536Y15898
X39126Y15898
X35150Y15071
X34441Y15071
X31725Y15111
X31252Y17670
X30662Y17670
X30662Y18260
X31252Y18260
X28890Y18260
X28300Y18260
X28300Y17670
X28890Y17670
X29048Y12355
X30741Y12040
X30268Y11292
X35780Y12276
X36252Y12276
X14756Y3103
X13969Y3103
X13181Y3103
X12394Y3103
X11607Y3103
X11607Y4402
X10386Y5701
X7867Y6370
X6370Y7079
X5622Y7079
X8418Y8811
X8418Y9244
X8418Y9717
X12985Y10465
X7748Y15937
X7119Y15977
X2158Y3890
X977Y3890
T03
X30981Y6433
X31481Y6433
X31981Y6433
X31981Y6933
X31481Y6933
X30981Y6933
X30981Y7433
X31481Y7433
X31981Y7433
X33126Y7540
X33126Y7040
X33126Y6540
X33626Y6540
X34126Y6540
X34126Y7040
X33626Y7040
X33626Y7540
X34126Y7540
X35461Y5335
X35961Y5335
X36461Y5335
X36461Y4835
X36461Y4335
X35961Y4335
X35461Y4335
X35461Y4835
X35961Y4835
X31981Y9449
X31481Y9449
X30981Y9449
X30981Y9949
X31481Y9949
X31981Y9949
X31981Y10449
X31481Y10449
X30981Y10449
X33126Y11028
X33126Y11528
X33626Y11528
X34126Y11528
X34126Y11028
X33626Y11028
X33626Y12028
X34126Y12028
X33126Y12028
X37126Y13233
X37126Y13733
X37626Y13733
X38126Y13733
X38126Y13233
X37626Y13233
X37626Y14233
X38126Y14233
X37126Y14233
T04
X29580Y16037
X29580Y18037
T05
X14678Y17670
X13890Y17670
X3024Y14481
X2237Y14481
X1449Y14481
X1449Y11685
X2237Y11685
X3024Y11685
X1607Y8969
X1607Y8181
X1607Y7394
X1607Y6607
X1607Y5819
T06
X5119Y2422
X6119Y2422
X7119Y2422
X8119Y2422
X9119Y2422
X9119Y1422
X8119Y1422
X7119Y1422
X6119Y1422
X5119Y1422
T07
X5071Y8744
X4071Y8744
X4071Y9744
X5071Y9744
X6071Y9744
X6071Y8744
X6815Y18210
X7815Y18310
X8815Y18210
X5815Y18310
X4815Y18210
X3815Y18310
T08
X3811Y15229
X3811Y12433
X859Y9756
X13103Y16922
T09
X33378Y15996
X35032Y15996
X35032Y18162
X33378Y18162
X36902Y10957
X38674Y10957
X38674Y9304
X36902Y9304
X36902Y7650
X38674Y7650
T10
X1725Y1725
X1725Y17473
X38339Y17473
X38339Y1725
M30
