G75*
G70*
%OFA0B0*%
%FSLAX24Y24*%
%IPPOS*%
%LPD*%
%AMOC8*
5,1,8,0,0,1.08239X$1,22.5*
%
%ADD10R,0.0355X0.0512*%
%ADD11C,0.0780*%
%ADD12R,0.0512X0.0355*%
%ADD13R,0.0670X0.0749*%
%ADD14R,0.0749X0.0670*%
%ADD15R,0.0237X0.0434*%
%ADD16R,0.0820X0.0260*%
%ADD17R,0.0670X0.0500*%
%ADD18R,0.0720X0.0060*%
%ADD19C,0.1240*%
%ADD20C,0.0690*%
%ADD21R,0.0690X0.0690*%
%ADD22R,0.1420X0.2040*%
%ADD23R,0.0690X0.0276*%
%ADD24R,0.1851X0.1812*%
%ADD25R,0.0437X0.0437*%
%ADD26R,0.0276X0.0690*%
%ADD27R,0.1812X0.1851*%
%ADD28R,0.0180X0.0700*%
%ADD29C,0.0276*%
%ADD30R,0.0591X0.0158*%
%ADD31R,0.1410X0.1780*%
%ADD32R,0.0180X0.0370*%
%ADD33R,0.0730X0.0630*%
%ADD34C,0.0340*%
%ADD35C,0.0060*%
%ADD36R,0.0355X0.0197*%
%ADD37R,0.0370X0.0150*%
%ADD38R,0.0180X0.0280*%
%ADD39R,0.0870X0.0670*%
%ADD40R,0.0827X0.0512*%
%ADD41R,0.0709X0.1024*%
%ADD42R,0.1300X0.1064*%
%ADD43R,0.2205X0.0768*%
%ADD44C,0.0555*%
%ADD45R,0.0555X0.0555*%
%ADD46C,0.0552*%
%ADD47R,0.0594X0.0594*%
%ADD48C,0.0594*%
%ADD49R,0.0867X0.0867*%
%ADD50C,0.0867*%
%ADD51R,0.0620X0.0150*%
%ADD52R,0.0150X0.0620*%
%ADD53OC8,0.0780*%
%ADD54R,0.0317X0.0317*%
D10*
X017292Y006103D03*
X018000Y006103D03*
X017894Y003918D03*
X018603Y003918D03*
X013705Y009930D03*
X012996Y009930D03*
X013374Y013075D03*
X014083Y013075D03*
X017945Y014874D03*
X018654Y014874D03*
X021725Y012630D03*
X021725Y012040D03*
X022433Y012040D03*
X022433Y012630D03*
X024244Y012315D03*
X024953Y012315D03*
X025622Y012315D03*
X026331Y012315D03*
X029390Y013567D03*
X030099Y013567D03*
X030095Y014276D03*
X029386Y014276D03*
X036205Y015189D03*
X036914Y015189D03*
X019008Y018496D03*
X018300Y018496D03*
X017237Y018496D03*
X016528Y018496D03*
X007111Y015441D03*
X006402Y015441D03*
X005347Y015386D03*
X004638Y015386D03*
X004481Y016260D03*
X005099Y016268D03*
X005807Y016268D03*
X005780Y017237D03*
X005071Y017237D03*
X004481Y017237D03*
X003772Y017237D03*
X003772Y016260D03*
X004638Y011056D03*
X005347Y011056D03*
X032004Y003496D03*
X032713Y003496D03*
D11*
X008815Y018210D03*
X007815Y018310D03*
X006815Y018210D03*
X005815Y018310D03*
X004815Y018210D03*
X003815Y018310D03*
D12*
X009244Y016370D03*
X009835Y016370D03*
X010426Y016370D03*
X011016Y016370D03*
X011016Y015662D03*
X010426Y015662D03*
X009835Y015662D03*
X009244Y015662D03*
X009339Y013367D03*
X009339Y012658D03*
X011036Y012658D03*
X011036Y013367D03*
X013469Y013622D03*
X013469Y014331D03*
X016567Y012670D03*
X017433Y012119D03*
X018103Y012119D03*
X018772Y012119D03*
X018772Y011410D03*
X018103Y011410D03*
X017433Y011410D03*
X016567Y011961D03*
X017748Y013378D03*
X017748Y014087D03*
X023221Y012693D03*
X023221Y011985D03*
X020544Y010465D03*
X019835Y010465D03*
X019835Y009756D03*
X019835Y009323D03*
X020544Y009323D03*
X020544Y009756D03*
X018851Y009500D03*
X018851Y008792D03*
X019835Y008615D03*
X020544Y008615D03*
X026922Y007414D03*
X026922Y006705D03*
X026922Y005760D03*
X026922Y005052D03*
X026922Y004158D03*
X026922Y003449D03*
X023733Y002433D03*
X023181Y002433D03*
X023181Y001725D03*
X023733Y001725D03*
X019737Y001977D03*
X019737Y002685D03*
X009894Y005351D03*
X009894Y006059D03*
X005650Y011744D03*
X005650Y012453D03*
D13*
X015398Y010662D03*
X016500Y010662D03*
X016414Y006859D03*
X017516Y006859D03*
X026890Y010662D03*
X027993Y010662D03*
D14*
X009052Y005402D03*
X009052Y004300D03*
D15*
X009678Y014343D03*
X009993Y014343D03*
X010307Y014343D03*
X010622Y014343D03*
X010622Y014894D03*
X010307Y014894D03*
X009993Y014894D03*
X009678Y014894D03*
D16*
X007750Y014786D03*
X007750Y014286D03*
X007750Y013786D03*
X007750Y013286D03*
X005810Y013286D03*
X005810Y013786D03*
X005810Y014286D03*
X005810Y014786D03*
D17*
X006520Y012383D03*
X006520Y011783D03*
D18*
X006520Y012083D03*
D19*
X001725Y001725D03*
X001725Y017473D03*
X038339Y017473D03*
X038339Y001725D03*
D20*
X029580Y018037D03*
D21*
X029580Y016037D03*
D22*
X033231Y013721D03*
X034861Y013721D03*
X033208Y004902D03*
X031578Y004902D03*
D23*
X034418Y005085D03*
X034418Y004585D03*
X034418Y004085D03*
X034418Y005585D03*
X035170Y006290D03*
X035170Y006790D03*
X035170Y007290D03*
X035170Y007790D03*
X035170Y010778D03*
X035170Y011278D03*
X035170Y011778D03*
X035170Y012278D03*
X036083Y012983D03*
X036083Y013483D03*
X036083Y013983D03*
X036083Y014483D03*
D24*
X037579Y013733D03*
X033674Y011528D03*
X033674Y007040D03*
X035914Y004835D03*
D25*
X035961Y004835D03*
X035461Y004835D03*
X035461Y004335D03*
X035961Y004335D03*
X036461Y004335D03*
X036461Y004835D03*
X036461Y005335D03*
X035961Y005335D03*
X035461Y005335D03*
X034126Y006540D03*
X033626Y006540D03*
X033126Y006540D03*
X033126Y007040D03*
X033126Y007540D03*
X033626Y007540D03*
X034126Y007540D03*
X034126Y007040D03*
X033626Y007040D03*
X031981Y006933D03*
X031481Y006933D03*
X030981Y006933D03*
X030981Y006433D03*
X031481Y006433D03*
X031981Y006433D03*
X031981Y007433D03*
X031481Y007433D03*
X030981Y007433D03*
X030981Y009449D03*
X031481Y009449D03*
X031981Y009449D03*
X031981Y009949D03*
X031481Y009949D03*
X030981Y009949D03*
X030981Y010449D03*
X031481Y010449D03*
X031981Y010449D03*
X033126Y011028D03*
X033126Y011528D03*
X033626Y011528D03*
X034126Y011528D03*
X034126Y011028D03*
X033626Y011028D03*
X033626Y012028D03*
X034126Y012028D03*
X033126Y012028D03*
X037126Y013233D03*
X037126Y013733D03*
X037626Y013733D03*
X038126Y013733D03*
X038126Y013233D03*
X037626Y013233D03*
X037626Y014233D03*
X038126Y014233D03*
X037126Y014233D03*
D26*
X032231Y011493D03*
X031731Y011493D03*
X031231Y011493D03*
X030731Y011493D03*
X030731Y008477D03*
X031231Y008477D03*
X031731Y008477D03*
X032231Y008477D03*
D27*
X031481Y006981D03*
X031481Y009996D03*
D28*
X007487Y006406D03*
X007227Y006406D03*
X006967Y006406D03*
X006717Y006406D03*
X006457Y006406D03*
X006207Y006406D03*
X005947Y006406D03*
X005687Y006406D03*
X005687Y004186D03*
X005947Y004186D03*
X006207Y004186D03*
X006457Y004186D03*
X006717Y004186D03*
X006967Y004186D03*
X007227Y004186D03*
X007487Y004186D03*
D29*
X017709Y008004D03*
X017717Y008378D03*
X017717Y008760D03*
X017721Y009154D03*
X019859Y007886D03*
X020355Y007957D03*
D30*
X020367Y007650D03*
X020367Y007453D03*
X020367Y007256D03*
X020367Y007059D03*
X020367Y006863D03*
X020367Y006666D03*
X020367Y006469D03*
X020367Y006272D03*
X020367Y006075D03*
X020367Y005878D03*
X020367Y005681D03*
X020367Y005485D03*
X020367Y005288D03*
X020367Y005091D03*
X020367Y004894D03*
X020367Y004697D03*
X020367Y004500D03*
X020367Y004304D03*
X020367Y004107D03*
X020367Y003910D03*
X020367Y003713D03*
X020367Y003516D03*
X020367Y003319D03*
X020367Y003122D03*
X023162Y003122D03*
X023162Y003319D03*
X023162Y003516D03*
X023162Y003713D03*
X023162Y003910D03*
X023162Y004107D03*
X023162Y004304D03*
X023162Y004500D03*
X023162Y004697D03*
X023162Y004894D03*
X023162Y005091D03*
X023162Y005288D03*
X023162Y005485D03*
X023162Y005681D03*
X023162Y005878D03*
X023162Y006075D03*
X023162Y006272D03*
X023162Y006469D03*
X023162Y006666D03*
X023162Y006863D03*
X023162Y007059D03*
X023162Y007256D03*
X023162Y007453D03*
X023162Y007650D03*
D31*
X021764Y005386D03*
D32*
X017341Y015672D03*
X017091Y015672D03*
X016831Y015672D03*
X016581Y015672D03*
X016581Y016832D03*
X016831Y016832D03*
X017091Y016832D03*
X017341Y016832D03*
D33*
X016961Y016252D03*
D34*
X016801Y016252D03*
X017121Y016252D03*
D35*
X017301Y016132D02*
X017301Y016032D01*
X017581Y016032D01*
X017581Y016132D01*
X017301Y016132D01*
X017331Y016172D02*
X016591Y016172D01*
X016591Y015932D01*
X016731Y015932D01*
X017191Y015932D01*
X017191Y016572D01*
X016731Y016572D01*
X016591Y016572D01*
X016591Y016332D01*
X017331Y016332D01*
X017331Y016172D01*
X017331Y015932D01*
X017191Y015932D01*
X017181Y015862D02*
X017181Y015472D01*
X016991Y015472D01*
X016991Y015862D01*
X017181Y015862D01*
X017251Y015862D02*
X017251Y015472D01*
X017441Y015472D01*
X017441Y015862D01*
X017251Y015862D01*
X017041Y015932D02*
X016881Y015932D01*
X016881Y016572D01*
X017041Y016572D01*
X017041Y015932D01*
X016931Y015862D02*
X016931Y015472D01*
X016741Y015472D01*
X016741Y015862D01*
X016931Y015862D01*
X016731Y015932D02*
X016731Y016572D01*
X016741Y016642D02*
X016931Y016642D01*
X016931Y017032D01*
X016741Y017032D01*
X016741Y016642D01*
X016671Y016642D02*
X016671Y017032D01*
X016481Y017032D01*
X016481Y016642D01*
X016671Y016642D01*
X016621Y016472D02*
X016341Y016472D01*
X016341Y016372D01*
X016621Y016372D01*
X016621Y016472D01*
X016591Y016332D02*
X016591Y016172D01*
X016621Y016132D02*
X016621Y016032D01*
X016341Y016032D01*
X016341Y016132D01*
X016621Y016132D01*
X016671Y015862D02*
X016671Y015472D01*
X016481Y015472D01*
X016481Y015862D01*
X016671Y015862D01*
X017331Y016332D02*
X017331Y016572D01*
X017191Y016572D01*
X017181Y016642D02*
X017181Y017032D01*
X016991Y017032D01*
X016991Y016642D01*
X017181Y016642D01*
X017251Y016642D02*
X017251Y017032D01*
X017441Y017032D01*
X017441Y016642D01*
X017251Y016642D01*
X017301Y016472D02*
X017301Y016372D01*
X017301Y016472D02*
X017581Y016472D01*
X017581Y016372D01*
X019193Y012972D02*
X019553Y012972D01*
X019553Y012832D01*
X019193Y012832D01*
X019193Y012972D01*
X019193Y012782D02*
X019553Y012782D01*
X019553Y012642D01*
X019193Y012642D01*
X019193Y012782D01*
X019193Y012582D02*
X019553Y012582D01*
X019553Y012442D01*
X019193Y012442D01*
X019193Y012582D01*
X019193Y012382D02*
X019553Y012382D01*
X019553Y012242D01*
X019193Y012242D01*
X019193Y012382D01*
X019193Y012192D02*
X019553Y012192D01*
X019553Y012052D01*
X019193Y012052D01*
X019193Y012192D01*
X020353Y012192D02*
X020713Y012192D01*
X020713Y012052D01*
X020353Y012052D01*
X020353Y012192D01*
X020353Y012242D02*
X020713Y012242D01*
X020713Y012382D01*
X020353Y012382D01*
X020353Y012242D01*
X020353Y012442D02*
X020713Y012442D01*
X020713Y012582D01*
X020353Y012582D01*
X020353Y012442D01*
X020353Y012642D02*
X020713Y012642D01*
X020713Y012782D01*
X020353Y012782D01*
X020353Y012642D01*
X020353Y012832D02*
X020713Y012832D01*
X020713Y012972D01*
X020353Y012972D01*
X020353Y012832D01*
D36*
X017453Y016079D03*
X017453Y016426D03*
X016469Y016426D03*
X016469Y016079D03*
D37*
X019373Y012902D03*
X019373Y012712D03*
X019373Y012512D03*
X019373Y012312D03*
X019373Y012122D03*
X020533Y012122D03*
X020533Y012312D03*
X020533Y012512D03*
X020533Y012712D03*
X020533Y012902D03*
D38*
X019024Y015742D03*
X018654Y015742D03*
X018284Y015742D03*
X018284Y016842D03*
X018654Y016842D03*
X019024Y016842D03*
D39*
X018654Y016292D03*
D40*
X016725Y014481D03*
X016725Y013221D03*
D41*
X020111Y014205D03*
X021685Y014205D03*
D42*
X024599Y013949D03*
X024599Y018319D03*
D43*
X020898Y018319D03*
X020898Y016311D03*
D44*
X013890Y017670D03*
X003024Y014481D03*
X002237Y014481D03*
X002237Y011685D03*
X003024Y011685D03*
X001607Y008969D03*
X001607Y008181D03*
X001607Y007394D03*
X001607Y006607D03*
D45*
X001607Y005819D03*
X001449Y011685D03*
X001449Y014481D03*
X014678Y017670D03*
D46*
X013103Y016922D03*
X003811Y015229D03*
X003811Y012433D03*
X000859Y009756D03*
D47*
X005119Y002422D03*
D48*
X006119Y002422D03*
X007119Y002422D03*
X008119Y002422D03*
X009119Y002422D03*
X009119Y001422D03*
X008119Y001422D03*
X007119Y001422D03*
X006119Y001422D03*
X005119Y001422D03*
D49*
X033378Y018162D03*
X038674Y010957D03*
D50*
X036902Y010957D03*
X036902Y009304D03*
X038674Y009304D03*
X038674Y007650D03*
X036902Y007650D03*
X035032Y015996D03*
X033378Y015996D03*
X035032Y018162D03*
D51*
X012006Y011039D03*
X012006Y010839D03*
X012006Y010639D03*
X012006Y010449D03*
X012006Y010249D03*
X012006Y010049D03*
X012006Y009859D03*
X012006Y009659D03*
X012006Y009459D03*
X012006Y009259D03*
X012006Y009069D03*
X012006Y008869D03*
X012006Y008669D03*
X012006Y008479D03*
X012006Y008279D03*
X012006Y008079D03*
X007586Y008079D03*
X007586Y008279D03*
X007586Y008479D03*
X007586Y008669D03*
X007586Y008869D03*
X007586Y009069D03*
X007586Y009259D03*
X007586Y009459D03*
X007586Y009659D03*
X007586Y009859D03*
X007586Y010049D03*
X007586Y010249D03*
X007586Y010449D03*
X007586Y010639D03*
X007586Y010839D03*
X007586Y011039D03*
D52*
X008316Y011769D03*
X008516Y011769D03*
X008716Y011769D03*
X008906Y011769D03*
X009106Y011769D03*
X009306Y011769D03*
X009496Y011769D03*
X009696Y011769D03*
X009896Y011769D03*
X010096Y011769D03*
X010286Y011769D03*
X010486Y011769D03*
X010686Y011769D03*
X010876Y011769D03*
X011076Y011769D03*
X011276Y011769D03*
X011276Y007349D03*
X011076Y007349D03*
X010876Y007349D03*
X010686Y007349D03*
X010486Y007349D03*
X010286Y007349D03*
X010096Y007349D03*
X009896Y007349D03*
X009696Y007349D03*
X009496Y007349D03*
X009306Y007349D03*
X009106Y007349D03*
X008906Y007349D03*
X008716Y007349D03*
X008516Y007349D03*
X008316Y007349D03*
D53*
X006071Y008744D03*
X005071Y008744D03*
X004071Y008744D03*
X004071Y009744D03*
X005071Y009744D03*
X006071Y009744D03*
D54*
X010071Y009087D03*
X012985Y010465D03*
X012433Y012630D03*
X011567Y012630D03*
X008823Y012630D03*
X004559Y013142D03*
X007119Y015977D03*
X014559Y013063D03*
X021410Y010583D03*
X022906Y009796D03*
X022867Y009166D03*
X022079Y009166D03*
X021292Y009166D03*
X021292Y008378D03*
X022079Y008378D03*
X022867Y008378D03*
X022079Y007591D03*
X021292Y007591D03*
X021292Y006804D03*
X022079Y006804D03*
X022079Y006016D03*
X021764Y006016D03*
X021449Y006016D03*
X021449Y005701D03*
X021449Y005386D03*
X021764Y005386D03*
X022079Y005386D03*
X022079Y005701D03*
X021764Y005701D03*
X021764Y005071D03*
X021764Y004756D03*
X021449Y004756D03*
X021449Y005071D03*
X022079Y005071D03*
X022079Y004756D03*
X022079Y004048D03*
X021292Y004048D03*
X021292Y003260D03*
X022079Y003260D03*
X023181Y002827D03*
X022079Y002473D03*
X021292Y002473D03*
X021292Y001685D03*
X022079Y001685D03*
X022079Y000898D03*
X021292Y000898D03*
X020504Y000898D03*
X020504Y001685D03*
X018930Y001685D03*
X018142Y001685D03*
X017276Y002512D03*
X016331Y002788D03*
X016370Y003457D03*
X013733Y005780D03*
X013733Y007237D03*
X010386Y005701D03*
X006370Y007079D03*
X005622Y007079D03*
X022867Y000898D03*
X023654Y000898D03*
X024441Y000898D03*
X024441Y001685D03*
X026449Y001666D03*
X026449Y002079D03*
X026922Y002079D03*
X026449Y002512D03*
X026449Y002945D03*
X026922Y002945D03*
X027430Y003449D03*
X028300Y003449D03*
X027512Y004756D03*
X027473Y006804D03*
X026213Y007788D03*
X026213Y008181D03*
X026213Y008575D03*
X026213Y008969D03*
X028181Y009481D03*
X030378Y008473D03*
X030268Y011292D03*
X030741Y012040D03*
X029048Y012355D03*
X031725Y015111D03*
X034441Y015071D03*
X035150Y015071D03*
X017473Y017331D03*
X017473Y017607D03*
X033733Y003457D03*
X034126Y003457D03*
X034520Y003457D03*
X035583Y003457D03*
X036016Y003457D03*
X026449Y001252D03*
X026449Y000741D03*
M02*
