G75*
G70*
%OFA0B0*%
%FSLAX24Y24*%
%IPPOS*%
%LPD*%
%AMOC8*
5,1,8,0,0,1.08239X$1,22.5*
%
%ADD10C,0.0740*%
%ADD11C,0.0650*%
%ADD12R,0.0650X0.0650*%
%ADD13R,0.0397X0.0397*%
%ADD14C,0.0300*%
%ADD15C,0.0515*%
%ADD16R,0.0515X0.0515*%
%ADD17R,0.0827X0.0827*%
%ADD18C,0.0827*%
%ADD19OC8,0.0740*%
%ADD20R,0.0554X0.0554*%
%ADD21C,0.0554*%
%ADD22C,0.0100*%
%ADD23R,0.0277X0.0277*%
%ADD24C,0.0080*%
%ADD25C,0.0079*%
D10*
X003815Y018310D03*
X004815Y018210D03*
X005815Y018310D03*
X006815Y018210D03*
X007815Y018310D03*
X008815Y018210D03*
D11*
X029580Y018037D03*
D12*
X029580Y016037D03*
D13*
X033126Y012028D03*
X033626Y012028D03*
X034126Y012028D03*
X034126Y011528D03*
X033626Y011528D03*
X033126Y011528D03*
X033126Y011028D03*
X033626Y011028D03*
X034126Y011028D03*
X031981Y010449D03*
X031481Y010449D03*
X030981Y010449D03*
X030981Y009949D03*
X031481Y009949D03*
X031981Y009949D03*
X031981Y009449D03*
X031481Y009449D03*
X030981Y009449D03*
X030981Y007433D03*
X031481Y007433D03*
X031981Y007433D03*
X031981Y006933D03*
X031481Y006933D03*
X030981Y006933D03*
X030981Y006433D03*
X031481Y006433D03*
X031981Y006433D03*
X033126Y006540D03*
X033126Y007040D03*
X033126Y007540D03*
X033626Y007540D03*
X034126Y007540D03*
X034126Y007040D03*
X033626Y007040D03*
X033626Y006540D03*
X034126Y006540D03*
X035461Y005335D03*
X035961Y005335D03*
X036461Y005335D03*
X036461Y004835D03*
X036461Y004335D03*
X035961Y004335D03*
X035461Y004335D03*
X035461Y004835D03*
X035961Y004835D03*
X037126Y013233D03*
X037126Y013733D03*
X037626Y013733D03*
X038126Y013733D03*
X038126Y013233D03*
X037626Y013233D03*
X037626Y014233D03*
X038126Y014233D03*
X037126Y014233D03*
D14*
X017121Y016252D03*
X016801Y016252D03*
D15*
X013890Y017670D03*
X003024Y014481D03*
X002237Y014481D03*
X002237Y011685D03*
X003024Y011685D03*
X001607Y008969D03*
X001607Y008181D03*
X001607Y007394D03*
X001607Y006607D03*
D16*
X001607Y005819D03*
X001449Y011685D03*
X001449Y014481D03*
X014678Y017670D03*
D17*
X033378Y018162D03*
X038674Y010957D03*
D18*
X036902Y010957D03*
X036902Y009304D03*
X038674Y009304D03*
X038674Y007650D03*
X036902Y007650D03*
X035032Y015996D03*
X033378Y015996D03*
X035032Y018162D03*
D19*
X006071Y009744D03*
X005071Y009744D03*
X004071Y009744D03*
X004071Y008744D03*
X005071Y008744D03*
X006071Y008744D03*
D20*
X009119Y001579D03*
D21*
X008119Y001579D03*
X007119Y001579D03*
X006119Y001579D03*
X005119Y001579D03*
X005119Y002579D03*
X006119Y002579D03*
X007119Y002579D03*
X008119Y002579D03*
X009119Y002579D03*
D22*
X002165Y000370D02*
X001852Y000320D01*
X015819Y000320D01*
X015819Y018878D01*
X001852Y018878D01*
X002165Y018828D01*
X002165Y018828D01*
X002562Y018626D01*
X002562Y018626D01*
X002878Y018310D01*
X002878Y018310D01*
X003080Y017913D01*
X003080Y017913D01*
X003150Y017473D01*
X003080Y017032D01*
X002878Y016635D01*
X002878Y016635D01*
X002562Y016320D01*
X002562Y016320D01*
X002165Y016118D01*
X002165Y016118D01*
X001725Y016048D01*
X001725Y016048D01*
X001284Y016118D01*
X001284Y016118D01*
X000887Y016320D01*
X000887Y016320D01*
X000572Y016635D01*
X000572Y016635D01*
X000370Y017032D01*
X000370Y017032D01*
X000320Y017345D01*
X000320Y001852D01*
X000370Y002165D01*
X000572Y002562D01*
X000572Y002562D01*
X000887Y002878D01*
X000887Y002878D01*
X000887Y002878D01*
X001284Y003080D01*
X001284Y003080D01*
X001725Y003150D01*
X001725Y003150D01*
X002165Y003080D01*
X002165Y003080D01*
X002562Y002878D01*
X002562Y002878D01*
X002878Y002562D01*
X002878Y002562D01*
X003080Y002165D01*
X003080Y002165D01*
X003150Y001725D01*
X003080Y001284D01*
X003080Y001284D01*
X002878Y000887D01*
X002878Y000887D01*
X002562Y000572D01*
X002562Y000572D01*
X002165Y000370D01*
X002165Y000370D01*
X002023Y000347D02*
X015819Y000347D01*
X015819Y000446D02*
X002314Y000446D01*
X002508Y000544D02*
X015819Y000544D01*
X015819Y000643D02*
X002633Y000643D01*
X002731Y000741D02*
X015819Y000741D01*
X015819Y000840D02*
X002830Y000840D01*
X002904Y000938D02*
X015819Y000938D01*
X015819Y001037D02*
X002954Y001037D01*
X003004Y001135D02*
X005022Y001135D01*
X005030Y001132D02*
X005207Y001132D01*
X005372Y001200D01*
X005498Y001326D01*
X005566Y001490D01*
X005566Y001668D01*
X005498Y001832D01*
X005372Y001958D01*
X005207Y002026D01*
X005030Y002026D01*
X004865Y001958D01*
X004739Y001832D01*
X004671Y001668D01*
X004671Y001490D01*
X004739Y001326D01*
X004865Y001200D01*
X005030Y001132D01*
X005215Y001135D02*
X006022Y001135D01*
X006030Y001132D02*
X006207Y001132D01*
X006372Y001200D01*
X006498Y001326D01*
X006566Y001490D01*
X006566Y001668D01*
X006498Y001832D01*
X006372Y001958D01*
X006207Y002026D01*
X006030Y002026D01*
X005865Y001958D01*
X005739Y001832D01*
X005671Y001668D01*
X005671Y001490D01*
X005739Y001326D01*
X005865Y001200D01*
X006030Y001132D01*
X006215Y001135D02*
X007022Y001135D01*
X007030Y001132D02*
X007207Y001132D01*
X007372Y001200D01*
X007498Y001326D01*
X007566Y001490D01*
X007566Y001668D01*
X007498Y001832D01*
X007372Y001958D01*
X007207Y002026D01*
X007030Y002026D01*
X006865Y001958D01*
X006739Y001832D01*
X006671Y001668D01*
X006671Y001490D01*
X006739Y001326D01*
X006865Y001200D01*
X007030Y001132D01*
X007215Y001135D02*
X008022Y001135D01*
X008030Y001132D02*
X008207Y001132D01*
X008372Y001200D01*
X008498Y001326D01*
X008566Y001490D01*
X008566Y001668D01*
X008498Y001832D01*
X008372Y001958D01*
X008207Y002026D01*
X008030Y002026D01*
X007865Y001958D01*
X007739Y001832D01*
X007671Y001668D01*
X007671Y001490D01*
X007739Y001326D01*
X007865Y001200D01*
X008030Y001132D01*
X008215Y001135D02*
X008768Y001135D01*
X008771Y001132D02*
X009466Y001132D01*
X009566Y001232D01*
X009566Y001927D01*
X009466Y002026D01*
X008771Y002026D01*
X008671Y001927D01*
X008671Y001232D01*
X008771Y001132D01*
X008671Y001234D02*
X008405Y001234D01*
X008500Y001332D02*
X008671Y001332D01*
X008671Y001431D02*
X008541Y001431D01*
X008566Y001529D02*
X008671Y001529D01*
X008671Y001628D02*
X008566Y001628D01*
X008542Y001726D02*
X008671Y001726D01*
X008671Y001825D02*
X008501Y001825D01*
X008407Y001923D02*
X008671Y001923D01*
X008766Y002022D02*
X008219Y002022D01*
X008018Y002022D02*
X007219Y002022D01*
X007207Y002132D02*
X007372Y002200D01*
X007498Y002326D01*
X007566Y002490D01*
X007566Y002668D01*
X007498Y002832D01*
X007372Y002958D01*
X007207Y003026D01*
X007030Y003026D01*
X006865Y002958D01*
X006739Y002832D01*
X006671Y002668D01*
X006671Y002490D01*
X006739Y002326D01*
X006865Y002200D01*
X007030Y002132D01*
X007207Y002132D01*
X007390Y002219D02*
X008847Y002219D01*
X008865Y002200D02*
X009030Y002132D01*
X009207Y002132D01*
X009372Y002200D01*
X009498Y002326D01*
X009566Y002490D01*
X009566Y002668D01*
X009498Y002832D01*
X009372Y002958D01*
X009207Y003026D01*
X009030Y003026D01*
X008865Y002958D01*
X008739Y002832D01*
X008671Y002668D01*
X008671Y002490D01*
X008739Y002326D01*
X008865Y002200D01*
X008748Y002317D02*
X007489Y002317D01*
X007535Y002416D02*
X008702Y002416D01*
X008671Y002514D02*
X007566Y002514D01*
X007566Y002613D02*
X008671Y002613D01*
X008689Y002711D02*
X007548Y002711D01*
X007507Y002810D02*
X008730Y002810D01*
X008815Y002908D02*
X007422Y002908D01*
X007255Y003007D02*
X008982Y003007D01*
X009255Y003007D02*
X015819Y003007D01*
X015819Y003105D02*
X002008Y003105D01*
X002310Y003007D02*
X004982Y003007D01*
X005030Y003026D02*
X004865Y002958D01*
X004739Y002832D01*
X004671Y002668D01*
X004671Y002490D01*
X004739Y002326D01*
X004865Y002200D01*
X005030Y002132D01*
X005207Y002132D01*
X005372Y002200D01*
X005498Y002326D01*
X005566Y002490D01*
X005566Y002668D01*
X005498Y002832D01*
X005372Y002958D01*
X005207Y003026D01*
X005030Y003026D01*
X005255Y003007D02*
X005982Y003007D01*
X006030Y003026D02*
X005865Y002958D01*
X005739Y002832D01*
X005671Y002668D01*
X005671Y002490D01*
X005739Y002326D01*
X005865Y002200D01*
X006030Y002132D01*
X006207Y002132D01*
X006372Y002200D01*
X006498Y002326D01*
X006566Y002490D01*
X006566Y002668D01*
X006498Y002832D01*
X006372Y002958D01*
X006207Y003026D01*
X006030Y003026D01*
X006255Y003007D02*
X006982Y003007D01*
X006815Y002908D02*
X006422Y002908D01*
X006507Y002810D02*
X006730Y002810D01*
X006689Y002711D02*
X006548Y002711D01*
X006566Y002613D02*
X006671Y002613D01*
X006671Y002514D02*
X006566Y002514D01*
X006535Y002416D02*
X006702Y002416D01*
X006748Y002317D02*
X006489Y002317D01*
X006390Y002219D02*
X006847Y002219D01*
X007018Y002022D02*
X006219Y002022D01*
X006018Y002022D02*
X005219Y002022D01*
X005018Y002022D02*
X003103Y002022D01*
X003087Y002120D02*
X015819Y002120D01*
X015819Y002022D02*
X009471Y002022D01*
X009566Y001923D02*
X015819Y001923D01*
X015819Y001825D02*
X009566Y001825D01*
X009566Y001726D02*
X015819Y001726D01*
X015819Y001628D02*
X009566Y001628D01*
X009566Y001529D02*
X015819Y001529D01*
X015819Y001431D02*
X009566Y001431D01*
X009566Y001332D02*
X015819Y001332D01*
X015819Y001234D02*
X009566Y001234D01*
X009469Y001135D02*
X015819Y001135D01*
X016095Y001135D02*
X025347Y001135D01*
X025445Y001037D02*
X016095Y001037D01*
X016095Y000938D02*
X025544Y000938D01*
X025642Y000840D02*
X016095Y000840D01*
X016095Y000741D02*
X025741Y000741D01*
X025839Y000643D02*
X016095Y000643D01*
X016095Y000544D02*
X025938Y000544D01*
X025953Y000529D02*
X026045Y000491D01*
X026125Y000491D01*
X026223Y000392D01*
X026675Y000392D01*
X026798Y000515D01*
X026798Y000966D01*
X026768Y000996D01*
X026798Y001027D01*
X026798Y001239D01*
X027315Y001239D01*
X027315Y000360D01*
X016095Y000360D01*
X016095Y002450D01*
X016105Y002439D01*
X016557Y002439D01*
X016680Y002562D01*
X016680Y003014D01*
X016585Y003108D01*
X016596Y003108D01*
X016719Y003231D01*
X016719Y003683D01*
X016596Y003806D01*
X016145Y003806D01*
X016095Y003756D01*
X016095Y007330D01*
X016118Y007340D01*
X016189Y007410D01*
X016227Y007502D01*
X016227Y009412D01*
X016189Y009504D01*
X016118Y009575D01*
X016095Y009584D01*
X016095Y011016D01*
X024875Y011016D01*
X023560Y009701D01*
X023522Y009609D01*
X023522Y003061D01*
X023407Y003176D01*
X022956Y003176D01*
X022833Y003053D01*
X022833Y002601D01*
X022956Y002478D01*
X023407Y002478D01*
X023530Y002601D01*
X023530Y002994D01*
X023560Y002922D01*
X023630Y002851D01*
X025953Y000529D01*
X026170Y000446D02*
X016095Y000446D01*
X016095Y001234D02*
X025248Y001234D01*
X025150Y001332D02*
X016095Y001332D01*
X016095Y001431D02*
X025051Y001431D01*
X024953Y001529D02*
X016095Y001529D01*
X016095Y001628D02*
X024854Y001628D01*
X024756Y001726D02*
X016095Y001726D01*
X016095Y001825D02*
X024657Y001825D01*
X024559Y001923D02*
X016095Y001923D01*
X016095Y002022D02*
X024460Y002022D01*
X024362Y002120D02*
X016095Y002120D01*
X016095Y002219D02*
X016995Y002219D01*
X017050Y002163D02*
X016927Y002286D01*
X016927Y002738D01*
X017050Y002861D01*
X017502Y002861D01*
X017625Y002738D01*
X017625Y002286D01*
X017502Y002163D01*
X017050Y002163D01*
X016927Y002317D02*
X016095Y002317D01*
X016095Y002416D02*
X016927Y002416D01*
X016927Y002514D02*
X016632Y002514D01*
X016680Y002613D02*
X016927Y002613D01*
X016927Y002711D02*
X016680Y002711D01*
X016680Y002810D02*
X016999Y002810D01*
X016680Y002908D02*
X022833Y002908D01*
X022833Y002810D02*
X017553Y002810D01*
X017625Y002711D02*
X022833Y002711D01*
X022833Y002613D02*
X017625Y002613D01*
X017625Y002514D02*
X022920Y002514D01*
X023443Y002514D02*
X023968Y002514D01*
X024066Y002416D02*
X017625Y002416D01*
X017625Y002317D02*
X024165Y002317D01*
X024263Y002219D02*
X017557Y002219D01*
X016680Y003007D02*
X022833Y003007D01*
X022885Y003105D02*
X016588Y003105D01*
X016691Y003204D02*
X023522Y003204D01*
X023522Y003302D02*
X016719Y003302D01*
X016719Y003401D02*
X023522Y003401D01*
X023522Y003499D02*
X016719Y003499D01*
X016719Y003598D02*
X023522Y003598D01*
X023522Y003696D02*
X016706Y003696D01*
X016608Y003795D02*
X023522Y003795D01*
X023522Y003893D02*
X016095Y003893D01*
X016095Y003795D02*
X016133Y003795D01*
X016095Y003992D02*
X023522Y003992D01*
X023522Y004090D02*
X016095Y004090D01*
X016095Y004189D02*
X023522Y004189D01*
X023522Y004287D02*
X016095Y004287D01*
X016095Y004386D02*
X023522Y004386D01*
X023522Y004484D02*
X016095Y004484D01*
X016095Y004583D02*
X023522Y004583D01*
X023522Y004681D02*
X016095Y004681D01*
X016095Y004780D02*
X023522Y004780D01*
X023522Y004878D02*
X016095Y004878D01*
X016095Y004977D02*
X023522Y004977D01*
X023522Y005075D02*
X016095Y005075D01*
X016095Y005174D02*
X023522Y005174D01*
X023522Y005272D02*
X016095Y005272D01*
X016095Y005371D02*
X023522Y005371D01*
X023522Y005469D02*
X016095Y005469D01*
X016095Y005568D02*
X023522Y005568D01*
X023522Y005666D02*
X016095Y005666D01*
X016095Y005765D02*
X023522Y005765D01*
X023522Y005863D02*
X016095Y005863D01*
X016095Y005962D02*
X023522Y005962D01*
X023522Y006060D02*
X016095Y006060D01*
X016095Y006159D02*
X023522Y006159D01*
X023522Y006257D02*
X016095Y006257D01*
X016095Y006356D02*
X023522Y006356D01*
X023522Y006454D02*
X016095Y006454D01*
X016095Y006553D02*
X023522Y006553D01*
X023522Y006651D02*
X016095Y006651D01*
X016095Y006750D02*
X023522Y006750D01*
X023522Y006848D02*
X016095Y006848D01*
X016095Y006947D02*
X023522Y006947D01*
X023522Y007045D02*
X016095Y007045D01*
X016095Y007144D02*
X023522Y007144D01*
X023522Y007242D02*
X016095Y007242D01*
X016119Y007341D02*
X023522Y007341D01*
X023522Y007439D02*
X016201Y007439D01*
X016227Y007538D02*
X023522Y007538D01*
X023522Y007636D02*
X016227Y007636D01*
X016227Y007735D02*
X023522Y007735D01*
X023522Y007833D02*
X016227Y007833D01*
X016227Y007932D02*
X023522Y007932D01*
X023522Y008030D02*
X016227Y008030D01*
X016227Y008129D02*
X023522Y008129D01*
X023522Y008227D02*
X016227Y008227D01*
X016227Y008326D02*
X023522Y008326D01*
X023522Y008424D02*
X016227Y008424D01*
X016227Y008523D02*
X023522Y008523D01*
X023522Y008621D02*
X016227Y008621D01*
X016227Y008720D02*
X023522Y008720D01*
X023522Y008818D02*
X016227Y008818D01*
X016227Y008917D02*
X023522Y008917D01*
X023522Y009015D02*
X016227Y009015D01*
X016227Y009114D02*
X023522Y009114D01*
X023522Y009212D02*
X016227Y009212D01*
X016227Y009311D02*
X023522Y009311D01*
X023522Y009409D02*
X016227Y009409D01*
X016185Y009508D02*
X022620Y009508D01*
X022680Y009447D02*
X023132Y009447D01*
X023255Y009570D01*
X023255Y010021D01*
X023132Y010144D01*
X022680Y010144D01*
X022557Y010021D01*
X022557Y009570D01*
X022680Y009447D01*
X022557Y009606D02*
X016095Y009606D01*
X016095Y009705D02*
X022557Y009705D01*
X022557Y009803D02*
X016095Y009803D01*
X016095Y009902D02*
X022557Y009902D01*
X022557Y010000D02*
X016095Y010000D01*
X016095Y010099D02*
X022634Y010099D01*
X023178Y010099D02*
X023958Y010099D01*
X024056Y010197D02*
X016095Y010197D01*
X016095Y010296D02*
X021123Y010296D01*
X021184Y010234D02*
X021636Y010234D01*
X021759Y010357D01*
X021759Y010809D01*
X021636Y010932D01*
X021184Y010932D01*
X021061Y010809D01*
X021061Y010357D01*
X021184Y010234D01*
X021061Y010394D02*
X016095Y010394D01*
X016095Y010493D02*
X021061Y010493D01*
X021061Y010591D02*
X016095Y010591D01*
X016095Y010690D02*
X021061Y010690D01*
X021061Y010788D02*
X016095Y010788D01*
X016095Y010887D02*
X021139Y010887D01*
X021681Y010887D02*
X024746Y010887D01*
X024844Y010985D02*
X016095Y010985D01*
X015819Y010985D02*
X011093Y010985D01*
X011128Y010950D02*
X011028Y011049D01*
X010610Y011049D01*
X010511Y010950D01*
X010511Y010531D01*
X010518Y010524D01*
X010511Y010517D01*
X010511Y010098D01*
X010610Y009999D01*
X010741Y009999D01*
X010707Y009965D01*
X010707Y009547D01*
X010715Y009540D01*
X010707Y009532D01*
X010707Y009114D01*
X010727Y009095D01*
X010711Y009080D01*
X010711Y008661D01*
X010811Y008562D01*
X011229Y008562D01*
X011329Y008661D01*
X011329Y009080D01*
X011310Y009099D01*
X011325Y009114D01*
X011325Y009532D01*
X011318Y009540D01*
X011325Y009547D01*
X011325Y009965D01*
X011225Y010065D01*
X011095Y010065D01*
X011128Y010098D01*
X011128Y010517D01*
X011121Y010524D01*
X011128Y010531D01*
X011128Y010950D01*
X011128Y010887D02*
X015819Y010887D01*
X015819Y010788D02*
X013222Y010788D01*
X013206Y010804D02*
X012763Y010804D01*
X012646Y010687D01*
X012646Y010243D01*
X012763Y010126D01*
X013206Y010126D01*
X013323Y010243D01*
X013323Y010687D01*
X013206Y010804D01*
X013320Y010690D02*
X015819Y010690D01*
X015819Y010591D02*
X013323Y010591D01*
X013323Y010493D02*
X015819Y010493D01*
X015819Y010394D02*
X013323Y010394D01*
X013323Y010296D02*
X015819Y010296D01*
X015819Y010197D02*
X013277Y010197D01*
X012692Y010197D02*
X011128Y010197D01*
X011128Y010099D02*
X015819Y010099D01*
X015819Y010000D02*
X011290Y010000D01*
X011325Y009902D02*
X015819Y009902D01*
X015819Y009803D02*
X011325Y009803D01*
X011325Y009705D02*
X015819Y009705D01*
X015819Y009606D02*
X011325Y009606D01*
X011325Y009508D02*
X015819Y009508D01*
X015819Y009409D02*
X011325Y009409D01*
X011325Y009311D02*
X015819Y009311D01*
X015819Y009212D02*
X011325Y009212D01*
X011324Y009114D02*
X015819Y009114D01*
X015819Y009015D02*
X011329Y009015D01*
X011329Y008917D02*
X015819Y008917D01*
X015819Y008818D02*
X011329Y008818D01*
X011329Y008720D02*
X015819Y008720D01*
X015819Y008621D02*
X011289Y008621D01*
X010752Y008621D02*
X008726Y008621D01*
X008726Y008602D02*
X008726Y009021D01*
X008719Y009028D01*
X008726Y009035D01*
X008726Y009454D01*
X008699Y009481D01*
X008726Y009508D01*
X008726Y009926D01*
X008627Y010026D01*
X008209Y010026D01*
X008110Y009927D01*
X006611Y009927D01*
X006611Y009968D01*
X006295Y010284D01*
X005848Y010284D01*
X005571Y010008D01*
X005295Y010284D01*
X004848Y010284D01*
X004571Y010008D01*
X004295Y010284D01*
X003848Y010284D01*
X003531Y009968D01*
X003531Y009521D01*
X003786Y009266D01*
X003501Y008981D01*
X003501Y008508D01*
X003835Y008174D01*
X004307Y008174D01*
X004641Y008508D01*
X004641Y008981D01*
X004356Y009266D01*
X004571Y009481D01*
X004848Y009204D01*
X005295Y009204D01*
X005571Y009481D01*
X005808Y009244D01*
X005531Y008968D01*
X005531Y008521D01*
X005848Y008204D01*
X006295Y008204D01*
X006611Y008521D01*
X006611Y008968D01*
X006335Y009244D01*
X006597Y009507D01*
X008110Y009507D01*
X008136Y009481D01*
X008109Y009454D01*
X008109Y009035D01*
X008116Y009028D01*
X008109Y009021D01*
X008109Y008602D01*
X008209Y008503D01*
X008627Y008503D01*
X008726Y008602D01*
X008647Y008523D02*
X015819Y008523D01*
X015819Y008424D02*
X006514Y008424D01*
X006611Y008523D02*
X008189Y008523D01*
X008109Y008621D02*
X006611Y008621D01*
X006611Y008720D02*
X008109Y008720D01*
X008109Y008818D02*
X006611Y008818D01*
X006611Y008917D02*
X008109Y008917D01*
X008109Y009015D02*
X006564Y009015D01*
X006466Y009114D02*
X008109Y009114D01*
X008109Y009212D02*
X006367Y009212D01*
X006401Y009311D02*
X008109Y009311D01*
X008109Y009409D02*
X006499Y009409D01*
X005775Y009212D02*
X005302Y009212D01*
X005401Y009311D02*
X005742Y009311D01*
X005643Y009409D02*
X005499Y009409D01*
X005677Y009114D02*
X004508Y009114D01*
X004410Y009212D02*
X004840Y009212D01*
X004742Y009311D02*
X004401Y009311D01*
X004499Y009409D02*
X004643Y009409D01*
X004607Y009015D02*
X005578Y009015D01*
X005531Y008917D02*
X004641Y008917D01*
X004641Y008818D02*
X005531Y008818D01*
X005531Y008720D02*
X004641Y008720D01*
X004641Y008621D02*
X005531Y008621D01*
X005531Y008523D02*
X004641Y008523D01*
X004557Y008424D02*
X005628Y008424D01*
X005727Y008326D02*
X004458Y008326D01*
X004360Y008227D02*
X005825Y008227D01*
X006317Y008227D02*
X015819Y008227D01*
X015819Y008129D02*
X002034Y008129D01*
X002034Y008096D02*
X002034Y008267D01*
X001969Y008424D01*
X003586Y008424D01*
X003501Y008523D02*
X001870Y008523D01*
X001849Y008544D02*
X001773Y008575D01*
X001849Y008606D01*
X001969Y008727D01*
X002034Y008884D01*
X002034Y009054D01*
X001969Y009211D01*
X001849Y009331D01*
X001692Y009396D01*
X001522Y009396D01*
X001365Y009331D01*
X001244Y009211D01*
X001179Y009054D01*
X001179Y008884D01*
X001244Y008727D01*
X001365Y008606D01*
X001440Y008575D01*
X001365Y008544D01*
X001244Y008424D01*
X001179Y008267D01*
X001179Y008096D01*
X001244Y007939D01*
X001365Y007819D01*
X001440Y007788D01*
X001365Y007756D01*
X001244Y007636D01*
X000320Y007636D01*
X000320Y007538D02*
X001203Y007538D01*
X001179Y007479D02*
X001179Y007309D01*
X001244Y007152D01*
X001365Y007032D01*
X001522Y006967D01*
X001692Y006967D01*
X001849Y007032D01*
X001969Y007152D01*
X002034Y007309D01*
X002034Y007479D01*
X001969Y007636D01*
X015819Y007636D01*
X015819Y007538D02*
X013950Y007538D01*
X013942Y007545D02*
X013524Y007545D01*
X013424Y007446D01*
X013424Y007027D01*
X013524Y006928D01*
X013942Y006928D01*
X014041Y007027D01*
X014041Y007446D01*
X013942Y007545D01*
X014041Y007439D02*
X015819Y007439D01*
X015819Y007341D02*
X014041Y007341D01*
X014041Y007242D02*
X015819Y007242D01*
X015819Y007144D02*
X014041Y007144D01*
X014041Y007045D02*
X015819Y007045D01*
X015819Y006947D02*
X013960Y006947D01*
X013505Y006947D02*
X006709Y006947D01*
X006709Y006858D02*
X006592Y006740D01*
X006149Y006740D01*
X006032Y006858D01*
X006032Y007301D01*
X006149Y007418D01*
X006592Y007418D01*
X006709Y007301D01*
X006709Y006858D01*
X006700Y006848D02*
X015819Y006848D01*
X015819Y006750D02*
X006601Y006750D01*
X006709Y007045D02*
X013424Y007045D01*
X013424Y007144D02*
X006709Y007144D01*
X006709Y007242D02*
X013424Y007242D01*
X013424Y007341D02*
X006669Y007341D01*
X006072Y007341D02*
X005921Y007341D01*
X005961Y007301D02*
X005844Y007418D01*
X005401Y007418D01*
X005284Y007301D01*
X005284Y006858D01*
X005401Y006740D01*
X005844Y006740D01*
X005961Y006858D01*
X005961Y007301D01*
X005961Y007242D02*
X006032Y007242D01*
X006032Y007144D02*
X005961Y007144D01*
X005961Y007045D02*
X006032Y007045D01*
X006032Y006947D02*
X005961Y006947D01*
X005952Y006848D02*
X006041Y006848D01*
X006140Y006750D02*
X005853Y006750D01*
X005392Y006750D02*
X000320Y006750D01*
X000320Y006848D02*
X005293Y006848D01*
X005284Y006947D02*
X000320Y006947D01*
X000320Y007045D02*
X001351Y007045D01*
X001253Y007144D02*
X000320Y007144D01*
X000320Y007242D02*
X001207Y007242D01*
X001179Y007341D02*
X000320Y007341D01*
X000320Y007439D02*
X001179Y007439D01*
X001179Y007479D02*
X001244Y007636D01*
X001343Y007735D02*
X000320Y007735D01*
X000320Y007833D02*
X001351Y007833D01*
X001252Y007932D02*
X000320Y007932D01*
X000320Y008030D02*
X001207Y008030D01*
X001179Y008129D02*
X000320Y008129D01*
X000320Y008227D02*
X001179Y008227D01*
X001204Y008326D02*
X000320Y008326D01*
X000320Y008424D02*
X001245Y008424D01*
X001343Y008523D02*
X000320Y008523D01*
X000320Y008621D02*
X001350Y008621D01*
X001252Y008720D02*
X000320Y008720D01*
X000320Y008818D02*
X001206Y008818D01*
X001179Y008917D02*
X000320Y008917D01*
X000320Y009015D02*
X001179Y009015D01*
X001204Y009114D02*
X000320Y009114D01*
X000320Y009212D02*
X001245Y009212D01*
X001344Y009311D02*
X000320Y009311D01*
X000320Y009409D02*
X000604Y009409D01*
X000617Y009395D02*
X000774Y009330D01*
X000943Y009330D01*
X001100Y009395D01*
X001220Y009515D01*
X001285Y009672D01*
X001285Y009841D01*
X001220Y009998D01*
X001100Y010117D01*
X000943Y010182D01*
X000774Y010182D01*
X000617Y010117D01*
X000498Y009998D01*
X000433Y009841D01*
X000433Y009672D01*
X000498Y009515D01*
X000617Y009395D01*
X000505Y009508D02*
X000320Y009508D01*
X000320Y009606D02*
X000460Y009606D01*
X000433Y009705D02*
X000320Y009705D01*
X000320Y009803D02*
X000433Y009803D01*
X000458Y009902D02*
X000320Y009902D01*
X000320Y010000D02*
X000500Y010000D01*
X000599Y010099D02*
X000320Y010099D01*
X000320Y010197D02*
X003760Y010197D01*
X003662Y010099D02*
X001119Y010099D01*
X001217Y010000D02*
X003563Y010000D01*
X003531Y009902D02*
X001260Y009902D01*
X001285Y009803D02*
X003531Y009803D01*
X003531Y009705D02*
X001285Y009705D01*
X001257Y009606D02*
X003531Y009606D01*
X003545Y009508D02*
X001212Y009508D01*
X001114Y009409D02*
X003643Y009409D01*
X003742Y009311D02*
X001870Y009311D01*
X001968Y009212D02*
X003733Y009212D01*
X003634Y009114D02*
X002009Y009114D01*
X002034Y009015D02*
X003536Y009015D01*
X003501Y008917D02*
X002034Y008917D01*
X002007Y008818D02*
X003501Y008818D01*
X003501Y008720D02*
X001962Y008720D01*
X001863Y008621D02*
X003501Y008621D01*
X003684Y008326D02*
X002010Y008326D01*
X002034Y008227D02*
X003783Y008227D01*
X002034Y008096D02*
X001969Y007939D01*
X001849Y007819D01*
X001773Y007788D01*
X001849Y007756D01*
X001969Y007636D01*
X002010Y007538D02*
X013516Y007538D01*
X013424Y007439D02*
X002034Y007439D01*
X002034Y007341D02*
X005324Y007341D01*
X005284Y007242D02*
X002006Y007242D01*
X001961Y007144D02*
X005284Y007144D01*
X005284Y007045D02*
X001862Y007045D01*
X001871Y007735D02*
X015819Y007735D01*
X015819Y007833D02*
X001863Y007833D01*
X001961Y007932D02*
X015819Y007932D01*
X015819Y008030D02*
X002007Y008030D01*
X001969Y008424D02*
X001849Y008544D01*
X004382Y010197D02*
X004760Y010197D01*
X004662Y010099D02*
X004481Y010099D01*
X005382Y010197D02*
X005760Y010197D01*
X005662Y010099D02*
X005481Y010099D01*
X006382Y010197D02*
X010511Y010197D01*
X010511Y010099D02*
X006481Y010099D01*
X006579Y010000D02*
X008183Y010000D01*
X008653Y010000D02*
X010609Y010000D01*
X010707Y009902D02*
X008726Y009902D01*
X008726Y009803D02*
X010707Y009803D01*
X010707Y009705D02*
X008726Y009705D01*
X008726Y009606D02*
X010707Y009606D01*
X010707Y009508D02*
X008726Y009508D01*
X008726Y009409D02*
X010707Y009409D01*
X010707Y009311D02*
X008726Y009311D01*
X008726Y009212D02*
X010707Y009212D01*
X010708Y009114D02*
X008726Y009114D01*
X008726Y009015D02*
X010711Y009015D01*
X010711Y008917D02*
X008726Y008917D01*
X008726Y008818D02*
X010711Y008818D01*
X010711Y008720D02*
X008726Y008720D01*
X006416Y008326D02*
X015819Y008326D01*
X015819Y006651D02*
X000320Y006651D01*
X000320Y006553D02*
X015819Y006553D01*
X015819Y006454D02*
X000320Y006454D01*
X000320Y006356D02*
X015819Y006356D01*
X015819Y006257D02*
X001967Y006257D01*
X001947Y006277D02*
X002064Y006160D01*
X002064Y005479D01*
X001947Y005362D01*
X001266Y005362D01*
X001149Y005479D01*
X001149Y006160D01*
X001266Y006277D01*
X001947Y006277D01*
X002064Y006159D02*
X015819Y006159D01*
X015819Y006060D02*
X013970Y006060D01*
X013942Y006089D02*
X013524Y006089D01*
X013424Y005989D01*
X013424Y005571D01*
X013524Y005471D01*
X013942Y005471D01*
X014041Y005571D01*
X014041Y005989D01*
X013942Y006089D01*
X014041Y005962D02*
X015819Y005962D01*
X015819Y005863D02*
X014041Y005863D01*
X014041Y005765D02*
X015819Y005765D01*
X015819Y005666D02*
X014041Y005666D01*
X014038Y005568D02*
X015819Y005568D01*
X015819Y005469D02*
X010714Y005469D01*
X010725Y005480D02*
X010608Y005362D01*
X010165Y005362D01*
X010047Y005480D01*
X010047Y005923D01*
X010165Y006040D01*
X010608Y006040D01*
X010725Y005923D01*
X010725Y005480D01*
X010725Y005568D02*
X013427Y005568D01*
X013424Y005666D02*
X010725Y005666D01*
X010725Y005765D02*
X013424Y005765D01*
X013424Y005863D02*
X010725Y005863D01*
X010686Y005962D02*
X013424Y005962D01*
X013495Y006060D02*
X002064Y006060D01*
X002064Y005962D02*
X010086Y005962D01*
X010047Y005863D02*
X002064Y005863D01*
X002064Y005765D02*
X010047Y005765D01*
X010047Y005666D02*
X002064Y005666D01*
X002064Y005568D02*
X010047Y005568D01*
X010058Y005469D02*
X002054Y005469D01*
X001956Y005371D02*
X010157Y005371D01*
X010616Y005371D02*
X015819Y005371D01*
X015819Y005272D02*
X000320Y005272D01*
X000320Y005174D02*
X015819Y005174D01*
X015819Y005075D02*
X000320Y005075D01*
X000320Y004977D02*
X015819Y004977D01*
X015819Y004878D02*
X000320Y004878D01*
X000320Y004780D02*
X015819Y004780D01*
X015819Y004681D02*
X000320Y004681D01*
X000320Y004583D02*
X015819Y004583D01*
X015819Y004484D02*
X004956Y004484D01*
X004986Y004454D02*
X004887Y004553D01*
X004468Y004553D01*
X004369Y004454D01*
X004369Y004035D01*
X004468Y003936D01*
X004887Y003936D01*
X004986Y004035D01*
X004986Y004454D01*
X004986Y004386D02*
X015819Y004386D01*
X015819Y004287D02*
X004986Y004287D01*
X004986Y004189D02*
X015819Y004189D01*
X015819Y004090D02*
X004986Y004090D01*
X004942Y003992D02*
X015819Y003992D01*
X015819Y003893D02*
X000320Y003893D01*
X000320Y003795D02*
X015819Y003795D01*
X015819Y003696D02*
X000320Y003696D01*
X000320Y003598D02*
X015819Y003598D01*
X015819Y003499D02*
X000320Y003499D01*
X000320Y003401D02*
X015819Y003401D01*
X015819Y003302D02*
X000320Y003302D01*
X000320Y003204D02*
X015819Y003204D01*
X015819Y002908D02*
X009422Y002908D01*
X009507Y002810D02*
X015819Y002810D01*
X015819Y002711D02*
X009548Y002711D01*
X009566Y002613D02*
X015819Y002613D01*
X015819Y002514D02*
X009566Y002514D01*
X009535Y002416D02*
X015819Y002416D01*
X015819Y002317D02*
X009489Y002317D01*
X009390Y002219D02*
X015819Y002219D01*
X023478Y003105D02*
X023522Y003105D01*
X023530Y002908D02*
X023574Y002908D01*
X023530Y002810D02*
X023672Y002810D01*
X023771Y002711D02*
X023530Y002711D01*
X023530Y002613D02*
X023869Y002613D01*
X026798Y001234D02*
X027315Y001234D01*
X027315Y001135D02*
X026798Y001135D01*
X026798Y001037D02*
X027315Y001037D01*
X027315Y000938D02*
X026798Y000938D01*
X026798Y000840D02*
X027315Y000840D01*
X027315Y000741D02*
X026798Y000741D01*
X026798Y000643D02*
X027315Y000643D01*
X027315Y000544D02*
X026798Y000544D01*
X026729Y000446D02*
X027315Y000446D01*
X027591Y000446D02*
X037750Y000446D01*
X037899Y000370D02*
X037899Y000370D01*
X038188Y000324D01*
X038130Y000320D01*
X027591Y000320D01*
X027591Y001279D01*
X031717Y001279D01*
X031849Y001146D01*
X031849Y000925D01*
X031949Y000826D01*
X032367Y000826D01*
X032467Y000925D01*
X032467Y001343D01*
X032367Y001443D01*
X032146Y001443D01*
X032026Y001564D01*
X034794Y001564D01*
X034839Y001563D01*
X034841Y001564D01*
X034843Y001564D01*
X034886Y001581D01*
X034928Y001598D01*
X034930Y001599D01*
X034932Y001600D01*
X034964Y001632D01*
X036150Y002780D01*
X036152Y002781D01*
X036184Y002814D01*
X036217Y002845D01*
X036218Y002847D01*
X036220Y002849D01*
X036237Y002891D01*
X036255Y002933D01*
X036255Y002935D01*
X036256Y002937D01*
X036256Y002983D01*
X036257Y003028D01*
X036256Y003030D01*
X036256Y003137D01*
X036355Y003236D01*
X036355Y003661D01*
X039398Y003664D01*
X039448Y003664D01*
X039493Y003683D01*
X039540Y003702D01*
X039547Y003709D01*
X039547Y002454D01*
X039492Y002562D01*
X039492Y002562D01*
X039177Y002878D01*
X038779Y003080D01*
X038339Y003150D01*
X037899Y003080D01*
X037899Y003080D01*
X037501Y002878D01*
X037186Y002562D01*
X036984Y002165D01*
X036914Y001725D01*
X036914Y001725D01*
X036984Y001284D01*
X037186Y000887D01*
X037501Y000572D01*
X037501Y000572D01*
X037899Y000370D01*
X038041Y000347D02*
X027591Y000347D01*
X027591Y000544D02*
X037556Y000544D01*
X037431Y000643D02*
X027591Y000643D01*
X027591Y000741D02*
X037332Y000741D01*
X037234Y000840D02*
X032381Y000840D01*
X032467Y000938D02*
X037160Y000938D01*
X037186Y000887D02*
X037186Y000887D01*
X037110Y001037D02*
X032467Y001037D01*
X032467Y001135D02*
X037060Y001135D01*
X037010Y001234D02*
X032467Y001234D01*
X032467Y001332D02*
X036976Y001332D01*
X036984Y001284D02*
X036984Y001284D01*
X036961Y001431D02*
X032380Y001431D01*
X032060Y001529D02*
X036945Y001529D01*
X036929Y001628D02*
X034959Y001628D01*
X035061Y001726D02*
X036914Y001726D01*
X036930Y001825D02*
X035162Y001825D01*
X035264Y001923D02*
X036945Y001923D01*
X036961Y002022D02*
X035366Y002022D01*
X035468Y002120D02*
X036977Y002120D01*
X036984Y002165D02*
X036984Y002165D01*
X037011Y002219D02*
X035570Y002219D01*
X035671Y002317D02*
X037061Y002317D01*
X037111Y002416D02*
X035773Y002416D01*
X035875Y002514D02*
X037161Y002514D01*
X037186Y002562D02*
X037186Y002562D01*
X037236Y002613D02*
X035977Y002613D01*
X036078Y002711D02*
X037335Y002711D01*
X037433Y002810D02*
X036180Y002810D01*
X036244Y002908D02*
X037561Y002908D01*
X037501Y002878D02*
X037501Y002878D01*
X037754Y003007D02*
X036257Y003007D01*
X036256Y003105D02*
X038056Y003105D01*
X038339Y003150D02*
X038339Y003150D01*
X038622Y003105D02*
X039547Y003105D01*
X039547Y003007D02*
X038924Y003007D01*
X038779Y003080D02*
X038779Y003080D01*
X039117Y002908D02*
X039547Y002908D01*
X039547Y002810D02*
X039245Y002810D01*
X039177Y002878D02*
X039177Y002878D01*
X039343Y002711D02*
X039547Y002711D01*
X039547Y002613D02*
X039442Y002613D01*
X039516Y002514D02*
X039547Y002514D01*
X039547Y003204D02*
X036323Y003204D01*
X036355Y003302D02*
X039547Y003302D01*
X039547Y003401D02*
X036355Y003401D01*
X036355Y003499D02*
X039547Y003499D01*
X039547Y003598D02*
X036355Y003598D01*
X034986Y003910D02*
X034986Y007430D01*
X036418Y007433D01*
X036426Y007961D01*
X039398Y007961D01*
X039398Y003914D01*
X034986Y003910D01*
X034986Y003992D02*
X039398Y003992D01*
X039398Y004090D02*
X034986Y004090D01*
X034986Y004189D02*
X039398Y004189D01*
X039398Y004287D02*
X034986Y004287D01*
X034986Y004386D02*
X039398Y004386D01*
X039398Y004484D02*
X034986Y004484D01*
X034986Y004583D02*
X039398Y004583D01*
X039398Y004681D02*
X034986Y004681D01*
X034986Y004780D02*
X039398Y004780D01*
X039398Y004878D02*
X034986Y004878D01*
X034986Y004977D02*
X039398Y004977D01*
X039398Y005075D02*
X034986Y005075D01*
X034986Y005174D02*
X039398Y005174D01*
X039398Y005272D02*
X034986Y005272D01*
X034986Y005371D02*
X039398Y005371D01*
X039398Y005469D02*
X034986Y005469D01*
X034986Y005568D02*
X039398Y005568D01*
X039398Y005666D02*
X034986Y005666D01*
X034986Y005765D02*
X039398Y005765D01*
X039398Y005863D02*
X034986Y005863D01*
X034986Y005962D02*
X039398Y005962D01*
X039398Y006060D02*
X034986Y006060D01*
X034986Y006159D02*
X039398Y006159D01*
X039398Y006257D02*
X034986Y006257D01*
X034986Y006356D02*
X039398Y006356D01*
X039398Y006454D02*
X034986Y006454D01*
X034986Y006553D02*
X039398Y006553D01*
X039398Y006651D02*
X034986Y006651D01*
X034986Y006750D02*
X039398Y006750D01*
X039398Y006848D02*
X034986Y006848D01*
X034986Y006947D02*
X039398Y006947D01*
X039398Y007045D02*
X034986Y007045D01*
X034986Y007144D02*
X039398Y007144D01*
X039398Y007242D02*
X034986Y007242D01*
X034986Y007341D02*
X039398Y007341D01*
X039398Y007439D02*
X036418Y007439D01*
X036419Y007538D02*
X039398Y007538D01*
X039398Y007636D02*
X036421Y007636D01*
X036422Y007735D02*
X039398Y007735D01*
X039398Y007833D02*
X036424Y007833D01*
X036425Y007932D02*
X039398Y007932D01*
X039441Y008221D02*
X030977Y008221D01*
X030977Y008242D01*
X030981Y008252D01*
X030981Y008741D01*
X030974Y008757D01*
X030965Y010398D01*
X032547Y010398D01*
X032630Y010314D01*
X035662Y010314D01*
X035745Y010398D01*
X036779Y010398D01*
X036790Y010394D01*
X037014Y010394D01*
X037024Y010398D01*
X038194Y010398D01*
X038198Y010394D01*
X037015Y010394D01*
X036789Y010394D02*
X035741Y010394D01*
X034831Y010630D02*
X034831Y011965D01*
X036709Y011965D01*
X036705Y014516D01*
X039422Y014524D01*
X039410Y010626D01*
X034831Y010630D01*
X034831Y010690D02*
X039410Y010690D01*
X039410Y010788D02*
X034831Y010788D01*
X034831Y010887D02*
X039411Y010887D01*
X039411Y010985D02*
X034831Y010985D01*
X034831Y011084D02*
X039411Y011084D01*
X039412Y011182D02*
X034831Y011182D01*
X034831Y011281D02*
X039412Y011281D01*
X039412Y011379D02*
X034831Y011379D01*
X034831Y011478D02*
X039412Y011478D01*
X039413Y011576D02*
X034831Y011576D01*
X034831Y011675D02*
X039413Y011675D01*
X039413Y011773D02*
X034831Y011773D01*
X034831Y011872D02*
X039414Y011872D01*
X039414Y011970D02*
X036709Y011970D01*
X036709Y012069D02*
X039414Y012069D01*
X039415Y012167D02*
X036709Y012167D01*
X036709Y012266D02*
X039415Y012266D01*
X039415Y012364D02*
X036708Y012364D01*
X036708Y012463D02*
X039415Y012463D01*
X039416Y012561D02*
X036708Y012561D01*
X036708Y012660D02*
X039416Y012660D01*
X039416Y012758D02*
X036708Y012758D01*
X036708Y012857D02*
X039417Y012857D01*
X039417Y012955D02*
X036708Y012955D01*
X036707Y013054D02*
X039417Y013054D01*
X039417Y013152D02*
X036707Y013152D01*
X036707Y013251D02*
X039418Y013251D01*
X039418Y013349D02*
X036707Y013349D01*
X036707Y013448D02*
X039418Y013448D01*
X039419Y013546D02*
X036707Y013546D01*
X036706Y013645D02*
X039419Y013645D01*
X039419Y013743D02*
X036706Y013743D01*
X036706Y013842D02*
X039420Y013842D01*
X039420Y013940D02*
X036706Y013940D01*
X036706Y014039D02*
X039420Y014039D01*
X039420Y014137D02*
X036706Y014137D01*
X036706Y014236D02*
X039421Y014236D01*
X039421Y014334D02*
X036705Y014334D01*
X036705Y014433D02*
X039421Y014433D01*
X039547Y014743D02*
X039517Y014755D01*
X039472Y014774D01*
X039471Y014774D01*
X039422Y014774D01*
X039373Y014774D01*
X039372Y014774D01*
X036704Y014766D01*
X036655Y014766D01*
X036655Y014766D01*
X036655Y014766D01*
X036609Y014747D01*
X036563Y014728D01*
X036563Y014728D01*
X036563Y014728D01*
X036528Y014693D01*
X036493Y014657D01*
X036474Y014611D01*
X036455Y014565D01*
X036455Y014516D01*
X036458Y012615D01*
X036253Y012615D01*
X035680Y013188D01*
X035591Y013225D01*
X035021Y013225D01*
X035286Y013490D01*
X035353Y013557D01*
X035390Y013646D01*
X035390Y014751D01*
X035489Y014850D01*
X035489Y015293D01*
X035372Y015410D01*
X034928Y015410D01*
X034811Y015293D01*
X034811Y014850D01*
X034910Y014751D01*
X034910Y013793D01*
X034657Y013540D01*
X028525Y013540D01*
X028596Y013611D01*
X034135Y013611D01*
X034223Y013647D01*
X034577Y014002D01*
X034645Y014069D01*
X034681Y014157D01*
X034681Y014751D01*
X034780Y014850D01*
X034780Y015293D01*
X034663Y015410D01*
X034220Y015410D01*
X034103Y015293D01*
X034103Y014850D01*
X034201Y014751D01*
X034201Y014305D01*
X033988Y014091D01*
X028600Y014091D01*
X029410Y014901D01*
X031417Y014901D01*
X031516Y014802D01*
X031934Y014802D01*
X032034Y014901D01*
X032034Y015320D01*
X031934Y015419D01*
X031516Y015419D01*
X031417Y015321D01*
X029236Y015321D01*
X029113Y015198D01*
X027591Y013675D01*
X027591Y018851D01*
X038042Y018851D01*
X037899Y018828D01*
X037899Y018828D01*
X037501Y018626D01*
X037186Y018310D01*
X036984Y017913D01*
X036914Y017473D01*
X036914Y017473D01*
X036984Y017032D01*
X037186Y016635D01*
X037501Y016320D01*
X037501Y016320D01*
X037899Y016118D01*
X038339Y016048D01*
X038779Y016118D01*
X039177Y016320D01*
X039492Y016635D01*
X039547Y016743D01*
X039547Y014743D01*
X039471Y014774D02*
X039471Y014774D01*
X039547Y014827D02*
X035466Y014827D01*
X035489Y014925D02*
X039547Y014925D01*
X039547Y015024D02*
X035489Y015024D01*
X035489Y015122D02*
X039547Y015122D01*
X039547Y015221D02*
X035489Y015221D01*
X035463Y015319D02*
X039547Y015319D01*
X039547Y015418D02*
X033505Y015418D01*
X033494Y015413D02*
X033709Y015502D01*
X033873Y015666D01*
X033962Y015880D01*
X033962Y016112D01*
X033873Y016327D01*
X033709Y016491D01*
X033494Y016580D01*
X033262Y016580D01*
X033048Y016491D01*
X032884Y016327D01*
X032795Y016112D01*
X032795Y015880D01*
X032884Y015666D01*
X033048Y015502D01*
X033262Y015413D01*
X033494Y015413D01*
X033252Y015418D02*
X031936Y015418D01*
X032034Y015319D02*
X034129Y015319D01*
X034103Y015221D02*
X032034Y015221D01*
X032034Y015122D02*
X034103Y015122D01*
X034103Y015024D02*
X032034Y015024D01*
X032034Y014925D02*
X034103Y014925D01*
X034126Y014827D02*
X031959Y014827D01*
X031491Y014827D02*
X029336Y014827D01*
X029238Y014728D02*
X034201Y014728D01*
X034201Y014630D02*
X029139Y014630D01*
X029041Y014531D02*
X034201Y014531D01*
X034201Y014433D02*
X028942Y014433D01*
X028844Y014334D02*
X034201Y014334D01*
X034132Y014236D02*
X028745Y014236D01*
X028647Y014137D02*
X034034Y014137D01*
X034417Y013842D02*
X034910Y013842D01*
X034910Y013940D02*
X034516Y013940D01*
X034614Y014039D02*
X034910Y014039D01*
X034910Y014137D02*
X034673Y014137D01*
X034681Y014236D02*
X034910Y014236D01*
X034910Y014334D02*
X034681Y014334D01*
X034681Y014433D02*
X034910Y014433D01*
X034910Y014531D02*
X034681Y014531D01*
X034681Y014630D02*
X034910Y014630D01*
X034910Y014728D02*
X034681Y014728D01*
X034757Y014827D02*
X034834Y014827D01*
X034811Y014925D02*
X034780Y014925D01*
X034780Y015024D02*
X034811Y015024D01*
X034811Y015122D02*
X034780Y015122D01*
X034780Y015221D02*
X034811Y015221D01*
X034837Y015319D02*
X034754Y015319D01*
X033892Y015713D02*
X039547Y015713D01*
X039547Y015615D02*
X033821Y015615D01*
X033723Y015516D02*
X039547Y015516D01*
X039547Y015812D02*
X033933Y015812D01*
X033962Y015910D02*
X039547Y015910D01*
X039547Y016009D02*
X033962Y016009D01*
X033962Y016107D02*
X037965Y016107D01*
X037899Y016118D02*
X037899Y016118D01*
X037726Y016206D02*
X033923Y016206D01*
X033882Y016304D02*
X037533Y016304D01*
X037419Y016403D02*
X033797Y016403D01*
X033685Y016501D02*
X037320Y016501D01*
X037222Y016600D02*
X027591Y016600D01*
X027591Y016698D02*
X037154Y016698D01*
X037186Y016635D02*
X037186Y016635D01*
X037104Y016797D02*
X027591Y016797D01*
X027591Y016895D02*
X037054Y016895D01*
X037004Y016994D02*
X027591Y016994D01*
X027591Y017092D02*
X036974Y017092D01*
X036984Y017032D02*
X036984Y017032D01*
X036959Y017191D02*
X027591Y017191D01*
X027591Y017289D02*
X036943Y017289D01*
X036927Y017388D02*
X027591Y017388D01*
X027591Y017486D02*
X036916Y017486D01*
X036932Y017585D02*
X035163Y017585D01*
X035148Y017578D02*
X035362Y017667D01*
X035526Y017831D01*
X035615Y018046D01*
X035615Y018278D01*
X035526Y018492D01*
X035362Y018656D01*
X035148Y018745D01*
X034916Y018745D01*
X034701Y018656D01*
X034537Y018492D01*
X034449Y018278D01*
X034449Y018046D01*
X034537Y017831D01*
X034701Y017667D01*
X034916Y017578D01*
X035148Y017578D01*
X034901Y017585D02*
X027591Y017585D01*
X027591Y017683D02*
X034686Y017683D01*
X034587Y017782D02*
X027591Y017782D01*
X027591Y017880D02*
X034517Y017880D01*
X034476Y017979D02*
X027591Y017979D01*
X027591Y018077D02*
X034449Y018077D01*
X034449Y018176D02*
X027591Y018176D01*
X027591Y018274D02*
X034449Y018274D01*
X034488Y018373D02*
X027591Y018373D01*
X027591Y018471D02*
X034529Y018471D01*
X034615Y018570D02*
X027591Y018570D01*
X027591Y018668D02*
X034730Y018668D01*
X035334Y018668D02*
X037585Y018668D01*
X037501Y018626D02*
X037501Y018626D01*
X037445Y018570D02*
X035449Y018570D01*
X035535Y018471D02*
X037347Y018471D01*
X037248Y018373D02*
X035576Y018373D01*
X035615Y018274D02*
X037168Y018274D01*
X037186Y018310D02*
X037186Y018310D01*
X037117Y018176D02*
X035615Y018176D01*
X035615Y018077D02*
X037067Y018077D01*
X037017Y017979D02*
X035587Y017979D01*
X035547Y017880D02*
X036978Y017880D01*
X036984Y017913D02*
X036984Y017913D01*
X036963Y017782D02*
X035477Y017782D01*
X035378Y017683D02*
X036947Y017683D01*
X037778Y018767D02*
X027591Y018767D01*
X027591Y016501D02*
X029155Y016501D01*
X029185Y016532D02*
X029085Y016432D01*
X029085Y015641D01*
X029185Y015542D01*
X029976Y015542D01*
X030075Y015641D01*
X030075Y016432D01*
X029976Y016532D01*
X029185Y016532D01*
X029085Y016403D02*
X027591Y016403D01*
X027591Y016304D02*
X029085Y016304D01*
X029085Y016206D02*
X027591Y016206D01*
X027591Y016107D02*
X029085Y016107D01*
X029085Y016009D02*
X027591Y016009D01*
X027591Y015910D02*
X029085Y015910D01*
X029085Y015812D02*
X027591Y015812D01*
X027591Y015713D02*
X029085Y015713D01*
X029112Y015615D02*
X027591Y015615D01*
X027591Y015516D02*
X033034Y015516D01*
X032935Y015615D02*
X030049Y015615D01*
X030075Y015713D02*
X032864Y015713D01*
X032823Y015812D02*
X030075Y015812D01*
X030075Y015910D02*
X032795Y015910D01*
X032795Y016009D02*
X030075Y016009D01*
X030075Y016107D02*
X032795Y016107D01*
X032834Y016206D02*
X030075Y016206D01*
X030075Y016304D02*
X032874Y016304D01*
X032959Y016403D02*
X030075Y016403D01*
X030006Y016501D02*
X033072Y016501D01*
X031514Y015418D02*
X027591Y015418D01*
X027591Y015319D02*
X029235Y015319D01*
X029136Y015221D02*
X027591Y015221D01*
X027591Y015122D02*
X029038Y015122D01*
X028939Y015024D02*
X027591Y015024D01*
X027591Y014925D02*
X028841Y014925D01*
X028742Y014827D02*
X027591Y014827D01*
X027591Y014728D02*
X028644Y014728D01*
X028545Y014630D02*
X027591Y014630D01*
X027591Y014531D02*
X028447Y014531D01*
X028348Y014433D02*
X027591Y014433D01*
X027591Y014334D02*
X028250Y014334D01*
X028151Y014236D02*
X027591Y014236D01*
X027591Y014137D02*
X028053Y014137D01*
X027954Y014039D02*
X027591Y014039D01*
X027591Y013940D02*
X027856Y013940D01*
X027757Y013842D02*
X027591Y013842D01*
X027591Y013743D02*
X027659Y013743D01*
X028531Y013546D02*
X034663Y013546D01*
X034762Y013645D02*
X034216Y013645D01*
X034319Y013743D02*
X034860Y013743D01*
X035244Y013448D02*
X036457Y013448D01*
X036457Y013546D02*
X035342Y013546D01*
X035390Y013645D02*
X036456Y013645D01*
X036456Y013743D02*
X035390Y013743D01*
X035390Y013842D02*
X036456Y013842D01*
X036456Y013940D02*
X035390Y013940D01*
X035390Y014039D02*
X036456Y014039D01*
X036456Y014137D02*
X035390Y014137D01*
X035390Y014236D02*
X036456Y014236D01*
X036455Y014334D02*
X035390Y014334D01*
X035390Y014433D02*
X036455Y014433D01*
X036455Y014531D02*
X035390Y014531D01*
X035390Y014630D02*
X036481Y014630D01*
X036493Y014657D02*
X036493Y014657D01*
X036493Y014657D01*
X036455Y014565D02*
X036455Y014565D01*
X036455Y014565D01*
X036564Y014728D02*
X035390Y014728D01*
X035145Y013349D02*
X036457Y013349D01*
X036457Y013251D02*
X035047Y013251D01*
X035716Y013152D02*
X036457Y013152D01*
X036457Y013054D02*
X035814Y013054D01*
X035913Y012955D02*
X036458Y012955D01*
X036458Y012857D02*
X036011Y012857D01*
X036110Y012758D02*
X036458Y012758D01*
X036458Y012660D02*
X036208Y012660D01*
X038198Y010394D02*
X039149Y010394D01*
X039153Y010398D01*
X039430Y010398D01*
X039441Y008221D01*
X039441Y008227D02*
X030977Y008227D01*
X030981Y008326D02*
X039441Y008326D01*
X039440Y008424D02*
X030981Y008424D01*
X030981Y008523D02*
X039440Y008523D01*
X039439Y008621D02*
X030981Y008621D01*
X030981Y008720D02*
X039439Y008720D01*
X039438Y008818D02*
X030974Y008818D01*
X030973Y008917D02*
X039438Y008917D01*
X039437Y009015D02*
X030972Y009015D01*
X030972Y009114D02*
X039436Y009114D01*
X039436Y009212D02*
X030971Y009212D01*
X030971Y009311D02*
X039435Y009311D01*
X039435Y009409D02*
X030970Y009409D01*
X030970Y009508D02*
X039434Y009508D01*
X039434Y009606D02*
X030969Y009606D01*
X030969Y009705D02*
X039433Y009705D01*
X039433Y009803D02*
X030968Y009803D01*
X030968Y009902D02*
X039432Y009902D01*
X039432Y010000D02*
X030967Y010000D01*
X030967Y010099D02*
X039431Y010099D01*
X039431Y010197D02*
X030966Y010197D01*
X030966Y010296D02*
X039430Y010296D01*
X039430Y010394D02*
X039149Y010394D01*
X032551Y010394D02*
X030965Y010394D01*
X024647Y010788D02*
X021759Y010788D01*
X021759Y010690D02*
X024549Y010690D01*
X024450Y010591D02*
X021759Y010591D01*
X021759Y010493D02*
X024352Y010493D01*
X024253Y010394D02*
X021759Y010394D01*
X021697Y010296D02*
X024155Y010296D01*
X023859Y010000D02*
X023255Y010000D01*
X023255Y009902D02*
X023761Y009902D01*
X023662Y009803D02*
X023255Y009803D01*
X023255Y009705D02*
X023564Y009705D01*
X023522Y009606D02*
X023255Y009606D01*
X023192Y009508D02*
X023522Y009508D01*
X027591Y006465D02*
X027694Y006465D01*
X027793Y006564D01*
X028043Y006564D01*
X028256Y006350D01*
X028256Y004354D01*
X028293Y004266D01*
X030270Y002289D01*
X027591Y002289D01*
X027591Y003110D01*
X027651Y003110D01*
X027750Y003209D01*
X027979Y003209D01*
X028078Y003110D01*
X028521Y003110D01*
X028638Y003228D01*
X028638Y003671D01*
X028521Y003788D01*
X028078Y003788D01*
X027979Y003689D01*
X027750Y003689D01*
X027651Y003788D01*
X027591Y003788D01*
X027591Y004418D01*
X027734Y004418D01*
X027851Y004535D01*
X027851Y004978D01*
X027734Y005095D01*
X027591Y005095D01*
X027591Y006465D01*
X027591Y006454D02*
X028152Y006454D01*
X028054Y006553D02*
X027782Y006553D01*
X027591Y006356D02*
X028251Y006356D01*
X028256Y006257D02*
X027591Y006257D01*
X027591Y006159D02*
X028256Y006159D01*
X028256Y006060D02*
X027591Y006060D01*
X027591Y005962D02*
X028256Y005962D01*
X028256Y005863D02*
X027591Y005863D01*
X027591Y005765D02*
X028256Y005765D01*
X028256Y005666D02*
X027591Y005666D01*
X027591Y005568D02*
X028256Y005568D01*
X028256Y005469D02*
X027591Y005469D01*
X027591Y005371D02*
X028256Y005371D01*
X028256Y005272D02*
X027591Y005272D01*
X027591Y005174D02*
X028256Y005174D01*
X028256Y005075D02*
X027754Y005075D01*
X027851Y004977D02*
X028256Y004977D01*
X028256Y004878D02*
X027851Y004878D01*
X027851Y004780D02*
X028256Y004780D01*
X028256Y004681D02*
X027851Y004681D01*
X027851Y004583D02*
X028256Y004583D01*
X028256Y004484D02*
X027800Y004484D01*
X027591Y004386D02*
X028256Y004386D01*
X028284Y004287D02*
X027591Y004287D01*
X027591Y004189D02*
X028371Y004189D01*
X028469Y004090D02*
X027591Y004090D01*
X027591Y003992D02*
X028568Y003992D01*
X028666Y003893D02*
X027591Y003893D01*
X027591Y003795D02*
X028765Y003795D01*
X028863Y003696D02*
X028613Y003696D01*
X028638Y003598D02*
X028962Y003598D01*
X029060Y003499D02*
X028638Y003499D01*
X028638Y003401D02*
X029159Y003401D01*
X029257Y003302D02*
X028638Y003302D01*
X028614Y003204D02*
X029356Y003204D01*
X029454Y003105D02*
X027591Y003105D01*
X027591Y003007D02*
X029553Y003007D01*
X029651Y002908D02*
X027591Y002908D01*
X027591Y002810D02*
X029750Y002810D01*
X029848Y002711D02*
X027591Y002711D01*
X027591Y002613D02*
X029947Y002613D01*
X030045Y002514D02*
X027591Y002514D01*
X027591Y002416D02*
X030144Y002416D01*
X030242Y002317D02*
X027591Y002317D01*
X027744Y003204D02*
X027985Y003204D01*
X027986Y003696D02*
X027743Y003696D01*
X027591Y001234D02*
X031762Y001234D01*
X031849Y001135D02*
X027591Y001135D01*
X027591Y001037D02*
X031849Y001037D01*
X031849Y000938D02*
X027591Y000938D01*
X027591Y000840D02*
X031935Y000840D01*
X039448Y003664D02*
X039448Y003664D01*
X039448Y003664D01*
X039526Y003696D02*
X039547Y003696D01*
X039540Y003702D02*
X039540Y003702D01*
X039540Y003702D01*
X038339Y016048D02*
X038339Y016048D01*
X038713Y016107D02*
X039547Y016107D01*
X039547Y016206D02*
X038952Y016206D01*
X039145Y016304D02*
X039547Y016304D01*
X039547Y016403D02*
X039259Y016403D01*
X039177Y016320D02*
X039177Y016320D01*
X039358Y016501D02*
X039547Y016501D01*
X039547Y016600D02*
X039456Y016600D01*
X039524Y016698D02*
X039547Y016698D01*
X015819Y016698D02*
X013471Y016698D01*
X013464Y016680D02*
X013529Y016837D01*
X013529Y017006D01*
X013464Y017163D01*
X013344Y017283D01*
X013187Y017348D01*
X013018Y017348D01*
X012861Y017283D01*
X012742Y017163D01*
X012677Y017006D01*
X012677Y016837D01*
X012742Y016680D01*
X012861Y016561D01*
X013018Y016496D01*
X013187Y016496D01*
X013344Y016561D01*
X013464Y016680D01*
X013383Y016600D02*
X015819Y016600D01*
X015819Y016501D02*
X013200Y016501D01*
X013005Y016501D02*
X002743Y016501D01*
X002645Y016403D02*
X015819Y016403D01*
X015819Y016304D02*
X007352Y016304D01*
X007340Y016316D02*
X006897Y016316D01*
X006780Y016198D01*
X006780Y015755D01*
X006897Y015638D01*
X007340Y015638D01*
X007440Y015738D01*
X007440Y015728D01*
X007539Y015629D01*
X007958Y015629D01*
X008057Y015728D01*
X008057Y016147D01*
X007958Y016246D01*
X007539Y016246D01*
X007457Y016164D01*
X007457Y016198D01*
X007340Y016316D01*
X007450Y016206D02*
X007499Y016206D01*
X006885Y016304D02*
X002531Y016304D01*
X002338Y016206D02*
X006787Y016206D01*
X006780Y016107D02*
X002099Y016107D01*
X001351Y016107D02*
X000320Y016107D01*
X000320Y016009D02*
X006780Y016009D01*
X006780Y015910D02*
X000320Y015910D01*
X000320Y015812D02*
X006780Y015812D01*
X006822Y015713D02*
X000320Y015713D01*
X000320Y015615D02*
X003630Y015615D01*
X003570Y015590D02*
X003727Y015655D01*
X003896Y015655D01*
X004053Y015590D01*
X004172Y015470D01*
X004237Y015313D01*
X004237Y015144D01*
X004172Y014987D01*
X004053Y014868D01*
X003896Y014803D01*
X003727Y014803D01*
X003570Y014868D01*
X003450Y014987D01*
X003386Y015144D01*
X003386Y015313D01*
X003450Y015470D01*
X003570Y015590D01*
X003496Y015516D02*
X000320Y015516D01*
X000320Y015418D02*
X003429Y015418D01*
X003388Y015319D02*
X000320Y015319D01*
X000320Y015221D02*
X003386Y015221D01*
X003395Y015122D02*
X000320Y015122D01*
X000320Y015024D02*
X003435Y015024D01*
X003513Y014925D02*
X000320Y014925D01*
X000320Y014827D02*
X001040Y014827D01*
X001022Y014809D02*
X001022Y014153D01*
X001121Y014053D01*
X001777Y014053D01*
X001877Y014153D01*
X001877Y014236D01*
X001994Y014118D01*
X002152Y014053D01*
X002322Y014053D01*
X002479Y014118D01*
X002599Y014239D01*
X002630Y014314D01*
X002662Y014239D01*
X002782Y014118D01*
X002939Y014053D01*
X003109Y014053D01*
X003266Y014118D01*
X003386Y014239D01*
X003451Y014396D01*
X003451Y014566D01*
X003386Y014723D01*
X003266Y014843D01*
X003109Y014908D01*
X002939Y014908D01*
X002782Y014843D01*
X002662Y014723D01*
X002630Y014647D01*
X002599Y014723D01*
X002479Y014843D01*
X002322Y014908D01*
X002152Y014908D01*
X001994Y014843D01*
X001877Y014725D01*
X001877Y014809D01*
X001777Y014908D01*
X001121Y014908D01*
X001022Y014809D01*
X001022Y014728D02*
X000320Y014728D01*
X000320Y014630D02*
X001022Y014630D01*
X001022Y014531D02*
X000320Y014531D01*
X000320Y014433D02*
X001022Y014433D01*
X001022Y014334D02*
X000320Y014334D01*
X000320Y014236D02*
X001022Y014236D01*
X001038Y014137D02*
X000320Y014137D01*
X000320Y014039D02*
X007794Y014039D01*
X007725Y014122D02*
X007866Y013950D01*
X007855Y013932D01*
X007850Y013912D01*
X007629Y013889D01*
X007552Y013889D01*
X007544Y013881D01*
X007532Y013879D01*
X007484Y013820D01*
X007430Y013766D01*
X007430Y013754D01*
X007422Y013745D01*
X007430Y013669D01*
X007430Y013402D01*
X007422Y013327D01*
X007430Y013317D01*
X007430Y013305D01*
X007484Y013251D01*
X000320Y013251D01*
X000320Y013349D02*
X007424Y013349D01*
X007430Y013448D02*
X000320Y013448D01*
X000320Y013546D02*
X007430Y013546D01*
X007430Y013645D02*
X000320Y013645D01*
X000320Y013743D02*
X007422Y013743D01*
X007501Y013842D02*
X000320Y013842D01*
X000320Y013940D02*
X007860Y013940D01*
X007855Y013932D02*
X007855Y013932D01*
X007725Y014122D02*
X007671Y014176D01*
X007671Y014188D01*
X007664Y014198D01*
X007671Y014274D01*
X007671Y014350D01*
X007680Y014358D01*
X007681Y014370D01*
X007740Y014419D01*
X007929Y014607D01*
X007977Y014666D01*
X007989Y014667D01*
X007998Y014676D01*
X008074Y014676D01*
X008149Y014684D01*
X008159Y014676D01*
X008171Y014676D01*
X008225Y014622D01*
X008397Y014481D01*
X008415Y014493D01*
X008415Y014493D01*
X008436Y014497D01*
X008458Y014719D01*
X008458Y014795D01*
X008467Y014803D01*
X008468Y014816D01*
X008527Y014864D01*
X008581Y014917D01*
X008593Y014917D01*
X008602Y014925D01*
X004110Y014925D01*
X004187Y015024D02*
X015819Y015024D01*
X015819Y015122D02*
X004228Y015122D01*
X004237Y015221D02*
X015819Y015221D01*
X015819Y015319D02*
X004235Y015319D01*
X004194Y015418D02*
X015819Y015418D01*
X015819Y015516D02*
X004126Y015516D01*
X003993Y015615D02*
X015819Y015615D01*
X015819Y015713D02*
X008042Y015713D01*
X008057Y015812D02*
X015819Y015812D01*
X015819Y015910D02*
X008057Y015910D01*
X008057Y016009D02*
X015819Y016009D01*
X015819Y016107D02*
X008057Y016107D01*
X007998Y016206D02*
X015819Y016206D01*
X015819Y016797D02*
X013512Y016797D01*
X013529Y016895D02*
X015819Y016895D01*
X015819Y016994D02*
X013529Y016994D01*
X013493Y017092D02*
X015819Y017092D01*
X015819Y017191D02*
X013436Y017191D01*
X013329Y017289D02*
X013624Y017289D01*
X013631Y017282D02*
X013799Y017212D01*
X013981Y017212D01*
X014149Y017282D01*
X014250Y017383D01*
X014250Y017342D01*
X014350Y017242D01*
X015005Y017242D01*
X015105Y017342D01*
X015105Y017998D01*
X015005Y018097D01*
X014350Y018097D01*
X014250Y017998D01*
X014250Y017957D01*
X014149Y018058D01*
X013981Y018127D01*
X013799Y018127D01*
X013631Y018058D01*
X013502Y017929D01*
X013433Y017761D01*
X013433Y017579D01*
X013502Y017411D01*
X013631Y017282D01*
X013525Y017388D02*
X003136Y017388D01*
X003148Y017486D02*
X013471Y017486D01*
X013433Y017585D02*
X003132Y017585D01*
X003117Y017683D02*
X004599Y017683D01*
X004702Y017640D02*
X004929Y017640D01*
X005138Y017727D01*
X005299Y017887D01*
X005385Y018097D01*
X005385Y018324D01*
X005299Y018533D01*
X005138Y018693D01*
X004929Y018780D01*
X004702Y018780D01*
X004492Y018693D01*
X004332Y018533D01*
X004320Y018503D01*
X004273Y018616D01*
X004121Y018768D01*
X003923Y018850D01*
X003708Y018850D01*
X003509Y018768D01*
X003358Y018616D01*
X003275Y018418D01*
X003275Y018203D01*
X003358Y018004D01*
X003509Y017852D01*
X003708Y017770D01*
X003923Y017770D01*
X004121Y017852D01*
X004273Y018004D01*
X004278Y018017D01*
X004332Y017887D01*
X004492Y017727D01*
X004702Y017640D01*
X004438Y017782D02*
X003950Y017782D01*
X004149Y017880D02*
X004339Y017880D01*
X004294Y017979D02*
X004247Y017979D01*
X003681Y017782D02*
X003101Y017782D01*
X003085Y017880D02*
X003482Y017880D01*
X003383Y017979D02*
X003047Y017979D01*
X002997Y018077D02*
X003327Y018077D01*
X003287Y018176D02*
X002946Y018176D01*
X002896Y018274D02*
X003275Y018274D01*
X003275Y018373D02*
X002816Y018373D01*
X002717Y018471D02*
X003297Y018471D01*
X003338Y018570D02*
X002619Y018570D01*
X002479Y018668D02*
X003409Y018668D01*
X003508Y018767D02*
X002286Y018767D01*
X001932Y018865D02*
X015819Y018865D01*
X015819Y018767D02*
X008123Y018767D01*
X008121Y018768D02*
X007923Y018850D01*
X007708Y018850D01*
X007509Y018768D01*
X007358Y018616D01*
X007295Y018464D01*
X007273Y018516D01*
X007121Y018668D01*
X007409Y018668D01*
X007338Y018570D02*
X007220Y018570D01*
X007292Y018471D02*
X007297Y018471D01*
X007121Y018668D02*
X006923Y018750D01*
X006708Y018750D01*
X006509Y018668D01*
X006358Y018516D01*
X006275Y018318D01*
X006275Y018103D01*
X006358Y017904D01*
X006509Y017752D01*
X006708Y017670D01*
X006923Y017670D01*
X007121Y017752D01*
X007273Y017904D01*
X007336Y018056D01*
X007358Y018004D01*
X007509Y017852D01*
X007708Y017770D01*
X007923Y017770D01*
X008121Y017852D01*
X008273Y018004D01*
X008295Y018056D01*
X008358Y017904D01*
X008509Y017752D01*
X008708Y017670D01*
X008923Y017670D01*
X009121Y017752D01*
X009273Y017904D01*
X009355Y018103D01*
X009355Y018318D01*
X009273Y018516D01*
X009121Y018668D01*
X015819Y018668D01*
X015819Y018570D02*
X009220Y018570D01*
X009292Y018471D02*
X015819Y018471D01*
X015819Y018373D02*
X009333Y018373D01*
X009355Y018274D02*
X015819Y018274D01*
X015819Y018176D02*
X009355Y018176D01*
X009345Y018077D02*
X013678Y018077D01*
X013552Y017979D02*
X009304Y017979D01*
X009249Y017880D02*
X013482Y017880D01*
X013441Y017782D02*
X009150Y017782D01*
X008954Y017683D02*
X013433Y017683D01*
X012877Y017289D02*
X003121Y017289D01*
X003105Y017191D02*
X012769Y017191D01*
X012712Y017092D02*
X003089Y017092D01*
X003080Y017032D02*
X003080Y017032D01*
X003060Y016994D02*
X012677Y016994D01*
X012677Y016895D02*
X003010Y016895D01*
X002960Y016797D02*
X012694Y016797D01*
X012734Y016698D02*
X002910Y016698D01*
X002842Y016600D02*
X012823Y016600D01*
X014156Y017289D02*
X014303Y017289D01*
X015052Y017289D02*
X015819Y017289D01*
X015819Y017388D02*
X015105Y017388D01*
X015105Y017486D02*
X015819Y017486D01*
X015819Y017585D02*
X015105Y017585D01*
X015105Y017683D02*
X015819Y017683D01*
X015819Y017782D02*
X015105Y017782D01*
X015105Y017880D02*
X015819Y017880D01*
X015819Y017979D02*
X015105Y017979D01*
X015026Y018077D02*
X015819Y018077D01*
X014330Y018077D02*
X014102Y018077D01*
X014228Y017979D02*
X014250Y017979D01*
X009121Y018668D02*
X008923Y018750D01*
X008708Y018750D01*
X008509Y018668D01*
X008358Y018516D01*
X008336Y018464D01*
X008273Y018616D01*
X008121Y018768D01*
X008221Y018668D02*
X008510Y018668D01*
X008411Y018570D02*
X008292Y018570D01*
X008333Y018471D02*
X008339Y018471D01*
X008327Y017979D02*
X008247Y017979D01*
X008149Y017880D02*
X008382Y017880D01*
X008480Y017782D02*
X007950Y017782D01*
X007681Y017782D02*
X007150Y017782D01*
X007249Y017880D02*
X007482Y017880D01*
X007383Y017979D02*
X007304Y017979D01*
X006954Y017683D02*
X008677Y017683D01*
X007508Y018767D02*
X004962Y018767D01*
X005164Y018668D02*
X006510Y018668D01*
X006411Y018570D02*
X005262Y018570D01*
X005324Y018471D02*
X006339Y018471D01*
X006298Y018373D02*
X005365Y018373D01*
X005385Y018274D02*
X006275Y018274D01*
X006275Y018176D02*
X005385Y018176D01*
X005377Y018077D02*
X006286Y018077D01*
X006327Y017979D02*
X005336Y017979D01*
X005291Y017880D02*
X006382Y017880D01*
X006480Y017782D02*
X005193Y017782D01*
X005032Y017683D02*
X006677Y017683D01*
X004669Y018767D02*
X004123Y018767D01*
X004221Y018668D02*
X004467Y018668D01*
X004369Y018570D02*
X004292Y018570D01*
X000706Y016501D02*
X000320Y016501D01*
X000320Y016403D02*
X000805Y016403D01*
X000919Y016304D02*
X000320Y016304D01*
X000320Y016206D02*
X001112Y016206D01*
X000608Y016600D02*
X000320Y016600D01*
X000320Y016698D02*
X000540Y016698D01*
X000490Y016797D02*
X000320Y016797D01*
X000320Y016895D02*
X000440Y016895D01*
X000389Y016994D02*
X000320Y016994D01*
X000320Y017092D02*
X000360Y017092D01*
X000345Y017191D02*
X000320Y017191D01*
X000320Y017289D02*
X000329Y017289D01*
X001859Y014827D02*
X001978Y014827D01*
X001879Y014728D02*
X001877Y014728D01*
X001877Y014236D02*
X001877Y014236D01*
X001861Y014137D02*
X001976Y014137D01*
X002497Y014137D02*
X002763Y014137D01*
X002665Y014236D02*
X002596Y014236D01*
X002594Y014728D02*
X002667Y014728D01*
X002765Y014827D02*
X002495Y014827D01*
X003283Y014827D02*
X003669Y014827D01*
X003953Y014827D02*
X008481Y014827D01*
X008458Y014728D02*
X003381Y014728D01*
X003425Y014630D02*
X007947Y014630D01*
X007853Y014531D02*
X003451Y014531D01*
X003451Y014433D02*
X007754Y014433D01*
X007671Y014334D02*
X003426Y014334D01*
X003383Y014236D02*
X007667Y014236D01*
X007711Y014137D02*
X003285Y014137D01*
X003727Y012859D02*
X003570Y012795D01*
X003450Y012675D01*
X003386Y012518D01*
X003386Y012349D01*
X003450Y012192D01*
X003570Y012072D01*
X003727Y012008D01*
X003896Y012008D01*
X004053Y012072D01*
X004172Y012192D01*
X004237Y012349D01*
X004237Y012518D01*
X004172Y012675D01*
X004053Y012795D01*
X003896Y012859D01*
X003727Y012859D01*
X003720Y012857D02*
X000320Y012857D01*
X000320Y012955D02*
X007361Y012955D01*
X007361Y012857D02*
X003903Y012857D01*
X004089Y012758D02*
X007361Y012758D01*
X007361Y012660D02*
X004179Y012660D01*
X004220Y012561D02*
X007457Y012561D01*
X007461Y012558D02*
X007835Y012558D01*
X007929Y012465D01*
X007977Y012406D01*
X007989Y012404D01*
X007998Y012396D01*
X008074Y012396D01*
X008149Y012388D01*
X008159Y012396D01*
X008171Y012396D01*
X008225Y012450D01*
X008407Y012598D01*
X008421Y012592D01*
X008466Y012573D01*
X008484Y012566D01*
X008484Y012409D01*
X008602Y012292D01*
X009045Y012292D01*
X009162Y012409D01*
X009162Y012575D01*
X009202Y012592D01*
X009216Y012598D01*
X009398Y012450D01*
X009452Y012396D01*
X009464Y012396D01*
X009473Y012388D01*
X009549Y012396D01*
X009625Y012396D01*
X009634Y012404D01*
X009646Y012406D01*
X009694Y012465D01*
X009883Y012653D01*
X009942Y012701D01*
X009943Y012713D01*
X009952Y012722D01*
X009952Y012798D01*
X009959Y012874D01*
X009952Y012883D01*
X009952Y012895D01*
X009898Y012949D01*
X009757Y013122D01*
X009768Y013140D01*
X009773Y013160D01*
X009994Y013183D01*
X010070Y013183D01*
X010079Y013191D01*
X010091Y013192D01*
X010139Y013251D01*
X010193Y013305D01*
X010193Y013317D01*
X010201Y013327D01*
X010193Y013402D01*
X010193Y013669D01*
X010201Y013745D01*
X010193Y013754D01*
X010193Y013766D01*
X010139Y013820D01*
X010091Y013879D01*
X010079Y013881D01*
X010070Y013889D01*
X009994Y013889D01*
X009773Y013912D01*
X009768Y013932D01*
X009757Y013950D01*
X009898Y014122D01*
X009952Y014176D01*
X009952Y014188D01*
X009959Y014198D01*
X009952Y014274D01*
X009952Y014350D01*
X009943Y014358D01*
X009942Y014370D01*
X009883Y014419D01*
X009694Y014607D01*
X009646Y014666D01*
X009634Y014667D01*
X009625Y014676D01*
X009549Y014676D01*
X009473Y014684D01*
X009464Y014676D01*
X009452Y014676D01*
X009398Y014622D01*
X009226Y014481D01*
X009208Y014493D01*
X009208Y014493D01*
X009187Y014497D01*
X009165Y014719D01*
X009165Y014795D01*
X009156Y014803D01*
X009155Y014816D01*
X009096Y014864D01*
X009042Y014917D01*
X009030Y014917D01*
X009020Y014925D01*
X008945Y014917D01*
X008678Y014917D01*
X008602Y014925D01*
X008604Y014925D02*
X009019Y014925D01*
X009021Y014925D02*
X015819Y014925D01*
X015819Y014827D02*
X009141Y014827D01*
X009165Y014728D02*
X015819Y014728D01*
X015819Y014630D02*
X009676Y014630D01*
X009770Y014531D02*
X015819Y014531D01*
X015819Y014433D02*
X009869Y014433D01*
X009952Y014334D02*
X015819Y014334D01*
X015819Y014236D02*
X009955Y014236D01*
X009912Y014137D02*
X015819Y014137D01*
X015819Y014039D02*
X009829Y014039D01*
X009763Y013940D02*
X015819Y013940D01*
X015819Y013842D02*
X010122Y013842D01*
X010201Y013743D02*
X015819Y013743D01*
X015819Y013645D02*
X010193Y013645D01*
X010193Y013546D02*
X015819Y013546D01*
X015819Y013448D02*
X010193Y013448D01*
X010199Y013349D02*
X014285Y013349D01*
X014338Y013402D02*
X014221Y013285D01*
X014221Y012842D01*
X014338Y012725D01*
X014781Y012725D01*
X014898Y012842D01*
X014898Y013285D01*
X014781Y013402D01*
X014338Y013402D01*
X014221Y013251D02*
X010139Y013251D01*
X009771Y013152D02*
X014221Y013152D01*
X014221Y013054D02*
X009813Y013054D01*
X009893Y012955D02*
X011332Y012955D01*
X011346Y012969D02*
X011229Y012852D01*
X011229Y012409D01*
X011346Y012292D01*
X011789Y012292D01*
X011906Y012409D01*
X011906Y012852D01*
X011789Y012969D01*
X011346Y012969D01*
X011233Y012857D02*
X009957Y012857D01*
X009952Y012758D02*
X011229Y012758D01*
X011229Y012660D02*
X009891Y012660D01*
X009791Y012561D02*
X011229Y012561D01*
X011229Y012463D02*
X009692Y012463D01*
X009382Y012463D02*
X009162Y012463D01*
X009162Y012561D02*
X009261Y012561D01*
X009117Y012364D02*
X011273Y012364D01*
X011861Y012364D02*
X015819Y012364D01*
X015819Y012266D02*
X004203Y012266D01*
X004237Y012364D02*
X008529Y012364D01*
X008484Y012463D02*
X008241Y012463D01*
X008361Y012561D02*
X008484Y012561D01*
X007930Y012463D02*
X004237Y012463D01*
X004147Y012167D02*
X015819Y012167D01*
X015819Y012069D02*
X004043Y012069D01*
X003580Y012069D02*
X003216Y012069D01*
X003266Y012048D02*
X003109Y012113D01*
X002939Y012113D01*
X002782Y012048D01*
X002662Y011928D01*
X002630Y011852D01*
X002599Y011928D01*
X002479Y012048D01*
X002322Y012113D01*
X002152Y012113D01*
X001994Y012048D01*
X001877Y011930D01*
X001877Y012013D01*
X001777Y012113D01*
X001121Y012113D01*
X001022Y012013D01*
X001022Y011358D01*
X001121Y011258D01*
X001777Y011258D01*
X001877Y011358D01*
X001877Y011441D01*
X001994Y011323D01*
X002152Y011258D01*
X002322Y011258D01*
X002479Y011323D01*
X002599Y011443D01*
X002630Y011519D01*
X002662Y011443D01*
X002782Y011323D01*
X002939Y011258D01*
X003109Y011258D01*
X003266Y011323D01*
X003386Y011443D01*
X003451Y011600D01*
X003451Y011770D01*
X003386Y011928D01*
X003266Y012048D01*
X003344Y011970D02*
X015819Y011970D01*
X015819Y011872D02*
X003410Y011872D01*
X003450Y011773D02*
X015819Y011773D01*
X015819Y011675D02*
X003451Y011675D01*
X003441Y011576D02*
X015819Y011576D01*
X015819Y011478D02*
X003401Y011478D01*
X003322Y011379D02*
X015819Y011379D01*
X015819Y011281D02*
X003164Y011281D01*
X002884Y011281D02*
X002376Y011281D01*
X002535Y011379D02*
X002726Y011379D01*
X002647Y011478D02*
X002613Y011478D01*
X002097Y011281D02*
X001800Y011281D01*
X001877Y011379D02*
X001938Y011379D01*
X001917Y011970D02*
X001877Y011970D01*
X001821Y012069D02*
X002044Y012069D01*
X002429Y012069D02*
X002832Y012069D01*
X002704Y011970D02*
X002557Y011970D01*
X002622Y011872D02*
X002638Y011872D01*
X003420Y012266D02*
X000320Y012266D01*
X000320Y012364D02*
X003386Y012364D01*
X003386Y012463D02*
X000320Y012463D01*
X000320Y012561D02*
X003403Y012561D01*
X003444Y012660D02*
X000320Y012660D01*
X000320Y012758D02*
X003534Y012758D01*
X003476Y012167D02*
X000320Y012167D01*
X000320Y012069D02*
X001077Y012069D01*
X001022Y011970D02*
X000320Y011970D01*
X000320Y011872D02*
X001022Y011872D01*
X001022Y011773D02*
X000320Y011773D01*
X000320Y011675D02*
X001022Y011675D01*
X001022Y011576D02*
X000320Y011576D01*
X000320Y011478D02*
X001022Y011478D01*
X001022Y011379D02*
X000320Y011379D01*
X000320Y011281D02*
X001099Y011281D01*
X000320Y011182D02*
X015819Y011182D01*
X015819Y011084D02*
X000320Y011084D01*
X000320Y010985D02*
X008774Y010985D01*
X008739Y010950D02*
X008739Y010531D01*
X008838Y010432D01*
X009257Y010432D01*
X009284Y010459D01*
X009311Y010432D01*
X009729Y010432D01*
X009829Y010531D01*
X009829Y010950D01*
X009729Y011049D01*
X009311Y011049D01*
X009284Y011022D01*
X009257Y011049D01*
X008838Y011049D01*
X008739Y010950D01*
X008739Y010887D02*
X000320Y010887D01*
X000320Y010788D02*
X008739Y010788D01*
X008739Y010690D02*
X000320Y010690D01*
X000320Y010591D02*
X008739Y010591D01*
X008778Y010493D02*
X000320Y010493D01*
X000320Y010394D02*
X010511Y010394D01*
X010511Y010296D02*
X000320Y010296D01*
X000320Y013054D02*
X007361Y013054D01*
X007361Y013076D02*
X007361Y012657D01*
X007461Y012558D01*
X007361Y013076D02*
X007461Y013175D01*
X007700Y013175D01*
X007629Y013183D01*
X007552Y013183D01*
X007544Y013191D01*
X007532Y013192D01*
X007484Y013251D01*
X007437Y013152D02*
X000320Y013152D01*
X007415Y015713D02*
X007455Y015713D01*
X008217Y014630D02*
X008449Y014630D01*
X008439Y014531D02*
X008336Y014531D01*
X009174Y014630D02*
X009405Y014630D01*
X009286Y014531D02*
X009184Y014531D01*
X009768Y013932D02*
X009768Y013932D01*
X011803Y012955D02*
X014221Y012955D01*
X014221Y012857D02*
X011901Y012857D01*
X011906Y012758D02*
X014304Y012758D01*
X014814Y012758D02*
X015819Y012758D01*
X015819Y012660D02*
X011906Y012660D01*
X011906Y012561D02*
X015819Y012561D01*
X015819Y012463D02*
X011906Y012463D01*
X010546Y010985D02*
X009793Y010985D01*
X009829Y010887D02*
X010511Y010887D01*
X010511Y010788D02*
X009829Y010788D01*
X009829Y010690D02*
X010511Y010690D01*
X010511Y010591D02*
X009829Y010591D01*
X009790Y010493D02*
X010511Y010493D01*
X011128Y010493D02*
X012646Y010493D01*
X012646Y010591D02*
X011128Y010591D01*
X011128Y010690D02*
X012649Y010690D01*
X012747Y010788D02*
X011128Y010788D01*
X011128Y010394D02*
X012646Y010394D01*
X012646Y010296D02*
X011128Y010296D01*
X014898Y012857D02*
X015819Y012857D01*
X015819Y012955D02*
X014898Y012955D01*
X014898Y013054D02*
X015819Y013054D01*
X015819Y013152D02*
X014898Y013152D01*
X014898Y013251D02*
X015819Y013251D01*
X015819Y013349D02*
X014834Y013349D01*
X001247Y006257D02*
X000320Y006257D01*
X000320Y006159D02*
X001149Y006159D01*
X001149Y006060D02*
X000320Y006060D01*
X000320Y005962D02*
X001149Y005962D01*
X001149Y005863D02*
X000320Y005863D01*
X000320Y005765D02*
X001149Y005765D01*
X001149Y005666D02*
X000320Y005666D01*
X000320Y005568D02*
X001149Y005568D01*
X001159Y005469D02*
X000320Y005469D01*
X000320Y005371D02*
X001258Y005371D01*
X000320Y004484D02*
X004399Y004484D01*
X004369Y004386D02*
X000320Y004386D01*
X000320Y004287D02*
X004369Y004287D01*
X004369Y004189D02*
X000320Y004189D01*
X000320Y004090D02*
X004369Y004090D01*
X004413Y003992D02*
X000320Y003992D01*
X000320Y003105D02*
X001442Y003105D01*
X001140Y003007D02*
X000320Y003007D01*
X000320Y002908D02*
X000947Y002908D01*
X000819Y002810D02*
X000320Y002810D01*
X000320Y002711D02*
X000721Y002711D01*
X000622Y002613D02*
X000320Y002613D01*
X000320Y002514D02*
X000547Y002514D01*
X000497Y002416D02*
X000320Y002416D01*
X000320Y002317D02*
X000447Y002317D01*
X000397Y002219D02*
X000320Y002219D01*
X000320Y002120D02*
X000362Y002120D01*
X000347Y002022D02*
X000320Y002022D01*
X000320Y001923D02*
X000331Y001923D01*
X002503Y002908D02*
X004815Y002908D01*
X004730Y002810D02*
X002631Y002810D01*
X002729Y002711D02*
X004689Y002711D01*
X004671Y002613D02*
X002828Y002613D01*
X002902Y002514D02*
X004671Y002514D01*
X004702Y002416D02*
X002952Y002416D01*
X003003Y002317D02*
X004748Y002317D01*
X004847Y002219D02*
X003053Y002219D01*
X003118Y001923D02*
X004830Y001923D01*
X004736Y001825D02*
X003134Y001825D01*
X003150Y001726D02*
X004695Y001726D01*
X004671Y001628D02*
X003134Y001628D01*
X003119Y001529D02*
X004671Y001529D01*
X004696Y001431D02*
X003103Y001431D01*
X003088Y001332D02*
X004737Y001332D01*
X004832Y001234D02*
X003054Y001234D01*
X005405Y001234D02*
X005832Y001234D01*
X005737Y001332D02*
X005500Y001332D01*
X005541Y001431D02*
X005696Y001431D01*
X005671Y001529D02*
X005566Y001529D01*
X005566Y001628D02*
X005671Y001628D01*
X005695Y001726D02*
X005542Y001726D01*
X005501Y001825D02*
X005736Y001825D01*
X005830Y001923D02*
X005407Y001923D01*
X005390Y002219D02*
X005847Y002219D01*
X005748Y002317D02*
X005489Y002317D01*
X005535Y002416D02*
X005702Y002416D01*
X005671Y002514D02*
X005566Y002514D01*
X005566Y002613D02*
X005671Y002613D01*
X005689Y002711D02*
X005548Y002711D01*
X005507Y002810D02*
X005730Y002810D01*
X005815Y002908D02*
X005422Y002908D01*
X006407Y001923D02*
X006830Y001923D01*
X006736Y001825D02*
X006501Y001825D01*
X006542Y001726D02*
X006695Y001726D01*
X006671Y001628D02*
X006566Y001628D01*
X006566Y001529D02*
X006671Y001529D01*
X006696Y001431D02*
X006541Y001431D01*
X006500Y001332D02*
X006737Y001332D01*
X006832Y001234D02*
X006405Y001234D01*
X007405Y001234D02*
X007832Y001234D01*
X007737Y001332D02*
X007500Y001332D01*
X007541Y001431D02*
X007696Y001431D01*
X007671Y001529D02*
X007566Y001529D01*
X007566Y001628D02*
X007671Y001628D01*
X007695Y001726D02*
X007542Y001726D01*
X007501Y001825D02*
X007736Y001825D01*
X007830Y001923D02*
X007407Y001923D01*
D23*
X004678Y004244D03*
X002158Y003890D03*
X000977Y003890D03*
X005622Y007079D03*
X006370Y007079D03*
X007867Y006370D03*
X010386Y005701D03*
X011607Y004402D03*
X011607Y003103D03*
X012394Y003103D03*
X013181Y003103D03*
X013969Y003103D03*
X014756Y003103D03*
X016331Y002788D03*
X016370Y003457D03*
X016764Y003969D03*
X017119Y003969D03*
X017276Y002512D03*
X018142Y001685D03*
X018930Y001685D03*
X020504Y001685D03*
X021292Y001685D03*
X022079Y001685D03*
X022079Y000898D03*
X021292Y000898D03*
X020504Y000898D03*
X022867Y000898D03*
X023654Y000898D03*
X024441Y000898D03*
X024441Y001685D03*
X023181Y002827D03*
X022079Y002473D03*
X021292Y002473D03*
X021292Y003260D03*
X022079Y003260D03*
X022079Y004048D03*
X021292Y004048D03*
X021449Y004756D03*
X021764Y004756D03*
X022079Y004756D03*
X022079Y005071D03*
X021764Y005071D03*
X021449Y005071D03*
X021449Y005386D03*
X021764Y005386D03*
X022079Y005386D03*
X022079Y005701D03*
X021764Y005701D03*
X021449Y005701D03*
X021449Y006016D03*
X021764Y006016D03*
X022079Y006016D03*
X022079Y006804D03*
X021292Y006804D03*
X021292Y007591D03*
X022079Y007591D03*
X022079Y008378D03*
X021292Y008378D03*
X021292Y009166D03*
X022079Y009166D03*
X022867Y009166D03*
X022906Y009796D03*
X021410Y010583D03*
X019953Y012512D03*
X021016Y013457D03*
X018339Y014087D03*
X018221Y012867D03*
X017945Y012867D03*
X017670Y012867D03*
X017394Y012867D03*
X014559Y013063D03*
X012433Y012630D03*
X011567Y012630D03*
X008823Y012630D03*
X007670Y012867D03*
X004559Y013142D03*
X009048Y010741D03*
X009520Y010741D03*
X010819Y010741D03*
X010819Y010307D03*
X011016Y009756D03*
X011016Y009323D03*
X010071Y009087D03*
X011020Y008870D03*
X012552Y009008D03*
X012945Y009008D03*
X013339Y009008D03*
X013733Y009008D03*
X014126Y009008D03*
X014520Y009008D03*
X014914Y009008D03*
X015307Y009008D03*
X015701Y009008D03*
X015701Y007945D03*
X015307Y007945D03*
X014914Y007945D03*
X014520Y007945D03*
X014126Y007945D03*
X013733Y007945D03*
X013339Y007945D03*
X012945Y007945D03*
X012552Y007945D03*
X013733Y007237D03*
X013733Y005780D03*
X016370Y005859D03*
X016370Y006174D03*
X016764Y006174D03*
X016764Y005859D03*
X022867Y008378D03*
X026213Y008181D03*
X026213Y007788D03*
X026213Y008575D03*
X026213Y008969D03*
X028181Y009481D03*
X030378Y008473D03*
X032937Y008489D03*
X032937Y008764D03*
X032937Y009040D03*
X032937Y009315D03*
X033213Y009315D03*
X033213Y009040D03*
X033489Y009040D03*
X033764Y009040D03*
X033764Y009315D03*
X033489Y009315D03*
X033489Y009591D03*
X033764Y009591D03*
X033764Y009867D03*
X033764Y010142D03*
X033489Y010142D03*
X033489Y009867D03*
X033213Y009867D03*
X033213Y010142D03*
X032937Y010142D03*
X032937Y009867D03*
X032937Y009591D03*
X033213Y009591D03*
X034040Y009591D03*
X034315Y009591D03*
X034315Y009867D03*
X034315Y010142D03*
X034040Y010142D03*
X034040Y009867D03*
X034591Y009867D03*
X034591Y010142D03*
X034867Y010142D03*
X035142Y010142D03*
X035142Y009867D03*
X034867Y009867D03*
X034867Y009591D03*
X035142Y009591D03*
X035418Y009591D03*
X035693Y009591D03*
X035693Y009867D03*
X035693Y010142D03*
X035418Y010142D03*
X035418Y009867D03*
X035969Y009867D03*
X035969Y010142D03*
X036244Y010142D03*
X036244Y009867D03*
X036244Y009591D03*
X035969Y009591D03*
X035969Y009315D03*
X035969Y009040D03*
X036244Y009040D03*
X036244Y009315D03*
X035693Y009315D03*
X035693Y009040D03*
X035418Y009040D03*
X035418Y009315D03*
X035142Y009315D03*
X035142Y009040D03*
X034867Y009040D03*
X034867Y009315D03*
X034591Y009315D03*
X034591Y009040D03*
X034315Y009040D03*
X034040Y009040D03*
X034040Y009315D03*
X034315Y009315D03*
X034591Y009591D03*
X034591Y008764D03*
X034591Y008489D03*
X034867Y008489D03*
X035142Y008489D03*
X035142Y008764D03*
X034867Y008764D03*
X035418Y008764D03*
X035693Y008764D03*
X035693Y008489D03*
X035418Y008489D03*
X035969Y008489D03*
X035969Y008764D03*
X036244Y008764D03*
X036244Y008489D03*
X036520Y008489D03*
X036796Y008489D03*
X037071Y008489D03*
X037347Y008489D03*
X037622Y008489D03*
X037622Y008764D03*
X037622Y009040D03*
X037622Y009315D03*
X037898Y009315D03*
X037898Y009040D03*
X037898Y008764D03*
X037898Y008489D03*
X037788Y007713D03*
X037788Y007437D03*
X037788Y007162D03*
X038063Y007162D03*
X038063Y006886D03*
X037788Y006886D03*
X037512Y006886D03*
X037237Y006886D03*
X036961Y006886D03*
X036685Y006886D03*
X036410Y006886D03*
X036134Y006886D03*
X035859Y006886D03*
X035859Y007162D03*
X036134Y007162D03*
X036134Y006611D03*
X035859Y006611D03*
X035859Y006335D03*
X036134Y006335D03*
X036134Y006059D03*
X035859Y006059D03*
X036410Y006059D03*
X036685Y006059D03*
X036961Y006059D03*
X037237Y006059D03*
X037237Y005784D03*
X037512Y005784D03*
X037512Y006059D03*
X037788Y006059D03*
X037788Y005784D03*
X038063Y005784D03*
X038063Y006059D03*
X038339Y006059D03*
X038339Y005784D03*
X038615Y005784D03*
X038890Y005784D03*
X038890Y006059D03*
X038615Y006059D03*
X038615Y006335D03*
X038890Y006335D03*
X038890Y006611D03*
X038615Y006611D03*
X038339Y006611D03*
X038063Y006611D03*
X037788Y006611D03*
X037512Y006611D03*
X037237Y006611D03*
X037237Y006335D03*
X037512Y006335D03*
X037788Y006335D03*
X038063Y006335D03*
X038339Y006335D03*
X039166Y006335D03*
X039166Y006059D03*
X039166Y005784D03*
X039166Y005508D03*
X039166Y005233D03*
X038890Y005233D03*
X038890Y005508D03*
X038615Y005508D03*
X038615Y005233D03*
X038615Y004957D03*
X038890Y004957D03*
X038890Y004681D03*
X038615Y004681D03*
X038339Y004681D03*
X038063Y004681D03*
X037788Y004681D03*
X037512Y004681D03*
X037237Y004681D03*
X037237Y004957D03*
X037512Y004957D03*
X037512Y005233D03*
X037512Y005508D03*
X037237Y005508D03*
X037237Y005233D03*
X037788Y005233D03*
X037788Y005508D03*
X038063Y005508D03*
X038063Y005233D03*
X038063Y004957D03*
X037788Y004957D03*
X038339Y004957D03*
X038339Y005233D03*
X038339Y005508D03*
X039166Y004957D03*
X039166Y004681D03*
X039166Y004406D03*
X038890Y004406D03*
X038615Y004406D03*
X038339Y004406D03*
X038063Y004406D03*
X037788Y004406D03*
X037512Y004406D03*
X037237Y004406D03*
X036016Y003457D03*
X035583Y003457D03*
X034520Y003457D03*
X034126Y003457D03*
X033733Y003457D03*
X033260Y001134D03*
X034244Y001134D03*
X035268Y001134D03*
X032158Y001134D03*
X031174Y001134D03*
X030111Y001134D03*
X029048Y001134D03*
X029048Y002433D03*
X028457Y002433D03*
X028457Y002906D03*
X029048Y002906D03*
X028300Y003449D03*
X027430Y003449D03*
X026922Y002945D03*
X026449Y002945D03*
X026449Y002512D03*
X026449Y002079D03*
X026922Y002079D03*
X026449Y001666D03*
X026449Y001252D03*
X026449Y000741D03*
X027512Y004756D03*
X027473Y006804D03*
X033213Y008489D03*
X033213Y008764D03*
X033489Y008764D03*
X033764Y008764D03*
X033764Y008489D03*
X033489Y008489D03*
X034040Y008489D03*
X034040Y008764D03*
X034315Y008764D03*
X034315Y008489D03*
X035859Y007788D03*
X037512Y007162D03*
X036961Y006611D03*
X036685Y006611D03*
X036410Y006611D03*
X036410Y006335D03*
X036685Y006335D03*
X036961Y006335D03*
X039166Y006611D03*
X037898Y009591D03*
X037898Y009867D03*
X037898Y010142D03*
X037622Y010142D03*
X037347Y010142D03*
X037071Y010142D03*
X036796Y010142D03*
X036520Y010142D03*
X036095Y010741D03*
X036095Y011016D03*
X035819Y011016D03*
X035819Y010741D03*
X035819Y011292D03*
X036095Y011292D03*
X036095Y011567D03*
X036370Y011567D03*
X036370Y011843D03*
X036095Y011843D03*
X035819Y011843D03*
X035819Y011567D03*
X036646Y011843D03*
X036922Y011843D03*
X037197Y011843D03*
X037197Y012119D03*
X037197Y012394D03*
X036922Y012394D03*
X036922Y012119D03*
X037473Y012119D03*
X037473Y012394D03*
X037748Y012394D03*
X037748Y012119D03*
X038024Y012119D03*
X038024Y012394D03*
X038300Y012394D03*
X038575Y012394D03*
X038575Y012119D03*
X038300Y012119D03*
X038024Y011843D03*
X037748Y011843D03*
X037473Y011843D03*
X037473Y011567D03*
X037748Y011567D03*
X037748Y011292D03*
X037748Y011016D03*
X037748Y010741D03*
X037622Y009867D03*
X037622Y009591D03*
X038851Y012119D03*
X038851Y012394D03*
X039126Y012394D03*
X039126Y012119D03*
X039126Y012670D03*
X038851Y012670D03*
X038851Y012945D03*
X039126Y012945D03*
X039126Y013221D03*
X038851Y013221D03*
X038851Y013496D03*
X039126Y013496D03*
X039126Y013772D03*
X038851Y013772D03*
X038851Y014048D03*
X038851Y014323D03*
X039126Y014323D03*
X039126Y014048D03*
X039126Y015307D03*
X038536Y015307D03*
X037945Y015307D03*
X037945Y015898D03*
X038536Y015898D03*
X039126Y015898D03*
X035150Y015071D03*
X034441Y015071D03*
X031725Y015111D03*
X031252Y017670D03*
X030662Y017670D03*
X030662Y018260D03*
X031252Y018260D03*
X028890Y018260D03*
X028300Y018260D03*
X028300Y017670D03*
X028890Y017670D03*
X021685Y018300D03*
X020111Y018300D03*
X018890Y017788D03*
X017473Y017607D03*
X017473Y017331D03*
X018654Y016292D03*
X017119Y015189D03*
X016804Y015189D03*
X020741Y015307D03*
X021016Y015307D03*
X021292Y015307D03*
X021292Y015583D03*
X021016Y015583D03*
X020741Y015583D03*
X029048Y012355D03*
X030741Y012040D03*
X030268Y011292D03*
X035780Y012276D03*
X036252Y012276D03*
X012985Y010465D03*
X008418Y009717D03*
X008418Y009244D03*
X008418Y008811D03*
X007748Y015937D03*
X007119Y015977D03*
D24*
X016095Y016007D02*
X016566Y016007D01*
X016608Y015964D02*
X016513Y016060D01*
X016461Y016185D01*
X016461Y016320D01*
X016513Y016445D01*
X016608Y016541D01*
X016733Y016592D01*
X016869Y016592D01*
X016961Y016554D01*
X017053Y016592D01*
X017189Y016592D01*
X017314Y016541D01*
X017409Y016445D01*
X017461Y016320D01*
X017461Y016185D01*
X017409Y016060D01*
X017314Y015964D01*
X017189Y015912D01*
X017053Y015912D01*
X016961Y015951D01*
X016869Y015912D01*
X016733Y015912D01*
X016608Y015964D01*
X016694Y015929D02*
X016095Y015929D01*
X016095Y015850D02*
X027728Y015850D01*
X027728Y015772D02*
X016095Y015772D01*
X016095Y015693D02*
X027727Y015693D01*
X027727Y015615D02*
X016095Y015615D01*
X016095Y015536D02*
X027727Y015536D01*
X027726Y015458D02*
X017397Y015458D01*
X017447Y015407D02*
X017336Y015518D01*
X016901Y015518D01*
X016586Y015518D01*
X016475Y015407D01*
X016475Y014972D01*
X016586Y014861D01*
X017336Y014861D01*
X017447Y014972D01*
X017447Y015407D01*
X017447Y015379D02*
X027726Y015379D01*
X027726Y015301D02*
X017447Y015301D01*
X017447Y015222D02*
X027725Y015222D01*
X027725Y015144D02*
X017447Y015144D01*
X017447Y015065D02*
X027725Y015065D01*
X027724Y014987D02*
X017447Y014987D01*
X017383Y014908D02*
X027724Y014908D01*
X027724Y014830D02*
X016095Y014830D01*
X016095Y014908D02*
X016539Y014908D01*
X016475Y014987D02*
X016095Y014987D01*
X016095Y015065D02*
X016475Y015065D01*
X016475Y015144D02*
X016095Y015144D01*
X016095Y015222D02*
X016475Y015222D01*
X016475Y015301D02*
X016095Y015301D01*
X016095Y015379D02*
X016475Y015379D01*
X016526Y015458D02*
X016095Y015458D01*
X016908Y015929D02*
X017014Y015929D01*
X017228Y015929D02*
X027728Y015929D01*
X027729Y016007D02*
X017357Y016007D01*
X017420Y016086D02*
X027729Y016086D01*
X027729Y016164D02*
X017452Y016164D01*
X017461Y016243D02*
X027730Y016243D01*
X027730Y016321D02*
X017461Y016321D01*
X017428Y016400D02*
X027730Y016400D01*
X027731Y016478D02*
X017376Y016478D01*
X017275Y016557D02*
X027731Y016557D01*
X027731Y016635D02*
X016095Y016635D01*
X016095Y016557D02*
X016647Y016557D01*
X016546Y016478D02*
X016095Y016478D01*
X016095Y016400D02*
X016494Y016400D01*
X016461Y016321D02*
X016095Y016321D01*
X016095Y016243D02*
X016461Y016243D01*
X016470Y016164D02*
X016095Y016164D01*
X016095Y016086D02*
X016502Y016086D01*
X016955Y016557D02*
X016967Y016557D01*
X017268Y017032D02*
X017678Y017032D01*
X017772Y017126D01*
X017772Y017536D01*
X017772Y017812D01*
X017678Y017905D01*
X017268Y017905D01*
X017174Y017812D01*
X017174Y017126D01*
X017268Y017032D01*
X017194Y017106D02*
X016095Y017106D01*
X016095Y017028D02*
X027733Y017028D01*
X027733Y017106D02*
X017752Y017106D01*
X017772Y017185D02*
X027734Y017185D01*
X027734Y017263D02*
X017772Y017263D01*
X017772Y017342D02*
X027734Y017342D01*
X027735Y017420D02*
X017772Y017420D01*
X017772Y017499D02*
X027735Y017499D01*
X027735Y017577D02*
X017772Y017577D01*
X017772Y017656D02*
X027736Y017656D01*
X027736Y017734D02*
X017772Y017734D01*
X017771Y017813D02*
X027736Y017813D01*
X027736Y017891D02*
X017692Y017891D01*
X017253Y017891D02*
X016095Y017891D01*
X016095Y017813D02*
X017175Y017813D01*
X017174Y017734D02*
X016095Y017734D01*
X016095Y017656D02*
X017174Y017656D01*
X017174Y017577D02*
X016095Y017577D01*
X016095Y017499D02*
X017174Y017499D01*
X017174Y017420D02*
X016095Y017420D01*
X016095Y017342D02*
X017174Y017342D01*
X017174Y017263D02*
X016095Y017263D01*
X016095Y017185D02*
X017174Y017185D01*
X016095Y016949D02*
X027733Y016949D01*
X027732Y016871D02*
X016095Y016871D01*
X016095Y016792D02*
X027732Y016792D01*
X027732Y016714D02*
X016095Y016714D01*
X016095Y017970D02*
X027737Y017970D01*
X027737Y018048D02*
X021980Y018048D01*
X022014Y018082D02*
X021903Y017971D01*
X021468Y017971D01*
X021357Y018082D01*
X021357Y018517D01*
X021468Y018628D01*
X021903Y018628D01*
X022014Y018517D01*
X022014Y018082D01*
X022014Y018127D02*
X027737Y018127D01*
X027738Y018205D02*
X022014Y018205D01*
X022014Y018284D02*
X027738Y018284D01*
X027738Y018362D02*
X022014Y018362D01*
X022014Y018441D02*
X027739Y018441D01*
X027739Y018519D02*
X022012Y018519D01*
X021934Y018598D02*
X027739Y018598D01*
X027740Y018676D02*
X016095Y018676D01*
X016095Y018598D02*
X019862Y018598D01*
X019893Y018628D02*
X019782Y018517D01*
X019782Y018082D01*
X019893Y017971D01*
X020328Y017971D01*
X020439Y018082D01*
X020439Y018517D01*
X020328Y018628D01*
X019893Y018628D01*
X019784Y018519D02*
X016095Y018519D01*
X016095Y018441D02*
X019782Y018441D01*
X019782Y018362D02*
X016095Y018362D01*
X016095Y018284D02*
X019782Y018284D01*
X019782Y018205D02*
X016095Y018205D01*
X016095Y018127D02*
X019782Y018127D01*
X019816Y018048D02*
X016095Y018048D01*
X016095Y018755D02*
X027740Y018755D01*
X027740Y018833D02*
X016095Y018833D01*
X016095Y018851D02*
X027741Y018867D01*
X027719Y013790D01*
X025221Y011292D01*
X016095Y011292D01*
X016095Y018851D01*
X020359Y018598D02*
X021437Y018598D01*
X021359Y018519D02*
X020437Y018519D01*
X020439Y018441D02*
X021357Y018441D01*
X021357Y018362D02*
X020439Y018362D01*
X020439Y018284D02*
X021357Y018284D01*
X021357Y018205D02*
X020439Y018205D01*
X020439Y018127D02*
X021357Y018127D01*
X021391Y018048D02*
X020405Y018048D01*
X016095Y014751D02*
X027723Y014751D01*
X027723Y014673D02*
X016095Y014673D01*
X016095Y014594D02*
X027723Y014594D01*
X027722Y014516D02*
X016095Y014516D01*
X016095Y014437D02*
X027722Y014437D01*
X027722Y014359D02*
X018614Y014359D01*
X018655Y014317D02*
X018556Y014416D01*
X018122Y014416D01*
X018010Y014304D01*
X018010Y013870D01*
X018122Y013758D01*
X018556Y013758D01*
X018655Y013857D01*
X020291Y013857D01*
X020687Y013461D01*
X020687Y013240D01*
X020799Y013128D01*
X021234Y013128D01*
X021345Y013240D01*
X021345Y013675D01*
X021234Y013786D01*
X021013Y013786D01*
X020481Y014317D01*
X018655Y014317D01*
X018339Y014087D02*
X020386Y014087D01*
X021016Y013457D01*
X021345Y013495D02*
X027425Y013495D01*
X027503Y013574D02*
X021345Y013574D01*
X021345Y013652D02*
X027582Y013652D01*
X027660Y013731D02*
X021289Y013731D01*
X020989Y013809D02*
X027720Y013809D01*
X027720Y013888D02*
X020911Y013888D01*
X020832Y013966D02*
X027720Y013966D01*
X027721Y014045D02*
X020754Y014045D01*
X020675Y014123D02*
X027721Y014123D01*
X027721Y014202D02*
X020597Y014202D01*
X020518Y014280D02*
X027721Y014280D01*
X028496Y013851D02*
X034087Y013851D01*
X034441Y014205D01*
X034441Y015071D01*
X035150Y015071D02*
X035150Y013693D01*
X034756Y013300D01*
X028418Y013300D01*
X024559Y009441D01*
X024559Y004205D01*
X026252Y002512D01*
X026449Y002512D01*
X026449Y002079D02*
X026725Y001804D01*
X034796Y001804D01*
X036016Y002985D01*
X036016Y003457D01*
X035583Y003457D02*
X035583Y003024D01*
X034559Y002079D01*
X026922Y002079D01*
X026685Y001567D02*
X026764Y001489D01*
X031804Y001489D01*
X032158Y001134D01*
X030544Y002355D02*
X034402Y002355D01*
X035150Y003103D01*
X035150Y004524D01*
X035461Y004835D01*
X034441Y003772D02*
X031725Y003772D01*
X030268Y005229D01*
X030268Y007827D01*
X030741Y008300D01*
X030741Y008693D01*
X030268Y009166D01*
X030268Y011292D01*
X030544Y011607D02*
X030780Y011370D01*
X030780Y010650D01*
X030981Y010449D01*
X032630Y010583D02*
X032709Y010504D01*
X035583Y010504D01*
X035819Y010741D01*
X035780Y012276D02*
X035386Y012670D01*
X028811Y012670D01*
X025268Y009126D01*
X025268Y004717D01*
X026922Y003063D01*
X026922Y002945D01*
X026449Y002945D02*
X024914Y004481D01*
X024914Y009323D01*
X028575Y012985D01*
X035544Y012985D01*
X036252Y012276D01*
X032630Y011882D02*
X032630Y010583D01*
X030544Y011607D02*
X028930Y011607D01*
X028181Y010859D01*
X028181Y009481D01*
X028969Y008575D02*
X026213Y008575D01*
X026213Y008181D02*
X028733Y008181D01*
X029402Y007512D01*
X029402Y004796D01*
X031213Y002985D01*
X033969Y002985D01*
X034126Y003142D01*
X034126Y003457D01*
X033733Y003457D02*
X033615Y003339D01*
X031410Y003339D01*
X029796Y004953D01*
X029796Y007748D01*
X028969Y008575D01*
X029882Y008969D02*
X030378Y008473D01*
X029882Y008969D02*
X026213Y008969D01*
X025622Y008969D02*
X028693Y012040D01*
X030741Y012040D01*
X032158Y012355D02*
X029048Y012355D01*
X027189Y013260D02*
X021345Y013260D01*
X021345Y013338D02*
X027268Y013338D01*
X027346Y013417D02*
X021345Y013417D01*
X021286Y013181D02*
X027111Y013181D01*
X027032Y013103D02*
X018489Y013103D01*
X018520Y013072D02*
X018426Y013165D01*
X017189Y013165D01*
X017095Y013072D01*
X017095Y012662D01*
X017189Y012568D01*
X018426Y012568D01*
X018520Y012662D01*
X018520Y013072D01*
X018520Y013024D02*
X026954Y013024D01*
X026875Y012946D02*
X018520Y012946D01*
X018520Y012867D02*
X026797Y012867D01*
X026718Y012789D02*
X018520Y012789D01*
X018520Y012710D02*
X026640Y012710D01*
X026561Y012632D02*
X018490Y012632D01*
X017125Y012632D02*
X016095Y012632D01*
X016095Y012710D02*
X017095Y012710D01*
X017095Y012789D02*
X016095Y012789D01*
X016095Y012867D02*
X017095Y012867D01*
X017095Y012946D02*
X016095Y012946D01*
X016095Y013024D02*
X017095Y013024D01*
X017126Y013103D02*
X016095Y013103D01*
X016095Y013181D02*
X020746Y013181D01*
X020687Y013260D02*
X016095Y013260D01*
X016095Y013338D02*
X020687Y013338D01*
X020687Y013417D02*
X016095Y013417D01*
X016095Y013495D02*
X020653Y013495D01*
X020574Y013574D02*
X016095Y013574D01*
X016095Y013652D02*
X020496Y013652D01*
X020417Y013731D02*
X016095Y013731D01*
X016095Y013809D02*
X018071Y013809D01*
X018010Y013888D02*
X016095Y013888D01*
X016095Y013966D02*
X018010Y013966D01*
X018010Y014045D02*
X016095Y014045D01*
X016095Y014123D02*
X018010Y014123D01*
X018010Y014202D02*
X016095Y014202D01*
X016095Y014280D02*
X018010Y014280D01*
X018064Y014359D02*
X016095Y014359D01*
X018607Y013809D02*
X020339Y013809D01*
X016095Y012553D02*
X026483Y012553D01*
X026404Y012475D02*
X016095Y012475D01*
X016095Y012396D02*
X026326Y012396D01*
X026247Y012318D02*
X016095Y012318D01*
X016095Y012239D02*
X026169Y012239D01*
X026090Y012161D02*
X016095Y012161D01*
X016095Y012082D02*
X026012Y012082D01*
X025933Y012004D02*
X016095Y012004D01*
X016095Y011925D02*
X025855Y011925D01*
X025776Y011847D02*
X016095Y011847D01*
X016095Y011768D02*
X025698Y011768D01*
X025619Y011690D02*
X016095Y011690D01*
X016095Y011611D02*
X025541Y011611D01*
X025462Y011533D02*
X016095Y011533D01*
X016095Y011454D02*
X025384Y011454D01*
X025305Y011376D02*
X016095Y011376D01*
X016095Y011297D02*
X025227Y011297D01*
X023772Y009559D02*
X029323Y015111D01*
X031725Y015111D01*
X028496Y013851D02*
X024166Y009520D01*
X024166Y003103D01*
X026016Y001252D01*
X026449Y001252D01*
X026567Y001567D02*
X026685Y001567D01*
X026567Y001567D02*
X026469Y001666D01*
X026449Y001666D01*
X026449Y000741D02*
X026095Y000741D01*
X023772Y003063D01*
X023772Y009559D01*
X025622Y008969D02*
X025622Y005583D01*
X026449Y004756D01*
X027512Y004756D01*
X028496Y004402D02*
X030544Y002355D01*
X030977Y002670D02*
X029008Y004638D01*
X029008Y007079D01*
X028300Y007788D01*
X026213Y007788D01*
X027473Y006804D02*
X028142Y006804D01*
X028496Y006449D01*
X028496Y004402D01*
X028300Y003449D02*
X027430Y003449D01*
X030977Y002670D02*
X034205Y002670D01*
X034796Y003260D01*
X034796Y007591D01*
X034993Y007788D01*
X035859Y007788D01*
X034441Y003772D02*
X034520Y003693D01*
X034520Y003457D01*
X032630Y011882D02*
X032158Y012355D01*
X015977Y009363D02*
X015977Y007552D01*
X012119Y007552D01*
X012119Y009363D01*
X015977Y009363D01*
X015977Y009335D02*
X012119Y009335D01*
X012119Y009256D02*
X015977Y009256D01*
X015977Y009178D02*
X012119Y009178D01*
X012119Y009099D02*
X015977Y009099D01*
X015977Y009021D02*
X012119Y009021D01*
X012119Y008942D02*
X015977Y008942D01*
X015977Y008864D02*
X012119Y008864D01*
X012119Y008785D02*
X015977Y008785D01*
X015977Y008707D02*
X012119Y008707D01*
X012119Y008628D02*
X015977Y008628D01*
X015977Y008550D02*
X012119Y008550D01*
X012119Y008471D02*
X015977Y008471D01*
X015977Y008393D02*
X012119Y008393D01*
X012119Y008314D02*
X015977Y008314D01*
X015977Y008236D02*
X012119Y008236D01*
X012119Y008157D02*
X015977Y008157D01*
X015977Y008079D02*
X012119Y008079D01*
X012119Y008000D02*
X015977Y008000D01*
X015977Y007922D02*
X012119Y007922D01*
X012119Y007843D02*
X015977Y007843D01*
X015977Y007765D02*
X012119Y007765D01*
X012119Y007686D02*
X015977Y007686D01*
X015977Y007608D02*
X012119Y007608D01*
X008418Y009717D02*
X006099Y009717D01*
X006071Y009744D01*
D25*
X008084Y012605D02*
X008381Y012847D01*
X008501Y012786D02*
X008670Y013195D01*
X008953Y013195D02*
X009122Y012786D01*
X009242Y012847D02*
X009539Y012605D01*
X009742Y012809D01*
X009500Y013106D01*
X009603Y013353D02*
X009984Y013392D01*
X009984Y013680D01*
X009603Y013718D01*
X009500Y013966D02*
X009742Y014263D01*
X009539Y014467D01*
X009242Y014224D01*
X008994Y014327D02*
X008955Y014708D01*
X008667Y014708D01*
X008629Y014327D01*
X008381Y014224D02*
X008084Y014467D01*
X007881Y014263D01*
X008123Y013966D01*
X008020Y013718D02*
X007639Y013680D01*
X007639Y013392D01*
X008020Y013353D01*
X008123Y013106D02*
X007881Y012809D01*
X008084Y012605D01*
X008381Y014225D02*
X008427Y014252D01*
X008476Y014275D01*
X008525Y014296D01*
X008576Y014313D01*
X008628Y014327D01*
X008381Y012847D02*
X008419Y012825D01*
X008459Y012804D01*
X008500Y012786D01*
X008122Y013106D02*
X008095Y013152D01*
X008072Y013201D01*
X008051Y013250D01*
X008034Y013301D01*
X008020Y013353D01*
X009500Y013106D02*
X009527Y013152D01*
X009550Y013201D01*
X009571Y013250D01*
X009588Y013301D01*
X009602Y013353D01*
X009241Y012847D02*
X009203Y012825D01*
X009163Y012804D01*
X009122Y012786D01*
X009241Y014225D02*
X009195Y014252D01*
X009146Y014275D01*
X009097Y014296D01*
X009046Y014313D01*
X008994Y014327D01*
X008122Y013966D02*
X008095Y013920D01*
X008072Y013871D01*
X008051Y013822D01*
X008034Y013771D01*
X008020Y013719D01*
X008442Y013536D02*
X008444Y013500D01*
X008449Y013464D01*
X008458Y013429D01*
X008470Y013395D01*
X008486Y013362D01*
X008504Y013331D01*
X008526Y013302D01*
X008550Y013275D01*
X008577Y013251D01*
X008606Y013229D01*
X008637Y013211D01*
X008670Y013195D01*
X008952Y013195D02*
X008986Y013211D01*
X009019Y013231D01*
X009049Y013254D01*
X009077Y013280D01*
X009102Y013309D01*
X009123Y013340D01*
X009142Y013373D01*
X009157Y013408D01*
X009168Y013444D01*
X009176Y013481D01*
X009180Y013519D01*
X009179Y013557D01*
X009175Y013594D01*
X009167Y013632D01*
X009156Y013668D01*
X009140Y013702D01*
X009122Y013735D01*
X009099Y013766D01*
X009074Y013794D01*
X009046Y013820D01*
X009016Y013843D01*
X008983Y013862D01*
X008949Y013878D01*
X008913Y013891D01*
X008876Y013899D01*
X008839Y013904D01*
X008801Y013905D01*
X008763Y013902D01*
X008726Y013895D01*
X008689Y013884D01*
X008654Y013870D01*
X008621Y013852D01*
X008589Y013831D01*
X008560Y013806D01*
X008534Y013779D01*
X008510Y013750D01*
X008490Y013718D01*
X008473Y013684D01*
X008459Y013648D01*
X008450Y013611D01*
X008444Y013574D01*
X008442Y013536D01*
X009500Y013966D02*
X009527Y013920D01*
X009550Y013871D01*
X009571Y013822D01*
X009588Y013771D01*
X009602Y013719D01*
M02*
