G75*
G70*
%OFA0B0*%
%FSLAX24Y24*%
%IPPOS*%
%LPD*%
%AMOC8*
5,1,8,0,0,1.08239X$1,22.5*
%
%ADD10C,0.0030*%
%ADD11C,0.0100*%
%ADD12C,0.0060*%
%ADD13C,0.0080*%
%ADD14C,0.0040*%
%ADD15C,0.0050*%
%ADD16C,0.0000*%
%ADD17C,0.0197*%
%ADD18C,0.0120*%
%ADD19C,0.0080*%
D10*
X005190Y003871D02*
X005504Y004184D01*
X005504Y004027D02*
X005190Y004027D01*
X005190Y004184D02*
X005504Y003871D01*
X005347Y003871D02*
X005347Y004184D01*
X011322Y002568D02*
X011322Y002197D01*
X011322Y002321D02*
X011508Y002321D01*
X011569Y002382D01*
X011569Y002506D01*
X011508Y002568D01*
X011322Y002568D01*
X011691Y002568D02*
X011814Y002444D01*
X011938Y002568D01*
X011938Y002197D01*
X012059Y002259D02*
X012121Y002197D01*
X012244Y002197D01*
X012306Y002259D01*
X012306Y002321D01*
X012244Y002382D01*
X012121Y002382D01*
X012059Y002444D01*
X012059Y002506D01*
X012121Y002568D01*
X012244Y002568D01*
X012306Y002506D01*
X012427Y002568D02*
X012551Y002444D01*
X012674Y002568D01*
X012674Y002197D01*
X012613Y001968D02*
X012674Y001906D01*
X012427Y001659D01*
X012489Y001597D01*
X012613Y001597D01*
X012674Y001659D01*
X012674Y001906D01*
X012613Y001968D02*
X012489Y001968D01*
X012427Y001906D01*
X012427Y001659D01*
X012306Y001782D02*
X012059Y001782D01*
X012244Y001968D01*
X012244Y001597D01*
X011938Y001782D02*
X011691Y001782D01*
X011569Y001721D02*
X011508Y001782D01*
X011322Y001782D01*
X011322Y001659D01*
X011384Y001597D01*
X011508Y001597D01*
X011569Y001659D01*
X011569Y001721D01*
X011446Y001906D02*
X011322Y001782D01*
X011446Y001906D02*
X011569Y001968D01*
X011691Y002197D02*
X011691Y002568D01*
X012427Y002568D02*
X012427Y002197D01*
X013164Y002197D02*
X013349Y002197D01*
X013411Y002259D01*
X013411Y002506D01*
X013349Y002568D01*
X013164Y002568D01*
X013164Y002197D01*
X013164Y001968D02*
X013164Y001721D01*
X013287Y001597D01*
X013411Y001721D01*
X013411Y001968D01*
X013532Y002197D02*
X013532Y002444D01*
X013532Y002321D02*
X013656Y002444D01*
X013718Y002444D01*
X013839Y002444D02*
X013901Y002444D01*
X013901Y002197D01*
X013839Y002197D02*
X013963Y002197D01*
X014208Y002197D02*
X014332Y002444D01*
X014453Y002382D02*
X014515Y002444D01*
X014638Y002444D01*
X014700Y002382D01*
X014700Y002321D01*
X014453Y002321D01*
X014453Y002382D02*
X014453Y002259D01*
X014515Y002197D01*
X014638Y002197D01*
X014821Y002197D02*
X014821Y002444D01*
X014821Y002321D02*
X014945Y002444D01*
X015007Y002444D01*
X015497Y002444D02*
X015620Y002197D01*
X015744Y002444D01*
X015865Y002444D02*
X015988Y002568D01*
X015988Y002197D01*
X015865Y002197D02*
X016112Y002197D01*
X016233Y002197D02*
X016295Y002197D01*
X016295Y002259D01*
X016233Y002259D01*
X016233Y002197D01*
X016417Y002197D02*
X016417Y002259D01*
X016664Y002506D01*
X016664Y002568D01*
X016417Y002568D01*
X016296Y001844D02*
X016357Y001782D01*
X016357Y001659D01*
X016296Y001597D01*
X016111Y001597D01*
X015989Y001597D02*
X015989Y001782D01*
X015927Y001844D01*
X015866Y001782D01*
X015866Y001597D01*
X015742Y001597D02*
X015742Y001844D01*
X015804Y001844D01*
X015866Y001782D01*
X015621Y001782D02*
X015374Y001782D01*
X015374Y001844D02*
X015497Y001968D01*
X015621Y001844D01*
X015621Y001597D01*
X015374Y001597D02*
X015374Y001844D01*
X014884Y001906D02*
X014884Y001659D01*
X014822Y001597D01*
X014699Y001597D01*
X014637Y001659D01*
X014884Y001906D01*
X014822Y001968D01*
X014699Y001968D01*
X014637Y001906D01*
X014637Y001659D01*
X014516Y001782D02*
X014269Y001782D01*
X014454Y001968D01*
X014454Y001597D01*
X014576Y001368D02*
X014638Y001368D01*
X014638Y000997D01*
X014699Y000997D02*
X014576Y000997D01*
X014577Y000768D02*
X014639Y000706D01*
X014639Y000644D01*
X014577Y000582D01*
X014639Y000521D01*
X014639Y000459D01*
X014577Y000397D01*
X014453Y000397D01*
X014392Y000459D01*
X014270Y000397D02*
X014023Y000397D01*
X014147Y000397D02*
X014147Y000768D01*
X014023Y000644D01*
X013902Y000706D02*
X013655Y000459D01*
X013717Y000397D01*
X013840Y000397D01*
X013902Y000459D01*
X013902Y000706D01*
X013840Y000768D01*
X013717Y000768D01*
X013655Y000706D01*
X013655Y000459D01*
X013534Y000397D02*
X013287Y000397D01*
X013534Y000644D01*
X013534Y000706D01*
X013472Y000768D01*
X013349Y000768D01*
X013287Y000706D01*
X013471Y000874D02*
X013471Y001244D01*
X013656Y001244D01*
X013718Y001182D01*
X013718Y001059D01*
X013656Y000997D01*
X013471Y000997D01*
X013103Y000997D02*
X013350Y001368D01*
X012981Y001368D02*
X012734Y000997D01*
X012612Y000997D02*
X012550Y000997D01*
X012550Y001059D01*
X012612Y001059D01*
X012612Y000997D01*
X012612Y001182D02*
X012550Y001182D01*
X012550Y001244D01*
X012612Y001244D01*
X012612Y001182D01*
X012429Y001182D02*
X012429Y001059D01*
X012367Y000997D01*
X012182Y000997D01*
X012060Y000997D02*
X011998Y001059D01*
X011998Y001306D01*
X011936Y001244D02*
X012060Y001244D01*
X012182Y001244D02*
X012367Y001244D01*
X012429Y001182D01*
X012182Y001244D02*
X012182Y000874D01*
X012060Y000644D02*
X011936Y000768D01*
X011815Y000706D02*
X011753Y000768D01*
X011630Y000768D01*
X011568Y000706D01*
X011568Y000459D01*
X011630Y000397D01*
X011753Y000397D01*
X011815Y000459D01*
X011936Y000397D02*
X012060Y000521D01*
X012060Y000644D01*
X012550Y000582D02*
X012797Y000582D01*
X013839Y001059D02*
X013901Y001121D01*
X014086Y001121D01*
X014086Y001182D02*
X014086Y000997D01*
X013901Y000997D01*
X013839Y001059D01*
X013901Y001244D02*
X014024Y001244D01*
X014086Y001182D01*
X014208Y001244D02*
X014331Y000997D01*
X014454Y001244D01*
X014821Y001182D02*
X014821Y001059D01*
X014883Y000997D01*
X015007Y000997D01*
X015068Y001059D01*
X015068Y001182D01*
X015007Y001244D01*
X014883Y001244D01*
X014821Y001182D01*
X015190Y001059D02*
X015251Y001059D01*
X015251Y000997D01*
X015190Y000997D01*
X015190Y001059D01*
X015374Y000997D02*
X015374Y001244D01*
X015436Y001244D01*
X015497Y001182D01*
X015559Y001244D01*
X015621Y001182D01*
X015621Y000997D01*
X015497Y000997D02*
X015497Y001182D01*
X015742Y001182D02*
X015742Y001059D01*
X015804Y000997D01*
X015927Y000997D01*
X015989Y001121D02*
X015742Y001121D01*
X015742Y001182D02*
X015804Y001244D01*
X015927Y001244D01*
X015989Y001182D01*
X015989Y001121D01*
X016111Y001474D02*
X016111Y001844D01*
X016296Y001844D01*
X016479Y001782D02*
X016541Y001721D01*
X016664Y001721D01*
X016726Y001659D01*
X016664Y001597D01*
X016479Y001597D01*
X016479Y001782D02*
X016541Y001844D01*
X016726Y001844D01*
X016295Y000768D02*
X016295Y000397D01*
X016233Y000397D02*
X016357Y000397D01*
X016479Y000459D02*
X016541Y000397D01*
X016664Y000397D01*
X016726Y000459D01*
X016726Y000582D01*
X016664Y000644D01*
X016541Y000644D01*
X016479Y000582D01*
X016479Y000459D01*
X016295Y000768D02*
X016233Y000768D01*
X016112Y000644D02*
X015988Y000397D01*
X015865Y000644D01*
X015744Y000582D02*
X015744Y000397D01*
X015558Y000397D01*
X015497Y000459D01*
X015558Y000521D01*
X015744Y000521D01*
X015744Y000582D02*
X015682Y000644D01*
X015558Y000644D01*
X015375Y000582D02*
X015314Y000521D01*
X015128Y000521D01*
X015128Y000397D02*
X015128Y000768D01*
X015314Y000768D01*
X015375Y000706D01*
X015375Y000582D01*
X014577Y000582D02*
X014515Y000582D01*
X014392Y000706D02*
X014453Y000768D01*
X014577Y000768D01*
X014208Y002197D02*
X014085Y002444D01*
X013901Y002568D02*
X013901Y002629D01*
X011814Y001244D02*
X011691Y001244D01*
X011753Y001306D02*
X011753Y001059D01*
X011814Y000997D01*
X011569Y000997D02*
X011569Y001182D01*
X011508Y001244D01*
X011384Y001244D01*
X011322Y001182D01*
X011322Y000997D02*
X011322Y001368D01*
X011446Y000768D02*
X011322Y000644D01*
X011322Y000521D01*
X011446Y000397D01*
X017216Y000397D02*
X017216Y000768D01*
X017339Y000644D01*
X017462Y000768D01*
X017462Y000397D01*
X017584Y000459D02*
X017646Y000521D01*
X017831Y000521D01*
X017831Y000582D02*
X017831Y000397D01*
X017646Y000397D01*
X017584Y000459D01*
X017646Y000644D02*
X017769Y000644D01*
X017831Y000582D01*
X017952Y000644D02*
X018137Y000644D01*
X018199Y000582D01*
X018199Y000397D01*
X018320Y000459D02*
X018382Y000397D01*
X018506Y000397D01*
X018567Y000459D01*
X018567Y000582D01*
X018506Y000644D01*
X018382Y000644D01*
X018320Y000582D01*
X018320Y000459D01*
X017952Y000397D02*
X017952Y000644D01*
X018689Y000644D02*
X018812Y000397D01*
X018936Y000644D01*
X019057Y000644D02*
X019119Y000644D01*
X019119Y000397D01*
X019057Y000397D02*
X019181Y000397D01*
X019119Y000768D02*
X019119Y000829D01*
X026741Y000651D02*
X026741Y000281D01*
X026988Y000281D02*
X026741Y000651D01*
X026988Y000651D02*
X026988Y000281D01*
X027110Y000342D02*
X027171Y000281D01*
X027295Y000281D01*
X027356Y000342D01*
X027356Y000589D01*
X027295Y000651D01*
X027171Y000651D01*
X027110Y000589D01*
X027110Y000342D01*
X027846Y000342D02*
X027908Y000281D01*
X028031Y000281D01*
X028093Y000342D01*
X028093Y000404D01*
X028031Y000466D01*
X027908Y000466D01*
X027846Y000528D01*
X027846Y000589D01*
X027908Y000651D01*
X028031Y000651D01*
X028093Y000589D01*
X028214Y000651D02*
X028214Y000281D01*
X028461Y000281D01*
X028583Y000281D02*
X028583Y000651D01*
X028830Y000281D01*
X028830Y000651D01*
X028951Y000589D02*
X028951Y000528D01*
X029013Y000466D01*
X029136Y000466D01*
X029198Y000404D01*
X029198Y000342D01*
X029136Y000281D01*
X029013Y000281D01*
X028951Y000342D01*
X028951Y000589D02*
X029013Y000651D01*
X029136Y000651D01*
X029198Y000589D01*
X029319Y000651D02*
X029443Y000651D01*
X029381Y000651D02*
X029381Y000281D01*
X029319Y000281D02*
X029443Y000281D01*
X029688Y000281D02*
X029688Y000651D01*
X029565Y000651D02*
X029812Y000651D01*
X029933Y000651D02*
X030057Y000651D01*
X029995Y000651D02*
X029995Y000281D01*
X029933Y000281D02*
X030057Y000281D01*
X030179Y000404D02*
X030302Y000281D01*
X030426Y000404D01*
X030426Y000651D01*
X030547Y000651D02*
X030547Y000281D01*
X030794Y000281D01*
X030671Y000466D02*
X030547Y000466D01*
X030547Y000651D02*
X030794Y000651D01*
X031284Y000589D02*
X031284Y000342D01*
X031345Y000281D01*
X031469Y000281D01*
X031531Y000342D01*
X031652Y000342D02*
X031652Y000589D01*
X031714Y000651D01*
X031837Y000651D01*
X031899Y000589D01*
X031899Y000342D01*
X031837Y000281D01*
X031714Y000281D01*
X031652Y000342D01*
X031531Y000589D02*
X031469Y000651D01*
X031345Y000651D01*
X031284Y000589D01*
X032020Y000651D02*
X032020Y000281D01*
X032267Y000281D02*
X032267Y000651D01*
X032144Y000528D01*
X032020Y000651D01*
X032389Y000651D02*
X032389Y000281D01*
X032389Y000404D02*
X032574Y000404D01*
X032636Y000466D01*
X032636Y000589D01*
X032574Y000651D01*
X032389Y000651D01*
X032757Y000589D02*
X032757Y000342D01*
X032819Y000281D01*
X032942Y000281D01*
X033004Y000342D01*
X033004Y000589D01*
X032942Y000651D01*
X032819Y000651D01*
X032757Y000589D01*
X033125Y000651D02*
X033125Y000281D01*
X033372Y000281D02*
X033125Y000651D01*
X033372Y000651D02*
X033372Y000281D01*
X033494Y000281D02*
X033741Y000281D01*
X033862Y000281D02*
X033862Y000651D01*
X034109Y000281D01*
X034109Y000651D01*
X034230Y000651D02*
X034477Y000651D01*
X034354Y000651D02*
X034354Y000281D01*
X034599Y000342D02*
X034660Y000281D01*
X034784Y000281D01*
X034845Y000342D01*
X034845Y000404D01*
X034784Y000466D01*
X034660Y000466D01*
X034599Y000528D01*
X034599Y000589D01*
X034660Y000651D01*
X034784Y000651D01*
X034845Y000589D01*
X035335Y000528D02*
X035335Y000281D01*
X035335Y000466D02*
X035582Y000466D01*
X035582Y000528D02*
X035582Y000281D01*
X035704Y000281D02*
X035889Y000281D01*
X035950Y000342D01*
X035950Y000404D01*
X035889Y000466D01*
X035704Y000466D01*
X035582Y000528D02*
X035459Y000651D01*
X035335Y000528D01*
X035704Y000651D02*
X035704Y000281D01*
X035889Y000466D02*
X035950Y000528D01*
X035950Y000589D01*
X035889Y000651D01*
X035704Y000651D01*
X036072Y000589D02*
X036072Y000342D01*
X036134Y000281D01*
X036257Y000281D01*
X036319Y000342D01*
X036319Y000589D01*
X036257Y000651D01*
X036134Y000651D01*
X036072Y000589D01*
X036440Y000651D02*
X036440Y000404D01*
X036564Y000281D01*
X036687Y000404D01*
X036687Y000651D01*
X036808Y000651D02*
X036808Y000281D01*
X037055Y000281D01*
X036932Y000466D02*
X036808Y000466D01*
X036808Y000651D02*
X037055Y000651D01*
X036237Y001622D02*
X035867Y001622D01*
X035637Y001622D02*
X035267Y001622D01*
X035390Y001745D01*
X035267Y001869D01*
X035637Y001869D01*
X035576Y001990D02*
X035637Y002052D01*
X035637Y002175D01*
X035576Y002237D01*
X035452Y002237D01*
X035390Y002175D01*
X035390Y002052D01*
X035452Y001990D01*
X035576Y001990D01*
X035867Y001869D02*
X036237Y001869D01*
X036114Y001745D01*
X036237Y001622D01*
X035576Y002420D02*
X035637Y002482D01*
X035576Y002420D02*
X035329Y002420D01*
X035390Y002358D02*
X035390Y002482D01*
X035452Y002604D02*
X035576Y002604D01*
X035637Y002666D01*
X035637Y002789D01*
X035576Y002851D01*
X035452Y002851D01*
X035390Y002789D01*
X035390Y002666D01*
X035452Y002604D01*
X035867Y002727D02*
X036114Y002727D01*
X036237Y002850D01*
X036114Y002974D01*
X035867Y002974D01*
X035637Y002972D02*
X035390Y002972D01*
X035390Y003096D02*
X035390Y003157D01*
X035390Y003096D02*
X035514Y002972D01*
X035576Y003279D02*
X035637Y003279D01*
X035637Y003341D01*
X035576Y003341D01*
X035576Y003279D01*
X035452Y003279D02*
X035390Y003279D01*
X035390Y003341D01*
X035452Y003341D01*
X035452Y003279D01*
X035867Y003832D02*
X036176Y003832D01*
X036237Y003893D01*
X036237Y004017D01*
X036176Y004078D01*
X035867Y004078D01*
X033741Y000651D02*
X033494Y000651D01*
X033494Y000281D01*
X033494Y000466D02*
X033617Y000466D01*
X030179Y000404D02*
X030179Y000651D01*
X028461Y000651D02*
X028214Y000651D01*
X028214Y000466D02*
X028338Y000466D01*
X021045Y007246D02*
X020799Y007246D01*
X020922Y007246D02*
X020922Y007616D01*
X020799Y007493D01*
X020677Y007554D02*
X020615Y007616D01*
X020492Y007616D01*
X020430Y007554D01*
X020430Y007307D01*
X020492Y007246D01*
X020615Y007246D01*
X020677Y007307D01*
X020308Y007246D02*
X020185Y007246D01*
X020246Y007246D02*
X020246Y007616D01*
X020185Y007616D02*
X020308Y007616D01*
X020175Y008952D02*
X020545Y008952D01*
X020545Y009199D01*
X020545Y009321D02*
X020175Y009321D01*
X020175Y009568D01*
X020175Y009689D02*
X020175Y009874D01*
X020236Y009936D01*
X020483Y009936D01*
X020545Y009874D01*
X020545Y009689D01*
X020175Y009689D01*
X020360Y009444D02*
X020360Y009321D01*
X020545Y009321D02*
X020545Y009568D01*
X020883Y009568D02*
X020883Y009321D01*
X021254Y009321D01*
X021254Y009568D01*
X021254Y009689D02*
X021254Y009874D01*
X021192Y009936D01*
X020945Y009936D01*
X020883Y009874D01*
X020883Y009689D01*
X021254Y009689D01*
X021069Y009444D02*
X021069Y009321D01*
X021254Y009199D02*
X021254Y008952D01*
X020883Y008952D01*
X021069Y010057D02*
X021069Y010242D01*
X021130Y010304D01*
X021192Y010304D01*
X021254Y010242D01*
X021254Y010119D01*
X021192Y010057D01*
X021069Y010057D01*
X020945Y010181D01*
X020883Y010304D01*
X020545Y010242D02*
X020545Y010119D01*
X020483Y010057D01*
X020360Y010057D02*
X020298Y010181D01*
X020298Y010242D01*
X020360Y010304D01*
X020483Y010304D01*
X020545Y010242D01*
X020360Y010057D02*
X020175Y010057D01*
X020175Y010304D01*
X017161Y009197D02*
X017038Y009197D01*
X017099Y009197D02*
X017099Y008826D01*
X017038Y008826D02*
X017161Y008826D01*
X017100Y008685D02*
X017162Y008623D01*
X017162Y008376D01*
X017100Y008315D01*
X016977Y008315D01*
X016915Y008376D01*
X016915Y008623D01*
X016977Y008685D01*
X017100Y008685D01*
X016916Y008888D02*
X016855Y008826D01*
X016731Y008826D01*
X016669Y008888D01*
X016548Y008888D02*
X016548Y009135D01*
X016486Y009197D01*
X016363Y009197D01*
X016301Y009135D01*
X016301Y008888D01*
X016363Y008826D01*
X016486Y008826D01*
X016548Y008888D01*
X016608Y008685D02*
X016547Y008623D01*
X016547Y008561D01*
X016608Y008500D01*
X016732Y008500D01*
X016793Y008438D01*
X016793Y008376D01*
X016732Y008315D01*
X016608Y008315D01*
X016547Y008376D01*
X016424Y008315D02*
X016301Y008315D01*
X016363Y008315D02*
X016363Y008685D01*
X016424Y008685D02*
X016301Y008685D01*
X016180Y008685D02*
X016180Y008315D01*
X016118Y008173D02*
X015994Y008173D01*
X015933Y008111D01*
X015933Y008050D01*
X015994Y007988D01*
X016118Y007988D01*
X016180Y007926D01*
X016180Y007865D01*
X016118Y007803D01*
X015994Y007803D01*
X015933Y007865D01*
X016180Y008111D02*
X016118Y008173D01*
X016301Y008111D02*
X016301Y007865D01*
X016363Y007803D01*
X016486Y007803D01*
X016548Y007865D01*
X016669Y007803D02*
X016916Y007803D01*
X017038Y007803D02*
X017038Y008173D01*
X017099Y007988D02*
X017285Y007803D01*
X017038Y007926D02*
X017285Y008173D01*
X016669Y008173D02*
X016669Y007803D01*
X016548Y008111D02*
X016486Y008173D01*
X016363Y008173D01*
X016301Y008111D01*
X015933Y008315D02*
X015933Y008685D01*
X016056Y008561D01*
X016180Y008685D01*
X016180Y008826D02*
X016180Y009197D01*
X016056Y009073D01*
X015933Y009197D01*
X015933Y008826D01*
X016608Y008685D02*
X016732Y008685D01*
X016793Y008623D01*
X016916Y008888D02*
X016916Y008950D01*
X016855Y009012D01*
X016731Y009012D01*
X016669Y009073D01*
X016669Y009135D01*
X016731Y009197D01*
X016855Y009197D01*
X016916Y009135D01*
X016548Y009400D02*
X016486Y009338D01*
X016363Y009338D01*
X016301Y009400D01*
X016180Y009400D02*
X016118Y009338D01*
X015994Y009338D01*
X015933Y009400D01*
X015933Y009647D01*
X015994Y009709D01*
X016118Y009709D01*
X016180Y009647D01*
X016301Y009647D02*
X016301Y009585D01*
X016363Y009523D01*
X016486Y009523D01*
X016548Y009462D01*
X016548Y009400D01*
X016548Y009647D02*
X016486Y009709D01*
X016363Y009709D01*
X016301Y009647D01*
X012761Y007996D02*
X012447Y007682D01*
X012604Y007682D02*
X012604Y007996D01*
X012447Y007996D02*
X012761Y007682D01*
X012761Y007839D02*
X012447Y007839D01*
X008065Y012709D02*
X007751Y013022D01*
X007751Y012866D02*
X008065Y012866D01*
X008065Y013022D02*
X007751Y012709D01*
X007908Y012709D02*
X007908Y013022D01*
X008471Y015259D02*
X008841Y015259D01*
X008841Y015506D01*
X008841Y015627D02*
X008471Y015627D01*
X008471Y015874D01*
X008471Y015995D02*
X008471Y016180D01*
X008533Y016242D01*
X008780Y016242D01*
X008841Y016180D01*
X008841Y015995D01*
X008471Y015995D01*
X008656Y015750D02*
X008656Y015627D01*
X008841Y015627D02*
X008841Y015874D01*
X008656Y016364D02*
X008656Y016611D01*
X008578Y016694D02*
X008825Y016694D01*
X008947Y016694D02*
X009194Y016694D01*
X009315Y016694D02*
X009315Y017064D01*
X009500Y017064D01*
X009562Y017003D01*
X009562Y016756D01*
X009500Y016694D01*
X009315Y016694D01*
X009070Y016879D02*
X008947Y016879D01*
X008947Y017064D02*
X008947Y016694D01*
X008841Y016549D02*
X008471Y016549D01*
X008656Y016364D01*
X008578Y016694D02*
X008578Y017064D01*
X008947Y017064D02*
X009194Y017064D01*
X009683Y017003D02*
X009745Y017064D01*
X009868Y017064D01*
X009930Y017003D01*
X009930Y016941D01*
X009868Y016879D01*
X009930Y016818D01*
X009930Y016756D01*
X009868Y016694D01*
X009745Y016694D01*
X009683Y016756D01*
X009807Y016879D02*
X009868Y016879D01*
X009972Y017057D02*
X009972Y016686D01*
X010219Y016686D01*
X010340Y016686D02*
X010587Y016686D01*
X010709Y016686D02*
X010894Y016686D01*
X010956Y016748D01*
X010956Y016995D01*
X010894Y017057D01*
X010709Y017057D01*
X010709Y016686D01*
X010464Y016871D02*
X010340Y016871D01*
X010340Y016686D02*
X010340Y017057D01*
X010587Y017057D01*
X011077Y016995D02*
X011139Y017057D01*
X011262Y017057D01*
X011324Y016995D01*
X011324Y016933D01*
X011077Y016686D01*
X011324Y016686D01*
X011454Y016425D02*
X011825Y016425D01*
X011825Y016548D02*
X011825Y016301D01*
X011763Y016180D02*
X011516Y016180D01*
X011454Y016118D01*
X011454Y015933D01*
X011825Y015933D01*
X011825Y016118D01*
X011763Y016180D01*
X011578Y016301D02*
X011454Y016425D01*
X011454Y015812D02*
X011454Y015565D01*
X011825Y015565D01*
X011825Y015812D01*
X011639Y015688D02*
X011639Y015565D01*
X011825Y015443D02*
X011825Y015196D01*
X011454Y015196D01*
X015749Y014166D02*
X015749Y013919D01*
X015934Y013919D01*
X015872Y014043D01*
X015872Y014104D01*
X015934Y014166D01*
X016058Y014166D01*
X016119Y014104D01*
X016119Y013981D01*
X016058Y013919D01*
X016058Y013798D02*
X016119Y013736D01*
X016119Y013613D01*
X016058Y013551D01*
X015811Y013551D01*
X015749Y013613D01*
X015749Y013736D01*
X015811Y013798D01*
X017524Y016824D02*
X017838Y017137D01*
X017838Y016981D02*
X017524Y016981D01*
X017524Y017137D02*
X017838Y016824D01*
X017681Y016824D02*
X017681Y017137D01*
X020401Y017176D02*
X020463Y017114D01*
X020586Y017114D01*
X020648Y017176D01*
X020770Y017114D02*
X021016Y017361D01*
X021016Y017422D01*
X020955Y017484D01*
X020831Y017484D01*
X020770Y017422D01*
X020648Y017422D02*
X020586Y017484D01*
X020463Y017484D01*
X020401Y017422D01*
X020401Y017176D01*
X020770Y017114D02*
X021016Y017114D01*
X021138Y017176D02*
X021200Y017114D01*
X021323Y017114D01*
X021385Y017176D01*
X021385Y017422D01*
X021323Y017484D01*
X021200Y017484D01*
X021138Y017422D01*
X021138Y017361D01*
X021200Y017299D01*
X021385Y017299D01*
X030229Y017179D02*
X030229Y016932D01*
X030291Y016811D02*
X030229Y016749D01*
X030229Y016625D01*
X030291Y016564D01*
X030291Y016442D02*
X030229Y016381D01*
X030229Y016257D01*
X030291Y016195D01*
X030538Y016195D01*
X030600Y016257D01*
X030600Y016381D01*
X030538Y016442D01*
X030600Y016564D02*
X030353Y016811D01*
X030291Y016811D01*
X030538Y016932D02*
X030600Y016932D01*
X030538Y016932D02*
X030291Y017179D01*
X030229Y017179D01*
X030600Y016811D02*
X030600Y016564D01*
X031637Y017594D02*
X031576Y017656D01*
X031576Y017779D01*
X031637Y017841D01*
X031761Y017841D02*
X031761Y017718D01*
X031761Y017841D02*
X031884Y017841D01*
X031946Y017779D01*
X031946Y017656D01*
X031884Y017594D01*
X031637Y017594D01*
X031576Y017962D02*
X031946Y018209D01*
X031576Y018209D01*
X031576Y018331D02*
X031576Y018516D01*
X031637Y018578D01*
X031884Y018578D01*
X031946Y018516D01*
X031946Y018331D01*
X031576Y018331D01*
X031576Y017962D02*
X031946Y017962D01*
X036314Y018130D02*
X036314Y018253D01*
X036314Y018192D02*
X036685Y018192D01*
X036685Y018253D02*
X036685Y018130D01*
X036746Y018008D02*
X036746Y017762D01*
X036561Y017640D02*
X036314Y017640D01*
X036314Y017393D02*
X036561Y017393D01*
X036685Y017517D01*
X036561Y017640D01*
X036685Y018375D02*
X036314Y018375D01*
X036685Y018622D01*
X036314Y018622D01*
X032525Y013863D02*
X032155Y013863D01*
X032340Y013678D01*
X032340Y013925D01*
X032340Y013556D02*
X032402Y013495D01*
X032402Y013309D01*
X032525Y013309D02*
X032155Y013309D01*
X032155Y013495D01*
X032216Y013556D01*
X032340Y013556D01*
X032402Y013433D02*
X032525Y013556D01*
X025994Y011264D02*
X025747Y011264D01*
X025870Y011264D02*
X025870Y010893D01*
X025625Y010893D02*
X025378Y010893D01*
X025378Y011264D01*
X025257Y011264D02*
X025257Y010955D01*
X025195Y010893D01*
X025072Y010893D01*
X025010Y010955D01*
X025010Y011264D01*
X024889Y011140D02*
X024889Y010893D01*
X024889Y011079D02*
X024642Y011079D01*
X024642Y011140D02*
X024642Y010893D01*
X024642Y011140D02*
X024765Y011264D01*
X024889Y011140D01*
X024520Y011264D02*
X024273Y011264D01*
X024273Y010893D01*
X024152Y010955D02*
X023905Y011202D01*
X023905Y011079D02*
X024152Y011079D01*
X024273Y011079D02*
X024397Y011079D01*
X024152Y011202D02*
X023905Y010955D01*
X024029Y010955D02*
X024029Y011202D01*
X024296Y010634D02*
X024234Y010572D01*
X024234Y010325D01*
X024296Y010263D01*
X024419Y010263D01*
X024481Y010325D01*
X024481Y010572D01*
X024419Y010634D01*
X024296Y010634D01*
X024113Y010572D02*
X023866Y010325D01*
X023989Y010325D02*
X023989Y010572D01*
X023866Y010572D02*
X024113Y010325D01*
X024113Y010449D02*
X023866Y010449D01*
X024602Y010572D02*
X024602Y010325D01*
X024664Y010263D01*
X024788Y010263D01*
X024849Y010325D01*
X024849Y010572D02*
X024788Y010634D01*
X024664Y010634D01*
X024602Y010572D01*
X024971Y010634D02*
X025218Y010634D01*
X025339Y010634D02*
X025339Y010263D01*
X025462Y010387D01*
X025586Y010263D01*
X025586Y010634D01*
X025094Y010634D02*
X025094Y010263D01*
X010886Y018257D02*
X010824Y018196D01*
X010639Y018196D01*
X010518Y018196D02*
X010518Y018134D01*
X010456Y018072D01*
X010333Y018072D01*
X010271Y018134D01*
X010149Y018134D02*
X010088Y018072D01*
X009964Y018072D01*
X009903Y018134D01*
X009903Y018381D01*
X009964Y018442D01*
X010088Y018442D01*
X010149Y018381D01*
X010271Y018381D02*
X010271Y018319D01*
X010333Y018257D01*
X010456Y018257D01*
X010518Y018196D01*
X010639Y018072D02*
X010639Y018442D01*
X010824Y018442D01*
X010886Y018381D01*
X010886Y018257D01*
X010518Y018381D02*
X010456Y018442D01*
X010333Y018442D01*
X010271Y018381D01*
X009780Y018442D02*
X009657Y018442D01*
X009719Y018442D02*
X009719Y018072D01*
X009780Y018072D02*
X009657Y018072D01*
X003192Y018106D02*
X003192Y018352D01*
X003192Y018474D02*
X002822Y018474D01*
X002822Y018659D01*
X002884Y018721D01*
X003007Y018721D01*
X003069Y018659D01*
X003069Y018474D01*
X003069Y018597D02*
X003192Y018721D01*
X003192Y018106D02*
X002822Y018106D01*
X002884Y017984D02*
X002822Y017922D01*
X002822Y017799D01*
X002884Y017737D01*
X003131Y017737D01*
X003192Y017799D01*
X003192Y017922D01*
X003131Y017984D01*
X003192Y017616D02*
X002822Y017616D01*
X002946Y017492D01*
X002822Y017369D01*
X003192Y017369D01*
X003159Y011137D02*
X003159Y010890D01*
X002788Y010890D01*
X002480Y010714D02*
X002480Y010467D01*
X002418Y010345D02*
X002048Y010345D01*
X002048Y010098D02*
X002418Y010345D01*
X002418Y010098D02*
X002048Y010098D01*
X002172Y009977D02*
X002418Y009977D01*
X002233Y009977D02*
X002233Y009730D01*
X002172Y009730D02*
X002048Y009854D01*
X002172Y009977D01*
X002172Y009730D02*
X002418Y009730D01*
X002357Y009609D02*
X002418Y009547D01*
X002418Y009424D01*
X002357Y009362D01*
X002110Y009362D01*
X002048Y009424D01*
X002048Y009547D01*
X002110Y009609D01*
X002788Y009602D02*
X002788Y009479D01*
X002850Y009417D01*
X003097Y009417D01*
X003159Y009479D01*
X003159Y009602D01*
X003097Y009664D01*
X003159Y009785D02*
X002912Y009785D01*
X002788Y009909D01*
X002912Y010032D01*
X003159Y010032D01*
X003159Y010154D02*
X002788Y010154D01*
X003159Y010400D01*
X002788Y010400D01*
X002973Y010032D02*
X002973Y009785D01*
X002850Y009664D02*
X002788Y009602D01*
X001645Y010362D02*
X001584Y010300D01*
X001337Y010300D01*
X001275Y010362D01*
X001275Y010485D01*
X001337Y010547D01*
X001460Y010547D02*
X001460Y010424D01*
X001460Y010547D02*
X001584Y010547D01*
X001645Y010485D01*
X001645Y010362D01*
X001645Y010669D02*
X001275Y010669D01*
X001645Y010915D01*
X001275Y010915D01*
X001275Y011037D02*
X001275Y011222D01*
X001337Y011284D01*
X001584Y011284D01*
X001645Y011222D01*
X001645Y011037D01*
X001275Y011037D01*
X002048Y011082D02*
X002418Y011082D01*
X002233Y011082D02*
X002233Y010835D01*
X002418Y010835D02*
X002048Y010835D01*
X003220Y010769D02*
X003220Y010522D01*
D11*
X027315Y010386D02*
X027315Y011174D01*
X027315Y011961D02*
X027315Y012748D01*
X027315Y013536D02*
X027315Y014323D01*
X027315Y017709D02*
X027315Y018496D01*
X029678Y018103D02*
X030071Y018103D01*
X030071Y018107D01*
X029933Y018244D01*
X029933Y017961D01*
X030071Y018099D01*
X027315Y009599D02*
X027315Y008811D01*
X027315Y008024D02*
X027315Y007237D01*
X027315Y006449D02*
X027315Y005662D01*
X027315Y004874D02*
X027315Y004087D01*
X027315Y003300D02*
X027315Y002512D01*
X027315Y001843D02*
X027315Y001056D01*
D12*
X024617Y002190D02*
X024617Y002303D01*
X024560Y002360D01*
X024617Y002190D02*
X024560Y002133D01*
X024333Y002133D01*
X024276Y002190D01*
X024276Y002303D01*
X024333Y002360D01*
X024447Y002501D02*
X024447Y002728D01*
X024617Y002672D02*
X024276Y002672D01*
X024447Y002501D01*
X023969Y002197D02*
X023969Y001961D01*
X023496Y001961D02*
X023496Y002197D01*
X023418Y002197D02*
X023418Y001961D01*
X022945Y001961D02*
X022945Y002197D01*
X022828Y001559D02*
X022771Y001559D01*
X022714Y001502D01*
X022714Y001446D01*
X022714Y001502D02*
X022658Y001559D01*
X022601Y001559D01*
X022544Y001502D01*
X022544Y001389D01*
X022601Y001332D01*
X022601Y001191D02*
X022544Y001134D01*
X022544Y001021D01*
X022601Y000964D01*
X022828Y000964D01*
X022884Y001021D01*
X022884Y001134D01*
X022828Y001191D01*
X022828Y001332D02*
X022884Y001389D01*
X022884Y001502D01*
X022828Y001559D01*
X019973Y002213D02*
X019973Y002449D01*
X019500Y002449D02*
X019500Y002213D01*
X019382Y002231D02*
X019382Y002118D01*
X019325Y002061D01*
X019098Y002061D01*
X019041Y002118D01*
X019041Y002231D01*
X019098Y002288D01*
X019155Y002429D02*
X019041Y002543D01*
X019382Y002543D01*
X019382Y002656D02*
X019382Y002429D01*
X019325Y002288D02*
X019382Y002231D01*
X019325Y002798D02*
X019382Y002854D01*
X019382Y002968D01*
X019325Y003025D01*
X019098Y003025D01*
X019041Y002968D01*
X019041Y002854D01*
X019098Y002798D01*
X019155Y002798D01*
X019211Y002854D01*
X019211Y003025D01*
X018367Y003681D02*
X018130Y003681D01*
X018130Y004154D02*
X018367Y004154D01*
X018347Y004273D02*
X018574Y004273D01*
X018460Y004273D02*
X018460Y004613D01*
X018347Y004500D01*
X018205Y004556D02*
X018149Y004613D01*
X018035Y004613D01*
X017978Y004556D01*
X017978Y004329D01*
X018035Y004273D01*
X018149Y004273D01*
X018205Y004329D01*
X018715Y004329D02*
X018715Y004386D01*
X018772Y004443D01*
X018885Y004443D01*
X018942Y004386D01*
X018942Y004329D01*
X018885Y004273D01*
X018772Y004273D01*
X018715Y004329D01*
X018772Y004443D02*
X018715Y004500D01*
X018715Y004556D01*
X018772Y004613D01*
X018885Y004613D01*
X018942Y004556D01*
X018942Y004500D01*
X018885Y004443D01*
X017620Y005301D02*
X017620Y005358D01*
X017846Y005585D01*
X017846Y005642D01*
X017620Y005642D01*
X017528Y005867D02*
X017764Y005867D01*
X017365Y005642D02*
X017365Y005301D01*
X017478Y005301D02*
X017251Y005301D01*
X017110Y005358D02*
X017053Y005301D01*
X016940Y005301D01*
X016883Y005358D01*
X016883Y005585D01*
X016940Y005642D01*
X017053Y005642D01*
X017110Y005585D01*
X017251Y005528D02*
X017365Y005642D01*
X017528Y006339D02*
X017764Y006339D01*
X019140Y008699D02*
X019140Y008869D01*
X019196Y008926D01*
X019310Y008926D01*
X019367Y008869D01*
X019367Y008699D01*
X019480Y008699D02*
X019140Y008699D01*
X019367Y008812D02*
X019480Y008926D01*
X019599Y008851D02*
X019599Y009087D01*
X019480Y009067D02*
X019480Y009294D01*
X019480Y009181D02*
X019140Y009181D01*
X019253Y009067D01*
X019087Y009028D02*
X019087Y009264D01*
X019140Y009436D02*
X019310Y009436D01*
X019253Y009549D01*
X019253Y009606D01*
X019310Y009662D01*
X019423Y009662D01*
X019480Y009606D01*
X019480Y009492D01*
X019423Y009436D01*
X019140Y009436D02*
X019140Y009662D01*
X019156Y009796D02*
X018929Y009796D01*
X019043Y009796D02*
X019043Y010137D01*
X018929Y010023D01*
X018788Y009966D02*
X018731Y009910D01*
X018561Y009910D01*
X018675Y009910D02*
X018788Y009796D01*
X018788Y009966D02*
X018788Y010080D01*
X018731Y010137D01*
X018561Y010137D01*
X018561Y009796D01*
X018615Y009264D02*
X018615Y009028D01*
X019848Y009181D02*
X019962Y009067D01*
X020071Y009087D02*
X020071Y008851D01*
X020075Y008869D02*
X020075Y008699D01*
X020075Y008812D02*
X020189Y008926D01*
X020075Y008869D02*
X020019Y008926D01*
X019905Y008926D01*
X019848Y008869D01*
X019848Y008699D01*
X020189Y008699D01*
X020307Y008851D02*
X020307Y009087D01*
X020189Y009067D02*
X020189Y009294D01*
X020189Y009181D02*
X019848Y009181D01*
X020019Y009436D02*
X020019Y009662D01*
X020189Y009606D02*
X019848Y009606D01*
X020019Y009436D01*
X020780Y009087D02*
X020780Y008851D01*
X018955Y010452D02*
X018615Y010452D01*
X018615Y010622D01*
X018672Y010679D01*
X018785Y010679D01*
X018842Y010622D01*
X018842Y010452D01*
X018842Y010565D02*
X018955Y010679D01*
X018899Y010820D02*
X018842Y010820D01*
X018785Y010877D01*
X018785Y010990D01*
X018842Y011047D01*
X018899Y011047D01*
X018955Y010990D01*
X018955Y010877D01*
X018899Y010820D01*
X018785Y010877D02*
X018728Y010820D01*
X018672Y010820D01*
X018615Y010877D01*
X018615Y010990D01*
X018672Y011047D01*
X018728Y011047D01*
X018785Y010990D01*
X018260Y011009D02*
X018203Y011066D01*
X018146Y011066D01*
X018089Y011009D01*
X018089Y010839D01*
X018203Y010839D01*
X018260Y010896D01*
X018260Y011009D01*
X018089Y010839D02*
X017976Y010952D01*
X017919Y011066D01*
X017590Y011009D02*
X017590Y010896D01*
X017534Y010839D01*
X017590Y010697D02*
X017477Y010584D01*
X017477Y010641D02*
X017477Y010471D01*
X017590Y010471D02*
X017250Y010471D01*
X017250Y010641D01*
X017307Y010697D01*
X017420Y010697D01*
X017477Y010641D01*
X017307Y010839D02*
X017250Y010896D01*
X017250Y011009D01*
X017307Y011066D01*
X017363Y011066D01*
X017420Y011009D01*
X017477Y011066D01*
X017534Y011066D01*
X017590Y011009D01*
X017420Y011009D02*
X017420Y010952D01*
X017919Y010641D02*
X017976Y010697D01*
X017919Y010641D02*
X017919Y010527D01*
X017976Y010471D01*
X018203Y010471D01*
X018260Y010527D01*
X018260Y010641D01*
X018203Y010697D01*
X018339Y011646D02*
X018339Y011882D01*
X018536Y011882D02*
X018536Y011646D01*
X019008Y011646D02*
X019008Y011882D01*
X019343Y011902D02*
X019343Y013122D01*
X019833Y013122D01*
X020073Y013122D01*
X020563Y013122D01*
X020563Y011902D01*
X019343Y011902D01*
X017867Y011882D02*
X017867Y011646D01*
X017670Y011646D02*
X017670Y011882D01*
X017197Y011882D02*
X017197Y011646D01*
X016804Y012197D02*
X016804Y012433D01*
X016331Y012433D02*
X016331Y012197D01*
X016173Y012272D02*
X016060Y012159D01*
X016060Y012215D02*
X016060Y012045D01*
X016173Y012045D02*
X015833Y012045D01*
X015833Y012215D01*
X015889Y012272D01*
X016003Y012272D01*
X016060Y012215D01*
X016173Y012414D02*
X015946Y012641D01*
X015889Y012641D01*
X015833Y012584D01*
X015833Y012470D01*
X015889Y012414D01*
X016173Y012414D02*
X016173Y012641D01*
X017512Y013615D02*
X017512Y013851D01*
X017985Y013851D02*
X017985Y013615D01*
X018050Y013597D02*
X018050Y013370D01*
X018107Y013313D01*
X018221Y013313D01*
X018277Y013370D01*
X018419Y013370D02*
X018419Y013427D01*
X018475Y013483D01*
X018589Y013483D01*
X018646Y013427D01*
X018646Y013370D01*
X018589Y013313D01*
X018475Y013313D01*
X018419Y013370D01*
X018475Y013483D02*
X018419Y013540D01*
X018419Y013597D01*
X018475Y013654D01*
X018589Y013654D01*
X018646Y013597D01*
X018646Y013540D01*
X018589Y013483D01*
X018277Y013597D02*
X018221Y013654D01*
X018107Y013654D01*
X018050Y013597D01*
X018943Y014425D02*
X019000Y014368D01*
X019226Y014368D01*
X019283Y014425D01*
X019283Y014538D01*
X019226Y014595D01*
X019226Y014737D02*
X019283Y014793D01*
X019283Y014907D01*
X019226Y014963D01*
X019170Y014963D01*
X019113Y014907D01*
X019113Y014850D01*
X019113Y014907D02*
X019056Y014963D01*
X019000Y014963D01*
X018943Y014907D01*
X018943Y014793D01*
X019000Y014737D01*
X019000Y014595D02*
X018943Y014538D01*
X018943Y014425D01*
X018418Y014638D02*
X018181Y014638D01*
X018181Y015111D02*
X018418Y015111D01*
X018943Y015218D02*
X019283Y015218D01*
X019283Y015105D02*
X019283Y015332D01*
X019056Y015105D02*
X018943Y015218D01*
X019264Y015682D02*
X018044Y015682D01*
X018044Y016902D01*
X019264Y016902D01*
X019264Y015682D01*
X019674Y015521D02*
X019844Y015521D01*
X019901Y015464D01*
X019901Y015237D01*
X019844Y015180D01*
X019674Y015180D01*
X019674Y015521D01*
X020042Y015407D02*
X020155Y015521D01*
X020155Y015180D01*
X020042Y015180D02*
X020269Y015180D01*
X019264Y016702D02*
X019064Y016902D01*
X019024Y017162D02*
X019033Y017163D01*
X019042Y017168D01*
X019048Y017174D01*
X019053Y017183D01*
X019054Y017192D01*
X019053Y017201D01*
X019048Y017210D01*
X019042Y017216D01*
X019033Y017221D01*
X019024Y017222D01*
X019015Y017221D01*
X019006Y017216D01*
X019000Y017210D01*
X018995Y017201D01*
X018994Y017192D01*
X018995Y017183D01*
X019000Y017174D01*
X019006Y017168D01*
X019015Y017163D01*
X019024Y017162D01*
X018338Y017220D02*
X018338Y017334D01*
X018282Y017390D01*
X018282Y017532D02*
X018338Y017588D01*
X018338Y017702D01*
X018282Y017759D01*
X018225Y017759D01*
X018168Y017702D01*
X018168Y017645D01*
X018168Y017702D02*
X018111Y017759D01*
X018055Y017759D01*
X017998Y017702D01*
X017998Y017588D01*
X018055Y017532D01*
X018055Y017390D02*
X017998Y017334D01*
X017998Y017220D01*
X018055Y017163D01*
X018282Y017163D01*
X018338Y017220D01*
X017581Y016872D02*
X016341Y016872D01*
X016341Y015632D01*
X017581Y015632D01*
X017581Y016132D01*
X017581Y016372D01*
X017581Y016872D01*
X017421Y016872D02*
X017271Y016872D01*
X017161Y016872D02*
X017021Y016872D01*
X016901Y016872D02*
X016761Y016872D01*
X016651Y016872D02*
X016501Y016872D01*
X016528Y017723D02*
X016414Y017723D01*
X016358Y017779D01*
X016216Y017779D02*
X016159Y017723D01*
X016046Y017723D01*
X015989Y017779D01*
X015989Y018006D01*
X016046Y018063D01*
X016159Y018063D01*
X016216Y018006D01*
X016358Y018006D02*
X016414Y018063D01*
X016528Y018063D01*
X016584Y018006D01*
X016584Y017950D01*
X016528Y017893D01*
X016584Y017836D01*
X016584Y017779D01*
X016528Y017723D01*
X016528Y017893D02*
X016471Y017893D01*
X016726Y018006D02*
X016783Y018063D01*
X016896Y018063D01*
X016953Y018006D01*
X016953Y017950D01*
X016726Y017723D01*
X016953Y017723D01*
X017000Y018260D02*
X016764Y018260D01*
X016764Y018733D02*
X017000Y018733D01*
X017998Y018070D02*
X018055Y018127D01*
X018282Y017900D01*
X018338Y017957D01*
X018338Y018070D01*
X018282Y018127D01*
X018055Y018127D01*
X017998Y018070D02*
X017998Y017957D01*
X018055Y017900D01*
X018282Y017900D01*
X018536Y018260D02*
X018772Y018260D01*
X018772Y018733D02*
X018536Y018733D01*
X017421Y015632D02*
X017271Y015632D01*
X017161Y015632D02*
X017021Y015632D01*
X016901Y015632D02*
X016761Y015632D01*
X016651Y015632D02*
X016501Y015632D01*
X013705Y014095D02*
X013705Y013859D01*
X013233Y013859D02*
X013233Y014095D01*
X013030Y014164D02*
X013030Y014278D01*
X012973Y014335D01*
X012746Y014335D01*
X012690Y014278D01*
X012690Y014164D01*
X012746Y014108D01*
X012803Y014108D01*
X012860Y014164D01*
X012860Y014335D01*
X013030Y014164D02*
X012973Y014108D01*
X013030Y013966D02*
X013030Y013739D01*
X013030Y013853D02*
X012690Y013853D01*
X012803Y013739D01*
X012746Y013598D02*
X012860Y013598D01*
X012917Y013541D01*
X012917Y013371D01*
X013030Y013371D02*
X012690Y013371D01*
X012690Y013541D01*
X012746Y013598D01*
X012917Y013485D02*
X013030Y013598D01*
X013611Y013311D02*
X013847Y013311D01*
X013847Y012839D02*
X013611Y012839D01*
X013664Y012650D02*
X013664Y012309D01*
X013777Y012309D02*
X013550Y012309D01*
X013409Y012309D02*
X013296Y012423D01*
X013352Y012423D02*
X013182Y012423D01*
X013182Y012309D02*
X013182Y012650D01*
X013352Y012650D01*
X013409Y012593D01*
X013409Y012479D01*
X013352Y012423D01*
X013550Y012536D02*
X013664Y012650D01*
X013919Y012593D02*
X013975Y012650D01*
X014089Y012650D01*
X014146Y012593D01*
X014146Y012536D01*
X014089Y012479D01*
X013975Y012479D01*
X013919Y012536D01*
X013919Y012593D01*
X013975Y012479D02*
X013919Y012423D01*
X013919Y012366D01*
X013975Y012309D01*
X014089Y012309D01*
X014146Y012366D01*
X014146Y012423D01*
X014089Y012479D01*
X011811Y013197D02*
X011811Y013310D01*
X011754Y013367D01*
X011811Y013508D02*
X011584Y013735D01*
X011527Y013735D01*
X011470Y013678D01*
X011470Y013565D01*
X011527Y013508D01*
X011527Y013367D02*
X011470Y013310D01*
X011470Y013197D01*
X011527Y013140D01*
X011754Y013140D01*
X011811Y013197D01*
X011811Y013508D02*
X011811Y013735D01*
X011754Y013876D02*
X011811Y013933D01*
X011811Y014047D01*
X011754Y014103D01*
X011697Y014103D01*
X011641Y014047D01*
X011641Y013876D01*
X011754Y013876D01*
X011641Y013876D02*
X011527Y013990D01*
X011470Y014103D01*
X011272Y013130D02*
X011272Y012894D01*
X010800Y012894D02*
X010800Y013130D01*
X009575Y013130D02*
X009575Y012894D01*
X009103Y012894D02*
X009103Y013130D01*
X008933Y013093D02*
X008876Y013150D01*
X008933Y013093D02*
X008933Y012980D01*
X008876Y012923D01*
X008649Y012923D01*
X008593Y012980D01*
X008593Y013093D01*
X008649Y013150D01*
X008649Y013292D02*
X008593Y013348D01*
X008593Y013462D01*
X008649Y013518D01*
X008706Y013518D01*
X008933Y013292D01*
X008933Y013518D01*
X008933Y013660D02*
X008933Y013887D01*
X008918Y013944D02*
X008918Y014114D01*
X008974Y014171D01*
X009088Y014171D01*
X009144Y014114D01*
X009144Y013944D01*
X009144Y014058D02*
X009258Y014171D01*
X009258Y014313D02*
X008918Y014313D01*
X009258Y014540D01*
X008918Y014540D01*
X009031Y014681D02*
X008918Y014794D01*
X009258Y014794D01*
X009258Y014681D02*
X009258Y014908D01*
X008422Y015298D02*
X008422Y015355D01*
X008366Y015411D01*
X008309Y015411D01*
X008366Y015411D02*
X008422Y015468D01*
X008422Y015525D01*
X008366Y015582D01*
X008252Y015582D01*
X008195Y015525D01*
X008054Y015525D02*
X007997Y015582D01*
X007884Y015582D01*
X007827Y015525D01*
X007686Y015525D02*
X007629Y015582D01*
X007515Y015582D01*
X007459Y015525D01*
X007459Y015298D01*
X007515Y015241D01*
X007629Y015241D01*
X007686Y015298D01*
X007827Y015241D02*
X008054Y015468D01*
X008054Y015525D01*
X008195Y015298D02*
X008252Y015241D01*
X008366Y015241D01*
X008422Y015298D01*
X008054Y015241D02*
X007827Y015241D01*
X006874Y015205D02*
X006638Y015205D01*
X006638Y015678D02*
X006874Y015678D01*
X006539Y015968D02*
X006539Y016082D01*
X006482Y016138D01*
X006539Y016280D02*
X006312Y016507D01*
X006256Y016507D01*
X006199Y016450D01*
X006199Y016337D01*
X006256Y016280D01*
X006256Y016138D02*
X006199Y016082D01*
X006199Y015968D01*
X006256Y015911D01*
X006482Y015911D01*
X006539Y015968D01*
X006539Y016280D02*
X006539Y016507D01*
X006539Y016648D02*
X006312Y016875D01*
X006256Y016875D01*
X006199Y016818D01*
X006199Y016705D01*
X006256Y016648D01*
X006539Y016648D02*
X006539Y016875D01*
X006589Y017030D02*
X006646Y017087D01*
X006646Y017143D01*
X006589Y017200D01*
X006419Y017200D01*
X006419Y017087D01*
X006475Y017030D01*
X006589Y017030D01*
X006419Y017200D02*
X006532Y017313D01*
X006646Y017370D01*
X006277Y017313D02*
X006277Y017200D01*
X006221Y017143D01*
X006050Y017143D01*
X006050Y017030D02*
X006050Y017370D01*
X006221Y017370D01*
X006277Y017313D01*
X006164Y017143D02*
X006277Y017030D01*
X005544Y017000D02*
X005307Y017000D01*
X005307Y017473D02*
X005544Y017473D01*
X004244Y017473D02*
X004008Y017473D01*
X004008Y017000D02*
X004244Y017000D01*
X004244Y016496D02*
X004008Y016496D01*
X004008Y016024D02*
X004244Y016024D01*
X004874Y015622D02*
X005111Y015622D01*
X005335Y016032D02*
X005571Y016032D01*
X005571Y016504D02*
X005335Y016504D01*
X003455Y016428D02*
X003455Y016371D01*
X003229Y016144D01*
X003229Y016088D01*
X003087Y016144D02*
X003030Y016088D01*
X002917Y016088D01*
X002860Y016144D01*
X002860Y016371D01*
X002917Y016428D01*
X003030Y016428D01*
X003087Y016371D01*
X003229Y016428D02*
X003455Y016428D01*
X003290Y016778D02*
X003176Y016778D01*
X003120Y016835D01*
X003120Y016948D02*
X003233Y017005D01*
X003290Y017005D01*
X003346Y016948D01*
X003346Y016835D01*
X003290Y016778D01*
X003120Y016948D02*
X003120Y017118D01*
X003346Y017118D01*
X002978Y017061D02*
X002978Y016948D01*
X002921Y016891D01*
X002751Y016891D01*
X002751Y016778D02*
X002751Y017118D01*
X002921Y017118D01*
X002978Y017061D01*
X002865Y016891D02*
X002978Y016778D01*
X004874Y015150D02*
X005111Y015150D01*
X004900Y014945D02*
X004900Y014718D01*
X004673Y014945D01*
X004617Y014945D01*
X004560Y014888D01*
X004560Y014775D01*
X004617Y014718D01*
X004560Y014463D02*
X004900Y014463D01*
X004900Y014350D02*
X004900Y014577D01*
X004673Y014350D02*
X004560Y014463D01*
X004617Y014208D02*
X004730Y014208D01*
X004787Y014152D01*
X004787Y013981D01*
X004900Y013981D02*
X004560Y013981D01*
X004560Y014152D01*
X004617Y014208D01*
X004787Y014095D02*
X004900Y014208D01*
X006220Y012733D02*
X006820Y012733D01*
X006837Y012731D01*
X006854Y012727D01*
X006870Y012720D01*
X006884Y012710D01*
X006897Y012697D01*
X006907Y012683D01*
X006914Y012667D01*
X006918Y012650D01*
X006920Y012633D01*
X006920Y011533D01*
X006918Y011516D01*
X006914Y011499D01*
X006907Y011483D01*
X006897Y011469D01*
X006884Y011456D01*
X006870Y011446D01*
X006854Y011439D01*
X006837Y011435D01*
X006820Y011433D01*
X006220Y011433D01*
X006203Y011435D01*
X006186Y011439D01*
X006170Y011446D01*
X006156Y011456D01*
X006143Y011469D01*
X006133Y011483D01*
X006126Y011499D01*
X006122Y011516D01*
X006120Y011533D01*
X006120Y012633D01*
X006122Y012650D01*
X006126Y012667D01*
X006133Y012683D01*
X006143Y012697D01*
X006156Y012710D01*
X006170Y012720D01*
X006186Y012727D01*
X006203Y012731D01*
X006220Y012733D01*
X005886Y012217D02*
X005886Y011981D01*
X005414Y011981D02*
X005414Y012217D01*
X005247Y012285D02*
X005190Y012285D01*
X004963Y012512D01*
X004906Y012512D01*
X004906Y012285D01*
X004906Y012030D02*
X005247Y012030D01*
X005247Y011917D02*
X005247Y012143D01*
X005020Y011917D02*
X004906Y012030D01*
X004963Y011775D02*
X005076Y011775D01*
X005133Y011718D01*
X005133Y011548D01*
X005247Y011548D02*
X004906Y011548D01*
X004906Y011718D01*
X004963Y011775D01*
X005133Y011662D02*
X005247Y011775D01*
X005111Y011292D02*
X004874Y011292D01*
X004874Y010819D02*
X005111Y010819D01*
X005208Y010661D02*
X005151Y010605D01*
X005208Y010661D02*
X005321Y010661D01*
X005378Y010605D01*
X005378Y010548D01*
X005321Y010491D01*
X005378Y010435D01*
X005378Y010378D01*
X005321Y010321D01*
X005208Y010321D01*
X005151Y010378D01*
X005010Y010321D02*
X004783Y010321D01*
X004821Y010244D02*
X004571Y009994D01*
X004321Y010244D01*
X003821Y010244D01*
X003571Y009994D01*
X003571Y008494D01*
X003821Y008244D01*
X004321Y008244D01*
X004571Y008494D01*
X004571Y009994D01*
X004641Y010321D02*
X004528Y010435D01*
X004585Y010435D02*
X004414Y010435D01*
X004414Y010321D02*
X004414Y010661D01*
X004585Y010661D01*
X004641Y010605D01*
X004641Y010491D01*
X004585Y010435D01*
X004783Y010548D02*
X004896Y010661D01*
X004896Y010321D01*
X004821Y010244D02*
X005321Y010244D01*
X005571Y009994D01*
X005571Y008494D01*
X005321Y008244D01*
X004821Y008244D01*
X004571Y008494D01*
X005571Y008494D02*
X005821Y008244D01*
X006321Y008244D01*
X006571Y008494D01*
X006571Y009994D01*
X006321Y010244D01*
X005821Y010244D01*
X005571Y009994D01*
X005321Y010491D02*
X005264Y010491D01*
X008593Y013773D02*
X008706Y013660D01*
X008593Y013773D02*
X008933Y013773D01*
X008918Y013944D02*
X009258Y013944D01*
X013411Y010674D02*
X013411Y010448D01*
X013468Y010391D01*
X013582Y010391D01*
X013638Y010448D01*
X013780Y010391D02*
X014007Y010618D01*
X014007Y010674D01*
X013950Y010731D01*
X013837Y010731D01*
X013780Y010674D01*
X013638Y010674D02*
X013582Y010731D01*
X013468Y010731D01*
X013411Y010674D01*
X013780Y010391D02*
X014007Y010391D01*
X014148Y010448D02*
X014205Y010391D01*
X014318Y010391D01*
X014375Y010448D01*
X014375Y010561D01*
X014318Y010618D01*
X014262Y010618D01*
X014148Y010561D01*
X014148Y010731D01*
X014375Y010731D01*
X013469Y010166D02*
X013233Y010166D01*
X013233Y009693D02*
X013469Y009693D01*
X019033Y012902D02*
X019034Y012911D01*
X019039Y012920D01*
X019045Y012926D01*
X019054Y012931D01*
X019063Y012932D01*
X019072Y012931D01*
X019081Y012926D01*
X019087Y012920D01*
X019092Y012911D01*
X019093Y012902D01*
X019092Y012893D01*
X019087Y012884D01*
X019081Y012878D01*
X019072Y012873D01*
X019063Y012872D01*
X019054Y012873D01*
X019045Y012878D01*
X019039Y012884D01*
X019034Y012893D01*
X019033Y012902D01*
X021573Y013042D02*
X021630Y012985D01*
X021743Y012985D01*
X021800Y013042D01*
X021941Y012985D02*
X022168Y012985D01*
X022055Y012985D02*
X022055Y013326D01*
X021941Y013212D01*
X021800Y013269D02*
X021743Y013326D01*
X021630Y013326D01*
X021573Y013269D01*
X021573Y013042D01*
X021961Y012867D02*
X022197Y012867D01*
X022366Y012985D02*
X022310Y013042D01*
X022366Y012985D02*
X022480Y012985D01*
X022536Y013042D01*
X022536Y013155D01*
X022480Y013212D01*
X022423Y013212D01*
X022310Y013155D01*
X022310Y013326D01*
X022536Y013326D01*
X023576Y012707D02*
X023746Y012537D01*
X023746Y012764D01*
X023916Y012707D02*
X023576Y012707D01*
X023457Y012457D02*
X023457Y012221D01*
X023576Y012282D02*
X023916Y012282D01*
X023916Y012169D02*
X023916Y012395D01*
X023689Y012169D02*
X023576Y012282D01*
X023632Y012027D02*
X023576Y011970D01*
X023576Y011857D01*
X023632Y011800D01*
X023859Y011800D01*
X023916Y011857D01*
X023916Y011970D01*
X023859Y012027D01*
X024481Y012079D02*
X024717Y012079D01*
X024717Y012552D02*
X024481Y012552D01*
X024461Y012670D02*
X024688Y012670D01*
X024574Y012670D02*
X024574Y013011D01*
X024461Y012897D01*
X024319Y012840D02*
X024263Y012784D01*
X024093Y012784D01*
X024206Y012784D02*
X024319Y012670D01*
X024319Y012840D02*
X024319Y012954D01*
X024263Y013011D01*
X024093Y013011D01*
X024093Y012670D01*
X024829Y012670D02*
X025056Y012670D01*
X024943Y012670D02*
X024943Y013011D01*
X024829Y012897D01*
X025510Y012784D02*
X025680Y012784D01*
X025737Y012840D01*
X025737Y012954D01*
X025680Y013011D01*
X025510Y013011D01*
X025510Y012670D01*
X025623Y012784D02*
X025737Y012670D01*
X025878Y012670D02*
X026105Y012670D01*
X025992Y012670D02*
X025992Y013011D01*
X025878Y012897D01*
X026247Y012954D02*
X026247Y012727D01*
X026473Y012954D01*
X026473Y012727D01*
X026417Y012670D01*
X026303Y012670D01*
X026247Y012727D01*
X026247Y012954D02*
X026303Y013011D01*
X026417Y013011D01*
X026473Y012954D01*
X026095Y012552D02*
X025859Y012552D01*
X025859Y012079D02*
X026095Y012079D01*
X022985Y012221D02*
X022985Y012457D01*
X022197Y012394D02*
X021961Y012394D01*
X021961Y012276D02*
X022197Y012276D01*
X022197Y011804D02*
X021961Y011804D01*
X021843Y011685D02*
X021899Y011628D01*
X021899Y011515D01*
X021843Y011458D01*
X021673Y011458D01*
X021786Y011458D02*
X021899Y011345D01*
X022041Y011401D02*
X022098Y011345D01*
X022211Y011345D01*
X022268Y011401D01*
X022268Y011628D01*
X022211Y011685D01*
X022098Y011685D01*
X022041Y011628D01*
X022041Y011572D01*
X022098Y011515D01*
X022268Y011515D01*
X021843Y011685D02*
X021673Y011685D01*
X021673Y011345D01*
X026849Y008034D02*
X026849Y007808D01*
X026905Y007751D01*
X027019Y007751D01*
X027075Y007808D01*
X027217Y007808D02*
X027274Y007751D01*
X027387Y007751D01*
X027444Y007808D01*
X027444Y008034D01*
X027387Y008091D01*
X027274Y008091D01*
X027217Y008034D01*
X027217Y007978D01*
X027274Y007921D01*
X027444Y007921D01*
X027075Y008034D02*
X027019Y008091D01*
X026905Y008091D01*
X026849Y008034D01*
X026685Y007178D02*
X026685Y006941D01*
X027158Y006941D02*
X027158Y007178D01*
X027192Y006445D02*
X027192Y006105D01*
X027079Y006105D02*
X027306Y006105D01*
X027447Y006162D02*
X027674Y006389D01*
X027674Y006162D01*
X027617Y006105D01*
X027504Y006105D01*
X027447Y006162D01*
X027447Y006389D01*
X027504Y006445D01*
X027617Y006445D01*
X027674Y006389D01*
X027192Y006445D02*
X027079Y006332D01*
X026938Y006389D02*
X026881Y006445D01*
X026767Y006445D01*
X026711Y006389D01*
X026711Y006162D01*
X026767Y006105D01*
X026881Y006105D01*
X026938Y006162D01*
X027158Y005524D02*
X027158Y005288D01*
X026685Y005288D02*
X026685Y005524D01*
X026716Y004851D02*
X026660Y004794D01*
X026660Y004567D01*
X026716Y004511D01*
X026830Y004511D01*
X026886Y004567D01*
X027028Y004511D02*
X027255Y004511D01*
X027141Y004511D02*
X027141Y004851D01*
X027028Y004738D01*
X026886Y004794D02*
X026830Y004851D01*
X026716Y004851D01*
X027396Y004738D02*
X027510Y004851D01*
X027510Y004511D01*
X027623Y004511D02*
X027396Y004511D01*
X027158Y003922D02*
X027158Y003685D01*
X026685Y003685D02*
X026685Y003922D01*
X031021Y002876D02*
X031021Y002650D01*
X031077Y002593D01*
X031191Y002593D01*
X031248Y002650D01*
X031389Y002593D02*
X031616Y002593D01*
X031502Y002593D02*
X031502Y002933D01*
X031389Y002820D01*
X031248Y002876D02*
X031191Y002933D01*
X031077Y002933D01*
X031021Y002876D01*
X031757Y002876D02*
X031814Y002933D01*
X031928Y002933D01*
X031984Y002876D01*
X031984Y002820D01*
X031757Y002593D01*
X031984Y002593D01*
X032241Y003260D02*
X032477Y003260D01*
X032477Y003733D02*
X032241Y003733D01*
X031211Y013278D02*
X031098Y013278D01*
X031041Y013335D01*
X031041Y013391D01*
X031098Y013448D01*
X031211Y013448D01*
X031268Y013391D01*
X031268Y013335D01*
X031211Y013278D01*
X031211Y013448D02*
X031268Y013505D01*
X031268Y013561D01*
X031211Y013618D01*
X031098Y013618D01*
X031041Y013561D01*
X031041Y013505D01*
X031098Y013448D01*
X030899Y013505D02*
X030899Y013561D01*
X030843Y013618D01*
X030729Y013618D01*
X030673Y013561D01*
X030531Y013561D02*
X030474Y013618D01*
X030361Y013618D01*
X030304Y013561D01*
X030304Y013335D01*
X030361Y013278D01*
X030474Y013278D01*
X030531Y013335D01*
X030673Y013278D02*
X030899Y013505D01*
X030899Y013278D02*
X030673Y013278D01*
X029863Y013331D02*
X029626Y013331D01*
X029626Y013804D02*
X029863Y013804D01*
X029859Y014040D02*
X029622Y014040D01*
X029622Y014512D02*
X029859Y014512D01*
X030620Y014402D02*
X030790Y014402D01*
X030847Y014459D01*
X030847Y014572D01*
X030790Y014629D01*
X030620Y014629D01*
X030620Y014288D01*
X030734Y014402D02*
X030847Y014288D01*
X030988Y014288D02*
X031215Y014515D01*
X031215Y014572D01*
X031159Y014629D01*
X031045Y014629D01*
X030988Y014572D01*
X030988Y014288D02*
X031215Y014288D01*
X031357Y014345D02*
X031584Y014572D01*
X031584Y014345D01*
X031527Y014288D01*
X031414Y014288D01*
X031357Y014345D01*
X031357Y014572D01*
X031414Y014629D01*
X031527Y014629D01*
X031584Y014572D01*
X036441Y014953D02*
X036678Y014953D01*
X036691Y014677D02*
X036748Y014677D01*
X036805Y014620D01*
X036861Y014677D01*
X036918Y014677D01*
X036975Y014620D01*
X036975Y014507D01*
X036918Y014450D01*
X036975Y014309D02*
X036975Y014082D01*
X036975Y014195D02*
X036635Y014195D01*
X036748Y014082D01*
X036691Y013940D02*
X036635Y013884D01*
X036635Y013770D01*
X036691Y013714D01*
X036918Y013714D01*
X036975Y013770D01*
X036975Y013884D01*
X036918Y013940D01*
X036691Y014450D02*
X036635Y014507D01*
X036635Y014620D01*
X036691Y014677D01*
X036805Y014620D02*
X036805Y014564D01*
X036678Y015426D02*
X036441Y015426D01*
X010130Y005823D02*
X010130Y005587D01*
X009658Y005587D02*
X009658Y005823D01*
X009893Y005095D02*
X009893Y004869D01*
X009722Y005039D01*
X010063Y005039D01*
X010063Y004727D02*
X010063Y004500D01*
X009836Y004727D01*
X009779Y004727D01*
X009722Y004670D01*
X009722Y004557D01*
X009779Y004500D01*
X009779Y004359D02*
X009722Y004302D01*
X009722Y004189D01*
X009779Y004132D01*
X010006Y004132D01*
X010063Y004189D01*
X010063Y004302D01*
X010006Y004359D01*
D13*
X006431Y007534D02*
X006151Y007534D01*
X006291Y007534D02*
X006291Y007955D01*
X006151Y007815D01*
X005971Y007885D02*
X005971Y007745D01*
X005901Y007675D01*
X005690Y007675D01*
X005690Y007534D02*
X005690Y007955D01*
X005901Y007955D01*
X005971Y007885D01*
X005510Y007955D02*
X005370Y007955D01*
X005440Y007955D02*
X005440Y007605D01*
X005370Y007534D01*
X005300Y007534D01*
X005230Y007605D01*
X006651Y009534D02*
X006931Y009534D01*
X006791Y009534D02*
X006791Y009955D01*
X006651Y009815D01*
X016213Y013221D02*
X016213Y014481D01*
X017237Y014481D02*
X017237Y013221D01*
X020071Y013457D02*
X020071Y013595D01*
X020071Y013457D02*
X021882Y013457D01*
X021882Y013595D01*
X021174Y013831D02*
X021174Y014619D01*
X021882Y014815D02*
X021882Y014953D01*
X020071Y014953D01*
X020071Y014815D01*
X027430Y017037D02*
X027433Y017142D01*
X027440Y017248D01*
X027453Y017352D01*
X027471Y017456D01*
X027494Y017559D01*
X027523Y017661D01*
X027556Y017761D01*
X027594Y017860D01*
X027636Y017956D01*
X027684Y018051D01*
X027736Y018142D01*
X027792Y018231D01*
X027853Y018318D01*
X027918Y018401D01*
X027987Y018481D01*
X028060Y018557D01*
X028136Y018630D01*
X028216Y018699D01*
X028299Y018764D01*
X028386Y018825D01*
X028475Y018881D01*
X028566Y018933D01*
X028661Y018981D01*
X028757Y019023D01*
X028856Y019061D01*
X028956Y019094D01*
X029058Y019123D01*
X029161Y019146D01*
X029265Y019164D01*
X029369Y019177D01*
X029475Y019184D01*
X029580Y019187D01*
X029685Y019184D01*
X029791Y019177D01*
X029895Y019164D01*
X029999Y019146D01*
X030102Y019123D01*
X030204Y019094D01*
X030304Y019061D01*
X030403Y019023D01*
X030499Y018981D01*
X030594Y018933D01*
X030685Y018881D01*
X030774Y018825D01*
X030861Y018764D01*
X030944Y018699D01*
X031024Y018630D01*
X031100Y018557D01*
X031173Y018481D01*
X031242Y018401D01*
X031307Y018318D01*
X031368Y018231D01*
X031424Y018142D01*
X031476Y018051D01*
X031524Y017956D01*
X031566Y017860D01*
X031604Y017761D01*
X031637Y017661D01*
X031666Y017559D01*
X031689Y017456D01*
X031707Y017352D01*
X031720Y017248D01*
X031727Y017142D01*
X031730Y017037D01*
X031727Y016932D01*
X031720Y016826D01*
X031707Y016722D01*
X031689Y016618D01*
X031666Y016515D01*
X031637Y016413D01*
X031604Y016313D01*
X031566Y016214D01*
X031524Y016118D01*
X031476Y016023D01*
X031424Y015932D01*
X031368Y015843D01*
X031307Y015756D01*
X031242Y015673D01*
X031173Y015593D01*
X031100Y015517D01*
X031024Y015444D01*
X030944Y015375D01*
X030861Y015310D01*
X030774Y015249D01*
X030685Y015193D01*
X030594Y015141D01*
X030499Y015093D01*
X030403Y015051D01*
X030304Y015013D01*
X030204Y014980D01*
X030102Y014951D01*
X029999Y014928D01*
X029895Y014910D01*
X029791Y014897D01*
X029685Y014890D01*
X029580Y014887D01*
X029475Y014890D01*
X029369Y014897D01*
X029265Y014910D01*
X029161Y014928D01*
X029058Y014951D01*
X028956Y014980D01*
X028856Y015013D01*
X028757Y015051D01*
X028661Y015093D01*
X028566Y015141D01*
X028475Y015193D01*
X028386Y015249D01*
X028299Y015310D01*
X028216Y015375D01*
X028136Y015444D01*
X028060Y015517D01*
X027987Y015593D01*
X027918Y015673D01*
X027853Y015756D01*
X027792Y015843D01*
X027736Y015932D01*
X027684Y016023D01*
X027636Y016118D01*
X027594Y016214D01*
X027556Y016313D01*
X027523Y016413D01*
X027494Y016515D01*
X027471Y016618D01*
X027453Y016722D01*
X027440Y016826D01*
X027433Y016932D01*
X027430Y017037D01*
X030080Y017787D02*
X030080Y018287D01*
X022925Y007807D02*
X020603Y007807D01*
X020603Y002966D01*
X022925Y002966D01*
X022925Y007807D01*
X021882Y007807D02*
X021880Y007787D01*
X021875Y007767D01*
X021866Y007748D01*
X021854Y007731D01*
X021840Y007717D01*
X021823Y007705D01*
X021804Y007696D01*
X021784Y007691D01*
X021764Y007689D01*
X021744Y007691D01*
X021724Y007696D01*
X021705Y007705D01*
X021688Y007717D01*
X021674Y007731D01*
X021662Y007748D01*
X021653Y007767D01*
X021648Y007787D01*
X021646Y007807D01*
X009315Y018010D02*
X009065Y017760D01*
X008565Y017760D01*
X008315Y018010D01*
X008315Y018510D01*
X008565Y018760D01*
X009065Y018760D01*
X009315Y018510D01*
X009315Y018010D01*
X008315Y018010D02*
X008065Y017760D01*
X007565Y017760D01*
X007315Y018010D01*
X007315Y018510D01*
X007565Y018760D01*
X008065Y018760D01*
X008315Y018510D01*
X007315Y018510D02*
X007065Y018760D01*
X006565Y018760D01*
X006315Y018510D01*
X006315Y018010D01*
X006065Y017760D01*
X005565Y017760D01*
X005315Y018010D01*
X005315Y018510D01*
X005565Y018760D01*
X006065Y018760D01*
X006315Y018510D01*
X006315Y018010D02*
X006565Y017760D01*
X007065Y017760D01*
X007315Y018010D01*
X005315Y018010D02*
X005065Y017760D01*
X004565Y017760D01*
X004315Y018010D01*
X004315Y017760D01*
X003315Y017760D01*
X003315Y018760D01*
X004315Y018760D01*
X004315Y018510D01*
X004315Y018010D01*
X004315Y018510D02*
X004565Y018760D01*
X005065Y018760D01*
X005315Y018510D01*
D14*
X015469Y011492D02*
X015469Y011192D01*
X015529Y011132D01*
X015649Y011132D01*
X015709Y011192D01*
X015709Y011492D01*
X015838Y011432D02*
X015838Y011372D01*
X015898Y011312D01*
X016078Y011312D01*
X016078Y011432D02*
X016018Y011492D01*
X015898Y011492D01*
X015838Y011432D01*
X016078Y011432D02*
X016078Y011192D01*
X016018Y011132D01*
X015898Y011132D01*
X015838Y011192D01*
X015800Y007004D02*
X015680Y006944D01*
X015560Y006824D01*
X015740Y006824D01*
X015800Y006764D01*
X015800Y006704D01*
X015740Y006644D01*
X015620Y006644D01*
X015560Y006704D01*
X015560Y006824D01*
X015432Y006644D02*
X015192Y006644D01*
X015312Y006644D02*
X015312Y007004D01*
X015192Y006884D01*
X015064Y006944D02*
X015004Y007004D01*
X014884Y007004D01*
X014824Y006944D01*
X014824Y006704D01*
X014884Y006644D01*
X015004Y006644D01*
X015064Y006704D01*
X008531Y005108D02*
X008531Y004988D01*
X008471Y004928D01*
X008231Y005168D01*
X008471Y005168D01*
X008531Y005108D01*
X008471Y004928D02*
X008231Y004928D01*
X008171Y004988D01*
X008171Y005108D01*
X008231Y005168D01*
X008231Y004800D02*
X008171Y004740D01*
X008171Y004619D01*
X008231Y004559D01*
X008231Y004431D02*
X008171Y004371D01*
X008171Y004251D01*
X008231Y004191D01*
X008471Y004191D01*
X008531Y004251D01*
X008531Y004371D01*
X008471Y004431D01*
X008531Y004559D02*
X008291Y004800D01*
X008231Y004800D01*
X008531Y004800D02*
X008531Y004559D01*
X004445Y002442D02*
X004139Y002442D01*
X004292Y002442D02*
X004292Y002902D01*
X004139Y002749D01*
X004215Y001402D02*
X004139Y001325D01*
X004215Y001402D02*
X004369Y001402D01*
X004445Y001325D01*
X004445Y001249D01*
X004139Y000942D01*
X004445Y000942D01*
X026961Y011192D02*
X027021Y011132D01*
X027141Y011132D01*
X027202Y011192D01*
X027202Y011492D01*
X027330Y011372D02*
X027450Y011492D01*
X027450Y011132D01*
X027330Y011132D02*
X027570Y011132D01*
X027698Y011192D02*
X027938Y011432D01*
X027938Y011192D01*
X027878Y011132D01*
X027758Y011132D01*
X027698Y011192D01*
X027698Y011432D01*
X027758Y011492D01*
X027878Y011492D01*
X027938Y011432D01*
X026961Y011492D02*
X026961Y011192D01*
D15*
X027059Y013674D02*
X027059Y018595D01*
X022138Y018595D01*
X022138Y013674D01*
X027059Y013674D01*
X022630Y013772D02*
X022630Y014166D01*
X022237Y014166D01*
X015268Y016351D02*
X013300Y016351D01*
X011194Y016096D02*
X011016Y016096D01*
X010849Y016096D01*
X010898Y015938D02*
X011016Y016096D01*
X011124Y015938D01*
X010898Y015938D01*
X010603Y016096D02*
X010426Y016096D01*
X010258Y016096D01*
X010307Y015938D02*
X010426Y016096D01*
X010534Y015938D01*
X010307Y015938D01*
X010013Y016096D02*
X009835Y016096D01*
X009668Y016096D01*
X009717Y015938D02*
X009835Y016096D01*
X009943Y015938D01*
X009717Y015938D01*
X009422Y016096D02*
X009244Y016096D01*
X009077Y016096D01*
X009126Y015938D02*
X009244Y016096D01*
X009353Y015938D01*
X009126Y015938D01*
X009481Y015170D02*
X009481Y014107D01*
X010835Y014107D02*
X010835Y015170D01*
X019727Y010189D02*
X019835Y010031D01*
X019658Y010031D01*
X019727Y010189D02*
X019953Y010189D01*
X019835Y010031D01*
X020003Y010031D01*
X020366Y010031D02*
X020544Y010031D01*
X020711Y010031D01*
X020662Y010189D02*
X020544Y010031D01*
X020436Y010189D01*
X020662Y010189D01*
X038575Y012059D02*
X038577Y012086D01*
X038582Y012112D01*
X038591Y012137D01*
X038604Y012161D01*
X038619Y012183D01*
X038638Y012203D01*
X038658Y012220D01*
X038681Y012234D01*
X038706Y012245D01*
X038732Y012252D01*
X038759Y012256D01*
X038785Y012256D01*
X038812Y012252D01*
X038838Y012245D01*
X038863Y012234D01*
X038886Y012220D01*
X038906Y012203D01*
X038925Y012183D01*
X038940Y012161D01*
X038953Y012137D01*
X038962Y012112D01*
X038967Y012086D01*
X038969Y012059D01*
D16*
X020073Y013122D02*
X020071Y013101D01*
X020066Y013081D01*
X020057Y013062D01*
X020045Y013045D01*
X020030Y013030D01*
X020013Y013018D01*
X019994Y013009D01*
X019974Y013004D01*
X019953Y013002D01*
X019932Y013004D01*
X019912Y013009D01*
X019893Y013018D01*
X019876Y013030D01*
X019861Y013045D01*
X019849Y013062D01*
X019840Y013081D01*
X019835Y013101D01*
X019833Y013122D01*
X017581Y016132D02*
X017560Y016134D01*
X017540Y016139D01*
X017521Y016148D01*
X017504Y016160D01*
X017489Y016175D01*
X017477Y016192D01*
X017468Y016211D01*
X017463Y016231D01*
X017461Y016252D01*
X017463Y016273D01*
X017468Y016293D01*
X017477Y016312D01*
X017489Y016329D01*
X017504Y016344D01*
X017521Y016356D01*
X017540Y016365D01*
X017560Y016370D01*
X017581Y016372D01*
X011326Y011919D02*
X011216Y011919D01*
X011216Y011529D01*
X011326Y011529D01*
X011326Y011919D01*
X011126Y011919D02*
X011026Y011919D01*
X011026Y011529D01*
X011126Y011529D01*
X011126Y011919D01*
X010936Y011919D02*
X010826Y011919D01*
X010826Y011529D01*
X010936Y011529D01*
X010936Y011919D01*
X010736Y011919D02*
X010626Y011919D01*
X010626Y011529D01*
X010736Y011529D01*
X010736Y011919D01*
X010536Y011919D02*
X010436Y011919D01*
X010436Y011529D01*
X010536Y011529D01*
X010536Y011919D01*
X010346Y011919D02*
X010236Y011919D01*
X010236Y011529D01*
X010346Y011529D01*
X010346Y011919D01*
X010146Y011919D02*
X010036Y011919D01*
X010036Y011529D01*
X010146Y011529D01*
X010146Y011919D01*
X009946Y011919D02*
X009846Y011919D01*
X009846Y011529D01*
X009946Y011529D01*
X009946Y011919D01*
X009746Y011919D02*
X009646Y011919D01*
X009646Y011529D01*
X009746Y011529D01*
X009746Y011919D01*
X009556Y011919D02*
X009446Y011919D01*
X009446Y011529D01*
X009556Y011529D01*
X009556Y011919D01*
X009356Y011919D02*
X009246Y011919D01*
X009246Y011529D01*
X009356Y011529D01*
X009356Y011919D01*
X009156Y011919D02*
X009056Y011919D01*
X009056Y011529D01*
X009156Y011529D01*
X009156Y011919D01*
X008966Y011919D02*
X008856Y011919D01*
X008856Y011529D01*
X008966Y011529D01*
X008966Y011919D01*
X008766Y011919D02*
X008656Y011919D01*
X008656Y011529D01*
X008766Y011529D01*
X008766Y011919D01*
X008566Y011919D02*
X008466Y011919D01*
X008466Y011529D01*
X008566Y011529D01*
X008566Y011919D01*
X008376Y011919D02*
X008266Y011919D01*
X008266Y011529D01*
X008376Y011529D01*
X008376Y011919D01*
X007826Y011529D02*
X007826Y007589D01*
X011766Y007589D01*
X011766Y011529D01*
X007826Y011529D01*
X007826Y011089D02*
X007436Y011089D01*
X007436Y010979D01*
X007826Y010979D01*
X007826Y011089D01*
X007826Y010889D02*
X007436Y010889D01*
X007436Y010789D01*
X007826Y010789D01*
X007826Y010889D01*
X007826Y010699D02*
X007436Y010699D01*
X007436Y010589D01*
X007826Y010589D01*
X007826Y010699D01*
X007826Y010499D02*
X007436Y010499D01*
X007436Y010389D01*
X007826Y010389D01*
X007826Y010499D01*
X007826Y010299D02*
X007436Y010299D01*
X007436Y010199D01*
X007826Y010199D01*
X007826Y010299D01*
X007826Y010109D02*
X007436Y010109D01*
X007436Y009999D01*
X007826Y009999D01*
X007826Y010109D01*
X007826Y009909D02*
X007436Y009909D01*
X007436Y009799D01*
X007826Y009799D01*
X007826Y009909D01*
X007826Y009709D02*
X007436Y009709D01*
X007436Y009609D01*
X007826Y009609D01*
X007826Y009709D01*
X007826Y009509D02*
X007436Y009509D01*
X007436Y009409D01*
X007826Y009409D01*
X007826Y009509D01*
X007826Y009319D02*
X007436Y009319D01*
X007436Y009209D01*
X007826Y009209D01*
X007826Y009319D01*
X007826Y009119D02*
X007436Y009119D01*
X007436Y009009D01*
X007826Y009009D01*
X007826Y009119D01*
X007826Y008919D02*
X007436Y008919D01*
X007436Y008819D01*
X007826Y008819D01*
X007826Y008919D01*
X007826Y008729D02*
X007436Y008729D01*
X007436Y008619D01*
X007826Y008619D01*
X007826Y008729D01*
X007826Y008529D02*
X007436Y008529D01*
X007436Y008419D01*
X007826Y008419D01*
X007826Y008529D01*
X007826Y008329D02*
X007436Y008329D01*
X007436Y008229D01*
X007826Y008229D01*
X007826Y008329D01*
X007826Y008139D02*
X007436Y008139D01*
X007436Y008029D01*
X007826Y008029D01*
X007826Y008139D01*
X008266Y007589D02*
X008266Y007199D01*
X008376Y007199D01*
X008376Y007589D01*
X008266Y007589D01*
X008466Y007589D02*
X008466Y007199D01*
X008566Y007199D01*
X008566Y007589D01*
X008466Y007589D01*
X008656Y007589D02*
X008656Y007199D01*
X008766Y007199D01*
X008766Y007589D01*
X008656Y007589D01*
X008856Y007589D02*
X008856Y007199D01*
X008966Y007199D01*
X008966Y007589D01*
X008856Y007589D01*
X009056Y007589D02*
X009056Y007199D01*
X009156Y007199D01*
X009156Y007589D01*
X009056Y007589D01*
X009246Y007589D02*
X009246Y007199D01*
X009356Y007199D01*
X009356Y007589D01*
X009246Y007589D01*
X009446Y007589D02*
X009446Y007199D01*
X009556Y007199D01*
X009556Y007589D01*
X009446Y007589D01*
X009646Y007589D02*
X009646Y007199D01*
X009746Y007199D01*
X009746Y007589D01*
X009646Y007589D01*
X009846Y007589D02*
X009846Y007199D01*
X009946Y007199D01*
X009946Y007589D01*
X009846Y007589D01*
X010036Y007589D02*
X010036Y007199D01*
X010146Y007199D01*
X010146Y007589D01*
X010036Y007589D01*
X010236Y007589D02*
X010236Y007199D01*
X010346Y007199D01*
X010346Y007589D01*
X010236Y007589D01*
X010436Y007589D02*
X010436Y007199D01*
X010536Y007199D01*
X010536Y007589D01*
X010436Y007589D01*
X010626Y007589D02*
X010626Y007199D01*
X010736Y007199D01*
X010736Y007589D01*
X010626Y007589D01*
X010826Y007589D02*
X010826Y007199D01*
X010936Y007199D01*
X010936Y007589D01*
X010826Y007589D01*
X011026Y007589D02*
X011026Y007199D01*
X011126Y007199D01*
X011126Y007589D01*
X011026Y007589D01*
X011216Y007589D02*
X011216Y007199D01*
X011326Y007199D01*
X011326Y007589D01*
X011266Y007589D01*
X011766Y008089D01*
X011766Y008029D01*
X012156Y008029D01*
X012156Y008139D01*
X011766Y008139D01*
X011766Y008089D01*
X011766Y008229D02*
X012156Y008229D01*
X012156Y008329D01*
X011766Y008329D01*
X011766Y008229D01*
X011766Y008419D02*
X012156Y008419D01*
X012156Y008529D01*
X011766Y008529D01*
X011766Y008419D01*
X011766Y008619D02*
X012156Y008619D01*
X012156Y008729D01*
X011766Y008729D01*
X011766Y008619D01*
X011766Y008819D02*
X012156Y008819D01*
X012156Y008919D01*
X011766Y008919D01*
X011766Y008819D01*
X011766Y009009D02*
X012156Y009009D01*
X012156Y009119D01*
X011766Y009119D01*
X011766Y009009D01*
X011766Y009209D02*
X012156Y009209D01*
X012156Y009319D01*
X011766Y009319D01*
X011766Y009209D01*
X011766Y009409D02*
X012156Y009409D01*
X012156Y009509D01*
X011766Y009509D01*
X011766Y009409D01*
X011766Y009609D02*
X012156Y009609D01*
X012156Y009709D01*
X011766Y009709D01*
X011766Y009609D01*
X011766Y009799D02*
X012156Y009799D01*
X012156Y009909D01*
X011766Y009909D01*
X011766Y009799D01*
X011766Y009999D02*
X012156Y009999D01*
X012156Y010109D01*
X011766Y010109D01*
X011766Y009999D01*
X011766Y010199D02*
X012156Y010199D01*
X012156Y010299D01*
X011766Y010299D01*
X011766Y010199D01*
X011766Y010389D02*
X012156Y010389D01*
X012156Y010499D01*
X011766Y010499D01*
X011766Y010389D01*
X011766Y010589D02*
X012156Y010589D01*
X012156Y010699D01*
X011766Y010699D01*
X011766Y010589D01*
X011766Y010789D02*
X012156Y010789D01*
X012156Y010889D01*
X011766Y010889D01*
X011766Y010789D01*
X011766Y010979D02*
X012156Y010979D01*
X012156Y011089D01*
X011766Y011089D01*
X011766Y010979D01*
X008000Y013186D02*
X008000Y013386D01*
X007560Y013386D01*
X007560Y013186D01*
X008000Y013186D01*
X007560Y013056D02*
X007560Y015016D01*
X006000Y015016D01*
X006000Y013056D01*
X006900Y013056D01*
X007560Y013056D01*
X006900Y013056D02*
X006897Y013077D01*
X006891Y013097D01*
X006881Y013115D01*
X006869Y013132D01*
X006853Y013146D01*
X006836Y013157D01*
X006816Y013165D01*
X006796Y013170D01*
X006775Y013171D01*
X006754Y013168D01*
X006734Y013162D01*
X006716Y013152D01*
X006699Y013140D01*
X006685Y013124D01*
X006674Y013107D01*
X006666Y013087D01*
X006661Y013067D01*
X006660Y013046D01*
X006000Y013186D02*
X005560Y013186D01*
X005560Y013386D01*
X006000Y013386D01*
X006000Y013186D01*
X006000Y013686D02*
X005560Y013686D01*
X005560Y013886D01*
X006000Y013886D01*
X006000Y013686D01*
X006000Y014186D02*
X005560Y014186D01*
X005560Y014386D01*
X006000Y014386D01*
X006000Y014186D01*
X006000Y014686D02*
X005560Y014686D01*
X005560Y014886D01*
X006000Y014886D01*
X006000Y014686D01*
X007560Y014686D02*
X008000Y014686D01*
X008000Y014886D01*
X007560Y014886D01*
X007560Y014686D01*
X007560Y014386D02*
X008000Y014386D01*
X008000Y014186D01*
X007560Y014186D01*
X007560Y014386D01*
X007560Y013886D02*
X008000Y013886D01*
X008000Y013686D01*
X007560Y013686D01*
X007560Y013886D01*
X011216Y007589D02*
X011266Y007589D01*
X007547Y006596D02*
X007547Y006176D01*
X007427Y006176D01*
X007427Y006596D01*
X007547Y006596D01*
X007287Y006596D02*
X007167Y006596D01*
X007167Y006176D01*
X007287Y006176D01*
X007287Y006596D01*
X007027Y006596D02*
X006907Y006596D01*
X006907Y006176D01*
X007027Y006176D01*
X007027Y006596D01*
X006777Y006596D02*
X006657Y006596D01*
X006657Y006176D01*
X006777Y006176D01*
X006777Y006596D01*
X006517Y006596D02*
X006397Y006596D01*
X006397Y006176D01*
X006517Y006176D01*
X006517Y006596D01*
X006267Y006596D02*
X006147Y006596D01*
X006147Y006176D01*
X006267Y006176D01*
X006267Y006596D01*
X006007Y006596D02*
X005887Y006596D01*
X005887Y006176D01*
X006007Y006176D01*
X006007Y006596D01*
X005747Y006596D02*
X005627Y006596D01*
X005627Y006176D01*
X005747Y006176D01*
X005747Y006596D01*
X005587Y006176D02*
X005587Y005176D01*
X005587Y004416D01*
X007587Y004416D01*
X007587Y006176D01*
X005587Y006176D01*
X005577Y005416D02*
X005598Y005415D01*
X005618Y005410D01*
X005638Y005402D01*
X005655Y005391D01*
X005671Y005377D01*
X005683Y005360D01*
X005693Y005342D01*
X005699Y005322D01*
X005702Y005301D01*
X005701Y005280D01*
X005696Y005260D01*
X005688Y005240D01*
X005677Y005223D01*
X005663Y005207D01*
X005646Y005195D01*
X005628Y005185D01*
X005608Y005179D01*
X005587Y005176D01*
X005627Y004416D02*
X005627Y003996D01*
X005747Y003996D01*
X005747Y004416D01*
X005627Y004416D01*
X005887Y004416D02*
X005887Y003996D01*
X006007Y003996D01*
X006007Y004416D01*
X005887Y004416D01*
X006147Y004416D02*
X006147Y003996D01*
X006267Y003996D01*
X006267Y004416D01*
X006147Y004416D01*
X006397Y004416D02*
X006397Y003996D01*
X006517Y003996D01*
X006517Y004416D01*
X006397Y004416D01*
X006657Y004416D02*
X006657Y003996D01*
X006777Y003996D01*
X006777Y004416D01*
X006657Y004416D01*
X006907Y004416D02*
X006907Y003996D01*
X007027Y003996D01*
X007027Y004416D01*
X006907Y004416D01*
X007167Y004416D02*
X007167Y003996D01*
X007287Y003996D01*
X007287Y004416D01*
X007167Y004416D01*
X007427Y004416D02*
X007427Y003996D01*
X007547Y003996D01*
X007547Y004416D01*
X007427Y004416D01*
D17*
X032563Y008693D03*
X035386Y010445D03*
X032563Y011709D03*
X035867Y014815D03*
X035386Y005957D03*
X034201Y005918D03*
D18*
X003178Y003595D02*
X003178Y000248D01*
X011059Y000248D01*
X011059Y003595D01*
X010662Y003595D01*
X010268Y003595D01*
X003969Y003595D01*
X003575Y003595D01*
X003178Y003595D01*
X003575Y003595D02*
X003577Y003622D01*
X003582Y003648D01*
X003591Y003673D01*
X003604Y003697D01*
X003619Y003719D01*
X003638Y003739D01*
X003658Y003756D01*
X003681Y003770D01*
X003706Y003781D01*
X003732Y003788D01*
X003759Y003792D01*
X003785Y003792D01*
X003812Y003788D01*
X003838Y003781D01*
X003863Y003770D01*
X003886Y003756D01*
X003906Y003739D01*
X003925Y003719D01*
X003940Y003697D01*
X003953Y003673D01*
X003962Y003648D01*
X003967Y003622D01*
X003969Y003595D01*
X002748Y004638D02*
X002748Y010150D01*
X000465Y010150D01*
X000465Y004638D01*
X002748Y004638D01*
X010268Y003595D02*
X010270Y003622D01*
X010275Y003648D01*
X010284Y003673D01*
X010297Y003697D01*
X010312Y003719D01*
X010331Y003739D01*
X010351Y003756D01*
X010374Y003770D01*
X010399Y003781D01*
X010425Y003788D01*
X010452Y003792D01*
X010478Y003792D01*
X010505Y003788D01*
X010531Y003781D01*
X010556Y003770D01*
X010579Y003756D01*
X010599Y003739D01*
X010618Y003719D01*
X010633Y003697D01*
X010646Y003673D01*
X010655Y003648D01*
X010660Y003622D01*
X010662Y003595D01*
X004205Y010544D02*
X000268Y010544D01*
X000268Y012827D01*
X004205Y012827D01*
X004205Y010544D01*
X004205Y013339D02*
X000268Y013339D01*
X000268Y015622D01*
X004205Y015622D01*
X004205Y013339D01*
X012709Y016430D02*
X015859Y016430D01*
X015859Y018910D01*
X012709Y018910D01*
X012709Y016430D01*
X032315Y015189D02*
X032315Y018969D01*
X036095Y018969D01*
X036095Y015189D01*
X032315Y015189D01*
X035819Y012020D02*
X035819Y006587D01*
X035898Y006587D02*
X039678Y006587D01*
X039678Y012020D01*
X035898Y012020D01*
D19*
X032237Y017866D02*
X032210Y017868D01*
X032184Y017873D01*
X032159Y017882D01*
X032135Y017895D01*
X032113Y017910D01*
X032093Y017929D01*
X032076Y017949D01*
X032062Y017972D01*
X032051Y017997D01*
X032044Y018023D01*
X032040Y018050D01*
X032040Y018076D01*
X032044Y018103D01*
X032051Y018129D01*
X032062Y018154D01*
X032076Y018177D01*
X032093Y018197D01*
X032113Y018216D01*
X032135Y018231D01*
X032159Y018244D01*
X032184Y018253D01*
X032210Y018258D01*
X032237Y018260D01*
X003557Y015819D02*
X000916Y015819D01*
X000916Y013024D02*
X003557Y013024D01*
X000268Y008715D02*
X000268Y006074D01*
M02*
