%
M48
M72
T01C0.0157
T02C0.0197
T03C0.0276
T04C0.0315
T05C0.0354
T06C0.0400
T07C0.0512
T08C0.0551
T09C0.1200
%
T01
X3536Y4231
X4257Y4223
X4733Y4920
X4733Y5345
X4875Y5845
X4777Y6278
X5694Y5617
X6076Y5861
X6450Y6081
X6804Y6239
X7277Y6042
X5300Y5329
X3312Y5601
X3320Y6317
X4725Y7743
X4729Y8124
X3399Y8030
X3241Y9093
X4245Y9723
X5328Y11278
X6529Y11278
X6509Y12459
X5544Y12459
X4599Y12459
X6458Y14306
X8143Y14349
X8615Y14349
X9048Y14349
X10214Y13593
X11210Y13735
X11954Y13542
X13468Y13581
X13468Y13936
X12749Y12518
X13603Y12014
X13517Y11160
X13202Y11160
X14235Y10849
X14403Y10195
X13812Y10254
X15387Y9664
X16174Y9664
X16174Y8876
X15387Y8876
X15544Y8089
X15859Y8089
X16174Y8089
X16174Y7774
X15859Y7774
X15544Y7774
X15544Y7459
X15544Y7144
X15859Y7144
X15859Y7459
X16174Y7459
X16174Y7144
X16174Y6829
X15859Y6829
X15544Y6829
X15387Y6121
X16174Y6121
X16174Y5333
X15387Y5333
X15190Y3916
X14718Y3916
X14245Y3916
X13615Y4073
X13536Y4644
X13418Y5707
X11617Y6032
X11302Y6032
X10249Y5983
X9846Y5983
X9757Y5215
X8773Y4565
X8182Y3995
X9540Y3857
X6981Y7567
X6588Y7567
X6922Y9369
X8635Y10018
X10082Y8975
X10377Y8975
X10377Y8670
X10082Y8670
X10544Y8207
X9029Y11613
X9029Y12065
X9666Y11735
X9670Y12447
X11509Y12439
X11509Y11731
X15239Y11849
X15790Y13581
X16145Y13581
X15397Y14565
X15397Y14900
X17867Y16750
X16224Y17479
X15161Y17439
X15161Y17833
X14767Y17833
X14767Y17439
X14373Y17439
X14373Y17833
X12198Y17400
X15239Y20353
X19117Y20412
X19117Y20707
X19107Y21613
X20151Y21770
X24324Y17715
X24304Y16869
X24639Y15510
X25131Y14743
X25407Y14743
X25682Y14743
X25958Y14743
X26233Y14743
X26233Y14467
X25958Y14467
X25682Y14467
X25407Y14467
X25131Y14467
X26273Y15530
X28162Y15530
X28753Y14841
X28753Y14565
X29029Y14565
X29304Y14565
X29580Y14565
X29855Y14565
X29855Y14841
X29580Y14841
X29304Y14841
X29029Y14841
X27828Y16869
X27828Y17735
X22848Y15510
X22907Y14703
X22907Y14428
X22631Y14428
X22631Y14703
X22355Y14703
X22080Y14703
X22080Y14428
X22355Y14428
X21804Y14428
X21804Y14703
X19058Y13936
X18320Y9841
X19521Y9349
X20170Y9487
X20731Y9497
X22848Y8128
X24363Y6790
X24363Y6042
X25190Y5530
X25466Y5530
X25741Y5530
X26017Y5530
X26292Y5530
X26292Y5254
X26292Y4979
X26017Y4979
X26017Y5254
X25741Y5254
X25741Y4979
X25466Y4979
X25466Y5254
X25190Y5254
X25190Y4979
X25190Y4703
X25466Y4703
X25741Y4703
X26017Y4703
X26292Y4703
X27340Y4947
X27907Y6199
X28143Y6672
X28143Y7223
X26273Y8168
X27808Y9664
X24304Y9664
X20269Y7577
X20190Y6908
X19718Y6908
X20781Y5491
X20781Y5097
X20781Y4723
X20781Y4329
X21765Y4664
X22040Y4664
X22040Y4939
X21765Y4939
X21765Y5215
X22040Y5215
X22040Y5491
X21765Y5491
X22316Y5491
X22592Y5491
X22867Y5491
X22867Y5215
X22592Y5215
X22592Y4939
X22592Y4664
X22867Y4664
X22867Y4939
X22316Y4939
X22316Y4664
X22316Y5215
X18379Y4310
X18379Y3916
X17749Y4743
X17277Y4743
X17277Y5058
X16607Y3916
X16135Y3916
X15662Y3916
X505Y6317
X584Y9821
X3694Y19979
X3930Y22223
X3340Y22223
X31804Y7617
X31814Y7036
T02
X30139Y8995
X30139Y9495
X30139Y9995
X29639Y9995
X29139Y9995
X29139Y9495
X29639Y9495
X29639Y8995
X29139Y8995
X26517Y8995
X26517Y9495
X26517Y9995
X26017Y9995
X25517Y9995
X25517Y9495
X26017Y9495
X26017Y8995
X25517Y8995
X23092Y8995
X22592Y8995
X22592Y9495
X23092Y9495
X23092Y9995
X22592Y9995
X22092Y9995
X22092Y9495
X22092Y8995
X22092Y16357
X22592Y16357
X23092Y16357
X23092Y16857
X22592Y16857
X22592Y17357
X23092Y17357
X22092Y17357
X22092Y16857
X25517Y16857
X26017Y16857
X26017Y17357
X25517Y17357
X26517Y17357
X26517Y16857
X26517Y16357
X26017Y16357
X25517Y16357
X29139Y16357
X29639Y16357
X29639Y16857
X29139Y16857
X29139Y17357
X29639Y17357
X30139Y17357
X30139Y16857
X30139Y16357
T03
X31292Y12408
X31292Y11408
X28576Y5203
X28576Y4203
X20092Y16221
X20092Y17221
X23026Y19300
X23026Y21300
T04
X11962Y21219
X11174Y21219
X8625Y21317
X7838Y21317
X7050Y21317
X6263Y21317
X5475Y21317
X5997Y18089
X6785Y18089
X7572Y18089
X10229Y18109
X11017Y18109
X11804Y18109
T05
X2678Y17304
X1678Y17304
X1678Y16304
X2678Y16304
X2678Y15304
X1678Y15304
X1678Y14304
X2678Y14304
X2678Y13304
X1678Y13304
T06
X1824Y10608
X2824Y10708
X3824Y10608
X4824Y10708
X5824Y10608
X824Y10708
X10755Y5124
X11755Y5124
X12755Y5124
X12755Y4124
X11755Y4124
X10755Y4124
X18389Y19480
X18389Y20620
T07
X12592Y18857
X10387Y20471
X8359Y18837
X4688Y20569
T08
X24462Y13621
X26115Y13621
X27769Y13621
X27769Y11849
X26115Y11849
X24462Y11849
X26460Y19467
X28113Y19467
X28113Y21632
X26460Y21632
T09
X30899Y20924
X30899Y5176
X1765Y5176
X1765Y20924
M30
