G75*
%MOIN*%
%OFA0B0*%
%FSLAX24Y24*%
%IPPOS*%
%LPD*%
%AMOC8*
5,1,8,0,0,1.08239X$1,22.5*
%
%ADD10C,0.0030*%
%ADD11C,0.0100*%
%ADD12C,0.0060*%
%ADD13C,0.0050*%
%ADD14C,0.0080*%
%ADD15C,0.0000*%
%ADD16C,0.0120*%
%ADD17C,0.0080*%
%ADD18C,0.0040*%
%ADD19C,0.0197*%
D10*
X009144Y006341D02*
X009192Y006292D01*
X009289Y006292D01*
X009338Y006341D01*
X009439Y006292D02*
X009632Y006486D01*
X009632Y006534D01*
X009584Y006582D01*
X009487Y006582D01*
X009439Y006534D01*
X009338Y006534D02*
X009289Y006582D01*
X009192Y006582D01*
X009144Y006534D01*
X009144Y006341D01*
X009439Y006292D02*
X009632Y006292D01*
X009733Y006341D02*
X009927Y006534D01*
X009927Y006341D01*
X009878Y006292D01*
X009782Y006292D01*
X009733Y006341D01*
X009733Y006534D01*
X009782Y006582D01*
X009878Y006582D01*
X009927Y006534D01*
X009914Y008593D02*
X009720Y008593D01*
X009817Y008593D02*
X009817Y008884D01*
X009720Y008787D01*
X009619Y008835D02*
X009571Y008884D01*
X009474Y008884D01*
X009426Y008835D01*
X009426Y008642D01*
X009474Y008593D01*
X009571Y008593D01*
X009619Y008642D01*
X010015Y008642D02*
X010015Y008739D01*
X010160Y008739D01*
X010208Y008690D01*
X010208Y008642D01*
X010160Y008593D01*
X010063Y008593D01*
X010015Y008642D01*
X010015Y008739D02*
X010112Y008835D01*
X010208Y008884D01*
X008940Y009502D02*
X008795Y009647D01*
X008746Y009598D02*
X008940Y009792D01*
X008746Y009792D02*
X008746Y009502D01*
X008645Y009502D02*
X008452Y009502D01*
X008452Y009792D01*
X008351Y009744D02*
X008302Y009792D01*
X008206Y009792D01*
X008157Y009744D01*
X008157Y009550D01*
X008206Y009502D01*
X008302Y009502D01*
X008351Y009550D01*
X008169Y009479D02*
X007856Y009166D01*
X007856Y009322D02*
X008169Y009322D01*
X008169Y009166D02*
X007856Y009479D01*
X007911Y009502D02*
X007863Y009550D01*
X007911Y009502D02*
X008008Y009502D01*
X008056Y009550D01*
X008056Y009598D01*
X008008Y009647D01*
X007911Y009647D01*
X007863Y009695D01*
X007863Y009744D01*
X007911Y009792D01*
X008008Y009792D01*
X008056Y009744D01*
X008013Y009479D02*
X008013Y009166D01*
X008056Y010210D02*
X008056Y010501D01*
X007959Y010404D01*
X007863Y010501D01*
X007863Y010210D01*
X008157Y010210D02*
X008254Y010210D01*
X008206Y010210D02*
X008206Y010501D01*
X008254Y010501D02*
X008157Y010501D01*
X008206Y010683D02*
X008302Y010683D01*
X008351Y010731D01*
X008351Y010925D01*
X008302Y010973D01*
X008206Y010973D01*
X008157Y010925D01*
X008157Y010731D01*
X008206Y010683D01*
X008056Y010683D02*
X008056Y010973D01*
X007959Y010876D01*
X007863Y010973D01*
X007863Y010683D01*
X007364Y010646D02*
X007315Y010597D01*
X007170Y010597D01*
X007170Y010501D02*
X007170Y010791D01*
X007315Y010791D01*
X007364Y010742D01*
X007364Y010646D01*
X007069Y010597D02*
X007069Y010549D01*
X007021Y010501D01*
X006924Y010501D01*
X006876Y010549D01*
X006774Y010549D02*
X006726Y010501D01*
X006629Y010501D01*
X006581Y010549D01*
X006581Y010742D01*
X006629Y010791D01*
X006726Y010791D01*
X006774Y010742D01*
X006876Y010742D02*
X006876Y010694D01*
X006924Y010646D01*
X007021Y010646D01*
X007069Y010597D01*
X007069Y010742D02*
X007021Y010791D01*
X006924Y010791D01*
X006876Y010742D01*
X006481Y010791D02*
X006384Y010791D01*
X006433Y010791D02*
X006433Y010501D01*
X006481Y010501D02*
X006384Y010501D01*
X007863Y011204D02*
X007863Y011397D01*
X007911Y011445D01*
X008008Y011445D01*
X008056Y011397D01*
X008157Y011397D02*
X008157Y011349D01*
X008206Y011300D01*
X008302Y011300D01*
X008351Y011252D01*
X008351Y011204D01*
X008302Y011155D01*
X008206Y011155D01*
X008157Y011204D01*
X008056Y011204D02*
X008008Y011155D01*
X007911Y011155D01*
X007863Y011204D01*
X008157Y011397D02*
X008206Y011445D01*
X008302Y011445D01*
X008351Y011397D01*
X008500Y010973D02*
X008452Y010925D01*
X008452Y010876D01*
X008500Y010828D01*
X008597Y010828D01*
X008645Y010780D01*
X008645Y010731D01*
X008597Y010683D01*
X008500Y010683D01*
X008452Y010731D01*
X008499Y010501D02*
X008402Y010501D01*
X008354Y010452D01*
X008354Y010404D01*
X008402Y010355D01*
X008499Y010355D01*
X008547Y010307D01*
X008547Y010259D01*
X008499Y010210D01*
X008402Y010210D01*
X008354Y010259D01*
X008547Y010452D02*
X008499Y010501D01*
X008648Y010452D02*
X008648Y010259D01*
X008697Y010210D01*
X008793Y010210D01*
X008842Y010259D01*
X008842Y010452D01*
X008793Y010501D01*
X008697Y010501D01*
X008648Y010452D01*
X008746Y010683D02*
X008843Y010683D01*
X008795Y010683D02*
X008795Y010973D01*
X008843Y010973D02*
X008746Y010973D01*
X008645Y010925D02*
X008597Y010973D01*
X008500Y010973D01*
X008513Y012390D02*
X008707Y012390D01*
X008513Y012390D02*
X008513Y012681D01*
X008412Y012681D02*
X008412Y012439D01*
X008364Y012390D01*
X008267Y012390D01*
X008219Y012439D01*
X008219Y012681D01*
X008118Y012584D02*
X008021Y012681D01*
X007924Y012584D01*
X007924Y012390D01*
X007924Y012535D02*
X008118Y012535D01*
X008118Y012584D02*
X008118Y012390D01*
X007823Y012681D02*
X007629Y012681D01*
X007629Y012390D01*
X007528Y012439D02*
X007335Y012632D01*
X007432Y012632D02*
X007432Y012439D01*
X007335Y012439D02*
X007528Y012632D01*
X007528Y012535D02*
X007335Y012535D01*
X007629Y012535D02*
X007726Y012535D01*
X007726Y012911D02*
X007726Y013105D01*
X007629Y013105D02*
X007823Y012911D01*
X007823Y013008D02*
X007629Y013008D01*
X007629Y012911D02*
X007823Y013105D01*
X007924Y013105D02*
X007924Y012911D01*
X007972Y012863D01*
X008069Y012863D01*
X008118Y012911D01*
X008118Y013105D01*
X008069Y013153D01*
X007972Y013153D01*
X007924Y013105D01*
X008219Y013105D02*
X008219Y012911D01*
X008267Y012863D01*
X008364Y012863D01*
X008412Y012911D01*
X008412Y013105D02*
X008364Y013153D01*
X008267Y013153D01*
X008219Y013105D01*
X008513Y013153D02*
X008707Y013153D01*
X008610Y013153D02*
X008610Y012863D01*
X008808Y012863D02*
X008905Y012960D01*
X009002Y012863D01*
X009002Y013153D01*
X008808Y013153D02*
X008808Y012863D01*
X008808Y012681D02*
X009002Y012681D01*
X008905Y012681D02*
X008905Y012390D01*
X009639Y014160D02*
X009952Y014474D01*
X009795Y014474D02*
X009795Y014160D01*
X009952Y014160D02*
X009639Y014474D01*
X009639Y014317D02*
X009952Y014317D01*
X012185Y015451D02*
X012185Y015644D01*
X012234Y015692D01*
X012330Y015692D01*
X012379Y015644D01*
X012480Y015547D02*
X012673Y015547D01*
X012775Y015451D02*
X012968Y015644D01*
X012968Y015451D01*
X012920Y015402D01*
X012823Y015402D01*
X012775Y015451D01*
X012775Y015644D01*
X012823Y015692D01*
X012920Y015692D01*
X012968Y015644D01*
X012625Y015692D02*
X012625Y015402D01*
X012480Y015547D02*
X012625Y015692D01*
X012379Y015451D02*
X012330Y015402D01*
X012234Y015402D01*
X012185Y015451D01*
X012813Y015168D02*
X012813Y014975D01*
X012958Y014975D01*
X012910Y015072D01*
X012910Y015120D01*
X012958Y015168D01*
X013055Y015168D01*
X013103Y015120D01*
X013103Y015023D01*
X013055Y014975D01*
X012958Y014874D02*
X012958Y014680D01*
X012813Y014825D01*
X013103Y014825D01*
X013055Y014579D02*
X013103Y014531D01*
X013103Y014434D01*
X013055Y014385D01*
X012861Y014385D01*
X012813Y014434D01*
X012813Y014531D01*
X012861Y014579D01*
X012808Y014025D02*
X012856Y013929D01*
X012953Y013832D01*
X012953Y013977D01*
X013002Y014025D01*
X013050Y014025D01*
X013098Y013977D01*
X013098Y013880D01*
X013050Y013832D01*
X012953Y013832D01*
X012856Y013731D02*
X012808Y013682D01*
X012808Y013585D01*
X012856Y013537D01*
X013050Y013537D01*
X013098Y013585D01*
X013098Y013682D01*
X013050Y013731D01*
X016531Y011215D02*
X016844Y010902D01*
X016687Y010902D02*
X016687Y011215D01*
X016844Y011215D02*
X016531Y010902D01*
X016531Y011059D02*
X016844Y011059D01*
X014868Y009609D02*
X014868Y009319D01*
X014964Y009319D02*
X014771Y009319D01*
X014670Y009367D02*
X014621Y009319D01*
X014525Y009319D01*
X014476Y009367D01*
X014476Y009560D01*
X014525Y009609D01*
X014621Y009609D01*
X014670Y009560D01*
X014771Y009512D02*
X014868Y009609D01*
X014377Y009609D02*
X014280Y009609D01*
X014328Y009609D02*
X014328Y009319D01*
X014280Y009319D02*
X014377Y009319D01*
X021871Y004282D02*
X021871Y003992D01*
X021871Y004089D02*
X022016Y004089D01*
X022065Y004137D01*
X022065Y004234D01*
X022016Y004282D01*
X021871Y004282D01*
X021968Y004089D02*
X022065Y003992D01*
X022166Y003992D02*
X022359Y004185D01*
X022359Y004234D01*
X022311Y004282D01*
X022214Y004282D01*
X022166Y004234D01*
X022166Y003992D02*
X022359Y003992D01*
X022461Y003992D02*
X022654Y004185D01*
X022654Y004234D01*
X022606Y004282D01*
X022509Y004282D01*
X022461Y004234D01*
X022461Y003992D02*
X022654Y003992D01*
X025552Y003952D02*
X025552Y004243D01*
X025697Y004243D01*
X025746Y004194D01*
X025746Y004098D01*
X025697Y004049D01*
X025552Y004049D01*
X025649Y004049D02*
X025746Y003952D01*
X025847Y004098D02*
X025992Y004243D01*
X025992Y003952D01*
X026041Y004098D02*
X025847Y004098D01*
X032307Y011886D02*
X032597Y012079D01*
X032307Y012079D01*
X032356Y012180D02*
X032549Y012180D01*
X032597Y012229D01*
X032597Y012325D01*
X032549Y012374D01*
X032356Y012374D01*
X032307Y012325D01*
X032307Y012229D01*
X032356Y012180D01*
X032307Y011886D02*
X032597Y011886D01*
X032549Y012769D02*
X032597Y012818D01*
X032597Y012915D01*
X032549Y012963D01*
X032501Y012963D01*
X032452Y012915D01*
X032452Y012818D01*
X032404Y012769D01*
X032356Y012769D01*
X032307Y012818D01*
X032307Y012915D01*
X032356Y012963D01*
X032307Y013064D02*
X032597Y013064D01*
X032597Y013258D01*
X032597Y013359D02*
X032307Y013359D01*
X032597Y013552D01*
X032307Y013552D01*
X032356Y013653D02*
X032404Y013653D01*
X032452Y013702D01*
X032452Y013799D01*
X032501Y013847D01*
X032549Y013847D01*
X032597Y013799D01*
X032597Y013702D01*
X032549Y013653D01*
X032356Y013653D02*
X032307Y013702D01*
X032307Y013799D01*
X032356Y013847D01*
X032307Y013948D02*
X032307Y014045D01*
X032307Y013996D02*
X032597Y013996D01*
X032597Y013948D02*
X032597Y014045D01*
X032597Y014241D02*
X032307Y014241D01*
X032307Y014145D02*
X032307Y014338D01*
X032307Y014439D02*
X032307Y014536D01*
X032307Y014488D02*
X032597Y014488D01*
X032597Y014536D02*
X032597Y014439D01*
X032501Y014636D02*
X032597Y014732D01*
X032501Y014829D01*
X032307Y014829D01*
X032307Y014930D02*
X032597Y014930D01*
X032597Y015124D01*
X032452Y015027D02*
X032452Y014930D01*
X032307Y014930D02*
X032307Y015124D01*
X032356Y015520D02*
X032549Y015520D01*
X032597Y015568D01*
X032597Y015665D01*
X032549Y015713D01*
X032549Y015814D02*
X032356Y015814D01*
X032307Y015863D01*
X032307Y015959D01*
X032356Y016008D01*
X032549Y016008D01*
X032597Y015959D01*
X032597Y015863D01*
X032549Y015814D01*
X032356Y015713D02*
X032307Y015665D01*
X032307Y015568D01*
X032356Y015520D01*
X032307Y016109D02*
X032404Y016206D01*
X032307Y016302D01*
X032597Y016302D01*
X032597Y016403D02*
X032307Y016403D01*
X032307Y016549D01*
X032356Y016597D01*
X032452Y016597D01*
X032501Y016549D01*
X032501Y016403D01*
X032549Y016698D02*
X032356Y016698D01*
X032307Y016747D01*
X032307Y016843D01*
X032356Y016892D01*
X032549Y016892D01*
X032597Y016843D01*
X032597Y016747D01*
X032549Y016698D01*
X032597Y016993D02*
X032307Y016993D01*
X032597Y017186D01*
X032307Y017186D01*
X032307Y017287D02*
X032597Y017287D01*
X032597Y017481D01*
X032597Y017582D02*
X032307Y017582D01*
X032597Y017776D01*
X032307Y017776D01*
X032307Y017877D02*
X032307Y018070D01*
X032307Y017974D02*
X032597Y017974D01*
X032549Y018171D02*
X032597Y018220D01*
X032597Y018317D01*
X032549Y018365D01*
X032501Y018365D01*
X032452Y018317D01*
X032452Y018220D01*
X032404Y018171D01*
X032356Y018171D01*
X032307Y018220D01*
X032307Y018317D01*
X032356Y018365D01*
X032404Y018761D02*
X032307Y018857D01*
X032404Y018954D01*
X032597Y018954D01*
X032597Y019055D02*
X032307Y019055D01*
X032307Y019200D01*
X032356Y019249D01*
X032404Y019249D01*
X032452Y019200D01*
X032452Y019055D01*
X032452Y018954D02*
X032452Y018761D01*
X032404Y018761D02*
X032597Y018761D01*
X032597Y019055D02*
X032597Y019200D01*
X032549Y019249D01*
X032501Y019249D01*
X032452Y019200D01*
X032356Y019350D02*
X032549Y019350D01*
X032597Y019398D01*
X032597Y019495D01*
X032549Y019544D01*
X032356Y019544D01*
X032307Y019495D01*
X032307Y019398D01*
X032356Y019350D01*
X032307Y019645D02*
X032501Y019645D01*
X032597Y019741D01*
X032501Y019838D01*
X032307Y019838D01*
X032307Y019939D02*
X032597Y019939D01*
X032597Y020133D01*
X032452Y020036D02*
X032452Y019939D01*
X032307Y019939D02*
X032307Y020133D01*
X032307Y017481D02*
X032307Y017287D01*
X032452Y017287D02*
X032452Y017384D01*
X032597Y016109D02*
X032307Y016109D01*
X032307Y014636D02*
X032501Y014636D01*
X032307Y013258D02*
X032307Y013064D01*
X032452Y013064D02*
X032452Y013161D01*
X028467Y018281D02*
X028322Y018281D01*
X028322Y018571D01*
X028467Y018571D01*
X028515Y018523D01*
X028515Y018330D01*
X028467Y018281D01*
X028221Y018281D02*
X028221Y018571D01*
X028027Y018571D02*
X028221Y018281D01*
X028027Y018281D02*
X028027Y018571D01*
X027926Y018523D02*
X027878Y018571D01*
X027781Y018571D01*
X027733Y018523D01*
X027733Y018330D01*
X027781Y018281D01*
X027878Y018281D01*
X027926Y018330D01*
X027926Y018426D01*
X027829Y018426D01*
X026956Y018560D02*
X026956Y018269D01*
X026762Y018560D01*
X026762Y018269D01*
X026663Y018269D02*
X026566Y018269D01*
X026614Y018269D02*
X026614Y018560D01*
X026566Y018560D02*
X026663Y018560D01*
X026170Y018560D02*
X026170Y018366D01*
X026073Y018269D01*
X025977Y018366D01*
X025977Y018560D01*
X026271Y018221D02*
X026465Y018221D01*
X024958Y022076D02*
X024958Y022125D01*
X025152Y022318D01*
X025152Y022366D01*
X024958Y022366D01*
X024857Y022318D02*
X024809Y022366D01*
X024712Y022366D01*
X024664Y022318D01*
X024562Y022318D02*
X024514Y022366D01*
X024417Y022366D01*
X024369Y022318D01*
X024369Y022125D01*
X024417Y022076D01*
X024514Y022076D01*
X024562Y022125D01*
X024664Y022076D02*
X024857Y022270D01*
X024857Y022318D01*
X024857Y022076D02*
X024664Y022076D01*
X021007Y022139D02*
X020958Y022091D01*
X021007Y022139D02*
X021007Y022236D01*
X020958Y022284D01*
X020862Y022284D01*
X020813Y022236D01*
X020813Y022188D01*
X020862Y022091D01*
X020717Y022091D01*
X020717Y022284D01*
X020765Y021990D02*
X020717Y021941D01*
X020717Y021845D01*
X020765Y021796D01*
X020958Y021796D01*
X021007Y021845D01*
X021007Y021941D01*
X020958Y021990D01*
X019525Y019960D02*
X019525Y019766D01*
X019525Y019863D02*
X019235Y019863D01*
X019332Y019766D01*
X019380Y019665D02*
X019380Y019472D01*
X019235Y019617D01*
X019525Y019617D01*
X019477Y019370D02*
X019525Y019322D01*
X019525Y019225D01*
X019477Y019177D01*
X019284Y019177D01*
X019235Y019225D01*
X019235Y019322D01*
X019284Y019370D01*
X018803Y018298D02*
X018851Y018250D01*
X018851Y018153D01*
X018803Y018105D01*
X018706Y018201D02*
X018706Y018250D01*
X018755Y018298D01*
X018803Y018298D01*
X018706Y018250D02*
X018658Y018298D01*
X018609Y018298D01*
X018561Y018250D01*
X018561Y018153D01*
X018609Y018105D01*
X018706Y018004D02*
X018706Y017810D01*
X018561Y017955D01*
X018851Y017955D01*
X018803Y017709D02*
X018851Y017660D01*
X018851Y017564D01*
X018803Y017515D01*
X018609Y017515D01*
X018561Y017564D01*
X018561Y017660D01*
X018609Y017709D01*
X019692Y015541D02*
X020005Y015227D01*
X019848Y015227D02*
X019848Y015541D01*
X020005Y015541D02*
X019692Y015227D01*
X019692Y015384D02*
X020005Y015384D01*
X013242Y020655D02*
X012929Y020968D01*
X012929Y020812D02*
X013242Y020812D01*
X013242Y020968D02*
X012929Y020655D01*
X013086Y020655D02*
X013086Y020968D01*
X011952Y019967D02*
X011661Y019967D01*
X011807Y019967D02*
X011807Y019774D01*
X011952Y019774D02*
X011661Y019774D01*
X012000Y019673D02*
X012000Y019479D01*
X011952Y019378D02*
X011661Y019378D01*
X011661Y019185D02*
X011952Y019378D01*
X011952Y019185D02*
X011661Y019185D01*
X011758Y019084D02*
X011952Y019084D01*
X011807Y019084D02*
X011807Y018890D01*
X011758Y018890D02*
X011661Y018987D01*
X011758Y019084D01*
X011758Y018890D02*
X011952Y018890D01*
X011903Y018789D02*
X011952Y018740D01*
X011952Y018644D01*
X011903Y018595D01*
X011710Y018595D01*
X011661Y018644D01*
X011661Y018740D01*
X011710Y018789D01*
X011172Y018835D02*
X010979Y018835D01*
X010882Y018932D01*
X010979Y019028D01*
X011172Y019028D01*
X011172Y019130D02*
X010882Y019130D01*
X011172Y019323D01*
X010882Y019323D01*
X011027Y019028D02*
X011027Y018835D01*
X010930Y018734D02*
X010882Y018685D01*
X010882Y018589D01*
X010930Y018540D01*
X011124Y018540D01*
X011172Y018589D01*
X011172Y018685D01*
X011124Y018734D01*
X011221Y019424D02*
X011221Y019618D01*
X011172Y019719D02*
X010882Y019719D01*
X011172Y019719D02*
X011172Y019912D01*
X004982Y017045D02*
X004669Y016732D01*
X004669Y016888D02*
X004982Y016888D01*
X004982Y016732D02*
X004669Y017045D01*
X004825Y017045D02*
X004825Y016732D01*
X001566Y014510D02*
X001518Y014558D01*
X001324Y014558D01*
X001276Y014510D01*
X001276Y014365D01*
X001566Y014365D01*
X001566Y014510D01*
X001566Y014263D02*
X001276Y014263D01*
X001276Y014070D02*
X001566Y014263D01*
X001566Y014070D02*
X001276Y014070D01*
X001324Y013969D02*
X001276Y013920D01*
X001276Y013824D01*
X001324Y013775D01*
X001518Y013775D01*
X001566Y013824D01*
X001566Y013920D01*
X001518Y013969D01*
X001421Y013969D01*
X001421Y013872D01*
D11*
X025918Y019979D02*
X025918Y020766D01*
X029481Y004900D02*
X029481Y004113D01*
D12*
X027355Y005727D02*
X027355Y005963D01*
X026883Y005963D02*
X026883Y005727D01*
X027355Y007459D02*
X027355Y007695D01*
X027828Y007695D02*
X027828Y007459D01*
X031056Y007617D02*
X031056Y007853D01*
X031529Y007853D02*
X031529Y007617D01*
X024521Y007695D02*
X024521Y007459D01*
X024048Y007459D02*
X024048Y007695D01*
X024009Y005924D02*
X024009Y005687D01*
X023536Y005687D02*
X023536Y005924D01*
X020670Y006160D02*
X020434Y006160D01*
X020434Y006632D02*
X020670Y006632D01*
X020505Y007833D02*
X020505Y008069D01*
X020033Y008069D02*
X020033Y007833D01*
X018792Y008955D02*
X018556Y008955D01*
X018556Y009428D02*
X018792Y009428D01*
X018783Y010845D02*
X018783Y011081D01*
X018940Y011081D02*
X018940Y010845D01*
X019412Y010845D02*
X019412Y011081D01*
X019570Y011081D02*
X019570Y010845D01*
X020042Y010845D02*
X020042Y011081D01*
X019176Y012085D02*
X018940Y012085D01*
X018940Y012558D02*
X019176Y012558D01*
X018310Y011081D02*
X018310Y010845D01*
X018153Y010845D02*
X018153Y011081D01*
X017680Y011081D02*
X017680Y010845D01*
X017523Y010845D02*
X017523Y011081D01*
X017050Y011081D02*
X017050Y010845D01*
X012950Y010945D02*
X012714Y010945D01*
X012714Y011418D02*
X012950Y011418D01*
X012979Y012030D02*
X012979Y012266D01*
X012507Y012266D02*
X012507Y012030D01*
X011283Y011967D02*
X011046Y011967D01*
X011046Y012203D02*
X011283Y012203D01*
X011283Y012676D02*
X011046Y012676D01*
X010981Y013258D02*
X010981Y013495D01*
X011454Y013495D02*
X011454Y013258D01*
X011283Y011495D02*
X011046Y011495D01*
X011096Y010687D02*
X010859Y010687D01*
X010859Y010215D02*
X011096Y010215D01*
X009875Y010294D02*
X009639Y010294D01*
X009639Y010609D02*
X009875Y010609D01*
X009875Y011081D02*
X009639Y011081D01*
X009639Y009821D02*
X009875Y009821D01*
X011454Y009050D02*
X011690Y009050D01*
X011690Y008577D02*
X011454Y008577D01*
X011466Y008412D02*
X011702Y008412D01*
X011702Y007939D02*
X011466Y007939D01*
X012225Y006227D02*
X012462Y006227D01*
X012462Y005754D02*
X012225Y005754D01*
X012005Y005624D02*
X012255Y005374D01*
X012505Y005624D01*
X013005Y005624D01*
X013255Y005374D01*
X013255Y003874D01*
X013005Y003624D01*
X012505Y003624D01*
X012255Y003874D01*
X012255Y005374D01*
X012005Y005624D02*
X011505Y005624D01*
X011255Y005374D01*
X011255Y003874D01*
X011505Y003624D01*
X012005Y003624D01*
X012255Y003874D01*
X011255Y003874D02*
X011005Y003624D01*
X010505Y003624D01*
X010255Y003874D01*
X010255Y005374D01*
X010505Y005624D01*
X011005Y005624D01*
X011255Y005374D01*
X010718Y005747D02*
X010481Y005747D01*
X010481Y006219D02*
X010718Y006219D01*
X009613Y006213D02*
X009377Y006213D01*
X009377Y005741D02*
X009613Y005741D01*
X014308Y004841D02*
X014544Y004841D01*
X014544Y004369D02*
X014308Y004369D01*
X017040Y004270D02*
X017040Y004506D01*
X017513Y004506D02*
X017513Y004270D01*
X017592Y004270D02*
X017592Y004506D01*
X018064Y004506D02*
X018064Y004270D01*
X006725Y011987D02*
X006725Y012223D01*
X006253Y012223D02*
X006253Y011987D01*
X006096Y011987D02*
X006096Y012223D01*
X005623Y012223D02*
X005623Y011987D01*
X005466Y011987D02*
X005466Y012223D01*
X004993Y012223D02*
X004993Y011987D01*
X004836Y011987D02*
X004836Y012223D01*
X004363Y012223D02*
X004363Y011987D01*
X005985Y014069D02*
X006222Y014069D01*
X006222Y014542D02*
X005985Y014542D01*
X008487Y015859D02*
X008487Y016095D01*
X008960Y016095D02*
X008960Y015859D01*
X009036Y015399D02*
X009036Y016499D01*
X009038Y016516D01*
X009042Y016533D01*
X009049Y016549D01*
X009059Y016563D01*
X009072Y016576D01*
X009086Y016586D01*
X009102Y016593D01*
X009119Y016597D01*
X009136Y016599D01*
X009736Y016599D01*
X009753Y016597D01*
X009770Y016593D01*
X009786Y016586D01*
X009800Y016576D01*
X009813Y016563D01*
X009823Y016549D01*
X009830Y016533D01*
X009834Y016516D01*
X009836Y016499D01*
X009836Y015399D01*
X009834Y015382D01*
X009830Y015365D01*
X009823Y015349D01*
X009813Y015335D01*
X009800Y015322D01*
X009786Y015312D01*
X009770Y015305D01*
X009753Y015301D01*
X009736Y015299D01*
X009136Y015299D01*
X009119Y015301D01*
X009102Y015305D01*
X009086Y015312D01*
X009072Y015322D01*
X009059Y015335D01*
X009049Y015349D01*
X009042Y015365D01*
X009038Y015382D01*
X009036Y015399D01*
X012414Y016189D02*
X012414Y016426D01*
X012887Y016426D02*
X012887Y016189D01*
X015239Y015707D02*
X015239Y015471D01*
X015712Y015471D02*
X015712Y015707D01*
X015830Y015707D02*
X015830Y015471D01*
X016302Y015471D02*
X016302Y015707D01*
X016420Y015707D02*
X016420Y015471D01*
X016893Y015471D02*
X016893Y015707D01*
X017011Y015707D02*
X017011Y015471D01*
X017483Y015471D02*
X017483Y015707D01*
X017633Y016278D02*
X017633Y016514D01*
X018105Y016514D02*
X018105Y016278D01*
X018224Y016278D02*
X018224Y016514D01*
X018696Y016514D02*
X018696Y016278D01*
X015869Y014880D02*
X015633Y014880D01*
X015633Y014408D02*
X015869Y014408D01*
X024166Y015195D02*
X024403Y015195D01*
X024403Y015668D02*
X024166Y015668D01*
X027710Y015668D02*
X027946Y015668D01*
X027946Y015195D02*
X027710Y015195D01*
X030859Y015569D02*
X030859Y015806D01*
X031332Y015806D02*
X031332Y015569D01*
X018861Y021376D02*
X018625Y021376D01*
X018625Y021849D02*
X018861Y021849D01*
X018861Y021928D02*
X018625Y021928D01*
X018625Y022400D02*
X018861Y022400D01*
X018035Y022006D02*
X018035Y021770D01*
X017562Y021770D02*
X017562Y022006D01*
X016499Y021790D02*
X016263Y021790D01*
X016263Y022262D02*
X016499Y022262D01*
X013881Y022282D02*
X013645Y022282D01*
X013645Y021810D02*
X013881Y021810D01*
X004590Y018148D02*
X004590Y017912D01*
X004117Y017912D02*
X004117Y018148D01*
X003920Y020235D02*
X003920Y020471D01*
X003448Y020471D02*
X003448Y020235D01*
X003586Y021731D02*
X003586Y021967D01*
X003684Y021967D02*
X003684Y021731D01*
X004157Y021731D02*
X004157Y021967D01*
X003113Y021967D02*
X003113Y021731D01*
X005783Y009788D02*
X006019Y009788D01*
X006019Y009315D02*
X005783Y009315D01*
X003479Y009329D02*
X003479Y009565D01*
X003007Y009565D02*
X003007Y009329D01*
X002786Y009329D02*
X002786Y009565D01*
X002314Y009565D02*
X002314Y009329D01*
X002119Y009329D02*
X002119Y009565D01*
X001647Y009565D02*
X001647Y009329D01*
X001460Y009329D02*
X001460Y009565D01*
X000987Y009565D02*
X000987Y009329D01*
X000828Y009329D02*
X000828Y009565D01*
X000355Y009565D02*
X000355Y009329D01*
X003253Y008739D02*
X003489Y008739D01*
X003489Y008266D02*
X003253Y008266D01*
X003084Y006081D02*
X003084Y005845D01*
X003556Y005845D02*
X003556Y006081D01*
X003785Y004473D02*
X004021Y004473D01*
X004021Y004000D02*
X003785Y004000D01*
D13*
X003232Y003699D02*
X003051Y003699D01*
X003006Y003744D01*
X003006Y003835D01*
X003051Y003880D01*
X003051Y003994D02*
X003006Y004039D01*
X003006Y004129D01*
X003051Y004174D01*
X003096Y004174D01*
X003277Y003994D01*
X003277Y004174D01*
X003277Y004289D02*
X003277Y004469D01*
X003277Y004379D02*
X003006Y004379D01*
X003096Y004289D01*
X003237Y004605D02*
X003417Y004605D01*
X003462Y004650D01*
X003462Y004741D01*
X003417Y004786D01*
X003417Y004900D02*
X003462Y004945D01*
X003462Y005035D01*
X003417Y005080D01*
X003372Y005080D01*
X003327Y005035D01*
X003327Y004990D01*
X003327Y005035D02*
X003282Y005080D01*
X003237Y005080D01*
X003192Y005035D01*
X003192Y004945D01*
X003237Y004900D01*
X003237Y004786D02*
X003192Y004741D01*
X003192Y004650D01*
X003237Y004605D01*
X003237Y005195D02*
X003192Y005240D01*
X003192Y005330D01*
X003237Y005375D01*
X003417Y005195D01*
X003462Y005240D01*
X003462Y005330D01*
X003417Y005375D01*
X003237Y005375D01*
X003237Y005195D02*
X003417Y005195D01*
X003232Y003880D02*
X003277Y003835D01*
X003277Y003744D01*
X003232Y003699D01*
X002572Y006625D02*
X002392Y006625D01*
X002482Y006625D02*
X002482Y006896D01*
X002392Y006806D01*
X002277Y006896D02*
X002277Y006625D01*
X002097Y006896D01*
X002097Y006625D01*
X001983Y006625D02*
X001893Y006716D01*
X001938Y006716D02*
X001802Y006716D01*
X001802Y006625D02*
X001802Y006896D01*
X001938Y006896D01*
X001983Y006851D01*
X001983Y006761D01*
X001938Y006716D01*
X002434Y006997D02*
X001371Y006997D01*
X000918Y006878D02*
X000760Y006770D01*
X000760Y006948D01*
X000918Y006878D02*
X000918Y006652D01*
X000760Y006770D01*
X000760Y006603D01*
X000760Y007193D02*
X000760Y007361D01*
X000760Y007538D01*
X000918Y007469D02*
X000760Y007361D01*
X000918Y007243D01*
X000918Y007469D01*
X000760Y007784D02*
X000760Y007951D01*
X000760Y008129D01*
X000918Y008059D02*
X000760Y007951D01*
X000918Y007833D01*
X000918Y008059D01*
X000760Y008374D02*
X000760Y008542D01*
X000760Y008719D01*
X000918Y008650D02*
X000760Y008542D01*
X000918Y008424D01*
X000918Y008650D01*
X001371Y008351D02*
X002434Y008351D01*
X002499Y008338D02*
X002499Y008473D01*
X002544Y008518D01*
X002634Y008518D01*
X002679Y008473D01*
X002679Y008338D01*
X002679Y008428D02*
X002769Y008518D01*
X002724Y008632D02*
X002769Y008677D01*
X002769Y008767D01*
X002724Y008812D01*
X002679Y008812D01*
X002634Y008767D01*
X002634Y008632D01*
X002724Y008632D01*
X002634Y008632D02*
X002544Y008722D01*
X002499Y008812D01*
X002146Y008798D02*
X001966Y008798D01*
X001966Y008663D01*
X002056Y008708D01*
X002101Y008708D01*
X002146Y008663D01*
X002146Y008573D01*
X002101Y008528D01*
X002011Y008528D01*
X001966Y008573D01*
X001851Y008528D02*
X001761Y008618D01*
X001806Y008618D02*
X001671Y008618D01*
X001671Y008528D02*
X001671Y008798D01*
X001806Y008798D01*
X001851Y008753D01*
X001851Y008663D01*
X001806Y008618D01*
X002499Y008338D02*
X002769Y008338D01*
X003615Y009082D02*
X003615Y009217D01*
X003660Y009262D01*
X003750Y009262D01*
X003795Y009217D01*
X003795Y009082D01*
X003795Y009172D02*
X003885Y009262D01*
X003885Y009376D02*
X003885Y009557D01*
X003885Y009466D02*
X003615Y009466D01*
X003705Y009376D01*
X003615Y009082D02*
X003885Y009082D01*
X003977Y008839D02*
X004022Y008749D01*
X004112Y008659D01*
X004112Y008794D01*
X004157Y008839D01*
X004202Y008839D01*
X004247Y008794D01*
X004247Y008704D01*
X004202Y008659D01*
X004112Y008659D01*
X004067Y008544D02*
X004022Y008544D01*
X003977Y008499D01*
X003977Y008409D01*
X004022Y008364D01*
X004022Y008250D02*
X003977Y008205D01*
X003977Y008115D01*
X004022Y008069D01*
X004202Y008069D01*
X004247Y008115D01*
X004247Y008205D01*
X004202Y008250D01*
X004247Y008364D02*
X004067Y008544D01*
X004247Y008544D02*
X004247Y008364D01*
X005054Y009210D02*
X005234Y009210D01*
X005279Y009255D01*
X005279Y009345D01*
X005234Y009390D01*
X005279Y009504D02*
X005099Y009685D01*
X005054Y009685D01*
X005009Y009639D01*
X005009Y009549D01*
X005054Y009504D01*
X005054Y009390D02*
X005009Y009345D01*
X005009Y009255D01*
X005054Y009210D01*
X005279Y009504D02*
X005279Y009685D01*
X005234Y009799D02*
X005279Y009844D01*
X005279Y009934D01*
X005234Y009979D01*
X005144Y009979D01*
X005099Y009934D01*
X005099Y009889D01*
X005144Y009799D01*
X005009Y009799D01*
X005009Y009979D01*
X003885Y009806D02*
X003885Y009716D01*
X003840Y009671D01*
X003795Y009671D01*
X003750Y009716D01*
X003750Y009806D01*
X003795Y009851D01*
X003840Y009851D01*
X003885Y009806D01*
X003750Y009806D02*
X003705Y009851D01*
X003660Y009851D01*
X003615Y009806D01*
X003615Y009716D01*
X003660Y009671D01*
X003705Y009671D01*
X003750Y009716D01*
X004477Y012648D02*
X004477Y012783D01*
X004522Y012828D01*
X004612Y012828D01*
X004657Y012783D01*
X004657Y012648D01*
X004747Y012648D02*
X004477Y012648D01*
X004657Y012738D02*
X004747Y012828D01*
X004702Y012943D02*
X004747Y012988D01*
X004747Y013078D01*
X004702Y013123D01*
X004657Y013123D01*
X004612Y013078D01*
X004612Y013033D01*
X004612Y013078D02*
X004567Y013123D01*
X004522Y013123D01*
X004477Y013078D01*
X004477Y012988D01*
X004522Y012943D01*
X004522Y013238D02*
X004477Y013283D01*
X004477Y013373D01*
X004522Y013418D01*
X004702Y013238D01*
X004747Y013283D01*
X004747Y013373D01*
X004702Y013418D01*
X004522Y013418D01*
X004522Y013238D02*
X004702Y013238D01*
X005082Y013285D02*
X005217Y013285D01*
X005172Y013375D01*
X005172Y013420D01*
X005217Y013465D01*
X005307Y013465D01*
X005352Y013420D01*
X005352Y013330D01*
X005307Y013285D01*
X005352Y013171D02*
X005352Y012991D01*
X005352Y013081D02*
X005082Y013081D01*
X005172Y012991D01*
X005127Y012876D02*
X005082Y012831D01*
X005082Y012741D01*
X005127Y012696D01*
X005307Y012696D01*
X005352Y012741D01*
X005352Y012831D01*
X005307Y012876D01*
X005731Y012831D02*
X005731Y012741D01*
X005776Y012696D01*
X005956Y012696D01*
X006001Y012741D01*
X006001Y012831D01*
X005956Y012876D01*
X006001Y012991D02*
X005821Y013171D01*
X005776Y013171D01*
X005731Y013126D01*
X005731Y013036D01*
X005776Y012991D01*
X005776Y012876D02*
X005731Y012831D01*
X006001Y012991D02*
X006001Y013171D01*
X005956Y013285D02*
X006001Y013330D01*
X006001Y013420D01*
X005956Y013465D01*
X005776Y013465D01*
X005731Y013420D01*
X005731Y013330D01*
X005776Y013285D01*
X005821Y013285D01*
X005866Y013330D01*
X005866Y013465D01*
X006367Y013328D02*
X006457Y013238D01*
X006457Y013123D02*
X006502Y013078D01*
X006547Y013123D01*
X006592Y013123D01*
X006637Y013078D01*
X006637Y012988D01*
X006592Y012943D01*
X006637Y012828D02*
X006547Y012738D01*
X006547Y012783D02*
X006547Y012648D01*
X006637Y012648D02*
X006367Y012648D01*
X006367Y012783D01*
X006412Y012828D01*
X006502Y012828D01*
X006547Y012783D01*
X006412Y012943D02*
X006367Y012988D01*
X006367Y013078D01*
X006412Y013123D01*
X006457Y013123D01*
X006502Y013078D02*
X006502Y013033D01*
X006637Y013238D02*
X006637Y013418D01*
X006637Y013328D02*
X006367Y013328D01*
X006892Y013999D02*
X007072Y013999D01*
X007117Y014044D01*
X007117Y014134D01*
X007072Y014179D01*
X007117Y014293D02*
X006937Y014473D01*
X006892Y014473D01*
X006847Y014428D01*
X006847Y014338D01*
X006892Y014293D01*
X006892Y014179D02*
X006847Y014134D01*
X006847Y014044D01*
X006892Y013999D01*
X007117Y014293D02*
X007117Y014473D01*
X007117Y014588D02*
X006937Y014768D01*
X006892Y014768D01*
X006847Y014723D01*
X006847Y014633D01*
X006892Y014588D01*
X007117Y014588D02*
X007117Y014768D01*
X007975Y015642D02*
X007975Y015777D01*
X008020Y015822D01*
X008110Y015822D01*
X008155Y015777D01*
X008155Y015642D01*
X008245Y015642D02*
X007975Y015642D01*
X008155Y015732D02*
X008245Y015822D01*
X008245Y015937D02*
X008245Y016117D01*
X008245Y016027D02*
X007975Y016027D01*
X008065Y015937D01*
X007975Y016232D02*
X007975Y016412D01*
X008020Y016412D01*
X008200Y016232D01*
X008245Y016232D01*
X011152Y014798D02*
X011198Y014843D01*
X011243Y014843D01*
X011288Y014798D01*
X011333Y014843D01*
X011378Y014843D01*
X011423Y014798D01*
X011423Y014708D01*
X011378Y014663D01*
X011423Y014549D02*
X011423Y014369D01*
X011243Y014549D01*
X011198Y014549D01*
X011152Y014504D01*
X011152Y014414D01*
X011198Y014369D01*
X011198Y014254D02*
X011152Y014209D01*
X011152Y014119D01*
X011198Y014074D01*
X011378Y014074D01*
X011423Y014119D01*
X011423Y014209D01*
X011378Y014254D01*
X011198Y014663D02*
X011152Y014708D01*
X011152Y014798D01*
X011288Y014798D02*
X011288Y014753D01*
X011991Y015836D02*
X011991Y015971D01*
X012036Y016016D01*
X012126Y016016D01*
X012171Y015971D01*
X012171Y015836D01*
X012171Y015926D02*
X012261Y016016D01*
X012261Y016130D02*
X012261Y016311D01*
X012261Y016220D02*
X011991Y016220D01*
X012081Y016130D01*
X012036Y016425D02*
X011991Y016470D01*
X011991Y016560D01*
X012036Y016605D01*
X012081Y016605D01*
X012126Y016560D01*
X012171Y016605D01*
X012216Y016605D01*
X012261Y016560D01*
X012261Y016470D01*
X012216Y016425D01*
X012126Y016515D02*
X012126Y016560D01*
X012261Y015836D02*
X011991Y015836D01*
X015250Y016348D02*
X015295Y016303D01*
X015385Y016303D01*
X015430Y016348D01*
X015544Y016348D02*
X015589Y016303D01*
X015679Y016303D01*
X015724Y016348D01*
X015724Y016438D01*
X015679Y016483D01*
X015634Y016483D01*
X015544Y016438D01*
X015544Y016573D01*
X015724Y016573D01*
X015839Y016528D02*
X015884Y016573D01*
X015974Y016573D01*
X016019Y016528D01*
X016019Y016483D01*
X015839Y016303D01*
X016019Y016303D01*
X016039Y016333D02*
X016084Y016288D01*
X016174Y016288D01*
X016219Y016333D01*
X016333Y016333D02*
X016378Y016288D01*
X016468Y016288D01*
X016513Y016333D01*
X016513Y016423D01*
X016468Y016468D01*
X016423Y016468D01*
X016333Y016423D01*
X016333Y016558D01*
X016513Y016558D01*
X016628Y016513D02*
X016628Y016333D01*
X016808Y016513D01*
X016808Y016333D01*
X016763Y016288D01*
X016673Y016288D01*
X016628Y016333D01*
X016628Y016513D02*
X016673Y016558D01*
X016763Y016558D01*
X016808Y016513D01*
X016219Y016513D02*
X016174Y016558D01*
X016084Y016558D01*
X016039Y016513D01*
X016039Y016333D01*
X015430Y016528D02*
X015385Y016573D01*
X015295Y016573D01*
X015250Y016528D01*
X015250Y016348D01*
X016574Y015001D02*
X016528Y014956D01*
X016528Y014866D01*
X016574Y014821D01*
X016619Y014821D01*
X016664Y014866D01*
X016664Y015001D01*
X016754Y015001D02*
X016574Y015001D01*
X016754Y015001D02*
X016799Y014956D01*
X016799Y014866D01*
X016754Y014821D01*
X016754Y014706D02*
X016799Y014661D01*
X016799Y014571D01*
X016754Y014526D01*
X016754Y014412D02*
X016799Y014366D01*
X016799Y014276D01*
X016754Y014231D01*
X016574Y014231D01*
X016528Y014276D01*
X016528Y014366D01*
X016574Y014412D01*
X016574Y014526D02*
X016528Y014571D01*
X016528Y014661D01*
X016574Y014706D01*
X016619Y014706D01*
X016664Y014661D01*
X016709Y014706D01*
X016754Y014706D01*
X016664Y014661D02*
X016664Y014616D01*
X017119Y014706D02*
X017119Y014526D01*
X017254Y014526D01*
X017209Y014616D01*
X017209Y014661D01*
X017254Y014706D01*
X017344Y014706D01*
X017389Y014661D01*
X017389Y014571D01*
X017344Y014526D01*
X017344Y014412D02*
X017389Y014366D01*
X017389Y014276D01*
X017344Y014231D01*
X017164Y014231D01*
X017119Y014276D01*
X017119Y014366D01*
X017164Y014412D01*
X017164Y014821D02*
X017119Y014866D01*
X017119Y014956D01*
X017164Y015001D01*
X017209Y015001D01*
X017254Y014956D01*
X017299Y015001D01*
X017344Y015001D01*
X017389Y014956D01*
X017389Y014866D01*
X017344Y014821D01*
X017254Y014911D02*
X017254Y014956D01*
X017627Y015046D02*
X017627Y015181D01*
X017672Y015226D01*
X017762Y015226D01*
X017807Y015181D01*
X017807Y015046D01*
X017897Y015046D02*
X017627Y015046D01*
X017807Y015136D02*
X017897Y015226D01*
X017897Y015341D02*
X017717Y015521D01*
X017672Y015521D01*
X017627Y015476D01*
X017627Y015386D01*
X017672Y015341D01*
X017897Y015341D02*
X017897Y015521D01*
X017852Y015636D02*
X017672Y015636D01*
X017627Y015681D01*
X017627Y015771D01*
X017672Y015816D01*
X017852Y015636D01*
X017897Y015681D01*
X017897Y015771D01*
X017852Y015816D01*
X017672Y015816D01*
X018289Y015757D02*
X018289Y015577D01*
X018334Y015532D01*
X018424Y015532D01*
X018469Y015577D01*
X018584Y015532D02*
X018764Y015712D01*
X018764Y015757D01*
X018719Y015802D01*
X018629Y015802D01*
X018584Y015757D01*
X018469Y015757D02*
X018424Y015802D01*
X018334Y015802D01*
X018289Y015757D01*
X018584Y015532D02*
X018764Y015532D01*
X018878Y015577D02*
X018878Y015622D01*
X018923Y015667D01*
X019013Y015667D01*
X019059Y015622D01*
X019059Y015577D01*
X019013Y015532D01*
X018923Y015532D01*
X018878Y015577D01*
X018923Y015667D02*
X018878Y015712D01*
X018878Y015757D01*
X018923Y015802D01*
X019013Y015802D01*
X019059Y015757D01*
X019059Y015712D01*
X019013Y015667D01*
X020747Y016353D02*
X020792Y016308D01*
X020972Y016308D01*
X021017Y016353D01*
X021017Y016443D01*
X020972Y016488D01*
X020882Y016602D02*
X020882Y016782D01*
X021017Y016737D02*
X020747Y016737D01*
X020882Y016602D01*
X020792Y016488D02*
X020747Y016443D01*
X020747Y016353D01*
X020792Y016897D02*
X020747Y016942D01*
X020747Y017032D01*
X020792Y017077D01*
X020837Y017077D01*
X021017Y016897D01*
X021017Y017077D01*
X023714Y017262D02*
X023714Y016239D01*
X023714Y016199D01*
X024855Y016199D01*
X024855Y016160D01*
X023714Y016160D01*
X023714Y016199D01*
X023714Y016160D02*
X023714Y015963D01*
X024895Y015963D01*
X024895Y017262D01*
X023714Y017262D01*
X023714Y016239D02*
X024855Y016239D01*
X024450Y015082D02*
X024495Y015037D01*
X024495Y014992D01*
X024450Y014947D01*
X024360Y014947D01*
X024315Y014992D01*
X024315Y015037D01*
X024360Y015082D01*
X024450Y015082D01*
X024450Y014947D02*
X024495Y014902D01*
X024495Y014857D01*
X024450Y014812D01*
X024360Y014812D01*
X024315Y014857D01*
X024315Y014902D01*
X024360Y014947D01*
X024200Y014992D02*
X024200Y015037D01*
X024155Y015082D01*
X024065Y015082D01*
X024020Y015037D01*
X023906Y015037D02*
X023906Y014947D01*
X023861Y014902D01*
X023726Y014902D01*
X023816Y014902D02*
X023906Y014812D01*
X024020Y014812D02*
X024200Y014992D01*
X024200Y014812D02*
X024020Y014812D01*
X023906Y015037D02*
X023861Y015082D01*
X023726Y015082D01*
X023726Y014812D01*
X023359Y013916D02*
X023332Y013914D01*
X023306Y013909D01*
X023281Y013900D01*
X023257Y013887D01*
X023235Y013872D01*
X023215Y013853D01*
X023198Y013833D01*
X023184Y013810D01*
X023173Y013785D01*
X023166Y013759D01*
X023162Y013732D01*
X023162Y013706D01*
X023166Y013679D01*
X023173Y013653D01*
X023184Y013628D01*
X023198Y013605D01*
X023215Y013585D01*
X023235Y013566D01*
X023257Y013551D01*
X023281Y013538D01*
X023306Y013529D01*
X023332Y013524D01*
X023359Y013522D01*
X020351Y012340D02*
X020351Y012295D01*
X020306Y012250D01*
X020216Y012250D01*
X020171Y012295D01*
X020171Y012340D01*
X020216Y012385D01*
X020306Y012385D01*
X020351Y012340D01*
X020306Y012250D02*
X020351Y012205D01*
X020351Y012160D01*
X020306Y012115D01*
X020216Y012115D01*
X020171Y012160D01*
X020171Y012205D01*
X020216Y012250D01*
X020057Y012295D02*
X020012Y012250D01*
X020057Y012205D01*
X020057Y012160D01*
X020012Y012115D01*
X019922Y012115D01*
X019877Y012160D01*
X019762Y012160D02*
X019717Y012115D01*
X019627Y012115D01*
X019582Y012160D01*
X019582Y012340D01*
X019627Y012385D01*
X019717Y012385D01*
X019762Y012340D01*
X019877Y012340D02*
X019922Y012385D01*
X020012Y012385D01*
X020057Y012340D01*
X020057Y012295D01*
X020012Y012250D02*
X019967Y012250D01*
X020221Y011095D02*
X020176Y011050D01*
X020176Y010960D01*
X020221Y010915D01*
X020221Y010800D02*
X020176Y010755D01*
X020176Y010665D01*
X020221Y010620D01*
X020401Y010620D01*
X020446Y010665D01*
X020446Y010755D01*
X020401Y010800D01*
X020446Y010915D02*
X020266Y011095D01*
X020221Y011095D01*
X020446Y011095D02*
X020446Y010915D01*
X018281Y011512D02*
X018281Y011602D01*
X018235Y011647D01*
X018235Y011762D02*
X018281Y011807D01*
X018281Y011897D01*
X018235Y011942D01*
X018190Y011942D01*
X018145Y011897D01*
X018145Y011852D01*
X018145Y011897D02*
X018100Y011942D01*
X018055Y011942D01*
X018010Y011897D01*
X018010Y011807D01*
X018055Y011762D01*
X018055Y011647D02*
X018010Y011602D01*
X018010Y011512D01*
X018055Y011467D01*
X018235Y011467D01*
X018281Y011512D01*
X017867Y011512D02*
X017867Y011602D01*
X017822Y011647D01*
X017822Y011762D02*
X017867Y011807D01*
X017867Y011897D01*
X017822Y011942D01*
X017777Y011942D01*
X017732Y011897D01*
X017732Y011852D01*
X017732Y011897D02*
X017687Y011942D01*
X017642Y011942D01*
X017597Y011897D01*
X017597Y011807D01*
X017642Y011762D01*
X017642Y011647D02*
X017597Y011602D01*
X017597Y011512D01*
X017642Y011467D01*
X017822Y011467D01*
X017867Y011512D01*
X017454Y011512D02*
X017454Y011602D01*
X017409Y011647D01*
X017409Y011762D02*
X017454Y011807D01*
X017454Y011897D01*
X017409Y011942D01*
X017364Y011942D01*
X017319Y011897D01*
X017319Y011852D01*
X017319Y011897D02*
X017274Y011942D01*
X017229Y011942D01*
X017184Y011897D01*
X017184Y011807D01*
X017229Y011762D01*
X017229Y011647D02*
X017184Y011602D01*
X017184Y011512D01*
X017229Y011467D01*
X017409Y011467D01*
X017454Y011512D01*
X017021Y011512D02*
X017021Y011602D01*
X016976Y011647D01*
X016976Y011762D02*
X017021Y011807D01*
X017021Y011897D01*
X016976Y011942D01*
X016931Y011942D01*
X016886Y011897D01*
X016886Y011852D01*
X016886Y011897D02*
X016841Y011942D01*
X016795Y011942D01*
X016750Y011897D01*
X016750Y011807D01*
X016795Y011762D01*
X016795Y011647D02*
X016750Y011602D01*
X016750Y011512D01*
X016795Y011467D01*
X016976Y011467D01*
X017021Y011512D01*
X016976Y012056D02*
X017021Y012101D01*
X017021Y012192D01*
X016976Y012237D01*
X016931Y012237D01*
X016886Y012192D01*
X016886Y012146D01*
X016886Y012192D02*
X016841Y012237D01*
X016795Y012237D01*
X016750Y012192D01*
X016750Y012101D01*
X016795Y012056D01*
X017184Y012056D02*
X017184Y012237D01*
X017274Y012192D02*
X017319Y012237D01*
X017409Y012237D01*
X017454Y012192D01*
X017454Y012101D01*
X017409Y012056D01*
X017319Y012056D02*
X017274Y012146D01*
X017274Y012192D01*
X017319Y012056D02*
X017184Y012056D01*
X017597Y012237D02*
X017642Y012146D01*
X017732Y012056D01*
X017732Y012192D01*
X017777Y012237D01*
X017822Y012237D01*
X017867Y012192D01*
X017867Y012101D01*
X017822Y012056D01*
X017732Y012056D01*
X018010Y012192D02*
X018145Y012056D01*
X018145Y012237D01*
X018010Y012192D02*
X018281Y012192D01*
X016147Y014049D02*
X015967Y014049D01*
X016057Y014049D02*
X016057Y014320D01*
X015967Y014229D01*
X015852Y014184D02*
X015852Y014094D01*
X015807Y014049D01*
X015717Y014049D01*
X015672Y014094D01*
X015672Y014184D02*
X015762Y014229D01*
X015807Y014229D01*
X015852Y014184D01*
X015852Y014320D02*
X015672Y014320D01*
X015672Y014184D01*
X015558Y014094D02*
X015513Y014049D01*
X015423Y014049D01*
X015378Y014094D01*
X015378Y014274D01*
X015423Y014320D01*
X015513Y014320D01*
X015558Y014274D01*
X012954Y012768D02*
X012774Y012768D01*
X012864Y012768D02*
X012864Y013038D01*
X012774Y012948D01*
X012659Y012993D02*
X012614Y013038D01*
X012524Y013038D01*
X012479Y012993D01*
X012479Y012813D01*
X012524Y012768D01*
X012614Y012768D01*
X012659Y012813D01*
X012139Y012703D02*
X011869Y012703D01*
X012004Y012568D01*
X012004Y012748D01*
X012139Y012454D02*
X012139Y012274D01*
X012139Y012364D02*
X011869Y012364D01*
X011959Y012274D01*
X012004Y012159D02*
X012049Y012114D01*
X012049Y011979D01*
X012139Y011979D02*
X011869Y011979D01*
X011869Y012114D01*
X011914Y012159D01*
X012004Y012159D01*
X012049Y012069D02*
X012139Y012159D01*
X011541Y011386D02*
X011361Y011386D01*
X011361Y011251D01*
X011451Y011296D01*
X011496Y011296D01*
X011541Y011251D01*
X011541Y011161D01*
X011496Y011116D01*
X011406Y011116D01*
X011361Y011161D01*
X011246Y011116D02*
X011066Y011116D01*
X011156Y011116D02*
X011156Y011386D01*
X011066Y011296D01*
X010951Y011251D02*
X010906Y011206D01*
X010771Y011206D01*
X010771Y011116D02*
X010771Y011386D01*
X010906Y011386D01*
X010951Y011341D01*
X010951Y011251D01*
X010861Y011206D02*
X010951Y011116D01*
X010046Y011150D02*
X009866Y011150D01*
X009956Y011150D02*
X009956Y011420D01*
X009866Y011330D01*
X009752Y011150D02*
X009571Y011150D01*
X009661Y011150D02*
X009661Y011420D01*
X009571Y011330D01*
X009457Y011285D02*
X009412Y011240D01*
X009277Y011240D01*
X009367Y011240D02*
X009457Y011150D01*
X009457Y011285D02*
X009457Y011375D01*
X009412Y011420D01*
X009277Y011420D01*
X009277Y011150D01*
X009945Y011623D02*
X010103Y011731D01*
X010103Y011553D01*
X009945Y011623D02*
X009945Y011849D01*
X010103Y011731D01*
X010103Y011898D01*
X010103Y012262D02*
X010103Y012439D01*
X010103Y012607D01*
X009945Y012558D02*
X010103Y012439D01*
X009945Y012331D01*
X009945Y012558D01*
X012616Y010798D02*
X012751Y010798D01*
X012796Y010753D01*
X012796Y010663D01*
X012751Y010618D01*
X012616Y010618D01*
X012706Y010618D02*
X012796Y010528D01*
X012910Y010528D02*
X013091Y010528D01*
X013001Y010528D02*
X013001Y010798D01*
X012910Y010708D01*
X012616Y010798D02*
X012616Y010528D01*
X011188Y010056D02*
X011188Y010011D01*
X011143Y009966D01*
X011053Y009966D01*
X011008Y010011D01*
X011008Y010056D01*
X011053Y010101D01*
X011143Y010101D01*
X011188Y010056D01*
X011143Y009966D02*
X011188Y009921D01*
X011188Y009876D01*
X011143Y009831D01*
X011053Y009831D01*
X011008Y009876D01*
X011008Y009921D01*
X011053Y009966D01*
X010893Y009966D02*
X010848Y009921D01*
X010713Y009921D01*
X010713Y009831D02*
X010713Y010101D01*
X010848Y010101D01*
X010893Y010056D01*
X010893Y009966D01*
X010803Y009921D02*
X010893Y009831D01*
X009967Y009663D02*
X009967Y009618D01*
X009922Y009573D01*
X009967Y009528D01*
X009967Y009483D01*
X009922Y009438D01*
X009832Y009438D01*
X009787Y009483D01*
X009673Y009438D02*
X009493Y009438D01*
X009673Y009618D01*
X009673Y009663D01*
X009628Y009708D01*
X009538Y009708D01*
X009493Y009663D01*
X009378Y009663D02*
X009378Y009573D01*
X009333Y009528D01*
X009198Y009528D01*
X009288Y009528D02*
X009378Y009438D01*
X009198Y009438D02*
X009198Y009708D01*
X009333Y009708D01*
X009378Y009663D01*
X009787Y009663D02*
X009832Y009708D01*
X009922Y009708D01*
X009967Y009663D01*
X009922Y009573D02*
X009877Y009573D01*
X011160Y007798D02*
X011115Y007753D01*
X011115Y007573D01*
X011160Y007528D01*
X011250Y007528D01*
X011295Y007573D01*
X011410Y007528D02*
X011590Y007528D01*
X011500Y007528D02*
X011500Y007798D01*
X011410Y007708D01*
X011295Y007753D02*
X011250Y007798D01*
X011160Y007798D01*
X011705Y007798D02*
X011885Y007798D01*
X011885Y007753D01*
X011705Y007573D01*
X011705Y007528D01*
X012074Y006611D02*
X012029Y006566D01*
X012029Y006386D01*
X012074Y006341D01*
X012164Y006341D01*
X012209Y006386D01*
X012324Y006341D02*
X012504Y006341D01*
X012414Y006341D02*
X012414Y006611D01*
X012324Y006521D01*
X012209Y006566D02*
X012164Y006611D01*
X012074Y006611D01*
X012619Y006566D02*
X012619Y006521D01*
X012664Y006476D01*
X012754Y006476D01*
X012799Y006431D01*
X012799Y006386D01*
X012754Y006341D01*
X012664Y006341D01*
X012619Y006386D01*
X012619Y006431D01*
X012664Y006476D01*
X012754Y006476D02*
X012799Y006521D01*
X012799Y006566D01*
X012754Y006611D01*
X012664Y006611D01*
X012619Y006566D01*
X010893Y006415D02*
X010713Y006415D01*
X010848Y006550D01*
X010848Y006280D01*
X010598Y006280D02*
X010418Y006280D01*
X010598Y006460D01*
X010598Y006505D01*
X010553Y006550D01*
X010463Y006550D01*
X010418Y006505D01*
X010303Y006505D02*
X010258Y006550D01*
X010168Y006550D01*
X010123Y006505D01*
X010123Y006325D01*
X010168Y006280D01*
X010258Y006280D01*
X010303Y006325D01*
X010172Y004772D02*
X010172Y004502D01*
X010082Y004502D02*
X010262Y004502D01*
X010082Y004682D02*
X010172Y004772D01*
X009967Y004727D02*
X009967Y004637D01*
X009922Y004592D01*
X009787Y004592D01*
X009787Y004502D02*
X009787Y004772D01*
X009922Y004772D01*
X009967Y004727D01*
X009673Y004772D02*
X009583Y004772D01*
X009628Y004772D02*
X009628Y004547D01*
X009583Y004502D01*
X009538Y004502D01*
X009493Y004547D01*
X014950Y004463D02*
X014995Y004418D01*
X015085Y004418D01*
X015130Y004463D01*
X015245Y004418D02*
X015425Y004418D01*
X015335Y004418D02*
X015335Y004688D01*
X015245Y004598D01*
X015130Y004643D02*
X015085Y004688D01*
X014995Y004688D01*
X014950Y004643D01*
X014950Y004463D01*
X015539Y004463D02*
X015584Y004418D01*
X015674Y004418D01*
X015719Y004463D01*
X015719Y004643D01*
X015674Y004688D01*
X015584Y004688D01*
X015539Y004643D01*
X015539Y004598D01*
X015584Y004553D01*
X015719Y004553D01*
X016450Y004657D02*
X016450Y004837D01*
X016496Y004883D01*
X016586Y004883D01*
X016631Y004837D01*
X016745Y004837D02*
X016790Y004883D01*
X016880Y004883D01*
X016925Y004837D01*
X016925Y004792D01*
X016880Y004747D01*
X016925Y004702D01*
X016925Y004657D01*
X016880Y004612D01*
X016790Y004612D01*
X016745Y004657D01*
X016631Y004657D02*
X016586Y004612D01*
X016496Y004612D01*
X016450Y004657D01*
X016835Y004747D02*
X016880Y004747D01*
X018142Y004828D02*
X018142Y004648D01*
X018187Y004603D01*
X018277Y004603D01*
X018322Y004648D01*
X018437Y004738D02*
X018617Y004738D01*
X018572Y004603D02*
X018572Y004873D01*
X018437Y004738D01*
X018322Y004828D02*
X018277Y004873D01*
X018187Y004873D01*
X018142Y004828D01*
X020056Y005851D02*
X020101Y005806D01*
X020191Y005806D01*
X020236Y005851D01*
X020351Y005806D02*
X020531Y005806D01*
X020441Y005806D02*
X020441Y006076D01*
X020351Y005986D01*
X020236Y006031D02*
X020191Y006076D01*
X020101Y006076D01*
X020056Y006031D01*
X020056Y005851D01*
X020646Y005806D02*
X020826Y005806D01*
X020736Y005806D02*
X020736Y006076D01*
X020646Y005986D01*
X019825Y007479D02*
X019870Y007524D01*
X019870Y007615D01*
X019825Y007660D01*
X019870Y007774D02*
X019870Y007954D01*
X019870Y007864D02*
X019600Y007864D01*
X019690Y007774D01*
X019645Y007660D02*
X019600Y007615D01*
X019600Y007524D01*
X019645Y007479D01*
X019825Y007479D01*
X019825Y008069D02*
X019645Y008249D01*
X019825Y008249D01*
X019870Y008204D01*
X019870Y008114D01*
X019825Y008069D01*
X019645Y008069D01*
X019600Y008114D01*
X019600Y008204D01*
X019645Y008249D01*
X018944Y008575D02*
X018944Y008755D01*
X018899Y008801D01*
X018809Y008801D01*
X018764Y008755D01*
X018764Y008710D01*
X018809Y008665D01*
X018944Y008665D01*
X018944Y008575D02*
X018899Y008530D01*
X018809Y008530D01*
X018764Y008575D01*
X018649Y008575D02*
X018604Y008530D01*
X018514Y008530D01*
X018469Y008575D01*
X018469Y008755D01*
X018514Y008801D01*
X018604Y008801D01*
X018649Y008755D01*
X023714Y008758D02*
X024895Y008758D01*
X024895Y010058D01*
X023714Y010058D01*
X023714Y009034D01*
X023714Y008995D01*
X024855Y008995D01*
X024855Y008955D01*
X023714Y008955D01*
X023714Y008995D01*
X023714Y009034D02*
X024855Y009034D01*
X023714Y008955D02*
X023714Y008758D01*
X023709Y008072D02*
X023664Y008027D01*
X023664Y007937D01*
X023709Y007892D01*
X023754Y007892D01*
X023799Y007937D01*
X023799Y008072D01*
X023889Y008072D02*
X023709Y008072D01*
X023889Y008072D02*
X023935Y008027D01*
X023935Y007937D01*
X023889Y007892D01*
X023935Y007777D02*
X023935Y007597D01*
X023754Y007777D01*
X023709Y007777D01*
X023664Y007732D01*
X023664Y007642D01*
X023709Y007597D01*
X023709Y007482D02*
X023799Y007482D01*
X023844Y007437D01*
X023844Y007302D01*
X023844Y007392D02*
X023935Y007482D01*
X023935Y007302D02*
X023664Y007302D01*
X023664Y007437D01*
X023709Y007482D01*
X023754Y005071D02*
X023799Y005071D01*
X023844Y005026D01*
X023889Y005071D01*
X023934Y005071D01*
X023979Y005026D01*
X023979Y004936D01*
X023934Y004891D01*
X023979Y004777D02*
X023979Y004596D01*
X023979Y004686D02*
X023709Y004686D01*
X023799Y004596D01*
X023754Y004482D02*
X023709Y004437D01*
X023709Y004347D01*
X023754Y004302D01*
X023934Y004302D01*
X023979Y004347D01*
X023979Y004437D01*
X023934Y004482D01*
X023754Y004891D02*
X023709Y004936D01*
X023709Y005026D01*
X023754Y005071D01*
X023844Y005026D02*
X023844Y004981D01*
X027469Y005626D02*
X027514Y005581D01*
X027694Y005581D01*
X027739Y005626D01*
X027739Y005716D01*
X027694Y005761D01*
X027694Y005875D02*
X027649Y005875D01*
X027604Y005920D01*
X027604Y006010D01*
X027649Y006055D01*
X027694Y006055D01*
X027739Y006010D01*
X027739Y005920D01*
X027694Y005875D01*
X027604Y005920D02*
X027559Y005875D01*
X027514Y005875D01*
X027469Y005920D01*
X027469Y006010D01*
X027514Y006055D01*
X027559Y006055D01*
X027604Y006010D01*
X027514Y005761D02*
X027469Y005716D01*
X027469Y005626D01*
X029701Y004919D02*
X029701Y004829D01*
X029746Y004784D01*
X029701Y004919D02*
X029746Y004964D01*
X029791Y004964D01*
X029971Y004784D01*
X029971Y004964D01*
X029971Y004669D02*
X029971Y004489D01*
X029971Y004579D02*
X029701Y004579D01*
X029791Y004489D01*
X029746Y004374D02*
X029701Y004329D01*
X029701Y004239D01*
X029746Y004194D01*
X029926Y004194D01*
X029971Y004239D01*
X029971Y004329D01*
X029926Y004374D01*
X030672Y007460D02*
X030672Y007595D01*
X030717Y007640D01*
X030807Y007640D01*
X030852Y007595D01*
X030852Y007460D01*
X030852Y007550D02*
X030942Y007640D01*
X030942Y007754D02*
X030942Y007935D01*
X030942Y007844D02*
X030672Y007844D01*
X030762Y007754D01*
X030672Y007460D02*
X030942Y007460D01*
X030897Y008049D02*
X030717Y008229D01*
X030897Y008229D01*
X030942Y008184D01*
X030942Y008094D01*
X030897Y008049D01*
X030717Y008049D01*
X030672Y008094D01*
X030672Y008184D01*
X030717Y008229D01*
X030889Y008758D02*
X032070Y008758D01*
X032070Y010058D01*
X030889Y010058D01*
X030889Y009034D01*
X030889Y008995D01*
X032031Y008995D01*
X032031Y008955D01*
X030889Y008955D01*
X030889Y008995D01*
X030889Y009034D02*
X032031Y009034D01*
X030889Y008955D02*
X030889Y008758D01*
X028399Y008758D02*
X028399Y010058D01*
X027218Y010058D01*
X027218Y009034D01*
X027218Y008995D01*
X028359Y008995D01*
X028359Y008955D01*
X027218Y008955D01*
X027218Y008995D01*
X027218Y009034D02*
X028359Y009034D01*
X028399Y008758D02*
X027218Y008758D01*
X027218Y008955D01*
X027975Y008297D02*
X028246Y008297D01*
X028246Y008207D02*
X028246Y008387D01*
X028065Y008207D02*
X027975Y008297D01*
X028020Y008092D02*
X027975Y008047D01*
X027975Y007957D01*
X028020Y007912D01*
X028020Y007797D02*
X028110Y007797D01*
X028155Y007752D01*
X028155Y007617D01*
X028155Y007707D02*
X028246Y007797D01*
X028246Y007912D02*
X028065Y008092D01*
X028020Y008092D01*
X028246Y008092D02*
X028246Y007912D01*
X028020Y007797D02*
X027975Y007752D01*
X027975Y007617D01*
X028246Y007617D01*
X029942Y011583D02*
X030122Y011583D01*
X030167Y011628D01*
X030167Y011718D01*
X030122Y011763D01*
X030167Y011878D02*
X030167Y012058D01*
X030167Y011968D02*
X029897Y011968D01*
X029987Y011878D01*
X029942Y011763D02*
X029897Y011718D01*
X029897Y011628D01*
X029942Y011583D01*
X030032Y012172D02*
X030032Y012352D01*
X029897Y012307D02*
X030032Y012172D01*
X030167Y012307D02*
X029897Y012307D01*
X031027Y013374D02*
X032208Y013374D01*
X032208Y014398D01*
X032208Y014437D01*
X031066Y014437D01*
X031066Y014477D01*
X032208Y014477D01*
X032208Y014437D01*
X032208Y014398D02*
X031066Y014398D01*
X031027Y014674D02*
X031027Y013374D01*
X032208Y014477D02*
X032208Y014674D01*
X031027Y014674D01*
X031445Y015364D02*
X031445Y015499D01*
X031490Y015544D01*
X031580Y015544D01*
X031625Y015499D01*
X031625Y015364D01*
X031625Y015454D02*
X031716Y015544D01*
X031671Y015659D02*
X031716Y015704D01*
X031716Y015794D01*
X031671Y015839D01*
X031490Y015839D01*
X031445Y015794D01*
X031445Y015704D01*
X031490Y015659D01*
X031535Y015659D01*
X031580Y015704D01*
X031580Y015839D01*
X031445Y015364D02*
X031716Y015364D01*
X028418Y015963D02*
X028418Y017262D01*
X027237Y017262D01*
X027237Y016239D01*
X027237Y016199D01*
X028379Y016199D01*
X028379Y016160D01*
X027237Y016160D01*
X027237Y016199D01*
X027237Y016160D02*
X027237Y015963D01*
X028418Y015963D01*
X028379Y016239D02*
X027237Y016239D01*
X027269Y015082D02*
X027404Y015082D01*
X027449Y015037D01*
X027449Y014947D01*
X027404Y014902D01*
X027269Y014902D01*
X027359Y014902D02*
X027449Y014812D01*
X027564Y014812D02*
X027744Y014812D01*
X027654Y014812D02*
X027654Y015082D01*
X027564Y014992D01*
X027858Y014947D02*
X027858Y014857D01*
X027903Y014812D01*
X027993Y014812D01*
X028038Y014857D01*
X028038Y014902D01*
X027993Y014947D01*
X027858Y014947D01*
X027948Y015037D01*
X028038Y015082D01*
X027269Y015082D02*
X027269Y014812D01*
X019584Y020259D02*
X019584Y020334D01*
X019509Y020409D01*
X019133Y020409D01*
X019133Y020334D02*
X019133Y020484D01*
X019284Y020644D02*
X019133Y020794D01*
X019584Y020794D01*
X019584Y020644D02*
X019584Y020945D01*
X019229Y021218D02*
X019049Y021038D01*
X019049Y020993D01*
X018935Y020993D02*
X018754Y020993D01*
X018935Y021173D01*
X018935Y021218D01*
X018890Y021263D01*
X018800Y021263D01*
X018754Y021218D01*
X018640Y021218D02*
X018640Y021128D01*
X018595Y021083D01*
X018460Y021083D01*
X018550Y021083D02*
X018640Y020993D01*
X018460Y020993D02*
X018460Y021263D01*
X018595Y021263D01*
X018640Y021218D01*
X019049Y021263D02*
X019229Y021263D01*
X019229Y021218D01*
X019306Y022115D02*
X019306Y022385D01*
X019441Y022385D01*
X019486Y022340D01*
X019486Y022250D01*
X019441Y022205D01*
X019306Y022205D01*
X019396Y022205D02*
X019486Y022115D01*
X019601Y022115D02*
X019781Y022295D01*
X019781Y022340D01*
X019736Y022385D01*
X019646Y022385D01*
X019601Y022340D01*
X019601Y022115D02*
X019781Y022115D01*
X019896Y022160D02*
X019896Y022250D01*
X020031Y022250D01*
X020076Y022205D01*
X020076Y022160D01*
X020031Y022115D01*
X019941Y022115D01*
X019896Y022160D01*
X019896Y022250D02*
X019986Y022340D01*
X020076Y022385D01*
X017448Y022045D02*
X017403Y022045D01*
X017223Y022225D01*
X017178Y022225D01*
X017178Y022045D01*
X017178Y021886D02*
X017313Y021750D01*
X017313Y021931D01*
X017448Y021886D02*
X017178Y021886D01*
X017223Y021636D02*
X017178Y021591D01*
X017178Y021501D01*
X017223Y021456D01*
X017403Y021456D01*
X017448Y021501D01*
X017448Y021591D01*
X017403Y021636D01*
X015771Y021677D02*
X015681Y021587D01*
X015681Y021632D02*
X015681Y021497D01*
X015771Y021497D02*
X015500Y021497D01*
X015500Y021632D01*
X015545Y021677D01*
X015636Y021677D01*
X015681Y021632D01*
X015771Y021791D02*
X015591Y021971D01*
X015545Y021971D01*
X015500Y021926D01*
X015500Y021836D01*
X015545Y021791D01*
X015771Y021791D02*
X015771Y021971D01*
X015726Y022086D02*
X015771Y022131D01*
X015771Y022221D01*
X015726Y022266D01*
X015636Y022266D01*
X015591Y022221D01*
X015591Y022176D01*
X015636Y022086D01*
X015500Y022086D01*
X015500Y022266D01*
X014747Y022221D02*
X014477Y022221D01*
X014612Y022086D01*
X014612Y022266D01*
X014567Y021971D02*
X014522Y021971D01*
X014477Y021926D01*
X014477Y021836D01*
X014522Y021791D01*
X014522Y021677D02*
X014612Y021677D01*
X014657Y021632D01*
X014657Y021497D01*
X014657Y021587D02*
X014747Y021677D01*
X014747Y021791D02*
X014567Y021971D01*
X014747Y021971D02*
X014747Y021791D01*
X014522Y021677D02*
X014477Y021632D01*
X014477Y021497D01*
X014747Y021497D01*
X012552Y019900D02*
X010584Y019900D01*
X004830Y022130D02*
X004785Y022085D01*
X004695Y022085D01*
X004650Y022130D01*
X004535Y022085D02*
X004445Y022175D01*
X004490Y022175D02*
X004355Y022175D01*
X004355Y022085D02*
X004355Y022355D01*
X004490Y022355D01*
X004535Y022310D01*
X004535Y022220D01*
X004490Y022175D01*
X004650Y022310D02*
X004695Y022355D01*
X004785Y022355D01*
X004830Y022310D01*
X004830Y022265D01*
X004785Y022220D01*
X004830Y022175D01*
X004830Y022130D01*
X004785Y022220D02*
X004740Y022220D01*
X002881Y022265D02*
X002701Y022085D01*
X002881Y022085D01*
X002881Y022265D02*
X002881Y022310D01*
X002836Y022355D01*
X002746Y022355D01*
X002701Y022310D01*
X002586Y022310D02*
X002586Y022220D01*
X002541Y022175D01*
X002406Y022175D01*
X002406Y022085D02*
X002406Y022355D01*
X002541Y022355D01*
X002586Y022310D01*
X002496Y022175D02*
X002586Y022085D01*
X003458Y019703D02*
X003593Y019703D01*
X003639Y019658D01*
X003639Y019568D01*
X003593Y019523D01*
X003458Y019523D01*
X003458Y019433D02*
X003458Y019703D01*
X003548Y019523D02*
X003639Y019433D01*
X003753Y019433D02*
X003753Y019478D01*
X003933Y019658D01*
X003933Y019703D01*
X003753Y019703D01*
X004196Y019395D02*
X004196Y019305D01*
X004241Y019260D01*
X004196Y019395D02*
X004241Y019440D01*
X004286Y019440D01*
X004466Y019260D01*
X004466Y019440D01*
X004466Y019145D02*
X004466Y018965D01*
X004466Y019055D02*
X004196Y019055D01*
X004286Y018965D01*
X004241Y018851D02*
X004331Y018851D01*
X004376Y018805D01*
X004376Y018670D01*
X004466Y018670D02*
X004196Y018670D01*
X004196Y018805D01*
X004241Y018851D01*
X004376Y018760D02*
X004466Y018851D01*
X005082Y013465D02*
X005082Y013285D01*
X019509Y020184D02*
X019584Y020259D01*
D14*
X019649Y020510D02*
X019649Y021770D01*
X020672Y021770D02*
X020672Y020510D01*
X020672Y019880D02*
X020672Y018621D01*
X019649Y018621D02*
X019649Y019880D01*
X018889Y019800D02*
X018889Y019300D01*
X018639Y019050D01*
X018139Y019050D01*
X017889Y019300D01*
X017889Y019800D01*
X018139Y020050D01*
X017889Y020300D01*
X017889Y020800D01*
X018139Y021050D01*
X018639Y021050D01*
X018889Y020800D01*
X018889Y020300D01*
X018639Y020050D01*
X018889Y019800D01*
X018448Y018640D02*
X018448Y017380D01*
X017424Y017380D02*
X017424Y018640D01*
X018812Y016721D02*
X018814Y016792D01*
X018820Y016863D01*
X018830Y016934D01*
X018844Y017003D01*
X018861Y017072D01*
X018883Y017140D01*
X018908Y017207D01*
X018937Y017272D01*
X018969Y017335D01*
X019005Y017397D01*
X019044Y017456D01*
X019087Y017513D01*
X019132Y017568D01*
X019181Y017620D01*
X019232Y017669D01*
X019286Y017715D01*
X019343Y017759D01*
X019401Y017799D01*
X019462Y017835D01*
X019525Y017869D01*
X019590Y017898D01*
X019656Y017924D01*
X019724Y017947D01*
X019792Y017965D01*
X019862Y017980D01*
X019932Y017991D01*
X020003Y017998D01*
X020074Y018001D01*
X020145Y018000D01*
X020216Y017995D01*
X020287Y017986D01*
X020357Y017973D01*
X020426Y017957D01*
X020494Y017936D01*
X020561Y017912D01*
X020627Y017884D01*
X020690Y017852D01*
X020752Y017817D01*
X020812Y017779D01*
X020870Y017737D01*
X020925Y017693D01*
X020978Y017645D01*
X021028Y017594D01*
X021075Y017541D01*
X021119Y017485D01*
X021160Y017427D01*
X021198Y017366D01*
X021232Y017304D01*
X021262Y017239D01*
X021289Y017174D01*
X021313Y017106D01*
X021332Y017038D01*
X021348Y016969D01*
X021360Y016898D01*
X021368Y016828D01*
X021372Y016757D01*
X021372Y016685D01*
X021368Y016614D01*
X021360Y016544D01*
X021348Y016473D01*
X021332Y016404D01*
X021313Y016336D01*
X021289Y016268D01*
X021262Y016203D01*
X021232Y016138D01*
X021198Y016076D01*
X021160Y016015D01*
X021119Y015957D01*
X021075Y015901D01*
X021028Y015848D01*
X020978Y015797D01*
X020925Y015749D01*
X020870Y015705D01*
X020812Y015663D01*
X020752Y015625D01*
X020690Y015590D01*
X020627Y015558D01*
X020561Y015530D01*
X020494Y015506D01*
X020426Y015485D01*
X020357Y015469D01*
X020287Y015456D01*
X020216Y015447D01*
X020145Y015442D01*
X020074Y015441D01*
X020003Y015444D01*
X019932Y015451D01*
X019862Y015462D01*
X019792Y015477D01*
X019724Y015495D01*
X019656Y015518D01*
X019590Y015544D01*
X019525Y015573D01*
X019462Y015607D01*
X019401Y015643D01*
X019343Y015683D01*
X019286Y015727D01*
X019232Y015773D01*
X019181Y015822D01*
X019132Y015874D01*
X019087Y015929D01*
X019044Y015986D01*
X019005Y016045D01*
X018969Y016107D01*
X018937Y016170D01*
X018908Y016235D01*
X018883Y016302D01*
X018861Y016370D01*
X018844Y016439D01*
X018830Y016508D01*
X018820Y016579D01*
X018814Y016650D01*
X018812Y016721D01*
X019592Y016471D02*
X019592Y015971D01*
X014727Y015550D02*
X013468Y015550D01*
X013468Y015432D02*
X014727Y015432D01*
X014727Y014408D02*
X013468Y014408D01*
X013468Y014290D02*
X014727Y014290D01*
X014727Y013266D02*
X013468Y013266D01*
X014699Y009880D02*
X014699Y005038D01*
X017020Y005038D01*
X017020Y009880D01*
X014699Y009880D01*
X015741Y009880D02*
X015743Y009860D01*
X015748Y009840D01*
X015757Y009821D01*
X015769Y009804D01*
X015783Y009790D01*
X015800Y009778D01*
X015819Y009769D01*
X015839Y009764D01*
X015859Y009762D01*
X015879Y009764D01*
X015899Y009769D01*
X015918Y009778D01*
X015935Y009790D01*
X015949Y009804D01*
X015961Y009821D01*
X015970Y009840D01*
X015975Y009860D01*
X015977Y009880D01*
X009935Y004335D02*
X009795Y004195D01*
X009935Y004335D02*
X009935Y003914D01*
X009795Y003914D02*
X010075Y003914D01*
X006074Y010158D02*
X005574Y010158D01*
X005324Y010408D01*
X005324Y010908D01*
X005574Y011158D01*
X006074Y011158D01*
X006324Y010908D01*
X006324Y010408D01*
X006074Y010158D01*
X005324Y010408D02*
X005074Y010158D01*
X004574Y010158D01*
X004324Y010408D01*
X004324Y010908D01*
X004574Y011158D01*
X005074Y011158D01*
X005324Y010908D01*
X004324Y010908D02*
X004074Y011158D01*
X003574Y011158D01*
X003324Y010908D01*
X003324Y010408D01*
X003074Y010158D01*
X002574Y010158D01*
X002324Y010408D01*
X002324Y010908D01*
X002574Y011158D01*
X003074Y011158D01*
X003324Y010908D01*
X003324Y010408D02*
X003574Y010158D01*
X004074Y010158D01*
X004324Y010408D01*
X002324Y010408D02*
X002074Y010158D01*
X001574Y010158D01*
X001324Y010408D01*
X001324Y010158D01*
X000324Y010158D01*
X000324Y011158D01*
X001324Y011158D01*
X001324Y010908D01*
X001324Y010408D01*
X001324Y010908D02*
X001574Y011158D01*
X002074Y011158D01*
X002324Y010908D01*
X013468Y016573D02*
X014727Y016573D01*
X020876Y020300D02*
X020878Y020392D01*
X020884Y020485D01*
X020894Y020577D01*
X020908Y020668D01*
X020926Y020759D01*
X020947Y020849D01*
X020973Y020938D01*
X021002Y021026D01*
X021035Y021112D01*
X021072Y021197D01*
X021112Y021280D01*
X021156Y021362D01*
X021204Y021441D01*
X021255Y021518D01*
X021309Y021593D01*
X021366Y021666D01*
X021426Y021736D01*
X021489Y021804D01*
X021556Y021869D01*
X021624Y021930D01*
X021696Y021989D01*
X021770Y022045D01*
X021846Y022097D01*
X021924Y022146D01*
X022005Y022192D01*
X022087Y022234D01*
X022171Y022273D01*
X022257Y022308D01*
X022344Y022339D01*
X022432Y022366D01*
X022522Y022390D01*
X022612Y022410D01*
X022703Y022426D01*
X022795Y022438D01*
X022887Y022446D01*
X022980Y022450D01*
X023072Y022450D01*
X023165Y022446D01*
X023257Y022438D01*
X023349Y022426D01*
X023440Y022410D01*
X023530Y022390D01*
X023620Y022366D01*
X023708Y022339D01*
X023795Y022308D01*
X023881Y022273D01*
X023965Y022234D01*
X024047Y022192D01*
X024128Y022146D01*
X024206Y022097D01*
X024282Y022045D01*
X024356Y021989D01*
X024428Y021930D01*
X024496Y021869D01*
X024563Y021804D01*
X024626Y021736D01*
X024686Y021666D01*
X024743Y021593D01*
X024797Y021518D01*
X024848Y021441D01*
X024896Y021362D01*
X024940Y021280D01*
X024980Y021197D01*
X025017Y021112D01*
X025050Y021026D01*
X025079Y020938D01*
X025105Y020849D01*
X025126Y020759D01*
X025144Y020668D01*
X025158Y020577D01*
X025168Y020485D01*
X025174Y020392D01*
X025176Y020300D01*
X025174Y020208D01*
X025168Y020115D01*
X025158Y020023D01*
X025144Y019932D01*
X025126Y019841D01*
X025105Y019751D01*
X025079Y019662D01*
X025050Y019574D01*
X025017Y019488D01*
X024980Y019403D01*
X024940Y019320D01*
X024896Y019238D01*
X024848Y019159D01*
X024797Y019082D01*
X024743Y019007D01*
X024686Y018934D01*
X024626Y018864D01*
X024563Y018796D01*
X024496Y018731D01*
X024428Y018670D01*
X024356Y018611D01*
X024282Y018555D01*
X024206Y018503D01*
X024128Y018454D01*
X024047Y018408D01*
X023965Y018366D01*
X023881Y018327D01*
X023795Y018292D01*
X023708Y018261D01*
X023620Y018234D01*
X023530Y018210D01*
X023440Y018190D01*
X023349Y018174D01*
X023257Y018162D01*
X023165Y018154D01*
X023072Y018150D01*
X022980Y018150D01*
X022887Y018154D01*
X022795Y018162D01*
X022703Y018174D01*
X022612Y018190D01*
X022522Y018210D01*
X022432Y018234D01*
X022344Y018261D01*
X022257Y018292D01*
X022171Y018327D01*
X022087Y018366D01*
X022005Y018408D01*
X021924Y018454D01*
X021846Y018503D01*
X021770Y018555D01*
X021696Y018611D01*
X021624Y018670D01*
X021556Y018731D01*
X021489Y018796D01*
X021426Y018864D01*
X021366Y018934D01*
X021309Y019007D01*
X021255Y019082D01*
X021204Y019159D01*
X021156Y019238D01*
X021112Y019320D01*
X021072Y019403D01*
X021035Y019488D01*
X021002Y019574D01*
X020973Y019662D01*
X020947Y019751D01*
X020926Y019841D01*
X020908Y019932D01*
X020894Y020023D01*
X020884Y020115D01*
X020878Y020208D01*
X020876Y020300D01*
X023526Y021050D02*
X023526Y021550D01*
X030308Y011908D02*
X030310Y011970D01*
X030316Y012033D01*
X030326Y012094D01*
X030340Y012155D01*
X030357Y012215D01*
X030378Y012274D01*
X030404Y012331D01*
X030432Y012386D01*
X030464Y012440D01*
X030500Y012491D01*
X030538Y012541D01*
X030580Y012587D01*
X030624Y012631D01*
X030672Y012672D01*
X030721Y012710D01*
X030773Y012744D01*
X030827Y012775D01*
X030883Y012803D01*
X030941Y012827D01*
X031000Y012848D01*
X031060Y012864D01*
X031121Y012877D01*
X031183Y012886D01*
X031245Y012891D01*
X031308Y012892D01*
X031370Y012889D01*
X031432Y012882D01*
X031494Y012871D01*
X031554Y012856D01*
X031614Y012838D01*
X031672Y012816D01*
X031729Y012790D01*
X031784Y012760D01*
X031837Y012727D01*
X031888Y012691D01*
X031936Y012652D01*
X031982Y012609D01*
X032025Y012564D01*
X032065Y012516D01*
X032102Y012466D01*
X032136Y012413D01*
X032167Y012359D01*
X032193Y012303D01*
X032217Y012245D01*
X032236Y012185D01*
X032252Y012125D01*
X032264Y012063D01*
X032272Y012002D01*
X032276Y011939D01*
X032276Y011877D01*
X032272Y011814D01*
X032264Y011753D01*
X032252Y011691D01*
X032236Y011631D01*
X032217Y011571D01*
X032193Y011513D01*
X032167Y011457D01*
X032136Y011403D01*
X032102Y011350D01*
X032065Y011300D01*
X032025Y011252D01*
X031982Y011207D01*
X031936Y011164D01*
X031888Y011125D01*
X031837Y011089D01*
X031784Y011056D01*
X031729Y011026D01*
X031672Y011000D01*
X031614Y010978D01*
X031554Y010960D01*
X031494Y010945D01*
X031432Y010934D01*
X031370Y010927D01*
X031308Y010924D01*
X031245Y010925D01*
X031183Y010930D01*
X031121Y010939D01*
X031060Y010952D01*
X031000Y010968D01*
X030941Y010989D01*
X030883Y011013D01*
X030827Y011041D01*
X030773Y011072D01*
X030721Y011106D01*
X030672Y011144D01*
X030624Y011185D01*
X030580Y011229D01*
X030538Y011275D01*
X030500Y011325D01*
X030464Y011376D01*
X030432Y011430D01*
X030404Y011485D01*
X030378Y011542D01*
X030357Y011601D01*
X030340Y011661D01*
X030326Y011722D01*
X030316Y011783D01*
X030310Y011846D01*
X030308Y011908D01*
X030742Y011608D02*
X030742Y011208D01*
X029126Y005403D02*
X029126Y005003D01*
X027592Y004703D02*
X027594Y004765D01*
X027600Y004828D01*
X027610Y004889D01*
X027624Y004950D01*
X027641Y005010D01*
X027662Y005069D01*
X027688Y005126D01*
X027716Y005181D01*
X027748Y005235D01*
X027784Y005286D01*
X027822Y005336D01*
X027864Y005382D01*
X027908Y005426D01*
X027956Y005467D01*
X028005Y005505D01*
X028057Y005539D01*
X028111Y005570D01*
X028167Y005598D01*
X028225Y005622D01*
X028284Y005643D01*
X028344Y005659D01*
X028405Y005672D01*
X028467Y005681D01*
X028529Y005686D01*
X028592Y005687D01*
X028654Y005684D01*
X028716Y005677D01*
X028778Y005666D01*
X028838Y005651D01*
X028898Y005633D01*
X028956Y005611D01*
X029013Y005585D01*
X029068Y005555D01*
X029121Y005522D01*
X029172Y005486D01*
X029220Y005447D01*
X029266Y005404D01*
X029309Y005359D01*
X029349Y005311D01*
X029386Y005261D01*
X029420Y005208D01*
X029451Y005154D01*
X029477Y005098D01*
X029501Y005040D01*
X029520Y004980D01*
X029536Y004920D01*
X029548Y004858D01*
X029556Y004797D01*
X029560Y004734D01*
X029560Y004672D01*
X029556Y004609D01*
X029548Y004548D01*
X029536Y004486D01*
X029520Y004426D01*
X029501Y004366D01*
X029477Y004308D01*
X029451Y004252D01*
X029420Y004198D01*
X029386Y004145D01*
X029349Y004095D01*
X029309Y004047D01*
X029266Y004002D01*
X029220Y003959D01*
X029172Y003920D01*
X029121Y003884D01*
X029068Y003851D01*
X029013Y003821D01*
X028956Y003795D01*
X028898Y003773D01*
X028838Y003755D01*
X028778Y003740D01*
X028716Y003729D01*
X028654Y003722D01*
X028592Y003719D01*
X028529Y003720D01*
X028467Y003725D01*
X028405Y003734D01*
X028344Y003747D01*
X028284Y003763D01*
X028225Y003784D01*
X028167Y003808D01*
X028111Y003836D01*
X028057Y003867D01*
X028005Y003901D01*
X027956Y003939D01*
X027908Y003980D01*
X027864Y004024D01*
X027822Y004070D01*
X027784Y004120D01*
X027748Y004171D01*
X027716Y004225D01*
X027688Y004280D01*
X027662Y004337D01*
X027641Y004396D01*
X027624Y004456D01*
X027610Y004517D01*
X027600Y004578D01*
X027594Y004641D01*
X027592Y004703D01*
D15*
X016249Y010839D02*
X016249Y012859D01*
X014229Y012859D01*
X014229Y010839D01*
X016249Y010839D01*
X015829Y010839D02*
X015679Y010839D01*
X015749Y010839D02*
X016249Y011339D01*
X016249Y011409D02*
X016249Y011259D01*
X016249Y011519D02*
X016249Y011669D01*
X016249Y011779D02*
X016249Y011919D01*
X016249Y012029D02*
X016249Y012179D01*
X016249Y012289D02*
X016249Y012439D01*
X015829Y012859D02*
X015679Y012859D01*
X015569Y012859D02*
X015419Y012859D01*
X015309Y012859D02*
X015169Y012859D01*
X015059Y012859D02*
X014909Y012859D01*
X014799Y012859D02*
X014649Y012859D01*
X014229Y012439D02*
X014229Y012289D01*
X014229Y012179D02*
X014229Y012029D01*
X014229Y011919D02*
X014229Y011779D01*
X014229Y011669D02*
X014229Y011519D01*
X014229Y011409D02*
X014229Y011259D01*
X014649Y010839D02*
X014799Y010839D01*
X014909Y010839D02*
X015059Y010839D01*
X015169Y010839D02*
X015309Y010839D01*
X015419Y010839D02*
X015569Y010839D01*
X018048Y012926D02*
X020068Y012926D01*
X020068Y014946D01*
X018048Y014946D01*
X018048Y012926D01*
X018468Y012926D02*
X018618Y012926D01*
X018728Y012926D02*
X018878Y012926D01*
X018988Y012926D02*
X019128Y012926D01*
X019238Y012926D02*
X019388Y012926D01*
X019498Y012926D02*
X019648Y012926D01*
X020068Y013346D02*
X020068Y013496D01*
X020068Y013606D02*
X020068Y013756D01*
X020068Y013866D02*
X020068Y014006D01*
X020068Y014116D02*
X020068Y014266D01*
X020068Y014376D02*
X020068Y014526D01*
X020068Y014446D02*
X019568Y014946D01*
X019498Y014946D02*
X019648Y014946D01*
X019388Y014946D02*
X019238Y014946D01*
X019128Y014946D02*
X018988Y014946D01*
X018878Y014946D02*
X018728Y014946D01*
X018618Y014946D02*
X018468Y014946D01*
X018048Y014526D02*
X018048Y014376D01*
X018048Y014266D02*
X018048Y014116D01*
X018048Y014006D02*
X018048Y013866D01*
X018048Y013756D02*
X018048Y013606D01*
X018048Y013496D02*
X018048Y013346D01*
X017114Y016881D02*
X013514Y016881D01*
X013514Y021261D01*
X017114Y021261D01*
X017114Y016881D01*
X016484Y016881D02*
X016264Y016881D01*
X016134Y016881D02*
X015914Y016881D01*
X015774Y016881D02*
X015554Y016881D01*
X015424Y016881D02*
X015204Y016881D01*
X015074Y016881D02*
X014854Y016881D01*
X014714Y016881D02*
X014494Y016881D01*
X014364Y016881D02*
X014144Y016881D01*
X013514Y017541D02*
X013514Y017761D01*
X013514Y017901D02*
X013514Y018121D01*
X013514Y018251D02*
X013514Y018471D01*
X013514Y018611D02*
X013514Y018831D01*
X013514Y018961D02*
X013514Y019181D01*
X013514Y019311D02*
X013514Y019531D01*
X013514Y019671D02*
X013514Y019891D01*
X013514Y020021D02*
X013514Y020241D01*
X013514Y020381D02*
X013514Y020601D01*
X013514Y020761D02*
X014014Y021261D01*
X014144Y021261D02*
X014364Y021261D01*
X014494Y021261D02*
X014714Y021261D01*
X014854Y021261D02*
X015074Y021261D01*
X015204Y021261D02*
X015424Y021261D01*
X015554Y021261D02*
X015774Y021261D01*
X015914Y021261D02*
X016134Y021261D01*
X016264Y021261D02*
X016484Y021261D01*
X017114Y020601D02*
X017114Y020381D01*
X017114Y020241D02*
X017114Y020021D01*
X017114Y019891D02*
X017114Y019671D01*
X017114Y019531D02*
X017114Y019311D01*
X017114Y019181D02*
X017114Y018961D01*
X017114Y018831D02*
X017114Y018611D01*
X017114Y018471D02*
X017114Y018251D01*
X017114Y018121D02*
X017114Y017901D01*
X017114Y017761D02*
X017114Y017541D01*
X011946Y016225D02*
X011946Y014665D01*
X009986Y014665D01*
X009986Y015325D01*
X009986Y016225D01*
X011946Y016225D01*
X011816Y016225D02*
X011816Y016665D01*
X011616Y016665D01*
X011616Y016225D01*
X011816Y016225D01*
X011316Y016225D02*
X011316Y016665D01*
X011116Y016665D01*
X011116Y016225D01*
X011316Y016225D01*
X010816Y016225D02*
X010816Y016665D01*
X010616Y016665D01*
X010616Y016225D01*
X010816Y016225D01*
X010316Y016225D02*
X010316Y016665D01*
X010116Y016665D01*
X010116Y016225D01*
X010316Y016225D01*
X009976Y015565D02*
X009997Y015564D01*
X010017Y015559D01*
X010037Y015551D01*
X010054Y015540D01*
X010070Y015526D01*
X010082Y015509D01*
X010092Y015491D01*
X010098Y015471D01*
X010101Y015450D01*
X010100Y015429D01*
X010095Y015409D01*
X010087Y015389D01*
X010076Y015372D01*
X010062Y015356D01*
X010045Y015344D01*
X010027Y015334D01*
X010007Y015328D01*
X009986Y015325D01*
X010116Y014665D02*
X010116Y014225D01*
X010316Y014225D01*
X010316Y014665D01*
X010116Y014665D01*
X010616Y014665D02*
X010616Y014225D01*
X010816Y014225D01*
X010816Y014665D01*
X010616Y014665D01*
X011116Y014665D02*
X011116Y014225D01*
X011316Y014225D01*
X011316Y014665D01*
X011116Y014665D01*
X011616Y014665D02*
X011616Y014225D01*
X011816Y014225D01*
X011816Y014665D01*
X011616Y014665D01*
X007394Y014688D02*
X007394Y014808D01*
X006974Y014808D01*
X006974Y014688D01*
X007394Y014688D01*
X007394Y014948D02*
X006974Y014948D01*
X006974Y015068D01*
X007394Y015068D01*
X007394Y014948D01*
X007394Y015208D02*
X006974Y015208D01*
X006974Y015328D01*
X007394Y015328D01*
X007394Y015208D01*
X007394Y015458D02*
X006974Y015458D01*
X006974Y015578D01*
X007394Y015578D01*
X007394Y015458D01*
X007394Y015718D02*
X006974Y015718D01*
X006974Y015838D01*
X007394Y015838D01*
X007394Y015718D01*
X007394Y015968D02*
X006974Y015968D01*
X006974Y016088D01*
X007394Y016088D01*
X007394Y015968D01*
X007394Y016228D02*
X006974Y016228D01*
X006974Y016348D01*
X007394Y016348D01*
X007394Y016228D01*
X007394Y016488D02*
X006974Y016488D01*
X006974Y016608D01*
X007394Y016608D01*
X007394Y016488D01*
X006974Y016648D02*
X005974Y016648D01*
X005214Y016648D01*
X005214Y014648D01*
X006974Y014648D01*
X006974Y016648D01*
X006214Y016658D02*
X006213Y016637D01*
X006208Y016617D01*
X006200Y016597D01*
X006189Y016580D01*
X006175Y016564D01*
X006158Y016552D01*
X006140Y016542D01*
X006120Y016536D01*
X006099Y016533D01*
X006078Y016534D01*
X006058Y016539D01*
X006038Y016547D01*
X006021Y016558D01*
X006005Y016572D01*
X005993Y016589D01*
X005983Y016607D01*
X005977Y016627D01*
X005974Y016648D01*
X005214Y016608D02*
X004794Y016608D01*
X004794Y016488D01*
X005214Y016488D01*
X005214Y016608D01*
X005214Y016348D02*
X004794Y016348D01*
X004794Y016228D01*
X005214Y016228D01*
X005214Y016348D01*
X005214Y016088D02*
X004794Y016088D01*
X004794Y015968D01*
X005214Y015968D01*
X005214Y016088D01*
X005214Y015838D02*
X004794Y015838D01*
X004794Y015718D01*
X005214Y015718D01*
X005214Y015838D01*
X005214Y015578D02*
X004794Y015578D01*
X004794Y015458D01*
X005214Y015458D01*
X005214Y015578D01*
X005214Y015328D02*
X004794Y015328D01*
X004794Y015208D01*
X005214Y015208D01*
X005214Y015328D01*
X005214Y015068D02*
X004794Y015068D01*
X004794Y014948D01*
X005214Y014948D01*
X005214Y015068D01*
X005214Y014808D02*
X004794Y014808D01*
X004794Y014688D01*
X005214Y014688D01*
X005214Y014808D01*
X005262Y008874D02*
X005152Y008874D01*
X005152Y008484D01*
X005262Y008484D01*
X005262Y008874D01*
X005352Y008874D02*
X005352Y008484D01*
X005462Y008484D01*
X005462Y008874D01*
X005352Y008874D01*
X005552Y008874D02*
X005552Y008484D01*
X005652Y008484D01*
X005652Y008874D01*
X005552Y008874D01*
X005742Y008874D02*
X005742Y008484D01*
X005852Y008484D01*
X005852Y008874D01*
X005742Y008874D01*
X005942Y008874D02*
X005942Y008484D01*
X006052Y008484D01*
X006052Y008874D01*
X005942Y008874D01*
X006142Y008874D02*
X006142Y008484D01*
X006242Y008484D01*
X006242Y008874D01*
X006142Y008874D01*
X006342Y008874D02*
X006342Y008484D01*
X006442Y008484D01*
X006442Y008874D01*
X006342Y008874D01*
X006532Y008874D02*
X006532Y008484D01*
X006642Y008484D01*
X006642Y008874D01*
X006532Y008874D01*
X006732Y008874D02*
X006732Y008484D01*
X006842Y008484D01*
X006842Y008874D01*
X006732Y008874D01*
X006932Y008874D02*
X006932Y008484D01*
X007032Y008484D01*
X007032Y008874D01*
X006932Y008874D01*
X007122Y008874D02*
X007122Y008484D01*
X007232Y008484D01*
X007232Y008874D01*
X007122Y008874D01*
X007322Y008874D02*
X007322Y008484D01*
X007432Y008484D01*
X007432Y008874D01*
X007322Y008874D01*
X007522Y008874D02*
X007522Y008484D01*
X007622Y008484D01*
X007622Y008874D01*
X007522Y008874D01*
X007712Y008874D02*
X007712Y008484D01*
X007762Y008484D01*
X008262Y007984D01*
X008262Y007934D01*
X008652Y007934D01*
X008652Y008044D01*
X008262Y008044D01*
X008262Y007984D01*
X008262Y007844D02*
X008652Y007844D01*
X008652Y007744D01*
X008262Y007744D01*
X008262Y007844D01*
X008262Y007654D02*
X008652Y007654D01*
X008652Y007544D01*
X008262Y007544D01*
X008262Y007654D01*
X008262Y007454D02*
X008652Y007454D01*
X008652Y007344D01*
X008262Y007344D01*
X008262Y007454D01*
X008262Y007254D02*
X008652Y007254D01*
X008652Y007154D01*
X008262Y007154D01*
X008262Y007254D01*
X008262Y007064D02*
X008652Y007064D01*
X008652Y006954D01*
X008262Y006954D01*
X008262Y007064D01*
X008262Y006864D02*
X008652Y006864D01*
X008652Y006754D01*
X008262Y006754D01*
X008262Y006864D01*
X008262Y006664D02*
X008652Y006664D01*
X008652Y006564D01*
X008262Y006564D01*
X008262Y006664D01*
X008262Y006464D02*
X008652Y006464D01*
X008652Y006364D01*
X008262Y006364D01*
X008262Y006464D01*
X008262Y006274D02*
X008652Y006274D01*
X008652Y006164D01*
X008262Y006164D01*
X008262Y006274D01*
X008262Y006074D02*
X008652Y006074D01*
X008652Y005964D01*
X008262Y005964D01*
X008262Y006074D01*
X008262Y005874D02*
X008652Y005874D01*
X008652Y005774D01*
X008262Y005774D01*
X008262Y005874D01*
X008262Y005684D02*
X008652Y005684D01*
X008652Y005574D01*
X008262Y005574D01*
X008262Y005684D01*
X008262Y005484D02*
X008652Y005484D01*
X008652Y005374D01*
X008262Y005374D01*
X008262Y005484D01*
X008262Y005284D02*
X008652Y005284D01*
X008652Y005184D01*
X008262Y005184D01*
X008262Y005284D01*
X008262Y005094D02*
X008652Y005094D01*
X008652Y004984D01*
X008262Y004984D01*
X008262Y005094D01*
X008262Y004544D02*
X008262Y008484D01*
X004322Y008484D01*
X004322Y004544D01*
X008262Y004544D01*
X007822Y004544D02*
X007822Y004154D01*
X007712Y004154D01*
X007712Y004544D01*
X007822Y004544D01*
X007622Y004544D02*
X007622Y004154D01*
X007522Y004154D01*
X007522Y004544D01*
X007622Y004544D01*
X007432Y004544D02*
X007432Y004154D01*
X007322Y004154D01*
X007322Y004544D01*
X007432Y004544D01*
X007232Y004544D02*
X007232Y004154D01*
X007122Y004154D01*
X007122Y004544D01*
X007232Y004544D01*
X007032Y004544D02*
X007032Y004154D01*
X006932Y004154D01*
X006932Y004544D01*
X007032Y004544D01*
X006842Y004544D02*
X006842Y004154D01*
X006732Y004154D01*
X006732Y004544D01*
X006842Y004544D01*
X006642Y004544D02*
X006642Y004154D01*
X006532Y004154D01*
X006532Y004544D01*
X006642Y004544D01*
X006442Y004544D02*
X006442Y004154D01*
X006342Y004154D01*
X006342Y004544D01*
X006442Y004544D01*
X006242Y004544D02*
X006242Y004154D01*
X006142Y004154D01*
X006142Y004544D01*
X006242Y004544D01*
X006052Y004544D02*
X006052Y004154D01*
X005942Y004154D01*
X005942Y004544D01*
X006052Y004544D01*
X005852Y004544D02*
X005852Y004154D01*
X005742Y004154D01*
X005742Y004544D01*
X005852Y004544D01*
X005652Y004544D02*
X005652Y004154D01*
X005552Y004154D01*
X005552Y004544D01*
X005652Y004544D01*
X005462Y004544D02*
X005462Y004154D01*
X005352Y004154D01*
X005352Y004544D01*
X005462Y004544D01*
X005262Y004544D02*
X005262Y004154D01*
X005152Y004154D01*
X005152Y004544D01*
X005262Y004544D01*
X005062Y004544D02*
X005062Y004154D01*
X004962Y004154D01*
X004962Y004544D01*
X005062Y004544D01*
X004872Y004544D02*
X004872Y004154D01*
X004762Y004154D01*
X004762Y004544D01*
X004872Y004544D01*
X004322Y004984D02*
X003932Y004984D01*
X003932Y005094D01*
X004322Y005094D01*
X004322Y004984D01*
X004322Y005184D02*
X003932Y005184D01*
X003932Y005284D01*
X004322Y005284D01*
X004322Y005184D01*
X004322Y005374D02*
X003932Y005374D01*
X003932Y005484D01*
X004322Y005484D01*
X004322Y005374D01*
X004322Y005574D02*
X003932Y005574D01*
X003932Y005684D01*
X004322Y005684D01*
X004322Y005574D01*
X004322Y005774D02*
X003932Y005774D01*
X003932Y005874D01*
X004322Y005874D01*
X004322Y005774D01*
X004322Y005964D02*
X003932Y005964D01*
X003932Y006074D01*
X004322Y006074D01*
X004322Y005964D01*
X004322Y006164D02*
X003932Y006164D01*
X003932Y006274D01*
X004322Y006274D01*
X004322Y006164D01*
X004322Y006364D02*
X003932Y006364D01*
X003932Y006464D01*
X004322Y006464D01*
X004322Y006364D01*
X004322Y006564D02*
X003932Y006564D01*
X003932Y006664D01*
X004322Y006664D01*
X004322Y006564D01*
X004322Y006754D02*
X003932Y006754D01*
X003932Y006864D01*
X004322Y006864D01*
X004322Y006754D01*
X004322Y006954D02*
X003932Y006954D01*
X003932Y007064D01*
X004322Y007064D01*
X004322Y006954D01*
X004322Y007154D02*
X003932Y007154D01*
X003932Y007254D01*
X004322Y007254D01*
X004322Y007154D01*
X004322Y007344D02*
X003932Y007344D01*
X003932Y007454D01*
X004322Y007454D01*
X004322Y007344D01*
X004322Y007544D02*
X003932Y007544D01*
X003932Y007654D01*
X004322Y007654D01*
X004322Y007544D01*
X004322Y007744D02*
X003932Y007744D01*
X003932Y007844D01*
X004322Y007844D01*
X004322Y007744D01*
X004322Y007934D02*
X003932Y007934D01*
X003932Y008044D01*
X004322Y008044D01*
X004322Y007934D01*
X004762Y008484D02*
X004762Y008874D01*
X004872Y008874D01*
X004872Y008484D01*
X004762Y008484D01*
X004962Y008484D02*
X004962Y008874D01*
X005062Y008874D01*
X005062Y008484D01*
X004962Y008484D01*
X007712Y008874D02*
X007822Y008874D01*
X007822Y008484D01*
X007762Y008484D01*
D16*
X003851Y011363D02*
X000505Y011363D01*
X000505Y011760D01*
X000505Y012154D01*
X000505Y018453D01*
X000505Y018847D01*
X000505Y019245D01*
X003851Y019245D01*
X003851Y011363D01*
X000505Y011760D02*
X000478Y011762D01*
X000452Y011767D01*
X000427Y011776D01*
X000403Y011789D01*
X000381Y011804D01*
X000361Y011823D01*
X000344Y011843D01*
X000330Y011866D01*
X000319Y011891D01*
X000312Y011917D01*
X000308Y011944D01*
X000308Y011970D01*
X000312Y011997D01*
X000319Y012023D01*
X000330Y012048D01*
X000344Y012071D01*
X000361Y012091D01*
X000381Y012110D01*
X000403Y012125D01*
X000427Y012138D01*
X000452Y012147D01*
X000478Y012152D01*
X000505Y012154D01*
X004816Y016947D02*
X008753Y016947D01*
X008753Y019231D01*
X004816Y019231D01*
X004816Y016947D01*
X009048Y016967D02*
X012985Y016967D01*
X012985Y019250D01*
X009048Y019250D01*
X009048Y016967D01*
X009993Y019979D02*
X013143Y019979D01*
X013143Y022459D01*
X009993Y022459D01*
X009993Y019979D01*
X009806Y020176D02*
X004294Y020176D01*
X004294Y022459D01*
X009806Y022459D01*
X009806Y020176D01*
X000505Y018847D02*
X000478Y018845D01*
X000452Y018840D01*
X000427Y018831D01*
X000403Y018818D01*
X000381Y018803D01*
X000361Y018784D01*
X000344Y018764D01*
X000330Y018741D01*
X000319Y018716D01*
X000312Y018690D01*
X000308Y018663D01*
X000308Y018637D01*
X000312Y018610D01*
X000319Y018584D01*
X000330Y018559D01*
X000344Y018536D01*
X000361Y018516D01*
X000381Y018497D01*
X000403Y018482D01*
X000427Y018469D01*
X000452Y018460D01*
X000478Y018455D01*
X000505Y018453D01*
X023399Y014624D02*
X023399Y010845D01*
X023399Y010766D02*
X028832Y010766D01*
X028832Y010845D02*
X028832Y014624D01*
X023399Y014624D01*
X025397Y018660D02*
X025397Y022439D01*
X029176Y022439D01*
X029176Y018660D01*
X025397Y018660D01*
D17*
X025318Y021337D02*
X025291Y021339D01*
X025265Y021344D01*
X025240Y021353D01*
X025216Y021366D01*
X025194Y021381D01*
X025174Y021400D01*
X025157Y021420D01*
X025143Y021443D01*
X025132Y021468D01*
X025125Y021494D01*
X025121Y021521D01*
X025121Y021547D01*
X025125Y021574D01*
X025132Y021600D01*
X025143Y021625D01*
X025157Y021648D01*
X025174Y021668D01*
X025194Y021687D01*
X025216Y021702D01*
X025240Y021715D01*
X025265Y021724D01*
X025291Y021729D01*
X025318Y021731D01*
X012337Y019447D02*
X009696Y019447D01*
X008371Y019979D02*
X005730Y019979D01*
X005464Y019428D02*
X008105Y019428D01*
D18*
X003158Y012631D02*
X003158Y012324D01*
X003158Y012477D02*
X002698Y012477D01*
X002851Y012324D01*
X001658Y012324D02*
X001351Y012631D01*
X001275Y012631D01*
X001198Y012554D01*
X001198Y012400D01*
X001275Y012324D01*
X001658Y012324D02*
X001658Y012631D01*
D19*
X021509Y015097D03*
X024934Y015097D03*
X028556Y015097D03*
X028556Y007735D03*
X024934Y007735D03*
X021509Y007735D03*
M02*
