G75*
%MOIN*%
%OFA0B0*%
%FSLAX24Y24*%
%IPPOS*%
%LPD*%
%AMOC8*
5,1,8,0,0,1.08239X$1,22.5*
%
%ADD10C,0.0740*%
%ADD11C,0.0650*%
%ADD12R,0.0650X0.0650*%
%ADD13C,0.0515*%
%ADD14R,0.0515X0.0515*%
%ADD15R,0.0827X0.0827*%
%ADD16C,0.0827*%
%ADD17OC8,0.0740*%
%ADD18R,0.0554X0.0554*%
%ADD19C,0.0554*%
%ADD20R,0.0397X0.0397*%
%ADD21OC8,0.0277*%
%ADD22R,0.0277X0.0277*%
%ADD23C,0.0100*%
%ADD24C,0.0080*%
%ADD25C,0.0160*%
%ADD26C,0.0079*%
%ADD27C,0.0120*%
%ADD28C,0.0400*%
%ADD29C,0.0560*%
D10*
X000824Y010708D03*
X001824Y010608D03*
X002824Y010708D03*
X003824Y010608D03*
X004824Y010708D03*
X005824Y010608D03*
X018389Y019480D03*
X018389Y020620D03*
D11*
X023026Y021300D03*
X020092Y016221D03*
X031292Y011408D03*
X028576Y005203D03*
D12*
X028576Y004203D03*
X031292Y012408D03*
X023026Y019300D03*
X020092Y017221D03*
D13*
X011804Y018109D03*
X011017Y018109D03*
X007572Y018089D03*
X006785Y018089D03*
X011174Y021219D03*
X007838Y021317D03*
X007050Y021317D03*
X006263Y021317D03*
X005475Y021317D03*
D14*
X008625Y021317D03*
X011962Y021219D03*
X010229Y018109D03*
X005997Y018089D03*
D15*
X024462Y013621D03*
X026460Y021632D03*
D16*
X028113Y021632D03*
X028113Y019467D03*
X026460Y019467D03*
X026115Y013621D03*
X027769Y013621D03*
X027769Y011849D03*
X026115Y011849D03*
X024462Y011849D03*
D17*
X012755Y005124D03*
X011755Y005124D03*
X010755Y005124D03*
X010755Y004124D03*
X011755Y004124D03*
X012755Y004124D03*
D18*
X001678Y013304D03*
D19*
X002678Y013304D03*
X002678Y014304D03*
X001678Y014304D03*
X001678Y015304D03*
X002678Y015304D03*
X002678Y016304D03*
X001678Y016304D03*
X001678Y017304D03*
X002678Y017304D03*
D20*
X022092Y017357D03*
X022592Y017357D03*
X023092Y017357D03*
X023092Y016857D03*
X022592Y016857D03*
X022592Y016357D03*
X023092Y016357D03*
X022092Y016357D03*
X022092Y016857D03*
X025517Y016857D03*
X026017Y016857D03*
X026017Y017357D03*
X025517Y017357D03*
X026517Y017357D03*
X026517Y016857D03*
X026517Y016357D03*
X026017Y016357D03*
X025517Y016357D03*
X029139Y016357D03*
X029639Y016357D03*
X029639Y016857D03*
X029139Y016857D03*
X029139Y017357D03*
X029639Y017357D03*
X030139Y017357D03*
X030139Y016857D03*
X030139Y016357D03*
X030139Y009995D03*
X029639Y009995D03*
X029139Y009995D03*
X029139Y009495D03*
X029639Y009495D03*
X030139Y009495D03*
X030139Y008995D03*
X029639Y008995D03*
X029139Y008995D03*
X026517Y008995D03*
X026517Y009495D03*
X026517Y009995D03*
X026017Y009995D03*
X025517Y009995D03*
X025517Y009495D03*
X026017Y009495D03*
X026017Y008995D03*
X025517Y008995D03*
X023092Y008995D03*
X022592Y008995D03*
X022592Y009495D03*
X023092Y009495D03*
X023092Y009995D03*
X022592Y009995D03*
X022092Y009995D03*
X022092Y009495D03*
X022092Y008995D03*
D21*
X020731Y009497D03*
X020170Y009487D03*
X019521Y009349D03*
X019718Y006908D03*
X020190Y006908D03*
X020781Y005491D03*
X020781Y005097D03*
X020781Y004723D03*
X020781Y004329D03*
X024363Y006042D03*
X024363Y006790D03*
X027340Y004947D03*
X027907Y006199D03*
X028143Y006672D03*
X028143Y007223D03*
X013615Y004073D03*
X009540Y003857D03*
X006981Y007567D03*
X006588Y007567D03*
X008635Y010018D03*
X010082Y008975D03*
X010377Y008975D03*
X010377Y008670D03*
X010082Y008670D03*
X010544Y008207D03*
X003241Y009093D03*
X012198Y017400D03*
D22*
X014373Y017439D03*
X014767Y017439D03*
X015161Y017439D03*
X015161Y017833D03*
X014767Y017833D03*
X014373Y017833D03*
X016224Y017479D03*
X017867Y016750D03*
X015397Y014900D03*
X015397Y014565D03*
X015790Y013581D03*
X016145Y013581D03*
X013603Y012014D03*
X012749Y012518D03*
X011509Y012439D03*
X011509Y011731D03*
X013202Y011160D03*
X013517Y011160D03*
X014235Y010849D03*
X014403Y010195D03*
X013812Y010254D03*
X015387Y009664D03*
X016174Y009664D03*
X016174Y008876D03*
X015387Y008876D03*
X015544Y008089D03*
X015859Y008089D03*
X016174Y008089D03*
X016174Y007774D03*
X015859Y007774D03*
X015544Y007774D03*
X015544Y007459D03*
X015544Y007144D03*
X015859Y007144D03*
X015859Y007459D03*
X016174Y007459D03*
X016174Y007144D03*
X016174Y006829D03*
X015859Y006829D03*
X015544Y006829D03*
X015387Y006121D03*
X016174Y006121D03*
X016174Y005333D03*
X015387Y005333D03*
X015190Y003916D03*
X014718Y003916D03*
X014245Y003916D03*
X013536Y004644D03*
X013418Y005707D03*
X011617Y006032D03*
X011302Y006032D03*
X010249Y005983D03*
X009846Y005983D03*
X009757Y005215D03*
X008773Y004565D03*
X008182Y003995D03*
X005694Y005617D03*
X006076Y005861D03*
X006450Y006081D03*
X006804Y006239D03*
X007277Y006042D03*
X005300Y005329D03*
X004733Y005345D03*
X004733Y004920D03*
X004257Y004223D03*
X003536Y004231D03*
X003312Y005601D03*
X003320Y006317D03*
X004777Y006278D03*
X004875Y005845D03*
X004725Y007743D03*
X004729Y008124D03*
X003399Y008030D03*
X004245Y009723D03*
X005328Y011278D03*
X006529Y011278D03*
X006509Y012459D03*
X005544Y012459D03*
X004599Y012459D03*
X006458Y014306D03*
X008143Y014349D03*
X008615Y014349D03*
X009048Y014349D03*
X010214Y013593D03*
X011210Y013735D03*
X011954Y013542D03*
X013468Y013581D03*
X013468Y013936D03*
X015239Y011849D03*
X018320Y009841D03*
X020269Y007577D03*
X022848Y008128D03*
X024304Y009664D03*
X026273Y008168D03*
X027808Y009664D03*
X031804Y007617D03*
X031814Y007036D03*
X026292Y005530D03*
X026017Y005530D03*
X025741Y005530D03*
X025466Y005530D03*
X025190Y005530D03*
X025190Y005254D03*
X025190Y004979D03*
X025466Y004979D03*
X025741Y004979D03*
X025741Y005254D03*
X025466Y005254D03*
X026017Y005254D03*
X026017Y004979D03*
X026292Y004979D03*
X026292Y005254D03*
X026292Y004703D03*
X026017Y004703D03*
X025741Y004703D03*
X025466Y004703D03*
X025190Y004703D03*
X022867Y004664D03*
X022592Y004664D03*
X022592Y004939D03*
X022867Y004939D03*
X022867Y005215D03*
X022592Y005215D03*
X022592Y005491D03*
X022867Y005491D03*
X022316Y005491D03*
X022040Y005491D03*
X021765Y005491D03*
X021765Y005215D03*
X022040Y005215D03*
X022040Y004939D03*
X022040Y004664D03*
X021765Y004664D03*
X021765Y004939D03*
X022316Y004939D03*
X022316Y004664D03*
X022316Y005215D03*
X018379Y004310D03*
X018379Y003916D03*
X017749Y004743D03*
X017277Y004743D03*
X017277Y005058D03*
X016607Y003916D03*
X016135Y003916D03*
X015662Y003916D03*
X006922Y009369D03*
X009029Y011613D03*
X009029Y012065D03*
X009666Y011735D03*
X009670Y012447D03*
X000584Y009821D03*
X000505Y006317D03*
X019058Y013936D03*
X021804Y014428D03*
X021804Y014703D03*
X022080Y014703D03*
X022080Y014428D03*
X022355Y014428D03*
X022355Y014703D03*
X022631Y014703D03*
X022631Y014428D03*
X022907Y014428D03*
X022907Y014703D03*
X022848Y015510D03*
X024639Y015510D03*
X025131Y014743D03*
X025407Y014743D03*
X025682Y014743D03*
X025958Y014743D03*
X026233Y014743D03*
X026233Y014467D03*
X025958Y014467D03*
X025682Y014467D03*
X025407Y014467D03*
X025131Y014467D03*
X026273Y015530D03*
X028162Y015530D03*
X028753Y014841D03*
X028753Y014565D03*
X029029Y014565D03*
X029304Y014565D03*
X029580Y014565D03*
X029855Y014565D03*
X029855Y014841D03*
X029580Y014841D03*
X029304Y014841D03*
X029029Y014841D03*
X027828Y016869D03*
X027828Y017735D03*
X024324Y017715D03*
X024304Y016869D03*
X019117Y020412D03*
X019117Y020707D03*
X019107Y021613D03*
X020151Y021770D03*
X015239Y020353D03*
X003930Y022223D03*
X003340Y022223D03*
X003694Y019979D03*
D23*
X001270Y003871D02*
X001279Y003867D01*
X001662Y003764D01*
X001860Y003751D01*
X009252Y003751D01*
X009252Y003976D01*
X009350Y004075D01*
X009350Y004408D01*
X009646Y004703D01*
X009757Y004814D01*
X010259Y004814D01*
X010185Y004888D01*
X010185Y005361D01*
X010519Y005694D01*
X010749Y005694D01*
X010538Y005906D01*
X010538Y005782D01*
X010450Y005694D01*
X010048Y005694D01*
X009960Y005782D01*
X009960Y006184D01*
X010048Y006271D01*
X010172Y006271D01*
X010153Y006291D01*
X010085Y006359D01*
X010048Y006447D01*
X010048Y007045D01*
X008952Y008141D01*
X008884Y008209D01*
X008848Y008297D01*
X008848Y009752D01*
X008775Y009679D01*
X008495Y009679D01*
X008396Y009778D01*
X007474Y009778D01*
X007261Y009565D01*
X007261Y009147D01*
X007144Y009030D01*
X006701Y009030D01*
X006584Y009147D01*
X006584Y009590D01*
X006701Y009707D01*
X006756Y009707D01*
X006778Y009760D01*
X006845Y009828D01*
X006845Y009828D01*
X007239Y010222D01*
X007327Y010258D01*
X008396Y010258D01*
X008495Y010357D01*
X008775Y010357D01*
X008848Y010284D01*
X008848Y011274D01*
X008807Y011274D01*
X008690Y011391D01*
X008690Y011834D01*
X008695Y011839D01*
X008690Y011844D01*
X008690Y011936D01*
X006363Y009609D01*
X006271Y009571D01*
X005648Y009571D01*
X005598Y009521D01*
X005598Y007291D01*
X005559Y007199D01*
X005284Y006924D01*
X005214Y006853D01*
X005122Y006815D01*
X004723Y006815D01*
X004515Y006608D01*
X004515Y006577D01*
X004555Y006617D01*
X004998Y006617D01*
X005115Y006500D01*
X005115Y006165D01*
X005214Y006067D01*
X005214Y005668D01*
X005355Y005668D01*
X005355Y005838D01*
X005472Y005955D01*
X005737Y005955D01*
X005737Y006082D01*
X005854Y006199D01*
X006111Y006199D01*
X006111Y006303D01*
X006228Y006420D01*
X006465Y006420D01*
X006465Y006460D01*
X006583Y006577D01*
X007026Y006577D01*
X007143Y006460D01*
X007143Y006381D01*
X007498Y006381D01*
X007615Y006263D01*
X007615Y005820D01*
X007498Y005703D01*
X007055Y005703D01*
X006938Y005820D01*
X006938Y005900D01*
X006789Y005900D01*
X006789Y005860D01*
X006671Y005742D01*
X006415Y005742D01*
X006415Y005639D01*
X006297Y005522D01*
X006033Y005522D01*
X006033Y005395D01*
X005916Y005278D01*
X005639Y005278D01*
X005639Y005108D01*
X005522Y004990D01*
X005079Y004990D01*
X005072Y004997D01*
X005072Y004698D01*
X004955Y004581D01*
X004708Y004581D01*
X004685Y004571D01*
X004058Y004571D01*
X003966Y004609D01*
X003895Y004680D01*
X003797Y004778D01*
X003759Y004870D01*
X003759Y006977D01*
X003797Y007069D01*
X003867Y007140D01*
X004241Y007514D01*
X004311Y007543D01*
X004280Y007543D01*
X004163Y007660D01*
X003687Y008136D01*
X003687Y007829D01*
X003600Y007741D01*
X003198Y007741D01*
X003110Y007829D01*
X003110Y008231D01*
X003198Y008319D01*
X003600Y008319D01*
X003624Y008294D01*
X003624Y010128D01*
X003529Y010167D01*
X003383Y010313D01*
X003304Y010505D01*
X003304Y010711D01*
X003383Y010903D01*
X003529Y011049D01*
X003720Y011128D01*
X003927Y011128D01*
X004118Y011049D01*
X004265Y010903D01*
X004276Y010875D01*
X004341Y011031D01*
X004501Y011191D01*
X004711Y011278D01*
X004937Y011278D01*
X004989Y011256D01*
X004989Y011500D01*
X005106Y011617D01*
X005549Y011617D01*
X005667Y011500D01*
X005667Y011160D01*
X005711Y011178D01*
X005937Y011178D01*
X006147Y011091D01*
X006307Y010931D01*
X006370Y010780D01*
X006529Y010939D01*
X006307Y010939D01*
X006190Y011056D01*
X006190Y011500D01*
X006307Y011617D01*
X006750Y011617D01*
X006867Y011500D01*
X006867Y011277D01*
X009387Y013797D01*
X009479Y013835D01*
X009895Y013835D01*
X009992Y013932D01*
X010435Y013932D01*
X010552Y013815D01*
X010552Y013465D01*
X010990Y013465D01*
X010921Y013534D01*
X010921Y013936D01*
X011009Y014023D01*
X011411Y014023D01*
X011498Y013936D01*
X011498Y013534D01*
X011430Y013465D01*
X011523Y013465D01*
X011615Y013557D01*
X011615Y013763D01*
X011732Y013881D01*
X012175Y013881D01*
X012293Y013763D01*
X012293Y013320D01*
X012175Y013203D01*
X011969Y013203D01*
X011769Y013003D01*
X011677Y012965D01*
X009719Y012965D01*
X009490Y012736D01*
X009871Y012736D01*
X009959Y012648D01*
X009959Y012246D01*
X009871Y012159D01*
X009469Y012159D01*
X009382Y012246D01*
X009382Y012628D01*
X009158Y012404D01*
X009250Y012404D01*
X009367Y012287D01*
X009367Y011844D01*
X009363Y011839D01*
X009367Y011834D01*
X009367Y011391D01*
X009328Y011351D01*
X009328Y008444D01*
X010492Y007280D01*
X010528Y007192D01*
X010528Y006594D01*
X011175Y005947D01*
X013098Y005947D01*
X013197Y006046D01*
X013640Y006046D01*
X013757Y005929D01*
X013757Y005486D01*
X013640Y005368D01*
X013246Y005368D01*
X013275Y005340D01*
X013275Y004943D01*
X013315Y004983D01*
X013758Y004983D01*
X013875Y004866D01*
X013875Y004423D01*
X013775Y004322D01*
X013904Y004193D01*
X013904Y003954D01*
X013735Y003785D01*
X013496Y003785D01*
X013326Y003954D01*
X013326Y004093D01*
X013325Y004095D01*
X013325Y003888D01*
X013187Y003751D01*
X028166Y003751D01*
X028101Y003816D01*
X028101Y004590D01*
X028189Y004678D01*
X028963Y004678D01*
X029051Y004590D01*
X029051Y003816D01*
X028986Y003751D01*
X031083Y003751D01*
X031271Y003763D01*
X031633Y003860D01*
X031958Y004048D01*
X032223Y004313D01*
X032411Y004638D01*
X032508Y005000D01*
X032520Y005188D01*
X032520Y021134D01*
X032510Y021293D01*
X032428Y021599D01*
X032269Y021873D01*
X032045Y022098D01*
X031771Y022256D01*
X031464Y022338D01*
X031306Y022348D01*
X013657Y022348D01*
X013927Y022079D01*
X014062Y021944D01*
X014135Y021767D01*
X014135Y018487D01*
X015612Y018487D01*
X015700Y018450D01*
X015768Y018382D01*
X015804Y018294D01*
X015804Y016998D01*
X015768Y016910D01*
X015700Y016842D01*
X015612Y016806D01*
X014001Y016806D01*
X013912Y016842D01*
X013845Y016910D01*
X013808Y016998D01*
X013808Y017257D01*
X013700Y017364D01*
X013248Y017817D01*
X013175Y017994D01*
X013175Y021467D01*
X011654Y021467D01*
X011654Y021123D01*
X011581Y020947D01*
X011446Y020812D01*
X011270Y020739D01*
X011079Y020739D01*
X010902Y020812D01*
X010767Y020947D01*
X010694Y021123D01*
X010694Y021885D01*
X010767Y022062D01*
X010925Y022219D01*
X011054Y022348D01*
X004219Y022348D01*
X004219Y022022D01*
X004131Y021934D01*
X003729Y021934D01*
X003641Y022022D01*
X003641Y022348D01*
X003628Y022348D01*
X003628Y022022D01*
X003541Y021934D01*
X003139Y021934D01*
X003051Y022022D01*
X003051Y022348D01*
X001420Y022348D01*
X001251Y022335D01*
X000930Y022231D01*
X000656Y022032D01*
X000458Y021759D01*
X000353Y021437D01*
X000353Y021437D01*
X000340Y021269D01*
X000340Y011029D01*
X000341Y011031D01*
X000501Y011191D01*
X000711Y011278D01*
X000937Y011278D01*
X001147Y011191D01*
X001307Y011031D01*
X001372Y010875D01*
X001383Y010903D01*
X001529Y011049D01*
X001720Y011128D01*
X001927Y011128D01*
X002118Y011049D01*
X002265Y010903D01*
X002344Y010711D01*
X002344Y010505D01*
X002265Y010313D01*
X002118Y010167D01*
X001927Y010088D01*
X001720Y010088D01*
X001529Y010167D01*
X001383Y010313D01*
X001330Y010441D01*
X001307Y010385D01*
X001147Y010225D01*
X000937Y010138D01*
X000711Y010138D01*
X000501Y010225D01*
X000341Y010385D01*
X000340Y010387D01*
X000340Y008325D01*
X000370Y008325D01*
X000562Y008345D01*
X000563Y008349D01*
X000563Y008349D01*
X000566Y008353D01*
X000440Y008508D01*
X000415Y008533D01*
X000410Y008545D01*
X000402Y008554D01*
X000392Y008588D01*
X000378Y008621D01*
X000378Y008633D01*
X000375Y008645D01*
X000378Y008681D01*
X000378Y008716D01*
X000383Y008728D01*
X000384Y008740D01*
X000401Y008771D01*
X000415Y008804D01*
X000423Y008813D01*
X000429Y008824D01*
X000457Y008846D01*
X000643Y009033D01*
X000666Y009060D01*
X000677Y009066D01*
X000686Y009075D01*
X000718Y009089D01*
X000750Y009105D01*
X000762Y009107D01*
X000774Y009112D01*
X000809Y009112D01*
X000844Y009115D01*
X000856Y009112D01*
X000869Y009112D01*
X000902Y009098D01*
X000936Y009088D01*
X000945Y009080D01*
X000957Y009075D01*
X000982Y009050D01*
X001136Y008924D01*
X001140Y008926D01*
X001140Y008926D01*
X001145Y008927D01*
X001165Y009126D01*
X001165Y009161D01*
X001170Y009173D01*
X001171Y009185D01*
X001188Y009217D01*
X001201Y009249D01*
X001210Y009258D01*
X001216Y009269D01*
X001244Y009292D01*
X001269Y009317D01*
X001280Y009321D01*
X001290Y009329D01*
X001324Y009340D01*
X001357Y009353D01*
X001369Y009353D01*
X001381Y009357D01*
X001416Y009353D01*
X001680Y009353D01*
X001715Y009357D01*
X001727Y009353D01*
X001740Y009353D01*
X001773Y009340D01*
X001807Y009329D01*
X001816Y009321D01*
X001828Y009317D01*
X001853Y009292D01*
X001880Y009269D01*
X001886Y009258D01*
X001895Y009249D01*
X001909Y009217D01*
X001926Y009185D01*
X001927Y009173D01*
X001932Y009161D01*
X001932Y009126D01*
X001952Y008927D01*
X001956Y008926D01*
X001956Y008926D01*
X001960Y008924D01*
X002115Y009050D01*
X002140Y009075D01*
X002151Y009080D01*
X002161Y009088D01*
X002195Y009098D01*
X002228Y009112D01*
X002240Y009112D01*
X002252Y009115D01*
X002288Y009112D01*
X002323Y009112D01*
X002335Y009107D01*
X002347Y009105D01*
X002378Y009089D01*
X002411Y009075D01*
X002420Y009066D01*
X002431Y009060D01*
X002453Y009033D01*
X002640Y008846D01*
X002667Y008824D01*
X002673Y008813D01*
X002682Y008804D01*
X002696Y008771D01*
X002712Y008740D01*
X002714Y008728D01*
X002718Y008716D01*
X002718Y008681D01*
X002722Y008645D01*
X002718Y008633D01*
X002718Y008621D01*
X002705Y008588D01*
X002695Y008554D01*
X002687Y008545D01*
X002682Y008533D01*
X002657Y008508D01*
X002531Y008353D01*
X002533Y008349D01*
X002533Y008349D01*
X002534Y008345D01*
X002733Y008325D01*
X002768Y008325D01*
X002780Y008320D01*
X002792Y008319D01*
X002823Y008302D01*
X002856Y008288D01*
X002865Y008279D01*
X002876Y008274D01*
X002898Y008246D01*
X002924Y008221D01*
X002928Y008209D01*
X002936Y008200D01*
X002946Y008166D01*
X002960Y008133D01*
X002960Y008120D01*
X002964Y008109D01*
X002960Y008073D01*
X002960Y007810D01*
X002964Y007774D01*
X002960Y007762D01*
X002960Y007750D01*
X002946Y007717D01*
X002936Y007683D01*
X002928Y007673D01*
X002924Y007662D01*
X002898Y007637D01*
X002876Y007609D01*
X002865Y007603D01*
X002856Y007595D01*
X002823Y007581D01*
X002792Y007564D01*
X002780Y007563D01*
X002768Y007558D01*
X002733Y007558D01*
X002534Y007538D01*
X002533Y007533D01*
X002533Y007533D01*
X002531Y007530D01*
X002657Y007375D01*
X002682Y007350D01*
X002687Y007338D01*
X002695Y007329D01*
X002705Y007295D01*
X002718Y007262D01*
X002718Y007249D01*
X002722Y007237D01*
X002718Y007202D01*
X002718Y007167D01*
X002714Y007155D01*
X002712Y007143D01*
X002696Y007111D01*
X002682Y007079D01*
X002673Y007070D01*
X002667Y007059D01*
X002640Y007036D01*
X002453Y006850D01*
X002431Y006823D01*
X002420Y006817D01*
X002411Y006808D01*
X002378Y006794D01*
X002347Y006777D01*
X002335Y006776D01*
X002323Y006771D01*
X002288Y006771D01*
X002252Y006768D01*
X002240Y006771D01*
X002228Y006771D01*
X002195Y006785D01*
X002161Y006795D01*
X002151Y006803D01*
X002140Y006808D01*
X002115Y006833D01*
X001948Y006969D01*
X001929Y006961D01*
X001907Y006952D01*
X001811Y006952D01*
X001759Y006974D01*
X001723Y006988D01*
X001723Y006988D01*
X001723Y006988D01*
X001656Y007056D01*
X001635Y007106D01*
X001548Y007316D01*
X001461Y007104D01*
X001440Y007056D01*
X001440Y007056D01*
X001373Y006988D01*
X001336Y006973D01*
X001285Y006952D01*
X001190Y006952D01*
X001165Y006962D01*
X001149Y006969D01*
X000982Y006833D01*
X000957Y006808D01*
X000945Y006803D01*
X000936Y006795D01*
X000902Y006785D01*
X000869Y006771D01*
X000856Y006771D01*
X000844Y006768D01*
X000809Y006771D01*
X000774Y006771D01*
X000762Y006776D01*
X000750Y006777D01*
X000718Y006794D01*
X000686Y006808D01*
X000677Y006817D01*
X000666Y006823D01*
X000643Y006850D01*
X000457Y007036D01*
X000429Y007059D01*
X000423Y007070D01*
X000415Y007079D01*
X000401Y007111D01*
X000384Y007143D01*
X000383Y007155D01*
X000378Y007167D01*
X000378Y007202D01*
X000375Y007237D01*
X000378Y007249D01*
X000378Y007262D01*
X000392Y007295D01*
X000402Y007329D01*
X000410Y007338D01*
X000415Y007350D01*
X000440Y007375D01*
X000566Y007530D01*
X000563Y007533D01*
X000563Y007533D01*
X000562Y007538D01*
X000370Y007557D01*
X000340Y007557D01*
X000340Y005271D01*
X000353Y005073D01*
X000379Y004976D01*
X000379Y005407D01*
X000529Y005844D01*
X000813Y006209D01*
X000813Y006209D01*
X001200Y006462D01*
X001200Y006462D01*
X001649Y006576D01*
X001649Y006576D01*
X002110Y006538D01*
X002110Y006538D01*
X002533Y006352D01*
X002533Y006352D01*
X002874Y006039D01*
X002874Y006039D01*
X002874Y006039D01*
X003023Y005762D01*
X003023Y005802D01*
X003111Y005890D01*
X003513Y005890D01*
X003601Y005802D01*
X003601Y005400D01*
X003513Y005312D01*
X003147Y005312D01*
X003170Y005176D01*
X003094Y004719D01*
X003094Y004719D01*
X002874Y004313D01*
X002874Y004313D01*
X002533Y003999D01*
X002533Y003999D01*
X002110Y003814D01*
X002110Y003814D01*
X001649Y003775D01*
X001649Y003775D01*
X001270Y003871D01*
X001314Y003857D02*
X001327Y003857D01*
X001744Y003758D02*
X009252Y003758D01*
X009252Y003857D02*
X002209Y003857D01*
X002433Y003955D02*
X004035Y003955D01*
X004056Y003934D02*
X004458Y003934D01*
X004546Y004022D01*
X004546Y004424D01*
X004458Y004512D01*
X004056Y004512D01*
X003968Y004424D01*
X003968Y004022D01*
X004056Y003934D01*
X003968Y004054D02*
X002593Y004054D01*
X002700Y004152D02*
X003968Y004152D01*
X003968Y004251D02*
X002807Y004251D01*
X002893Y004349D02*
X003968Y004349D01*
X003992Y004448D02*
X002947Y004448D01*
X003000Y004546D02*
X008484Y004546D01*
X008484Y004448D02*
X004521Y004448D01*
X004546Y004349D02*
X008499Y004349D01*
X008484Y004365D02*
X008572Y004277D01*
X008974Y004277D01*
X009061Y004365D01*
X009061Y004766D01*
X008974Y004854D01*
X008572Y004854D01*
X008484Y004766D01*
X008484Y004365D01*
X008484Y004645D02*
X005019Y004645D01*
X005072Y004743D02*
X008484Y004743D01*
X008560Y004842D02*
X005072Y004842D01*
X005072Y004940D02*
X009542Y004940D01*
X009556Y004926D02*
X009958Y004926D01*
X010046Y005014D01*
X010046Y005416D01*
X009958Y005504D01*
X009556Y005504D01*
X009468Y005416D01*
X009468Y005014D01*
X009556Y004926D01*
X009468Y005039D02*
X005570Y005039D01*
X005639Y005137D02*
X009468Y005137D01*
X009468Y005236D02*
X005639Y005236D01*
X005972Y005334D02*
X009468Y005334D01*
X009485Y005433D02*
X006033Y005433D01*
X006307Y005531D02*
X010356Y005531D01*
X010257Y005433D02*
X010029Y005433D01*
X010046Y005334D02*
X010185Y005334D01*
X010185Y005236D02*
X010046Y005236D01*
X010046Y005137D02*
X010185Y005137D01*
X010185Y005039D02*
X010046Y005039D01*
X009972Y004940D02*
X010185Y004940D01*
X010231Y004842D02*
X008986Y004842D01*
X009061Y004743D02*
X009686Y004743D01*
X009588Y004645D02*
X009061Y004645D01*
X009061Y004546D02*
X009489Y004546D01*
X009391Y004448D02*
X009061Y004448D01*
X009046Y004349D02*
X009350Y004349D01*
X009350Y004251D02*
X004546Y004251D01*
X004546Y004152D02*
X009350Y004152D01*
X009329Y004054D02*
X004546Y004054D01*
X004479Y003955D02*
X009252Y003955D01*
X011218Y005467D02*
X012362Y005467D01*
X012235Y005340D01*
X012235Y004909D01*
X012330Y004814D01*
X011251Y004814D01*
X011325Y004888D01*
X011325Y005361D01*
X011218Y005467D01*
X011253Y005433D02*
X012328Y005433D01*
X012235Y005334D02*
X011325Y005334D01*
X011325Y005236D02*
X012235Y005236D01*
X012235Y005137D02*
X011325Y005137D01*
X011325Y005039D02*
X012235Y005039D01*
X012235Y004940D02*
X011325Y004940D01*
X011279Y004842D02*
X012302Y004842D01*
X013275Y005039D02*
X016988Y005039D01*
X016988Y005137D02*
X013275Y005137D01*
X013275Y005236D02*
X016988Y005236D01*
X016988Y005258D02*
X016988Y004542D01*
X017076Y004454D01*
X017478Y004454D01*
X017513Y004489D01*
X017548Y004454D01*
X017950Y004454D01*
X018038Y004542D01*
X018038Y004943D01*
X017950Y005031D01*
X017565Y005031D01*
X017565Y005258D01*
X017478Y005346D01*
X017076Y005346D01*
X016988Y005258D01*
X017064Y005334D02*
X013275Y005334D01*
X013705Y005433D02*
X020442Y005433D01*
X020442Y005350D02*
X020498Y005294D01*
X020442Y005237D01*
X020442Y004957D01*
X020489Y004910D01*
X020442Y004863D01*
X020442Y004583D01*
X020534Y004491D01*
X020492Y004449D01*
X020492Y004210D01*
X020661Y004040D01*
X020786Y004040D01*
X020858Y003963D01*
X020858Y003959D01*
X020912Y003906D01*
X020963Y003851D01*
X020967Y003851D01*
X020970Y003848D01*
X021045Y003848D01*
X021120Y003845D01*
X021123Y003848D01*
X026882Y003848D01*
X026884Y003846D01*
X026960Y003848D01*
X027036Y003848D01*
X027038Y003850D01*
X027041Y003850D01*
X027094Y003905D01*
X027148Y003959D01*
X027148Y003962D01*
X027480Y004311D01*
X027534Y004365D01*
X027534Y004367D01*
X027535Y004369D01*
X027534Y004446D01*
X027534Y004733D01*
X027628Y004828D01*
X027628Y005067D01*
X027459Y005236D01*
X027417Y005236D01*
X028041Y005861D01*
X028047Y005861D01*
X028245Y006059D01*
X028245Y006340D01*
X028202Y006383D01*
X028262Y006383D01*
X028432Y006552D01*
X028432Y006791D01*
X028311Y006912D01*
X028482Y007083D01*
X028482Y007363D01*
X028283Y007562D01*
X028143Y007562D01*
X028121Y007584D01*
X028033Y007620D01*
X025356Y007620D01*
X025708Y007973D01*
X025745Y008061D01*
X025745Y008243D01*
X025934Y008243D01*
X025934Y007946D01*
X026051Y007829D01*
X026494Y007829D01*
X026553Y007888D01*
X027569Y007888D01*
X027671Y007930D01*
X027750Y008009D01*
X028046Y008304D01*
X028088Y008407D01*
X028088Y009384D01*
X028147Y009442D01*
X028147Y009885D01*
X028030Y010003D01*
X027587Y010003D01*
X027469Y009885D01*
X027469Y009442D01*
X027528Y009384D01*
X027528Y008579D01*
X027397Y008448D01*
X027359Y008448D01*
X027359Y010211D01*
X028257Y010211D01*
X028257Y008396D01*
X028294Y008307D01*
X028361Y008240D01*
X028449Y008203D01*
X030789Y008203D01*
X030877Y008240D01*
X030945Y008307D01*
X030981Y008396D01*
X030981Y011933D01*
X031574Y011933D01*
X031574Y008257D01*
X031235Y007918D01*
X031168Y007851D01*
X031131Y007763D01*
X031131Y007431D01*
X031168Y007343D01*
X031475Y007035D01*
X031475Y006814D01*
X031592Y006697D01*
X032036Y006697D01*
X032153Y006814D01*
X032153Y007257D01*
X032079Y007331D01*
X032143Y007395D01*
X032143Y007498D01*
X032255Y007610D01*
X032323Y007678D01*
X032359Y007766D01*
X032359Y017507D01*
X032323Y017595D01*
X032255Y017663D01*
X031241Y018676D01*
X031153Y018713D01*
X021127Y018713D01*
X021038Y018676D01*
X020971Y018609D01*
X020577Y018215D01*
X020541Y018127D01*
X020541Y017634D01*
X020479Y017696D01*
X019704Y017696D01*
X019617Y017608D01*
X019617Y016834D01*
X019704Y016746D01*
X020479Y016746D01*
X020541Y016808D01*
X020541Y010196D01*
X020170Y009825D01*
X020030Y009825D01*
X019832Y009627D01*
X019832Y009517D01*
X019661Y009688D01*
X019380Y009688D01*
X019182Y009489D01*
X019182Y009209D01*
X019380Y009010D01*
X019658Y009010D01*
X019759Y008909D01*
X019847Y008873D01*
X020976Y008873D01*
X021064Y008909D01*
X021407Y009252D01*
X021407Y008435D01*
X021443Y008347D01*
X021511Y008279D01*
X021599Y008243D01*
X022509Y008243D01*
X022509Y007907D01*
X022520Y007896D01*
X020536Y007896D01*
X020518Y007888D01*
X020490Y007916D01*
X020047Y007916D01*
X019930Y007799D01*
X019930Y007356D01*
X020044Y007241D01*
X019918Y007115D01*
X019837Y007197D01*
X019598Y007197D01*
X019429Y007028D01*
X019429Y006788D01*
X019528Y006690D01*
X019528Y006534D01*
X019646Y006416D01*
X019757Y006305D01*
X020544Y006305D01*
X021194Y006954D01*
X021259Y006954D01*
X020645Y006340D01*
X020577Y006272D01*
X020541Y006184D01*
X020541Y005730D01*
X020442Y005631D01*
X020442Y005350D01*
X020458Y005334D02*
X017489Y005334D01*
X017565Y005236D02*
X020442Y005236D01*
X020442Y005137D02*
X017565Y005137D01*
X017565Y005039D02*
X020442Y005039D01*
X020458Y004940D02*
X018038Y004940D01*
X018038Y004842D02*
X020442Y004842D01*
X020442Y004743D02*
X018038Y004743D01*
X018038Y004645D02*
X020442Y004645D01*
X020478Y004546D02*
X018038Y004546D01*
X016988Y004546D02*
X013875Y004546D01*
X013875Y004448D02*
X020492Y004448D01*
X020492Y004349D02*
X013802Y004349D01*
X013846Y004251D02*
X020492Y004251D01*
X020549Y004152D02*
X013904Y004152D01*
X013904Y004054D02*
X020647Y004054D01*
X020862Y003955D02*
X013904Y003955D01*
X013807Y003857D02*
X020957Y003857D01*
X021391Y004451D02*
X021391Y004604D01*
X021394Y004640D01*
X021391Y004652D01*
X021391Y004664D01*
X021377Y004697D01*
X021367Y004731D01*
X021359Y004741D01*
X021354Y004753D01*
X021329Y004778D01*
X021272Y004847D01*
X021268Y004859D01*
X021242Y004884D01*
X021220Y004912D01*
X021209Y004917D01*
X021200Y004926D01*
X021179Y004935D01*
X021201Y004957D01*
X021307Y005063D01*
X021343Y005152D01*
X021343Y005718D01*
X021427Y005802D01*
X024124Y005802D01*
X024223Y005703D01*
X024504Y005703D01*
X024702Y005901D01*
X024702Y006182D01*
X024504Y006381D01*
X024223Y006381D01*
X024124Y006282D01*
X021280Y006282D01*
X021255Y006271D01*
X021534Y006550D01*
X024124Y006550D01*
X024223Y006451D01*
X024504Y006451D01*
X024702Y006650D01*
X024702Y006930D01*
X024678Y006954D01*
X027592Y006954D01*
X027854Y006692D01*
X027854Y006552D01*
X027868Y006538D01*
X027766Y006538D01*
X027568Y006340D01*
X027568Y006066D01*
X026790Y005288D01*
X026753Y005200D01*
X026753Y004460D01*
X026744Y004451D01*
X021391Y004451D01*
X021391Y004546D02*
X026753Y004546D01*
X026753Y004645D02*
X021393Y004645D01*
X021358Y004743D02*
X026753Y004743D01*
X026753Y004842D02*
X021277Y004842D01*
X021184Y004940D02*
X026753Y004940D01*
X026753Y005039D02*
X021283Y005039D01*
X021338Y005137D02*
X026753Y005137D01*
X026768Y005236D02*
X021343Y005236D01*
X021343Y005334D02*
X026836Y005334D01*
X026935Y005433D02*
X021343Y005433D01*
X021343Y005531D02*
X027033Y005531D01*
X027132Y005630D02*
X021343Y005630D01*
X021354Y005728D02*
X024198Y005728D01*
X024529Y005728D02*
X027230Y005728D01*
X027329Y005827D02*
X024628Y005827D01*
X024702Y005925D02*
X027427Y005925D01*
X027526Y006024D02*
X024702Y006024D01*
X024702Y006122D02*
X027568Y006122D01*
X027568Y006221D02*
X024663Y006221D01*
X024565Y006319D02*
X027568Y006319D01*
X027646Y006418D02*
X021402Y006418D01*
X021500Y006516D02*
X024158Y006516D01*
X024162Y006319D02*
X021303Y006319D01*
X020920Y006615D02*
X020855Y006615D01*
X020821Y006516D02*
X020756Y006516D01*
X020723Y006418D02*
X020658Y006418D01*
X020624Y006319D02*
X020559Y006319D01*
X020556Y006221D02*
X010901Y006221D01*
X010803Y006319D02*
X019742Y006319D01*
X019644Y006418D02*
X010704Y006418D01*
X010606Y006516D02*
X019545Y006516D01*
X019528Y006615D02*
X010528Y006615D01*
X010528Y006713D02*
X019504Y006713D01*
X019429Y006812D02*
X010528Y006812D01*
X010528Y006910D02*
X019429Y006910D01*
X019429Y007009D02*
X010528Y007009D01*
X010528Y007108D02*
X019509Y007108D01*
X020009Y007206D02*
X010523Y007206D01*
X010468Y007305D02*
X019981Y007305D01*
X019930Y007403D02*
X010369Y007403D01*
X010271Y007502D02*
X019930Y007502D01*
X019930Y007600D02*
X010172Y007600D01*
X010074Y007699D02*
X019930Y007699D01*
X019930Y007797D02*
X009975Y007797D01*
X009877Y007896D02*
X010377Y007896D01*
X010404Y007868D02*
X010685Y007868D01*
X010883Y008067D01*
X010883Y008347D01*
X010685Y008546D01*
X010404Y008546D01*
X010206Y008347D01*
X010206Y008067D01*
X010404Y007868D01*
X010278Y007994D02*
X009778Y007994D01*
X009680Y008093D02*
X010206Y008093D01*
X010206Y008191D02*
X009581Y008191D01*
X009483Y008290D02*
X010206Y008290D01*
X010246Y008388D02*
X009384Y008388D01*
X009328Y008487D02*
X010345Y008487D01*
X010744Y008487D02*
X021407Y008487D01*
X021407Y008585D02*
X009328Y008585D01*
X009328Y008684D02*
X021407Y008684D01*
X021407Y008782D02*
X009328Y008782D01*
X009328Y008881D02*
X019828Y008881D01*
X019689Y008979D02*
X009328Y008979D01*
X009328Y009078D02*
X019313Y009078D01*
X019215Y009176D02*
X009328Y009176D01*
X009328Y009275D02*
X019182Y009275D01*
X019182Y009373D02*
X013920Y009373D01*
X013937Y009390D02*
X014403Y009857D01*
X014624Y009857D01*
X014741Y009974D01*
X014741Y010417D01*
X014624Y010534D01*
X014486Y010534D01*
X014574Y010622D01*
X014635Y010769D01*
X014635Y011462D01*
X014574Y011609D01*
X014003Y012180D01*
X014003Y013525D01*
X013943Y013672D01*
X013806Y013808D01*
X013806Y014157D01*
X013689Y014274D01*
X013246Y014274D01*
X013129Y014157D01*
X013129Y013808D01*
X013128Y013808D01*
X013068Y013661D01*
X013068Y013502D01*
X013128Y013355D01*
X013203Y013280D01*
X013203Y011935D01*
X013264Y011788D01*
X013835Y011217D01*
X013835Y010769D01*
X013896Y010622D01*
X013925Y010593D01*
X013591Y010593D01*
X013492Y010494D01*
X013203Y010494D01*
X012359Y011338D01*
X012359Y011582D01*
X012323Y011670D01*
X012126Y011867D01*
X012058Y011934D01*
X011970Y011971D01*
X011829Y011971D01*
X011731Y012070D01*
X011414Y012070D01*
X011414Y012101D01*
X011731Y012101D01*
X011848Y012218D01*
X011848Y012661D01*
X011731Y012778D01*
X011287Y012778D01*
X011170Y012661D01*
X011170Y012649D01*
X011156Y012643D01*
X011089Y012575D01*
X010971Y012457D01*
X010934Y012369D01*
X010934Y011073D01*
X010971Y010985D01*
X011038Y010917D01*
X012633Y009323D01*
X012721Y009286D01*
X013781Y009286D01*
X013869Y009323D01*
X013937Y009390D01*
X014018Y009472D02*
X019182Y009472D01*
X019263Y009570D02*
X018539Y009570D01*
X018521Y009552D02*
X018609Y009640D01*
X018609Y010042D01*
X018521Y010130D01*
X018119Y010130D01*
X018031Y010042D01*
X018031Y009640D01*
X018119Y009552D01*
X018521Y009552D01*
X018609Y009669D02*
X019361Y009669D01*
X019680Y009669D02*
X019873Y009669D01*
X019832Y009570D02*
X019779Y009570D01*
X019972Y009767D02*
X018609Y009767D01*
X018609Y009866D02*
X020210Y009866D01*
X020308Y009964D02*
X018609Y009964D01*
X018588Y010063D02*
X020407Y010063D01*
X020505Y010161D02*
X014741Y010161D01*
X014741Y010063D02*
X018052Y010063D01*
X018031Y009964D02*
X014732Y009964D01*
X014633Y009866D02*
X018031Y009866D01*
X018031Y009767D02*
X014314Y009767D01*
X014215Y009669D02*
X018031Y009669D01*
X018101Y009570D02*
X014117Y009570D01*
X014741Y010260D02*
X020541Y010260D01*
X020541Y010358D02*
X014741Y010358D01*
X014702Y010457D02*
X020541Y010457D01*
X020541Y010555D02*
X014507Y010555D01*
X014587Y010654D02*
X020541Y010654D01*
X020541Y010752D02*
X014628Y010752D01*
X014635Y010851D02*
X020541Y010851D01*
X020541Y010949D02*
X014635Y010949D01*
X014635Y011048D02*
X020541Y011048D01*
X020541Y011146D02*
X014635Y011146D01*
X014635Y011245D02*
X020541Y011245D01*
X020541Y011343D02*
X014635Y011343D01*
X014635Y011442D02*
X020541Y011442D01*
X020541Y011540D02*
X014603Y011540D01*
X014545Y011639D02*
X020541Y011639D01*
X020541Y011737D02*
X014446Y011737D01*
X014348Y011836D02*
X020541Y011836D01*
X020541Y011934D02*
X014249Y011934D01*
X014151Y012033D02*
X020541Y012033D01*
X020541Y012131D02*
X014052Y012131D01*
X014003Y012230D02*
X020541Y012230D01*
X020541Y012328D02*
X014003Y012328D01*
X014003Y012427D02*
X020541Y012427D01*
X020541Y012525D02*
X014003Y012525D01*
X014003Y012624D02*
X020541Y012624D01*
X020541Y012722D02*
X014003Y012722D01*
X014003Y012821D02*
X020541Y012821D01*
X020541Y012919D02*
X014003Y012919D01*
X014003Y013018D02*
X020541Y013018D01*
X020541Y013116D02*
X014003Y013116D01*
X014003Y013215D02*
X020541Y013215D01*
X020541Y013313D02*
X016437Y013313D01*
X016484Y013360D02*
X016484Y013803D01*
X016366Y013920D01*
X015923Y013920D01*
X015569Y013920D01*
X015452Y013803D01*
X015452Y013360D01*
X015569Y013242D01*
X016366Y013242D01*
X016484Y013360D01*
X016484Y013412D02*
X020541Y013412D01*
X020541Y013510D02*
X016484Y013510D01*
X016484Y013609D02*
X020541Y013609D01*
X020541Y013707D02*
X016484Y013707D01*
X016481Y013806D02*
X020541Y013806D01*
X020541Y013904D02*
X016382Y013904D01*
X015553Y013904D02*
X013806Y013904D01*
X013806Y014003D02*
X020541Y014003D01*
X020541Y014101D02*
X013806Y014101D01*
X013764Y014200D02*
X020541Y014200D01*
X020541Y014298D02*
X015619Y014298D01*
X015598Y014277D02*
X015685Y014365D01*
X015685Y014766D01*
X015685Y015101D01*
X015598Y015189D01*
X015196Y015189D01*
X015108Y015101D01*
X015108Y014365D01*
X015196Y014277D01*
X015598Y014277D01*
X015685Y014397D02*
X020541Y014397D01*
X020541Y014495D02*
X015685Y014495D01*
X015685Y014594D02*
X020541Y014594D01*
X020541Y014692D02*
X015685Y014692D01*
X015685Y014791D02*
X020541Y014791D01*
X020541Y014889D02*
X015685Y014889D01*
X015685Y014988D02*
X020541Y014988D01*
X020541Y015086D02*
X015685Y015086D01*
X015602Y015185D02*
X020541Y015185D01*
X020541Y015283D02*
X003155Y015283D01*
X003155Y015209D02*
X003083Y015033D01*
X002949Y014899D01*
X002773Y014826D01*
X002583Y014826D01*
X002408Y014899D01*
X002274Y015033D01*
X002201Y015209D01*
X002201Y015399D01*
X002274Y015574D01*
X002408Y015708D01*
X002583Y015781D01*
X002773Y015781D01*
X002949Y015708D01*
X003083Y015574D01*
X003155Y015399D01*
X003155Y015209D01*
X003145Y015185D02*
X015192Y015185D01*
X015108Y015086D02*
X003105Y015086D01*
X003037Y014988D02*
X015108Y014988D01*
X015108Y014889D02*
X002924Y014889D01*
X002432Y014889D02*
X001924Y014889D01*
X001949Y014899D02*
X002083Y015033D01*
X002155Y015209D01*
X002155Y015399D01*
X002083Y015574D01*
X001949Y015708D01*
X001773Y015781D01*
X001583Y015781D01*
X001408Y015708D01*
X001274Y015574D01*
X001201Y015399D01*
X001201Y015209D01*
X001274Y015033D01*
X001408Y014899D01*
X001583Y014826D01*
X001773Y014826D01*
X001949Y014899D01*
X002037Y014988D02*
X002320Y014988D01*
X002252Y015086D02*
X002105Y015086D01*
X002145Y015185D02*
X002211Y015185D01*
X002201Y015283D02*
X002155Y015283D01*
X002155Y015382D02*
X002201Y015382D01*
X002235Y015480D02*
X002122Y015480D01*
X002078Y015579D02*
X002278Y015579D01*
X002377Y015677D02*
X001980Y015677D01*
X001888Y015874D02*
X002468Y015874D01*
X002408Y015899D02*
X002583Y015826D01*
X002773Y015826D01*
X002949Y015899D01*
X003083Y016033D01*
X003155Y016209D01*
X003155Y016399D01*
X003083Y016574D01*
X002949Y016708D01*
X002773Y016781D01*
X002583Y016781D01*
X002408Y016708D01*
X002274Y016574D01*
X002201Y016399D01*
X002201Y016209D01*
X002274Y016033D01*
X002408Y015899D01*
X002335Y015973D02*
X002022Y015973D01*
X002083Y016033D02*
X002155Y016209D01*
X002155Y016399D01*
X002083Y016574D01*
X001949Y016708D01*
X001773Y016781D01*
X001583Y016781D01*
X001408Y016708D01*
X001274Y016574D01*
X001201Y016399D01*
X001201Y016209D01*
X001274Y016033D01*
X001408Y015899D01*
X001583Y015826D01*
X001773Y015826D01*
X001949Y015899D01*
X002083Y016033D01*
X002098Y016071D02*
X002258Y016071D01*
X002217Y016170D02*
X002139Y016170D01*
X002155Y016268D02*
X002201Y016268D01*
X002201Y016367D02*
X002155Y016367D01*
X002128Y016465D02*
X002229Y016465D01*
X002269Y016564D02*
X002087Y016564D01*
X001995Y016662D02*
X002362Y016662D01*
X002534Y016761D02*
X001822Y016761D01*
X001773Y016826D02*
X001949Y016899D01*
X002083Y017033D01*
X002155Y017209D01*
X002155Y017399D01*
X002083Y017574D01*
X001949Y017708D01*
X001773Y017781D01*
X001583Y017781D01*
X001408Y017708D01*
X001274Y017574D01*
X001201Y017399D01*
X001201Y017209D01*
X001274Y017033D01*
X001408Y016899D01*
X001583Y016826D01*
X001773Y016826D01*
X001852Y016859D02*
X002505Y016859D01*
X002583Y016826D02*
X002773Y016826D01*
X002949Y016899D01*
X003083Y017033D01*
X003155Y017209D01*
X003155Y017399D01*
X003083Y017574D01*
X002949Y017708D01*
X002773Y017781D01*
X002583Y017781D01*
X002408Y017708D01*
X002274Y017574D01*
X002201Y017399D01*
X002201Y017209D01*
X002274Y017033D01*
X002408Y016899D01*
X002583Y016826D01*
X002822Y016761D02*
X017578Y016761D01*
X017578Y016859D02*
X015717Y016859D01*
X015787Y016958D02*
X017585Y016958D01*
X017578Y016951D02*
X017578Y016550D01*
X017666Y016462D01*
X018068Y016462D01*
X018156Y016550D01*
X018156Y016951D01*
X018068Y017039D01*
X017666Y017039D01*
X017578Y016951D01*
X018150Y016958D02*
X019617Y016958D01*
X019617Y017056D02*
X015804Y017056D01*
X015804Y017155D02*
X019617Y017155D01*
X019617Y017253D02*
X015804Y017253D01*
X015804Y017352D02*
X019617Y017352D01*
X019617Y017450D02*
X015804Y017450D01*
X015804Y017549D02*
X019617Y017549D01*
X019656Y017647D02*
X015804Y017647D01*
X015804Y017746D02*
X020541Y017746D01*
X020541Y017844D02*
X015804Y017844D01*
X015804Y017943D02*
X020541Y017943D01*
X020541Y018041D02*
X015804Y018041D01*
X015804Y018140D02*
X020546Y018140D01*
X020600Y018238D02*
X015804Y018238D01*
X015787Y018337D02*
X020699Y018337D01*
X020797Y018435D02*
X015715Y018435D01*
X014135Y018534D02*
X020896Y018534D01*
X020994Y018632D02*
X014135Y018632D01*
X014135Y018731D02*
X032520Y018731D01*
X032520Y018829D02*
X023417Y018829D01*
X023413Y018825D02*
X023501Y018913D01*
X023501Y019687D01*
X023413Y019775D01*
X022639Y019775D01*
X022551Y019687D01*
X022551Y018913D01*
X022639Y018825D01*
X023413Y018825D01*
X023501Y018928D02*
X026290Y018928D01*
X026348Y018904D02*
X026572Y018904D01*
X026779Y018989D01*
X026937Y019148D01*
X027023Y019355D01*
X027023Y019579D01*
X026937Y019786D01*
X026779Y019945D01*
X026572Y020030D01*
X026348Y020030D01*
X026141Y019945D01*
X025982Y019786D01*
X025896Y019579D01*
X025896Y019355D01*
X025982Y019148D01*
X026141Y018989D01*
X026348Y018904D01*
X026104Y019026D02*
X023501Y019026D01*
X023501Y019125D02*
X026005Y019125D01*
X025951Y019223D02*
X023501Y019223D01*
X023501Y019322D02*
X025910Y019322D01*
X025896Y019420D02*
X023501Y019420D01*
X023501Y019519D02*
X025896Y019519D01*
X025912Y019617D02*
X023501Y019617D01*
X023473Y019716D02*
X025953Y019716D01*
X026010Y019814D02*
X014135Y019814D01*
X014135Y019716D02*
X022579Y019716D01*
X022551Y019617D02*
X014135Y019617D01*
X014135Y019519D02*
X022551Y019519D01*
X022551Y019420D02*
X014135Y019420D01*
X014135Y019322D02*
X022551Y019322D01*
X022551Y019223D02*
X014135Y019223D01*
X014135Y019125D02*
X022551Y019125D01*
X022551Y019026D02*
X014135Y019026D01*
X014135Y018928D02*
X022551Y018928D01*
X022635Y018829D02*
X014135Y018829D01*
X013175Y018829D02*
X012998Y018829D01*
X012998Y018776D02*
X012936Y018627D01*
X012822Y018513D01*
X012672Y018451D01*
X012511Y018451D01*
X012362Y018513D01*
X012248Y018627D01*
X012186Y018776D01*
X012186Y018938D01*
X012248Y019087D01*
X012362Y019201D01*
X012511Y019263D01*
X012672Y019263D01*
X012822Y019201D01*
X012936Y019087D01*
X012998Y018938D01*
X012998Y018776D01*
X012979Y018731D02*
X013175Y018731D01*
X013175Y018632D02*
X012938Y018632D01*
X012842Y018534D02*
X013175Y018534D01*
X013175Y018435D02*
X012125Y018435D01*
X012063Y018497D02*
X011895Y018566D01*
X011713Y018566D01*
X011545Y018497D01*
X011416Y018368D01*
X011411Y018354D01*
X011405Y018368D01*
X011276Y018497D01*
X011108Y018566D01*
X010926Y018566D01*
X010758Y018497D01*
X010687Y018426D01*
X010687Y018449D01*
X010570Y018566D01*
X009889Y018566D01*
X009772Y018449D01*
X009772Y017768D01*
X009802Y017738D01*
X007868Y017738D01*
X007960Y017830D01*
X008029Y017998D01*
X008029Y018180D01*
X007960Y018348D01*
X007831Y018477D01*
X007663Y018547D01*
X007481Y018547D01*
X007313Y018477D01*
X007184Y018348D01*
X007178Y018334D01*
X007172Y018348D01*
X007044Y018477D01*
X006876Y018547D01*
X006694Y018547D01*
X006525Y018477D01*
X006455Y018406D01*
X006455Y018429D01*
X006337Y018547D01*
X005657Y018547D01*
X005540Y018429D01*
X005540Y017749D01*
X005657Y017632D01*
X006337Y017632D01*
X006455Y017749D01*
X006455Y017772D01*
X006525Y017701D01*
X006581Y017678D01*
X006581Y017678D01*
X006896Y017363D01*
X006964Y017295D01*
X007052Y017258D01*
X010946Y017258D01*
X011009Y017285D01*
X011097Y017197D01*
X011186Y017160D01*
X011959Y017160D01*
X012058Y017061D01*
X012338Y017061D01*
X012537Y017260D01*
X012537Y017540D01*
X012338Y017739D01*
X012081Y017739D01*
X012192Y017850D01*
X012262Y018018D01*
X012262Y018200D01*
X012192Y018368D01*
X012063Y018497D01*
X011974Y018534D02*
X012341Y018534D01*
X012245Y018632D02*
X008714Y018632D01*
X008703Y018607D02*
X008765Y018756D01*
X008765Y018918D01*
X008703Y019067D01*
X008589Y019181D01*
X008440Y019243D01*
X008279Y019243D01*
X008129Y019181D01*
X008015Y019067D01*
X007953Y018918D01*
X007953Y018756D01*
X008015Y018607D01*
X008129Y018493D01*
X008279Y018431D01*
X008440Y018431D01*
X008589Y018493D01*
X008703Y018607D01*
X008630Y018534D02*
X009856Y018534D01*
X009772Y018435D02*
X008449Y018435D01*
X008269Y018435D02*
X007873Y018435D01*
X007965Y018337D02*
X009772Y018337D01*
X009772Y018238D02*
X008005Y018238D01*
X008029Y018140D02*
X009772Y018140D01*
X009772Y018041D02*
X008029Y018041D01*
X008006Y017943D02*
X009772Y017943D01*
X009772Y017844D02*
X007966Y017844D01*
X007875Y017746D02*
X009795Y017746D01*
X010687Y018435D02*
X010696Y018435D01*
X010602Y018534D02*
X010847Y018534D01*
X011187Y018534D02*
X011634Y018534D01*
X011484Y018435D02*
X011337Y018435D01*
X012205Y018337D02*
X013175Y018337D01*
X013175Y018238D02*
X012246Y018238D01*
X012262Y018140D02*
X013175Y018140D01*
X013175Y018041D02*
X012262Y018041D01*
X012231Y017943D02*
X013196Y017943D01*
X013237Y017844D02*
X012186Y017844D01*
X012088Y017746D02*
X013319Y017746D01*
X013418Y017647D02*
X012430Y017647D01*
X012529Y017549D02*
X013516Y017549D01*
X013615Y017450D02*
X012537Y017450D01*
X012537Y017352D02*
X013713Y017352D01*
X013808Y017253D02*
X012530Y017253D01*
X012431Y017155D02*
X013808Y017155D01*
X013808Y017056D02*
X003092Y017056D01*
X003133Y017155D02*
X011964Y017155D01*
X011041Y017253D02*
X003155Y017253D01*
X003155Y017352D02*
X006907Y017352D01*
X006809Y017450D02*
X003134Y017450D01*
X003093Y017549D02*
X006710Y017549D01*
X006612Y017647D02*
X006353Y017647D01*
X006451Y017746D02*
X006481Y017746D01*
X005641Y017647D02*
X003010Y017647D01*
X002858Y017746D02*
X005543Y017746D01*
X005540Y017844D02*
X000340Y017844D01*
X000340Y017746D02*
X001498Y017746D01*
X001347Y017647D02*
X000340Y017647D01*
X000340Y017549D02*
X001263Y017549D01*
X001222Y017450D02*
X000340Y017450D01*
X000340Y017352D02*
X001201Y017352D01*
X001201Y017253D02*
X000340Y017253D01*
X000340Y017155D02*
X001224Y017155D01*
X001264Y017056D02*
X000340Y017056D01*
X000340Y016958D02*
X001350Y016958D01*
X001505Y016859D02*
X000340Y016859D01*
X000340Y016761D02*
X001534Y016761D01*
X001362Y016662D02*
X000340Y016662D01*
X000340Y016564D02*
X001269Y016564D01*
X001229Y016465D02*
X000340Y016465D01*
X000340Y016367D02*
X001201Y016367D01*
X001201Y016268D02*
X000340Y016268D01*
X000340Y016170D02*
X001217Y016170D01*
X001258Y016071D02*
X000340Y016071D01*
X000340Y015973D02*
X001335Y015973D01*
X001468Y015874D02*
X000340Y015874D01*
X000340Y015776D02*
X001571Y015776D01*
X001786Y015776D02*
X002571Y015776D01*
X002786Y015776D02*
X020541Y015776D01*
X020541Y015874D02*
X002888Y015874D01*
X003022Y015973D02*
X020541Y015973D01*
X020541Y016071D02*
X003098Y016071D01*
X003139Y016170D02*
X020541Y016170D01*
X020541Y016268D02*
X003155Y016268D01*
X003155Y016367D02*
X020541Y016367D01*
X020541Y016465D02*
X018071Y016465D01*
X018156Y016564D02*
X020541Y016564D01*
X020541Y016662D02*
X018156Y016662D01*
X018156Y016761D02*
X019690Y016761D01*
X019617Y016859D02*
X018156Y016859D01*
X017578Y016662D02*
X002995Y016662D01*
X003087Y016564D02*
X017578Y016564D01*
X017663Y016465D02*
X003128Y016465D01*
X002852Y016859D02*
X013896Y016859D01*
X013825Y016958D02*
X003007Y016958D01*
X002350Y016958D02*
X002007Y016958D01*
X002092Y017056D02*
X002264Y017056D01*
X002224Y017155D02*
X002133Y017155D01*
X002155Y017253D02*
X002201Y017253D01*
X002201Y017352D02*
X002155Y017352D01*
X002134Y017450D02*
X002222Y017450D01*
X002263Y017549D02*
X002093Y017549D01*
X002010Y017647D02*
X002347Y017647D01*
X002498Y017746D02*
X001858Y017746D01*
X000340Y017943D02*
X005540Y017943D01*
X005540Y018041D02*
X000340Y018041D01*
X000340Y018140D02*
X005540Y018140D01*
X005540Y018238D02*
X000340Y018238D01*
X000340Y018337D02*
X005540Y018337D01*
X005545Y018435D02*
X000340Y018435D01*
X000340Y018534D02*
X005644Y018534D01*
X006350Y018534D02*
X006662Y018534D01*
X006484Y018435D02*
X006449Y018435D01*
X006907Y018534D02*
X007450Y018534D01*
X007271Y018435D02*
X007086Y018435D01*
X007177Y018337D02*
X007179Y018337D01*
X007694Y018534D02*
X008089Y018534D01*
X008005Y018632D02*
X000340Y018632D01*
X000340Y018731D02*
X007964Y018731D01*
X007953Y018829D02*
X000340Y018829D01*
X000340Y018928D02*
X007957Y018928D01*
X007998Y019026D02*
X000340Y019026D01*
X000340Y019125D02*
X008073Y019125D01*
X008230Y019223D02*
X000340Y019223D01*
X000340Y019322D02*
X013175Y019322D01*
X013175Y019420D02*
X000340Y019420D01*
X000340Y019519D02*
X013175Y019519D01*
X013175Y019617D02*
X002236Y019617D01*
X002110Y019562D02*
X002533Y019747D01*
X002533Y019747D01*
X002874Y020061D01*
X003094Y020467D01*
X003094Y020467D01*
X003170Y020924D01*
X003094Y021380D01*
X002874Y021787D01*
X002533Y022100D01*
X002110Y022286D01*
X002110Y022286D01*
X001649Y022324D01*
X001649Y022324D01*
X001200Y022210D01*
X000813Y021957D01*
X000529Y021592D01*
X000379Y021155D01*
X000379Y020692D01*
X000529Y020255D01*
X000813Y019890D01*
X000813Y019890D01*
X000813Y019890D01*
X001200Y019637D01*
X001200Y019637D01*
X001649Y019523D01*
X002110Y019562D01*
X002110Y019562D01*
X002460Y019716D02*
X003468Y019716D01*
X003493Y019690D02*
X003405Y019778D01*
X003405Y020180D01*
X003493Y020268D01*
X003895Y020268D01*
X003983Y020180D01*
X003983Y019778D01*
X003895Y019690D01*
X003493Y019690D01*
X003405Y019814D02*
X002606Y019814D01*
X002713Y019913D02*
X003405Y019913D01*
X003405Y020011D02*
X002820Y020011D01*
X002874Y020061D02*
X002874Y020061D01*
X002900Y020110D02*
X003405Y020110D01*
X003434Y020208D02*
X002953Y020208D01*
X003007Y020307D02*
X004377Y020307D01*
X004344Y020339D02*
X004458Y020225D01*
X004607Y020163D01*
X004769Y020163D01*
X004918Y020225D01*
X005032Y020339D01*
X005094Y020489D01*
X005094Y020650D01*
X005032Y020799D01*
X010141Y020799D01*
X010157Y020815D02*
X010043Y020701D01*
X009981Y020552D01*
X009981Y020390D01*
X010043Y020241D01*
X010157Y020127D01*
X010306Y020065D01*
X010468Y020065D01*
X010617Y020127D01*
X010731Y020241D01*
X010793Y020390D01*
X010793Y020552D01*
X010731Y020701D01*
X010617Y020815D01*
X010468Y020877D01*
X010306Y020877D01*
X010157Y020815D01*
X010043Y020701D02*
X005073Y020701D01*
X005094Y020602D02*
X010002Y020602D01*
X009981Y020504D02*
X005094Y020504D01*
X005059Y020405D02*
X009981Y020405D01*
X010016Y020307D02*
X004999Y020307D01*
X004876Y020208D02*
X010076Y020208D01*
X010199Y020110D02*
X003983Y020110D01*
X003983Y020011D02*
X013175Y020011D01*
X013175Y019913D02*
X003983Y019913D01*
X003983Y019814D02*
X013175Y019814D01*
X013175Y019716D02*
X003920Y019716D01*
X003954Y020208D02*
X004500Y020208D01*
X004344Y020339D02*
X004282Y020489D01*
X004282Y020650D01*
X004344Y020799D01*
X003149Y020799D01*
X003133Y020701D02*
X004303Y020701D01*
X004282Y020602D02*
X003116Y020602D01*
X003100Y020504D02*
X004282Y020504D01*
X004317Y020405D02*
X003060Y020405D01*
X003165Y020898D02*
X004442Y020898D01*
X004458Y020913D02*
X004344Y020799D01*
X004458Y020913D02*
X004607Y020975D01*
X004769Y020975D01*
X004918Y020913D01*
X005032Y020799D01*
X004934Y020898D02*
X005294Y020898D01*
X005216Y020930D02*
X005384Y020860D01*
X005566Y020860D01*
X005735Y020930D01*
X005863Y021058D01*
X005869Y021072D01*
X005875Y021058D01*
X006004Y020930D01*
X006172Y020860D01*
X006354Y020860D01*
X006522Y020930D01*
X006651Y021058D01*
X006657Y021072D01*
X006662Y021058D01*
X006791Y020930D01*
X006959Y020860D01*
X007141Y020860D01*
X007309Y020930D01*
X007438Y021058D01*
X007508Y021226D01*
X007508Y021408D01*
X007438Y021577D01*
X007309Y021705D01*
X007141Y021775D01*
X006959Y021775D01*
X006791Y021705D01*
X006662Y021577D01*
X006657Y021562D01*
X006651Y021577D01*
X006522Y021705D01*
X006354Y021775D01*
X006172Y021775D01*
X006004Y021705D01*
X005875Y021577D01*
X005869Y021562D01*
X005863Y021577D01*
X005735Y021705D01*
X005566Y021775D01*
X005384Y021775D01*
X005216Y021705D01*
X005088Y021577D01*
X005018Y021408D01*
X005018Y021226D01*
X005088Y021058D01*
X005216Y020930D01*
X005150Y020996D02*
X003158Y020996D01*
X003141Y021095D02*
X005073Y021095D01*
X005032Y021193D02*
X003125Y021193D01*
X003108Y021292D02*
X005018Y021292D01*
X005018Y021390D02*
X003088Y021390D01*
X003094Y021380D02*
X003094Y021380D01*
X003035Y021489D02*
X005051Y021489D01*
X005098Y021587D02*
X002982Y021587D01*
X002928Y021686D02*
X005197Y021686D01*
X005754Y021686D02*
X005984Y021686D01*
X005886Y021587D02*
X005853Y021587D01*
X006542Y021686D02*
X006771Y021686D01*
X006673Y021587D02*
X006640Y021587D01*
X007329Y021686D02*
X008266Y021686D01*
X008305Y021725D02*
X008218Y021637D01*
X008218Y020998D01*
X008305Y020910D01*
X008945Y020910D01*
X009033Y020998D01*
X009033Y021637D01*
X008945Y021725D01*
X008305Y021725D01*
X008218Y021587D02*
X007428Y021587D01*
X007475Y021489D02*
X008218Y021489D01*
X008218Y021390D02*
X007508Y021390D01*
X007508Y021292D02*
X008218Y021292D01*
X008218Y021193D02*
X007494Y021193D01*
X007453Y021095D02*
X008218Y021095D01*
X008219Y020996D02*
X007376Y020996D01*
X007232Y020898D02*
X010817Y020898D01*
X010747Y020996D02*
X009031Y020996D01*
X009033Y021095D02*
X010706Y021095D01*
X010694Y021193D02*
X009033Y021193D01*
X009033Y021292D02*
X010694Y021292D01*
X010694Y021390D02*
X009033Y021390D01*
X009033Y021489D02*
X010694Y021489D01*
X010694Y021587D02*
X009033Y021587D01*
X008984Y021686D02*
X010694Y021686D01*
X010694Y021784D02*
X002875Y021784D01*
X002874Y021787D02*
X002874Y021787D01*
X002769Y021883D02*
X010694Y021883D01*
X010734Y021981D02*
X004178Y021981D01*
X004219Y022080D02*
X010785Y022080D01*
X010884Y022178D02*
X004219Y022178D01*
X004219Y022277D02*
X010982Y022277D01*
X011654Y021390D02*
X013175Y021390D01*
X013175Y021292D02*
X011654Y021292D01*
X011654Y021193D02*
X013175Y021193D01*
X013175Y021095D02*
X011642Y021095D01*
X011601Y020996D02*
X013175Y020996D01*
X013175Y020898D02*
X011532Y020898D01*
X011415Y020799D02*
X013175Y020799D01*
X013175Y020701D02*
X010731Y020701D01*
X010772Y020602D02*
X013175Y020602D01*
X013175Y020504D02*
X010793Y020504D01*
X010793Y020405D02*
X013175Y020405D01*
X013175Y020307D02*
X010758Y020307D01*
X010698Y020208D02*
X013175Y020208D01*
X013175Y020110D02*
X010575Y020110D01*
X010633Y020799D02*
X010934Y020799D01*
X012285Y019125D02*
X008646Y019125D01*
X008720Y019026D02*
X012222Y019026D01*
X012186Y018928D02*
X008761Y018928D01*
X008765Y018829D02*
X012186Y018829D01*
X012205Y018731D02*
X008755Y018731D01*
X008488Y019223D02*
X012415Y019223D01*
X012768Y019223D02*
X013175Y019223D01*
X013175Y019125D02*
X012898Y019125D01*
X012961Y019026D02*
X013175Y019026D01*
X013175Y018928D02*
X012998Y018928D01*
X014135Y019913D02*
X026109Y019913D01*
X026301Y020011D02*
X014135Y020011D01*
X014135Y020110D02*
X018131Y020110D01*
X018066Y020136D02*
X018275Y020050D01*
X018502Y020050D01*
X018712Y020136D01*
X018828Y020253D01*
X018828Y020211D01*
X018916Y020123D01*
X019318Y020123D01*
X019406Y020211D01*
X019406Y020908D01*
X019318Y020996D01*
X018916Y020996D01*
X018868Y020947D01*
X018712Y021103D01*
X018502Y021190D01*
X018275Y021190D01*
X018066Y021103D01*
X017906Y020943D01*
X017819Y020733D01*
X017819Y020506D01*
X017906Y020297D01*
X018066Y020136D01*
X017994Y020208D02*
X014135Y020208D01*
X014135Y020307D02*
X017902Y020307D01*
X017861Y020405D02*
X014135Y020405D01*
X014135Y020504D02*
X017820Y020504D01*
X017819Y020602D02*
X014135Y020602D01*
X014135Y020701D02*
X017819Y020701D01*
X017846Y020799D02*
X014135Y020799D01*
X014135Y020898D02*
X017887Y020898D01*
X017959Y020996D02*
X014135Y020996D01*
X014135Y021095D02*
X018058Y021095D01*
X018720Y021095D02*
X027939Y021095D01*
X028001Y021069D02*
X028225Y021069D01*
X028432Y021155D01*
X028591Y021313D01*
X028677Y021520D01*
X028677Y021744D01*
X028591Y021951D01*
X028432Y022110D01*
X028225Y022196D01*
X028001Y022196D01*
X027794Y022110D01*
X027636Y021951D01*
X027550Y021744D01*
X027550Y021520D01*
X027636Y021313D01*
X027794Y021155D01*
X028001Y021069D01*
X027756Y021193D02*
X014135Y021193D01*
X014135Y021292D02*
X027657Y021292D01*
X027604Y021390D02*
X014135Y021390D01*
X014135Y021489D02*
X027563Y021489D01*
X027550Y021587D02*
X014135Y021587D01*
X014135Y021686D02*
X027550Y021686D01*
X027566Y021784D02*
X014128Y021784D01*
X014087Y021883D02*
X027607Y021883D01*
X027665Y021981D02*
X014024Y021981D01*
X013926Y022080D02*
X027764Y022080D01*
X027958Y022178D02*
X013827Y022178D01*
X013729Y022277D02*
X030596Y022277D01*
X030783Y022324D02*
X030334Y022210D01*
X029947Y021957D01*
X029663Y021592D01*
X029513Y021155D01*
X029513Y020692D01*
X029663Y020255D01*
X029947Y019890D01*
X029947Y019890D01*
X030334Y019637D01*
X030783Y019523D01*
X031244Y019562D01*
X031667Y019747D01*
X032007Y020061D01*
X032228Y020467D01*
X032228Y020467D01*
X032304Y020924D01*
X032228Y021380D01*
X032007Y021787D01*
X031667Y022100D01*
X031244Y022286D01*
X031244Y022286D01*
X030783Y022324D01*
X030783Y022324D01*
X031265Y022277D02*
X031694Y022277D01*
X031667Y022100D02*
X031667Y022100D01*
X031689Y022080D02*
X032063Y022080D01*
X032162Y021981D02*
X031796Y021981D01*
X031903Y021883D02*
X032260Y021883D01*
X032321Y021784D02*
X032009Y021784D01*
X032007Y021787D02*
X032007Y021787D01*
X032007Y021787D01*
X032062Y021686D02*
X032378Y021686D01*
X032431Y021587D02*
X032115Y021587D01*
X032169Y021489D02*
X032457Y021489D01*
X032484Y021390D02*
X032222Y021390D01*
X032228Y021380D02*
X032228Y021380D01*
X032242Y021292D02*
X032510Y021292D01*
X032516Y021193D02*
X032259Y021193D01*
X032275Y021095D02*
X032520Y021095D01*
X032520Y020996D02*
X032292Y020996D01*
X032299Y020898D02*
X032520Y020898D01*
X032520Y020799D02*
X032283Y020799D01*
X032266Y020701D02*
X032520Y020701D01*
X032520Y020602D02*
X032250Y020602D01*
X032234Y020504D02*
X032520Y020504D01*
X032520Y020405D02*
X032194Y020405D01*
X032140Y020307D02*
X032520Y020307D01*
X032520Y020208D02*
X032087Y020208D01*
X032034Y020110D02*
X032520Y020110D01*
X032520Y020011D02*
X031953Y020011D01*
X032007Y020061D02*
X032007Y020061D01*
X031846Y019913D02*
X032520Y019913D01*
X032520Y019814D02*
X031739Y019814D01*
X031667Y019747D02*
X031667Y019747D01*
X031594Y019716D02*
X032520Y019716D01*
X032520Y019617D02*
X031370Y019617D01*
X031244Y019562D02*
X031244Y019562D01*
X030783Y019523D02*
X030783Y019523D01*
X030413Y019617D02*
X027007Y019617D01*
X027023Y019519D02*
X032520Y019519D01*
X032520Y019420D02*
X027023Y019420D01*
X027009Y019322D02*
X032520Y019322D01*
X032520Y019223D02*
X026968Y019223D01*
X026914Y019125D02*
X032520Y019125D01*
X032520Y019026D02*
X026815Y019026D01*
X026630Y018928D02*
X032520Y018928D01*
X032520Y018632D02*
X031286Y018632D01*
X031384Y018534D02*
X032520Y018534D01*
X032520Y018435D02*
X031483Y018435D01*
X031581Y018337D02*
X032520Y018337D01*
X032520Y018238D02*
X031680Y018238D01*
X031778Y018140D02*
X032520Y018140D01*
X032520Y018041D02*
X031877Y018041D01*
X031975Y017943D02*
X032520Y017943D01*
X032520Y017844D02*
X032074Y017844D01*
X032172Y017746D02*
X032520Y017746D01*
X032520Y017647D02*
X032271Y017647D01*
X032342Y017549D02*
X032520Y017549D01*
X032520Y017450D02*
X032359Y017450D01*
X032359Y017352D02*
X032520Y017352D01*
X032520Y017253D02*
X032359Y017253D01*
X032359Y017155D02*
X032520Y017155D01*
X032520Y017056D02*
X032359Y017056D01*
X032359Y016958D02*
X032520Y016958D01*
X032520Y016859D02*
X032359Y016859D01*
X032359Y016761D02*
X032520Y016761D01*
X032520Y016662D02*
X032359Y016662D01*
X032359Y016564D02*
X032520Y016564D01*
X032520Y016465D02*
X032359Y016465D01*
X032359Y016367D02*
X032520Y016367D01*
X032520Y016268D02*
X032359Y016268D01*
X032359Y016170D02*
X032520Y016170D01*
X032520Y016071D02*
X032359Y016071D01*
X032359Y015973D02*
X032520Y015973D01*
X032520Y015874D02*
X032359Y015874D01*
X032359Y015776D02*
X032520Y015776D01*
X032520Y015677D02*
X032359Y015677D01*
X032359Y015579D02*
X032520Y015579D01*
X032520Y015480D02*
X032359Y015480D01*
X032359Y015382D02*
X032520Y015382D01*
X032520Y015283D02*
X032359Y015283D01*
X032359Y015185D02*
X032520Y015185D01*
X032520Y015086D02*
X032359Y015086D01*
X032359Y014988D02*
X032520Y014988D01*
X032520Y014889D02*
X032359Y014889D01*
X032359Y014791D02*
X032520Y014791D01*
X032520Y014692D02*
X032359Y014692D01*
X032359Y014594D02*
X032520Y014594D01*
X032520Y014495D02*
X032359Y014495D01*
X032359Y014397D02*
X032520Y014397D01*
X032520Y014298D02*
X032359Y014298D01*
X032359Y014200D02*
X032520Y014200D01*
X032520Y014101D02*
X032359Y014101D01*
X032359Y014003D02*
X032520Y014003D01*
X032520Y013904D02*
X032359Y013904D01*
X032359Y013806D02*
X032520Y013806D01*
X032520Y013707D02*
X032359Y013707D01*
X032359Y013609D02*
X032520Y013609D01*
X032520Y013510D02*
X032359Y013510D01*
X032359Y013412D02*
X032520Y013412D01*
X032520Y013313D02*
X032359Y013313D01*
X032359Y013215D02*
X032520Y013215D01*
X032520Y013116D02*
X032359Y013116D01*
X032359Y013018D02*
X032520Y013018D01*
X032520Y012919D02*
X032359Y012919D01*
X032359Y012821D02*
X032520Y012821D01*
X032520Y012722D02*
X032359Y012722D01*
X032359Y012624D02*
X032520Y012624D01*
X032520Y012525D02*
X032359Y012525D01*
X032359Y012427D02*
X032520Y012427D01*
X032520Y012328D02*
X032359Y012328D01*
X032359Y012230D02*
X032520Y012230D01*
X032520Y012131D02*
X032359Y012131D01*
X032359Y012033D02*
X032520Y012033D01*
X032520Y011934D02*
X032359Y011934D01*
X032359Y011836D02*
X032520Y011836D01*
X032520Y011737D02*
X032359Y011737D01*
X032359Y011639D02*
X032520Y011639D01*
X032520Y011540D02*
X032359Y011540D01*
X032359Y011442D02*
X032520Y011442D01*
X032520Y011343D02*
X032359Y011343D01*
X032359Y011245D02*
X032520Y011245D01*
X032520Y011146D02*
X032359Y011146D01*
X032359Y011048D02*
X032520Y011048D01*
X032520Y010949D02*
X032359Y010949D01*
X032359Y010851D02*
X032520Y010851D01*
X032520Y010752D02*
X032359Y010752D01*
X032359Y010654D02*
X032520Y010654D01*
X032520Y010555D02*
X032359Y010555D01*
X032359Y010457D02*
X032520Y010457D01*
X032520Y010358D02*
X032359Y010358D01*
X032359Y010260D02*
X032520Y010260D01*
X032520Y010161D02*
X032359Y010161D01*
X032359Y010063D02*
X032520Y010063D01*
X032520Y009964D02*
X032359Y009964D01*
X032359Y009866D02*
X032520Y009866D01*
X032520Y009767D02*
X032359Y009767D01*
X032359Y009669D02*
X032520Y009669D01*
X032520Y009570D02*
X032359Y009570D01*
X032359Y009472D02*
X032520Y009472D01*
X032520Y009373D02*
X032359Y009373D01*
X032359Y009275D02*
X032520Y009275D01*
X032520Y009176D02*
X032359Y009176D01*
X032359Y009078D02*
X032520Y009078D01*
X032520Y008979D02*
X032359Y008979D01*
X032359Y008881D02*
X032520Y008881D01*
X032520Y008782D02*
X032359Y008782D01*
X032359Y008684D02*
X032520Y008684D01*
X032520Y008585D02*
X032359Y008585D01*
X032359Y008487D02*
X032520Y008487D01*
X032520Y008388D02*
X032359Y008388D01*
X032359Y008290D02*
X032520Y008290D01*
X032520Y008191D02*
X032359Y008191D01*
X032359Y008093D02*
X032520Y008093D01*
X032520Y007994D02*
X032359Y007994D01*
X032359Y007896D02*
X032520Y007896D01*
X032520Y007797D02*
X032359Y007797D01*
X032331Y007699D02*
X032520Y007699D01*
X032520Y007600D02*
X032245Y007600D01*
X032147Y007502D02*
X032520Y007502D01*
X032520Y007403D02*
X032143Y007403D01*
X032106Y007305D02*
X032520Y007305D01*
X032520Y007206D02*
X032153Y007206D01*
X032153Y007108D02*
X032520Y007108D01*
X032520Y007009D02*
X032153Y007009D01*
X032153Y006910D02*
X032520Y006910D01*
X032520Y006812D02*
X032150Y006812D01*
X032052Y006713D02*
X032520Y006713D01*
X032520Y006615D02*
X028432Y006615D01*
X028432Y006713D02*
X031576Y006713D01*
X031478Y006812D02*
X028411Y006812D01*
X028312Y006910D02*
X031475Y006910D01*
X031475Y007009D02*
X028408Y007009D01*
X028482Y007108D02*
X031403Y007108D01*
X031305Y007206D02*
X028482Y007206D01*
X028482Y007305D02*
X031206Y007305D01*
X031143Y007403D02*
X028442Y007403D01*
X028343Y007502D02*
X031131Y007502D01*
X031131Y007600D02*
X028082Y007600D01*
X027735Y007994D02*
X031311Y007994D01*
X031409Y008093D02*
X027834Y008093D01*
X027932Y008191D02*
X031508Y008191D01*
X031574Y008290D02*
X030927Y008290D01*
X030978Y008388D02*
X031574Y008388D01*
X031574Y008487D02*
X030981Y008487D01*
X030981Y008585D02*
X031574Y008585D01*
X031574Y008684D02*
X030981Y008684D01*
X030981Y008782D02*
X031574Y008782D01*
X031574Y008881D02*
X030981Y008881D01*
X030981Y008979D02*
X031574Y008979D01*
X031574Y009078D02*
X030981Y009078D01*
X030981Y009176D02*
X031574Y009176D01*
X031574Y009275D02*
X030981Y009275D01*
X030981Y009373D02*
X031574Y009373D01*
X031574Y009472D02*
X030981Y009472D01*
X030981Y009570D02*
X031574Y009570D01*
X031574Y009669D02*
X030981Y009669D01*
X030981Y009767D02*
X031574Y009767D01*
X031574Y009866D02*
X030981Y009866D01*
X030981Y009964D02*
X031574Y009964D01*
X031574Y010063D02*
X030981Y010063D01*
X030981Y010161D02*
X031574Y010161D01*
X031574Y010260D02*
X030981Y010260D01*
X030981Y010358D02*
X031574Y010358D01*
X031574Y010457D02*
X030981Y010457D01*
X030981Y010555D02*
X031574Y010555D01*
X031574Y010654D02*
X030981Y010654D01*
X030981Y010752D02*
X031574Y010752D01*
X031574Y010851D02*
X030981Y010851D01*
X030981Y010949D02*
X031574Y010949D01*
X031574Y011048D02*
X030981Y011048D01*
X030981Y011146D02*
X031574Y011146D01*
X031574Y011245D02*
X030981Y011245D01*
X030981Y011343D02*
X031574Y011343D01*
X031574Y011442D02*
X030981Y011442D01*
X030981Y011540D02*
X031574Y011540D01*
X031574Y011639D02*
X030981Y011639D01*
X030981Y011737D02*
X031574Y011737D01*
X031574Y011836D02*
X030981Y011836D01*
X028257Y010161D02*
X027359Y010161D01*
X027359Y010063D02*
X028257Y010063D01*
X028257Y009964D02*
X028068Y009964D01*
X028147Y009866D02*
X028257Y009866D01*
X028257Y009767D02*
X028147Y009767D01*
X028147Y009669D02*
X028257Y009669D01*
X028257Y009570D02*
X028147Y009570D01*
X028147Y009472D02*
X028257Y009472D01*
X028257Y009373D02*
X028088Y009373D01*
X028088Y009275D02*
X028257Y009275D01*
X028257Y009176D02*
X028088Y009176D01*
X028088Y009078D02*
X028257Y009078D01*
X028257Y008979D02*
X028088Y008979D01*
X028088Y008881D02*
X028257Y008881D01*
X028257Y008782D02*
X028088Y008782D01*
X028088Y008684D02*
X028257Y008684D01*
X028257Y008585D02*
X028088Y008585D01*
X028088Y008487D02*
X028257Y008487D01*
X028260Y008388D02*
X028080Y008388D01*
X028031Y008290D02*
X028312Y008290D01*
X027587Y007896D02*
X031212Y007896D01*
X031145Y007797D02*
X025533Y007797D01*
X025631Y007896D02*
X025985Y007896D01*
X025934Y007994D02*
X025717Y007994D01*
X025745Y008093D02*
X025934Y008093D01*
X025934Y008191D02*
X025745Y008191D01*
X025434Y007699D02*
X031131Y007699D01*
X031244Y006538D02*
X030783Y006576D01*
X030783Y006576D01*
X030334Y006462D01*
X029947Y006209D01*
X029663Y005844D01*
X029513Y005407D01*
X029513Y004944D01*
X029663Y004507D01*
X029663Y004507D01*
X029947Y004142D01*
X029947Y004142D01*
X029947Y004142D01*
X030334Y003889D01*
X030334Y003889D01*
X030783Y003775D01*
X031244Y003814D01*
X031667Y003999D01*
X032007Y004313D01*
X032228Y004719D01*
X032228Y004719D01*
X032304Y005176D01*
X032228Y005632D01*
X032007Y006039D01*
X031667Y006352D01*
X031244Y006538D01*
X031244Y006538D01*
X031292Y006516D02*
X032520Y006516D01*
X032520Y006418D02*
X031516Y006418D01*
X031667Y006352D02*
X031667Y006352D01*
X031702Y006319D02*
X032520Y006319D01*
X032520Y006221D02*
X031809Y006221D01*
X031916Y006122D02*
X032520Y006122D01*
X032520Y006024D02*
X032015Y006024D01*
X032007Y006039D02*
X032007Y006039D01*
X032069Y005925D02*
X032520Y005925D01*
X032520Y005827D02*
X032122Y005827D01*
X032175Y005728D02*
X032520Y005728D01*
X032520Y005630D02*
X032228Y005630D01*
X032228Y005632D02*
X032228Y005632D01*
X032244Y005531D02*
X032520Y005531D01*
X032520Y005433D02*
X032261Y005433D01*
X032277Y005334D02*
X032520Y005334D01*
X032520Y005236D02*
X032294Y005236D01*
X032297Y005137D02*
X032517Y005137D01*
X032511Y005039D02*
X032281Y005039D01*
X032264Y004940D02*
X032492Y004940D01*
X032466Y004842D02*
X032248Y004842D01*
X032232Y004743D02*
X032439Y004743D01*
X032413Y004645D02*
X032187Y004645D01*
X032134Y004546D02*
X032358Y004546D01*
X032301Y004448D02*
X032081Y004448D01*
X032027Y004349D02*
X032244Y004349D01*
X032161Y004251D02*
X031940Y004251D01*
X032007Y004313D02*
X032007Y004313D01*
X032063Y004152D02*
X031833Y004152D01*
X031726Y004054D02*
X031964Y004054D01*
X031798Y003955D02*
X031567Y003955D01*
X031667Y003999D02*
X031667Y003999D01*
X031621Y003857D02*
X031342Y003857D01*
X031244Y003814D02*
X031244Y003814D01*
X031200Y003758D02*
X028993Y003758D01*
X029051Y003857D02*
X030461Y003857D01*
X030233Y003955D02*
X029051Y003955D01*
X029051Y004054D02*
X030082Y004054D01*
X029939Y004152D02*
X029051Y004152D01*
X029051Y004251D02*
X029862Y004251D01*
X029786Y004349D02*
X029051Y004349D01*
X029051Y004448D02*
X029709Y004448D01*
X029649Y004546D02*
X029051Y004546D01*
X028996Y004645D02*
X029616Y004645D01*
X029582Y004743D02*
X027544Y004743D01*
X027534Y004645D02*
X028156Y004645D01*
X028101Y004546D02*
X027534Y004546D01*
X027534Y004448D02*
X028101Y004448D01*
X028101Y004349D02*
X027518Y004349D01*
X027423Y004251D02*
X028101Y004251D01*
X028101Y004152D02*
X027329Y004152D01*
X027235Y004054D02*
X028101Y004054D01*
X028101Y003955D02*
X027144Y003955D01*
X027048Y003857D02*
X028101Y003857D01*
X028158Y003758D02*
X013195Y003758D01*
X013294Y003857D02*
X013423Y003857D01*
X013326Y003955D02*
X013325Y003955D01*
X013325Y004054D02*
X013326Y004054D01*
X013875Y004645D02*
X016988Y004645D01*
X016988Y004743D02*
X013875Y004743D01*
X013875Y004842D02*
X016988Y004842D01*
X016988Y004940D02*
X013800Y004940D01*
X013757Y005531D02*
X020442Y005531D01*
X020442Y005630D02*
X013757Y005630D01*
X013757Y005728D02*
X020539Y005728D01*
X020541Y005827D02*
X013757Y005827D01*
X013757Y005925D02*
X020541Y005925D01*
X020541Y006024D02*
X013662Y006024D01*
X013175Y006024D02*
X011098Y006024D01*
X011000Y006122D02*
X020541Y006122D01*
X020953Y006713D02*
X021018Y006713D01*
X021052Y006812D02*
X021117Y006812D01*
X021150Y006910D02*
X021215Y006910D01*
X020535Y007896D02*
X020511Y007896D01*
X020027Y007896D02*
X010712Y007896D01*
X010810Y007994D02*
X022509Y007994D01*
X022509Y008093D02*
X010883Y008093D01*
X010883Y008191D02*
X022509Y008191D01*
X021501Y008290D02*
X010883Y008290D01*
X010843Y008388D02*
X021426Y008388D01*
X021407Y008881D02*
X020995Y008881D01*
X021134Y008979D02*
X021407Y008979D01*
X021407Y009078D02*
X021232Y009078D01*
X021331Y009176D02*
X021407Y009176D01*
X024702Y006910D02*
X027635Y006910D01*
X027734Y006812D02*
X024702Y006812D01*
X024702Y006713D02*
X027832Y006713D01*
X027854Y006615D02*
X024667Y006615D01*
X024569Y006516D02*
X027745Y006516D01*
X028245Y006319D02*
X030116Y006319D01*
X029965Y006221D02*
X028245Y006221D01*
X028245Y006122D02*
X029880Y006122D01*
X029947Y006209D02*
X029947Y006209D01*
X029947Y006209D01*
X029803Y006024D02*
X028210Y006024D01*
X028112Y005925D02*
X029726Y005925D01*
X029663Y005844D02*
X029663Y005844D01*
X029657Y005827D02*
X028008Y005827D01*
X027909Y005728D02*
X029623Y005728D01*
X029589Y005630D02*
X027811Y005630D01*
X027712Y005531D02*
X029556Y005531D01*
X029522Y005433D02*
X027614Y005433D01*
X027515Y005334D02*
X029513Y005334D01*
X029513Y005236D02*
X027459Y005236D01*
X027558Y005137D02*
X029513Y005137D01*
X029513Y005039D02*
X027628Y005039D01*
X027628Y004940D02*
X029514Y004940D01*
X029548Y004842D02*
X027628Y004842D01*
X028297Y006418D02*
X030266Y006418D01*
X030334Y006462D02*
X030334Y006462D01*
X030548Y006516D02*
X028396Y006516D01*
X027436Y008487D02*
X027359Y008487D01*
X027359Y008585D02*
X027528Y008585D01*
X027528Y008684D02*
X027359Y008684D01*
X027359Y008782D02*
X027528Y008782D01*
X027528Y008881D02*
X027359Y008881D01*
X027359Y008979D02*
X027528Y008979D01*
X027528Y009078D02*
X027359Y009078D01*
X027359Y009176D02*
X027528Y009176D01*
X027528Y009275D02*
X027359Y009275D01*
X027359Y009373D02*
X027528Y009373D01*
X027469Y009472D02*
X027359Y009472D01*
X027359Y009570D02*
X027469Y009570D01*
X027469Y009669D02*
X027359Y009669D01*
X027359Y009767D02*
X027469Y009767D01*
X027469Y009866D02*
X027359Y009866D01*
X027359Y009964D02*
X027548Y009964D01*
X020541Y015382D02*
X003155Y015382D01*
X003122Y015480D02*
X020541Y015480D01*
X020541Y015579D02*
X003078Y015579D01*
X002980Y015677D02*
X020541Y015677D01*
X020541Y016761D02*
X020493Y016761D01*
X020528Y017647D02*
X020541Y017647D01*
X018647Y020110D02*
X029776Y020110D01*
X029700Y020208D02*
X019403Y020208D01*
X019406Y020307D02*
X029645Y020307D01*
X029612Y020405D02*
X019406Y020405D01*
X019406Y020504D02*
X029578Y020504D01*
X029544Y020602D02*
X019406Y020602D01*
X019406Y020701D02*
X029513Y020701D01*
X029513Y020799D02*
X019406Y020799D01*
X019406Y020898D02*
X029513Y020898D01*
X029513Y020996D02*
X018819Y020996D01*
X018783Y020208D02*
X018831Y020208D01*
X015108Y014791D02*
X000340Y014791D01*
X000340Y014889D02*
X001432Y014889D01*
X001320Y014988D02*
X000340Y014988D01*
X000340Y015086D02*
X001252Y015086D01*
X001211Y015185D02*
X000340Y015185D01*
X000340Y015283D02*
X001201Y015283D01*
X001201Y015382D02*
X000340Y015382D01*
X000340Y015480D02*
X001235Y015480D01*
X001278Y015579D02*
X000340Y015579D01*
X000340Y015677D02*
X001377Y015677D01*
X001583Y014781D02*
X001408Y014708D01*
X001274Y014574D01*
X001201Y014399D01*
X001201Y014209D01*
X001274Y014033D01*
X001408Y013899D01*
X001583Y013826D01*
X001773Y013826D01*
X001949Y013899D01*
X002083Y014033D01*
X002155Y014209D01*
X002155Y014399D01*
X002083Y014574D01*
X001949Y014708D01*
X001773Y014781D01*
X001583Y014781D01*
X001392Y014692D02*
X000340Y014692D01*
X000340Y014594D02*
X001293Y014594D01*
X001241Y014495D02*
X000340Y014495D01*
X000340Y014397D02*
X001201Y014397D01*
X001201Y014298D02*
X000340Y014298D01*
X000340Y014200D02*
X001205Y014200D01*
X001246Y014101D02*
X000340Y014101D01*
X000340Y014003D02*
X001305Y014003D01*
X001403Y013904D02*
X000340Y013904D01*
X000340Y013806D02*
X009407Y013806D01*
X009297Y013707D02*
X002950Y013707D01*
X002949Y013708D02*
X002773Y013781D01*
X002583Y013781D01*
X002408Y013708D01*
X002274Y013574D01*
X002201Y013399D01*
X002201Y013209D01*
X002274Y013033D01*
X002408Y012899D01*
X002583Y012826D01*
X002773Y012826D01*
X002949Y012899D01*
X003083Y013033D01*
X003155Y013209D01*
X003155Y013399D01*
X003083Y013574D01*
X002949Y013708D01*
X003048Y013609D02*
X009198Y013609D01*
X009100Y013510D02*
X003109Y013510D01*
X003150Y013412D02*
X009001Y013412D01*
X008903Y013313D02*
X003155Y013313D01*
X003155Y013215D02*
X008804Y013215D01*
X008706Y013116D02*
X003117Y013116D01*
X003067Y013018D02*
X008607Y013018D01*
X008509Y012919D02*
X002968Y012919D01*
X002388Y012919D02*
X002131Y012919D01*
X002155Y012944D02*
X002155Y013664D01*
X002038Y013781D01*
X001318Y013781D01*
X001201Y013664D01*
X001201Y012944D01*
X001318Y012826D01*
X002038Y012826D01*
X002155Y012944D01*
X002155Y013018D02*
X002290Y013018D01*
X002239Y013116D02*
X002155Y013116D01*
X002155Y013215D02*
X002201Y013215D01*
X002201Y013313D02*
X002155Y013313D01*
X002155Y013412D02*
X002206Y013412D01*
X002247Y013510D02*
X002155Y013510D01*
X002155Y013609D02*
X002308Y013609D01*
X002407Y013707D02*
X002112Y013707D01*
X001953Y013904D02*
X009964Y013904D01*
X010214Y013593D02*
X010206Y013585D01*
X009529Y013585D01*
X006001Y010058D01*
X005466Y010058D01*
X005111Y009703D01*
X005111Y007577D01*
X004836Y007302D01*
X004383Y007302D01*
X004009Y006928D01*
X004009Y004920D01*
X004107Y004821D01*
X004635Y004821D01*
X004733Y004920D01*
X004674Y004861D01*
X004722Y005333D02*
X004481Y005333D01*
X004265Y005550D01*
X004265Y006711D01*
X004619Y007065D01*
X005072Y007065D01*
X005348Y007341D01*
X005348Y009624D01*
X005544Y009821D01*
X006222Y009821D01*
X009615Y013215D01*
X011627Y013215D01*
X011954Y013542D01*
X012293Y013510D02*
X013068Y013510D01*
X013068Y013609D02*
X012293Y013609D01*
X012293Y013707D02*
X013087Y013707D01*
X013128Y013806D02*
X012250Y013806D01*
X012293Y013412D02*
X013105Y013412D01*
X013170Y013313D02*
X012285Y013313D01*
X012187Y013215D02*
X013203Y013215D01*
X013203Y013116D02*
X011882Y013116D01*
X011783Y013018D02*
X013203Y013018D01*
X013203Y012919D02*
X009673Y012919D01*
X009574Y012821D02*
X013203Y012821D01*
X013203Y012722D02*
X011787Y012722D01*
X011848Y012624D02*
X013203Y012624D01*
X013203Y012525D02*
X011848Y012525D01*
X011848Y012427D02*
X013203Y012427D01*
X013203Y012328D02*
X011848Y012328D01*
X011848Y012230D02*
X013203Y012230D01*
X013203Y012131D02*
X011761Y012131D01*
X011768Y012033D02*
X013203Y012033D01*
X013204Y011934D02*
X012059Y011934D01*
X012157Y011836D02*
X013245Y011836D01*
X013315Y011737D02*
X012256Y011737D01*
X012336Y011639D02*
X013413Y011639D01*
X013512Y011540D02*
X012359Y011540D01*
X012359Y011442D02*
X013610Y011442D01*
X013709Y011343D02*
X012359Y011343D01*
X012453Y011245D02*
X013807Y011245D01*
X013835Y011146D02*
X012551Y011146D01*
X012650Y011048D02*
X013835Y011048D01*
X013835Y010949D02*
X012748Y010949D01*
X012847Y010851D02*
X013835Y010851D01*
X013842Y010752D02*
X012945Y010752D01*
X013044Y010654D02*
X013883Y010654D01*
X013552Y010555D02*
X013142Y010555D01*
X012090Y009866D02*
X009328Y009866D01*
X009328Y009964D02*
X011991Y009964D01*
X011893Y010063D02*
X009328Y010063D01*
X009328Y010161D02*
X011794Y010161D01*
X011696Y010260D02*
X009328Y010260D01*
X009328Y010358D02*
X011597Y010358D01*
X011499Y010457D02*
X009328Y010457D01*
X009328Y010555D02*
X011400Y010555D01*
X011302Y010654D02*
X009328Y010654D01*
X009328Y010752D02*
X011203Y010752D01*
X011105Y010851D02*
X009328Y010851D01*
X009328Y010949D02*
X011006Y010949D01*
X010945Y011048D02*
X009328Y011048D01*
X009328Y011146D02*
X010934Y011146D01*
X010934Y011245D02*
X009328Y011245D01*
X009328Y011343D02*
X010934Y011343D01*
X010934Y011442D02*
X009367Y011442D01*
X009378Y011534D02*
X009466Y011446D01*
X009867Y011446D01*
X009955Y011534D01*
X009955Y011936D01*
X009867Y012023D01*
X009466Y012023D01*
X009378Y011936D01*
X009378Y011534D01*
X009378Y011540D02*
X009367Y011540D01*
X009367Y011639D02*
X009378Y011639D01*
X009367Y011737D02*
X009378Y011737D01*
X009366Y011836D02*
X009378Y011836D01*
X009367Y011934D02*
X009378Y011934D01*
X009367Y012033D02*
X010934Y012033D01*
X010934Y012131D02*
X009367Y012131D01*
X009367Y012230D02*
X009399Y012230D01*
X009382Y012328D02*
X009326Y012328D01*
X009382Y012427D02*
X009180Y012427D01*
X009279Y012525D02*
X009382Y012525D01*
X009377Y012624D02*
X009382Y012624D01*
X009885Y012722D02*
X011231Y012722D01*
X011137Y012624D02*
X009959Y012624D01*
X009959Y012525D02*
X011039Y012525D01*
X010958Y012427D02*
X009959Y012427D01*
X009959Y012328D02*
X010934Y012328D01*
X010934Y012230D02*
X009942Y012230D01*
X009955Y011934D02*
X010934Y011934D01*
X010934Y011836D02*
X009955Y011836D01*
X009955Y011737D02*
X010934Y011737D01*
X010934Y011639D02*
X009955Y011639D01*
X009955Y011540D02*
X010934Y011540D01*
X008848Y011245D02*
X007998Y011245D01*
X008097Y011343D02*
X008738Y011343D01*
X008690Y011442D02*
X008195Y011442D01*
X008294Y011540D02*
X008690Y011540D01*
X008690Y011639D02*
X008392Y011639D01*
X008491Y011737D02*
X008690Y011737D01*
X008691Y011836D02*
X008589Y011836D01*
X008688Y011934D02*
X008690Y011934D01*
X008115Y012525D02*
X006848Y012525D01*
X006848Y012427D02*
X008016Y012427D01*
X007918Y012328D02*
X006848Y012328D01*
X006848Y012238D02*
X006731Y012120D01*
X006287Y012120D01*
X006170Y012238D01*
X006170Y012681D01*
X006287Y012798D01*
X006731Y012798D01*
X006848Y012681D01*
X006848Y012238D01*
X006840Y012230D02*
X007819Y012230D01*
X007721Y012131D02*
X006741Y012131D01*
X006277Y012131D02*
X004832Y012131D01*
X004821Y012120D02*
X004938Y012238D01*
X004938Y012681D01*
X004821Y012798D01*
X004378Y012798D01*
X004261Y012681D01*
X004261Y012238D01*
X004378Y012120D01*
X004821Y012120D01*
X004930Y012230D02*
X006178Y012230D01*
X006170Y012328D02*
X004938Y012328D01*
X004938Y012427D02*
X006170Y012427D01*
X006170Y012525D02*
X004938Y012525D01*
X004938Y012624D02*
X006170Y012624D01*
X006211Y012722D02*
X004897Y012722D01*
X004302Y012722D02*
X000340Y012722D01*
X000340Y012624D02*
X004261Y012624D01*
X004261Y012525D02*
X000340Y012525D01*
X000340Y012427D02*
X004261Y012427D01*
X004261Y012328D02*
X000340Y012328D01*
X000340Y012230D02*
X004269Y012230D01*
X004367Y012131D02*
X000340Y012131D01*
X000340Y012033D02*
X007622Y012033D01*
X007524Y011934D02*
X000340Y011934D01*
X000340Y011836D02*
X007425Y011836D01*
X007327Y011737D02*
X000340Y011737D01*
X000340Y011639D02*
X007228Y011639D01*
X007130Y011540D02*
X006827Y011540D01*
X006867Y011442D02*
X007031Y011442D01*
X006933Y011343D02*
X006867Y011343D01*
X006440Y010851D02*
X006340Y010851D01*
X006297Y010949D02*
X006289Y010949D01*
X006199Y011048D02*
X006190Y011048D01*
X006190Y011146D02*
X006014Y011146D01*
X006190Y011245D02*
X005667Y011245D01*
X005667Y011343D02*
X006190Y011343D01*
X006190Y011442D02*
X005667Y011442D01*
X005626Y011540D02*
X006230Y011540D01*
X005029Y011540D02*
X000340Y011540D01*
X000340Y011442D02*
X004989Y011442D01*
X004989Y011343D02*
X000340Y011343D01*
X000340Y011245D02*
X000630Y011245D01*
X000456Y011146D02*
X000340Y011146D01*
X000340Y011048D02*
X000357Y011048D01*
X001018Y011245D02*
X004630Y011245D01*
X004456Y011146D02*
X001192Y011146D01*
X001290Y011048D02*
X001528Y011048D01*
X001430Y010949D02*
X001341Y010949D01*
X001365Y010358D02*
X001280Y010358D01*
X001182Y010260D02*
X001437Y010260D01*
X001544Y010161D02*
X000993Y010161D01*
X000655Y010161D02*
X000340Y010161D01*
X000340Y010063D02*
X003624Y010063D01*
X003624Y009964D02*
X000340Y009964D01*
X000340Y009866D02*
X003624Y009866D01*
X003624Y009767D02*
X000340Y009767D01*
X000340Y009669D02*
X003624Y009669D01*
X003624Y009570D02*
X000340Y009570D01*
X000340Y009472D02*
X003624Y009472D01*
X003624Y009373D02*
X003370Y009373D01*
X003361Y009382D02*
X003122Y009382D01*
X002952Y009213D01*
X002952Y008973D01*
X003122Y008804D01*
X003361Y008804D01*
X003530Y008973D01*
X003530Y009213D01*
X003361Y009382D01*
X003468Y009275D02*
X003624Y009275D01*
X003624Y009176D02*
X003530Y009176D01*
X003530Y009078D02*
X003624Y009078D01*
X003624Y008979D02*
X003530Y008979D01*
X003437Y008881D02*
X003624Y008881D01*
X003624Y008782D02*
X002691Y008782D01*
X002718Y008684D02*
X003624Y008684D01*
X003624Y008585D02*
X002704Y008585D01*
X002639Y008487D02*
X003624Y008487D01*
X003624Y008388D02*
X002559Y008388D01*
X002853Y008290D02*
X003169Y008290D01*
X003110Y008191D02*
X002939Y008191D01*
X002962Y008093D02*
X003110Y008093D01*
X003110Y007994D02*
X002960Y007994D01*
X002960Y007896D02*
X003110Y007896D01*
X003142Y007797D02*
X002961Y007797D01*
X002941Y007699D02*
X004125Y007699D01*
X004026Y007797D02*
X003655Y007797D01*
X003687Y007896D02*
X003928Y007896D01*
X003829Y007994D02*
X003687Y007994D01*
X003687Y008093D02*
X003731Y008093D01*
X003824Y008282D02*
X004363Y007743D01*
X004725Y007743D01*
X004729Y008124D02*
X004729Y010613D01*
X004824Y010708D01*
X004307Y010949D02*
X004218Y010949D01*
X004120Y011048D02*
X004357Y011048D01*
X003824Y010608D02*
X003824Y008282D01*
X003045Y008881D02*
X002606Y008881D01*
X002507Y008979D02*
X002952Y008979D01*
X002952Y009078D02*
X002405Y009078D01*
X002146Y009078D02*
X001937Y009078D01*
X001927Y009176D02*
X002952Y009176D01*
X003014Y009275D02*
X001874Y009275D01*
X001947Y008979D02*
X002028Y008979D01*
X001223Y009275D02*
X000340Y009275D01*
X000340Y009373D02*
X003113Y009373D01*
X003544Y010161D02*
X002104Y010161D01*
X002211Y010260D02*
X003437Y010260D01*
X003365Y010358D02*
X002283Y010358D01*
X002324Y010457D02*
X003324Y010457D01*
X003304Y010555D02*
X002344Y010555D01*
X002344Y010654D02*
X003304Y010654D01*
X003321Y010752D02*
X002327Y010752D01*
X002286Y010851D02*
X003362Y010851D01*
X003430Y010949D02*
X002218Y010949D01*
X002120Y011048D02*
X003528Y011048D01*
X005647Y009570D02*
X006584Y009570D01*
X006584Y009472D02*
X005598Y009472D01*
X005598Y009373D02*
X006584Y009373D01*
X006584Y009275D02*
X005598Y009275D01*
X005598Y009176D02*
X006584Y009176D01*
X006653Y009078D02*
X005598Y009078D01*
X005598Y008979D02*
X008848Y008979D01*
X008848Y008881D02*
X005598Y008881D01*
X005598Y008782D02*
X008848Y008782D01*
X008848Y008684D02*
X005598Y008684D01*
X005598Y008585D02*
X008848Y008585D01*
X008848Y008487D02*
X005598Y008487D01*
X005598Y008388D02*
X008848Y008388D01*
X008851Y008290D02*
X005598Y008290D01*
X005598Y008191D02*
X008902Y008191D01*
X009001Y008093D02*
X005598Y008093D01*
X005598Y007994D02*
X009099Y007994D01*
X009198Y007896D02*
X007132Y007896D01*
X007122Y007906D02*
X006841Y007906D01*
X006785Y007850D01*
X006728Y007906D01*
X006447Y007906D01*
X006249Y007708D01*
X006249Y007427D01*
X006447Y007229D01*
X006728Y007229D01*
X006785Y007285D01*
X006841Y007229D01*
X007122Y007229D01*
X007320Y007427D01*
X007320Y007708D01*
X007122Y007906D01*
X007231Y007797D02*
X009296Y007797D01*
X009395Y007699D02*
X007320Y007699D01*
X007320Y007600D02*
X009493Y007600D01*
X009592Y007502D02*
X007320Y007502D01*
X007296Y007403D02*
X009690Y007403D01*
X009789Y007305D02*
X007198Y007305D01*
X006372Y007305D02*
X005598Y007305D01*
X005598Y007403D02*
X006273Y007403D01*
X006249Y007502D02*
X005598Y007502D01*
X005598Y007600D02*
X006249Y007600D01*
X006249Y007699D02*
X005598Y007699D01*
X005598Y007797D02*
X006338Y007797D01*
X006437Y007896D02*
X005598Y007896D01*
X005562Y007206D02*
X009887Y007206D01*
X009986Y007108D02*
X005468Y007108D01*
X005369Y007009D02*
X010048Y007009D01*
X010048Y006910D02*
X005271Y006910D01*
X004719Y006812D02*
X010048Y006812D01*
X010048Y006713D02*
X004621Y006713D01*
X004553Y006615D02*
X004522Y006615D01*
X005000Y006615D02*
X010048Y006615D01*
X010048Y006516D02*
X007087Y006516D01*
X007143Y006418D02*
X010060Y006418D01*
X010124Y006319D02*
X007559Y006319D01*
X007615Y006221D02*
X009998Y006221D01*
X009960Y006122D02*
X007615Y006122D01*
X007615Y006024D02*
X009960Y006024D01*
X009960Y005925D02*
X007615Y005925D01*
X007615Y005827D02*
X009960Y005827D01*
X010014Y005728D02*
X007524Y005728D01*
X007030Y005728D02*
X006415Y005728D01*
X006405Y005630D02*
X010454Y005630D01*
X010484Y005728D02*
X010715Y005728D01*
X010617Y005827D02*
X010538Y005827D01*
X006938Y005827D02*
X006756Y005827D01*
X006111Y006221D02*
X005115Y006221D01*
X005115Y006319D02*
X006128Y006319D01*
X006226Y006418D02*
X005115Y006418D01*
X005099Y006516D02*
X006522Y006516D01*
X005777Y006122D02*
X005158Y006122D01*
X005214Y006024D02*
X005737Y006024D01*
X005443Y005925D02*
X005214Y005925D01*
X005214Y005827D02*
X005355Y005827D01*
X005355Y005728D02*
X005214Y005728D01*
X004733Y005345D02*
X004722Y005333D01*
X003759Y005334D02*
X003535Y005334D01*
X003601Y005433D02*
X003759Y005433D01*
X003759Y005531D02*
X003601Y005531D01*
X003601Y005630D02*
X003759Y005630D01*
X003759Y005728D02*
X003601Y005728D01*
X003576Y005827D02*
X003759Y005827D01*
X003759Y005925D02*
X002935Y005925D01*
X002988Y005827D02*
X003049Y005827D01*
X002882Y006024D02*
X003759Y006024D01*
X003759Y006122D02*
X002782Y006122D01*
X002675Y006221D02*
X003759Y006221D01*
X003759Y006319D02*
X002568Y006319D01*
X002383Y006418D02*
X003759Y006418D01*
X003759Y006516D02*
X002158Y006516D01*
X002136Y006812D02*
X000961Y006812D01*
X001077Y006910D02*
X002020Y006910D01*
X001703Y007009D02*
X001394Y007009D01*
X001462Y007108D02*
X001635Y007108D01*
X001594Y007206D02*
X001503Y007206D01*
X001544Y007305D02*
X001553Y007305D01*
X000681Y006812D02*
X000340Y006812D01*
X000340Y006910D02*
X000583Y006910D01*
X000484Y007009D02*
X000340Y007009D01*
X000340Y007108D02*
X000403Y007108D01*
X000378Y007206D02*
X000340Y007206D01*
X000340Y007305D02*
X000395Y007305D01*
X000340Y007403D02*
X000463Y007403D01*
X000543Y007502D02*
X000340Y007502D01*
X000340Y006713D02*
X003759Y006713D01*
X003759Y006615D02*
X000340Y006615D01*
X000340Y006516D02*
X001414Y006516D01*
X001133Y006418D02*
X000340Y006418D01*
X000340Y006319D02*
X000982Y006319D01*
X000831Y006221D02*
X000340Y006221D01*
X000340Y006122D02*
X000746Y006122D01*
X000669Y006024D02*
X000340Y006024D01*
X000340Y005925D02*
X000592Y005925D01*
X000523Y005827D02*
X000340Y005827D01*
X000340Y005728D02*
X000489Y005728D01*
X000456Y005630D02*
X000340Y005630D01*
X000340Y005531D02*
X000422Y005531D01*
X000388Y005433D02*
X000340Y005433D01*
X000340Y005334D02*
X000379Y005334D01*
X000379Y005236D02*
X000342Y005236D01*
X000349Y005137D02*
X000379Y005137D01*
X000379Y005039D02*
X000362Y005039D01*
X002415Y006812D02*
X003759Y006812D01*
X003759Y006910D02*
X002514Y006910D01*
X002612Y007009D02*
X003772Y007009D01*
X003835Y007108D02*
X002694Y007108D01*
X002719Y007206D02*
X003934Y007206D01*
X004032Y007305D02*
X002702Y007305D01*
X002634Y007403D02*
X004131Y007403D01*
X004229Y007502D02*
X002554Y007502D01*
X002862Y007600D02*
X004223Y007600D01*
X006739Y007896D02*
X006830Y007896D01*
X007192Y009078D02*
X008848Y009078D01*
X008848Y009176D02*
X007261Y009176D01*
X007261Y009275D02*
X008848Y009275D01*
X008848Y009373D02*
X007261Y009373D01*
X007261Y009472D02*
X008848Y009472D01*
X008848Y009570D02*
X007266Y009570D01*
X007365Y009669D02*
X008848Y009669D01*
X008407Y009767D02*
X007463Y009767D01*
X007080Y010063D02*
X006816Y010063D01*
X006915Y010161D02*
X007178Y010161D01*
X007013Y010260D02*
X008397Y010260D01*
X008848Y010358D02*
X007112Y010358D01*
X007210Y010457D02*
X008848Y010457D01*
X008848Y010555D02*
X007309Y010555D01*
X007407Y010654D02*
X008848Y010654D01*
X008848Y010752D02*
X007506Y010752D01*
X007604Y010851D02*
X008848Y010851D01*
X008848Y010949D02*
X007703Y010949D01*
X007801Y011048D02*
X008848Y011048D01*
X008848Y011146D02*
X007900Y011146D01*
X006981Y009964D02*
X006718Y009964D01*
X006619Y009866D02*
X006883Y009866D01*
X006784Y009767D02*
X006521Y009767D01*
X006422Y009669D02*
X006662Y009669D01*
X009328Y009669D02*
X012287Y009669D01*
X012188Y009767D02*
X009328Y009767D01*
X009328Y009570D02*
X012385Y009570D01*
X012484Y009472D02*
X009328Y009472D01*
X009328Y009373D02*
X012582Y009373D01*
X008410Y012821D02*
X000340Y012821D01*
X000340Y012919D02*
X001226Y012919D01*
X001201Y013018D02*
X000340Y013018D01*
X000340Y013116D02*
X001201Y013116D01*
X001201Y013215D02*
X000340Y013215D01*
X000340Y013313D02*
X001201Y013313D01*
X001201Y013412D02*
X000340Y013412D01*
X000340Y013510D02*
X001201Y013510D01*
X001201Y013609D02*
X000340Y013609D01*
X000340Y013707D02*
X001244Y013707D01*
X002052Y014003D02*
X010988Y014003D01*
X010921Y013904D02*
X010463Y013904D01*
X010552Y013806D02*
X010921Y013806D01*
X010921Y013707D02*
X010552Y013707D01*
X010552Y013609D02*
X010921Y013609D01*
X010945Y013510D02*
X010552Y013510D01*
X011475Y013510D02*
X011568Y013510D01*
X011615Y013609D02*
X011498Y013609D01*
X011498Y013707D02*
X011615Y013707D01*
X011657Y013806D02*
X011498Y013806D01*
X011498Y013904D02*
X013129Y013904D01*
X013129Y014003D02*
X011432Y014003D01*
X013129Y014101D02*
X009361Y014101D01*
X009387Y014127D02*
X009270Y014010D01*
X008394Y014010D01*
X008379Y014025D01*
X008364Y014010D01*
X007921Y014010D01*
X007804Y014127D01*
X007804Y014570D01*
X007921Y014688D01*
X008364Y014688D01*
X008379Y014673D01*
X008394Y014688D01*
X009270Y014688D01*
X009387Y014570D01*
X009387Y014127D01*
X009387Y014200D02*
X013171Y014200D01*
X013809Y013806D02*
X015454Y013806D01*
X015452Y013707D02*
X013907Y013707D01*
X013969Y013609D02*
X015452Y013609D01*
X015452Y013510D02*
X014003Y013510D01*
X014003Y013412D02*
X015452Y013412D01*
X015498Y013313D02*
X014003Y013313D01*
X015175Y014298D02*
X009387Y014298D01*
X009387Y014397D02*
X015108Y014397D01*
X015108Y014495D02*
X009387Y014495D01*
X009364Y014594D02*
X015108Y014594D01*
X015108Y014692D02*
X001965Y014692D01*
X002063Y014594D02*
X006256Y014594D01*
X006257Y014594D02*
X006169Y014506D01*
X006169Y014105D01*
X006257Y014017D01*
X006659Y014017D01*
X006746Y014105D01*
X006746Y014506D01*
X006659Y014594D01*
X006257Y014594D01*
X006169Y014495D02*
X002115Y014495D01*
X002155Y014397D02*
X006169Y014397D01*
X006169Y014298D02*
X002155Y014298D01*
X002152Y014200D02*
X006169Y014200D01*
X006173Y014101D02*
X002111Y014101D01*
X006659Y014594D02*
X007827Y014594D01*
X007804Y014495D02*
X006746Y014495D01*
X006746Y014397D02*
X007804Y014397D01*
X007804Y014298D02*
X006746Y014298D01*
X006746Y014200D02*
X007804Y014200D01*
X007830Y014101D02*
X006743Y014101D01*
X006806Y012722D02*
X008312Y012722D01*
X008213Y012624D02*
X006848Y012624D01*
X001170Y009176D02*
X000340Y009176D01*
X000340Y009078D02*
X000691Y009078D01*
X000590Y008979D02*
X000340Y008979D01*
X000340Y008881D02*
X000491Y008881D01*
X000405Y008782D02*
X000340Y008782D01*
X000340Y008684D02*
X000378Y008684D01*
X000393Y008585D02*
X000340Y008585D01*
X000340Y008487D02*
X000457Y008487D01*
X000538Y008388D02*
X000340Y008388D01*
X000951Y009078D02*
X001160Y009078D01*
X001150Y008979D02*
X001069Y008979D01*
X000466Y010260D02*
X000340Y010260D01*
X000340Y010358D02*
X000368Y010358D01*
X003160Y005236D02*
X003759Y005236D01*
X003759Y005137D02*
X003163Y005137D01*
X003147Y005039D02*
X003759Y005039D01*
X003759Y004940D02*
X003131Y004940D01*
X003114Y004842D02*
X003771Y004842D01*
X003832Y004743D02*
X003098Y004743D01*
X003053Y004645D02*
X003930Y004645D01*
X001649Y019523D02*
X001649Y019523D01*
X001279Y019617D02*
X000340Y019617D01*
X000340Y019716D02*
X001080Y019716D01*
X000930Y019814D02*
X000340Y019814D01*
X000340Y019913D02*
X000796Y019913D01*
X000719Y020011D02*
X000340Y020011D01*
X000340Y020110D02*
X000642Y020110D01*
X000566Y020208D02*
X000340Y020208D01*
X000340Y020307D02*
X000511Y020307D01*
X000529Y020255D02*
X000529Y020255D01*
X000478Y020405D02*
X000340Y020405D01*
X000340Y020504D02*
X000444Y020504D01*
X000410Y020602D02*
X000340Y020602D01*
X000340Y020701D02*
X000379Y020701D01*
X000379Y020799D02*
X000340Y020799D01*
X000340Y020898D02*
X000379Y020898D01*
X000379Y020996D02*
X000340Y020996D01*
X000340Y021095D02*
X000379Y021095D01*
X000392Y021193D02*
X000340Y021193D01*
X000342Y021292D02*
X000426Y021292D01*
X000460Y021390D02*
X000350Y021390D01*
X000370Y021489D02*
X000494Y021489D01*
X000527Y021587D02*
X000402Y021587D01*
X000434Y021686D02*
X000602Y021686D01*
X000529Y021592D02*
X000529Y021592D01*
X000476Y021784D02*
X000678Y021784D01*
X000755Y021883D02*
X000548Y021883D01*
X000619Y021981D02*
X000849Y021981D01*
X000813Y021957D02*
X000813Y021957D01*
X000813Y021957D01*
X000722Y022080D02*
X001000Y022080D01*
X000857Y022178D02*
X001151Y022178D01*
X001200Y022210D02*
X001200Y022210D01*
X001071Y022277D02*
X001462Y022277D01*
X002131Y022277D02*
X003051Y022277D01*
X003051Y022178D02*
X002355Y022178D01*
X002533Y022100D02*
X002533Y022100D01*
X002555Y022080D02*
X003051Y022080D01*
X003092Y021981D02*
X002662Y021981D01*
X003587Y021981D02*
X003682Y021981D01*
X003641Y022080D02*
X003628Y022080D01*
X003628Y022178D02*
X003641Y022178D01*
X003628Y022277D02*
X003641Y022277D01*
X005657Y020898D02*
X006081Y020898D01*
X005937Y020996D02*
X005801Y020996D01*
X006445Y020898D02*
X006868Y020898D01*
X006725Y020996D02*
X006588Y020996D01*
X026619Y020011D02*
X029853Y020011D01*
X029930Y019913D02*
X026811Y019913D01*
X026909Y019814D02*
X030063Y019814D01*
X030214Y019716D02*
X026967Y019716D01*
X028287Y021095D02*
X029513Y021095D01*
X029526Y021193D02*
X028471Y021193D01*
X028569Y021292D02*
X029560Y021292D01*
X029594Y021390D02*
X028623Y021390D01*
X028663Y021489D02*
X029627Y021489D01*
X029661Y021587D02*
X028677Y021587D01*
X028677Y021686D02*
X029736Y021686D01*
X029663Y021592D02*
X029663Y021592D01*
X029812Y021784D02*
X028660Y021784D01*
X028619Y021883D02*
X029889Y021883D01*
X029947Y021957D02*
X029947Y021957D01*
X029947Y021957D01*
X029983Y021981D02*
X028561Y021981D01*
X028463Y022080D02*
X030134Y022080D01*
X030285Y022178D02*
X028268Y022178D01*
X030334Y022210D02*
X030334Y022210D01*
X031489Y022178D02*
X031906Y022178D01*
X030783Y003775D02*
X030783Y003775D01*
D24*
X027907Y006065D02*
X026993Y005152D01*
X026993Y004361D01*
X026844Y004211D01*
X021210Y004211D01*
X021151Y004270D01*
X021151Y004617D01*
X021064Y004723D01*
X020781Y004723D01*
X020785Y005093D02*
X020781Y005097D01*
X020785Y005093D02*
X020997Y005093D01*
X021103Y005199D01*
X021103Y005817D01*
X021328Y006042D01*
X024363Y006042D01*
X024363Y006790D02*
X021434Y006790D01*
X020781Y006136D01*
X020781Y005491D01*
X020466Y006495D02*
X019836Y006495D01*
X019718Y006613D01*
X019718Y006908D01*
X020190Y006908D02*
X020210Y006908D01*
X020682Y007380D01*
X027985Y007380D01*
X028143Y007223D01*
X027670Y007144D02*
X028143Y006672D01*
X027907Y006199D02*
X027907Y006065D01*
X027670Y007144D02*
X021115Y007144D01*
X020466Y006495D01*
X020505Y007577D02*
X020269Y007577D01*
X020505Y007577D02*
X020584Y007656D01*
X025052Y007656D01*
X025505Y008109D01*
X025505Y008983D01*
X025517Y008995D01*
X025544Y008967D01*
X025033Y008978D02*
X027119Y008978D01*
X027119Y008900D02*
X025033Y008900D01*
X025033Y008821D02*
X027119Y008821D01*
X027119Y008743D02*
X025033Y008743D01*
X025033Y008664D02*
X027119Y008664D01*
X027119Y008586D02*
X025033Y008586D01*
X025033Y008507D02*
X027119Y008507D01*
X027119Y008483D02*
X025033Y008483D01*
X025033Y015687D01*
X026529Y015687D01*
X026529Y014664D01*
X027119Y014664D01*
X027119Y008483D01*
X027119Y009057D02*
X025033Y009057D01*
X025033Y009135D02*
X027119Y009135D01*
X027119Y009214D02*
X025033Y009214D01*
X025033Y009292D02*
X027119Y009292D01*
X027119Y009371D02*
X025033Y009371D01*
X025033Y009449D02*
X027119Y009449D01*
X027119Y009528D02*
X025033Y009528D01*
X025033Y009606D02*
X027119Y009606D01*
X027119Y009685D02*
X025033Y009685D01*
X025033Y009763D02*
X027119Y009763D01*
X027119Y009842D02*
X025033Y009842D01*
X025033Y009920D02*
X027119Y009920D01*
X027119Y009999D02*
X025033Y009999D01*
X025033Y010077D02*
X027119Y010077D01*
X027119Y010156D02*
X025033Y010156D01*
X025033Y010234D02*
X027119Y010234D01*
X027119Y010313D02*
X025033Y010313D01*
X025033Y010391D02*
X027119Y010391D01*
X027119Y010470D02*
X025033Y010470D01*
X025033Y010548D02*
X027119Y010548D01*
X027119Y010627D02*
X025033Y010627D01*
X025033Y010705D02*
X027119Y010705D01*
X027119Y010784D02*
X025033Y010784D01*
X025033Y010862D02*
X027119Y010862D01*
X027119Y010941D02*
X025033Y010941D01*
X025033Y011019D02*
X027119Y011019D01*
X027119Y011098D02*
X025033Y011098D01*
X025033Y011176D02*
X027119Y011176D01*
X027119Y011255D02*
X025033Y011255D01*
X025033Y011333D02*
X027119Y011333D01*
X027119Y011412D02*
X025033Y011412D01*
X025033Y011490D02*
X027119Y011490D01*
X027119Y011569D02*
X025033Y011569D01*
X025033Y011647D02*
X027119Y011647D01*
X027119Y011726D02*
X025033Y011726D01*
X025033Y011804D02*
X027119Y011804D01*
X027119Y011883D02*
X025033Y011883D01*
X025033Y011961D02*
X027119Y011961D01*
X027119Y012040D02*
X025033Y012040D01*
X025033Y012118D02*
X027119Y012118D01*
X027119Y012197D02*
X025033Y012197D01*
X025033Y012275D02*
X027119Y012275D01*
X027119Y012354D02*
X025033Y012354D01*
X025033Y012432D02*
X027119Y012432D01*
X027119Y012511D02*
X025033Y012511D01*
X025033Y012589D02*
X027119Y012589D01*
X027119Y012668D02*
X025033Y012668D01*
X025033Y012746D02*
X027119Y012746D01*
X027119Y012825D02*
X025033Y012825D01*
X025033Y012903D02*
X027119Y012903D01*
X027119Y012982D02*
X025033Y012982D01*
X025033Y013060D02*
X027119Y013060D01*
X027119Y013139D02*
X025033Y013139D01*
X025033Y013217D02*
X027119Y013217D01*
X027119Y013296D02*
X025033Y013296D01*
X025033Y013374D02*
X027119Y013374D01*
X027119Y013453D02*
X025033Y013453D01*
X025033Y013531D02*
X027119Y013531D01*
X027119Y013610D02*
X025033Y013610D01*
X025033Y013688D02*
X027119Y013688D01*
X027119Y013767D02*
X025033Y013767D01*
X025033Y013845D02*
X027119Y013845D01*
X027119Y013924D02*
X025033Y013924D01*
X025033Y014002D02*
X027119Y014002D01*
X027119Y014081D02*
X025033Y014081D01*
X025033Y014159D02*
X027119Y014159D01*
X027119Y014238D02*
X025033Y014238D01*
X025033Y014316D02*
X027119Y014316D01*
X027119Y014395D02*
X025033Y014395D01*
X025033Y014473D02*
X027119Y014473D01*
X027119Y014552D02*
X025033Y014552D01*
X025033Y014630D02*
X027119Y014630D01*
X027299Y014630D02*
X030741Y014630D01*
X030741Y014552D02*
X027299Y014552D01*
X027299Y014473D02*
X030741Y014473D01*
X030741Y014395D02*
X027299Y014395D01*
X027299Y014316D02*
X030741Y014316D01*
X030741Y014238D02*
X027299Y014238D01*
X027299Y014159D02*
X030741Y014159D01*
X030741Y014081D02*
X027299Y014081D01*
X027299Y014002D02*
X030741Y014002D01*
X030741Y013924D02*
X027299Y013924D01*
X027299Y013845D02*
X030741Y013845D01*
X030741Y013767D02*
X027299Y013767D01*
X027299Y013688D02*
X030741Y013688D01*
X030741Y013610D02*
X027299Y013610D01*
X027299Y013531D02*
X030741Y013531D01*
X030741Y013453D02*
X027299Y013453D01*
X027299Y013374D02*
X030741Y013374D01*
X030741Y013296D02*
X027299Y013296D01*
X027299Y013217D02*
X030741Y013217D01*
X030741Y013139D02*
X027299Y013139D01*
X027299Y013060D02*
X030741Y013060D01*
X030741Y012982D02*
X027299Y012982D01*
X027299Y012903D02*
X030741Y012903D01*
X030741Y012825D02*
X027299Y012825D01*
X027299Y012746D02*
X030741Y012746D01*
X030741Y012668D02*
X027299Y012668D01*
X027299Y012589D02*
X030741Y012589D01*
X030741Y012511D02*
X027299Y012511D01*
X027299Y012432D02*
X030741Y012432D01*
X030741Y012354D02*
X027299Y012354D01*
X027299Y012275D02*
X030741Y012275D01*
X030741Y012197D02*
X027299Y012197D01*
X027299Y012118D02*
X030741Y012118D01*
X030741Y012040D02*
X027299Y012040D01*
X027299Y011961D02*
X030741Y011961D01*
X030741Y011883D02*
X027299Y011883D01*
X027299Y011804D02*
X030741Y011804D01*
X030741Y011726D02*
X027299Y011726D01*
X027299Y011647D02*
X030741Y011647D01*
X030741Y011569D02*
X027299Y011569D01*
X027299Y011490D02*
X030741Y011490D01*
X030741Y011412D02*
X027299Y011412D01*
X027299Y011333D02*
X030741Y011333D01*
X030741Y011255D02*
X027299Y011255D01*
X027299Y011176D02*
X030741Y011176D01*
X030741Y011098D02*
X027299Y011098D01*
X027299Y011019D02*
X030741Y011019D01*
X030741Y010941D02*
X027299Y010941D01*
X027299Y010862D02*
X030741Y010862D01*
X030741Y010784D02*
X027299Y010784D01*
X027299Y010705D02*
X030741Y010705D01*
X030741Y010627D02*
X027299Y010627D01*
X027299Y010548D02*
X030741Y010548D01*
X030741Y010470D02*
X027299Y010470D01*
X027299Y010451D02*
X027299Y014664D01*
X028655Y014664D01*
X028655Y015687D01*
X030072Y015687D01*
X030072Y014743D01*
X030741Y014743D01*
X030741Y008443D01*
X028497Y008443D01*
X028497Y010451D01*
X027299Y010451D01*
X028497Y010391D02*
X030741Y010391D01*
X030741Y010313D02*
X028497Y010313D01*
X028497Y010234D02*
X030741Y010234D01*
X030741Y010156D02*
X028497Y010156D01*
X028497Y010077D02*
X030741Y010077D01*
X030741Y009999D02*
X028497Y009999D01*
X028497Y009920D02*
X030741Y009920D01*
X030741Y009842D02*
X028497Y009842D01*
X028497Y009763D02*
X030741Y009763D01*
X030741Y009685D02*
X028497Y009685D01*
X028497Y009606D02*
X030741Y009606D01*
X030741Y009528D02*
X028497Y009528D01*
X028497Y009449D02*
X030741Y009449D01*
X030741Y009371D02*
X028497Y009371D01*
X028497Y009292D02*
X030741Y009292D01*
X030741Y009214D02*
X028497Y009214D01*
X028497Y009135D02*
X030741Y009135D01*
X030741Y009057D02*
X028497Y009057D01*
X028497Y008978D02*
X030741Y008978D01*
X030741Y008900D02*
X028497Y008900D01*
X028497Y008821D02*
X030741Y008821D01*
X030741Y008743D02*
X028497Y008743D01*
X028497Y008664D02*
X030741Y008664D01*
X030741Y008586D02*
X028497Y008586D01*
X028497Y008507D02*
X030741Y008507D01*
X031371Y007715D02*
X031814Y008158D01*
X031814Y017341D01*
X030928Y018227D01*
X021332Y018227D01*
X021056Y017951D01*
X021056Y009703D01*
X020849Y009497D01*
X020731Y009497D01*
X020170Y009487D02*
X020781Y010097D01*
X020781Y018079D01*
X021174Y018473D01*
X031105Y018473D01*
X032119Y017459D01*
X032119Y007813D01*
X031922Y007617D01*
X031804Y007617D01*
X031371Y007715D02*
X031371Y007479D01*
X031814Y007036D01*
X027344Y004943D02*
X027344Y004443D01*
X026958Y004038D01*
X021048Y004038D01*
X020781Y004325D01*
X020781Y004329D01*
X021647Y008483D02*
X021647Y015727D01*
X022985Y015727D01*
X022985Y014664D01*
X024852Y014664D01*
X024852Y014270D01*
X024853Y014270D01*
X024853Y010412D01*
X023615Y010412D01*
X023655Y008483D01*
X021647Y008483D01*
X021647Y008507D02*
X023654Y008507D01*
X023653Y008586D02*
X021647Y008586D01*
X021647Y008664D02*
X023651Y008664D01*
X023649Y008743D02*
X021647Y008743D01*
X021647Y008821D02*
X023648Y008821D01*
X023646Y008900D02*
X021647Y008900D01*
X021647Y008978D02*
X023644Y008978D01*
X023643Y009057D02*
X021647Y009057D01*
X021647Y009135D02*
X023641Y009135D01*
X023640Y009214D02*
X021647Y009214D01*
X021647Y009292D02*
X023638Y009292D01*
X023636Y009371D02*
X021647Y009371D01*
X021647Y009449D02*
X023635Y009449D01*
X023633Y009528D02*
X021647Y009528D01*
X021647Y009606D02*
X023632Y009606D01*
X023630Y009685D02*
X021647Y009685D01*
X021647Y009763D02*
X023628Y009763D01*
X023627Y009842D02*
X021647Y009842D01*
X021647Y009920D02*
X023625Y009920D01*
X023624Y009999D02*
X021647Y009999D01*
X021647Y010077D02*
X023622Y010077D01*
X023620Y010156D02*
X021647Y010156D01*
X021647Y010234D02*
X023619Y010234D01*
X023617Y010313D02*
X021647Y010313D01*
X021647Y010391D02*
X023616Y010391D01*
X024853Y010470D02*
X021647Y010470D01*
X021647Y010548D02*
X024853Y010548D01*
X024853Y010627D02*
X021647Y010627D01*
X021647Y010705D02*
X024853Y010705D01*
X024853Y010784D02*
X021647Y010784D01*
X021647Y010862D02*
X024853Y010862D01*
X024853Y010941D02*
X021647Y010941D01*
X021647Y011019D02*
X024853Y011019D01*
X024853Y011098D02*
X021647Y011098D01*
X021647Y011176D02*
X024853Y011176D01*
X024853Y011255D02*
X021647Y011255D01*
X021647Y011333D02*
X024853Y011333D01*
X024853Y011412D02*
X021647Y011412D01*
X021647Y011490D02*
X024853Y011490D01*
X024853Y011569D02*
X021647Y011569D01*
X021647Y011647D02*
X024853Y011647D01*
X024853Y011726D02*
X021647Y011726D01*
X021647Y011804D02*
X024853Y011804D01*
X024853Y011883D02*
X021647Y011883D01*
X021647Y011961D02*
X024853Y011961D01*
X024853Y012040D02*
X021647Y012040D01*
X021647Y012118D02*
X024853Y012118D01*
X024853Y012197D02*
X021647Y012197D01*
X021647Y012275D02*
X024853Y012275D01*
X024853Y012354D02*
X021647Y012354D01*
X021647Y012432D02*
X024853Y012432D01*
X024853Y012511D02*
X021647Y012511D01*
X021647Y012589D02*
X024853Y012589D01*
X024853Y012668D02*
X021647Y012668D01*
X021647Y012746D02*
X024853Y012746D01*
X024853Y012825D02*
X021647Y012825D01*
X021647Y012903D02*
X024853Y012903D01*
X024853Y012982D02*
X021647Y012982D01*
X021647Y013060D02*
X024853Y013060D01*
X024853Y013139D02*
X021647Y013139D01*
X021647Y013217D02*
X024853Y013217D01*
X024853Y013296D02*
X021647Y013296D01*
X021647Y013374D02*
X024853Y013374D01*
X024853Y013453D02*
X021647Y013453D01*
X021647Y013531D02*
X024853Y013531D01*
X024853Y013610D02*
X021647Y013610D01*
X021647Y013688D02*
X024853Y013688D01*
X024853Y013767D02*
X021647Y013767D01*
X021647Y013845D02*
X024853Y013845D01*
X024853Y013924D02*
X021647Y013924D01*
X021647Y014002D02*
X024853Y014002D01*
X024853Y014081D02*
X021647Y014081D01*
X021647Y014159D02*
X024853Y014159D01*
X024853Y014238D02*
X021647Y014238D01*
X021647Y014316D02*
X024852Y014316D01*
X024852Y014395D02*
X021647Y014395D01*
X021647Y014473D02*
X024852Y014473D01*
X024852Y014552D02*
X021647Y014552D01*
X021647Y014630D02*
X024852Y014630D01*
X025033Y014709D02*
X026529Y014709D01*
X026529Y014787D02*
X025033Y014787D01*
X025033Y014866D02*
X026529Y014866D01*
X026529Y014944D02*
X025033Y014944D01*
X025033Y015023D02*
X026529Y015023D01*
X026529Y015101D02*
X025033Y015101D01*
X025033Y015180D02*
X026529Y015180D01*
X026529Y015258D02*
X025033Y015258D01*
X025033Y015337D02*
X026529Y015337D01*
X026529Y015415D02*
X025033Y015415D01*
X025033Y015494D02*
X026529Y015494D01*
X026529Y015572D02*
X025033Y015572D01*
X025033Y015651D02*
X026529Y015651D01*
X028162Y015530D02*
X028182Y015550D01*
X028182Y017361D01*
X027828Y017715D01*
X027828Y017735D01*
X028379Y018010D02*
X028536Y017853D01*
X028536Y014388D01*
X027769Y013621D01*
X028655Y014709D02*
X030741Y014709D01*
X030072Y014787D02*
X028655Y014787D01*
X028655Y014866D02*
X030072Y014866D01*
X030072Y014944D02*
X028655Y014944D01*
X028655Y015023D02*
X030072Y015023D01*
X030072Y015101D02*
X028655Y015101D01*
X028655Y015180D02*
X030072Y015180D01*
X030072Y015258D02*
X028655Y015258D01*
X028655Y015337D02*
X030072Y015337D01*
X030072Y015415D02*
X028655Y015415D01*
X028655Y015494D02*
X030072Y015494D01*
X030072Y015572D02*
X028655Y015572D01*
X028655Y015651D02*
X030072Y015651D01*
X028379Y018010D02*
X021479Y018010D01*
X021312Y017843D01*
X021312Y009497D01*
X020928Y009113D01*
X019895Y009113D01*
X019659Y009349D01*
X019521Y009349D01*
X014403Y010195D02*
X013733Y009526D01*
X012769Y009526D01*
X011174Y011121D01*
X011174Y012321D01*
X011292Y012439D01*
X011509Y012439D01*
X011509Y011731D02*
X011922Y011731D01*
X012119Y011534D01*
X012119Y011239D01*
X013103Y010254D01*
X013812Y010254D01*
X010288Y007144D02*
X009088Y008345D01*
X009088Y011514D01*
X009029Y011613D01*
X008635Y010018D02*
X007375Y010018D01*
X006981Y009624D01*
X006981Y009428D01*
X006922Y009369D01*
X010288Y007144D02*
X010288Y006495D01*
X011076Y005707D01*
X013418Y005707D01*
X013064Y004624D02*
X013615Y004073D01*
X013064Y004624D02*
X009836Y004624D01*
X009540Y004329D01*
X009540Y003857D01*
X000376Y007797D02*
X000376Y007960D01*
X000377Y007961D01*
X000376Y007933D02*
X000377Y007932D01*
X000376Y007933D02*
X000376Y008085D01*
X011017Y017617D02*
X011233Y017400D01*
X012198Y017400D01*
X011017Y017617D02*
X011017Y018109D01*
X011017Y017617D02*
X010899Y017498D01*
X007099Y017498D01*
X006785Y017813D01*
X006785Y018089D01*
X014048Y018084D02*
X015564Y018084D01*
X015564Y018006D02*
X014048Y018006D01*
X014048Y017927D02*
X015564Y017927D01*
X015564Y017849D02*
X014048Y017849D01*
X014048Y017770D02*
X015564Y017770D01*
X015564Y017692D02*
X014048Y017692D01*
X014048Y017613D02*
X015564Y017613D01*
X015564Y017535D02*
X014048Y017535D01*
X014048Y017456D02*
X015564Y017456D01*
X015564Y017378D02*
X014048Y017378D01*
X014048Y017299D02*
X015564Y017299D01*
X015564Y017221D02*
X014048Y017221D01*
X014048Y017142D02*
X015564Y017142D01*
X015564Y017064D02*
X014048Y017064D01*
X014048Y017046D02*
X015564Y017046D01*
X015564Y018247D01*
X014048Y018247D01*
X014048Y017046D01*
X014048Y018163D02*
X015564Y018163D01*
X015564Y018241D02*
X014048Y018241D01*
X021647Y015651D02*
X022985Y015651D01*
X022985Y015572D02*
X021647Y015572D01*
X021647Y015494D02*
X022985Y015494D01*
X022985Y015415D02*
X021647Y015415D01*
X021647Y015337D02*
X022985Y015337D01*
X022985Y015258D02*
X021647Y015258D01*
X021647Y015180D02*
X022985Y015180D01*
X022985Y015101D02*
X021647Y015101D01*
X021647Y015023D02*
X022985Y015023D01*
X022985Y014944D02*
X021647Y014944D01*
X021647Y014866D02*
X022985Y014866D01*
X022985Y014787D02*
X021647Y014787D01*
X021647Y014709D02*
X022985Y014709D01*
X024639Y015510D02*
X024678Y015550D01*
X024678Y017361D01*
X024324Y017715D01*
X027340Y004947D02*
X027344Y004943D01*
D25*
X027513Y008168D02*
X026273Y008168D01*
X027513Y008168D02*
X027808Y008463D01*
X027808Y009664D01*
X024304Y009664D02*
X024304Y008266D01*
X024166Y008128D01*
X022848Y008128D01*
X022848Y015510D02*
X024225Y015510D01*
X024304Y015589D01*
X024304Y016869D01*
X026273Y015530D02*
X027710Y015530D01*
X027828Y015648D01*
X027828Y016869D01*
D26*
X002721Y008085D02*
X002721Y007797D01*
X002340Y007759D01*
X002237Y007511D02*
X002479Y007214D01*
X002275Y007011D01*
X001979Y007253D01*
X001859Y007191D02*
X001690Y007600D01*
X001407Y007600D02*
X001238Y007191D01*
X001118Y007253D02*
X000821Y007011D01*
X000618Y007214D01*
X000860Y007511D01*
X000757Y007759D02*
X000376Y007797D01*
X000376Y008085D02*
X000757Y008124D01*
X000860Y008372D02*
X000618Y008669D01*
X000821Y008872D01*
X001118Y008630D01*
X001366Y008733D02*
X001404Y009114D01*
X001692Y009114D01*
X001731Y008733D01*
X001979Y008630D02*
X002275Y008872D01*
X002479Y008669D01*
X002237Y008372D01*
X002340Y008124D02*
X002721Y008085D01*
X001978Y007252D02*
X001940Y007230D01*
X001900Y007209D01*
X001859Y007191D01*
X000859Y007511D02*
X000832Y007557D01*
X000809Y007606D01*
X000788Y007655D01*
X000771Y007706D01*
X000757Y007758D01*
X001118Y007252D02*
X001156Y007230D01*
X001196Y007209D01*
X001237Y007191D01*
X002237Y007511D02*
X002264Y007557D01*
X002287Y007606D01*
X002308Y007655D01*
X002325Y007706D01*
X002339Y007758D01*
X001978Y008630D02*
X001932Y008657D01*
X001883Y008680D01*
X001834Y008701D01*
X001783Y008718D01*
X001731Y008732D01*
X000859Y008371D02*
X000832Y008325D01*
X000809Y008276D01*
X000788Y008227D01*
X000771Y008176D01*
X000757Y008124D01*
X001118Y008630D02*
X001164Y008657D01*
X001213Y008680D01*
X001262Y008701D01*
X001313Y008718D01*
X001365Y008732D01*
X002237Y008371D02*
X002264Y008325D01*
X002287Y008276D01*
X002308Y008227D01*
X002325Y008176D01*
X002339Y008124D01*
X001689Y007600D02*
X001723Y007616D01*
X001756Y007636D01*
X001786Y007659D01*
X001814Y007685D01*
X001839Y007714D01*
X001860Y007745D01*
X001879Y007778D01*
X001894Y007813D01*
X001905Y007849D01*
X001913Y007886D01*
X001917Y007924D01*
X001916Y007962D01*
X001912Y007999D01*
X001904Y008037D01*
X001893Y008073D01*
X001877Y008107D01*
X001859Y008140D01*
X001836Y008171D01*
X001811Y008199D01*
X001783Y008225D01*
X001753Y008248D01*
X001720Y008267D01*
X001686Y008283D01*
X001650Y008296D01*
X001613Y008304D01*
X001576Y008309D01*
X001538Y008310D01*
X001500Y008307D01*
X001463Y008300D01*
X001426Y008289D01*
X001391Y008275D01*
X001358Y008257D01*
X001326Y008236D01*
X001297Y008211D01*
X001271Y008184D01*
X001247Y008155D01*
X001227Y008123D01*
X001210Y008089D01*
X001196Y008053D01*
X001187Y008016D01*
X001181Y007979D01*
X001179Y007941D01*
X001181Y007905D01*
X001186Y007869D01*
X001195Y007834D01*
X001207Y007800D01*
X001223Y007767D01*
X001241Y007736D01*
X001263Y007707D01*
X001287Y007680D01*
X001314Y007656D01*
X001343Y007634D01*
X001374Y007616D01*
X001407Y007600D01*
D27*
X013603Y012014D02*
X013603Y012030D01*
D28*
X013603Y013445D01*
X013468Y013581D01*
X013603Y012014D02*
X014235Y011382D01*
X014235Y010849D01*
D29*
X015161Y017439D02*
X014964Y017636D01*
X014107Y017636D01*
X013655Y018089D01*
X013655Y021672D01*
X013379Y021947D01*
X011332Y021947D01*
X011174Y021790D01*
X011174Y021219D01*
M02*
